<svg xmlns="http://www.w3.org/2000/svg" xmlns:xlink="http://www.w3.org/1999/xlink" viewBox="0 0 1400 1050"><defs><style>.bdb6c50a-cacd-4485-ae41-8a0e794f574d{fill:none;}.afdabf6a-aa88-44af-9fdd-432a35ab62a5{fill:#8ebb64;}.f0038f65-1c95-4e5b-8cbc-49e41ed44e75{fill:#a5be97;}.a92d3412-dabf-4eca-ac64-d673adfd21ec{fill:#80b45e;}.bf958bf8-d817-47f4-9d11-79e509b79581{fill:#79a45c;}.b433eafd-c866-4f43-88cd-53809c794749{fill:url(#a104f7f7-92f3-4c44-b7d9-ea8e07f5305e);}.a8f51635-8171-426f-ac12-e332cb23c990{clip-path:url(#b5d6f934-a898-432f-9266-6fdcff5a455b);}.bfeef219-b217-4049-892b-bc02561bc9bc{fill:url(#b0004f57-e226-4b14-9699-6e63ebdbea11);}.ad6d4e58-a981-49d3-bc90-5fa65b5aa08d{fill:#56925a;}.bb17d9d8-87bb-4feb-b502-08ba3de8f5e6{fill:#007239;}.fb0fddd2-4782-4db2-a601-890b3361ba5c{fill:#006735;}.be3b1c05-0f7f-41e7-a2c8-2e766f477ff3{fill:#005023;}.a4d41fcb-51ca-41e2-bfa8-618d47c1877c{fill:url(#e012110c-f755-4f2a-944e-5c5fb4aeed32);}.be6a7092-a5d5-4d71-8362-911c03b1ae40{fill:url(#e3b8cf5d-edf5-417f-9a4f-9756d0536a2a);}.b0c36187-0578-4748-ae27-199ad5a871b7{fill:#fff;}.ab432a7f-0475-47c9-aa6b-864fbbc4b3d5{fill:#008c31;}.f36be06f-5670-48fe-aa12-a7d522deb380{fill:#007827;}.fad94d82-f42d-4581-9b52-32337a6d0b77{fill:#599a21;}.bc916a29-78de-4261-ae36-04109afb4025{fill:#45831a;}.ae2874c3-6f7e-41f5-a992-a58623bea722{fill:#578712;}.a8c3e9b6-1450-46f7-a08d-f7acfec64cfa{fill:#f39800;}</style><linearGradient id="a104f7f7-92f3-4c44-b7d9-ea8e07f5305e" x1="700.05" y1="-98.43" x2="700.05" y2="746.33" gradientUnits="userSpaceOnUse"><stop offset="0" stop-color="#5ec5f2"/><stop offset="0.24" stop-color="#67c7f2"/><stop offset="0.33" stop-color="#90d6f5"/><stop offset="0.48" stop-color="#cbecfb"/><stop offset="0.6" stop-color="#f1fafe"/><stop offset="0.65" stop-color="#fff"/></linearGradient><clipPath id="b5d6f934-a898-432f-9266-6fdcff5a455b"><path class="bdb6c50a-cacd-4485-ae41-8a0e794f574d" d="M520.48,729.92s15.37-621.17,359-622.83,359.2,613,359.2,613Z"/></clipPath><radialGradient id="b0004f57-e226-4b14-9699-6e63ebdbea11" cx="1033.6" cy="304.37" r="264.9" gradientTransform="translate(-325.63 0) scale(1.15 1)" gradientUnits="userSpaceOnUse"><stop offset="0" stop-color="#96b64a"/><stop offset="1" stop-color="#00824e"/></radialGradient><radialGradient id="e012110c-f755-4f2a-944e-5c5fb4aeed32" cx="1315.76" cy="388.93" r="212.26" gradientTransform="translate(-0.05 0)" gradientUnits="userSpaceOnUse"><stop offset="0" stop-color="#96b64a"/><stop offset="0.03" stop-color="#5fa34f"/><stop offset="1" stop-color="#003c1b"/></radialGradient><radialGradient id="e3b8cf5d-edf5-417f-9a4f-9756d0536a2a" cx="279.68" cy="388.93" r="212.26" gradientTransform="translate(-205.66 0) scale(1.11 1)" gradientUnits="userSpaceOnUse"><stop offset="0" stop-color="#96b64a"/><stop offset="1" stop-color="#005b37"/></radialGradient></defs><title>背景</title><g id="bf9a2e33-9975-4889-a189-5f4a63b85b4a" data-name="圖層 2"><g id="f6f8d497-9ce1-4e3e-82b4-4d3e78bae9b0" data-name="圖層 1"><path class="afdabf6a-aa88-44af-9fdd-432a35ab62a5" d="M2.38,668.9H200.82s15.28,0,15.28,15.29-14.85,12.74-14.85,12.74l-54.77.16s-17-2.71-17,16.39,21.65,14.86,21.65,14.86H312.48s10.19,1.7,10.19,14.86-10.62,10.62-10.62,10.62H195.3s-14.43-1.27-14.43,9.76,5.09,11.89,14,11.89h87s11,.85,11,9.77-3.82,11.89-9.34,11.89H118s-11.88,1.69-11.88,12.31,4.24,14.43,11.46,14.43h124s9.76.85,9.76,11.89a15.89,15.89,0,0,1-.17,2.39h326s15.29,0,15.29,15.28-14.86,12.74-14.86,12.74l-54.77.16s-17-2.71-17,16.4,21.65,14.86,21.65,14.86H688.81S699,899.28,699,912.45s-10.62,10.61-10.62,10.61H571.63s-14.43-1.27-14.43,9.77,5.09,11.88,14,11.88h87s11,.85,11,9.77-3.82,11.89-9.34,11.89H494.36s-11.88,1.7-11.88,12.31,4.24,14.44,11.46,14.44h124s9.76.84,9.76,11.88-9.55,9.56-9.55,9.56H437.47s-11.75-.22-11.75,9.55,10.33,10.34,10.33,10.34H576.3s9.34.6,9.34,10.46a10.52,10.52,0,0,1-1.12,5.09H775.15c.38-10.31,9.53-8.89,9.53-8.89H965.33s11.76.21,11.76-9.56-10.34-10.33-10.34-10.33H826.5s-9.34-.6-9.34-10.47,9-9,9-9h215.45a35.13,35.13,0,0,1-.71-7.26c0-18.3,11.9-14.76,11.9-14.76h130.91s16.19,1.77,16.19-13.58-5.71-16.53-15.71-16.53h-97.59s-12.37-1.18-12.37-13.58,4.28-16.53,10.47-16.53h185.65s13.33-2.36,13.33-17.12-4.76-20.07-12.85-20.07h-139s-11-1.18-11-16.53,10.71-13.28,10.71-13.28h202.55s13.18.29,13.18-13.29-11.59-14.37-11.59-14.37H1178.45s-8.85-.71-10.28-11.5H696.22s-29.41,0-29.41-15.29,28.59-12.73,28.59-12.73l105.38-.16s32.67,2.7,32.67-16.4-41.66-14.86-41.66-14.86H481.39s-19.6-1.7-19.6-14.86,20.42-10.62,20.42-10.62H706.84s27.77,1.28,27.77-9.76-9.8-11.89-27-11.89H540.2S519,706,519,697.05s7.35-11.89,18-11.89H855.5s22.88-1.7,22.88-12.32a14.92,14.92,0,0,0-1-5.53H.09V838.15H2.38Z"/><path class="f0038f65-1c95-4e5b-8cbc-49e41ed44e75" d="M1233.19,1015.18H1052.3s-8.22-1.71-10.72-13.4H826.13s-9-.9-9,9,9.34,10.47,9.34,10.47H966.75s10.34.57,10.34,10.33-11.76,9.56-11.76,9.56H784.68s-9.15-1.42-9.53,8.89h479.64c1.62-3.34,2.68-7.9,2.68-14.16C1257.47,1009.28,1233.19,1015.18,1233.19,1015.18Z"/><path class="f0038f65-1c95-4e5b-8cbc-49e41ed44e75" d="M310.25,1035.37s26.43,0,27.21,14.63H584.52a10.52,10.52,0,0,0,1.12-5.09c0-9.86-9.34-10.46-9.34-10.46H436.05s-10.33-.58-10.33-10.34,11.75-9.55,11.75-9.55H618.12s9.55,1.48,9.55-9.56-9.76-11.88-9.76-11.88h-124c-7.22,0-11.46-3.83-11.46-14.44s11.88-12.31,11.88-12.31H659.94c5.52,0,9.34-3,9.34-11.89s-11-9.77-11-9.77h-87c-8.92,0-14-.85-14-11.88s14.43-9.77,14.43-9.77H688.38S699,925.61,699,912.45s-10.19-14.86-10.19-14.86H527.48s-21.65,4.24-21.65-14.86,17-16.4,17-16.4l54.77-.16s14.86,2.54,14.86-12.74-15.29-15.28-15.29-15.28h-326c-1.28,8.42-9.38,7.17-9.38,7.17H61.14s-11.75-.22-11.75,9.55S59.72,865.2,59.72,865.2H200s9.34.6,9.34,10.47-9,9-9,9H2.38V838.15H.09v197.22Z"/><path class="a92d3412-dabf-4eca-ac64-d673adfd21ec" d="M310.25,1035.37H.09V1050H337.46C336.68,1035.38,310.25,1035.37,310.25,1035.37Z"/><path class="a92d3412-dabf-4eca-ac64-d673adfd21ec" d="M1400,813.38H1168.17c1.43,10.79,10.28,11.5,10.28,11.5H1335.7s11.59.8,11.59,14.37-13.18,13.29-13.18,13.29H1131.56s-10.71-2.07-10.71,13.28,11,16.53,11,16.53h139c8.09,0,12.85,5.31,12.85,20.07s-13.33,17.12-13.33,17.12H1084.67c-6.19,0-10.47,4.13-10.47,16.53s12.37,13.58,12.37,13.58h97.59c10,0,15.71,1.18,15.71,16.53s-16.19,13.58-16.19,13.58H1052.77s-11.9-3.54-11.9,14.76a35.13,35.13,0,0,0,.71,7.26c2.5,11.69,10.72,13.4,10.72,13.4h180.89s24.28-5.9,24.28,20.66c0,6.26-1.06,10.82-2.68,14.16H1400Z"/><path class="bf958bf8-d817-47f4-9d11-79e509b79581" d="M855.5,685.16H536.94c-10.62,0-18,3-18,11.89s21.23,9.76,21.23,9.76H707.66c17.15,0,27,.85,27,11.89s-27.77,9.76-27.77,9.76H482.21s-20.42-2.54-20.42,10.62,19.6,14.86,19.6,14.86h310.4s41.66-4.25,41.66,14.86-32.67,16.4-32.67,16.4l-105.38.16s-28.59-2.55-28.59,12.73,29.41,15.29,29.41,15.29H1400V667.31H877.41a14.92,14.92,0,0,1,1,5.53C878.38,683.46,855.5,685.16,855.5,685.16Z"/><path class="a92d3412-dabf-4eca-ac64-d673adfd21ec" d="M241.58,823.87h-124c-7.22,0-11.46-3.82-11.46-14.43S118,797.13,118,797.13H283.61c5.52,0,9.34-3,9.34-11.89s-11-9.77-11-9.77h-87c-8.92,0-14-.85-14-11.89s14.43-9.76,14.43-9.76H312.05s10.62,2.55,10.62-10.62-10.19-14.86-10.19-14.86H151.15s-21.65,4.25-21.65-14.86,17-16.39,17-16.39l54.77-.16s14.85,2.54,14.85-12.74-15.28-15.29-15.28-15.29H2.38V884.64h198s9,.9,9-9S200,865.2,200,865.2H59.72s-10.33-.57-10.33-10.33,11.75-9.55,11.75-9.55H241.79s8.1,1.25,9.38-7.17a15.89,15.89,0,0,0,.17-2.39C251.34,824.72,241.58,823.87,241.58,823.87Z"/><rect class="b433eafd-c866-4f43-88cd-53809c794749" x="0.09" width="1399.91" height="665.69"/><g class="a8f51635-8171-426f-ac12-e332cb23c990"><path class="bfeef219-b217-4049-892b-bc02561bc9bc" d="M520.48,729.92s15.37-621.17,359-622.83,359.2,613,359.2,613Z"/><path class="ad6d4e58-a981-49d3-bc90-5fa65b5aa08d" d="M661.42,141c27,51.17,81.72,85.39,137.63,96.21,66.44,12.85,133.14-7.39,189.75-42.22,33.12-20.38,63.15-45.3,93-70.13,6.43-5.36,5.54-16.36,0-21.89-6.35-6.36-15.44-5.36-21.88,0-47.68,39.72-97.67,79.88-157.28,97.85q-11.43,3.45-23.14,5.82a164.13,164.13,0,0,1-20.46,3,203.48,203.48,0,0,1-22.63.76c-3.37-.07-6.75-.24-10.12-.49-1.55-.12-3.1-.26-4.65-.41l-2.32-.25c-.27,0-3.24-.37-1.8-.19.83.1-3.15-.47-4.09-.62-1.53-.25-3.06-.51-4.59-.8q-5.32-1-10.59-2.26a203.24,203.24,0,0,1-19.93-5.89q-4.34-1.52-8.6-3.23c-.32-.13-3.22-1.35-1.67-.68,1.38.59-.91-.41-1-.43-1.61-.73-3.23-1.46-4.83-2.21a199.48,199.48,0,0,1-17.94-9.64q-4.8-2.9-9.41-6.07c-1.42-1-2.84-2-4.24-3l-1.78-1.32c-1.31-1,1.15,1-1-.72a179.93,179.93,0,0,1-15.74-14.1q-3.79-3.84-7.32-7.92c-1.25-1.44-2.45-2.92-3.66-4.39-.08-.1-1.53-2-.54-.67s-.77-1-.93-1.27a147.4,147.4,0,0,1-11.55-18.46c-3.9-7.38-14.18-9.64-21.17-5.55-7.48,4.38-9.47,13.76-5.55,21.17Z"/><path class="bb17d9d8-87bb-4feb-b502-08ba3de8f5e6" d="M565.67,246.38c42.84,73.32,112.67,133.34,196,154.38,51.37,13,104.85,9.68,156.49.1,49.58-9.2,99.21-23.9,142.71-50,24.48-14.69,46.86-32.67,68.63-51.05,23.13-19.54,46.06-39.33,69.07-59,6.36-5.43,5.59-16.3,0-21.88-6.3-6.3-15.51-5.45-21.88,0q-29.73,25.41-59.47,50.83c-18.54,15.82-36,30.59-55.8,44-40,27.2-83.31,42.56-130.62,53s-98.09,16.48-145.6,7.51A260.27,260.27,0,0,1,755,366.67q-6.62-2.1-13.11-4.54c-2.39-.9-4.77-1.84-7.14-2.8-4.56-1.82,1.42.64-1.24-.51q-2.46-1.06-4.89-2.17a290.23,290.23,0,0,1-52.09-30.75c-.81-.59-1.62-1.19-2.42-1.8-.32-.24-3.65-2.83-1.64-1.24q-3.54-2.79-7-5.66-6.34-5.26-12.4-10.85a336.49,336.49,0,0,1-23.91-24.46q-5.37-6.09-10.44-12.42l-1.83-2.3c-1.11-1.43-1.2-1.54-.28-.35-.44-.58-.89-1.16-1.33-1.75-1.61-2.13-3.21-4.29-4.77-6.46q-9.71-13.49-18.07-27.85a15.48,15.48,0,0,0-26.72,15.62Z"/><path class="fb0fddd2-4782-4db2-a601-890b3361ba5c" d="M496.93,442.92c69.66,79.3,175.86,119.34,279.52,124.55a506.23,506.23,0,0,0,168.94-20.66c51.74-15.39,101-38.64,147.44-65.91,50.81-29.81,98.57-64.4,146.13-99.06,6.74-4.91,10.07-13.44,5.55-21.17-3.9-6.66-14.38-10.5-21.17-5.55-41.54,30.27-83.21,60.47-126.95,87.5-44,27.2-89.7,50.91-137.49,67.37C907.16,527.81,855,537.07,800.68,537.12c-53,0-104.36-8.71-154.24-28.24a375.15,375.15,0,0,1-69.52-36.67,265.07,265.07,0,0,1-29.5-22.64A305.72,305.72,0,0,1,518.81,421c-5.52-6.28-16.24-5.64-21.88,0-6.24,6.23-5.54,15.58,0,21.88Z"/><path class="be3b1c05-0f7f-41e7-a2c8-2e766f477ff3" d="M445.65,593.62c42.51,35.7,91.59,62.52,144.21,80.13,56.81,19,116.44,25.09,176.11,25.16,62.42.08,126.52-1.44,187.57-15.56,59.49-13.77,116.51-38.28,172.23-62.79,60.09-26.43,118.88-56.42,172.79-94.07,6.85-4.78,10-13.55,5.56-21.17-4-6.78-14.29-10.36-21.18-5.55C1235.61,532.83,1184.46,560,1132,584c-52.11,23.87-105.37,46.84-161.14,62.84-58.48,16.78-117.66,19.66-178.5,20.84-58.87,1.15-116.5-1.37-173.14-17.28C564.19,635,510.58,607.88,467.53,571.73c-6.39-5.37-15.61-6.27-21.88,0-5.52,5.52-6.43,16.49,0,21.89Z"/></g><polygon class="bdb6c50a-cacd-4485-ae41-8a0e794f574d" points="1174.42 728.39 1400 728.39 1400 724.85 1174.42 728.39"/><path class="bdb6c50a-cacd-4485-ae41-8a0e794f574d" d="M1083.73,637.79c3.28-29.12,8.08-63.08,15.09-98.73q2.48-12.6,5.33-25.43c9-40.36,20.93-81.91,36.74-120.31q5.05-12.26,10.63-24c13.38-28.15,29.13-53.93,47.69-75.41a224.49,224.49,0,0,1,16-16.73c30.19-28.45,66.95-46,111.69-46.3A155.08,155.08,0,0,1,1400,248.13V216.41H1062.17v512h14.66c.18-6.14,1.05-30.46,4.3-65.29C1081.87,655.18,1082.73,646.72,1083.73,637.79Z"/><path class="a4d41fcb-51ca-41e2-bfa8-618d47c1877c" d="M1270.09,334.2a143.31,143.31,0,0,1-70.88-40.33c-18.56,21.48-34.31,47.26-47.69,75.41a234.81,234.81,0,0,0,35.41,38.37c21,18.12,45.88,31.62,72.93,37.78,34.84,7.93,71.5,2.47,105.59-6.48A289.61,289.61,0,0,0,1400,427.6V302.91C1362.09,328.8,1316,344.61,1270.09,334.2Z"/><path class="a4d41fcb-51ca-41e2-bfa8-618d47c1877c" d="M1215.17,277.14a113.6,113.6,0,0,0,18.24,15.77,122.62,122.62,0,0,0,50,20.41c19.54,3.25,40.71,0,59.74-6.71,20.82-7.29,39.45-18.72,56.8-32.08v-26.4a155.08,155.08,0,0,0-73.14-17.29C1282.12,231.09,1245.36,248.69,1215.17,277.14Z"/><path class="a4d41fcb-51ca-41e2-bfa8-618d47c1877c" d="M1242.24,464.66c-40.44-12.41-74.72-38.74-101.35-71.34-15.81,38.4-27.75,79.95-36.74,120.31a243,243,0,0,0,61.77,40.43c68.59,31.45,148.53,27.57,217.57-.18,5.58-2.24,11.07-4.64,16.51-7.15V452.46a349.21,349.21,0,0,1-45.14,12.78C1317.87,473.23,1278.87,475.9,1242.24,464.66Z"/><path class="a4d41fcb-51ca-41e2-bfa8-618d47c1877c" d="M1252.19,598.73c-56.35-3.87-110.28-24.49-153.37-59.67-7,35.65-11.81,69.61-15.09,98.73a270.34,270.34,0,0,0,61,28.88c39.15,12.82,79.82,15.13,120.74,14.25,42.8-.93,85.13-3.5,126-17.14,2.85-.95,5.69-1.94,8.53-2.95v-89c-8.39,3.63-16.91,7-25.57,10C1335.44,595.42,1293.42,601.55,1252.19,598.73Z"/><path class="a4d41fcb-51ca-41e2-bfa8-618d47c1877c" d="M1400,685.32c-6.41,2.15-12.87,4.15-19.38,5.93-43.06,11.79-89.08,13.1-133.49,13-42.34-.11-84.49-5.28-124.1-20.85a306.44,306.44,0,0,1-41.9-20.28c-3.25,34.83-4.12,59.15-4.3,65.29h97.59L1400,724.85Z"/><path class="ad6d4e58-a981-49d3-bc90-5fa65b5aa08d" d="M1283.46,313.32a122.62,122.62,0,0,1-50-20.41,113.6,113.6,0,0,1-18.24-15.77,224.49,224.49,0,0,0-16,16.73,143.31,143.31,0,0,0,70.88,40.33c45.92,10.41,92-5.4,129.91-31.29V274.53c-17.35,13.36-36,24.79-56.8,32.08C1324.17,313.28,1303,316.57,1283.46,313.32Z"/><path class="bb17d9d8-87bb-4feb-b502-08ba3de8f5e6" d="M1259.86,445.43c-27-6.16-51.91-19.66-72.93-37.78a234.81,234.81,0,0,1-35.41-38.37q-5.58,11.76-10.63,24c26.63,32.6,60.91,58.93,101.35,71.34,36.63,11.24,75.63,8.57,112.62.58A349.21,349.21,0,0,0,1400,452.46V427.6A289.61,289.61,0,0,1,1365.45,439C1331.36,447.9,1294.7,453.36,1259.86,445.43Z"/><path class="fb0fddd2-4782-4db2-a601-890b3361ba5c" d="M1165.92,554.06a243,243,0,0,1-61.77-40.43q-2.87,12.81-5.33,25.43c43.09,35.18,97,55.8,153.37,59.67,41.23,2.82,83.25-3.31,122.24-16.86,8.66-3,17.18-6.36,25.57-10V546.73c-5.44,2.51-10.93,4.91-16.51,7.15C1314.45,581.63,1234.51,585.51,1165.92,554.06Z"/><path class="be3b1c05-0f7f-41e7-a2c8-2e766f477ff3" d="M1265.45,680.92c-40.92.88-81.59-1.43-120.74-14.25a270.34,270.34,0,0,1-61-28.88c-1,8.93-1.86,17.39-2.6,25.31a306.44,306.44,0,0,0,41.9,20.28c39.61,15.57,81.76,20.74,124.1,20.85,44.41.12,90.43-1.19,133.49-13,6.51-1.78,13-3.78,19.38-5.93V660.83c-2.84,1-5.68,2-8.53,2.95C1350.58,677.42,1308.25,680,1265.45,680.92Z"/><path class="bdb6c50a-cacd-4485-ae41-8a0e794f574d" d="M401.15,224H0v47.11c32-24.87,70.23-40,116.11-40.25,38.94-.19,72.41,10.3,101.18,28.33a205.53,205.53,0,0,1,20.49,14.72c26.64,21.69,48.72,50.22,67,82.41q6.13,10.79,11.7,22.08a576.6,576.6,0,0,1,30.82,76.69q4,12.23,7.51,24.49a941.65,941.65,0,0,1,22.4,98.49c1.54,8.79,2.92,17.38,4.17,25.69,10.25,68.22,11.47,118.33,11.47,118.33L0,727.64v6.29H401.15Z"/><path class="be6a7092-a5d5-4d71-8362-911c03b1ae40" d="M157.21,438.79c35.94-8.38,70-21.45,100.19-43,14.84-10.61,28.52-22.73,42.14-34.83l5.25-4.66c-18.29-32.19-40.37-60.72-67-82.41a425.41,425.41,0,0,1-37.31,27.17c-43.38,27.76-95.11,44.24-146.61,33.79A164,164,0,0,1,0,313.35V431a190.91,190.91,0,0,0,43.69,14.21C81.18,452.56,120.39,447.36,157.21,438.79Z"/><path class="be6a7092-a5d5-4d71-8362-911c03b1ae40" d="M177.18,553.93c62.19-22.28,117.27-59.58,170.13-98.86a576.6,576.6,0,0,0-30.82-76.69q-3.92,3.48-7.85,6.93c-16.62,14.6-33.77,28.85-52.56,40.59-33.45,20.89-72,32.78-110.48,40.17-40,7.68-81.53,10.25-121.23-.37A208.76,208.76,0,0,1,0,457.51V571C59,581,120.59,574.21,177.18,553.93Z"/><path class="be6a7092-a5d5-4d71-8362-911c03b1ae40" d="M133.7,306.24c31.06-9.72,58.2-27.19,83.59-47.07-28.77-18-62.24-28.52-101.18-28.33C70.23,231.07,32,246.22,0,271.09v12.48a129.55,129.55,0,0,0,12.13,8.63C48.91,315.33,92.21,319.22,133.7,306.24Z"/><path class="be6a7092-a5d5-4d71-8362-911c03b1ae40" d="M381.39,603.74c-24.57,14-49.95,26.69-75.69,38.46-42.48,19.42-86,38.85-131.56,49.94-47.65,11.61-98,12.83-146.81,12.69-9.12,0-18.23-.25-27.33-.71v23.52l392.86-5.57S391.64,672,381.39,603.74Z"/><path class="be6a7092-a5d5-4d71-8362-911c03b1ae40" d="M49.75,680.29c46.65-1,92.93-3.5,137.86-17,42.94-13,84.51-31.63,124.91-51,22-10.54,43.68-21.84,64.7-34.22a941.65,941.65,0,0,0-22.4-98.49c-24.38,18-49.18,35.36-75.07,51.11-35.67,21.7-73.57,40.24-113.55,52.52A375.54,375.54,0,0,1,33.77,599.34c-11.27-.69-22.56-2-33.77-3.76v84.17C16.53,680.58,33.14,680.64,49.75,680.29Z"/><path class="ad6d4e58-a981-49d3-bc90-5fa65b5aa08d" d="M200.47,301.06a425.41,425.41,0,0,0,37.31-27.17,205.53,205.53,0,0,0-20.49-14.72c-25.39,19.88-52.53,37.35-83.59,47.07-41.49,13-84.79,9.09-121.57-14A129.55,129.55,0,0,1,0,283.57v29.78a164,164,0,0,0,53.86,21.5C105.36,345.3,157.09,328.82,200.47,301.06Z"/><path class="bb17d9d8-87bb-4feb-b502-08ba3de8f5e6" d="M145.6,466.07c38.49-7.39,77-19.28,110.48-40.17,18.79-11.74,35.94-26,52.56-40.59q3.93-3.45,7.85-6.93-5.57-11.28-11.7-22.08L299.54,361c-13.62,12.1-27.3,24.22-42.14,34.83-30.16,21.55-64.25,34.62-100.19,43-36.82,8.57-76,13.77-113.52,6.43A190.91,190.91,0,0,1,0,431v26.5a208.76,208.76,0,0,0,24.37,8.19C64.07,476.32,105.63,473.75,145.6,466.07Z"/><path class="fb0fddd2-4782-4db2-a601-890b3361ba5c" d="M166.2,583.19c40-12.28,77.88-30.82,113.55-52.52,25.89-15.75,50.69-33.14,75.07-51.11q-3.52-12.26-7.51-24.49c-52.86,39.28-107.94,76.58-170.13,98.86C120.59,574.21,59,581,0,571v24.6c11.21,1.81,22.5,3.07,33.77,3.76A375.54,375.54,0,0,0,166.2,583.19Z"/><path class="be3b1c05-0f7f-41e7-a2c8-2e766f477ff3" d="M174.14,692.14c45.53-11.09,89.08-30.52,131.56-49.94,25.74-11.77,51.12-24.42,75.69-38.46-1.25-8.31-2.63-16.9-4.17-25.69-21,12.38-42.69,23.68-64.7,34.22-40.4,19.35-82,38-124.91,51-44.93,13.54-91.21,16.07-137.86,17-16.61.35-33.22.29-49.75-.54v24.37c9.1.46,18.21.68,27.33.71C76.17,705,126.49,703.75,174.14,692.14Z"/><ellipse class="b0c36187-0578-4748-ae27-199ad5a871b7" cx="999.27" cy="107.08" rx="95.72" ry="49.89"/><ellipse class="b0c36187-0578-4748-ae27-199ad5a871b7" cx="1300.95" cy="156.97" rx="73.66" ry="38.39"/><ellipse class="b0c36187-0578-4748-ae27-199ad5a871b7" cx="77.82" cy="451.99" rx="73.66" ry="38.39"/><ellipse class="b0c36187-0578-4748-ae27-199ad5a871b7" cx="1124.04" cy="119.28" rx="67.16" ry="35"/><ellipse class="b0c36187-0578-4748-ae27-199ad5a871b7" cx="76.9" cy="162.01" rx="51.68" ry="26.94"/><ellipse class="b0c36187-0578-4748-ae27-199ad5a871b7" cx="196.98" cy="145.63" rx="96.46" ry="49.73"/><polygon class="ab432a7f-0475-47c9-aa6b-864fbbc4b3d5" points="1300.87 808.05 1274.95 852.95 1326.79 852.95 1300.87 808.05"/><polygon class="ab432a7f-0475-47c9-aa6b-864fbbc4b3d5" points="1344.33 808.05 1318.41 852.95 1370.25 852.95 1344.33 808.05"/><polygon class="ab432a7f-0475-47c9-aa6b-864fbbc4b3d5" points="1320.87 779.01 1294.95 852.95 1346.79 852.95 1320.87 779.01"/><polygon class="f36be06f-5670-48fe-aa12-a7d522deb380" points="1347.2 826.64 1330.63 855.36 1363.78 855.36 1347.2 826.64"/><polygon class="f36be06f-5670-48fe-aa12-a7d522deb380" points="1375.01 826.64 1358.43 855.36 1391.59 855.36 1375.01 826.64"/><polygon class="f36be06f-5670-48fe-aa12-a7d522deb380" points="1360 808.05 1343.42 855.36 1376.58 855.36 1360 808.05"/><polygon class="f36be06f-5670-48fe-aa12-a7d522deb380" points="972.22 911.6 955.64 940.32 988.8 940.32 972.22 911.6"/><polygon class="f36be06f-5670-48fe-aa12-a7d522deb380" points="1000.02 911.6 983.45 940.32 1016.6 940.32 1000.02 911.6"/><polygon class="f36be06f-5670-48fe-aa12-a7d522deb380" points="985.02 893.02 968.44 940.32 1001.6 940.32 985.02 893.02"/><polygon class="fad94d82-f42d-4581-9b52-32337a6d0b77" points="41.8 756.45 25.22 785.17 58.38 785.17 41.8 756.45"/><polygon class="fad94d82-f42d-4581-9b52-32337a6d0b77" points="69.6 756.45 53.02 785.17 86.18 785.17 69.6 756.45"/><polygon class="fad94d82-f42d-4581-9b52-32337a6d0b77" points="54.59 737.87 38.02 785.17 71.17 785.17 54.59 737.87"/><ellipse class="b0c36187-0578-4748-ae27-199ad5a871b7" cx="804.15" cy="294.8" rx="73.66" ry="38.39"/><polygon class="f36be06f-5670-48fe-aa12-a7d522deb380" points="85.41 910.65 59.5 955.55 111.33 955.55 85.41 910.65"/><polygon class="f36be06f-5670-48fe-aa12-a7d522deb380" points="128.88 910.65 102.96 955.55 154.79 955.55 128.88 910.65"/><polygon class="f36be06f-5670-48fe-aa12-a7d522deb380" points="105.41 881.61 79.5 955.55 131.33 955.55 105.41 881.61"/><polygon class="bc916a29-78de-4261-ae36-04109afb4025" points="48.35 930.67 30.78 961.11 65.92 961.11 48.35 930.67"/><polygon class="bc916a29-78de-4261-ae36-04109afb4025" points="77.82 930.67 60.25 961.11 95.39 961.11 77.82 930.67"/><polygon class="bc916a29-78de-4261-ae36-04109afb4025" points="61.91 910.98 44.34 961.11 79.48 961.11 61.91 910.98"/><polygon class="ae2874c3-6f7e-41f5-a992-a58623bea722" points="1274.04 935.84 1257.46 964.55 1290.62 964.55 1274.04 935.84"/><polygon class="ae2874c3-6f7e-41f5-a992-a58623bea722" points="1301.84 935.84 1285.26 964.55 1318.42 964.55 1301.84 935.84"/><polygon class="ae2874c3-6f7e-41f5-a992-a58623bea722" points="1286.84 917.25 1270.26 964.55 1303.41 964.55 1286.84 917.25"/><rect class="bdb6c50a-cacd-4485-ae41-8a0e794f574d" x="0.09" y="2.27" width="1399.91" height="989.9"/><rect class="bdb6c50a-cacd-4485-ae41-8a0e794f574d" x="0.09" y="2.27" width="1399.91" height="989.9"/><rect class="bdb6c50a-cacd-4485-ae41-8a0e794f574d" y="2.34" width="1399.91" height="989.9"/><path class="a8c3e9b6-1450-46f7-a08d-f7acfec64cfa" d="M1098,172.87a.42.42,0,0,0,0-.83.42.42,0,0,0,0,.83Z"/><rect class="bdb6c50a-cacd-4485-ae41-8a0e794f574d" y="2.34" width="1399.91" height="989.9"/></g></g></svg>