<svg xmlns="http://www.w3.org/2000/svg" viewBox="0 0 105.37 97.72"><defs><style>.befd94d2-4c5d-4cb5-aec9-870da8a3773d{fill:#595757;stroke-width:0.94px;}.b0b42cfc-0876-4661-83b1-e65a4e1d7421,.befd94d2-4c5d-4cb5-aec9-870da8a3773d,.f13cde65-3064-42c5-9c2e-b44a317b4386{stroke:#40220f;stroke-miterlimit:10;}.f3f1dda0-4c64-4b51-815e-755b71ea2ee1{fill:#c7e8fa;}.bfe928b6-891a-41bc-b59a-a4d00e17baf8,.f13cde65-3064-42c5-9c2e-b44a317b4386{fill:#f8b62d;}.b0b42cfc-0876-4661-83b1-e65a4e1d7421,.f13cde65-3064-42c5-9c2e-b44a317b4386{stroke-width:3.77px;}.a115ca21-6cfb-4c30-b575-f9aeccc19a43{fill:#ca925b;}.b0b42cfc-0876-4661-83b1-e65a4e1d7421{fill:none;}.bfbe8526-fbf0-4f52-ba65-1a7d798b4dae{fill:#cb000d;}.a9040e13-244d-45f1-a45f-b08247a54c79{fill:#7fb2cb;}.ab34e48f-473e-40a7-8432-54f5ac0fe008{fill:#a8784d;}.b80e849f-a81a-4ed5-80d7-0a6f70f0256d{fill:#f39800;}</style></defs><title>蜜蜂左</title><g id="e6d68405-a9b0-4690-baeb-095b7eb57b83" data-name="圖層 2"><g id="bb25c6e3-320b-4229-8c31-2740fe80590e" data-name="圖層 1"><polygon class="befd94d2-4c5d-4cb5-aec9-870da8a3773d" points="91.94 84.66 102.88 95.85 89.22 88.51 91.94 84.66"/><path class="f3f1dda0-4c64-4b51-815e-755b71ea2ee1" d="M56,2A29.7,29.7,0,0,1,87.42,39.5,18.6,18.6,0,1,1,66.3,60.32a30.35,30.35,0,0,1-4.73.83A29.7,29.7,0,1,1,56,2Z"/><ellipse class="f13cde65-3064-42c5-9c2e-b44a317b4386" cx="74.36" cy="74.73" rx="12.12" ry="20.48" transform="translate(-29.99 89.75) rotate(-53.33)"/><circle class="a115ca21-6cfb-4c30-b575-f9aeccc19a43" cx="49.49" cy="57.69" r="14.12"/><circle class="bfe928b6-891a-41bc-b59a-a4d00e17baf8" cx="24.95" cy="37.95" r="23.07"/><path class="b0b42cfc-0876-4661-83b1-e65a4e1d7421" d="M22.79,15a23.05,23.05,0,0,1,10.47,1.45A29.7,29.7,0,0,1,87.42,39.5a18.59,18.59,0,0,1,3.22,36c2.08,4.32,2.31,8.54.15,11.44-4,5.37-14.59,4.25-23.67-2.5-5.74-4.28-9.49-9.79-10.46-14.62A14.1,14.1,0,0,1,35.43,59c0-.17,0-.33,0-.5A23.07,23.07,0,1,1,22.79,15Z"/><path class="bfbe8526-fbf0-4f52-ba65-1a7d798b4dae" d="M18.34,43.68A8.84,8.84,0,0,1,7.42,43a1.69,1.69,0,0,1,.22-2.63L19,32.49a1.71,1.71,0,0,1,2.56.77A8.84,8.84,0,0,1,18.34,43.68Z"/><line class="f13cde65-3064-42c5-9c2e-b44a317b4386" x1="75.4" y1="61.35" x2="61.19" y2="78.79"/><line class="f13cde65-3064-42c5-9c2e-b44a317b4386" x1="82.99" y1="66.1" x2="68.19" y2="84.27"/><line class="f13cde65-3064-42c5-9c2e-b44a317b4386" x1="89.26" y1="72.49" x2="75.88" y2="88.9"/><path class="a9040e13-244d-45f1-a45f-b08247a54c79" d="M49.47,15.25A18.37,18.37,0,0,1,75.79,32a1,1,0,0,0,2.07,0C77.78,16.6,62.36,7,48.42,13.46c-1.21.56-.16,2.35,1,1.79Z"/><path class="a9040e13-244d-45f1-a45f-b08247a54c79" d="M87.35,49.27A10.72,10.72,0,0,1,92.56,60c-.18,1.31,1.82,1.87,2,.55A12.88,12.88,0,0,0,88.4,47.48a1,1,0,0,0-1.05,1.79Z"/><path class="ab34e48f-473e-40a7-8432-54f5ac0fe008" d="M51.33,49.87c4.37,2.15,10,7.41,5.76,12.53-.85,1,.62,2.51,1.47,1.47,5.08-6.13-.38-12.94-6.18-15.79-1.2-.59-2.25,1.2-1.05,1.79Z"/><path class="b80e849f-a81a-4ed5-80d7-0a6f70f0256d" d="M31.29,23.44c8.14,6.32,12.28,17,5.65,26-.79,1.08,1,2.12,1.8,1.05,7.09-9.7,2.85-21.69-6-28.55-1-.82-2.53.65-1.47,1.47Z"/><path class="b80e849f-a81a-4ed5-80d7-0a6f70f0256d" d="M65.81,64.53a3.58,3.58,0,0,1,1.91.25,1.07,1.07,0,0,0,1.42-.37A1,1,0,0,0,68.77,63a6,6,0,0,0-3.51-.46,1,1,0,0,0,.55,2Z"/><path class="b80e849f-a81a-4ed5-80d7-0a6f70f0256d" d="M75.74,67.55l1,.54c1.18.62,2.23-1.17,1-1.79l-1-.54c-1.19-.62-2.24,1.17-1.05,1.79Z"/><path class="b80e849f-a81a-4ed5-80d7-0a6f70f0256d" d="M82.16,72.79a2.17,2.17,0,0,1,.89.86,1,1,0,0,0,1.79-1.05A4.11,4.11,0,0,0,83.21,71c-1.17-.65-2.22,1.15-1,1.79Z"/><path class="b80e849f-a81a-4ed5-80d7-0a6f70f0256d" d="M86.77,79.7a4.34,4.34,0,0,1-1.2,4.93c-1,.89.48,2.35,1.47,1.47a6.38,6.38,0,0,0,1.74-6.95c-.47-1.24-2.48-.7-2,.55Z"/></g></g></svg>