<svg xmlns="http://www.w3.org/2000/svg" viewBox="0 0 103.09 101.79"><defs><style>.ef454fc3-5ee5-4c30-9bca-3e67c5f82067{fill:#595757;stroke-width:0.94px;}.a3394c59-c749-4265-8315-befa1b3d49ae,.b8add983-05a9-4f9a-b6f4-f4ef510ab591,.ef454fc3-5ee5-4c30-9bca-3e67c5f82067{stroke:#40220f;}.b8add983-05a9-4f9a-b6f4-f4ef510ab591,.ef454fc3-5ee5-4c30-9bca-3e67c5f82067{stroke-miterlimit:10;}.ba4e8a27-0f33-448e-ae04-e29376ea2d51{fill:#c7e8fa;}.b8add983-05a9-4f9a-b6f4-f4ef510ab591,.f7730c89-c7b6-4fd4-8a32-fbc7bee60f4f{fill:#f8b62d;}.a3394c59-c749-4265-8315-befa1b3d49ae,.b8add983-05a9-4f9a-b6f4-f4ef510ab591{stroke-width:3.77px;}.f4655ecc-e3ed-4ea1-a7f3-cddd4a374ca9{fill:#ca925b;}.a3394c59-c749-4265-8315-befa1b3d49ae{fill:none;stroke-linecap:round;stroke-linejoin:round;}.bfe23f52-008a-49e3-a984-8b0afaad4e04{fill:#cb000d;}.a8a3a8c1-bad4-4467-98cc-963a3dc16889{fill:#7fb2cb;}.ab94c79b-c57a-4f76-be14-f9e7f3de5bbd{fill:#a8784d;}.abed921d-5bf4-40e0-8a04-32d2a4ba6d85{fill:#f39800;}</style></defs><title>蜜蜂右</title><g id="f1c4f2db-c2aa-4686-a012-13ad6f0e50ae" data-name="圖層 2"><g id="b77ac99d-30a4-4e9b-a4c3-5c023eb93c2c" data-name="圖層 1"><polygon class="ef454fc3-5ee5-4c30-9bca-3e67c5f82067" points="15.81 87.53 5.97 99.69 18.89 91.11 15.81 87.53"/><path class="ba4e8a27-0f33-448e-ae04-e29376ea2d51" d="M43.85,1.88A29.7,29.7,0,0,0,16.09,42.14a18.6,18.6,0,1,0,23,18.75,30.25,30.25,0,0,0,4.79.39,29.7,29.7,0,0,0,0-59.4Z"/><ellipse class="b8add983-05a9-4f9a-b6f4-f4ef510ab591" cx="32.39" cy="76" rx="20.48" ry="12.12" transform="translate(-42.56 41.24) rotate(-42.04)"/><circle class="f4655ecc-e3ed-4ea1-a7f3-cddd4a374ca9" cx="55.55" cy="56.7" r="14.12"/><circle class="f7730c89-c7b6-4fd4-8a32-fbc7bee60f4f" cx="78.14" cy="34.75" r="23.07"/><path class="a3394c59-c749-4265-8315-befa1b3d49ae" d="M78.14,11.68A23,23,0,0,0,67.86,14.1a29.7,29.7,0,0,0-51.77,28,18.59,18.59,0,0,0,.17,36.17c-1.67,4.5-1.51,8.71.92,11.4,4.48,5,14.92,2.87,23.32-4.71,5.33-4.79,8.54-10.63,9-15.53A14.11,14.11,0,0,0,69.68,56.7c0-.17,0-.33,0-.5a23.07,23.07,0,1,0,8.49-44.52Z"/><path class="bfe23f52-008a-49e3-a984-8b0afaad4e04" d="M85.26,39.84a8.84,8.84,0,0,0,10.8-1.74,1.69,1.69,0,0,0-.46-2.6L83.52,28.76a1.7,1.7,0,0,0-2.47,1A8.83,8.83,0,0,0,85.26,39.84Z"/><line class="b8add983-05a9-4f9a-b6f4-f4ef510ab591" x1="30.1" y1="62.77" x2="45.89" y2="78.81"/><line class="b8add983-05a9-4f9a-b6f4-f4ef510ab591" x1="22.99" y1="68.22" x2="39.42" y2="84.91"/><line class="b8add983-05a9-4f9a-b6f4-f4ef510ab591" x1="17.34" y1="75.16" x2="32.2" y2="90.25"/><path class="a8a3a8c1-bad4-4467-98cc-963a3dc16889" d="M25.85,33A18.19,18.19,0,0,1,50.27,14.43c1.27.43,1.82-1.58.56-2A20.26,20.26,0,0,0,23.78,33c.07,1.33,2.15,1.34,2.07,0Z"/><path class="a8a3a8c1-bad4-4467-98cc-963a3dc16889" d="M14.86,65.78A6.47,6.47,0,0,1,17,54.94c1.23-.48.69-2.5-.55-2a8.57,8.57,0,0,0-3,14.31c1,.94,2.43-.53,1.47-1.47Z"/><path class="ab94c79b-c57a-4f76-be14-f9e7f3de5bbd" d="M54.11,47.17a10.18,10.18,0,0,0-6,13.9c.52,1.23,2.31.17,1.79-1a8,8,0,0,1,4.71-10.84c1.24-.46.71-2.47-.55-2Z"/><path class="abed921d-5bf4-40e0-8a04-32d2a4ba6d85" d="M65.61,22.44c-6.27,7.58-7.27,22.23,3.31,26.8,1.22.52,2.28-1.27,1-1.8-9.31-4-8.38-16.89-2.89-23.53.85-1-.61-2.5-1.47-1.47Z"/><path class="abed921d-5bf4-40e0-8a04-32d2a4ba6d85" d="M37.94,65.6a24.42,24.42,0,0,0,2.9-.8c1.25-.44.71-2.44-.56-2a22.51,22.51,0,0,1-2.89.8c-1.31.28-.76,2.28.55,2Z"/><path class="abed921d-5bf4-40e0-8a04-32d2a4ba6d85" d="M29.1,69.85a4.1,4.1,0,0,1,1.37-1.12c1.19-.62.14-2.41-1-1.79a6.32,6.32,0,0,0-2.12,1.86,1,1,0,0,0,.37,1.42,1.06,1.06,0,0,0,1.42-.37Z"/><path class="abed921d-5bf4-40e0-8a04-32d2a4ba6d85" d="M23.19,75.88l.92-1.36a1,1,0,0,0-.37-1.42,1.06,1.06,0,0,0-1.42.37l-.92,1.36a1,1,0,1,0,1.79,1Z"/><path class="abed921d-5bf4-40e0-8a04-32d2a4ba6d85" d="M21,86.51a8.64,8.64,0,0,1-1-3.89,1,1,0,0,0-2.08,0,11.06,11.06,0,0,0,1.31,4.94c.64,1.18,2.43.13,1.8-1Z"/></g></g></svg>