<svg xmlns="http://www.w3.org/2000/svg" viewBox="0 0 56.5 82.28"><defs><style>.b238a9cb-ddeb-44ef-a03e-3e9ee0980e8d{fill:#6e5f54;}.acd11cad-f257-4979-87b4-cc4e8c047f1d{fill:#5b4c43;}.a2cf6ca6-039c-45c9-850b-a466592b010a{fill:#bca696;}.a1e15732-cb78-48ce-9b2f-b5b7b5877f00{fill:#7e6d62;}.b16c15f8-ea74-4b33-a8d1-46a76b836eb7{fill:#67584e;}.b8babfcc-8657-410d-a0c5-11b4c784ef6d{fill:#4c3d34;}.b6b2b482-0894-4307-b2af-db34a60218cf,.f52afcde-2591-44fc-a0f5-1ec33a21bed3{fill:none;stroke:#fff;stroke-linecap:round;stroke-width:1.75px;}.b6b2b482-0894-4307-b2af-db34a60218cf{stroke-miterlimit:10;}.f52afcde-2591-44fc-a0f5-1ec33a21bed3{stroke-linejoin:round;}</style></defs><title>圓1</title><g id="a320cd74-a383-49b0-b230-2dac6fe3a288" data-name="圖層 2"><g id="a1e3170a-eefd-4646-85bf-322444d9f7fa" data-name="圖層 1"><path class="b238a9cb-ddeb-44ef-a03e-3e9ee0980e8d" d="M18.51,14.27l-16.8,9.3S27.33,60.89,55.63,81.4Z"/><path class="acd11cad-f257-4979-87b4-cc4e8c047f1d" d="M18.51,14.27,35.32,5s18,41.55,20.31,76.42Z"/><path class="a2cf6ca6-039c-45c9-850b-a466592b010a" d="M35.32,5c3,5.33-.12,17.56-9.4,22.69S4.65,28.9,1.71,23.57,3.89,9.75,13.17,4.62,32.37-.35,35.32,5Z"/><path class="a1e15732-cb78-48ce-9b2f-b5b7b5877f00" d="M4.21,21.36c3.3,3.84,8.51,3.69,12.92,2.09,2-.71,1.11-3.88-.87-3.16C12.9,21.51,9.09,22,6.52,19.05c-1.38-1.6-3.68.72-2.31,2.31Z"/><path class="a1e15732-cb78-48ce-9b2f-b5b7b5877f00" d="M21.83,7a9.88,9.88,0,0,1,4.68,0c2,.47,2.93-2.69.87-3.16A13.66,13.66,0,0,0,21,3.83c-2,.51-1.18,3.67.87,3.16Z"/><path class="b16c15f8-ea74-4b33-a8d1-46a76b836eb7" d="M10.51,32.81a33.26,33.26,0,0,0,5.84,6.13,1.71,1.71,0,0,0,2.32,0,1.65,1.65,0,0,0,0-2.32,29.37,29.37,0,0,1-5.33-5.47,1.69,1.69,0,0,0-2.24-.58,1.66,1.66,0,0,0-.59,2.24Z"/><path class="b8babfcc-8657-410d-a0c5-11b4c784ef6d" d="M35.15,19.76a65.28,65.28,0,0,1,2.57,12.53c.22,2.07,3.49,2.09,3.28,0a70.41,70.41,0,0,0-2.69-13.4c-.62-2-3.78-1.15-3.16.87Z"/><path class="b6b2b482-0894-4307-b2af-db34a60218cf" d="M32.77,21.25c5-4.76,4.72-12.33,2.55-16.27-3-5.33-12.86-5.49-22.15-.36s-14.41,13.61-11.46,19c2.15,3.89,8.36,8.16,15,6.5"/><path class="f52afcde-2591-44fc-a0f5-1ec33a21bed3" d="M1.71,23.57S33.12,67.2,55.63,81.4c0,0-1.36-31.8-20.31-76.42"/></g></g></svg>