<svg xmlns="http://www.w3.org/2000/svg" viewBox="0 0 26 46.18"><defs><style>.f8503598-59b3-4602-8056-85ff5c1995a2{fill:#6e5f54;}.a8c4382a-8e39-4eb7-ba93-9de7c28b48fb{fill:#5b4c43;}.be5aaf9b-f0fd-4056-aa89-9b7bf2b47ce5{fill:#bca696;}.ea6053ac-dc0e-4a5d-97d8-7fd64f8e0036{fill:#7e6d62;}.f61db26a-77d6-4210-a63c-3d4353c06f29{fill:#67584e;}.b1fa41e2-7943-48cd-86b0-683f572685f5{fill:#4c3d34;}.a6f8b185-5752-472a-a22b-ebffc6a2ad81,.b5cb6536-e506-45ba-a0d6-3e32295975e7{fill:none;stroke:#fff;stroke-linecap:round;stroke-width:1.13px;}.b5cb6536-e506-45ba-a0d6-3e32295975e7{stroke-miterlimit:10;}.a6f8b185-5752-472a-a22b-ebffc6a2ad81{stroke-linejoin:round;}</style></defs><title>圓2</title><g id="a3ea9bdf-bdb7-4926-9c98-609f0aa30823" data-name="圖層 2"><g id="ba6be8bf-d330-4aa5-a251-fb9e3a13a3fe" data-name="圖層 1"><path class="f8503598-59b3-4602-8056-85ff5c1995a2" d="M13,7.71.57,7.86S4.08,39.93,13.46,45.61Z"/><path class="a8c4382a-8e39-4eb7-ba93-9de7c28b48fb" d="M13,7.71l12.43-.15s.34,28.29-12,38.05Z"/><path class="be5aaf9b-f0fd-4056-aa89-9b7bf2b47ce5" d="M25.43,7.56c.05,3.94-5.46,9-12.32,9S.61,11.81.57,7.86,6.05.65,12.91.57,25.38,3.61,25.43,7.56Z"/><path class="ea6053ac-dc0e-4a5d-97d8-7fd64f8e0036" d="M2.66,7.35c.67,3.19,3.71,4.74,6.69,5.16,1.34.19,1.91-1.85.56-2-2.25-.32-4.68-1.2-5.21-3.69-.28-1.33-2.32-.77-2,.57Z"/><path class="ea6053ac-dc0e-4a5d-97d8-7fd64f8e0036" d="M17.08,4.56A6.29,6.29,0,0,1,19.79,6c1,.9,2.53-.6,1.5-1.5a8.67,8.67,0,0,0-3.65-1.94,1.06,1.06,0,0,0-.56,2Z"/><path class="f61db26a-77d6-4210-a63c-3d4353c06f29" d="M2.79,16.07a21.81,21.81,0,0,0,1.52,5.27c.53,1.26,2.36.18,1.83-1.07a19.64,19.64,0,0,1-1.3-4.76c-.2-1.34-2.24-.77-2,.56Z"/><path class="b1fa41e2-7943-48cd-86b0-683f572685f5" d="M20.82,15.89a44.26,44.26,0,0,1-2.47,8.2c-.52,1.26,1.53,1.81,2,.56a43.42,43.42,0,0,0,2.47-8.19c.27-1.34-1.78-1.91-2-.57Z"/><path class="b5cb6536-e506-45ba-a0d6-3e32295975e7" d="M18.35,15.54c4.33-1.17,7.12-5.07,7.08-8-.05-3.95-5.65-7.08-12.52-7S.52,3.92.57,7.86c0,2.88,2.65,6.6,6.94,7.68"/><path class="a6f8b185-5752-472a-a22b-ebffc6a2ad81" d="M.57,7.86S3.45,39,13.46,45.61c0,0,11.12-5.93,12-38"/></g></g></svg>