<svg xmlns="http://www.w3.org/2000/svg" viewBox="0 0 76.3 134.18"><defs><style>.b40f24fe-611b-4487-957f-f088bf5a9366{fill:#6e5f54;}.aaf489d5-1d13-4d65-8875-a9b47c24d333{fill:#5b4c43;}.b9938c18-c30b-497a-8ca9-6eb20d8d30f4{fill:#bca696;}.bae97cb7-e62b-434a-bab8-e25458115264{fill:#7e6d62;}.bec7f637-fe23-44df-a618-538e480ece90{fill:#67584e;}.bc046109-157a-4119-8940-f76d2b1ec8fe{fill:#4c3d34;}.b48cff2d-6065-4723-bae2-120d48ad179f,.b962e5fa-f7d0-44f4-b9cd-06f12655a02a{fill:none;stroke:#fff;stroke-linecap:round;stroke-width:4.99px;}.b48cff2d-6065-4723-bae2-120d48ad179f{stroke-miterlimit:10;}.b962e5fa-f7d0-44f4-b9cd-06f12655a02a{stroke-linejoin:round;}</style></defs><title>圓3</title><g id="b4cbda36-e2dd-4bac-8379-2316f76095b5" data-name="圖層 2"><g id="e918d738-db39-4892-849f-cf4ec407e0ed" data-name="圖層 1"><path class="b40f24fe-611b-4487-957f-f088bf5a9366" d="M38.15,23,2.5,22.11S9.16,114.4,35.44,131.68Z"/><path class="aaf489d5-1d13-4d65-8875-a9b47c24d333" d="M38.15,23l35.66.89s-2,81.13-38.37,107.79Z"/><path class="b9938c18-c30b-497a-8ca9-6eb20d8d30f4" d="M73.81,23.89c-.29,11.31-16.6,24.8-36.29,24.31S2.22,33.42,2.5,22.11,19,2,38.67,2.51,74.09,12.58,73.81,23.89Z"/><path class="bae97cb7-e62b-434a-bab8-e25458115264" d="M8.59,21c1.55,9.2,10.27,13.91,18.71,15.43,3.82.68,5.46-5.17,1.61-5.86-6.48-1.17-13.24-4-14.46-11.19C13.8,15.5,7.94,17.13,8.59,21Z"/><path class="bae97cb7-e62b-434a-bab8-e25458115264" d="M50.29,14.43a18.33,18.33,0,0,1,7.6,4.35c2.83,2.7,7.14-1.59,4.3-4.3A24.84,24.84,0,0,0,51.9,8.57c-3.76-1.09-5.37,4.78-1.61,5.86Z"/><path class="bec7f637-fe23-44df-a618-538e480ece90" d="M7.94,45.19a62.3,62.3,0,0,0,3.61,15.34c1.37,3.62,7.25,2,5.86-1.62A56,56,0,0,1,14,45.19c-.43-3.85-6.52-3.89-6.08,0Z"/><path class="bc046109-157a-4119-8940-f76d2b1ec8fe" d="M59.67,47.39A120.65,120.65,0,0,1,52,69.9c-1.61,3.54,3.63,6.63,5.25,3.07a128.54,128.54,0,0,0,8.26-24c.9-3.81-5-5.43-5.86-1.62Z"/><path class="b48cff2d-6065-4723-bae2-120d48ad179f" d="M54.28,45.19c12.55-2.88,19.32-12.95,19.53-21.3C74.09,12.58,58.36,3,38.67,2.51S2.78,10.79,2.5,22.11c-.21,8.26,5.14,18.16,17.31,21.71"/><path class="b962e5fa-f7d0-44f4-b9cd-06f12655a02a" d="M2.5,22.11s5,89.41,32.94,109.57c0,0,32.52-15.81,38.37-107.79"/></g></g></svg>