<svg xmlns="http://www.w3.org/2000/svg" viewBox="0 0 129.48 138.84"><defs><style>.fafcba9b-a383-4655-8281-c69f8a85b148{fill:#7e8a91;stroke:#40220f;stroke-miterlimit:10;stroke-width:2.21px;}.f8a154c3-14e5-4409-a430-c15bd4b02e49{fill:#31363a;}.f5dc4bff-828c-4c28-8bad-0f7e347eea4f{fill:#fff;}.bfd36e21-5669-4dd6-aa3a-f55000aab904{fill:#d1d1d2;}</style></defs><title>鉗六</title><g id="b3213bea-ce0e-4031-998a-24db0bcbdc31" data-name="圖層 2"><g id="b2a787b5-e627-43e1-b570-ad40e9e8571a" data-name="圖層 1"><path class="fafcba9b-a383-4655-8281-c69f8a85b148" d="M76.42,27.07A14.55,14.55,0,0,0,67.5,11.71l-24.38-10A7.89,7.89,0,0,0,35,3l-9.3,7.85A6.32,6.32,0,0,0,25,19.73l1.74,2.07a3.13,3.13,0,0,0,4.41.37l3.26-2.76a3.13,3.13,0,0,1,3.08-.55L55,25.15a3.14,3.14,0,0,1,2,2.39l3.29,18.29a3.11,3.11,0,0,1-1.06,3L45,60.78a3.13,3.13,0,0,1-3.08.55L24.47,55a3.12,3.12,0,0,1-2-2.39L19.16,34.35a3.1,3.1,0,0,1,1.06-2.94l3.26-2.76a3.12,3.12,0,0,0,.37-4.41L22.1,22.17a6.31,6.31,0,0,0-8.9-.74L3.9,29.28A7.87,7.87,0,0,0,1.3,37L7.1,62.75A14.61,14.61,0,0,0,20.77,74.11L43.12,75A11.07,11.07,0,0,1,53.76,85.51l.71,15a26.81,26.81,0,0,0,9.19,19l20,17.43a3.09,3.09,0,0,0,4.58-4.08l-14-20.47a26.88,26.88,0,0,1-4.55-18.1l1-9.14A7.94,7.94,0,0,1,79,78.12l9.18.54a26.83,26.83,0,0,1,17.09,7.51l17.84,17.26a3.09,3.09,0,0,0,4.79-3.83L114.08,76.94A26.85,26.85,0,0,0,96.89,64.71l-14.73-3.2a11.08,11.08,0,0,1-8.62-12.25Z"/><circle class="f8a154c3-14e5-4409-a430-c15bd4b02e49" cx="63.48" cy="68.21" r="8.1"/><path class="f5dc4bff-828c-4c28-8bad-0f7e347eea4f" d="M62.33,63.39l-3.4,2.88a.54.54,0,0,0-.19.53l.78,4.38a.59.59,0,0,0,.37.44l4.19,1.5a.54.54,0,0,0,.56-.1L68,70.15a.56.56,0,0,0,.19-.54l-.78-4.38a.58.58,0,0,0-.37-.43l-4.19-1.51A.57.57,0,0,0,62.33,63.39Z"/><path class="bfd36e21-5669-4dd6-aa3a-f55000aab904" d="M11.59,63.36a15.06,15.06,0,0,0,6.66,7c1.18.63,2.23-1.16,1.05-1.79a13.24,13.24,0,0,1-5.91-6.28c-.56-1.22-2.35-.16-1.8,1Z"/><path class="bfd36e21-5669-4dd6-aa3a-f55000aab904" d="M37.78,7.38a4.8,4.8,0,0,1,6.27.34c1,.93,2.43-.54,1.47-1.47a6.88,6.88,0,0,0-8.79-.66c-1.07.78,0,2.59,1.05,1.79Z"/><path class="bfd36e21-5669-4dd6-aa3a-f55000aab904" d="M101.52,72.27a13.21,13.21,0,0,1,7.35,7.88c.44,1.26,2.45.72,2-.55a15.48,15.48,0,0,0-8.81-9.33c-1.23-.52-1.77,1.49-.55,2Z"/></g></g></svg>