<svg xmlns="http://www.w3.org/2000/svg" viewBox="0 0 129.48 138.84"><defs><style>.e269a32f-6728-4807-926d-d11f0e3791ae{fill:#7e8a91;stroke:#40220f;stroke-width:2.21px;}.a272d339-101d-40af-b40d-2ea176c0baa9,.e269a32f-6728-4807-926d-d11f0e3791ae{stroke-miterlimit:10;}.a778a9ef-e3de-44cd-b8a2-78d68c851467{fill:#31363a;}.fccfaae8-74ed-420a-bb7b-6440f35f2232{fill:none;}.a272d339-101d-40af-b40d-2ea176c0baa9{fill:#999;stroke:#231815;stroke-width:1.86px;}.fbfe0d1a-737b-4e98-ba31-836b709a999d{fill:#fff;}.bf498d97-3cde-4830-8ab4-5acfdae55a04{fill:#d1d1d2;}</style></defs><title>鉗圓</title><g id="e70b2a22-7aaf-43ee-b7fb-f6c01d8f4487" data-name="圖層 2"><g id="e2f99451-8708-4c6e-99b6-040470676fff" data-name="圖層 1"><path class="e269a32f-6728-4807-926d-d11f0e3791ae" d="M76.43,27.05a14.56,14.56,0,0,0-8.91-15.34l-24.4-10A7.89,7.89,0,0,0,35,3L25.76,10.8a6.36,6.36,0,0,0-.75,9l2.24,2.65a3.15,3.15,0,0,0,3.84.74,18.76,18.76,0,0,1,7.15-1.95,19,19,0,1,1-17.06,15c.06-.29.13-.58.2-.87s.09-.36.15-.54a18.8,18.8,0,0,1,2.93-6,3.11,3.11,0,0,0-.1-3.88L22.12,22.2a6.35,6.35,0,0,0-9-.76L3.9,29.28A7.87,7.87,0,0,0,1.3,37L7.11,62.77A14.57,14.57,0,0,0,20.75,74.11L43.1,75A11.11,11.11,0,0,1,53.77,85.53l.7,15a26.8,26.8,0,0,0,9.18,19l20,17.44a3.09,3.09,0,0,0,4.58-4.08L75.7,114.59A33.93,33.93,0,0,1,70,91.74l.71-6.52a8,8,0,0,1,8.4-7.1l6.55.39A34,34,0,0,1,107.18,88l16,15.45a3.09,3.09,0,0,0,4.79-3.83L114.07,76.93A26.85,26.85,0,0,0,96.9,64.71l-14.71-3.2a11.1,11.1,0,0,1-8.65-12.28Z"/><circle class="a778a9ef-e3de-44cd-b8a2-78d68c851467" cx="63.09" cy="67.74" r="8.1"/><path class="fccfaae8-74ed-420a-bb7b-6440f35f2232" d="M21.18,36.16c.06-.29.13-.58.2-.87C21.31,35.58,21.24,35.87,21.18,36.16Z"/><path class="a272d339-101d-40af-b40d-2ea176c0baa9" d="M21.53,34.75c-.06.18-.1.36-.15.54C21.43,35.11,21.47,34.93,21.53,34.75Z"/><circle class="fbfe0d1a-737b-4e98-ba31-836b709a999d" cx="63.09" cy="67.74" r="4.93"/><path class="bf498d97-3cde-4830-8ab4-5acfdae55a04" d="M37.56,8a4.7,4.7,0,0,1,7.12,0c.88,1,2.35-.47,1.47-1.47a6.77,6.77,0,0,0-10.06.05c-.87,1,.6,2.49,1.47,1.47Z"/><path class="bf498d97-3cde-4830-8ab4-5acfdae55a04" d="M11.76,60.75a8.53,8.53,0,0,0,6.6,8.1c1.3.29,1.86-1.72.55-2a6.43,6.43,0,0,1-5.07-6.09,1,1,0,0,0-2.08,0Z"/><path class="bf498d97-3cde-4830-8ab4-5acfdae55a04" d="M103.31,73.91a37.05,37.05,0,0,1,7.8,8.4c.75,1.11,2.55.07,1.8-1a39,39,0,0,0-8.13-8.82c-1-.82-2.52.64-1.47,1.47Z"/></g></g></svg>