<svg xmlns="http://www.w3.org/2000/svg" viewBox="0 0 129.48 138.84"><defs><style>.f1203041-13d1-4c01-a11a-8bbe6aa23920{fill:#7e8a91;stroke:#40220f;stroke-miterlimit:10;stroke-width:2.21px;}.ac74affd-dd62-4a8a-b14b-99348f80a921{fill:#31363a;}.bddd9e3a-b58a-4b88-a496-0f833ed1ae04{fill:#fff;}.ec30d6d7-869c-4214-a6b6-fe3af0dd3da6{fill:#d1d1d2;}</style></defs><title>鉗三</title><g id="f675e0a9-41b3-487d-a5a0-31835da7dfa7" data-name="圖層 2"><g id="aa640e5f-9c0f-4d9d-95cf-05f48f9c6cac" data-name="圖層 1"><path class="f1203041-13d1-4c01-a11a-8bbe6aa23920" d="M67.5,11.71l-24.38-10A7.89,7.89,0,0,0,35,3l-9.3,7.85A6.32,6.32,0,0,0,25,19.73l1.86,2.21a3.15,3.15,0,0,0,4.42.37l7-6c.08-.06.17-.1.26-.16L41.17,14a3.13,3.13,0,0,1,5.1,1.83l6.36,35.34a3.12,3.12,0,0,1-4.14,3.49L14.71,42.5a3.13,3.13,0,0,1-1-5.33L16.34,35c.07-.07.12-.15.2-.22l7.06-6A3.15,3.15,0,0,0,24,24.38L22.1,22.17a6.31,6.31,0,0,0-8.9-.74L3.9,29.28A7.87,7.87,0,0,0,1.3,37L7.1,62.75A14.61,14.61,0,0,0,20.77,74.11L43.12,75A11.07,11.07,0,0,1,53.76,85.51l.71,15a26.81,26.81,0,0,0,9.19,19l20,17.43a3.11,3.11,0,0,0,4,0h0a3.09,3.09,0,0,0,.55-4.11l-14-20.47a26.88,26.88,0,0,1-4.55-18.1l1-9.14A7.94,7.94,0,0,1,79,78.12l9.18.54a26.83,26.83,0,0,1,17.09,7.51l17.84,17.26a3.07,3.07,0,0,0,4.14.14h0a3.09,3.09,0,0,0,.65-4L114.08,76.94A26.85,26.85,0,0,0,96.89,64.71l-14.73-3.2a11.08,11.08,0,0,1-8.62-12.25l2.88-22.19A14.55,14.55,0,0,0,67.5,11.71Z"/><circle class="ac74affd-dd62-4a8a-b14b-99348f80a921" cx="64.01" cy="67.76" r="8.1"/><path class="bddd9e3a-b58a-4b88-a496-0f833ed1ae04" d="M67.49,71.48l-1.64-9.12a.3.3,0,0,0-.49-.18l-7.07,6a.3.3,0,0,0,.09.52l8.71,3.13A.3.3,0,0,0,67.49,71.48Z"/><path class="ec30d6d7-869c-4214-a6b6-fe3af0dd3da6" d="M37.8,6.94A4.64,4.64,0,0,1,44,7.48c.93,1,2.39-.5,1.47-1.47a6.69,6.69,0,0,0-8.69-.86c-1.08.77,0,2.58,1,1.79Z"/><path class="ec30d6d7-869c-4214-a6b6-fe3af0dd3da6" d="M11,62.58a21.48,21.48,0,0,0,8.26,7.48c1.19.6,2.24-1.19,1.05-1.8a19.36,19.36,0,0,1-7.52-6.73c-.73-1.11-2.53-.07-1.79,1Z"/><path class="ec30d6d7-869c-4214-a6b6-fe3af0dd3da6" d="M100.29,71.22a26,26,0,0,1,9.11,9.21,1,1,0,0,0,1.8-1.05,28.33,28.33,0,0,0-9.86-10,1,1,0,0,0-1,1.8Z"/></g></g></svg>