<svg xmlns="http://www.w3.org/2000/svg" viewBox="0 0 129.48 138.84"><defs><style>.b3b6327b-9c0c-48d8-b708-9780c6af194c{fill:#7e8a91;stroke:#40220f;stroke-miterlimit:10;stroke-width:2.21px;}.a70f1b58-ca24-4534-aefa-c96b6c884fee{fill:#31363a;}.a1ac8d58-f2c5-4e92-b7f7-b5bedc243593{fill:#fff;}.b8492db1-fa44-42e5-b5cd-73b30ac48f51{fill:#d1d1d2;}</style></defs><title>鉗方</title><g id="b56c4f68-1f9e-4361-b7ba-eab6f5a861ec" data-name="圖層 2"><g id="b5e30dc1-5799-4e71-b6af-615d8b65a31c" data-name="圖層 1"><path class="b3b6327b-9c0c-48d8-b708-9780c6af194c" d="M67.5,11.71l-24.38-10A7.89,7.89,0,0,0,35,3l-9.3,7.85A6.32,6.32,0,0,0,25,19.73l2.19,2.59a3.12,3.12,0,0,0,4.41.37l8.94-7.56a2.21,2.21,0,0,1,3.11.26L65.44,41.17a2.22,2.22,0,0,1-.26,3.11L39.4,66.06a2.2,2.2,0,0,1-3.11-.26L14.5,40a2.21,2.21,0,0,1,.27-3.11l9.15-7.74a3.13,3.13,0,0,0,.37-4.41l-2.19-2.6a6.31,6.31,0,0,0-8.9-.74L3.9,29.28A7.87,7.87,0,0,0,1.3,37L7.1,62.75A14.61,14.61,0,0,0,20.77,74.11L43.12,75A11.07,11.07,0,0,1,53.76,85.51l.71,15a26.81,26.81,0,0,0,9.19,19l20,17.43a3.11,3.11,0,0,0,4,0h0a3.09,3.09,0,0,0,.55-4.11l-14-20.47a26.88,26.88,0,0,1-4.55-18.1l1-9.14A8,8,0,0,1,79,78.12l9.17.54a26.83,26.83,0,0,1,17.09,7.51l17.84,17.26a3.07,3.07,0,0,0,4.14.14h0a3.09,3.09,0,0,0,.65-4L114.08,76.94A26.85,26.85,0,0,0,96.89,64.71l-14.73-3.2a11.08,11.08,0,0,1-8.62-12.25l2.88-22.19A14.55,14.55,0,0,0,67.5,11.71Z"/><circle class="a70f1b58-ca24-4534-aefa-c96b6c884fee" cx="63.48" cy="68.21" r="8.1"/><rect class="a1ac8d58-f2c5-4e92-b7f7-b5bedc243593" x="59.57" y="64.29" width="7.83" height="7.83" rx="0.49" transform="translate(-29.03 57.09) rotate(-40.2)"/><path class="b8492db1-fa44-42e5-b5cd-73b30ac48f51" d="M11.29,62.64a13.92,13.92,0,0,0,7.25,7.51c1.22.53,2.28-1.26,1.05-1.8a11.89,11.89,0,0,1-6.29-6.26c-.51-1.21-2.53-.68-2,.55Z"/><path class="b8492db1-fa44-42e5-b5cd-73b30ac48f51" d="M37.23,7.72a3.72,3.72,0,0,1,5.34-.54c1,.89,2.47-.57,1.47-1.47a5.84,5.84,0,0,0-8.61,1c-.79,1.09,1,2.12,1.8,1Z"/><path class="b8492db1-fa44-42e5-b5cd-73b30ac48f51" d="M101,72.64a13.86,13.86,0,0,1,8,7.17c.58,1.2,2.37.15,1.79-1a16,16,0,0,0-9.23-8.13c-1.27-.43-1.81,1.57-.56,2Z"/></g></g></svg>