<svg xmlns="http://www.w3.org/2000/svg" viewBox="0 0 353.85 216.75"><defs><style>.b215daa5-ec5e-40a1-8ddb-21c07b13169a{fill:#c3a05e;}.fb3b3500-48ae-423c-846d-bb77e0804401{fill:#805224;}.a51eda1f-0bdb-4eca-acd7-9942bf655906{fill:#c58a45;}.e6170e48-1179-4e08-8c33-94375b65dff6{fill:#a06e35;}.b00fb4ba-e0df-4ca3-8c1c-9fb328f25654,.b51838d4-dcff-46aa-80ff-af0b3a9f370e,.b53bc3d2-663d-48d4-9349-5453e08bfabd,.b7b5ecad-e8ea-4d35-ab27-876a62669820,.b980ff24-0ef9-4632-8a93-5c596c7d9f8a,.ffc97b9e-9baa-43ef-afea-2418da4e6171{fill:none;}.a8fe9f06-71da-4ee0-baf1-c80c2691d5d3,.a968ad2f-cfe2-4f99-898f-be9c6bc0ea94,.b00fb4ba-e0df-4ca3-8c1c-9fb328f25654,.b51838d4-dcff-46aa-80ff-af0b3a9f370e,.b7b5ecad-e8ea-4d35-ab27-876a62669820,.b980ff24-0ef9-4632-8a93-5c596c7d9f8a,.ec2f814c-4b82-479c-bb9f-b758e18dffe7,.f62b6b85-240d-495d-b6d7-a189e391b6d8,.ffc97b9e-9baa-43ef-afea-2418da4e6171{stroke:#40220f;}.b980ff24-0ef9-4632-8a93-5c596c7d9f8a,.ffc97b9e-9baa-43ef-afea-2418da4e6171{stroke-linecap:round;stroke-linejoin:round;}.b980ff24-0ef9-4632-8a93-5c596c7d9f8a{stroke-width:6.9px;}.a8fe9f06-71da-4ee0-baf1-c80c2691d5d3,.a968ad2f-cfe2-4f99-898f-be9c6bc0ea94,.b00fb4ba-e0df-4ca3-8c1c-9fb328f25654,.b51838d4-dcff-46aa-80ff-af0b3a9f370e,.b53bc3d2-663d-48d4-9349-5453e08bfabd,.b7b5ecad-e8ea-4d35-ab27-876a62669820,.ec2f814c-4b82-479c-bb9f-b758e18dffe7,.f62b6b85-240d-495d-b6d7-a189e391b6d8{stroke-miterlimit:10;}.b51838d4-dcff-46aa-80ff-af0b3a9f370e,.b53bc3d2-663d-48d4-9349-5453e08bfabd{stroke-width:2.08px;}.b53bc3d2-663d-48d4-9349-5453e08bfabd{stroke:#231815;}.ffc97b9e-9baa-43ef-afea-2418da4e6171{stroke-width:2.3px;}.b1e27c3c-0078-40b2-82a6-768663beeb3a{fill:#804712;}.f57ca9b9-f9d5-4e98-82cf-bdbfb05079be{fill:#7b4510;}.ff6e15d6-7eab-4b10-9e25-f156a8e7831b{fill:#4b311f;}.b0e5d41c-232c-4379-a371-30180bad28c8{fill:#956134;}.a5c46c83-9c39-436f-a47a-7a540fac3aa1{fill:#fff;}.a8fe9f06-71da-4ee0-baf1-c80c2691d5d3,.f62b6b85-240d-495d-b6d7-a189e391b6d8{fill:#595757;}.a8fe9f06-71da-4ee0-baf1-c80c2691d5d3{stroke-width:0.36px;}.a162ed84-a063-4976-8eb0-72e2fe777488{fill:#c7e8fa;}.a968ad2f-cfe2-4f99-898f-be9c6bc0ea94,.e54e44c3-c610-4626-b526-af989a0bf5b0,.ec2f814c-4b82-479c-bb9f-b758e18dffe7{fill:#f8b62d;}.b7b5ecad-e8ea-4d35-ab27-876a62669820,.ec2f814c-4b82-479c-bb9f-b758e18dffe7{stroke-width:1.44px;}.a4839ca3-9a1a-4e05-8bf0-129e404b8d93{fill:#ca925b;}.ea6e9260-f783-4420-aad4-55598ca6961c{fill:#cb000d;}.bd68765e-7d07-482e-8243-9f3566eba2d3{fill:#7fb2cb;}.a525ca99-a307-465a-a443-b0973ebd3be6{fill:#a8784d;}.b77e3afa-fe19-49bd-b141-5c915b54d698{fill:#f39800;}.f62b6b85-240d-495d-b6d7-a189e391b6d8{stroke-width:0.43px;}.a968ad2f-cfe2-4f99-898f-be9c6bc0ea94,.b00fb4ba-e0df-4ca3-8c1c-9fb328f25654{stroke-width:1.73px;}.e6746b85-3b24-4bb2-bd6c-020c3a9a8307{fill:#ab051b;}</style></defs><title>蜂窩</title><g id="ea4b5ef2-ca6d-45fc-a235-b3f52b43f7d0" data-name="圖層 2"><g id="e4e64bb9-5aeb-4270-87b5-87bbea5278e1" data-name="圖層 1"><path class="b215daa5-ec5e-40a1-8ddb-21c07b13169a" d="M99.48,111.33c-9,14-4.85,22.55,0,27.14h0c3,1.12,15.84,2.37,33,3.53-1.51-8,.69-15.47,13.23-26.87,1.64-1.5,3.23-2.81,4.75-4h0C124.69,111.31,102.25,111.46,99.48,111.33Z"/><path class="b215daa5-ec5e-40a1-8ddb-21c07b13169a" d="M107,84.85c-5.43,6.91-4.46,16.7-3.94,20h0l58.32-.06c6.17-2.45,9.86-1.92,9.86-1.92a38.22,38.22,0,0,1,9.48,1.73l.56.17h0c17.33,0,31.58,0,34.87.07,9.64.16,70.45,2.63,70.45,2.63-.72-.84-1.17-1.31-1.17-1.31,2.8-8.58.75-14.8-2.35-19.06h0s-66.43-2.29-84.24-2.29S119.75,83,107,84.85Z"/><path class="fb3b3500-48ae-423c-846d-bb77e0804401" d="M103.3,106a61.54,61.54,0,0,0-3.82,5.3c2.77.13,25.21,0,50.94-.17h0a46.65,46.65,0,0,1,11-6.36l-58.32.06h0C103.2,105.61,103.3,106,103.3,106Z"/><path class="fb3b3500-48ae-423c-846d-bb77e0804401" d="M114.9,79.23A17.63,17.63,0,0,0,107,84.85c12.72-1.82,74,0,91.85,0s84.24,2.29,84.24,2.29h0a23.07,23.07,0,0,0-5.39-5.24s-64-3.35-80.82-3.35-62.67-3.48-81.82-.74A12.32,12.32,0,0,0,114.9,79.23Z"/><path class="b215daa5-ec5e-40a1-8ddb-21c07b13169a" d="M134.14,148.1c-14.88-.71-25.86-1.37-27.57-2a21.21,21.21,0,0,0,11.93,17.4h0c2.14.82,8,1.53,15.94,2.12a13.7,13.7,0,0,1-2.14-4.29C130.62,155.29,134.14,148.1,134.14,148.1Z"/><path class="b215daa5-ec5e-40a1-8ddb-21c07b13169a" d="M136.19,54.9c-16.66,6.24-20.32,18.7-21.09,22.9,19.15-2.74,65,.74,81.82.74s80.82,3.35,80.82,3.35a21.16,21.16,0,0,0-3.7-2.17c-1.24-10.59-7.62-17.09-14-21,0,0-50.87-3.83-61.55-3.83Z"/><path class="fb3b3500-48ae-423c-846d-bb77e0804401" d="M134.44,165.66c-7.9-.59-13.8-1.3-15.94-2.12h0a25.54,25.54,0,0,0,6.37,2.33,29.89,29.89,0,0,0,.73,4.89h0a88.49,88.49,0,0,0,15.52,2.33c.07-.27.15-.54.24-.8A29.31,29.31,0,0,1,134.44,165.66Z"/><path class="a51eda1f-0bdb-4eca-acd7-9942bf655906" d="M132.45,142a41.86,41.86,0,0,0,1.32,5c.12.38.25.75.37,1.12,0,0-3.52,7.19-1.84,13.27a13.7,13.7,0,0,0,2.14,4.29,29.31,29.31,0,0,0,6.93,6.63c-.09.26-.17.53-.24.8-1.49,5.6.41,13.63,6.72,19.74h0a31.23,31.23,0,0,0,16.48,8c-.08-.11-1.53-2-6.91-4.73-5.56-2.76-7.36-11.53-8.59-14.6a22.92,22.92,0,0,1-1.26-7c.9-8.85-4.82-13.48-7.6-17.53s-.08-3.89-1.8-11.51,1-16.79,5-19.6,5.8-4.55,13.88-12.49,23.7-8.69,23.7-8.69a38.22,38.22,0,0,0-9.48-1.73s-3.69-.53-9.86,1.92a46.65,46.65,0,0,0-11,6.36c-1.52,1.15-3.11,2.46-4.75,4C133.14,126.53,130.94,134,132.45,142Z"/><path class="fb3b3500-48ae-423c-846d-bb77e0804401" d="M133.77,147a41.86,41.86,0,0,1-1.32-5c-17.12-1.16-29.93-2.41-33-3.53a22.34,22.34,0,0,0,7,4.45,25.82,25.82,0,0,0,.11,3.22c1.71.59,12.69,1.25,27.57,2C134,147.73,133.89,147.36,133.77,147Z"/><path class="fb3b3500-48ae-423c-846d-bb77e0804401" d="M136.19,54.9H198.5c10.68,0,61.55,3.83,61.55,3.83a43.29,43.29,0,0,0-14.11-5.48c0-.42-.05-.84-.1-1.25h0s-37.09-2.83-49.4-2.83H144a10.63,10.63,0,0,0-.34,3.58A52.26,52.26,0,0,0,136.19,54.9Z"/><path class="e6170e48-1179-4e08-8c33-94375b65dff6" d="M181.33,104.8h0l-.56-.17s-15.61.75-23.7,8.69-9.88,9.68-13.88,12.49-6.7,12-5,19.6-1,7.45,1.8,11.51,8.5,8.68,7.6,17.53a22.92,22.92,0,0,0,1.26,7c1.23,3.07,3,11.84,8.59,14.6,5.38,2.69,6.83,4.62,6.91,4.73h0a46.59,46.59,0,0,0,6.42.69,57.66,57.66,0,0,0,7.12-.17c7.67-.64,13.41-2.68,17.71-5.38a27.59,27.59,0,0,0,12.82-21.44c0-.34,0-.54,0-.56a20,20,0,0,0,4.55-5.44c3.6-6.46,1.6-13-.38-16.94a22.37,22.37,0,0,0-2.34-3.79c.09-.66.16-1.35.22-2.06.68-8.68-1.47-21-12.66-31.36a43.61,43.61,0,0,0-4.15-3.4A44.76,44.76,0,0,0,181.33,104.8Z"/><path class="b215daa5-ec5e-40a1-8ddb-21c07b13169a" d="M147.85,192.83c-6.31-6.11-8.21-14.14-6.72-19.74a88.49,88.49,0,0,1-15.52-2.33h0a25,25,0,0,0,16.91,18.05,20.47,20.47,0,0,0,.32,2.68C144.48,192,146.15,192.42,147.85,192.83Z"/><path class="b215daa5-ec5e-40a1-8ddb-21c07b13169a" d="M144,49.17h52.43c12.31,0,49.4,2.83,49.4,2.83h0c-2.62-22.59-45.49-27.54-45.49-27.54V4.94l-9.47-1.49L190.72,24C153.34,29.16,145.55,42.67,144,49.17Z"/><path class="b215daa5-ec5e-40a1-8ddb-21c07b13169a" d="M145.69,198.52C152,208,166.22,211.2,173.34,212c9.15,1,40.74,2.64,57.73-3.65,10-3.68,13.41-9.39,14.56-13.47,0,0-27.3,6.86-50.6,7.3,0,0-11.73.14-24.27-.49C161.3,201.2,151.37,200.28,145.69,198.52Z"/><path class="fb3b3500-48ae-423c-846d-bb77e0804401" d="M164.35,200.81h0a31.23,31.23,0,0,1-16.48-8h0c-1.7-.41-3.37-.85-5-1.34a18.27,18.27,0,0,0,2.86,7c5.68,1.76,15.61,2.68,25.07,3.15v-.17A46.59,46.59,0,0,1,164.35,200.81Z"/><path class="fb3b3500-48ae-423c-846d-bb77e0804401" d="M170.76,201.67c12.54.63,24.27.49,24.27.49,23.3-.44,50.6-7.3,50.6-7.3a12.54,12.54,0,0,0,.47-5,17.71,17.71,0,0,0,6.73-3.19A302.41,302.41,0,0,1,195.66,196l-.06-.09c-4.3,2.7-10,4.74-17.71,5.38a57.66,57.66,0,0,1-7.12.17Z"/><path class="fb3b3500-48ae-423c-846d-bb77e0804401" d="M216.2,104.87c-3.29-.06-17.54-.08-34.87-.07A44.76,44.76,0,0,1,193.68,111c20.57,0,37,0,39.36.37,6.69,1,57.54,1.52,57.54,1.52a44,44,0,0,0-3.93-5.35S225.84,105,216.2,104.87Z"/><path class="b215daa5-ec5e-40a1-8ddb-21c07b13169a" d="M233,111.33c-2.37-.35-18.79-.42-39.36-.37a43.61,43.61,0,0,1,4.15,3.4C209,124.75,211.17,137,210.49,145.72c3.71.11,7.32.21,10.78.29,44,1.09,64.73-5,65.32-5.19h0c12.75-8.69,8.55-20.62,4-28C290.58,112.85,239.73,112.32,233,111.33Z"/><path class="b215daa5-ec5e-40a1-8ddb-21c07b13169a" d="M195.6,196l.06.09a302.41,302.41,0,0,0,57.17-9.32h0c5.62-4.26,8.67-11.29,10.16-16,0,0-36.72,3.71-47.83,3.71l-6.75,0A27.59,27.59,0,0,1,195.6,196Z"/><path class="fb3b3500-48ae-423c-846d-bb77e0804401" d="M213,168.51a20,20,0,0,1-4.55,5.44s0,.22,0,.56l6.75,0c11.11,0,47.83-3.71,47.83-3.71a39.11,39.11,0,0,0,1.24-4.76,30,30,0,0,0,4.64-1.64s-41.73,4.37-55.24,4.15Z"/><path class="b215daa5-ec5e-40a1-8ddb-21c07b13169a" d="M213,168.51h.65c13.51.22,55.24-4.15,55.24-4.15a22.9,22.9,0,0,0,13.25-16.3s-28.18,6.11-58.68,4.13c-3.12-.2-6.78-.41-10.84-.62C214.59,155.52,216.59,162.05,213,168.51Z"/><path class="fb3b3500-48ae-423c-846d-bb77e0804401" d="M286.59,140.82c-.59.18-21.3,6.28-65.32,5.19-3.46-.08-7.07-.18-10.78-.29-.06.71-.13,1.4-.22,2.06a22.37,22.37,0,0,1,2.34,3.79c4.06.21,7.72.42,10.84.62,30.5,2,58.68-4.13,58.68-4.13a21.39,21.39,0,0,0,.57-5A33.54,33.54,0,0,0,286.59,140.82Z"/><path class="b980ff24-0ef9-4632-8a93-5c596c7d9f8a" d="M286.6,140.82c12.75-8.69,8.55-20.62,4-28a44,44,0,0,0-3.93-5.35c-.72-.84-1.17-1.31-1.17-1.31,2.8-8.58.75-14.8-2.35-19.06a23.07,23.07,0,0,0-5.39-5.24,21.16,21.16,0,0,0-3.7-2.17c-1.24-10.59-7.62-17.09-14-21a43.29,43.29,0,0,0-14.11-5.48c0-.42-.05-.84-.1-1.25-2.62-22.59-45.49-27.54-45.49-27.54V4.94l-9.47-1.49"/><path class="b980ff24-0ef9-4632-8a93-5c596c7d9f8a" d="M252.84,186.72c5.62-4.26,8.67-11.29,10.16-16a39.11,39.11,0,0,0,1.24-4.76,30,30,0,0,0,4.64-1.64,22.9,22.9,0,0,0,13.25-16.3,21.39,21.39,0,0,0,.57-5,33.54,33.54,0,0,0,3.89-2.27"/><path class="b980ff24-0ef9-4632-8a93-5c596c7d9f8a" d="M99.49,138.47a22.34,22.34,0,0,0,7,4.45,25.82,25.82,0,0,0,.11,3.22,21.21,21.21,0,0,0,11.93,17.4,25.54,25.54,0,0,0,6.37,2.33,29.89,29.89,0,0,0,.73,4.89,25,25,0,0,0,16.91,18.05,20.47,20.47,0,0,0,.32,2.68,18.27,18.27,0,0,0,2.86,7C152,208,166.22,211.2,173.34,212c9.15,1,40.74,2.64,57.73-3.65,10-3.68,13.41-9.39,14.56-13.47a12.54,12.54,0,0,0,.47-5,17.71,17.71,0,0,0,6.73-3.19"/><path class="b980ff24-0ef9-4632-8a93-5c596c7d9f8a" d="M107,84.85c-5.43,6.91-4.46,16.7-3.94,20,.12.74.22,1.16.22,1.16a61.54,61.54,0,0,0-3.82,5.3c-9,14-4.85,22.55,0,27.14"/><path class="b980ff24-0ef9-4632-8a93-5c596c7d9f8a" d="M190.88,3.45,190.72,24c-37.38,5.19-45.17,18.7-46.72,25.2a10.63,10.63,0,0,0-.34,3.58,52.26,52.26,0,0,0-7.47,2.15c-16.66,6.24-20.32,18.7-21.09,22.9a12.32,12.32,0,0,0-.2,1.43A17.63,17.63,0,0,0,107,84.85"/><path class="b51838d4-dcff-46aa-80ff-af0b3a9f370e" d="M245.83,52s-37.09-2.83-49.4-2.83H144"/><path class="b980ff24-0ef9-4632-8a93-5c596c7d9f8a" d="M260.05,58.73S209.18,54.9,198.5,54.9H136.18"/><path class="b51838d4-dcff-46aa-80ff-af0b3a9f370e" d="M277.74,81.89s-64-3.35-80.82-3.35-62.67-3.48-81.82-.74"/><path class="b980ff24-0ef9-4632-8a93-5c596c7d9f8a" d="M283.12,87.14s-66.43-2.29-84.24-2.29S119.75,83,107,84.85h0"/><path class="b51838d4-dcff-46aa-80ff-af0b3a9f370e" d="M161.41,104.81l-58.32.06"/><path class="b980ff24-0ef9-4632-8a93-5c596c7d9f8a" d="M286.65,107.5s-60.81-2.47-70.45-2.63c-3.29-.06-17.54-.08-34.87-.07h0"/><path class="b51838d4-dcff-46aa-80ff-af0b3a9f370e" d="M150.42,111.16c-25.73.15-48.17.3-50.94.17"/><path class="b51838d4-dcff-46aa-80ff-af0b3a9f370e" d="M290.58,112.85s-50.85-.53-57.54-1.52c-2.37-.35-18.79-.42-39.36-.37"/><line class="b980ff24-0ef9-4632-8a93-5c596c7d9f8a" x1="99.49" y1="138.47" x2="99.48" y2="138.47"/><path class="b51838d4-dcff-46aa-80ff-af0b3a9f370e" d="M132.47,142h0c-17.12-1.16-29.93-2.41-33-3.53"/><path class="b51838d4-dcff-46aa-80ff-af0b3a9f370e" d="M286.59,140.82c-.59.18-21.3,6.28-65.32,5.19-3.46-.08-7.07-.18-10.78-.29"/><path class="b980ff24-0ef9-4632-8a93-5c596c7d9f8a" d="M286.6,140.82h0"/><path class="b51838d4-dcff-46aa-80ff-af0b3a9f370e" d="M134.14,148.1c-14.88-.71-25.86-1.37-27.57-2"/><path class="b51838d4-dcff-46aa-80ff-af0b3a9f370e" d="M282.13,148.06s-28.18,6.11-58.68,4.13c-3.12-.2-6.78-.41-10.84-.62"/><path class="b51838d4-dcff-46aa-80ff-af0b3a9f370e" d="M134.44,165.66c-7.9-.59-13.8-1.3-15.94-2.12"/><path class="b51838d4-dcff-46aa-80ff-af0b3a9f370e" d="M268.88,164.36s-41.73,4.37-55.24,4.15H213"/><path class="b51838d4-dcff-46aa-80ff-af0b3a9f370e" d="M141.13,173.09a88.49,88.49,0,0,1-15.52-2.33"/><path class="b51838d4-dcff-46aa-80ff-af0b3a9f370e" d="M263,170.76s-36.72,3.71-47.83,3.71l-6.75,0h0"/><path class="b53bc3d2-663d-48d4-9349-5453e08bfabd" d="M147.85,192.83c-1.7-.41-3.37-.85-5-1.34"/><path class="b51838d4-dcff-46aa-80ff-af0b3a9f370e" d="M252.83,186.72A302.41,302.41,0,0,1,195.66,196"/><path class="b980ff24-0ef9-4632-8a93-5c596c7d9f8a" d="M252.84,186.72h0"/><path class="b980ff24-0ef9-4632-8a93-5c596c7d9f8a" d="M170.76,201.67c-9.46-.47-19.39-1.39-25.07-3.15h0"/><path class="b51838d4-dcff-46aa-80ff-af0b3a9f370e" d="M245.63,194.86s-27.3,6.86-50.6,7.3c0,0-11.73.14-24.27-.49"/><path class="ffc97b9e-9baa-43ef-afea-2418da4e6171" d="M181.33,104.8h0"/><path class="b51838d4-dcff-46aa-80ff-af0b3a9f370e" d="M193.68,111a44.76,44.76,0,0,0-12.35-6.16"/><path class="ffc97b9e-9baa-43ef-afea-2418da4e6171" d="M164.35,200.81a46.59,46.59,0,0,0,6.42.69,57.66,57.66,0,0,0,7.12-.17c7.67-.64,13.41-2.68,17.71-5.38a27.59,27.59,0,0,0,12.82-21.44c0-.34,0-.54,0-.56a20,20,0,0,0,4.55-5.44c3.6-6.46,1.6-13-.38-16.94a22.37,22.37,0,0,0-2.34-3.79c.09-.66.16-1.35.22-2.06.68-8.68-1.47-21-12.66-31.36a43.61,43.61,0,0,0-4.15-3.4"/><path class="ffc97b9e-9baa-43ef-afea-2418da4e6171" d="M147.86,192.83a31.23,31.23,0,0,0,16.48,8"/><path class="b53bc3d2-663d-48d4-9349-5453e08bfabd" d="M147.85,192.83h0"/><path class="ffc97b9e-9baa-43ef-afea-2418da4e6171" d="M181.31,104.79l-.56-.17a38.22,38.22,0,0,0-9.48-1.73s-3.69-.53-9.86,1.92a46.65,46.65,0,0,0-11,6.36c-1.52,1.15-3.11,2.46-4.75,4-12.54,11.4-14.74,18.9-13.23,26.87a41.86,41.86,0,0,0,1.32,5c.12.38.25.75.37,1.12,0,0-3.52,7.19-1.84,13.27a13.7,13.7,0,0,0,2.14,4.29,29.31,29.31,0,0,0,6.93,6.63c-.09.26-.17.53-.24.8-1.49,5.6.41,13.63,6.72,19.74"/><path class="ffc97b9e-9baa-43ef-afea-2418da4e6171" d="M180.75,104.62s-15.61.75-23.7,8.69-9.88,9.68-13.88,12.49-6.7,12-5,19.6-1,7.45,1.8,11.51,8.5,8.68,7.6,17.53a22.92,22.92,0,0,0,1.26,7c1.23,3.07,3,11.84,8.59,14.6,5.38,2.69,6.83,4.62,6.91,4.73h0"/><path class="b1e27c3c-0078-40b2-82a6-768663beeb3a" d="M277.93,120.6c3.6,4.71,4.47,14.07-3.47,15.1-3.62.47-3.67,6.23,0,5.75,11.85-1.53,15.2-14.91,8.43-23.75-2.22-2.9-7.21,0-5,2.9Z"/><path class="b1e27c3c-0078-40b2-82a6-768663beeb3a" d="M272.58,96.43a4.33,4.33,0,0,1,1.73,4.38c-.76,3.61,4.78,5.15,5.55,1.52a10.33,10.33,0,0,0-4.38-10.86,2.9,2.9,0,0,0-3.93,1,2.93,2.93,0,0,0,1,3.93Z"/><path class="b1e27c3c-0078-40b2-82a6-768663beeb3a" d="M250.76,68a25.5,25.5,0,0,1,11.5,9.14c2.1,3,7.09.15,5-2.9A32.26,32.26,0,0,0,252.29,62.5c-3.44-1.36-4.93,4.2-1.53,5.54Z"/><path class="b1e27c3c-0078-40b2-82a6-768663beeb3a" d="M265,153.29l-6.35,4.58a3,3,0,0,0-1,3.93,2.89,2.89,0,0,0,3.93,1l6.35-4.57a3,3,0,0,0,1-3.94,2.9,2.9,0,0,0-3.93-1Z"/><path class="b1e27c3c-0078-40b2-82a6-768663beeb3a" d="M245.19,176.39a5,5,0,0,1-4.1,4.73,3,3,0,0,0-2.88,2.87,2.9,2.9,0,0,0,2.88,2.88,10.9,10.9,0,0,0,9.85-10.48c.11-3.7-5.64-3.7-5.75,0Z"/><path class="b1e27c3c-0078-40b2-82a6-768663beeb3a" d="M146.82,61.4a22.22,22.22,0,0,0-8.73,1.76c-2.73,1.17-4.65,3.25-7.18,4.64-3.25,1.78-.35,6.75,2.9,5,2-1.09,3.49-2.8,5.5-3.86a16.05,16.05,0,0,1,7.51-1.76c3.7,0,3.71-5.76,0-5.75Z"/><path class="b1e27c3c-0078-40b2-82a6-768663beeb3a" d="M180.75,32.84a26.16,26.16,0,0,0-17.07,7.46c-2.65,2.58,1.41,6.65,4.07,4.06a20,20,0,0,1,13-5.77c3.68-.2,3.71-6,0-5.75Z"/><path class="b1e27c3c-0078-40b2-82a6-768663beeb3a" d="M114.28,88.07a10.42,10.42,0,0,0-1.41,12.61c1.94,3.15,6.91.26,5-2.9a4.54,4.54,0,0,1,.51-5.64c2.55-2.68-1.51-6.75-4.07-4.07Z"/><path class="b1e27c3c-0078-40b2-82a6-768663beeb3a" d="M105.71,117.38a13.25,13.25,0,0,0,2.8,15.67c2.73,2.49,6.81-1.56,4.07-4.06a7.41,7.41,0,0,1-1.9-8.71c1.6-3.31-3.36-6.23-5-2.9Z"/><path class="b1e27c3c-0078-40b2-82a6-768663beeb3a" d="M116.56,153a9.74,9.74,0,0,0,9,7,2.88,2.88,0,1,0,0-5.75,3.88,3.88,0,0,1-3.43-2.74c-1-3.54-6.6-2-5.55,1.53Z"/><path class="f57ca9b9-f9d5-4e98-82cf-bdbfb05079be" d="M243.43,71.32l-21.87-1.41c-1.85-.12-1.84,2.75,0,2.87l21.87,1.41c1.85.12,1.84-2.75,0-2.87Z"/><path class="f57ca9b9-f9d5-4e98-82cf-bdbfb05079be" d="M255.5,99.67a54.67,54.67,0,0,1-14.6-2.19,1.44,1.44,0,0,0-.77,2.78,58.4,58.4,0,0,0,15.37,2.29,1.44,1.44,0,0,0,0-2.88Z"/><path class="f57ca9b9-f9d5-4e98-82cf-bdbfb05079be" d="M256.27,136.47A67.43,67.43,0,0,1,236,138.1c-1.84-.13-1.84,2.75,0,2.88A70.17,70.17,0,0,0,257,139.24c1.8-.42,1-3.19-.76-2.77Z"/><path class="f57ca9b9-f9d5-4e98-82cf-bdbfb05079be" d="M244.56,159.84l-16.11,1.7c-1.82.2-1.84,3.07,0,2.88l16.11-1.71c1.82-.19,1.84-3.07,0-2.87Z"/><path class="f57ca9b9-f9d5-4e98-82cf-bdbfb05079be" d="M230.3,183.89a74.48,74.48,0,0,1-16.77,2.7c-1.85.08-1.86,2.95,0,2.87a77.06,77.06,0,0,0,17.53-2.8,1.44,1.44,0,0,0-.76-2.77Z"/><path class="f57ca9b9-f9d5-4e98-82cf-bdbfb05079be" d="M126.51,100.2a14.68,14.68,0,0,1,5.6.35c1.79.45,2.56-2.32.76-2.77a18.37,18.37,0,0,0-7.12-.35c-1.83.25-1,3,.76,2.77Z"/><path class="f57ca9b9-f9d5-4e98-82cf-bdbfb05079be" d="M143.14,73.51a21.26,21.26,0,0,1,6-.17c1.84.19,1.83-2.69,0-2.88a24.43,24.43,0,0,0-6.72.28c-1.82.31-1,3.09.76,2.77Z"/><path class="f57ca9b9-f9d5-4e98-82cf-bdbfb05079be" d="M171.55,46.72H175a1.44,1.44,0,0,0,0-2.87h-3.45a1.44,1.44,0,0,0,0,2.87Z"/><path class="f57ca9b9-f9d5-4e98-82cf-bdbfb05079be" d="M206.45,32.88l-6.32-1.19c-1.81-.34-2.58,2.43-.77,2.78l6.32,1.18c1.81.34,2.59-2.43.77-2.77Z"/><path class="f57ca9b9-f9d5-4e98-82cf-bdbfb05079be" d="M125.55,134.12h-8.63a1.44,1.44,0,0,0,0,2.88h8.63a1.44,1.44,0,0,0,0-2.88Z"/><path class="f57ca9b9-f9d5-4e98-82cf-bdbfb05079be" d="M137.62,177.31a1.56,1.56,0,0,1-.44-.1,1.71,1.71,0,0,1-.48-.25,2.2,2.2,0,0,1-.66-.75c-.9-1.62-3.39-.17-2.48,1.45a5,5,0,0,0,4.06,2.52,1.44,1.44,0,0,0,1.44-1.43,1.47,1.47,0,0,0-1.44-1.44Z"/><path class="b1e27c3c-0078-40b2-82a6-768663beeb3a" d="M185.89,122.43c1.44-.14,4,4.53,4.64,5.64a27.85,27.85,0,0,1,2.89,8.62c1,5.52,1.2,9.84,4,14.9,1.94,3.54,4.29,7.14,2.29,11.23-1,2.05-2.57,3.71-3.49,5.84-2.21,5.11-2.9,13.18-8.79,15.56-3.39,1.37-1.91,6.93,1.52,5.54,6.8-2.74,9-8.76,11.23-15.27,1.33-4,4.08-7,5.5-10.78,1.26-3.35.62-6.92-.73-10.13-1.81-4.27-4.73-7.72-5.25-12.48A48.82,48.82,0,0,0,197.62,130c-1.52-4.31-6-13.87-11.73-13.31-3.65.36-3.69,6.11,0,5.75Z"/><path class="ff6e15d6-7eab-4b10-9e25-f156a8e7831b" d="M341.66,119c.08,18-7.47,36.58-19.11,50.2-10,11.7-25.88,21.78-41.89,17.31-7.6-2.11-14.59-8.39-12.37-16.92,2.29-8.81,12.14-9.37,16.47-1.64,9.18,16.41-16.2,32-28.35,37.11a76.54,76.54,0,0,1-54.87,1.73c-3.5-1.23-5,4.33-1.53,5.54a82.18,82.18,0,0,0,63.13-4.05c14.86-7.35,39.2-26.94,25.12-45.39-4.87-6.39-14-8.81-20.44-3.24-5.77,5-7.31,14.15-3.95,20.88,9.52,19,37.12,13.6,51,3.59,19.89-14.34,32.65-40.76,32.54-65.12,0-3.7-5.77-3.71-5.75,0Z"/><path class="b0e5d41c-232c-4379-a371-30180bad28c8" d="M1.38,51.2l4.06,9.19"/><path class="a5c46c83-9c39-436f-a47a-7a540fac3aa1" d="M.14,51.93,4.2,61.12c.74,1.68,3.22.22,2.48-1.46L2.62,50.48C1.87,48.79-.6,50.25.14,51.93Z"/><path class="b0e5d41c-232c-4379-a371-30180bad28c8" d="M11.41,72.36A39.15,39.15,0,0,0,17.7,81"/><path class="a5c46c83-9c39-436f-a47a-7a540fac3aa1" d="M10.17,73.09a43.06,43.06,0,0,0,6.51,9c1.28,1.34,3.31-.69,2-2a40.28,40.28,0,0,1-6.06-8.36c-.88-1.63-3.36-.18-2.48,1.45Z"/><path class="b0e5d41c-232c-4379-a371-30180bad28c8" d="M29.38,93.54a17.79,17.79,0,0,0,7.76,6.17"/><path class="a5c46c83-9c39-436f-a47a-7a540fac3aa1" d="M28.14,94.26A19.68,19.68,0,0,0,36.42,101c1.68.71,3.15-1.76,1.45-2.48a17.16,17.16,0,0,1-7.25-5.66c-1.08-1.48-3.57,0-2.48,1.45Z"/><path class="b0e5d41c-232c-4379-a371-30180bad28c8" d="M52.23,105.11l14.93,3.52"/><path class="a5c46c83-9c39-436f-a47a-7a540fac3aa1" d="M51.85,106.5,66.78,110c1.8.42,2.57-2.35.77-2.78l-14.94-3.51c-1.8-.43-2.57,2.34-.76,2.77Z"/><path class="b0e5d41c-232c-4379-a371-30180bad28c8" d="M81.61,106.57a11.15,11.15,0,0,0,7.87-7.78"/><path class="a5c46c83-9c39-436f-a47a-7a540fac3aa1" d="M82,108a12.81,12.81,0,0,0,8.87-8.78,1.44,1.44,0,0,0-2.77-.77,9.84,9.84,0,0,1-6.87,6.77A1.44,1.44,0,0,0,82,108Z"/><path class="b0e5d41c-232c-4379-a371-30180bad28c8" d="M89,86.79a7.42,7.42,0,0,0-6.26-3.58"/><path class="a5c46c83-9c39-436f-a47a-7a540fac3aa1" d="M90.2,86.06a9.09,9.09,0,0,0-7.5-4.29c-1.86,0-1.85,2.82,0,2.88a6.06,6.06,0,0,1,5,2.86c1,1.57,3.48.12,2.49-1.45Z"/><path class="b0e5d41c-232c-4379-a371-30180bad28c8" d="M70.49,86.58a8.69,8.69,0,0,0-3.26,8.21"/><path class="a5c46c83-9c39-436f-a47a-7a540fac3aa1" d="M69.48,85.56a10.28,10.28,0,0,0-3.64,9.61c.26,1.83,3,1,2.78-.76a7.41,7.41,0,0,1,2.89-6.81c1.44-1.16-.6-3.18-2-2Z"/><path class="b0e5d41c-232c-4379-a371-30180bad28c8" d="M74.68,114.9a41.23,41.23,0,0,0,8.59,10.38"/><path class="a5c46c83-9c39-436f-a47a-7a540fac3aa1" d="M73.44,115.63a44.49,44.49,0,0,0,8.81,10.66c1.38,1.22,3.43-.8,2-2a42,42,0,0,1-8.37-10.08,1.44,1.44,0,0,0-2.48,1.45Z"/><path class="b0e5d41c-232c-4379-a371-30180bad28c8" d="M97,135.16a112.32,112.32,0,0,0,13.89,4.92"/><path class="a5c46c83-9c39-436f-a47a-7a540fac3aa1" d="M96.3,136.41a125.29,125.29,0,0,0,14.23,5.06,1.44,1.44,0,0,0,.76-2.77,117.55,117.55,0,0,1-13.54-4.78c-1.69-.71-3.15,1.77-1.45,2.49Z"/><path class="b0e5d41c-232c-4379-a371-30180bad28c8" d="M122.35,140.93a47.34,47.34,0,0,0,17.91-.43"/><path class="a5c46c83-9c39-436f-a47a-7a540fac3aa1" d="M122,142.32a52.77,52.77,0,0,0,18.67-.43c1.81-.37,1-3.14-.77-2.77a48.4,48.4,0,0,1-17.14.42c-1.81-.28-2.59,2.49-.76,2.78Z"/><path class="a5c46c83-9c39-436f-a47a-7a540fac3aa1" d="M195.68,208.48l9.73,2.47c1.8.46,2.56-2.32.77-2.77l-9.74-2.47a1.44,1.44,0,0,0-.76,2.77Z"/><path class="a5c46c83-9c39-436f-a47a-7a540fac3aa1" d="M218.52,213.63a43.28,43.28,0,0,0,11.08.44c1.82-.16,1.84-3,0-2.87a40.89,40.89,0,0,1-10.31-.34c-1.81-.3-2.59,2.47-.77,2.77Z"/><path class="a5c46c83-9c39-436f-a47a-7a540fac3aa1" d="M246.65,212.6A20.24,20.24,0,0,0,257,210.1c1.62-.89.17-3.37-1.46-2.49a17,17,0,0,1-8.92,2.11c-1.85-.06-1.85,2.82,0,2.88Z"/><path class="a5c46c83-9c39-436f-a47a-7a540fac3aa1" d="M270.87,201.33l12-9.59c1.45-1.15-.6-3.18-2-2l-12,9.59c-1.44,1.15.6,3.17,2,2Z"/><path class="a5c46c83-9c39-436f-a47a-7a540fac3aa1" d="M290.51,178.46a12.71,12.71,0,0,0-1.41-12.09c-1.05-1.51-3.55-.07-2.48,1.45a10.07,10.07,0,0,1,1.12,9.88c-.69,1.72,2.09,2.46,2.77.76Z"/><path class="a5c46c83-9c39-436f-a47a-7a540fac3aa1" d="M278.08,158.66a8.91,8.91,0,0,0-7.69,3.15c-1.18,1.41.84,3.45,2,2a6.28,6.28,0,0,1,5.66-2.3c1.84.19,1.83-2.69,0-2.88Z"/><path class="a5c46c83-9c39-436f-a47a-7a540fac3aa1" d="M265.1,174.51a10.3,10.3,0,0,0,5.16,8.87,1.44,1.44,0,0,0,1.45-2.48,7.4,7.4,0,0,1-3.74-6.39,1.44,1.44,0,0,0-2.87,0Z"/><path class="a5c46c83-9c39-436f-a47a-7a540fac3aa1" d="M291.41,190.12a45.31,45.31,0,0,0,13.85-.42c1.81-.33,1-3.1-.77-2.77a42.82,42.82,0,0,1-13.08.31c-1.83-.23-1.81,2.65,0,2.88Z"/><path class="a5c46c83-9c39-436f-a47a-7a540fac3aa1" d="M321.86,184.83a119.28,119.28,0,0,0,12.44-7.9c1.49-1.08.05-3.57-1.45-2.48a121,121,0,0,1-12.44,7.9c-1.62.89-.17,3.38,1.45,2.48Z"/><path class="a5c46c83-9c39-436f-a47a-7a540fac3aa1" d="M342.31,168.22a50.57,50.57,0,0,0,10.94-14.65c.82-1.65-1.66-3.11-2.49-1.45a48.43,48.43,0,0,1-10.48,14.07c-1.36,1.26.68,3.29,2,2Z"/><polygon class="a8fe9f06-71da-4ee0-baf1-c80c2691d5d3" points="66.26 92.35 62.06 96.64 67.3 93.83 66.26 92.35"/><path class="a162ed84-a063-4976-8eb0-72e2fe777488" d="M80,60.68A11.39,11.39,0,0,0,68,75.05a7.12,7.12,0,1,0,8.09,8,11.93,11.93,0,0,0,1.82.32A11.38,11.38,0,0,0,80,60.68Z"/><ellipse class="ec2f814c-4b82-479c-bb9f-b758e18dffe7" cx="72.99" cy="88.55" rx="7.85" ry="4.65" transform="translate(-38.43 61.11) rotate(-36.67)"/><circle class="a4839ca3-9a1a-4e05-8bf0-129e404b8d93" cx="82.52" cy="82.02" r="5.41"/><circle class="e54e44c3-c610-4626-b526-af989a0bf5b0" cx="91.93" cy="74.45" r="8.84"/><path class="b7b5ecad-e8ea-4d35-ab27-876a62669820" d="M92.76,65.65a8.8,8.8,0,0,0-4,.56A11.38,11.38,0,0,0,68,75.05a7.12,7.12,0,0,0-1.23,13.8c-.8,1.66-.89,3.27-.06,4.39,1.53,2.05,5.59,1.62,9.07-1a10.05,10.05,0,0,0,4-5.61,5.3,5.3,0,0,0,2.24.74,5.41,5.41,0,0,0,5.89-4.89,1.15,1.15,0,0,0,0-.19,8.74,8.74,0,0,0,3.18.92,8.84,8.84,0,1,0,1.66-17.6Z"/><path class="ea6e9260-f783-4420-aad4-55598ca6961c" d="M94.46,76.65a3.38,3.38,0,0,0,4.19-.28.66.66,0,0,0-.09-1l-4.36-3a.66.66,0,0,0-1,.3A3.38,3.38,0,0,0,94.46,76.65Z"/><line class="ec2f814c-4b82-479c-bb9f-b758e18dffe7" x1="72.6" y1="83.42" x2="78.04" y2="90.11"/><line class="ec2f814c-4b82-479c-bb9f-b758e18dffe7" x1="69.69" y1="85.24" x2="75.36" y2="92.2"/><line class="ec2f814c-4b82-479c-bb9f-b758e18dffe7" x1="67.29" y1="87.69" x2="72.41" y2="93.98"/><path class="bd68765e-7d07-482e-8243-9f3566eba2d3" d="M72.69,71.74c-.3-1.87,2-4.08,3.5-4.91a6.49,6.49,0,0,1,5.34-.56c1.28.4,1.82-1.61.55-2a8.6,8.6,0,0,0-8,1.5c-2,1.52-3.83,3.94-3.41,6.53.21,1.32,2.21.76,2-.55Z"/><path class="bd68765e-7d07-482e-8243-9f3566eba2d3" d="M66.15,82.13a1.57,1.57,0,0,1,1.95-2,1,1,0,0,0,.55-2,3.7,3.7,0,0,0-3.74,1,3.74,3.74,0,0,0-.56,4.07,1,1,0,0,0,1.8-1.05Z"/><path class="a525ca99-a307-465a-a443-b0973ebd3be6" d="M79.38,80a4.54,4.54,0,0,0,1.31,4.74c1,.88,2.48-.58,1.47-1.47a2.48,2.48,0,0,1-.77-2.72c.4-1.28-1.6-1.82-2-.55Z"/><path class="b77e3afa-fe19-49bd-b141-5c915b54d698" d="M87.32,69.05a7.08,7.08,0,0,0-1.21,7.2c.49,1.23,2.51.69,2-.55a5.06,5.06,0,0,1,.68-5.18c.83-1-.63-2.5-1.47-1.47Z"/><path class="b77e3afa-fe19-49bd-b141-5c915b54d698" d="M75.73,84.86a2.61,2.61,0,0,1,1-.24c.53,0,.53-.87,0-.84a3.46,3.46,0,0,0-1.38.37c-.48.23-.06.95.42.71Z"/><path class="b77e3afa-fe19-49bd-b141-5c915b54d698" d="M72.19,86.25a1.31,1.31,0,0,1,.5-.4c.48-.23.06-.95-.42-.72a1.92,1.92,0,0,0-.67.53c-.33.41.26,1,.59.59Z"/><path class="b77e3afa-fe19-49bd-b141-5c915b54d698" d="M69.75,88.12l.16-.18c.45-.29,0-1-.42-.72a1.21,1.21,0,0,0-.54.68c-.19.5.61.72.8.22Z"/><path class="b77e3afa-fe19-49bd-b141-5c915b54d698" d="M67.22,90.68a2,2,0,0,0,1.09,2.37c.47.24.89-.47.41-.72a1.15,1.15,0,0,1-.7-1.42c.21-.5-.6-.71-.8-.23Z"/><polygon class="f62b6b85-240d-495d-b6d7-a189e391b6d8" points="347.69 63.79 352.71 68.93 346.44 65.56 347.69 63.79"/><path class="a162ed84-a063-4976-8eb0-72e2fe777488" d="M331.19,25.83a13.65,13.65,0,0,1,14.42,17.22,8.54,8.54,0,1,1-9.7,9.56,13.85,13.85,0,0,1-2.17.38,13.64,13.64,0,1,1-2.55-27.16Z"/><ellipse class="a968ad2f-cfe2-4f99-898f-be9c6bc0ea94" cx="339.61" cy="59.23" rx="5.57" ry="9.4" transform="translate(89.3 296.27) rotate(-53.33)"/><circle class="a4839ca3-9a1a-4e05-8bf0-129e404b8d93" cx="328.19" cy="51.4" r="6.49"/><circle class="e54e44c3-c610-4626-b526-af989a0bf5b0" cx="316.92" cy="42.34" r="10.59"/><path class="b00fb4ba-e0df-4ca3-8c1c-9fb328f25654" d="M315.93,31.79a10.61,10.61,0,0,1,4.81.66,13.64,13.64,0,0,1,24.87,10.6,8.53,8.53,0,0,1,1.48,16.54c1,2,1.06,3.92.07,5.25-1.84,2.47-6.7,2-10.87-1.15a12,12,0,0,1-4.8-6.71,6.63,6.63,0,0,1-2.69.88A6.48,6.48,0,0,1,321.74,52a1.85,1.85,0,0,1,0-.23,10.59,10.59,0,1,1-5.8-20Z"/><path class="ea6e9260-f783-4420-aad4-55598ca6961c" d="M313.89,45a4.07,4.07,0,0,1-5-.33.77.77,0,0,1,.1-1.21l5.24-3.6a.77.77,0,0,1,1.17.35A4.07,4.07,0,0,1,313.89,45Z"/><line class="a968ad2f-cfe2-4f99-898f-be9c6bc0ea94" x1="340.09" y1="53.08" x2="333.56" y2="61.09"/><line class="a968ad2f-cfe2-4f99-898f-be9c6bc0ea94" x1="343.58" y1="55.27" x2="336.78" y2="63.61"/><line class="a968ad2f-cfe2-4f99-898f-be9c6bc0ea94" x1="346.46" y1="58.2" x2="340.31" y2="65.74"/><path class="bd68765e-7d07-482e-8243-9f3566eba2d3" d="M327.62,32.36c6.14-1.76,10.43,1.7,11.22,7.73.17,1.31,2.25,1.33,2.08,0-.42-3.19-1.38-6.39-4.05-8.43s-6.67-2.2-9.81-1.3a1,1,0,0,0,.56,2Z"/><path class="bd68765e-7d07-482e-8243-9f3566eba2d3" d="M345.36,49.25a2.55,2.55,0,0,1,1.84,4.13c-.76,1.1,1,2.14,1.79,1a4.63,4.63,0,0,0-3.63-7.25c-1.34-.1-1.33,2,0,2.08Z"/><path class="a525ca99-a307-465a-a443-b0973ebd3be6" d="M329.56,48.84c1.3.23,1.88,3.15.72,3.8a1,1,0,0,0,1.05,1.8c2.7-1.53,1.9-7-1.22-7.61-1.31-.24-1.87,1.77-.55,2Z"/><path class="b77e3afa-fe19-49bd-b141-5c915b54d698" d="M335.47,54.32a1.7,1.7,0,0,1,1.29-.07c.51.17.73-.64.22-.8a2.58,2.58,0,0,0-1.93.15c-.49.23-.07.95.42.72Z"/><path class="b77e3afa-fe19-49bd-b141-5c915b54d698" d="M340.17,55.65a2.57,2.57,0,0,1,.67.32c.44.3.86-.42.42-.72a3.64,3.64,0,0,0-.87-.41c-.51-.15-.73.65-.22.81Z"/><path class="b77e3afa-fe19-49bd-b141-5c915b54d698" d="M343.33,58a3,3,0,0,1,.43.51c.3.44,1,0,.72-.42a4.05,4.05,0,0,0-.56-.68c-.39-.37-1,.22-.59.59Z"/><path class="b77e3afa-fe19-49bd-b141-5c915b54d698" d="M345.46,61.45c.15.74.35,1.79-.4,2.29-.45.29,0,1,.42.71,1.12-.74,1-2.06.78-3.22-.1-.53-.9-.31-.8.22Z"/><path class="b77e3afa-fe19-49bd-b141-5c915b54d698" d="M320.13,37.44a7.36,7.36,0,0,1,3.55,3.48c.53,1.41.43,4-.61,5.16-.88,1,.59,2.48,1.47,1.47a7.93,7.93,0,0,0,1.36-6.5c-.56-2.52-2.59-4.17-4.73-5.41a1,1,0,0,0-1,1.8Z"/><path class="e6746b85-3b24-4bb2-bd6c-020c3a9a8307" d="M313.67,41.56a1.57,1.57,0,0,1,.11,1.2c-.07.19-.36.72-.48.73-.79.07-.8,1.32,0,1.24a2,2,0,0,0,1.59-1.4,2.88,2.88,0,0,0-.14-2.4c-.36-.71-1.44-.08-1.08.63Z"/></g></g></svg>