<svg xmlns="http://www.w3.org/2000/svg" viewBox="0 0 46.58 75.49"><defs><style>.fd628e61-e085-45ac-bec2-c15c93fa8b87{fill:#6e5f54;}.b5396b9e-bf1a-4051-a6d5-ab4f495234d0{fill:#5b4c43;}.f152c651-1c96-4c80-beb0-1d52a4e959c5{fill:#ac9889;}.ecf3d63f-8868-4d36-83fb-fcd50c36a154{fill:#7e6d62;}.b632c0b4-4dbd-471f-af4f-e9791d9c45eb{fill:#67584e;}.ebe7ff46-55a7-4a50-a07e-5ddaad5a500f{fill:#4c3d34;}.a9fe018f-cc41-4228-88d7-06e7f6b52de3{fill:none;stroke:#fff;stroke-linecap:round;stroke-linejoin:round;stroke-width:1.91px;}</style></defs><title>針方2</title><g id="e91ef2d5-8708-4ff7-b385-88731206ec93" data-name="圖層 2"><g id="a2e873fc-c29f-45a5-9dbf-6b8bdf17dfb0" data-name="圖層 1"><path class="fd628e61-e085-45ac-bec2-c15c93fa8b87" d="M21.06,12.36,1,18.57s18.88,48.41,39.3,56Z"/><path class="b5396b9e-bf1a-4051-a6d5-ab4f495234d0" d="M21.06,12.36l20.07-6.2s11.16,46-.85,68.38Z"/><polygon class="f152c651-1c96-4c80-beb0-1d52a4e959c5" points="26.68 30.61 0.95 18.58 17.52 0.95 41.13 6.16 26.68 30.61"/><path class="ecf3d63f-8868-4d36-83fb-fcd50c36a154" d="M19.17,8.52c.34-.47.67-1,1-1.41.49-.6.21-.46,1.05-.28a15.39,15.39,0,0,1,3.29,1.25c2.08,1,3.9-2.12,1.81-3.1-1.89-.88-4-2-6.17-1.85s-3,2.13-4.11,3.58c-1.37,1.86,1.74,3.65,3.1,1.81Z"/><path class="ecf3d63f-8868-4d36-83fb-fcd50c36a154" d="M20.13,26.11a23.32,23.32,0,0,1,3.37,1.55c2,1.12,3.83-2,1.81-3.09a28.73,28.73,0,0,0-4.23-1.92,1.8,1.8,0,0,0-2.2,1.25,1.83,1.83,0,0,0,1.25,2.21Z"/><path class="b632c0b4-4dbd-471f-af4f-e9791d9c45eb" d="M8,27a58.29,58.29,0,0,0,6,16.61c1.11,2,4.2.22,3.1-1.81A55.25,55.25,0,0,1,11.41,26C11,23.74,7.51,24.69,8,27Z"/><path class="ebe7ff46-55a7-4a50-a07e-5ddaad5a500f" d="M38.42,28.36a9.75,9.75,0,0,1,.17,5c-.51,2.24,2.95,3.2,3.46,1a13.68,13.68,0,0,0-.18-6.9c-.64-2.21-4.1-1.27-3.45.95Z"/><polyline class="a9fe018f-cc41-4228-88d7-06e7f6b52de3" points="21.83 28.34 0.95 18.58 17.52 0.95 41.13 6.16 30.45 24.25"/><path class="a9fe018f-cc41-4228-88d7-06e7f6b52de3" d="M1,18.58s20.1,50.65,39.32,56c0,0,11.44-17.85.85-68.38"/></g></g></svg>