<svg xmlns="http://www.w3.org/2000/svg" viewBox="0 0 41.12 84.17"><defs><style>.ab401597-d6a3-4f98-a9bd-336db3c256c6{fill:#6e5f54;}.e235f313-e0b1-49d3-8723-e326c8c46932{fill:#5b4c43;}.bd8cf08a-f5c0-4d86-ae99-3c802fba8a74{fill:#ac9889;}.fbdb4779-1e64-4a7f-b3c4-97783b83ded3{fill:#7e6d62;}.af6ba9c9-b238-4d56-827c-27329ed5a330{fill:#67584e;}.f7a30d5d-bba4-4841-8fe8-6beede66a2db{fill:#4c3d34;}.a5756d7d-9e9b-47e7-9a64-6b9317b40294{fill:none;stroke:#fff;stroke-linecap:round;stroke-linejoin:round;stroke-width:2.49px;}</style></defs><title>針方3</title><g id="b309801a-40ab-4ba5-8403-b7a14ea04c70" data-name="圖層 2"><g id="b89e970b-2d26-476c-bb32-2be462953487" data-name="圖層 1"><path class="ab401597-d6a3-4f98-a9bd-336db3c256c6" d="M19.17,11.42,1.27,15.78s14.31,41,35.34,67.15Z"/><path class="e235f313-e0b1-49d3-8723-e326c8c46932" d="M19.17,11.42l17.9-4.37s6.18,43-.46,75.88Z"/><polygon class="bd8cf08a-f5c0-4d86-ae99-3c802fba8a74" points="23.13 27.69 1.24 15.79 16.68 1.24 37.07 7.05 23.13 27.69"/><path class="fbdb4779-1e64-4a7f-b3c4-97783b83ded3" d="M17.52,8.19l1-1.18c.5-.59.34-.54,1-.46a9.63,9.63,0,0,1,3,1.35c1.78,1,3.36-1.74,1.58-2.71A12.05,12.05,0,0,0,19,3.3C17.2,3.26,16.33,4.74,15.3,6c-1.28,1.54.93,3.77,2.22,2.22Z"/><path class="fbdb4779-1e64-4a7f-b3c4-97783b83ded3" d="M17.34,23.27A23.35,23.35,0,0,1,20.58,25a1.57,1.57,0,1,0,1.58-2.71,22.23,22.23,0,0,0-3.23-1.72,1.62,1.62,0,0,0-2.15.56,1.58,1.58,0,0,0,.56,2.15Z"/><path class="af6ba9c9-b238-4d56-827c-27329ed5a330" d="M7,23.58a51.1,51.1,0,0,0,4.43,14.85c.86,1.83,3.57.24,2.71-1.58A48.5,48.5,0,0,1,10,22.74c-.28-2-3.3-1.14-3,.84Z"/><path class="f7a30d5d-bba4-4841-8fe8-6beede66a2db" d="M33.54,26.44a8.67,8.67,0,0,1-.16,4.38c-.57,1.94,2.46,2.77,3,.83a11.93,11.93,0,0,0,.17-6c-.45-2-3.48-1.13-3,.84Z"/><polyline class="a5756d7d-9e9b-47e7-9a64-6b9317b40294" points="19 25.45 1.24 15.79 16.68 1.24 37.07 7.05 26.75 22.32"/><path class="a5756d7d-9e9b-47e7-9a64-6b9317b40294" d="M1.24,15.79S23.52,72.71,36.61,82.93c0,0,7-31.08.46-75.88"/></g></g></svg>