<svg xmlns="http://www.w3.org/2000/svg" viewBox="0 0 55.81 65.66"><defs><style>.ecce1213-d4a8-4134-a5ba-ea916018ffd2{fill:#6e5f54;}.fca151a8-e2ad-41b1-907b-7fc2831a1fb1{fill:#5b4c43;}.baac0806-35b8-4318-8f86-ff5a4123b5c7{fill:#ac9889;}.ac11f042-d079-4a41-b8e5-afe79163ae36{fill:#7e6d62;}.b9d6edbd-3d4b-4712-b006-c0594e30a71c{fill:#67584e;}.fd99f59a-b44a-46f8-a765-e401ff64b4be{fill:#4c3d34;}.b4d50c41-2f2a-42f3-9874-dc4387fa2940{fill:none;stroke:#fff;stroke-linecap:round;stroke-linejoin:round;stroke-width:1.54px;}</style></defs><title>針方1</title><g id="aa2a85e9-d408-4ec0-86d4-107d6cf5405a" data-name="圖層 2"><g id="b849ed47-f066-40b0-8208-0500b7054ab8" data-name="圖層 1"><path class="ecce1213-d4a8-4134-a5ba-ea916018ffd2" d="M14.29,11,.79,21.17S27.8,50.53,55,64.89Z"/><path class="fca151a8-e2ad-41b1-907b-7fc2831a1fb1" d="M14.29,11,27.78.77S48.66,34.76,55,64.89Z"/><polygon class="baac0806-35b8-4318-8f86-ff5a4123b5c7" points="23.55 23.25 0.77 21.19 8.48 3.3 27.78 0.77 23.55 23.25"/><path class="ac11f042-d079-4a41-b8e5-afe79163ae36" d="M11.77,8.7c.14-.48.28-1,.43-1.44.05-.18.1-.36.16-.54-.15.22,0,.24.33,0,1.12,0,2.19-.07,3.32,0,1.85.17,1.84-2.71,0-2.88-1.6-.14-3.48-.34-5,.35S9.39,6.57,9,7.93a1.44,1.44,0,0,0,2.78.77Z"/><path class="ac11f042-d079-4a41-b8e5-afe79163ae36" d="M17.23,21.63a19.84,19.84,0,0,1,3,.23,1.49,1.49,0,0,0,1.77-1,1.46,1.46,0,0,0-1-1.78,23.41,23.41,0,0,0-3.74-.32,1.44,1.44,0,0,0,0,2.88Z"/><path class="b9d6edbd-3d4b-4712-b006-c0594e30a71c" d="M8.29,25.5A46.68,46.68,0,0,0,17.4,36.44c1.39,1.22,3.43-.81,2-2A43.69,43.69,0,0,1,10.79,24a1.45,1.45,0,0,0-2.5,1.46Z"/><path class="fd99f59a-b44a-46f8-a765-e401ff64b4be" d="M31.75,18.22A7.87,7.87,0,0,1,33.31,22a1.5,1.5,0,0,0,1.45,1.44A1.45,1.45,0,0,0,36.2,22a10.84,10.84,0,0,0-2-5.19,1.48,1.48,0,0,0-2-.51,1.45,1.45,0,0,0-.52,2Z"/><polyline class="b4d50c41-2f2a-42f3-9874-dc4387fa2940" points="19.25 22.86 0.77 21.19 8.48 3.3 27.78 0.77 24.65 17.4"/><path class="b4d50c41-2f2a-42f3-9874-dc4387fa2940" d="M.77,21.19S40.28,61,55,64.89c0,0-5.39-28.76-27.26-64.12"/></g></g></svg>