<svg xmlns="http://www.w3.org/2000/svg" viewBox="0 0 42.67 84.32"><defs><style>.e174da6e-6182-43ee-92ed-a5eb0192e26b{fill:#6e5f54;}.fea7ea5f-1a3b-43f9-b2c4-efe519fe900d{fill:#5b4c43;}.bd0c6b1c-fba6-4236-b366-32e7d66ce641{fill:#a39082;}.f9c81b2f-fe1b-4655-8582-bab9c13b86ce{fill:#7e6d62;}.a810ee49-58fe-4060-9c87-f1fb3815e238{fill:#67584e;}.af02b210-0196-416d-8a68-65d80d81394a{fill:#4c3d34;}.ec733228-b438-4fef-9ae7-a24b28b17aa7{fill:none;stroke:#fff;stroke-linecap:round;stroke-linejoin:round;stroke-width:1.83px;}</style></defs><title>針三3</title><g id="bc7bc652-4c30-4a55-b7fd-f299afd11511" data-name="圖層 2"><g id="ee3aa4ef-31ff-411e-b82f-7c51e1c49c35" data-name="圖層 1"><path class="e174da6e-6182-43ee-92ed-a5eb0192e26b" d="M22,4.36,2.18.91s-3.6,47.22,6,82.49Z"/><path class="fea7ea5f-1a3b-43f9-b2c4-efe519fe900d" d="M22,4.36,41.75,7.81S29.16,53.46,8.19,83.4Z"/><polygon class="bd0c6b1c-fba6-4236-b366-32e7d66ce641" points="17.15 32 41.75 7.81 2.18 0.91 17.15 32"/><path class="f9c81b2f-fe1b-4655-8582-bab9c13b86ce" d="M10.88,7.41q2,3.6,3.91,7.26c1,2,4,.23,2.95-1.73q-1.9-3.64-3.9-7.26c-1.07-1.93-4-.2-3,1.73Z"/><path class="f9c81b2f-fe1b-4655-8582-bab9c13b86ce" d="M32.91,11.31a5.39,5.39,0,0,0,2.32-.59,1.72,1.72,0,0,0,.61-2.34,1.75,1.75,0,0,0-2.34-.62l-.06,0-.24.07-.25,0c.18,0,.16,0,0,0a1.71,1.71,0,1,0,0,3.42Z"/><path class="a810ee49-58fe-4060-9c87-f1fb3815e238" d="M3.65,14.54A101.67,101.67,0,0,0,3.44,27.6c.11,2.2,3.54,2.21,3.43,0a101.67,101.67,0,0,1,.21-13.06c.18-2.19-3.25-2.18-3.43,0Z"/><path class="af02b210-0196-416d-8a68-65d80d81394a" d="M30.2,25.49l-1.49,5c-.63,2.12,2.67,3,3.3.92l1.49-5c.63-2.12-2.67-3-3.3-.91Z"/><polyline class="ec733228-b438-4fef-9ae7-a24b28b17aa7" points="12.13 21.59 2.18 0.91 41.75 7.81 20.05 29.15"/><path class="ec733228-b438-4fef-9ae7-a24b28b17aa7" d="M2.18.91s-5.37,49.18,6,82.49c0,0,15.93-17.2,33.56-75.59"/></g></g></svg>