<svg xmlns="http://www.w3.org/2000/svg" viewBox="0 0 55.27 87.63"><defs><style>.f86eff78-7f16-4c9c-aebc-6aca82d0e9aa{fill:#6e5f54;}.b23f0575-580c-4123-b09c-3872fd1c94ac{fill:#5b4c43;}.ada9a1bb-aa6b-444b-93ca-5490997c482c{fill:#a39082;}.fd45de26-3fba-47a2-8580-84f90cd77514{fill:#7e6d62;}.b7256ead-6819-453c-9b94-00d362392c08{fill:#67584e;}.e6cc65d4-2633-41cd-a90f-53e61df7f5d2{fill:#4c3d34;}.b81b2b9f-0629-4107-a472-94c75b25bbc6{fill:none;stroke:#fff;stroke-linecap:round;stroke-linejoin:round;stroke-width:3.33px;}</style></defs><title>針三1</title><g id="e989216a-8660-48ec-a27e-94657c7fd963" data-name="圖層 2"><g id="bb3ce48d-b51b-439a-8f2e-11e354a98ce5" data-name="圖層 1"><path class="f86eff78-7f16-4c9c-aebc-6aca82d0e9aa" d="M29.62,7.55l-24-5.89S-5.45,44.08,10.37,86Z"/><path class="b23f0575-580c-4123-b09c-3872fd1c94ac" d="M29.62,7.55l24,5.89S28.17,82.82,10.37,86Z"/><polygon class="ada9a1bb-aa6b-444b-93ca-5490997c482c" points="21.65 40.02 53.6 13.44 5.64 1.66 21.65 40.02"/><path class="fd45de26-3fba-47a2-8580-84f90cd77514" d="M15.84,10.48c1.43,3.07,2.82,6.14,4.18,9.24,1.08,2.48,4.71.34,3.63-2.12q-2-4.65-4.18-9.24C18.33,5.91,14.7,8,15.84,10.48Z"/><path class="fd45de26-3fba-47a2-8580-84f90cd77514" d="M42.6,17A5.53,5.53,0,0,0,45,16.6a2.32,2.32,0,0,0,1.26-1A2.18,2.18,0,0,0,46.45,14a2.13,2.13,0,0,0-2.59-1.47c-.07,0-.74.32-.81.25s.41,0,.06,0H42.6a2.11,2.11,0,0,0-2.1,2.1A2.14,2.14,0,0,0,42.6,17Z"/><path class="b7256ead-6819-453c-9b94-00d362392c08" d="M6.38,18.09A129.38,129.38,0,0,0,5,34.65c0,2.71,4.16,2.71,4.21,0a120.86,120.86,0,0,1,1.28-15.44c.4-2.65-3.66-3.8-4.06-1.12Z"/><path class="e6cc65d4-2633-41cd-a90f-53e61df7f5d2" d="M37.91,34.29l-2.25,6a2.12,2.12,0,0,0,1.47,2.58,2.15,2.15,0,0,0,2.59-1.47l2.25-6a2.11,2.11,0,0,0-1.47-2.58,2.15,2.15,0,0,0-2.59,1.47Z"/><polyline class="b81b2b9f-0629-4107-a472-94c75b25bbc6" points="16.68 28.11 5.64 1.66 53.6 13.44 30.83 32.39"/><path class="b81b2b9f-0629-4107-a472-94c75b25bbc6" d="M5.64,1.66S-5.92,48.74,10.37,86c0,0,16.72-2.38,43.24-72.52"/></g></g></svg>