<svg xmlns="http://www.w3.org/2000/svg" viewBox="0 0 42.67 84.32"><defs><style>.a609dc8c-4cd5-45ac-9e74-20aef88d483b{fill:#6e5f54;}.ac8ce246-1431-4e06-9f86-bd4a3936cb4b{fill:#5b4c43;}.b7fc29a0-26ce-41e8-89fa-6950c288392c{fill:#a39082;}.b539db80-ce26-463f-8e32-9203332db5d8{fill:#7e6d62;}.a6728801-1ebd-4fa5-89f0-15e72d16e184{fill:#67584e;}.a50e3aea-c0b0-4ca9-8434-4022960702d1{fill:#4c3d34;}.fe11501d-7cc4-4aaa-8fee-8c26a27be2d2{fill:none;stroke:#fff;stroke-linecap:round;stroke-linejoin:round;stroke-width:1.83px;}</style></defs><title>針三4</title><g id="faea119a-7584-459e-bdc0-7f2c5b9e0477" data-name="圖層 2"><g id="e846d151-7ded-497a-92a8-c17c6d824b53" data-name="圖層 1"><path class="a609dc8c-4cd5-45ac-9e74-20aef88d483b" d="M22,4.36,2.18.91s-3.6,47.22,6,82.49Z"/><path class="ac8ce246-1431-4e06-9f86-bd4a3936cb4b" d="M22,4.36,41.75,7.81S29.16,53.46,8.19,83.4Z"/><polygon class="b7fc29a0-26ce-41e8-89fa-6950c288392c" points="17.15 32 41.75 7.81 2.18 0.91 17.15 32"/><path class="b539db80-ce26-463f-8e32-9203332db5d8" d="M10.88,7.41q2,3.6,3.91,7.26c1,2,4,.23,2.95-1.73q-1.9-3.64-3.9-7.26c-1.07-1.93-4-.2-3,1.73Z"/><path class="b539db80-ce26-463f-8e32-9203332db5d8" d="M32.91,11.31a5.39,5.39,0,0,0,2.32-.59,1.72,1.72,0,0,0,.61-2.34,1.75,1.75,0,0,0-2.34-.62l-.06,0-.24.07-.25,0c.18,0,.16,0,0,0a1.71,1.71,0,1,0,0,3.42Z"/><path class="a6728801-1ebd-4fa5-89f0-15e72d16e184" d="M3.65,14.54A101.67,101.67,0,0,0,3.44,27.6c.11,2.2,3.54,2.21,3.43,0a101.67,101.67,0,0,1,.21-13.06c.18-2.19-3.25-2.18-3.43,0Z"/><path class="a50e3aea-c0b0-4ca9-8434-4022960702d1" d="M30.2,25.49l-1.49,5c-.63,2.12,2.67,3,3.3.92l1.49-5c.63-2.12-2.67-3-3.3-.91Z"/><polyline class="fe11501d-7cc4-4aaa-8fee-8c26a27be2d2" points="12.13 21.59 2.18 0.91 41.75 7.81 20.05 29.15"/><path class="fe11501d-7cc4-4aaa-8fee-8c26a27be2d2" d="M2.18.91s-5.37,49.18,6,82.49c0,0,15.93-17.2,33.56-75.59"/></g></g></svg>