<svg xmlns="http://www.w3.org/2000/svg" viewBox="0 0 40.92 68.37"><defs><style>.b98ad37c-15de-4437-9e4e-095efaba6a21{fill:#6e5f54;}.afe5b3c6-9c6a-4b2e-a5ed-a84e53e603ff{fill:#5b4c43;}.b4640fa1-6795-4ae9-a003-3b158a91394f{fill:#a39082;}.a1ba610d-0354-40bc-b86e-0259234135f4{fill:#7e6d62;}.a0945338-3bf9-49ff-aea5-ff643d521fe5{fill:#67584e;}.e063a990-16c8-43df-96e4-ea0cdc6abe2f{fill:#4c3d34;}.b2624695-c905-431d-b965-e756f6a0d220{fill:none;stroke:#fff;stroke-linecap:round;stroke-linejoin:round;stroke-width:1.79px;}</style></defs><title>針三2</title><g id="b52a0860-2fa3-46ff-bd4b-9b44c2798400" data-name="圖層 2"><g id="a0861518-8e97-46f4-ba89-cb9d6bfd998b" data-name="圖層 1"><path class="b98ad37c-15de-4437-9e4e-095efaba6a21" d="M20.42,3.63.9,6.36S5.23,41.1,29.36,67.47Z"/><path class="afe5b3c6-9c6a-4b2e-a5ed-a84e53e603ff" d="M20.42,3.63,40,.9s1.67,59-10.59,66.57Z"/><polygon class="b4640fa1-6795-4ae9-a003-3b158a91394f" points="24.5 32.78 39.95 0.9 0.9 6.36 24.5 32.78"/><path class="a1ba610d-0354-40bc-b86e-0259234135f4" d="M10.91,9.75q3,2.76,5.84,5.61c1.54,1.52,3.92-.86,2.38-2.38-1.93-1.89-3.87-3.76-5.84-5.61-1.57-1.48-4,.89-2.38,2.38Z"/><path class="a1ba610d-0354-40bc-b86e-0259234135f4" d="M32.67,6.85a5.34,5.34,0,0,0,2-1.2,1.7,1.7,0,0,0,0-2.38,1.72,1.72,0,0,0-2.38,0,1.7,1.7,0,0,1-.24.22c.1-.08.1-.09,0,0l-.21.12-.06,0A1.72,1.72,0,0,0,30.6,5.68a1.71,1.71,0,0,0,2.07,1.17Z"/><path class="a0945338-3bf9-49ff-aea5-ff643d521fe5" d="M6.36,18.58a98.61,98.61,0,0,0,3.73,12.27c.76,2,4,1.13,3.24-.9A99,99,0,0,1,9.6,17.69c-.5-2.1-3.74-1.21-3.24.89Z"/><path class="e063a990-16c8-43df-96e4-ea0cdc6abe2f" d="M34.47,20.81l.12,5.13c0,2.16,3.4,2.17,3.36,0l-.12-5.13c0-2.16-3.4-2.16-3.36,0Z"/><polyline class="b2624695-c905-431d-b965-e756f6a0d220" points="19.36 27.03 0.9 6.36 39.95 0.9 28.63 24.27"/><path class="b2624695-c905-431d-b965-e756f6a0d220" d="M.9,6.36S6.26,44.69,29.36,67.47c0,0,11.69-6.71,10.59-66.57"/></g></g></svg>