<svg xmlns="http://www.w3.org/2000/svg" viewBox="0 0 1400 1050"><defs><style>.f1f82f81-8878-431d-baec-5fa23324dd55{fill:#454a6d;}.e8e54175-8fd9-4d17-8da4-f84c458fb9d5{fill:#2a2646;}.b376ede0-f92b-4215-b4f7-9fa88304a7d2{fill:#fefeff;}.b6c96177-d738-4844-a865-91904ffdf702{fill:#ffe06c;}.b30ffcb1-c599-458d-9bf5-c6b314da285d{fill:#fac766;}.fe4343e5-10d4-4609-8678-ebbb3e82ae13{fill:#f7f8f8;}.a3c7deef-9eb9-428a-bf86-8ce1538c03fe{fill:#fce9f2;}.f30c92a3-5cb2-41d5-8a02-5ea53f1f2617{fill:#fff;}.a20e2f79-e584-4023-ba94-cbb838377169{fill:#c9bc9c;}.ea9b4858-61a0-4850-9509-8d16ea9fb4e7{fill:#7a6a56;}.b7d5498a-29db-4e5c-a618-954329c05ade{fill:#85745e;opacity:0.6;}</style></defs><title>背景</title><g id="b6381634-ef77-4afe-9c54-e8838c570fd4" data-name="圖層 2"><g id="ff001871-726a-4436-8cf5-d90b985cf145" data-name="圖層 1"><rect class="f1f82f81-8878-431d-baec-5fa23324dd55" x="0.03" width="1399.97" height="973.56"/><ellipse class="e8e54175-8fd9-4d17-8da4-f84c458fb9d5" cx="180.96" cy="176.7" rx="137.6" ry="64.58"/><ellipse class="e8e54175-8fd9-4d17-8da4-f84c458fb9d5" cx="327.12" cy="232.71" rx="97.43" ry="45.73"/><ellipse class="e8e54175-8fd9-4d17-8da4-f84c458fb9d5" cx="1161.28" cy="140.42" rx="97.43" ry="45.73"/><path class="b376ede0-f92b-4215-b4f7-9fa88304a7d2" d="M569.12,294.24a1.39,1.39,0,0,0,0-2.77,1.39,1.39,0,0,0,0,2.77Z"/><path class="b376ede0-f92b-4215-b4f7-9fa88304a7d2" d="M445.59,288.57a1.39,1.39,0,0,0,0-2.77,1.39,1.39,0,0,0,0,2.77Z"/><path class="b376ede0-f92b-4215-b4f7-9fa88304a7d2" d="M433.12,329.94a1.39,1.39,0,0,0,0-2.77,1.39,1.39,0,0,0,0,2.77Z"/><path class="b376ede0-f92b-4215-b4f7-9fa88304a7d2" d="M516.42,335.61a1.39,1.39,0,0,0,0-2.78,1.39,1.39,0,0,0,0,2.78Z"/><path class="b376ede0-f92b-4215-b4f7-9fa88304a7d2" d="M381.56,280.07a1.39,1.39,0,0,0,0-2.77,1.39,1.39,0,0,0,0,2.77Z"/><path class="b376ede0-f92b-4215-b4f7-9fa88304a7d2" d="M332.26,333.91a1.39,1.39,0,0,0,0-2.78,1.39,1.39,0,0,0,0,2.78Z"/><path class="b376ede0-f92b-4215-b4f7-9fa88304a7d2" d="M972,294.81a1.39,1.39,0,0,0,0-2.78,1.39,1.39,0,0,0,0,2.78Z"/><path class="b376ede0-f92b-4215-b4f7-9fa88304a7d2" d="M994.68,238.71a1.39,1.39,0,0,0,0-2.78,1.39,1.39,0,0,0,0,2.78Z"/><path class="b376ede0-f92b-4215-b4f7-9fa88304a7d2" d="M1053.61,242.67a1.39,1.39,0,0,0,0-2.77,1.39,1.39,0,0,0,0,2.77Z"/><path class="b376ede0-f92b-4215-b4f7-9fa88304a7d2" d="M1041.15,290.84a1.39,1.39,0,0,0,0-2.77,1.39,1.39,0,0,0,0,2.77Z"/><path class="b376ede0-f92b-4215-b4f7-9fa88304a7d2" d="M1087.61,214.34a1.39,1.39,0,0,0,0-2.77,1.39,1.39,0,0,0,0,2.77Z"/><path class="b376ede0-f92b-4215-b4f7-9fa88304a7d2" d="M1038.88,207.54a1.39,1.39,0,0,0,0-2.77,1.39,1.39,0,0,0,0,2.77Z"/><path class="b376ede0-f92b-4215-b4f7-9fa88304a7d2" d="M1326.74,281.21a1.39,1.39,0,0,0,0-2.78,1.39,1.39,0,0,0,0,2.78Z"/><path class="b376ede0-f92b-4215-b4f7-9fa88304a7d2" d="M1310.88,181.47a1.39,1.39,0,0,0,0-2.77,1.39,1.39,0,0,0,0,2.77Z"/><path class="b376ede0-f92b-4215-b4f7-9fa88304a7d2" d="M1246.28,272.14a1.39,1.39,0,0,0,0-2.77,1.39,1.39,0,0,0,0,2.77Z"/><path class="b376ede0-f92b-4215-b4f7-9fa88304a7d2" d="M1161.28,257.41a1.39,1.39,0,0,0,0-2.78,1.39,1.39,0,0,0,0,2.78Z"/><path class="b376ede0-f92b-4215-b4f7-9fa88304a7d2" d="M1147.68,294.81a1.39,1.39,0,0,0,0-2.78,1.39,1.39,0,0,0,0,2.78Z"/><path class="b376ede0-f92b-4215-b4f7-9fa88304a7d2" d="M1284.81,244.94a1.39,1.39,0,0,0,0-2.77,1.39,1.39,0,0,0,0,2.77Z"/><path class="b376ede0-f92b-4215-b4f7-9fa88304a7d2" d="M1190.75,106.67a1.39,1.39,0,0,0,0-2.77,1.39,1.39,0,0,0,0,2.77Z"/><path class="b376ede0-f92b-4215-b4f7-9fa88304a7d2" d="M1116,157.67a1.39,1.39,0,0,0,0-2.77,1.39,1.39,0,0,0,0,2.77Z"/><path class="b376ede0-f92b-4215-b4f7-9fa88304a7d2" d="M1181.68,161.07a1.39,1.39,0,0,0,0-2.77,1.39,1.39,0,0,0,0,2.77Z"/><path class="b376ede0-f92b-4215-b4f7-9fa88304a7d2" d="M1184,141.81a1.39,1.39,0,0,0,0-2.78,1.39,1.39,0,0,0,0,2.78Z"/><path class="b376ede0-f92b-4215-b4f7-9fa88304a7d2" d="M623,136.14a1.39,1.39,0,0,0,0-2.77,1.39,1.39,0,0,0,0,2.77Z"/><path class="b376ede0-f92b-4215-b4f7-9fa88304a7d2" d="M463.15,141.81a1.39,1.39,0,0,0,0-2.78,1.39,1.39,0,0,0,0,2.78Z"/><path class="b376ede0-f92b-4215-b4f7-9fa88304a7d2" d="M426.89,190.54a1.39,1.39,0,0,0,0-2.77,1.39,1.39,0,0,0,0,2.77Z"/><path class="b376ede0-f92b-4215-b4f7-9fa88304a7d2" d="M335.09,150.87a1.39,1.39,0,0,0,0-2.77,1.39,1.39,0,0,0,0,2.77Z"/><path class="b376ede0-f92b-4215-b4f7-9fa88304a7d2" d="M289.76,174.67a1.39,1.39,0,0,0,0-2.77,1.39,1.39,0,0,0,0,2.77Z"/><path class="b376ede0-f92b-4215-b4f7-9fa88304a7d2" d="M190,157.67a1.39,1.39,0,0,0,0-2.77,1.39,1.39,0,0,0,0,2.77Z"/><path class="b376ede0-f92b-4215-b4f7-9fa88304a7d2" d="M144.69,250.61a1.39,1.39,0,0,0,0-2.78,1.39,1.39,0,0,0,0,2.78Z"/><path class="b376ede0-f92b-4215-b4f7-9fa88304a7d2" d="M118.62,322a1.39,1.39,0,0,0,0-2.78,1.39,1.39,0,0,0,0,2.78Z"/><path class="b376ede0-f92b-4215-b4f7-9fa88304a7d2" d="M181,376.41a1.39,1.39,0,0,0,0-2.78,1.39,1.39,0,0,0,0,2.78Z"/><path class="b376ede0-f92b-4215-b4f7-9fa88304a7d2" d="M64,406.25a1.39,1.39,0,0,0,0-2.77,1.39,1.39,0,0,0,0,2.77Z"/><path class="b376ede0-f92b-4215-b4f7-9fa88304a7d2" d="M229.69,336.74a1.39,1.39,0,0,0,0-2.77,1.39,1.39,0,0,0,0,2.77Z"/><path class="b376ede0-f92b-4215-b4f7-9fa88304a7d2" d="M310.16,264.21a1.39,1.39,0,0,0,0-2.78,1.39,1.39,0,0,0,0,2.78Z"/><path class="b376ede0-f92b-4215-b4f7-9fa88304a7d2" d="M191.16,443.27a1.39,1.39,0,0,0,0-2.77,1.39,1.39,0,0,0,0,2.77Z"/><path class="b6c96177-d738-4844-a865-91904ffdf702" d="M762.14,69.11l.09,1.32c4.47,80.34-63.78,146.75-144,140.13q-1.57-.13-3.15-.3c-15-1.6-25.5,14.61-17.44,27.35a133,133,0,0,0,108.16,62c74.89,2.45,137.53-58.12,137.51-133A132.93,132.93,0,0,0,784.45,56.14C774.57,49.49,761.36,57.22,762.14,69.11Z"/><path class="b30ffcb1-c599-458d-9bf5-c6b314da285d" d="M813.4,132c3,49.7-22.51,98.5-65.25,124.17-6.11,3.67-.54,13.27,5.61,9.58,45.9-27.57,73.92-80.23,70.74-133.75-.43-7.1-11.53-7.15-11.1,0Z"/><path class="fe4343e5-10d4-4609-8678-ebbb3e82ae13" d="M611.55,230.69a87.35,87.35,0,0,0,33.51,36.86c6.11,3.73,11.69-5.86,5.6-9.58a76.86,76.86,0,0,1-29.53-32.88c-3.09-6.44-12.66-.81-9.58,5.6Z"/><path class="fe4343e5-10d4-4609-8678-ebbb3e82ae13" d="M776.93,75.27a39,39,0,0,1,10,14.35c1.09,2.79,3.72,4.73,6.83,3.87,2.66-.73,5-4,3.87-6.82a51.2,51.2,0,0,0-12.85-19.24c-5.23-4.86-13.1,3-7.85,7.84Z"/><path class="a3c7deef-9eb9-428a-bf86-8ce1538c03fe" d="M427.14,195.12c7.14,0,7.16-11.1,0-11.1s-7.15,11.1,0,11.1Z"/><path class="a3c7deef-9eb9-428a-bf86-8ce1538c03fe" d="M258.56,616.87c7.14,0,7.15-11.09,0-11.09s-7.15,11.09,0,11.09Z"/><path class="a3c7deef-9eb9-428a-bf86-8ce1538c03fe" d="M228.51,340.49c7.14,0,7.15-11.1,0-11.1s-7.16,11.1,0,11.1Z"/><path class="a3c7deef-9eb9-428a-bf86-8ce1538c03fe" d="M144.17,253.93c7.14,0,7.15-11.1,0-11.1s-7.15,11.1,0,11.1Z"/><path class="a3c7deef-9eb9-428a-bf86-8ce1538c03fe" d="M116.43,327.17c7.14,0,7.15-11.09,0-11.09s-7.16,11.09,0,11.09Z"/><path class="a3c7deef-9eb9-428a-bf86-8ce1538c03fe" d="M39.74,509.87c7.14,0,7.15-11.1,0-11.1s-7.16,11.1,0,11.1Z"/><path class="a3c7deef-9eb9-428a-bf86-8ce1538c03fe" d="M1057.46,246.16c7.14,0,7.15-11.09,0-11.09s-7.15,11.09,0,11.09Z"/><path class="a3c7deef-9eb9-428a-bf86-8ce1538c03fe" d="M1293.83,245.05v-1.11a5.55,5.55,0,0,0-11.1,0v1.11a5.55,5.55,0,1,0,11.1,0Z"/><path class="a3c7deef-9eb9-428a-bf86-8ce1538c03fe" d="M1338.22,150.73c7.14,0,7.15-11.1,0-11.1s-7.16,11.1,0,11.1Z"/><path class="a3c7deef-9eb9-428a-bf86-8ce1538c03fe" d="M861,147.4c7.14,0,7.15-11.1,0-11.1s-7.15,11.1,0,11.1Z"/><path class="a3c7deef-9eb9-428a-bf86-8ce1538c03fe" d="M59.83,111.89c7.14,0,7.15-11.1,0-11.1s-7.15,11.1,0,11.1Z"/><path class="f30c92a3-5cb2-41d5-8a02-5ea53f1f2617" d="M506.87,159.54l2.12,3.08a1.87,1.87,0,0,0,2,.72l3.58-1.08a1.83,1.83,0,0,1,2,2.87l-2.27,3a1.85,1.85,0,0,0-.05,2.16l2.13,3.08a1.84,1.84,0,0,1-2.12,2.77l-3.53-1.24a1.82,1.82,0,0,0-2.06.61l-2.27,3a1.83,1.83,0,0,1-3.29-1.16l.09-3.74a1.82,1.82,0,0,0-1.22-1.77l-3.53-1.24a1.83,1.83,0,0,1,.08-3.48l3.58-1.08a1.82,1.82,0,0,0,1.31-1.71l.09-3.74A1.83,1.83,0,0,1,506.87,159.54Z"/><path class="f30c92a3-5cb2-41d5-8a02-5ea53f1f2617" d="M417,431.51l2.13,3.07a1.82,1.82,0,0,0,2,.72l3.59-1.07a1.83,1.83,0,0,1,2,2.86l-2.27,3a1.83,1.83,0,0,0-.05,2.15l2.12,3.08a1.83,1.83,0,0,1-2.11,2.77l-3.53-1.24a1.82,1.82,0,0,0-2.06.62l-2.27,3a1.83,1.83,0,0,1-3.29-1.16l.09-3.74a1.84,1.84,0,0,0-1.23-1.77l-3.53-1.24a1.83,1.83,0,0,1,.09-3.48l3.58-1.07a1.84,1.84,0,0,0,1.31-1.71l.08-3.74A1.83,1.83,0,0,1,417,431.51Z"/><path class="f30c92a3-5cb2-41d5-8a02-5ea53f1f2617" d="M1003.57,436.37l2.13,3.08a1.83,1.83,0,0,0,2,.71l3.59-1.07a1.83,1.83,0,0,1,2,2.87l-2.27,3a1.85,1.85,0,0,0,0,2.16l2.13,3.07a1.83,1.83,0,0,1-2.12,2.77l-3.53-1.23a1.81,1.81,0,0,0-2.06.61l-2.27,3a1.83,1.83,0,0,1-3.29-1.16l.09-3.74a1.83,1.83,0,0,0-1.23-1.77l-3.53-1.24a1.83,1.83,0,0,1,.09-3.48l3.58-1.08a1.82,1.82,0,0,0,1.31-1.71l.09-3.74A1.83,1.83,0,0,1,1003.57,436.37Z"/><path class="f30c92a3-5cb2-41d5-8a02-5ea53f1f2617" d="M929,179.63l-1.47,3.44a1.83,1.83,0,0,0,.48,2.1l2.82,2.46a1.83,1.83,0,0,1-1.37,3.2l-3.73-.33a1.83,1.83,0,0,0-1.85,1.1L922.41,195a1.83,1.83,0,0,1-3.47-.31l-.83-3.65a1.83,1.83,0,0,0-1.62-1.41l-3.73-.34a1.83,1.83,0,0,1-.78-3.4L915.2,184a1.82,1.82,0,0,0,.84-2l-.83-3.64a1.83,1.83,0,0,1,3-1.79l2.82,2.46a1.82,1.82,0,0,0,2.14.19l3.22-1.91A1.83,1.83,0,0,1,929,179.63Z"/><path class="f30c92a3-5cb2-41d5-8a02-5ea53f1f2617" d="M992.22,98.77l-1.47,3.44a1.83,1.83,0,0,0,.48,2.1l2.82,2.46a1.83,1.83,0,0,1-1.37,3.2l-3.73-.33a1.82,1.82,0,0,0-1.84,1.1l-1.48,3.44a1.83,1.83,0,0,1-3.47-.31l-.83-3.65a1.85,1.85,0,0,0-1.62-1.42l-3.73-.33a1.83,1.83,0,0,1-.77-3.4l3.21-1.92a1.84,1.84,0,0,0,.85-2l-.84-3.65a1.83,1.83,0,0,1,3-1.78l2.81,2.46a1.84,1.84,0,0,0,2.15.19l3.21-1.92A1.83,1.83,0,0,1,992.22,98.77Z"/><path class="f30c92a3-5cb2-41d5-8a02-5ea53f1f2617" d="M1379.56,241.85l-3.66-.77a1.82,1.82,0,0,0-2,.88l-1.87,3.25a1.83,1.83,0,0,1-3.41-.72l-.4-3.72a1.84,1.84,0,0,0-1.44-1.6l-3.66-.76a1.84,1.84,0,0,1-.38-3.47l3.42-1.53a1.84,1.84,0,0,0,1.07-1.87l-.4-3.72a1.83,1.83,0,0,1,3.18-1.42l2.51,2.77a1.82,1.82,0,0,0,2.11.44l3.41-1.53a1.84,1.84,0,0,1,2.34,2.59l-1.86,3.24a1.81,1.81,0,0,0,.23,2.14l2.51,2.78A1.83,1.83,0,0,1,1379.56,241.85Z"/><path class="f30c92a3-5cb2-41d5-8a02-5ea53f1f2617" d="M51.08,216.44l-1.47,3.44a1.83,1.83,0,0,0,.48,2.1l2.82,2.46a1.84,1.84,0,0,1-1.37,3.21l-3.73-.34A1.84,1.84,0,0,0,46,228.42l-1.47,3.44a1.83,1.83,0,0,1-3.47-.32l-.83-3.64a1.83,1.83,0,0,0-1.62-1.42l-3.73-.34a1.83,1.83,0,0,1-.78-3.39l3.22-1.92a1.83,1.83,0,0,0,.84-2l-.83-3.65a1.83,1.83,0,0,1,3-1.79l2.82,2.46a1.82,1.82,0,0,0,2.14.2l3.22-1.92A1.83,1.83,0,0,1,51.08,216.44Z"/><path class="f30c92a3-5cb2-41d5-8a02-5ea53f1f2617" d="M155.24,486.69l-2.78-2.5a1.84,1.84,0,0,0-2.14-.23l-3.24,1.88a1.83,1.83,0,0,1-2.59-2.33l1.51-3.42a1.82,1.82,0,0,0-.44-2.11l-2.79-2.5a1.84,1.84,0,0,1,1.42-3.19l3.72.39a1.81,1.81,0,0,0,1.86-1.07l1.52-3.42a1.83,1.83,0,0,1,3.47.36l.78,3.66a1.84,1.84,0,0,0,1.6,1.44l3.72.39a1.83,1.83,0,0,1,.73,3.41l-3.24,1.87a1.81,1.81,0,0,0-.87,2l.78,3.65A1.83,1.83,0,0,1,155.24,486.69Z"/><path class="f30c92a3-5cb2-41d5-8a02-5ea53f1f2617" d="M1313.78,581.08l-2.78-2.5a1.84,1.84,0,0,0-2.14-.23l-3.24,1.88a1.83,1.83,0,0,1-2.59-2.33l1.52-3.42a1.84,1.84,0,0,0-.45-2.11l-2.78-2.5a1.83,1.83,0,0,1,1.41-3.18l3.72.38a1.83,1.83,0,0,0,1.87-1.07l1.52-3.42a1.83,1.83,0,0,1,3.46.36l.78,3.66a1.84,1.84,0,0,0,1.61,1.44l3.72.39a1.83,1.83,0,0,1,.72,3.41l-3.24,1.87a1.83,1.83,0,0,0-.87,2l.78,3.66A1.83,1.83,0,0,1,1313.78,581.08Z"/><path class="f30c92a3-5cb2-41d5-8a02-5ea53f1f2617" d="M795.19,585.61l-2.78-2.5a1.84,1.84,0,0,0-2.14-.23L787,584.76a1.83,1.83,0,0,1-2.59-2.33L786,579a1.84,1.84,0,0,0-.45-2.11l-2.79-2.5a1.83,1.83,0,0,1,1.42-3.18l3.72.38a1.84,1.84,0,0,0,1.87-1.07l1.51-3.42a1.83,1.83,0,0,1,3.47.36l.78,3.66a1.84,1.84,0,0,0,1.6,1.44l3.72.39a1.83,1.83,0,0,1,.73,3.41l-3.24,1.87a1.82,1.82,0,0,0-.87,2l.78,3.66A1.83,1.83,0,0,1,795.19,585.61Z"/><ellipse class="e8e54175-8fd9-4d17-8da4-f84c458fb9d5" cx="824.79" cy="253.2" rx="77.69" ry="36.46"/><ellipse class="e8e54175-8fd9-4d17-8da4-f84c458fb9d5" cx="884.72" cy="226.57" rx="54.33" ry="25.5"/><path class="b376ede0-f92b-4215-b4f7-9fa88304a7d2" d="M1172.65,401.44a1.39,1.39,0,0,0,0-2.78,1.39,1.39,0,0,0,0,2.78Z"/><path class="b376ede0-f92b-4215-b4f7-9fa88304a7d2" d="M1271.11,506.53a1.39,1.39,0,0,0,0-2.77,1.39,1.39,0,0,0,0,2.77Z"/><path class="b376ede0-f92b-4215-b4f7-9fa88304a7d2" d="M980.17,530.87a1.39,1.39,0,0,0,0-2.77,1.39,1.39,0,0,0,0,2.77Z"/><path class="b376ede0-f92b-4215-b4f7-9fa88304a7d2" d="M1338.59,640.39a1.39,1.39,0,0,0,0-2.77,1.39,1.39,0,0,0,0,2.77Z"/><path class="b376ede0-f92b-4215-b4f7-9fa88304a7d2" d="M1314.25,381.53a1.39,1.39,0,0,0,0-2.78,1.39,1.39,0,0,0,0,2.78Z"/><path class="b376ede0-f92b-4215-b4f7-9fa88304a7d2" d="M1139.47,637.07a1.39,1.39,0,0,0,0-2.77,1.39,1.39,0,0,0,0,2.77Z"/><path class="b376ede0-f92b-4215-b4f7-9fa88304a7d2" d="M996.76,370.46a1.39,1.39,0,0,0,0-2.77,1.39,1.39,0,0,0,0,2.77Z"/><path class="b376ede0-f92b-4215-b4f7-9fa88304a7d2" d="M1297.66,714.51a1.39,1.39,0,0,0,0-2.77,1.39,1.39,0,0,0,0,2.77Z"/><path class="b376ede0-f92b-4215-b4f7-9fa88304a7d2" d="M1197,534.19a1.39,1.39,0,0,0,0-2.77,1.39,1.39,0,0,0,0,2.77Z"/><path class="b376ede0-f92b-4215-b4f7-9fa88304a7d2" d="M1021.1,649.24a1.39,1.39,0,0,0,0-2.77,1.39,1.39,0,0,0,0,2.77Z"/><path class="b376ede0-f92b-4215-b4f7-9fa88304a7d2" d="M66.4,702.34a1.39,1.39,0,0,0,0-2.77,1.39,1.39,0,0,0,0,2.77Z"/><path class="b376ede0-f92b-4215-b4f7-9fa88304a7d2" d="M147.16,591.72a1.39,1.39,0,0,0,0-2.78,1.39,1.39,0,0,0,0,2.78Z"/><path class="b376ede0-f92b-4215-b4f7-9fa88304a7d2" d="M351.81,474.45a1.39,1.39,0,0,0,0-2.77,1.39,1.39,0,0,0,0,2.77Z"/><path class="b376ede0-f92b-4215-b4f7-9fa88304a7d2" d="M437,572.91a1.39,1.39,0,0,0,0-2.77,1.39,1.39,0,0,0,0,2.77Z"/><path class="b376ede0-f92b-4215-b4f7-9fa88304a7d2" d="M542.09,416.93a1.39,1.39,0,0,0,0-2.78,1.39,1.39,0,0,0,0,2.78Z"/><path class="b376ede0-f92b-4215-b4f7-9fa88304a7d2" d="M444.74,408.08a1.39,1.39,0,0,0,0-2.78,1.39,1.39,0,0,0,0,2.78Z"/><path class="b376ede0-f92b-4215-b4f7-9fa88304a7d2" d="M912.68,415.82a1.39,1.39,0,0,0,0-2.77,1.39,1.39,0,0,0,0,2.77Z"/><path class="b376ede0-f92b-4215-b4f7-9fa88304a7d2" d="M731.26,342.81a1.39,1.39,0,0,0,0-2.78,1.39,1.39,0,0,0,0,2.78Z"/><path class="b376ede0-f92b-4215-b4f7-9fa88304a7d2" d="M591.87,455.65a1.39,1.39,0,0,0,0-2.78,1.39,1.39,0,0,0,0,2.78Z"/><path class="b376ede0-f92b-4215-b4f7-9fa88304a7d2" d="M773.3,502.11a1.39,1.39,0,0,0,0-2.78,1.39,1.39,0,0,0,0,2.78Z"/><path class="b376ede0-f92b-4215-b4f7-9fa88304a7d2" d="M839.67,602.78a1.39,1.39,0,0,0,0-2.77,1.39,1.39,0,0,0,0,2.77Z"/><path class="b376ede0-f92b-4215-b4f7-9fa88304a7d2" d="M245.61,501.55c5.34,0,5.35-8.3,0-8.3s-5.34,8.3,0,8.3Z"/><path class="b376ede0-f92b-4215-b4f7-9fa88304a7d2" d="M451.38,490.49c5.34,0,5.34-8.3,0-8.3s-5.35,8.3,0,8.3Z"/><path class="b376ede0-f92b-4215-b4f7-9fa88304a7d2" d="M919.32,669.7c5.34,0,5.35-8.29,0-8.29s-5.35,8.29,0,8.29Z"/><path class="b376ede0-f92b-4215-b4f7-9fa88304a7d2" d="M833,389.82c5.34,0,5.35-8.3,0-8.3s-5.34,8.3,0,8.3Z"/><path class="b376ede0-f92b-4215-b4f7-9fa88304a7d2" d="M1105.17,444c5.34,0,5.35-8.3,0-8.3s-5.35,8.3,0,8.3Z"/><path class="b376ede0-f92b-4215-b4f7-9fa88304a7d2" d="M1380.63,504.87c5.34,0,5.35-8.3,0-8.3s-5.35,8.3,0,8.3Z"/><path class="b376ede0-f92b-4215-b4f7-9fa88304a7d2" d="M1254.52,421.9c5.33,0,5.34-8.3,0-8.3s-5.35,8.3,0,8.3Z"/><path class="b376ede0-f92b-4215-b4f7-9fa88304a7d2" d="M1371.78,365.48c5.34,0,5.35-8.3,0-8.3s-5.35,8.3,0,8.3Z"/><path class="b376ede0-f92b-4215-b4f7-9fa88304a7d2" d="M1116,729.17c5.34,0,5.34-8.3,0-8.3s-5.35,8.3,0,8.3Z"/><path class="b376ede0-f92b-4215-b4f7-9fa88304a7d2" d="M891.66,503.76c5.34,0,5.35-8.29,0-8.29s-5.34,8.29,0,8.29Z"/><path class="b376ede0-f92b-4215-b4f7-9fa88304a7d2" d="M56.44,626.56c5.34,0,5.35-8.3,0-8.3s-5.34,8.3,0,8.3Z"/><path class="b376ede0-f92b-4215-b4f7-9fa88304a7d2" d="M378.36,727.23c5.34,0,5.35-8.3,0-8.3s-5.34,8.3,0,8.3Z"/><path class="b376ede0-f92b-4215-b4f7-9fa88304a7d2" d="M1326.42,832.33c5.34,0,5.35-8.3,0-8.3s-5.35,8.3,0,8.3Z"/><path class="b376ede0-f92b-4215-b4f7-9fa88304a7d2" d="M1377.31,643.15c5.34,0,5.35-8.29,0-8.29s-5.35,8.29,0,8.29Z"/><path class="b376ede0-f92b-4215-b4f7-9fa88304a7d2" d="M170.39,716.17c5.34,0,5.35-8.3,0-8.3s-5.35,8.3,0,8.3Z"/><path class="b376ede0-f92b-4215-b4f7-9fa88304a7d2" d="M49.81,782.54c5.34,0,5.34-8.29,0-8.29s-5.35,8.29,0,8.29Z"/><rect class="a20e2f79-e584-4023-ba94-cbb838377169" y="774.52" width="1400" height="275.48"/><path class="ea9b4858-61a0-4850-9509-8d16ea9fb4e7" d="M312,854.57H94.89c-2.29,0-4.15-2.39-4.15-5.35s1.86-5.36,4.15-5.36H312c2.29,0,4.15,2.4,4.15,5.36S314.25,854.57,312,854.57Z"/><path class="ea9b4858-61a0-4850-9509-8d16ea9fb4e7" d="M427.48,899H7.8a5.4,5.4,0,0,1,0-10.72H427.48a5.39,5.39,0,0,1,0,10.72Z"/><path class="ea9b4858-61a0-4850-9509-8d16ea9fb4e7" d="M246.14,1014.76H29.06c-2.29,0-4.14-2.4-4.14-5.36s1.85-5.36,4.14-5.36H246.14c2.29,0,4.15,2.4,4.15,5.36S248.43,1014.76,246.14,1014.76Z"/><path class="ea9b4858-61a0-4850-9509-8d16ea9fb4e7" d="M909.89,806.13H545.94c-2.3,0-4.15-2.39-4.15-5.35s1.85-5.36,4.15-5.36H909.89c2.29,0,4.15,2.4,4.15,5.36S912.18,806.13,909.89,806.13Z"/><path class="b7d5498a-29db-4e5c-a618-954329c05ade" d="M875.87,878.3H511.92c-3.21,0-5.81-3.36-5.81-7.51s2.6-7.5,5.81-7.5h364c3.21,0,5.81,3.36,5.81,7.5S879.08,878.3,875.87,878.3Z"/><path class="b7d5498a-29db-4e5c-a618-954329c05ade" d="M259,844.66H41.89c-3.21,0-5.81-3.36-5.81-7.5s2.6-7.5,5.81-7.5H259c3.21,0,5.81,3.36,5.81,7.5S262.17,844.66,259,844.66Z"/><path class="b7d5498a-29db-4e5c-a618-954329c05ade" d="M1195.29,969.75h-364c-3.2,0-5.8-3.36-5.8-7.5s2.6-7.51,5.8-7.51h364c3.21,0,5.81,3.36,5.81,7.51S1198.5,969.75,1195.29,969.75Z"/><path class="b7d5498a-29db-4e5c-a618-954329c05ade" d="M1394.27,831.85H1035.05c-3.16,0-5.73-3.35-5.73-7.5s2.57-7.5-42.76-7.5h359.21c51.66,0,54.23,3.36,54.23,7.5S1397.43,831.85,1394.27,831.85Z"/><path class="ea9b4858-61a0-4850-9509-8d16ea9fb4e7" d="M647.29,864.58h-182c-1.62,0-2.94-1.7-2.94-3.79s1.32-3.79,2.94-3.79h182c1.63,0,2.94,1.7,2.94,3.79S648.92,864.58,647.29,864.58Z"/><path class="ea9b4858-61a0-4850-9509-8d16ea9fb4e7" d="M984.34,1015H593.14c-2.37,0-4.3-2.49-4.3-5.56s1.93-5.55,4.3-5.55h391.2c2.38,0,4.3,2.48,4.3,5.55S986.72,1015,984.34,1015Z"/><path class="ea9b4858-61a0-4850-9509-8d16ea9fb4e7" d="M1071.43,953.82H822.24c-1.9,0-3.44-2-3.44-4.43s1.54-4.44,3.44-4.44h249.19c1.9,0,3.43,2,3.43,4.44S1073.33,953.82,1071.43,953.82Z"/><path class="ea9b4858-61a0-4850-9509-8d16ea9fb4e7" d="M1368.48,876.78H914.33c-2.56,0-4.64-2.68-4.64-6s2.08-6,4.64-6h454.15c2.55,0,4.63,2.68,4.63,6S1371,876.78,1368.48,876.78Z"/><path class="ea9b4858-61a0-4850-9509-8d16ea9fb4e7" d="M1384.12,835.32H1123.21c-1.94,0-3.52-2-3.52-4.54s1.58-4.53,3.52-4.53h260.91c1.94,0,3.51,2,3.51,4.53S1386.06,835.32,1384.12,835.32Z"/><path class="ea9b4858-61a0-4850-9509-8d16ea9fb4e7" d="M1375.83,1013.94H1114.92c-1.94,0-3.52-2-3.52-4.54s1.58-4.54,3.52-4.54h260.91c1.94,0,3.51,2,3.51,4.54S1377.77,1013.94,1375.83,1013.94Z"/></g></g></svg>