<svg xmlns="http://www.w3.org/2000/svg" viewBox="0 0 131.98 163.1"><defs><style>.b8f9fd48-4f26-4709-ab4a-94ef152cceb1{fill:#71b5d6;}.f2f838ce-62bd-4e30-8cb0-d621b63156ff{fill:#40220f;}.b08bd0a1-5e15-4a3c-8139-3cbb28c4a8cb{fill:#95bcd0;}.b804fd28-3c8e-4ef4-978b-c8e24128da93{fill:#51879f;}.f8a37c36-d470-4945-aea1-5a15a347ec67{fill:#314158;}.b472292c-11ed-47d8-8d5d-10be9d7c8661{fill:#fff;}</style></defs><title>藍</title><g id="b0f02243-c2a3-47d9-b866-136560d4ac76" data-name="圖層 2"><g id="a182a25a-007b-4398-807b-a8874433b84d" data-name="圖層 1"><path class="b8f9fd48-4f26-4709-ab4a-94ef152cceb1" d="M120.63,6.39C111.92.1,101.41-.24,97.16,5.64a9,9,0,0,0-.88,1.53c-2.73,5.95,1,14.74,9,20.52l0,0c8,5.75,17.47,6.49,22.26,2a9.27,9.27,0,0,0,1.17-1.32C133,22.55,129.34,12.68,120.63,6.39Z"/><path class="f2f838ce-62bd-4e30-8cb0-d621b63156ff" d="M119.2,34.14a26,26,0,0,1-14.77-5.22l-.15-.12c-8.47-6.1-12.44-15.5-9.34-22.25a10.9,10.9,0,0,1,1-1.77c4.72-6.53,16.17-6.35,25.53.41h0a26.34,26.34,0,0,1,9.43,11.87c1.7,4.64,1.34,9-1,12.24a9.69,9.69,0,0,1-1.36,1.53A13.44,13.44,0,0,1,119.2,34.14ZM106.64,2.9c-3.53,0-6.53,1.19-8.28,3.61a7.94,7.94,0,0,0-.74,1.28c-2.47,5.38,1.18,13.42,8.49,18.7s16.11,6.21,20.43,2.18a7.16,7.16,0,0,0,1-1.1c1.76-2.44,2-5.81.63-9.49a23.33,23.33,0,0,0-8.39-10.49A23.13,23.13,0,0,0,106.64,2.9Z"/><path class="b08bd0a1-5e15-4a3c-8139-3cbb28c4a8cb" d="M105.25,27.69c-8-5.78-11.7-14.57-9-20.52l-.15-.1L63.36,67a78.76,78.76,0,0,1-11,15.42L2.4,136.86c-2.59,3.59,2.37,11.6,11.09,17.89l.63.45L105.29,27.72Z"/><path class="b804fd28-3c8e-4ef4-978b-c8e24128da93" d="M105.29,27.72,14.12,155.2c8.52,5.94,17.31,8,19.83,4.45l36-64.49A78.56,78.56,0,0,1,81.07,79.83l46.62-50-.14-.11C122.76,34.21,113.28,33.47,105.29,27.72Z"/><path class="f2f838ce-62bd-4e30-8cb0-d621b63156ff" d="M29.61,163.1c-4.71,0-11-2.71-16.45-6.51l-.66-.46C4.18,150.12-2.66,141,1,135.87l.13-.15L51.07,81.31a76.59,76.59,0,0,0,10.8-15.09l32.78-60a1.68,1.68,0,0,1,1.11-.83,1.65,1.65,0,0,1,1.36.27l.15.11a1.71,1.71,0,0,1,.55,2.08c-2.43,5.29,1.19,13.21,8.42,18.44s15.91,6.15,20.15,2.19a1.69,1.69,0,0,1,2.15-.13l.14.1a1.69,1.69,0,0,1,.25,2.53L82.31,81A76.91,76.91,0,0,0,71.38,96l-35.95,64.5a1.63,1.63,0,0,1-.11.17C34.09,162.35,32.07,163.1,29.61,163.1ZM3.72,137.92c-1.43,2.21,1.92,9.08,10.76,15.46l.48.34c8.69,6.06,16,7,17.57,5L68.42,94.34A80.16,80.16,0,0,1,79.83,78.67l41.46-44.44c-5.2.62-11.43-1.14-17-5.14l-.17-.13C98.64,25,95,19.66,94,14.52L64.84,67.85A80,80,0,0,1,53.56,83.6Z"/><path class="f8a37c36-d470-4945-aea1-5a15a347ec67" d="M104.88,6.14c-3.69,1.36-4.33,5.21-3.54,8.73a14.08,14.08,0,0,0,7.12,9.21c1.26.69,2.39-1.24,1.13-1.93a12.28,12.28,0,0,1-4.88-4.68c-1.34-2.35-2.91-7.82.76-9.18,1.34-.49.76-2.65-.59-2.15Z"/><path class="f8a37c36-d470-4945-aea1-5a15a347ec67" d="M9.81,140.11a24.82,24.82,0,0,0,17,12.82c1.4.29,2-1.86.59-2.16A22.65,22.65,0,0,1,11.74,139c-.67-1.27-2.6-.14-1.93,1.13Z"/><path class="b472292c-11ed-47d8-8d5d-10be9d7c8661" d="M93.62,22.29a15.82,15.82,0,0,0,5.67,6.49c.81.53,1.56-.76.76-1.28a14.5,14.5,0,0,1-5.15-6c-.41-.87-1.69-.11-1.28.75Z"/><path class="b472292c-11ed-47d8-8d5d-10be9d7c8661" d="M93.39,21.14,91,26.07c-.42.86.86,1.62,1.28.76l2.42-4.94c.42-.86-.86-1.61-1.28-.75Z"/><path class="b472292c-11ed-47d8-8d5d-10be9d7c8661" d="M121.81,17.68a12.94,12.94,0,0,1,1.69,6.91.75.75,0,0,0,1.49,0,14.59,14.59,0,0,0-1.89-7.67c-.47-.83-1.76-.08-1.29.76Z"/></g></g></svg>