<svg xmlns="http://www.w3.org/2000/svg" viewBox="0 0 131.95 163.1"><defs><style>.afef34d7-1c7a-478e-9128-94a2ab578961{fill:#47ab59;}.b7453d08-7c28-4c60-8acb-ce2d5dd4541c{fill:#40220f;}.ef501df7-5f8e-4e9e-957a-9e2fe8f5f945{fill:#89c571;}.a64fb0f3-88ac-409a-943d-59ad0140e704{fill:#467936;}.a0f9eaa2-45f1-4284-bc3a-bfa6f73b5144{fill:#39591d;}.ad36f798-b70f-4360-84f9-d06f2a9817ce{fill:#fff;}</style></defs><title>綠</title><g id="a8ae0991-8a35-4e13-8b91-f2d10f2df9fc" data-name="圖層 2"><g id="adda5fa0-0465-4317-98a2-80b712c8880b" data-name="圖層 1"><path class="afef34d7-1c7a-478e-9128-94a2ab578961" d="M120.63,6.39C111.92.1,101.41-.24,97.16,5.65a8.57,8.57,0,0,0-.88,1.52c-2.73,5.95,1,14.74,9,20.52l0,0c8,5.75,17.47,6.49,22.26,2a9.12,9.12,0,0,0,1.17-1.31C133,22.55,129.34,12.69,120.63,6.39Z"/><path class="b7453d08-7c28-4c60-8acb-ce2d5dd4541c" d="M119.21,34.14a26,26,0,0,1-14.78-5.22C95.81,22.7,91.84,13.31,94.94,6.56a10.3,10.3,0,0,1,1-1.78c4.72-6.53,16.17-6.35,25.53.41h0c9.36,6.76,13.14,17.58,8.43,24.11a10.8,10.8,0,0,1-1.36,1.53A13.47,13.47,0,0,1,119.21,34.14ZM106.64,2.9c-3.52,0-6.53,1.19-8.28,3.61a7.94,7.94,0,0,0-.74,1.28c-2.47,5.38,1.18,13.42,8.49,18.7s16.11,6.21,20.43,2.18a7.16,7.16,0,0,0,1-1.1c3.76-5.21.29-14.17-7.76-20A23.13,23.13,0,0,0,106.64,2.9Z"/><path class="ef501df7-5f8e-4e9e-957a-9e2fe8f5f945" d="M105.25,27.69c-8-5.78-11.7-14.57-9-20.52l-.15-.1L63.36,67a78.46,78.46,0,0,1-11,15.42L2.4,136.87c-2.59,3.58,2.37,11.59,11.09,17.88l.63.45L105.29,27.72Z"/><path class="a64fb0f3-88ac-409a-943d-59ad0140e704" d="M105.29,27.72,14.12,155.2c8.52,6,17.31,8,19.83,4.46l36-64.5A78.56,78.56,0,0,1,81.07,79.83l46.62-50-.14-.11C122.76,34.21,113.28,33.47,105.29,27.72Z"/><path class="b7453d08-7c28-4c60-8acb-ce2d5dd4541c" d="M29.61,163.1c-4.71,0-11-2.71-16.45-6.51l-.66-.46C4.18,150.12-2.66,141,1,135.87l.13-.15,49.92-54.4a77.18,77.18,0,0,0,10.8-15.09l32.78-60a1.69,1.69,0,0,1,2.48-.56l.15.11a1.69,1.69,0,0,1,.54,2.07C95.39,13.17,99,21.1,106.24,26.32s15.91,6.16,20.15,2.2a1.71,1.71,0,0,1,2.15-.14l.14.1a1.75,1.75,0,0,1,.7,1.21,1.71,1.71,0,0,1-.45,1.32L82.31,81A76.8,76.8,0,0,0,71.38,96l-35.95,64.5a1.63,1.63,0,0,1-.11.17C34.09,162.36,32.07,163.1,29.61,163.1ZM3.72,137.92c-1.43,2.22,1.92,9.08,10.76,15.46l.48.34c8.69,6.06,16,7,17.57,5L68.42,94.34A80.39,80.39,0,0,1,79.83,78.68l41.46-44.45c-5.18.63-11.43-1.13-17-5.14S95,19.66,94,14.52L64.84,67.85A80.31,80.31,0,0,1,53.56,83.61Z"/><path class="a0f9eaa2-45f1-4284-bc3a-bfa6f73b5144" d="M104.88,6.14c-3.69,1.36-4.33,5.21-3.54,8.73a14.08,14.08,0,0,0,7.12,9.21c1.26.7,2.39-1.23,1.13-1.93a12.21,12.21,0,0,1-4.88-4.68c-1.34-2.35-2.91-7.82.76-9.17,1.34-.5.76-2.66-.59-2.16Z"/><path class="a0f9eaa2-45f1-4284-bc3a-bfa6f73b5144" d="M9.81,140.11a24.82,24.82,0,0,0,17,12.82c1.4.29,2-1.86.59-2.15A22.69,22.69,0,0,1,11.74,139c-.67-1.27-2.6-.14-1.93,1.13Z"/><path class="ad36f798-b70f-4360-84f9-d06f2a9817ce" d="M93.62,22.29a15.82,15.82,0,0,0,5.67,6.49c.81.53,1.56-.76.76-1.28a14.5,14.5,0,0,1-5.15-6c-.41-.87-1.69-.11-1.28.75Z"/><path class="ad36f798-b70f-4360-84f9-d06f2a9817ce" d="M93.39,21.14,91,26.08c-.42.85.86,1.61,1.28.75l2.42-4.94c.42-.86-.86-1.61-1.28-.75Z"/><path class="ad36f798-b70f-4360-84f9-d06f2a9817ce" d="M121.81,17.68a13,13,0,0,1,1.69,6.91.75.75,0,0,0,1.49,0,14.55,14.55,0,0,0-1.89-7.66.75.75,0,0,0-1.29.75Z"/></g></g></svg>