<svg xmlns="http://www.w3.org/2000/svg" viewBox="0 0 327.38 123.94"><defs><style>.eac71936-c532-46a5-8ce2-0f498bfb0902{fill:#f6bfbe;}.a24ac24c-4524-4575-b5f4-624b862e5e76{fill:#40220f;}.abd31296-2344-451c-a8d1-3d85242807ff{fill:#dbb6b3;}</style></defs><title>手</title><g id="a4203083-ec6d-48e8-a75e-0a9ba64c5554" data-name="圖層 2"><g id="a16269dd-9667-40d4-9e56-442730fa689c" data-name="圖層 1"><path class="eac71936-c532-46a5-8ce2-0f498bfb0902" d="M183.58,47.85,280,8.33c14.36-5.89,31-.06,38.11,13.36h0A28.2,28.2,0,0,1,307,59.35l-89.62,52.29c-18.46,10.77-42.51,4.16-52.33-14.39h0C155.19,78.7,163.73,56,183.58,47.85Z"/><path class="a24ac24c-4524-4575-b5f4-624b862e5e76" d="M198.09,122.87a44.57,44.57,0,0,1-12.17-1.69,42.64,42.64,0,0,1-26.28-21.09A40.49,40.49,0,0,1,157.31,67a42.58,42.58,0,0,1,24-24.75h0L277.66,2.71c17.15-7,37.26.06,45.77,16.15A34.33,34.33,0,0,1,310,64.59L220.4,116.88A44.29,44.29,0,0,1,198.09,122.87Zm-12.2-69.41a30.46,30.46,0,0,0-17.17,17.66,28.48,28.48,0,0,0,1.65,23.29,30.55,30.55,0,0,0,18.87,15.1,32.33,32.33,0,0,0,25-3.11l89.62-52.29a22.23,22.23,0,0,0,8.79-29.58c-5.62-10.63-19-15.29-30.44-10.59L185.88,53.46Z"/><path class="abd31296-2344-451c-a8d1-3d85242807ff" d="M168.93,92.13s19.8,12.17,47.07-2.48,86.64-48.19,86.64-48.19,12.05-6,6.39-22.1c0,0,15.55,15.69-1.72,32.78L215.23,106S187.19,123.93,168.93,92.13Z"/><path class="eac71936-c532-46a5-8ce2-0f498bfb0902" d="M139,49,45.89,9.5A28.72,28.72,0,0,0,9.08,22.86h0A28.72,28.72,0,0,0,19.81,60.52l86.54,52.29A35.92,35.92,0,0,0,156.9,98.42h0A35.91,35.91,0,0,0,139,49Z"/><path class="a24ac24c-4524-4575-b5f4-624b862e5e76" d="M125,123.94a42,42,0,0,1-21.69-6L16.72,65.62A34.68,34.68,0,0,1,48.22,4l93.07,39.52a41.87,41.87,0,0,1-4.9,78.81A41.56,41.56,0,0,1,125,123.94ZM34.73,13.19A22.75,22.75,0,0,0,22.89,55.42l86.55,52.29a29.95,29.95,0,1,0,27.19-53.2L43.55,15A22.47,22.47,0,0,0,34.73,13.19Z"/><path class="abd31296-2344-451c-a8d1-3d85242807ff" d="M153,93.62s-19.12,12.17-45.46-2.49S23.83,42.94,23.83,42.94,12.18,37,17.65,20.85c0,0-15,15.69,1.66,32.77l88.93,53.86S135.32,125.41,153,93.62Z"/></g></g></svg>