<svg xmlns="http://www.w3.org/2000/svg" viewBox="0 0 543.68 715.41"><defs><style>.a9a8db8a-732f-4108-83cc-1069a590f9d3{fill:#f6bfbe;}.a44b72cc-b0fd-46eb-a045-597cbbf1804c{fill:#40220f;}.be590c68-7389-4119-8ad9-440db4e80299{fill:#fff;}.b15df033-17a9-4ba3-973f-180aa5689664{fill:#f9d3d3;}.abe7ddd6-8e8c-4f0b-813f-1ed3db93947b{fill:#e097aa;}.ae058e56-e3ff-439e-9ba9-5b68e7404458{fill:#f2a4b7;}.ecee8b83-6f8b-4c1d-ac2d-0e45ee4ab4fb{fill:#604c3f;}.af4edb97-87a6-459d-8079-fbc61b692b1b{fill:#f198a4;}.b60015c8-86d7-4d0e-bbc0-d1ab7490b0a1{fill:#ebc3c0;}.a930a75b-883b-4551-9ead-0a374d49a3aa{fill:#e28f9a;}.bf437751-aab9-4322-8824-fc5731049edb{fill:#f7ba85;}</style></defs><title>兔子</title><g id="acea45e1-ea0a-4dc1-b3ae-ca2737a9e03d" data-name="圖層 2"><g id="bd671662-fc84-44f2-9e60-4d1a8fdd4601" data-name="圖層 1"><rect class="a9a8db8a-732f-4108-83cc-1069a590f9d3" x="109.66" y="543.49" width="98.25" height="167.63" rx="12.92"/><path class="a44b72cc-b0fd-46eb-a045-597cbbf1804c" d="M182,715.41H135.62c-17.78,0-32.24-9.87-32.24-22V561.2c0-12.12,14.46-22,32.24-22H182c17.77,0,32.23,9.87,32.23,22V693.42C214.2,705.54,199.74,715.41,182,715.41ZM135.62,547.78c-10.85,0-19.67,6-19.67,13.42V693.42c0,7.4,8.82,13.42,19.67,13.42H182c10.84,0,19.67-6,19.67-13.42V561.2c0-7.4-8.83-13.42-19.67-13.42Z"/><rect class="a9a8db8a-732f-4108-83cc-1069a590f9d3" x="308.29" y="547.27" width="98.25" height="163.95" rx="12.78"/><path class="a44b72cc-b0fd-46eb-a045-597cbbf1804c" d="M380.6,715.41H334.25c-17.78,0-32.24-9.65-32.24-21.51V564.59c0-11.86,14.46-21.51,32.24-21.51H380.6c17.77,0,32.23,9.65,32.23,21.51V693.9C412.83,705.76,398.37,715.41,380.6,715.41ZM334.25,551.47c-10.85,0-19.67,5.88-19.67,13.12V693.9c0,7.24,8.82,13.13,19.67,13.13H380.6c10.84,0,19.67-5.89,19.67-13.13V564.59c0-7.24-8.83-13.12-19.67-13.12Z"/><circle class="a9a8db8a-732f-4108-83cc-1069a590f9d3" cx="258.17" cy="549.38" r="151.67"/><path class="a44b72cc-b0fd-46eb-a045-597cbbf1804c" d="M258.17,707c-86.92,0-157.63-70.72-157.63-157.63s70.71-157.63,157.63-157.63S415.8,462.46,415.8,549.38,345.09,707,258.17,707Zm0-303.33c-80.34,0-145.71,65.36-145.71,145.7s65.37,145.7,145.71,145.7,145.7-65.36,145.7-145.7S338.51,403.68,258.17,403.68Z"/><circle class="be590c68-7389-4119-8ad9-440db4e80299" cx="258.17" cy="526.63" r="100.95"/><ellipse class="b15df033-17a9-4ba3-973f-180aa5689664" cx="304.3" cy="152.57" rx="46.13" ry="146.61"/><path class="a44b72cc-b0fd-46eb-a045-597cbbf1804c" d="M304.3,305.15c-33.83,0-52.09-78.61-52.09-152.58S270.47,0,304.3,0s52.09,78.61,52.09,152.57S338.14,305.15,304.3,305.15Zm0-293.23c-9.22,0-19.29,14.5-26.93,38.77-8.54,27.13-13.24,63.31-13.24,101.88s4.7,74.76,13.24,101.88c7.64,24.28,17.71,38.77,26.93,38.77s19.3-14.49,26.93-38.77c8.54-27.12,13.24-63.31,13.24-101.88s-4.7-74.75-13.24-101.88C323.6,26.42,313.53,11.92,304.3,11.92Z"/><ellipse class="b15df033-17a9-4ba3-973f-180aa5689664" cx="212.04" cy="152.57" rx="46.13" ry="146.61"/><path class="a44b72cc-b0fd-46eb-a045-597cbbf1804c" d="M212,305.15c-33.84,0-52.1-78.61-52.1-152.58S178.2,0,212,0s52.09,78.61,52.09,152.57S245.87,305.15,212,305.15Zm0-293.23c-9.23,0-19.3,14.5-26.93,38.77-8.54,27.13-13.24,63.31-13.24,101.88s4.7,74.76,13.24,101.88c7.63,24.28,17.7,38.77,26.93,38.77s19.29-14.49,26.93-38.77c8.54-27.12,13.24-63.31,13.24-101.88S247.51,77.82,239,50.69C231.33,26.42,221.26,11.92,212,11.92Z"/><ellipse class="abe7ddd6-8e8c-4f0b-813f-1ed3db93947b" cx="304.3" cy="186.03" rx="27.49" ry="87.38"/><ellipse class="abe7ddd6-8e8c-4f0b-813f-1ed3db93947b" cx="212.22" cy="186.03" rx="27.49" ry="87.38"/><ellipse class="ae058e56-e3ff-439e-9ba9-5b68e7404458" cx="216.28" cy="194.04" rx="24.63" ry="84.59"/><ellipse class="ae058e56-e3ff-439e-9ba9-5b68e7404458" cx="307.17" cy="194.04" rx="24.63" ry="84.59"/><ellipse class="b15df033-17a9-4ba3-973f-180aa5689664" cx="258.17" cy="355.87" rx="202.85" ry="169.84"/><path class="a44b72cc-b0fd-46eb-a045-597cbbf1804c" d="M258.17,531.68C143,531.68,49.35,452.81,49.35,355.87S143,180.06,258.17,180.06,467,258.93,467,355.87,373.31,531.68,258.17,531.68Zm0-339.69C149.6,192,61.28,265.5,61.28,355.87S149.6,519.75,258.17,519.75s196.89-73.52,196.89-163.88S366.74,192,258.17,192Z"/><path class="ecee8b83-6f8b-4c1d-ac2d-0e45ee4ab4fb" d="M261.38,371.85l23.29-34a3.89,3.89,0,0,0-3.21-6.09H234.88a3.89,3.89,0,0,0-3.21,6.09l23.29,34A3.89,3.89,0,0,0,261.38,371.85Z"/><path class="af4edb97-87a6-459d-8079-fbc61b692b1b" d="M177.92,404.09a89.09,89.09,0,0,0-118-84.29,143.63,143.63,0,0,0-4.6,36.07c0,51.65,27.53,97.9,71,129.05A89.11,89.11,0,0,0,177.92,404.09Z"/><path class="af4edb97-87a6-459d-8079-fbc61b692b1b" d="M461,355.87a143.63,143.63,0,0,0-4.6-36.07A89.1,89.1,0,0,0,390,484.92C433.49,453.77,461,407.52,461,355.87Z"/><path class="a44b72cc-b0fd-46eb-a045-597cbbf1804c" d="M258.17,530.45c-114.47,0-207.59-78.31-207.59-174.58S143.7,181.28,258.17,181.28,465.76,259.6,465.76,355.87,372.64,530.45,258.17,530.45Zm0-339.69c-109.24,0-198.11,74.07-198.11,165.11S148.93,521,258.17,521s198.11-74.06,198.11-165.1S367.41,190.76,258.17,190.76Z"/><path class="a44b72cc-b0fd-46eb-a045-597cbbf1804c" d="M366.52,329.05a4.63,4.63,0,0,1-1.54-.27c-19.58-7.19-51.52-2.61-51.84-2.56a4.48,4.48,0,0,1-4.71-6.3c14.92-32.35,52.62-30.17,54.22-30.07a4.47,4.47,0,1,1-.6,8.92c-1.27-.07-27.07-1.44-41.21,17.63,11.65-.95,32.18-1.53,47.22,4a4.47,4.47,0,0,1-1.54,8.67Z"/><path class="a44b72cc-b0fd-46eb-a045-597cbbf1804c" d="M362.52,449.24a4.5,4.5,0,0,1-2.1-.52c-34.1-18.18-21.12-65.74-21-66.22a4.47,4.47,0,0,1,8.61,2.43c-.15.52-11.1,41.13,16.58,55.9a4.47,4.47,0,0,1-2.1,8.41Z"/><path class="a44b72cc-b0fd-46eb-a045-597cbbf1804c" d="M157.22,449.24a4.47,4.47,0,0,1-2.11-8.41c27.72-14.79,16.7-55.49,16.59-55.9a4.47,4.47,0,0,1,8.61-2.43c.13.48,13.1,48-21,66.22A4.53,4.53,0,0,1,157.22,449.24Z"/><path class="b60015c8-86d7-4d0e-bbc0-d1ab7490b0a1" d="M66.16,317.91s12.4-66.1,99.5-107.23c0,0,58.62-31.91,146.83-12.9,0,0-173.71-18.15-221.42,117.24A104.94,104.94,0,0,0,66.16,317.91Z"/><path class="a930a75b-883b-4551-9ead-0a374d49a3aa" d="M131.61,482.23S87.5,456.56,68.87,405s-3.63-86.79-3.63-86.79,30.79-9.47,60.16,4.66c0,0-15.58,1.18-29.24,2.83a22.21,22.21,0,0,0-19.47,22.69C77.49,379.75,85.31,442.55,131.61,482.23Z"/><path class="a930a75b-883b-4551-9ead-0a374d49a3aa" d="M384.27,482.23S428.38,456.56,447,405s3.64-86.79,3.64-86.79-30.79-9.47-60.16,4.66c0,0,15.58,1.18,29.23,2.83a22.21,22.21,0,0,1,19.48,22.69C438.4,379.75,430.58,442.55,384.27,482.23Z"/><path class="a44b72cc-b0fd-46eb-a045-597cbbf1804c" d="M296.62,303.86a5.07,5.07,0,0,1-.55,0,4.48,4.48,0,0,1-3.9-5c.12-1,3.21-24.12,27.46-45.33a4.47,4.47,0,0,1,5.89,6.73c-21.7,19-24.44,39.48-24.47,39.69A4.47,4.47,0,0,1,296.62,303.86Z"/><path class="a44b72cc-b0fd-46eb-a045-597cbbf1804c" d="M149.36,329.05a4.47,4.47,0,0,1-1.54-8.67c15-5.51,35.56-4.92,47.21-4-14.15-19.09-40-17.71-41.21-17.63a4.47,4.47,0,0,1-.59-8.92c1.61-.1,39.29-2.27,54.22,30.07a4.48,4.48,0,0,1-4.71,6.3c-.32-.05-32.3-4.61-51.85,2.56A4.53,4.53,0,0,1,149.36,329.05Z"/><path class="a44b72cc-b0fd-46eb-a045-597cbbf1804c" d="M219.26,303.86a4.46,4.46,0,0,1-4.43-3.91c0-.3-3-20.9-24.48-39.7a4.47,4.47,0,1,1,5.89-6.73c24.25,21.21,27.34,44.35,27.46,45.33a4.47,4.47,0,0,1-3.89,5Z"/><ellipse class="bf437751-aab9-4322-8824-fc5731049edb" cx="259.57" cy="425.68" rx="24.1" ry="28.82"/><path class="a44b72cc-b0fd-46eb-a045-597cbbf1804c" d="M259.57,459C243.82,459,231,444,231,425.68s12.82-33.29,28.57-33.29,28.57,14.93,28.57,33.29S275.32,459,259.57,459Zm0-57.63c-10.82,0-19.63,10.92-19.63,24.35S248.75,450,259.57,450s19.62-10.92,19.62-24.34S270.39,401.33,259.57,401.33Z"/><path class="be590c68-7389-4119-8ad9-440db4e80299" d="M6.12,517a4.15,4.15,0,0,1-4.06-3.33c-9.4-46.86,16.38-87.5,17.48-89.21a4.15,4.15,0,0,1,7,4.5h0c-.25.39-25,39.59-16.33,83.07a4.15,4.15,0,0,1-3.25,4.89A4.56,4.56,0,0,1,6.12,517Z"/><path class="be590c68-7389-4119-8ad9-440db4e80299" d="M41.44,504.24a4.15,4.15,0,0,1-3.82-2.54C28.24,479.43,41,454.05,41.51,453a4.15,4.15,0,0,1,7.39,3.77h0c-.11.23-11.5,23.06-3.64,41.73a4.16,4.16,0,0,1-3.82,5.76Z"/><path class="be590c68-7389-4119-8ad9-440db4e80299" d="M494.9,374.61a4.15,4.15,0,0,1-3.63-6.39c23.55-36.75,5.75-78.5,5.57-78.91a4.15,4.15,0,1,1,7.6-3.34c.82,1.86,19.81,46.16-6.19,86.73A4.15,4.15,0,0,1,494.9,374.61Z"/><path class="be590c68-7389-4119-8ad9-440db4e80299" d="M535,358.4a4.07,4.07,0,0,1-2.27-.59,4.13,4.13,0,0,1-1.43-5.68c9.47-15.82-.37-38.57-.47-38.8a4.15,4.15,0,0,1,7.58-3.36c.48,1.09,11.71,26.88,0,46.42A4.16,4.16,0,0,1,535,358.4Z"/></g></g></svg>