<svg xmlns="http://www.w3.org/2000/svg" viewBox="0 0 131.95 163.09"><defs><style>.bbf9fc0c-a20a-4a47-b090-6d75e30236ff{fill:#e60023;}.bef628a3-a231-4c33-89ca-4c507e9f918c{fill:#40220f;}.af2df42f-9057-4259-806e-8109148c6694{fill:#d92d23;}.b383fed2-d5a1-4f23-92d6-6d46ccb94855{fill:#962316;}.e5b5ecb0-f8fb-4c10-a0d7-d672f4144ac4{fill:#61130f;}.b151e672-87e0-4b2b-be59-1bb777ee9cc7{fill:#fff;}</style></defs><title>紅</title><g id="eaf8f0a8-e03c-43c5-9745-38e968e21b23" data-name="圖層 2"><g id="a9107e9e-7a0f-46bd-91af-1964a54836b3" data-name="圖層 1"><path class="bbf9fc0c-a20a-4a47-b090-6d75e30236ff" d="M120.63,6.39C111.92.1,101.41-.24,97.16,5.64a9,9,0,0,0-.88,1.53c-2.73,5.95,1,14.74,9,20.52l0,0c8,5.75,17.47,6.49,22.26,2a8.7,8.7,0,0,0,1.17-1.32C133,22.55,129.34,12.68,120.63,6.39Z"/><path class="bef628a3-a231-4c33-89ca-4c507e9f918c" d="M119.2,34.14a26,26,0,0,1-14.77-5.22C95.81,22.69,91.84,13.3,94.94,6.55a10.6,10.6,0,0,1,1-1.77c4.72-6.53,16.18-6.34,25.53.41h0c9.35,6.76,13.13,17.58,8.41,24.11a10.15,10.15,0,0,1-1.36,1.53A13.44,13.44,0,0,1,119.2,34.14ZM106.64,2.9c-3.53,0-6.53,1.19-8.28,3.61a7.16,7.16,0,0,0-.74,1.27c-2.47,5.39,1.18,13.43,8.49,18.71s16.11,6.21,20.43,2.18a7.16,7.16,0,0,0,1-1.1c3.76-5.21.29-14.18-7.75-20A23.18,23.18,0,0,0,106.64,2.9Z"/><path class="af2df42f-9057-4259-806e-8109148c6694" d="M105.25,27.69c-8-5.78-11.7-14.57-9-20.52l-.14-.11L63.36,67a78.53,78.53,0,0,1-11,15.43L2.4,136.86c-2.59,3.59,2.37,11.59,11.09,17.89l.64.45L105.29,27.72Z"/><path class="b383fed2-d5a1-4f23-92d6-6d46ccb94855" d="M105.29,27.72,14.13,155.2c8.51,5.94,17.3,8,19.82,4.45l36-64.49A78.56,78.56,0,0,1,81.07,79.83l46.62-50-.14-.1C122.76,34.21,113.28,33.47,105.29,27.72Z"/><path class="bef628a3-a231-4c33-89ca-4c507e9f918c" d="M29.61,163.09c-4.71,0-11-2.7-16.45-6.5l-.66-.47C4.18,150.12-2.66,141,1,135.87l.13-.15L51.07,81.31a76.59,76.59,0,0,0,10.8-15.09l32.78-60a1.68,1.68,0,0,1,1.11-.83,1.64,1.64,0,0,1,1.36.27l.15.1a1.7,1.7,0,0,1,.55,2.08c-2.43,5.3,1.19,13.23,8.42,18.44s15.91,6.16,20.15,2.2a1.69,1.69,0,0,1,2.15-.13l.14.1a1.71,1.71,0,0,1,.7,1.21,1.74,1.74,0,0,1-.45,1.32L82.31,81A76.72,76.72,0,0,0,71.38,96l-35.95,64.5a1.63,1.63,0,0,1-.11.17C34.09,162.35,32.07,163.09,29.61,163.09ZM3.72,137.92c-1.43,2.21,1.92,9.08,10.76,15.46l.62.43c8.54,6,15.85,6.88,17.43,4.92L68.42,94.34A80.68,80.68,0,0,1,79.83,78.67l41.46-44.44c-5.19.62-11.42-1.14-17-5.14S95,19.66,94,14.51L64.84,67.85A80,80,0,0,1,53.56,83.6Z"/><path class="e5b5ecb0-f8fb-4c10-a0d7-d672f4144ac4" d="M104.88,6.14c-3.69,1.36-4.33,5.21-3.54,8.73a14.08,14.08,0,0,0,7.12,9.21c1.26.69,2.39-1.24,1.13-1.93a12.28,12.28,0,0,1-4.88-4.68c-1.34-2.35-2.91-7.82.76-9.18,1.34-.49.76-2.65-.59-2.15Z"/><path class="e5b5ecb0-f8fb-4c10-a0d7-d672f4144ac4" d="M9.81,140.11a24.85,24.85,0,0,0,17,12.82c1.4.29,2-1.87.59-2.16A22.65,22.65,0,0,1,11.74,139c-.67-1.27-2.6-.15-1.93,1.13Z"/><path class="b151e672-87e0-4b2b-be59-1bb777ee9cc7" d="M93.62,22.29a15.82,15.82,0,0,0,5.67,6.49c.81.53,1.56-.76.76-1.29a14.41,14.41,0,0,1-5.15-5.95c-.41-.87-1.69-.11-1.28.75Z"/><path class="b151e672-87e0-4b2b-be59-1bb777ee9cc7" d="M93.39,21.14,91,26.07c-.42.86.86,1.62,1.28.75l2.42-4.93c.42-.86-.86-1.62-1.28-.75Z"/><path class="b151e672-87e0-4b2b-be59-1bb777ee9cc7" d="M121.82,17.67a13,13,0,0,1,1.68,6.91.75.75,0,0,0,1.49,0,14.58,14.58,0,0,0-1.89-7.66.74.74,0,0,0-1.28.75Z"/></g></g></svg>