<svg xmlns="http://www.w3.org/2000/svg" viewBox="0 0 223.35 362.33"><defs><style>.aadb0130-e35f-494d-8c52-28c44cd04459{fill:#686767;}</style></defs><title>黑</title><g id="e02ace81-9491-448d-947f-b911f353667c" data-name="圖層 2"><g id="b14ba9a0-eb43-41f8-acd1-86ad4d364f3b" data-name="圖層 1"><path class="aadb0130-e35f-494d-8c52-28c44cd04459" d="M223.35,353l-59.8-109.31A207.08,207.08,0,0,1,145,197.13L98.85,22.55l-.43.18c3.24,17-11.82,37.2-36,47s-49,5.67-58.5-8.82l-.44.18,88,157.68a207.32,207.32,0,0,1,19,46.4l25.75,94.25C154.53,363.26,184.4,365.16,223.35,353Z"/><path class="aadb0130-e35f-494d-8c52-28c44cd04459" d="M98.42,22.73a23.75,23.75,0,0,0-1.3-4.47C89.94.48,62.78-5.31,36.44,5.32S-5.42,39,1.75,56.75a23.43,23.43,0,0,0,2.17,4.12c9.47,14.49,34.33,18.58,58.5,8.82S101.66,39.73,98.42,22.73Z"/></g></g></svg>