<svg xmlns="http://www.w3.org/2000/svg" viewBox="0 0 746.41 432.03"><defs><style>.ec6a429a-ba67-40c3-a819-fe263dc79a83{fill:#c28947;}.a8474055-5126-4ff9-983d-5726ece10334{fill:#40220f;}.a719f972-b58b-46f7-bdc9-c2058e849fcc{fill:#b07c3f;}.b8420779-ef43-49fa-9d49-a0f1340efabc{fill:#d8aa41;}.be1e864b-067a-44b1-b279-b656f39d8713{fill:#fff;}.b89e3f83-3fc4-411f-8524-d7cb4c4a905c{fill:#c9c8b5;}.b9f2425c-c725-4b98-a132-e85aec23612a{fill:#b3b2a1;}.f9fc0122-a78a-496e-977e-6c6df55b9621{fill:#ab8630;}.b1fb3193-902b-4109-9697-0c955d7b43eb{fill:#a8712c;}.eabf1626-0dcd-4df7-8471-42493991dd6e{fill:#523100;}.b236f586-04ed-4863-8226-21d8c34d8ede{fill:#d7933e;}</style></defs><title>搗麻糬</title><g id="ffcc09e6-b310-4f33-95cd-bba3cc11e512" data-name="圖層 2"><g id="b570987d-063f-4ab1-a252-7f73cdafa48a" data-name="圖層 1"><path class="ec6a429a-ba67-40c3-a819-fe263dc79a83" d="M684.34,347c63.26-96.61,49.58-199.26,49.58-199.26H12.49S-1.19,250.41,62.07,347c16.53,25.26,23.83,50.43,25.6,73.84H658.74C660.51,397.45,667.81,372.28,684.34,347Z"/><path class="a8474055-5126-4ff9-983d-5726ece10334" d="M669.09,432H77.32l-.79-10.33c-1.82-24.15-9.83-47.22-23.81-68.56C-12.06,254.19.84,150.65,1.42,146.29l1.29-9.7h741l1.29,9.7c.58,4.36,13.48,107.9-51.3,206.85h0c-14,21.34-22,44.41-23.81,68.56ZM97.7,409.69h551A167.08,167.08,0,0,1,675,340.91h0c49.26-75.24,50-154.84,48.62-182H22.81c-1.39,27.18-.51,107,48.6,182A167.08,167.08,0,0,1,97.7,409.69Z"/><path class="a719f972-b58b-46f7-bdc9-c2058e849fcc" d="M535.75,288.48c145.62-27,186.27-80.9,186.27-80.9-16.18,102.89-41.28,117.82-61.19,158.68-9.2,18.87-11.24,27.46-12.24,43.36h-140S513.77,343.24,535.75,288.48Z"/><ellipse class="b8420779-ef43-49fa-9d49-a0f1340efabc" cx="373.2" cy="151.32" rx="361.96" ry="140.15"/><path class="a8474055-5126-4ff9-983d-5726ece10334" d="M373.21,302.64c-98,0-190.36-14.85-260-41.8C40.26,232.58.07,193.69.07,151.32S40.26,70.05,113.23,41.8c69.62-26.95,162-41.8,260-41.8s190.35,14.85,260,41.8c73,28.25,113.16,67.15,113.16,109.52s-40.19,81.26-113.16,109.52C563.56,287.79,471.23,302.64,373.21,302.64Zm0-280.3c-95.34,0-184.81,14.31-251.92,40.29C58.45,87,22.41,119.29,22.41,151.32s36,64.35,98.88,88.68c67.11,26,156.58,40.3,251.92,40.3S558,266,625.12,240C688,215.67,724,183.35,724,151.32S688,87,625.12,62.63C558,36.65,468.54,22.34,373.21,22.34Z"/><ellipse class="a8474055-5126-4ff9-983d-5726ece10334" cx="373.2" cy="129.39" rx="283.45" ry="82.3"/><path class="be1e864b-067a-44b1-b279-b656f39d8713" d="M399.32,112.65C282.19,87.89,279,131.91,210.16,136c-46.48,2.78-59,27.49-62.31,43.27C199.64,199,281.31,211.69,373.2,211.69c90,0,170.16-12.18,222.09-31.16C556.89,96.39,511.49,136.36,399.32,112.65Z"/><path class="b89e3f83-3fc4-411f-8524-d7cb4c4a905c" d="M501.73,134.57s8.29,57.53-49.36,67.2c0,0,74.07.42,127.27-23.64C579.64,178.13,564,121.71,501.73,134.57Z"/><path class="b89e3f83-3fc4-411f-8524-d7cb4c4a905c" d="M164.78,164S175.23,143.31,216,143c0,0,12.05,44.86,50.71,55.57C266.68,198.59,191.23,188.52,164.78,164Z"/><path class="b89e3f83-3fc4-411f-8524-d7cb4c4a905c" d="M337.1,198.16A70.85,70.85,0,0,0,380.81,205c5.26-.81,3-8.81-2.21-8a61.14,61.14,0,0,1-37.31-6c-4.76-2.4-9,4.75-4.19,7.17Z"/><path class="b89e3f83-3fc4-411f-8524-d7cb4c4a905c" d="M436.77,134.68,455,138.05c5.22,1,7.46-7,2.2-8L439,126.68c-5.22-1-7.46,7-2.21,8Z"/><path class="b89e3f83-3fc4-411f-8524-d7cb4c4a905c" d="M243.75,152.3a62.51,62.51,0,0,0,25.37-11.59c10-7.74,17.33-15.06,31-13.89,5.32.45,5.29-7.85,0-8.3a37.51,37.51,0,0,0-26.86,8.06c-10.27,8-18.61,14.91-31.68,17.72-5.22,1.12-3,9.12,2.2,8Z"/><path class="b9f2425c-c725-4b98-a132-e85aec23612a" d="M177.64,166.05a108.65,108.65,0,0,0,47.55,20.13c5.22.86,7.47-7.14,2.2-8a103.77,103.77,0,0,1-45.57-19.29c-4.29-3.18-8.43,4-4.18,7.16Z"/><path class="b9f2425c-c725-4b98-a132-e85aec23612a" d="M510,188.88a79.92,79.92,0,0,0,52.8-19.34c4.07-3.46-1.82-9.31-5.87-5.87A71.07,71.07,0,0,1,510,180.58c-5.34,0-5.34,8.26,0,8.3Z"/><path class="f9fc0122-a78a-496e-977e-6c6df55b9621" d="M49.17,133.39C39.93,151.63,50.7,173,63.35,186.74A76.4,76.4,0,0,0,114.25,211c10.65.8,10.6-15.8,0-16.59a58.69,58.69,0,0,1-35.82-16c-8.23-7.81-21-24.66-14.93-36.64,4.81-9.51-9.5-17.92-14.33-8.38Z"/><path class="b1fb3193-902b-4109-9697-0c955d7b43eb" d="M50,254.8c4.3,27.29,20.2,50.13,35.3,72.55,14.16,21,32,42.94,27,69.9-1.94,10.43,14,14.91,16,4.41,5.29-28.45-7.11-50.37-22.38-73.33C89.66,304,70.62,280,66,250.39c-1.66-10.52-17.65-6.06-16,4.41Z"/><path class="eabf1626-0dcd-4df7-8471-42493991dd6e" d="M575,105c10.76,3.67,48.64,18.24,36.71,35-6.2,8.72,8.19,17,14.33,8.38,8.34-11.74,4-27.06-5.53-36.64-10.83-10.88-26.8-17.89-41.1-22.78-10.13-3.46-14.48,12.57-4.41,16Z"/><path class="f9fc0122-a78a-496e-977e-6c6df55b9621" d="M686.53,126.84c5.25,21.2-.66,42.57-20.28,54.2-9.18,5.44-.84,19.79,8.37,14.33,26.09-15.47,35-44.52,27.91-72.94-2.56-10.36-18.57-6-16,4.41Z"/><path class="b236f586-04ed-4863-8226-21d8c34d8ede" d="M627.66,383.54a5.81,5.81,0,0,1-5.76-5.12c-.13-1.16-3-28.57,25-49.14,23.41-17.17,33-76.93,33.1-77.53a5.81,5.81,0,0,1,11.48,1.79c-.42,2.65-10.44,65.11-37.71,85.11-22.65,16.61-20.37,38.18-20.34,38.39a5.81,5.81,0,0,1-5.08,6.46C628.12,383.52,627.89,383.54,627.66,383.54Z"/></g></g></svg>