<svg xmlns="http://www.w3.org/2000/svg" viewBox="0 0 131.93 163.1"><defs><style>.b675d6ca-c141-4b4b-ae26-828d64c43bff{fill:gold;}.b3c480ff-c787-484f-ac28-52151103ab51{fill:#40220f;}.f9c471c8-6af2-4721-baad-b0108a03ddb9{fill:#f9b900;}.b21d0007-c2ca-4bb1-b328-28ae71fea257{fill:#e4a400;}.a710942f-8a70-44d7-94ac-d4584ef0dc58{fill:#9d8200;}.bc01a6df-420a-43da-91f2-c93b5c55eef0{fill:#fff;}</style></defs><title>黃</title><g id="a1a74af8-4340-4002-aa5a-3ec61efe617c" data-name="圖層 2"><g id="b51e3b55-cdfe-4918-ade8-c93a775ae956" data-name="圖層 1"><path class="b675d6ca-c141-4b4b-ae26-828d64c43bff" d="M120.61,6.39C111.9.1,101.39-.24,97.14,5.65a8.57,8.57,0,0,0-.88,1.52c-2.73,5.95,1,14.74,9,20.52l0,0c8,5.75,17.47,6.49,22.26,2a9.12,9.12,0,0,0,1.17-1.31C133,22.55,129.32,12.68,120.61,6.39Z"/><path class="b3c480ff-c787-484f-ac28-52151103ab51" d="M119.18,34.14a26,26,0,0,1-14.77-5.22C95.79,22.7,91.82,13.3,94.92,6.56a10.3,10.3,0,0,1,1-1.78c4.72-6.53,16.18-6.34,25.53.41h0c9.35,6.76,13.13,17.58,8.41,24.11a10.14,10.14,0,0,1-1.35,1.53A13.48,13.48,0,0,1,119.18,34.14ZM106.62,2.9c-3.53,0-6.53,1.19-8.28,3.61a7.16,7.16,0,0,0-.74,1.27c-2.47,5.39,1.18,13.43,8.49,18.71s16.11,6.21,20.43,2.18a7.16,7.16,0,0,0,1-1.1c3.76-5.21.28-14.18-7.75-20A23.18,23.18,0,0,0,106.62,2.9Z"/><path class="f9c471c8-6af2-4721-baad-b0108a03ddb9" d="M105.23,27.69c-8-5.78-11.7-14.57-9-20.52l-.15-.1L63.34,67A78.76,78.76,0,0,1,52.29,82.46L2.38,136.86c-2.59,3.59,2.37,11.6,11.09,17.89l.63.45L105.27,27.72Z"/><path class="b21d0007-c2ca-4bb1-b328-28ae71fea257" d="M105.27,27.72,14.1,155.2c8.52,5.94,17.31,8,19.83,4.45L69.88,95.16A78.56,78.56,0,0,1,81.05,79.83l46.62-50-.14-.11C122.74,34.21,113.26,33.47,105.27,27.72Z"/><path class="b3c480ff-c787-484f-ac28-52151103ab51" d="M29.59,163.1c-4.71,0-11-2.71-16.45-6.51l-.66-.46A39.32,39.32,0,0,1,2.24,145.68c-2.48-4-2.92-7.48-1.24-9.81l.13-.15,49.92-54.4a77,77,0,0,0,10.8-15.1l32.78-60a1.72,1.72,0,0,1,1.12-.84,1.69,1.69,0,0,1,1.36.29l.15.11a1.69,1.69,0,0,1,.54,2.07C95.37,13.17,99,21.1,106.22,26.32s15.91,6.15,20.15,2.2a1.69,1.69,0,0,1,2.15-.14l.14.1a1.71,1.71,0,0,1,.25,2.53L82.29,81A77.33,77.33,0,0,0,71.36,96l-35.95,64.5a.91.91,0,0,1-.11.16C34.07,162.35,32.05,163.1,29.59,163.1ZM3.7,137.92c-.73,1.13-.21,3.35,1.42,6a35.77,35.77,0,0,0,9.34,9.48l.62.43c8.55,6,15.85,6.88,17.43,4.92L68.4,94.34A81,81,0,0,1,79.81,78.67l41.47-44.44c-5.21.62-11.43-1.14-17-5.14S95,19.66,94,14.52L64.82,67.85A80,80,0,0,1,53.54,83.6Z"/><path class="a710942f-8a70-44d7-94ac-d4584ef0dc58" d="M104.86,6.14c-3.69,1.36-4.33,5.21-3.54,8.73a14.08,14.08,0,0,0,7.12,9.21c1.26.69,2.39-1.24,1.13-1.93a12.21,12.21,0,0,1-4.88-4.68c-1.34-2.35-2.91-7.82.76-9.18,1.34-.49.76-2.65-.59-2.15Z"/><path class="a710942f-8a70-44d7-94ac-d4584ef0dc58" d="M9.79,140.11a24.82,24.82,0,0,0,17.05,12.82c1.4.29,2-1.86.59-2.15A22.69,22.69,0,0,1,11.72,139c-.67-1.27-2.6-.14-1.93,1.13Z"/><path class="bc01a6df-420a-43da-91f2-c93b5c55eef0" d="M93.6,22.29a15.82,15.82,0,0,0,5.67,6.49c.81.53,1.56-.76.76-1.28a14.5,14.5,0,0,1-5.15-6c-.41-.87-1.69-.11-1.28.75Z"/><path class="bc01a6df-420a-43da-91f2-c93b5c55eef0" d="M93.37,21.14,91,26.07c-.42.86.86,1.62,1.28.76l2.42-4.94c.42-.86-.86-1.61-1.28-.75Z"/><path class="bc01a6df-420a-43da-91f2-c93b5c55eef0" d="M121.79,17.68a12.94,12.94,0,0,1,1.69,6.91.75.75,0,0,0,1.49,0,14.59,14.59,0,0,0-1.89-7.67c-.47-.83-1.76-.08-1.29.76Z"/></g></g></svg>