<svg xmlns="http://www.w3.org/2000/svg" viewBox="0 0 1400 1050"><defs><style>.be619dde-8223-45b9-a3a6-698fda90ac8d{fill:#8ebb64;}.a6c0ac95-7c90-4e4e-8740-8d91d8808509{fill:none;}.abbb68ff-04c3-4361-9a31-9c2d8099400d{fill:#80b45e;}.e13e3018-bf7a-4f9b-8879-dabfa46cdc94,.e8b5bdfc-107e-4283-9594-1ae146004718{fill:#a5be97;}.e13e3018-bf7a-4f9b-8879-dabfa46cdc94{opacity:0.76;}.a62c9a35-bfc9-4ba5-85fc-b0c8f729075e{fill:#79a45c;}</style></defs><title>背景</title><g id="ac4d71ac-45df-4d19-aea2-b3af257c7e97" data-name="圖層 2"><g id="e73ef8b9-d6f9-4cb7-b89e-05bf57551024" data-name="圖層 1"><rect class="be619dde-8223-45b9-a3a6-698fda90ac8d" width="1400" height="1050"/><rect class="a6c0ac95-7c90-4e4e-8740-8d91d8808509" width="1400" height="1050"/><path class="abbb68ff-04c3-4361-9a31-9c2d8099400d" d="M312.41,63.19H151.07s-21.66,4.5-21.66-15.77S146.4,30,146.4,30l54.77-.17S216,32.56,216,16.35,200.74.14,200.74.14H0V229H200.27s9,1,9-9.51-9.34-11.11-9.34-11.11H59.64s-10.34-.6-10.34-11,11.76-10.13,11.76-10.13H241.71s9.56,1.57,9.56-10.13-9.77-12.61-9.77-12.61h-124c-7.22,0-11.47-4.06-11.47-15.32S118,136.14,118,136.14H283.54c5.51,0,9.34-3.15,9.34-12.61s-11-10.36-11-10.36h-87c-8.92,0-14-.9-14-12.61s14.43-10.35,14.43-10.35H312S322.6,92.91,322.6,79,312.41,63.19,312.41,63.19Z"/><path class="e8b5bdfc-107e-4283-9594-1ae146004718" d="M556.68,241.58H395.34s-21.65,3.61-21.65-12.65,17-14,17-14l54.77-.13S460.3,217,460.3,204,445,191,445,191H0v183.6H444.54s9,.77,9-7.63-9.34-8.91-9.34-8.91H303.91s-10.34-.49-10.34-8.8,11.76-8.13,11.76-8.13H486s9.55,1.27,9.55-8.13-9.77-10.11-9.77-10.11h-124c-7.22,0-11.47-3.26-11.47-12.29s11.89-10.48,11.89-10.48H527.81c5.52,0,9.34-2.53,9.34-10.12s-11-8.31-11-8.31h-87c-8.91,0-14-.72-14-10.11s14.44-8.31,14.44-8.31H556.25s10.62,2.16,10.62-9A12.24,12.24,0,0,0,556.68,241.58Z"/><path class="abbb68ff-04c3-4361-9a31-9c2d8099400d" d="M699.54,652.68H412s-38.59,4.5-38.59-15.77,30.26-17.39,30.26-17.39l97.61-.17s26.49,2.7,26.49-13.51-27.24-16.21-27.24-16.21H0V818.46H499.69s16,1,16-9.51S499,797.85,499,797.85h-250s-18.42-.61-18.42-11,21-10.13,21-10.13h322s17,1.58,17-10.13S573.18,754,573.18,754H352.23c-12.86,0-20.43-4.06-20.43-15.32S353,725.63,353,725.63h295.1c9.84,0,16.65-3.15,16.65-12.61s-19.68-10.35-19.68-10.35H489.94c-15.89,0-25-.9-25-12.61S490.7,679.7,490.7,679.7H698.79s18.91,2.7,18.91-11.26S699.54,652.68,699.54,652.68Z"/><path class="abbb68ff-04c3-4361-9a31-9c2d8099400d" d="M509.19,453.46H221.65s-38.59,4.5-38.59-15.76,30.27-17.4,30.27-17.4l97.61-.17s26.48,2.7,26.48-13.51-27.24-16.21-27.24-16.21H0V619.24H309.33s16,1,16-9.51-16.65-11.1-16.65-11.1h-250s-18.43-.61-18.43-11,21-10.13,21-10.13h322s17,1.58,17-10.13-17.41-12.61-17.41-12.61H161.87c-12.86,0-20.43-4-20.43-15.31s21.19-13.06,21.19-13.06H457.74c9.83,0,16.64-3.16,16.64-12.61s-19.67-10.36-19.67-10.36H299.59c-15.89,0-25-.9-25-12.61s25.73-10.36,25.73-10.36H508.43s18.92,2.7,18.92-11.26S509.19,453.46,509.19,453.46Z"/><path class="abbb68ff-04c3-4361-9a31-9c2d8099400d" d="M623.05,954.63H300.1s-43.35,4.51-43.35-15.76,34-17.39,34-17.39l109.63-.17s29.75,2.7,29.75-13.51-30.6-16.21-30.6-16.21H0V1050H213.09a13.76,13.76,0,0,1-3.08-9.35c0-11.26,23.8-13.06,23.8-13.06H565.26c11,0,18.69-3.15,18.69-12.61s-22.09-10.36-22.09-10.36H387.63c-17.84,0-28-.9-28-12.61s28.89-10.35,28.89-10.35H622.2s21.25,2.7,21.25-11.26S623.05,954.63,623.05,954.63Z"/><path class="e13e3018-bf7a-4f9b-8879-dabfa46cdc94" d="M186.59,1050c-1.73-10.69-10.15-11.43-10.15-11.43H19.17s-11.59-.85-11.59-15.25,13.19-14.09,13.19-14.09H223.33s10.72,2.19,10.72-14.09-11-17.53-11-17.53h-139c-8.09,0-12.85-5.64-12.85-21.29s13.33-18.16,13.33-18.16H270.23c6.19,0,10.47-4.39,10.47-17.54s-12.38-14.4-12.38-14.4H170.73c-10,0-15.71-1.25-15.71-17.53s16.18-14.4,16.18-14.4H302.12S314,878,314,858.63s-11.42-21.92-11.42-21.92H121.69S97.41,843,97.41,814.8s19-24.19,19-24.19l61.41-.23s16.66,3.75,16.66-18.79-17.14-22.54-17.14-22.54H0v301Z"/><path class="a62c9a35-bfc9-4ba5-85fc-b0c8f729075e" d="M1400,0H877.38a16.68,16.68,0,0,1,1,5.87c0,11.26-22.87,13.06-22.87,13.06H536.88c-10.62,0-18,3.15-18,12.61S540.15,41.9,540.15,41.9H707.61c17.16,0,27,.9,27,12.61s-27.78,10.36-27.78,10.36H482.15s-20.42-2.7-20.42,11.26,19.6,15.76,19.6,15.76H791.75s41.66-4.5,41.66,15.76-32.67,17.4-32.67,17.4l-105.38.17s-28.59-2.71-28.59,13.51,29.4,16.21,29.4,16.21H1400Z"/><path class="e8b5bdfc-107e-4283-9594-1ae146004718" d="M1400,890.09H826.09s-9-1-9,9.51,9.34,11.1,9.34,11.1H966.72s10.34.61,10.34,11S965.3,931.8,965.3,931.8H784.64s-9.55-1.58-9.55,10.13,9.77,12.61,9.77,12.61h124c7.22,0,11.47,4.05,11.47,15.31s-11.89,13.06-11.89,13.06H742.82c-5.52,0-9.34,3.16-9.34,12.61s11,10.36,11,10.36h87c8.92,0,14,.9,14,12.61s-14.43,10.36-14.43,10.36H714.38s-10.62-2.7-10.62,11.26a18.91,18.91,0,0,0,2.4,9.89H1400Z"/><path class="abbb68ff-04c3-4361-9a31-9c2d8099400d" d="M1400,766.07H1091.61s-16-1-16,9.51,16.65,11.1,16.65,11.1h250s18.42.61,18.42,11-21,10.13-21,10.13h-322s-17-1.58-17,10.13,17.41,12.61,17.41,12.61h220.95c12.86,0,20.43,4.05,20.43,15.31s-21.19,13.06-21.19,13.06H943.21c-9.84,0-16.65,3.16-16.65,12.61s19.67,10.36,19.67,10.36h155.12c15.89,0,25,.9,25,12.61s-25.72,10.36-25.72,10.36H892.51s-18.92-2.7-18.92,11.26,18.16,15.76,18.16,15.76h287.54s38.59-4.5,38.59,15.76-30.27,17.4-30.27,17.4l-97.61.17s-26.48-2.7-26.48,13.51,27.24,16.21,27.24,16.21H1400Z"/><path class="abbb68ff-04c3-4361-9a31-9c2d8099400d" d="M1400,546.29H985.83s-16-.95-16,9.52,16.65,11.1,16.65,11.1h250s18.42.6,18.42,11-21,10.14-21,10.14H912s-17-1.58-17,10.13,17.4,12.61,17.4,12.61h220.95c12.87,0,20.43,4,20.43,15.31s-21.18,13.06-21.18,13.06H837.43c-9.84,0-16.65,3.15-16.65,12.61s19.68,10.36,19.68,10.36H995.58c15.89,0,25,.9,25,12.61s-25.73,10.36-25.73,10.36H786.73s-18.91-2.71-18.91,11.26S786,712.08,786,712.08h287.53s38.6-4.51,38.6,15.76-30.27,17.4-30.27,17.4l-97.61.16s-26.49-2.7-26.49,13.52S985,775.13,985,775.13h415Z"/><path class="abbb68ff-04c3-4361-9a31-9c2d8099400d" d="M1400,138.47H1178S1168,137.15,1168,151.7s10.47,15.44,10.47,15.44H1335.7s11.59.84,11.59,15.24-13.18,14.09-13.18,14.09H1131.54s-10.71-2.19-10.71,14.09,11,17.54,11,17.54h139c8.09,0,12.85,5.63,12.85,21.29s-13.33,18.16-13.33,18.16H1084.65c-6.19,0-10.48,4.38-10.48,17.53s12.38,14.4,12.38,14.4h97.6c10,0,15.71,1.26,15.71,17.54s-16.19,14.4-16.19,14.4H1052.75s-11.9-3.76-11.9,15.65S1052.28,369,1052.28,369h180.9s24.28-6.26,24.28,21.92-19,24.19-19,24.19l-61.41.23s-16.67-3.76-16.67,18.79,17.14,22.54,17.14,22.54H1400Z"/></g></g></svg>