<svg xmlns="http://www.w3.org/2000/svg" xmlns:xlink="http://www.w3.org/1999/xlink" viewBox="0 0 1263.81 961.61"><defs><style>.a0f7bfa2-f52b-4cbc-942c-898f154a2819,.a1ec8f65-db43-481e-831e-7910884196c9,.a27d9596-7d82-4be2-9d3c-742b639f3410,.a481784d-2df7-45c9-be10-54a954f9040e,.ad923907-d3c5-4517-89bb-c77fbfb322d8,.ae058b68-3c9f-493d-ad92-622388d6c77e,.aff9fc06-a254-46ab-b19b-e722f806b661,.b2e7c4e1-e4eb-4be6-8c89-c1c634b7f0c5,.b33e0bc2-531c-4d06-9c95-e5337b6f8125,.b710230d-9826-4684-8453-884bb764bb6b,.b7644b99-0fea-4d31-b5e9-c48da1971d54,.b8e464fc-4b6d-483c-b660-6144b0c0b753,.ba4d4d56-f78e-4417-9c8c-af4bd963f202,.bd227e86-63fe-436e-9a95-25cd30ac943d,.e0bcd942-dcc3-416d-995b-b749bfcf1432,.e2b4f74b-8a42-434d-a242-bce2f717de87,.e3ff9287-2f0e-4135-a465-1e7ef93cbbe3,.e6da810b-e885-41a3-96d6-7d0ad3bb81ec,.e99206ac-3732-4428-afde-878a3a7f6d99,.ef20e729-e3ae-4e0c-8738-4b415f08f2ca,.f0257aa6-b465-4d9b-93b3-7239a5e50b03,.f1b7baba-4683-43ea-b225-c9e504d118c9,.f6b829cb-49e3-4ea6-821b-02ee5233c23c,.f8ed3b06-385f-4fb6-ad36-a424d0fc9236{fill:none;}.a0f7bfa2-f52b-4cbc-942c-898f154a2819,.a1ec8f65-db43-481e-831e-7910884196c9,.a481784d-2df7-45c9-be10-54a954f9040e,.a76edf8f-06c9-421a-8f2b-4788267fd4fc,.a9b4c558-a6e3-4047-becd-0d0bf4176cbd,.ae058b68-3c9f-493d-ad92-622388d6c77e,.aff9fc06-a254-46ab-b19b-e722f806b661,.b0f929fc-42ae-4f90-bbd7-05999bd8bbd2,.b33e0bc2-531c-4d06-9c95-e5337b6f8125,.b9b4f2e3-0878-4850-a579-0bb325043e4c,.ba4d4d56-f78e-4417-9c8c-af4bd963f202,.bb3acf2b-63e6-42bb-a3b0-6d40c7e30b9f,.e3ff9287-2f0e-4135-a465-1e7ef93cbbe3,.e6da810b-e885-41a3-96d6-7d0ad3bb81ec,.eb9461fb-ae3d-4aea-a64f-60d2fcb7e033,.eecfca8c-c549-487e-a558-2099f73cec8c,.ef20e729-e3ae-4e0c-8738-4b415f08f2ca,.f030e095-c10d-4363-aacb-5ff61b8350e7,.f1b7baba-4683-43ea-b225-c9e504d118c9,.f8ed3b06-385f-4fb6-ad36-a424d0fc9236{stroke:#fff;}.a0f7bfa2-f52b-4cbc-942c-898f154a2819,.ad923907-d3c5-4517-89bb-c77fbfb322d8,.ae058b68-3c9f-493d-ad92-622388d6c77e,.aff9fc06-a254-46ab-b19b-e722f806b661,.b2e7c4e1-e4eb-4be6-8c89-c1c634b7f0c5,.b710230d-9826-4684-8453-884bb764bb6b,.b7644b99-0fea-4d31-b5e9-c48da1971d54,.b8e464fc-4b6d-483c-b660-6144b0c0b753,.ba4d4d56-f78e-4417-9c8c-af4bd963f202,.e2b4f74b-8a42-434d-a242-bce2f717de87,.e3ff9287-2f0e-4135-a465-1e7ef93cbbe3,.e6da810b-e885-41a3-96d6-7d0ad3bb81ec,.f0257aa6-b465-4d9b-93b3-7239a5e50b03,.f1b7baba-4683-43ea-b225-c9e504d118c9{stroke-linecap:round;}.a0f7bfa2-f52b-4cbc-942c-898f154a2819,.ae058b68-3c9f-493d-ad92-622388d6c77e,.aff9fc06-a254-46ab-b19b-e722f806b661,.b710230d-9826-4684-8453-884bb764bb6b,.b7644b99-0fea-4d31-b5e9-c48da1971d54,.ba4d4d56-f78e-4417-9c8c-af4bd963f202,.e2b4f74b-8a42-434d-a242-bce2f717de87,.f0257aa6-b465-4d9b-93b3-7239a5e50b03{stroke-linejoin:round;}.ae058b68-3c9f-493d-ad92-622388d6c77e{stroke-width:3.46px;}.aff9fc06-a254-46ab-b19b-e722f806b661{stroke-width:5.13px;}.f0257aa6-b465-4d9b-93b3-7239a5e50b03{stroke:#3b4f86;stroke-width:56.41px;}.a1ec8f65-db43-481e-831e-7910884196c9,.a27d9596-7d82-4be2-9d3c-742b639f3410,.a481784d-2df7-45c9-be10-54a954f9040e,.a49ecacc-654c-4615-8321-251ca3fb00e9,.a76cfc5b-b99f-42e5-ac0c-92edb610e6e9,.a76edf8f-06c9-421a-8f2b-4788267fd4fc,.a9b4c558-a6e3-4047-becd-0d0bf4176cbd,.aa95f8bd-46e2-4dd3-9edc-5c598e9144ff,.ac7b3dc8-03ce-4a35-891a-90759e6eb090,.ad923907-d3c5-4517-89bb-c77fbfb322d8,.ae9cd1d8-2dd0-403d-ae60-0eefb99bd3eb,.b086d66d-8db5-42e5-9bf5-0d6fddd92d61,.b0f929fc-42ae-4f90-bbd7-05999bd8bbd2,.b2e7c4e1-e4eb-4be6-8c89-c1c634b7f0c5,.b33e0bc2-531c-4d06-9c95-e5337b6f8125,.b82ba4d9-1662-49e6-be3b-0e0946d95204,.b8e464fc-4b6d-483c-b660-6144b0c0b753,.b9b4f2e3-0878-4850-a579-0bb325043e4c,.ba6383c1-1382-4a69-9f1f-150f75b9bff1,.bb3acf2b-63e6-42bb-a3b0-6d40c7e30b9f,.bb8e60a6-fe8f-4b7c-86d8-3f03ad68da51,.bc40e528-8f77-4ecb-9723-01efbaa03b88,.bd227e86-63fe-436e-9a95-25cd30ac943d,.bd79fbbf-aa12-4e10-b4bc-20d208e8efc5,.e0bcd942-dcc3-416d-995b-b749bfcf1432,.e3ff9287-2f0e-4135-a465-1e7ef93cbbe3,.e48a1fc2-51c8-477d-aa0d-fe46f788ba22,.e6da810b-e885-41a3-96d6-7d0ad3bb81ec,.e99206ac-3732-4428-afde-878a3a7f6d99,.eb9461fb-ae3d-4aea-a64f-60d2fcb7e033,.ec7fa7a5-8669-48ac-bedb-fd76c9b291e5,.eecfca8c-c549-487e-a558-2099f73cec8c,.ef20e729-e3ae-4e0c-8738-4b415f08f2ca,.f030e095-c10d-4363-aacb-5ff61b8350e7,.f0c18f17-4454-46c9-8663-033ff6597a39,.f1b7baba-4683-43ea-b225-c9e504d118c9,.f5069531-9703-47c2-9d55-3b95658c6ce1,.f8ed3b06-385f-4fb6-ad36-a424d0fc9236,.fdf50875-b445-4c05-9c4e-33e5780fa4fc{stroke-miterlimit:10;}.a1ec8f65-db43-481e-831e-7910884196c9,.a481784d-2df7-45c9-be10-54a954f9040e{stroke-width:4.03px;}.a481784d-2df7-45c9-be10-54a954f9040e{stroke-dasharray:8.15 8.15;}.e48a1fc2-51c8-477d-aa0d-fe46f788ba22{stroke:#e99411;stroke-width:24.4px;fill:url(#a3bba1f0-8aca-4877-b0e1-09d00397cc94);}.bb3acf2b-63e6-42bb-a3b0-6d40c7e30b9f{fill:#87c247;}.b710230d-9826-4684-8453-884bb764bb6b,.bb3acf2b-63e6-42bb-a3b0-6d40c7e30b9f{stroke-width:6.04px;}.a76edf8f-06c9-421a-8f2b-4788267fd4fc{fill:#5fc4e6;stroke-width:6.2px;}.eb9461fb-ae3d-4aea-a64f-60d2fcb7e033{fill:#e8412b;stroke-width:6.19px;}.b0f929fc-42ae-4f90-bbd7-05999bd8bbd2{fill:#f5a22c;stroke-width:7.94px;}.b086d66d-8db5-42e5-9bf5-0d6fddd92d61{fill:#976925;stroke:#524921;stroke-width:4.09px;}.f030e095-c10d-4363-aacb-5ff61b8350e7{fill:#f1d6b3;stroke-width:2.01px;}.b82ba4d9-1662-49e6-be3b-0e0946d95204,.bd79fbbf-aa12-4e10-b4bc-20d208e8efc5,.bef07d17-9c49-42ce-a38c-97c22594717f{fill:#f5ce2e;}.f4649120-03d4-4a91-8f52-b38448dfc809{fill:#f5d03a;}.b710230d-9826-4684-8453-884bb764bb6b,.b7644b99-0fea-4d31-b5e9-c48da1971d54,.b82ba4d9-1662-49e6-be3b-0e0946d95204,.e2b4f74b-8a42-434d-a242-bce2f717de87{stroke:#ecc941;}.e2b4f74b-8a42-434d-a242-bce2f717de87{stroke-width:4.5px;}.b7644b99-0fea-4d31-b5e9-c48da1971d54{stroke-width:5.66px;}.b33e0bc2-531c-4d06-9c95-e5337b6f8125,.f8ed3b06-385f-4fb6-ad36-a424d0fc9236{stroke-width:8.4px;}.b33e0bc2-531c-4d06-9c95-e5337b6f8125{stroke-dasharray:16.98 16.98;}.a292fee1-924d-45a9-adea-9391a8a77d91{fill:#e99411;}.b82ba4d9-1662-49e6-be3b-0e0946d95204{stroke-width:0.5px;}.ba4d4d56-f78e-4417-9c8c-af4bd963f202,.ef20e729-e3ae-4e0c-8738-4b415f08f2ca{stroke-width:1.51px;}.e7c97500-c81a-45b7-98e9-f076b38c81bd{fill:#3b4f86;}.eecfca8c-c549-487e-a558-2099f73cec8c{fill:#c3591e;stroke-width:4.03px;}.a9b4c558-a6e3-4047-becd-0d0bf4176cbd{fill:#ed6b1a;stroke-width:2.01px;}.a0f7bfa2-f52b-4cbc-942c-898f154a2819{stroke-width:2.52px;}.ae9cd1d8-2dd0-403d-ae60-0eefb99bd3eb,.ba6383c1-1382-4a69-9f1f-150f75b9bff1{fill:#373433;}.a27d9596-7d82-4be2-9d3c-742b639f3410,.a49ecacc-654c-4615-8321-251ca3fb00e9,.a76cfc5b-b99f-42e5-ac0c-92edb610e6e9,.aa95f8bd-46e2-4dd3-9edc-5c598e9144ff,.ac7b3dc8-03ce-4a35-891a-90759e6eb090,.ad923907-d3c5-4517-89bb-c77fbfb322d8,.ae9cd1d8-2dd0-403d-ae60-0eefb99bd3eb,.ba6383c1-1382-4a69-9f1f-150f75b9bff1,.bb8e60a6-fe8f-4b7c-86d8-3f03ad68da51,.bc40e528-8f77-4ecb-9723-01efbaa03b88,.bd227e86-63fe-436e-9a95-25cd30ac943d,.e0bcd942-dcc3-416d-995b-b749bfcf1432,.e99206ac-3732-4428-afde-878a3a7f6d99,.ec7fa7a5-8669-48ac-bedb-fd76c9b291e5,.f0c18f17-4454-46c9-8663-033ff6597a39,.f5069531-9703-47c2-9d55-3b95658c6ce1,.fdf50875-b445-4c05-9c4e-33e5780fa4fc{stroke:#231815;}.ae9cd1d8-2dd0-403d-ae60-0eefb99bd3eb,.e99206ac-3732-4428-afde-878a3a7f6d99,.ec7fa7a5-8669-48ac-bedb-fd76c9b291e5{stroke-width:0.51px;}.a7a1140d-c11f-46c1-a3a3-e3eab963e8df{fill:#716a69;}.ec7fa7a5-8669-48ac-bedb-fd76c9b291e5{fill:#756860;}.e44f0fcc-4f07-451f-bb68-72f42d070176{fill:#bbaea6;}.a49ecacc-654c-4615-8321-251ca3fb00e9,.ac7b3dc8-03ce-4a35-891a-90759e6eb090,.e50af21d-cdca-4f17-8d59-a2370c1e427b{fill:#fff;}.a27d9596-7d82-4be2-9d3c-742b639f3410,.a76cfc5b-b99f-42e5-ac0c-92edb610e6e9,.ac7b3dc8-03ce-4a35-891a-90759e6eb090,.e6da810b-e885-41a3-96d6-7d0ad3bb81ec{stroke-width:0.85px;}.bbb7c12b-7fb7-4d2d-a26f-2122ec3a1532{fill:#aed6e2;}.a76cfc5b-b99f-42e5-ac0c-92edb610e6e9{fill:#f4f4f4;}.f5760eaf-a601-4353-a7a6-61064b45b25a{clip-path:url(#bd467baf-18eb-4628-a78d-2e40574e2034);}.ea60c3c1-39a2-465e-a110-4a1639a4ed86{fill:#c9c9c9;}.bfa9bc26-7ccf-4068-96fb-562a859fd236{clip-path:url(#a064f9e7-965a-45e3-8932-010633ceab43);}.ba6383c1-1382-4a69-9f1f-150f75b9bff1,.e0bcd942-dcc3-416d-995b-b749bfcf1432{stroke-width:0.4px;}.f0c18f17-4454-46c9-8663-033ff6597a39{fill:#7c748b;}.a49ecacc-654c-4615-8321-251ca3fb00e9,.b8e464fc-4b6d-483c-b660-6144b0c0b753,.bb8e60a6-fe8f-4b7c-86d8-3f03ad68da51,.bc40e528-8f77-4ecb-9723-01efbaa03b88,.bd227e86-63fe-436e-9a95-25cd30ac943d,.e3ff9287-2f0e-4135-a465-1e7ef93cbbe3,.f0c18f17-4454-46c9-8663-033ff6597a39{stroke-width:0.29px;}.bb8e60a6-fe8f-4b7c-86d8-3f03ad68da51{fill:#afa8be;}.bc40e528-8f77-4ecb-9723-01efbaa03b88{fill:#667faa;}.b8e464fc-4b6d-483c-b660-6144b0c0b753{stroke:#afafaf;}.fdf50875-b445-4c05-9c4e-33e5780fa4fc{fill:#706961;}.ad923907-d3c5-4517-89bb-c77fbfb322d8,.f1b7baba-4683-43ea-b225-c9e504d118c9,.f5069531-9703-47c2-9d55-3b95658c6ce1,.fdf50875-b445-4c05-9c4e-33e5780fa4fc{stroke-width:0.39px;}.f5069531-9703-47c2-9d55-3b95658c6ce1{fill:#a9a395;}.b2e7c4e1-e4eb-4be6-8c89-c1c634b7f0c5{stroke:#a3a3a3;stroke-width:1.17px;}.aa95f8bd-46e2-4dd3-9edc-5c598e9144ff{fill:#f7ec85;stroke-width:0.6px;}.b9b4f2e3-0878-4850-a579-0bb325043e4c{stroke-width:12.6px;fill:url(#a0e61c7c-66c2-45f0-9b5f-a0842ec2d572);}.bd79fbbf-aa12-4e10-b4bc-20d208e8efc5{stroke:#f1d6b3;stroke-width:13.73px;}</style><radialGradient id="a3bba1f0-8aca-4877-b0e1-09d00397cc94" cx="656.98" cy="1295.13" r="732.49" gradientTransform="translate(-4.22 -577.39) scale(1 0.87)" gradientUnits="userSpaceOnUse"><stop offset="0.45" stop-color="#eba11c"/><stop offset="0.79" stop-color="#f5ce2e"/></radialGradient><clipPath id="bd467baf-18eb-4628-a78d-2e40574e2034"><path class="f6b829cb-49e3-4ea6-821b-02ee5233c23c" d="M796.75,280.51s-15,14.07-58.56-4.73l-8.5-1.49-1.92,12.31,12.48,5.95,33.32-.13c1.65,0,25.37,2.3,25.37,2.3l3.84-10.22.41-8.86Z"/></clipPath><clipPath id="a064f9e7-965a-45e3-8932-010633ceab43"><path class="f6b829cb-49e3-4ea6-821b-02ee5233c23c" d="M662.45,280.51s14.95,14.07,58.56-4.73l8.5-1.49,1.92,12.31L719,292.55l-33.33-.13c-1.64,0-25.37,2.3-25.37,2.3l-3.84-10.22-.41-8.86Z"/></clipPath><radialGradient id="a0e61c7c-66c2-45f0-9b5f-a0842ec2d572" cx="651.17" cy="2133.39" fx="1270.9215689091156" fy="2133.390543121335" r="626.01" gradientTransform="translate(0 -1220.29) scale(1 0.93)" gradientUnits="userSpaceOnUse"><stop offset="0" stop-color="#e18500"/><stop offset="0.12" stop-color="#f49e00"/><stop offset="0.51" stop-color="#f4ae00"/><stop offset="0.9" stop-color="#f39800"/><stop offset="0.99" stop-color="#d77b00"/></radialGradient></defs><title>大背包</title><g id="e2ec9c37-fa08-4174-ac34-782904cdff45" data-name="圖層 2"><g id="b63cde4d-6de3-43c7-aff5-2d7d7900e2b3" data-name="圖層 1"><path class="ae058b68-3c9f-493d-ad92-622388d6c77e" d="M760.49,183.64c-.92-67.75-55.68-122.41-123.18-122.41S515.05,115.89,514.13,183.64Z"/><path class="aff9fc06-a254-46ab-b19b-e722f806b661" d="M820.69,183.64C819.31,83.42,737.8,2.57,637.31,2.57s-182,80.85-183.38,181.07Z"/><path class="f0257aa6-b465-4d9b-93b3-7239a5e50b03" d="M793.57,195c-1.18-90.51-70.8-163.52-156.63-163.52S481.49,104.45,480.31,195Z"/><line class="a1ec8f65-db43-481e-831e-7910884196c9" x1="786.73" y1="199.45" x2="786.48" y2="192.57"/><path class="a481784d-2df7-45c9-be10-54a954f9040e" d="M785.14,178.71a164.36,164.36,0,0,0-17.4-54.4,156.89,156.89,0,0,0-35.33-44.85A147.43,147.43,0,0,0,683.1,50.77,142.91,142.91,0,0,0,571.65,58.9a151.12,151.12,0,0,0-44.87,35.28,160.34,160.34,0,0,0-29.13,49.11,168,168,0,0,0-10.5,56.16H772.88"/><line class="a1ec8f65-db43-481e-831e-7910884196c9" x1="779.85" y1="199.45" x2="786.73" y2="199.45"/><path class="e48a1fc2-51c8-477d-aa0d-fe46f788ba22" d="M1249.4,948.67V389.32c0-143.08-134.15-260.15-298.11-260.15h-641c-164,0-298.11,117.07-298.11,260.15V948.67Z"/><rect class="bb3acf2b-63e6-42bb-a3b0-6d40c7e30b9f" x="438.77" y="200.93" width="164.3" height="191.78" rx="42.77"/><rect class="a76edf8f-06c9-421a-8f2b-4788267fd4fc" x="646.94" y="200.93" width="164.3" height="191.78" rx="42.77"/><rect class="eb9461fb-ae3d-4aea-a64f-60d2fcb7e033" x="855.11" y="200.93" width="164.3" height="191.78" rx="42.77"/><path class="b0f929fc-42ae-4f90-bbd7-05999bd8bbd2" d="M1022.78,321.79H394.9V243.7a42.89,42.89,0,0,0-42.77-42.77H273.37A42.89,42.89,0,0,0,230.6,243.7v78.09h-5.17c-54.73,0-99.51,44.78-99.51,99.5V808.47c0,66.16,54.13,120.29,120.29,120.29h776.57c66.16,0,120.29-54.13,120.29-120.29V442.08C1143.07,375.92,1088.94,321.79,1022.78,321.79Z"/><rect class="b086d66d-8db5-42e5-9bf5-0d6fddd92d61" x="168.17" y="379.46" width="201.16" height="201.16" rx="48.47"/><rect class="f030e095-c10d-4363-aacb-5ff61b8350e7" x="179.99" y="393.28" width="175.52" height="175.52" rx="42.29"/><rect class="bef07d17-9c49-42ce-a38c-97c22594717f" x="357.84" y="416.47" width="4.97" height="6.85" rx="2.48" transform="translate(-79.63 84.36) rotate(-12.03)"/><rect class="f4649120-03d4-4a91-8f52-b38448dfc809" x="188.7" y="562.1" width="4.39" height="6" rx="2.19" transform="translate(-375.4 377.79) rotate(-53.03)"/><path class="e2b4f74b-8a42-434d-a242-bce2f717de87" d="M184.08,557.18c-5.72-6.58-9.29-14.09-9.79-25.71V501.12"/><path class="b7644b99-0fea-4d31-b5e9-c48da1971d54" d="M357.64,411c-7.08-12.31-16.62-18.15-27-21.63"/><rect class="b086d66d-8db5-42e5-9bf5-0d6fddd92d61" x="409.55" y="379.46" width="201.16" height="201.16" rx="48.47"/><rect class="f030e095-c10d-4363-aacb-5ff61b8350e7" x="421.38" y="393.28" width="175.52" height="175.52" rx="42.29"/><rect class="bef07d17-9c49-42ce-a38c-97c22594717f" x="599.22" y="416.47" width="4.97" height="6.85" rx="2.48" transform="translate(-74.32 134.69) rotate(-12.03)"/><rect class="f4649120-03d4-4a91-8f52-b38448dfc809" x="430.09" y="562.1" width="4.39" height="6" rx="2.19" transform="translate(-279.18 570.64) rotate(-53.03)"/><path class="e2b4f74b-8a42-434d-a242-bce2f717de87" d="M425.47,557.18c-5.73-6.58-9.29-14.09-9.8-25.71V501.12"/><path class="b7644b99-0fea-4d31-b5e9-c48da1971d54" d="M599,411c-7.09-12.31-16.63-18.15-27-21.63"/><rect class="b086d66d-8db5-42e5-9bf5-0d6fddd92d61" x="650.93" y="379.46" width="201.16" height="201.16" rx="48.47"/><rect class="f030e095-c10d-4363-aacb-5ff61b8350e7" x="662.76" y="393.28" width="175.52" height="175.52" rx="42.29"/><rect class="bef07d17-9c49-42ce-a38c-97c22594717f" x="840.61" y="416.47" width="4.97" height="6.85" rx="2.48" transform="translate(-69.02 185.02) rotate(-12.03)"/><rect class="f4649120-03d4-4a91-8f52-b38448dfc809" x="671.47" y="562.1" width="4.39" height="6" rx="2.19" transform="translate(-182.96 763.5) rotate(-53.03)"/><path class="e2b4f74b-8a42-434d-a242-bce2f717de87" d="M666.85,557.18c-5.72-6.58-9.29-14.09-9.8-25.71V501.12"/><path class="b7644b99-0fea-4d31-b5e9-c48da1971d54" d="M840.41,411c-7.08-12.31-16.62-18.15-27-21.63"/><rect class="b086d66d-8db5-42e5-9bf5-0d6fddd92d61" x="892.32" y="379.46" width="201.16" height="201.16" rx="48.47"/><rect class="f030e095-c10d-4363-aacb-5ff61b8350e7" x="904.14" y="393.28" width="175.52" height="175.52" rx="42.29"/><rect class="bef07d17-9c49-42ce-a38c-97c22594717f" x="1081.99" y="416.47" width="4.97" height="6.85" rx="2.48" transform="translate(-63.71 235.35) rotate(-12.03)"/><rect class="f4649120-03d4-4a91-8f52-b38448dfc809" x="912.86" y="562.1" width="4.39" height="6" rx="2.19" transform="translate(-86.74 956.36) rotate(-53.03)"/><path class="e2b4f74b-8a42-434d-a242-bce2f717de87" d="M908.23,557.18c-5.72-6.58-9.28-14.09-9.79-25.71V501.12"/><path class="b7644b99-0fea-4d31-b5e9-c48da1971d54" d="M1081.79,411c-7.08-12.31-16.62-18.15-27-21.63"/><rect class="b086d66d-8db5-42e5-9bf5-0d6fddd92d61" x="169.74" y="618.52" width="201.16" height="201.16" rx="48.47"/><rect class="f030e095-c10d-4363-aacb-5ff61b8350e7" x="181.56" y="632.34" width="175.52" height="175.52" rx="42.29"/><rect class="bef07d17-9c49-42ce-a38c-97c22594717f" x="359.41" y="655.52" width="4.97" height="6.85" rx="2.48" transform="translate(-129.44 89.94) rotate(-12.03)"/><rect class="f4649120-03d4-4a91-8f52-b38448dfc809" x="190.28" y="801.15" width="4.39" height="6" rx="2.19" transform="translate(-565.77 474.33) rotate(-53.03)"/><path class="e2b4f74b-8a42-434d-a242-bce2f717de87" d="M185.66,796.24c-5.73-6.59-9.29-14.1-9.8-25.72V740.17"/><path class="b7644b99-0fea-4d31-b5e9-c48da1971d54" d="M359.22,650c-7.09-12.32-16.63-18.15-27-21.64"/><rect class="b086d66d-8db5-42e5-9bf5-0d6fddd92d61" x="411.12" y="618.52" width="201.16" height="201.16" rx="48.47"/><rect class="f030e095-c10d-4363-aacb-5ff61b8350e7" x="422.95" y="632.34" width="175.52" height="175.52" rx="42.29"/><rect class="bef07d17-9c49-42ce-a38c-97c22594717f" x="600.8" y="655.52" width="4.97" height="6.85" rx="2.48" transform="translate(-124.14 140.27) rotate(-12.03)"/><rect class="f4649120-03d4-4a91-8f52-b38448dfc809" x="431.66" y="801.15" width="4.39" height="6" rx="2.19" transform="translate(-469.55 667.19) rotate(-53.03)"/><path class="e2b4f74b-8a42-434d-a242-bce2f717de87" d="M427,796.24c-5.72-6.59-9.29-14.1-9.8-25.72V740.17"/><path class="b7644b99-0fea-4d31-b5e9-c48da1971d54" d="M600.6,650c-7.08-12.32-16.62-18.15-27-21.64"/><rect class="b086d66d-8db5-42e5-9bf5-0d6fddd92d61" x="652.51" y="618.52" width="201.16" height="201.16" rx="48.47"/><rect class="f030e095-c10d-4363-aacb-5ff61b8350e7" x="664.33" y="632.34" width="175.52" height="175.52" rx="42.29"/><rect class="bef07d17-9c49-42ce-a38c-97c22594717f" x="842.18" y="655.52" width="4.97" height="6.85" rx="2.48" transform="translate(-118.83 190.6) rotate(-12.03)"/><rect class="f4649120-03d4-4a91-8f52-b38448dfc809" x="673.05" y="801.15" width="4.39" height="6" rx="2.19" transform="translate(-373.33 860.05) rotate(-53.03)"/><path class="e2b4f74b-8a42-434d-a242-bce2f717de87" d="M668.42,796.24c-5.72-6.59-9.28-14.1-9.79-25.72V740.17"/><path class="b7644b99-0fea-4d31-b5e9-c48da1971d54" d="M842,650c-7.08-12.32-16.62-18.15-27-21.64"/><rect class="b086d66d-8db5-42e5-9bf5-0d6fddd92d61" x="893.89" y="618.52" width="201.16" height="201.16" rx="48.47"/><rect class="f030e095-c10d-4363-aacb-5ff61b8350e7" x="905.72" y="632.34" width="175.52" height="175.52" rx="42.29"/><rect class="bef07d17-9c49-42ce-a38c-97c22594717f" x="1083.56" y="655.52" width="4.97" height="6.85" rx="2.48" transform="translate(-113.52 240.93) rotate(-12.03)"/><rect class="f4649120-03d4-4a91-8f52-b38448dfc809" x="914.43" y="801.15" width="4.39" height="6" rx="2.19" transform="translate(-277.11 1052.91) rotate(-53.03)"/><path class="e2b4f74b-8a42-434d-a242-bce2f717de87" d="M909.81,796.24c-5.72-6.59-9.29-14.1-9.8-25.72V740.17"/><path class="b7644b99-0fea-4d31-b5e9-c48da1971d54" d="M1083.37,650c-7.08-12.32-16.63-18.15-27-21.64"/><line class="f8ed3b06-385f-4fb6-ad36-a424d0fc9236" x1="15.1" y1="948.67" x2="15.1" y2="925.63"/><path class="b33e0bc2-531c-4d06-9c95-e5337b6f8125" d="M15.1,879V421.44c.06-3.24.06-6.49.16-9.74A302.09,302.09,0,0,1,27.33,335a273,273,0,0,1,13.85-36.37,263.66,263.66,0,0,1,19.11-33.89,270.75,270.75,0,0,1,52.13-57.5,305.94,305.94,0,0,1,65.75-41.36,313.53,313.53,0,0,1,73.9-24,249.81,249.81,0,0,1,38.66-4.39c6.49-.19,13-.09,19.47-.11H952.79a363.38,363.38,0,0,1,38.9,1.55l9.65,1.25c1.61.23,3.23.36,4.82.67l4.79.87,4.79.87c1.6.31,3.2.54,4.78,1l9.48,2.22a273.08,273.08,0,0,1,37,12.12l4.52,1.81c1.49.63,3,1.34,4.43,2,2.95,1.36,5.91,2.68,8.84,4.07,5.74,3,11.6,5.85,17.14,9.24a286.4,286.4,0,0,1,107.45,110.12c.83,1.39,1.55,2.84,2.29,4.29l2.2,4.34,2.21,4.34c.76,1.44,1.36,2.95,2,4.42l4,8.88,3.56,9.06c.59,1.51,1.21,3,1.76,4.54l1.55,4.61c1,3.08,2.13,6.13,3.06,9.24,1.73,6.26,3.67,12.46,5,18.82l1.09,4.74.54,2.38c.17.79.29,1.59.44,2.39l1.71,9.59.42,2.39.31,2.42.61,4.83.61,4.83c.09.8.22,1.6.29,2.41l.18,2.43.74,9.71c.15,1.62.18,3.24.22,4.86l.12,4.87c.24,6.49.16,13,.17,19.47V902.34"/><line class="f8ed3b06-385f-4fb6-ad36-a424d0fc9236" x1="1244.46" y1="925.63" x2="1244.46" y2="948.67"/><rect class="a292fee1-924d-45a9-adea-9391a8a77d91" x="24.35" y="787.61" width="1216.08" height="173.74"/><rect class="b82ba4d9-1662-49e6-be3b-0e0946d95204" x="382.45" y="245.96" width="4.97" height="6.85" rx="2.48" transform="translate(-14.8 24.49) rotate(-3.58)"/><path class="b710230d-9826-4684-8453-884bb764bb6b" d="M381.4,238.07a40.22,40.22,0,0,0-25.58-23.33"/><path class="ba4d4d56-f78e-4417-9c8c-af4bd963f202" d="M380.39,238.74a40.23,40.23,0,0,0-25.58-23.34"/><path class="ef20e729-e3ae-4e0c-8738-4b415f08f2ca" d="M383.74,251.37a6.28,6.28,0,0,0-.28-3.14"/><rect class="b82ba4d9-1662-49e6-be3b-0e0946d95204" x="588.9" y="243.71" width="4.97" height="6.85" rx="2.48" transform="translate(-14.26 37.36) rotate(-3.58)"/><path class="b710230d-9826-4684-8453-884bb764bb6b" d="M587.85,235.82a40.23,40.23,0,0,0-25.58-23.34"/><path class="ba4d4d56-f78e-4417-9c8c-af4bd963f202" d="M586.83,236.48a40.22,40.22,0,0,0-25.58-23.33"/><path class="ef20e729-e3ae-4e0c-8738-4b415f08f2ca" d="M590.19,249.12a6.22,6.22,0,0,0-.29-3.14"/><rect class="b82ba4d9-1662-49e6-be3b-0e0946d95204" x="798.04" y="244.37" width="4.97" height="6.85" rx="2.48" transform="translate(-13.9 50.41) rotate(-3.58)"/><path class="b710230d-9826-4684-8453-884bb764bb6b" d="M797,236.48a40.24,40.24,0,0,0-25.58-23.33"/><path class="ba4d4d56-f78e-4417-9c8c-af4bd963f202" d="M796,237.15a40.19,40.19,0,0,0-25.58-23.33"/><path class="ef20e729-e3ae-4e0c-8738-4b415f08f2ca" d="M799.34,249.79a6.39,6.39,0,0,0-.29-3.15"/><rect class="b82ba4d9-1662-49e6-be3b-0e0946d95204" x="1007.59" y="243.71" width="4.97" height="6.85" rx="2.48" transform="translate(-13.45 63.48) rotate(-3.58)"/><path class="b710230d-9826-4684-8453-884bb764bb6b" d="M1006.54,235.82A40.23,40.23,0,0,0,981,212.48"/><path class="ba4d4d56-f78e-4417-9c8c-af4bd963f202" d="M1005.53,236.48A40.22,40.22,0,0,0,980,213.15"/><path class="ef20e729-e3ae-4e0c-8738-4b415f08f2ca" d="M1008.88,249.12a6.28,6.28,0,0,0-.28-3.14"/><rect class="e7c97500-c81a-45b7-98e9-f076b38c81bd" x="1176.5" y="392.68" width="34.25" height="350.52" rx="16.08"/><rect class="eecfca8c-c549-487e-a558-2099f73cec8c" x="1172.42" y="390.66" width="43.91" height="94.18" rx="21.95"/><rect class="a9b4c558-a6e3-4047-becd-0d0bf4176cbd" x="1179.91" y="389.46" width="44.84" height="96.19" rx="22.42"/><line class="a0f7bfa2-f52b-4cbc-942c-898f154a2819" x1="1187.58" y1="410.81" x2="1216.79" y2="410.81"/><line class="a0f7bfa2-f52b-4cbc-942c-898f154a2819" x1="1187.58" y1="419.74" x2="1216.79" y2="419.74"/><line class="a0f7bfa2-f52b-4cbc-942c-898f154a2819" x1="1187.58" y1="428.67" x2="1216.79" y2="428.67"/><path class="ae9cd1d8-2dd0-403d-ae60-0eefb99bd3eb" d="M557.88,484.23c1.13-.05-.17,8.13,3.55,8.43a.78.78,0,0,1,.71.74c1,13.84,2.78,24.24,2.78,24.24,26.92-42.36-5.56-66.59-5.56-66.59l4.95-1.31c-4.15-7.72-15.5-9.31-15.5-9.31s10.89-8.16,6.45-6.29c-1.91.81-14.77,2.84-14.77,2.84-27.69-18.1-42.87-2.11-42.87-2.11l.49-7.53c-17.65,4-21.92,13.18-21.92,13.18-14.7,1.76-11.68,5.19-20.84,13.25-8,7-12.06,7.76-12.06,7.76l7.15,3.05c-9.75,7.16-7.22,28-7.22,28l6.09-6.92-.23,12.52,2.42-2.87c-.92,5.88,2.38,18.41,2.38,18.41L457,508c2.62,11.3,11.82,19.45,11.82,19.45-2.67-8.81,0-20.28,0-20.28,14.53-11.78,11-34.44,11-34.44,13.13,11,19.5,5.74,19.5,5.74-5.48-.73-9.94-8.26-9.94-8.26,19,10.51,25.85,3.06,25.85,3.06s11.75,4.44,18.67,2.61h0S545.67,484.74,557.88,484.23Z"/><circle class="a7a1140d-c11f-46c1-a3a3-e3eab963e8df" cx="475.09" cy="454.71" r="3.27"/><circle class="a7a1140d-c11f-46c1-a3a3-e3eab963e8df" cx="481.65" cy="452.74" r="1.86"/><circle class="a7a1140d-c11f-46c1-a3a3-e3eab963e8df" cx="486.98" cy="450.25" r="1.86"/><circle class="a7a1140d-c11f-46c1-a3a3-e3eab963e8df" cx="542.18" cy="453.12" r="1.6"/><circle class="a7a1140d-c11f-46c1-a3a3-e3eab963e8df" cx="546.06" cy="455.67" r="1.6"/><path class="e99206ac-3732-4428-afde-878a3a7f6d99" d="M541.09,466.48c1-.27,15,5.76,20.56,15.55,0,0-9,7.08-27.2-6.29"/><path class="e99206ac-3732-4428-afde-878a3a7f6d99" d="M517.23,460.38s17.53,6.32,19.29,14.32c0,0-7.6,7.29-37.42-9.54"/><path class="ec7fa7a5-8669-48ac-bedb-fd76c9b291e5" d="M298.26,440.23s-35.47-31.19-78.81,6.82c0,0,.92,2.44,5.59,2.28,0,0-22.86,11.12-19.94,37.44,0,0,2.76-8.37,7.72-10.56,0,0-9.8,29.6,10.58,50.05l.34.34s-5-25.21,4-31.06c0,0,1.32,8.41,9.11,11.09,0,0-8.9-14.26.6-19.86,0,0,6.34,18.19,23.8,17.23,0,0-12.2-32.28,3.53-33.07,0,0,2.14.2,3.81,5.62a.41.41,0,0,0,.8-.05c.55-3.65,2.9-9.57,8.63-9.57,9.57,0,9,19.11,2.38,24.22,0,0,6.91.49,12.82-11.94,0,0,10.85,12.41,3.29,21.43,0,0,21.38-.47,15.89-34.09a130.24,130.24,0,0,1,7.25,54s11.84-19.94,9.35-49.23a38.74,38.74,0,0,0-4.73-15.6C319.59,447.26,310.69,436,298.26,440.23Z"/><circle class="e44f0fcc-4f07-451f-bb68-72f42d070176" cx="232.65" cy="458.07" r="3.25"/><circle class="e44f0fcc-4f07-451f-bb68-72f42d070176" cx="238.53" cy="454.79" r="1.84"/><circle class="e44f0fcc-4f07-451f-bb68-72f42d070176" cx="245.81" cy="452.03" r="1.84"/><circle class="e44f0fcc-4f07-451f-bb68-72f42d070176" cx="299.37" cy="451.38" r="1.59"/><circle class="e44f0fcc-4f07-451f-bb68-72f42d070176" cx="303.22" cy="453.92" r="1.59"/><rect class="ac7b3dc8-03ce-4a35-891a-90759e6eb090" x="737.36" y="233.01" width="36.86" height="31.58" rx="1.84" transform="translate(1511.59 497.59) rotate(180)"/><rect class="bbb7c12b-7fb7-4d2d-a26f-2122ec3a1532" x="738.28" y="236.77" width="35.13" height="3.31" transform="translate(1511.69 476.86) rotate(180)"/><rect class="bbb7c12b-7fb7-4d2d-a26f-2122ec3a1532" x="738.28" y="242.48" width="35.13" height="3.31" transform="translate(1511.69 488.26) rotate(180)"/><rect class="bbb7c12b-7fb7-4d2d-a26f-2122ec3a1532" x="738.28" y="248.18" width="35.13" height="3.31" transform="translate(1511.69 499.67) rotate(180)"/><rect class="bbb7c12b-7fb7-4d2d-a26f-2122ec3a1532" x="738.28" y="253.88" width="35.13" height="3.31" transform="translate(1511.69 511.07) rotate(180)"/><path class="a76cfc5b-b99f-42e5-ac0c-92edb610e6e9" d="M736.59,256.32v23.24a4.33,4.33,0,0,0,2.77,4.05,119.6,119.6,0,0,0,39.79,7.79c23.83.36,22.59-15.43,12.94-25.23a61,61,0,0,0-14.91-11.33,5.44,5.44,0,0,0-4.52-.48c-5.64,1.87-20.88,5.94-33.65.38A1.73,1.73,0,0,0,736.59,256.32Z"/><g class="f5760eaf-a601-4353-a7a6-61064b45b25a"><path class="ea60c3c1-39a2-465e-a110-4a1639a4ed86" d="M737.5,256.9v22.33a4.18,4.18,0,0,0,2.7,3.89A117.89,117.89,0,0,0,779,290.6c23.22.35,22-14.82,12.6-24.24A59.36,59.36,0,0,0,777,255.47a5.42,5.42,0,0,0-4.4-.46c-5.49,1.8-20.33,5.71-32.77.37A1.68,1.68,0,0,0,737.5,256.9Z"/></g><circle class="a76cfc5b-b99f-42e5-ac0c-92edb610e6e9" cx="772.39" cy="265.94" r="6.64"/><circle class="a76cfc5b-b99f-42e5-ac0c-92edb610e6e9" cx="783.27" cy="261.45" r="5.18"/><path class="a27d9596-7d82-4be2-9d3c-742b639f3410" d="M780.7,265.94s.18.33.55.86a16.35,16.35,0,0,0,10.54,6.87"/><path class="a27d9596-7d82-4be2-9d3c-742b639f3410" d="M779.68,265.94s4.93,12.51,0,16.6"/><path class="e6da810b-e885-41a3-96d6-7d0ad3bb81ec" d="M740.8,258.72s12.24,5.17,32.61-1.67"/><rect class="ac7b3dc8-03ce-4a35-891a-90759e6eb090" x="684.97" y="233.01" width="36.86" height="31.58" rx="1.84"/><rect class="bbb7c12b-7fb7-4d2d-a26f-2122ec3a1532" x="685.78" y="236.77" width="35.13" height="3.31"/><rect class="bbb7c12b-7fb7-4d2d-a26f-2122ec3a1532" x="685.78" y="242.48" width="35.13" height="3.31"/><rect class="bbb7c12b-7fb7-4d2d-a26f-2122ec3a1532" x="685.78" y="248.18" width="35.13" height="3.31"/><rect class="bbb7c12b-7fb7-4d2d-a26f-2122ec3a1532" x="685.78" y="253.88" width="35.13" height="3.31"/><path class="a76cfc5b-b99f-42e5-ac0c-92edb610e6e9" d="M722.61,256.32v23.24a4.34,4.34,0,0,1-2.78,4.05,119.52,119.52,0,0,1-39.78,7.79c-23.84.36-22.6-15.43-12.94-25.23A60.76,60.76,0,0,1,682,254.84a5.41,5.41,0,0,1,4.51-.48c5.64,1.87,20.88,5.94,33.65.38A1.73,1.73,0,0,1,722.61,256.32Z"/><g class="bfa9bc26-7ccf-4068-96fb-562a859fd236"><path class="ea60c3c1-39a2-465e-a110-4a1639a4ed86" d="M721.69,256.9v22.33a4.17,4.17,0,0,1-2.7,3.89,117.82,117.82,0,0,1-38.75,7.48c-23.21.35-22-14.82-12.6-24.24a59.36,59.36,0,0,1,14.52-10.89,5.43,5.43,0,0,1,4.4-.46c5.49,1.8,20.33,5.71,32.77.37A1.68,1.68,0,0,1,721.69,256.9Z"/></g><circle class="a76cfc5b-b99f-42e5-ac0c-92edb610e6e9" cx="686.81" cy="265.94" r="6.64"/><circle class="a76cfc5b-b99f-42e5-ac0c-92edb610e6e9" cx="675.93" cy="261.45" r="5.18"/><path class="a27d9596-7d82-4be2-9d3c-742b639f3410" d="M678.49,265.94s-.18.33-.54.86a16.38,16.38,0,0,1-10.54,6.87"/><path class="a27d9596-7d82-4be2-9d3c-742b639f3410" d="M679.52,265.94s-4.93,12.51,0,16.6"/><path class="e6da810b-e885-41a3-96d6-7d0ad3bb81ec" d="M684.25,256.08s19.83,7.37,35.13,1.2"/><path class="ba6383c1-1382-4a69-9f1f-150f75b9bff1" d="M350.68,265.28c.9,0-.13,6.49,2.83,6.72a.64.64,0,0,1,.57.6c.75,11,2.21,19.32,2.21,19.32,21.47-33.77-4.43-53.1-4.43-53.1l3.95-1c-3.31-6.16-12.36-7.43-12.36-7.43s8.68-6.51,5.14-5c-1.52.64-11.78,2.26-11.78,2.26-22.07-14.43-34.18-1.68-34.18-1.68l.38-6c-14.07,3.14-17.47,10.51-17.47,10.51-11.72,1.4-9.31,4.14-16.62,10.56-6.34,5.58-9.62,6.19-9.62,6.19l5.71,2.43c-7.78,5.71-5.76,22.35-5.76,22.35l4.85-5.52-.18,10,1.92-2.29c-.73,4.69,1.9,14.68,1.9,14.68l2.45-4.58c2.1,9,9.43,15.51,9.43,15.51-2.13-7,0-16.17,0-16.17,11.58-9.4,8.79-27.47,8.79-27.47,10.47,8.77,15.55,4.58,15.55,4.58-4.37-.58-7.92-6.59-7.92-6.59,15.14,8.39,20.6,2.45,20.6,2.45s9.37,3.54,14.89,2.08h0S341,265.69,350.68,265.28Z"/><circle class="a7a1140d-c11f-46c1-a3a3-e3eab963e8df" cx="284.66" cy="241.75" r="2.61"/><circle class="a7a1140d-c11f-46c1-a3a3-e3eab963e8df" cx="289.89" cy="240.17" r="1.48"/><circle class="a7a1140d-c11f-46c1-a3a3-e3eab963e8df" cx="294.14" cy="238.18" r="1.48"/><circle class="a7a1140d-c11f-46c1-a3a3-e3eab963e8df" cx="338.16" cy="240.47" r="1.27"/><circle class="a7a1140d-c11f-46c1-a3a3-e3eab963e8df" cx="341.25" cy="242.51" r="1.27"/><path class="e0bcd942-dcc3-416d-995b-b749bfcf1432" d="M337.29,251.13c.79-.22,12,4.59,16.4,12.4,0,0-7.19,5.65-21.7-5"/><path class="e0bcd942-dcc3-416d-995b-b749bfcf1432" d="M318.26,246.27s14,5,15.38,11.41c0,0-6.06,5.81-29.84-7.6"/><path class="f0c18f17-4454-46c9-8663-033ff6597a39" d="M497,249.67s18.44,6.84,42.86.6c0,0,7,8.06-.18,50.66a1.3,1.3,0,0,1-2,.88,7.07,7.07,0,0,0-4.32-1.28,27.48,27.48,0,0,0-6.64,1.92,1.3,1.3,0,0,1-1.76-1l-4.08-27.08-2-.29-3.16,27.66a1.51,1.51,0,0,1-2.08,1.22c-2.06-.86-5.8-1.64-11,.38a1.51,1.51,0,0,1-2-1C498.85,296,492.89,272.7,497,249.67Z"/><path class="e3ff9287-2f0e-4135-a465-1e7ef93cbbe3" d="M513.25,255.65a24.41,24.41,0,0,0,7.8.53"/><path class="e3ff9287-2f0e-4135-a465-1e7ef93cbbe3" d="M540,255.65s2.24,13.79-.29,33"/><path class="e3ff9287-2f0e-4135-a465-1e7ef93cbbe3" d="M517.15,273.75s-3.69,18.9-3,26.95"/><path class="f0c18f17-4454-46c9-8663-033ff6597a39" d="M515.14,272.67s5.72,3.24,10,0"/><path class="a49ecacc-654c-4615-8321-251ca3fb00e9" d="M508.8,210.63s9.49,9.41,19.19-.19c0,0,14.44.58,20,17.16,0,0-3,2.38-10.7,3.4l5.15,18.71s-19.45,9.91-46.91.88l4.18-18.92a33.69,33.69,0,0,1-10.21-3.06S491.82,213.82,508.8,210.63Z"/><path class="f0c18f17-4454-46c9-8663-033ff6597a39" d="M508.8,210.68s-5.07.21-5.63,2.55c-.69,2.86-9.08,39.37-9.08,39.37s10,6.16,18.16,5.27C512.25,257.87,507.07,221,508.8,210.68Z"/><path class="f0c18f17-4454-46c9-8663-033ff6597a39" d="M528.36,210.3s5.06.22,5.63,2.6c.69,2.91,8.84,39,8.84,39s-12.69,6.7-20.84,5.8C522,257.74,530.09,220.8,528.36,210.3Z"/><path class="bd227e86-63fe-436e-9a95-25cd30ac943d" d="M525.55,244.5s8,.57,13.3-2.44"/><path class="bb8e60a6-fe8f-4b7c-86d8-3f03ad68da51" d="M529.66,232.2l5.92-1a.61.61,0,0,1,.61.85c-.76,1.78-3.39,5.7-6.91.93A.51.51,0,0,1,529.66,232.2Z"/><polyline class="bd227e86-63fe-436e-9a95-25cd30ac943d" points="529.86 233.53 529.86 238.06 535.95 237.49 535.59 232.86"/><path class="bb8e60a6-fe8f-4b7c-86d8-3f03ad68da51" d="M501.72,223.05l6,1a.54.54,0,0,1,.34.86c-1.16,1.51-4.13,4.39-6.81-1.15A.47.47,0,0,1,501.72,223.05Z"/><polyline class="bd227e86-63fe-436e-9a95-25cd30ac943d" points="501.35 224.18 500.28 228.78 507.23 229.78 507.92 224.98"/><path class="bd227e86-63fe-436e-9a95-25cd30ac943d" d="M509.39,243.3A20.24,20.24,0,0,1,497,241.25"/><path class="bb8e60a6-fe8f-4b7c-86d8-3f03ad68da51" d="M497,245.21l9.78,1.45s2.42,5.51-.72,7.73a26.37,26.37,0,0,0-11.32-3.46l1.4-5.9Z"/><path class="bc40e528-8f77-4ecb-9723-01efbaa03b88" d="M503.21,247.12s1.13,2.95-.3,4.19"/><line class="bc40e528-8f77-4ecb-9723-01efbaa03b88" x1="499.71" y1="246.12" x2="498.9" y2="250.98"/><path class="bb8e60a6-fe8f-4b7c-86d8-3f03ad68da51" d="M498.72,233a61.49,61.49,0,0,0,7.94.77.58.58,0,0,1,.6.47,17.9,17.9,0,0,1,.31,3.51A2.56,2.56,0,0,1,506,240a8.13,8.13,0,0,1-8.49-1,2.35,2.35,0,0,1-.9-2.07,11,11,0,0,1,.7-3.06A1.29,1.29,0,0,1,498.72,233Z"/><path class="bc40e528-8f77-4ecb-9723-01efbaa03b88" d="M497.71,234.91a20.1,20.1,0,0,0,8.87,1"/><path class="bc40e528-8f77-4ecb-9723-01efbaa03b88" d="M498.28,237.54s4.28,2,6.77.52"/><path class="bb8e60a6-fe8f-4b7c-86d8-3f03ad68da51" d="M530.11,246.66a71.34,71.34,0,0,0,9.1-1.85.65.65,0,0,1,.82.31,19.66,19.66,0,0,1,1.55,3.8,3,3,0,0,1-1,3,9.49,9.49,0,0,1-9.8,1.75,2.77,2.77,0,0,1-1.71-2,12.91,12.91,0,0,1-.27-3.64A1.51,1.51,0,0,1,530.11,246.66Z"/><path class="bc40e528-8f77-4ecb-9723-01efbaa03b88" d="M529.65,249.14a23.35,23.35,0,0,0,10.19-2"/><path class="bd227e86-63fe-436e-9a95-25cd30ac943d" d="M531.18,251.87s5.45.78,7.71-1.74"/><path class="e3ff9287-2f0e-4135-a465-1e7ef93cbbe3" d="M529.64,212.1s2.15,0,3.07,1.15,2.53,12.51,2.53,12.51"/><path class="e3ff9287-2f0e-4135-a465-1e7ef93cbbe3" d="M532.2,247.12s4.34,0,7-1.34"/><path class="e3ff9287-2f0e-4135-a465-1e7ef93cbbe3" d="M531.18,232.86s3.3-.9,3.86-.45"/><path class="e3ff9287-2f0e-4135-a465-1e7ef93cbbe3" d="M538.09,241.25a13,13,0,0,1-4.24,1.14"/><path class="e3ff9287-2f0e-4135-a465-1e7ef93cbbe3" d="M502.91,224s5.15.59,3.67,1.44"/><path class="e3ff9287-2f0e-4135-a465-1e7ef93cbbe3" d="M506.58,234.63s1.66,4.74-2.62,5.15"/><path class="e3ff9287-2f0e-4135-a465-1e7ef93cbbe3" d="M506.22,247.12s2,4.6-.4,5.88l-1.36-.45"/><path class="e3ff9287-2f0e-4135-a465-1e7ef93cbbe3" d="M508.92,242.39s-1.32,1-5.29,0"/><path class="e3ff9287-2f0e-4135-a465-1e7ef93cbbe3" d="M507.53,212.1s-1,5.54-.23,9.26"/><path class="b8e464fc-4b6d-483c-b660-6144b0c0b753" d="M535.24,213.66S545.4,220.32,546.1,227"/><path class="b8e464fc-4b6d-483c-b660-6144b0c0b753" d="M509.39,213.13s10,8.06,18.08-.37"/><path class="b8e464fc-4b6d-483c-b660-6144b0c0b753" d="M524.56,239.78,522,251a2.61,2.61,0,0,1-2.36,2,24.72,24.72,0,0,1-6.39-.34"/><path class="fdf50875-b445-4c05-9c4e-33e5780fa4fc" d="M991.67,276.09s-2.86,30.69-52.62,5.43a19,19,0,0,0-3-1.26c-15.61-.41-25.91,7.75-43.23,15.82-19.1,8.91-12-8.41-12-8.41s4.26-10.06,17-17.3,46.92,4.33,46.92,4.33L976,278.56Z"/><path class="f5069531-9703-47c2-9d55-3b95658c6ce1" d="M904.25,229.77c10.71-4,38.09-11.81,64.69,1.71a6.86,6.86,0,0,1,3.72,6.5,301.61,301.61,0,0,0,.24,30.34,4.41,4.41,0,0,0,2.45,3.75c2.4,1.17,6.84,2.51,14.08,2a2.07,2.07,0,0,1,2,3c-2.63,5.38-11,14.92-36.07,9.46-33.36-7.26-33.84-21.85-57.51-16.1a.83.83,0,0,1-1-1.05c1.12-3.6,3.68-14.08,2.93-32.83A6.88,6.88,0,0,1,904.25,229.77Z"/><path class="ad923907-d3c5-4517-89bb-c77fbfb322d8" d="M973.55,270.42a128.32,128.32,0,0,0-45.77-1.85c-21.26,3.21-30.73,20.72-32.75,25a5.76,5.76,0,0,1-2.32,2.56,8,8,0,0,1-.88.42"/><path class="f1b7baba-4683-43ea-b225-c9e504d118c9" d="M902.34,233.72s32.42-15.47,62.73-.64a8.25,8.25,0,0,1,4.61,7.89c-.44,7.56-.83,21.07,1.7,24.23"/><path class="f1b7baba-4683-43ea-b225-c9e504d118c9" d="M922,271.49s28.21-6.68,50.28.69c18.46,6.17,18,3.12,18,3.12"/><path class="b2e7c4e1-e4eb-4be6-8c89-c1c634b7f0c5" d="M916,271.25a26.42,26.42,0,0,0-26,6.14C877.74,288.67,881,296,881,296"/><path class="e50af21d-cdca-4f17-8d59-a2370c1e427b" d="M938,234l2.84,5.74a2.6,2.6,0,0,0,2,1.43l6.34.92a2.61,2.61,0,0,1,1.44,4.46L946,251.05a2.63,2.63,0,0,0-.75,2.32l1.08,6.3a2.61,2.61,0,0,1-3.79,2.76l-5.66-3a2.61,2.61,0,0,0-2.43,0l-5.67,3a2.62,2.62,0,0,1-3.79-2.76l1.08-6.3a2.6,2.6,0,0,0-.75-2.32l-4.58-4.46a2.62,2.62,0,0,1,1.45-4.46l6.33-.92a2.61,2.61,0,0,0,2-1.43l2.83-5.74A2.61,2.61,0,0,1,938,234Z"/><path class="aa95f8bd-46e2-4dd3-9edc-5c598e9144ff" d="M747.26,430.33c.07.13.25.13.27,0,.31-2.43,2.41-10.86,17-13.24,0,0-10.18,6.32-5.77,13a3.5,3.5,0,0,0,3,1.53c7.72-.25,40.33,1,54.22,38.24.09.26.18.52.25.78,1.39,5.08,10.42,37.82-6.27,60.54,0,0,.39-29.84-6.76-45.27,0,0,2.72,15.82-2.22,21,0,0-3.6-19-17.13-24.93,0,0-6.49,15.43,4,23.74,0,0-8.25.16-10.73-5,0,0-2.57,6.28.19,7.47,0,0-28.18-4.44-19.19-29.38,0,0-14.35,21-3.67,28.47,0,0-16.31.79-12.31-25.32,0,0-2.21,22.55-15.13,28.09,0,0,4.61-5.14,0-17.41,0,0-7.29,6.33-4.56,12.27,0,0-16.75-6.33-10.57-22.95,0,0-6.63,29.68-14.11,36.39,0,0,6.86-14-.77-16.67,0,0-7.88,14.56-1.94,36,0,0-14.68-23.76-11.87-58.52.36-4.45,2.57-10.91,4.5-14.94,5.33-11.09,18-29.64,47.12-32,0,0,5.8-4.52.43-9.6A13.48,13.48,0,0,1,747.26,430.33Z"/><circle class="e50af21d-cdca-4f17-8d59-a2370c1e427b" cx="710.32" cy="461.64" r="3.91"/><circle class="e50af21d-cdca-4f17-8d59-a2370c1e427b" cx="717.39" cy="457.69" r="2.22"/><circle class="e50af21d-cdca-4f17-8d59-a2370c1e427b" cx="726.13" cy="454.38" r="2.22"/><circle class="e50af21d-cdca-4f17-8d59-a2370c1e427b" cx="790.52" cy="453.6" r="1.91"/><circle class="e50af21d-cdca-4f17-8d59-a2370c1e427b" cx="795.14" cy="456.65" r="1.91"/><path class="b9b4f2e3-0878-4850-a579-0bb325043e4c" d="M17.11,778.87c0-7.8,1240.4-14.31,1240.4,0,0,84-293.18,175.17-637.58,176.42C267.94,956.57,17.11,848.29,17.11,778.87Z"/><path class="bd79fbbf-aa12-4e10-b4bc-20d208e8efc5" d="M17.11,776.05c0-7.06,1232.45-12.94,1232.45,0,0,76-291.3,158.51-633.49,159.64C266.34,936.85,17.11,838.86,17.11,776.05Z"/></g></g></svg>