<svg xmlns="http://www.w3.org/2000/svg" xmlns:xlink="http://www.w3.org/1999/xlink" viewBox="0 0 125.91 165.62"><defs><style>.a04fa773-bd05-488f-90c8-e3210e55576e,.b54e73e2-4301-4380-b29a-26484532b879{fill:none;}.bb3b6895-542e-4715-96d8-9c6748bf6397{fill:#feeacd;}.faf86b35-09fc-415e-86d1-4e16866255d2{fill:#ffe137;}.bc764299-84b6-4e26-95d8-d9db9f702c72{fill:#dbc260;}.a2bf4134-8e03-46dc-8db2-cb29b47c2b16{fill:#4b311f;}.a984661e-9479-4454-9e6f-98a5c7087ef6{clip-path:url(#e756e453-1d60-4450-b20d-2e35be7d83d2);}.a11be319-208c-4f7d-8a12-48883b592853{fill:#4ea549;}.a04fa773-bd05-488f-90c8-e3210e55576e,.a11be319-208c-4f7d-8a12-48883b592853,.fe57ac63-e744-4ffa-a0a7-ce7e87bd716d{stroke:#40220f;stroke-miterlimit:10;}.a11be319-208c-4f7d-8a12-48883b592853,.fe57ac63-e744-4ffa-a0a7-ce7e87bd716d{stroke-width:5.04px;}.fe57ac63-e744-4ffa-a0a7-ce7e87bd716d{fill:#e6dc83;}.a04fa773-bd05-488f-90c8-e3210e55576e{stroke-linecap:round;stroke-width:3.36px;}.ff9e3993-5a6c-47d6-a077-aaee8b168f14{fill:#fcc900;}.a3b15631-3690-4530-b95b-17f549e31cc3{fill:#844a40;}</style><clipPath id="e756e453-1d60-4450-b20d-2e35be7d83d2" transform="translate(-2.01 -49.64)"><ellipse class="b54e73e2-4301-4380-b29a-26484532b879" cx="62.98" cy="85.09" rx="62.95" ry="85.11" transform="translate(-2.79 2.14) rotate(-1.9)"/></clipPath></defs><title>蘿蔔1</title><g id="ea95fe04-f4a3-401d-9f9c-fc611db5aeaf" data-name="圖層 2"><g id="ad9f22d5-49a3-4737-8662-de930bb988bc" data-name="圖層 1"><path class="bb3b6895-542e-4715-96d8-9c6748bf6397" d="M74.39,214.42a3.56,3.56,0,0,1-1.62-.4l-6.43-3.38a1.71,1.71,0,0,0-.83-.21,1.77,1.77,0,0,0-.84.21L58.25,214a3.59,3.59,0,0,1-1.62.4A3.5,3.5,0,0,1,54,213.17a3.42,3.42,0,0,1-.76-2.82l1.23-7.16a1.79,1.79,0,0,0-.52-1.59l-5.2-5.07a3.48,3.48,0,0,1,1.93-5.93l7.19-1a1.78,1.78,0,0,0,1.35-1l3.21-6.51a3.48,3.48,0,0,1,6.24,0l3.21,6.51a1.78,1.78,0,0,0,1.35,1l7.19,1a3.48,3.48,0,0,1,1.93,5.93l-5.2,5.07a1.79,1.79,0,0,0-.52,1.59l1.23,7.16a3.45,3.45,0,0,1-.76,2.82A3.5,3.5,0,0,1,74.39,214.42Z" transform="translate(-2.01 -49.64)"/><path class="faf86b35-09fc-415e-86d1-4e16866255d2" d="M65.51,181a2.6,2.6,0,0,1,2.36,1.47L71.09,189a2.6,2.6,0,0,0,2,1.44l7.19,1.05a2.63,2.63,0,0,1,1.46,4.49L76.52,201a2.63,2.63,0,0,0-.76,2.33L77,210.49a2.64,2.64,0,0,1-2.6,3.09,2.7,2.7,0,0,1-1.23-.31l-6.42-3.38a2.67,2.67,0,0,0-2.46,0l-6.43,3.38A2.62,2.62,0,0,1,54,210.49l1.23-7.16A2.66,2.66,0,0,0,54.5,201l-5.2-5.07a2.63,2.63,0,0,1,1.46-4.49L58,190.39a2.6,2.6,0,0,0,2-1.44l3.22-6.51A2.6,2.6,0,0,1,65.51,181m0-1.68a4.28,4.28,0,0,0-3.87,2.4l-3.22,6.52a.94.94,0,0,1-.71.52l-7.19,1a4.32,4.32,0,0,0-2.39,7.37l5.2,5.07a1,1,0,0,1,.27.84l-1.23,7.16a4.32,4.32,0,0,0,6.27,4.55l6.43-3.38a.94.94,0,0,1,.88,0l6.43,3.38a4.32,4.32,0,0,0,6.27-4.55l-1.23-7.16a1,1,0,0,1,.27-.84l5.2-5.07a4.32,4.32,0,0,0-2.39-7.37l-7.19-1a1,1,0,0,1-.72-.52l-3.21-6.52a4.29,4.29,0,0,0-3.87-2.4Z" transform="translate(-2.01 -49.64)"/><path class="bc764299-84b6-4e26-95d8-d9db9f702c72" d="M58.22,211a6.57,6.57,0,0,0,2.89-2.63,1,1,0,0,0-1.81-1.06,4.63,4.63,0,0,1-2.14,1.87,1.06,1.06,0,0,0-.38,1.44,1.09,1.09,0,0,0,1.44.38Z" transform="translate(-2.01 -49.64)"/><path class="bc764299-84b6-4e26-95d8-d9db9f702c72" d="M78.56,194.15c-.09,0,0,0-.06.18a2,2,0,0,1-.73.73,1.1,1.1,0,0,0-.37,1.44,1.06,1.06,0,0,0,1.44.38,3.7,3.7,0,0,0,1.78-2.53,2.11,2.11,0,0,0-1.5-2.23,1.05,1.05,0,0,0-.56,2Z" transform="translate(-2.01 -49.64)"/><path class="bc764299-84b6-4e26-95d8-d9db9f702c72" d="M66,185c.05-.26-.11.08-.14.13s0-.08,0,0l-.06,0h.07c-.05,0-.08,0-.11-.07a2,2,0,0,1,.33,1,1.08,1.08,0,0,0,1,1,1.06,1.06,0,0,0,1-1c-.13-1.17-.42-2.53-1.69-3A1.92,1.92,0,0,0,64,184.42a1.08,1.08,0,0,0,.73,1.29A1.06,1.06,0,0,0,66,185Z" transform="translate(-2.01 -49.64)"/><path class="bb3b6895-542e-4715-96d8-9c6748bf6397" d="M116.89,214.42a3.53,3.53,0,0,1-1.62-.4l-6.43-3.38a1.77,1.77,0,0,0-.84-.21,1.71,1.71,0,0,0-.83.21L100.74,214a3.56,3.56,0,0,1-1.62.4,3.52,3.52,0,0,1-2.67-1.25,3.41,3.41,0,0,1-.75-2.82l1.22-7.16a1.81,1.81,0,0,0-.51-1.59l-5.2-5.07a3.48,3.48,0,0,1,1.92-5.93l7.19-1a1.77,1.77,0,0,0,1.35-1l3.22-6.51a3.47,3.47,0,0,1,6.23,0l3.22,6.51a1.77,1.77,0,0,0,1.35,1l7.18,1a3.48,3.48,0,0,1,1.93,5.93l-5.2,5.07a1.82,1.82,0,0,0-.52,1.59l1.23,7.16a3.39,3.39,0,0,1-.76,2.82A3.5,3.5,0,0,1,116.89,214.42Z" transform="translate(-2.01 -49.64)"/><path class="faf86b35-09fc-415e-86d1-4e16866255d2" d="M108,181a2.62,2.62,0,0,1,2.37,1.47l3.21,6.51a2.63,2.63,0,0,0,2,1.44l7.18,1.05a2.63,2.63,0,0,1,1.46,4.49L119,201a2.63,2.63,0,0,0-.75,2.33l1.22,7.16a2.62,2.62,0,0,1-3.82,2.78l-6.43-3.38a2.65,2.65,0,0,0-2.45,0l-6.43,3.38a2.63,2.63,0,0,1-3.83-2.78l1.23-7.16A2.61,2.61,0,0,0,97,201l-5.2-5.07a2.63,2.63,0,0,1,1.46-4.49l7.19-1.05a2.63,2.63,0,0,0,2-1.44l3.21-6.51A2.6,2.6,0,0,1,108,181m0-1.68a4.29,4.29,0,0,0-3.87,2.4l-3.21,6.52a1,1,0,0,1-.72.52l-7.19,1a4.32,4.32,0,0,0-2.39,7.37l5.2,5.07a.93.93,0,0,1,.28.84l-1.23,7.16a4.31,4.31,0,0,0,6.26,4.55l6.43-3.38a1,1,0,0,1,.89,0l6.43,3.38a4.31,4.31,0,0,0,6.26-4.55l-1.23-7.16a.93.93,0,0,1,.28-.84l5.2-5.07a4.32,4.32,0,0,0-2.4-7.37l-7.18-1a1,1,0,0,1-.72-.52l-3.21-6.52a4.31,4.31,0,0,0-3.88-2.4Z" transform="translate(-2.01 -49.64)"/><path class="bc764299-84b6-4e26-95d8-d9db9f702c72" d="M100.71,211a6.54,6.54,0,0,0,2.9-2.63,1.05,1.05,0,0,0-1.82-1.06,4.58,4.58,0,0,1-2.14,1.87,1.06,1.06,0,0,0-.38,1.44,1.09,1.09,0,0,0,1.44.38Z" transform="translate(-2.01 -49.64)"/><path class="bc764299-84b6-4e26-95d8-d9db9f702c72" d="M121.06,194.15c-.09,0,0,0-.06.18a2.13,2.13,0,0,1-.73.73,1.09,1.09,0,0,0-.38,1.44,1.06,1.06,0,0,0,1.44.38,3.71,3.71,0,0,0,1.79-2.53,2.12,2.12,0,0,0-1.51-2.23,1.05,1.05,0,0,0-.55,2Z" transform="translate(-2.01 -49.64)"/><path class="bc764299-84b6-4e26-95d8-d9db9f702c72" d="M108.48,185c0-.26-.11.08-.13.13s0-.08,0,0l-.07,0h.08c-.05,0-.09,0-.12-.07a2,2,0,0,1,.33,1,1.08,1.08,0,0,0,1,1,1.06,1.06,0,0,0,1.05-1c-.12-1.17-.42-2.53-1.68-3a1.93,1.93,0,0,0-2.55,1.26,1.08,1.08,0,0,0,.74,1.29,1,1,0,0,0,1.29-.73Z" transform="translate(-2.01 -49.64)"/><path class="faf86b35-09fc-415e-86d1-4e16866255d2" d="M25.38,182.44,28.59,189a2.63,2.63,0,0,0,2,1.44l7.18,1.05a2.63,2.63,0,0,1,1.47,4.49L34,201a2.61,2.61,0,0,0-.76,2.33l1.22,7.16a2.63,2.63,0,0,1-3.82,2.78l-6.43-3.38a2.65,2.65,0,0,0-2.45,0l-6.43,3.38a2.63,2.63,0,0,1-3.82-2.78l1.22-7.16A2.63,2.63,0,0,0,12,201L6.8,195.93a2.63,2.63,0,0,1,1.47-4.49l7.18-1.05a2.63,2.63,0,0,0,2-1.44l3.21-6.51A2.64,2.64,0,0,1,25.38,182.44Z" transform="translate(-2.01 -49.64)"/><path class="bc764299-84b6-4e26-95d8-d9db9f702c72" d="M15.72,211a6.54,6.54,0,0,0,2.9-2.63,1,1,0,0,0-1.81-1.06,4.66,4.66,0,0,1-2.15,1.87,1.06,1.06,0,0,0-.38,1.44,1.09,1.09,0,0,0,1.44.38Z" transform="translate(-2.01 -49.64)"/><path class="bc764299-84b6-4e26-95d8-d9db9f702c72" d="M36.07,194.15c-.09,0,0,0-.06.18a2.13,2.13,0,0,1-.73.73,1.09,1.09,0,0,0-.38,1.44,1.06,1.06,0,0,0,1.44.38,3.68,3.68,0,0,0,1.79-2.53,2.12,2.12,0,0,0-1.5-2.23,1.05,1.05,0,0,0-.56,2Z" transform="translate(-2.01 -49.64)"/><path class="bc764299-84b6-4e26-95d8-d9db9f702c72" d="M23.49,185c.05-.26-.11.08-.13.13s-.05-.08,0,0l-.07,0h.08c-.05,0-.09,0-.12-.07a2,2,0,0,1,.33,1,1.08,1.08,0,0,0,1.05,1,1,1,0,0,0,1.05-1c-.12-1.17-.42-2.53-1.68-3a1.92,1.92,0,0,0-2.54,1.26,1.06,1.06,0,0,0,.73,1.29,1,1,0,0,0,1.29-.73Z" transform="translate(-2.01 -49.64)"/><ellipse class="a2bf4134-8e03-46dc-8db2-cb29b47c2b16" cx="62.95" cy="100.42" rx="62.95" ry="19.85"/><g class="a984661e-9479-4454-9e6f-98a5c7087ef6"><path class="a11be319-208c-4f7d-8a12-48883b592853" d="M49.27,101.83S32.26,96.16,31,86.36c-.57-4.28,3.83-8.55,3.83-8.55s3.49-3.12,12.43,4.52,4.18-5.47,5.89-19.39c.62-5.11,2.78-8,5.27-9.56a8.07,8.07,0,0,1,11.75,3.94l1.43,3.62a17,17,0,0,1,1.19,6.38l.4,12.76c0,1.68,2.25,5.19,3.94,5.24a3.62,3.62,0,0,0,2.71-.67c3.41-1.83,5.66-2.76,6.2-12.55s14.75-8,15.67.22c1.67,15-5,26.08-12.85,33.22l-15.64-4.13Z" transform="translate(-2.01 -49.64)"/><path class="fe57ac63-e744-4ffa-a0a7-ce7e87bd716d" d="M67.46,99.21l2.73.14c20.79,1,30,17.28,25.11,29.33l-24,59.62C69,193.92,60,193.64,58,187.88L37.16,126.56C32.87,113.93,44.68,98.12,67.46,99.21Z" transform="translate(-2.01 -49.64)"/><path class="a04fa773-bd05-488f-90c8-e3210e55576e" d="M40.23,131s4.41-4.68,14.43-5.17" transform="translate(-2.01 -49.64)"/><path class="a04fa773-bd05-488f-90c8-e3210e55576e" d="M44.56,140.75s2.48-3.89,15.37-3.84" transform="translate(-2.01 -49.64)"/><path class="a04fa773-bd05-488f-90c8-e3210e55576e" d="M72,131.31a25.29,25.29,0,0,1,17.7,8.05" transform="translate(-2.01 -49.64)"/><path class="a04fa773-bd05-488f-90c8-e3210e55576e" d="M71.37,143.94a25.25,25.25,0,0,1,17.7,8" transform="translate(-2.01 -49.64)"/><path class="a04fa773-bd05-488f-90c8-e3210e55576e" d="M65.51,155.08a25.31,25.31,0,0,1,17.71,8" transform="translate(-2.01 -49.64)"/></g><path class="ff9e3993-5a6c-47d6-a077-aaee8b168f14" d="M46,121.18c-.71-4,3.36-10.63,7.68-10.89,1.35-.09,1.36-2.19,0-2.11-5.85.36-10.68,8.1-9.7,13.56.24,1.33,2.26.77,2-.56Z" transform="translate(-2.01 -49.64)"/><path class="a3b15631-3690-4530-b95b-17f549e31cc3" d="M17.2,142.55c-3.23,2.14-6.78,3.3-7,7.84-.2,4,2.38,7.06,5.63,9,3.5,2.08,6.67-3.37,3.18-5.44-1.07-.64-2.87-1.83-2.51-3.36.29-1.29,2.86-1.91,3.88-2.59,3.36-2.23.21-7.69-3.18-5.44Z" transform="translate(-2.01 -49.64)"/><path class="a3b15631-3690-4530-b95b-17f549e31cc3" d="M108.29,146.45a10.2,10.2,0,0,1,3.32,2.09,7.45,7.45,0,0,1,1.42,1.88l.14-.7c-.37.28-.75.54-1.13.79a28.63,28.63,0,0,1-8.83,3.81c-3.93,1-2.27,7.08,1.67,6.08,4.45-1.13,11.66-3.47,13.93-7.84,2.45-4.74-3.48-9.92-7.34-11.55-3.7-1.57-6.91,3.86-3.18,5.44Z" transform="translate(-2.01 -49.64)"/></g></g></svg>