<svg xmlns="http://www.w3.org/2000/svg" viewBox="0 0 136.6 196.38"><defs><style>.b673a3a6-6367-4291-99e0-a90e97c7276b{fill:#ffe137;}.fa963ca9-1406-453e-9f99-68bb544ae02c{fill:#dbc260;}.e6d3bfb8-863b-4195-a4f8-6b089c005fdb{fill:#feeacd;}.a8d77e89-e5f7-484f-873e-bad1e692a1c7{fill:#a96323;}.aef6f908-688c-442a-b3c3-b7c72fc274f8{fill:#855d26;}.ef45efe6-53a2-4349-bab8-699769fd6b1d{fill:#e6c530;}.fef0b505-7bbd-44f8-8778-3cd390d4e92a{fill:#e0a024;}.af8608e0-9ab4-4bc2-bd27-4a5568796aeb{fill:none;stroke:#40220f;stroke-miterlimit:10;stroke-width:3.36px;}.bb9ff343-2655-45b3-bec9-f5dac6845cd5{fill:#40220f;}.b0da2397-2656-45c5-80ea-c6141d47385b{fill:#673704;}.fa048155-3269-4123-b105-cee92d0ca216{fill:#ce783c;}.f416ab94-c6ca-47fa-b995-8ce713788f9a{fill:#cd6f3a;}.bbb07158-1f34-43b9-bbe4-2051cf7b5fc5{fill:#85441c;}.e51c7ecc-aa6a-40d1-9c28-b4f8ca4270e9{fill:#935519;}.b5f4ce57-4fd2-48b2-830c-fee9be63c26b{fill:#fff9b3;}.e94a132a-70aa-4c1c-ab2f-174eeb4514d6{fill:#fac12c;}.e801dec5-57ae-4d24-ac61-29e61db4dc1a{fill:#f7b86d;}</style></defs><title>蜂蜜2</title><g id="b4994287-0449-4efe-8a48-ea3edb88a019" data-name="圖層 2"><g id="e21c3a46-61a2-400e-9338-118ceb18849c" data-name="圖層 1"><path class="b673a3a6-6367-4291-99e0-a90e97c7276b" d="M77.78,163.56,81,170.07a2.6,2.6,0,0,0,2,1.44l7.19,1a2.64,2.64,0,0,1,1.46,4.5l-5.2,5.07a2.63,2.63,0,0,0-.76,2.33l1.23,7.16a2.64,2.64,0,0,1-3.83,2.78L76.65,191a2.67,2.67,0,0,0-2.46,0l-6.43,3.38a2.63,2.63,0,0,1-3.82-2.78l1.23-7.16a2.66,2.66,0,0,0-.76-2.33l-5.2-5.07a2.64,2.64,0,0,1,1.46-4.5l7.19-1a2.6,2.6,0,0,0,2-1.44l3.22-6.51A2.63,2.63,0,0,1,77.78,163.56Z"/><path class="fa963ca9-1406-453e-9f99-68bb544ae02c" d="M68.13,192.09A6.49,6.49,0,0,0,71,189.47a1,1,0,0,0-1.81-1.06,4.69,4.69,0,0,1-2.14,1.87,1.05,1.05,0,0,0-.38,1.44,1.07,1.07,0,0,0,1.44.37Z"/><path class="fa963ca9-1406-453e-9f99-68bb544ae02c" d="M88.47,175.26c-.09,0,0,.06-.06.19a2.13,2.13,0,0,1-.73.73,1.1,1.1,0,0,0-.37,1.44,1.07,1.07,0,0,0,1.44.38,3.7,3.7,0,0,0,1.78-2.53,2.11,2.11,0,0,0-1.5-2.23,1,1,0,0,0-.56,2Z"/><path class="fa963ca9-1406-453e-9f99-68bb544ae02c" d="M75.9,166.1c0-.26-.11.08-.14.13s-.05-.08,0,0h-.06c.12,0,.14,0,.07,0a.14.14,0,0,1-.11-.07,2,2,0,0,1,.33,1,1.08,1.08,0,0,0,1,1,1.06,1.06,0,0,0,1-1c-.13-1.18-.42-2.53-1.69-3a1.91,1.91,0,0,0-2.54,1.26,1.08,1.08,0,0,0,.73,1.29,1.07,1.07,0,0,0,1.3-.73Z"/><path class="e6d3bfb8-863b-4195-a4f8-6b089c005fdb" d="M126.8,195.54a3.42,3.42,0,0,1-1.62-.41l-6.43-3.38a1.89,1.89,0,0,0-.84-.2,1.85,1.85,0,0,0-.83.2l-6.43,3.38a3.45,3.45,0,0,1-1.62.41,3.52,3.52,0,0,1-2.67-1.25,3.41,3.41,0,0,1-.75-2.82l1.22-7.16a1.8,1.8,0,0,0-.51-1.59l-5.2-5.07a3.48,3.48,0,0,1,1.92-5.93l7.19-1a1.79,1.79,0,0,0,1.35-1l3.22-6.52a3.48,3.48,0,0,1,6.23,0l3.22,6.52a1.79,1.79,0,0,0,1.35,1l7.18,1a3.48,3.48,0,0,1,1.93,5.93l-5.2,5.07a1.81,1.81,0,0,0-.52,1.59l1.23,7.16a3.39,3.39,0,0,1-.76,2.82A3.5,3.5,0,0,1,126.8,195.54Z"/><path class="b673a3a6-6367-4291-99e0-a90e97c7276b" d="M117.91,162.09a2.62,2.62,0,0,1,2.37,1.47l3.21,6.51a2.63,2.63,0,0,0,2,1.44l7.18,1a2.64,2.64,0,0,1,1.46,4.5l-5.2,5.07a2.62,2.62,0,0,0-.75,2.33l1.22,7.16a2.62,2.62,0,0,1-3.82,2.78L119.14,191a2.65,2.65,0,0,0-2.45,0l-6.43,3.38a2.63,2.63,0,0,1-3.83-2.78l1.23-7.16a2.6,2.6,0,0,0-.76-2.33l-5.2-5.07a2.64,2.64,0,0,1,1.46-4.5l7.19-1a2.63,2.63,0,0,0,2-1.44l3.21-6.51a2.6,2.6,0,0,1,2.36-1.47m0-1.69a4.31,4.31,0,0,0-3.87,2.41l-3.21,6.51a1,1,0,0,1-.72.53l-7.19,1a4.32,4.32,0,0,0-2.39,7.36l5.2,5.07a1,1,0,0,1,.28.85l-1.23,7.16a4.3,4.3,0,0,0,.94,3.5,4.3,4.3,0,0,0,5.32,1l6.43-3.38a1,1,0,0,1,.89,0l6.43,3.38a4.31,4.31,0,0,0,6.26-4.55l-1.23-7.16a1,1,0,0,1,.28-.85l5.2-5.07a4.32,4.32,0,0,0-2.39-7.36l-7.19-1a1,1,0,0,1-.72-.53l-3.21-6.51a4.32,4.32,0,0,0-3.88-2.41Z"/><path class="fa963ca9-1406-453e-9f99-68bb544ae02c" d="M110.62,192.09a6.46,6.46,0,0,0,2.9-2.62,1.05,1.05,0,0,0-1.82-1.06,4.64,4.64,0,0,1-2.14,1.87,1.06,1.06,0,0,0-.38,1.44,1.07,1.07,0,0,0,1.44.37Z"/><path class="fa963ca9-1406-453e-9f99-68bb544ae02c" d="M131,175.26c-.09,0,0,.06-.06.19a2.21,2.21,0,0,1-.73.73,1.09,1.09,0,0,0-.38,1.44,1.07,1.07,0,0,0,1.44.38,3.71,3.71,0,0,0,1.79-2.53,2.12,2.12,0,0,0-1.51-2.23,1,1,0,0,0-.55,2Z"/><path class="fa963ca9-1406-453e-9f99-68bb544ae02c" d="M118.39,166.1c0-.26-.11.08-.13.13s-.05-.08,0,0h0a.15.15,0,0,1-.12-.07,2,2,0,0,1,.33,1,1.08,1.08,0,0,0,1.05,1,1.06,1.06,0,0,0,1-1c-.12-1.18-.42-2.53-1.68-3a1.91,1.91,0,0,0-2.54,1.26,1.07,1.07,0,0,0,.73,1.29,1.05,1.05,0,0,0,1.29-.73Z"/><path class="b673a3a6-6367-4291-99e0-a90e97c7276b" d="M35.29,163.56l3.21,6.51a2.63,2.63,0,0,0,2,1.44l7.18,1a2.64,2.64,0,0,1,1.47,4.5l-5.2,5.07a2.61,2.61,0,0,0-.76,2.33l1.22,7.16a2.63,2.63,0,0,1-3.82,2.78L34.15,191a2.65,2.65,0,0,0-2.45,0l-6.43,3.38a2.63,2.63,0,0,1-3.82-2.78l1.22-7.16a2.63,2.63,0,0,0-.75-2.33l-5.2-5.07a2.64,2.64,0,0,1,1.46-4.5l7.18-1a2.63,2.63,0,0,0,2-1.44l3.21-6.51A2.64,2.64,0,0,1,35.29,163.56Z"/><path class="fa963ca9-1406-453e-9f99-68bb544ae02c" d="M25.63,192.09a6.46,6.46,0,0,0,2.9-2.62,1,1,0,0,0-1.81-1.06,4.71,4.71,0,0,1-2.15,1.87,1.06,1.06,0,0,0-.38,1.44,1.08,1.08,0,0,0,1.44.37Z"/><path class="fa963ca9-1406-453e-9f99-68bb544ae02c" d="M46,175.26c-.09,0,0,.06-.06.19a2.21,2.21,0,0,1-.73.73,1.09,1.09,0,0,0-.38,1.44,1.07,1.07,0,0,0,1.44.38A3.68,3.68,0,0,0,48,175.47a2.12,2.12,0,0,0-1.5-2.23,1,1,0,0,0-.56,2Z"/><path class="fa963ca9-1406-453e-9f99-68bb544ae02c" d="M33.4,166.1c.05-.26-.11.08-.13.13s-.05-.08,0,0h0a.15.15,0,0,1-.12-.07,2,2,0,0,1,.33,1,1.08,1.08,0,0,0,1,1,1,1,0,0,0,1.05-1c-.12-1.18-.42-2.53-1.68-3a1.91,1.91,0,0,0-2.54,1.26,1.07,1.07,0,0,0,.73,1.29,1.05,1.05,0,0,0,1.29-.73Z"/><ellipse class="a8d77e89-e5f7-484f-873e-bad1e692a1c7" cx="70.19" cy="131.42" rx="61.92" ry="20.48"/><path class="aef6f908-688c-442a-b3c3-b7c72fc274f8" d="M113.07,61c1.8,7.68,1.89,16.68,1.37,23.83-.94,12.69-2.8,20.69-6.72,31.12a38.12,38.12,0,0,1-9.44,13.93,12.68,12.68,0,0,1-5.9,3.11c-20.2,4.57-41.54-.18-44.11-.75s-5.37-3.55-5.37-3.55c-17.07-19.15-13.28-54.36-9.85-69.49,0,.13.27,3.58,2,2.53s2.2-3.27,3.55-2.24,0,3.92.7,4.85,4.29,3.59,6.16,1.45a10.47,10.47,0,0,0,2.47-5.65c.14-1.17,1.4-5.74,3.32-5s2.1,2.47,1.58,5-.14,3.92.8,4.53,3.5,1.54,4.24-.66.7-5.18,1.78-6.81,1.63-2.2,2.14-2.17a2.16,2.16,0,0,1,1.82,2.36c0,1.82,1.5,2.66,2.62,1.86s2.08-2.24,3.73-1.71,2.69,1.71,3.88.21a4.67,4.67,0,0,1,3.72-1.72A4.1,4.1,0,0,1,80,57.71c.46.91,1.13,1.75,2.1,1.68s2.38-2.45,3.68-1.4,1.93,4.86.14,9.69-.74,9.52,2,9.66,5.53,0,5.39-7.77S90.71,56.48,92.6,56s3.46-.21,3.6,1.61-.59,8.12,2.28,7.88,2-6.55,2.13-8.79,2.66-2.2,3.82-1.36,3.53,2,3.08,6.75.59,5.5.94,5.92S110,70.27,111,69.75,114.29,67.28,113.07,61Z"/><path class="ef45efe6-53a2-4349-bab8-699769fd6b1d" d="M113.07,61c1.22,6.25-1,8.19-2.06,8.72s-2.21-1.33-2.56-1.75-1.4-1.12-.94-5.92-1.93-5.91-3.08-6.75-3.64-.88-3.82,1.36.74,8.54-2.13,8.79-2.13-6.06-2.28-7.88S94.49,55.5,92.6,56s.52,5.78.66,13.58-2.66,7.91-5.39,7.77-3.78-4.83-2-9.66S87,59,85.74,58s-2.7,1.33-3.68,1.4-1.64-.77-2.1-1.68a4.1,4.1,0,0,0-2.44-1.65,4.67,4.67,0,0,0-3.72,1.72c-1.19,1.5-2.24.31-3.88-.21s-2.61.92-3.73,1.71-2.57,0-2.62-1.86a2.16,2.16,0,0,0-1.82-2.36c-.51,0-1.07.54-2.14,2.17s-1,4.62-1.78,6.81-3.31,1.26-4.24.66-1.31-2-.8-4.53.33-4.34-1.58-5S48,59,47.89,60.17a10.47,10.47,0,0,1-2.47,5.65C43.55,68,40,65.3,39.26,64.37s.66-3.83-.7-4.85S36.74,60.68,35,61.76s-1.95-2.4-2-2.53h0A38.83,38.83,0,0,1,35,52.63c2.8-6,8.33-7.42,3.85-10.64s-1.75-9.17-1.75-9.17c1.33-4,12.74-10.07,36.32-10.07s32,5.38,32,5.38a7.36,7.36,0,0,1,4.94,5.71c1,4.69-1.75,8.47-4.52,9.45s-.5,3.67-.5,3.67c4,2.9,6.39,8.09,7.78,14.06ZM103,34c0-3.79-13.26-6.86-29.62-6.86S43.79,30.21,43.79,34s13.26,6.86,29.62,6.86S103,37.79,103,34Z"/><path class="fef0b505-7bbd-44f8-8778-3cd390d4e92a" d="M73.41,27.14C89.77,27.14,103,30.21,103,34s-13.26,6.86-29.62,6.86S43.79,37.79,43.79,34,57.05,27.14,73.41,27.14Z"/><path class="af8608e0-9ab4-4bc2-bd27-4a5568796aeb" d="M103,34c0,3.79-13.26,6.86-29.62,6.86S43.79,37.79,43.79,34s13.26-6.86,29.62-6.86S103,30.21,103,34Z"/><path class="af8608e0-9ab4-4bc2-bd27-4a5568796aeb" d="M33.05,59.23c-3.43,15.13-7.22,50.34,9.85,69.49,0,0,2.66,2.94,5.37,3.55s23.91,5.32,44.11.75a12.68,12.68,0,0,0,5.9-3.11A38.12,38.12,0,0,0,107.72,116c3.92-10.43,5.78-18.43,6.72-31.12.52-7.15.43-16.15-1.37-23.83"/><path class="af8608e0-9ab4-4bc2-bd27-4a5568796aeb" d="M113.07,61c-1.39-6-3.82-11.16-7.78-14.06,0,0-2.26-2.69.5-3.67s5.5-4.76,4.52-9.45a7.36,7.36,0,0,0-4.94-5.71s-8.39-5.38-32-5.38-35,6.08-36.32,10.07c0,0-2.73,6,1.75,9.17S37.79,46.68,35,52.63a38.83,38.83,0,0,0-1.94,6.6"/><path class="af8608e0-9ab4-4bc2-bd27-4a5568796aeb" d="M33.05,59.23h0c0,.13.27,3.58,2,2.53s2.2-3.27,3.55-2.24,0,3.92.7,4.85,4.29,3.59,6.16,1.45a10.47,10.47,0,0,0,2.47-5.65c.14-1.17,1.4-5.74,3.32-5s2.1,2.47,1.58,5-.14,3.92.8,4.53,3.5,1.54,4.24-.66.7-5.18,1.78-6.81,1.63-2.2,2.14-2.17a2.16,2.16,0,0,1,1.82,2.36c0,1.82,1.5,2.66,2.62,1.86s2.08-2.24,3.73-1.71,2.69,1.71,3.88.21a4.67,4.67,0,0,1,3.72-1.72A4.1,4.1,0,0,1,80,57.71c.46.91,1.13,1.75,2.1,1.68s2.38-2.45,3.68-1.4,1.93,4.86.14,9.69-.74,9.52,2,9.66,5.53,0,5.39-7.77S90.71,56.48,92.6,56s3.46-.21,3.6,1.61-.59,8.12,2.28,7.88,2-6.55,2.13-8.79,2.66-2.2,3.82-1.36,3.53,2,3.08,6.75.59,5.5.94,5.92S110,70.27,111,69.75s3.28-2.47,2.06-8.72h0"/><path class="bb9ff343-2655-45b3-bec9-f5dac6845cd5" d="M42.39,102.44V82.27h5v7.45h1.49V82.27H54v20.17H48.91V93H47.42v9.44Z"/><path class="bb9ff343-2655-45b3-bec9-f5dac6845cd5" d="M56,86.32c0-1.88.32-3,1-3.49s2.25-.68,4.79-.68,4.21.24,4.85.73,1,1.63,1,3.44v12c0,1.86-.32,3-1,3.5s-2.26.72-4.81.72-4.2-.24-4.84-.74-1-1.65-1-3.48Zm5.05.12v11.8a1.42,1.42,0,0,0,.17.8.66.66,0,0,0,.57.22.79.79,0,0,0,.54-.16.56.56,0,0,0,.19-.46V86.44a1.33,1.33,0,0,0-.17-.79.87.87,0,0,0-.65-.2.65.65,0,0,0-.48.16.62.62,0,0,0-.17.46Z"/><path class="bb9ff343-2655-45b3-bec9-f5dac6845cd5" d="M69.62,102.44V82.27h4.7L76.83,92.6V82.27h4.39v20.17H76.5L74,92.55v9.89Z"/><path class="bb9ff343-2655-45b3-bec9-f5dac6845cd5" d="M83.38,102.44V82.27h8v3.25h-3v4.2h3V93h-3v6.16h3v3.28Z"/><path class="bb9ff343-2655-45b3-bec9-f5dac6845cd5" d="M95.46,102.44v-8L92.15,82.27H96.9L98.14,90l1.2-7.77h4.8l-3.38,12.18v8Z"/><path class="b0da2397-2656-45c5-80ea-c6141d47385b" d="M81.12,127.54a17.07,17.07,0,0,0,20.45-8.21c2.56-4.77-4.7-9-7.26-4.24a8.69,8.69,0,0,1-11,4.35c-5.16-1.68-7.36,6.44-2.23,8.1Z"/><path class="b0da2397-2656-45c5-80ea-c6141d47385b" d="M35.28,71.83a97.66,97.66,0,0,0-1.22,24.62c.21,2.68,4.41,2.7,4.2,0A93.42,93.42,0,0,1,39.33,73c.46-2.65-3.59-3.78-4-1.12Z"/><path class="fa048155-3269-4123-b105-cee92d0ca216" d="M41.66,58.47A2.33,2.33,0,0,0,43,62c1.05.26,1.5-1.36.45-1.62a.64.64,0,0,1-.35-1c.63-.89-.83-1.73-1.45-.85Z"/><path class="fa048155-3269-4123-b105-cee92d0ca216" d="M87.48,73.22l.61.61a.84.84,0,0,0,1.18,0,3.79,3.79,0,0,0,1-3.65.84.84,0,0,0-1.62.44,2.11,2.11,0,0,1-.52,2h1.18L88.66,72a.84.84,0,0,0-1.18,1.19Z"/><path class="fa048155-3269-4123-b105-cee92d0ca216" d="M39.23,35.12a6.32,6.32,0,0,0,4.05,7c1,.38,1.45-1.25.45-1.62a4.59,4.59,0,0,1-2.88-4.92c.17-1.06-1.45-1.51-1.62-.44Z"/><path class="fa048155-3269-4123-b105-cee92d0ca216" d="M105.62,36a12.49,12.49,0,0,1-4.56,5.55c-.89.61,0,2.06.85,1.45a14.51,14.51,0,0,0,5.33-6.56c.41-1-1.21-1.43-1.62-.44Z"/><path class="fa048155-3269-4123-b105-cee92d0ca216" d="M38.65,55.52a9.9,9.9,0,0,1,4.11-6.08c.89-.6.05-2.06-.85-1.45A11.65,11.65,0,0,0,37,55.07c-.25,1.06,1.37,1.51,1.62.45Z"/><path class="f416ab94-c6ca-47fa-b995-8ce713788f9a" d="M52.56,33.46c-.07,2,1.95,2.46,3.58,2.69a44.09,44.09,0,0,0,11,.13c1.07-.12,1.08-1.8,0-1.68-1.52.16-12.92,1-12.85-1.14,0-1.08-1.64-1.08-1.68,0Z"/><path class="f416ab94-c6ca-47fa-b995-8ce713788f9a" d="M88.07,32.79l2.25.29c.45.06.84-.43.84-.84a.86.86,0,0,0-.84-.84l-2.25-.29c-.45-.06-.84.43-.84.84a.87.87,0,0,0,.84.84Z"/><path class="bbb07158-1f34-43b9-bbe4-2051cf7b5fc5" d="M108.52,75.43a17.13,17.13,0,0,1-1.38,7.34c-.41,1,1.21,1.43,1.63.44a18.52,18.52,0,0,0,1.43-7.78.84.84,0,0,0-1.68,0Z"/><path class="e51c7ecc-aa6a-40d1-9c28-b4f8ca4270e9" d="M23.94,121.11c-5.94-1.56-10.48,4.38-9.83,9.91a9.78,9.78,0,0,0,10.59,8.61c2.25-.26,4.2-1.75,4.2-4.2,0-2.08-1.93-4.46-4.2-4.21-.8.09-1.7.18-2.14-.63-.29-.53,0-.67-.07-1.12-.16-.93.67.13-.78-.25,5.23,1.37,7.47-6.73,2.23-8.11Z"/><path class="e51c7ecc-aa6a-40d1-9c28-b4f8ca4270e9" d="M118,128.48c2.52,1.91-.17,4.65-2.45,4.52-5.4-.32-5.38,8.09,0,8.4a11.26,11.26,0,0,0,11.19-7.47c1.67-4.89-.6-9.74-4.5-12.71-1.81-1.38-4.7-.29-5.75,1.51-1.26,2.16-.3,4.37,1.51,5.75Z"/><path class="b5f4ce57-4fd2-48b2-830c-fee9be63c26b" d="M26.75,33.85s4.77.14,2.94-12.61S13.85-3.57,7.13,3.58-.4,17.42,13.32,23.46,22.83,35,26.75,33.85Z"/><path class="e94a132a-70aa-4c1c-ab2f-174eeb4514d6" d="M26.7,33.29C26,29.35,23.34,26.75,20,24.68,15.72,22,7.48,20.13,5,15.49c-3.93-7.38,5.14-13,11.49-10.68,6.56,2.43,8.57,10,10.05,16.07L28,18.3l-.21.07,2.58,1.47,0-.22c-.48-2.66-4.53-1.53-4.05,1.12l0,.21a2.1,2.1,0,0,0,2.58,1.47l.21-.07a2.16,2.16,0,0,0,1.47-2.59c-1.65-6.75-4-14.27-10.5-17.87C14.53-1.19,7.37-.58,3,4.27a11.6,11.6,0,0,0-.63,14.85C7.31,25.43,21,25.47,22.65,34.41c.48,2.65,4.53,1.53,4.05-1.12Z"/><path class="e801dec5-57ae-4d24-ac61-29e61db4dc1a" d="M9.45,7.56a5.74,5.74,0,0,0,1.81,8.63c1.21.59,2.28-1.22,1.06-1.82a3.64,3.64,0,0,1-1.39-5.32C11.76,8,10.28,6.5,9.45,7.56Z"/><circle class="b5f4ce57-4fd2-48b2-830c-fee9be63c26b" cx="115.58" cy="15.92" r="7.28"/><path class="e94a132a-70aa-4c1c-ab2f-174eeb4514d6" d="M110.31,20.25c-1-4.43-1.08-10.53,5-10.29,4.9.2,9.43,7.87,3.4,10.32-2.47,1-1.39,5.07,1.12,4,8.76-3.56,6.84-15.69-1.76-18.16a10.41,10.41,0,0,0-10.18,2.44c-3.35,3.44-2.65,8.51-1.66,12.75.62,2.64,4.67,1.52,4-1.11Z"/><path class="e801dec5-57ae-4d24-ac61-29e61db4dc1a" d="M114.83,14.35c.08-.71,1.26-.68,1.69-.43a3.37,3.37,0,0,1,1.22,2.54c.14,1.33,2.24,1.34,2.1,0-.21-1.93-1-4.22-3.17-4.73a3.13,3.13,0,0,0-3.94,2.62c-.16,1.34,2,1.33,2.1,0Z"/></g></g></svg>