<svg xmlns="http://www.w3.org/2000/svg" viewBox="0 0 267.05 68.76"><defs><style>.aedbf3c0-b52c-4c23-9872-ca6a9929f3d1{fill:#afafb0;}.bdeea97a-84f9-409d-bb09-e1849e0a76d2{fill:#40220f;}.bf8b2eb4-0b23-4123-a6e8-0bb9f3ac8898{fill:#fed85a;}.b7eee28e-f084-4569-801e-e1ab1c7d9cee{fill:#fff;}.e255ca20-7c6c-40ee-808f-12994f6af69f{fill:#fac556;}</style></defs><title>power</title><g id="b3455837-b2a9-4f0a-8a14-31859ea7e133" data-name="圖層 2"><g id="f1611c99-6177-4a05-9903-0198a630bafb" data-name="圖層 1"><rect class="aedbf3c0-b52c-4c23-9872-ca6a9929f3d1" x="44.48" y="23.04" width="136.11" height="22.69" rx="6.59"/><path class="bdeea97a-84f9-409d-bb09-e1849e0a76d2" d="M174,46.58H51.07a7.46,7.46,0,0,1-7.45-7.45v-9.5a7.46,7.46,0,0,1,7.45-7.45H174a7.46,7.46,0,0,1,7.45,7.45v9.5A7.46,7.46,0,0,1,174,46.58ZM51.07,23.9a5.74,5.74,0,0,0-5.73,5.73v9.5a5.74,5.74,0,0,0,5.73,5.73H174a5.74,5.74,0,0,0,5.73-5.73v-9.5A5.74,5.74,0,0,0,174,23.9Z"/><path class="bf8b2eb4-0b23-4123-a6e8-0bb9f3ac8898" d="M11.66,3.44H22.29a2.56,2.56,0,0,1,2.26,3.77L17.74,20A2.56,2.56,0,0,0,20,23.78h8.91a2.56,2.56,0,0,1,2.22,3.84L9.6,65.32l8.7-27.61a2.56,2.56,0,0,0-2.45-3.33H6A2.56,2.56,0,0,1,3.5,31.27L9.16,5.46A2.57,2.57,0,0,1,11.66,3.44Z"/><path class="b7eee28e-f084-4569-801e-e1ab1c7d9cee" d="M22.29,3.44a2.56,2.56,0,0,1,2.26,3.77L17.74,20A2.56,2.56,0,0,0,20,23.78h8.91a2.56,2.56,0,0,1,2.22,3.84L9.6,65.32l8.7-27.61a2.56,2.56,0,0,0-2.45-3.33H6A2.56,2.56,0,0,1,3.5,31.27L9.16,5.46a2.57,2.57,0,0,1,2.5-2H22.29m0-3.44H11.66A6,6,0,0,0,5.8,4.72L.14,30.53A6,6,0,0,0,6,37.82h8.65L6.32,64.28a3.44,3.44,0,0,0,1.9,4.19,3.39,3.39,0,0,0,1.38.29,3.43,3.43,0,0,0,3-1.74L34.13,29.33a6,6,0,0,0-5.21-9H21.47L27.59,8.83A6,6,0,0,0,22.29,0Z"/><rect class="bf8b2eb4-0b23-4123-a6e8-0bb9f3ac8898" x="44.48" y="23.04" width="118.39" height="22.69" rx="6.59"/><path class="b7eee28e-f084-4569-801e-e1ab1c7d9cee" d="M174,48.3H51.07a9.18,9.18,0,0,1-9.18-9.17v-9.5a9.18,9.18,0,0,1,9.18-9.17H174a9.18,9.18,0,0,1,9.17,9.17v9.5A9.18,9.18,0,0,1,174,48.3ZM51.07,25.62a4,4,0,0,0-4,4v9.5a4,4,0,0,0,4,4H174a4,4,0,0,0,4-4v-9.5a4,4,0,0,0-4-4Z"/><path class="bf8b2eb4-0b23-4123-a6e8-0bb9f3ac8898" d="M13.64,12.94l2.58,0a4.32,4.32,0,0,0,4.31-4.3,4.38,4.38,0,0,0-4.31-4.3l-2.58,0a4.44,4.44,0,0,0-3,1.26,4.3,4.3,0,0,0,3,7.34Z"/><path class="e255ca20-7c6c-40ee-808f-12994f6af69f" d="M12.19,10.54c.68-1.08.73-3.48,2.13-3.8a10.72,10.72,0,0,1,2.65.1c1.19.07,2.39.16,3.58.26,1.38.12,1.37-2,0-2.15-1.55-.14-3.1-.24-4.65-.31a6,6,0,0,0-3.09.29c-1.76.91-1.55,3.05-2.48,4.53-.74,1.17,1.12,2.25,1.86,1.08Z"/><path class="e255ca20-7c6c-40ee-808f-12994f6af69f" d="M21,28.06a6,6,0,0,0,2.34-.31c.55-.15,1.73-.67,2.24-.18.87.83-1.89,3.95-2.37,4.64-.79,1.14,1.08,2.22,1.86,1.09,1.21-1.75,3.87-4.48,2.43-6.77-1.56-2.48-4.4-.41-6.5-.62-1.38-.14-1.37,2,0,2.15Z"/><path class="e255ca20-7c6c-40ee-808f-12994f6af69f" d="M7,26.52a3.84,3.84,0,0,0,.09,4.11,3.88,3.88,0,0,0,3.85,1.53,1.07,1.07,0,0,0,.75-1.32,1.1,1.1,0,0,0-1.32-.75A1.62,1.62,0,0,1,8.84,27.6,1.08,1.08,0,0,0,7,26.52Z"/><path class="e255ca20-7c6c-40ee-808f-12994f6af69f" d="M51.84,31.3C47.91,42.07,64.74,39.68,70,39.37c1.38-.09,1.39-2.24,0-2.16-4,.24-19.09,2.88-16.09-5.34.48-1.3-1.6-1.86-2.08-.57Z"/><path class="e255ca20-7c6c-40ee-808f-12994f6af69f" d="M153.19,29.54c3,.85,2.72,4.34,1.83,6.66-.5,1.29,1.58,1.85,2.07.57,1.35-3.5.82-8.13-3.33-9.31a1.08,1.08,0,0,0-.57,2.08Z"/><path class="b7eee28e-f084-4569-801e-e1ab1c7d9cee" d="M212.84,38.19a6.1,6.1,0,0,1-2.67,5.28,10,10,0,0,1-5.9,1.66,10.71,10.71,0,0,1-6.48-1.75,6.82,6.82,0,0,1-2.74-5.91,4.81,4.81,0,0,1,.72-2.5,8.14,8.14,0,0,1,1.34-1.63l.7-.66c0-.14-.19-.41-.57-.82a6,6,0,0,1-1.1-1.39,5,5,0,0,1-.59-2.44A5.63,5.63,0,0,1,198.31,23a10.88,10.88,0,0,1,5.85-1.44,9.92,9.92,0,0,1,5.46,1.59,5.4,5.4,0,0,1,2.85,4.66,5.86,5.86,0,0,1-.65,2.74,6.36,6.36,0,0,1-1.17,1.59,2.73,2.73,0,0,0-.62.76,7.21,7.21,0,0,0,.72.78,8.5,8.5,0,0,1,1.37,1.76A5.69,5.69,0,0,1,212.84,38.19Zm-7.16.21c0-1.2-1-2.1-3-2.71a10.84,10.84,0,0,0-1.06-.31c-.43,0-.85.34-1.26,1a3.38,3.38,0,0,0-.57,1.66,2.49,2.49,0,0,0,.94,2,3.19,3.19,0,0,0,2.13.74C204.74,40.84,205.68,40,205.68,38.4Zm1.79-10.63a1.82,1.82,0,0,0-.85-1.55,3,3,0,0,0-1.76-.54c-1.73,0-2.59.73-2.59,2.18,0,1,1.1,1.75,3.31,2.35a1.43,1.43,0,0,0,.34.06q.6,0,1.11-1A3.46,3.46,0,0,0,207.47,27.77Z"/><path class="b7eee28e-f084-4569-801e-e1ab1c7d9cee" d="M236.27,33.38a11.82,11.82,0,0,1-3.09,8.2,10.63,10.63,0,0,1-15.86,0,11.79,11.79,0,0,1-3.11-8.2,11.68,11.68,0,0,1,3.11-8.18,10.71,10.71,0,0,1,15.84,0A11.68,11.68,0,0,1,236.27,33.38Zm-6.86,0a5.18,5.18,0,0,0-1.12-3.31,3.89,3.89,0,0,0-6.12,0,5.15,5.15,0,0,0-1.09,3.33,5.34,5.34,0,0,0,1.09,3.35,3.77,3.77,0,0,0,6.11,0A5.23,5.23,0,0,0,229.41,33.38Z"/><path class="b7eee28e-f084-4569-801e-e1ab1c7d9cee" d="M251.51,28.33a7.63,7.63,0,0,1-1.91,5.18,6.54,6.54,0,0,1-9.92,0,8,8,0,0,1,0-10.4,6.49,6.49,0,0,1,9.92,0A7.69,7.69,0,0,1,251.51,28.33Zm-4.63,0a3.42,3.42,0,0,0-.56-1.93,1.93,1.93,0,0,0-1.68-.94,2,2,0,0,0-1.69.94,3.35,3.35,0,0,0-.57,1.93,3.26,3.26,0,0,0,.59,1.9,2,2,0,0,0,1.67.95,1.94,1.94,0,0,0,1.68-.93A3.36,3.36,0,0,0,246.88,28.33Zm1.07,17a3.32,3.32,0,0,1-1.15-.52c-.6-.36-.9-.6-.9-.75s1.94-4,5.83-11.37q.48-.87,2.2-5.18.87-2.06,2.46-6.22c.14-.4.26-.59.37-.59a2.29,2.29,0,0,1,1.06.49c.48.32.72.59.72.8q0,.06-2.55,5.26c-1.81,3.64-2.78,5.62-2.93,5.94q-2.52,5.55-4.7,11.51C248.21,45.16,248.08,45.37,248,45.37Zm19.1-7.83a7.61,7.61,0,0,1-1.92,5.19,6.38,6.38,0,0,1-5,2.29,6.29,6.29,0,0,1-4.94-2.29,8,8,0,0,1,0-10.39,6.25,6.25,0,0,1,4.94-2.29,6.32,6.32,0,0,1,5,2.29A7.62,7.62,0,0,1,267.05,37.54Zm-4.66,0a3.43,3.43,0,0,0-.56-1.94,1.88,1.88,0,0,0-1.68-.94,1.93,1.93,0,0,0-1.68,1,3.38,3.38,0,0,0-.56,1.92,3.23,3.23,0,0,0,.59,1.89,1.93,1.93,0,0,0,3.33,0A3.35,3.35,0,0,0,262.39,37.54Z"/></g></g></svg>