<svg xmlns="http://www.w3.org/2000/svg" xmlns:xlink="http://www.w3.org/1999/xlink" viewBox="0 0 250.69 283.76"><defs><style>.ac9c4d81-6e03-42d8-bb09-43842a633285,.b32bdbe7-2741-493b-b253-471410f150e8,.f0e4d729-1313-4614-93a9-6f0634f8b265{fill:none;}.f658a62f-4573-4e9f-9bbb-7ceee3df84c2{fill:#4b311f;}.aa8a00c9-1a20-407a-b45e-7d3d2741c514{fill:#f6bfbe;}.a16ba963-66f7-480b-b7b1-76b3238f64ec,.aa8a00c9-1a20-407a-b45e-7d3d2741c514,.b32bdbe7-2741-493b-b253-471410f150e8,.e2eb7026-937e-4417-b813-a015c165323d,.ecb4e418-c2a9-4b63-82d3-f90482b7efeb,.f0e4d729-1313-4614-93a9-6f0634f8b265{stroke:#40220f;}.a16ba963-66f7-480b-b7b1-76b3238f64ec,.aa8a00c9-1a20-407a-b45e-7d3d2741c514,.e2eb7026-937e-4417-b813-a015c165323d,.ecb4e418-c2a9-4b63-82d3-f90482b7efeb,.f0e4d729-1313-4614-93a9-6f0634f8b265{stroke-miterlimit:10;}.aa8a00c9-1a20-407a-b45e-7d3d2741c514,.ecb4e418-c2a9-4b63-82d3-f90482b7efeb,.f0e4d729-1313-4614-93a9-6f0634f8b265{stroke-width:5.04px;}.a46100fc-4b65-48af-955a-a8067b80457f{fill:#fff;}.eeea8035-e723-4f66-9d40-63387d5a3ce3{clip-path:url(#b13495db-e096-4503-89fc-8d7f246093ee);}.ecb4e418-c2a9-4b63-82d3-f90482b7efeb{fill:#f9d3d3;}.a43ad032-0a94-4258-bb15-4e7d09e3d954{fill:#f08f9e;}.a436e916-9a5a-4f34-81a1-995ecbb97f83{fill:#f2a4b7;}.a6143314-2629-40b4-b520-c0bfbbce3c58{fill:#4b3a2f;}.fa340162-fd30-442b-b67a-14916d656831{fill:#604c3f;}.a49bff8e-59df-4331-9857-0f491d239f7d{fill:#f198a4;}.e9ced480-2c3d-4f69-8f14-3c3db7a216c2{fill:#231815;}.a6e43b9f-6e5a-423e-bff8-1fbf82979148{fill:#d53533;}.a4c9883c-7734-469d-9404-b9aa19091701{fill:#ef8889;}.e2eb7026-937e-4417-b813-a015c165323d{fill:#4ea549;}.a16ba963-66f7-480b-b7b1-76b3238f64ec,.e2eb7026-937e-4417-b813-a015c165323d{stroke-width:9.54px;}.a16ba963-66f7-480b-b7b1-76b3238f64ec{fill:#ed6a1c;}.b32bdbe7-2741-493b-b253-471410f150e8{stroke-linecap:round;stroke-linejoin:round;stroke-width:3.82px;}.b3b5a672-61b0-4bea-9b8f-29602a5d9386{fill:#ef8892;}.ef870db7-4e1c-4dd5-928c-17a7e8be2ffb{fill:#f18900;}.ff4039c3-dd0d-4f0e-bc48-7925ef354590{fill:#f5b7c3;}</style><clipPath id="b13495db-e096-4503-89fc-8d7f246093ee"><ellipse class="ac9c4d81-6e03-42d8-bb09-43842a633285" cx="98.47" cy="223.78" rx="95.66" ry="44.69"/></clipPath></defs><title>兔子</title><g id="b77d6a08-326d-41b6-b6c5-c153a82477fa" data-name="圖層 2"><g id="b42248c4-6244-4655-bea4-25049c99f16f" data-name="圖層 1"><ellipse class="f658a62f-4573-4e9f-9bbb-7ceee3df84c2" cx="98.47" cy="223.78" rx="95.66" ry="44.69"/><path class="aa8a00c9-1a20-407a-b45e-7d3d2741c514" d="M184.51,203.77c7.84-4,11.31-13.06,7.74-20.48s-13.08-10.46-21.14-6.58c-.28.13-.54.27-.81.41l-41,19.73L142.41,224l42.1-20.27Z"/><circle class="a46100fc-4b65-48af-955a-a8067b80457f" cx="177.81" cy="190.33" r="9.76"/><path class="aa8a00c9-1a20-407a-b45e-7d3d2741c514" d="M11.67,203.77c-7.85-4-11.31-13.06-7.74-20.48S17,172.83,25.07,176.71l.8.41,41,19.73L53.77,224,26.3,211.3Z"/><circle class="a46100fc-4b65-48af-955a-a8067b80457f" cx="18.37" cy="190.33" r="9.76"/><g class="eeea8035-e723-4f66-9d40-63387d5a3ce3"><circle class="aa8a00c9-1a20-407a-b45e-7d3d2741c514" cx="98.47" cy="220.42" r="60.82"/></g><circle class="a46100fc-4b65-48af-955a-a8067b80457f" cx="98.47" cy="211.3" r="40.48"/><ellipse class="ecb4e418-c2a9-4b63-82d3-f90482b7efeb" cx="116.97" cy="61.31" rx="18.5" ry="58.79"/><ellipse class="ecb4e418-c2a9-4b63-82d3-f90482b7efeb" cx="79.97" cy="61.31" rx="18.5" ry="58.79"/><ellipse class="a43ad032-0a94-4258-bb15-4e7d09e3d954" cx="116.97" cy="74.72" rx="11.02" ry="35.04"/><ellipse class="a43ad032-0a94-4258-bb15-4e7d09e3d954" cx="80.04" cy="74.72" rx="11.02" ry="35.04"/><ellipse class="a436e916-9a5a-4f34-81a1-995ecbb97f83" cx="81.1" cy="75.69" rx="9.97" ry="31.68"/><ellipse class="a436e916-9a5a-4f34-81a1-995ecbb97f83" cx="118.02" cy="75.69" rx="9.97" ry="31.68"/><ellipse class="ecb4e418-c2a9-4b63-82d3-f90482b7efeb" cx="98.47" cy="142.83" rx="81.34" ry="68.1"/><path class="a6143314-2629-40b4-b520-c0bfbbce3c58" d="M100.72,147.83l7.13-10.42a2.72,2.72,0,0,0-2.25-4.26H91.33a2.72,2.72,0,0,0-2.24,4.26l7.13,10.42A2.73,2.73,0,0,0,100.72,147.83Z"/><path class="fa340162-fd30-442b-b67a-14916d656831" d="M99.41,145.67l5.9-8.63a2.48,2.48,0,0,0-2-3.89H91.45A2.49,2.49,0,0,0,89.39,137l5.91,8.63A2.5,2.5,0,0,0,99.41,145.67Z"/><path class="a49bff8e-59df-4331-9857-0f491d239f7d" d="M66.29,162.16A35.71,35.71,0,0,0,19,128.37a57.89,57.89,0,0,0-1.84,14.46c0,20.71,11,39.26,28.46,51.75A35.74,35.74,0,0,0,66.29,162.16Z"/><path class="a49bff8e-59df-4331-9857-0f491d239f7d" d="M179.81,142.83A57.44,57.44,0,0,0,178,128.37a35.73,35.73,0,0,0-26.61,66.21C168.77,182.09,179.81,163.54,179.81,142.83Z"/><circle class="e9ced480-2c3d-4f69-8f14-3c3db7a216c2" cx="67.62" cy="125.17" r="9.63"/><circle class="e9ced480-2c3d-4f69-8f14-3c3db7a216c2" cx="129.32" cy="125.17" r="9.63"/><ellipse class="f0e4d729-1313-4614-93a9-6f0634f8b265" cx="98.47" cy="142.83" rx="81.34" ry="68.1"/><circle class="a46100fc-4b65-48af-955a-a8067b80457f" cx="64.26" cy="122.89" r="3.36"/><circle class="a46100fc-4b65-48af-955a-a8067b80457f" cx="125.96" cy="122.89" r="3.36"/><path class="a6e43b9f-6e5a-423e-bff8-1fbf82979148" d="M69.57,157.18s11-10,24.26,2c8.58,7.79,12.87-.73,22.89-2.87,7.12-1.52,14.78,2.66,14.76,9.88,0,3.63.24,12.94-14.46,18.51s-31.81,5.71-45-5.95S69.57,157.18,69.57,157.18Z"/><path class="a4c9883c-7734-469d-9404-b9aa19091701" d="M74,179a31,31,0,0,0,17.52,8.88c11.48,1.88,23.19-2.22,23.19-2.22s8.17-2.52,8.91-7.12c.7-4.31-5.38-6.46-5.38-6.46a37.92,37.92,0,0,0-17.25.25c-8.5,2.36-14.58,3.91-22.23,2.22C70.61,172.75,74,179,74,179Z"/><path class="e2eb7026-937e-4417-b813-a015c165323d" d="M178.08,137.06s-15.68-13-13.05-23.88c1.14-4.77,7.55-7.5,7.55-7.5s5-1.87,11.32,9.89,6.66-4.09,14.16-18.13c2.76-5.16,6.22-7.31,9.5-8a9.16,9.16,0,0,1,10.83,9l0,4.42a19.26,19.26,0,0,1-1.35,7.24l-4.8,13.67c-.7,1.78.27,6.42,2,7.16a4.19,4.19,0,0,0,3.15.41c4.35-.54,7.12-.6,11.69-10.75s18.91-2.47,16.51,6.64c-4.37,16.56-16,25.57-27.2,29.93L203.57,146.4Z"/><path class="a16ba963-66f7-480b-b7b1-76b3238f64ec" d="M198.41,141.73l2.84,1.25c21.61,9.58,24.66,30.57,14.58,41.35L166,237.62c-4.7,5-14.11,1-13.82-5.85l3-73.49C155.76,143.15,174.74,131.24,198.41,141.73Z"/><path class="b32bdbe7-2741-493b-b253-471410f150e8" d="M156.55,164.28s6.59-3.15,17.4.43"/><path class="b32bdbe7-2741-493b-b253-471410f150e8" d="M157.15,176.34s4.22-3.1,17.85,2.22"/><path class="b32bdbe7-2741-493b-b253-471410f150e8" d="M190.06,177.57a28.7,28.7,0,0,1,15.45,15.76"/><path class="b32bdbe7-2741-493b-b253-471410f150e8" d="M184.24,190.69a28.7,28.7,0,0,1,15.46,15.77"/><path class="b32bdbe7-2741-493b-b253-471410f150e8" d="M173.48,200.09a28.66,28.66,0,0,1,15.45,15.77"/><path class="b3b5a672-61b0-4bea-9b8f-29602a5d9386" d="M46.2,130s-11-5.84-22.94-2.84c0,0-4.81,17,.58,32.28,0,0,3.6,17.09,25.76,32.92,0,0-24.61-24.39-23.33-54.25a8.06,8.06,0,0,1,7.15-7.62A95.12,95.12,0,0,1,46.2,130Z"/><path class="ef870db7-4e1c-4dd5-928c-17a7e8be2ffb" d="M166.1,167.63c-.81-4.51,3.81-12.07,8.72-12.37,1.52-.09,1.54-2.48,0-2.39-6.64.41-12.13,9.2-11,15.4.27,1.51,2.57.87,2.3-.64Z"/><path class="ff4039c3-dd0d-4f0e-bc48-7925ef354590" d="M112.74,78.2s-36.13-7.43-65.6,15.06c0,0-19.34,11.6-25.48,34.3a34.7,34.7,0,0,1,7.2-1.19S47.68,78.87,112.74,78.2Z"/></g></g></svg>