<svg xmlns="http://www.w3.org/2000/svg" viewBox="0 0 155.49 155.49"><defs><style>.b0c48f45-2224-4599-b21f-7631911b4192{fill:#960013;stroke:#5e0000;stroke-width:4.1px;}.b0c48f45-2224-4599-b21f-7631911b4192,.b701fa61-b829-4d03-8fac-41d36ae54eb0,.bc66cacf-0aca-4b6b-bc49-7019f544dd00{stroke-miterlimit:10;}.b701fa61-b829-4d03-8fac-41d36ae54eb0{fill:#f2e8d5;stroke-width:2.02px;}.b14c7e71-92ab-40f3-97e5-61803205a7ef,.b701fa61-b829-4d03-8fac-41d36ae54eb0{stroke:#fff;}.b14c7e71-92ab-40f3-97e5-61803205a7ef,.b2b56fa1-ce4d-4bda-a85f-61309864184f{fill:none;stroke-linecap:round;stroke-linejoin:round;}.b2b56fa1-ce4d-4bda-a85f-61309864184f{stroke:#f1d6b3;stroke-width:4.04px;}.a8c13b51-6f44-4729-871f-8f95c1006ed3{fill:#f1d6b3;}.bc66cacf-0aca-4b6b-bc49-7019f544dd00{fill:#c30d23;stroke:#c30d23;stroke-width:2px;}.b14c7e71-92ab-40f3-97e5-61803205a7ef{stroke-width:3px;}</style></defs><title>商店_1</title><g id="b50fd9cd-0e3e-4ca7-9ad6-21fdd0252ce9" data-name="圖層 2"><g id="b400b47c-8446-4089-a7bc-2eced0ed6a62" data-name="圖層 1"><g id="b81c9ed8-25ea-4152-a055-e0dddbaa78e4" data-name="叉叉"><circle class="b0c48f45-2224-4599-b21f-7631911b4192" cx="77.74" cy="77.74" r="75.7"/><circle class="b701fa61-b829-4d03-8fac-41d36ae54eb0" cx="77.74" cy="77.74" r="62.26"/><path class="b2b56fa1-ce4d-4bda-a85f-61309864184f" d="M147.84,75.93a70.92,70.92,0,0,1-40.63,64.14"/><ellipse class="a8c13b51-6f44-4729-871f-8f95c1006ed3" cx="96.23" cy="143.79" rx="4.32" ry="2.72" transform="translate(-36.56 32.87) rotate(-16.34)"/><path class="b2b56fa1-ce4d-4bda-a85f-61309864184f" d="M11.69,59.22a71,71,0,0,1,29-38.92"/><rect class="a8c13b51-6f44-4729-871f-8f95c1006ed3" x="45.63" y="13.56" width="6.27" height="3.63" rx="1.82" transform="translate(-2.07 20.87) rotate(-23.67)"/></g><path class="bc66cacf-0aca-4b6b-bc49-7019f544dd00" d="M77.72,118.22c-9.89,0-19.78,0-29.66,0a8.52,8.52,0,0,1-8.67-8.74q0-17.3,0-34.57a2.28,2.28,0,0,0-.54-1.57A16.29,16.29,0,0,1,35.16,63a5,5,0,0,1,.64-2.39Q41.47,51,47.25,41.49a8.32,8.32,0,0,1,7.56-4.22h41c1.64,0,3.27,0,4.91,0a8.35,8.35,0,0,1,7.54,4.24c3.8,6.28,7.55,12.6,11.36,18.88a6.72,6.72,0,0,1,.58,4.67,16.68,16.68,0,0,1-3.82,8.61,1.59,1.59,0,0,0-.24,1c0,7.57,0,15.13,0,22.7,0,4.11,0,8.22,0,12.34a8.48,8.48,0,0,1-6.75,8.34,12.34,12.34,0,0,1-2.43.22H77.72ZM90.49,74.16a17.13,17.13,0,0,1-25.52,0C60.24,79,54.61,80.84,48,79.34v30.28H60.71v-1c0-3.91,0-7.81,0-11.71a8.44,8.44,0,0,1,8.41-8.56q8.63-.06,17.24,0a8.49,8.49,0,0,1,8.41,8.5v12.74H107.5V79.33C100.84,80.85,95.22,79,90.49,74.16ZM77.91,71.33A8.26,8.26,0,0,0,85,67.16a6.13,6.13,0,0,0,1.13-4.28c-1-5.5-2.18-11-3.27-16.47-.08-.42-.23-.62-.71-.62-3,0-5.9,0-8.86,0-.43,0-.62.1-.72.58-.91,4.7-1.88,9.38-2.8,14.08A12.32,12.32,0,0,0,69.36,64,8.43,8.43,0,0,0,77.91,71.33ZM64,45.92a2,2,0,0,0-.28-.1c-2.9,0-5.79,0-8.69,0a1,1,0,0,0-.7.48q-5.16,8.55-10.26,17.13a1.69,1.69,0,0,0-.2,1.1,8.49,8.49,0,0,0,15.34,3.09,11.8,11.8,0,0,0,1.6-5.21c.58-3.66,1.37-7.28,2.08-10.91C63.23,49.65,63.6,47.8,64,45.92Zm27.49-.11c.66,3.32,1.33,6.53,1.93,9.75.51,2.66,1,5.31,1.37,8a8.61,8.61,0,0,0,8.1,7.76,8.48,8.48,0,0,0,8.74-6.81,1.44,1.44,0,0,0-.12-1q-5.17-8.67-10.38-17.31a.88.88,0,0,0-.58-.4C97.55,45.8,94.58,45.81,91.47,45.81ZM86.19,96.94H69.26c0,.22,0,.4,0,.59,0,3.76,0,7.53,0,11.3,0,.73.24.86.91.86,5.09,0,10.17,0,15.26,0,.26,0,.51,0,.81,0Z"/><path class="b14c7e71-92ab-40f3-97e5-61803205a7ef" d="M42.91,90.9v16.46a7.29,7.29,0,0,0,7.29,7.29H66.07"/><path class="b14c7e71-92ab-40f3-97e5-61803205a7ef" d="M115.61,59.22s4.78,11.6-8.11,16.22"/><line class="b14c7e71-92ab-40f3-97e5-61803205a7ef" x1="48.99" y1="44.4" x2="40.71" y2="58.58"/><path class="b14c7e71-92ab-40f3-97e5-61803205a7ef" d="M83.66,90.9s9,.83,8.83,8.67"/></g></g></svg>