<svg xmlns="http://www.w3.org/2000/svg" viewBox="0 0 155.13 155.13"><defs><style>.b8f8b083-7a0e-4b66-a9e5-fca493c7bded{fill:#976925;stroke:#524921;stroke-width:4.09px;}.b8f8b083-7a0e-4b66-a9e5-fca493c7bded,.bc5c4a2f-399e-41c7-94a7-cc6eb07d7b82{stroke-miterlimit:10;}.ae555685-fb2c-4b2e-8438-d65559d31503,.bc5c4a2f-399e-41c7-94a7-cc6eb07d7b82{fill:#f1d6b3;}.bc5c4a2f-399e-41c7-94a7-cc6eb07d7b82,.f6cce3ed-f0ea-4e5d-a54a-566895cf0667{stroke:#fff;}.bc5c4a2f-399e-41c7-94a7-cc6eb07d7b82{stroke-width:2.01px;}.af19dfe6-a4f0-4d9c-9a92-723d3a6c907e,.ba399b8b-f017-4045-9c59-074d8d519287,.f6cce3ed-f0ea-4e5d-a54a-566895cf0667{fill:none;stroke-linecap:round;stroke-linejoin:round;}.af19dfe6-a4f0-4d9c-9a92-723d3a6c907e{stroke:#f1d6b3;stroke-width:4.03px;}.f6cce3ed-f0ea-4e5d-a54a-566895cf0667{stroke-width:20.14px;}.ba399b8b-f017-4045-9c59-074d8d519287{stroke:#976925;stroke-width:10.07px;}.b9f08e47-7129-43cb-9c85-0067282815c8{fill:#fff;}.e0001675-32fe-408b-bbef-5ad49849ce4a{fill:#524921;}</style></defs><title>叉</title><g id="f105dc56-35c6-40c3-8df4-9c971c3d32c7" data-name="圖層 2"><g id="bb3bc446-0251-4eca-9129-ccd200c8c80e" data-name="圖層 1"><g id="b0f1edf6-0926-448b-8d31-a6a91b4157ac" data-name="叉叉"><circle class="b8f8b083-7a0e-4b66-a9e5-fca493c7bded" cx="77.57" cy="77.57" r="75.52"/><circle class="bc5c4a2f-399e-41c7-94a7-cc6eb07d7b82" cx="77.57" cy="77.57" r="62.12"/><path class="af19dfe6-a4f0-4d9c-9a92-723d3a6c907e" d="M147.5,75.76a70.75,70.75,0,0,1-40.53,64"/><ellipse class="ae555685-fb2c-4b2e-8438-d65559d31503" cx="96.01" cy="143.47" rx="4.31" ry="2.71" transform="translate(-36.48 32.8) rotate(-16.34)"/><path class="af19dfe6-a4f0-4d9c-9a92-723d3a6c907e" d="M11.66,59.09a70.83,70.83,0,0,1,29-38.83"/><rect class="ae555685-fb2c-4b2e-8438-d65559d31503" x="45.53" y="13.53" width="6.25" height="3.62" rx="1.81" transform="translate(-2.07 20.82) rotate(-23.67)"/><line class="f6cce3ed-f0ea-4e5d-a54a-566895cf0667" x1="45.33" y1="109.8" x2="109.8" y2="45.33"/><line class="f6cce3ed-f0ea-4e5d-a54a-566895cf0667" x1="109.8" y1="109.8" x2="45.33" y2="45.33"/><line class="ba399b8b-f017-4045-9c59-074d8d519287" x1="46.28" y1="108.86" x2="108.86" y2="46.28"/><line class="ba399b8b-f017-4045-9c59-074d8d519287" x1="108.86" y1="108.86" x2="46.28" y2="46.28"/><rect class="b9f08e47-7129-43cb-9c85-0067282815c8" x="78.3" y="60.8" width="37.01" height="2.72" rx="1.13" transform="translate(209.22 37.66) rotate(135)"/><rect class="b9f08e47-7129-43cb-9c85-0067282815c8" x="43.04" y="96.26" width="37.01" height="2.33" rx="1.06" transform="translate(173.96 122.79) rotate(135)"/><rect class="e0001675-32fe-408b-bbef-5ad49849ce4a" x="44.18" y="55.95" width="37.01" height="1.67" rx="0.84" transform="translate(58.52 -27.7) rotate(45)"/><rect class="e0001675-32fe-408b-bbef-5ad49849ce4a" x="78.1" y="91.44" width="40.23" height="1.67" rx="0.82" transform="translate(94.02 -42.42) rotate(45)"/></g></g></g></svg>