<svg xmlns="http://www.w3.org/2000/svg" viewBox="0 0 1400 1050"><defs><style>.b163f8b7-c9d8-4214-9c00-48d05d02e92e{fill:#727171;}.aaf201ae-3ec2-42a9-8874-9254eb8588df{fill:#b5b5b6;}.a2b8fc58-3d9a-45fa-8199-f1c996f8c914{fill:#dcdddd;}.be6348a8-bf00-47bd-bcd2-d0805c2cdb21,.bfa854f2-42f6-4101-a074-95fc87dea7fe{fill:none;stroke-linecap:round;stroke-linejoin:round;stroke-width:4.99px;}.bfa854f2-42f6-4101-a074-95fc87dea7fe{stroke:#cce6d3;}.be6348a8-bf00-47bd-bcd2-d0805c2cdb21{stroke:#85c0af;}.a0c7a918-dab9-43ad-83b3-0eea98bd6719{fill:#578712;}.e4c6a003-902e-4452-9c87-1c4508979607{fill:#d9d9da;}.a8d8436e-2fe5-4472-9d9e-51b849e06793{fill:#898989;}.b834feb0-ae9a-41c7-a426-d98044635149{fill:#3e3a39;}.f421e534-06ac-4772-b315-af808fb540ea{fill:#f7f8f8;}.b7d7c318-6360-43bb-bf36-59ed8d7efc65{fill:#fee39a;}.b8fd1dce-6ae5-4743-b252-5887a200b8d7{fill:#b28247;}.f13af57b-f008-447d-8af7-9eb9f2d1ced6{fill:#f8b62d;}.a56dcca8-2869-4bf4-9717-7213716c2cf2{fill:#f8f7c2;}.a1605f4e-3b23-40f7-858e-5fa2d916b81e{fill:#c4861d;}</style></defs><title>背景</title><g id="a4639a04-3158-40f1-a600-764579af1613" data-name="圖層 2"><g id="ac476843-b7c0-40fb-b108-2424e661721c" data-name="圖層 1"><path class="b163f8b7-c9d8-4214-9c00-48d05d02e92e" d="M1310.55,429.85l-2.22,1.1a9.43,9.43,0,0,0-3.5,3.22,9.29,9.29,0,0,0-2.23,4.24,13.94,13.94,0,0,0,1.25,9.61l2,2.52a12.5,12.5,0,0,0,5.51,3.21l3.31.44a12.36,12.36,0,0,0,6.3-1.7l2.21-1.11a13.92,13.92,0,0,0,5.73-7.45,9.45,9.45,0,0,0,.23-5,9.35,9.35,0,0,0-1.48-4.64l-1.95-2.52a12.4,12.4,0,0,0-5.51-3.21l-3.31-.45a12.41,12.41,0,0,0-6.29,1.71Z"/><path class="aaf201ae-3ec2-42a9-8874-9254eb8588df" d="M1336.47,703.58c.33-.44,1.92-2.53,2.7-2.33l1.78,3A19.59,19.59,0,0,1,1340,707c-1,2.59,1.52,5.24,4,5.26,4,0,6.88-2.84,7.51-6.7.71-4.33-1.92-7.89-5.66-9.82-3.33-1.71-8.48-3.36-11.79-.92-3.79,2.78-2.61,7.91.77,10.46.66.49,2.74,1.06,3,1.61l.19-.34a7.89,7.89,0,0,1-.67,1.29,27,27,0,0,0-2.55,4.88c-1.22,3.78.12,7.82,3.82,9.54a9,9,0,0,0,10.69-2.69c3.45-4.17,2.12-9.39,4.27-14,.93-2,.64-4.56-1.49-5.69a54.18,54.18,0,0,0-15.26-5.42c-5.23-1-7.47,7-2.21,8a47,47,0,0,1,13.28,4.59l-1.49-5.68c-1.93,4.08-1.76,8.52-3.33,12.67-.09.25-1.43,1.91-.43,1.35a9.92,9.92,0,0,0,.94-1.85,23.45,23.45,0,0,0,2.3-4.45,7.59,7.59,0,0,0-2.85-8.81,7.29,7.29,0,0,0-2.66-1.38q-2-1.32-1.86,3l1,.27A13.3,13.3,0,0,0,1344,704l4,5.26c1.35-3.58,2.07-7.59-.11-11a7.65,7.65,0,0,0-8-3.6c-6.47,1.44-7.61,11.71-.27,12.64,6.4.81,10.23-7.1,5.81-11.71-5.44-5.67-12.51-1.07-16.22,3.86-3.22,4.27,4,8.42,7.18,4.19Z"/><path class="a2b8fc58-3d9a-45fa-8199-f1c996f8c914" d="M1348.85,707.75v-1.11a2.08,2.08,0,0,0-4.16,0v1.11a2.08,2.08,0,1,0,4.16,0Z"/><path class="bfa854f2-42f6-4101-a074-95fc87dea7fe" d="M143.21,113.67s11.22,2.22,18,6.37"/><path class="be6348a8-bf00-47bd-bcd2-d0805c2cdb21" d="M139.33,40.1s10,10.67,11.78,29.23"/><polygon class="a0c7a918-dab9-43ad-83b3-0eea98bd6719" points="1274.16 933.41 1257.58 962.13 1290.74 962.13 1274.16 933.41"/><polygon class="a0c7a918-dab9-43ad-83b3-0eea98bd6719" points="1301.96 933.41 1285.38 962.13 1318.55 962.13 1301.96 933.41"/><polygon class="a0c7a918-dab9-43ad-83b3-0eea98bd6719" points="1286.95 914.84 1270.37 962.13 1303.54 962.13 1286.95 914.84"/><rect class="e4c6a003-902e-4452-9c87-1c4508979607" width="1400" height="1050"/><path class="a8d8436e-2fe5-4472-9d9e-51b849e06793" d="M148.4,483.32c23.24,2.72,49.6,1.1,68.74-13.87C227.9,461,232.43,447.73,242.65,439s24-11.93,35.9-17.56c12.17-5.75,23.57-14.45,27.48-27.86,1.5-5.15-6.52-7.35-8-2.21-4.44,15.24-20.66,21.89-34.1,27.27-7.26,2.9-14.65,5.78-21.23,10.08s-11.63,9.9-16,16.48c-4.5,6.73-8.68,13.29-15.24,18.24a58.46,58.46,0,0,1-19.16,9.25c-14.2,4.07-29.28,4-43.85,2.31-5.31-.62-5.26,7.7,0,8.32Z"/><path class="a8d8436e-2fe5-4472-9d9e-51b849e06793" d="M579.31,521.82c-3.66,5-.53,10.74,3,14.83A144.8,144.8,0,0,0,596.48,551c10.28,9,21.83,14.83,35.59,15.75,14.41,1,29.89-2.88,43.63,3,12.48,5.36,21,16.93,27.47,28.39,2.63,4.66,9.81.48,7.18-4.19-5.69-10.08-12.69-19.61-22.12-26.49-10.42-7.6-22.55-9.5-35.18-9.27-13.49.24-27,1.76-39.3-5a73.47,73.47,0,0,1-15.54-11.92c-2.06-2-14-12.14-11.72-15.24,3.17-4.32-4-8.47-7.18-4.19Z"/><path class="a8d8436e-2fe5-4472-9d9e-51b849e06793" d="M886.68,669.71a58.72,58.72,0,0,0,34.69-11.78,57.32,57.32,0,0,0,13-13.61c4.06-6,6.66-12.82,10.17-19.13,12.58-22.67,38.36-35.85,64-33.78,5.33.43,5.3-7.89,0-8.32a76.08,76.08,0,0,0-64.79,28.31c-8.42,10.67-11.81,24.5-21.21,34.39a50.39,50.39,0,0,1-35.89,15.6c-5.35.07-5.36,8.38,0,8.32Z"/><path class="a8d8436e-2fe5-4472-9d9e-51b849e06793" d="M1200.76,442.75c3.93,13.18,13.89,23.73,26.42,29.25,15.07,6.65,31.24,5.9,47,2.66,16.14-3.32,33.31-7.25,45.92,6.26,9.43,10.11,13.38,23.88,19.45,36,6.55,13.1,16.35,26.18,31.58,29.1,5.23,1,7.47-7,2.21-8-13.42-2.58-21.28-14.45-26.94-25.94s-9.67-23.72-17.73-33.86c-8.63-10.86-20.81-16.11-34.66-15.26-15.93,1-30.93,7.23-47.09,5.71-16.79-1.59-33.15-11.28-38.17-28.11-1.52-5.12-9.55-2.94-8,2.21Z"/><path class="a8d8436e-2fe5-4472-9d9e-51b849e06793" d="M1248.35,741.72a60.93,60.93,0,0,1,23.44,20.9c6.65,10.24,8.91,21.25,10.36,33.2,1.3,10.67,3,21.64,9.91,30.3,6.26,7.89,16.81,12.23,26.62,9,5-1.69,2.89-9.72-2.21-8-11.63,3.88-20.22-6.74-23.26-16.73-3.26-10.68-2.82-22.07-5.71-32.83a69.05,69.05,0,0,0-35-43c-4.76-2.44-9,4.73-4.2,7.18Z"/><path class="a8d8436e-2fe5-4472-9d9e-51b849e06793" d="M632.33,810.42c16.18,28.18,49.1,43.05,80.91,36,17.21-3.84,29.89-13.63,42.27-25.63,6.63-6.43,13.56-12.24,22.77-14.37a37.3,37.3,0,0,1,26.23,3.7c4.7,2.55,8.9-4.62,4.19-7.18-14.11-7.67-31.66-7.74-45.46.76-7,4.28-12.56,10.28-18.39,15.89a72.75,72.75,0,0,1-21.31,14.78c-31,13.54-67.29,1-84-28.12-2.67-4.64-9.85-.46-7.18,4.2Z"/><path class="a8d8436e-2fe5-4472-9d9e-51b849e06793" d="M426.21,634.77c5,24.88,15.58,56.46,45.06,60.16,14.81,1.85,27.68-6.44,40.39-12.66,11.21-5.48,29.34-10.6,37,3.18,2.61,4.67,9.79.48,7.18-4.2-5.49-9.84-17.09-14-27.93-12.87-15.19,1.6-27.11,11.86-41.25,16.51s-27.37-.3-36.78-11.54-12.82-26.62-15.67-40.79c-1.06-5.24-9.07-3-8,2.21Z"/><path class="a8d8436e-2fe5-4472-9d9e-51b849e06793" d="M238.08,685.12c17.13-6,34.19-16.33,37.16-35.77,1.53-10-.25-21,5.57-29.83a27.25,27.25,0,0,1,25-11.95c5.33.43,5.3-7.89,0-8.31-19.31-1.55-35.19,13.18-37.38,31.88-1.25,10.65.05,21.72-7.27,30.54-6.39,7.71-16,12.16-25.25,15.42-5,1.77-2.85,9.8,2.21,8Z"/><path class="a8d8436e-2fe5-4472-9d9e-51b849e06793" d="M200.65,852.93c9,10.64,17.63,21.86,27.36,31.85,8,8.26,17.36,14.28,28.95,15.77s24.37-1.39,35.48,3c6,2.37,10.27,7.31,14,12.32,4,5.28,8.76,11,8.42,18-.27,5.35,8.05,5.33,8.31,0,.31-6.31-2.3-11.81-5.77-16.93s-7.2-10.34-11.73-14.5c-9.73-8.91-22-9.6-34.6-9.58-6.51,0-13.13.09-19.42-1.84s-11.52-5.94-16.14-10.45c-10.53-10.25-19.54-22.3-29-33.51-3.46-4.09-9.32,1.81-5.88,5.88Z"/><path class="a8d8436e-2fe5-4472-9d9e-51b849e06793" d="M128.07,776.14c21.66-2,30.51-22.76,36.38-40.89,1.65-5.1-6.38-7.28-8-2.21-4.51,13.92-11.11,33.21-28.36,34.79-5.28.48-5.33,8.8,0,8.31Z"/><path class="a8d8436e-2fe5-4472-9d9e-51b849e06793" d="M442.12,408.13A40.08,40.08,0,0,1,468,418.07c4,3.52,9.91-2.34,5.88-5.87a49,49,0,0,0-31.75-12.38c-5.36-.1-5.36,8.21,0,8.31Z"/><path class="a8d8436e-2fe5-4472-9d9e-51b849e06793" d="M588.7,909.79a49.5,49.5,0,0,0,60.78,15.83c4.84-2.28.63-9.45-4.19-7.18-16.81,7.91-38.59,2.26-49.41-12.85-3.09-4.31-10.3-.16-7.18,4.2Z"/><path class="a8d8436e-2fe5-4472-9d9e-51b849e06793" d="M756,377.46c-.47-24.48,16-47.52,39.51-54.71,5.1-1.56,2.92-9.59-2.21-8-26.93,8.25-46.15,34.51-45.61,62.72.1,5.34,8.42,5.36,8.31,0Z"/><path class="a8d8436e-2fe5-4472-9d9e-51b849e06793" d="M9,267.75a31.94,31.94,0,0,1,24.43,4.09c6.71,4.29,11.85,10.56,18.73,14.67,4.6,2.75,8.78-4.43,4.19-7.18-8.21-4.91-14.14-12.88-22.93-17a41,41,0,0,0-26.63-2.63c-5.22,1.19-3,9.2,2.21,8Z"/><path class="a8d8436e-2fe5-4472-9d9e-51b849e06793" d="M40.33,567.62c7.42-7.87,18.31-2.72,25.78,2.21,7,4.59,14.81,9.82,23.41,6.57,5-1.88,2.81-9.92-2.21-8-5.51,2.08-10.5-1.41-15-4.37-4.3-2.85-8.59-5.62-13.51-7.28-8.44-2.86-18.09-1.66-24.37,5-3.66,3.9,2.2,9.79,5.88,5.88Z"/><path class="a8d8436e-2fe5-4472-9d9e-51b849e06793" d="M884.66,860.71a68.7,68.7,0,0,1,24.45-44.55c13.84-11.4,34-15.52,40.27-34.31,1.7-5.09-6.33-7.27-8-2.21-3.26,9.76-12.6,15-21.09,19.64-8.24,4.52-16,9.36-22.62,16.14a77.68,77.68,0,0,0-21.31,45.29c-.62,5.31,7.69,5.26,8.31,0Z"/><path class="a8d8436e-2fe5-4472-9d9e-51b849e06793" d="M1102.7,944c7.78-4.14,17.47-.09,24.71,3.51a77.45,77.45,0,0,1,20.15,14.57c3.79,3.78,9.67-2.09,5.88-5.87a84.51,84.51,0,0,0-26.27-17.92c-9.19-4-19.37-6.41-28.66-1.47-4.73,2.51-.53,9.69,4.19,7.18Z"/><path class="a8d8436e-2fe5-4472-9d9e-51b849e06793" d="M787.36,951.59c.61-7.09,6.18-12.63,13-14,5.24-1.08,3-9.1-2.21-8a24.43,24.43,0,0,0-19.08,22.05c-.45,5.33,7.86,5.3,8.31,0Z"/><path class="b163f8b7-c9d8-4214-9c00-48d05d02e92e" d="M314.62,371.06c16.05,0,16.08-24.94,0-24.94s-16.07,24.94,0,24.94Z"/><path class="b163f8b7-c9d8-4214-9c00-48d05d02e92e" d="M785.8,508.51c16.05,0,16.07-24.94,0-24.94s-16.08,24.94,0,24.94Z"/><path class="b163f8b7-c9d8-4214-9c00-48d05d02e92e" d="M1099.54,644.85c16,0,16.08-24.94,0-24.94s-16.07,24.94,0,24.94Z"/><path class="b163f8b7-c9d8-4214-9c00-48d05d02e92e" d="M108.41,636c16,0,16.08-24.94,0-24.94S92.34,636,108.41,636Z"/><path class="b163f8b7-c9d8-4214-9c00-48d05d02e92e" d="M14.18,420.94c16.05,0,16.07-24.94,0-24.94s-16.08,24.94,0,24.94Z"/><path class="b834feb0-ae9a-41c7-a426-d98044635149" d="M820.17,837.72c16,0,16.07-24.94,0-24.94s-16.08,24.94,0,24.94Z"/><path class="b834feb0-ae9a-41c7-a426-d98044635149" d="M183.8,254.67c16,0,16.08-24.94,0-24.94s-16.07,24.94,0,24.94Z"/><path class="b834feb0-ae9a-41c7-a426-d98044635149" d="M1206,965.19c16,0,16.08-24.94,0-24.94s-16.07,24.94,0,24.94Z"/><path class="b834feb0-ae9a-41c7-a426-d98044635149" d="M348.52,728.74c.66-1.25,1.32-3,2.52-3.87.12-.08,1.09-.5,1-.4a1.24,1.24,0,0,1-.22-1.32l-.17.21c-.18-.05-1.13.54-1.39.59a4.16,4.16,0,0,1-3.35-1l1.07,4c.21-1.29-.09.39-.42.31-.14,0-.36,0-.55,0-1-.28-1.6-3,.66-2-2.06-.9-4.46-.61-5.69,1.49-1,1.76-.58,4.78,1.49,5.69a7.58,7.58,0,0,0,9.79-2.83,6.85,6.85,0,0,0-2.13-9.61,8,8,0,0,0-9.34,1.28A6.25,6.25,0,0,0,340,727c.57,2.07,2.83,3.39,4.68,4.19a12.18,12.18,0,0,0,11.24-.7c3.47-2.22,5.39-6.7,3.16-10.48-1.9-3.22-6.06-4.46-9.57-3.58-4,1-6.38,4.67-8.15,8.08-2.47,4.74,4.7,9,7.17,4.2Z"/><path class="b834feb0-ae9a-41c7-a426-d98044635149" d="M343.43,733.57c3,4.31,9.06,7.22,13.76,3.59a8.34,8.34,0,0,0,3.2-6.17,7.32,7.32,0,0,0-3.25-6.4c-1.8-1.34-4.65-.29-5.69,1.5-1.24,2.12-.31,4.33,1.49,5.68a3.39,3.39,0,0,1-.79-.86q-.07-.82-.06-.09l.05-.41c-.14.45-.12.45.06,0l-.18.31c.31-.35.3-.35,0,0a.87.87,0,0,1,.46-.27c.32-.1.23-.08-.27.07.29,0,.28-.06,0,0a.51.51,0,0,1-.38-.1,6.56,6.56,0,0,1-1.19-1,4.28,4.28,0,0,0-5.69-1.5c-1.82,1.07-2.78,3.84-1.49,5.69Z"/><path class="b834feb0-ae9a-41c7-a426-d98044635149" d="M202.75,951a15.12,15.12,0,0,1,10.76,2.83l1.84-6.94A58.51,58.51,0,0,1,201.81,949a4.24,4.24,0,0,0-4.16,4.16c0,4.86,1.89,10.72,7.74,10.87a6.71,6.71,0,0,0,5.71-2.86,12.46,12.46,0,0,0,1.43-2.79,4.45,4.45,0,0,0,.46-1.17c.06-1.15,2.15.92-1.55.65l-2.09-7.74c-1.3.71-3.63-.23-3.74-1.86-.35-5.31-8.67-5.35-8.31,0,.52,7.9,9.19,12.94,16.24,9,3.83-2.11,1.8-7.46-2.1-7.74-2.84-.21-4.83,1.68-5.93,4.12-.17.39-1.13,2.1-1,2.43-.08.62.5.61,1.74,0l-.21-.57a12.1,12.1,0,0,0-.11-2.32l-4.15,4.16a68.24,68.24,0,0,0,15.75-2.36c2.73-.74,4.39-5,1.83-6.95a23.48,23.48,0,0,0-16.64-5.26c-5.29.45-5.34,8.77,0,8.31Z"/><path class="aaf201ae-3ec2-42a9-8874-9254eb8588df" d="M1203.69,518a33.7,33.7,0,0,0,10.81,1.13l-4.16-4.16a6.73,6.73,0,0,1-3.14,5.41l6.1,2.48-3.29-8.06-2.9,5.11a12.61,12.61,0,0,1,2.6-.43c-.08,0,1.33.21,1.36.19a.2.2,0,0,1,.13.15,1.66,1.66,0,0,1,.8-1.86c.74-.37,2.65,1.39,1.78.31-1.4-1.76-4.41-1.47-5.88,0-1.73,1.73-1.4,4.11,0,5.87,3.83,4.81,11.67.7,11.55-4.86a8.43,8.43,0,0,0-4.87-7.12c-3.08-1.49-6.47-1-9.68-.27-2,.45-3.73,3.11-2.91,5.12l3.3,8.06c1,2.35,3.61,4.08,6.1,2.49a15.5,15.5,0,0,0,7.26-12.59,4.18,4.18,0,0,0-4.15-4.16,26,26,0,0,1-8.6-.83c-5.17-1.4-7.38,6.62-2.21,8Z"/><path class="aaf201ae-3ec2-42a9-8874-9254eb8588df" d="M77,469.53c-2.62,5.74-4.77,16.51,1.11,21.17,5.29,4.2,12-1.57,11.86-7.4-.07-3.26-2.25-6-4.45-8.22-1.19-1.18-2.25-2.66-3.41-3.79-.09-.09-.4-1.54-.94-.78,0,.05.18,2,.13,2.31-.57,3.89-3,6.54-1.43,10.65a7.61,7.61,0,0,0,7.31,5.13c5.35,0,5.36-8.28,0-8.31,1.12,0,2.43-6.38,2.52-7.52a10.24,10.24,0,0,0-2.08-7.45c-3.26-3.93-9.49-4.37-12.61,0-3,4.12-1,9.66,2,13.08,1.11,1.23,4.54,5.65,5.42,5.61,1.18.43,1.39,0,.61-1.25a13,13,0,0,1-.27-3.05,15.08,15.08,0,0,1,1.39-6c2.21-4.83-5-9.06-7.18-4.19Z"/><path class="b163f8b7-c9d8-4214-9c00-48d05d02e92e" d="M324,356.35c.24-.49,1.17-1.23,1.3-.77,0,0-.91-.86-1-1s.06-.5.05-.5a5.82,5.82,0,0,1-.85.94c-2.53,2.45-5.6,4.51-6.3,8.23l7-1.83c.23.23-.06-.38,0-.91.11-1.08.58-2.13.79-3.2a9.74,9.74,0,0,0-.87-7.26c-2.19-3.51-7.94-4.87-10.76-1.33l6.53,5c.77-1.07,3.52-1.25,4.25,0,.84,1.39-1.2,3-2.51,2.49-5-1.83-7.21,6.2-2.21,8,8.09,2.94,16.16-7.05,12-14.44-4-7.17-14.35-6.36-18.75-.22-2.72,3.79,3.58,8.73,6.53,5-1.35,1.69-1.4-.33-2.13-.12-.23.06-.05.48-.14.63a13.78,13.78,0,0,0-1,4.43,9,9,0,0,0,2.32,7.76c2,2.14,6.37,1.27,6.95-1.83.35-1.88,3-3.37,4.53-4.92,2.12-2.2,3.43-5.1,2.57-8.17-2-7.27-12.58-6.21-15.48-.23-2.32,4.8,4.84,9,7.18,4.2Z"/><path class="b163f8b7-c9d8-4214-9c00-48d05d02e92e" d="M774.47,492.26c-2.44,7.15-4.89,19.59.26,26.18a7.11,7.11,0,0,0,8.46,2.31c4-1.71,4.71-5.37,5.76-9.14,1.13-4,5.19-5.75,6.72-9.64,1.22-3.1.76-6.85-2-9-7.3-5.81-13.6,2.95-14.72,9.45l8.17,1.1c-.14-2,0-5.8,2.67-6.31a3,3,0,0,1,2.35.91c-.36-.33-.55.24-.21.71l-5.69,5.69c5.19,2.52,12.32,4.59,16.38-1,2.86-4,1.9-9.79-1.45-13.18-3.94-4-10.3-3.7-14.86-1-6,3.59-8.23,10.48-9.85,16.88-1.31,5.19,6.7,7.41,8,2.21,1-4.07,2-9.62,6-11.91,1.49-.85,4.93-1.86,5.4.82.55,3.1-4.32.59-5.47,0-3.34-1.62-8.38,2-5.69,5.69,6.35,8.65,20.41-.37,14.24-9.55a10.77,10.77,0,0,0-13-3.69c-5.28,2.3-7.57,8.3-7.17,13.73.31,4.35,7.32,6,8.16,1.11.14-.84,1.35-4.37.91-4.77s-2.23,1.55-2.9,2.21a14.17,14.17,0,0,0-4.08,7.35s-1.13,4,0,3.14c.26-.2-.59-4.38-.62-5.38a36.14,36.14,0,0,1,2.15-12.69c1.74-5.07-6.29-7.25-8-2.21Z"/><path class="b163f8b7-c9d8-4214-9c00-48d05d02e92e" d="M1098.74,630.19a17.45,17.45,0,0,0,21.68-2.13l-7-1.83c1.72,8.11-11.85,5.9-15.72,5.08-4.56-1-7.29,5-3.2,7.6,9,5.64,24.57,3.81,27.9-7.81,1.44-5-1-10.29-6.22-11.65-5.59-1.46-10.33,2-14.13,5.65s-9.81,6.4-7.62,12.58c2.24,6.34,9.41,6.43,14.74,4.44,10-3.74,22.7-14.73,14.59-26.36a11.64,11.64,0,0,0-14.27-3.56,9.53,9.53,0,0,0-4.74,5.21c-1.49,4.07,0,8.42-4.1,11.26-4.37,3-.22,10.23,4.19,7.17a16.49,16.49,0,0,0,5.91-6.6,15.3,15.3,0,0,0,1.32-4.73c.16-1.23-.23-3.88.79-4.71,3.17-2.59,5.12,2.5,4.81,4.69-.56,4-4.24,6.48-7.48,8.16a26.18,26.18,0,0,1-4.86,2c-4.39,1.25-1.18-.32,0-1.34,1.74-1.46,5.46-6.66,7.93-5.92,4.22,1.25-3.6,5.77-5.2,6.13a12.27,12.27,0,0,1-9.42-1.83l-3.2,7.6c6.41,1.35,13.58,2.61,19.53-1a13.29,13.29,0,0,0,6.42-14.33c-.68-3.18-4.8-3.87-7-1.84a9.09,9.09,0,0,1-11.61.83c-4.49-2.94-8.66,4.25-4.19,7.18Z"/><path class="b834feb0-ae9a-41c7-a426-d98044635149" d="M990.21,441c-5.24,6.48-11,19.55-4.54,27.13,2.87,3.38,7.51,3.49,11,1.07a15.42,15.42,0,0,0,4.56-5.6c1.58-2.92,2.36-3.44,5.34-5,8.09-4.29,3.95-17-5.25-15.12-4.63.93-6.09,5-7,9-.37,1.66-.79,1.83.66,3.14,2,1.77,1.84-.16,2.76-1.84l4.79-8.74c2.57-4.69-4.61-8.89-7.18-4.19-2.12,3.87-4.44,7.69-6.38,11.65-1.19,2.43-2,5.37-.37,7.84,3.09,4.56,9.82,2.62,12.36-1.48.62-1,2.87-6.57,1.51-7.55-.67-.48-3.79,1.76-4.3,2.19a15,15,0,0,0-2.94,3.64c-1.21,2-3.79,8.07-3.78,2.11a20.2,20.2,0,0,1,4.61-12.4c3.33-4.12-2.51-10-5.87-5.87Z"/><path class="b834feb0-ae9a-41c7-a426-d98044635149" d="M186,238.7c2.19,1.27,11.25,6.66,6.83,9.85-3,2.13-12.18-5.41-11.39-8.85.47-2.08-.63-4.65-2.91-5.11-1.91-.4-9.44-.94-9.69,1.24-.16,1.45,3.48.5,4.93.54a43.87,43.87,0,0,1,8.23,1.08,4.21,4.21,0,0,0,4.7-6.11c-4.76-8.54-18.14-3-22.7,3-2.88,3.84-3.15,9.58.67,12.91s9.32,2.52,13.67,4.52c5.42,2.49,7.63,6.81,11.19,11.16,2.8,3.42,7.39,5.2,11.26,2.24,8.74-6.66,1.64-20.15-5.91-24.25-3.48-1.89-8.06,2-5.69,5.68,1-1.06.88-1.73-.22-2a6.45,6.45,0,0,1-1.35-.83c-1-.67-1.92-1.48-3-2.05a10.79,10.79,0,0,0-6.19-1.45c-4.72.57-6.37,4.44-5.67,8.83a12.1,12.1,0,0,0,6.64,9,11.29,11.29,0,0,0,6,1c1-.1,7.5-.88,7.9-1.53h7.18l-4.42-6.31c-3.05-4.35-10.26-.2-7.18,4.2l4.42,6.31c1.77,2.53,5.46,2.81,7.18,0,2.74-4.49.1-9.61-4.52-11.5-2.5-1-5-.76-7.61-.23-3.18.64-8.76,1.5-7.21-3.95l-2.9,2.9c2.71-1.13,5.6,2.63,7.94,3.56a8.51,8.51,0,0,0,6.53.28c4.1-1.72,6.1-6.57,3.61-10.38l-5.69,5.69a10.1,10.1,0,0,1,5.19,5.86c.27.89.91,2.86.41,3.61.09.78-.07.73-.51-.15a15.19,15.19,0,0,1-1.21-1.86,32.2,32.2,0,0,0-8.91-9.18,31.34,31.34,0,0,0-12.2-4.54c-8.72-1.6,5.09-8.09,6.07-6.34l4.69-6.11c-6.32-1.37-20.91-4.35-23.45,4.52a7,7,0,0,0,3.47,8c4.27,2.51,7.77-.23,12.09.65l-2.9-5.11c-2.41,10.49,12.92,23.58,23,18.85,4.57-2.15,6.36-7.54,5.36-12.27-1.29-6.07-6.54-9.63-11.58-12.54-4.64-2.69-8.83,4.49-4.19,7.17Z"/><path class="a2b8fc58-3d9a-45fa-8199-f1c996f8c914" d="M184.91,245.39c2.67,0,2.68-4.16,0-4.16s-2.68,4.16,0,4.16Z"/><path class="a2b8fc58-3d9a-45fa-8199-f1c996f8c914" d="M315.73,359.56c2.68,0,2.68-4.16,0-4.16s-2.68,4.16,0,4.16Z"/><path class="a2b8fc58-3d9a-45fa-8199-f1c996f8c914" d="M15.29,410.55c2.67,0,2.68-4.16,0-4.16s-2.68,4.16,0,4.16Z"/><path class="a2b8fc58-3d9a-45fa-8199-f1c996f8c914" d="M110.63,626.7c2.68,0,2.68-4.16,0-4.16s-2.68,4.16,0,4.16Z"/><path class="a2b8fc58-3d9a-45fa-8199-f1c996f8c914" d="M352.32,730.89c2.67,0,2.68-4.15,0-4.15s-2.68,4.15,0,4.15Z"/><path class="a2b8fc58-3d9a-45fa-8199-f1c996f8c914" d="M208.19,954.8c2.68,0,2.68-4.15,0-4.15s-2.68,4.15,0,4.15Z"/><path class="a2b8fc58-3d9a-45fa-8199-f1c996f8c914" d="M822.38,827.33c2.68,0,2.68-4.16,0-4.16s-2.68,4.16,0,4.16Z"/><path class="a2b8fc58-3d9a-45fa-8199-f1c996f8c914" d="M1207.08,957c2.68,0,2.68-4.16,0-4.16s-2.68,4.16,0,4.16Z"/><path class="a2b8fc58-3d9a-45fa-8199-f1c996f8c914" d="M1211.52,518.07c2.67,0,2.68-4.16,0-4.16s-2.68,4.16,0,4.16Z"/><path class="a2b8fc58-3d9a-45fa-8199-f1c996f8c914" d="M1106.2,631.13c2.67,0,2.68-4.16,0-4.16s-2.68,4.16,0,4.16Z"/><path class="a2b8fc58-3d9a-45fa-8199-f1c996f8c914" d="M999.77,451.56c2.67,0,2.68-4.16,0-4.16s-2.68,4.16,0,4.16Z"/><path class="a2b8fc58-3d9a-45fa-8199-f1c996f8c914" d="M781.36,499.22c2.68,0,2.68-4.15,0-4.15s-2.68,4.15,0,4.15Z"/><path class="aaf201ae-3ec2-42a9-8874-9254eb8588df" d="M692.89,364.45a5.73,5.73,0,0,1,10.49,2.76l2.08-2.08-12.33,1.24c-.79.08-5,1.06-3.45.05,2.19-1.41,5.86-1.2,8.39-1.2L696,363.14l0,.54,1-1.8,2.26,2.45v-3.59a14.37,14.37,0,0,1-8.8,1.33l1.25,3.06c2.41-3.34,6.78-6.32,11.08-4.82,1.66.59,5.65,3.77,4.66,6-1.57,3.59-3.4,1.15-4.9.23a19.67,19.67,0,0,0-16.36-1.74l2.56,2.56c1.41-5.8,8.46-7.84,12.25-2.85l3.26-2.52a13,13,0,0,0-9.35-4.36c-2.67-.16-2.66,4,0,4.16A8.78,8.78,0,0,1,701.3,365c1.56,1.71,4.71-.62,3.27-2.52-5.85-7.69-17.49-5.86-19.85,3.85a2.1,2.1,0,0,0,2.56,2.55,15.92,15.92,0,0,1,10.66.07c2.75,1,5,4.13,8,4.27,4.71.23,6.29-5.36,5.31-9.12a11.26,11.26,0,0,0-9.75-8.19c-5.58-.5-10.27,2.83-13.4,7.16a2.08,2.08,0,0,0,1.24,3.05,19.52,19.52,0,0,0,12-1.75,2.09,2.09,0,0,0,0-3.59c-2.49-1.18-9-1-6.8,3.73,1.41,3,5.4,1.56,5.6-1.33a2.1,2.1,0,0,0-2.07-2.08c-3.47,0-16.2.92-13.46,7.69,1,2.52,3.86,2.23,6.06,2,4.93-.45,9.86-1,14.79-1.48,1-.11,2.21-.88,2.07-2.08-1-9.76-12.46-12.84-18.23-4.86-1.57,2.17,2,4.25,3.59,2.1Z"/><path class="f421e534-06ac-4772-b315-af808fb540ea" d="M698.21,366.21c2.68,0,2.68-4.16,0-4.16s-2.67,4.16,0,4.16Z"/><path class="b7d7c318-6360-43bb-bf36-59ed8d7efc65" d="M1396.84,71.14h-74.33a.64.64,0,0,0-.47.22.39.39,0,0,1-.06.11l-37.16,64.36-.09.14a.62.62,0,0,0,0,.38l.09.15L1322,200.86a1.17,1.17,0,0,1,0,.11.64.64,0,0,0,.47.22h74.33a.68.68,0,0,0,.57-.33l2.59-4.48V129.85a77.09,77.09,0,0,0-5.3-10.6c-2.48-4.13-5.48-9.26-9.56-12-4.42-3-10.32-2.93-15.44-2.78-7.15.21-14.21,1-21.36.2-5.84-.68-10.84-4.42-10.84-10.84,0-5.38,5-11.52,10.84-10.84,16.5,1.91,34.29-4,49.06,6.43.89.63,1.75,1.3,2.6,2V76l-2.59-4.48A.65.65,0,0,0,1396.84,71.14Zm-47.64,99.33c3.49,3.36,8.84,3.12,13.41,3.25a127.76,127.76,0,0,0,21.06-1c5.83-.79,11.62,1.31,13.34,7.58,1.4,5.1-1.77,12.54-7.57,13.33a161.08,161.08,0,0,1-27.75,1.7c-7.93-.28-16.33-1-23.1-5.62-7.58-5.12-12.84-14.22-18.19-21.51q-7.71-10.52-15.05-21.3c-3.32-4.86-.9-12,3.89-14.83,5.3-3.11,11.53-.94,14.83,3.89q6.3,9.23,12.86,18.29C1340.78,159.59,1344.47,165.9,1349.2,170.47Z"/><path class="b8fd1dce-6ae5-4743-b252-5887a200b8d7" d="M1396.84,201.19a5,5,0,0,1,3.16,1.14v-6l-2.59,4.48A.68.68,0,0,1,1396.84,201.19Z"/><path class="b8fd1dce-6ae5-4743-b252-5887a200b8d7" d="M1397.51,71.09a5,5,0,0,1-.67,0,.65.65,0,0,1,.57.33L1400,76v-.48l-2.31-4C1397.62,71.35,1397.57,71.22,1397.51,71.09Z"/><path class="b8fd1dce-6ae5-4743-b252-5887a200b8d7" d="M1322.51,201.19a.64.64,0,0,1-.47-.22l.12.24Z"/><path class="b8fd1dce-6ae5-4743-b252-5887a200b8d7" d="M1284.73,136c0,.07-.09.13-.13.19s.09.13.13.19A.62.62,0,0,1,1284.73,136Z"/><path class="b8fd1dce-6ae5-4743-b252-5887a200b8d7" d="M1322.16,71.11l-.12.25a.64.64,0,0,1,.47-.22C1322.39,71.14,1322.28,71.12,1322.16,71.11Z"/><path class="b8fd1dce-6ae5-4743-b252-5887a200b8d7" d="M1397.51,71.09c.06.13.11.26.18.38l2.31,4V70A5,5,0,0,1,1397.51,71.09Z"/><path class="f13af57b-f008-447d-8af7-9eb9f2d1ced6" d="M1317.92,3.92c4.85,7,9.66,14.09,14.55,21.09,3.41,4.89,7.14,10.28,12.55,13.12,6,3.15,13.37,2.62,19.9,2.69l26.87.25A10,10,0,0,1,1400,45V0h-86.39A12.69,12.69,0,0,1,1317.92,3.92Z"/><path class="f13af57b-f008-447d-8af7-9eb9f2d1ced6" d="M1284.73,2l.09.15L1322,66.47a1.17,1.17,0,0,1,0,.11.64.64,0,0,0,.47.22h74.33a.66.66,0,0,0,.57-.33L1400,62V59a9.84,9.84,0,0,1-8.21,3.77c-10.17-.1-20.35-.13-30.53-.29-9.37-.16-18.82-1-27.19-5.61-7.75-4.25-13.4-11.24-18.48-18.28-5.62-7.79-10.94-15.81-16.4-23.71-3.34-4.85-.88-12,3.89-14.84l.07,0H1285.6l-.84,1.44A.63.63,0,0,0,1284.73,2Z"/><path class="b8fd1dce-6ae5-4743-b252-5887a200b8d7" d="M1396.84,66.8h-74.33a.64.64,0,0,1-.47-.22,5,5,0,0,1,.12,4.53c.12,0,.23,0,.35,0h74.33a5,5,0,0,0,.67,0A5,5,0,0,0,1400,70V62l-2.59,4.48A.66.66,0,0,1,1396.84,66.8Z"/><path class="b8fd1dce-6ae5-4743-b252-5887a200b8d7" d="M1284.73,2a.63.63,0,0,1,0-.52L1285.6,0h-3.17A5.09,5.09,0,0,1,1284.73,2Z"/><path class="b7d7c318-6360-43bb-bf36-59ed8d7efc65" d="M1281.07,133.66l37.16-64.36a.65.65,0,0,0,0-.66L1281.06,4.27a.65.65,0,0,0-.57-.33h-74.33a.68.68,0,0,0-.58.33l-37.16,64.37a.65.65,0,0,0,0,.66l37.16,64.36a.67.67,0,0,0,.58.34h74.33A.67.67,0,0,0,1281.07,133.66ZM1255.79,35.3,1244.86,35,1223,34.5c-14-.34-14-22,0-21.68l25.85.62c8.19.2,18.67-1.21,26.21,2.44,7.36,3.57,11.37,11.82,15.8,18.36l14,20.65c3.3,4.87.92,12-3.89,14.84-5.29,3.09-11.55,1-14.83-3.89l-11.84-17.48q-3.24-4.76-6.46-9.53c-.54-.79-3.62-4.18-1.44-3.26C1263.77,34.48,1258.63,35.37,1255.79,35.3ZM1270.43,123c-16.26,1-32.33,5.75-48.08-.92-7.91-3.36-13.55-9.31-19.3-15.49l-16.59-17.82c-9.51-10.21,5.8-25.57,15.33-15.33l15.32,16.45c4,4.34,8,9.87,13.62,12.33,11.94,5.26,27.36-.12,39.7-.91,5.88-.37,10.85,5.26,10.85,10.85C1281.28,118.26,1276.28,122.61,1270.43,123Z"/><path class="b8fd1dce-6ae5-4743-b252-5887a200b8d7" d="M1204,4.28,1166.8,68.64l-.22.33c.07.11.15.21.22.33L1204,133.66a4.88,4.88,0,0,1,.32.7,5.14,5.14,0,0,1,1.87-.36.67.67,0,0,1-.58-.34L1168.42,69.3a.65.65,0,0,1,0-.66l37.16-64.37a.68.68,0,0,1,.58-.33h74.33a.65.65,0,0,1,.57.33l37.17,64.37a.65.65,0,0,1,0,.66l-37.16,64.36a.67.67,0,0,1-.58.34,5,5,0,0,1,4.11,2.16c0-.06.09-.12.13-.19l.09-.14L1322,71.47a.39.39,0,0,0,.06-.11l.12-.25a5,5,0,0,0-.12-4.53,1.17,1.17,0,0,0,0-.11L1284.82,2.11l-.09-.15a5.09,5.09,0,0,0-2.3-2H1204.3A5,5,0,0,1,1204,4.28Z"/><path class="b7d7c318-6360-43bb-bf36-59ed8d7efc65" d="M1318.23,203l-37.17-64.36a.64.64,0,0,0-.57-.34h-74.33a.68.68,0,0,0-.58.33L1168.42,203a.65.65,0,0,0,0,.66l37.16,64.36a.67.67,0,0,0,.58.34h74.33a.64.64,0,0,0,.46-.23l.06-.11,37.16-64.36.1-.14A.67.67,0,0,0,1318.23,203Zm-59.06,54.5-24,0c-6.85,0-16.12,1.53-22.36-1.8-5.88-3.14-10.17-9.8-14.19-14.94-4.58-5.84-8.94-11.82-13-18-3.25-4.91-1-12,3.89-14.84,5.25-3.07,11.6-1,14.83,3.89s6.6,9.72,10.21,14.34c1.71,2.19,3.48,4.34,5.27,6.46.8.94,1.88,1.94,2.64,3,6.22-.53,33.81.22,36.72.22C1273.15,235.83,1273.13,257.52,1259.17,257.53Zm19.45-57.68-19.7-32.09c0-.06-.54-.82-1-1.59a15.74,15.74,0,0,0-2-.56c-2.82-.41-5.64-.79-8.46-1.18l-17.85-2.5c-5.84-.81-9-8.26-7.58-13.33,1.7-6.17,7.55-8.39,13.34-7.58l20.68,2.89c7.46,1,14,1.58,18.74,8.26,8.22,11.7,15.13,24.55,22.61,36.74C1304.67,200.85,1285.91,211.73,1278.62,199.85Z"/><path class="b7d7c318-6360-43bb-bf36-59ed8d7efc65" d="M1221.2,235.89s.06-.06.14-.09S1221.21,235.81,1221.2,235.89Z"/><path class="b8fd1dce-6ae5-4743-b252-5887a200b8d7" d="M1281,268.16a.64.64,0,0,1-.46.23h-74.33a.67.67,0,0,1-.58-.34l-37.16-64.36a.65.65,0,0,1,0-.66l37.16-64.37a.68.68,0,0,1,.58-.33h74.33a.64.64,0,0,1,.57.34L1318.23,203a.67.67,0,0,1,0,.52,5,5,0,0,1,3.89-2.34L1322,201a1.17,1.17,0,0,0,0-.11l-37.17-64.36-.09-.15c0-.06-.09-.12-.13-.19a5,5,0,0,0-4.11-2.16h-74.33a5.14,5.14,0,0,0-1.87.36,5,5,0,0,1-.33,4.31L1166.8,203a5,5,0,0,1-2.47,2.13,4.47,4.47,0,0,0,.33.7l37.16,64.36a5,5,0,0,0,4.34,2.5h74.33l.34,0A5,5,0,0,1,1281,268.16Z"/><path class="f13af57b-f008-447d-8af7-9eb9f2d1ced6" d="M1396.84,205.53h-74.33a.68.68,0,0,0-.58.33l-37.17,64.36a.72.72,0,0,0,0,.67l37.17,64.36a.68.68,0,0,0,.58.33h74.33a.65.65,0,0,0,.57-.33l2.59-4.48V324a11.73,11.73,0,0,1-9,4.82c-8.58.47-17.16.75-25.75.79-8,0-16.32.27-23.46-3.87-6.79-3.94-11-11.18-15.4-17.42L1312.18,288c-3.38-4.82-.84-12.06,3.89-14.83,5.36-3.13,11.48-.9,14.84,3.89l12,17.17c2.7,3.84,5.64,10.25,9.81,12.75s11.93.94,16.48.88q10.9-.13,21.79-.75a10.29,10.29,0,0,1,9,4.85V263.62c-5.75-8.57-11.77-17.68-18.94-24.9-1.41-.18-2.91-.07-4.33-.11l-9.63-.24-19.26-.49c-14-.35-14-22,0-21.68l23.11.58c7.37.19,15.58-.66,22,3.64a33.91,33.91,0,0,1,7.07,6.77V210.34l-2.59-4.48A.68.68,0,0,0,1396.84,205.53Z"/><path class="b8fd1dce-6ae5-4743-b252-5887a200b8d7" d="M1396.84,201.19h-74.33l-.35,0a5,5,0,0,0-3.89,2.34l-.1.14L1281,268.05l-.06.11a5,5,0,0,0-.12,4.54c.06.12.11.24.18.36l37.16,64.36a5,5,0,0,0,4.34,2.5h74.33a5,5,0,0,0,3.16-1.14v-8l-2.59,4.48a.65.65,0,0,1-.57.33h-74.33a.68.68,0,0,1-.58-.33l-37.17-64.36a.72.72,0,0,1,0-.67l37.17-64.36a.68.68,0,0,1,.58-.33h74.33a.68.68,0,0,1,.57.33l2.59,4.48v-8A5,5,0,0,0,1396.84,201.19Z"/><path class="a56dcca8-2869-4bf4-9717-7213716c2cf2" d="M1392.93,220.42c-6.4-4.3-14.61-3.45-22-3.64l-23.11-.58c-14-.36-14,21.33,0,21.68l19.26.49,9.63.24c1.42,0,2.92-.07,4.33.11,7.17,7.22,13.19,16.33,18.94,24.9V227.19A33.91,33.91,0,0,0,1392.93,220.42Z"/><path class="a56dcca8-2869-4bf4-9717-7213716c2cf2" d="M1274.74,152.17c-4.69-6.68-11.28-7.22-18.74-8.26L1235.32,141c-5.79-.81-11.64,1.41-13.34,7.58-1.39,5.07,1.74,12.52,7.58,13.33l17.85,2.5c2.82.39,5.64.77,8.46,1.18a15.74,15.74,0,0,1,2,.56c.49.77,1,1.53,1,1.59l19.7,32.09c7.29,11.88,26.05,1,18.73-10.94C1289.87,176.72,1283,163.87,1274.74,152.17Z"/><path class="a56dcca8-2869-4bf4-9717-7213716c2cf2" d="M1267.81,38.83q3.23,4.77,6.46,9.53l11.84,17.48c3.28,4.84,9.54,7,14.83,3.89,4.81-2.81,7.19-10,3.89-14.84l-14-20.65c-4.43-6.54-8.44-14.79-15.8-18.36-7.54-3.65-18-2.24-26.21-2.44L1223,12.82c-14-.34-14,21.34,0,21.68l21.88.53,10.93.27c2.84.07,8-.82,10.58.27C1264.19,34.65,1267.27,38,1267.81,38.83Z"/><path class="a56dcca8-2869-4bf4-9717-7213716c2cf2" d="M1348.34,83c-5.82-.68-10.84,5.46-10.84,10.84,0,6.42,5,10.16,10.84,10.84,7.15.83,14.21,0,21.36-.2,5.12-.15,11-.21,15.44,2.78,4.08,2.75,7.08,7.88,9.56,12a77.09,77.09,0,0,1,5.3,10.6V91.41c-.85-.7-1.71-1.37-2.6-2C1382.63,79,1364.84,84.89,1348.34,83Z"/><path class="a1605f4e-3b23-40f7-858e-5fa2d916b81e" d="M1391,307.13q-10.89.6-21.79.75c-4.55.06-12.43,1.55-16.48-.88s-7.11-8.91-9.81-12.75l-12-17.17c-3.36-4.79-9.48-7-14.84-3.89-4.73,2.77-7.27,10-3.89,14.83l14.25,20.29c4.37,6.24,8.61,13.48,15.4,17.42,7.14,4.14,15.47,3.9,23.46,3.87,8.59,0,17.17-.32,25.75-.79a11.73,11.73,0,0,0,9-4.82V312A10.29,10.29,0,0,0,1391,307.13Z"/><path class="a1605f4e-3b23-40f7-858e-5fa2d916b81e" d="M1259.17,235.85c-2.91,0-30.5-.75-36.72-.22-.76-1-1.84-2-2.64-3-1.79-2.12-3.56-4.27-5.27-6.46-3.61-4.62-7-9.45-10.21-14.34s-9.58-7-14.83-3.89c-4.85,2.84-7.14,9.93-3.89,14.84,4.09,6.18,8.45,12.16,13,18,4,5.14,8.31,11.8,14.19,14.94,6.24,3.33,15.51,1.81,22.36,1.8l24,0C1273.13,257.52,1273.15,235.83,1259.17,235.85Zm-37.83,0c-.08,0-.14.06-.14.09S1221.27,235.79,1221.34,235.8Z"/><path class="a1605f4e-3b23-40f7-858e-5fa2d916b81e" d="M1270.43,101.29c-12.34.79-27.76,6.17-39.7.91-5.58-2.46-9.58-8-13.62-12.33l-15.32-16.45c-9.53-10.24-24.84,5.12-15.33,15.33l16.59,17.82c5.75,6.18,11.39,12.13,19.3,15.49,15.75,6.67,31.82,2,48.08.92,5.85-.37,10.85-4.72,10.85-10.84C1281.28,106.55,1276.31,100.92,1270.43,101.29Z"/><path class="a1605f4e-3b23-40f7-858e-5fa2d916b81e" d="M1324.07,136c-3.3-4.83-9.53-7-14.83-3.89-4.79,2.8-7.21,10-3.89,14.83q7.35,10.77,15.05,21.3c5.35,7.29,10.61,16.39,18.19,21.51,6.77,4.58,15.17,5.34,23.1,5.62a161.08,161.08,0,0,0,27.75-1.7c5.8-.79,9-8.23,7.57-13.33-1.72-6.27-7.51-8.37-13.34-7.58a127.76,127.76,0,0,1-21.06,1c-4.57-.13-9.92.11-13.41-3.25-4.73-4.57-8.42-10.88-12.27-16.18Q1330.36,145.23,1324.07,136Z"/><path class="a1605f4e-3b23-40f7-858e-5fa2d916b81e" d="M1299.19,14.87c5.46,7.9,10.78,15.92,16.4,23.71,5.08,7,10.73,14,18.48,18.28,8.37,4.59,17.82,5.45,27.19,5.61,10.18.16,20.36.19,30.53.29A9.84,9.84,0,0,0,1400,59V45a10,10,0,0,0-8.21-3.92l-26.87-.25c-6.53-.07-13.94.46-19.9-2.69-5.41-2.84-9.14-8.23-12.55-13.12-4.89-7-9.7-14.06-14.55-21.09A12.69,12.69,0,0,0,1313.61,0h-10.46l-.07,0C1298.31,2.82,1295.85,10,1299.19,14.87Z"/><path class="b8fd1dce-6ae5-4743-b252-5887a200b8d7" d="M505.4.4h74.33l.36,0a3.52,3.52,0,0,1,.15-.42h-75a3.1,3.1,0,0,1,.13.4Z"/><path class="b7d7c318-6360-43bb-bf36-59ed8d7efc65" d="M1050.39,135.83a.72.72,0,0,0,0,.67l37.17,64.36a.68.68,0,0,0,.58.33h74.33a.66.66,0,0,0,.57-.33l37.17-64.36a.67.67,0,0,0,0-.67L1163,71.47a.66.66,0,0,0-.57-.33h-74.33a.66.66,0,0,0-.58.33Zm65.27-48c7.07-.19,14.14-.22,21.21,0,6.24.17,13.49-.28,19.24,2.46,6.06,2.88,9.35,9,13,14.34l11.68,17.11c3.32,4.86.9,12-3.89,14.83-5.31,3.11-11.54.95-14.84-3.89s-6.67-9.77-10-14.66c-1.48-2.18-3-4.34-4.45-6.52-.7-1-1.33-1.69-1-1.79a65.17,65.17,0,0,0-6.81-.1c-2.57-.1-5.14-.16-7.71-.2-5.47-.08-10.93,0-16.39.12C1101.67,109.88,1101.73,88.2,1115.66,87.83Zm-26.49,52.33,13.6,16.73,6.8,8.36c1,1.27,2,2.54,3.09,3.8.52.66,1.06,1.31,1.6,1.95l1.16,0h5.84l9.72,0,21.39-.05c14,0,14,21.66,0,21.69l-24.31.05c-7,0-15.92,1.44-22.54-1.4-7.21-3.08-12-11.58-16.85-17.48l-14.84-18.25c-3.7-4.56-4.49-10.83,0-15.33C1077.68,136.32,1085.47,135.61,1089.17,140.16Z"/><path class="b8fd1dce-6ae5-4743-b252-5887a200b8d7" d="M1166.8,203,1204,138.67a5,5,0,0,0,.33-4.31,4.88,4.88,0,0,0-.32-.7L1166.8,69.3c-.07-.12-.15-.22-.22-.33a5,5,0,0,1-4.11,2.17.66.66,0,0,1,.57.33l37.17,64.36a.67.67,0,0,1,0,.67L1163,200.86a.66.66,0,0,1-.57.33h-74.33a.68.68,0,0,1-.58-.33l-37.17-64.36a.72.72,0,0,1,0-.67l37.17-64.36a.66.66,0,0,1,.58-.33,4.91,4.91,0,0,1-.67,0c-.06.13-.12.26-.19.38l-37.16,64.36a3.88,3.88,0,0,1-.23.33,4,4,0,0,1,.23.34l37.16,64.36a5,5,0,0,1,.19,4.62,4.91,4.91,0,0,0,.67.05h74.33a4.86,4.86,0,0,0,1.86-.37A5,5,0,0,0,1166.8,203Z"/><path class="f13af57b-f008-447d-8af7-9eb9f2d1ced6" d="M933.67,69.16l.1.14,37.16,64.36.06.11a.64.64,0,0,0,.46.23h74.33a.67.67,0,0,0,.58-.34l37.17-64.36a.7.7,0,0,0,0-.66L1046.36,4.27a.68.68,0,0,0-.58-.33H971.45a.63.63,0,0,0-.46.22l-.06.11L933.77,68.64l-.1.14A.62.62,0,0,0,933.67,69.16Zm63.62-53.38c16.5,1.91,34.28-4,49,6.43,13.16,9.28,21.35,26.55,26,41.51,4.12,13.39-16.82,19.07-20.91,5.77a78,78,0,0,0-7.74-17.44c-2.47-4.12-5.48-9.26-9.55-12-4.42-3-10.33-2.92-15.44-2.77-7.15.21-14.22,1-21.36.19-5.84-.67-10.84-4.42-10.84-10.84C986.45,21.25,991.46,15.1,997.29,15.78ZM958.18,64.91c5.31-3.1,11.54-.94,14.84,3.89q6.3,9.24,12.86,18.29c3.85,5.31,7.53,11.62,12.27,16.18,3.49,3.37,8.84,3.12,13.41,3.26a127.81,127.81,0,0,0,21.06-1c5.82-.8,11.62,1.31,13.34,7.57,1.4,5.11-1.77,12.55-7.58,13.34a160.9,160.9,0,0,1-27.74,1.7c-7.94-.29-16.33-1.05-23.1-5.62-7.59-5.13-12.85-14.22-18.19-21.51q-7.73-10.53-15.06-21.3C951,74.89,953.39,67.71,958.18,64.91Z"/><path class="b8fd1dce-6ae5-4743-b252-5887a200b8d7" d="M933.67,68.78a2.14,2.14,0,0,1-.13.19,2.14,2.14,0,0,1,.13.19A.62.62,0,0,1,933.67,68.78Z"/><path class="b8fd1dce-6ae5-4743-b252-5887a200b8d7" d="M1046.36,4.27l37.17,64.37a.7.7,0,0,1,0,.66l-37.17,64.36a.67.67,0,0,1-.58.34,5,5,0,0,1,4.11,2.16,3.88,3.88,0,0,0,.23-.33l37.16-64.36c.07-.12.13-.25.19-.38a5.06,5.06,0,0,1-3.67-2.45L1046.64,4.27c-.07-.12-.13-.25-.19-.37a4.92,4.92,0,0,1-.67,0A.68.68,0,0,1,1046.36,4.27Z"/><path class="b8fd1dce-6ae5-4743-b252-5887a200b8d7" d="M971.11,3.92l-.12.24a.63.63,0,0,1,.46-.22Z"/><path class="b8fd1dce-6ae5-4743-b252-5887a200b8d7" d="M971,133.77l.12.25.34,0A.64.64,0,0,1,971,133.77Z"/><path class="f13af57b-f008-447d-8af7-9eb9f2d1ced6" d="M1050.39,2.11l37.17,64.36a.68.68,0,0,0,.58.33h74.33a.69.69,0,0,0,.58-.33l37.16-64.36a.67.67,0,0,0,0-.67L1199.38,0h-9c-2.71,7.42-14.43,11.15-19.78,2.29L1169.21,0h-118l-.84,1.44A.72.72,0,0,0,1050.39,2.11Zm34.92,4.42q6,9.9,12.11,19.8c2,3.28,4.24,6.51,6,9.9,1,1.89.67,1.86,2.9,2.2,14.83,2.32,31.18.87,46-.78,5.86-.65,10.84,5.49,10.84,10.84,0,6.33-5,10.2-10.84,10.85a245.39,245.39,0,0,1-26.83,1.55c-8.61,0-18.34.38-26.72-1.85-9.24-2.46-13.51-10.93-18.12-18.47l-14.13-23.1C1059.27,5.52,1078-5.36,1085.31,6.53Z"/><path class="b8fd1dce-6ae5-4743-b252-5887a200b8d7" d="M1046.45,3.9c.06.12.12.25.19.37l37.16,64.37a5.06,5.06,0,0,0,3.67,2.45,4.91,4.91,0,0,0,.67,0h74.33a5,5,0,0,0,4.11-2.17l.22-.33L1204,4.28A5,5,0,0,0,1204.3,0h-4.92l.83,1.44a.67.67,0,0,1,0,.67l-37.16,64.36a.69.69,0,0,1-.58.33h-74.33a.68.68,0,0,1-.58-.33L1050.39,2.11a.72.72,0,0,1,0-.67l.84-1.44H1051l-.83,1.44A5,5,0,0,1,1046.45,3.9Z"/><path class="b8fd1dce-6ae5-4743-b252-5887a200b8d7" d="M971.11,3.92l.34,0h74.33a4.92,4.92,0,0,0,.67,0,5,5,0,0,0,3.67-2.46L1051,0H971.27A5,5,0,0,1,971.11,3.92Z"/><path class="b7d7c318-6360-43bb-bf36-59ed8d7efc65" d="M933.77,203l-.1.14a.67.67,0,0,0,0,.52l37.17,64.36a.66.66,0,0,0,.57.34h74.33a.67.67,0,0,0,.58-.34l37.17-64.36a.7.7,0,0,0,0-.66l-37.17-64.36a.67.67,0,0,0-.58-.34H971.45a.67.67,0,0,0-.46.22l-.06.11Zm63-54,23.12.59c7.37.19,15.57-.67,22,3.64,6.2,4.15,10.77,11.93,15.23,17.78s8.86,12,13.05,18.14c3.31,4.86.9,12-3.89,14.83-5.31,3.1-11.55,1-14.84-3.89-6.52-9.58-13.21-20.3-21.41-28.57-1.41-.18-2.91-.06-4.33-.1l-9.63-.24-19.27-.49C982.83,170.33,982.82,148.65,996.78,149Zm-16.92,60.88q6,8.6,12,17.17c2.7,3.85,5.63,10.25,9.81,12.76s11.92.93,16.48.88c7.27-.09,14.53-.36,21.79-.76,5.88-.32,10.84,5.22,10.84,10.85,0,6.08-5,10.52-10.84,10.84-8.58.47-17.16.75-25.76.78-8,0-16.31.27-23.46-3.87-6.78-3.93-11-11.17-15.4-17.41q-7.11-10.16-14.24-20.29c-3.38-4.82-.85-12.07,3.89-14.84C970.37,202.86,976.5,205.09,979.86,209.88Z"/><path class="b8fd1dce-6ae5-4743-b252-5887a200b8d7" d="M1087.28,200.86l-37.16-64.36a4,4,0,0,0-.23-.34,5,5,0,0,0-4.11-2.16H971.45l-.34,0a5,5,0,0,1-.12,4.53.67.67,0,0,1,.46-.22h74.33a.67.67,0,0,1,.58.34L1083.53,203a.7.7,0,0,1,0,.66l-37.17,64.36a.67.67,0,0,1-.58.34H971.45a.66.66,0,0,1-.57-.34l-37.17-64.36a.67.67,0,0,1,0-.52,5,5,0,0,1-3.89,2.34c.06.11.11.24.17.35l37.17,64.36a5,5,0,0,0,4.33,2.5h74.33a5,5,0,0,0,4.34-2.5l37.16-64.36c.07-.12.13-.25.19-.38A5,5,0,0,0,1087.28,200.86Z"/><path class="a56dcca8-2869-4bf4-9717-7213716c2cf2" d="M1115.66,109.51c5.46-.14,10.92-.2,16.39-.12,2.57,0,5.14.1,7.71.2a65.17,65.17,0,0,1,6.81.1c-.3.1.33.74,1,1.79,1.47,2.18,3,4.34,4.45,6.52q5,7.34,10,14.66c3.3,4.84,9.53,7,14.84,3.89,4.79-2.8,7.21-10,3.89-14.83l-11.68-17.11c-3.65-5.35-6.94-11.46-13-14.34-5.75-2.74-13-2.29-19.24-2.46-7.07-.2-14.14-.17-21.21,0C1101.73,88.2,1101.67,109.88,1115.66,109.51Z"/><path class="a56dcca8-2869-4bf4-9717-7213716c2cf2" d="M996.78,170.69l19.27.49,9.63.24c1.42,0,2.92-.08,4.33.1,8.2,8.27,14.89,19,21.41,28.57,3.29,4.84,9.53,7,14.84,3.89,4.79-2.8,7.2-10,3.89-14.83q-6.29-9.24-13.05-18.14c-4.46-5.85-9-13.63-15.23-17.78-6.4-4.31-14.6-3.45-22-3.64L996.78,149C982.82,148.65,982.83,170.33,996.78,170.69Z"/><path class="a56dcca8-2869-4bf4-9717-7213716c2cf2" d="M997.29,37.46c7.14.83,14.21,0,21.36-.19,5.11-.15,11-.22,15.44,2.77,4.07,2.75,7.08,7.89,9.55,12a78,78,0,0,1,7.74,17.44c4.09,13.3,25,7.62,20.91-5.77-4.6-15-12.79-32.23-26-41.51-14.77-10.41-32.55-4.52-49-6.43-5.83-.68-10.84,5.47-10.84,10.84C986.45,33,991.45,36.79,997.29,37.46Z"/><path class="a56dcca8-2869-4bf4-9717-7213716c2cf2" d="M1190.37,0h-21.16l1.38,2.29C1175.94,11.15,1187.66,7.42,1190.37,0Z"/><path class="a1605f4e-3b23-40f7-858e-5fa2d916b81e" d="M965,206c-4.74,2.77-7.27,10-3.89,14.84q7.13,10.14,14.24,20.29c4.38,6.24,8.62,13.48,15.4,17.41,7.15,4.14,15.48,3.91,23.46,3.87,8.6,0,17.18-.31,25.76-.78,5.85-.32,10.84-4.76,10.84-10.84,0-5.63-5-11.17-10.84-10.85-7.26.4-14.52.67-21.79.76-4.56.05-12.43,1.54-16.48-.88s-7.11-8.91-9.81-12.76q-6-8.58-12-17.17C976.5,205.09,970.37,202.86,965,206Z"/><path class="a1605f4e-3b23-40f7-858e-5fa2d916b81e" d="M1073.83,140.16c-4.49,4.5-3.7,10.77,0,15.33l14.84,18.25c4.8,5.9,9.64,14.4,16.85,17.48,6.62,2.84,15.5,1.42,22.54,1.4l24.31-.05c14,0,14-21.72,0-21.69l-21.39.05-9.72,0h-5.84l-1.16,0c-.54-.64-1.08-1.29-1.6-1.95-1-1.26-2.06-2.53-3.09-3.8l-6.8-8.36-13.6-16.73C1085.47,135.61,1077.68,136.32,1073.83,140.16Z"/><path class="a1605f4e-3b23-40f7-858e-5fa2d916b81e" d="M969.35,101.05c5.34,7.29,10.6,16.38,18.19,21.51,6.77,4.57,15.16,5.33,23.1,5.62a160.9,160.9,0,0,0,27.74-1.7c5.81-.79,9-8.23,7.58-13.34-1.72-6.26-7.52-8.37-13.34-7.57a127.81,127.81,0,0,1-21.06,1c-4.57-.14-9.92.11-13.41-3.26-4.74-4.56-8.42-10.87-12.27-16.18Q979.31,78,973,68.8c-3.3-4.83-9.53-7-14.84-3.89-4.79,2.8-7.21,10-3.89,14.84Q961.64,90.52,969.35,101.05Z"/><path class="a1605f4e-3b23-40f7-858e-5fa2d916b81e" d="M1080.71,40.57c4.61,7.54,8.88,16,18.12,18.47,8.38,2.23,18.11,1.86,26.72,1.85a245.39,245.39,0,0,0,26.83-1.55c5.82-.65,10.84-4.52,10.84-10.85,0-5.35-5-11.49-10.84-10.84-14.83,1.65-31.18,3.1-46,.78-2.23-.34-1.88-.31-2.9-2.2-1.81-3.39-4-6.62-6-9.9q-6.06-9.9-12.11-19.8c-7.27-11.89-26-1-18.73,10.94Z"/><path class="b7d7c318-6360-43bb-bf36-59ed8d7efc65" d="M817.36,135.83a.67.67,0,0,0,0,.67l37.17,64.36a.68.68,0,0,0,.57.33h74.33a.68.68,0,0,0,.58-.33l37.17-64.36a.72.72,0,0,0,0-.67L930,71.47a.66.66,0,0,0-.58-.33H855.1a.68.68,0,0,0-.57.33ZM929,132.66q-5-7.34-10-14.66c-1.49-2.18-3-4.34-4.45-6.52-.71-1-1.33-1.69-1-1.79a65.17,65.17,0,0,0-6.81-.1c-2.57-.1-5.14-.16-7.71-.2-5.47-.08-10.93,0-16.4.12-14,.37-13.93-21.31,0-21.68,7.08-.19,14.15-.22,21.22,0,6.24.17,13.48-.28,19.24,2.46,6.06,2.88,9.35,9,13,14.34l11.69,17.11c3.31,4.86.9,12-3.89,14.83C938.56,139.66,932.33,137.5,929,132.66Zm-72.89,7.5,13.59,16.73,6.8,8.36,3.09,3.8c.53.66,1.06,1.31,1.61,1.95l1.16,0h5.83l9.73,0,21.39-.05c14,0,13.95,21.66,0,21.69l-24.31.05c-7,0-15.92,1.44-22.54-1.4-7.21-3.08-12.06-11.58-16.85-17.48L840.8,155.49c-3.7-4.56-4.5-10.83,0-15.33C844.64,136.32,852.44,135.61,856.14,140.16Z"/><path class="b8fd1dce-6ae5-4743-b252-5887a200b8d7" d="M933.67,203.17l.1-.14,37.16-64.37.06-.11a5,5,0,0,0,.12-4.53l-.12-.25-.06-.11L933.77,69.3l-.1-.14a2.14,2.14,0,0,0-.13-.19,5,5,0,0,1-4.11,2.17.66.66,0,0,1,.58.33l37.17,64.36a.72.72,0,0,1,0,.67L930,200.86a.68.68,0,0,1-.58.33H855.1a.68.68,0,0,1-.57-.33L817.36,136.5a.67.67,0,0,1,0-.67l37.17-64.36a.68.68,0,0,1,.57-.33,5.16,5.16,0,0,1-.67,0c-.06.13-.11.26-.18.38l-37.17,64.36a2.37,2.37,0,0,1-.22.33,2.46,2.46,0,0,1,.22.34l37.17,64.36a5,5,0,0,1,.18,4.62,5.16,5.16,0,0,0,.67.05h74.33l.35,0A5,5,0,0,0,933.67,203.17Z"/><path class="f13af57b-f008-447d-8af7-9eb9f2d1ced6" d="M700.64,69.16l.1.14,37.16,64.36a1.17,1.17,0,0,0,.05.11.68.68,0,0,0,.47.23h74.33a.67.67,0,0,0,.58-.34L850.49,69.3a.65.65,0,0,0,0-.66L813.33,4.27a.68.68,0,0,0-.58-.33H738.42a.67.67,0,0,0-.47.22l-.05.12L700.74,68.64l-.1.14A.62.62,0,0,0,700.64,69.16Zm63.62-53.38c16.5,1.91,34.28-4,49,6.43,13.16,9.28,21.35,26.55,26,41.51,4.11,13.39-16.83,19.07-20.92,5.77a77.92,77.92,0,0,0-7.73-17.44c-2.47-4.12-5.48-9.26-9.56-12-4.41-3-10.32-2.92-15.43-2.77-7.16.21-14.22,1-21.36.19-5.85-.67-10.85-4.42-10.85-10.84C753.41,21.25,758.43,15.1,764.26,15.78ZM725.15,64.91c5.31-3.1,11.54-.94,14.84,3.89q6.3,9.24,12.85,18.29c3.85,5.31,7.54,11.62,12.27,16.18,3.5,3.37,8.84,3.12,13.42,3.26a127.64,127.64,0,0,0,21.05-1c5.83-.8,11.62,1.31,13.34,7.57,1.41,5.11-1.76,12.55-7.57,13.34a161,161,0,0,1-27.74,1.7c-7.94-.29-16.34-1.05-23.1-5.62-7.59-5.13-12.85-14.22-18.2-21.51q-7.71-10.53-15-21.3C717.94,74.89,720.36,67.71,725.15,64.91Z"/><path class="b8fd1dce-6ae5-4743-b252-5887a200b8d7" d="M738.07,3.92a1.34,1.34,0,0,1-.12.24.67.67,0,0,1,.47-.22Z"/><path class="b8fd1dce-6ae5-4743-b252-5887a200b8d7" d="M700.64,68.78a2.14,2.14,0,0,1-.13.19,2.14,2.14,0,0,1,.13.19A.62.62,0,0,1,700.64,68.78Z"/><path class="b8fd1dce-6ae5-4743-b252-5887a200b8d7" d="M850.49,68.64a.65.65,0,0,1,0,.66l-37.16,64.36a.67.67,0,0,1-.58.34,5,5,0,0,1,4.11,2.16,2.37,2.37,0,0,0,.22-.33l37.17-64.36c.07-.12.12-.25.18-.38a5,5,0,0,1-3.66-2.45L813.61,4.27c-.07-.12-.13-.25-.19-.37a4.92,4.92,0,0,1-.67,0,.68.68,0,0,1,.58.33Z"/><path class="b8fd1dce-6ae5-4743-b252-5887a200b8d7" d="M738.08,134l.34,0a.68.68,0,0,1-.47-.23C738,133.85,738,133.94,738.08,134Z"/><path class="b7d7c318-6360-43bb-bf36-59ed8d7efc65" d="M817.36,2.11l37.17,64.36a.68.68,0,0,0,.57.33h74.33a.68.68,0,0,0,.58-.33L967.18,2.11a.72.72,0,0,0,0-.67L966.35,0h-9c-2.71,7.42-14.43,11.15-19.78,2.29L936.18,0h-118l-.83,1.44A.67.67,0,0,0,817.36,2.11Zm34.91,4.42q6.06,9.9,12.11,19.8c2,3.28,4.24,6.51,6.06,9.9,1,1.89.66,1.86,2.89,2.2,14.84,2.32,31.19.87,46-.78,5.85-.65,10.84,5.49,10.84,10.84,0,6.33-5,10.2-10.84,10.85a245.53,245.53,0,0,1-26.83,1.55c-8.61,0-18.34.38-26.72-1.85-9.24-2.46-13.51-10.93-18.12-18.47l-14.13-23.1C826.24,5.52,845-5.36,852.27,6.53Z"/><path class="b8fd1dce-6ae5-4743-b252-5887a200b8d7" d="M813.42,3.9c.06.12.12.25.19.37l37.16,64.37a5,5,0,0,0,3.66,2.45,5.16,5.16,0,0,0,.67,0h74.33A5,5,0,0,0,933.54,69a2.14,2.14,0,0,0,.13-.19l.1-.14L970.93,4.27l.06-.11.12-.24A5,5,0,0,0,971.27,0h-4.92l.83,1.44a.72.72,0,0,1,0,.67L930,66.47a.68.68,0,0,1-.58.33H855.1a.68.68,0,0,1-.57-.33L817.36,2.11a.67.67,0,0,1,0-.67L818.19,0h-.27l-.84,1.44A5,5,0,0,1,813.42,3.9Z"/><path class="b8fd1dce-6ae5-4743-b252-5887a200b8d7" d="M738.07,3.92l.35,0h74.33a4.92,4.92,0,0,0,.67,0,5,5,0,0,0,3.66-2.46L817.92,0H738.24A5,5,0,0,1,738.07,3.92Z"/><path class="f13af57b-f008-447d-8af7-9eb9f2d1ced6" d="M584.33,2.11l37.16,64.36a.68.68,0,0,0,.58.33H696.4a.68.68,0,0,0,.58-.33L734.14,2.11a.67.67,0,0,0,0-.67L733.31,0H719.72a10.28,10.28,0,0,1-2.86,2.53C712.09,5.32,706.55,3.85,703.1,0H585.16l-.83,1.44A.67.67,0,0,0,584.33,2.11Zm33.38,4.12L633,22.67c4.05,4.35,8.05,9.88,13.62,12.33,11.94,5.27,27.36-.12,39.71-.9,5.87-.37,10.84,5.26,10.84,10.84,0,6.12-5,10.47-10.84,10.84-16.27,1-32.34,5.75-48.08-.92-7.92-3.35-13.56-9.3-19.31-15.48L602.37,21.56C592.87,11.35,608.18-4,617.71,6.23Z"/><path class="b8fd1dce-6ae5-4743-b252-5887a200b8d7" d="M584.07,2.9l37,64a5.18,5.18,0,0,1,1-.12.68.68,0,0,1-.58-.33L584.33,2.11a.67.67,0,0,1,0-.67L585.16,0h-4.92a3.52,3.52,0,0,0-.15.42A5,5,0,0,1,584.07,2.9Z"/><path class="b8fd1dce-6ae5-4743-b252-5887a200b8d7" d="M734.14,2.11,697,66.47a.68.68,0,0,1-.58.33A5,5,0,0,1,700.51,69a2.14,2.14,0,0,0,.13-.19l.1-.14L737.9,4.28l.05-.12a1.34,1.34,0,0,0,.12-.24A5,5,0,0,0,738.24,0h-4.93l.83,1.44A.67.67,0,0,1,734.14,2.11Z"/><path class="b8fd1dce-6ae5-4743-b252-5887a200b8d7" d="M621.42,67.64a4.91,4.91,0,0,1,.67,0h74.33a5,5,0,0,1,4.33,2.51l36.93,64,.4,0c0-.08-.08-.17-.13-.25a1.17,1.17,0,0,1-.05-.11L700.74,69.3l-.1-.14a2.14,2.14,0,0,0-.13-.19,5,5,0,0,0-4.11-2.17H622.07a5.18,5.18,0,0,0-1,.12l.2.34C621.3,67.38,621.36,67.51,621.42,67.64Z"/><path class="f13af57b-f008-447d-8af7-9eb9f2d1ced6" d="M700.75,203.82l37.09,64.23a.67.67,0,0,0,.58.34h74.33a.67.67,0,0,0,.58-.34l37.16-64.36a.65.65,0,0,0,0-.66l-37.16-64.36a.67.67,0,0,0-.58-.34H738.38a4.59,4.59,0,0,1-.47,1.12Zm63-54.82,23.11.59c7.38.19,15.58-.67,22,3.64,6.19,4.15,10.76,11.93,15.23,17.78s8.85,12,13,18.14c3.31,4.86.91,12-3.89,14.83-5.3,3.1-11.54,1-14.83-3.89-6.52-9.58-13.21-20.3-21.42-28.57-1.41-.18-2.91-.06-4.33-.1l-9.63-.24-19.26-.49C749.8,170.33,749.79,148.65,763.75,149Zm-16.92,60.88q6,8.6,12,17.17c2.69,3.85,5.63,10.25,9.81,12.76s11.92.93,16.48.88c7.27-.09,14.53-.36,21.79-.76,5.87-.32,10.84,5.22,10.84,10.85,0,6.08-5,10.52-10.84,10.84-8.58.47-17.17.75-25.76.78-8,0-16.31.27-23.46-3.87-6.78-3.93-11-11.17-15.4-17.41L728.1,220.83c-3.38-4.82-.85-12.07,3.89-14.84C737.34,202.86,743.47,205.09,746.83,209.88Z"/><path class="b8fd1dce-6ae5-4743-b252-5887a200b8d7" d="M854.25,200.86,817.08,136.5a2.46,2.46,0,0,0-.22-.34,5,5,0,0,0-4.11-2.16H738.42l-.34,0-.4,0,.23.4a5,5,0,0,1,.47,3.88h74.37a.67.67,0,0,1,.58.34L850.49,203a.65.65,0,0,1,0,.66l-37.16,64.36a.67.67,0,0,1-.58.34H738.42a.67.67,0,0,1-.58-.34l-37.09-64.23h0c-.07.12-.15.22-.22.33s.15.22.22.34l37.16,64.36a5,5,0,0,1,.48,3.87h74.36a5,5,0,0,0,4.33-2.5l37.17-64.36c.07-.12.12-.25.18-.38A5,5,0,0,0,854.25,200.86Z"/><path class="a56dcca8-2869-4bf4-9717-7213716c2cf2" d="M943.87,136.55c4.79-2.8,7.2-10,3.89-14.83l-11.69-17.11c-3.64-5.35-6.93-11.46-13-14.34-5.76-2.74-13-2.29-19.24-2.46-7.07-.2-14.14-.17-21.22,0-13.93.37-14,22,0,21.68,5.47-.14,10.93-.2,16.4-.12,2.57,0,5.14.1,7.71.2a65.17,65.17,0,0,1,6.81.1c-.3.1.32.74,1,1.79,1.47,2.18,3,4.34,4.45,6.52q5,7.34,10,14.66C932.33,137.5,938.56,139.66,943.87,136.55Z"/><path class="a56dcca8-2869-4bf4-9717-7213716c2cf2" d="M763.75,170.69l19.26.49,9.63.24c1.42,0,2.92-.08,4.33.1,8.21,8.27,14.9,19,21.42,28.57,3.29,4.84,9.53,7,14.83,3.89,4.8-2.8,7.2-10,3.89-14.83q-6.29-9.24-13-18.14c-4.47-5.85-9-13.63-15.23-17.78-6.4-4.31-14.6-3.45-22-3.64L763.75,149C749.79,148.65,749.8,170.33,763.75,170.69Z"/><path class="a56dcca8-2869-4bf4-9717-7213716c2cf2" d="M716.86,2.53A10.28,10.28,0,0,0,719.72,0H703.1C706.55,3.85,712.09,5.32,716.86,2.53Z"/><path class="a56dcca8-2869-4bf4-9717-7213716c2cf2" d="M764.26,37.46c7.14.83,14.2,0,21.36-.19,5.11-.15,11-.22,15.43,2.77,4.08,2.75,7.09,7.89,9.56,12a77.92,77.92,0,0,1,7.73,17.44c4.09,13.3,25,7.62,20.92-5.77-4.6-15-12.79-32.23-26-41.51-14.77-10.41-32.55-4.52-49-6.43-5.83-.68-10.85,5.47-10.85,10.84C753.41,33,758.41,36.79,764.26,37.46Z"/><path class="a56dcca8-2869-4bf4-9717-7213716c2cf2" d="M937.56,2.29c5.35,8.86,17.07,5.13,19.78-2.29H936.18Z"/><path class="a1605f4e-3b23-40f7-858e-5fa2d916b81e" d="M732,206c-4.74,2.77-7.27,10-3.89,14.84l14.24,20.29c4.38,6.24,8.62,13.48,15.4,17.41,7.15,4.14,15.47,3.91,23.46,3.87,8.59,0,17.18-.31,25.76-.78,5.85-.32,10.84-4.76,10.84-10.84,0-5.63-5-11.17-10.84-10.85-7.26.4-14.52.67-21.79.76-4.56.05-12.43,1.54-16.48-.88s-7.12-8.91-9.81-12.76q-6-8.58-12-17.17C743.47,205.09,737.34,202.86,732,206Z"/><path class="a1605f4e-3b23-40f7-858e-5fa2d916b81e" d="M840.8,140.16c-4.5,4.5-3.7,10.77,0,15.33l14.84,18.25c4.79,5.9,9.64,14.4,16.85,17.48,6.62,2.84,15.5,1.42,22.54,1.4l24.31-.05c13.95,0,14-21.72,0-21.69l-21.39.05-9.73,0h-5.83l-1.16,0c-.55-.64-1.08-1.29-1.61-1.95l-3.09-3.8-6.8-8.36-13.59-16.73C852.44,135.61,844.64,136.32,840.8,140.16Z"/><path class="a1605f4e-3b23-40f7-858e-5fa2d916b81e" d="M619,39.38c5.75,6.18,11.39,12.13,19.31,15.48,15.74,6.67,31.81,2,48.08.92,5.84-.37,10.84-4.72,10.84-10.84,0-5.58-5-11.21-10.84-10.84-12.35.78-27.77,6.17-39.71.9-5.57-2.45-9.57-8-13.62-12.33L617.71,6.23C608.18-4,592.87,11.35,602.37,21.56Z"/><path class="a1605f4e-3b23-40f7-858e-5fa2d916b81e" d="M736.31,101.05c5.35,7.29,10.61,16.38,18.2,21.51,6.76,4.57,15.16,5.33,23.1,5.62a161,161,0,0,0,27.74-1.7c5.81-.79,9-8.23,7.57-13.34-1.72-6.26-7.51-8.37-13.34-7.57a127.64,127.64,0,0,1-21.05,1c-4.58-.14-9.92.11-13.42-3.26-4.73-4.56-8.42-10.87-12.27-16.18Q746.29,78,740,68.8c-3.3-4.83-9.53-7-14.84-3.89-4.79,2.8-7.21,10-3.89,14.84Q728.61,90.52,736.31,101.05Z"/><path class="a1605f4e-3b23-40f7-858e-5fa2d916b81e" d="M833.55,17.47l14.13,23.1c4.61,7.54,8.88,16,18.12,18.47,8.38,2.23,18.11,1.86,26.72,1.85a245.53,245.53,0,0,0,26.83-1.55c5.82-.65,10.84-4.52,10.84-10.85,0-5.35-5-11.49-10.84-10.84-14.83,1.65-31.18,3.1-46,.78-2.23-.34-1.87-.31-2.89-2.2-1.82-3.39-4.05-6.62-6.06-9.9q-6-9.9-12.11-19.8C845-5.36,826.24,5.52,833.55,17.47Z"/><path class="b7d7c318-6360-43bb-bf36-59ed8d7efc65" d="M234.58,69.16l.09.14,37.17,64.36a1.17,1.17,0,0,0,.05.11.68.68,0,0,0,.47.23h74.33a.67.67,0,0,0,.58-.34L384.43,69.3a.65.65,0,0,0,0-.66L347.27,4.27a.68.68,0,0,0-.58-.33H272.36a.67.67,0,0,0-.47.22,1.17,1.17,0,0,1-.05.11L234.67,68.64l-.09.14A.62.62,0,0,0,234.58,69.16Zm63.61-53.38c16.51,1.91,34.29-4,49.06,6.43,13.16,9.28,21.35,26.55,25.95,41.51,4.11,13.39-16.83,19.07-20.92,5.77a77.92,77.92,0,0,0-7.73-17.44c-2.47-4.12-5.48-9.26-9.56-12-4.42-3-10.32-2.92-15.44-2.77-7.15.21-14.21,1-21.36.19-5.84-.67-10.84-4.42-10.84-10.84C287.35,21.25,292.37,15.1,298.19,15.78Zm-39.1,49.13c5.3-3.1,11.54-.94,14.83,3.89q6.31,9.24,12.86,18.29c3.85,5.31,7.54,11.62,12.27,16.18,3.49,3.37,8.84,3.12,13.42,3.26a127.64,127.64,0,0,0,21-1c5.83-.8,11.62,1.31,13.34,7.57,1.41,5.11-1.76,12.55-7.57,13.34a161.08,161.08,0,0,1-27.75,1.7c-7.93-.29-16.33-1.05-23.09-5.62-7.59-5.13-12.85-14.22-18.2-21.51q-7.71-10.53-15.05-21.3C251.88,74.89,254.3,67.71,259.09,64.91Z"/><path class="b8fd1dce-6ae5-4743-b252-5887a200b8d7" d="M234.58,68.78l-.13.19.13.19A.62.62,0,0,1,234.58,68.78Z"/><path class="b8fd1dce-6ae5-4743-b252-5887a200b8d7" d="M272,134l.35,0a.68.68,0,0,1-.47-.23C271.94,133.85,272,133.94,272,134Z"/><path class="b8fd1dce-6ae5-4743-b252-5887a200b8d7" d="M384.43,68.64a.65.65,0,0,1,0,.66l-37.16,64.36a.67.67,0,0,1-.58.34,5.38,5.38,0,0,1,1.06.12l37-64a5.37,5.37,0,0,1,.52-.73,5.44,5.44,0,0,1-.53-.73L347.54,4.27c-.07-.12-.12-.25-.18-.37a5,5,0,0,1-.67,0,.68.68,0,0,1,.58.33Z"/><path class="b8fd1dce-6ae5-4743-b252-5887a200b8d7" d="M272,3.92c0,.08-.07.16-.12.24a.67.67,0,0,1,.47-.22Z"/><path class="f13af57b-f008-447d-8af7-9eb9f2d1ced6" d="M351.3,2.11l37.17,64.36a.66.66,0,0,0,.57.33h74.33a.68.68,0,0,0,.58-.33L501.11,2.11a.67.67,0,0,0,0-.67L500.28,0h-9c-2.71,7.42-14.43,11.15-19.78,2.29L470.12,0h-118l-.83,1.44A.67.67,0,0,0,351.3,2.11Zm34.91,4.42,12.11,19.8c2,3.28,4.24,6.51,6.06,9.9,1,1.89.66,1.86,2.89,2.2,14.83,2.32,31.18.87,46-.78,5.86-.65,10.85,5.49,10.85,10.84,0,6.33-5,10.2-10.85,10.85a245.21,245.21,0,0,1-26.82,1.55c-8.61,0-18.35.38-26.72-1.85-9.24-2.46-13.52-10.93-18.13-18.47l-14.13-23.1C360.18,5.52,378.94-5.36,386.21,6.53Z"/><path class="b8fd1dce-6ae5-4743-b252-5887a200b8d7" d="M347.36,3.9c.06.12.11.25.18.37l37.17,64.37a5.44,5.44,0,0,0,.53.73,5,5,0,0,1,3.81-1.78h74.33c.12,0,.23,0,.35,0s.11-.24.17-.36L501.07,2.9A5,5,0,0,1,505.34.4a3.1,3.1,0,0,0-.13-.4h-4.93l.83,1.44a.67.67,0,0,1,0,.67L464,66.47a.68.68,0,0,1-.58.33H389a.66.66,0,0,1-.57-.33L351.3,2.11a.67.67,0,0,1,0-.67L352.13,0h-.28L351,1.44A5,5,0,0,1,347.36,3.9Z"/><path class="b8fd1dce-6ae5-4743-b252-5887a200b8d7" d="M272,3.92l.35,0h74.33a5,5,0,0,0,.67,0A5,5,0,0,0,351,1.44L351.85,0H272.18A5,5,0,0,1,272,3.92Z"/><path class="b7d7c318-6360-43bb-bf36-59ed8d7efc65" d="M118.27,2.11l37.16,64.36a.68.68,0,0,0,.58.33h74.33a.68.68,0,0,0,.58-.33L268.08,2.11a.67.67,0,0,0,0-.67L267.25,0H253.66a10.43,10.43,0,0,1-2.86,2.53C246,5.32,240.49,3.85,237,0H119.1l-.83,1.44A.67.67,0,0,0,118.27,2.11Zm33.38,4.12L167,22.67c4,4.35,8,9.88,13.62,12.33,11.94,5.27,27.36-.12,39.7-.9,5.88-.37,10.85,5.26,10.85,10.84,0,6.12-5,10.47-10.85,10.84-16.26,1-32.33,5.75-48.07-.92-7.92-3.35-13.56-9.3-19.31-15.48L136.31,21.56C126.81,11.35,142.12-4,151.65,6.23Z"/><path class="b8fd1dce-6ae5-4743-b252-5887a200b8d7" d="M114.51,4.27l37.17,64.37a3.15,3.15,0,0,0,.22.33A5,5,0,0,1,156,66.8a.68.68,0,0,1-.58-.33L118.27,2.11a.67.67,0,0,1,0-.67L119.1,0h-4.93A5,5,0,0,0,114.51,4.27Z"/><path class="b8fd1dce-6ae5-4743-b252-5887a200b8d7" d="M268.08,2.11,230.92,66.47a.68.68,0,0,1-.58.33A5,5,0,0,1,234.45,69l.13-.19.09-.14L271.84,4.27a1.17,1.17,0,0,0,.05-.11c.05-.08.08-.16.12-.24A5,5,0,0,0,272.18,0h-4.93l.83,1.44A.67.67,0,0,1,268.08,2.11Z"/><path class="f13af57b-f008-447d-8af7-9eb9f2d1ced6" d="M171.05,168.69s.06-.06.14-.09S171.06,168.61,171.05,168.69Z"/><path class="f13af57b-f008-447d-8af7-9eb9f2d1ced6" d="M268.08,135.83,230.92,71.47a.68.68,0,0,0-.58-.33H156a.68.68,0,0,0-.58.33l-37.16,64.36a.67.67,0,0,0,0,.67l37.16,64.36a.68.68,0,0,0,.58.33h74.33a.67.67,0,0,0,.47-.22,1.17,1.17,0,0,1,.05-.11L268,136.5l.1-.14A.69.69,0,0,0,268.08,135.83Zm-59,54.51-24,0c-6.84,0-16.11,1.53-22.36-1.8-5.88-3.14-10.17-9.8-14.19-14.94-4.57-5.84-8.94-11.82-13-18-3.25-4.9-1-12,3.89-14.83,5.25-3.08,11.6-1,14.83,3.89s6.6,9.71,10.21,14.34c1.71,2.19,3.48,4.34,5.27,6.46.8.94,1.88,1.93,2.65,3,6.21-.52,33.8.23,36.72.22C223,168.64,223,190.32,209,190.34Zm19.44-57.68-19.7-32.1c0-.06-.54-.81-1-1.59a15.3,15.3,0,0,0-2-.56l-8.45-1.18-17.86-2.49c-5.84-.82-9-8.27-7.57-13.34,1.69-6.16,7.54-8.38,13.33-7.57l20.68,2.89c7.47,1,14.05,1.58,18.74,8.26,8.22,11.69,15.13,24.55,22.61,36.73C254.53,133.65,235.76,144.53,228.47,132.66Z"/><path class="b8fd1dce-6ae5-4743-b252-5887a200b8d7" d="M230.81,201a.67.67,0,0,1-.47.22H156a.68.68,0,0,1-.58-.33L118.27,136.5a.67.67,0,0,1,0-.67l37.16-64.36a.68.68,0,0,1,.58-.33h74.33a.68.68,0,0,1,.58.33l37.16,64.36a.69.69,0,0,1,0,.53A5,5,0,0,1,272,134c0-.08-.07-.17-.12-.25a1.17,1.17,0,0,1-.05-.11L234.67,69.3l-.09-.14-.13-.19a5,5,0,0,0-4.11-2.17H156A5,5,0,0,0,151.9,69a3.15,3.15,0,0,0-.22.33l-37.17,64.36a5,5,0,0,0,0,5L151.68,203a5,5,0,0,0,4.33,2.5h74.33l.34,0A5,5,0,0,1,230.81,201Z"/><path class="b7d7c318-6360-43bb-bf36-59ed8d7efc65" d="M347.16,138.56a.68.68,0,0,0-.47-.23H272.36a.67.67,0,0,0-.58.34L234.62,203a.65.65,0,0,0,0,.66l37.16,64.36a.67.67,0,0,0,.58.34h74.33a.67.67,0,0,0,.58-.34l37.16-64.36a.55.55,0,0,0,.07-.25l-36.95-64A5.1,5.1,0,0,1,347.16,138.56Zm-6.27,123.06c-8.57.47-17.16.75-25.75.78-8,0-16.31.27-23.46-3.87-6.78-3.93-11-11.17-15.4-17.41L262,220.83c-3.38-4.82-.85-12.07,3.89-14.84,5.35-3.13,11.47-.9,14.83,3.89l12.05,17.17c2.7,3.85,5.64,10.25,9.82,12.76s11.92.93,16.47.88c7.27-.09,14.54-.36,21.79-.76,5.88-.32,10.85,5.22,10.85,10.85C351.74,256.86,346.74,261.3,340.89,261.62Zm30.16-72.47c3.31,4.86.91,12-3.89,14.83-5.3,3.1-11.54,1-14.84-3.89-6.51-9.58-13.21-20.3-21.41-28.57-1.41-.18-2.91-.06-4.33-.1l-9.63-.24-19.26-.49c-14-.36-14-22,0-21.69l23.11.59c7.38.19,15.58-.67,22,3.64C349,157.38,353.54,165.16,358,171S366.86,183,371.05,189.15Z"/><path class="b8fd1dce-6ae5-4743-b252-5887a200b8d7" d="M347.55,268.85l37.17-64.36c.07-.12.15-.23.22-.34s-.15-.21-.22-.33l-.22-.38a.55.55,0,0,1-.07.25l-37.16,64.36a.67.67,0,0,1-.58.34H272.36a.67.67,0,0,1-.58-.34l-37.16-64.36a.65.65,0,0,1,0-.66l37.16-64.36a.67.67,0,0,1,.58-.34h74.33a.68.68,0,0,1,.47.23,5,5,0,0,1,.39-4.1l.2-.34a5.38,5.38,0,0,0-1.06-.12H272.36l-.35,0a5,5,0,0,0-3.89,2.34l-.1.14-37.16,64.36a1.17,1.17,0,0,0-.05.11,5,5,0,0,0-.13,4.54c.06.11.11.24.18.35L268,270.22a5,5,0,0,0,4.34,2.5h74.33l.38,0A5,5,0,0,1,347.55,268.85Z"/><path class="a56dcca8-2869-4bf4-9717-7213716c2cf2" d="M342.78,153.23c-6.4-4.31-14.6-3.45-22-3.64L297.69,149c-14-.35-14,21.33,0,21.69l19.26.49,9.63.24c1.42,0,2.92-.08,4.33.1,8.2,8.27,14.9,19,21.41,28.57,3.3,4.84,9.54,7,14.84,3.89,4.8-2.8,7.2-10,3.89-14.83q-6.29-9.24-13-18.14C353.54,165.16,349,157.38,342.78,153.23Z"/><path class="a56dcca8-2869-4bf4-9717-7213716c2cf2" d="M224.59,85c-4.69-6.68-11.27-7.22-18.74-8.26l-20.68-2.89c-5.79-.81-11.64,1.41-13.33,7.57-1.4,5.07,1.73,12.52,7.57,13.34l17.86,2.49,8.45,1.18a15.3,15.3,0,0,1,2,.56c.49.78,1,1.53,1,1.59l19.7,32.1c7.29,11.87,26.06,1,18.73-11C239.72,109.53,232.81,96.67,224.59,85Z"/><path class="a56dcca8-2869-4bf4-9717-7213716c2cf2" d="M250.8,2.53A10.43,10.43,0,0,0,253.66,0H237C240.49,3.85,246,5.32,250.8,2.53Z"/><path class="a56dcca8-2869-4bf4-9717-7213716c2cf2" d="M298.19,37.46c7.15.83,14.21,0,21.36-.19,5.12-.15,11-.22,15.44,2.77,4.08,2.75,7.09,7.89,9.56,12a77.92,77.92,0,0,1,7.73,17.44c4.09,13.3,25,7.62,20.92-5.77-4.6-15-12.79-32.23-25.95-41.51-14.77-10.41-32.55-4.52-49.06-6.43-5.82-.68-10.84,5.47-10.84,10.84C287.35,33,292.35,36.79,298.19,37.46Z"/><path class="a56dcca8-2869-4bf4-9717-7213716c2cf2" d="M491.28,0H470.12l1.38,2.29C476.85,11.15,488.57,7.42,491.28,0Z"/><path class="a1605f4e-3b23-40f7-858e-5fa2d916b81e" d="M340.89,239.93c-7.25.4-14.52.67-21.79.76-4.55.05-12.43,1.54-16.47-.88s-7.12-8.91-9.82-12.76l-12.05-17.17c-3.36-4.79-9.48-7-14.83-3.89-4.74,2.77-7.27,10-3.89,14.84l14.24,20.29c4.38,6.24,8.62,13.48,15.4,17.41,7.15,4.14,15.47,3.91,23.46,3.87,8.59,0,17.18-.31,25.75-.78,5.85-.32,10.85-4.76,10.85-10.84C351.74,245.15,346.77,239.61,340.89,239.93Z"/><path class="a1605f4e-3b23-40f7-858e-5fa2d916b81e" d="M209,168.65c-2.92,0-30.51-.74-36.72-.22-.77-1-1.85-2-2.65-3-1.79-2.12-3.56-4.27-5.27-6.46-3.61-4.63-7-9.45-10.21-14.34s-9.58-7-14.83-3.89c-4.85,2.83-7.14,9.93-3.89,14.83,4.09,6.18,8.46,12.16,13,18,4,5.14,8.31,11.8,14.19,14.94,6.25,3.33,15.52,1.81,22.36,1.8l24,0C223,190.32,223,168.64,209,168.65Zm-37.84-.05c-.08,0-.13.06-.14.09S171.12,168.59,171.19,168.6Z"/><path class="a1605f4e-3b23-40f7-858e-5fa2d916b81e" d="M152.9,39.38c5.75,6.18,11.39,12.13,19.31,15.48,15.74,6.67,31.81,2,48.07.92,5.85-.37,10.85-4.72,10.85-10.84,0-5.58-5-11.21-10.85-10.84-12.34.78-27.76,6.17-39.7.9C175,32.55,171,27,167,22.67L151.65,6.23C142.12-4,126.81,11.35,136.31,21.56Z"/><path class="a1605f4e-3b23-40f7-858e-5fa2d916b81e" d="M270.25,101.05c5.35,7.29,10.61,16.38,18.2,21.51,6.76,4.57,15.16,5.33,23.09,5.62a161.08,161.08,0,0,0,27.75-1.7c5.81-.79,9-8.23,7.57-13.34-1.72-6.26-7.51-8.37-13.34-7.57a127.64,127.64,0,0,1-21,1c-4.58-.14-9.93.11-13.42-3.26-4.73-4.56-8.42-10.87-12.27-16.18q-6.57-9-12.86-18.29c-3.29-4.83-9.53-7-14.83-3.89-4.79,2.8-7.21,10-3.89,14.84Q262.55,90.52,270.25,101.05Z"/><path class="a1605f4e-3b23-40f7-858e-5fa2d916b81e" d="M381.61,40.57c4.61,7.54,8.89,16,18.13,18.47,8.37,2.23,18.11,1.86,26.72,1.85a245.21,245.21,0,0,0,26.82-1.55c5.82-.65,10.85-4.52,10.85-10.85,0-5.35-5-11.49-10.85-10.84-14.83,1.65-31.18,3.1-46,.78-2.23-.34-1.88-.31-2.89-2.2-1.82-3.39-4.05-6.62-6.06-9.9L386.21,6.53c-7.27-11.89-26-1-18.73,10.94Z"/><path class="b7d7c318-6360-43bb-bf36-59ed8d7efc65" d="M621.51,206.66,584.34,271a.65.65,0,0,0,0,.66L621.51,336a.67.67,0,0,0,.58.34h74.33A.66.66,0,0,0,697,336l37.17-64.36a.65.65,0,0,0,0-.66L697,206.66a.66.66,0,0,0-.57-.34H622.09A.67.67,0,0,0,621.51,206.66ZM649.61,223c7.07-.19,14.14-.21,21.21,0,6.24.18,13.49-.27,19.24,2.46,6.06,2.89,9.35,9,13,14.34l11.68,17.12c3.32,4.85.9,12-3.89,14.83-5.31,3.1-11.54.94-14.84-3.89l-10-14.67c-1.49-2.17-3-4.34-4.45-6.52-.7-1-1.33-1.68-1-1.79a65.17,65.17,0,0,0-6.81-.1q-3.86-.14-7.71-.19c-5.47-.08-10.93,0-16.39.12C635.62,245.07,635.68,223.38,649.61,223Zm-26.49,52.33q6.79,8.37,13.6,16.73l6.79,8.36,3.1,3.81c.52.66,1,1.31,1.6,1.95l1.16,0h5.84l9.72,0,21.39-.05c14,0,13.95,21.65,0,21.68l-24.31.06c-7,0-15.92,1.43-22.54-1.4-7.21-3.08-12.05-11.58-16.85-17.49l-14.84-18.24c-3.7-4.56-4.49-10.84,0-15.34C611.62,271.5,619.42,270.8,623.12,275.34Z"/><path class="b8fd1dce-6ae5-4743-b252-5887a200b8d7" d="M737.91,268.85l-37.16-64.36c-.07-.12-.15-.23-.22-.34a5,5,0,0,1-4.11,2.17.66.66,0,0,1,.57.34L734.16,271a.65.65,0,0,1,0,.66L697,336a.66.66,0,0,1-.57.34H622.09a.67.67,0,0,1-.58-.34l-37.17-64.36a.65.65,0,0,1,0-.66l37.17-64.36a.67.67,0,0,1,.58-.34,4.92,4.92,0,0,1-.67,0l-.19.38L584.07,271l-.23.33.23.33L621.23,336a5,5,0,0,1,.19,4.63,4.92,4.92,0,0,0,.67,0h74.33a5,5,0,0,0,4.33-2.5l37.16-64.36a4.86,4.86,0,0,0,.48-1.13A5,5,0,0,0,737.91,268.85Z"/><path class="f13af57b-f008-447d-8af7-9eb9f2d1ced6" d="M617.47,204.49a.67.67,0,0,0,0-.67l-37.16-64.36a.66.66,0,0,0-.58-.33H505.4a.63.63,0,0,0-.46.22l-.06.11-37.16,64.36-.1.14a.65.65,0,0,0,0,.39l.1.14,37.16,64.36.06.11a.63.63,0,0,0,.46.22h74.33a.68.68,0,0,0,.58-.33ZM531.24,151c16.5,1.92,34.28-4,49,6.44,13.16,9.28,21.35,26.55,26,41.51,4.12,13.39-16.83,19.06-20.91,5.76a78.33,78.33,0,0,0-7.74-17.43c-2.47-4.13-5.48-9.26-9.55-12-4.42-3-10.33-2.92-15.44-2.77-7.16.21-14.22,1-21.36.2-5.85-.68-10.85-4.42-10.85-10.84C520.39,156.43,525.41,150.29,531.24,151Zm41.09,110.7a161,161,0,0,1-27.74,1.7c-7.94-.28-16.34-1-23.1-5.62-7.59-5.12-12.85-14.22-18.2-21.51q-7.71-10.51-15.05-21.3c-3.32-4.86-.9-12,3.89-14.83,5.31-3.11,11.54-.94,14.84,3.89q6.3,9.22,12.85,18.29c3.85,5.3,7.54,11.61,12.28,16.18,3.49,3.36,8.83,3.12,13.41,3.25a127.81,127.81,0,0,0,21.06-1c5.82-.79,11.61,1.31,13.34,7.58C581.31,253.43,578.14,260.87,572.33,261.66Z"/><path class="b8fd1dce-6ae5-4743-b252-5887a200b8d7" d="M621.23,206.66l.19-.38a5,5,0,0,1-3.67-2.46l-37.16-64.36c-.07-.12-.13-.25-.19-.38a4.91,4.91,0,0,1-.67,0,.66.66,0,0,1,.58.33l37.16,64.36a.67.67,0,0,1,0,.67l-37.16,64.36a.68.68,0,0,1-.58.33,5,5,0,0,1,4.11,2.17l.23-.33Z"/><path class="b8fd1dce-6ae5-4743-b252-5887a200b8d7" d="M467.62,204.35a.65.65,0,0,1,0-.39,1.27,1.27,0,0,1-.13.19Z"/><path class="b8fd1dce-6ae5-4743-b252-5887a200b8d7" d="M504.94,139.35a.63.63,0,0,1,.46-.22l-.34,0Z"/><path class="b8fd1dce-6ae5-4743-b252-5887a200b8d7" d="M505.06,269.2l.34,0a.63.63,0,0,1-.46-.22Z"/><path class="b7d7c318-6360-43bb-bf36-59ed8d7efc65" d="M621.51,201.65a.67.67,0,0,0,.58.34h74.33a.66.66,0,0,0,.57-.34l37.17-64.36a.65.65,0,0,0,0-.66L697,72.26a.68.68,0,0,0-.57-.33H622.09a.68.68,0,0,0-.58.33l-37.17,64.37a.65.65,0,0,0,0,.66ZM644.6,86.24l25.13.44c7.77.14,16.7-.88,24.28,1.11,8.31,2.19,12.14,10.36,16.21,17.11l13,21.63c7.23,12-11.53,22.88-18.73,10.94l-11-18.3c-1.82-3-4.92-6.63-6-10,0,0-.08-.24-.18-.53l-.18,0c-6.72.95-14.46-.26-21.26-.38l-21.26-.38C630.64,107.67,630.64,86,644.6,86.24Zm-25.35,55.47,12.12,19.8c2,3.28,4.23,6.52,6,9.9,1,1.9.67,1.86,2.9,2.21,14.83,2.31,31.18.87,46-.78,5.86-.66,10.84,5.48,10.84,10.84,0,6.32-5,10.19-10.84,10.84a245.53,245.53,0,0,1-26.83,1.55c-8.61,0-18.34.38-26.72-1.84-9.24-2.46-13.51-10.93-18.12-18.47l-14.13-23.1C593.22,140.71,612,129.83,619.25,141.71Z"/><path class="b7d7c318-6360-43bb-bf36-59ed8d7efc65" d="M687.73,108.63c.43.41.86,0,0,0Z"/><path class="b8fd1dce-6ae5-4743-b252-5887a200b8d7" d="M696.42,67.59H622.09a4.91,4.91,0,0,0-.67,0,5,5,0,0,1-.19,4.62l-37.16,64.37a5.06,5.06,0,0,1-3.67,2.45c.06.13.12.26.19.38l37.16,64.36a5,5,0,0,0,3.67,2.46,4.92,4.92,0,0,0,.67,0h74.33a5,5,0,0,0,4.11-2.17c.07-.11.15-.21.22-.33h0l37.16-64.36a4.59,4.59,0,0,0,.47-1.12,5,5,0,0,0-.47-3.88l-.23-.4-36.93-64A5,5,0,0,0,696.42,67.59Zm-112.08,69,37.17-64.37a.68.68,0,0,1,.58-.33h74.33a.68.68,0,0,1,.57.33l37.17,64.37a.65.65,0,0,1,0,.66L697,201.65a.66.66,0,0,1-.57.34H622.09a.67.67,0,0,1-.58-.34l-37.17-64.36A.65.65,0,0,1,584.34,136.63Z"/><path class="b7d7c318-6360-43bb-bf36-59ed8d7efc65" d="M505.4,134.79h74.33a.68.68,0,0,0,.58-.33L617.47,70.1a.67.67,0,0,0,0-.67L580.31,5.07a.66.66,0,0,0-.58-.33H505.4a.66.66,0,0,0-.58.33L467.66,69.43a.69.69,0,0,0,0,.53l.1.14,37.16,64.36.06.11A.63.63,0,0,0,505.4,134.79ZM539.24,12.71c12.32,1.23,28.14.46,38.33,8.5,5.34,4.22,8.95,10.69,12.85,16.2l12.33,17.47c3.4,4.8.83,12.07-3.89,14.83-5.36,3.14-11.46.89-14.84-3.89L573.93,51.53c-2.87-4.07-5.55-9.23-9.1-12.74-2.38-2.37-6.58-2.39-9.75-2.75-5.28-.59-10.56-1.12-15.84-1.65-5.86-.58-10.85-4.49-10.85-10.84C528.39,18.11,533.4,12.12,539.24,12.71ZM486,68c5.32-3.11,11.52-.92,14.84,3.89,4.84,7,9.66,14.09,14.54,21.09,3.41,4.89,7.15,10.28,12.55,13.12,6,3.15,13.37,2.62,19.9,2.69l26.88.25c14,.13,14,21.82,0,21.69-10.18-.1-20.36-.13-30.53-.29-9.37-.16-18.83-1-27.2-5.61-7.75-4.25-13.39-11.24-18.47-18.28-5.62-7.79-10.95-15.81-16.4-23.71C478.75,78,481.21,70.81,486,68Z"/><path class="b8fd1dce-6ae5-4743-b252-5887a200b8d7" d="M467.62,70a.69.69,0,0,1,0-.53L504.82,5.07a.66.66,0,0,1,.58-.33h74.33a.66.66,0,0,1,.58.33l37.16,64.36a.67.67,0,0,1,0,.67l-37.16,64.36a.68.68,0,0,1-.58.33H505.4a.63.63,0,0,1-.46-.22,5,5,0,0,1,.12,4.53l.34,0h74.33a4.91,4.91,0,0,0,.67,0,5.06,5.06,0,0,0,3.67-2.45l37.16-64.37a5,5,0,0,0,.19-4.62c-.06-.13-.12-.26-.19-.38l-.2-.34-37-64a5,5,0,0,0-4-2.48l-.36,0H505.34a5,5,0,0,0-4.27,2.5L463.9,67.26c-.06.12-.12.24-.17.36A5,5,0,0,1,467.62,70Z"/><path class="b7d7c318-6360-43bb-bf36-59ed8d7efc65" d="M464,201.65l37.17-64.36a.7.7,0,0,0,0-.66L464,72.27a.67.67,0,0,0-.58-.34H389.05a.66.66,0,0,0-.57.33l-37.17,64.37a.65.65,0,0,0,0,.66l37.17,64.36a.65.65,0,0,0,.57.34h74.33A.67.67,0,0,0,464,201.65ZM405.87,80.81l25.86.62c8.19.2,18.66-1.21,26.2,2.44,7.37,3.57,11.37,11.82,15.8,18.36l14,20.65c3.3,4.87.91,12-3.89,14.84-5.29,3.09-11.56.95-14.84-3.89q-5.91-8.75-11.84-17.48l-6.46-9.53c-.53-.79-3.62-4.18-1.43-3.26-2.6-1.09-7.75-.2-10.58-.27L427.75,103l-21.88-.53C391.92,102.15,391.91,80.47,405.87,80.81Zm-21.18,60.6L400,157.86c4.05,4.34,8.05,9.87,13.62,12.33,11.94,5.26,27.36-.12,39.71-.91,5.87-.37,10.84,5.26,10.84,10.85,0,6.12-5,10.47-10.84,10.84-16.26,1-32.34,5.74-48.08-.92-7.92-3.36-13.56-9.31-19.31-15.49l-16.59-17.82C359.85,146.53,375.16,131.17,384.69,141.41Z"/><path class="b8fd1dce-6ae5-4743-b252-5887a200b8d7" d="M347.75,134.12l-.2.34a5,5,0,0,0-.39,4.1,5.1,5.1,0,0,0,.39.9l36.95,64,.22.38c.07.12.15.22.22.33a5,5,0,0,1,4.11-2.16.65.65,0,0,1-.57-.34l-37.17-64.36a.65.65,0,0,1,0-.66l37.17-64.37a.66.66,0,0,1,.57-.33h74.33a.67.67,0,0,1,.58.34l37.17,64.36a.7.7,0,0,1,0,.66L464,201.65a.67.67,0,0,1-.58.34,5,5,0,0,1,4.11,2.16,1.27,1.27,0,0,0,.13-.19l.1-.14,37.16-64.36.06-.11.12-.25a5,5,0,0,0-.12-4.53l-.06-.11L467.72,70.1l-.1-.14a5,5,0,0,0-3.89-2.34c-.12,0-.23,0-.35,0H389.05a5,5,0,0,0-3.81,1.78,5.37,5.37,0,0,0-.52.73Z"/><path class="f13af57b-f008-447d-8af7-9eb9f2d1ced6" d="M501.13,271,464,206.66a.67.67,0,0,0-.58-.34H389.05a.65.65,0,0,0-.57.34L351.31,271a.65.65,0,0,0,0,.66L388.48,336a.65.65,0,0,0,.57.34h74.33a.66.66,0,0,0,.47-.23,1.17,1.17,0,0,0,0-.11l37.17-64.36.09-.14A.63.63,0,0,0,501.13,271Zm-59.06,54.5-24,0c-6.84,0-16.11,1.53-22.36-1.8-5.88-3.14-10.17-9.8-14.19-14.94-4.57-5.84-8.93-11.82-13-18-3.25-4.91-.95-12,3.89-14.84,5.26-3.07,11.61-1,14.84,3.89s6.6,9.72,10.21,14.34q2.56,3.29,5.27,6.46c.79.94,1.88,1.94,2.64,3,6.21-.53,33.8.22,36.72.22C456.05,303.82,456,325.51,442.07,325.52Zm19.45-57.68-19.7-32.09c0-.06-.55-.82-1-1.6a16.84,16.84,0,0,0-2-.55c-2.82-.41-5.64-.79-8.46-1.18l-17.86-2.5c-5.83-.81-9-8.26-7.57-13.33,1.69-6.17,7.55-8.39,13.34-7.58l20.67,2.89c7.47,1,14.05,1.58,18.75,8.26,8.21,11.7,15.12,24.55,22.6,36.74C487.57,268.83,468.8,279.72,461.52,267.84Z"/><path class="f13af57b-f008-447d-8af7-9eb9f2d1ced6" d="M404.09,303.88s.06-.06.14-.09A.11.11,0,0,0,404.09,303.88Z"/><path class="b8fd1dce-6ae5-4743-b252-5887a200b8d7" d="M504.88,268.85l-37.16-64.36-.1-.14-.13-.2a5,5,0,0,0-4.11-2.16H389.05a5,5,0,0,0-4.11,2.16c-.07.11-.15.22-.22.34l-37.17,64.36a5,5,0,0,0-.48,3.85,5.28,5.28,0,0,0,.48,1.15l37.17,64.36a5,5,0,0,0,4.33,2.5h74.33l.35,0a5,5,0,0,1,.12-4.54.66.66,0,0,1-.47.23H389.05a.65.65,0,0,1-.57-.34l-37.17-64.36a.65.65,0,0,1,0-.66l37.17-64.36a.65.65,0,0,1,.57-.34h74.33a.67.67,0,0,1,.58.34L501.13,271a.63.63,0,0,1,0,.52,5,5,0,0,1,3.9-2.34l-.12-.24Z"/><path class="b7d7c318-6360-43bb-bf36-59ed8d7efc65" d="M617.47,338.21l-37.16-64.36a.68.68,0,0,0-.58-.33H505.4a.68.68,0,0,0-.58.33l-37.16,64.36a.67.67,0,0,0,0,.67l28.28,49h21.84c-3.17-3.57-5.79-7.74-8.46-11.55L495.08,356c-3.38-4.82-.85-12.06,3.89-14.83,5.35-3.13,11.48-.9,14.84,3.89l12.05,17.17c2.69,3.84,5.63,10.25,9.81,12.75s11.92.94,16.48.88q10.9-.14,21.79-.75c5.87-.32,10.84,5.22,10.84,10.84a10.62,10.62,0,0,1-.18,1.89h4.6l28.27-49A.67.67,0,0,0,617.47,338.21Zm-17.27,1c-5.3,3.1-11.54.94-14.83-3.89C578.85,325.7,572.16,315,564,306.71c-1.41-.18-2.92-.07-4.33-.11l-9.64-.24-19.26-.49c-14-.35-14-22,0-21.68l23.12.58c7.37.19,15.57-.66,22,3.64,6.19,4.16,10.77,11.94,15.23,17.79s8.85,12,13,18.13C607.4,329.19,605,336.36,600.2,339.17Z"/><path class="b8fd1dce-6ae5-4743-b252-5887a200b8d7" d="M621.42,340.67a5,5,0,0,0-.19-4.63l-37.16-64.36-.23-.33a5,5,0,0,0-4.11-2.17H505.4l-.34,0a5,5,0,0,0-3.9,2.34l-.09.14L463.9,336a1.17,1.17,0,0,1,0,.11,5,5,0,0,0-.12,4.54c0,.12.11.24.17.36l27,46.8h5l-28.28-49a.67.67,0,0,1,0-.67l37.16-64.36a.68.68,0,0,1,.58-.33h74.33a.68.68,0,0,1,.58.33l37.16,64.36a.67.67,0,0,1,0,.67l-28.27,49h5l27-46.8C621.3,340.92,621.36,340.8,621.42,340.67Z"/><path class="a56dcca8-2869-4bf4-9717-7213716c2cf2" d="M649.61,244.7c5.46-.15,10.92-.2,16.39-.12q3.86.06,7.71.19a65.17,65.17,0,0,1,6.81.1c-.3.11.33.75,1,1.79,1.47,2.18,3,4.35,4.45,6.52l10,14.67c3.3,4.83,9.53,7,14.84,3.89,4.79-2.8,7.21-10,3.89-14.83l-11.68-17.12c-3.65-5.34-6.94-11.45-13-14.34-5.75-2.73-13-2.28-19.24-2.46-7.07-.19-14.14-.17-21.21,0C635.68,223.38,635.62,245.07,649.61,244.7Z"/><path class="a56dcca8-2869-4bf4-9717-7213716c2cf2" d="M591.05,306.2c-4.46-5.85-9-13.63-15.23-17.79-6.4-4.3-14.6-3.45-22-3.64l-23.12-.58c-14-.36-14,21.33,0,21.68l19.26.49,9.64.24c1.41,0,2.92-.07,4.33.11,8.2,8.26,14.89,19,21.41,28.57,3.29,4.83,9.53,7,14.83,3.89,4.8-2.81,7.2-10,3.89-14.84Q597.8,315.09,591.05,306.2Z"/><path class="a56dcca8-2869-4bf4-9717-7213716c2cf2" d="M457.64,220.16c-4.7-6.68-11.28-7.22-18.75-8.26L418.22,209c-5.79-.81-11.65,1.41-13.34,7.58-1.4,5.07,1.74,12.52,7.57,13.33l17.86,2.5c2.82.39,5.64.77,8.46,1.18a16.84,16.84,0,0,1,2,.55c.49.78,1,1.54,1,1.6l19.7,32.09c7.28,11.88,26.05,1,18.72-10.94C472.76,244.71,465.85,231.86,457.64,220.16Z"/><path class="a56dcca8-2869-4bf4-9717-7213716c2cf2" d="M405.87,102.49l21.88.53,10.94.27c2.83.07,8-.82,10.58.27-2.19-.92.9,2.47,1.43,3.26l6.46,9.53q5.93,8.75,11.84,17.48c3.28,4.84,9.55,7,14.84,3.89,4.8-2.81,7.19-10,3.89-14.84l-14-20.65c-4.43-6.54-8.43-14.79-15.8-18.36-7.54-3.65-18-2.24-26.2-2.44l-25.86-.62C391.91,80.47,391.92,102.15,405.87,102.49Z"/><path class="a56dcca8-2869-4bf4-9717-7213716c2cf2" d="M531.24,172.65c7.14.83,14.2,0,21.36-.2,5.11-.15,11-.21,15.44,2.77,4.07,2.76,7.08,7.89,9.55,12a78.33,78.33,0,0,1,7.74,17.43c4.08,13.3,25,7.63,20.91-5.76-4.6-15-12.79-32.23-26-41.51-14.77-10.42-32.55-4.52-49-6.44-5.83-.67-10.85,5.47-10.85,10.85C520.39,168.23,525.39,172,531.24,172.65Z"/><path class="a56dcca8-2869-4bf4-9717-7213716c2cf2" d="M644.6,107.92l21.26.38c6.8.12,14.54,1.33,21.26.38l.18,0c.1.29.19.54.18.53,1.1,3.35,4.2,7,6,10l11,18.3c7.2,11.94,26,1.05,18.73-10.94l-13-21.63C706.15,98.15,702.32,90,694,87.79c-7.58-2-16.51-1-24.28-1.11l-25.13-.44C630.64,86,630.64,107.67,644.6,107.92Zm43.13.71c.86,0,.43.41,0,0Z"/><path class="a56dcca8-2869-4bf4-9717-7213716c2cf2" d="M539.24,34.39c5.28.53,10.56,1.06,15.84,1.65,3.17.36,7.37.38,9.75,2.75,3.55,3.51,6.23,8.67,9.1,12.74L584,65.82c3.38,4.78,9.48,7,14.84,3.89,4.72-2.76,7.29-10,3.89-14.83L590.42,37.41c-3.9-5.51-7.51-12-12.85-16.2-10.19-8-26-7.27-38.33-8.5-5.84-.59-10.85,5.4-10.85,10.84C528.39,29.9,533.38,33.81,539.24,34.39Z"/><path class="a1605f4e-3b23-40f7-858e-5fa2d916b81e" d="M573.94,375.12q-10.89.6-21.79.75c-4.56.06-12.43,1.55-16.48-.88s-7.12-8.91-9.81-12.75l-12.05-17.17c-3.36-4.79-9.49-7-14.84-3.89-4.74,2.77-7.27,10-3.89,14.83l14.24,20.29c2.67,3.81,5.29,8,8.46,11.55H584.6a10.62,10.62,0,0,0,.18-1.89C584.78,380.34,579.81,374.8,573.94,375.12Z"/><path class="a1605f4e-3b23-40f7-858e-5fa2d916b81e" d="M607.78,275.34c-4.49,4.5-3.7,10.78,0,15.34l14.84,18.24c4.8,5.91,9.64,14.41,16.85,17.49,6.62,2.83,15.5,1.42,22.54,1.4l24.31-.06c13.95,0,14-21.71,0-21.68l-21.39.05-9.72,0h-5.84l-1.16,0c-.55-.64-1.08-1.29-1.6-1.95l-3.1-3.81-6.79-8.36q-6.81-8.35-13.6-16.73C619.42,270.8,611.62,271.5,607.78,275.34Z"/><path class="a1605f4e-3b23-40f7-858e-5fa2d916b81e" d="M442.07,303.84c-2.92,0-30.51-.75-36.72-.22-.76-1-1.85-2-2.64-3q-2.7-3.18-5.27-6.46c-3.61-4.62-7-9.45-10.21-14.34s-9.58-7-14.84-3.89c-4.84,2.83-7.14,9.93-3.89,14.84,4.1,6.18,8.46,12.16,13,18,4,5.14,8.31,11.8,14.19,14.94,6.25,3.33,15.52,1.81,22.36,1.8l24,0C456,325.51,456.05,303.82,442.07,303.84Zm-37.84,0c-.08,0-.13.06-.14.09A.11.11,0,0,1,404.23,303.79Z"/><path class="a1605f4e-3b23-40f7-858e-5fa2d916b81e" d="M385.94,174.56c5.75,6.18,11.39,12.13,19.31,15.49,15.74,6.66,31.82,1.95,48.08.92,5.84-.37,10.84-4.72,10.84-10.84,0-5.59-5-11.22-10.84-10.85-12.35.79-27.77,6.17-39.71.91-5.57-2.46-9.57-8-13.62-12.33l-15.31-16.45c-9.53-10.24-24.84,5.12-15.34,15.33Z"/><path class="a1605f4e-3b23-40f7-858e-5fa2d916b81e" d="M566.57,240.75a127.81,127.81,0,0,1-21.06,1c-4.58-.13-9.92.11-13.41-3.25-4.74-4.57-8.43-10.88-12.28-16.18Q513.27,213.22,507,204c-3.3-4.83-9.53-7-14.84-3.89-4.79,2.8-7.21,10-3.89,14.83q7.35,10.77,15.05,21.3c5.35,7.29,10.61,16.39,18.2,21.51,6.76,4.58,15.16,5.34,23.1,5.62a161,161,0,0,0,27.74-1.7c5.81-.79,9-8.23,7.58-13.33C578.18,242.06,572.39,240,566.57,240.75Z"/><path class="a1605f4e-3b23-40f7-858e-5fa2d916b81e" d="M600.53,152.66l14.13,23.1c4.61,7.54,8.88,16,18.12,18.47,8.38,2.22,18.11,1.85,26.72,1.84a245.53,245.53,0,0,0,26.83-1.55c5.82-.65,10.84-4.52,10.84-10.84,0-5.36-5-11.5-10.84-10.84-14.83,1.65-31.18,3.09-46,.78-2.23-.35-1.88-.31-2.9-2.21-1.82-3.38-4-6.62-6-9.9l-12.12-19.8C612,129.83,593.22,140.71,600.53,152.66Z"/><path class="a1605f4e-3b23-40f7-858e-5fa2d916b81e" d="M498.49,106.57c5.08,7,10.72,14,18.47,18.28,8.37,4.59,17.83,5.45,27.2,5.61,10.17.16,20.35.19,30.53.29,14,.13,14-21.56,0-21.69l-26.88-.25c-6.53-.07-13.93.46-19.9-2.69-5.4-2.84-9.14-8.23-12.55-13.12-4.88-7-9.7-14.06-14.54-21.09-3.32-4.81-9.52-7-14.84-3.89-4.77,2.79-7.23,10-3.89,14.84C487.54,90.76,492.87,98.78,498.49,106.57Z"/></g></g></svg>