<svg xmlns="http://www.w3.org/2000/svg" viewBox="0 0 258.47 375.81"><defs><style>.a9befa67-7843-4e3b-939e-70600db084ce{fill:#ac7c4c;}.a12eaf5d-9d44-4c2f-82b3-67d5a2205ef6,.a50177e2-bf09-44be-a442-db03a4713b16,.a9befa67-7843-4e3b-939e-70600db084ce,.bff15e99-416d-477c-8a67-de9bf7543de6,.e0bbb46e-1a42-4b38-88e4-ca4c05796c8e,.f8ed87c3-1356-4d15-99f8-60c7a2a788ef{stroke:#40220f;stroke-width:5.04px;}.a12eaf5d-9d44-4c2f-82b3-67d5a2205ef6,.a50177e2-bf09-44be-a442-db03a4713b16,.a9befa67-7843-4e3b-939e-70600db084ce,.bff15e99-416d-477c-8a67-de9bf7543de6,.e0bbb46e-1a42-4b38-88e4-ca4c05796c8e,.f622d9d3-b73e-4756-9e03-35b2edece089,.f8ed87c3-1356-4d15-99f8-60c7a2a788ef{stroke-miterlimit:10;}.a814026f-a84c-42bd-b9f3-afdc79ef2922,.f622d9d3-b73e-4756-9e03-35b2edece089{fill:#fff;}.f622d9d3-b73e-4756-9e03-35b2edece089{stroke:#231815;stroke-width:0.3px;}.f1cc5a2d-55de-4e37-9f0d-89a2a5a523f7,.f8ed87c3-1356-4d15-99f8-60c7a2a788ef{fill:#b0804f;}.b53bc355-aa07-4c21-9483-d9fe4148169d{fill:#f5ac5c;}.a50177e2-bf09-44be-a442-db03a4713b16{fill:#ca925b;}.bbe53ed5-8112-4add-8fef-df4f07533f7f{fill:#231815;}.e4b9a74a-11c2-4b70-9ab1-22421d15dc88{fill:#efcd89;}.f7d4fdf1-c50c-42e6-8c3c-76bd80e03db8{fill:#604c3f;}.a5d80443-ec8f-4ea3-8c62-d3fc1071c972{fill:#f29432;}.a12eaf5d-9d44-4c2f-82b3-67d5a2205ef6{fill:#6a4926;}.bff15e99-416d-477c-8a67-de9bf7543de6,.e0bbb46e-1a42-4b38-88e4-ca4c05796c8e{fill:none;}.bff15e99-416d-477c-8a67-de9bf7543de6{stroke-linecap:round;}</style></defs><title>雄</title><g id="eedf56a3-c3d0-4e4d-9a39-2e456909531e" data-name="圖層 2"><g id="fedbd5e8-ce55-4e65-941d-c4bb9be78b01" data-name="圖層 1"><rect class="a9befa67-7843-4e3b-939e-70600db084ce" x="51.27" y="249.31" width="49.59" height="123.98" rx="14.91"/><rect class="a9befa67-7843-4e3b-939e-70600db084ce" x="158.62" y="249.31" width="49.59" height="123.98" rx="14.91"/><path class="a9befa67-7843-4e3b-939e-70600db084ce" d="M243.83,239.82c10.4-5.25,15-17.31,10.26-27.15s-17.35-13.87-28-8.72c-.36.17-.72.36-1.07.55l-54.34,26.15,17.35,36,55.83-26.87Z"/><path class="a9befa67-7843-4e3b-939e-70600db084ce" d="M14.65,239.82c-10.4-5.25-15-17.31-10.27-27.15s17.35-13.87,28-8.72c.37.17.72.36,1.07.55l54.35,26.15-17.36,36L14.64,239.83Z"/><circle class="a9befa67-7843-4e3b-939e-70600db084ce" cx="129.74" cy="261.91" r="80.64"/><circle class="f622d9d3-b73e-4756-9e03-35b2edece089" cx="87.64" cy="34.95" r="32.43"/><circle class="f8ed87c3-1356-4d15-99f8-60c7a2a788ef" cx="87.64" cy="34.95" r="32.43"/><circle class="b53bc355-aa07-4c21-9483-d9fe4148169d" cx="87.64" cy="34.95" r="17.3"/><circle class="a50177e2-bf09-44be-a442-db03a4713b16" cx="126.12" cy="141.47" r="107.85"/><circle class="bbe53ed5-8112-4add-8fef-df4f07533f7f" cx="47.16" cy="113.27" r="12.77"/><circle class="bbe53ed5-8112-4add-8fef-df4f07533f7f" cx="104.94" cy="122.15" r="12.77"/><circle class="a814026f-a84c-42bd-b9f3-afdc79ef2922" cx="43.06" cy="109.78" r="4.45"/><circle class="a814026f-a84c-42bd-b9f3-afdc79ef2922" cx="100.84" cy="118.66" r="4.45"/><path class="e4b9a74a-11c2-4b70-9ab1-22421d15dc88" d="M80.77,173.32a42.17,42.17,0,0,0-62.38-37c-.08,1.7-.13,3.42-.13,5.15A107.49,107.49,0,0,0,46.9,214.66,42.19,42.19,0,0,0,80.77,173.32Z"/><ellipse class="f7d4fdf1-c50c-42e6-8c3c-76bd80e03db8" cx="41.63" cy="147.75" rx="10.46" ry="14.62" transform="translate(-111.87 148.09) rotate(-74.39)"/><circle class="a5d80443-ec8f-4ea3-8c62-d3fc1071c972" cx="155.12" cy="179.46" r="48.04"/><circle class="a12eaf5d-9d44-4c2f-82b3-67d5a2205ef6" cx="129.74" cy="309.66" r="18.65"/><circle class="e0bbb46e-1a42-4b38-88e4-ca4c05796c8e" cx="126.12" cy="141.47" r="107.85"/><path class="f1cc5a2d-55de-4e37-9f0d-89a2a5a523f7" d="M164.28,41.54a17.3,17.3,0,0,1,9,28.2A107.21,107.21,0,0,1,184,80.44,32.43,32.43,0,1,0,129.92,47a107.74,107.74,0,0,1,14.37,4.83A17.3,17.3,0,0,1,164.28,41.54Z"/><path class="b53bc355-aa07-4c21-9483-d9fe4148169d" d="M164,41.42a17.3,17.3,0,0,0-19.77,10.66,107,107,0,0,1,29.38,17.35A17.11,17.11,0,0,0,177.2,62,17.31,17.31,0,0,0,164,41.42Z"/><path class="bff15e99-416d-477c-8a67-de9bf7543de6" d="M184.21,80.33A32.42,32.42,0,1,0,129.9,47.18"/><path class="bff15e99-416d-477c-8a67-de9bf7543de6" d="M22.92,172.91s13.21-3.71,28.35,10.15"/></g></g></svg>