<svg xmlns="http://www.w3.org/2000/svg" viewBox="0 0 69.5 69.5"><defs><style>.afd4eaa2-d2fc-4abc-b2bd-01172ea94394{fill:#6a6969;}.a6ab7432-6155-4e29-87e8-527b0e6b7e60{fill:#b7b8b8;}.a0984346-6f8e-441b-9fc9-94b96556b686{fill:#595757;}.a09bed54-3173-48bd-95ad-b87c433354c8{fill:#fff;}.e03b6e0f-141b-4b45-be59-8201fe327137{fill:#9fa0a0;}</style></defs><title>原3</title><g id="eadb8658-5d69-49a6-b0d4-f0f7d25537bb" data-name="圖層 2"><g id="a6329af5-811e-4153-b5f3-9d74a7167982" data-name="圖層 1"><circle class="afd4eaa2-d2fc-4abc-b2bd-01172ea94394" cx="34.75" cy="34.75" r="34.74"/><circle class="a6ab7432-6155-4e29-87e8-527b0e6b7e60" cx="32.07" cy="30.96" r="30.1"/><circle class="a0984346-6f8e-441b-9fc9-94b96556b686" cx="18.8" cy="22.25" r="5.2"/><path class="a0984346-6f8e-441b-9fc9-94b96556b686" d="M11.49,45.51A21.8,21.8,0,0,0,32.7,56.36c3.94-.46,4-6.71,0-6.24a15.73,15.73,0,0,1-15.81-7.76c-2-3.48-7.41-.34-5.4,3.15Z"/><path class="a0984346-6f8e-441b-9fc9-94b96556b686" d="M38.79,14.1a7.15,7.15,0,0,1,4.87,2.11c2.86,2.82,7.28-1.59,4.41-4.41a13.69,13.69,0,0,0-9.28-4c-4-.12-4,6.12,0,6.25Z"/><path class="a09bed54-3173-48bd-95ad-b87c433354c8" d="M24,50.06a22.31,22.31,0,0,0,22-.85c1.71-1,.15-3.74-1.57-2.69a19.1,19.1,0,0,1-18.89.85c-1.79-.91-3.37,1.79-1.58,2.69Z"/><path class="a09bed54-3173-48bd-95ad-b87c433354c8" d="M23.79,11.7a3.79,3.79,0,0,1,3.73-.49c1.89.67,2.71-2.35.83-3a7,7,0,0,0-6.77,1.29,1.58,1.58,0,0,0,0,2.21,1.61,1.61,0,0,0,2.21,0Z"/><path class="e03b6e0f-141b-4b45-be59-8201fe327137" d="M16.83,22.71a2.49,2.49,0,0,1,4.46.61c.33.95,1.83.54,1.51-.41a4.08,4.08,0,0,0-7.32-1c-.57.83.78,1.61,1.35.79Z"/><path class="e03b6e0f-141b-4b45-be59-8201fe327137" d="M36.67,66.9A26.3,26.3,0,0,0,58.35,53.5.78.78,0,0,0,57,52.71,24.69,24.69,0,0,1,36.67,65.34c-1,.06-1,1.62,0,1.56Z"/></g></g></svg>