<svg xmlns="http://www.w3.org/2000/svg" viewBox="0 0 92.53 92.53"><defs><style>.f6b3ff92-4108-42b5-8f97-0c09ece1b065{fill:#6a6969;}.e9529665-ade7-4d0b-9d39-8f4dcc1f9a97{fill:#b7b8b8;}.b56ea307-a8d7-4b43-80bd-2147e74e63e3{fill:#595757;}.a06ad753-6ed4-4b5a-b6d1-d3facf6a4afc{fill:#fff;}.b27fad3b-60d6-4b4c-8a3b-396aa5c65c29{fill:#9fa0a0;}</style></defs><title>原1</title><g id="b313db3a-d92e-4c98-b7d4-c7679536dcf8" data-name="圖層 2"><g id="a98e6a73-1413-4213-a257-c6c7cdd708cc" data-name="圖層 1"><circle class="f6b3ff92-4108-42b5-8f97-0c09ece1b065" cx="46.26" cy="46.26" r="46.26"/><circle class="e9529665-ade7-4d0b-9d39-8f4dcc1f9a97" cx="50.56" cy="41.83" r="40.09"/><circle class="b56ea307-a8d7-4b43-80bd-2147e74e63e3" cx="58.7" cy="22.31" r="6.93"/><path class="b56ea307-a8d7-4b43-80bd-2147e74e63e3" d="M26.24,18.68a29.06,29.06,0,0,0-8.68,30.55c1.58,5.1,9.61,2.92,8-2.21a20.92,20.92,0,0,1,6.55-22.46c4.07-3.49-1.84-9.35-5.88-5.88Z"/><path class="b56ea307-a8d7-4b43-80bd-2147e74e63e3" d="M74.36,46.81a9.67,9.67,0,0,1-1.8,6.8,4.16,4.16,0,0,0,7.18,4.19,18.26,18.26,0,0,0,2.64-13.2c-.34-2.22-3.13-3.45-5.11-2.9-2.38.65-3.25,2.88-2.91,5.11Z"/><path class="a06ad753-6ed4-4b5a-b6d1-d3facf6a4afc" d="M23.53,36.06a29.59,29.59,0,0,0,6.68,28.6c1.8,2,4.74-1,2.94-2.94a25.29,25.29,0,0,1-5.62-24.55c.76-2.57-3.25-3.67-4-1.11Z"/><path class="a06ad753-6ed4-4b5a-b6d1-d3facf6a4afc" d="M73.44,26a5.06,5.06,0,0,1,1.92,4.62,2.16,2.16,0,0,0,1.45,2.56,2.1,2.1,0,0,0,2.56-1.45,9.28,9.28,0,0,0-3-8.67c-2-1.73-5,1.2-2.94,2.94Z"/><path class="b27fad3b-60d6-4b4c-8a3b-396aa5c65c29" d="M57.44,19.77a3.34,3.34,0,0,1,.4,6.11,1,1,0,0,0,1,1.79,5.42,5.42,0,0,0-.4-9.7c-1.22-.53-2.27,1.26-1.05,1.8Z"/><path class="b27fad3b-60d6-4b4c-8a3b-396aa5c65c29" d="M4.68,56.77a34.89,34.89,0,0,0,22.94,25c1.27.43,1.81-1.58.55-2A32.8,32.8,0,0,1,6.68,56.22c-.31-1.3-2.31-.75-2,.55Z"/></g></g></svg>