<svg xmlns="http://www.w3.org/2000/svg" viewBox="0 0 60.3 60.3"><defs><style>.b777d770-63c4-4b9a-a8d4-bfb5300a0355{fill:#6a6969;}.eab69df2-a74d-4ea3-8754-0b8bdc4bd422{fill:#b7b8b8;}.fe3ddb69-91b0-41f0-a7e1-9b90d21dcd8a{fill:#595757;}.bfb446d8-201e-42a8-856b-34ec57c5109a{fill:#fff;}.b5d9cae1-e02b-4abf-963f-25f809f34768{fill:#9fa0a0;}</style></defs><title>原2</title><g id="f0cdfc36-fbde-47fc-bfac-782b4a1aef91" data-name="圖層 2"><g id="af385e6b-2255-4a47-89dc-e616743647eb" data-name="圖層 1"><circle class="b777d770-63c4-4b9a-a8d4-bfb5300a0355" cx="30.15" cy="30.15" r="30.14"/><circle class="eab69df2-a74d-4ea3-8754-0b8bdc4bd422" cx="32.17" cy="33.63" r="26.12"/><circle class="fe3ddb69-91b0-41f0-a7e1-9b90d21dcd8a" cx="42.96" cy="42.2" r="4.51"/><path class="fe3ddb69-91b0-41f0-a7e1-9b90d21dcd8a" d="M51,22.45a18.89,18.89,0,0,0-17.6-10.82c-3.48.09-3.5,5.51,0,5.41a13.62,13.62,0,0,1,12.92,8.14c1.46,3.16,6.13.42,4.68-2.73Z"/><path class="fe3ddb69-91b0-41f0-a7e1-9b90d21dcd8a" d="M24.8,47.67a6.38,6.38,0,0,1-4-2.38,2.74,2.74,0,0,0-3.83,0,2.78,2.78,0,0,0,0,3.83,11.77,11.77,0,0,0,7.79,4,2.73,2.73,0,0,0,2.71-2.71,2.78,2.78,0,0,0-2.71-2.71Z"/><path class="bfb446d8-201e-42a8-856b-34ec57c5109a" d="M40.56,17.7a19.32,19.32,0,0,0-19.11-.87c-1.56.78-.19,3.11,1.36,2.34A16.57,16.57,0,0,1,39.2,20c1.48.93,2.84-1.41,1.36-2.33Z"/><path class="bfb446d8-201e-42a8-856b-34ec57c5109a" d="M38,50.8a3.33,3.33,0,0,1-3.24.36,1.39,1.39,0,0,0-1.85.48,1.37,1.37,0,0,0,.49,1.86,6.09,6.09,0,0,0,6-.36c1.44-1,.09-3.31-1.37-2.34Z"/><path class="b5d9cae1-e02b-4abf-963f-25f809f34768" d="M44.77,41.87a2.18,2.18,0,0,1-3.9-.86c-.2-.84-1.51-.48-1.3.36a3.53,3.53,0,0,0,6.16,1.46c.55-.67-.4-1.63-1-1Z"/><path class="b5d9cae1-e02b-4abf-963f-25f809f34768" d="M30.94,2.22a22.81,22.81,0,0,0-19.75,9.94c-.5.72.67,1.4,1.17.69A21.41,21.41,0,0,1,30.94,3.57c.87,0,.87-1.32,0-1.35Z"/></g></g></svg>