<svg xmlns="http://www.w3.org/2000/svg" viewBox="0 0 66.65 66.74"><defs><style>.a268e6be-e0b1-46ae-9187-089ed327a7a3{fill:#6f6e6f;}.a70b064d-ab3c-422e-99b8-53af85406496{fill:#8b8b8b;}.b9b65057-89c3-46ac-aa08-ef4e31f1ff95{fill:#727171;}.e4ba6e93-d0c8-495a-ba78-3a3c70926038{fill:#595757;}.fe0e34ff-8653-464b-956e-bf63615c86cd{fill:#fff;}.e893c8f9-7d78-4731-bc2e-7b299db6d4b1{fill:#c9caca;}.e2f5f50d-24f2-4bd5-9c95-8f4873895e72{fill:#9fa0a0;}</style></defs><title>六3</title><g id="a040cc83-8ad8-4dcf-a1cb-290567931408" data-name="圖層 2"><g id="aabb2152-7007-4494-9fda-347e86e3cd1f" data-name="圖層 1"><path class="a268e6be-e0b1-46ae-9187-089ed327a7a3" d="M22,1.66,1.68,21.83A5.73,5.73,0,0,0,.19,27.34L7.51,55a5.69,5.69,0,0,0,4,4l27.61,7.49a5.69,5.69,0,0,0,5.52-1.46L65,44.91a5.73,5.73,0,0,0,1.49-5.51L59.14,11.74a5.71,5.71,0,0,0-4-4L27.5.2A5.72,5.72,0,0,0,22,1.66Z"/><path class="a70b064d-ab3c-422e-99b8-53af85406496" d="M22,1.69,5.79,17.75a5.72,5.72,0,0,0-1.5,5.52l5.83,22a5.72,5.72,0,0,0,4,4.05l22,6a5.72,5.72,0,0,0,5.52-1.47L57.83,37.79a5.71,5.71,0,0,0,1.5-5.51l-5.83-22a5.74,5.74,0,0,0-4-4l-22-6A5.69,5.69,0,0,0,22,1.69Z"/><circle class="b9b65057-89c3-46ac-aa08-ef4e31f1ff95" cx="31.83" cy="19.68" r="5.72"/><path class="e4ba6e93-d0c8-495a-ba78-3a3c70926038" d="M19.55,44.19c4.76,1.78,10.54,5.11,15.74,4.7,4.35-.35,7.48-3.49,10.11-6.68,2.79-3.38-2-8.27-4.86-4.85-2.59,3.14-4.43,5.32-8.88,4-3.48-1-6.9-2.56-10.28-3.82-4.15-1.55-5.94,5.09-1.83,6.62Z"/><path class="e4ba6e93-d0c8-495a-ba78-3a3c70926038" d="M26.45,10.34a3.39,3.39,0,0,1,3.89-.56c3.91,2.06,7.38-3.87,3.46-5.93A10.48,10.48,0,0,0,21.59,5.48c-3.22,3,1.64,7.89,4.86,4.86Z"/><path class="fe0e34ff-8653-464b-956e-bf63615c86cd" d="M17.54,39.28a78.13,78.13,0,0,0,13,5.17c2.13.63,3-2.68.91-3.31a72.75,72.75,0,0,1-12.16-4.82c-2-1-3.71,2-1.74,3Z"/><path class="fe0e34ff-8653-464b-956e-bf63615c86cd" d="M23.23,9.52c1.95-3.32,6.33-2.3,9.4-1.56,2.15.51,3.06-2.8.91-3.32-4.72-1.12-10.43-1.7-13.28,3.15a1.72,1.72,0,0,0,3,1.73Z"/><path class="b9b65057-89c3-46ac-aa08-ef4e31f1ff95" d="M28.81,19.88a3.77,3.77,0,0,0,4.43,3.75c1.09-.2.63-1.85-.45-1.66a2,2,0,0,1-2.26-2.09c0-1.1-1.67-1.1-1.72,0Z"/><path class="e893c8f9-7d78-4731-bc2e-7b299db6d4b1" d="M28.19,19.15a4.58,4.58,0,0,0,5.57,4.11c1.08-.25.62-1.91-.45-1.65a2.86,2.86,0,0,1-3.41-2.46c-.07-1.1-1.79-1.11-1.71,0Z"/><path class="e2f5f50d-24f2-4bd5-9c95-8f4873895e72" d="M33.41,61.17c2.85-.16,5.6,1.73,8.45,1s3.47-3.44,5.24-5.26c.77-.8-.44-2-1.21-1.22-1.9,2-2.59,5.05-5.86,4.85-2.27-.13-4.29-1.25-6.62-1.12-1.1.06-1.1,1.78,0,1.72Z"/><path class="e2f5f50d-24f2-4bd5-9c95-8f4873895e72" d="M6.29,37.66c-.7-3.14-1.51-6.24-2.45-9.31-.32-1.05-2-.61-1.65.46q1.4,4.61,2.44,9.31c.24,1.07,1.89.62,1.66-.46Z"/></g></g></svg>