<svg xmlns="http://www.w3.org/2000/svg" viewBox="0 0 64.46 68.1"><defs><style>.f70a3f59-1d69-4ea7-8fbc-7050c907fd15{fill:#6f6e6f;}.a29cb1df-d6d5-4d2a-bca5-f3077fdc0ef3{fill:#8b8b8b;}.e5319932-1f08-4092-8d2c-81c073e58b5f{fill:#727171;}.ede01ff1-c2fb-40ef-9af7-e6eeb85ff4b0{fill:#595757;}.bf382fae-5bd1-4d61-9e90-890dda729b5c{fill:#fff;}.ec1c7141-6714-442c-9294-fbbf61b897fc{fill:#c9caca;}.a0b08db6-812d-4e0d-a20c-b17162cb8ea2{fill:#9fa0a0;}</style></defs><title>六1</title><g id="b7f95e1f-3784-4034-bf0f-00c5fbdac67b" data-name="圖層 2"><g id="fac7f650-d009-4e49-abd6-9b6432ed8f2d" data-name="圖層 1"><path class="f70a3f59-1d69-4ea7-8fbc-7050c907fd15" d="M2.2,49.3,24.76,66.89a5.7,5.7,0,0,0,5.66.79L56.94,56.93a5.69,5.69,0,0,0,3.51-4.5l4-28.34a5.69,5.69,0,0,0-2.14-5.29L39.69,1.21A5.68,5.68,0,0,0,34,.42L7.52,11.16A5.72,5.72,0,0,0,4,15.67L.05,44A5.73,5.73,0,0,0,2.2,49.3Z"/><path class="a29cb1df-d6d5-4d2a-bca5-f3077fdc0ef3" d="M2.23,49.32l18,14a5.7,5.7,0,0,0,5.66.79L47,55.56a5.69,5.69,0,0,0,3.51-4.5l3.15-22.57A5.68,5.68,0,0,0,51.5,23.2l-18-14a5.74,5.74,0,0,0-5.66-.79L6.75,17a5.72,5.72,0,0,0-3.52,4.5L.08,44A5.71,5.71,0,0,0,2.23,49.32Z"/><circle class="e5319932-1f08-4092-8d2c-81c073e58b5f" cx="18.83" cy="37.25" r="5.72"/><path class="ede01ff1-c2fb-40ef-9af7-e6eeb85ff4b0" d="M44.61,46.78c1.18-5,3.93-11.49,2.79-16.67-1-4.4-4.7-7.13-8.29-9.4-3.75-2.37-7.2,3.57-3.46,5.93,3.5,2.22,5.58,4,4.66,8.46C39.62,38.4,38.76,41.67,38,45c-1,4.3,5.61,6.14,6.62,1.83Z"/><path class="ede01ff1-c2fb-40ef-9af7-e6eeb85ff4b0" d="M10.57,44.05a3.61,3.61,0,0,1-1.22-4.5A3.45,3.45,0,0,0,7,35.33a3.51,3.51,0,0,0-4.23,2.39,10.25,10.25,0,0,0,3,11.19,3.52,3.52,0,0,0,4.85,0c1.22-1.21,1.44-3.67,0-4.86Z"/><path class="bf382fae-5bd1-4d61-9e90-890dda729b5c" d="M40.16,48.75a76.24,76.24,0,0,0,3.37-13.11c.35-2.16-3-3.09-3.31-.91a75.92,75.92,0,0,1-3.38,13.1c-.74,2.09,2.58,3,3.32.92Z"/><path class="bf382fae-5bd1-4d61-9e90-890dda729b5c" d="M10,47.17c-3.77-1.62-3.27-6.1-2.91-9.48.24-2.19-3.2-2.17-3.43,0C3.19,42.28,3.36,48,8.3,50.13c2,.86,3.76-2.09,1.73-3Z"/><path class="e5319932-1f08-4092-8d2c-81c073e58b5f" d="M19.31,40.23a3.76,3.76,0,0,0,3.3-4.77c-.33-1.05-2-.6-1.65.46a2,2,0,0,1-1.65,2.6c-1.09.09-1.1,1.81,0,1.71Z"/><path class="ec1c7141-6714-442c-9294-fbbf61b897fc" d="M18.88,40.91A4.57,4.57,0,0,0,22.18,35c-.38-1-2-.58-1.65.46a2.87,2.87,0,0,1-2.1,3.81c-1.08.22-.63,1.87.45,1.65Z"/><path class="a0b08db6-812d-4e0d-a20c-b17162cb8ea2" d="M59.77,30.35c-.52-2.87,1.15-6-.14-8.71-1.12-2.39-3.91-2.83-5.85-4.29-.88-.66-1.74.83-.86,1.48,2.25,1.7,5.49,2,5.47,5.49,0,2.23-.68,4.25-.28,6.48.2,1.09,1.86.63,1.66-.45Z"/><path class="a0b08db6-812d-4e0d-a20c-b17162cb8ea2" d="M40,60.3Q35.35,62,30.86,64c-1,.45-.14,1.93.86,1.48C34.59,64.18,37.49,63,40.45,62c1-.37.58-2-.46-1.65Z"/></g></g></svg>