<svg xmlns="http://www.w3.org/2000/svg" viewBox="0 0 83.46 73.81"><defs><style>.abde10ab-24a7-48b9-aa33-655c6c4dc575{fill:#6f6e6f;}.e9c90ebf-8ff4-4e8f-8bfd-6e0465d7d7bf{fill:#8b8b8b;}.ab6aeb41-7365-48f2-9c7d-e8b4f7f4bc90{fill:#727171;}.b242cd2f-5130-4e80-8d2a-8bd681f6403f{fill:#595757;}.e406bd59-cb42-42f3-b6ee-bc0f58352794{fill:#fff;}.e231f725-c8ca-47be-b709-4696aef393e4{fill:#c9caca;}.a37b1714-8ab4-4e7d-bdb4-d3a5372e74bc{fill:#9fa0a0;}</style></defs><title>六2</title><g id="fbe81b47-b2db-49e5-8f6f-cf20b45f984f" data-name="圖層 2"><g id="b895bfe3-e822-454f-bf7b-d321abb91dc0" data-name="圖層 1"><path class="abde10ab-24a7-48b9-aa33-655c6c4dc575" d="M59.74,0h-36a5.7,5.7,0,0,0-4.94,2.85l-18,31.2a5.76,5.76,0,0,0,0,5.71L18.78,71a5.69,5.69,0,0,0,4.94,2.86h36A5.7,5.7,0,0,0,64.68,71l18-31.19a5.71,5.71,0,0,0,0-5.71l-18-31.2A5.71,5.71,0,0,0,59.74,0Z"/><path class="e9c90ebf-8ff4-4e8f-8bfd-6e0465d7d7bf" d="M59.69,0h-29a5.73,5.73,0,0,0-4.95,2.85L11.29,28a5.71,5.71,0,0,0,0,5.71L25.77,58.75a5.72,5.72,0,0,0,4.95,2.86h29a5.72,5.72,0,0,0,5-2.86L79.13,33.66a5.71,5.71,0,0,0,0-5.71L64.64,2.85A5.73,5.73,0,0,0,59.69,0Z"/><circle class="ab6aeb41-7365-48f2-9c7d-e8b4f7f4bc90" cx="52.13" cy="23.88" r="6.93"/><path class="b242cd2f-5130-4e80-8d2a-8bd681f6403f" d="M20.69,34.47c2.5,5.45,4.55,12.88,9,17.08,4,3.75,9.72,3.77,14.82,3.24,5.27-.54,5.32-8.86,0-8.31-4,.41-8.18,1-10.48-2.86-2.45-4.17-4.17-8.95-6.19-13.34-2.24-4.86-9.4-.64-7.18,4.19Z"/><path class="b242cd2f-5130-4e80-8d2a-8bd681f6403f" d="M55.47,11.27c.69,0,0-.08.42,0a7.93,7.93,0,0,1,.84.21c.27.1.28.09,0,0l.39.2c.1.06.92.57.69.4a4.37,4.37,0,0,1,1.46,2.08,4.16,4.16,0,0,0,8-2.21A12.65,12.65,0,0,0,55.47,3c-5.36-.1-5.36,8.21,0,8.32Z"/><path class="e406bd59-cb42-42f3-b6ee-bc0f58352794" d="M23.14,28.53a93.66,93.66,0,0,0,6.75,15.52c1.28,2.35,4.87.25,3.59-2.1a87.17,87.17,0,0,1-6.33-14.53c-.84-2.52-4.85-1.44-4,1.11Z"/><path class="e406bd59-cb42-42f3-b6ee-bc0f58352794" d="M53.43,7.81c4.5-1.22,7.4,3.47,9.4,6.7,1.4,2.27,5,.18,3.59-2.1C63.34,7.44,58.9,2,52.33,3.8c-2.58.69-1.49,4.7,1.1,4Z"/><path class="ab6aeb41-7365-48f2-9c7d-e8b4f7f4bc90" d="M49.36,21.47a4.56,4.56,0,0,0,.6,7c1.1.77,2.14-1,1-1.79a2.47,2.47,0,0,1-.18-3.73c1-.91-.49-2.38-1.47-1.47Z"/><path class="e231f725-c8ca-47be-b709-4696aef393e4" d="M49.46,20.31a5.55,5.55,0,0,0,1.26,8.28c1.14.71,2.18-1.09,1-1.79a3.46,3.46,0,0,1-.83-5c.86-1-.6-2.48-1.47-1.46Z"/><path class="a37b1714-8ab4-4e7d-bdb4-d3a5372e74bc" d="M18.08,60.84c2.43,2.09,3.14,5.52,5.61,7.56,3,2.49,6.35.57,9.76.49a1,1,0,0,0,0-2.08c-3.79.1-7.2,2.18-9.8-1.65-1.35-2-2.23-4.18-4.1-5.79-1-.87-2.48.59-1.47,1.47Z"/><path class="a37b1714-8ab4-4e7d-bdb4-d3a5372e74bc" d="M14.85,17.53c2.08-3.29,4-6.64,5.84-10.08.63-1.18-1.16-2.23-1.79-1-1.82,3.44-3.77,6.79-5.85,10.08-.71,1.13,1.08,2.18,1.8,1.05Z"/></g></g></svg>