<svg xmlns="http://www.w3.org/2000/svg" viewBox="0 0 82.86 77.92"><defs><style>.a96ac796-c68e-45a4-9246-045b78c6f35c{fill:#6f6e6f;}.b38af945-759c-4a1e-b2b9-a13c19e5915e{fill:#8b8b8b;}.abaa166a-3fca-4bce-ac86-6dc0f21ee36d{fill:#727171;}.a0a9cfa0-0b51-4298-8b77-7db6cfee57bb{fill:#595757;}.ba323865-6d94-407c-a29f-b21bdb96950b{fill:#fff;}.ecdd362d-e89e-46ab-8617-9d946b9822be{fill:#c9caca;}.fa8451ba-7b4c-49b1-b26e-980878510115{fill:#9fa0a0;}</style></defs><title>六4</title><g id="b57e0b54-8d18-4a68-b2c3-48fdad41bc88" data-name="圖層 2"><g id="b8558750-eec2-4042-b326-97c5f33bac51" data-name="圖層 1"><path class="a96ac796-c68e-45a4-9246-045b78c6f35c" d="M82.42,41.39,68.57,8.14A5.72,5.72,0,0,0,64,4.67L28.31.05A5.72,5.72,0,0,0,23,2.24L1.17,30.87a5.69,5.69,0,0,0-.73,5.66L14.29,69.78a5.72,5.72,0,0,0,4.54,3.46l35.72,4.63a5.7,5.7,0,0,0,5.27-2.2L81.69,47.05A5.69,5.69,0,0,0,82.42,41.39Z"/><path class="b38af945-759c-4a1e-b2b9-a13c19e5915e" d="M82.41,41.35,71.26,14.6a5.69,5.69,0,0,0-4.54-3.46L38,7.41a5.72,5.72,0,0,0-5.27,2.2l-17.59,23a5.73,5.73,0,0,0-.74,5.67L25.54,65a5.68,5.68,0,0,0,4.54,3.47l28.73,3.72A5.7,5.7,0,0,0,64.08,70L81.67,47A5.71,5.71,0,0,0,82.41,41.35Z"/><circle class="abaa166a-3fca-4bce-ac86-6dc0f21ee36d" cx="57.46" cy="43.55" r="6.93"/><path class="a0a9cfa0-0b51-4298-8b77-7db6cfee57bb" d="M36,18.17c-4.12,4.47-10,9.14-12.42,14.82-2.32,5.52.06,11,2.7,15.94,2.54,4.71,9.72.52,7.18-4.2s-3.48-7.54.11-11.67c2.68-3.08,5.54-6,8.31-9,3.62-3.93-2.24-9.82-5.88-5.88Z"/><path class="a0a9cfa0-0b51-4298-8b77-7db6cfee57bb" d="M70.21,41.28a4.36,4.36,0,0,1-1.39,5.48c-1.72,1.44-1.48,4.39,0,5.88a4.26,4.26,0,0,0,5.88,0,12.39,12.39,0,0,0,3.52-13.57,4.27,4.27,0,0,0-5.11-2.9c-2,.55-3.72,3-2.9,5.11Z"/><path class="ba323865-6d94-407c-a29f-b21bdb96950b" d="M41.82,18.75A89.87,89.87,0,0,0,30.47,30.56c-1.65,2.07,1.27,5,2.94,2.94A89.25,89.25,0,0,1,44.76,21.69c2-1.76-.92-4.69-2.94-2.94Z"/><path class="ba323865-6d94-407c-a29f-b21bdb96950b" d="M72.63,38.34c3,3.95-.15,8.33-2.55,11.68-1.56,2.18,2,4.26,3.59,2.1,3.27-4.57,6.48-10.66,2.55-15.88-1.58-2.11-5.2,0-3.59,2.1Z"/><path class="abaa166a-3fca-4bce-ac86-6dc0f21ee36d" d="M58.74,40.13a4.55,4.55,0,0,0-6.32,3c-.28,1.3,1.72,1.86,2,.55a2.46,2.46,0,0,1,3.27-1.79c1.21.55,2.27-1.24,1.05-1.8Z"/><path class="ecdd362d-e89e-46ab-8617-9d946b9822be" d="M59.61,39.67a5.54,5.54,0,0,0-7,4.25c-.21,1.31,1.8,1.87,2,.55a3.47,3.47,0,0,1,4.46-2.8c1.28.42,1.82-1.59.56-2Z"/><path class="fa8451ba-7b4c-49b1-b26e-980878510115" d="M10.2,26.46c-1.1,3.23-4.4,5.35-5,8.8s2.28,5.64,3.54,8.48c.54,1.22,2.34.16,1.8-1.05C9.07,39.32,6,37.07,8.35,33.22c1.32-2.13,3-3.79,3.86-6.21.43-1.27-1.58-1.81-2-.55Z"/><path class="fa8451ba-7b4c-49b1-b26e-980878510115" d="M48.84,6.67q5.88,1,11.83,1.55c1.33.13,1.32-2,0-2.08Q55,5.62,49.39,4.66c-1.3-.22-1.87,1.78-.55,2Z"/></g></g></svg>