<svg xmlns="http://www.w3.org/2000/svg" xmlns:xlink="http://www.w3.org/1999/xlink" viewBox="0 0 123.48 768.24"><defs><style>.ab4c8e1e-cfee-4023-a580-f1ca9eeb6767,.b89c1389-2a9b-4ef6-96e1-808b6f5d5c7e,.eb08dbe1-29b2-4cd0-9559-b14052c350d5{fill:none;}.a70ac9bc-88e5-46e2-90d2-470898e103dc{fill:#40220f;}.b5b658a7-bb6a-480e-9674-30db24f7677e{fill:#7a611c;}.a6d3a12f-996d-44d3-a2f6-0207f2730e06{fill:#995f1f;}.f1680330-f839-4333-8020-34f056d1eb1f{clip-path:url(#f5320965-3069-4682-9687-8627250f9a23);}.b5024202-03e0-4d92-8f62-dad57e8417db,.ec2d688a-4e55-4ac5-8057-4767c8462dd6{fill:#926a38;stroke:#40220f;}.b5024202-03e0-4d92-8f62-dad57e8417db,.b89c1389-2a9b-4ef6-96e1-808b6f5d5c7e,.eb08dbe1-29b2-4cd0-9559-b14052c350d5,.ec2d688a-4e55-4ac5-8057-4767c8462dd6{stroke-miterlimit:10;}.b5024202-03e0-4d92-8f62-dad57e8417db{stroke-width:1.66px;}.b89c1389-2a9b-4ef6-96e1-808b6f5d5c7e,.eb08dbe1-29b2-4cd0-9559-b14052c350d5{stroke:#fff;}.eb08dbe1-29b2-4cd0-9559-b14052c350d5{stroke-width:3.33px;}.b89c1389-2a9b-4ef6-96e1-808b6f5d5c7e,.ec2d688a-4e55-4ac5-8057-4767c8462dd6{stroke-width:2.88px;}</style><clipPath id="f5320965-3069-4682-9687-8627250f9a23"><path class="ab4c8e1e-cfee-4023-a580-f1ca9eeb6767" d="M66,16.14c31.12,36,20.27,89.64,2.31,129-22,48.08-52.3,91.2-59.63,144.77-7,51.41,4.07,102.09,29.25,147.18,23.73,42.48,55.92,82,61.24,132,5.38,50.52-12.19,102.4-48.23,138.35-7.59,7.57,4.17,19.33,11.75,11.76,32.93-32.85,51.91-77.88,53.9-124.24a177,177,0,0,0-10.37-68.1c-9.07-24.72-22.93-47.11-36.73-69.4-13.93-22.51-27.77-45.25-36-70.58a214.77,214.77,0,0,1-9.91-80.4C25.37,278.73,33.22,252.1,45,227c11.95-25.36,26.66-49.32,38.2-74.88,21-46.5,30.71-105.93-5.51-147.77C70.7-3.72,59,8.08,66,16.14Z"/></clipPath></defs><title>繩子</title><g id="f88bd852-42f2-4769-9f25-2ff615c4081c" data-name="圖層 2"><g id="e8c0649b-9734-454f-a6e3-ec66fc6ca452" data-name="圖層 1"><path class="a70ac9bc-88e5-46e2-90d2-470898e103dc" d="M55.92,723.24c-7.69-2.49-15.82,2.55-21.71,7.13a47.25,47.25,0,0,0-8.3,8.36c-3.63,4.65-7.7,11.11-14.67,9.15a1.25,1.25,0,0,0-.66,2.4c7.38,2.08,12.31-3.46,16.37-8.8,5.79-7.63,17.76-19.25,28.31-15.83,1.53.49,2.19-1.91.66-2.41Z"/><path class="a70ac9bc-88e5-46e2-90d2-470898e103dc" d="M49.56,717.39c-7.25,4.17-11,10.84-13.79,18.47-3.6,9.69-8.21,23.76-21.24,22.26-1.59-.18-1.58,2.31,0,2.5,9,1,15.66-5.54,19.32-13.08,4.92-10.14,6.33-21.88,17-28a1.24,1.24,0,0,0-1.25-2.15Z"/><path class="a70ac9bc-88e5-46e2-90d2-470898e103dc" d="M53,728.9a20.79,20.79,0,0,0-17.4.38c-5.74,2.74-18.38,16.85-23.9,9.06-.92-1.3-3.08-.06-2.15,1.25,3.78,5.34,10.23,3.86,14.87.52,8.71-6.27,16.5-13.58,27.92-8.81,1.48.62,2.13-1.79.66-2.4Z"/><path class="a70ac9bc-88e5-46e2-90d2-470898e103dc" d="M42,715.79c-6.19,5.54-4.55,13.75-3.13,21,1.13,5.75,1.32,12.37-.35,18.07-1.75,6-7.43,8.68-12.75,10.9-1.46.61-.82,3,.66,2.4,8.1-3.37,14-7.28,15.19-16.46a46.76,46.76,0,0,0-.35-15.57c-1.24-6.33-3-13.65,2.49-18.55,1.2-1.08-.57-2.83-1.76-1.77Z"/><path class="b5b658a7-bb6a-480e-9674-30db24f7677e" d="M53.08,725c-6.06-2.3-14.37,2-18.7,6.21-6.48,6.25-9.07,18.83-19.76,19a1.25,1.25,0,0,0,0,2.49c6.78-.1,11.21-4.72,14.69-10.1,2.25-3.49,4.2-7.37,7.37-10.15,3.75-3.28,10.83-6.9,15.74-5,1.5.56,2.15-1.85.66-2.41Z"/><path class="b5b658a7-bb6a-480e-9674-30db24f7677e" d="M43.91,717a31.14,31.14,0,0,0-9.82,19c-.59,4.24-.54,8.64-2,12.72-1.85,5.3-6,9-10.38,12.28-1.27,1,0,3.12,1.26,2.16,6.22-4.66,11.08-9.83,12.47-17.71.75-4.3.71-8.71,1.79-13a28.06,28.06,0,0,1,8.41-13.73c1.17-1.1-.59-2.86-1.77-1.76Z"/><path class="b5b658a7-bb6a-480e-9674-30db24f7677e" d="M51.64,723c-2.79.16-4.22,1.7-5.94,3.76-1.49,1.81-2.19,3-4.59,3.09-2.16.1-4.24-.44-6.46-.21-10,1-17.53,8.3-23.67,15.63-1,1.22.73,3,1.76,1.76C19.5,739,28,731,39.31,732.21c2.17.23,3.76.55,5.62-.83,2.32-1.73,3.38-5.71,6.71-5.9,1.6-.09,1.61-2.58,0-2.49Z"/><path class="a6d3a12f-996d-44d3-a2f6-0207f2730e06" d="M50.72,718.84a36.9,36.9,0,0,0-14.18,13.95c-4.31,7.34-8.3,17.68-18.64,16.78-1.39-.12-1.38,2,0,2.16,6.85.6,12-3.69,15.57-9.14,2.49-3.76,4.21-8,6.78-11.68A33.85,33.85,0,0,1,51.81,720.7c1.22-.67.13-2.54-1.09-1.86Z"/><path class="a6d3a12f-996d-44d3-a2f6-0207f2730e06" d="M56.16,728c-6-4.1-13.17-4.19-19.76-1.39-8,3.41-14.85,9.94-23.62,3.49-1.12-.82-2.2,1-1.09,1.87a16.49,16.49,0,0,0,16.17,1.74c3.75-1.52,6.81-4.24,10.66-5.63,5.69-2,11.51-1.65,16.55,1.78,1.15.79,2.23-1.08,1.09-1.86Z"/><g class="f1680330-f839-4333-8020-34f056d1eb1f"><path class="b5024202-03e0-4d92-8f62-dad57e8417db" d="M66,16.14c31.12,36,20.27,89.64,2.31,129-22,48.08-52.3,91.2-59.63,144.77-7,51.41,4.07,102.09,29.25,147.18,23.73,42.48,55.92,82,61.24,132,5.38,50.52-12.19,102.4-48.23,138.35-7.59,7.57,4.17,19.33,11.75,11.76,32.93-32.85,51.91-77.88,53.9-124.24a177,177,0,0,0-10.37-68.1c-9.07-24.72-22.93-47.11-36.73-69.4-13.93-22.51-27.77-45.25-36-70.58a214.77,214.77,0,0,1-9.91-80.4C25.37,278.73,33.22,252.1,45,227c11.95-25.36,26.66-49.32,38.2-74.88,21-46.5,30.71-105.93-5.51-147.77C70.7-3.72,59,8.08,66,16.14Z"/><path class="a70ac9bc-88e5-46e2-90d2-470898e103dc" d="M60.79,2.93c3.69,3.8,7.37,6.51,12.56,7.82,6,1.52,20.48-.49,21,8,.1,1.59,2.6,1.61,2.5,0-.33-5.39-4.74-8.09-9.72-8.83-4.37-.65-8.77-.49-13.1-1.59-4.76-1.21-8.09-3.7-11.47-7.19-1.12-1.15-2.88.61-1.76,1.77Z"/><path class="a70ac9bc-88e5-46e2-90d2-470898e103dc" d="M60.36,17.3a32.09,32.09,0,0,0,16.43,9.22c7.6,1.55,17.9-.7,22.63,7.09.83,1.37,3,.11,2.15-1.26C98.44,27.18,93,25.55,87.24,25c-9.81-.9-17.84-2.09-25.12-9.49-1.12-1.15-2.89.61-1.76,1.76Z"/><path class="a70ac9bc-88e5-46e2-90d2-470898e103dc" d="M69.1,37.65c4.1,4.06,9.37,5.08,15,5.54,6.91.57,19.19-3.41,20.82,6.83.25,1.58,2.66.91,2.41-.67-.87-5.42-5.48-8.42-10.7-9-8.84-.9-18.4,2.74-25.72-4.5-1.14-1.13-2.91.63-1.76,1.76Z"/><path class="a70ac9bc-88e5-46e2-90d2-470898e103dc" d="M74.31,54.13c3,3.47,7.83,5.37,12.2,6.43,5.09,1.23,20.25-.39,18.2,8.83-.34,1.56,2.06,2.23,2.41.66,1.12-5-2.12-8.76-6.85-10.16-8.24-2.45-17.8-.1-24.2-7.53-1-1.21-2.81.56-1.76,1.77Z"/><path class="a70ac9bc-88e5-46e2-90d2-470898e103dc" d="M77,71.14c2.52,4.72,6.73,7.27,11.66,9.07,2.93,1.08,5.94,1.68,8.92,2.56,5.7,1.68,6.84,5.21,6.9,11a1.25,1.25,0,0,0,2.49,0c0-5.26-.81-10.26-6.09-12.55-7.78-3.37-17.13-2.69-21.72-11.3-.76-1.42-2.91-.16-2.16,1.26Z"/><path class="a70ac9bc-88e5-46e2-90d2-470898e103dc" d="M76,90.11a17.8,17.8,0,0,0,9.13,8.32c6,2.63,15.74,2,15.25,11.12-.09,1.61,2.41,1.6,2.49,0a10,10,0,0,0-6.35-10.28c-7-3-14.43-2.66-18.37-10.42-.72-1.43-2.88-.17-2.15,1.26Z"/><path class="a70ac9bc-88e5-46e2-90d2-470898e103dc" d="M75.06,104.32c1.43,4.15,3.12,6.64,7.25,8.27,3.56,1.41,6.83,2.54,9.65,5.27,3.28,3.17,3.46,11.61.59,15.11-1,1.23.74,3,1.76,1.77,3.48-4.24,3.91-13.12.49-17.52a21.1,21.1,0,0,0-7.53-5.44c-1.4-.66-2.86-1-4.29-1.59-3.19-1.21-4.45-3.45-5.51-6.53-.53-1.51-2.94-.86-2.41.66Z"/><path class="a70ac9bc-88e5-46e2-90d2-470898e103dc" d="M69.09,124.8A16.51,16.51,0,0,0,75,137.58c2.41,2,5.54,3,7.83,5.13,3.3,3,5.15,9.23,3.33,13.39-.64,1.45,1.51,2.72,2.15,1.26,2.09-4.77.83-11-2.44-15.05-1.83-2.27-4.34-3.42-6.74-5-4.7-3-7.42-6.83-7.54-12.55a1.25,1.25,0,0,0-2.49,0Z"/><path class="a70ac9bc-88e5-46e2-90d2-470898e103dc" d="M59.67,143.3a22.25,22.25,0,0,0,8.22,13.85c3,2.39,6.79,4.15,8.42,7.84,2.16,4.89-.82,11.09-3.41,15.26-.85,1.36,1.3,2.62,2.15,1.26,3.5-5.63,6.8-13.63,2.37-19.61-1.85-2.5-4.45-4.07-6.91-5.89a20.37,20.37,0,0,1-8.43-13.38c-.28-1.57-2.69-.9-2.41.67Z"/><path class="a70ac9bc-88e5-46e2-90d2-470898e103dc" d="M52,160.7c-.75,6.12,1.24,11.86,4.84,16.79a46.61,46.61,0,0,0,6,6.61,51.13,51.13,0,0,1,3.9,3.43c3.16,3.67,2.43,6.35.6,10.41-.65,1.46,1.5,2.73,2.16,1.26,2.79-6.23,2.8-10.07-2.31-14.56-7.13-6.24-14-13.73-12.73-23.94.2-1.59-2.3-1.57-2.49,0Z"/><path class="a70ac9bc-88e5-46e2-90d2-470898e103dc" d="M41.84,180.92a36.18,36.18,0,0,0,7.9,17.38,36.9,36.9,0,0,0,6.82,6.21c4.36,3.14,6.27,6.17,7.46,11.36.36,1.56,2.77.9,2.41-.66-.68-3-1.41-6-3.31-8.42s-4.61-3.82-6.92-5.67a33.38,33.38,0,0,1-12-20.86c-.27-1.58-2.67-.91-2.41.66Z"/><path class="a70ac9bc-88e5-46e2-90d2-470898e103dc" d="M29.11,204c1.27,6.48,2.88,13.41,8.31,17.71,1.43,1.13,3.21,1.87,4.5,3.18,1.82,1.85,2.49,4.38,2.95,6.85a39.49,39.49,0,0,1-.75,16.79c-.38,1.56,2,2.23,2.41.67,1.81-7.36,3-18.2-1.77-24.79-2.21-3-6-4.24-8.3-7.24-3-4-4-9.05-4.94-13.83-.31-1.58-2.71-.91-2.41.66Z"/><path class="a70ac9bc-88e5-46e2-90d2-470898e103dc" d="M16.17,232.17c1.74,3.36,2.46,7.41,5,10.34,2,2.36,4.8,3.56,7.58,4.78,9.56,4.19,16.45,14.91,8.43,24.27-1,1.22.71,3,1.76,1.77a16.75,16.75,0,0,0,.44-21.57c-2.87-3.67-6.65-5.37-10.79-7.25-6.4-2.89-7.33-8-10.23-13.6-.74-1.43-2.89-.17-2.16,1.26Z"/><path class="a70ac9bc-88e5-46e2-90d2-470898e103dc" d="M14.85,248.16c.1,5.78,1,11.61,3.8,16.74,3.23,5.86,13.78,10.66,12.34,18.18-.3,1.57,2.1,2.24,2.4.66,1.13-5.9-2.57-9.67-6.76-13.31-6.78-5.91-9.13-13.45-9.29-22.27a1.25,1.25,0,0,0-2.49,0Z"/><path class="a70ac9bc-88e5-46e2-90d2-470898e103dc" d="M6.78,267.59A32.56,32.56,0,0,0,13.2,289.4a31.19,31.19,0,0,0,8.35,7.72c2.49,1.57,5.36,2.74,6.78,5.5s1.26,6.28.9,9.37c-.19,1.59,2.3,1.58,2.49,0,.41-3.53.48-7.39-1.23-10.63-1.82-3.44-5.23-4.74-8.31-6.78-8.9-5.91-13.6-16.46-12.91-27,.11-1.6-2.39-1.59-2.49,0Z"/><path class="a70ac9bc-88e5-46e2-90d2-470898e103dc" d="M4.27,301.1a25.05,25.05,0,0,0,13.56,13.15C26.68,318,33.12,324.74,31,335.16c-.31,1.56,2.09,2.23,2.41.66a20.37,20.37,0,0,0-5.28-18.41c-2.69-2.74-6-4-9.49-5.53a22.86,22.86,0,0,1-12.23-12c-.66-1.47-2.81-.2-2.16,1.25Z"/><path class="a70ac9bc-88e5-46e2-90d2-470898e103dc" d="M1.24,322.39c2,5.3,4,10.86,8.54,14.53,4.75,3.89,18.57,3.18,17.8,11.26-.15,1.6,2.35,1.59,2.5,0,.51-5.36-4-8.33-8.71-9.52-4.3-1.1-8.15-1.56-11.41-4.94s-4.77-7.78-6.31-12c-.55-1.49-3-.85-2.41.66Z"/><path class="a70ac9bc-88e5-46e2-90d2-470898e103dc" d="M.91,350.1a15.57,15.57,0,0,0,10.22,8.61A31,31,0,0,0,20,359.78c2.85,0,5.27-.28,7.48,1.73,2.4,2.17,3.27,5.56,3.65,8.66.2,1.57,2.69,1.59,2.5,0-.62-4.94-2.69-11.66-8.29-12.79-3.87-.79-7.91.18-11.85-.66-4.64-1-8.47-3.45-10.4-7.88-.64-1.47-2.79-.2-2.15,1.26Z"/><path class="a70ac9bc-88e5-46e2-90d2-470898e103dc" d="M7,371a24.44,24.44,0,0,0,11.52,9.78c6.28,2.51,18,0,20.3,8.08a1.25,1.25,0,0,0,2.4-.66c-1.5-5.26-6.18-7.19-11.24-7.87-8.74-1.18-15.72-2.64-20.83-10.59-.87-1.35-3-.1-2.15,1.26Z"/><path class="a70ac9bc-88e5-46e2-90d2-470898e103dc" d="M8.6,395a20.46,20.46,0,0,0,13.53,6.74c2.83.2,5.37-.46,8.12-1,6-1.21,11.55.57,14,6.75.58,1.48,3,.83,2.4-.66-2-5-6.3-8.8-11.85-9.13-3.83-.23-7.41,1.61-11.23,1.61a17.89,17.89,0,0,1-13.21-6.06c-1.1-1.18-2.86.59-1.77,1.76Z"/><path class="a70ac9bc-88e5-46e2-90d2-470898e103dc" d="M19.4,414.9a26.4,26.4,0,0,0,15.47,4.2c2.68-.15,5.19-.92,7.83-1.33,5.5-.84,9.27,1.52,12.22,6,.88,1.33,3,.08,2.15-1.26-2.89-4.35-6.7-7.59-12.17-7.43-3.68.1-7.16,1.53-10.85,1.61a24,24,0,0,1-13.39-3.91c-1.36-.85-2.62,1.31-1.26,2.16Z"/><path class="a70ac9bc-88e5-46e2-90d2-470898e103dc" d="M29.79,431.21A15.37,15.37,0,0,0,41,435c6.57-.34,12.22-4.45,17.34,2,1,1.26,2.75-.52,1.76-1.76-8-10.09-19.47,1.94-28.5-5.77-1.21-1-3,.72-1.76,1.77Z"/><path class="a70ac9bc-88e5-46e2-90d2-470898e103dc" d="M35.42,447.21c2.66.84,4.44,3.14,7.17,3.87a14.75,14.75,0,0,0,5.88.18c7.06-1,14.38-6.71,21.23-2,1.32.92,2.57-1.24,1.26-2.15-4.72-3.27-10-2.34-15.12-.61-3.62,1.22-7.35,2.89-11.27,2.3-3.36-.5-5.36-3-8.49-4-1.53-.49-2.19,1.92-.66,2.4Z"/><path class="a70ac9bc-88e5-46e2-90d2-470898e103dc" d="M45.81,463.65c4.77,1.94,9.18,3.35,14.36,2.71,7.21-.89,13.15-2.72,19.16,2.8,1.18,1.08,3-.68,1.76-1.76a17,17,0,0,0-13.52-4.76c-3.11.28-6.13,1.27-9.25,1.43-4.22.21-8-1.27-11.85-2.83-1.48-.6-2.13,1.81-.66,2.41Z"/><path class="a70ac9bc-88e5-46e2-90d2-470898e103dc" d="M55.17,482a29.84,29.84,0,0,0,14.37,3.07c4.75,0,19.95-3.67,20.79,3.57.18,1.57,2.68,1.59,2.49,0-.59-5.05-4.74-6.76-9.38-6.88-9.32-.26-18.19,2.62-27-1.92-1.42-.73-2.68,1.42-1.25,2.16Z"/><path class="a70ac9bc-88e5-46e2-90d2-470898e103dc" d="M63,496.16a18.18,18.18,0,0,0,13.32,4.73c7.12-.49,17.35-4.64,21.93,3.5a1.25,1.25,0,0,0,2.15-1.26c-2.42-4.3-7.19-6-12-6.29-3.07-.17-5.9.57-8.9,1.09-5.6,1-10.35.27-14.79-3.54-1.21-1-3,.72-1.76,1.77Z"/><path class="a70ac9bc-88e5-46e2-90d2-470898e103dc" d="M74.49,510.29l.71-.64-2-.25C75.55,512.81,79,514,83,514.48a43.92,43.92,0,0,0,9.17.1c4.09-.37,9.72-2.39,12.59,2,.88,1.34,3,.09,2.15-1.26-6.84-10.41-24.24,3.62-31.52-7.15a1.27,1.27,0,0,0-2-.25l-.71.64c-1.19,1.07.58,2.83,1.77,1.76Z"/><path class="a70ac9bc-88e5-46e2-90d2-470898e103dc" d="M80.05,528.3a20.86,20.86,0,0,0,11.46,2.49c5.43-.14,15.78-2.4,18.14,4.54.52,1.52,2.93.87,2.41-.66-4.07-12-22.28-3.63-30.75-8.52a1.25,1.25,0,0,0-1.26,2.15Z"/><path class="a70ac9bc-88e5-46e2-90d2-470898e103dc" d="M87.28,543a28,28,0,0,0,9.89,5.4c4.5,1.32,14.55-.67,17,3.68a1.25,1.25,0,0,0,2.15-1.26c-2.09-3.66-5.43-4-9.37-4-6.77.09-12.57-1.24-17.94-5.62-1.23-1-3,.75-1.76,1.76Z"/><path class="a70ac9bc-88e5-46e2-90d2-470898e103dc" d="M90.47,558.39c2.57,3.52,6.16,5.18,10.43,5.77,2.63.37,5.27.19,7.91.39,3.26.25,5.84,1.8,6.92,5,.21.62,1.21,4.2.73,4.36-1.5.54-.85,3,.67,2.41,4.12-1.47,1-9-.94-11.28-5.79-7-17.61.25-23.56-7.92-.94-1.28-3.1,0-2.16,1.26Z"/><path class="a70ac9bc-88e5-46e2-90d2-470898e103dc" d="M90.23,573a12.9,12.9,0,0,0,9.85,6.21c3.24.32,6.61-.62,9.82.1,4.34,1,6.47,4.78,7.16,8.83.27,1.58,2.68.91,2.41-.66-.73-4.28-3-8.35-7.18-10-7.09-2.86-14.78,2.24-19.9-5.69-.87-1.34-3-.09-2.16,1.26Z"/><path class="a70ac9bc-88e5-46e2-90d2-470898e103dc" d="M94.59,588.68c1,4.39,4.64,6.72,8.69,8.19,3.27,1.18,7,1.73,9.65,4.26,2.85,2.79,3.37,7.12,3.89,10.86.21,1.58,2.62.91,2.4-.67-.67-4.84-1.64-10-5.85-13.05-5.1-3.71-14.63-2.94-16.38-10.25-.37-1.56-2.77-.9-2.4.66Z"/><path class="a70ac9bc-88e5-46e2-90d2-470898e103dc" d="M94.31,604.49a19,19,0,0,0,8.15,10.9c3.55,2.19,6.86,3.33,8.42,7.62.75,2.08,2.49,10.59-.11,12.31-1.33.89-.08,3,1.26,2.16,4.52-3,2.62-12.24.74-16.41a12.42,12.42,0,0,0-5.34-5.91c-5.1-3-8.84-5.3-10.72-11.33-.48-1.53-2.88-.88-2.4.66Z"/><path class="a70ac9bc-88e5-46e2-90d2-470898e103dc" d="M88.38,622.81c1.31,4.55,4.31,7.85,8.22,10.44,3.64,2.42,7.21,3.8,8.81,8.29,1.25,3.52.94,7.42.73,11.08-.1,1.6,2.4,1.6,2.49,0,.32-5.45.53-11.59-3.14-16.08-4.68-5.72-12.38-6.31-14.7-14.39a1.25,1.25,0,0,0-2.41.66Z"/><path class="a70ac9bc-88e5-46e2-90d2-470898e103dc" d="M86,640.11a16.11,16.11,0,0,0,4.89,11.67c4.64,4.59,15.52,8.88,11.84,17.33-.64,1.45,1.51,2.72,2.15,1.25,2-4.58.68-9-2.71-12.61-5.55-5.87-13.54-8.11-13.68-17.64a1.25,1.25,0,0,0-2.49,0Z"/><path class="a70ac9bc-88e5-46e2-90d2-470898e103dc" d="M78.5,656.37c.33,4.82,2.83,8.16,5.94,11.69,2.58,2.91,4.67,5.55,5.71,9.38s2.73,11.49-1.65,14c-1.4.78-.14,2.94,1.26,2.15,5.45-3.07,4.21-9.84,3.17-15.08A21,21,0,0,0,89,669.58c-3.19-4.25-7.63-7.46-8-13.21-.11-1.59-2.6-1.6-2.49,0Z"/><path class="a70ac9bc-88e5-46e2-90d2-470898e103dc" d="M68.38,674.44a16.87,16.87,0,0,0,5.08,12.16c3.78,3.9,15,13.84,7,19.3-1.32.89-.07,3.06,1.26,2.15,4.2-2.86,4.28-8.11,2.39-12.46-3.53-8.11-13.19-11.38-13.27-21.15a1.25,1.25,0,0,0-2.49,0Z"/><path class="a70ac9bc-88e5-46e2-90d2-470898e103dc" d="M56,691.55a16.24,16.24,0,0,0,5.8,8.91c2.31,1.89,4.69,3.49,6.44,6,2.4,3.4,5.21,10.39-.07,12.68-1.46.63-.2,2.78,1.26,2.15,5.2-2.25,4.84-8.16,2.87-12.66-3.2-7.32-11.87-10-13.89-17.72a1.25,1.25,0,0,0-2.41.66Z"/><path class="a70ac9bc-88e5-46e2-90d2-470898e103dc" d="M49.66,701.34a31.89,31.89,0,0,0,5.17,10.84c3.32,4.62,9.85,10.67,3,15.73-1.27.94,0,3.11,1.26,2.15,3.46-2.55,5.3-6.63,3.8-10.88-.91-2.56-3-4.54-4.67-6.62a31.74,31.74,0,0,1-6.15-11.88,1.25,1.25,0,0,0-2.41.66Z"/><path class="b5b658a7-bb6a-480e-9674-30db24f7677e" d="M60.64,9.47A33.84,33.84,0,0,0,72.86,16.3c5.8,1.74,13.37.23,18.14,4.37,1.21,1,3-.71,1.77-1.77-3.4-2.94-7.17-3.35-11.52-3.72A32.08,32.08,0,0,1,62.4,7.71c-1.21-1-3,.72-1.76,1.76Z"/><path class="b5b658a7-bb6a-480e-9674-30db24f7677e" d="M70.12,31.09c4,2.3,7.81,4.11,12.44,4.61,6.16.67,12.37-.25,17.94,3.09a1.25,1.25,0,0,0,1.26-2.16c-3.91-2.34-8.06-2.92-12.55-3.1-6.75-.26-11.9-1.19-17.83-4.59a1.25,1.25,0,0,0-1.26,2.15Z"/><path class="b5b658a7-bb6a-480e-9674-30db24f7677e" d="M76.2,48.4c4.23,2.15,8.51,4.2,13.32,4.51,6,.4,12.76-1.41,17.21,3.7,1.06,1.22,2.82-.55,1.77-1.76-2.66-3.05-6.25-4.17-10.21-4.43-2.92-.2-5.85.24-8.77,0-4.37-.36-8.2-2.22-12.06-4.18-1.43-.72-2.69,1.43-1.26,2.16Z"/><path class="b5b658a7-bb6a-480e-9674-30db24f7677e" d="M79.19,66.13a42,42,0,0,0,12.39,5.78c3.84,1,16.29,4.06,15.83,9.76-.13,1.6,2.36,1.59,2.49,0,.41-5-5.65-7.7-9.49-9.43-6.79-3.06-13.6-4.07-20-8.26-1.35-.89-2.6,1.27-1.26,2.15Z"/><path class="b5b658a7-bb6a-480e-9674-30db24f7677e" d="M79.91,86.48c3.52,2.83,6.91,5.27,11.5,5.85,3.12.4,5.94.18,8.78,1.86a12.61,12.61,0,0,1,5.89,8.59c.34,1.57,2.74.91,2.41-.66a15,15,0,0,0-8.26-10.72A17.39,17.39,0,0,0,94,90c-5.19-.45-8.23-2-12.27-5.28-1.24-1-3,.75-1.77,1.76Z"/><path class="b5b658a7-bb6a-480e-9674-30db24f7677e" d="M78.43,101.75c5.95,6.27,18.91,5.15,20,15.87.16,1.59,2.66,1.6,2.49,0A13.42,13.42,0,0,0,95.29,108c-4.57-3.43-11.15-3.83-15.1-8-1.1-1.17-2.86.6-1.76,1.76Z"/><path class="b5b658a7-bb6a-480e-9674-30db24f7677e" d="M74.53,116.84c2.28,4.4,5.82,7.48,9.54,10.65,4.4,3.74,13.35,12,7.42,18.28-1.1,1.17.66,2.93,1.77,1.77,10.85-11.46-12.39-23.86-16.57-31.95-.74-1.43-2.89-.17-2.16,1.25Z"/><path class="b5b658a7-bb6a-480e-9674-30db24f7677e" d="M65.48,137.66c.87,4.74,3.76,8.21,7.13,11.51,5.39,5.28,9.68,10.1,9.27,18.15-.08,1.6,2.41,1.6,2.5,0a20.58,20.58,0,0,0-4.27-14c-4.27-5.5-10.87-8.94-12.22-16.31-.29-1.57-2.69-.91-2.41.67Z"/><path class="b5b658a7-bb6a-480e-9674-30db24f7677e" d="M58.16,156.19a34.92,34.92,0,0,0,6.2,12.3c4.23,5.47,10.56,12.17,6.4,19.51a1.24,1.24,0,0,0,2.15,1.25c2.58-4.56,1.91-9.59-.56-14.1-3.82-7-9.59-11.65-11.78-19.62a1.25,1.25,0,0,0-2.41.66Z"/><path class="b5b658a7-bb6a-480e-9674-30db24f7677e" d="M47.46,174.85c2.36,4.78,4.8,9.56,8.27,13.65,3.82,4.49,14,10.38,9,17.58-.92,1.32,1.24,2.57,2.15,1.26,3.19-4.59.79-10.67-2.78-14.35-2.86-3-6-5.18-8.4-8.6a77.36,77.36,0,0,1-6.07-10.8c-.71-1.44-2.87-.18-2.16,1.26Z"/><path class="b5b658a7-bb6a-480e-9674-30db24f7677e" d="M41.6,193.75c-1.4,2.65-1.44.72-1.39,3.31a18.94,18.94,0,0,0,1.08,4.68,28.3,28.3,0,0,0,3.24,6.77c2.84,4.34,13.14,11.21,10.56,16.82-.66,1.45,1.49,2.72,2.16,1.26,2.35-5.13-1.57-9.29-5-12.85-2.93-3.08-5.77-6.05-7.56-10-1.67-3.67-1.43-7.48-2.56-11.19a1.29,1.29,0,0,0-1.2-.91l-.32,0a1.23,1.23,0,0,0-1.08.62l-.13.24c-.75,1.42,1.4,2.68,2.15,1.26Z"/><path class="b5b658a7-bb6a-480e-9674-30db24f7677e" d="M26.14,221.41a48.73,48.73,0,0,0,8.31,13.25,60,60,0,0,0,5.8,5.47c3.93,3.39,2.56,8.13.37,12-.78,1.4,1.37,2.66,2.15,1.25,2.6-4.63,4.61-9.9.27-14.16-6.12-6-11.28-11-14.75-19.11-.63-1.47-2.78-.2-2.15,1.26Z"/><path class="b5b658a7-bb6a-480e-9674-30db24f7677e" d="M16.79,242.77c2.63,5.18,2.57,10.77,6.14,15.62s14.14,10.27,12.7,17.23c-.33,1.56,2.08,2.23,2.4.66,1.35-6.48-3.53-10-7.85-13.85-3.39-3-6.58-6.44-8.12-10.8-1.19-3.39-1.47-6.89-3.12-10.12-.73-1.43-2.88-.17-2.15,1.26Z"/><path class="b5b658a7-bb6a-480e-9674-30db24f7677e" d="M9.93,262.28a41.22,41.22,0,0,0,9.33,15.9c4.65,4.87,18.71,10.53,14.8,18.92-.67,1.45,1.48,2.71,2.16,1.26,2.79-6-1-11.13-5.87-14.61-8.35-6-14.74-12.09-18-22.14-.49-1.51-2.9-.86-2.4.67Z"/><path class="b5b658a7-bb6a-480e-9674-30db24f7677e" d="M3.45,289.58c1.81,4.61,3.74,9.43,7.74,12.61,5.13,4.09,12.69,4.21,16.23,10.32a1.25,1.25,0,0,0,2.15-1.26c-2.35-4.06-6.14-5.88-10.32-7.63-7.32-3.07-10.53-7.41-13.4-14.71-.58-1.47-3-.83-2.4.67Z"/><path class="b5b658a7-bb6a-480e-9674-30db24f7677e" d="M1.66,313.61A29.27,29.27,0,0,0,10.84,323C16,326.12,27.31,328.26,25,336.68a1.25,1.25,0,0,0,2.4.66c1.32-4.76-1.24-8.94-5.21-11.53-3-1.92-6.4-2.84-9.44-4.59a26.46,26.46,0,0,1-8.92-8.87c-.87-1.34-3-.09-2.15,1.26Z"/><path class="b5b658a7-bb6a-480e-9674-30db24f7677e" d="M2.62,339.89a25.26,25.26,0,0,0,11.23,10.17c5.22,2.35,19.08,1,18.82,8.91-.05,1.61,2.45,1.6,2.5,0,.17-5.29-4.26-8-9-8.85-3.92-.72-7.66-.71-11.35-2.39a22.56,22.56,0,0,1-10.06-9.1,1.25,1.25,0,0,0-2.15,1.26Z"/><path class="b5b658a7-bb6a-480e-9674-30db24f7677e" d="M5.63,361.83c4.09,3.39,8.26,6.82,13,9.23A31.58,31.58,0,0,0,25,373.5c3.51.89,8.47.73,10,4.92.54,1.5,2.95.85,2.4-.67-1.67-4.63-5.76-5.38-10.17-6.31-7.76-1.63-13.89-6.43-19.86-11.37-1.23-1-3,.74-1.76,1.76Z"/><path class="b5b658a7-bb6a-480e-9674-30db24f7677e" d="M11.38,385.39a25.15,25.15,0,0,0,12.37,6c4.3.81,16.69-1.25,17.47,4.26.23,1.58,2.63.91,2.41-.66-.66-4.61-5-5.6-9.06-5.56-7.81.08-15.29-.32-21.42-5.8-1.2-1.07-3,.69-1.77,1.76Z"/><path class="b5b658a7-bb6a-480e-9674-30db24f7677e" d="M20.22,407.9A20.75,20.75,0,0,0,33.13,412c6.42-.23,13.51-4.28,19.33.27,1.25,1,3-.77,1.76-1.76-3.31-2.6-6.92-3.16-11.08-2.68-8.09.92-14.38,3.1-21.66-2.1-1.31-.94-2.55,1.23-1.26,2.15Z"/><path class="b5b658a7-bb6a-480e-9674-30db24f7677e" d="M25,423.48a25.89,25.89,0,0,0,13.42,5.91,28.68,28.68,0,0,0,6.74-.13c4.85-.59,8.15-.74,12.85.68,1.54.47,2.19-1.94.66-2.4-5-1.52-8.78-1.49-13.91-.78a22.86,22.86,0,0,1-18-5.05c-1.24-1-3,.76-1.77,1.77Z"/><path class="b5b658a7-bb6a-480e-9674-30db24f7677e" d="M36,440.32c4.34,2.17,9,4.33,14,3.56,5.34-.82,12.18-7.36,17.07-2.2,1.11,1.17,2.87-.6,1.76-1.76-2.56-2.71-6.11-3.09-9.61-2.12-2.83.78-5.31,2.51-8.14,3.28-4.92,1.35-9.47-.76-13.78-2.91-1.43-.72-2.7,1.43-1.26,2.15Z"/><path class="b5b658a7-bb6a-480e-9674-30db24f7677e" d="M45.91,458.43a27.14,27.14,0,0,0,16.84,1.09c7.19-1.85,15.29-7.85,21.51-.93,1.08,1.19,2.84-.58,1.77-1.77-4.63-5.14-8.15-5.22-14.51-3-8.59,3-15.93,5.65-24.94,2.18-1.5-.57-2.15,1.84-.67,2.41Z"/><path class="b5b658a7-bb6a-480e-9674-30db24f7677e" d="M53.72,472.94A31.42,31.42,0,0,0,68,474.73c6.84-.81,12.73-3,17.86,3.15,1,1.23,2.79-.54,1.77-1.76a14,14,0,0,0-11.94-5.22c-3.3.22-6.44,1.35-9.76,1.52a30.13,30.13,0,0,1-11.58-1.88c-1.51-.54-2.17,1.87-.66,2.4Z"/><path class="b5b658a7-bb6a-480e-9674-30db24f7677e" d="M64.34,490.62c4.58,1.79,9.24,2.22,14.12,2.36,5.51.16,13.83-.79,17.73,3.81,1,1.23,2.8-.55,1.77-1.76-3.14-3.7-8.2-4.06-12.76-4.33-6.87-.41-13.66.07-20.2-2.49-1.49-.59-2.14,1.83-.66,2.41Z"/><path class="b5b658a7-bb6a-480e-9674-30db24f7677e" d="M73.86,504.17c3.84,2.5,7.94,5.07,12.65,5.3,6.34.3,13.45-3.21,18.34,2.59,1,1.23,2.79-.54,1.76-1.77-2.93-3.48-7-4.35-11.44-4.15-2.88.13-5.77,1-8.66.83-4.26-.3-7.92-2.7-11.4-5-1.35-.88-2.6,1.28-1.25,2.15Z"/><path class="b5b658a7-bb6a-480e-9674-30db24f7677e" d="M79.3,520.73a42.41,42.41,0,0,0,14.69.7c7.23-.86,13.83-.63,17.25,6.88.66,1.45,2.81.19,2.15-1.26a14.35,14.35,0,0,0-10.45-8.48c-3.11-.59-6.2,0-9.28.4a39.48,39.48,0,0,1-13.7-.65c-1.56-.35-2.23,2.06-.66,2.41Z"/><path class="b5b658a7-bb6a-480e-9674-30db24f7677e" d="M86.54,536.29A38.32,38.32,0,0,0,98.69,540a37,37,0,0,0,6.9.15c2.58-.18,3.3-.56,5.76.95,2.29,1.41,2.37,1.52,3.39,3.66.68,1.45,2.84.18,2.15-1.26-1.64-3.46-3.6-6.25-7.74-6.24-2.94,0-5.77.63-8.74.41a34.71,34.71,0,0,1-12.61-3.5c-1.44-.69-2.71,1.46-1.26,2.16Z"/><path class="b5b658a7-bb6a-480e-9674-30db24f7677e" d="M91.1,551.54c6.31,11.14,25.59.09,29.9,13.07.51,1.52,2.92.87,2.41-.66a11.77,11.77,0,0,0-9.49-8.25c-6.24-1.23-17,1-20.67-5.42a1.25,1.25,0,0,0-2.15,1.26Z"/><path class="b5b658a7-bb6a-480e-9674-30db24f7677e" d="M96.67,568.83l-.1-1-2.12.88a19.72,19.72,0,0,0,10.1,5,39.71,39.71,0,0,0,6.17.08c4.38,0,6.94,2.64,9.07,6.21a1.25,1.25,0,0,0,2.15-1.26c-2-3.41-4.57-6.61-8.69-7.3-2.08-.35-4.17.07-6.26,0A16.89,16.89,0,0,1,96.21,567c-.73-.65-2.24-.28-2.13.88l.1,1c.15,1.58,2.64,1.59,2.49,0Z"/><path class="b5b658a7-bb6a-480e-9674-30db24f7677e" d="M96,582.57c2.8,2.75,5.32,4.41,9.25,5,6.44.94,13.8,2.15,15.44,9.69.34,1.57,2.74.9,2.4-.66a13.1,13.1,0,0,0-7.5-9.16,27.16,27.16,0,0,0-7.87-2.07c-4.37-.65-6.72-1.38-10-4.55-1.14-1.13-2.91.64-1.76,1.76Z"/><path class="b5b658a7-bb6a-480e-9674-30db24f7677e" d="M94.33,596.77a36.46,36.46,0,0,0,12,8.06c6.81,2.78,14.35,5.85,11.58,14.93a1.25,1.25,0,0,0,2.41.66,12.54,12.54,0,0,0-3.72-13.54c-2.38-2-5.38-2.84-8.22-3.93A34.67,34.67,0,0,1,96.09,595c-1.14-1.13-2.91.63-1.76,1.76Z"/><path class="b5b658a7-bb6a-480e-9674-30db24f7677e" d="M91.31,616.42c2.09,4.89,4.31,7.82,9.23,10,6.91,3,11.37,8.86,9.6,16.75-.35,1.57,2,2.23,2.4.67A16.6,16.6,0,0,0,109,629a19.15,19.15,0,0,0-7.19-4.75c-4.39-1.93-6.48-4.76-8.33-9.09-.63-1.47-2.78-.2-2.16,1.26Z"/><path class="b5b658a7-bb6a-480e-9674-30db24f7677e" d="M88.05,635.61a44.4,44.4,0,0,0,9.2,8.53,44.9,44.9,0,0,1,6.18,5.25c1.6,1.72,6.83,8.77,3.4,10.94-1.35.86-.1,3,1.26,2.16,4.23-2.68,1.36-9.2-.82-12.34-4.52-6.48-12.32-9.52-17.07-15.8-1-1.26-3.12,0-2.15,1.26Z"/><path class="b5b658a7-bb6a-480e-9674-30db24f7677e" d="M80.63,649.09a30.74,30.74,0,0,0,6.63,10.81c3.08,3.42,13.41,11.11,10.46,16.47-.78,1.4,1.37,2.66,2.15,1.26,2.37-4.31-.16-7.91-3-11.27-5-5.8-11.27-10.41-13.81-17.93-.51-1.51-2.92-.87-2.4.66Z"/><path class="b5b658a7-bb6a-480e-9674-30db24f7677e" d="M74.3,663.6c-2.46,2.74,1.11,6.73,2.87,9,4,5,15,15.29,5.67,21.08-1.36.85-.11,3,1.26,2.16,4.17-2.58,5.46-7.39,4.08-12a21.76,21.76,0,0,0-4.43-7.46c-1.17-1.42-9.26-9.22-7.69-11,1.07-1.19-.69-3-1.76-1.77Z"/><path class="b5b658a7-bb6a-480e-9674-30db24f7677e" d="M61.37,683.76A37.35,37.35,0,0,0,69.51,696c5.41,5.41,9,10.46,8.4,18.51-.12,1.6,2.37,1.59,2.49,0a21.92,21.92,0,0,0-4.55-15.57c-4.31-5.46-9.28-9.12-12.08-15.8-.61-1.46-3-.82-2.4.66Z"/><path class="b5b658a7-bb6a-480e-9674-30db24f7677e" d="M53.22,697.71a28.65,28.65,0,0,0,7.42,9.37c5.19,4.32,6.83,9.2,3.06,15.25-.85,1.36,1.31,2.62,2.15,1.26,2.41-3.87,3.66-8.82,1.46-13.1-1.13-2.21-3-3.61-4.91-5.18a27.07,27.07,0,0,1-7-8.86c-.73-1.43-2.88-.17-2.15,1.26Z"/><path class="b5b658a7-bb6a-480e-9674-30db24f7677e" d="M45.55,705.52,53,717.09c2.2,3.41,8.93,10.68,2.41,12.88-1.51.51-.86,2.92.66,2.4,3.46-1.17,6.35-3.25,5-7.21-1.06-3.13-4.11-6.53-5.91-9.33L47.7,704.26c-.87-1.35-3-.1-2.15,1.26Z"/><path class="a6d3a12f-996d-44d3-a2f6-0207f2730e06" d="M68.4,28.72c4.45,4.09,9.81,6.11,15.78,6.85,6.81.84,17-2,21.95,3.88,1.05,1.22,2.8-.55,1.76-1.77-3.63-4.24-8.76-4.33-14-4.27-8.53.11-17.13-.4-23.72-6.46-1.18-1.08-3,.68-1.77,1.77Z"/><path class="a6d3a12f-996d-44d3-a2f6-0207f2730e06" d="M67.89,136.31c1.29,11.74,16.13,15.61,16.68,27.22.07,1.6,2.57,1.61,2.49,0-.57-12.12-15.41-15.7-16.67-27.22-.17-1.58-2.67-1.59-2.5,0Z"/><path class="a6d3a12f-996d-44d3-a2f6-0207f2730e06" d="M22,223.12c.84,4.82,4.1,9.58,7.21,13.26,4.11,4.85,13.4,7.61,13.17,14.91-.06,1.6,2.44,1.6,2.49,0,.15-4.65-2.56-7.71-6.15-10.33-6.23-4.54-12.9-10.43-14.32-18.51-.28-1.57-2.68-.91-2.4.67Z"/><path class="a6d3a12f-996d-44d3-a2f6-0207f2730e06" d="M.19,315.16a33.67,33.67,0,0,0,12.92,12.45,33.22,33.22,0,0,0,8.52,3.1c4.26.94,10.16,1,11,6.59.23,1.58,2.63.91,2.4-.66-.94-6.5-7.45-7.18-12.71-8.33A30.91,30.91,0,0,1,2.34,313.9a1.25,1.25,0,0,0-2.15,1.26Z"/><path class="a6d3a12f-996d-44d3-a2f6-0207f2730e06" d="M35.25,442a22.2,22.2,0,0,0,14.41,3.62c6.13-.66,16.53-8.37,21-.91a1.25,1.25,0,0,0,2.16-1.26c-2.44-4.06-7-5-11.38-4-3.69.83-7,2.87-10.71,3.53a19.8,19.8,0,0,1-14.23-3.12c-1.36-.87-2.61,1.29-1.26,2.15Z"/><path class="a6d3a12f-996d-44d3-a2f6-0207f2730e06" d="M93.31,599.45c-.54.41,4,4.52,4.27,4.77a29.11,29.11,0,0,0,7.36,3.72c7.38,3,11.72,9.73,9.24,17.7-.48,1.54,1.93,2.19,2.41.66a16.46,16.46,0,0,0-5.82-18.23c-4.44-3.19-10-3.6-13.85-7.82-1.11-1.19-2.76-4.57-4.87-3-1.25,1,0,3.13,1.26,2.16Z"/><path class="a6d3a12f-996d-44d3-a2f6-0207f2730e06" d="M55,475.25a42,42,0,0,0,14.78,1.83c4.71-.3,17.37-5.24,18.23,2.09.18,1.57,2.68,1.59,2.49,0-.6-5.12-5.12-7-9.87-6.49-4,.45-7.67,1.79-11.71,2a39.76,39.76,0,0,1-13.26-1.8,1.25,1.25,0,0,0-.66,2.41Z"/><path class="a6d3a12f-996d-44d3-a2f6-0207f2730e06" d="M6.44,363.28c4.59,2.87,9.32,6.79,14.75,7.81,6.79,1.28,15.9.45,17.78,9.18.34,1.57,2.75.91,2.41-.66-1.22-5.65-5.93-8.78-11.35-9.95-4.14-.9-8.42-.44-12.32-2.37-3.48-1.73-6.72-4.11-10-6.16-1.36-.85-2.61,1.31-1.25,2.15Z"/><path class="a6d3a12f-996d-44d3-a2f6-0207f2730e06" d="M34.92,198A34.44,34.44,0,0,0,41,211.56c3.77,5,8.69,8,9.21,14.85.13,1.59,2.62,1.6,2.5,0a18,18,0,0,0-5.35-11.58c-4.95-5.25-8.46-10.31-10-17.48-.34-1.57-2.75-.91-2.4.66Z"/><path class="a6d3a12f-996d-44d3-a2f6-0207f2730e06" d="M72.55,119.64a32.94,32.94,0,0,0,8.31,10.75c4.36,3.65,11.31,5,10.84,11.77-.12,1.6,2.38,1.6,2.49,0,.36-5.17-1.47-7.59-6-9.88a30.43,30.43,0,0,1-13.53-13.89c-.71-1.44-2.87-.18-2.16,1.25Z"/><path class="eb08dbe1-29b2-4cd0-9559-b14052c350d5" d="M66,16.14c31.12,36,20.27,89.64,2.31,129-22,48.08-52.3,91.2-59.63,144.77-7,51.41,4.07,102.09,29.25,147.18,23.73,42.48,55.92,82,61.24,132,5.38,50.52-12.19,102.4-48.23,138.35-7.59,7.57,4.17,19.33,11.75,11.76,32.93-32.85,51.91-77.88,53.9-124.24a177,177,0,0,0-10.37-68.1c-9.07-24.72-22.93-47.11-36.73-69.4-13.93-22.51-27.77-45.25-36-70.58a214.77,214.77,0,0,1-9.91-80.4C25.37,278.73,33.22,252.1,45,227c11.95-25.36,26.66-49.32,38.2-74.88,21-46.5,30.71-105.93-5.51-147.77C70.7-3.72,59,8.08,66,16.14Z"/></g><rect class="ec2d688a-4e55-4ac5-8057-4767c8462dd6" x="37.48" y="712.92" width="18.72" height="21.24" rx="2.25" transform="translate(544.69 196.42) rotate(47.07)"/><path class="a70ac9bc-88e5-46e2-90d2-470898e103dc" d="M45.12,712.66c1.48,5.75,7.74,9.65,13,11.59,1.31.49,1.87-1.6.58-2.08-4.49-1.67-10.17-5.13-11.44-10.08a1.08,1.08,0,0,0-2.09.57Z"/><path class="a70ac9bc-88e5-46e2-90d2-470898e103dc" d="M36.28,720.67C38,727.44,47,731.12,53.37,731.06a1.09,1.09,0,0,0,0-2.17c-5.31.06-13.51-3-15-8.79a1.08,1.08,0,0,0-2.08.57Z"/><path class="b5b658a7-bb6a-480e-9674-30db24f7677e" d="M41.32,716.62c2.57,6.32,9.74,9.39,16.15,10,1.39.12,1.38-2,0-2.16-5.32-.48-11.9-3.06-14.06-8.38-.52-1.27-2.61-.72-2.09.57Z"/><path class="b5b658a7-bb6a-480e-9674-30db24f7677e" d="M39.42,730.91a38.49,38.49,0,0,0,4.67,2.24,14.07,14.07,0,0,0,5.48.46c1.39-.07,1.4-2.23,0-2.16a12.19,12.19,0,0,1-5-.43,40.64,40.64,0,0,1-4-2c-1.24-.63-2.34,1.24-1.09,1.87Z"/><path class="a6d3a12f-996d-44d3-a2f6-0207f2730e06" d="M39,718.43a15.62,15.62,0,0,0,17.13,8.37c1.37-.24.79-2.32-.57-2.08a13.43,13.43,0,0,1-14.69-7.38c-.63-1.24-2.49-.14-1.87,1.09Z"/><rect class="b89c1389-2a9b-4ef6-96e1-808b6f5d5c7e" x="37.48" y="712.92" width="18.72" height="21.24" rx="2.25" transform="translate(544.69 196.42) rotate(47.07)"/></g></g></svg>