<svg xmlns="http://www.w3.org/2000/svg" viewBox="0 0 61.86 61.86"><defs><style>.bcda2a9a-027a-47a5-96ae-fd8abec837af{fill:#595757;}.beb5aaa3-4fb7-40c4-9a24-04f00926be15{fill:#898989;}.acdb2c77-db34-4954-b5fa-8a5a3cad5152{fill:#727171;}.a615412a-0d13-45e6-8736-b86c47f84f5e{fill:#d9d9da;}.fd40035d-f99a-4f45-a897-ed576418d455{fill:#9fa0a0;}</style></defs><title>方3</title><g id="e5e7d742-b0e9-4ef3-bb5b-cd941d364c79" data-name="圖層 2"><g id="bf3f88ab-4046-4969-ba21-68c2ea8047a5" data-name="圖層 1"><rect class="bcda2a9a-027a-47a5-96ae-fd8abec837af" x="0.29" y="0.29" width="61.28" height="61.28" rx="11.3" transform="translate(61.39 62.33) rotate(-179.13)"/><rect class="beb5aaa3-4fb7-40c4-9a24-04f00926be15" x="0.24" y="6.57" width="54.95" height="54.95" rx="11.3" transform="translate(54.92 68.51) rotate(-179.13)"/><circle class="acdb2c77-db34-4954-b5fa-8a5a3cad5152" cx="38.31" cy="38.16" r="4.57"/><path class="a615412a-0d13-45e6-8736-b86c47f84f5e" d="M16.58,48.37a5.43,5.43,0,0,1-3-5.74,2.77,2.77,0,0,0-2.75-2.74,2.81,2.81,0,0,0-2.74,2.74,10.87,10.87,0,0,0,7,11,2.76,2.76,0,0,0,3.37-1.91,2.82,2.82,0,0,0-1.91-3.38Z"/><path class="bcda2a9a-027a-47a5-96ae-fd8abec837af" d="M23.29,47.06a11,11,0,0,1-7.51-9.15c-.35-3.47-5.84-3.51-5.48,0A16.64,16.64,0,0,0,21.83,52.34c3.37,1.09,4.81-4.2,1.46-5.28Z"/><path class="bcda2a9a-027a-47a5-96ae-fd8abec837af" d="M45,13.77A14,14,0,0,0,34.5,10.14c-3.49.29-3.52,5.78,0,5.48a8.55,8.55,0,0,1,6.59,2C43.72,20,47.62,16.12,45,13.77Z"/><path class="fd40035d-f99a-4f45-a897-ed576418d455" d="M40.37,39.77a3,3,0,0,0-2-4.32c-.86-.14-1.23,1.18-.36,1.33a1.64,1.64,0,0,1,1.21,2.3c-.41.78.77,1.47,1.18.69Z"/><path class="fd40035d-f99a-4f45-a897-ed576418d455" d="M58.7,11.26a9.33,9.33,0,0,0-8.54-7.63c-.88-.06-.88,1.31,0,1.37a8,8,0,0,1,7.22,6.62c.15.87,1.47.5,1.32-.36Z"/></g></g></svg>