<svg xmlns="http://www.w3.org/2000/svg" viewBox="0 0 105.67 105.67"><defs><style>.eb060249-9a18-454f-8274-68829aea4339{fill:#595757;}.a0581bbe-7264-47b0-94e8-c27e614b466c{fill:#898989;}.b3d70c4d-ac82-4ebe-aa5a-4c9dbb1d1922{fill:#727171;}.e9556b5e-c340-42d6-a4c6-31f4fc860a60{fill:#d9d9da;}.a3a5a870-6a43-4e81-9d50-f24a2ea35419{fill:#9fa0a0;}</style></defs><title>方2</title><g id="a20ac882-2ae2-4e6f-aab6-2d960a3f4079" data-name="圖層 2"><g id="faac972b-500a-4e61-9527-e2669c90dc2f" data-name="圖層 1"><rect class="eb060249-9a18-454f-8274-68829aea4339" x="6.39" y="6.39" width="92.89" height="92.89" rx="11.3" transform="translate(11.8 -9.61) rotate(11.69)"/><rect class="a0581bbe-7264-47b0-94e8-c27e614b466c" x="16.86" y="7.46" width="83.3" height="83.3" rx="11.3" transform="translate(11.16 -10.83) rotate(11.69)"/><circle class="b3d70c4d-ac82-4ebe-aa5a-4c9dbb1d1922" cx="43.9" cy="39.97" r="6.93"/><path class="e9556b5e-c340-42d6-a4c6-31f4fc860a60" d="M78.91,30.81A8.05,8.05,0,0,1,82,40c-1.56,5.13,6.47,7.33,8,2.21a16.55,16.55,0,0,0-6.94-18.59c-4.49-2.95-8.66,4.25-4.2,7.18Z"/><path class="eb060249-9a18-454f-8274-68829aea4339" d="M68.54,30.86a16.92,16.92,0,0,1,8.77,16.67c-.45,5.33,7.87,5.3,8.31,0A25.06,25.06,0,0,0,72.73,23.68c-4.68-2.59-8.88,4.59-4.19,7.18Z"/><path class="eb060249-9a18-454f-8274-68829aea4339" d="M26.91,74.15a21.58,21.58,0,0,0,15.48,8.7c2.23.23,4.15-2.07,4.15-4.16,0-2.43-1.91-3.92-4.15-4.15A12.42,12.42,0,0,1,34.09,70c-1.37-1.78-3.58-2.73-5.69-1.49-1.75,1-2.87,3.89-1.49,5.68Z"/><path class="a3a5a870-6a43-4e81-9d50-f24a2ea35419" d="M41.34,36.93a4.58,4.58,0,0,0,1.93,7.13c1.25.48,1.8-1.53.55-2a2.5,2.5,0,0,1-1-3.66c.83-1-.63-2.51-1.47-1.47Z"/><path class="a3a5a870-6a43-4e81-9d50-f24a2ea35419" d="M5.89,74.15A14.16,14.16,0,0,0,16.36,88a1,1,0,0,0,.55-2A12.07,12.07,0,0,1,8,74.15a1,1,0,0,0-2.07,0Z"/></g></g></svg>