<svg xmlns="http://www.w3.org/2000/svg" viewBox="0 0 74.95 74.95"><defs><style>.becb00ca-7173-457f-9bc0-5140a1608549{fill:#595757;}.b8875de3-abdd-4fa2-878d-c5ec6381b092{fill:#898989;}.aadc79d2-ab0e-49c3-9f50-c90117d355c8{fill:#727171;}.a5a9cf43-0793-4627-858f-402a610a67df{fill:#d9d9da;}.fafae4eb-5d1c-48b1-81e0-ddeb4ef148b7{fill:#9fa0a0;}</style></defs><title>方1</title><g id="b8a418a7-e6c4-46d3-ab59-74318a6dca43" data-name="圖層 2"><g id="ad77a3a6-1317-4fce-8a83-5ca016ed571d" data-name="圖層 1"><rect class="becb00ca-7173-457f-9bc0-5140a1608549" x="7.29" y="7.29" width="60.36" height="60.36" rx="11.3" transform="translate(27.01 -14.48) rotate(33.61)"/><rect class="b8875de3-abdd-4fa2-878d-c5ec6381b092" x="14.73" y="9.54" width="54.13" height="54.13" rx="11.3" transform="translate(27.25 -17.02) rotate(33.61)"/><circle class="aadc79d2-ab0e-49c3-9f50-c90117d355c8" cx="35.21" cy="27.55" r="4.5"/><path class="a5a9cf43-0793-4627-858f-402a610a67df" d="M58.34,30.23a5.31,5.31,0,0,1,.09,6.33,2.79,2.79,0,0,0,0,3.82,2.72,2.72,0,0,0,3.82,0A10.76,10.76,0,0,0,63,27.51c-2-2.85-6.65-.15-4.67,2.72Z"/><path class="becb00ca-7173-457f-9bc0-5140a1608549" d="M52.5,28.29a10.86,10.86,0,0,1,1.19,11.57c-1.54,3.1,3.11,5.84,4.66,2.73a16.52,16.52,0,0,0-2-18.12c-2.18-2.71-6,1.14-3.82,3.82Z"/><path class="becb00ca-7173-457f-9bc0-5140a1608549" d="M16.74,44.36a13.66,13.66,0,0,0,6.8,8.5c3.08,1.61,5.81-3,2.73-4.66A8.33,8.33,0,0,1,22,42.92C21,39.58,15.81,41,16.74,44.36Z"/><path class="fafae4eb-5d1c-48b1-81e0-ddeb4ef148b7" d="M34.33,25.14a3,3,0,0,0-.56,4.67c.64.58,1.6-.37,1-1A1.61,1.61,0,0,1,35,26.3c.76-.42.08-1.59-.68-1.16Z"/><path class="fafae4eb-5d1c-48b1-81e0-ddeb4ef148b7" d="M4,39A9.23,9.23,0,0,0,7,49.87c.69.52,1.37-.65.68-1.17a7.87,7.87,0,0,1-2.42-9.34c.33-.8-1-1.15-1.3-.36Z"/></g></g></svg>