<svg xmlns="http://www.w3.org/2000/svg" viewBox="0 0 63.29 55.85"><defs><style>.fe995baa-6ea5-4218-b102-ab75e4b2d391{fill:#474342;}.a38c6665-083b-4425-a547-7685bf3c051c{fill:#6f6e6f;}.f52cabe7-1fc2-412f-91d4-54ab3d3e160c{fill:#bdbebe;}.ba5a6770-0e12-4706-b759-c8bbf6991021{fill:#595757;}.a5c16b7e-1411-498b-be0d-8d1f406d12ab{fill:#fff;}.f5093e36-0090-4a18-80fa-ac34b984a019{fill:#727171;}.e4332694-2fa9-434b-8485-42ce8adff8b1{fill:#9fa0a0;}</style></defs><title>三3</title><g id="f2976a9a-b1e4-4601-87bd-8b794e109c45" data-name="圖層 2"><g id="ac7642d0-339c-43a1-b867-42557bc939cb" data-name="圖層 1"><path class="fe995baa-6ea5-4218-b102-ab75e4b2d391" d="M35,53.89l27.72-48A3.93,3.93,0,0,0,59.36,0H3.93A3.93,3.93,0,0,0,.53,5.89l27.72,48A3.92,3.92,0,0,0,35,53.89Z"/><path class="a38c6665-083b-4425-a547-7685bf3c051c" d="M34.92,50.52l15.95-38a4.81,4.81,0,0,0-4.28-7L8.81,5.93a4.81,4.81,0,0,0-4.28,7L26.37,50.52A4.81,4.81,0,0,0,34.92,50.52Z"/><circle class="f52cabe7-1fc2-412f-91d4-54ab3d3e160c" cx="31.65" cy="27.48" r="5.11"/><path class="ba5a6770-0e12-4706-b759-c8bbf6991021" d="M45.38,16.59c-.28-3-1.37-5.82-4.22-7.2-2.55-1.23-5.35-.93-8-.54-1.64.25-2.54,2.32-2.14,3.77a3.13,3.13,0,0,0,3.77,2.14c1.93-.28,4.28-.64,4.51,1.83a3.16,3.16,0,0,0,3.07,3.07,3.08,3.08,0,0,0,3.06-3.07Z"/><path class="ba5a6770-0e12-4706-b759-c8bbf6991021" d="M32.94,44.93,20.84,25.27c-2.07-3.35-7.37-.28-5.29,3.09L27.64,48c2.07,3.36,7.37.28,5.3-3.09Z"/><path class="a5c16b7e-1411-498b-be0d-8d1f406d12ab" d="M46,15.24A8,8,0,0,0,35.67,9.09c-1.87.6-1.07,3.56.82,3a4.92,4.92,0,0,1,6.55,4c.35,1.94,3.3,1.12,3-.81Z"/><path class="a5c16b7e-1411-498b-be0d-8d1f406d12ab" d="M30,45.83,24.55,35.66c-.93-1.74-3.57-.19-2.64,1.55l5.42,10.17c.92,1.74,3.57.19,2.64-1.55Z"/><path class="f5093e36-0090-4a18-80fa-ac34b984a019" d="M31.33,29.84A3.09,3.09,0,0,1,31.7,25c.84-.51.07-1.84-.77-1.32a4.63,4.63,0,0,0-.69,7.26c.74.65,1.83-.43,1.09-1.08Z"/><path class="e4332694-2fa9-434b-8485-42ce8adff8b1" d="M55.84,11.89c1.28-1.8,2.9-4.58,2.47-6.89S54.94,2.63,53,2.85c-1,.11-1,1.64,0,1.53a10.4,10.4,0,0,1,2-.07,2.27,2.27,0,0,1,1.76.88c.21.37-.07,1.28-.18,1.67a13.5,13.5,0,0,1-2.1,4.25c-.58.81.75,1.57,1.32.78Z"/><path class="e4332694-2fa9-434b-8485-42ce8adff8b1" d="M3.8,4.94a1.2,1.2,0,0,1,.44-1.52c.26-.24,1.15-1,1.53-.78.86.48,1.64-.84.77-1.32C5.37.67,4,1.54,3.15,2.33a2.71,2.71,0,0,0-.68,3.38c.51.84,1.84.07,1.33-.77Z"/></g></g></svg>