<svg xmlns="http://www.w3.org/2000/svg" viewBox="0 0 62.1 60.54"><defs><style>.bea0e84b-c2df-4188-96c9-98ec15fe6c24{fill:#474342;}.b8069fa0-9a35-4ee9-a12b-ecf449f697f1{fill:#6f6e6f;}.ae67cf69-3a42-4969-8a84-54b1bd32f778{fill:#bdbebe;}.a8cfb3f7-2a2e-4ea6-818d-5f71b4e25e68{fill:#595757;}.e495ed03-d4a4-4671-be36-2bbfddc0169c{fill:#fff;}.bcdddaef-7504-42b2-a962-63c7c2d042e9{fill:#727171;}.b4e0bcb6-0dd4-4394-af50-1e517a3d9cd5{fill:#9fa0a0;}</style></defs><title>三2</title><g id="b91dc5dd-2d3f-438d-ba6d-505cc99a1169" data-name="圖層 2"><g id="e8407168-fce3-4422-b195-1779cd8ec031" data-name="圖層 1"><path class="bea0e84b-c2df-4188-96c9-98ec15fe6c24" d="M3.12,49,57.36,60.45a3.92,3.92,0,0,0,4.54-5.06L44.68,2.71A3.92,3.92,0,0,0,38,1.31L1,42.56A3.92,3.92,0,0,0,3.12,49Z"/><path class="b8069fa0-9a35-4ee9-a12b-ecf449f697f1" d="M6.28,47.86l41.06,3.36A4.81,4.81,0,0,0,52.68,45L40.55,9.19a4.81,4.81,0,0,0-8-1.89L3.62,39.73A4.82,4.82,0,0,0,6.28,47.86Z"/><circle class="ae67cf69-3a42-4969-8a84-54b1bd32f778" cx="27.16" cy="37.59" r="5.11"/><path class="a8cfb3f7-2a2e-4ea6-818d-5f71b4e25e68" d="M42.38,47a7.87,7.87,0,0,0,4.88-5.69c.51-2.81-.62-5.5-1.84-8-1.76-3.53-7.05-.43-5.3,3.09.48,1,1.3,2.38,1.16,3.51s-1.11,1.38-2,1.76c-1.52.66-1.86,2.89-1.1,4.2a3.15,3.15,0,0,0,4.2,1.1Z"/><path class="a8cfb3f7-2a2e-4ea6-818d-5f71b4e25e68" d="M10.85,44.37,25.78,26.76c2.54-3-1.77-7.35-4.33-4.33L6.52,40C4,43,8.3,47.38,10.85,44.37Z"/><path class="e495ed03-d4a4-4671-be36-2bbfddc0169c" d="M43.19,47.47a8,8,0,0,0,2.75-11.7c-1.14-1.59-3.8-.06-2.65,1.55a4.91,4.91,0,0,1-1.65,7.5c-1.73,1-.19,3.59,1.55,2.65Z"/><path class="e495ed03-d4a4-4671-be36-2bbfddc0169c" d="M9.14,41.76l8-8.31c1.37-1.42-.8-3.59-2.16-2.16L7,39.6c-1.37,1.42.79,3.59,2.16,2.16Z"/><path class="bcdddaef-7504-42b2-a962-63c7c2d042e9" d="M24.8,38.06a3.1,3.1,0,0,1,4.73-1.23c.74.64,1.83-.44,1.08-1.08a4.62,4.62,0,0,0-7.13,1.54c-.38.89.94,1.67,1.32.77Z"/><path class="b4e0bcb6-0dd4-4394-af50-1e517a3d9cd5" d="M49.46,55.73c2.12.67,5.41,1.4,7.46.17s1-4.06.24-5.79c-.42-.89-1.74-.11-1.33.78a8.49,8.49,0,0,1,.73,2.2c.22,1.31-.9,1.77-2,1.83a13.11,13.11,0,0,1-4.69-.67c-.94-.29-1.35,1.19-.41,1.48Z"/><path class="b4e0bcb6-0dd4-4394-af50-1e517a3d9cd5" d="M39.91,4.14A1.18,1.18,0,0,1,41.46,4c.33.18,1.35.8,1.29,1.21-.15,1,1.33,1.39,1.47.41.21-1.37-1-2.41-2.1-3a2.67,2.67,0,0,0-3.29.42c-.65.74.43,1.83,1.08,1.08Z"/></g></g></svg>