<svg xmlns="http://www.w3.org/2000/svg" viewBox="0 0 87.88 77.15"><defs><style>.aee8ad7e-2709-4c55-b530-822f80b7c036{fill:#474342;}.e42b4387-84f4-4dc8-bcfb-d6ffef6a340b{fill:#6f6e6f;}.f64a9974-e58e-402c-b846-053cd6e094b2{fill:#bdbebe;}.a7b19d30-03fe-4821-b9ee-8c38d6e43650{fill:#595757;}.b900dfd9-bc3d-4a03-a6e5-62cf42188232{fill:#fff;}.acd485d8-0a16-422f-9f73-543f9a0ecebe{fill:#727171;}.bf1441ee-44e2-40a1-8de5-cbf3b8629cc9{fill:#9fa0a0;}</style></defs><title>三1</title><g id="ad0bd1a2-4c6d-4ded-a1bc-12eec9997c4d" data-name="圖層 2"><g id="a7a747c2-3421-4fef-9619-0fa46889f0e5" data-name="圖層 1"><path class="aee8ad7e-2709-4c55-b530-822f80b7c036" d="M40.54,2l-40,69.3a3.93,3.93,0,0,0,3.4,5.89H84a3.93,3.93,0,0,0,3.4-5.89L47.34,2A3.93,3.93,0,0,0,40.54,2Z"/><path class="e42b4387-84f4-4dc8-bcfb-d6ffef6a340b" d="M39.5,8.62,17.87,60.14a6.53,6.53,0,0,0,5.8,9.52l51.24-.56a6.53,6.53,0,0,0,5.8-9.52l-29.62-51A6.52,6.52,0,0,0,39.5,8.62Z"/><circle class="f64a9974-e58e-402c-b846-053cd6e094b2" cx="43.94" cy="39.87" r="6.93"/><path class="a7b19d30-03fe-4821-b9ee-8c38d6e43650" d="M25.31,54.64c.38,4.06,1.85,7.9,5.73,9.77,3.45,1.67,7.25,1.27,10.91.73C44.17,64.81,45.4,62,44.86,60c-.66-2.38-2.89-3.23-5.12-2.9-2.62.39-5.81.87-6.12-2.48a4.28,4.28,0,0,0-4.16-4.16c-2.08,0-4.36,1.91-4.15,4.16Z"/><path class="a7b19d30-03fe-4821-b9ee-8c38d6e43650" d="M42.19,16.21l16.4,26.66c2.8,4.55,10,.38,7.18-4.19L49.37,12c-2.8-4.54-10-.37-7.18,4.2Z"/><path class="b900dfd9-bc3d-4a03-a6e5-62cf42188232" d="M24.48,56.48a10.79,10.79,0,0,0,14,8.33c2.54-.81,1.45-4.82-1.11-4a6.67,6.67,0,0,1-8.88-5.44c-.48-2.63-4.48-1.51-4,1.11Z"/><path class="b900dfd9-bc3d-4a03-a6e5-62cf42188232" d="M46.21,15l7.35,13.79c1.26,2.36,4.85.26,3.59-2.1L49.8,12.9C48.54,10.53,45,12.63,46.21,15Z"/><path class="acd485d8-0a16-422f-9f73-543f9a0ecebe" d="M44.37,36.68a4.18,4.18,0,0,1-.51,6.59c-1.14.7-.09,2.49,1,1.79a6.28,6.28,0,0,0,.93-9.85c-1-.88-2.48.58-1.47,1.47Z"/><path class="bf1441ee-44e2-40a1-8de5-cbf3b8629cc9" d="M11.12,61c-1.73,2.43-3.93,6.21-3.34,9.34s4.56,3.22,7.16,2.92c1.31-.15,1.33-2.23,0-2.08a13.86,13.86,0,0,1-2.73.1,3.05,3.05,0,0,1-2.38-1.19c-.29-.51.09-1.74.24-2.27a18.41,18.41,0,0,1,2.85-5.77c.78-1.09-1-2.13-1.8-1Z"/><path class="bf1441ee-44e2-40a1-8de5-cbf3b8629cc9" d="M81.71,70.45a1.65,1.65,0,0,1-.6,2.06c-.36.32-1.56,1.34-2.08,1-1.17-.65-2.22,1.15-1,1.79,1.59.88,3.41-.29,4.6-1.37a3.65,3.65,0,0,0,.92-4.58,1,1,0,0,0-1.79,1Z"/></g></g></svg>