<svg xmlns="http://www.w3.org/2000/svg" xmlns:xlink="http://www.w3.org/1999/xlink" viewBox="0 0 1400 1050"><defs><style>.b8162441-6f2e-4803-9b83-f1a0476ca02f{fill:url(#ae03e770-95e2-4350-ac0f-729b84e87be0);}.ecb76f5c-37b6-4bcc-8fcb-f29c2fe1c7d4{fill:#e0d141;}.b3d31aa8-42f0-484f-8139-07b0cf77e87d{fill:#f8b62d;}.e3d32ce3-4e15-40a7-aad2-135fc07a0f0d{fill:#f39800;}.b2b186fc-676e-40b0-bb23-8d2276934bca{fill:#ef8c3f;}.a5f125dc-6140-4dcd-bea3-9a4d63e47167{fill:#854b15;}.b1ea6017-487f-437f-ae2e-dde6d2b47cfe{fill:#494645;}.adfd3347-72ee-4e54-a06f-45d913d6d9ed{fill:#95c96e;}.ecb3d0c5-b7d1-4a59-a8e1-aa190edc6f17{fill:#7d7d7d;}.e619d037-61d5-4530-a706-843fcd7f40c1{fill:#5c5a5a;}.aec291fd-5ff5-4fd1-bdc7-25cdd9b06ff0{fill:#efefef;}.bac2d94c-7c17-4b5c-826c-f1b5b1fb33e2{fill:#949495;}.b34d73ca-1848-4c81-ad30-1608c1e352bf{fill:#999;}.ff6fc36f-3a37-495b-ba2c-302c91065018{fill:#e2e2e3;}.adab652e-4333-4148-9bc1-46cca5d5318e{fill:#7b7a7b;}.a4800a27-e0a4-4edb-a2c8-9dbc39675573{fill:#b57c4d;}.b8ebfdba-fa11-4eb5-bca2-afcdf57a0360{fill:#a57145;}.a9c93afc-6308-4bd7-a4df-cec1da1e4f92{fill:#97663e;}.bc72859b-f1d4-4d59-a682-8fef50b01546{fill:#6e4726;}.ab123cc7-e331-4de5-938e-fe51a16c5745{fill:#5a3718;}.b58b63eb-b027-4297-a1e5-2d5d30be8eaa{fill:#242424;}.e1ab8c3b-47cc-4322-9876-fab8108afde6{fill:#40220f;}.f3434857-eaa3-4036-952a-329216f36909{fill:#a37c45;}.e6f2be4f-1f0e-410c-988e-d745e8acfa21{fill:#00a0e9;}.f7621289-0110-4c95-95c2-097e95d19121{fill:#727171;}</style><linearGradient id="ae03e770-95e2-4350-ac0f-729b84e87be0" x1="700" x2="700" y2="609.24" gradientUnits="userSpaceOnUse"><stop offset="0.19" stop-color="#f4a053"/><stop offset="1" stop-color="#fffab5"/></linearGradient></defs><title>背景_1</title><g id="e38ff5fc-279e-45ae-b17d-8c853fa0de67" data-name="圖層 2"><g id="ababa065-5722-4e32-a66a-63b3bc161eed" data-name="圖層 1"><rect class="b8162441-6f2e-4803-9b83-f1a0476ca02f" width="1400" height="609.24"/><ellipse class="ecb76f5c-37b6-4bcc-8fcb-f29c2fe1c7d4" cx="949.23" cy="277.37" rx="205.94" ry="204.52"/><ellipse class="b3d31aa8-42f0-484f-8139-07b0cf77e87d" cx="949.23" cy="277.37" rx="155.26" ry="154.18"/><ellipse class="e3d32ce3-4e15-40a7-aad2-135fc07a0f0d" cx="949.23" cy="277.37" rx="103.6" ry="102.88"/><ellipse class="b2b186fc-676e-40b0-bb23-8d2276934bca" cx="319.78" cy="186.88" rx="105.4" ry="64.51"/><ellipse class="b2b186fc-676e-40b0-bb23-8d2276934bca" cx="1281.71" cy="169.82" rx="105.4" ry="64.51"/><ellipse class="b2b186fc-676e-40b0-bb23-8d2276934bca" cx="1096.21" cy="99.35" rx="79.86" ry="48.88"/><path class="a5f125dc-6140-4dcd-bea3-9a4d63e47167" d="M1390,507.33c-16,10-34,15.05-52.43,18.4-19.83,3.61-39.85,6.29-59.84,8.82C1128.16,553.41,977,549.3,826.77,542.74c-10.6-.46-10.62-17,0-16.51,41.54,1.81,83.1,3.44,124.67,4.44l10.56.23c-33.64-2.8-66.73-6.3-98.86-10.21-78.8-9.58-158-20.58-237.28-27.48,5.91,4.4,4.52,15.8-4.3,14.87-47.36-5-94.91-8.05-142.53-8.68-84.78-1.13-169.85,5.44-252.92,22.76-31.54,6.58-62.81,14.55-93.93,23.2C87.69,559.51,43.69,575.2,0,591.15V1050H1400V496.4C1399.42,497.14,1390.91,506.74,1390,507.33Z"/><path class="b1ea6017-487f-437f-ae2e-dde6d2b47cfe" d="M1024.26,173.71a15.1,15.1,0,0,1,10.16,7.59c1.28,2.33,4.85.25,3.57-2.08a19.16,19.16,0,0,0-12.64-9.49c-2.59-.58-3.69,3.4-1.09,4Z"/><path class="b1ea6017-487f-437f-ae2e-dde6d2b47cfe" d="M1038.13,181.25c1.47-3.47,4.71-4.86,8.31-5.05,2.64-.15,2.66-4.28,0-4.13-4.9.27-9.84,2.32-11.88,7.09-1,2.42,2.53,4.53,3.57,2.09Z"/><path class="b1ea6017-487f-437f-ae2e-dde6d2b47cfe" d="M988.16,196.41a26.24,26.24,0,0,1,18.26,12c1.41,2.25,5,.18,3.57-2.08a30.2,30.2,0,0,0-20.74-13.92c-2.6-.43-3.71,3.55-1.09,4Z"/><path class="b1ea6017-487f-437f-ae2e-dde6d2b47cfe" d="M1010.42,207.83c2.13-6,8.08-8.73,14-9.38,2.61-.28,2.64-4.42,0-4.13-7.91.87-15.2,4.56-18,12.42-.89,2.5,3.09,3.58,4,1.09Z"/><path class="b1ea6017-487f-437f-ae2e-dde6d2b47cfe" d="M1076.3,205.42a33.64,33.64,0,0,0-23.13,15.51c-1.42,2.26,2.16,4.33,3.57,2.08a29.71,29.71,0,0,1,20.66-13.61c2.61-.43,1.5-4.41-1.1-4Z"/><path class="b1ea6017-487f-437f-ae2e-dde6d2b47cfe" d="M1056.69,221.3c-3.11-8.7-11.2-12.79-20-13.75-2.64-.29-2.62,3.84,0,4.13,6.78.74,13.55,3.91,16,10.72.88,2.48,4.88,1.41,4-1.1Z"/><path class="b1ea6017-487f-437f-ae2e-dde6d2b47cfe" d="M891.33,394.53c2.66,0,2.67-4.13,0-4.13s-2.66,4.13,0,4.13Z"/><path class="b1ea6017-487f-437f-ae2e-dde6d2b47cfe" d="M30.16,405.44q18-3.4,36.09-6.47c2.39-.4,8.29-1.55,10,1.18.76,1.17.15,7.62.17,9,.07,6,0,12.06,0,18.08,0,2.66,4.09,2.66,4.13,0,.11-8.52.27-17.09-.09-25.61-.15-3.4-.25-6.79-3.94-8-5.37-1.71-13.89,1.7-19.22,2.62q-14.13,2.44-28.23,5.13c-2.61.49-1.5,4.47,1.1,4Z"/><path class="b1ea6017-487f-437f-ae2e-dde6d2b47cfe" d="M192,405.18a154,154,0,0,1-1.52-18.07,45.13,45.13,0,0,1,0-7.8,5.2,5.2,0,0,1,1.16-3.92c.31-2.38,1.7-3.33,4.16-2.87,9.22-3.25,20.94-3.43,30.6-5,2.62-.43,1.51-4.41-1.09-4l-24.49,4c-3.62.6-10.5.25-13,3.36-2.38,2.91-1.5,9.81-1.5,13.1a161.17,161.17,0,0,0,1.7,22.28c.36,2.63,4.34,1.51,4-1.09Z"/><path class="b1ea6017-487f-437f-ae2e-dde6d2b47cfe" d="M336.13,338a314.23,314.23,0,0,1,53.31-7.33l-2.06-2.06,2.55,36.57c.18,2.64,4.31,2.66,4.13,0l-2.55-36.57a2.1,2.1,0,0,0-2.07-2.06A320,320,0,0,0,335,334.06c-2.59.58-1.49,4.56,1.1,4Z"/><path class="b1ea6017-487f-437f-ae2e-dde6d2b47cfe" d="M503.8,342.39l-.14-18.61c0-3.72-.32-5.78,1.84-9.07,2.91-4.41,6.91-3.77,11.79-4.1,11.58-.81,23.18-1.18,34.79-1.28,2.65,0,2.66-4.15,0-4.13-8.58.08-17.16.3-25.73.74-7,.36-16.42-.4-22.89,2.88-2.8,1.42-3.6,2.53-4,5.66-1.13,8.93.13,18.88.2,27.91,0,2.66,4.15,2.67,4.13,0Z"/><path class="b1ea6017-487f-437f-ae2e-dde6d2b47cfe" d="M657.52,317.94a144,144,0,0,1,14.84.4c4.76.41,14.33-.28,15.39,5.05.88,4.4-.32,10.22-.46,14.71l-.51,16.18c-.08,2.66,4.05,2.66,4.13,0L692,319a2.08,2.08,0,0,0-1.51-2,145.69,145.69,0,0,0-33-3.18c-2.65.05-2.66,4.18,0,4.13Z"/><path class="b1ea6017-487f-437f-ae2e-dde6d2b47cfe" d="M799.68,372.29c.14-8,.52-16,1.22-24,.1-1.2-.14-3.91.52-4.92q-.23-2.36,2.6-1.09l2.42.13a92.52,92.52,0,0,1,13.85,2c2.59.56,3.7-3.42,1.1-4a95.15,95.15,0,0,0-17.37-2.3c-2.22-.07-4.31-.37-5.89,1.42-2,2.31-1.46,9.68-1.67,12.49-.51,6.74-.79,13.48-.91,20.23,0,2.66,4.08,2.66,4.13,0Z"/><path class="b1ea6017-487f-437f-ae2e-dde6d2b47cfe" d="M959.1,362.62l40.1,1.84,4.81.22c3.17-.56,4.35.23,3.56,2.39.69,2.26-.88,6.57-1.09,9a43.3,43.3,0,0,0,1.47,16.69c.75,2.54,4.74,1.46,4-1.1a40,40,0,0,1-1.46-14.09c.23-3.79,1.78-8.25,1.43-12-.3-3.21-1-4.06-4.13-4.81-7-1.68-15.75-.77-23-1.1l-25.66-1.18c-2.66-.12-2.65,4,0,4.13Z"/><path class="b1ea6017-487f-437f-ae2e-dde6d2b47cfe" d="M1127.8,396.73q-.19-14.06-.07-28.1l-2.07,2.06q18.63-.81,37.26-.46c2.66,0,2.66-4.08,0-4.13q-18.64-.35-37.26.46a2.11,2.11,0,0,0-2.06,2.07q-.13,14,.07,28.1c0,2.65,4.17,2.66,4.13,0Z"/><path class="b1ea6017-487f-437f-ae2e-dde6d2b47cfe" d="M1331,342.16a117.19,117.19,0,0,1,18.91-4.12c5.9-.93,11.67-2.89,17.49-3.84a16,16,0,0,0,1.79-.66q4.63-.39,3.73,3.72c.87,2.24.46,5.67.78,8a48.64,48.64,0,0,0,3.84,13.74c1.09,2.42,4.65.32,3.56-2.09-3.7-8.21-2.18-16.73-4.56-25-.7-2.46-1.29-3.7-4.25-3.83-2.66-.12-6.2,2.24-8.59,3a81.06,81.06,0,0,1-10.77,2.34c-7.78,1.31-15.51,2.29-23,4.78-2.51.83-1.43,4.82,1.1,4Z"/><path class="adfd3347-72ee-4e54-a06f-45d913d6d9ed" d="M300,369.38c7.27,10.28,7.42,22.48,7.27,34.6,0,2.66,4.09,2.66,4.13,0,.16-12.84-.16-25.83-7.83-36.68-1.52-2.16-5.1-.09-3.57,2.08Z"/><path class="ecb3d0c5-b7d1-4a59-a8e1-aa190edc6f17" d="M561.78,691.43l-10.46-14.75a3.34,3.34,0,0,1,.46-4.4L569.44,656a3.35,3.35,0,0,1,2.82-.84l18.88,3.2a3.31,3.31,0,0,1,2.4,1.73l11.7,22.11a3.36,3.36,0,0,1-1,4.3l-8.1,5.73a3.36,3.36,0,0,1-1.93.62H564.51A3.37,3.37,0,0,1,561.78,691.43Z"/><path class="e619d037-61d5-4530-a706-843fcd7f40c1" d="M588.17,664.12c1.59-.28,2.62,2.44,3.12,3.5a2.08,2.08,0,0,0,2.82.74,2.11,2.11,0,0,0,.74-2.83c-1.5-3.19-3.87-6.07-7.78-5.39a2.08,2.08,0,0,0-1.44,2.54,2.11,2.11,0,0,0,2.54,1.44Z"/><path class="e619d037-61d5-4530-a706-843fcd7f40c1" d="M554,676.58q2.52,3,4.94,6.11a2.06,2.06,0,0,0,2.91,0,2.11,2.11,0,0,0,0-2.92q-2.41-3.09-4.93-6.11a2.06,2.06,0,0,0-2.92,2.92Z"/><path class="e619d037-61d5-4530-a706-843fcd7f40c1" d="M576.88,683.05c2.3.45,5.7,1.49,8,.7s2.3-4.72,2.72-6.65c.56-2.59-3.41-3.7-4-1.1l-.58,2.66-.26,1.19-.12.59c-.2.68.05.46.74-.66a12.52,12.52,0,0,0-2.46-.18c-1-.13-2-.34-3-.53-2.59-.5-3.7,3.48-1.09,4Z"/><path class="aec291fd-5ff5-4fd1-bdc7-25cdd9b06ff0" d="M555.64,678.4c2.43,2.72,4.81,5.46,7.17,8.23.86,1,2.32-.46,1.46-1.46-2.36-2.77-4.74-5.51-7.17-8.23-.88-1-2.34.48-1.46,1.46Z"/><path class="aec291fd-5ff5-4fd1-bdc7-25cdd9b06ff0" d="M588.14,662.19c3.22.92,4.4,4.27,5.37,7.14.43,1.25,2.42.71,2-.55-1.22-3.61-2.82-7.43-6.81-8.58a1,1,0,0,0-.55,2Z"/><path class="bac2d94c-7c17-4b5c-826c-f1b5b1fb33e2" d="M75.88,792.37l10.47-14.75a3.35,3.35,0,0,0-.46-4.4L68.23,756.93a3.37,3.37,0,0,0-2.83-.84l-18.88,3.2a3.35,3.35,0,0,0-2.4,1.73L32.43,783.13a3.35,3.35,0,0,0,1,4.3l8.11,5.73a3.34,3.34,0,0,0,1.93.62H73.15A3.36,3.36,0,0,0,75.88,792.37Z"/><path class="e619d037-61d5-4530-a706-843fcd7f40c1" d="M50.6,761.08c-3.91-.68-6.28,2.2-7.79,5.39a2.14,2.14,0,0,0,.74,2.83,2.1,2.1,0,0,0,2.83-.74c.5-1.06,1.52-3.78,3.12-3.5A2.12,2.12,0,0,0,52,763.62a2.08,2.08,0,0,0-1.44-2.54Z"/><path class="e619d037-61d5-4530-a706-843fcd7f40c1" d="M80.8,774.6q-2.52,3-4.94,6.11a2.14,2.14,0,0,0,0,2.92,2.09,2.09,0,0,0,2.92,0q2.41-3.09,4.94-6.11a2.13,2.13,0,0,0,0-2.92,2.09,2.09,0,0,0-2.92,0Z"/><path class="e619d037-61d5-4530-a706-843fcd7f40c1" d="M59.69,780c-.89.18-1.78.35-2.68.49a17.31,17.31,0,0,0-2.75.22c.21-.3.78,1.93.68.36a10,10,0,0,0-.26-1.18l-.64-3c-.57-2.6-4.55-1.5-4,1.1.3,1.38.59,2.76.9,4.14a3,3,0,0,0,1.82,2.51c2.31.79,5.73-.25,8-.7,2.61-.5,1.5-4.48-1.1-4Z"/><path class="aec291fd-5ff5-4fd1-bdc7-25cdd9b06ff0" d="M80.56,777.88q-3.63,4.08-7.16,8.23c-.86,1,.59,2.47,1.46,1.46q3.52-4.16,7.16-8.23c.88-1-.57-2.45-1.46-1.46Z"/><path class="aec291fd-5ff5-4fd1-bdc7-25cdd9b06ff0" d="M49,761.14c-4,1.14-5.6,5-6.82,8.58-.42,1.26,1.57,1.8,2,.55,1-2.87,2.16-6.22,5.38-7.14a1,1,0,0,0-.55-2Z"/><path class="b34d73ca-1848-4c81-ad30-1608c1e352bf" d="M1133.2,793l-9.86-11a3.3,3.3,0,0,1,0-4.38l7.36-8.41a3.36,3.36,0,0,1,2-1.1l18-2.36a3.3,3.3,0,0,1,2.79,1l14,14.36a3.3,3.3,0,0,1,.07,4.54l-6.81,7.38a3.35,3.35,0,0,1-2.43,1.06h-22.68A3.27,3.27,0,0,1,1133.2,793Z"/><path class="b1ea6017-487f-437f-ae2e-dde6d2b47cfe" d="M1131.12,784.89q2.07,2.93,4.28,5.74a2.08,2.08,0,0,0,2.92,0,2.11,2.11,0,0,0,0-2.92c-1.25-1.6-2.46-3.24-3.64-4.9a2.11,2.11,0,0,0-2.82-.74,2.07,2.07,0,0,0-.74,2.82Z"/><path class="b1ea6017-487f-437f-ae2e-dde6d2b47cfe" d="M1147.6,773l1.23-.31.31-.07c.38,0,.41-.09.07-.12-.6-.51,0,.13.09.2l.9.93c1.85,1.92,4.76-1,2.92-2.92a7,7,0,0,0-2.81-2.19c-1.22-.37-2.62.2-3.81.5-2.58.63-1.49,4.61,1.1,4Z"/><path class="ff6fc36f-3a37-495b-ba2c-302c91065018" d="M1133.07,787.22l2.31,3.48c.74,1.1,2.52.07,1.79-1l-2.32-3.48c-.73-1.1-2.52-.07-1.78,1Z"/><path class="ff6fc36f-3a37-495b-ba2c-302c91065018" d="M1134.24,773a1.26,1.26,0,0,1,1.38-.62c1.3.29,1.85-1.7.55-2a3.4,3.4,0,0,0-3.72,1.57,1,1,0,0,0,1.79,1Z"/><path class="ff6fc36f-3a37-495b-ba2c-302c91065018" d="M1164.75,782.71a.7.7,0,0,1-.56.74,1,1,0,0,0,.55,2,2.8,2.8,0,0,0,2-3.28c-.21-1.31-2.2-.76-2,.55Z"/><path class="ff6fc36f-3a37-495b-ba2c-302c91065018" d="M1032.09,559.61a1,1,0,0,0,0-2.06,1,1,0,0,0,0,2.06Z"/><path class="adab652e-4333-4148-9bc1-46cca5d5318e" d="M1033,594.86l-11.18-14.5a2.29,2.29,0,0,1-.18-2.54l9.32-16.3a2.28,2.28,0,0,1,2.72-1l29.92,10.13a2.25,2.25,0,0,1,1.42,1.39l7.33,20.32a2.29,2.29,0,0,1-1.52,3l-7.45,2.16a2.32,2.32,0,0,1-.79.09l-27.92-1.8A2.29,2.29,0,0,1,1033,594.86Z"/><path class="e619d037-61d5-4530-a706-843fcd7f40c1" d="M1062.77,598h-.17l-27.93-1.8a2.68,2.68,0,0,1-2-1l-11.18-14.5a2.71,2.71,0,0,1-.21-3l9.32-16.3a2.71,2.71,0,0,1,3.21-1.22l29.92,10.12a2.7,2.7,0,0,1,1.68,1.65l7.33,20.31a2.68,2.68,0,0,1-.13,2.15,2.73,2.73,0,0,1-1.66,1.37l-7.45,2.17A2.78,2.78,0,0,1,1062.77,598ZM1033,560.77a1.89,1.89,0,0,0-1.64,1L1022,578a1.88,1.88,0,0,0,.14,2.08l11.19,14.51a1.86,1.86,0,0,0,1.36.73l27.93,1.8a1.76,1.76,0,0,0,.65-.08l7.45-2.16a1.91,1.91,0,0,0,1.15-.95,1.85,1.85,0,0,0,.09-1.49l-7.33-20.32a1.85,1.85,0,0,0-1.16-1.14l-29.92-10.13A2.09,2.09,0,0,0,1033,560.77Z"/><path class="b1ea6017-487f-437f-ae2e-dde6d2b47cfe" d="M1056.3,575.33a4,4,0,0,1,2.41,1,5,5,0,0,1,.59,2.51,2.11,2.11,0,0,0,2.06,2.06,2.08,2.08,0,0,0,2.07-2.06,9,9,0,0,0-1.58-5.15,7.5,7.5,0,0,0-4.45-2.39c-2.59-.56-3.7,3.42-1.1,4Z"/><path class="b1ea6017-487f-437f-ae2e-dde6d2b47cfe" d="M1032,587.27c.72,1.47,1.49,2.92,2.29,4.36,1.31,2.31,4.87.23,3.57-2.09q-1.21-2.14-2.29-4.36a2.07,2.07,0,1,0-3.57,2.09Z"/><path class="ff6fc36f-3a37-495b-ba2c-302c91065018" d="M1033,568.66l1.78-2.75c.71-1.1,1.68-.75,2.51.11s2.38-.5,1.46-1.46-2.77-1.88-4.24-1.29a3.57,3.57,0,0,0-1.52,1.6l-1.78,2.75c-.72,1.12,1.07,2.16,1.79,1Z"/><path class="ff6fc36f-3a37-495b-ba2c-302c91065018" d="M1065.33,584.69a57.63,57.63,0,0,1,2.41,7.62c.3,1.29,2.3.75,2-.55a58.1,58.1,0,0,0-2.41-7.62c-.48-1.22-2.48-.69-2,.55Z"/><path class="a4800a27-e0a4-4edb-a2c8-9dbc39675573" d="M540,701.6c4.89-2.51,10.3-5.2,15.93-5.35,5.3-.13,8.86,3.18,13.76,4.15,3.15.63,5.72-.14,8.77-.89,6.73-1.65,12.1-1,18.08,2.82,4.5,2.84,8.65-4.3,4.17-7.13a29.76,29.76,0,0,0-14.4-4.92c-7.23-.38-12.58,3-19.56.08-10.87-4.58-20.89-1-30.91,4.11-4.73,2.43-.56,9.55,4.16,7.13Z"/><path class="b8ebfdba-fa11-4eb5-bca2-afcdf57a0360" d="M67.47,811.12a29.08,29.08,0,0,1,31.24-2.92c4.72,2.4,8.91-4.72,4.16-7.13-13.72-7-29.2-5.27-41.24,4.21-4.17,3.28,1.71,9.09,5.84,5.84Z"/><path class="b8ebfdba-fa11-4eb5-bca2-afcdf57a0360" d="M987.52,954.7a51,51,0,0,1,35.81,8.47c4.44,3,8.58-4.19,4.17-7.13-12.68-8.44-27.17-11.41-42.18-9.3-5.24.73-3,8.69,2.2,8Z"/><path class="b8ebfdba-fa11-4eb5-bca2-afcdf57a0360" d="M1119.24,809.33c9.68-11.17,25-10.85,34.39.56,3.37,4.11,9.19-1.76,5.84-5.84a29.84,29.84,0,0,0-46.07-.56c-3.46,4,2.35,9.87,5.84,5.84Z"/><path class="b8ebfdba-fa11-4eb5-bca2-afcdf57a0360" d="M1340,663.69c8.5-9.57,22-12.63,33.64-6.89,4.75,2.35,8.94-4.77,4.17-7.13a36.46,36.46,0,0,0-43.65,8.18c-3.52,4,2.3,9.83,5.84,5.84Z"/><path class="a9c93afc-6308-4bd7-a4df-cec1da1e4f92" d="M899.29,565a36.27,36.27,0,0,1,43.8-3.28c4.49,2.88,8.63-4.27,4.17-7.13a44.64,44.64,0,0,0-53.81,4.57c-4,3.55,1.89,9.37,5.84,5.84Z"/><path class="a9c93afc-6308-4bd7-a4df-cec1da1e4f92" d="M703.78,546a20.93,20.93,0,0,1,19-2.49c5.05,1.71,7.21-6.27,2.2-8a28.9,28.9,0,0,0-25.35,3.32c-4.41,2.94-.28,10.09,4.16,7.13Z"/><path class="a9c93afc-6308-4bd7-a4df-cec1da1e4f92" d="M27.79,607.25c-.13-3,9.13-5.14,11.65-5.76,5-1.22,9.64-1.42,14.05,1.64S62,599,57.66,596c-7-4.85-15.37-4.13-23.17-1.66-6.28,2-15.3,4.86-15,12.91.23,5.29,8.49,5.32,8.26,0Z"/><path class="bc72859b-f1d4-4d59-a682-8fef50b01546" d="M1207.91,532.32a28.71,28.71,0,0,1,23.72.66c4.76,2.29,9-4.83,4.16-7.13a37.79,37.79,0,0,0-32-.66c-4.87,2.06-.67,9.17,4.17,7.13Z"/><path class="bc72859b-f1d4-4d59-a682-8fef50b01546" d="M407.42,906.65c10.35-12.36,27.23-12.9,38.13-.86,3.58,3.94,9.41-1.91,5.84-5.84-13.68-15.1-36.68-14.82-49.81.86-3.39,4,2.43,9.92,5.84,5.84Z"/><path class="bc72859b-f1d4-4d59-a682-8fef50b01546" d="M361.25,545.68a22.78,22.78,0,0,1,27.18,5.47c3.57,4,9.39-1.9,5.84-5.83a31.18,31.18,0,0,0-37.19-6.77c-4.76,2.36-.58,9.48,4.17,7.13Z"/><path class="ab123cc7-e331-4de5-938e-fe51a16c5745" d="M240.28,592.63a21.4,21.4,0,0,1,9.22-26.11c4.59-2.68.44-9.82-4.17-7.14a29.64,29.64,0,0,0-13,35.44c1.81,4.95,9.79,2.81,8-2.19Z"/><path class="b58b63eb-b027-4297-a1e5-2d5d30be8eaa" d="M632.19,489.21a8.63,8.63,0,0,0-4.31-1.64c-85.21-8.93-171.18-11.73-256.67-5.28-84.42,6.38-166.3,23.25-247.52,46.72Q61.82,546.89,0,565.06v17.18c46-13.6,92-28,138.38-40.88,71.9-22.86,145.06-41.71,220.28-51.17C449.44,478.77,540.83,481.26,632.19,489.21Z"/><path class="b58b63eb-b027-4297-a1e5-2d5d30be8eaa" d="M482.7,499.82c47.63.64,95.19,3.73,142.56,8.69,8.83.93,10.21-10.47,4.3-14.87-91.36-7.95-182.74-10.45-273.53,1-75.21,9.46-148.38,28.31-220.27,51.18,31.12-8.65,62.4-16.62,94-23.2C312.81,505.27,397.89,498.7,482.7,499.82Z"/><path class="b58b63eb-b027-4297-a1e5-2d5d30be8eaa" d="M1387.67,493.37c-29,17.95-67.08,20.11-100.18,24.35-36.71,4.71-73.6,8-110.55,10.3-71,4.34-142.25,4.7-213.39,3.19-3.56-.08-7.12-.15-10.67-.24-42-1-84-2.62-126-4.44-10.73-.46-10.71,16.05,0,16.52,151.82,6.56,304.62,10.67,455.76-8.2,20.2-2.52,40.44-5.21,60.48-8.82,18.58-3.35,36.85-8.4,53-18.4a8.76,8.76,0,0,0,2.27-2C1403.42,499.24,1395.86,488.3,1387.67,493.37Z"/><path class="bc72859b-f1d4-4d59-a682-8fef50b01546" d="M200.72,638.35c17.68-22.41,48.47-18.93,68.77-2.22,4.08,3.36,9.95-2.45,5.84-5.84-23.43-19.28-59.83-23.92-80.45,2.22-3.25,4.13,2.55,10,5.84,5.84Z"/><path class="b1ea6017-487f-437f-ae2e-dde6d2b47cfe" d="M2,430.66c180.55-16.23,350-97.55,532.39-99.68,95.27-1.11,189.33,16.83,282.81,33.21,91.1,16,182.21,28.89,274.91,27.2a1069.6,1069.6,0,0,0,306.51-50.8c2.5-.8,1.43-4.79-1.09-4a1064.5,1064.5,0,0,1-276.12,49.72c-94.31,4.32-187.22-6.2-280.06-22.11-91.46-15.68-183-34.33-276-37.07-90.11-2.64-178.17,14-265.27,35.84C201.49,387.65,103.54,417.4,2,426.53c-2.6.23-2.62,4.36,0,4.13Z"/><path class="b1ea6017-487f-437f-ae2e-dde6d2b47cfe" d="M1.94,496.78c180.45-16.22,350-97.55,532.25-99.68,95.67-1.11,190.11,16.95,284,33.39,91.23,16,182.48,28.81,275.28,27a1069,1069,0,0,0,305.1-50.77c2.48-.8,1.42-4.79-1.08-4a1064.8,1064.8,0,0,1-273.62,49.6c-94.83,4.56-188.29-5.86-281.69-21.85-91.39-15.64-182.81-34.31-275.7-37.18-90.17-2.78-178.31,13.77-265.52,35.57-98.91,24.72-197.17,54.63-299,63.78-2.58.23-2.6,4.36,0,4.13Z"/><path class="b1ea6017-487f-437f-ae2e-dde6d2b47cfe" d="M2,463.76c180.55-16.23,350-97.55,532.39-99.68,95.27-1.11,189.33,16.83,282.81,33.21,91.1,16,182.22,28.89,274.91,27.2a1069.6,1069.6,0,0,0,306.51-50.8c2.5-.8,1.43-4.79-1.09-4a1064.91,1064.91,0,0,1-276.12,49.71c-94.31,4.32-187.22-6.2-280.06-22.11-91.46-15.68-183-34.33-276-37.06-90.11-2.65-178.17,14-265.27,35.83C201.49,420.75,103.54,450.5,2,459.63c-2.6.24-2.62,4.37,0,4.13Z"/><ellipse class="e1ab8c3b-47cc-4322-9876-fab8108afde6" cx="138.42" cy="557.69" rx="45.62" ry="13.34"/><path class="b1ea6017-487f-437f-ae2e-dde6d2b47cfe" d="M138.42,571.44c-25.81,0-46-6-46-13.75s20.22-13.75,46-13.75,46,6,46,13.75S164.23,571.44,138.42,571.44Zm0-26.67c-24.93,0-45.21,5.8-45.21,12.92s20.28,12.93,45.21,12.93,45.21-5.8,45.21-12.93S163.35,544.77,138.42,544.77Z"/><rect class="f3434857-eaa3-4036-952a-329216f36909" x="102.85" y="317.41" width="71.14" height="245.12" rx="14.12"/><path class="b1ea6017-487f-437f-ae2e-dde6d2b47cfe" d="M150.66,562.94H126.18a23.77,23.77,0,0,1-23.74-23.74V340.73A23.76,23.76,0,0,1,126.18,317h24.48a23.76,23.76,0,0,1,23.74,23.73V539.2A23.77,23.77,0,0,1,150.66,562.94ZM126.18,317.82a22.94,22.94,0,0,0-22.92,22.91V539.2a22.94,22.94,0,0,0,22.92,22.91h24.48a22.94,22.94,0,0,0,22.92-22.91V340.73a22.94,22.94,0,0,0-22.92-22.91Z"/><path class="b1ea6017-487f-437f-ae2e-dde6d2b47cfe" d="M114.55,393.6a.42.42,0,0,1-.42-.41V366.9a.42.42,0,1,1,.83,0v26.29A.42.42,0,0,1,114.55,393.6Z"/><path class="b1ea6017-487f-437f-ae2e-dde6d2b47cfe" d="M114.55,530.08a.42.42,0,0,1-.42-.42v-121a.42.42,0,0,1,.83,0v121A.42.42,0,0,1,114.55,530.08Z"/><path class="b1ea6017-487f-437f-ae2e-dde6d2b47cfe" d="M131.17,347.4a.41.41,0,0,1-.41-.41V320.7a.41.41,0,1,1,.82,0V347A.41.41,0,0,1,131.17,347.4Z"/><path class="b1ea6017-487f-437f-ae2e-dde6d2b47cfe" d="M131.17,483.87a.41.41,0,0,1-.41-.41v-121a.41.41,0,0,1,.82,0v121A.41.41,0,0,1,131.17,483.87Z"/><path class="b1ea6017-487f-437f-ae2e-dde6d2b47cfe" d="M148.57,423.37a.41.41,0,0,1-.41-.41V396.67a.41.41,0,1,1,.82,0V423A.41.41,0,0,1,148.57,423.37Z"/><path class="b1ea6017-487f-437f-ae2e-dde6d2b47cfe" d="M148.57,559.84a.41.41,0,0,1-.41-.41v-121a.41.41,0,0,1,.82,0v121A.41.41,0,0,1,148.57,559.84Z"/><path class="b1ea6017-487f-437f-ae2e-dde6d2b47cfe" d="M162.87,355.13a.41.41,0,0,1-.41-.41V328.43a.42.42,0,1,1,.83,0v26.29A.41.41,0,0,1,162.87,355.13Z"/><path class="b1ea6017-487f-437f-ae2e-dde6d2b47cfe" d="M162.87,491.61a.42.42,0,0,1-.41-.42v-121a.42.42,0,0,1,.83,0v121A.42.42,0,0,1,162.87,491.61Z"/><rect class="b1ea6017-487f-437f-ae2e-dde6d2b47cfe" x="130.76" y="491.19" width="0.83" height="68.24"/><circle class="e6f2be4f-1f0e-410c-988e-d745e8acfa21" cx="138.13" cy="348.63" r="14.79"/><path class="b1ea6017-487f-437f-ae2e-dde6d2b47cfe" d="M138.13,363.83a15.2,15.2,0,1,1,15.2-15.2A15.22,15.22,0,0,1,138.13,363.83Zm0-29.58a14.38,14.38,0,1,0,14.37,14.38A14.4,14.4,0,0,0,138.13,334.25Z"/><path class="b1ea6017-487f-437f-ae2e-dde6d2b47cfe" d="M121.65,327.23a32.33,32.33,0,0,0-9.47,15.92c-.66,2.58,3.32,3.68,4,1.1a28.43,28.43,0,0,1,8.41-14.1c2-1.81-1-4.72-2.92-2.92Z"/><path class="b1ea6017-487f-437f-ae2e-dde6d2b47cfe" d="M111.48,360.42q-.77,36.24-.94,72.49c0,2.66,4.12,2.66,4.13,0q.18-36.26.94-72.49c.06-2.66-4.07-2.66-4.13,0Z"/><path class="b1ea6017-487f-437f-ae2e-dde6d2b47cfe" d="M135.1,337.16A13.44,13.44,0,0,0,133,359.67c2.06,1.64,5-1.26,2.92-2.92-5.69-4.54-5.22-12.53,1.27-16,2.34-1.26.26-4.82-2.08-3.56Z"/><ellipse class="e1ab8c3b-47cc-4322-9876-fab8108afde6" cx="137.94" cy="557.02" rx="28.8" ry="7.83"/><path class="b1ea6017-487f-437f-ae2e-dde6d2b47cfe" d="M137.94,565.26c-16.39,0-29.22-3.62-29.22-8.24s12.83-8.25,29.22-8.25,29.21,3.62,29.21,8.25S154.32,565.26,137.94,565.26Zm0-15.66c-17,0-28.39,3.83-28.39,7.42s11.4,7.41,28.39,7.41,28.39-3.83,28.39-7.41S154.92,549.6,137.94,549.6Z"/><path class="b1ea6017-487f-437f-ae2e-dde6d2b47cfe" d="M111.83,561.08a250,250,0,0,0,31.33,3.84c2.65.16,2.64-4,0-4.13a242.15,242.15,0,0,1-30.24-3.69c-2.59-.48-3.71,3.49-1.09,4Z"/><path class="b1ea6017-487f-437f-ae2e-dde6d2b47cfe" d="M108.81,558.57c17.09-6.24,41.73-6,58.76.51,2.49.94,3.56-3.05,1.1-4-9.53-3.61-19.38-4.28-29.49-4.4-10.74-.12-21.28.18-31.46,3.9-2.48.91-1.41,4.9,1.09,4Z"/><path class="b1ea6017-487f-437f-ae2e-dde6d2b47cfe" d="M147,564a23.4,23.4,0,0,1,9.39-.38c2.6.43,3.72-3.54,1.1-4a28.65,28.65,0,0,0-11.59.38c-2.58.62-1.48,4.6,1.1,4Z"/><circle class="f7621289-0110-4c95-95c2-097e95d19121" cx="121.17" cy="432.61" r="6.51"/><path class="b1ea6017-487f-437f-ae2e-dde6d2b47cfe" d="M121.17,439.53a6.92,6.92,0,1,1,6.92-6.92A6.93,6.93,0,0,1,121.17,439.53Zm0-13a6.1,6.1,0,1,0,6.09,6.1A6.11,6.11,0,0,0,121.17,426.51Z"/><path class="b1ea6017-487f-437f-ae2e-dde6d2b47cfe" d="M121.9,428.88q-2,2-3.87,4.17a2.11,2.11,0,0,0,0,2.92,2.09,2.09,0,0,0,2.92,0q1.89-2.13,3.87-4.17c1.85-1.91-1.07-4.83-2.92-2.92Z"/><path class="b1ea6017-487f-437f-ae2e-dde6d2b47cfe" d="M117.81,432.45a16.06,16.06,0,0,1,4.23,3.23c1.82,1.95,4.74-1,2.92-2.92a19.38,19.38,0,0,0-5.07-3.88c-2.34-1.25-4.43,2.32-2.08,3.57Z"/><circle class="f7621289-0110-4c95-95c2-097e95d19121" cx="119.49" cy="458.01" r="6.51"/><path class="b1ea6017-487f-437f-ae2e-dde6d2b47cfe" d="M119.49,464.93a6.92,6.92,0,1,1,6.93-6.92A6.94,6.94,0,0,1,119.49,464.93Zm0-13a6.1,6.1,0,1,0,6.1,6.1A6.1,6.1,0,0,0,119.49,451.91Z"/><path class="b1ea6017-487f-437f-ae2e-dde6d2b47cfe" d="M120.23,454.28q-2,2-3.87,4.17a2.11,2.11,0,0,0,0,2.92,2.09,2.09,0,0,0,2.92,0q1.89-2.13,3.87-4.17c1.85-1.91-1.07-4.83-2.92-2.92Z"/><path class="b1ea6017-487f-437f-ae2e-dde6d2b47cfe" d="M116.14,457.84a16.1,16.1,0,0,1,4.23,3.24c1.82,1.95,4.74-1,2.92-2.92a19.38,19.38,0,0,0-5.07-3.88c-2.34-1.25-4.43,2.32-2.08,3.56Z"/><circle class="f7621289-0110-4c95-95c2-097e95d19121" cx="153.95" cy="451.5" r="6.51"/><path class="b1ea6017-487f-437f-ae2e-dde6d2b47cfe" d="M154,458.42a6.92,6.92,0,1,1,6.92-6.92A6.94,6.94,0,0,1,154,458.42Zm0-13a6.1,6.1,0,1,0,6.1,6.1A6.11,6.11,0,0,0,154,445.4Z"/><path class="b1ea6017-487f-437f-ae2e-dde6d2b47cfe" d="M154.69,447.77q-2,2-3.87,4.17a2.11,2.11,0,0,0,0,2.92,2.09,2.09,0,0,0,2.92,0q1.89-2.13,3.87-4.17c1.85-1.91-1.07-4.83-2.92-2.92Z"/><path class="b1ea6017-487f-437f-ae2e-dde6d2b47cfe" d="M150.6,451.33a16.31,16.31,0,0,1,4.23,3.24c1.82,1.95,4.73-1,2.92-2.92a19.38,19.38,0,0,0-5.07-3.88c-2.34-1.25-4.43,2.32-2.08,3.56Z"/><circle class="f7621289-0110-4c95-95c2-097e95d19121" cx="155.62" cy="426.31" r="6.51"/><path class="b1ea6017-487f-437f-ae2e-dde6d2b47cfe" d="M155.62,433.23a6.92,6.92,0,1,1,6.93-6.92A6.93,6.93,0,0,1,155.62,433.23Zm0-13a6.1,6.1,0,1,0,6.1,6.1A6.1,6.1,0,0,0,155.62,420.21Z"/><path class="b1ea6017-487f-437f-ae2e-dde6d2b47cfe" d="M156.36,422.58q-2,2-3.87,4.17a2.11,2.11,0,0,0,0,2.92,2.08,2.08,0,0,0,2.92,0q1.89-2.13,3.87-4.17c1.85-1.91-1.07-4.83-2.92-2.92Z"/><path class="b1ea6017-487f-437f-ae2e-dde6d2b47cfe" d="M152.27,426.15a16.06,16.06,0,0,1,4.23,3.23c1.82,1.95,4.74-1,2.92-2.92a19.59,19.59,0,0,0-5.07-3.88c-2.34-1.24-4.43,2.32-2.08,3.57Z"/><ellipse class="e1ab8c3b-47cc-4322-9876-fab8108afde6" cx="1279.33" cy="522.61" rx="45.62" ry="13.34"/><path class="b1ea6017-487f-437f-ae2e-dde6d2b47cfe" d="M1279.33,536.36c-25.82,0-46-6-46-13.75s20.22-13.75,46-13.75,46,6,46,13.75S1305.14,536.36,1279.33,536.36Zm0-26.68c-24.93,0-45.21,5.8-45.21,12.93s20.28,12.92,45.21,12.92,45.2-5.8,45.2-12.92S1304.25,509.68,1279.33,509.68Z"/><rect class="f3434857-eaa3-4036-952a-329216f36909" x="1243.76" y="282.32" width="71.14" height="245.12" rx="14.12"/><path class="b1ea6017-487f-437f-ae2e-dde6d2b47cfe" d="M1291.57,527.85h-24.49a23.77,23.77,0,0,1-23.74-23.74V305.65a23.77,23.77,0,0,1,23.74-23.74h24.49a23.77,23.77,0,0,1,23.74,23.74V504.11A23.77,23.77,0,0,1,1291.57,527.85Zm-24.49-245.11a22.94,22.94,0,0,0-22.91,22.91V504.11A22.94,22.94,0,0,0,1267.08,527h24.49a22.94,22.94,0,0,0,22.91-22.92V305.65a22.94,22.94,0,0,0-22.91-22.91Z"/><path class="b1ea6017-487f-437f-ae2e-dde6d2b47cfe" d="M1255.45,358.51a.41.41,0,0,1-.41-.41V331.81a.41.41,0,0,1,.82,0V358.1A.41.41,0,0,1,1255.45,358.51Z"/><path class="b1ea6017-487f-437f-ae2e-dde6d2b47cfe" d="M1255.45,495a.41.41,0,0,1-.41-.41v-121a.41.41,0,1,1,.82,0v121A.41.41,0,0,1,1255.45,495Z"/><path class="b1ea6017-487f-437f-ae2e-dde6d2b47cfe" d="M1272.08,312.31a.41.41,0,0,1-.42-.41V285.61a.42.42,0,0,1,.83,0V311.9A.41.41,0,0,1,1272.08,312.31Z"/><path class="b1ea6017-487f-437f-ae2e-dde6d2b47cfe" d="M1272.08,448.79a.42.42,0,0,1-.42-.41v-121a.42.42,0,0,1,.83,0v121A.42.42,0,0,1,1272.08,448.79Z"/><path class="b1ea6017-487f-437f-ae2e-dde6d2b47cfe" d="M1289.47,388.28a.41.41,0,0,1-.41-.41V361.58a.42.42,0,0,1,.83,0v26.29A.41.41,0,0,1,1289.47,388.28Z"/><path class="b1ea6017-487f-437f-ae2e-dde6d2b47cfe" d="M1289.47,524.76a.42.42,0,0,1-.41-.41v-121a.42.42,0,0,1,.83,0v121A.42.42,0,0,1,1289.47,524.76Z"/><path class="b1ea6017-487f-437f-ae2e-dde6d2b47cfe" d="M1303.78,320.05a.41.41,0,0,1-.41-.42V293.34a.41.41,0,0,1,.82,0v26.29A.41.41,0,0,1,1303.78,320.05Z"/><path class="b1ea6017-487f-437f-ae2e-dde6d2b47cfe" d="M1303.78,456.52a.41.41,0,0,1-.41-.41v-121a.41.41,0,1,1,.82,0v121A.41.41,0,0,1,1303.78,456.52Z"/><rect class="b1ea6017-487f-437f-ae2e-dde6d2b47cfe" x="1271.66" y="456.11" width="0.83" height="68.24"/><circle class="e6f2be4f-1f0e-410c-988e-d745e8acfa21" cx="1279.04" cy="313.54" r="14.79"/><path class="b1ea6017-487f-437f-ae2e-dde6d2b47cfe" d="M1279,328.74a15.2,15.2,0,1,1,15.2-15.2A15.22,15.22,0,0,1,1279,328.74Zm0-29.57a14.38,14.38,0,1,0,14.37,14.37A14.39,14.39,0,0,0,1279,299.17Z"/><path class="b1ea6017-487f-437f-ae2e-dde6d2b47cfe" d="M1262.56,292.14a32.41,32.41,0,0,0-9.48,15.93c-.65,2.57,3.33,3.67,4,1.09a28.42,28.42,0,0,1,8.42-14.1c2-1.8-1-4.72-2.92-2.92Z"/><path class="b1ea6017-487f-437f-ae2e-dde6d2b47cfe" d="M1252.39,325.33q-.77,36.24-.94,72.5c0,2.65,4.11,2.66,4.13,0q.17-36.25.94-72.5c0-2.66-4.08-2.66-4.13,0Z"/><path class="b1ea6017-487f-437f-ae2e-dde6d2b47cfe" d="M1276,302.07a13.44,13.44,0,0,0-2.11,22.51c2.06,1.64,5-1.26,2.92-2.92-5.68-4.54-5.21-12.53,1.28-16,2.34-1.26.26-4.83-2.09-3.57Z"/><ellipse class="e1ab8c3b-47cc-4322-9876-fab8108afde6" cx="1278.84" cy="521.93" rx="28.8" ry="7.83"/><path class="b1ea6017-487f-437f-ae2e-dde6d2b47cfe" d="M1278.84,530.17c-16.38,0-29.21-3.62-29.21-8.24s12.83-8.24,29.21-8.24,29.22,3.62,29.22,8.24S1295.22,530.17,1278.84,530.17Zm0-15.66c-17,0-28.39,3.84-28.39,7.42s11.41,7.42,28.39,7.42,28.39-3.84,28.39-7.42S1295.82,514.51,1278.84,514.51Z"/><path class="b1ea6017-487f-437f-ae2e-dde6d2b47cfe" d="M1252.73,526a251.87,251.87,0,0,0,31.33,3.83c2.66.16,2.65-4,0-4.13a242,242,0,0,1-30.23-3.69c-2.6-.48-3.71,3.5-1.1,4Z"/><path class="b1ea6017-487f-437f-ae2e-dde6d2b47cfe" d="M1249.72,523.49c17.08-6.24,41.73-6,58.76.5,2.48.94,3.56-3,1.09-4-9.53-3.62-19.38-4.29-29.48-4.4-10.74-.13-21.28.18-31.47,3.9-2.48.9-1.41,4.89,1.1,4Z"/><path class="b1ea6017-487f-437f-ae2e-dde6d2b47cfe" d="M1287.87,528.93a23.21,23.21,0,0,1,9.39-.37c2.6.43,3.71-3.55,1.09-4a28.6,28.6,0,0,0-11.58.38c-2.58.62-1.49,4.6,1.1,4Z"/><circle class="f7621289-0110-4c95-95c2-097e95d19121" cx="1268.67" cy="385.61" r="6.51"/><path class="b1ea6017-487f-437f-ae2e-dde6d2b47cfe" d="M1268.67,392.54a6.93,6.93,0,1,1,6.92-6.93A6.93,6.93,0,0,1,1268.67,392.54Zm0-13a6.1,6.1,0,1,0,6.1,6.09A6.1,6.1,0,0,0,1268.67,379.52Z"/><path class="b1ea6017-487f-437f-ae2e-dde6d2b47cfe" d="M1269.41,381.88q-2,2.06-3.87,4.18a2.06,2.06,0,0,0,2.92,2.92c1.26-1.42,2.55-2.82,3.87-4.18,1.85-1.91-1.07-4.83-2.92-2.92Z"/><path class="b1ea6017-487f-437f-ae2e-dde6d2b47cfe" d="M1265.32,385.45a15.89,15.89,0,0,1,4.23,3.24c1.82,1.94,4.73-1,2.92-2.92a19.38,19.38,0,0,0-5.07-3.88c-2.34-1.25-4.43,2.31-2.08,3.56Z"/><circle class="f7621289-0110-4c95-95c2-097e95d19121" cx="1297.8" cy="380.07" r="6.51"/><path class="b1ea6017-487f-437f-ae2e-dde6d2b47cfe" d="M1297.81,387a6.93,6.93,0,1,1,6.92-6.93A6.94,6.94,0,0,1,1297.81,387Zm0-13a6.1,6.1,0,1,0,6.09,6.09A6.1,6.1,0,0,0,1297.81,374Z"/><path class="b1ea6017-487f-437f-ae2e-dde6d2b47cfe" d="M1298.54,376.34q-2,2.06-3.87,4.18a2.06,2.06,0,0,0,2.92,2.92q1.89-2.13,3.87-4.18c1.85-1.9-1.07-4.83-2.92-2.92Z"/><path class="b1ea6017-487f-437f-ae2e-dde6d2b47cfe" d="M1294.45,379.91a15.89,15.89,0,0,1,4.23,3.24c1.82,1.94,4.74-1,2.92-2.92a19.38,19.38,0,0,0-5.07-3.88c-2.34-1.25-4.43,2.31-2.08,3.56Z"/><circle class="f7621289-0110-4c95-95c2-097e95d19121" cx="1300" cy="407.56" r="6.51"/><path class="b1ea6017-487f-437f-ae2e-dde6d2b47cfe" d="M1300,414.48a6.92,6.92,0,1,1,6.92-6.92A6.92,6.92,0,0,1,1300,414.48Zm0-13a6.1,6.1,0,1,0,6.1,6.1A6.11,6.11,0,0,0,1300,401.46Z"/><path class="b1ea6017-487f-437f-ae2e-dde6d2b47cfe" d="M1300.74,403.83q-2,2-3.87,4.17a2.11,2.11,0,0,0,0,2.92,2.09,2.09,0,0,0,2.92,0q1.89-2.13,3.87-4.17c1.85-1.91-1.07-4.83-2.92-2.92Z"/><path class="b1ea6017-487f-437f-ae2e-dde6d2b47cfe" d="M1296.64,407.4a16,16,0,0,1,4.24,3.23c1.82,1.95,4.73-1,2.92-2.92a19.38,19.38,0,0,0-5.07-3.88c-2.35-1.25-4.43,2.32-2.09,3.57Z"/><circle class="f7621289-0110-4c95-95c2-097e95d19121" cx="1268.93" cy="411.83" r="6.51"/><path class="b1ea6017-487f-437f-ae2e-dde6d2b47cfe" d="M1268.93,418.76a6.93,6.93,0,1,1,6.93-6.93A6.94,6.94,0,0,1,1268.93,418.76Zm0-13a6.1,6.1,0,1,0,6.1,6.09A6.09,6.09,0,0,0,1268.93,405.74Z"/><path class="b1ea6017-487f-437f-ae2e-dde6d2b47cfe" d="M1269.67,408.1q-2,2.06-3.87,4.18a2.06,2.06,0,1,0,2.92,2.92q1.89-2.13,3.87-4.18c1.85-1.91-1.07-4.83-2.92-2.92Z"/><path class="b1ea6017-487f-437f-ae2e-dde6d2b47cfe" d="M1265.58,411.67a15.89,15.89,0,0,1,4.23,3.24c1.82,1.94,4.74-1,2.92-2.92a19.38,19.38,0,0,0-5.07-3.88c-2.34-1.25-4.43,2.31-2.08,3.56Z"/><ellipse class="e1ab8c3b-47cc-4322-9876-fab8108afde6" cx="1074.57" cy="539.33" rx="45.62" ry="13.34"/><path class="b1ea6017-487f-437f-ae2e-dde6d2b47cfe" d="M1074.57,553.08c-25.82,0-46-6-46-13.75s20.22-13.75,46-13.75,46,6,46,13.75S1100.38,553.08,1074.57,553.08Zm0-26.68c-24.93,0-45.21,5.8-45.21,12.93s20.28,12.92,45.21,12.92,45.21-5.79,45.21-12.92S1099.5,526.4,1074.57,526.4Z"/><rect class="f3434857-eaa3-4036-952a-329216f36909" x="1039" y="299.04" width="71.14" height="245.12" rx="14.12"/><path class="b1ea6017-487f-437f-ae2e-dde6d2b47cfe" d="M1086.81,544.57h-24.49a23.77,23.77,0,0,1-23.73-23.74V322.37a23.77,23.77,0,0,1,23.73-23.74h24.49a23.77,23.77,0,0,1,23.74,23.74V520.83A23.77,23.77,0,0,1,1086.81,544.57Zm-24.49-245.11a22.94,22.94,0,0,0-22.91,22.91V520.83a22.94,22.94,0,0,0,22.91,22.92h24.49a22.94,22.94,0,0,0,22.91-22.92V322.37a22.93,22.93,0,0,0-22.91-22.91Z"/><path class="b1ea6017-487f-437f-ae2e-dde6d2b47cfe" d="M1050.69,375.23a.41.41,0,0,1-.41-.41V348.53a.42.42,0,0,1,.83,0v26.29A.41.41,0,0,1,1050.69,375.23Z"/><path class="b1ea6017-487f-437f-ae2e-dde6d2b47cfe" d="M1050.69,511.71a.41.41,0,0,1-.41-.41v-121a.42.42,0,1,1,.83,0v121A.41.41,0,0,1,1050.69,511.71Z"/><path class="b1ea6017-487f-437f-ae2e-dde6d2b47cfe" d="M1067.32,329a.41.41,0,0,1-.41-.41V302.33a.41.41,0,0,1,.82,0v26.29A.41.41,0,0,1,1067.32,329Z"/><path class="b1ea6017-487f-437f-ae2e-dde6d2b47cfe" d="M1067.32,465.51a.41.41,0,0,1-.41-.41v-121a.41.41,0,1,1,.82,0v121A.41.41,0,0,1,1067.32,465.51Z"/><path class="b1ea6017-487f-437f-ae2e-dde6d2b47cfe" d="M1084.72,405a.41.41,0,0,1-.42-.41V378.3a.42.42,0,0,1,.83,0v26.29A.41.41,0,0,1,1084.72,405Z"/><path class="b1ea6017-487f-437f-ae2e-dde6d2b47cfe" d="M1084.72,541.48a.41.41,0,0,1-.42-.41v-121a.42.42,0,1,1,.83,0v121A.41.41,0,0,1,1084.72,541.48Z"/><path class="b1ea6017-487f-437f-ae2e-dde6d2b47cfe" d="M1099,336.77a.42.42,0,0,1-.41-.42V310.06a.42.42,0,0,1,.83,0v26.29A.42.42,0,0,1,1099,336.77Z"/><path class="b1ea6017-487f-437f-ae2e-dde6d2b47cfe" d="M1099,473.24a.41.41,0,0,1-.41-.41v-121a.42.42,0,0,1,.83,0v121A.41.41,0,0,1,1099,473.24Z"/><rect class="b1ea6017-487f-437f-ae2e-dde6d2b47cfe" x="1066.91" y="472.83" width="0.83" height="68.24"/><circle class="e6f2be4f-1f0e-410c-988e-d745e8acfa21" cx="1074.28" cy="330.26" r="14.79"/><path class="b1ea6017-487f-437f-ae2e-dde6d2b47cfe" d="M1074.28,345.47a15.21,15.21,0,1,1,15.2-15.21A15.22,15.22,0,0,1,1074.28,345.47Zm0-29.58a14.38,14.38,0,1,0,14.37,14.37A14.39,14.39,0,0,0,1074.28,315.89Z"/><path class="b1ea6017-487f-437f-ae2e-dde6d2b47cfe" d="M1057.8,308.86a32.41,32.41,0,0,0-9.48,15.93c-.65,2.57,3.33,3.67,4,1.1a28.38,28.38,0,0,1,8.41-14.11c2-1.8-1-4.72-2.92-2.92Z"/><path class="b1ea6017-487f-437f-ae2e-dde6d2b47cfe" d="M1047.63,342.05q-.77,36.24-.94,72.5c0,2.65,4.12,2.66,4.13,0q.18-36.26.94-72.5c.06-2.66-4.07-2.66-4.13,0Z"/><path class="b1ea6017-487f-437f-ae2e-dde6d2b47cfe" d="M1071.25,318.79a13.43,13.43,0,0,0-2.11,22.51c2,1.65,5-1.26,2.92-2.92-5.69-4.53-5.22-12.53,1.27-16,2.34-1.26.26-4.83-2.08-3.57Z"/><ellipse class="e1ab8c3b-47cc-4322-9876-fab8108afde6" cx="1074.09" cy="538.65" rx="28.8" ry="7.83"/><path class="b1ea6017-487f-437f-ae2e-dde6d2b47cfe" d="M1074.09,546.89c-16.39,0-29.22-3.62-29.22-8.24s12.83-8.24,29.22-8.24,29.21,3.62,29.21,8.24S1090.47,546.89,1074.09,546.89Zm0-15.66c-17,0-28.39,3.84-28.39,7.42s11.4,7.42,28.39,7.42,28.39-3.84,28.39-7.42S1091.07,531.23,1074.09,531.23Z"/><path class="b1ea6017-487f-437f-ae2e-dde6d2b47cfe" d="M1048,542.72a252,252,0,0,0,31.34,3.83c2.65.16,2.64-4,0-4.12a243.81,243.81,0,0,1-30.24-3.69c-2.6-.49-3.71,3.49-1.1,4Z"/><path class="b1ea6017-487f-437f-ae2e-dde6d2b47cfe" d="M1045,540.21c17.09-6.24,41.73-6,58.76.5,2.49.94,3.56-3.05,1.1-4-9.53-3.62-19.38-4.29-29.49-4.4-10.74-.12-21.28.18-31.47,3.9-2.47.9-1.4,4.89,1.1,4Z"/><path class="b1ea6017-487f-437f-ae2e-dde6d2b47cfe" d="M1083.11,545.65a23.22,23.22,0,0,1,9.39-.37c2.6.43,3.72-3.55,1.1-4a28.65,28.65,0,0,0-11.59.38c-2.58.62-1.49,4.61,1.1,4Z"/><circle class="f7621289-0110-4c95-95c2-097e95d19121" cx="1065.89" cy="394.54" r="6.51"/><path class="b1ea6017-487f-437f-ae2e-dde6d2b47cfe" d="M1065.89,401.46a6.92,6.92,0,1,1,6.92-6.92A6.92,6.92,0,0,1,1065.89,401.46Zm0-13a6.1,6.1,0,1,0,6.09,6.1A6.11,6.11,0,0,0,1065.89,388.44Z"/><path class="b1ea6017-487f-437f-ae2e-dde6d2b47cfe" d="M1066.62,390.81q-2,2-3.86,4.17a2.06,2.06,0,0,0,2.92,2.92q1.88-2.13,3.86-4.17c1.85-1.91-1.06-4.83-2.92-2.92Z"/><path class="b1ea6017-487f-437f-ae2e-dde6d2b47cfe" d="M1062.53,394.38a15.9,15.9,0,0,1,4.23,3.23c1.82,1.95,4.74-1,2.92-2.92a19.49,19.49,0,0,0-5.06-3.88c-2.35-1.25-4.44,2.32-2.09,3.57Z"/><circle class="f7621289-0110-4c95-95c2-097e95d19121" cx="1093.05" cy="392.12" r="6.51"/><path class="b1ea6017-487f-437f-ae2e-dde6d2b47cfe" d="M1093.05,399.05a6.93,6.93,0,1,1,6.92-6.93A6.93,6.93,0,0,1,1093.05,399.05Zm0-13a6.1,6.1,0,1,0,6.1,6.09A6.1,6.1,0,0,0,1093.05,386Z"/><path class="b1ea6017-487f-437f-ae2e-dde6d2b47cfe" d="M1093.78,388.39c-1.32,1.36-2.61,2.76-3.86,4.18a2.06,2.06,0,0,0,2.92,2.92c1.25-1.42,2.54-2.82,3.86-4.18,1.85-1.91-1.06-4.83-2.92-2.92Z"/><path class="b1ea6017-487f-437f-ae2e-dde6d2b47cfe" d="M1089.69,392a15.93,15.93,0,0,1,4.24,3.24c1.82,1.94,4.73-1,2.91-2.92a19.75,19.75,0,0,0-5.06-3.89c-2.35-1.24-4.44,2.32-2.09,3.57Z"/><circle class="f7621289-0110-4c95-95c2-097e95d19121" cx="1095.24" cy="430.82" r="6.51"/><path class="b1ea6017-487f-437f-ae2e-dde6d2b47cfe" d="M1095.24,437.74a6.92,6.92,0,1,1,6.93-6.92A6.93,6.93,0,0,1,1095.24,437.74Zm0-13a6.1,6.1,0,1,0,6.1,6.1A6.1,6.1,0,0,0,1095.24,424.72Z"/><path class="b1ea6017-487f-437f-ae2e-dde6d2b47cfe" d="M1096,427.09q-2,2-3.87,4.17a2.11,2.11,0,0,0,0,2.92,2.09,2.09,0,0,0,2.92,0q1.89-2.13,3.87-4.17c1.85-1.91-1.07-4.83-2.92-2.92Z"/><path class="b1ea6017-487f-437f-ae2e-dde6d2b47cfe" d="M1091.89,430.66a16.06,16.06,0,0,1,4.23,3.23c1.82,1.95,4.74-1,2.92-2.92a19.38,19.38,0,0,0-5.07-3.88c-2.34-1.25-4.43,2.32-2.08,3.57Z"/><circle class="f7621289-0110-4c95-95c2-097e95d19121" cx="1068.22" cy="428.87" r="6.51"/><path class="b1ea6017-487f-437f-ae2e-dde6d2b47cfe" d="M1068.22,435.8a6.93,6.93,0,1,1,6.93-6.93A6.94,6.94,0,0,1,1068.22,435.8Zm0-13a6.1,6.1,0,1,0,6.1,6.09A6.09,6.09,0,0,0,1068.22,422.78Z"/><path class="b1ea6017-487f-437f-ae2e-dde6d2b47cfe" d="M1069,425.14c-1.32,1.36-2.61,2.76-3.87,4.18a2.1,2.1,0,0,0,0,2.91,2.08,2.08,0,0,0,2.92,0c1.26-1.41,2.55-2.81,3.87-4.17,1.85-1.91-1.07-4.83-2.92-2.92Z"/><path class="b1ea6017-487f-437f-ae2e-dde6d2b47cfe" d="M1064.87,428.71a15.89,15.89,0,0,1,4.23,3.24c1.82,1.94,4.74-1,2.92-2.92a19.63,19.63,0,0,0-5.07-3.89c-2.34-1.24-4.43,2.32-2.08,3.57Z"/><ellipse class="e1ab8c3b-47cc-4322-9876-fab8108afde6" cx="905.76" cy="543.58" rx="45.62" ry="13.34"/><path class="b1ea6017-487f-437f-ae2e-dde6d2b47cfe" d="M905.76,557.33c-25.81,0-46-6-46-13.75s20.23-13.75,46-13.75,46,6,46,13.75S931.57,557.33,905.76,557.33Zm0-26.67c-24.93,0-45.21,5.79-45.21,12.92s20.28,12.93,45.21,12.93S951,550.71,951,543.58,930.69,530.66,905.76,530.66Z"/><rect class="f3434857-eaa3-4036-952a-329216f36909" x="870.19" y="303.3" width="71.14" height="245.12" rx="14.12"/><path class="b1ea6017-487f-437f-ae2e-dde6d2b47cfe" d="M918,548.83H893.51a23.77,23.77,0,0,1-23.73-23.74V326.62a23.77,23.77,0,0,1,23.73-23.74H918a23.77,23.77,0,0,1,23.74,23.74V525.09A23.77,23.77,0,0,1,918,548.83ZM893.51,303.71a22.94,22.94,0,0,0-22.91,22.91V525.09A22.94,22.94,0,0,0,893.51,548H918a22.94,22.94,0,0,0,22.92-22.91V326.62A22.94,22.94,0,0,0,918,303.71Z"/><path class="b1ea6017-487f-437f-ae2e-dde6d2b47cfe" d="M881.88,379.49a.42.42,0,0,1-.41-.42V352.78a.42.42,0,0,1,.83,0v26.29A.42.42,0,0,1,881.88,379.49Z"/><path class="b1ea6017-487f-437f-ae2e-dde6d2b47cfe" d="M881.88,516a.41.41,0,0,1-.41-.41v-121a.42.42,0,0,1,.83,0v121A.41.41,0,0,1,881.88,516Z"/><path class="b1ea6017-487f-437f-ae2e-dde6d2b47cfe" d="M898.51,333.29a.41.41,0,0,1-.41-.42V306.58a.41.41,0,1,1,.82,0v26.29A.41.41,0,0,1,898.51,333.29Z"/><path class="b1ea6017-487f-437f-ae2e-dde6d2b47cfe" d="M898.51,469.76a.41.41,0,0,1-.41-.41v-121a.41.41,0,1,1,.82,0v121A.41.41,0,0,1,898.51,469.76Z"/><path class="b1ea6017-487f-437f-ae2e-dde6d2b47cfe" d="M915.91,409.26a.42.42,0,0,1-.42-.42V382.55a.42.42,0,0,1,.83,0v26.29A.42.42,0,0,1,915.91,409.26Z"/><path class="b1ea6017-487f-437f-ae2e-dde6d2b47cfe" d="M915.91,545.73a.41.41,0,0,1-.42-.41v-121a.42.42,0,0,1,.83,0v121A.41.41,0,0,1,915.91,545.73Z"/><path class="b1ea6017-487f-437f-ae2e-dde6d2b47cfe" d="M930.21,341a.42.42,0,0,1-.41-.41V314.32a.42.42,0,1,1,.83,0v26.29A.42.42,0,0,1,930.21,341Z"/><path class="b1ea6017-487f-437f-ae2e-dde6d2b47cfe" d="M930.21,477.5a.42.42,0,0,1-.41-.42v-121a.42.42,0,0,1,.83,0v121A.42.42,0,0,1,930.21,477.5Z"/><rect class="b1ea6017-487f-437f-ae2e-dde6d2b47cfe" x="898.1" y="477.08" width="0.83" height="68.24"/><circle class="e6f2be4f-1f0e-410c-988e-d745e8acfa21" cx="905.47" cy="334.52" r="14.79"/><path class="b1ea6017-487f-437f-ae2e-dde6d2b47cfe" d="M905.47,349.72a15.2,15.2,0,1,1,15.2-15.2A15.22,15.22,0,0,1,905.47,349.72Zm0-29.58a14.38,14.38,0,1,0,14.37,14.38A14.4,14.4,0,0,0,905.47,320.14Z"/><path class="b1ea6017-487f-437f-ae2e-dde6d2b47cfe" d="M889,313.12A32.33,32.33,0,0,0,879.51,329c-.65,2.58,3.33,3.68,4,1.1a28.43,28.43,0,0,1,8.41-14.1c2-1.81-1-4.72-2.92-2.92Z"/><path class="b1ea6017-487f-437f-ae2e-dde6d2b47cfe" d="M878.82,346.3q-.77,36.26-.94,72.5c0,2.66,4.12,2.66,4.13,0q.18-36.26.94-72.5c.06-2.65-4.07-2.65-4.13,0Z"/><path class="b1ea6017-487f-437f-ae2e-dde6d2b47cfe" d="M902.44,323.05a13.44,13.44,0,0,0-2.11,22.51c2,1.64,5-1.26,2.92-2.92-5.69-4.54-5.22-12.53,1.27-16,2.34-1.26.26-4.82-2.08-3.56Z"/><ellipse class="e1ab8c3b-47cc-4322-9876-fab8108afde6" cx="905.28" cy="542.9" rx="28.8" ry="7.83"/><path class="b1ea6017-487f-437f-ae2e-dde6d2b47cfe" d="M905.28,551.15c-16.39,0-29.22-3.62-29.22-8.25s12.83-8.24,29.22-8.24,29.21,3.62,29.21,8.24S921.66,551.15,905.28,551.15Zm0-15.66c-17,0-28.39,3.83-28.39,7.41s11.4,7.42,28.39,7.42,28.39-3.83,28.39-7.42S922.26,535.49,905.28,535.49Z"/><path class="b1ea6017-487f-437f-ae2e-dde6d2b47cfe" d="M879.16,547a252.05,252.05,0,0,0,31.34,3.84c2.65.15,2.64-4,0-4.13A243.81,243.81,0,0,1,880.26,543c-2.6-.49-3.71,3.49-1.1,4Z"/><path class="b1ea6017-487f-437f-ae2e-dde6d2b47cfe" d="M876.15,544.46c17.09-6.24,41.73-6,58.76.5,2.49.95,3.56-3,1.1-4-9.53-3.61-19.38-4.28-29.49-4.4-10.74-.12-21.28.18-31.47,3.9-2.47.9-1.4,4.9,1.1,4Z"/><path class="b1ea6017-487f-437f-ae2e-dde6d2b47cfe" d="M914.3,549.9a23.4,23.4,0,0,1,9.39-.37c2.6.43,3.72-3.55,1.1-4a28.65,28.65,0,0,0-11.59.37c-2.58.63-1.48,4.61,1.1,4Z"/><circle class="f7621289-0110-4c95-95c2-097e95d19121" cx="893.77" cy="382.55" r="6.51"/><path class="b1ea6017-487f-437f-ae2e-dde6d2b47cfe" d="M893.77,389.48a6.93,6.93,0,1,1,6.92-6.93A6.93,6.93,0,0,1,893.77,389.48Zm0-13a6.1,6.1,0,1,0,6.1,6.09A6.1,6.1,0,0,0,893.77,376.46Z"/><path class="b1ea6017-487f-437f-ae2e-dde6d2b47cfe" d="M894.51,378.82q-2,2.06-3.87,4.18a2.06,2.06,0,1,0,2.92,2.92c1.26-1.42,2.54-2.81,3.86-4.18,1.86-1.91-1.06-4.83-2.91-2.92Z"/><path class="b1ea6017-487f-437f-ae2e-dde6d2b47cfe" d="M890.41,382.39a15.93,15.93,0,0,1,4.24,3.24c1.82,1.94,4.73-1,2.92-2.92a19.38,19.38,0,0,0-5.07-3.88c-2.35-1.25-4.44,2.31-2.09,3.56Z"/><circle class="f7621289-0110-4c95-95c2-097e95d19121" cx="925.1" cy="384.84" r="6.51"/><path class="b1ea6017-487f-437f-ae2e-dde6d2b47cfe" d="M925.1,391.77a6.93,6.93,0,1,1,6.92-6.93A6.94,6.94,0,0,1,925.1,391.77Zm0-13a6.1,6.1,0,1,0,6.09,6.09A6.1,6.1,0,0,0,925.1,378.75Z"/><path class="b1ea6017-487f-437f-ae2e-dde6d2b47cfe" d="M925.83,381.11q-2,2.06-3.87,4.18a2.06,2.06,0,0,0,2.92,2.92q1.89-2.13,3.87-4.18c1.85-1.9-1.07-4.83-2.92-2.92Z"/><path class="b1ea6017-487f-437f-ae2e-dde6d2b47cfe" d="M921.74,384.68a15.89,15.89,0,0,1,4.23,3.24c1.82,1.94,4.74-1,2.92-2.92a19.38,19.38,0,0,0-5.07-3.88c-2.34-1.25-4.43,2.31-2.08,3.56Z"/><circle class="f7621289-0110-4c95-95c2-097e95d19121" cx="895.11" cy="409.13" r="6.51"/><path class="b1ea6017-487f-437f-ae2e-dde6d2b47cfe" d="M895.11,416.06a6.93,6.93,0,1,1,6.92-6.93A6.94,6.94,0,0,1,895.11,416.06Zm0-13a6.1,6.1,0,1,0,6.09,6.09A6.1,6.1,0,0,0,895.11,403Z"/><path class="b1ea6017-487f-437f-ae2e-dde6d2b47cfe" d="M895.84,405.4q-2,2.06-3.87,4.18a2.12,2.12,0,0,0,0,2.92,2.1,2.1,0,0,0,2.92,0q1.89-2.13,3.87-4.18c1.85-1.91-1.07-4.83-2.92-2.92Z"/><path class="b1ea6017-487f-437f-ae2e-dde6d2b47cfe" d="M891.75,409a15.73,15.73,0,0,1,4.23,3.24c1.82,1.94,4.74-1,2.92-2.92a19.38,19.38,0,0,0-5.07-3.88c-2.34-1.25-4.43,2.31-2.08,3.56Z"/><circle class="f7621289-0110-4c95-95c2-097e95d19121" cx="925.62" cy="411.83" r="6.51"/><path class="b1ea6017-487f-437f-ae2e-dde6d2b47cfe" d="M925.62,418.76a6.93,6.93,0,1,1,6.92-6.93A6.93,6.93,0,0,1,925.62,418.76Zm0-13a6.1,6.1,0,1,0,6.1,6.09A6.1,6.1,0,0,0,925.62,405.74Z"/><path class="b1ea6017-487f-437f-ae2e-dde6d2b47cfe" d="M926.36,408.1c-1.33,1.37-2.61,2.76-3.87,4.18a2.06,2.06,0,0,0,2.92,2.92c1.26-1.42,2.54-2.81,3.86-4.18,1.85-1.91-1.06-4.83-2.91-2.92Z"/><path class="b1ea6017-487f-437f-ae2e-dde6d2b47cfe" d="M922.26,411.67a15.93,15.93,0,0,1,4.24,3.24c1.82,1.94,4.73-1,2.92-2.92a19.54,19.54,0,0,0-5.07-3.88c-2.35-1.25-4.44,2.31-2.09,3.56Z"/><ellipse class="e1ab8c3b-47cc-4322-9876-fab8108afde6" cx="748.99" cy="526.86" rx="45.62" ry="13.34"/><path class="b1ea6017-487f-437f-ae2e-dde6d2b47cfe" d="M749,540.61c-25.82,0-46-6-46-13.75s20.22-13.75,46-13.75,46,6,46,13.75S774.8,540.61,749,540.61Zm0-26.68c-24.93,0-45.21,5.8-45.21,12.93s20.28,12.92,45.21,12.92,45.2-5.79,45.2-12.92S773.91,513.93,749,513.93Z"/><rect class="f3434857-eaa3-4036-952a-329216f36909" x="713.42" y="286.58" width="71.14" height="245.12" rx="14.12"/><path class="b1ea6017-487f-437f-ae2e-dde6d2b47cfe" d="M761.23,532.11H736.74A23.77,23.77,0,0,1,713,508.37V309.9a23.77,23.77,0,0,1,23.74-23.74h24.49A23.77,23.77,0,0,1,785,309.9V508.37A23.77,23.77,0,0,1,761.23,532.11ZM736.74,287a22.94,22.94,0,0,0-22.91,22.91V508.37a22.94,22.94,0,0,0,22.91,22.91h24.49a22.94,22.94,0,0,0,22.91-22.91V309.9A22.94,22.94,0,0,0,761.23,287Z"/><path class="b1ea6017-487f-437f-ae2e-dde6d2b47cfe" d="M725.11,362.77a.41.41,0,0,1-.41-.42V336.06a.41.41,0,0,1,.82,0v26.29A.41.41,0,0,1,725.11,362.77Z"/><path class="b1ea6017-487f-437f-ae2e-dde6d2b47cfe" d="M725.11,499.24a.41.41,0,0,1-.41-.41v-121a.41.41,0,0,1,.82,0v121A.41.41,0,0,1,725.11,499.24Z"/><path class="b1ea6017-487f-437f-ae2e-dde6d2b47cfe" d="M741.74,316.57a.42.42,0,0,1-.42-.42V289.86a.42.42,0,0,1,.83,0v26.29A.42.42,0,0,1,741.74,316.57Z"/><path class="b1ea6017-487f-437f-ae2e-dde6d2b47cfe" d="M741.74,453a.41.41,0,0,1-.42-.41v-121a.42.42,0,1,1,.83,0v121A.41.41,0,0,1,741.74,453Z"/><path class="b1ea6017-487f-437f-ae2e-dde6d2b47cfe" d="M759.13,392.54a.42.42,0,0,1-.41-.42V365.83a.42.42,0,0,1,.83,0v26.29A.42.42,0,0,1,759.13,392.54Z"/><path class="b1ea6017-487f-437f-ae2e-dde6d2b47cfe" d="M759.13,529a.41.41,0,0,1-.41-.41v-121a.42.42,0,1,1,.83,0v121A.41.41,0,0,1,759.13,529Z"/><path class="b1ea6017-487f-437f-ae2e-dde6d2b47cfe" d="M773.44,324.3a.41.41,0,0,1-.41-.41v-26.3a.41.41,0,0,1,.82,0v26.3A.41.41,0,0,1,773.44,324.3Z"/><path class="b1ea6017-487f-437f-ae2e-dde6d2b47cfe" d="M773.44,460.77a.41.41,0,0,1-.41-.41v-121a.41.41,0,0,1,.82,0v121A.41.41,0,0,1,773.44,460.77Z"/><rect class="b1ea6017-487f-437f-ae2e-dde6d2b47cfe" x="741.32" y="460.36" width="0.83" height="68.24"/><circle class="e6f2be4f-1f0e-410c-988e-d745e8acfa21" cx="748.7" cy="317.8" r="14.79"/><path class="b1ea6017-487f-437f-ae2e-dde6d2b47cfe" d="M748.7,333a15.21,15.21,0,1,1,15.2-15.2A15.22,15.22,0,0,1,748.7,333Zm0-29.58a14.38,14.38,0,1,0,14.37,14.38A14.4,14.4,0,0,0,748.7,303.42Z"/><path class="b1ea6017-487f-437f-ae2e-dde6d2b47cfe" d="M732.22,296.39a32.41,32.41,0,0,0-9.48,15.93c-.65,2.58,3.33,3.67,4,1.1a28.44,28.44,0,0,1,8.42-14.11c2-1.8-1-4.72-2.92-2.92Z"/><path class="b1ea6017-487f-437f-ae2e-dde6d2b47cfe" d="M722.05,329.58q-.76,36.26-.94,72.5c0,2.66,4.12,2.66,4.13,0q.16-36.25.94-72.5c.05-2.66-4.07-2.65-4.13,0Z"/><path class="b1ea6017-487f-437f-ae2e-dde6d2b47cfe" d="M745.66,306.33a13.43,13.43,0,0,0-2.1,22.51c2.05,1.64,5-1.27,2.91-2.92-5.68-4.54-5.21-12.54,1.28-16,2.34-1.26.26-4.82-2.09-3.56Z"/><ellipse class="e1ab8c3b-47cc-4322-9876-fab8108afde6" cx="748.5" cy="526.18" rx="28.8" ry="7.83"/><path class="b1ea6017-487f-437f-ae2e-dde6d2b47cfe" d="M748.5,534.42c-16.38,0-29.21-3.62-29.21-8.24s12.83-8.24,29.21-8.24,29.22,3.62,29.22,8.24S764.88,534.42,748.5,534.42Zm0-15.65c-17,0-28.39,3.83-28.39,7.41s11.41,7.42,28.39,7.42,28.39-3.84,28.39-7.42S765.48,518.77,748.5,518.77Z"/><path class="b1ea6017-487f-437f-ae2e-dde6d2b47cfe" d="M722.39,530.25a253.8,253.8,0,0,0,31.33,3.84c2.66.15,2.65-4,0-4.13a243.88,243.88,0,0,1-30.23-3.69c-2.6-.49-3.71,3.49-1.1,4Z"/><path class="b1ea6017-487f-437f-ae2e-dde6d2b47cfe" d="M719.38,527.74c17.08-6.24,41.73-6,58.76.5,2.48,1,3.56-3,1.09-4-9.52-3.62-19.38-4.29-29.48-4.4-10.74-.12-21.28.18-31.47,3.9-2.47.9-1.41,4.89,1.1,4Z"/><path class="b1ea6017-487f-437f-ae2e-dde6d2b47cfe" d="M757.53,533.18a23.39,23.39,0,0,1,9.39-.37c2.6.43,3.71-3.55,1.09-4a28.6,28.6,0,0,0-11.58.37c-2.58.63-1.49,4.61,1.1,4Z"/><circle class="f7621289-0110-4c95-95c2-097e95d19121" cx="736.24" cy="365.93" r="6.51"/><path class="b1ea6017-487f-437f-ae2e-dde6d2b47cfe" d="M736.24,372.85a6.92,6.92,0,1,1,6.93-6.92A6.93,6.93,0,0,1,736.24,372.85Zm0-13a6.1,6.1,0,1,0,6.1,6.1A6.1,6.1,0,0,0,736.24,359.83Z"/><path class="b1ea6017-487f-437f-ae2e-dde6d2b47cfe" d="M737,362.2q-2,2-3.87,4.17a2.11,2.11,0,0,0,0,2.92,2.09,2.09,0,0,0,2.92,0q1.89-2.13,3.87-4.17c1.85-1.91-1.07-4.83-2.92-2.92Z"/><path class="b1ea6017-487f-437f-ae2e-dde6d2b47cfe" d="M732.89,365.77a16.06,16.06,0,0,1,4.23,3.23c1.82,1.95,4.74-1,2.92-2.92A19.38,19.38,0,0,0,735,362.2c-2.34-1.25-4.43,2.32-2.08,3.57Z"/><circle class="f7621289-0110-4c95-95c2-097e95d19121" cx="767.47" cy="367.54" r="6.51"/><path class="b1ea6017-487f-437f-ae2e-dde6d2b47cfe" d="M767.47,374.47a6.93,6.93,0,1,1,6.92-6.93A6.94,6.94,0,0,1,767.47,374.47Zm0-13a6.1,6.1,0,1,0,6.09,6.09A6.1,6.1,0,0,0,767.47,361.45Z"/><path class="b1ea6017-487f-437f-ae2e-dde6d2b47cfe" d="M768.2,363.81q-2,2.06-3.87,4.18a2.06,2.06,0,1,0,2.92,2.92q1.89-2.13,3.87-4.18c1.85-1.91-1.07-4.83-2.92-2.92Z"/><path class="b1ea6017-487f-437f-ae2e-dde6d2b47cfe" d="M764.11,367.38a15.89,15.89,0,0,1,4.23,3.24c1.82,1.94,4.74-1,2.92-2.92a19.38,19.38,0,0,0-5.07-3.88c-2.34-1.25-4.43,2.31-2.08,3.56Z"/><circle class="f7621289-0110-4c95-95c2-097e95d19121" cx="767.47" cy="398.63" r="6.51"/><path class="b1ea6017-487f-437f-ae2e-dde6d2b47cfe" d="M767.47,405.55a6.92,6.92,0,1,1,6.92-6.92A6.93,6.93,0,0,1,767.47,405.55Zm0-13a6.1,6.1,0,1,0,6.09,6.09A6.1,6.1,0,0,0,767.47,392.54Z"/><path class="b1ea6017-487f-437f-ae2e-dde6d2b47cfe" d="M768.2,394.9c-1.32,1.36-2.61,2.76-3.87,4.18a2.1,2.1,0,0,0,0,2.91,2.08,2.08,0,0,0,2.92,0q1.89-2.13,3.87-4.17c1.85-1.91-1.07-4.83-2.92-2.92Z"/><path class="b1ea6017-487f-437f-ae2e-dde6d2b47cfe" d="M764.11,398.47a15.89,15.89,0,0,1,4.23,3.24c1.82,1.94,4.74-1,2.92-2.92a19.63,19.63,0,0,0-5.07-3.89c-2.34-1.24-4.43,2.32-2.08,3.57Z"/><circle class="f7621289-0110-4c95-95c2-097e95d19121" cx="738.33" cy="392.12" r="6.51"/><path class="b1ea6017-487f-437f-ae2e-dde6d2b47cfe" d="M738.33,399.05a6.93,6.93,0,1,1,6.93-6.93A6.93,6.93,0,0,1,738.33,399.05Zm0-13a6.1,6.1,0,1,0,6.1,6.09A6.09,6.09,0,0,0,738.33,386Z"/><path class="b1ea6017-487f-437f-ae2e-dde6d2b47cfe" d="M739.07,388.39c-1.32,1.36-2.61,2.76-3.87,4.18a2.06,2.06,0,0,0,2.92,2.92c1.26-1.42,2.55-2.82,3.87-4.18,1.85-1.91-1.07-4.83-2.92-2.92Z"/><path class="b1ea6017-487f-437f-ae2e-dde6d2b47cfe" d="M735,392a15.89,15.89,0,0,1,4.23,3.24c1.82,1.94,4.73-1,2.92-2.92a19.63,19.63,0,0,0-5.07-3.89c-2.34-1.24-4.43,2.32-2.08,3.57Z"/><ellipse class="e1ab8c3b-47cc-4322-9876-fab8108afde6" cx="610.19" cy="513.23" rx="45.62" ry="13.34"/><path class="b1ea6017-487f-437f-ae2e-dde6d2b47cfe" d="M610.19,527c-25.82,0-46-6-46-13.75s20.22-13.75,46-13.75,46,6,46,13.75S636,527,610.19,527Zm0-26.67c-24.93,0-45.21,5.79-45.21,12.92s20.28,12.93,45.21,12.93,45.2-5.8,45.2-12.93S635.11,500.31,610.19,500.31Z"/><rect class="f3434857-eaa3-4036-952a-329216f36909" x="574.62" y="272.95" width="71.14" height="245.12" rx="14.12"/><path class="b1ea6017-487f-437f-ae2e-dde6d2b47cfe" d="M622.43,518.48H597.94a23.76,23.76,0,0,1-23.73-23.74V296.27a23.75,23.75,0,0,1,23.73-23.73h24.49a23.76,23.76,0,0,1,23.74,23.73V494.74A23.77,23.77,0,0,1,622.43,518.48ZM597.94,273.36A22.94,22.94,0,0,0,575,296.27V494.74a22.94,22.94,0,0,0,22.91,22.91h24.49a22.94,22.94,0,0,0,22.91-22.91V296.27a22.94,22.94,0,0,0-22.91-22.91Z"/><path class="b1ea6017-487f-437f-ae2e-dde6d2b47cfe" d="M586.31,349.14a.42.42,0,0,1-.41-.42V322.44a.42.42,0,1,1,.83,0v26.28A.42.42,0,0,1,586.31,349.14Z"/><path class="b1ea6017-487f-437f-ae2e-dde6d2b47cfe" d="M586.31,485.61a.41.41,0,0,1-.41-.41v-121a.42.42,0,0,1,.83,0v121A.41.41,0,0,1,586.31,485.61Z"/><path class="b1ea6017-487f-437f-ae2e-dde6d2b47cfe" d="M602.94,302.94a.42.42,0,0,1-.42-.42V276.23a.42.42,0,0,1,.83,0v26.29A.42.42,0,0,1,602.94,302.94Z"/><path class="b1ea6017-487f-437f-ae2e-dde6d2b47cfe" d="M602.94,439.41a.41.41,0,0,1-.42-.41V318a.42.42,0,0,1,.83,0V439A.41.41,0,0,1,602.94,439.41Z"/><path class="b1ea6017-487f-437f-ae2e-dde6d2b47cfe" d="M620.33,378.91a.42.42,0,0,1-.41-.41V352.2a.42.42,0,0,1,.83,0v26.3A.42.42,0,0,1,620.33,378.91Z"/><path class="b1ea6017-487f-437f-ae2e-dde6d2b47cfe" d="M620.33,515.38a.41.41,0,0,1-.41-.41V394a.42.42,0,0,1,.83,0V515A.41.41,0,0,1,620.33,515.38Z"/><path class="b1ea6017-487f-437f-ae2e-dde6d2b47cfe" d="M634.64,310.67a.41.41,0,0,1-.41-.41V284a.41.41,0,1,1,.82,0v26.29A.41.41,0,0,1,634.64,310.67Z"/><path class="b1ea6017-487f-437f-ae2e-dde6d2b47cfe" d="M634.64,447.15a.41.41,0,0,1-.41-.42v-121a.41.41,0,0,1,.82,0v121A.41.41,0,0,1,634.64,447.15Z"/><rect class="b1ea6017-487f-437f-ae2e-dde6d2b47cfe" x="602.52" y="446.73" width="0.83" height="68.24"/><circle class="e6f2be4f-1f0e-410c-988e-d745e8acfa21" cx="609.9" cy="304.17" r="14.79"/><path class="b1ea6017-487f-437f-ae2e-dde6d2b47cfe" d="M609.9,319.37a15.2,15.2,0,1,1,15.2-15.2A15.21,15.21,0,0,1,609.9,319.37Zm0-29.58a14.38,14.38,0,1,0,14.37,14.38A14.4,14.4,0,0,0,609.9,289.79Z"/><path class="b1ea6017-487f-437f-ae2e-dde6d2b47cfe" d="M593.42,282.77a32.33,32.33,0,0,0-9.48,15.92c-.65,2.58,3.33,3.68,4,1.1a28.37,28.37,0,0,1,8.42-14.1c1.95-1.81-1-4.72-2.92-2.92Z"/><path class="b1ea6017-487f-437f-ae2e-dde6d2b47cfe" d="M583.25,316q-.76,36.26-.94,72.5c0,2.66,4.12,2.66,4.13,0q.18-36.26.94-72.5c.06-2.65-4.07-2.65-4.13,0Z"/><path class="b1ea6017-487f-437f-ae2e-dde6d2b47cfe" d="M606.87,292.7a13.43,13.43,0,0,0-2.11,22.51c2,1.64,5-1.26,2.92-2.92-5.69-4.54-5.22-12.53,1.27-16,2.34-1.26.26-4.82-2.08-3.56Z"/><ellipse class="e1ab8c3b-47cc-4322-9876-fab8108afde6" cx="609.7" cy="512.55" rx="28.8" ry="7.83"/><path class="b1ea6017-487f-437f-ae2e-dde6d2b47cfe" d="M609.7,520.8c-16.38,0-29.21-3.62-29.21-8.25s12.83-8.24,29.21-8.24,29.22,3.62,29.22,8.24S626.09,520.8,609.7,520.8Zm0-15.66c-17,0-28.39,3.83-28.39,7.41S592.72,520,609.7,520s28.39-3.83,28.39-7.42S626.69,505.14,609.7,505.14Z"/><path class="b1ea6017-487f-437f-ae2e-dde6d2b47cfe" d="M583.59,516.62a251.82,251.82,0,0,0,31.34,3.84c2.65.15,2.64-4,0-4.13a241.92,241.92,0,0,1-30.24-3.69c-2.6-.48-3.71,3.49-1.1,4Z"/><path class="b1ea6017-487f-437f-ae2e-dde6d2b47cfe" d="M580.58,514.11c17.08-6.24,41.73-6,58.76.5,2.49.95,3.56-3,1.1-4-9.53-3.61-19.39-4.28-29.49-4.4-10.74-.12-21.28.18-31.47,3.9-2.47.9-1.4,4.9,1.1,4Z"/><path class="b1ea6017-487f-437f-ae2e-dde6d2b47cfe" d="M618.73,519.56a23.4,23.4,0,0,1,9.39-.38c2.6.43,3.71-3.55,1.1-4a28.64,28.64,0,0,0-11.59.37c-2.58.63-1.49,4.61,1.1,4Z"/><circle class="f7621289-0110-4c95-95c2-097e95d19121" cx="597.71" cy="350.26" r="6.51"/><path class="b1ea6017-487f-437f-ae2e-dde6d2b47cfe" d="M597.71,357.18a6.93,6.93,0,1,1,6.92-6.92A6.94,6.94,0,0,1,597.71,357.18Zm0-13a6.1,6.1,0,1,0,6.1,6.1A6.11,6.11,0,0,0,597.71,344.16Z"/><path class="b1ea6017-487f-437f-ae2e-dde6d2b47cfe" d="M598.44,346.53q-2,2-3.86,4.17a2.06,2.06,0,1,0,2.92,2.92q1.88-2.13,3.86-4.17c1.85-1.91-1.06-4.84-2.92-2.92Z"/><path class="b1ea6017-487f-437f-ae2e-dde6d2b47cfe" d="M594.35,350.09a16.14,16.14,0,0,1,4.24,3.24c1.82,1.94,4.73-1,2.91-2.92a19.49,19.49,0,0,0-5.06-3.88c-2.35-1.25-4.44,2.31-2.09,3.56Z"/><circle class="f7621289-0110-4c95-95c2-097e95d19121" cx="628.36" cy="353.89" r="6.51"/><path class="b1ea6017-487f-437f-ae2e-dde6d2b47cfe" d="M628.36,360.81a6.92,6.92,0,1,1,6.93-6.92A6.93,6.93,0,0,1,628.36,360.81Zm0-13a6.1,6.1,0,1,0,6.1,6.1A6.1,6.1,0,0,0,628.36,347.79Z"/><path class="b1ea6017-487f-437f-ae2e-dde6d2b47cfe" d="M629.1,350.16q-2,2-3.87,4.17a2.11,2.11,0,0,0,0,2.92,2.08,2.08,0,0,0,2.92,0q1.89-2.13,3.87-4.17c1.85-1.91-1.07-4.83-2.92-2.92Z"/><path class="b1ea6017-487f-437f-ae2e-dde6d2b47cfe" d="M625,353.73a15.89,15.89,0,0,1,4.23,3.24c1.82,1.94,4.74-1,2.92-2.92a19.63,19.63,0,0,0-5.07-3.89c-2.34-1.24-4.43,2.32-2.08,3.57Z"/><circle class="f7621289-0110-4c95-95c2-097e95d19121" cx="628.36" cy="378.34" r="6.51"/><path class="b1ea6017-487f-437f-ae2e-dde6d2b47cfe" d="M628.36,385.26a6.93,6.93,0,1,1,6.93-6.92A6.94,6.94,0,0,1,628.36,385.26Zm0-13a6.1,6.1,0,1,0,6.1,6.1A6.1,6.1,0,0,0,628.36,372.24Z"/><path class="b1ea6017-487f-437f-ae2e-dde6d2b47cfe" d="M629.1,374.6q-2,2.06-3.87,4.18a2.11,2.11,0,0,0,0,2.92,2.09,2.09,0,0,0,2.92,0q1.89-2.13,3.87-4.18c1.85-1.9-1.07-4.83-2.92-2.92Z"/><path class="b1ea6017-487f-437f-ae2e-dde6d2b47cfe" d="M625,378.17a16.1,16.1,0,0,1,4.23,3.24c1.82,1.94,4.74-1,2.92-2.92a19.38,19.38,0,0,0-5.07-3.88c-2.34-1.25-4.43,2.31-2.08,3.56Z"/><circle class="f7621289-0110-4c95-95c2-097e95d19121" cx="597.71" cy="371.83" r="6.51"/><path class="b1ea6017-487f-437f-ae2e-dde6d2b47cfe" d="M597.71,378.75a6.93,6.93,0,1,1,6.92-6.92A6.94,6.94,0,0,1,597.71,378.75Zm0-13a6.1,6.1,0,1,0,6.1,6.1A6.11,6.11,0,0,0,597.71,365.73Z"/><path class="b1ea6017-487f-437f-ae2e-dde6d2b47cfe" d="M598.44,368.1q-2,2-3.86,4.17a2.06,2.06,0,1,0,2.92,2.92q1.88-2.13,3.86-4.18c1.85-1.9-1.06-4.83-2.92-2.91Z"/><path class="b1ea6017-487f-437f-ae2e-dde6d2b47cfe" d="M594.35,371.66a16.14,16.14,0,0,1,4.24,3.24c1.82,1.94,4.73-1,2.91-2.92a19.49,19.49,0,0,0-5.06-3.88c-2.35-1.25-4.44,2.31-2.09,3.56Z"/><ellipse class="e1ab8c3b-47cc-4322-9876-fab8108afde6" cx="449.64" cy="496.61" rx="45.62" ry="13.34"/><path class="b1ea6017-487f-437f-ae2e-dde6d2b47cfe" d="M449.64,510.36c-25.81,0-46-6-46-13.75s20.22-13.75,46-13.75,46,6,46,13.75S475.46,510.36,449.64,510.36Zm0-26.68c-24.92,0-45.2,5.8-45.2,12.93s20.28,12.92,45.2,12.92,45.21-5.8,45.21-12.92S474.57,483.68,449.64,483.68Z"/><rect class="f3434857-eaa3-4036-952a-329216f36909" x="414.08" y="256.32" width="71.14" height="245.12" rx="14.12"/><path class="b1ea6017-487f-437f-ae2e-dde6d2b47cfe" d="M461.89,501.85H437.4a23.77,23.77,0,0,1-23.74-23.74V279.65a23.77,23.77,0,0,1,23.74-23.74h24.49a23.77,23.77,0,0,1,23.74,23.74V478.11A23.77,23.77,0,0,1,461.89,501.85ZM437.4,256.74a22.93,22.93,0,0,0-22.91,22.91V478.11A22.94,22.94,0,0,0,437.4,501h24.49a22.94,22.94,0,0,0,22.91-22.92V279.65a22.93,22.93,0,0,0-22.91-22.91Z"/><path class="b1ea6017-487f-437f-ae2e-dde6d2b47cfe" d="M425.77,332.51a.41.41,0,0,1-.41-.41V305.81a.41.41,0,1,1,.82,0V332.1A.41.41,0,0,1,425.77,332.51Z"/><path class="b1ea6017-487f-437f-ae2e-dde6d2b47cfe" d="M425.77,469a.41.41,0,0,1-.41-.41v-121a.41.41,0,1,1,.82,0v121A.41.41,0,0,1,425.77,469Z"/><path class="b1ea6017-487f-437f-ae2e-dde6d2b47cfe" d="M442.39,286.31a.41.41,0,0,1-.41-.41V259.61a.42.42,0,0,1,.83,0V285.9A.41.41,0,0,1,442.39,286.31Z"/><path class="b1ea6017-487f-437f-ae2e-dde6d2b47cfe" d="M442.39,422.79a.42.42,0,0,1-.41-.41v-121a.42.42,0,0,1,.83,0v121A.42.42,0,0,1,442.39,422.79Z"/><path class="b1ea6017-487f-437f-ae2e-dde6d2b47cfe" d="M459.79,362.28a.41.41,0,0,1-.41-.41V335.58a.41.41,0,0,1,.41-.41.41.41,0,0,1,.42.41v26.29A.41.41,0,0,1,459.79,362.28Z"/><path class="b1ea6017-487f-437f-ae2e-dde6d2b47cfe" d="M459.79,498.76a.41.41,0,0,1-.41-.41v-121a.41.41,0,0,1,.41-.41.42.42,0,0,1,.42.41v121A.42.42,0,0,1,459.79,498.76Z"/><path class="b1ea6017-487f-437f-ae2e-dde6d2b47cfe" d="M474.1,294a.41.41,0,0,1-.42-.41V267.34a.41.41,0,0,1,.42-.41.41.41,0,0,1,.41.41v26.29A.41.41,0,0,1,474.1,294Z"/><path class="b1ea6017-487f-437f-ae2e-dde6d2b47cfe" d="M474.1,430.52a.41.41,0,0,1-.42-.41v-121a.42.42,0,0,1,.42-.42.41.41,0,0,1,.41.42v121A.41.41,0,0,1,474.1,430.52Z"/><rect class="b1ea6017-487f-437f-ae2e-dde6d2b47cfe" x="441.98" y="430.11" width="0.83" height="68.24"/><circle class="e6f2be4f-1f0e-410c-988e-d745e8acfa21" cx="449.35" cy="287.54" r="14.79"/><path class="b1ea6017-487f-437f-ae2e-dde6d2b47cfe" d="M449.35,302.74a15.2,15.2,0,1,1,15.2-15.2A15.22,15.22,0,0,1,449.35,302.74Zm0-29.57a14.38,14.38,0,1,0,14.38,14.37A14.39,14.39,0,0,0,449.35,273.17Z"/><path class="b1ea6017-487f-437f-ae2e-dde6d2b47cfe" d="M432.88,266.14a32.33,32.33,0,0,0-9.48,15.93c-.65,2.57,3.33,3.67,4,1.09a28.47,28.47,0,0,1,8.41-14.1c2-1.8-1-4.72-2.91-2.92Z"/><path class="b1ea6017-487f-437f-ae2e-dde6d2b47cfe" d="M422.71,299.33q-.76,36.24-.94,72.5c0,2.65,4.11,2.66,4.13,0q.17-36.25.94-72.5c.05-2.66-4.08-2.66-4.13,0Z"/><path class="b1ea6017-487f-437f-ae2e-dde6d2b47cfe" d="M446.32,276.07a13.44,13.44,0,0,0-2.11,22.51c2.06,1.64,5-1.26,2.92-2.92-5.68-4.54-5.21-12.53,1.28-16,2.34-1.26.25-4.83-2.09-3.57Z"/><ellipse class="e1ab8c3b-47cc-4322-9876-fab8108afde6" cx="449.16" cy="495.93" rx="28.8" ry="7.83"/><path class="b1ea6017-487f-437f-ae2e-dde6d2b47cfe" d="M449.16,504.17c-16.38,0-29.22-3.62-29.22-8.24s12.84-8.24,29.22-8.24,29.22,3.62,29.22,8.24S465.54,504.17,449.16,504.17Zm0-15.66c-17,0-28.39,3.84-28.39,7.42s11.41,7.42,28.39,7.42,28.39-3.84,28.39-7.42S466.14,488.51,449.16,488.51Z"/><path class="b1ea6017-487f-437f-ae2e-dde6d2b47cfe" d="M423.05,500a251.87,251.87,0,0,0,31.33,3.83c2.66.16,2.65-4,0-4.13A242,242,0,0,1,424.15,496c-2.6-.48-3.71,3.5-1.1,4Z"/><path class="b1ea6017-487f-437f-ae2e-dde6d2b47cfe" d="M420,497.49c17.08-6.24,41.73-6,58.76.5,2.48.94,3.56-3.05,1.09-4-9.53-3.62-19.38-4.29-29.49-4.4-10.73-.13-21.28.18-31.46,3.9-2.48.9-1.41,4.89,1.1,4Z"/><path class="b1ea6017-487f-437f-ae2e-dde6d2b47cfe" d="M458.19,502.93a23.17,23.17,0,0,1,9.38-.37c2.6.43,3.72-3.55,1.1-4a28.6,28.6,0,0,0-11.58.38c-2.58.62-1.49,4.6,1.1,4Z"/><circle class="f7621289-0110-4c95-95c2-097e95d19121" cx="434.57" cy="360.61" r="6.51"/><path class="b1ea6017-487f-437f-ae2e-dde6d2b47cfe" d="M434.57,367.54a6.93,6.93,0,1,1,6.92-6.93A6.94,6.94,0,0,1,434.57,367.54Zm0-13a6.1,6.1,0,1,0,6.09,6.09A6.1,6.1,0,0,0,434.57,354.52Z"/><path class="b1ea6017-487f-437f-ae2e-dde6d2b47cfe" d="M435.3,356.88q-2,2.06-3.87,4.18a2.12,2.12,0,0,0,0,2.92,2.1,2.1,0,0,0,2.92,0q1.89-2.13,3.87-4.18c1.85-1.91-1.06-4.83-2.92-2.92Z"/><path class="b1ea6017-487f-437f-ae2e-dde6d2b47cfe" d="M431.21,360.45a15.73,15.73,0,0,1,4.23,3.24c1.82,1.94,4.74-1,2.92-2.92a19.38,19.38,0,0,0-5.07-3.88c-2.34-1.25-4.43,2.31-2.08,3.56Z"/><circle class="f7621289-0110-4c95-95c2-097e95d19121" cx="464.14" cy="354.07" r="6.51"/><path class="b1ea6017-487f-437f-ae2e-dde6d2b47cfe" d="M464.14,361a6.93,6.93,0,1,1,6.92-6.93A6.93,6.93,0,0,1,464.14,361Zm0-13a6.1,6.1,0,1,0,6.1,6.09A6.09,6.09,0,0,0,464.14,348Z"/><path class="b1ea6017-487f-437f-ae2e-dde6d2b47cfe" d="M464.88,350.34q-2,2.06-3.87,4.18a2.06,2.06,0,0,0,2.92,2.92q1.89-2.13,3.87-4.18c1.85-1.9-1.07-4.83-2.92-2.92Z"/><path class="b1ea6017-487f-437f-ae2e-dde6d2b47cfe" d="M460.79,353.91a15.89,15.89,0,0,1,4.23,3.24c1.82,1.94,4.73-1,2.92-2.92a19.38,19.38,0,0,0-5.07-3.88c-2.34-1.25-4.43,2.31-2.08,3.56Z"/><circle class="f7621289-0110-4c95-95c2-097e95d19121" cx="462.47" cy="379.72" r="6.51"/><path class="b1ea6017-487f-437f-ae2e-dde6d2b47cfe" d="M462.47,386.64a6.92,6.92,0,1,1,6.92-6.92A6.93,6.93,0,0,1,462.47,386.64Zm0-13a6.1,6.1,0,1,0,6.1,6.1A6.11,6.11,0,0,0,462.47,373.62Z"/><path class="b1ea6017-487f-437f-ae2e-dde6d2b47cfe" d="M463.21,376q-2,2-3.87,4.17a2.11,2.11,0,0,0,0,2.92,2.09,2.09,0,0,0,2.92,0q1.89-2.13,3.87-4.17c1.85-1.91-1.07-4.83-2.92-2.92Z"/><path class="b1ea6017-487f-437f-ae2e-dde6d2b47cfe" d="M459.11,379.55a16,16,0,0,1,4.24,3.24c1.82,1.95,4.73-1,2.92-2.92A19.38,19.38,0,0,0,461.2,376c-2.35-1.25-4.43,2.32-2.09,3.56Z"/><circle class="f7621289-0110-4c95-95c2-097e95d19121" cx="434.23" cy="381.62" r="6.51"/><path class="b1ea6017-487f-437f-ae2e-dde6d2b47cfe" d="M434.23,388.54a6.92,6.92,0,1,1,6.93-6.92A6.93,6.93,0,0,1,434.23,388.54Zm0-13a6.1,6.1,0,1,0,6.1,6.1A6.1,6.1,0,0,0,434.23,375.52Z"/><path class="b1ea6017-487f-437f-ae2e-dde6d2b47cfe" d="M435,377.89q-2,2-3.87,4.17a2.11,2.11,0,0,0,0,2.92,2.09,2.09,0,0,0,2.92,0q1.89-2.13,3.87-4.17c1.85-1.91-1.07-4.83-2.92-2.92Z"/><path class="b1ea6017-487f-437f-ae2e-dde6d2b47cfe" d="M430.88,381.46a16.06,16.06,0,0,1,4.23,3.23c1.82,1.95,4.74-1,2.92-2.92a19.38,19.38,0,0,0-5.07-3.88c-2.34-1.25-4.43,2.32-2.08,3.57Z"/><ellipse class="e1ab8c3b-47cc-4322-9876-fab8108afde6" cx="283.05" cy="523.28" rx="45.62" ry="13.34"/><path class="b1ea6017-487f-437f-ae2e-dde6d2b47cfe" d="M283.05,537c-25.82,0-46-6-46-13.75s20.22-13.75,46-13.75,46,6,46,13.75S308.86,537,283.05,537Zm0-26.67c-24.93,0-45.21,5.8-45.21,12.92s20.28,12.93,45.21,12.93,45.21-5.8,45.21-12.93S308,510.36,283.05,510.36Z"/><rect class="f3434857-eaa3-4036-952a-329216f36909" x="247.48" y="283" width="71.14" height="245.12" rx="14.12"/><path class="f3434857-eaa3-4036-952a-329216f36909" d="M295.29,528.53H270.8a23.76,23.76,0,0,1-23.73-23.74V306.33a23.76,23.76,0,0,1,23.73-23.74h24.49A23.77,23.77,0,0,1,319,306.33V504.79A23.77,23.77,0,0,1,295.29,528.53ZM270.8,283.41a22.94,22.94,0,0,0-22.91,22.92V504.79A22.94,22.94,0,0,0,270.8,527.7h24.49a22.94,22.94,0,0,0,22.91-22.91V306.33a22.94,22.94,0,0,0-22.91-22.92Z"/><path class="b1ea6017-487f-437f-ae2e-dde6d2b47cfe" d="M259.17,359.19a.41.41,0,0,1-.41-.41V332.49a.42.42,0,1,1,.83,0v26.29A.41.41,0,0,1,259.17,359.19Z"/><path class="b1ea6017-487f-437f-ae2e-dde6d2b47cfe" d="M259.17,495.67a.42.42,0,0,1-.41-.42v-121a.42.42,0,0,1,.83,0v121A.42.42,0,0,1,259.17,495.67Z"/><path class="b1ea6017-487f-437f-ae2e-dde6d2b47cfe" d="M275.8,313a.41.41,0,0,1-.41-.41V286.29a.41.41,0,1,1,.82,0v26.29A.41.41,0,0,1,275.8,313Z"/><path class="b1ea6017-487f-437f-ae2e-dde6d2b47cfe" d="M275.8,449.47a.41.41,0,0,1-.41-.42V328a.41.41,0,1,1,.82,0v121A.41.41,0,0,1,275.8,449.47Z"/><path class="b1ea6017-487f-437f-ae2e-dde6d2b47cfe" d="M293.2,389a.41.41,0,0,1-.42-.41V362.26a.42.42,0,1,1,.83,0v26.29A.41.41,0,0,1,293.2,389Z"/><path class="b1ea6017-487f-437f-ae2e-dde6d2b47cfe" d="M293.2,525.44a.42.42,0,0,1-.42-.42V404a.42.42,0,0,1,.83,0V525A.42.42,0,0,1,293.2,525.44Z"/><path class="b1ea6017-487f-437f-ae2e-dde6d2b47cfe" d="M307.5,320.72a.41.41,0,0,1-.41-.41V294a.41.41,0,0,1,.82,0v26.29A.41.41,0,0,1,307.5,320.72Z"/><path class="b1ea6017-487f-437f-ae2e-dde6d2b47cfe" d="M307.5,457.2a.41.41,0,0,1-.41-.41v-121a.41.41,0,0,1,.82,0v121A.41.41,0,0,1,307.5,457.2Z"/><rect class="b1ea6017-487f-437f-ae2e-dde6d2b47cfe" x="275.39" y="456.79" width="0.83" height="68.24"/><circle class="e6f2be4f-1f0e-410c-988e-d745e8acfa21" cx="282.76" cy="314.22" r="14.79"/><path class="b1ea6017-487f-437f-ae2e-dde6d2b47cfe" d="M282.76,329.42a15.2,15.2,0,1,1,15.2-15.2A15.22,15.22,0,0,1,282.76,329.42Zm0-29.58a14.38,14.38,0,1,0,14.37,14.38A14.4,14.4,0,0,0,282.76,299.84Z"/><path class="b1ea6017-487f-437f-ae2e-dde6d2b47cfe" d="M266.28,292.82a32.42,32.42,0,0,0-9.48,15.92c-.65,2.58,3.33,3.68,4,1.1a28.37,28.37,0,0,1,8.42-14.1c2-1.81-1-4.72-2.92-2.92Z"/><path class="b1ea6017-487f-437f-ae2e-dde6d2b47cfe" d="M256.11,326q-.77,36.24-.94,72.49c0,2.66,4.12,2.66,4.13,0q.18-36.25.94-72.49c.06-2.66-4.07-2.66-4.13,0Z"/><path class="b1ea6017-487f-437f-ae2e-dde6d2b47cfe" d="M279.73,302.75a13.43,13.43,0,0,0-2.11,22.51c2.05,1.64,5-1.26,2.92-2.92-5.69-4.54-5.22-12.53,1.27-16,2.34-1.26.26-4.83-2.08-3.57Z"/><ellipse class="e1ab8c3b-47cc-4322-9876-fab8108afde6" cx="282.56" cy="522.61" rx="28.8" ry="7.83"/><path class="b1ea6017-487f-437f-ae2e-dde6d2b47cfe" d="M282.56,530.85c-16.38,0-29.21-3.62-29.21-8.24s12.83-8.25,29.21-8.25,29.22,3.62,29.22,8.25S299,530.85,282.56,530.85Zm0-15.66c-17,0-28.39,3.84-28.39,7.42S265.58,530,282.56,530s28.4-3.83,28.4-7.41S299.55,515.19,282.56,515.19Z"/><path class="b1ea6017-487f-437f-ae2e-dde6d2b47cfe" d="M256.45,526.67a249.94,249.94,0,0,0,31.34,3.84c2.65.16,2.64-4,0-4.13a241.92,241.92,0,0,1-30.24-3.69c-2.6-.48-3.71,3.5-1.1,4Z"/><path class="b1ea6017-487f-437f-ae2e-dde6d2b47cfe" d="M253.44,524.16c17.08-6.24,41.73-6,58.76.51,2.49.94,3.56-3,1.1-4-9.53-3.62-19.38-4.29-29.49-4.41-10.74-.12-21.28.18-31.47,3.9-2.47.91-1.4,4.9,1.1,4Z"/><path class="b1ea6017-487f-437f-ae2e-dde6d2b47cfe" d="M291.59,529.61a23.4,23.4,0,0,1,9.39-.38c2.6.43,3.72-3.54,1.1-4a28.65,28.65,0,0,0-11.59.38c-2.58.62-1.49,4.6,1.1,4Z"/><circle class="f7621289-0110-4c95-95c2-097e95d19121" cx="267.74" cy="398.5" r="6.51"/><path class="b1ea6017-487f-437f-ae2e-dde6d2b47cfe" d="M267.74,405.42a6.92,6.92,0,1,1,6.92-6.92A6.92,6.92,0,0,1,267.74,405.42Zm0-13a6.1,6.1,0,1,0,6.09,6.09A6.1,6.1,0,0,0,267.74,392.41Z"/><path class="b1ea6017-487f-437f-ae2e-dde6d2b47cfe" d="M268.47,394.77c-1.32,1.36-2.6,2.76-3.86,4.17a2.11,2.11,0,0,0,0,2.92,2.08,2.08,0,0,0,2.92,0q1.88-2.13,3.86-4.17c1.85-1.91-1.06-4.83-2.92-2.92Z"/><path class="b1ea6017-487f-437f-ae2e-dde6d2b47cfe" d="M264.38,398.34a15.93,15.93,0,0,1,4.24,3.24c1.82,1.94,4.73-1,2.92-2.92a20,20,0,0,0-5.07-3.89c-2.35-1.24-4.44,2.32-2.09,3.57Z"/><circle class="f7621289-0110-4c95-95c2-097e95d19121" cx="297.39" cy="391.99" r="6.51"/><path class="b1ea6017-487f-437f-ae2e-dde6d2b47cfe" d="M297.39,398.91a6.92,6.92,0,1,1,6.93-6.92A6.93,6.93,0,0,1,297.39,398.91Zm0-13a6.1,6.1,0,1,0,6.1,6.09A6.09,6.09,0,0,0,297.39,385.9Z"/><path class="b1ea6017-487f-437f-ae2e-dde6d2b47cfe" d="M298.13,388.26c-1.32,1.36-2.61,2.76-3.87,4.18a2.1,2.1,0,0,0,0,2.91,2.08,2.08,0,0,0,2.92,0q1.89-2.13,3.87-4.17c1.85-1.91-1.07-4.83-2.92-2.92Z"/><path class="b1ea6017-487f-437f-ae2e-dde6d2b47cfe" d="M294,391.83a15.89,15.89,0,0,1,4.23,3.24c1.82,1.94,4.74-1,2.92-2.92a19.63,19.63,0,0,0-5.07-3.89c-2.34-1.24-4.43,2.32-2.08,3.57Z"/><circle class="f7621289-0110-4c95-95c2-097e95d19121" cx="298.03" cy="419.8" r="6.51"/><path class="b1ea6017-487f-437f-ae2e-dde6d2b47cfe" d="M298,426.72A6.92,6.92,0,1,1,305,419.8,6.93,6.93,0,0,1,298,426.72Zm0-13a6.1,6.1,0,1,0,6.09,6.1A6.11,6.11,0,0,0,298,413.7Z"/><path class="b1ea6017-487f-437f-ae2e-dde6d2b47cfe" d="M298.77,416.07q-2,2-3.87,4.17a2.11,2.11,0,0,0,0,2.92,2.08,2.08,0,0,0,2.92,0q1.89-2.13,3.87-4.17c1.85-1.91-1.07-4.83-2.92-2.92Z"/><path class="b1ea6017-487f-437f-ae2e-dde6d2b47cfe" d="M294.68,419.64a16.06,16.06,0,0,1,4.23,3.23c1.82,1.95,4.74-1,2.92-2.91a19.41,19.41,0,0,0-5.07-3.89c-2.34-1.24-4.43,2.32-2.08,3.57Z"/><circle class="f7621289-0110-4c95-95c2-097e95d19121" cx="270.08" cy="426.1" r="6.51"/><path class="b1ea6017-487f-437f-ae2e-dde6d2b47cfe" d="M270.08,433A6.92,6.92,0,1,1,277,426.1,6.93,6.93,0,0,1,270.08,433Zm0-13a6.1,6.1,0,1,0,6.09,6.1A6.11,6.11,0,0,0,270.08,420Z"/><path class="b1ea6017-487f-437f-ae2e-dde6d2b47cfe" d="M270.81,422.37q-2,2-3.87,4.17a2.12,2.12,0,0,0,0,2.92,2.08,2.08,0,0,0,2.92,0q1.89-2.13,3.87-4.17c1.85-1.91-1.06-4.83-2.92-2.92Z"/><path class="b1ea6017-487f-437f-ae2e-dde6d2b47cfe" d="M266.72,425.94a15.9,15.9,0,0,1,4.23,3.23c1.82,1.95,4.74-1,2.92-2.91a19.41,19.41,0,0,0-5.07-3.89c-2.34-1.24-4.43,2.32-2.08,3.57Z"/><path class="a9c93afc-6308-4bd7-a4df-cec1da1e4f92" d="M1301.7,823.52a47.64,47.64,0,0,1,43.92-5.09c5,1.84,7.15-6.13,2.2-8a55.52,55.52,0,0,0-50.29,5.93c-4.4,2.93-.27,10.09,4.17,7.13Z"/></g></g></svg>