<svg xmlns="http://www.w3.org/2000/svg" viewBox="0 0 71.71 144.98"><defs><style>.a2a41834-a366-49c3-9564-cabb7d82fbc7{fill:#8db63f;}.be39a99e-39a2-4ee3-877f-bf9b7da37f16{fill:#40220f;}.a0c70c03-4431-4327-81c1-f01ac743da33{fill:#5e97c9;}.afb68da6-8b71-49ab-8312-c44c42d13a6d{fill:#545d84;}.b8d8548e-d203-48d0-ac70-aa22342f34a4{fill:#729d55;}</style></defs><title>藍3</title><g id="bf1b4376-2678-4ba3-b760-4d983935d4d8" data-name="圖層 2"><g id="ab45e9d7-11dd-400a-a01f-ad2b6f21aba5" data-name="圖層 1"><path class="a2a41834-a366-49c3-9564-cabb7d82fbc7" d="M23.61,52.36S3.25,44.21,2.16,36a4.94,4.94,0,0,1,0-1.33,6.14,6.14,0,0,1,7.89-4.87A31.81,31.81,0,0,1,21.9,36c7.49,6.4,3.64-13.13,5.07-24.79.55-4.46,2.49-6.88,4.68-8.17a6.59,6.59,0,0,1,9.58,3.46l1.2,3a14,14,0,0,1,1,5.34l.19,19.23c0,1.41,1.89,4.35,3.3,4.39A3,3,0,0,0,49.2,38c2.85-1.53,6.65.87,7.09-7.33s12.37-6.73,13.14.18c1.39,12.56-6.11,18.68-12.67,24.66L43.65,52Z"/><path class="be39a99e-39a2-4ee3-877f-bf9b7da37f16" d="M57.33,57.81,43.39,54.13l-20.17.36-.39-.16c-2.21-.88-21.55-8.88-22.77-18a7.31,7.31,0,0,1,0-1.87,7.85,7.85,0,0,1,3.49-5.57,8.59,8.59,0,0,1,7.08-1.08,34.25,34.25,0,0,1,12.64,6.65,5,5,0,0,0,.79.59c.68-1.75.57-7.37.5-11.19A96.13,96.13,0,0,1,24.87,11c.7-5.68,3.49-8.43,5.71-9.73A8.54,8.54,0,0,1,37.79.47,9,9,0,0,1,43.2,5.75l1.2,3a16.47,16.47,0,0,1,1.15,6.13l.18,19.2a5,5,0,0,0,1.46,2.31h.43c.09-.05.27-.16.58-.32a9.4,9.4,0,0,1,3.09-.89c1.83-.28,2.66-.41,2.89-4.7A7.7,7.7,0,0,1,62,22.93c4.26-.14,9,2.7,9.57,7.65,1.45,13-5.92,19.71-12.41,25.6ZM43.9,49.89l12.29,3.25.09-.09c6.3-5.72,12.26-11.12,11-22-.28-2.52-3-4-5.25-3.89a3.48,3.48,0,0,0-3.68,3.6C58,37.87,55,38.92,51.93,39.39a5.4,5.4,0,0,0-1.73.43,4.94,4.94,0,0,1-3.34.81c-3-.08-5.37-4.36-5.35-6.51l-.19-19.2a12.21,12.21,0,0,0-.85-4.58l-1.2-3a4.83,4.83,0,0,0-2.86-2.84,4.43,4.43,0,0,0-3.69.42c-2,1.2-3.26,3.42-3.65,6.61a93.35,93.35,0,0,0-.28,12.24c.16,8.32.26,13.82-2.94,15.33-1.56.74-3.35.25-5.33-1.43a29.81,29.81,0,0,0-11-5.8,4.4,4.4,0,0,0-3.59.54,3.48,3.48,0,0,0-1.63,3.36c.67,5,12.3,11.47,19.75,14.51Z"/><path class="a0c70c03-4431-4327-81c1-f01ac743da33" d="M60.92,71.9c0,13.65-9.89,70.86-22.09,70.86S16.74,85.55,16.74,71.9s9.89-24.72,22.09-24.72S60.92,58.25,60.92,71.9Z"/><path class="be39a99e-39a2-4ee3-877f-bf9b7da37f16" d="M38.83,145C23.59,145,14.52,83,14.52,71.9,14.52,57.05,25.43,45,38.83,45S63.14,57.05,63.14,71.9C63.14,83,54.07,145,38.83,145Zm0-95.58C27.88,49.4,19,59.49,19,71.9c0,16.26,10.8,68.64,19.87,68.64S58.7,88.16,58.7,71.9C58.7,59.49,49.79,49.4,38.83,49.4Z"/><path class="a0c70c03-4431-4327-81c1-f01ac743da33" d="M17.89,84.63a50.45,50.45,0,0,1,17.16-1"/><path class="be39a99e-39a2-4ee3-877f-bf9b7da37f16" d="M17.89,86.85a2.22,2.22,0,0,1-.61-4.36,52.94,52.94,0,0,1,18-1.07,2.21,2.21,0,0,1,2,2.42,2.25,2.25,0,0,1-2.43,2,49,49,0,0,0-16.34.93A2.47,2.47,0,0,1,17.89,86.85Z"/><path class="a0c70c03-4431-4327-81c1-f01ac743da33" d="M42.87,69.94a50.53,50.53,0,0,1,16.89,3.21"/><path class="be39a99e-39a2-4ee3-877f-bf9b7da37f16" d="M59.76,75.37a2.19,2.19,0,0,1-.75-.13,48.61,48.61,0,0,0-16.07-3.08,2.22,2.22,0,0,1-.14-4.44,52.52,52.52,0,0,1,17.71,3.34,2.22,2.22,0,0,1-.75,4.31Z"/><path class="a0c70c03-4431-4327-81c1-f01ac743da33" d="M41,90.06A50.53,50.53,0,0,1,57.9,93.27"/><path class="be39a99e-39a2-4ee3-877f-bf9b7da37f16" d="M57.9,95.49a2.14,2.14,0,0,1-.74-.13,49.09,49.09,0,0,0-16.08-3.08,2.22,2.22,0,0,1-.14-4.44,52.79,52.79,0,0,1,17.71,3.34,2.22,2.22,0,0,1-.75,4.31Z"/><path class="a0c70c03-4431-4327-81c1-f01ac743da33" d="M22.65,103.83a50.49,50.49,0,0,1,17.16-1"/><path class="be39a99e-39a2-4ee3-877f-bf9b7da37f16" d="M22.65,106.05a2.22,2.22,0,0,1-.61-4.36,53,53,0,0,1,18-1.07A2.22,2.22,0,0,1,39.6,105a48.58,48.58,0,0,0-16.34.93A2.62,2.62,0,0,1,22.65,106.05Z"/><path class="afb68da6-8b71-49ab-8312-c44c42d13a6d" d="M27.43,67.78a15.2,15.2,0,0,1,9-10.73c2.43-1,.33-4.61-2.08-3.56a19,19,0,0,0-10.9,13.19c-.59,2.59,3.39,3.7,4,1.1Z"/><path class="b8d8548e-d203-48d0-ac70-aa22342f34a4" d="M31.42,12.33q-.41,10,0,20c.1,2.65,4.23,2.66,4.13,0q-.4-10,0-20c.11-2.65-4-2.65-4.13,0Z"/><path class="b8d8548e-d203-48d0-ac70-aa22342f34a4" d="M61.53,31.47a36,36,0,0,1-6.69,14.74c-1.61,2.11,2,4.17,3.56,2.08a38.45,38.45,0,0,0,7.11-15.72c.52-2.6-3.45-3.7-4-1.1Z"/><path class="b8d8548e-d203-48d0-ac70-aa22342f34a4" d="M7.59,37.58a91.52,91.52,0,0,0,14.86,10c2.34,1.26,4.43-2.31,2.08-3.56a86.39,86.39,0,0,1-14-9.31c-2-1.67-5,1.24-2.92,2.92Z"/></g></g></svg>