<svg xmlns="http://www.w3.org/2000/svg" viewBox="0 0 79.82 148.32"><defs><style>.a3dab9a7-37d3-4442-82b8-e91b1099c176{fill:#8db63f;}.a642914e-bf9b-4517-8b29-9fb95ea6ae56{fill:#40220f;}.f99c033f-be07-48a4-9afa-e64ce110865d{fill:#5e97c9;}.f4daf166-f374-460f-b62c-32c1ffff3f74{fill:#545d84;}.e960430c-c39c-48a0-bf16-0ce4cf3e7706{fill:#315520;}</style></defs><title>藍1</title><g id="a2b171ee-73b1-4c7c-a97a-ddb4fc8b7534" data-name="圖層 2"><g id="e44725f7-07d8-474b-91c4-9d02303a7cb7" data-name="圖層 1"><path class="a3dab9a7-37d3-4442-82b8-e91b1099c176" d="M26.28,58.28S3.61,49.21,2.4,40.07a5.72,5.72,0,0,1,0-1.49c.51-4.09,4.81-6.55,8.78-5.42a35.39,35.39,0,0,1,13.19,6.93C32.72,47.22,28.43,25.48,30,12.5c.61-5,2.77-7.66,5.21-9.1A7.33,7.33,0,0,1,45.89,7.26l1.34,3.38a15.7,15.7,0,0,1,1.11,5.94L48.55,38c0,1.57,2.11,4.84,3.67,4.89a3.46,3.46,0,0,0,2.54-.63c3.18-1.7,7.4,1,7.9-8.16s13.76-7.49,14.61.2c1.56,14-6.79,20.79-14.1,27.45L48.58,57.89Z"/><path class="a642914e-bf9b-4517-8b29-9fb95ea6ae56" d="M63.81,64.34,48.29,60.25l-22.44.39-.44-.17c-2.45-1-24-9.88-25.34-20.09a8.12,8.12,0,0,1,0-2.09A8.76,8.76,0,0,1,4,32.1a9.53,9.53,0,0,1,7.88-1.2A38,38,0,0,1,25.9,38.3a5.7,5.7,0,0,0,.88.65c.76-1.94.64-8.19.56-12.45a107.6,107.6,0,0,1,.34-14.29C28.46,5.89,31.56,2.83,34,1.38a9.51,9.51,0,0,1,8-.86,10.06,10.06,0,0,1,6,5.87l1.34,3.38a18.12,18.12,0,0,1,1.27,6.83L50.9,38a5.44,5.44,0,0,0,1.62,2.56,2.54,2.54,0,0,0,.48,0c.1,0,.3-.17.65-.35a10.2,10.2,0,0,1,3.44-1c2-.31,3-.45,3.22-5.23A8.56,8.56,0,0,1,69,25.52c4.73-.11,10,3,10.65,8.51C81.23,48.54,73,56,65.8,62.54ZM48.87,55.53l13.67,3.61.1-.09c7-6.36,13.64-12.37,12.3-24.5-.32-2.8-3.2-4.42-5.85-4.33a3.86,3.86,0,0,0-4.08,4c-.44,7.93-3.8,9.1-7.2,9.62a6.23,6.23,0,0,0-1.94.49,5.62,5.62,0,0,1-3.72.9c-3.28-.1-6-4.86-5.95-7.26L46,16.61a13.56,13.56,0,0,0-1-5.11L43.71,8.12A5.37,5.37,0,0,0,40.53,5a4.87,4.87,0,0,0-4.11.46c-2.27,1.33-3.63,3.81-4.07,7.35A105.75,105.75,0,0,0,32,26.42c.18,9.26.29,15.37-3.27,17.06-1.73.82-3.73.28-5.93-1.6a33.34,33.34,0,0,0-12.3-6.46,4.91,4.91,0,0,0-4,.61,4,4,0,0,0-1.82,2.85,3.7,3.7,0,0,0,0,.88c.74,5.56,13.69,12.77,22,16.16Z"/><path class="f99c033f-be07-48a4-9afa-e64ce110865d" d="M67.8,80c0,15.2-11,65.82-24.58,65.82S18.64,95.23,18.64,80s11-27.52,24.58-27.52S67.8,64.83,67.8,80Z"/><path class="a642914e-bf9b-4517-8b29-9fb95ea6ae56" d="M43.22,148.32C26.64,148.32,16.16,93.7,16.16,80c0-16.54,12.14-30,27.06-30S70.27,63.49,70.27,80C70.27,93.7,59.8,148.32,43.22,148.32Zm0-93.34C31,55,21.11,66.22,21.11,80c0,17.89,12,63.35,22.11,63.35S65.33,97.92,65.33,80C65.33,66.22,55.41,55,43.22,55Z"/><path class="f99c033f-be07-48a4-9afa-e64ce110865d" d="M19.91,94.2A56.16,56.16,0,0,1,39,93.08"/><path class="a642914e-bf9b-4517-8b29-9fb95ea6ae56" d="M19.91,96.67a2.47,2.47,0,0,1-.68-4.85,58.34,58.34,0,0,1,20-1.2,2.47,2.47,0,0,1-.48,4.92,54.28,54.28,0,0,0-18.19,1A2.22,2.22,0,0,1,19.91,96.67Z"/><path class="f99c033f-be07-48a4-9afa-e64ce110865d" d="M47.72,77.85a56.17,56.17,0,0,1,18.8,3.57"/><path class="a642914e-bf9b-4517-8b29-9fb95ea6ae56" d="M66.52,83.89a2.39,2.39,0,0,1-.83-.15,54.3,54.3,0,0,0-17.9-3.42,2.47,2.47,0,0,1-.15-4.94,58.35,58.35,0,0,1,19.71,3.71,2.47,2.47,0,0,1-.83,4.8Z"/><path class="f99c033f-be07-48a4-9afa-e64ce110865d" d="M45.65,100.24a56.48,56.48,0,0,1,18.8,3.57"/><path class="a642914e-bf9b-4517-8b29-9fb95ea6ae56" d="M64.45,106.29a2.39,2.39,0,0,1-.83-.15,54.83,54.83,0,0,0-17.9-3.43,2.44,2.44,0,0,1-2.54-2.4,2.47,2.47,0,0,1,2.39-2.54,58.76,58.76,0,0,1,19.71,3.72,2.47,2.47,0,0,1-.83,4.8Z"/><path class="f99c033f-be07-48a4-9afa-e64ce110865d" d="M25.21,115.57a56.47,56.47,0,0,1,19.1-1.12"/><path class="a642914e-bf9b-4517-8b29-9fb95ea6ae56" d="M25.21,118a2.47,2.47,0,0,1-.68-4.85,58.38,58.38,0,0,1,20-1.2,2.47,2.47,0,0,1-.49,4.92,54.43,54.43,0,0,0-18.19,1A2.57,2.57,0,0,1,25.21,118Z"/><path class="f4daf166-f374-460f-b62c-32c1ffff3f74" d="M31.68,73.81c1.13-4.66,4.35-7.28,8.67-9,2.45-1,1.39-5-1.1-4C33.6,63.06,29.18,66.58,27.7,72.72c-.63,2.58,3.35,3.68,4,1.09Z"/><path class="e960430c-c39c-48a0-bf16-0ce4cf3e7706" d="M36.88,11.79c2.3,2.05,1.86,6.34,2.06,9.15s.3,5.83.33,8.75c0,2.65,4.16,2.66,4.13,0,0-4.38-.25-8.76-.72-13.12-.3-2.89-.6-5.67-2.88-7.7-2-1.76-4.91,1.15-2.92,2.92Z"/><path class="e960430c-c39c-48a0-bf16-0ce4cf3e7706" d="M69,35.32a17.22,17.22,0,0,1-5,15c-1.89,1.88,1,4.8,2.92,2.92a21.58,21.58,0,0,0,6.11-19c-.4-2.62-4.38-1.51-4,1.09Z"/><path class="e960430c-c39c-48a0-bf16-0ce4cf3e7706" d="M7,40.41c2.66,4.18,7.14,6.22,11.28,8.65,2.3,1.35,4.38-2.22,2.09-3.56-3.42-2-7.61-3.73-9.8-7.18-1.42-2.23-5-.16-3.57,2.09Z"/></g></g></svg>