<svg xmlns="http://www.w3.org/2000/svg" viewBox="0 0 169.91 46.06"><defs><style>.f41e92ee-1dbd-4bcf-9a89-a62a5613dfa4{fill:#40220f;}.b7c44ad5-fa01-4fa7-986f-f1b5e1a5e425{fill:#5a3718;}.ad5cab92-eca8-4cd7-aac1-903f400d7a0d{fill:#b57c4d;}</style></defs><title>土11</title><g id="ad5c2f36-3eac-4ead-be39-29b0097dc89b" data-name="圖層 2"><g id="a3d16848-b505-4a44-824b-e6c97b275813" data-name="圖層 1"><path class="f41e92ee-1dbd-4bcf-9a89-a62a5613dfa4" d="M1.55,26.16A12.87,12.87,0,0,1,3.19,21.8c4-6.63,17.06-24.73,31.58-6.09,3.32,4.26,7.25,3.72,10.48-1C53.6,2.67,71.34-13,94.49,22.46A12.59,12.59,0,0,1,96,25.79l.8,2.64a13.17,13.17,0,0,1-12.61,17H13.82A13.16,13.16,0,0,1,.87,29.85Z"/><path class="f41e92ee-1dbd-4bcf-9a89-a62a5613dfa4" d="M84.21,46.06H13.82A13.82,13.82,0,0,1,.23,29.73L.91,26a13.73,13.73,0,0,1,1.73-4.57C5.17,17.26,12,7.42,20.74,6.9c5.08-.31,10,2.52,14.54,8.41C36.65,17.07,38.1,18,39.59,18h.11c1.71-.05,3.44-1.29,5-3.58C49.27,7.81,56.7,0,66.37,0h.24C76,.12,85.54,7.56,95,22.1a13.8,13.8,0,0,1,1.61,3.5l.8,2.64A13.82,13.82,0,0,1,84.21,46.06Zm-82-19.78L1.5,30a12.53,12.53,0,0,0,12.32,14.8H84.21a12.52,12.52,0,0,0,12-16.15L95.4,26A12,12,0,0,0,94,22.81C84.71,8.65,75.51,1.41,66.59,1.29h-.22c-9.11,0-16.22,7.5-20.58,13.83-1.83,2.64-3.92,4.07-6,4.13-2,0-3.83-1-5.48-3.15C30,10.57,25.44,7.91,20.81,8.19,12.69,8.67,6.17,18.1,3.74,22.13a12.54,12.54,0,0,0-1.56,4.15Z"/><path class="b7c44ad5-fa01-4fa7-986f-f1b5e1a5e425" d="M66.31,21.4c4.81-2.25,11,.86,12.52,5.8s9.52,2.91,8-2.19A17.87,17.87,0,0,0,62.14,14.27c-4.81,2.25-.62,9.37,4.17,7.13Z"/><path class="ad5cab92-eca8-4cd7-aac1-903f400d7a0d" d="M86.68,40.37c5.67-4.14,11.57-8.62,18.34-10.83,7.19-2.36,13.73-.71,21,.13a33.78,33.78,0,0,0,16.7-2.1c8-2.89,14.46-1.28,22.23,1.64,5,1.87,7.13-6.11,2.19-8-6.61-2.49-13.43-4.79-20.58-3.51-3.35.59-6.24,2.26-9.49,3.17-5.26,1.48-10.23.54-15.54-.2-15.48-2.18-26.66,3.54-39,12.53-4.25,3.1-.14,10.27,4.16,7.13Z"/></g></g></svg>