<svg xmlns="http://www.w3.org/2000/svg" viewBox="0 0 103.52 48.96"><defs><style>.a0212059-ff42-4278-a56d-886e4a0ca8e3{fill:#40220f;}.bba7a682-f12e-4917-b444-8823db201dc3{fill:#5a3718;}</style></defs><title>土12</title><g id="e915b109-377d-4df1-8d3d-9deeafc41a36" data-name="圖層 2"><g id="b671ca01-7e85-4b46-b4d3-968a52d1b828" data-name="圖層 1"><path class="a0212059-ff42-4278-a56d-886e4a0ca8e3" d="M1.35,28a15.2,15.2,0,0,1,2-5.25C7.87,15.46,21.54-2.77,36.7,16.7c3.53,4.52,7.72,3.95,11.15-1,8.86-12.83,27.68-29.48,52.23,8a14.87,14.87,0,0,1,1.78,3.86l.31,1a15.26,15.26,0,0,1-14.6,19.67H16a15.26,15.26,0,0,1-15-18Z"/><path class="a0212059-ff42-4278-a56d-886e4a0ca8e3" d="M87.57,49H16A15.94,15.94,0,0,1,.27,30.12l.41-2.21a15.86,15.86,0,0,1,2.1-5.48C6.12,17,13,7.82,21.84,7.33,27.17,7,32.39,10,37.24,16.27c1.49,1.92,3.08,2.88,4.71,2.82,1.81-.06,3.66-1.37,5.33-3.8C52.11,8.3,60,0,70.3,0h.23c9.94.13,20.07,8,30.13,23.35a15.62,15.62,0,0,1,1.86,4l.31,1A15.94,15.94,0,0,1,87.57,49Zm-65-40.28-.64,0C13.42,9.17,6.52,19,4,23.15a14.73,14.73,0,0,0-1.93,5l-.4,2.21A14.57,14.57,0,0,0,16,47.59H87.57A14.57,14.57,0,0,0,101.51,28.8l-.3-1a14.4,14.4,0,0,0-1.7-3.68C89.72,9.14,80,1.49,70.52,1.37c-9.84-.08-17.43,7.93-22.11,14.7-1.93,2.81-4.16,4.32-6.42,4.39s-4.08-1.1-5.83-3.34C31.8,11.52,27.23,8.68,22.56,8.68Z"/><path class="bba7a682-f12e-4917-b444-8823db201dc3" d="M21.21,31a10.22,10.22,0,0,1,9.87-6.66c5.32.08,5.32-8.18,0-8.25A18.68,18.68,0,0,0,13.24,28.79c-1.76,5,6.22,7.19,8,2.2Z"/></g></g></svg>