<svg xmlns="http://www.w3.org/2000/svg" viewBox="0 0 164.44 53.96"><defs><style>.ba069f65-b57f-40ee-82fe-f7bc935c6221{fill:#40220f;}.ac2a790e-2330-48c7-9bc3-915c6a4c2b17{fill:#6e4726;}.f9a8164f-f792-40c5-980a-69df778d8a09{fill:#97663e;}</style></defs><title>土9</title><g id="b13d51a5-6842-44aa-84f7-76d93262a6ce" data-name="圖層 2"><g id="e0eed4e2-6afa-4604-bab1-dfe27f0c4115" data-name="圖層 1"><path class="ba069f65-b57f-40ee-82fe-f7bc935c6221" d="M1.89,30.59a15.14,15.14,0,0,1,1.88-5c4.64-7.72,20-29.07,37-7.19,3.88,5,8.5,4.36,12.28-1.12,9.78-14.16,30.57-32.55,57.7,9.07a14.82,14.82,0,0,1,1.76,3.81l1.08,3.58A15.1,15.1,0,0,1,99.17,53.2H15.85A15.09,15.09,0,0,1,1,35.37Z"/><path class="ba069f65-b57f-40ee-82fe-f7bc935c6221" d="M99.17,54H15.85A15.86,15.86,0,0,1,.27,35.23l.88-4.78a15.65,15.65,0,0,1,2-5.25c3-4.94,11-16.5,21.23-17.12,5.95-.37,11.67,3,17,9.85C43,20,44.81,21.09,46.57,21c2-.06,4-1.51,5.89-4.19C57.78,9.14,66.48,0,77.82,0h.28c11,.15,22.19,8.87,33.31,25.93a15.77,15.77,0,0,1,1.85,4l1.08,3.58A15.85,15.85,0,0,1,99.17,54Zm-74-44.39c-.26,0-.51,0-.77,0-9.53.58-17.17,11.65-20,16.39a14.39,14.39,0,0,0-1.79,4.74L1.75,35.5a14.33,14.33,0,0,0,14.1,16.94H99.17A14.33,14.33,0,0,0,112.89,34l-1.08-3.58a13.89,13.89,0,0,0-1.66-3.62C99.32,10.15,88.53,1.65,78.08,1.51h-.26c-10.68,0-19,8.79-24.12,16.2-2.13,3.09-4.58,4.77-7.08,4.84-2.29.07-4.49-1.21-6.42-3.69C35.39,12.69,30.35,9.57,25.21,9.57Z"/><path class="ac2a790e-2330-48c7-9bc3-915c6a4c2b17" d="M78.67,19a12.64,12.64,0,0,1,10.22,4.46c3.54,4,9.36-1.87,5.84-5.84a20.68,20.68,0,0,0-16.06-6.87c-5.3.15-5.32,8.41,0,8.25Z"/><path class="f9a8164f-f792-40c5-980a-69df778d8a09" d="M112,45c7,1.67,12.14-1.83,18.75-3.4a40.66,40.66,0,0,1,27.44,3.33c4.76,2.33,9-4.79,4.17-7.13A50.6,50.6,0,0,0,140,32.27a49.43,49.43,0,0,0-10.22,1.1c-4.72,1-10.81,4.84-15.64,3.67-5.17-1.24-7.37,6.72-2.2,8Z"/></g></g></svg>