<svg xmlns="http://www.w3.org/2000/svg" viewBox="0 0 119.75 54.91"><defs><style>.f5a3ac1b-1c1c-4f68-bc4d-17cc59d2ba1f{fill:#40220f;}.b4c903e1-7174-4b10-bca8-0b7eb848a640{fill:#b57c4d;}.e6a7dcfb-671b-4fb7-a0d7-7cb655b15d3b{fill:#6e4726;}</style></defs><title>土8</title><g id="ab2d4d63-786f-4fdb-9332-3678320b54f7" data-name="圖層 2"><g id="b468fe86-9cb2-400f-a208-71cefefa54e6" data-name="圖層 1"><path class="f5a3ac1b-1c1c-4f68-bc4d-17cc59d2ba1f" d="M17,27.7a13.3,13.3,0,0,1,1.67-4.43c4.18-7,18.12-26.48,33.62-6.57,3.53,4.52,7.72,3.95,11.15-1,8.87-12.85,27.75-29.54,52.38,8.26a13.2,13.2,0,0,1,1.56,3.39L118.48,31a13.4,13.4,0,0,1-12.83,17.27H29.29A13.39,13.39,0,0,1,16.12,32.44Z"/><path class="f5a3ac1b-1c1c-4f68-bc4d-17cc59d2ba1f" d="M105.65,49H29.29A14.1,14.1,0,0,1,15.44,32.32l.88-4.75a13.92,13.92,0,0,1,1.75-4.65c2.7-4.5,10-15,19.28-15.59C42.74,7,48,10,52.82,16.27c1.5,1.92,3.12,2.92,4.71,2.82,1.81-.06,3.66-1.37,5.33-3.8C67.74,8.24,75.66-.18,86.14,0c10,.14,20.15,8.07,30.24,23.57A13.77,13.77,0,0,1,118,27.13l1.11,3.67A14.08,14.08,0,0,1,105.65,49Zm-88-21.14-.88,4.75a12.71,12.71,0,0,0,12.5,15h76.36A12.71,12.71,0,0,0,117.82,31.2l-1.11-3.67a12.23,12.23,0,0,0-1.48-3.21C105.4,9.22,95.61,1.5,86.12,1.37,76.23,1.24,68.67,9.29,64,16.07c-1.93,2.81-4.16,4.32-6.42,4.39-2.1.07-4.08-1.1-5.83-3.34-4.58-5.89-9.36-8.71-14.3-8.42-8.67.53-15.61,10.61-18.19,14.92a12.49,12.49,0,0,0-1.58,4.2Z"/><path class="b4c903e1-7174-4b10-bca8-0b7eb848a640" d="M6.15,48.26a25.79,25.79,0,0,1,22.2-2.37C34,48,37.85,53.8,43.79,54.78c6.22,1,11.35-4.52,17.15-6a30.33,30.33,0,0,1,23.24,3.8c4.58,2.73,8.73-4.4,4.17-7.13a39,39,0,0,0-21.09-5.79,38.53,38.53,0,0,0-10.91,1.86c-5,1.64-9,5.48-14.12,3.31-3.14-1.32-5.71-4.38-9-5.84A33.16,33.16,0,0,0,23,36.32,34,34,0,0,0,2,41.13c-4.58,2.7-.43,9.84,4.16,7.13Z"/><path class="e6a7dcfb-671b-4fb7-a0d7-7cb655b15d3b" d="M88.63,19.76a9.64,9.64,0,0,1,8.27,5.89c.95,2,3.85,2.54,5.65,1.49A4.22,4.22,0,0,0,104,21.49a17.82,17.82,0,0,0-15.4-10c-5.31-.26-5.29,8,0,8.26Z"/></g></g></svg>