<svg xmlns="http://www.w3.org/2000/svg" viewBox="0 0 137.6 72.22"><defs><style>.b6a2b0de-203f-4873-b76c-ebd01e12ef53{fill:#40220f;}.a5581b89-b843-4f09-bae9-3550688f5c0f{fill:#a57145;}.e2006fc7-9a7d-4083-9201-3f03ef3d6e22{fill:#6e4726;}</style></defs><title>土2</title><g id="a4fecc63-3a25-4beb-ab6f-6990aeaeddd4" data-name="圖層 2"><g id="ab98d67e-f6b1-4b68-8407-391b09ee60ca" data-name="圖層 1"><path class="b6a2b0de-203f-4873-b76c-ebd01e12ef53" d="M16.13,31.34a9.79,9.79,0,0,1,1.14-3.14c3.91-6.87,20.86-33.07,39.81-8.74,4.11,5.28,9,4.61,13-1.18,10.4-15,32.56-34.62,61.46,10.26a10.21,10.21,0,0,1,1.18,2.58l3.64,12a10.16,10.16,0,0,1-9.72,13.1H23.73a10.16,10.16,0,0,1-10-12Z"/><path class="b6a2b0de-203f-4873-b76c-ebd01e12ef53" d="M126.63,57.06H23.74A11,11,0,0,1,13,44.11l2.38-12.92a10.76,10.76,0,0,1,1.23-3.39C19.71,22.29,28.24,9.37,39.51,8.56,45.84,8.1,52,11.6,57.71,19c1.74,2.23,3.65,3.33,5.48,3.28,2.12-.06,4.27-1.59,6.23-4.43C75.1,9.59,84.39-.26,96.59,0c11.75.18,23.73,9.64,35.61,28.1a11,11,0,0,1,1.28,2.78l3.64,12a11,11,0,0,1-10.49,14.13ZM16.91,31.49,14.53,44.4a9.36,9.36,0,0,0,9.21,11.06H126.63a9.37,9.37,0,0,0,9-12.07l-3.64-12A9.9,9.9,0,0,0,130.86,29C119.28,11,107.74,1.79,96.57,1.6h-.34c-11.29,0-20.09,9.29-25.5,17.13-2.26,3.27-4.85,5-7.49,5.12h-.18c-2.34,0-4.62-1.35-6.61-3.9C51.06,13,45.4,9.73,39.63,10.15,28.82,10.93,20.31,24.46,18,28.59a9.58,9.58,0,0,0-1.05,2.9Z"/><path class="a5581b89-b843-4f09-bae9-3550688f5c0f" d="M6.14,67.55a62.22,62.22,0,0,1,69.51,3.86c4.24,3.2,8.36-4,4.17-7.13C57.34,47.34,26,46,2,60.42c-4.55,2.73-.4,9.87,4.17,7.13Z"/><path class="e2006fc7-9a7d-4083-9201-3f03ef3d6e22" d="M97.6,22.52a9.89,9.89,0,0,1,12.47,6.54c1.46,5.1,9.43,2.93,8-2.19A18.23,18.23,0,0,0,95.4,14.56c-5.05,1.59-2.89,9.57,2.2,8Z"/></g></g></svg>