<svg xmlns="http://www.w3.org/2000/svg" viewBox="0 0 165.09 64.8"><defs><style>.a64d8c6a-6700-4827-b629-f2ea987a5467{fill:#40220f;}.e171872b-27bd-4ac8-8534-46cd2e59472b{fill:#6e4726;}.e6954d4e-029f-4604-bedd-b087fc322df9{fill:#a57145;}</style></defs><title>土5</title><g id="ed452970-5eb8-4369-a2ff-69c5db04c578" data-name="圖層 2"><g id="a15c38a5-d8b6-4833-b532-7e05359ee205" data-name="圖層 1"><path class="a64d8c6a-6700-4827-b629-f2ea987a5467" d="M3.55,29.53a8,8,0,0,1,.9-2.5c3.46-6.14,19.75-31.94,38-8.54,3.91,5,8.55,4.39,12.35-1.12,9.89-14.32,31-33,58.53,9.94a8.36,8.36,0,0,1,1,2.06L118.39,43a8.11,8.11,0,0,1-7.76,10.45H8.86a8.1,8.1,0,0,1-8-9.58Z"/><path class="a64d8c6a-6700-4827-b629-f2ea987a5467" d="M110.63,54.24H8.86A8.87,8.87,0,0,1,.15,43.77L2.8,29.4a8.82,8.82,0,0,1,1-2.74C6.12,22.53,14.57,9,25.69,8.14,31.71,7.69,37.56,11,43,18c1.65,2.12,3.4,3.15,5.21,3.11,2-.05,4-1.51,5.91-4.2C59.56,9.1,68.48-.22,80,0,91.2.19,102.62,9.24,114,26.9a9,9,0,0,1,1,2.25l4.13,13.66a8.87,8.87,0,0,1-8.49,11.43ZM4.3,29.67,1.65,44a7.33,7.33,0,0,0,7.21,8.67H110.63a7.33,7.33,0,0,0,7-9.46l-4.13-13.66a7.23,7.23,0,0,0-.86-1.87c-11-17.2-22-26-32.69-26.2h-.33c-10.74,0-19.1,8.83-24.25,16.28-2.14,3.11-4.6,4.79-7.12,4.86s-4.51-1.21-6.45-3.7c-5.13-6.59-10.5-9.72-16-9.31C15.44,10.43,7.35,23.44,5.12,27.41a7,7,0,0,0-.82,2.26Z"/><path class="e171872b-27bd-4ac8-8534-46cd2e59472b" d="M82.67,22.72c2.88-1.86,7.76-1.13,9.17,2.4.83,2.08,2.75,3.5,5.08,2.88,2-.52,3.71-3,2.88-5.08-3.3-8.24-13.52-12.34-21.3-7.33-4.45,2.86-.32,10,4.17,7.13Z"/><path class="e6954d4e-029f-4604-bedd-b087fc322df9" d="M67.86,64a51,51,0,0,1,22.63-9.84c8.68-1.37,16.42,1.43,24.94,1.33,7.54-.1,11.72-5.34,18.55-7.34,9.1-2.67,18.37,3.57,25.22,8.85,4.2,3.24,8.32-3.93,4.17-7.13-6.68-5.15-14.49-9.86-23.12-10.47a24,24,0,0,0-10.86,1.66c-4.59,1.87-8.08,5.53-13.17,6-4.74.45-9.61-1.22-14.36-1.6a54.06,54.06,0,0,0-13,.58A57.33,57.33,0,0,0,63.69,56.87C59.48,60,63.59,67.18,67.86,64Z"/></g></g></svg>