<svg xmlns="http://www.w3.org/2000/svg" viewBox="0 0 132.57 64.22"><defs><style>.a3568eec-e990-4067-bb49-dc45b83e9357{fill:#40220f;}.f081f47c-11bb-4f0d-8b51-25be76b17f74{fill:#5a3718;}.ae5c01ed-a303-4a7a-b9b5-068f689181c8{fill:#a57145;}</style></defs><title>土1</title><g id="a93a538a-007e-4b66-8c24-7b391949603f" data-name="圖層 2"><g id="bd60a787-aff8-45ea-bdd4-f3a1056c301f" data-name="圖層 1"><path class="a3568eec-e990-4067-bb49-dc45b83e9357" d="M1.89,30.58a15.17,15.17,0,0,1,1.88-5c4.64-7.73,20-29.07,37-7.19,3.88,5,8.5,4.36,12.28-1.12,9.78-14.16,30.58-32.55,57.7,9.07a14.82,14.82,0,0,1,1.76,3.81l1.08,3.58A15.09,15.09,0,0,1,99.17,53.2H15.85A15.1,15.1,0,0,1,1,35.36Z"/><path class="a3568eec-e990-4067-bb49-dc45b83e9357" d="M99.17,54H15.85A15.86,15.86,0,0,1,.27,35.23l.88-4.78a15.65,15.65,0,0,1,2-5.25c3-4.94,11-16.5,21.23-17.12C30.29,7.7,36,11,41.39,17.93,43,20,44.71,21.06,46.57,21s4-1.5,5.89-4.18C57.83,9.08,66.63-.14,78.1,0c11,.15,22.19,8.87,33.31,25.93a15.62,15.62,0,0,1,1.85,4l1.08,3.58A15.85,15.85,0,0,1,99.17,54ZM2.63,30.72,1.75,35.5a14.33,14.33,0,0,0,14.1,16.94H99.17A14.33,14.33,0,0,0,112.89,34l-1.08-3.58a14.07,14.07,0,0,0-1.66-3.62C99.32,10.15,88.53,1.65,78.08,1.51h-.26c-10.68,0-19,8.79-24.12,16.2-2.13,3.09-4.58,4.76-7.08,4.84-2.25.06-4.49-1.21-6.42-3.69-5.05-6.48-10.38-9.6-15.76-9.27-9.53.58-17.17,11.65-20,16.39a14.39,14.39,0,0,0-1.79,4.74Z"/><path class="f081f47c-11bb-4f0d-8b51-25be76b17f74" d="M81.46,21.17c4.62-4.47,16.34,12.38,18,15.1,2.76,4.53,9.9.39,7.13-4.17-5.07-8.36-20-27.39-31-16.76-3.83,3.7,2,9.53,5.84,5.83Z"/><path class="ae5c01ed-a303-4a7a-b9b5-068f689181c8" d="M85.25,63.24a36.87,36.87,0,0,1,41.12-3.3c4.65,2.59,8.82-4.54,4.17-7.13A45.46,45.46,0,0,0,79.41,57.4c-4.14,3.33,1.74,9.14,5.84,5.84Z"/></g></g></svg>