<svg xmlns="http://www.w3.org/2000/svg" viewBox="0 0 130.5 64.99"><defs><style>.b384b77d-d94c-4cc3-b9c4-80bdda80f162{fill:#40220f;}.b3700f55-b204-4ee9-86ed-89ce1890c26d{fill:#b57c4d;}.b7c2fb0d-f359-4c3a-b733-c46154c517aa{fill:#6e4726;}.a412bf24-40f3-4584-ab8b-cadb26a1e595{fill:#5a3718;}</style></defs><title>土4</title><g id="a017210f-a4f8-4abc-933d-221d56acd338" data-name="圖層 2"><g id="b1542b7e-807f-44b5-8488-d6b2f93762da" data-name="圖層 1"><path class="b384b77d-d94c-4cc3-b9c4-80bdda80f162" d="M3.33,29a8.46,8.46,0,0,1,1-2.63c3.48-6.16,19.33-31,37.06-8.26C45.15,23,49.69,22.35,53.4,17c9.66-14,30.28-32.18,57.15,9.64a8.69,8.69,0,0,1,1,2.17l3.78,12.48a8.53,8.53,0,0,1-8.16,11H9.27A8.52,8.52,0,0,1,.89,42.18Z"/><path class="b384b77d-d94c-4cc3-b9c4-80bdda80f162" d="M107.16,53H9.27A9.27,9.27,0,0,1,.16,42L2.6,28.82a9.15,9.15,0,0,1,1-2.86C5.91,21.94,14.17,8.75,25,8c5.86-.42,11.59,2.81,16.92,9.66,1.62,2.07,3.25,3.14,5.09,3.05s4-1.48,5.78-4.11C58.07,8.9,66.78-.21,78,0,89,.19,100.12,9,111.17,26.21a9.33,9.33,0,0,1,1.09,2.35L116,41a9.26,9.26,0,0,1-8.87,12ZM26,9.4c-.31,0-.61,0-.92,0-10.1.74-18,13.4-20.18,17.26a7.76,7.76,0,0,0-.87,2.4L1.62,42.31a7.79,7.79,0,0,0,7.65,9.2h97.89a7.79,7.79,0,0,0,7.45-10L110.83,29a7.84,7.84,0,0,0-.9-2C99.15,10.25,88.42,1.66,78,1.49H77.7C67.21,1.49,59,10.11,54,17.39c-2.09,3-4.5,4.68-7,4.76h-.16c-2.17,0-4.29-1.25-6.14-3.62C36,12.46,31.08,9.4,26,9.4Z"/><path class="b3700f55-b204-4ee9-86ed-89ce1890c26d" d="M77.84,64.62C85,61.57,91.35,56.59,98.7,54c8.59-3.08,17.6-2,25.56,2.26,4.7,2.48,8.88-4.64,4.17-7.13-8.27-4.37-17.4-6.26-26.7-4.48-10.32,2-18.56,8.86-28.06,12.89-4.87,2.07-.67,9.18,4.17,7.13Z"/><path class="b7c2fb0d-f359-4c3a-b733-c46154c517aa" d="M76.69,19.36c4.67-1.81,10-.63,12.85,3.7s10.07.28,7.13-4.17c-4.75-7.2-14-10.67-22.18-7.5-4.9,1.9-2.77,9.89,2.2,8Z"/><path class="a412bf24-40f3-4584-ab8b-cadb26a1e595" d="M22.64,19.19A26.4,26.4,0,0,0,11.1,38.54c-.6,5.27,7.67,5.23,8.26,0a17.33,17.33,0,0,1,7.45-12.22c4.36-3,.24-10.14-4.17-7.13Z"/></g></g></svg>