<svg xmlns="http://www.w3.org/2000/svg" viewBox="0 0 151.25 66.03"><defs><style>.e6302149-ca40-4b00-92a7-c91401b7e9f2{fill:#40220f;}.bb421ef4-11f2-402d-8e69-c79f700a1fd5{fill:#5a3718;}.afacf6e7-1a2a-43d7-b2c9-d4dc7300a635{fill:#a57145;}</style></defs><title>土3</title><g id="ae5cfed0-0334-498f-8cf7-491aa373f47d" data-name="圖層 2"><g id="fb74a405-757d-465b-9707-02c00d1b8af2" data-name="圖層 1"><path class="e6302149-ca40-4b00-92a7-c91401b7e9f2" d="M36.15,30.28a11.86,11.86,0,0,1,1.41-3.83c4.17-7.15,20-30.61,37.72-7.9,3.92,5,8.57,4.4,12.38-1.13,9.89-14.31,31-32.93,58.43,9.52a11.81,11.81,0,0,1,1.4,3L150,38.16a12,12,0,0,1-11.5,15.48H46.27A12,12,0,0,1,34.46,39.45Z"/><path class="e6302149-ca40-4b00-92a7-c91401b7e9f2" d="M138.46,54.41H46.27a12.78,12.78,0,0,1-12.56-15.1l1.69-9.17a12.82,12.82,0,0,1,1.5-4.08C39.9,20.91,48,8.86,58.6,8.15c6-.39,11.83,2.94,17.28,9.93,1.66,2.13,3.41,3.15,5.22,3.13,2-.06,4.07-1.52,5.94-4.22C92.4,9.22,101.18,0,112.61,0h.32c11.15.17,22.52,9.09,33.8,26.53a12.85,12.85,0,0,1,1.49,3.23l2.47,8.18a12.77,12.77,0,0,1-12.23,16.47ZM36.9,30.42l-1.69,9.17A11.24,11.24,0,0,0,46.27,52.88h92.19a11.25,11.25,0,0,0,10.77-14.5l-2.47-8.18a11.21,11.21,0,0,0-1.31-2.85c-11-17-21.94-25.66-32.55-25.82C102,1.35,93.5,10.32,88.29,17.86c-2.15,3.12-4.62,4.8-7.14,4.88-2.24.08-4.53-1.22-6.47-3.72-5.12-6.57-10.5-9.73-16-9.35-9.85.67-17.6,12.22-20.48,17.16a11.23,11.23,0,0,0-1.32,3.59Z"/><path class="bb421ef4-11f2-402d-8e69-c79f700a1fd5" d="M111.8,18a29.71,29.71,0,0,1,21.52,17.57c2.13,4.85,9.25.65,7.13-4.17A37.28,37.28,0,0,0,114,10c-5.18-1.08-7.4,6.87-2.19,8Z"/><path class="afacf6e7-1a2a-43d7-b2c9-d4dc7300a635" d="M6.93,64.7c15.1-17,40-18.34,56.52-2.46,3.82,3.69,9.67-2.14,5.83-5.84-19.56-18.85-50.09-18-68.19,2.46-3.52,4,2.3,9.83,5.84,5.84Z"/></g></g></svg>