<svg xmlns="http://www.w3.org/2000/svg" viewBox="0 0 146.37 67.81"><defs><style>.f6f10521-9ece-4c89-b4bc-8afc14086c80{fill:#40220f;}.a5be020e-9893-4a04-ac2b-3e59f7ab4f44{fill:#5a3718;}.e89f1a84-d37f-4f30-91c1-8a748f07b151{fill:#a57145;}</style></defs><title>土7</title><g id="a8864d95-3c60-4111-94d2-c5340da91dc2" data-name="圖層 2"><g id="f751d755-8657-4a97-991b-1d1c9a800191" data-name="圖層 1"><path class="f6f10521-9ece-4c89-b4bc-8afc14086c80" d="M32.45,29.81a11,11,0,0,1,1.32-3.58c4-6.95,19.76-30.44,37.32-7.9,3.87,5,8.47,4.35,12.24-1.11,9.78-14.16,30.61-32.56,57.78,9.47a11.51,11.51,0,0,1,1.31,2.85l2.7,9A11.25,11.25,0,0,1,134.35,53H41.69a11.25,11.25,0,0,1-11.07-13.3Z"/><path class="f6f10521-9ece-4c89-b4bc-8afc14086c80" d="M134.35,53.76H41.69A12,12,0,0,1,29.88,39.57l1.82-9.89a11.79,11.79,0,0,1,1.42-3.83c3-5.11,11-17.08,21.47-17.79,6-.41,11.7,2.89,17.09,9.81C73.32,20,75,21,76.85,21c2-.06,4-1.5,5.86-4.17C88.06,9,96.93-.18,108.3,0c11,.17,22.28,9,33.44,26.28a11.93,11.93,0,0,1,1.4,3l2.71,9a12,12,0,0,1-11.5,15.48ZM55.56,9.53q-.44,0-.87,0c-9.76.67-17.43,12.14-20.27,17A10.1,10.1,0,0,0,33.19,30l-1.83,9.9a10.5,10.5,0,0,0,10.33,12.4h92.66A10.5,10.5,0,0,0,144.4,38.72l-2.7-9a10.25,10.25,0,0,0-1.23-2.66c-10.87-16.82-21.7-25.43-32.2-25.59H108c-10.64,0-18.93,8.75-24,16.14-2.13,3.08-4.57,4.75-7.06,4.82s-4.48-1.21-6.4-3.67C65.7,12.64,60.68,9.53,55.56,9.53Z"/><path class="a5be020e-9893-4a04-ac2b-3e59f7ab4f44" d="M106.24,23.4a15.61,15.61,0,0,1,18.51,9.66c1.75,5,9.73,2.84,8-2.19A24.06,24.06,0,0,0,104,15.43c-5.13,1.35-3,9.32,2.2,8Z"/><path class="e89f1a84-d37f-4f30-91c1-8a748f07b151" d="M5.14,54.76a53.86,53.86,0,0,1,27.13,0c6.1,1.63,11,4.75,17.47,3.21,6.93-1.65,12.28-4.49,19.7-3.4A29.87,29.87,0,0,1,89.05,66.06c3.16,4.19,10.33.08,7.13-4.16C87.42,50.28,73.35,44,58.79,46.51c-4.22.73-8.14,3.14-12.39,3.36-5,.26-9.88-2.74-14.81-3.8a63.59,63.59,0,0,0-28.65.72c-5.15,1.27-3,9.24,2.2,8Z"/></g></g></svg>