<svg xmlns="http://www.w3.org/2000/svg" viewBox="0 0 130.55 64.22"><defs><style>.eb1cf912-3d59-4515-adb5-49436c180a96{fill:#b57c4d;}.b5b1757f-b8de-4a6b-beed-7ff59d9b61bd{fill:#40220f;}.efcb7649-9455-4bfd-a817-fc1733862b89{fill:#5a3718;}</style></defs><title>土6</title><g id="b085bb93-9376-4e72-b7fd-9564c7360c5a" data-name="圖層 2"><g id="b0f1dba2-e912-4020-b2fb-bec71dfaaa6b" data-name="圖層 1"><path class="eb1cf912-3d59-4515-adb5-49436c180a96" d="M63.68,63.09A24.65,24.65,0,0,1,80.4,56.18c4.73,0,9.68,3.2,14.31,2.4,3.75-.64,6.74-4,10.27-5.37a23.42,23.42,0,0,1,19.3,1.13c4.74,2.37,8.93-4.75,4.17-7.13a32.81,32.81,0,0,0-18.18-3.69,31.57,31.57,0,0,0-8.51,2c-2.48,1-5.75,4.28-8.12,4.71s-6-1.62-8.42-2a32.45,32.45,0,0,0-9.54,0,33.17,33.17,0,0,0-17.84,8.89c-3.91,3.62,1.94,9.44,5.84,5.84Z"/><path class="b5b1757f-b8de-4a6b-beed-7ff59d9b61bd" d="M1.16,27.76a15.92,15.92,0,0,1,2.08-5.41c4.51-7.3,17.92-25,32.79-5.9,3.47,4.46,7.6,3.9,11-1,8.72-12.63,27.25-29,51.42,7.85a15.26,15.26,0,0,1,1.84,4h0A15.75,15.75,0,0,1,85.2,47.57H16.42A15.74,15.74,0,0,1,.94,29Z"/><path class="b5b1757f-b8de-4a6b-beed-7ff59d9b61bd" d="M85.2,48.25H16.42A16.42,16.42,0,0,1,.28,28.85L.5,27.63A16.44,16.44,0,0,1,2.67,22C6,16.68,12.75,7.69,21.4,7.22,26.65,6.92,31.78,9.9,36.56,16c1.47,1.88,3,2.81,4.63,2.77,1.79,0,3.61-1.35,5.26-3.74C51.21,8.18,59,0,69.13,0h.23C79.13.12,89.1,7.83,99,22.93a15.83,15.83,0,0,1,1.91,4.14A16.43,16.43,0,0,1,85.2,48.25ZM1.83,27.88,1.6,29.09a15.07,15.07,0,0,0,14.82,17.8H85.2A15.05,15.05,0,0,0,99.62,27.47a14.68,14.68,0,0,0-1.75-3.8C88.23,9,78.64,1.47,69.34,1.35h-.21c-9.55,0-17,7.86-21.56,14.49-1.91,2.76-4.1,4.26-6.34,4.32s-4-1.08-5.74-3.29c-4.49-5.77-9.21-8.57-14-8.3C13.14,9,6.35,18.61,3.82,22.7a15.07,15.07,0,0,0-2,5.18Z"/><path class="efcb7649-9455-4bfd-a817-fc1733862b89" d="M27.15,15.65c-7.73,1.88-13.44,9.58-12.59,17.58.24,2.21,1.73,4.13,4.13,4.13,2,0,4.37-1.9,4.13-4.13a8.62,8.62,0,0,1,6.52-9.62c5.16-1.26,3-9.22-2.19-8Z"/></g></g></svg>