<svg xmlns="http://www.w3.org/2000/svg" viewBox="0 0 104.98 48.96"><defs><style>.a0f3e68c-949c-49d0-af31-4c72d4621196{fill:#40220f;}.a1eec369-6f24-428d-a8b6-e6dec1c827df{fill:#5a3718;}</style></defs><title>土13</title><g id="fc35b427-85c4-45b9-9a26-62b90a91ba29" data-name="圖層 2"><g id="b0d0e498-ee06-4dc0-abf6-f73fc82565cd" data-name="圖層 1"><path class="a0f3e68c-949c-49d0-af31-4c72d4621196" d="M2,27.56a12.47,12.47,0,0,1,1.57-4.17c4.08-6.86,18.1-26.71,33.7-6.7,3.52,4.53,7.71,4,11.14-1C57.26,2.82,76.17-13.89,100.82,24a12.64,12.64,0,0,1,1.47,3.19l1.45,4.8A12.6,12.6,0,0,1,91.67,48.27H13.29A12.6,12.6,0,0,1,.9,33.38Z"/><path class="a0f3e68c-949c-49d0-af31-4c72d4621196" d="M91.67,49H13.29A13.3,13.3,0,0,1,.22,33.25L1.3,27.43A13.13,13.13,0,0,1,3,23c2.7-4.53,10-15.12,19.34-15.71C27.71,7,32.89,10,37.78,16.27c1.49,1.92,3.07,2.9,4.7,2.82,1.81-.06,3.66-1.37,5.34-3.8C52.65,8.3,60.55,0,70.83,0h.27c10,.14,20.18,8.1,30.29,23.66A12.56,12.56,0,0,1,102.94,27l1.46,4.8A13.29,13.29,0,0,1,91.67,49Zm-89-21.28L1.57,33.5A11.91,11.91,0,0,0,13.29,47.58H91.67a11.91,11.91,0,0,0,11.41-15.36l-1.45-4.8a11.34,11.34,0,0,0-1.39-3C90.4,9.26,80.58,1.51,71.08,1.37h-.25c-9.69,0-17.24,8-21.88,14.7-1.94,2.81-4.16,4.32-6.43,4.39-2,0-4.08-1.1-5.82-3.34-4.59-5.89-9.4-8.74-14.33-8.42-8.71.55-15.66,10.7-18.24,15a11.69,11.69,0,0,0-1.48,3.94Z"/><path class="a1eec369-6f24-428d-a8b6-e6dec1c827df" d="M68.37,22.08c6.9-4.9,15.33-1.82,17.13,6.54,1.11,5.19,9.08,3,8-2.19A18.77,18.77,0,0,0,64.21,14.94C59.91,18,64,25.16,68.37,22.08Z"/></g></g></svg>