<svg xmlns="http://www.w3.org/2000/svg" viewBox="0 0 170.08 170.08"><defs><style>.a0a346d9-bb48-420a-9ed4-364f98c954d6,.a890b280-24d6-41b6-b07b-2f21e83fec5b{fill:none;}.b3f544c5-1227-4717-8251-67fb6501b497{fill:#fff;}.fdd0fb50-7702-4c5e-8fd5-8c7dd53f9411{fill:#e96c37;}.bd3f1c56-7c71-4a31-911e-0de3e7064c7a{fill:#f9ca9a;}.a39633ef-4443-454c-917a-de647744a9c9{fill:#bd4209;}.a0a346d9-bb48-420a-9ed4-364f98c954d6{stroke:#eb5c28;stroke-linecap:round;stroke-miterlimit:10;stroke-width:2.99px;}</style></defs><title>家</title><g id="bd04de80-bdb6-40ef-ac0c-6c06d3f703b6" data-name="圖層 2"><g id="eaa4751a-c03a-4b46-9353-d0027f059d59" data-name="圖層 1"><path class="a890b280-24d6-41b6-b07b-2f21e83fec5b" d="M143.55,124.78A109.66,109.66,0,0,0,0,20.52V0H170.08V170.08H133.75A109.3,109.3,0,0,0,143.55,124.78Z"/><path class="b3f544c5-1227-4717-8251-67fb6501b497" d="M143.55,124.78a109.3,109.3,0,0,1-9.8,45.3H120.58a97.41,97.41,0,0,0,11.12-45.3A97.83,97.83,0,0,0,0,33V20.52A109.66,109.66,0,0,1,143.55,124.78Z"/><path class="fdd0fb50-7702-4c5e-8fd5-8c7dd53f9411" d="M131.7,124.78a97.41,97.41,0,0,1-11.12,45.3H106.77a85.41,85.41,0,0,0,12.94-45.3A85.81,85.81,0,0,0,0,46V33a97.83,97.83,0,0,1,131.7,91.74Z"/><path class="bd3f1c56-7c71-4a31-911e-0de3e7064c7a" d="M119.71,124.78a85.41,85.41,0,0,1-12.94,45.3H0V46a85.81,85.81,0,0,1,119.71,78.81Z"/><path class="a39633ef-4443-454c-917a-de647744a9c9" d="M88.18,103.74,53.23,73A3.87,3.87,0,0,0,48,73L13,103.74c-3.33,2.93-1.55,9.1,2.63,9.1h5.26V142.9c0,4.11,2.86,7.44,6.4,7.44h7.81c2.84,0,5.14-2.67,5.14-6V125.23c0-3.2,2.23-5.79,5-5.79H56c2.75,0,5,2.59,5,5.79v19.14c0,3.3,2.3,6,5.14,6H73.9c3.54,0,6.4-3.33,6.4-7.44V112.84h5.26C89.74,112.84,91.52,106.67,88.18,103.74Z"/><line class="a0a346d9-bb48-420a-9ed4-364f98c954d6" x1="47.39" y1="83.63" x2="28.53" y2="99.74"/><path class="a0a346d9-bb48-420a-9ed4-364f98c954d6" d="M68,144.17h3.47c2.1,0,3.81-2,3.81-4.42v-4.33"/></g></g></svg>