<svg xmlns="http://www.w3.org/2000/svg" viewBox="0 0 170.08 170.08"><defs><style>.a9050fcc-9adb-4cea-9d0c-40ab10c642f8,.bdc11191-c238-455b-8e7a-9bfc576cf236{fill:none;}.a08bcb2f-8744-44fa-8f1e-9c0007e36080{fill:#fff;}.e5606866-83c5-43fb-bb63-1141940b2d41{fill:#3e5e89;}.ae11d658-fb6e-49dd-9e29-c13d552f1425{fill:#d8effc;}.a160d0d7-fd42-4c20-9cda-7af40b7d37f9{fill:#4e618d;}.bdc11191-c238-455b-8e7a-9bfc576cf236{stroke:#8586a2;stroke-linecap:round;stroke-miterlimit:10;stroke-width:3.26px;}</style></defs><title>問題</title><g id="bc417456-6bbf-4ac9-979f-781048bfe23b" data-name="圖層 2"><g id="b284ebed-01dd-43b8-bb4a-1ae98dfe0f66" data-name="圖層 1"><path class="a9050fcc-9adb-4cea-9d0c-40ab10c642f8" d="M26.53,124.78A109.66,109.66,0,0,1,170.08,20.52V0H0V170.08H36.33A109.3,109.3,0,0,1,26.53,124.78Z"/><path class="a08bcb2f-8744-44fa-8f1e-9c0007e36080" d="M26.53,124.78a109.3,109.3,0,0,0,9.8,45.3H49.5A97.82,97.82,0,0,1,170.08,33V20.52A109.66,109.66,0,0,0,26.53,124.78Z"/><path class="e5606866-83c5-43fb-bb63-1141940b2d41" d="M38.37,124.78a97.42,97.42,0,0,0,11.13,45.3H63.31A85.8,85.8,0,0,1,170.08,46V33A97.84,97.84,0,0,0,38.37,124.78Z"/><path class="ae11d658-fb6e-49dd-9e29-c13d552f1425" d="M50.37,124.78a85.41,85.41,0,0,0,12.94,45.3H170.08V46A85.81,85.81,0,0,0,50.37,124.78Z"/><path class="a160d0d7-fd42-4c20-9cda-7af40b7d37f9" d="M99.2,124.34V99.25h22.86V83.63H107.9v6.31H85V83.63a15.84,15.84,0,0,1,.72-5.55,7.43,7.43,0,0,1,2.72-3.22,15,15,0,0,1,5.65-2.12,61.74,61.74,0,0,1,10-.6H132.3q12.06,0,16,2.29t4,9.2v19.1a15.57,15.57,0,0,1-.77,5.74,7.46,7.46,0,0,1-3.25,3.24,16.46,16.46,0,0,1-5.79,2,65.22,65.22,0,0,1-9.61.54H122.06v10.13Z"/><path class="bdc11191-c238-455b-8e7a-9bfc576cf236" d="M144.16,99.34c0,3.17-3.18,5.74-7.1,5.74"/><ellipse class="a160d0d7-fd42-4c20-9cda-7af40b7d37f9" cx="110.56" cy="138.87" rx="13.97" ry="11.31"/><path class="bdc11191-c238-455b-8e7a-9bfc576cf236" d="M110.07,133.38s-6.42,1.21-5.46,8.52"/></g></g></svg>