<svg xmlns="http://www.w3.org/2000/svg" viewBox="0 0 309.3 540.61"><defs><style>.bdaefe3f-b563-4415-9cef-b95ef6b93479{fill:#59c4f1;}.a183341a-694a-4182-89a4-62fa6c33fabc{fill:#40220f;}.b23b5f73-242f-4a52-9375-e95863e68293{fill:#eaf6fd;}.a7498296-f657-42f0-a23d-6baab74d9e72{fill:#8fd3f5;}.a2269467-e5da-40a5-bcf6-6d3c4d8c4efd{fill:#f6bfbe;}.e8a1be23-3a14-4a7e-b7fa-9c4a6efb4208{fill:#fff;}.b082fb91-7321-4e73-9547-9036effffd9c{fill:#f9d3d3;}.a2329b3a-458a-48db-92ef-48a0d004e4f6{fill:#e097aa;}.a43146f1-9215-46d6-a16f-a8c0ad798c7c{fill:#f2a4b7;}.b8f800bb-d726-4375-b96a-45cd3174a796{fill:#604c3f;}.a1a54e11-8faf-43df-95bc-ff3c2987991b{fill:#f198a4;}.f1036e7d-673d-4e88-a780-c8fa37636aee{fill:#4ea549;}.bd024e16-6305-4264-b326-feebac0798c8{fill:#e7310e;}.bf2cdd76-aac7-4a79-b740-165308382ef4{fill:#ed6c00;}.f7447781-471d-42f3-9495-061347fb19df{fill:#ebc3c0;}.ac5a6a45-857e-4768-aa3d-86676fc6c5a6{fill:#e28f9a;}.a3f308b7-2741-4917-851e-b5ca57f0201b{fill:#dbb6b3;}.af1cfe40-9714-4079-be5f-f6ca41ffd746{fill:#6ebee3;}.aad96507-8f46-47f9-84f4-74d0fbf533f5{fill:#6e4726;}</style></defs><title>兔子</title><g id="e9f50de5-b96a-4688-9644-19e87779fc49" data-name="圖層 2"><g id="b0ac8cb0-f8e5-456b-8781-7f6dfd74c80b" data-name="圖層 1"><path class="bdaefe3f-b563-4415-9cef-b95ef6b93479" d="M280.09,96.51c-2,5.89-12,19.6-17.87,17.6s-5.45-19-3.45-24.84a11.26,11.26,0,0,1,21.32,7.24Z"/><path class="a183341a-694a-4182-89a4-62fa6c33fabc" d="M261.06,114.3a34.83,34.83,0,0,1-2.38-14.87c.49-6.65,4.39-18.2,13.52-15.89,8.62,2.18,7.62,13.08,4.07,18.84-2.8,4.54-7.33,7.88-11.52,11-1.75,1.3-.05,4.26,1.72,2.95,7-5.17,14.64-11.26,15.84-20.49.77-6-1.84-12.35-7.52-14.94-6.72-3-13.56,1.41-16.7,7.39-4.29,8.2-3.44,18.56-.32,26.93.76,2,4.06,1.15,3.29-.91Z"/><path class="b23b5f73-242f-4a52-9375-e95863e68293" d="M270.72,89.14c2.5,1,3.16,4.81,2.1,7-1,2,2,3.7,2.94,1.72,2.11-4.32.56-10.23-4.13-12-2.06-.77-2.95,2.52-.91,3.29Z"/><path class="b23b5f73-242f-4a52-9375-e95863e68293" d="M271.26,104.07a1.71,1.71,0,0,0,0-3.41,1.71,1.71,0,0,0,0,3.41Z"/><path class="a7498296-f657-42f0-a23d-6baab74d9e72" d="M299,131.9c-6.69,2.74-26.35,4.45-29.1-2.25s12.47-19.27,19.17-22A13.11,13.11,0,1,1,299,131.9Z"/><path class="a183341a-694a-4182-89a4-62fa6c33fabc" d="M268.93,128.68c5.1-9.47,20.22-25.32,32.21-17.22,9.53,6.43,1.37,18-6.44,20.67-7.27,2.44-15.07.72-22.31-.86-2.49-.55-3.56,3.28-1.06,3.83,10,2.2,21.64,4.23,30.63-2.2,6-4.31,9.42-12.71,5.93-19.71-3.84-7.72-13.55-8.75-20.89-6.14-9.44,3.35-16.84,11-21.5,19.62-1.22,2.25,2.21,4.26,3.43,2Z"/><path class="b23b5f73-242f-4a52-9375-e95863e68293" d="M298.21,117.71c1.18,3.17-1.47,6.73-4.57,7.54-2.47.64-1.42,4.48,1.06,3.83,5.06-1.32,9.26-7.25,7.34-12.43-.88-2.37-4.72-1.35-3.83,1.06Z"/><path class="b23b5f73-242f-4a52-9375-e95863e68293" d="M287.14,130.6c2.56,0,2.56-4,0-4s-2.56,4,0,4Z"/><path class="bdaefe3f-b563-4415-9cef-b95ef6b93479" d="M14.5,141.32c5.49,1.43,18.6,9.6,17.17,15.09s-16.87,6.2-22.35,4.76a10.26,10.26,0,1,1,5.18-19.85Z"/><path class="a183341a-694a-4182-89a4-62fa6c33fabc" d="M31.65,157.57a30.68,30.68,0,0,1-15,3c-6.44-.45-17.25-5.65-12.35-13.74,7.23-11.92,21.27,1.26,26.73,7.6,1.31,1.52,3.5-.69,2.2-2.2-5.14-6-11.3-12.53-19.78-12.86-5.79-.22-12,3.28-13.23,9.31S3.47,159.77,8.74,162c7.84,3.26,17,1.71,24.48-1.7,1.82-.83.24-3.51-1.57-2.69Z"/><path class="b23b5f73-242f-4a52-9375-e95863e68293" d="M8.39,150.43c.77-2.59,4.28-3.26,6.51-2.37,1.86.75,2.67-2.26.83-3-3.88-1.55-9.11.42-10.34,4.54-.57,1.93,2.43,2.75,3,.83Z"/><path class="b23b5f73-242f-4a52-9375-e95863e68293" d="M20.4,150.52a1.56,1.56,0,0,0,0-3.11,1.56,1.56,0,0,0,0,3.11Z"/><path class="a7498296-f657-42f0-a23d-6baab74d9e72" d="M45.42,121.79c2.93,5.91,5.78,23.67-.13,26.6S27,138.32,24,132.41a11.94,11.94,0,1,1,21.39-10.62Z"/><path class="a183341a-694a-4182-89a4-62fa6c33fabc" d="M44.58,149.42c-8.86-4-26.77-18.93-16.46-29.7,5.62-5.87,13.86-1.65,17.11,4.51,3.5,6.63,2.42,14.61,1.4,21.69-.33,2.27,3.15,3.26,3.49,1,1.34-9.29,2.51-19.91-3.91-27.71-4.2-5.1-11.51-7.67-17.68-4.55-6.9,3.49-7.85,12-5.35,18.59,3.37,8.88,11.1,15.53,19.58,19.34,2.1.94,4-2.17,1.82-3.13Z"/><path class="b23b5f73-242f-4a52-9375-e95863e68293" d="M32.88,123.32c2.57-1.17,6,1.24,6.81,3.67.75,2.2,4.24,1.26,3.49-1-1.63-4.83-7.31-8-12.12-5.83-2.12,1-.28,4.08,1.82,3.12Z"/><path class="b23b5f73-242f-4a52-9375-e95863e68293" d="M43.21,134.62a1.81,1.81,0,0,0,0-3.62,1.81,1.81,0,0,0,0,3.62Z"/><rect class="a2269467-e5da-40a5-bcf6-6d3c4d8c4efd" x="73.5" y="322.53" width="57.23" height="143.07" rx="15.64"/><path class="a183341a-694a-4182-89a4-62fa6c33fabc" d="M104.9,469.26H99.33a29.52,29.52,0,0,1-29.48-29.49V348.36a29.52,29.52,0,0,1,29.48-29.49h5.57a29.52,29.52,0,0,1,29.49,29.49v91.41A29.52,29.52,0,0,1,104.9,469.26ZM99.33,326.19a22.19,22.19,0,0,0-22.17,22.17v91.41a22.19,22.19,0,0,0,22.17,22.17h5.57a22.19,22.19,0,0,0,22.17-22.17V348.36a22.19,22.19,0,0,0-22.17-22.17Z"/><rect class="a2269467-e5da-40a5-bcf6-6d3c4d8c4efd" x="197.38" y="322.53" width="57.23" height="143.07" rx="15.64"/><path class="a183341a-694a-4182-89a4-62fa6c33fabc" d="M228.78,469.26h-5.57a29.52,29.52,0,0,1-29.49-29.49V348.36a29.52,29.52,0,0,1,29.49-29.49h5.57a29.52,29.52,0,0,1,29.49,29.49v91.41A29.52,29.52,0,0,1,228.78,469.26Zm-5.57-143.07A22.19,22.19,0,0,0,201,348.36v91.41a22.19,22.19,0,0,0,22.17,22.17h5.57A22.19,22.19,0,0,0,251,439.77V348.36a22.19,22.19,0,0,0-22.17-22.17Z"/><circle class="a2269467-e5da-40a5-bcf6-6d3c4d8c4efd" cx="164.05" cy="337.07" r="93.05"/><path class="a183341a-694a-4182-89a4-62fa6c33fabc" d="M164.05,433.78a96.71,96.71,0,1,1,96.72-96.71A96.82,96.82,0,0,1,164.05,433.78Zm0-186.11a89.4,89.4,0,1,0,89.4,89.4A89.5,89.5,0,0,0,164.05,247.67Z"/><circle class="e8a1be23-3a14-4a7e-b7fa-9c4a6efb4208" cx="164.05" cy="323.11" r="61.94"/><ellipse class="b082fb91-7321-4e73-9547-9036effffd9c" cx="192.36" cy="93.61" rx="28.3" ry="89.95"/><path class="a183341a-694a-4182-89a4-62fa6c33fabc" d="M192.36,187.22c-20.76,0-32-48.23-32-93.61S171.6,0,192.36,0s32,48.23,32,93.61S213.12,187.22,192.36,187.22Zm0-179.9c-11.66,0-24.65,35.44-24.65,86.29s13,86.29,24.65,86.29S217,144.46,217,93.61,204,7.32,192.36,7.32Z"/><ellipse class="b082fb91-7321-4e73-9547-9036effffd9c" cx="135.75" cy="93.61" rx="28.3" ry="89.95"/><path class="a183341a-694a-4182-89a4-62fa6c33fabc" d="M135.75,187.22c-20.76,0-32-48.23-32-93.61S115,0,135.75,0s32,48.23,32,93.61S156.51,187.22,135.75,187.22Zm0-179.9c-11.66,0-24.65,35.44-24.65,86.29s13,86.29,24.65,86.29,24.65-35.44,24.65-86.29S147.41,7.32,135.75,7.32Z"/><ellipse class="a2329b3a-458a-48db-92ef-48a0d004e4f6" cx="192.36" cy="114.14" rx="16.87" ry="53.61"/><ellipse class="a2329b3a-458a-48db-92ef-48a0d004e4f6" cx="135.86" cy="114.14" rx="16.87" ry="53.61"/><ellipse class="a43146f1-9215-46d6-a16f-a8c0ad798c7c" cx="138.35" cy="119.06" rx="15.11" ry="51.9"/><ellipse class="a43146f1-9215-46d6-a16f-a8c0ad798c7c" cx="194.12" cy="119.06" rx="15.11" ry="51.9"/><ellipse class="b082fb91-7321-4e73-9547-9036effffd9c" cx="164.05" cy="218.34" rx="124.46" ry="104.21"/><path class="a183341a-694a-4182-89a4-62fa6c33fabc" d="M164.05,326.21c-70.64,0-128.11-48.39-128.11-107.87S93.41,110.48,164.05,110.48s128.12,48.39,128.12,107.86S234.7,326.21,164.05,326.21Zm0-208.42c-66.61,0-120.8,45.11-120.8,100.55s54.19,100.55,120.8,100.55,120.81-45.1,120.81-100.55S230.67,117.79,164.05,117.79Z"/><path class="b8f800bb-d726-4375-b96a-45cd3174a796" d="M167.27,226.33l11.43-16.71a3.89,3.89,0,0,0-3.21-6.09H152.62a3.89,3.89,0,0,0-3.21,6.09l11.43,16.71A3.9,3.9,0,0,0,167.27,226.33Z"/><path class="a1a54e11-8faf-43df-95bc-ff3c2987991b" d="M114.82,247.92a54.68,54.68,0,0,0-72.4-51.71,88,88,0,0,0-2.83,22.13c0,31.69,16.9,60.07,43.56,79.18A54.67,54.67,0,0,0,114.82,247.92Z"/><path class="a1a54e11-8faf-43df-95bc-ff3c2987991b" d="M288.51,218.34a88,88,0,0,0-2.82-22.13A54.67,54.67,0,0,0,245,297.52C271.62,278.41,288.51,250,288.51,218.34Z"/><path class="a183341a-694a-4182-89a4-62fa6c33fabc" d="M164.05,325.46c-70.23,0-127.36-48-127.36-107.12S93.82,111.23,164.05,111.23s127.37,48.05,127.37,107.11S234.29,325.46,164.05,325.46Zm0-208.42C97,117,42.5,162.49,42.5,218.34S97,319.64,164.05,319.64s121.56-45.44,121.56-101.3S231.08,117,164.05,117Z"/><path class="a183341a-694a-4182-89a4-62fa6c33fabc" d="M230.53,201.89a2.83,2.83,0,0,1-.94-.17c-12-4.41-31.61-1.6-31.81-1.57a2.74,2.74,0,0,1-2.89-3.86c9.15-19.85,32.29-18.52,33.27-18.45a2.74,2.74,0,0,1-.37,5.47c-.75-.05-16.59-.9-25.28,10.82,7.15-.59,19.74-.95,29,2.44a2.74,2.74,0,0,1-.95,5.32Z"/><path class="a183341a-694a-4182-89a4-62fa6c33fabc" d="M98.62,201.89a2.74,2.74,0,0,1-.94-5.32c9.22-3.38,21.82-3,29-2.44-8.69-11.72-24.54-10.87-25.28-10.82a2.76,2.76,0,0,1-2.92-2.56,2.73,2.73,0,0,1,2.55-2.91c1-.07,24.11-1.4,33.27,18.45a2.75,2.75,0,0,1-2.89,3.86c-.2,0-19.82-2.83-31.81,1.57A2.84,2.84,0,0,1,98.62,201.89Z"/><path class="a183341a-694a-4182-89a4-62fa6c33fabc" d="M139,274.23a2.74,2.74,0,0,1-1.81-4.81c1.14-1,28.55-24.42,77.21-17.06a2.75,2.75,0,0,1-.82,5.43c-46.17-7-72.52,15.53-72.78,15.76A2.75,2.75,0,0,1,139,274.23Z"/><path class="a183341a-694a-4182-89a4-62fa6c33fabc" d="M228.08,275.63a2.71,2.71,0,0,1-1.29-.32c-20.92-11.16-13-40.33-12.88-40.63a2.74,2.74,0,0,1,5.28,1.49c-.07.25-6.83,25.23,10.18,34.3a2.74,2.74,0,0,1-1.29,5.16Z"/><path class="f1036e7d-673d-4e88-a780-c8fa37636aee" d="M137.57,363.91s-32.18-10.75-34.64-29.28c-1.08-8.1,7.24-16.19,7.24-16.19s6.6-5.9,23.53,8.56,7.91-10.36,11.13-36.7c1.18-9.67,5.27-15.09,10-18.08A15.24,15.24,0,0,1,177,279.67l2.72,6.86A32.11,32.11,0,0,1,182,298.59l.75,24.14c0,3.19,4.27,9.83,7.45,9.92,2.64.07,2.64.07,5.15-1.27,6.44-3.45,10.71-5.21,11.72-23.73s27.92-15.2,29.65.4c3.16,28.37-9.48,49.36-24.3,62.88l-29.61-7.82Z"/><path class="a183341a-694a-4182-89a4-62fa6c33fabc" d="M213.72,376.2l-31.48-8.31-45.4.8-.78-.25c-1.43-.48-35-11.94-37.86-33.18-1.36-10.19,7.61-19.25,8.64-20.25l.15-.13c1.62-1.45,10.68-7.85,29.81,8.49a32.54,32.54,0,0,0,2.75,2.14c.22-2.64.08-7,0-10.65-.24-7.13-.53-16,.58-25.14,1.22-9.93,5.31-17.17,12.15-21.53a19.64,19.64,0,0,1,16.66-2.08,20.16,20.16,0,0,1,12.58,11.81l2.72,6.85a36.7,36.7,0,0,1,2.58,13.76l.75,24.24a11.24,11.24,0,0,0,3.28,5.12c.38,0,.71,0,.89,0s.84-.42,1.4-.73l.55-.29c5.21-2.78,7.83-4.17,8.66-19.49.55-10,7.6-16.86,17.56-17.14,9.57-.27,20.37,6.11,21.61,17.28,2.82,25.38-6.35,49.15-25.84,66.92ZM183.4,358.33l27.69,7.31c11.64-11.31,23.92-30,20.9-57.06-.63-5.69-6.52-9-11.85-8.79-2.94.08-7.92,1.25-8.29,8.12-1.06,19.29-5.89,23.22-13.71,27.39l-.53.29c-3.22,1.72-4.07,1.93-7.53,1.83-6.63-.19-12-9.71-12.09-14.6l-.75-24.27a27.41,27.41,0,0,0-1.92-10.27l-2.71-6.85a10.66,10.66,0,0,0-6.65-6.24,10,10,0,0,0-8.59,1.06c-4.32,2.75-7,7.67-7.8,14.63-1,8.4-.75,16.86-.53,23.66.37,11,.61,18.21-4.78,20.8-4.58,2.2-9.48-1.14-13.66-4.71-10.12-8.65-15.82-9.07-17.43-8.44-1.91,2-6.09,7.46-5.51,11.81,1.64,12.36,22,22.06,30.67,25.12Z"/><path class="bd024e16-6305-4264-b326-feebac0798c8" d="M172,359l5.16.25c39.35,1.89,56.71,32.7,47.51,55.51L179.16,527.54c-4.29,10.63-21.31,10.1-25-.79L114.66,410.69C106.53,386.8,128.88,356.87,172,359Z"/><path class="a183341a-694a-4182-89a4-62fa6c33fabc" d="M166.93,540h-.57c-7.82-.22-14.39-4.81-16.73-11.7L110.14,412.23c-4-11.87-1.64-24.94,6.59-35.86,11.48-15.25,31.69-23.34,55.49-22.19l5.17.25c20.81,1,38.14,10,47.55,24.69,7.39,11.54,8.94,25.51,4.16,37.37L183.59,529.32C181,535.85,174.46,540,166.93,540Zm.87-176.38c-18.83,0-34.52,6.63-43.45,18.49-6.29,8.36-8.18,18.21-5.17,27l39.48,116.07c1.27,3.73,5,5.14,8,5.23s6.66-1.11,8.11-4.7l45.51-112.83c3.63-9,2.38-19.71-3.35-28.65-7.72-12-22.29-19.45-40-20.3l-5.16-.25C170.43,363.65,169.11,363.62,167.8,363.62Z"/><path class="a183341a-694a-4182-89a4-62fa6c33fabc" d="M120.46,422.36a3.19,3.19,0,0,1-2.31-5.37c.38-.4,9.46-9.8,29.47-10.78a3.22,3.22,0,0,1,3.33,3,3.17,3.17,0,0,1-3,3.33c-17.48.86-25.08,8.72-25.15,8.8A3.18,3.18,0,0,1,120.46,422.36Z"/><path class="a183341a-694a-4182-89a4-62fa6c33fabc" d="M128.65,440.82a3.21,3.21,0,0,1-2.68-5c.57-.9,6.3-8.74,31.33-8.74h.45a3.18,3.18,0,0,1,0,6.36h-.44c-21.23,0-26,5.86-26,5.92A3.09,3.09,0,0,1,128.65,440.82Z"/><path class="a183341a-694a-4182-89a4-62fa6c33fabc" d="M214.05,438.1a3.21,3.21,0,0,1-2.37-1.05c-12.9-14.32-30.93-14.2-31.08-14.18h-.06a3.18,3.18,0,0,1,0-6.36c.85,0,21.11-.16,35.92,16.28a3.18,3.18,0,0,1-2.36,5.31Z"/><path class="a183341a-694a-4182-89a4-62fa6c33fabc" d="M209.17,458.32a3.17,3.17,0,0,1-2.06-.76c-14.36-12.25-26.78-10.88-27.31-10.82a3.18,3.18,0,0,1-.84-6.31c.64-.08,15.63-1.92,32.28,12.29a3.18,3.18,0,0,1-2.07,5.6Z"/><path class="a183341a-694a-4182-89a4-62fa6c33fabc" d="M198.23,481.45a3.15,3.15,0,0,1-2.36-1.05c-12.65-14-26.6-12.63-27.18-12.57a3.18,3.18,0,0,1-.76-6.31c.71-.09,17.71-2,32.67,14.62a3.18,3.18,0,0,1-2.37,5.31Z"/><path class="bf2cdd76-aac7-4a79-b740-165308382ef4" d="M133.3,400.69c-1.11-6.18,5.83-17.69,12.62-18.1,5.08-.31,5.12-8.27,0-8-12.44.76-22.38,16.53-20.29,28.18.9,5,8.57,2.9,7.67-2.12Z"/><path class="a2269467-e5da-40a5-bcf6-6d3c4d8c4efd" d="M141.54,323.18l-57.1-24.25a17.61,17.61,0,0,0-22.58,8.2h0a17.61,17.61,0,0,0,6.58,23.1l53.1,32.08a22,22,0,0,0,31-8.83h0A22,22,0,0,0,141.54,323.18Z"/><path class="a183341a-694a-4182-89a4-62fa6c33fabc" d="M133,369.14a25.71,25.71,0,0,1-13.3-3.7L66.54,333.36a21.28,21.28,0,0,1,19.33-37.8L143,319.81a25.69,25.69,0,0,1-3,48.35A25.42,25.42,0,0,1,133,369.14ZM77.59,301.19a14,14,0,0,0-7.26,25.91l53.1,32.08a18.37,18.37,0,1,0,16.68-32.64h0L83,302.29A14,14,0,0,0,77.59,301.19Z"/><path class="a2269467-e5da-40a5-bcf6-6d3c4d8c4efd" d="M186.57,323.18l57.1-24.25a17.61,17.61,0,0,1,22.58,8.2h0a17.61,17.61,0,0,1-6.58,23.1l-53.1,32.08a22,22,0,0,1-31-8.83h0A22,22,0,0,1,186.57,323.18Z"/><path class="a183341a-694a-4182-89a4-62fa6c33fabc" d="M195.16,369.14a25.42,25.42,0,0,1-7-1,25.69,25.69,0,0,1-3-48.35l57.1-24.25a21.28,21.28,0,0,1,19.33,37.8l-53.11,32.08A25.71,25.71,0,0,1,195.16,369.14ZM188,326.54a18.37,18.37,0,1,0,16.68,32.64l53.1-32.08a14,14,0,0,0-12.68-24.81Z"/><path class="a183341a-694a-4182-89a4-62fa6c33fabc" d="M75.71,494.82a25.24,25.24,0,0,1,3.12-8.33c8.46-14.32,38.48-57.43,71.89-14.54,7.5,9.64,16.41,8.42,23.72-2.16,18.92-27.4,59.2-63,111.73,18a24.72,24.72,0,0,1,2.93,6.37l3.7,12.24a25.41,25.41,0,0,1-24.33,32.77H98.06a25.41,25.41,0,0,1-25-30Z"/><path class="a183341a-694a-4182-89a4-62fa6c33fabc" d="M268.47,540.61H98.06a26.87,26.87,0,0,1-26.43-31.75l2.64-14.3a27,27,0,0,1,3.3-8.82C83.31,476,98.83,453.31,118.86,452c11.51-.74,22.6,5.66,33,19,3.17,4.07,6.54,6.09,10,6,3.85-.11,7.79-2.91,11.36-8.08,10.28-14.89,27.09-32.54,49-32.54h.59c21.3.31,43,17.32,64.6,50.55a26.37,26.37,0,0,1,3.1,6.74L294.2,506a26.86,26.86,0,0,1-25.73,34.65ZM120.62,454.89c-.52,0-1.05,0-1.57.05-18.65,1.19-33.46,23-39,32.29a24.05,24.05,0,0,0-3,7.86l-2.64,14.3a24,24,0,0,0,23.56,28.3H268.47a24,24,0,0,0,22.94-30.89l-3.7-12.24a23.8,23.8,0,0,0-2.76-6c-21-32.37-41.92-48.92-62.19-49.22h-.54c-20.63,0-36.7,17-46.58,31.28-4.12,6-8.85,9.2-13.68,9.34-4.43.14-8.67-2.33-12.4-7.11C140.28,460.92,130.55,454.89,120.62,454.89Z"/><path class="f7447781-471d-42f3-9495-061347fb19df" d="M46.25,195.05s7.61-40.56,61.05-65.79c0,0,36-19.57,90.08-7.91,0,0-106.57-11.14-135.85,71.93A64.48,64.48,0,0,0,46.25,195.05Z"/><path class="ac5a6a45-857e-4768-aa3d-86676fc6c5a6" d="M86.41,295.87s-27.07-15.75-38.5-47.41-2.23-53.25-2.23-53.25,18.9-5.82,36.91,2.85c0,0-9.56.73-17.93,1.74a13.62,13.62,0,0,0-11.95,13.92C53.2,233,58,271.53,86.41,295.87Z"/><path class="ac5a6a45-857e-4768-aa3d-86676fc6c5a6" d="M241.42,295.87s27.07-15.75,38.5-47.41,2.23-53.25,2.23-53.25-18.89-5.82-36.91,2.85c0,0,9.56.73,17.94,1.74a13.64,13.64,0,0,1,11.95,13.92C274.63,233,269.84,271.53,241.42,295.87Z"/><path class="a3f308b7-2741-4917-851e-b5ca57f0201b" d="M177.88,350.34s11.74,7.47,27.89-1.52,51.34-29.57,51.34-29.57,7.14-3.65,3.79-13.55c0,0,9.21,9.62-1,20.11l-54.56,33S188.7,369.85,177.88,350.34Z"/><path class="a3f308b7-2741-4917-851e-b5ca57f0201b" d="M150.13,350.54S138.39,358,122.24,349,70.9,319.45,70.9,319.45s-7.14-3.65-3.79-13.56c0,0-9.21,9.63,1,20.11l54.56,33S139.31,370.05,150.13,350.54Z"/><path class="a7498296-f657-42f0-a23d-6baab74d9e72" d="M59.12,196.24c.56-3,4.43-10.28,7.41-9.73s4,8.78,3.39,11.76a5.49,5.49,0,1,1-10.8-2Z"/><path class="a183341a-694a-4182-89a4-62fa6c33fabc" d="M67.13,186.43a16.52,16.52,0,0,1,2.16,7.9c0,3.37-2,9.5-6.82,7.2-6.82-3.26-.11-11.5,3-14.55.76-.75-.42-1.93-1.18-1.18-3,3-6.28,6.49-6.17,11,.08,3.1,2.15,6.32,5.41,6.77s5.85-2.09,6.84-5c1.47-4.29.32-9.17-1.78-13-.51-.94-2-.1-1.43.84Z"/><path class="b23b5f73-242f-4a52-9375-e95863e68293" d="M64.27,199.18c-1.4-.31-2-2.08-1.58-3.34.33-1-1.28-1.46-1.6-.45-.68,2.1.47,4.89,2.74,5.39,1,.24,1.49-1.37.44-1.6Z"/><path class="b23b5f73-242f-4a52-9375-e95863e68293" d="M63,193.64A.83.83,0,0,0,63,192a.83.83,0,0,0,0,1.66Z"/><path class="af1cfe40-9714-4079-be5f-f6ca41ffd746" d="M47.85,225.59c.36-2,2.9-6.74,4.85-6.37s2.58,5.74,2.22,7.69a3.6,3.6,0,1,1-7.07-1.32Z"/><path class="a183341a-694a-4182-89a4-62fa6c33fabc" d="M53.09,219.16a10.71,10.71,0,0,1,1.42,5.18c0,2.2-1.31,6.21-4.47,4.71-4.47-2.14-.07-7.53,2-9.53.49-.49-.28-1.26-.78-.77-2,1.95-4.11,4.25-4,7.22a4.46,4.46,0,0,0,3.55,4.43c2.13.29,3.83-1.37,4.48-3.27,1-2.8.2-6-1.17-8.52-.33-.61-1.27-.06-.94.55Z"/><path class="b23b5f73-242f-4a52-9375-e95863e68293" d="M51.22,227.51a1.72,1.72,0,0,1-1-2.19.55.55,0,0,0-1-.29,2.8,2.8,0,0,0,1.79,3.53c.68.16,1-.89.29-1.05Z"/><path class="b23b5f73-242f-4a52-9375-e95863e68293" d="M50.38,223.88a.54.54,0,0,0,0-1.08.54.54,0,0,0,0,1.08Z"/><path class="af1cfe40-9714-4079-be5f-f6ca41ffd746" d="M270.7,206.31c-.48-2.57-3.82-8.86-6.39-8.38s-3.39,7.56-2.91,10.13a4.73,4.73,0,1,0,9.3-1.75Z"/><path class="a183341a-694a-4182-89a4-62fa6c33fabc" d="M262.56,197.13c-1.81,3.33-2.78,7.51-1.53,11.22.84,2.49,3.1,4.7,5.9,4.3s4.58-3.14,4.66-5.83c.11-3.9-2.74-6.95-5.32-9.5-.65-.65-1.67.36-1,1a20.75,20.75,0,0,1,3.85,4.61c1.23,2.25,1.83,6.79-1.29,7.93-2.44.88-4.61-.67-5.41-2.9a10,10,0,0,1-.47-3.3,14,14,0,0,1,1.86-6.81c.44-.81-.79-1.54-1.24-.73Z"/><path class="b23b5f73-242f-4a52-9375-e95863e68293" d="M266.65,210.23c2-.44,2.94-2.84,2.36-4.65-.28-.87-1.67-.5-1.39.38a2.24,2.24,0,0,1-1.36,2.88c-.9.2-.51,1.59.39,1.39Z"/><path class="b23b5f73-242f-4a52-9375-e95863e68293" d="M267.38,204.07a.72.72,0,0,0,0-1.43.72.72,0,0,0,0,1.43Z"/><path class="aad96507-8f46-47f9-84f4-74d0fbf533f5" d="M280.61,522.73A6,6,0,0,1,275,519c-20.79-52.44-56.77-57.44-57.13-57.49a6,6,0,0,1,1.47-11.91c1.76.22,43.43,6,66.82,65a6,6,0,0,1-3.37,7.79A5.9,5.9,0,0,1,280.61,522.73Z"/></g></g></svg>