<svg xmlns="http://www.w3.org/2000/svg" viewBox="0 0 76.35 156.12"><defs><style>.bcc9521e-0699-416b-8179-36f070c79419{fill:#4ea549;}.fb0a463b-079a-4cdf-9083-608f6efb379e{fill:#40220f;}.a0dd2a28-8a14-44fe-aaa8-20dc4d6c63be{fill:#e7310e;}.e976e757-2177-46ba-8caf-29eddea03d06{fill:#ed6c00;}.b2ef3172-d289-4c33-82c4-9c29ee2d68bf{fill:#95c96e;}</style></defs><title>紅1</title><g id="b928cf98-edda-4444-a868-93ba52d56a74" data-name="圖層 2"><g id="b3d631f6-8e22-46a0-9196-b476cb1f3a3a" data-name="圖層 1"><path class="bcc9521e-0699-416b-8179-36f070c79419" d="M20.47,63.59S3.77,57.24,2.8,45.38c-.43-5.19,4.08-10.53,4.08-10.53S10.44,31,19.08,40s4.32-6.79,6.47-23.77c.78-6.23,3-9.78,5.54-11.78C35.39,1,41,3.18,42.63,8.8l1.3,4.36a24.37,24.37,0,0,1,1,7.71l0,15.49c-.07,2,2.07,6.24,3.73,6.24,1.39,0,1.39,0,2.72-.9,3.45-2.33,5.71-3.53,6.56-15.45S72.81,16,73.45,26A54.78,54.78,0,0,1,59.62,66.81L44.22,62.3Z"/><path class="fb0a463b-079a-4cdf-9083-608f6efb379e" d="M60.52,70,43.9,65.09,20,66.39l-.55-.21C18.74,65.89,1.14,59.05,0,45.6c-.51-6.14,4.18-11.9,4.72-12.53a6,6,0,0,1,4.48-1.83c3.49-.09,7.47,2.24,11.83,6.79l.82.81c.18-1.78.17-4.58.17-7a126,126,0,0,1,.74-16c.78-6.18,3-10.76,6.57-13.6A9.51,9.51,0,0,1,38.26.43a11,11,0,0,1,7,7.58l1.31,4.35A27.05,27.05,0,0,1,47.67,21l0,15.41a7.25,7.25,0,0,0,1.51,3.46c.16-.09.35-.23.63-.42l.3-.2c2.79-1.88,4.32-2.92,5-13.15.54-7.55,5.53-10.93,10.26-10.93h0a11,11,0,0,1,10.79,10.7A57.21,57.21,0,0,1,61.68,68.66Zm-16-10.45,14.14,4.14a51.72,51.72,0,0,0,12-37.47c-.23-3.6-2.83-5.5-5.28-5.51h0c-2.71,0-4.48,2.16-4.73,5.78-.88,12.3-3.42,14.61-7.49,17.35L52.9,44a5.82,5.82,0,0,1-4.28,1.38,4.71,4.71,0,0,1-3.38-1.62,12,12,0,0,1-3.12-7.48l0-15.41A21.39,21.39,0,0,0,41.28,14L40,9.6A5.53,5.53,0,0,0,36.6,5.71a4,4,0,0,0-3.79.85c-2.4,1.92-3.92,5.27-4.52,10a122.42,122.42,0,0,0-.69,15.34c0,7.65,0,11.86-3.27,13.18-2.67,1.07-5.16-1-7.25-3.19-4.83-5-7.56-5.32-8.27-5C7.76,38.17,5.3,42,5.56,45.15c.65,8,10.85,13.78,15.37,15.64Z"/><path class="a0dd2a28-8a14-44fe-aaa8-20dc4d6c63be" d="M38.36,61.59l2.69.13c20.55,1,29.62,17.07,24.82,29L42.1,149.62c-2.24,5.55-11.12,5.27-13.06-.41L8.42,88.6C4.18,76.13,15.85,60.5,38.36,61.59Z"/><path class="fb0a463b-079a-4cdf-9083-608f6efb379e" d="M35.72,156.12h-.3A9.28,9.28,0,0,1,26.68,150L6.06,89.41c-2.1-6.2-.85-13,3.44-18.73,6-8,16.58-12.19,29-11.58l2.69.13C52,59.75,61.09,64.45,66,72.12a21.45,21.45,0,0,1,2.18,19.51L44.41,150.55A9.15,9.15,0,0,1,35.72,156.12ZM36.17,64c-9.83,0-18,3.46-22.69,9.65C10.2,78,9.21,83.19,10.78,87.8L31.4,148.4a4.32,4.32,0,0,0,4.16,2.73,4.25,4.25,0,0,0,4.23-2.45L63.56,89.77a16.49,16.49,0,0,0-1.75-15c-4-6.29-11.64-10.16-20.87-10.6l-2.7-.13C37.54,64,36.85,64,36.17,64Z"/><path class="fb0a463b-079a-4cdf-9083-608f6efb379e" d="M11.45,94.69a1.66,1.66,0,0,1-1.21-2.8c.2-.21,4.94-5.12,15.39-5.63a1.66,1.66,0,1,1,.16,3.32c-9.12.45-13.09,4.55-13.13,4.59A1.62,1.62,0,0,1,11.45,94.69Z"/><path class="fb0a463b-079a-4cdf-9083-608f6efb379e" d="M15.73,104.25a1.58,1.58,0,0,1-.93-.29,1.62,1.62,0,0,1-.47-2.22c.3-.47,3.29-4.57,16.36-4.57h.23a1.66,1.66,0,0,1,1.66,1.66,1.64,1.64,0,0,1-1.67,1.66h-.23c-11.08,0-13.57,3.06-13.59,3.09A1.72,1.72,0,0,1,15.73,104.25Z"/><path class="fb0a463b-079a-4cdf-9083-608f6efb379e" d="M60.32,102.91a1.67,1.67,0,0,1-1.24-.54A23.45,23.45,0,0,0,42.85,95a1.71,1.71,0,0,1-1.69-1.64,1.67,1.67,0,0,1,1.64-1.69,26.54,26.54,0,0,1,18.75,8.5,1.66,1.66,0,0,1-.12,2.35A1.69,1.69,0,0,1,60.32,102.91Z"/><path class="fb0a463b-079a-4cdf-9083-608f6efb379e" d="M57.77,113.47a1.71,1.71,0,0,1-1.08-.39c-7.5-6.4-14-5.69-14.25-5.65a1.66,1.66,0,0,1-.44-3.3c.32,0,8.16-1,16.85,6.42a1.65,1.65,0,0,1,.18,2.34A1.62,1.62,0,0,1,57.77,113.47Z"/><path class="fb0a463b-079a-4cdf-9083-608f6efb379e" d="M52.06,125.55a1.62,1.62,0,0,1-1.23-.55c-6.6-7.32-13.89-6.59-14.2-6.56a1.66,1.66,0,0,1-.4-3.3c.38,0,9.26-1,17.06,7.64a1.65,1.65,0,0,1-.12,2.34A1.62,1.62,0,0,1,52.06,125.55Z"/><path class="e976e757-2177-46ba-8caf-29eddea03d06" d="M18.16,83.38c-.58-3.22,3-9.23,6.58-9.45,2.66-.16,2.68-4.32,0-4.15-6.49.39-11.68,8.63-10.59,14.71.47,2.62,4.48,1.51,4-1.11Z"/><path class="b2ef3172-d289-4c33-82c4-9c29ee2d68bf" d="M33.82,14.58a97.14,97.14,0,0,1,.88,24.74c-.23,2.65,3.9,2.63,4.13,0a101.2,101.2,0,0,0-1-25.84c-.43-2.62-4.41-1.51-4,1.1Z"/><path class="b2ef3172-d289-4c33-82c4-9c29ee2d68bf" d="M64.21,29.69a53.24,53.24,0,0,1-8.16,26.56c-1.41,2.27,2.16,4.34,3.56,2.09a57.63,57.63,0,0,0,8.73-28.65c.1-2.66-4-2.65-4.13,0Z"/><path class="b2ef3172-d289-4c33-82c4-9c29ee2d68bf" d="M9.24,46.08A33.4,33.4,0,0,0,20.8,57.49c2.29,1.36,4.37-2.21,2.08-3.57A29,29,0,0,1,12.81,44c-1.39-2.27-5-.2-3.57,2.08Z"/></g></g></svg>