<svg xmlns="http://www.w3.org/2000/svg" viewBox="0 0 73.2 139.79"><defs><style>.e8affe3e-1c79-4453-9107-f1cbd91634a8{fill:#4ea549;}.a0940189-7637-4e1c-b2c5-58a1bfcdabee{fill:#40220f;}.b5ccaf9d-fd62-4b19-86e7-56a9eb4ebe93{fill:#e7310e;}.b78f5e84-8ac6-433b-a587-64b15ec32cf9{fill:#ed6c00;}.b4302eb1-bb9d-44ce-bca5-971c3c22cb94{fill:#95c96e;}</style></defs><title>紅2</title><g id="f833a45c-9d40-49dc-a948-3b843c317e88" data-name="圖層 2"><g id="a682ac09-23d7-45ee-b310-9e05ebe4696f" data-name="圖層 1"><path class="e8affe3e-1c79-4453-9107-f1cbd91634a8" d="M20.1,50.24S3.73,44.77,2.48,35.34c-.55-4.12,3.68-8.23,3.68-8.23s3.36-3,12,4.35,4-5.26,5.66-18.66c.6-4.92,2.68-7.67,5.07-9.2A7.77,7.77,0,0,1,40.17,7.39l1.38,3.49A16.53,16.53,0,0,1,42.7,17l.38,12.27c0,1.62,2.17,5,3.79,5.05a3.49,3.49,0,0,0,2.62-.65c3.27-1.75,5.44-2.65,6-12.07s14.2-7.73,15.08.21c1.61,14.42-4.82,25.1-12.36,32l-15.06-4Z"/><path class="a0940189-7637-4e1c-b2c5-58a1bfcdabee" d="M58.83,56.49l-16-4.23-23.1.41-.39-.13C18.6,52.29,1.51,46.47.07,35.66-.62,30.48,4,25.88,4.47,25.37c.9-.81,5.51-4.06,15.24,4.25A15.31,15.31,0,0,0,21.1,30.7c.12-1.34,0-3.54,0-5.41a81.76,81.76,0,0,1,.3-12.79c.62-5,2.7-8.73,6.18-10.94A10,10,0,0,1,36,.5a10.27,10.27,0,0,1,6.4,6L43.81,10a18.64,18.64,0,0,1,1.31,7l.38,12.19a5.65,5.65,0,0,0,1.68,2.7h.49l.67-.37.28-.15c2.65-1.41,4-2.12,4.4-9.91A8.86,8.86,0,0,1,62,12.77c4.87-.17,10.36,3.11,11,8.79,1.44,12.91-3.23,25-13.14,34ZM43.4,47.4l14.08,3.71c5.93-5.74,12.17-15.24,10.64-29-.32-2.9-3.37-4.55-6-4.48a4,4,0,0,0-4.22,4.13c-.54,9.82-3,11.81-7,13.94l-.27.14a5.69,5.69,0,0,1-3.83.93c-3.39-.09-6.17-5-6.15-7.48l-.38-12.19a14.08,14.08,0,0,0-1-5.32L37.92,8.29a5.45,5.45,0,0,0-3.39-3.18,5.14,5.14,0,0,0-4.36.54c-2.2,1.4-3.54,3.9-4,7.44a79,79,0,0,0-.27,12c.19,5.58.31,9.26-2.43,10.58-2.33,1.12-4.82-.59-6.95-2.4C11.38,28.89,8.48,28.7,7.68,29c-.88.91-3.1,3.75-2.8,6,.84,6.29,11.2,11.22,15.6,12.78Z"/><path class="b5ccaf9d-fd62-4b19-86e7-56a9eb4ebe93" d="M37.61,47.71l2.62.13c20,1,28.84,16.63,24.17,28.23L41.25,133.45c-2.18,5.41-10.84,5.14-12.72-.4L8.45,74C4.31,61.88,15.68,46.66,37.61,47.71Z"/><path class="a0940189-7637-4e1c-b2c5-58a1bfcdabee" d="M35,139.79h-.29a9,9,0,0,1-8.51-5.95l-20.08-59c-2.06-6-.83-12.69,3.35-18.24,5.84-7.75,16.12-11.86,28.22-11.28h0l2.63.13C50.93,45.93,59.74,50.5,64.53,58a20.92,20.92,0,0,1,2.12,19L43.5,134.36A8.93,8.93,0,0,1,35,139.79Zm.44-89.7c-9.57,0-17.55,3.37-22.1,9.4-3.2,4.25-4.16,9.26-2.63,13.76l20.09,59a4.19,4.19,0,0,0,4,2.66A4.1,4.1,0,0,0,39,132.55L62.14,75.16a16,16,0,0,0-1.7-14.57c-3.92-6.13-11.33-9.89-20.33-10.33l-2.62-.12C36.81,50.11,36.14,50.09,35.47,50.09Z"/><path class="a0940189-7637-4e1c-b2c5-58a1bfcdabee" d="M11.4,80a1.62,1.62,0,0,1-1.18-2.73c.19-.2,4.81-5,15-5.48A1.62,1.62,0,1,1,25.36,75c-8.88.43-12.75,4.43-12.79,4.47A1.58,1.58,0,0,1,11.4,80Z"/><path class="a0940189-7637-4e1c-b2c5-58a1bfcdabee" d="M15.56,89.27a1.6,1.6,0,0,1-1.36-2.45c.29-.45,3.2-4.44,15.93-4.44h.23a1.62,1.62,0,0,1,0,3.23,1.59,1.59,0,0,0-.22,0c-10.8,0-13.22,3-13.24,3A1.7,1.7,0,0,1,15.56,89.27Z"/><path class="a0940189-7637-4e1c-b2c5-58a1bfcdabee" d="M59,88a1.6,1.6,0,0,1-1.2-.54A23,23,0,0,0,42,80.22h0a1.62,1.62,0,0,1,0-3.23,25.71,25.71,0,0,1,18.27,8.28A1.62,1.62,0,0,1,59,88Z"/><path class="a0940189-7637-4e1c-b2c5-58a1bfcdabee" d="M56.51,98.25a1.58,1.58,0,0,1-1-.39c-7.38-6.29-13.81-5.51-13.88-5.5a1.62,1.62,0,1,1-.43-3.21c.32,0,7.94-1,16.41,6.25a1.62,1.62,0,0,1,.18,2.28A1.59,1.59,0,0,1,56.51,98.25Z"/><path class="a0940189-7637-4e1c-b2c5-58a1bfcdabee" d="M51,110a1.6,1.6,0,0,1-1.2-.54c-6.49-7.2-13.75-6.4-13.82-6.39a1.62,1.62,0,0,1-.4-3.21c.37,0,9-1,16.62,7.43A1.62,1.62,0,0,1,52,109.6,1.6,1.6,0,0,1,51,110Z"/><path class="b78f5e84-8ac6-433b-a587-64b15ec32cf9" d="M17.93,68.94c-.57-3.14,3-9,6.41-9.21,2.59-.15,2.61-4.2,0-4C18,56.07,13,64.1,14,70c.45,2.56,4.35,1.47,3.9-1.08Z"/><path class="b4302eb1-bb9d-44ce-bca5-971c3c22cb94" d="M31.5,12.52c2.66,7,1.86,14.54,3.14,21.79.46,2.61,4.44,1.5,4-1.1-1.29-7.29-.46-14.76-3.14-21.79-.93-2.46-4.93-1.39-4,1.1Z"/><path class="b4302eb1-bb9d-44ce-bca5-971c3c22cb94" d="M61.66,25.14C61.23,31.51,60.17,38,55.91,43c-1.72,2,1.19,4.94,2.91,2.92,5-5.92,6.46-13.27,7-20.82.18-2.65-4-2.64-4.13,0Z"/><path class="b4302eb1-bb9d-44ce-bca5-971c3c22cb94" d="M9.09,36.22a48.9,48.9,0,0,0,10.26,8.14c2.29,1.36,4.37-2.21,2.08-3.57A44.24,44.24,0,0,1,12,33.3c-1.84-1.92-4.76,1-2.92,2.92Z"/></g></g></svg>