<svg xmlns="http://www.w3.org/2000/svg" viewBox="0 0 76.11 155.63"><defs><style>.ba3fae71-2eee-4df4-bcb5-28a3a87eba64{fill:#4ea549;}.f1464737-7de6-4641-9414-9bb5062f1176{fill:#40220f;}.ab674eb0-398a-4232-9947-edbaebf83b5d{fill:#e7310e;}.a574a2fc-6e5f-4e25-ae19-a9f95556f49b{fill:#ed6c00;}.a10663b8-050d-4df3-929b-be1c64aa260a{fill:#95c96e;}</style></defs><title>紅3</title><g id="a46bf8f2-2f92-41c7-84a5-f0b3b1fd288a" data-name="圖層 2"><g id="bfbbd4ec-ac2d-4966-a2a4-74a20595731e" data-name="圖層 1"><path class="ba3fae71-2eee-4df4-bcb5-28a3a87eba64" d="M20.41,63.39S3.76,57.06,2.79,45.23c-.43-5.17,4.06-10.49,4.06-10.49S10.41,30.85,19,39.82s4.31-6.77,6.44-23.69c.79-6.21,3-9.75,5.53-11.75,4.28-3.4,9.83-1.21,11.5,4.39l1.3,4.35a23.94,23.94,0,0,1,1,7.68l0,15.45c-.06,2,2.07,6.22,3.73,6.22a3.28,3.28,0,0,0,2.71-.9c3.43-2.32,5.69-3.52,6.54-15.4S72.58,16,73.22,25.92A54.61,54.61,0,0,1,59.43,66.6L44.08,62.1Z"/><path class="f1464737-7de6-4641-9414-9bb5062f1176" d="M60.33,69.74,43.76,64.88,20,66.18,19.43,66C18.68,65.68,1.14,58.87,0,45.46-.47,39.33,4.21,33.6,4.74,33a6.14,6.14,0,0,1,4.47-1.82h.1c3.45,0,7.39,2.28,11.7,6.77.31.32.58.59.82.81.17-1.78.16-4.57.16-6.95a125.17,125.17,0,0,1,.74-16c.78-6.16,3-10.72,6.54-13.56A9.53,9.53,0,0,1,38.14.42a11,11,0,0,1,7,7.56l1.3,4.34a26.59,26.59,0,0,1,1.08,8.57l0,15.36A7.33,7.33,0,0,0,49,39.71l.63-.43.3-.19c2.78-1.88,4.31-2.91,5-13.12.53-7.52,5.51-10.88,10.22-10.88h0A11,11,0,0,1,76,25.74a57.06,57.06,0,0,1-14.49,42.7ZM44.4,59.32l14.11,4.13a51.64,51.64,0,0,0,12-37.35c-.23-3.6-2.82-5.49-5.26-5.49h0c-2.7,0-4.46,2.15-4.72,5.76C59.6,38.63,57.07,40.93,53,43.66l-.28.2a5.83,5.83,0,0,1-4.27,1.37,4.68,4.68,0,0,1-3.36-1.62A12,12,0,0,1,42,36.16L42,20.8a21.24,21.24,0,0,0-.85-6.89l-1.3-4.34a5.54,5.54,0,0,0-3.36-3.88,4,4,0,0,0-3.78.85c-2.4,1.91-3.91,5.25-4.51,9.94a121.51,121.51,0,0,0-.68,15.29c0,7.62,0,11.82-3.27,13.14-2.66,1.07-5.14-1-7.23-3.18-4.81-5-7.53-5.3-8.24-5-1,1.31-3.5,5.11-3.24,8.27.65,8,10.82,13.74,15.32,15.59Z"/><path class="ab674eb0-398a-4232-9947-edbaebf83b5d" d="M38.24,61.39l2.69.13c20.48,1,29.52,17,24.73,28.9L42,149.14c-2.23,5.54-11.09,5.26-13-.41L8.4,88.32C4.17,75.89,15.8,60.31,38.24,61.39Z"/><path class="f1464737-7de6-4641-9414-9bb5062f1176" d="M35.6,155.63h-.29a9.24,9.24,0,0,1-8.71-6.08L6,89.12c-2.1-6.17-.85-13,3.43-18.66,6-7.94,16.51-12.15,28.89-11.55l2.69.13c10.83.52,19.85,5.21,24.75,12.85A21.41,21.41,0,0,1,68,91.34L44.27,150.07A9.13,9.13,0,0,1,35.6,155.63Zm.46-91.8c-9.8,0-18,3.45-22.62,9.62-3.28,4.35-4.26,9.48-2.69,14.07L31.3,147.93a4.31,4.31,0,0,0,4.14,2.73,4.24,4.24,0,0,0,4.23-2.45L63.36,89.49a16.47,16.47,0,0,0-1.75-14.92C57.59,68.3,50,64.45,40.81,64l-2.69-.12C37.42,63.84,36.74,63.83,36.06,63.83Z"/><path class="f1464737-7de6-4641-9414-9bb5062f1176" d="M11.42,94.39a1.63,1.63,0,0,1-1.14-.46,1.65,1.65,0,0,1-.07-2.33c.2-.2,4.93-5.1,15.34-5.61a1.66,1.66,0,0,1,.16,3.31c-9,.44-13,4.54-13.09,4.58A1.68,1.68,0,0,1,11.42,94.39Z"/><path class="f1464737-7de6-4641-9414-9bb5062f1176" d="M15.68,103.93a1.59,1.59,0,0,1-.93-.3,1.62,1.62,0,0,1-.47-2.21c.3-.47,3.28-4.55,16.31-4.55h.23a1.66,1.66,0,0,1,0,3.31h-.23c-11,0-13.53,3-13.56,3.08A1.71,1.71,0,0,1,15.68,103.93Z"/><path class="f1464737-7de6-4641-9414-9bb5062f1176" d="M60.13,102.59A1.61,1.61,0,0,1,58.9,102a23.39,23.39,0,0,0-16.19-7.37h0a1.66,1.66,0,0,1,0-3.32,26.39,26.39,0,0,1,18.7,8.48,1.64,1.64,0,0,1-.13,2.33A1.61,1.61,0,0,1,60.13,102.59Z"/><path class="f1464737-7de6-4641-9414-9bb5062f1176" d="M57.59,113.12a1.66,1.66,0,0,1-1.08-.4c-7.55-6.45-14.13-5.64-14.2-5.63a1.65,1.65,0,1,1-.44-3.28c.33,0,8.13-1,16.8,6.39a1.66,1.66,0,0,1-1.08,2.92Z"/><path class="f1464737-7de6-4641-9414-9bb5062f1176" d="M51.9,125.16a1.64,1.64,0,0,1-1.23-.55c-6.59-7.31-13.85-6.57-14.15-6.54a1.66,1.66,0,0,1-.4-3.29c.37,0,9.22-1,17,7.61a1.66,1.66,0,0,1-.13,2.34A1.61,1.61,0,0,1,51.9,125.16Z"/><path class="a574a2fc-6e5f-4e25-ae19-a9f95556f49b" d="M18.1,83.12c-.58-3.22,3-9.21,6.57-9.42,2.64-.16,2.66-4.31,0-4.14C18.19,70,13,78.16,14.11,84.22c.47,2.62,4.46,1.51,4-1.1Z"/><path class="a10663b8-050d-4df3-929b-be1c64aa260a" d="M33.73,13a202.23,202.23,0,0,1,1.35,27c0,2.66,4.09,2.66,4.13,0A202.23,202.23,0,0,0,37.86,13c-.3-2.6-4.44-2.63-4.13,0Z"/><path class="a10663b8-050d-4df3-929b-be1c64aa260a" d="M65,27.42c-2.11,9.74-4.34,19.35-9.41,28-1.35,2.3,2.22,4.38,3.56,2.09,5.25-9,7.64-18.95,9.83-29,.56-2.59-3.42-3.7-4-1.1Z"/><path class="a10663b8-050d-4df3-929b-be1c64aa260a" d="M9.17,46.67a45.22,45.22,0,0,0,12.68,10.6c2.31,1.31,4.39-2.25,2.08-3.56a42.16,42.16,0,0,1-11.84-10c-1.69-2-4.6.88-2.92,2.92Z"/></g></g></svg>