<svg xmlns="http://www.w3.org/2000/svg" viewBox="0 0 67.62 129.15"><defs><style>.a64ca415-c945-433e-b9f6-4b33d9e21251{fill:#4ea549;}.a2b3dad4-33ff-4189-a479-0a58545136b5{fill:#40220f;}.ad086d1a-25b7-41b7-845f-7fb5a6c6477d{fill:#e7310e;}.ecbcf883-426e-42f8-a723-57d9b865e471{fill:#ed6c00;}.eb626f0a-c73b-4721-b77b-a481d185f501{fill:#95c96e;}</style></defs><title>紅4</title><g id="ac566ec5-f462-47e5-9908-24c4f5ef0131" data-name="圖層 2"><g id="a1f06a28-3530-47fc-8d55-0f5184230384" data-name="圖層 1"><path class="a64ca415-c945-433e-b9f6-4b33d9e21251" d="M18.57,46.41s-15.12-5-16.28-13.76C1.78,28.85,5.69,25,5.69,25s3.1-2.77,11.06,4S20.46,24.2,22,11.82c.55-4.54,2.48-7.09,4.69-8.49a7.16,7.16,0,0,1,10.44,3.5l1.28,3.22a15.26,15.26,0,0,1,1.06,5.67l.35,11.34c0,1.5,2,4.62,3.5,4.66a3.23,3.23,0,0,0,2.42-.59c3-1.63,5-2.45,5.51-11.16s13.11-7.14,13.93.2c1.48,13.32-4.46,23.18-11.42,29.54L39.83,46Z"/><path class="a2b3dad4-33ff-4189-a479-0a58545136b5" d="M54.35,52.19,39.56,48.28l-21.34.38-.36-.12C17.19,48.31,1.39,42.93.07,33c-.64-4.79,3.57-9,4.06-9.51.83-.75,5.09-3.75,14.08,3.92a13,13,0,0,0,1.29,1c.1-1.24,0-3.28,0-5a75.17,75.17,0,0,1,.27-11.82c.57-4.66,2.49-8.07,5.71-10.11a9.23,9.23,0,0,1,7.83-1A9.48,9.48,0,0,1,39.2,6l1.27,3.22a17,17,0,0,1,1.22,6.51L42,27a5.15,5.15,0,0,0,1.54,2.5,3.47,3.47,0,0,0,.46,0l.62-.34.26-.14c2.44-1.3,3.67-2,4.07-9.16a8.16,8.16,0,0,1,8.25-8c4.57-.13,9.57,2.87,10.15,8.12,1.32,11.93-3,23.09-12.14,31.44ZM40.1,43.79l13,3.43c5.47-5.31,11.24-14.08,9.82-26.81-.3-2.67-3.15-4.23-5.57-4.13a3.69,3.69,0,0,0-3.9,3.82C53,29.16,50.7,31,47,33l-.25.13a5.32,5.32,0,0,1-3.54.86c-3.14-.09-5.7-4.63-5.68-6.92L37.2,15.79a12.94,12.94,0,0,0-.9-4.91L35,7.66A5,5,0,0,0,31.9,4.72a4.69,4.69,0,0,0-4,.5c-2,1.29-3.27,3.61-3.67,6.87A71.93,71.93,0,0,0,24,23.22c.17,5.15.28,8.55-2.25,9.77-2.15,1-4.45-.54-6.42-2.22-4.78-4.08-7.45-4.26-8.2-4-.81.85-2.86,3.46-2.58,5.54.77,5.82,10.34,10.37,14.41,11.81Z"/><path class="ad086d1a-25b7-41b7-845f-7fb5a6c6477d" d="M34.74,44.08l2.43.12c18.49.89,26.65,15.36,22.32,26.08l-21.38,53c-2,5-10,4.75-11.75-.37L7.8,68.39C4,57.17,14.48,43.1,34.74,44.08Z"/><path class="a2b3dad4-33ff-4189-a479-0a58545136b5" d="M32.36,129.15h-.27a8.34,8.34,0,0,1-7.86-5.49L5.68,69.11A18.09,18.09,0,0,1,8.77,52.26c5.4-7.16,14.92-11,26.08-10.42h0l2.42.12c9.78.47,17.93,4.7,22.35,11.6a19.31,19.31,0,0,1,2,17.56l-21.38,53A8.27,8.27,0,0,1,32.36,129.15Zm.41-82.88c-8.85,0-16.22,3.12-20.41,8.69A13.68,13.68,0,0,0,9.92,67.67L28.48,122.2a3.9,3.9,0,0,0,3.74,2.46A3.79,3.79,0,0,0,36,122.45l21.38-53A14.81,14.81,0,0,0,55.84,56c-3.63-5.67-10.47-9.14-18.78-9.54l-2.43-.12C34,46.29,33.38,46.27,32.77,46.27Z"/><path class="a2b3dad4-33ff-4189-a479-0a58545136b5" d="M10.53,73.87a1.48,1.48,0,0,1-1-.42,1.49,1.49,0,0,1-.06-2.1c.18-.19,4.45-4.61,13.85-5.07a1.5,1.5,0,0,1,.14,3c-8.11.4-11.78,4.1-11.82,4.14A1.52,1.52,0,0,1,10.53,73.87Z"/><path class="a2b3dad4-33ff-4189-a479-0a58545136b5" d="M14.38,82.47a1.42,1.42,0,0,1-.84-.26,1.46,1.46,0,0,1-.42-2c.27-.42,2.93-4.17,14.93-4.11a1.5,1.5,0,1,1,0,3,1.47,1.47,0,0,0-.21,0c-10,0-12.21,2.76-12.23,2.78A1.54,1.54,0,0,1,14.38,82.47Z"/><path class="a2b3dad4-33ff-4189-a479-0a58545136b5" d="M54.5,81.27a1.48,1.48,0,0,1-1.11-.5,21.23,21.23,0,0,0-14.61-6.66h0a1.49,1.49,0,0,1,0-3,23.69,23.69,0,0,1,16.88,7.64,1.5,1.5,0,0,1-1.11,2.5Z"/><path class="a2b3dad4-33ff-4189-a479-0a58545136b5" d="M52.21,90.77a1.5,1.5,0,0,1-1-.36c-6.74-5.75-12.59-5.11-12.83-5.08a1.49,1.49,0,0,1-.39-3c.29,0,7.34-.91,15.16,5.77a1.5,1.5,0,0,1,.17,2.11A1.52,1.52,0,0,1,52.21,90.77Z"/><path class="a2b3dad4-33ff-4189-a479-0a58545136b5" d="M47.07,101.64a1.48,1.48,0,0,1-1.11-.5c-6-6.65-12.7-5.91-12.77-5.9a1.5,1.5,0,0,1-.36-3c.33,0,8.33-.92,15.35,6.87a1.5,1.5,0,0,1-1.11,2.5Z"/><path class="ecbcf883-426e-42f8-a723-57d9b865e471" d="M16.56,63.69c-.52-2.9,2.74-8.31,5.93-8.5,2.39-.15,2.4-3.89,0-3.74C16.64,51.8,12,59.21,13,64.69c.42,2.36,4,1.36,3.6-1Z"/><path class="eb626f0a-c73b-4721-b77b-a481d185f501" d="M29.25,10.57a51.3,51.3,0,0,1,1.92,19.05c-.22,2.64,3.91,2.63,4.13,0A54.67,54.67,0,0,0,33.23,9.47c-.75-2.54-4.74-1.46-4,1.1Z"/><path class="eb626f0a-c73b-4721-b77b-a481d185f501" d="M56.76,22a22,22,0,0,1-5.67,17.54c-1.8,2,1.11,4.88,2.92,2.92A26.05,26.05,0,0,0,60.89,22c-.27-2.62-4.4-2.65-4.13,0Z"/><path class="eb626f0a-c73b-4721-b77b-a481d185f501" d="M6.43,32.62a27.18,27.18,0,0,0,11.71,8.85c2.47,1,3.55-3,1.1-4a22,22,0,0,1-9.24-7c-1.6-2.07-5.19,0-3.57,2.08Z"/></g></g></svg>