<svg xmlns="http://www.w3.org/2000/svg" viewBox="0 0 67.62 129.15"><defs><style>.ad24873a-f96c-4bdc-9336-076d064c2bfe{fill:#4ea549;}.a0391a7a-fa23-44d6-947c-5870cb29622a{fill:#40220f;}.b472d2ef-22ee-451e-9f86-d5d1b61654d8{fill:#e7310e;}.ef9a3626-0718-41ef-a76b-9fe0c7210129{fill:#ed6c00;}.afe12081-a86a-406f-a82f-aca86781de94{fill:#315520;}</style></defs><title>紅6</title><g id="b828b010-0019-4255-9bb7-7c795bc62653" data-name="圖層 2"><g id="ac31d3aa-63d5-4ede-9ac1-302ee8cdfc36" data-name="圖層 1"><path class="ad24873a-f96c-4bdc-9336-076d064c2bfe" d="M18.57,46.41s-15.12-5-16.28-13.76C1.78,28.85,5.69,25,5.69,25s3.1-2.77,11.06,4S20.46,24.2,22,11.82c.55-4.54,2.47-7.09,4.68-8.49a7.17,7.17,0,0,1,10.45,3.5l1.28,3.22a15.05,15.05,0,0,1,1,5.67l.36,11.34c0,1.5,2,4.62,3.5,4.66a3.23,3.23,0,0,0,2.42-.59c3-1.63,5-2.45,5.5-11.16s13.12-7.14,13.94.2c1.48,13.32-4.46,23.18-11.42,29.54L39.83,46Z"/><path class="a0391a7a-fa23-44d6-947c-5870cb29622a" d="M54.34,52.19,39.56,48.28l-21.34.38-.36-.12C17.19,48.31,1.39,42.93.07,33c-.64-4.79,3.57-9,4.06-9.51.83-.75,5.08-3.75,14.07,3.92a14.16,14.16,0,0,0,1.3,1c.1-1.24,0-3.28,0-5a75.07,75.07,0,0,1,.27-11.81c.57-4.66,2.49-8.07,5.71-10.11a9.23,9.23,0,0,1,7.83-1A9.48,9.48,0,0,1,39.2,6l1.27,3.22a17.07,17.07,0,0,1,1.22,6.51L42,27a5.15,5.15,0,0,0,1.54,2.5c.2,0,.34,0,.46,0l.62-.34.25-.14c2.45-1.3,3.68-2,4.08-9.16a8.16,8.16,0,0,1,8.24-8c4.48-.12,9.57,2.87,10.16,8.12,1.32,11.92-3,23.09-12.14,31.44ZM40.1,43.79l13,3.43c5.47-5.31,11.24-14.08,9.82-26.81-.3-2.67-3-4.21-5.57-4.13a3.69,3.69,0,0,0-3.9,3.82C53,29.16,50.7,31,47,33l-.25.13a5.25,5.25,0,0,1-3.54.86c-3.14-.09-5.7-4.63-5.68-6.91L37.2,15.79a12.94,12.94,0,0,0-.9-4.91L35,7.66A5,5,0,0,0,31.9,4.72a4.76,4.76,0,0,0-4,.5c-2,1.29-3.27,3.61-3.67,6.88A71.67,71.67,0,0,0,24,23.21c.17,5.16.28,8.56-2.25,9.78-2.15,1-4.46-.54-6.42-2.22-4.78-4.08-7.45-4.26-8.2-4-.81.84-2.86,3.46-2.58,5.55.78,5.83,10.34,10.37,14.41,11.8Z"/><path class="b472d2ef-22ee-451e-9f86-d5d1b61654d8" d="M34.74,44.08l2.43.12c18.48.89,26.64,15.36,22.32,26.08l-21.38,53c-2,5-10,4.75-11.76-.37L7.8,68.39C4,57.17,14.48,43.1,34.74,44.08Z"/><path class="a0391a7a-fa23-44d6-947c-5870cb29622a" d="M32.36,129.15h-.27a8.34,8.34,0,0,1-7.86-5.5L5.68,69.11c-1.9-5.57-.77-11.71,3.09-16.85,5.4-7.16,14.92-11,26.08-10.42l2.42.12c9.78.47,17.92,4.7,22.35,11.6a19.31,19.31,0,0,1,2,17.56l-21.38,53A8.25,8.25,0,0,1,32.36,129.15Zm.41-82.88c-8.85,0-16.22,3.12-20.42,8.69A13.71,13.71,0,0,0,9.92,67.67L28.48,122.2a3.89,3.89,0,0,0,3.74,2.46A3.84,3.84,0,0,0,36,122.45l21.38-53A14.81,14.81,0,0,0,55.84,56c-3.63-5.67-10.47-9.14-18.78-9.54l-2.43-.12C34,46.29,33.38,46.27,32.77,46.27Z"/><path class="a0391a7a-fa23-44d6-947c-5870cb29622a" d="M10.53,73.87a1.48,1.48,0,0,1-1-.42,1.49,1.49,0,0,1-.06-2.1c.18-.19,4.45-4.61,13.85-5.07a1.52,1.52,0,0,1,1.56,1.42,1.49,1.49,0,0,1-1.42,1.57c-8.11.4-11.78,4.1-11.82,4.14A1.52,1.52,0,0,1,10.53,73.87Z"/><path class="a0391a7a-fa23-44d6-947c-5870cb29622a" d="M14.38,82.47a1.42,1.42,0,0,1-.84-.26,1.47,1.47,0,0,1-.43-2c.27-.42,3-4.11,14.72-4.11h.22a1.5,1.5,0,1,1,0,3h-.21c-10,0-12.21,2.76-12.23,2.78A1.54,1.54,0,0,1,14.38,82.47Z"/><path class="a0391a7a-fa23-44d6-947c-5870cb29622a" d="M54.5,81.27a1.48,1.48,0,0,1-1.11-.5,21,21,0,0,0-14.61-6.66h0a1.5,1.5,0,0,1,0-3,23.68,23.68,0,0,1,16.88,7.64,1.5,1.5,0,0,1-1.11,2.5Z"/><path class="a0391a7a-fa23-44d6-947c-5870cb29622a" d="M52.21,90.77a1.48,1.48,0,0,1-1-.36c-6.75-5.76-12.59-5.11-12.83-5.08a1.5,1.5,0,0,1-.39-3c.29,0,7.34-.9,15.16,5.78a1.5,1.5,0,0,1-1,2.63Z"/><path class="a0391a7a-fa23-44d6-947c-5870cb29622a" d="M47.07,101.64a1.48,1.48,0,0,1-1.11-.5c-6-6.59-12.5-5.93-12.77-5.9a1.5,1.5,0,0,1-.36-3c.33,0,8.33-.92,15.35,6.87a1.5,1.5,0,0,1-1.11,2.5Z"/><path class="ef9a3626-0718-41ef-a76b-9fe0c7210129" d="M16.56,63.69c-.52-2.9,2.74-8.31,5.93-8.5,2.39-.15,2.4-3.89,0-3.74C16.64,51.8,12,59.21,13,64.69c.42,2.36,4,1.36,3.6-1Z"/><path class="afe12081-a86a-406f-a82f-aca86781de94" d="M28.92,9.38c1.89,5.43,2.16,11,2.32,16.74.07,2.65,4.2,2.66,4.12,0-.17-6.05-.45-12.07-2.45-17.84-.87-2.5-4.86-1.42-4,1.1Z"/><path class="afe12081-a86a-406f-a82f-aca86781de94" d="M57,20.4c.16,6-2.24,13.65-5.95,18.29-1.64,2.06,1.26,5,2.92,2.92A34.68,34.68,0,0,0,61.17,20.4c-.07-2.65-4.2-2.66-4.13,0Z"/><path class="afe12081-a86a-406f-a82f-aca86781de94" d="M6.19,32.15a17.55,17.55,0,0,0,12,9.41c2.59.57,3.7-3.41,1.1-4a13.6,13.6,0,0,1-9.48-7.5c-1.17-2.39-4.73-.3-3.57,2.08Z"/></g></g></svg>