<svg xmlns="http://www.w3.org/2000/svg" xmlns:xlink="http://www.w3.org/1999/xlink" viewBox="0 0 333 47.82"><defs><style>.be9cd19b-f8ef-4dfa-849a-8e2083efd95f{fill:#fff;}.af164c19-a738-40c5-aeb1-6bbfe5c8cf4e{fill:url(#b4c7939a-7263-4243-9422-3263bc3c7206);}.b1577e0c-0e10-4cd9-80ea-87477a060d94{fill:#40220f;stroke:#40220f;stroke-linecap:round;stroke-linejoin:round;stroke-width:2.05px;}</style><radialGradient id="b4c7939a-7263-4243-9422-3263bc3c7206" cx="217.23" cy="23.91" r="83.59" gradientUnits="userSpaceOnUse"><stop offset="0" stop-color="#f2942c"/><stop offset="0.57" stop-color="#fdd14e"/><stop offset="0.91" stop-color="#f18a2c"/></radialGradient></defs><title>分數</title><g id="f0b6add0-1b4b-4272-9692-ee626782476a" data-name="圖層 2"><g id="f2b70bd6-5a63-4b6b-a864-592bf1b5e3db" data-name="圖層 1"><path class="be9cd19b-f8ef-4dfa-849a-8e2083efd95f" d="M3.91,39a110.15,110.15,0,0,0,5.6-16.1A53.71,53.71,0,0,0,4,24.13L3.4,21.85c-.24.48-.48,1-.72,1.48L0,22.21a80.21,80.21,0,0,0,5.61-14l2.71,1A76.48,76.48,0,0,1,3.83,21q1.49-.43,1.92-.54a65.67,65.67,0,0,1,17.18-1.57h2.14a5,5,0,0,1,2.68.68,3.44,3.44,0,0,1,1.77,2.54,69.37,69.37,0,0,1,.14,7.74A61.45,61.45,0,0,1,28.87,37a4.06,4.06,0,0,1-1.05,2.42,3.39,3.39,0,0,1-2.5.84q-3.33,0-9.11-.51v-3q5.24.54,8.06.54a2.1,2.1,0,0,0,1.2-.4A1.65,1.65,0,0,0,26,35.67a65.44,65.44,0,0,0,.72-6.51,43.76,43.76,0,0,0-.11-6,1.4,1.4,0,0,0-.5-1,3.54,3.54,0,0,0-1.52-.25H23.15a62.65,62.65,0,0,0-10.56.5A95.44,95.44,0,0,1,6.66,39.9ZM24.31,7.2q1.7,0,3.15,2.49c1.95,3.41,3.73,6.91,5.35,10.53l-2.75,1.12q-1.74-4.18-3.51-7.7c-1.18-2.29-2-3.44-2.46-3.44q-2,0-13.27,1.63l-.29-2.89Q22,7.2,24.31,7.2Z"/><path class="be9cd19b-f8ef-4dfa-849a-8e2083efd95f" d="M50.86,28H48V20.84h2.86v3.83h4.31V22.93c-1,.1-1.93.23-2.82.4L52,20.76a29.33,29.33,0,0,1,3.22-.47V19H51.3v.58H48.44V15.08h-1V12.52h1V9H51.3v3.55h3.87V11q-1.1.15-2.1.36l-.4-2.71a19.44,19.44,0,0,1,2.5-.43V7h3v1a19.37,19.37,0,0,1,2.31-.14,4.47,4.47,0,0,1,2.9.72,3.19,3.19,0,0,1,1.23,2.57v1.45h1.16v2.56H64.5c0,.56-.08,1.1-.11,1.63h.36V19H58.17v1c.92-.07,1.82-.1,2.71-.1a4.93,4.93,0,0,1,2.82.68,3.07,3.07,0,0,1,.8.94A55.89,55.89,0,0,0,66.67,15a43.94,43.94,0,0,0,1.19-8l2.75.22c-.07,1.23-.19,2.49-.36,3.8h10v3H78.93A72.2,72.2,0,0,1,74.7,26.44c-.1.2-.19.4-.29.62a80.66,80.66,0,0,0,6.51,11.86l-2.31,1.52a59.5,59.5,0,0,1-5.68-10q-2.61,5.49-5.14,9.87l-2.64-1.08A107.89,107.89,0,0,0,71.45,27c-1.21-2.84-2.25-5.51-3.12-8-.36,1.18-.73,2.31-1.12,3.4l-2.56-.58a4.13,4.13,0,0,1,.25,1.23,15.89,15.89,0,0,1-.15,1.59h.73v2.57H50.86Zm-1,10.75a2.91,2.91,0,0,1-1-2.5c.07-.77.19-1.74.36-2.89H47.53V30.46h2.1c.12-.6.23-1.23.33-1.88h3c-.12.65-.23,1.28-.32,1.88h7V28.65h3v1.81h3.25v2.86H62.66v2.31L65,35.16v3c-.84.12-1.64.27-2.38.44v1.81h-3V39.07a60.17,60.17,0,0,1-7.23.5A4,4,0,0,1,49.85,38.71ZM51.3,15.08v1.63h3.87V15.08Zm8.35,21.06V33.32H52.2c-.17,1-.26,1.74-.29,2.2a1.57,1.57,0,0,0,.15.83,1.07,1.07,0,0,0,.9.4A56.92,56.92,0,0,0,59.65,36.14Zm2-23.62v-.8a1.29,1.29,0,0,0-.22-.83,1.71,1.71,0,0,0-1-.29,21,21,0,0,0-2.17.11v1.81Zm-3.44,2.56v1.63h3.22c0-.55.08-1.09.11-1.63Zm3.62,9.59c.05-.31.08-.63.11-.94a1.78,1.78,0,0,0-.19-.8,1.66,1.66,0,0,0-1-.36c-.89,0-1.75,0-2.57.11v2ZM76,14H69.67A100.24,100.24,0,0,0,73,23.48,91.29,91.29,0,0,0,76,14Z"/><rect class="be9cd19b-f8ef-4dfa-849a-8e2083efd95f" x="103.52" y="2.06" width="227.42" height="43.71" rx="21.85"/><path class="af164c19-a738-40c5-aeb1-6bbfe5c8cf4e" d="M309.08,47.82H125.38a23.91,23.91,0,0,1-23.92-23.91h0A23.92,23.92,0,0,1,125.38,0h183.7A23.92,23.92,0,0,1,333,23.91h0A23.91,23.91,0,0,1,309.08,47.82ZM125.38,4.12a19.79,19.79,0,0,0-19.8,19.79h0a19.79,19.79,0,0,0,19.8,19.8h183.7a19.79,19.79,0,0,0,19.8-19.8h0a19.79,19.79,0,0,0-19.8-19.79Z"/><path class="b1577e0c-0e10-4cd9-80ea-87477a060d94" d="M166.11,24.64a11.8,11.8,0,0,1-1.85,6.66A5.33,5.33,0,0,1,159.78,34a5.5,5.5,0,0,1-4.92-2.53,11.67,11.67,0,0,1-1.48-6.33,17.89,17.89,0,0,1,.5-4.09,10,10,0,0,1,1.38-3.15.64.64,0,0,1,.57-.36c.51,0,.76.21.76.62a1.37,1.37,0,0,1-.21.68,10.53,10.53,0,0,0-1.09,2.82,15,15,0,0,0-.47,3.51,9.73,9.73,0,0,0,1.34,5.47,4.17,4.17,0,0,0,3.62,1.88,4.34,4.34,0,0,0,3.33-2.21,10.48,10.48,0,0,0,1.52-5.61,16.3,16.3,0,0,0-1-6.26,3.62,3.62,0,0,0-3.26-2.31,5.88,5.88,0,0,0-2.28.65,1.27,1.27,0,0,1-.61.25.64.64,0,0,1-.69-.61.77.77,0,0,1,.22-.62,6.38,6.38,0,0,1,3.36-1.19Q166.15,14.91,166.11,24.64Z"/><path class="b1577e0c-0e10-4cd9-80ea-87477a060d94" d="M188.33,24.64a11.79,11.79,0,0,1-1.84,6.66A5.35,5.35,0,0,1,182,34a5.5,5.5,0,0,1-4.92-2.53,11.67,11.67,0,0,1-1.48-6.33,17.93,17.93,0,0,1,.51-4.09,10,10,0,0,1,1.37-3.15.66.66,0,0,1,.58-.36c.51,0,.76.21.76.62a1.29,1.29,0,0,1-.22.68,10.57,10.57,0,0,0-1.08,2.82,14.53,14.53,0,0,0-.47,3.51,9.64,9.64,0,0,0,1.34,5.47A4.15,4.15,0,0,0,182,32.53a4.31,4.31,0,0,0,3.33-2.21,10.48,10.48,0,0,0,1.52-5.61,16.3,16.3,0,0,0-1-6.26,3.61,3.61,0,0,0-3.25-2.31,5.88,5.88,0,0,0-2.28.65,1.29,1.29,0,0,1-.62.25.63.63,0,0,1-.68-.61.8.8,0,0,1,.21-.62,6.42,6.42,0,0,1,3.37-1.19Q188.36,14.91,188.33,24.64Z"/><path class="b1577e0c-0e10-4cd9-80ea-87477a060d94" d="M210.56,24.64a11.8,11.8,0,0,1-1.85,6.66A5.33,5.33,0,0,1,204.23,34a5.5,5.5,0,0,1-4.92-2.53,11.67,11.67,0,0,1-1.48-6.33,17.89,17.89,0,0,1,.5-4.09,10,10,0,0,1,1.38-3.15.64.64,0,0,1,.57-.36c.51,0,.76.21.76.62a1.37,1.37,0,0,1-.21.68,10.53,10.53,0,0,0-1.09,2.82,15,15,0,0,0-.47,3.51,9.73,9.73,0,0,0,1.34,5.47,4.17,4.17,0,0,0,3.62,1.88,4.34,4.34,0,0,0,3.33-2.21,10.48,10.48,0,0,0,1.52-5.61,16.3,16.3,0,0,0-1-6.26,3.62,3.62,0,0,0-3.26-2.31,5.88,5.88,0,0,0-2.28.65A1.27,1.27,0,0,1,202,17a.64.64,0,0,1-.69-.61.77.77,0,0,1,.22-.62,6.38,6.38,0,0,1,3.36-1.19Q210.6,14.91,210.56,24.64Z"/><path class="b1577e0c-0e10-4cd9-80ea-87477a060d94" d="M231.48,28.62a5.56,5.56,0,0,1-1.34,3.91,4.92,4.92,0,0,1-3.9,1.48,6.41,6.41,0,0,1-3.91-1.41.92.92,0,0,1-.33-.72.67.67,0,0,1,.76-.76.93.93,0,0,1,.55.18,5.22,5.22,0,0,0,2.93,1.15c2.43,0,3.65-1.27,3.65-3.83a3.41,3.41,0,0,0-1.66-2.75A9.06,9.06,0,0,0,225,24.53c-.46-.09-.69-.34-.69-.72a.74.74,0,0,1,.76-.8q4.2-.44,4.2-3.9a2.93,2.93,0,0,0-.83-2.17,3,3,0,0,0-2.24-.8c-.8,0-2,.57-3.62,1.7a1,1,0,0,1-.51.18c-.5,0-.76-.26-.76-.8a.93.93,0,0,1,.4-.72,7.56,7.56,0,0,1,4.49-1.88,4.86,4.86,0,0,1,3.11,1,4.18,4.18,0,0,1,1.52,3.48,4.88,4.88,0,0,1-3.3,4.77,5.83,5.83,0,0,1,2.64,1.66A4.35,4.35,0,0,1,231.48,28.62Z"/><path class="b1577e0c-0e10-4cd9-80ea-87477a060d94" d="M255,24.64a11.8,11.8,0,0,1-1.85,6.66A5.33,5.33,0,0,1,248.68,34a5.5,5.5,0,0,1-4.92-2.53,11.67,11.67,0,0,1-1.48-6.33,17.89,17.89,0,0,1,.5-4.09,10,10,0,0,1,1.38-3.15.64.64,0,0,1,.58-.36c.5,0,.76.21.76.62a1.39,1.39,0,0,1-.22.68,10.53,10.53,0,0,0-1.09,2.82,15,15,0,0,0-.47,3.51,9.73,9.73,0,0,0,1.34,5.47,4.17,4.17,0,0,0,3.62,1.88A4.34,4.34,0,0,0,252,30.32a10.48,10.48,0,0,0,1.52-5.61,16.3,16.3,0,0,0-1-6.26,3.62,3.62,0,0,0-3.26-2.31,5.93,5.93,0,0,0-2.28.65,1.27,1.27,0,0,1-.61.25.64.64,0,0,1-.69-.61.77.77,0,0,1,.22-.62,6.38,6.38,0,0,1,3.36-1.19Q255.05,14.91,255,24.64Z"/><path class="b1577e0c-0e10-4cd9-80ea-87477a060d94" d="M277.23,24.64a11.79,11.79,0,0,1-1.84,6.66A5.35,5.35,0,0,1,270.9,34,5.5,5.5,0,0,1,266,31.48a11.67,11.67,0,0,1-1.48-6.33,17.93,17.93,0,0,1,.51-4.09,10.28,10.28,0,0,1,1.37-3.15.66.66,0,0,1,.58-.36c.51,0,.76.21.76.62a1.29,1.29,0,0,1-.22.68,10.92,10.92,0,0,0-1.08,2.82,14.53,14.53,0,0,0-.47,3.51,9.64,9.64,0,0,0,1.34,5.47,4.15,4.15,0,0,0,3.61,1.88,4.31,4.31,0,0,0,3.33-2.21,10.48,10.48,0,0,0,1.52-5.61,16.11,16.11,0,0,0-1-6.26,3.61,3.61,0,0,0-3.25-2.31,5.88,5.88,0,0,0-2.28.65,1.29,1.29,0,0,1-.62.25.64.64,0,0,1-.68-.61.8.8,0,0,1,.21-.62,6.42,6.42,0,0,1,3.37-1.19Q277.27,14.91,277.23,24.64Z"/></g></g></svg>