<svg xmlns="http://www.w3.org/2000/svg" viewBox="0 0 70.55 106.16"><defs><style>.f693e20a-869b-4dfa-85fd-a5b176f0d142{fill:#3b8438;}.af3277c4-43df-4cd6-b788-af9cd26ce1a4{fill:#40220f;}.ee3ba9fb-0aa1-47c8-a157-4658f7298577{fill:#ffda0b;}.ea877363-f114-4731-b423-cc3cc4d1da9a{fill:#4ea549;}.bc86c754-76c7-4e04-9034-3c4f26ab9be8{fill:#f7ad00;}.a8d54fd8-ef93-4124-9861-b355ffd4a2da{fill:#729d55;}</style></defs><title>黃2</title><g id="a6d41630-5879-4b20-85b6-7d53ef1e20af" data-name="圖層 2"><g id="a5d02f49-676a-452d-9d93-5cd73ca5c3cf" data-name="圖層 1"><path class="f693e20a-869b-4dfa-85fd-a5b176f0d142" d="M20.6,42.77S6.66,38.12,5.6,30.09c-.47-3.51,3.13-7,3.13-7s2.86-2.55,10.19,3.71,3.43-4.49,4.82-15.89c.51-4.19,2.28-6.54,4.32-7.83a6.61,6.61,0,0,1,9.63,3.22l1.17,3a14,14,0,0,1,1,5.23l.33,10.45c0,1.38,1.84,4.25,3.22,4.29a3,3,0,0,0,2.23-.54c2.79-1.5,4.64-2.26,5.08-10.28s12.09-6.58,12.84.17C64.9,30.87,59.43,40,53,45.81L40.19,42.42Z"/><path class="af3277c4-43df-4cd6-b788-af9cd26ce1a4" d="M53.57,48.09l-13.63-3.6-19.66.35-.34-.11c-.61-.21-15.17-5.17-16.39-14.37C3,26,6.85,22,7.29,21.6c.77-.69,4.7-3.46,13,3.62a12.38,12.38,0,0,0,1.19.92c.09-1.14,0-3,0-4.61a70.44,70.44,0,0,1,.26-10.88C22.22,6.35,24,3.21,27,1.32a8.52,8.52,0,0,1,7.21-.9,8.74,8.74,0,0,1,5.45,5.11l1.18,3a16.21,16.21,0,0,1,1.12,6l.32,10.38a4.79,4.79,0,0,0,1.42,2.3c.18,0,.31,0,.43,0l.56-.32.24-.12c2.26-1.21,3.39-1.81,3.75-8.45a7.55,7.55,0,0,1,7.61-7.42c4.16-.14,8.81,2.65,9.35,7.49,1.22,11-2.75,21.28-11.19,29ZM40.44,40.35l12,3.17a29,29,0,0,0,9-24.71c-.27-2.46-2.76-3.89-5.13-3.8a3.38,3.38,0,0,0-3.59,3.51c-.46,8.36-2.55,10.06-5.94,11.86l-.23.13a5,5,0,0,1-3.26.79c-2.89-.08-5.25-4.27-5.23-6.38l-.33-10.37A11.8,11.8,0,0,0,36.94,10l-1.17-3a4.63,4.63,0,0,0-2.88-2.71,4.42,4.42,0,0,0-3.72.46c-1.87,1.19-3,3.32-3.38,6.34a66.52,66.52,0,0,0-.22,10.24c.15,4.75.26,7.89-2.08,9-2,1-4.1-.5-5.91-2-4.41-3.77-6.87-3.93-7.56-3.65-.74.78-2.63,3.19-2.38,5.11.72,5.35,9.54,9.55,13.29,10.88Z"/><path class="ee3ba9fb-0aa1-47c8-a157-4658f7298577" d="M68.77,62.48c0,14.84-15,41.91-33.5,41.91S1.78,77.32,1.78,62.48s15-26.87,33.49-26.87S68.77,47.64,68.77,62.48Z"/><path class="af3277c4-43df-4cd6-b788-af9cd26ce1a4" d="M35.27,106.16C14.9,106.16,0,77.43,0,62.48c0-15.8,15.82-28.65,35.27-28.65S70.55,46.68,70.55,62.48C70.55,77.43,55.65,106.16,35.27,106.16Zm0-68.78c-17.49,0-31.71,11.26-31.71,25.1,0,13.56,14.36,40.13,31.71,40.13S67,76,67,62.48C67,48.64,52.76,37.38,35.27,37.38Z"/><path class="ea877363-f114-4731-b423-cc3cc4d1da9a" d="M1.78,63.85s13.05-3.27,21.57-1.49"/><path class="af3277c4-43df-4cd6-b788-af9cd26ce1a4" d="M1.78,65.63a1.78,1.78,0,0,1-.43-3.5C1.9,62,14.9,58.78,23.71,60.62A1.78,1.78,0,1,1,23,64.1c-8-1.68-20.64,1.44-20.77,1.47A1.65,1.65,0,0,1,1.78,65.63Z"/><path class="ea877363-f114-4731-b423-cc3cc4d1da9a" d="M6.91,80.32S20,77.05,28.48,78.83"/><path class="af3277c4-43df-4cd6-b788-af9cd26ce1a4" d="M6.91,82.1a1.78,1.78,0,0,1-.43-3.5C7,78.46,20,75.25,28.84,77.09a1.78,1.78,0,0,1-.72,3.48c-8-1.68-20.65,1.45-20.78,1.48A2.1,2.1,0,0,1,6.91,82.1Z"/><path class="ea877363-f114-4731-b423-cc3cc4d1da9a" d="M45.78,71s13.31-2,21.61.59"/><path class="af3277c4-43df-4cd6-b788-af9cd26ce1a4" d="M67.39,73.35a2,2,0,0,1-.53-.08c-7.81-2.44-20.69-.55-20.82-.54a1.76,1.76,0,0,1-2-1.49,1.78,1.78,0,0,1,1.49-2c.57-.08,13.82-2,22.41.65a1.78,1.78,0,0,1-.53,3.48Z"/><path class="bc86c754-76c7-4e04-9034-3c4f26ab9be8" d="M48.94,51.09A14.28,14.28,0,0,1,59.32,60c.91,2.47,4.91,1.41,4-1.1A18.51,18.51,0,0,0,50,47.11c-2.59-.59-3.69,3.39-1.1,4Z"/><path class="a8d54fd8-ef93-4124-9861-b355ffd4a2da" d="M28,8.84a38,38,0,0,0,.88,17.32c.73,2.54,4.72,1.46,4-1.1A33.24,33.24,0,0,1,32,9.93c.45-2.59-3.53-3.71-4-1.09Z"/><path class="a8d54fd8-ef93-4124-9861-b355ffd4a2da" d="M55.2,20.39c.48,4.36-1.05,9.18-2.46,13.27-.87,2.51,3.12,3.59,4,1.09,1.53-4.4,3.13-9.65,2.61-14.36-.29-2.62-4.42-2.65-4.13,0Z"/><path class="a8d54fd8-ef93-4124-9861-b355ffd4a2da" d="M9.5,30.53a30.45,30.45,0,0,0,6.76,5.69c2.27,1.4,4.34-2.17,2.09-3.57a26.21,26.21,0,0,1-5.93-5c-1.76-2-4.67.93-2.92,2.91Z"/></g></g></svg>