<svg xmlns="http://www.w3.org/2000/svg" viewBox="0 0 84.06 126.5"><defs><style>.e7b7df1d-3a8a-4bce-80b3-5e0abe48035b{fill:#3b8438;}.f01f22c6-6018-4bde-9a50-604ad3bd98bf{fill:#40220f;}.bf3d058a-a097-4840-8e49-ed39e3bbe598{fill:#ffda0b;}.adbbeb6b-5c5f-4145-95ae-9b1ff8cb8437{fill:#4ea549;}.ac2ed7a3-b919-4fc5-bfc2-b8fcd703f587{fill:#f7ad00;}.b605b6b8-9eb7-4a24-a61a-fef2f2849ecf{fill:#729d55;}</style></defs><title>黃3</title><g id="a0eef909-9712-42c3-a87f-cdaceb6952a9" data-name="圖層 2"><g id="f8828c27-d853-4862-9201-b2b08624e2c4" data-name="圖層 1"><path class="e7b7df1d-3a8a-4bce-80b3-5e0abe48035b" d="M24.54,51S7.94,45.42,6.67,35.85c-.56-4.18,3.73-8.35,3.73-8.35s3.41-3,12.15,4.42S26.62,26.57,28.29,13C28.9,8,31,5.2,33.44,3.65A7.88,7.88,0,0,1,44.91,7.5L46.31,11a16.55,16.55,0,0,1,1.16,6.22l.39,12.46c0,1.64,2.2,5.07,3.84,5.11a3.59,3.59,0,0,0,2.66-.65c3.32-1.78,5.52-2.69,6-12.25s14.4-7.84,15.3.21c1.63,14.64-4.9,25.47-12.55,32.44l-15.27-4Z"/><path class="f01f22c6-6018-4bde-9a50-604ad3bd98bf" d="M63.83,57.31,47.59,53l-23.43.41-.4-.13C23,53.05,5.69,47.14,4.23,36.18c-.7-5.26,3.93-9.93,4.46-10.45.91-.81,5.58-4.12,15.46,4.32a16,16,0,0,0,1.41,1.1c.12-1.36,0-3.6,0-5.49a83.07,83.07,0,0,1,.31-13c.62-5.12,2.73-8.86,6.26-11.1A10.14,10.14,0,0,1,40.71.5,10.45,10.45,0,0,1,47.2,6.59l1.4,3.54a19,19,0,0,1,1.33,7.15l.39,12.36A5.62,5.62,0,0,0,52,32.38h.51l.67-.37.29-.15c2.69-1.44,4-2.16,4.47-10.06A9,9,0,0,1,67,13c4.91-.15,10.5,3.15,11.14,8.91C79.61,35,74.88,47.23,64.82,56.4ZM48.19,48.08l14.28,3.77c6-5.83,12.35-15.46,10.79-29.43-.33-2.94-3.4-4.62-6.12-4.54a4,4,0,0,0-4.28,4.19c-.54,10-3,12-7.06,14.13l-.28.15a5.82,5.82,0,0,1-3.89.94c-3.44-.1-6.25-5.09-6.23-7.59L45,17.34a14.27,14.27,0,0,0-1-5.4l-1.4-3.53a5.5,5.5,0,0,0-3.43-3.22,5.22,5.22,0,0,0-4.43.54c-2.23,1.42-3.59,4-4,7.55a79.9,79.9,0,0,0-.27,12.21c.19,5.66.31,9.4-2.47,10.73-2.36,1.14-4.88-.59-7-2.43-6.12-5.23-8.89-4.47-8.91-4.45-.8.79-3.25,3.81-2.93,6.19.85,6.4,11.35,11.39,15.82,13Z"/><path class="bf3d058a-a097-4840-8e49-ed39e3bbe598" d="M81.94,74.45c0,17.68-17.87,49.93-39.91,49.93S2.12,92.13,2.12,74.45,20,42.43,42,42.43,81.94,56.76,81.94,74.45Z"/><path class="f01f22c6-6018-4bde-9a50-604ad3bd98bf" d="M42,126.5c-24.28,0-42-34.23-42-52C0,55.62,18.85,40.31,42,40.31s42,15.31,42,34.14C84.06,92.27,66.31,126.5,42,126.5Zm0-81.95C21.19,44.55,4.24,58,4.24,74.45c0,16.16,17.11,47.81,37.79,47.81S79.82,90.61,79.82,74.45C79.82,58,62.87,44.55,42,44.55Z"/><path class="adbbeb6b-5c5f-4145-95ae-9b1ff8cb8437" d="M2.12,76.08s15.55-3.9,25.7-1.78"/><path class="f01f22c6-6018-4bde-9a50-604ad3bd98bf" d="M2.12,78.2A2.12,2.12,0,0,1,1.6,74c.66-.17,16.15-4,26.65-1.8a2.11,2.11,0,0,1-.86,4.14c-9.57-2-24.61,1.73-24.76,1.77A2.22,2.22,0,0,1,2.12,78.2Z"/><path class="adbbeb6b-5c5f-4145-95ae-9b1ff8cb8437" d="M8.23,95.71s15.55-3.9,25.7-1.78"/><path class="f01f22c6-6018-4bde-9a50-604ad3bd98bf" d="M8.23,97.83a2.12,2.12,0,0,1-.51-4.17c.65-.17,16.14-4,26.64-1.8A2.11,2.11,0,0,1,33.5,96C24,94,8.9,97.73,8.74,97.76A1.79,1.79,0,0,1,8.23,97.83Z"/><path class="adbbeb6b-5c5f-4145-95ae-9b1ff8cb8437" d="M54.55,84.57s15.85-2.38,25.75.71"/><path class="f01f22c6-6018-4bde-9a50-604ad3bd98bf" d="M80.3,87.39a2.28,2.28,0,0,1-.63-.09c-9.31-2.91-24.66-.66-24.81-.63a2.12,2.12,0,1,1-.63-4.19c.67-.1,16.46-2.42,26.7.78a2.11,2.11,0,0,1-.63,4.13Z"/><path class="ac2ed7a3-b919-4fc5-bfc2-b8fcd703f587" d="M56.48,57.51A20.52,20.52,0,0,1,71.76,72.2c.7,2.56,4.68,1.47,4-1.1A24.69,24.69,0,0,0,57.57,53.52c-2.58-.6-3.68,3.38-1.09,4Z"/><path class="b605b6b8-9eb7-4a24-a61a-fef2f2849ecf" d="M12.08,37.47l6.09,5.19c2,1.72,4.94-1.19,2.92-2.92L15,34.55c-2-1.71-4.94,1.2-2.91,2.92Z"/><path class="b605b6b8-9eb7-4a24-a61a-fef2f2849ecf" d="M36.6,10.11a91.33,91.33,0,0,1,1.73,21.06c-.09,2.66,4,2.66,4.13,0A96.41,96.41,0,0,0,40.59,9c-.53-2.6-4.51-1.5-4,1.1Z"/><path class="b605b6b8-9eb7-4a24-a61a-fef2f2849ecf" d="M67.26,23c-.76,6.09-1.66,12.15-4.73,17.57-1.31,2.32,2.26,4.4,3.57,2.09C69.53,36.6,70.53,29.84,71.39,23c.33-2.63-3.8-2.61-4.13,0Z"/></g></g></svg>