<svg xmlns="http://www.w3.org/2000/svg" viewBox="0 0 65.35 123.89"><defs><style>.b5eefbc1-a6ab-4aef-a12c-b1b032ba86ed{fill:#3b8438;}.bd0a70a8-34fc-4514-b9a1-e774c2570b0a{fill:#40220f;}.b2986db8-ec69-48dc-b1e8-f23736d58690{fill:#ffda0b;}.b572d72e-9c01-4e62-bcfe-69de086dfe0d{fill:#4ea549;}.f502c622-7865-4ad4-bdd2-8141344db733{fill:#f7ad00;}.a2495da3-cfe8-4d3c-b2a1-0281a9b4e635{fill:#315520;}</style></defs><title>黃4</title><g id="baa69d05-6283-4718-a06e-e1ae31004cc4" data-name="圖層 2"><g id="a58eee7c-8b09-49b2-8133-298b44a3e775" data-name="圖層 1"><path class="b5eefbc1-a6ab-4aef-a12c-b1b032ba86ed" d="M18.37,43.76S4.14,39,3.05,30.81a5.55,5.55,0,0,1,.12-2,6.68,6.68,0,0,1,9.93-4,28.3,28.3,0,0,1,3.56,2.62c7.49,6.39,3.5-4.58,4.92-16.23.55-4.45,2.49-6.87,4.68-8.16a6.57,6.57,0,0,1,9.56,3.46l1.2,3a14.14,14.14,0,0,1,1,5.34l.33,10.67c0,1.41,1.89,4.35,3.3,4.39a3.08,3.08,0,0,0,2.27-.56c2.85-1.53,4.74-2.31,5.18-10.5s12.35-6.72,13.12.18C63.61,31.6,58,40.88,51.47,46.86L38.38,43.4Z"/><path class="bd0a70a8-34fc-4514-b9a1-e774c2570b0a" d="M52,49.19,38.12,45.52l-20.07.35-.34-.11C17.07,45.55,2.21,40.48,1,31.09a7.6,7.6,0,0,1,.15-2.75,8.45,8.45,0,0,1,5-5.88,8.92,8.92,0,0,1,8.06.56A29.24,29.24,0,0,1,18,25.83a13.33,13.33,0,0,0,1.22,1c.09-1.17,0-3.08,0-4.71A69.87,69.87,0,0,1,19.49,11c.69-5.67,3.48-8.41,5.7-9.71A8.5,8.5,0,0,1,32.38.47a9,9,0,0,1,5.41,5.27l1.2,3a16.25,16.25,0,0,1,1.14,6.12l.33,10.6a4.84,4.84,0,0,0,1.45,2.34,2.13,2.13,0,0,0,.44,0l.57-.31.25-.13c2.3-1.23,3.46-1.85,3.83-8.62a7.68,7.68,0,0,1,7.76-7.58c4.2-.11,9,2.7,9.55,7.64,1.25,11.22-2.8,21.73-11.42,29.59Zm-13.41-7.9,12.25,3.23a29.61,29.61,0,0,0,9.24-25.23c-.28-2.51-2.95-4-5.24-3.88A3.47,3.47,0,0,0,51.21,19c-.46,8.53-2.6,10.26-6.06,12.11l-.23.13a5,5,0,0,1-3.33.81c-3-.09-5.36-4.37-5.35-6.51l-.33-10.6a12.08,12.08,0,0,0-.85-4.62l-1.2-3A4.77,4.77,0,0,0,31,4.46a4.36,4.36,0,0,0-3.68.41c-2,1.2-3.26,3.42-3.65,6.6a68.31,68.31,0,0,0-.24,10.46c.16,4.85.27,8.05-2.11,9.2-2,1-4.19-.51-6-2.09A24.92,24.92,0,0,0,12,26.63a4.69,4.69,0,0,0-4.24-.28A4.22,4.22,0,0,0,5.23,29.3a3.32,3.32,0,0,0-.09,1.23c.73,5.47,9.74,9.76,13.57,11.11Z"/><path class="b2986db8-ec69-48dc-b1e8-f23736d58690" d="M63.63,63.88c0,15.16-13.84,58.29-30.91,58.29S1.81,79,1.81,63.88,15.65,36.44,32.72,36.44,63.63,48.73,63.63,63.88Z"/><path class="bd0a70a8-34fc-4514-b9a1-e774c2570b0a" d="M32.72,123.89c-19.09,0-32.63-45.5-32.63-60,0-16.08,14.64-29.16,32.63-29.16S65.35,47.8,65.35,63.88C65.35,78.39,51.81,123.89,32.72,123.89Zm0-85.72C16.63,38.17,3.54,49.7,3.54,63.88c0,15.85,13.87,56.56,29.18,56.56S61.9,79.73,61.9,63.88C61.9,49.7,48.81,38.17,32.72,38.17Z"/><path class="b572d72e-9c01-4e62-bcfe-69de086dfe0d" d="M1.81,65.28s10.67-3.34,19.37-1.52"/><path class="bd0a70a8-34fc-4514-b9a1-e774c2570b0a" d="M1.81,67.1a1.82,1.82,0,0,1-.54-3.55c.46-.14,11.23-3.46,20.28-1.57A1.81,1.81,0,0,1,23,64.13a1.79,1.79,0,0,1-2.14,1.4C12.69,63.84,2.46,67,2.36,67A2.09,2.09,0,0,1,1.81,67.1Z"/><path class="b572d72e-9c01-4e62-bcfe-69de086dfe0d" d="M5.79,81.78s11.93-3,20.63-1.2"/><path class="bd0a70a8-34fc-4514-b9a1-e774c2570b0a" d="M5.79,83.6A1.82,1.82,0,0,1,5.35,80c.5-.12,12.43-3.1,21.44-1.22A1.81,1.81,0,0,1,28.19,81a1.79,1.79,0,0,1-2.14,1.4c-8.18-1.71-19.7,1.16-19.81,1.19A1.74,1.74,0,0,1,5.79,83.6Z"/><path class="b572d72e-9c01-4e62-bcfe-69de086dfe0d" d="M44.08,72.56s10-2,18.5.6"/><path class="bd0a70a8-34fc-4514-b9a1-e774c2570b0a" d="M62.58,75A2,2,0,0,1,62,74.9c-7.94-2.48-17.5-.58-17.59-.56a1.82,1.82,0,0,1-.73-3.56c.43-.08,10.57-2.1,19.4.65A1.82,1.82,0,0,1,62.58,75Z"/><path class="f502c622-7865-4ad4-bdd2-8141344db733" d="M42.63,50.61A15,15,0,0,1,54.17,61.67c.65,2.58,4.63,1.49,4-1.1A19.06,19.06,0,0,0,43.73,46.63c-2.59-.55-3.7,3.43-1.1,4Z"/><path class="a2495da3-cfe8-4d3c-b2a1-0281a9b4e635" d="M27.93,10.14A52,52,0,0,1,30,26.73c-.09,2.66,4,2.65,4.13,0A56,56,0,0,0,31.92,9c-.75-2.55-4.73-1.46-4,1.1Z"/><path class="a2495da3-cfe8-4d3c-b2a1-0281a9b4e635" d="M54.3,21.05a31.26,31.26,0,0,1-4.11,13.37c-1.32,2.31,2.25,4.39,3.57,2.09a36.15,36.15,0,0,0,4.67-15.46c.19-2.65-3.94-2.63-4.13,0Z"/><path class="a2495da3-cfe8-4d3c-b2a1-0281a9b4e635" d="M6.91,31.45a20.42,20.42,0,0,0,6.84,5.39c2.37,1.16,4.47-2.4,2.08-3.57a17.64,17.64,0,0,1-6-4.74c-1.68-2.05-4.59.88-2.92,2.92Z"/></g></g></svg>