<svg xmlns="http://www.w3.org/2000/svg" viewBox="0 0 89.21 134.25"><defs><style>.b89d3d8c-55ad-4667-a38d-0c456c89ff76{fill:#3b8438;}.bd947a46-4c3e-4c0f-9637-244a2a42c650{fill:#40220f;}.ac23c785-0c36-4274-aab2-61ee4db9cd7f{fill:#ffda0b;}.b4eb7e0b-7663-4e2b-87fd-d865270ae37e{fill:#4ea549;}.e67cd398-3ff7-464f-8bc9-b4be7f8e0732{fill:#f7ad00;}.eda3c3f9-992c-4946-964a-e7ff92ec1a47{fill:#729d55;}</style></defs><title>黃1</title><g id="a6d25aec-8433-40c8-913a-448bc09d340a" data-name="圖層 2"><g id="edb2b927-012c-4db6-b8f1-ffd5c3b5a831" data-name="圖層 1"><path class="b89d3d8c-55ad-4667-a38d-0c456c89ff76" d="M26.05,54.09s-17.62-5.89-19-16c-.6-4.43,4-8.86,4-8.86S14.66,26,23.93,33.88s4.33-5.67,6.09-20.1c.65-5.29,2.89-8.26,5.46-9.9A8.35,8.35,0,0,1,47.66,8l1.49,3.75a17.62,17.62,0,0,1,1.23,6.61l.41,13.22c0,1.74,2.34,5.38,4.08,5.43a3.8,3.8,0,0,0,2.82-.69c3.53-1.89,5.86-2.85,6.42-13S79.4,15,80.35,23.5C82.08,39,75.15,50.53,67,57.93L50.82,53.65Z"/><path class="bd947a46-4c3e-4c0f-9637-244a2a42c650" d="M67.75,60.82,50.51,56.27l-24.86.44-.43-.14C24.44,56.31,6,50,4.49,38.4c-.75-5.58,4.16-10.54,4.73-11.09,1-.87,5.93-4.37,16.4,4.58.64.54,1.13.91,1.51,1.17.12-1.44,0-3.82,0-5.83a88.32,88.32,0,0,1,.32-13.77c.66-5.43,2.9-9.4,6.65-11.78A10.7,10.7,0,0,1,43.2.54,11,11,0,0,1,50.09,7l1.49,3.75A20.16,20.16,0,0,1,53,18.34l.42,13.12a6,6,0,0,0,1.79,2.91,4.8,4.8,0,0,0,.54,0c.11,0,.33-.19.72-.4l.3-.16c2.85-1.52,4.28-2.28,4.74-10.67a9.53,9.53,0,0,1,9.61-9.39c5.35-.13,11.16,3.35,11.83,9.46,1.55,13.9-3.47,26.92-14.14,36.65ZM51.14,51,66.3,55c6.38-6.19,13.1-16.41,11.45-31.24-.35-3.12-3.58-4.89-6.49-4.81a4.28,4.28,0,0,0-4.54,4.44c-.58,10.57-3.22,12.72-7.51,15l-.29.16a6.15,6.15,0,0,1-4.12,1c-3.66-.1-6.64-5.4-6.62-8.06L47.77,18.4a15.18,15.18,0,0,0-1.05-5.72L45.23,8.92a5.81,5.81,0,0,0-3.64-3.41,5.48,5.48,0,0,0-4.7.57c-2.37,1.51-3.81,4.21-4.27,8a83.47,83.47,0,0,0-.29,13c.2,6,.33,10-2.62,11.39-2.51,1.21-5.19-.63-7.48-2.59-5.57-4.76-8.7-5-9.56-4.61-.94,1-3.33,4-3,6.46.9,6.79,12,12.09,16.79,13.76Z"/><path class="ac23c785-0c36-4274-aab2-61ee4db9cd7f" d="M87,79c0,18.77-19,53-42.35,53S2.25,97.78,2.25,79s19-34,42.36-34S87,60.25,87,79Z"/><path class="bd947a46-4c3e-4c0f-9637-244a2a42c650" d="M44.61,134.25C18.84,134.25,0,97.92,0,79,0,59,20,42.78,44.61,42.78S89.21,59,89.21,79C89.21,97.92,70.37,134.25,44.61,134.25Zm0-87C22.49,47.28,4.49,61.51,4.49,79c0,17.15,18.16,50.75,40.12,50.75S84.72,96.16,84.72,79C84.72,61.51,66.72,47.28,44.61,47.28Z"/><path class="b4eb7e0b-7663-4e2b-87fd-d865270ae37e" d="M2.25,80.75s16.5-4.14,27.27-1.89"/><path class="bd947a46-4c3e-4c0f-9637-244a2a42c650" d="M2.25,83a2.25,2.25,0,0,1-.55-4.43c.7-.18,17.13-4.24,28.28-1.91a2.25,2.25,0,0,1-.92,4.4C18.94,78.94,3,82.89,2.79,82.93A2.5,2.5,0,0,1,2.25,83Z"/><path class="b4eb7e0b-7663-4e2b-87fd-d865270ae37e" d="M8.73,101.58S25.24,97.44,36,99.69"/><path class="bd947a46-4c3e-4c0f-9637-244a2a42c650" d="M8.73,103.83a2.25,2.25,0,0,1-.54-4.43c.69-.18,17.14-4.24,28.28-1.91a2.25,2.25,0,0,1-.92,4.4c-10.15-2.13-26.11,1.83-26.27,1.87A2.59,2.59,0,0,1,8.73,103.83Z"/><path class="b4eb7e0b-7663-4e2b-87fd-d865270ae37e" d="M57.89,89.76s16.83-2.53,27.33.75"/><path class="bd947a46-4c3e-4c0f-9637-244a2a42c650" d="M85.22,92.75a2.27,2.27,0,0,1-.67-.1C74.66,89.57,58.39,92,58.22,92a2.24,2.24,0,1,1-.66-4.44c.7-.11,17.46-2.57,28.33.82a2.24,2.24,0,0,1-.67,4.39Z"/><path class="e67cd398-3ff7-464f-8bc9-b4be7f8e0732" d="M59.45,61c3.88,1.45,7.39,2.45,10.16,5.73a23.49,23.49,0,0,1,2.67,4.08c.73,1.36,2.31,3.79,2.32,5.34L76.66,74l-.21,0,2,1.52,0-.17c-.81-2.52-4.8-1.44-4,1.1l.06.16a2.09,2.09,0,0,0,2,1.52l.21,0a2.11,2.11,0,0,0,2.07-2.06c0-3.71-3.36-8.76-5.59-11.59-3.39-4.29-7.62-5.68-12.59-7.54C58.06,56,57,60,59.45,61Z"/><path class="eda3c3f9-992c-4946-964a-e7ff92ec1a47" d="M38.93,13.34c.52,3.45.9,6.9,1.1,10.38.16,2.54,1,6.86-.18,9.23s2.4,4.47,3.57,2.08c1.56-3.19,1-7.06.78-10.53-.21-4.11-.68-8.19-1.28-12.26-.39-2.61-4.37-1.5-4,1.1Z"/><path class="eda3c3f9-992c-4946-964a-e7ff92ec1a47" d="M12.31,39.39a34.11,34.11,0,0,0,7.23,6.33c2.22,1.46,4.3-2.11,2.08-3.57a30.06,30.06,0,0,1-6.39-5.68c-1.72-2-4.63.91-2.92,2.92Z"/><path class="eda3c3f9-992c-4946-964a-e7ff92ec1a47" d="M71.07,23.41a59,59,0,0,1-4.76,20.31c-1,2.41,2.51,4.52,3.56,2.08A64.77,64.77,0,0,0,75.2,23.41c.15-2.65-4-2.64-4.13,0Z"/></g></g></svg>