<svg xmlns="http://www.w3.org/2000/svg" viewBox="0 0 1400 1050"><defs><style>.b75c44a3-0c25-4bc0-ae78-19e3adc99fa8{opacity:0.9;}.bda63012-da9d-4066-a013-aeeefaa2e238{fill:#f9d4d7;}.b8a52faf-5c3b-4a7f-a22a-bdc1abbc22e2{fill:#fef1e6;}.a094f970-acd9-479c-886e-258f499d5407{fill:#dbdbdb;}.ac3f8154-0118-43aa-85a0-4194ac8180c6,.bcd61929-cdf7-417e-9c7b-1fa2535d9b1b{fill:#c9892e;}.ac3f8154-0118-43aa-85a0-4194ac8180c6{opacity:0.81;}.b47afce4-5ca0-410d-99fd-3b93e48a0bcc{fill:#cac486;}.e8e8e15a-6d79-460d-a16c-b072014f7e4b{fill:#fffabc;}.ed2c7bfd-e20e-43ee-bd77-6509dee0fe4a{fill:#53b1b5;}.fc1a02af-18ef-4755-a1a3-911db24592a8{fill:#008582;}.eb5ce41d-dfbd-4baa-9170-6778b2481b09{fill:#fff;}.bb117fe6-9d86-419d-8898-b4f938d7fc97{fill:#00716f;}.ae905dae-eb4a-4b69-990a-fff27a26c394{fill:#004c4b;}.bcab9138-6407-4044-9559-3d2faea3ebf9{fill:#924d6d;}.a1b750e3-0d42-4b32-97e5-4b4ed26a49bb{fill:#ce7287;}.b9ff1d22-6ee3-408e-bba4-f6d379e12608{fill:#cb5378;}.a9551b2f-8725-4922-903c-d07b25035dcc{fill:#a8a9a9;}.ac4b80e5-bb54-458b-a679-b8969e354f4b{fill:#d7d7d8;}.bb107137-dc6d-4dbe-9c3a-cdccbc30567d{fill:#6a3906;}.e0e190ba-f21f-4995-af9d-454c98691b6a{fill:#7f4f21;}.f8103171-e123-4cd4-9d6f-cd8354dcc9f7{fill:none;}.fed99888-8cad-406e-bf26-41a267afbb60{fill:#727171;}.a9681323-44a9-4c0d-9b98-4a7f3b84c096{fill:#9fa0a0;}.ff4f2f20-3633-4d2e-b28b-79125c57c95b{fill:#b9baba;}.b41d3500-8417-4bb8-95a6-93827b6dcf46{fill:#f7f8f8;}.f79a9366-20f3-42d5-83ce-657fb009eb8e{fill:#7a7a7a;}.a9d59837-1b05-4340-9d00-4b1eba27ab15{fill:#b3b3b3;}.aaf682cd-6f15-438e-bc32-755648b22e47{fill:#964f28;}.e7847be2-d9ee-4068-981a-271718e60faf{fill:#f6b06a;}.a0faa42f-d93c-4621-8a6d-f4b05fedd6ec{fill:#f9c895;}.ff68c453-2375-4c3f-aae8-49819fef4d8a{fill:#733915;}.ebfbaca9-afaa-4608-97f3-f9a38164c44c{fill:#ac5d32;}.e581deca-9a1b-4773-b443-245ec34892d2{fill:#d3975b;}.b509ae3a-0f74-4a11-82fe-959f5bb7d545{fill:#7b3e1a;}.b07605a1-9d18-4636-af9a-2c17da6c6bb0{fill:#40220f;}</style></defs><title>背景</title><g id="b9431b6b-5770-4a68-964e-3e57e70eb4bb" data-name="圖層 2"><g id="f9e597e9-1cb0-43db-aac3-0095aee0285c" data-name="圖層 1"><g class="b75c44a3-0c25-4bc0-ae78-19e3adc99fa8"><rect class="bda63012-da9d-4066-a013-aeeefaa2e238" x="1198.07" width="199.64" height="116.36"/><rect class="bda63012-da9d-4066-a013-aeeefaa2e238" x="998.43" y="116.36" width="199.64" height="254.57"/><rect class="b8a52faf-5c3b-4a7f-a22a-bdc1abbc22e2" x="998.43" width="199.64" height="116.36"/><rect class="b8a52faf-5c3b-4a7f-a22a-bdc1abbc22e2" x="1198.07" y="116.36" width="199.64" height="254.57"/><rect class="b8a52faf-5c3b-4a7f-a22a-bdc1abbc22e2" x="599.15" width="199.64" height="116.36"/><rect class="bda63012-da9d-4066-a013-aeeefaa2e238" x="399.51" width="199.64" height="116.36"/><rect class="bda63012-da9d-4066-a013-aeeefaa2e238" x="199.87" y="116.36" width="199.64" height="254.57"/><rect class="b8a52faf-5c3b-4a7f-a22a-bdc1abbc22e2" x="798.79" y="116.36" width="199.64" height="254.57"/><rect class="b8a52faf-5c3b-4a7f-a22a-bdc1abbc22e2" x="0.23" y="116.36" width="199.64" height="254.57"/><rect class="a094f970-acd9-479c-886e-258f499d5407" x="1397.71" width="1.67" height="116.36"/><rect class="b8a52faf-5c3b-4a7f-a22a-bdc1abbc22e2" x="199.87" width="199.64" height="116.36"/><rect class="b8a52faf-5c3b-4a7f-a22a-bdc1abbc22e2" x="399.51" y="116.36" width="199.64" height="254.57"/><rect class="bda63012-da9d-4066-a013-aeeefaa2e238" x="599.15" y="116.36" width="199.64" height="254.57"/><rect class="bda63012-da9d-4066-a013-aeeefaa2e238" x="798.79" width="199.64" height="116.36"/><rect class="b8a52faf-5c3b-4a7f-a22a-bdc1abbc22e2" x="998.43" y="370.93" width="199.64" height="129.72"/><rect class="bda63012-da9d-4066-a013-aeeefaa2e238" x="1198.07" y="370.93" width="199.64" height="129.72"/><rect class="bda63012-da9d-4066-a013-aeeefaa2e238" x="798.79" y="370.93" width="199.64" height="129.72"/><rect class="a094f970-acd9-479c-886e-258f499d5407" x="1397.71" y="370.93" width="1.67" height="129.72"/><rect class="b8a52faf-5c3b-4a7f-a22a-bdc1abbc22e2" x="599.15" y="370.93" width="199.64" height="129.72"/><rect class="a094f970-acd9-479c-886e-258f499d5407" x="1397.71" y="116.36" width="1.67" height="254.57"/><rect class="a094f970-acd9-479c-886e-258f499d5407" x="0.22" y="370.93" width="0.01" height="129.72"/><rect class="a094f970-acd9-479c-886e-258f499d5407" x="0.22" y="116.36" width="0.01" height="254.57"/><rect class="bda63012-da9d-4066-a013-aeeefaa2e238" x="0.23" width="199.64" height="116.36"/><rect class="bda63012-da9d-4066-a013-aeeefaa2e238" x="399.51" y="370.93" width="199.64" height="129.72"/><rect class="a094f970-acd9-479c-886e-258f499d5407" x="0.22" width="0.01" height="116.36"/><rect class="b8a52faf-5c3b-4a7f-a22a-bdc1abbc22e2" x="199.87" y="370.93" width="199.64" height="129.72"/><rect class="bda63012-da9d-4066-a013-aeeefaa2e238" x="0.23" y="370.93" width="199.64" height="129.72"/></g><rect class="ac3f8154-0118-43aa-85a0-4194ac8180c6" x="0.35" y="500.65" width="1399.03" height="549.35"/><rect class="b47afce4-5ca0-410d-99fd-3b93e48a0bcc" x="81.51" y="531.82" width="779.1" height="440.33" rx="18.86"/><rect class="e8e8e15a-6d79-460d-a16c-b072014f7e4b" x="91.2" y="531.82" width="772.45" height="434.31" rx="18.86"/><ellipse class="ed2c7bfd-e20e-43ee-bd77-6509dee0fe4a" cx="882.47" cy="178.8" rx="14.73" ry="14.74"/><path class="fc1a02af-18ef-4755-a1a3-911db24592a8" d="M883.17,190.83c-11,0-12.67-7.44-12.74-7.76a1.66,1.66,0,0,1,3.25-.7c.06.25,1.34,5.13,9.49,5.13a1.67,1.67,0,0,1,0,3.33Z"/><path class="eb5ce41d-dfbd-4baa-9170-6778b2481b09" d="M874.58,173.09a1.71,1.71,0,0,1-1-.36,1.67,1.67,0,0,1-.25-2.34c3.93-4.9,10.91-4,11.2-4a1.66,1.66,0,0,1-.43,3.3c-.12,0-5.45-.62-8.18,2.78A1.66,1.66,0,0,1,874.58,173.09Z"/><ellipse class="ed2c7bfd-e20e-43ee-bd77-6509dee0fe4a" cx="1306.97" cy="178.8" rx="14.73" ry="14.74"/><rect class="bb117fe6-9d86-419d-8898-b4f938d7fc97" x="882.47" y="172.82" width="428.23" height="11.95" rx="3.59"/><path class="fc1a02af-18ef-4755-a1a3-911db24592a8" d="M1305.93,190.83a1.67,1.67,0,0,1,0-3.33c8.18,0,9.44-4.92,9.49-5.13a1.66,1.66,0,0,1,3.25.7C1318.6,183.39,1316.91,190.83,1305.93,190.83Z"/><path class="eb5ce41d-dfbd-4baa-9170-6778b2481b09" d="M1314.51,173.09a1.65,1.65,0,0,1-1.29-.62c-2.77-3.45-8.13-2.79-8.18-2.78a1.66,1.66,0,0,1-.44-3.3c.3,0,7.28-.9,11.21,4a1.66,1.66,0,0,1-1.3,2.7Z"/><path class="ae905dae-eb4a-4b69-990a-fff27a26c394" d="M1289.38,182.52H1026.87a1.67,1.67,0,0,1,0-3.33h262.51a1.67,1.67,0,0,1,0,3.33Z"/><path class="bcab9138-6407-4044-9559-3d2faea3ebf9" d="M1028.74,186.18l-1.85-6.43A16.35,16.35,0,0,0,1011.15,168H954.4a16.35,16.35,0,0,0-15.74,11.76l-1.85,6.43a22.78,22.78,0,0,0-20.63,22.58V332.45a22.81,22.81,0,0,0,22.91,22.7h87.38a22.8,22.8,0,0,0,22.9-22.7V208.76A22.78,22.78,0,0,0,1028.74,186.18Zm-11.14.3-70.75-.42,1.06-1.84a6.78,6.78,0,0,1,6.49-4.86h56.12a6.16,6.16,0,0,1,5.7,3.81Z"/><path class="a1b750e3-0d42-4b32-97e5-4b4ed26a49bb" d="M1029.17,186l-1.81-6.35A16,16,0,0,0,1012,168H956.38A16,16,0,0,0,941,179.62L939.15,186A22.44,22.44,0,0,0,919,208.3V330.57A22.43,22.43,0,0,0,941.38,353h85.56a22.43,22.43,0,0,0,22.43-22.44V208.3A22.44,22.44,0,0,0,1029.17,186Zm-72.8-8.56H1012a6.64,6.64,0,0,1,6.35,4.8l1,3.65H949l1-3.65A6.64,6.64,0,0,1,956.37,177.41Z"/><path class="b9ff1d22-6ee3-408e-bba4-f6d379e12608" d="M1017.59,340.88H953.23a17.7,17.7,0,0,1-17.67-17.68V218.89a17.7,17.7,0,0,1,17.67-17.68h64.36a17.69,17.69,0,0,1,17.66,17.68V323.2A17.69,17.69,0,0,1,1017.59,340.88ZM953.23,204.54a14.35,14.35,0,0,0-14.34,14.35V323.2a14.35,14.35,0,0,0,14.34,14.35h64.36a14.36,14.36,0,0,0,14.34-14.35V218.89a14.36,14.36,0,0,0-14.34-14.35Z"/><path class="eb5ce41d-dfbd-4baa-9170-6778b2481b09" d="M1042,222.28a1.66,1.66,0,0,1-1.66-1.67v-7.33a19.55,19.55,0,0,0-19.53-19.54h-5.69a1.67,1.67,0,0,1,0-3.33h5.69a22.89,22.89,0,0,1,22.85,22.87v7.33A1.66,1.66,0,0,1,1042,222.28Z"/><path class="eb5ce41d-dfbd-4baa-9170-6778b2481b09" d="M960.15,333.38h-6.86a10,10,0,0,1-10-10v-4.27a1.67,1.67,0,0,1,3.33,0v4.27a6.66,6.66,0,0,0,6.64,6.65h6.86a1.66,1.66,0,0,1,0,3.32Z"/><circle class="eb5ce41d-dfbd-4baa-9170-6778b2481b09" cx="992.75" cy="179.79" r="2.94"/><ellipse class="a9551b2f-8725-4922-903c-d07b25035dcc" cx="1248.41" cy="360.97" rx="95.07" ry="95.12"/><ellipse class="ac4b80e5-bb54-458b-a679-b8969e354f4b" cx="1259.89" cy="363.47" rx="77.04" ry="79.43"/><path class="bb107137-dc6d-4dbe-9c3a-cdccbc30567d" d="M1254.89,176.85s3.82,0,4,6.64c0,0-.19,6-4,6.25a12.38,12.38,0,0,0,2-6.44A11.93,11.93,0,0,0,1254.89,176.85Z"/><path class="e0e190ba-f21f-4995-af9d-454c98691b6a" d="M1256.21,172.24h-8.31a7.88,7.88,0,0,0-7.86,8.31l5,92.79a6.06,6.06,0,0,0,6.06,5.74H1253a6.07,6.07,0,0,0,6.06-5.74l5-92.79A7.87,7.87,0,0,0,1256.21,172.24Zm-1.51,17.5c-2.2,0-4-2.88-4-6.44s1.78-6.45,4-6.45,4,2.88,4,6.45S1256.91,189.74,1254.7,189.74Z"/><path class="f8103171-e123-4cd4-9d6f-cd8354dcc9f7" d="M1254.7,176.85c-2.2,0-4,2.88-4,6.45s1.78,6.44,4,6.44,4-2.88,4-6.44S1256.91,176.85,1254.7,176.85Z"/><path class="bb107137-dc6d-4dbe-9c3a-cdccbc30567d" d="M1250.17,172.24h-2.27a7.88,7.88,0,0,0-7.86,8.31l5,92.79a6.06,6.06,0,0,0,4.27,5.47c-.41-13.91-2.38-80.15-2.58-92.29C1246.59,178.27,1248.58,174.18,1250.17,172.24Z"/><path class="fed99888-8cad-406e-bf26-41a267afbb60" d="M1161.92,339.11a103.9,103.9,0,0,0,19.06,78c1.74,2.36,5.74.06,4-2.32a99.43,99.43,0,0,1-18.59-74.44c.44-2.9-4-4.15-4.44-1.22Z"/><path class="a9681323-44a9-4c0d-9b98-4a7f3b84c096" d="M1277.89,307c19.44,6.43,29.1,24.73,33.85,43.45.72,2.87,5.16,1.65,4.43-1.23-5.17-20.4-16-39.71-37.06-46.66-2.82-.93-4,3.51-1.22,4.44Z"/><path class="bb107137-dc6d-4dbe-9c3a-cdccbc30567d" d="M1256,262.67h-.07a1.37,1.37,0,0,1-1.31-1.44l1.81-37.6a1.38,1.38,0,1,1,2.76.13l-1.81,37.6A1.38,1.38,0,0,1,1256,262.67Z"/><path class="eb5ce41d-dfbd-4baa-9170-6778b2481b09" d="M1243,183a1.39,1.39,0,0,1-1.38-1.31,8.24,8.24,0,0,1,4.36-7.52,1.37,1.37,0,0,1,1.85.6,1.38,1.38,0,0,1-.59,1.86,5.47,5.47,0,0,0-2.86,4.91A1.38,1.38,0,0,1,1243,183Z"/><path class="eb5ce41d-dfbd-4baa-9170-6778b2481b09" d="M1245.1,433.7a2.43,2.43,0,0,1-.7-.11c-36.22-11.58-47.71-44.88-48.18-46.29a2.3,2.3,0,0,1,4.37-1.46c.1.32,11.27,32.51,45.21,43.36a2.31,2.31,0,0,1-.7,4.5Z"/><circle class="eb5ce41d-dfbd-4baa-9170-6778b2481b09" cx="1254.71" cy="179.79" r="2.94"/><path class="ff4f2f20-3633-4d2e-b28b-79125c57c95b" d="M1133,361.14l-7.17-37.26A13.1,13.1,0,0,0,1113,313.21h-18a13.11,13.11,0,0,0-12.83,10.67l-7.17,37.26a13.16,13.16,0,0,0,12.83,15.7h32.39A13.15,13.15,0,0,0,1133,361.14Zm-44.39,4.72a2.45,2.45,0,1,1-4.82-.86l6.48-37.1a2.45,2.45,0,1,1,4.83.85Zm17.82-.14a2.45,2.45,0,1,1-4.9,0V328a2.45,2.45,0,1,1,4.9,0Zm15.76,2.15a2.47,2.47,0,0,1-2.84-2l-6.48-37.11a2.45,2.45,0,1,1,4.82-.85l6.49,37.1A2.48,2.48,0,0,1,1122.16,367.87Z"/><path class="b41d3500-8417-4bb8-95a6-93827b6dcf46" d="M1133.67,361.78,1126.73,326a12.64,12.64,0,0,0-12.41-10.24h-17.46A12.65,12.65,0,0,0,1084.45,326l-6.94,35.76a12.65,12.65,0,0,0,12.41,15.06h31.34A12.65,12.65,0,0,0,1133.67,361.78Zm-43,4.52a2.37,2.37,0,1,1-4.67-.82l6.28-35.61a2.37,2.37,0,1,1,4.66.83Zm17.24-.13a2.37,2.37,0,0,1-4.74,0V330a2.37,2.37,0,0,1,4.74,0Zm15.25,2.06a2.39,2.39,0,0,1-2.75-1.93l-6.27-35.6a2.37,2.37,0,1,1,4.67-.83l6.27,35.61A2.37,2.37,0,0,1,1123.21,368.23Z"/><rect class="ff4f2f20-3633-4d2e-b28b-79125c57c95b" x="1100.72" y="204.35" width="6.46" height="109.66"/><path class="f79a9366-20f3-42d5-83ce-657fb009eb8e" d="M1113.42,178.05a6.36,6.36,0,0,0-6.35-6.36h-6.34a6.36,6.36,0,0,0-6.36,6.36v1h19.05Z"/><path d="M1094.37,179.06v40.3a6.36,6.36,0,0,0,6.36,6.36h6.34a6.36,6.36,0,0,0,6.35-6.36v-40.3Z"/><path class="eb5ce41d-dfbd-4baa-9170-6778b2481b09" d="M1098.29,217.83a1.18,1.18,0,0,1-1.19-1.18V191.16a1.19,1.19,0,1,1,2.37,0v25.49A1.18,1.18,0,0,1,1098.29,217.83Z"/><path class="eb5ce41d-dfbd-4baa-9170-6778b2481b09" d="M1111,178.16a1.19,1.19,0,0,1-1.13-.81,2.84,2.84,0,0,0-3.5-2.14,1.18,1.18,0,0,1-.61-2.29,5.19,5.19,0,0,1,6.36,3.68,1.18,1.18,0,0,1-.75,1.5A1.19,1.19,0,0,1,1111,178.16Z"/><path class="a9d59837-1b05-4340-9d00-4b1eba27ab15" d="M1118.63,374.47h-.17a1.18,1.18,0,0,1-1.15-1.21,1.2,1.2,0,0,1,1.21-1.16c.07,0,7.78.13,10.59-5.74a1.19,1.19,0,0,1,1.58-.56,1.17,1.17,0,0,1,.55,1.58C1128,374.18,1120,374.47,1118.63,374.47Z"/><path class="a9d59837-1b05-4340-9d00-4b1eba27ab15" d="M1089.41,327.74h-.14a1.18,1.18,0,0,1-1-1.32c.81-6.6,7.24-8.41,10.52-8.45h0a1.19,1.19,0,0,1,0,2.37c-.3,0-7.44.19-8.2,6.37A1.2,1.2,0,0,1,1089.41,327.74Z"/><circle class="eb5ce41d-dfbd-4baa-9170-6778b2481b09" cx="1105.54" cy="179.79" r="2.94"/><path class="aaf682cd-6f15-438e-bc32-755648b22e47" d="M311.6,413.46a10.78,10.78,0,0,0,8.29-3.88c-.23-.28-.46-.56-.67-.86l-19.35-28.55L237.09,144.55a10.73,10.73,0,0,1,3-7.48H1.27V413.46H311.6Z"/><path class="e7847be2-d9ee-4068-981a-271718e60faf" d="M5,150.47A10.92,10.92,0,0,0,.22,151.6V412.33A10.92,10.92,0,0,0,5,413.46H158.85v-263Z"/><path class="aaf682cd-6f15-438e-bc32-755648b22e47" d="M322.4,159.07a10.8,10.8,0,0,0-8.3-10.51l-48.25-11.49H240.11a10.73,10.73,0,0,0-3,7.48l62.78,235.62,19.35,28.55c.21.3.44.58.67.86a10.76,10.76,0,0,0,2.51-6.93Z"/><path class="aaf682cd-6f15-438e-bc32-755648b22e47" d="M314.1,148.56a10.8,10.8,0,0,1,8.3,10.51V402.65a10.76,10.76,0,0,1-2.51,6.93,10.79,10.79,0,0,0,8.27,3.88H638.78a10.8,10.8,0,0,0,10.8-10.81V159.07a10.8,10.8,0,0,0-8.3-10.51L593,137.07H265.85Z"/><path class="e7847be2-d9ee-4068-981a-271718e60faf" d="M322.44,161.28V402.65a10.8,10.8,0,0,0,10.79,10.81H486v-263H333.23A10.8,10.8,0,0,0,322.44,161.28Z"/><path class="a0faa42f-d93c-4621-8a6d-f4b05fedd6ec" d="M638.82,150.47H486v263H638.82a10.81,10.81,0,0,0,10.8-10.81V161.28A10.81,10.81,0,0,0,638.82,150.47Z"/><path class="ff68c453-2375-4c3f-aae8-49819fef4d8a" d="M638.82,414.73H333.23a12.08,12.08,0,0,1-12.06-12.08V161.28a12.08,12.08,0,0,1,12.06-12.08H638.82a12.09,12.09,0,0,1,12.07,12.08V402.65A12.09,12.09,0,0,1,638.82,414.73Zm-305.59-263a9.54,9.54,0,0,0-9.52,9.54V402.65a9.54,9.54,0,0,0,9.52,9.54H638.82a9.55,9.55,0,0,0,9.53-9.54V161.28a9.55,9.55,0,0,0-9.53-9.54Z"/><rect class="ebfbaca9-afaa-4608-97f3-f9a38164c44c" x="505.56" y="247.12" width="10.16" height="58.56" rx="3.06"/><rect class="ebfbaca9-afaa-4608-97f3-f9a38164c44c" x="457.63" y="247.12" width="10.16" height="58.56" rx="3.06"/><rect class="ff68c453-2375-4c3f-aae8-49819fef4d8a" x="483.44" y="150.47" width="4.44" height="262.98"/><path class="e581deca-9a1b-4773-b443-245ec34892d2" d="M338,370.68a1.91,1.91,0,0,1-1.91-1.9v-116a1.91,1.91,0,0,1,3.81,0v116A1.9,1.9,0,0,1,338,370.68Z"/><path class="e581deca-9a1b-4773-b443-245ec34892d2" d="M635.91,201.71a1.9,1.9,0,0,1-1.9-1.9V186.68A19.71,19.71,0,0,0,614.33,167H602.48a1.91,1.91,0,1,1,0-3.81h11.85a23.52,23.52,0,0,1,23.49,23.5v13.13A1.91,1.91,0,0,1,635.91,201.71Z"/><path class="b509ae3a-0f74-4a11-82fe-959f5bb7d545" d="M308.76,273.71a1.91,1.91,0,0,1-1.91-1.91V150.47a1.91,1.91,0,0,1,3.81,0V271.8A1.91,1.91,0,0,1,308.76,273.71Z"/><path class="eb5ce41d-dfbd-4baa-9170-6778b2481b09" d="M413.29,165.72h-69a1.91,1.91,0,1,1,0-3.81h69a1.91,1.91,0,1,1,0,3.81Z"/><path class="eb5ce41d-dfbd-4baa-9170-6778b2481b09" d="M574.54,399.91h-69a1.91,1.91,0,0,1,0-3.82h69a1.91,1.91,0,1,1,0,3.82Z"/><path class="a0faa42f-d93c-4621-8a6d-f4b05fedd6ec" d="M311.64,150.47H158.85v263H311.64a10.81,10.81,0,0,0,10.8-10.81V161.28A10.81,10.81,0,0,0,311.64,150.47Z"/><path class="ff68c453-2375-4c3f-aae8-49819fef4d8a" d="M311.64,414.73H6.05a1.27,1.27,0,0,1,0-2.54H311.64a9.55,9.55,0,0,0,9.53-9.54V161.28a9.55,9.55,0,0,0-9.53-9.54H6.05a1.27,1.27,0,1,1,0-2.54H311.64a12.09,12.09,0,0,1,12.07,12.08V402.65A12.09,12.09,0,0,1,311.64,414.73Z"/><rect class="ebfbaca9-afaa-4608-97f3-f9a38164c44c" x="178.38" y="247.12" width="10.16" height="58.56" rx="3.06"/><rect class="ebfbaca9-afaa-4608-97f3-f9a38164c44c" x="130.45" y="247.12" width="10.16" height="58.56" rx="3.06"/><rect class="ff68c453-2375-4c3f-aae8-49819fef4d8a" x="156.26" y="150.47" width="4.44" height="262.98"/><path class="e581deca-9a1b-4773-b443-245ec34892d2" d="M10.78,370.68a1.91,1.91,0,0,1-1.91-1.9v-116a1.91,1.91,0,0,1,3.81,0v116A1.9,1.9,0,0,1,10.78,370.68Z"/><path class="e581deca-9a1b-4773-b443-245ec34892d2" d="M308.73,201.71a1.91,1.91,0,0,1-1.91-1.9V186.68A19.7,19.7,0,0,0,287.15,167H275.29a1.91,1.91,0,0,1,0-3.81h11.86a23.51,23.51,0,0,1,23.48,23.5v13.13A1.9,1.9,0,0,1,308.73,201.71Z"/><path class="eb5ce41d-dfbd-4baa-9170-6778b2481b09" d="M86.11,165.72h-69a1.91,1.91,0,1,1,0-3.81h69a1.91,1.91,0,1,1,0,3.81Z"/><path class="eb5ce41d-dfbd-4baa-9170-6778b2481b09" d="M247.36,399.91h-69a1.91,1.91,0,1,1,0-3.82h69a1.91,1.91,0,0,1,0,3.82Z"/><polygon class="aaf682cd-6f15-438e-bc32-755648b22e47" points="265.85 137.07 253.12 134.04 253.12 134.04 265.85 137.07 265.85 137.07"/><path class="b07605a1-9d18-4636-af9a-2c17da6c6bb0" d="M638.78,414.12H328.16a11.43,11.43,0,0,1-8.78-4.11l-.36-.43.36-.43a10.15,10.15,0,0,0,2.35-6.5V159.07a10.1,10.1,0,0,0-7.78-9.86L260.17,136.4H593l48.41,11.51a11.44,11.44,0,0,1,8.81,11.16V402.65A11.48,11.48,0,0,1,638.78,414.12Zm-318-4.57a10,10,0,0,0,7.4,3.24H638.78a10.14,10.14,0,0,0,10.13-10.14V159.07a10.1,10.1,0,0,0-7.78-9.86l-48.25-11.49-321.34,0,42.72,10.17a11.44,11.44,0,0,1,8.81,11.16V402.65A11.5,11.5,0,0,1,320.76,409.55Z"/><path class="ff68c453-2375-4c3f-aae8-49819fef4d8a" d="M311.6,414.73H158.85a1.27,1.27,0,0,1-1.27-1.27V151.74H6.05a9.48,9.48,0,0,0-4.22,1,1.26,1.26,0,0,1-1.23-.06A1.28,1.28,0,0,1,0,151.6V137.07a1.27,1.27,0,0,1,1.27-1.27H265.85a1.53,1.53,0,0,1,.3,0l48.25,11.5a12,12,0,0,1,9.27,11.74V402.65A12.09,12.09,0,0,1,311.6,414.73Zm-151.48-2.54H311.6a9.54,9.54,0,0,0,9.53-9.54V159.07a9.5,9.5,0,0,0-7.32-9.27L265.7,138.34H2.54v11.39a11.9,11.9,0,0,1,3.51-.53h152.8a1.27,1.27,0,0,1,1.27,1.27Z"/><path class="ff68c453-2375-4c3f-aae8-49819fef4d8a" d="M6.05,414.73a12,12,0,0,1-5.34-1.26,1.28,1.28,0,0,1-.58-1.71,1.27,1.27,0,0,1,1.7-.57,9.48,9.48,0,0,0,4.22,1,1.27,1.27,0,1,1,0,2.54Z"/><rect class="bcd61929-cdf7-417e-9c7b-1fa2535d9b1b" x="1.22" y="485.69" width="1398.78" height="14.96"/></g></g></svg>