<svg xmlns="http://www.w3.org/2000/svg" viewBox="0 0 149.86 106.3"><defs><style>.a39cde7f-b8f7-47e8-8107-c15bd02ab296{fill:#cfd0d0;}.a89159ba-3282-44b3-9e80-446b57ed4b71{fill:#98d6f6;}.a832f8cf-3320-4470-97fb-a37b62d6f828{fill:#86b3e0;}.bd08a6dc-ecac-4db9-bdb9-113e7bcf079b{fill:#55899a;opacity:0.31;}</style></defs><title>藍</title><g id="aa862a04-5820-41a0-acfd-8c7edf31da8d" data-name="圖層 2"><g id="ff248991-debd-4d1f-abcd-68f2de5aece2" data-name="圖層 1"><path class="a39cde7f-b8f7-47e8-8107-c15bd02ab296" d="M3.22,70.21l-1-7.56a37.69,37.69,0,0,1,24.12-40L51,13.39a37.73,37.73,0,0,1,28.27.7l46,20a37.69,37.69,0,0,1,21.85,42.41h0a37.68,37.68,0,0,1-38.56,29.79L38.9,103.11A37.69,37.69,0,0,1,3.22,70.21Z"/><path class="a89159ba-3282-44b3-9e80-446b57ed4b71" d="M3.22,61.2l-1-7.56a37.68,37.68,0,0,1,24.12-40L51,4.39a37.68,37.68,0,0,1,28.27.7l46,20a37.68,37.68,0,0,1,21.85,42.4h0a37.68,37.68,0,0,1-38.56,29.8L38.9,94.11A37.69,37.69,0,0,1,3.22,61.2Z"/><path class="a832f8cf-3320-4470-97fb-a37b62d6f828" d="M110.28,99.26c-.62,0-1.23,0-1.84,0L38.81,96.06A39.55,39.55,0,0,1,1.28,61.45l-1-7.56A39.5,39.5,0,0,1,25.69,11.8l24.6-9.25A39.46,39.46,0,0,1,80,3.29l46,20a39.64,39.64,0,0,1-15.74,76Zm-46-95.34a35.56,35.56,0,0,0-12.58,2.3l-24.6,9.25A35.6,35.6,0,0,0,4.21,53.4l1,7.56A35.65,35.65,0,0,0,39,92.15l69.62,3.15a35.72,35.72,0,0,0,15.85-68.45l-46-20A35.66,35.66,0,0,0,64.25,3.92Z"/><path class="bd08a6dc-ecac-4db9-bdb9-113e7bcf079b" d="M37.22,42.19C40.43,33,48.44,35.1,55.73,32.27c4.47-1.75,13.47-11.87,18.5-6.92,3.82,3.75,9.71-2.12,5.88-5.88-8.79-8.64-17.34-.33-25.54,4.13-5.51,3-11.84,1.61-17.28,5.22-4.08,2.71-6.51,6.63-8.08,11.16-1.77,5.06,6.26,7.23,8,2.21Z"/><path class="bd08a6dc-ecac-4db9-bdb9-113e7bcf079b" d="M91.58,52c6.69-3.31,12.38,4.85,17,8.38a55.59,55.59,0,0,0,6.36,4.05q2.37,1.22,4.62,2.64,5,2.58,2.06,8.56c-5.15,1.42-3,9.44,2.21,8,12.82-3.53,8.4-18.07-.07-23.74-3.94-2.64-8.21-4.38-11.84-7.51a82.64,82.64,0,0,0-6.79-5.76c-5.58-3.86-11.59-4.83-17.71-1.8-4.79,2.37-.58,9.54,4.2,7.17Z"/><path class="bd08a6dc-ecac-4db9-bdb9-113e7bcf079b" d="M9.11,60.14c6.12,9.15,13,16,23.48,20,12.3,4.66,25.69,4.36,38.61,4,5.34-.16,5.36-8.48,0-8.32-21.73.66-41.84-.29-54.92-19.85-3-4.42-10.16-.27-7.17,4.2Z"/></g></g></svg>