<svg xmlns="http://www.w3.org/2000/svg" viewBox="0 0 307.5 410.95"><defs><style>.aaf3764a-e0ac-45e3-9ca1-bd17dcf7cb75{fill:#fff;}.e42759cf-71bc-44c8-b5a6-99d97c2bf355{fill:#fcdebe;}.a1be2ad7-942f-49a9-b21e-411366198f0d{fill:#40220f;}.a70626c8-c250-4f1e-a54c-2a29bf34a9c0{fill:#a79a89;}.bc7655eb-0206-420e-9fc7-5f7414883d18{fill:#fff89e;}.ae3af12f-5b58-4b25-8922-0d1f947d8c3d{fill:#fdeacf;}.f24b6c39-fea9-493e-bbc6-37e84f6fb220{fill:#564438;}.f1b8baf8-af1a-45de-9b57-fa5ec18a1b2a{fill:#fddb93;}.bf7c8a9d-d56f-45bf-a5cc-15a285d20e45{fill:#786d60;}.ae5ddc00-ee83-4a9c-b65c-c9a3e948c032{fill:#d53533;}.a5d48f06-1575-4471-a0c4-30f5dc6c5189{fill:#ef8889;}.f54db332-5a9f-4fa2-9fb1-cf2fc4f42499{fill:#adadad;}.abbce4ee-5d1b-4d7a-9d41-ec749a2f92b9{fill:#956134;}.a502984f-6a09-4a8a-af2f-f54903a3b713{fill:#b06730;}.ed3d27f0-a6c1-4147-82fd-c4d46c4a4593{fill:#b28247;}.a60c6d28-eb73-43a9-a017-4f02c6f647d7{fill:#6a3906;}.afddd8d2-97b6-4f96-a2a4-085e7ac4df17{fill:#dbcbb4;}</style></defs><title>小貓</title><g id="b2f9a8a8-ffe3-4ba1-a29e-9922e6162a26" data-name="圖層 2"><g id="b3dd4352-3389-464f-83bf-11e467981ddd" data-name="圖層 1"><path class="aaf3764a-e0ac-45e3-9ca1-bd17dcf7cb75" d="M284.91,353.45a16.3,16.3,0,1,0-21.73-7.69A16.31,16.31,0,0,0,284.91,353.45Z"/><path class="e42759cf-71bc-44c8-b5a6-99d97c2bf355" d="M235.92,378.54c0,1.6,0,3.2-.11,4.78l51.85-25c11.5-5.82,16.66-19.27,11.5-30a21.09,21.09,0,0,0-13-11,24.74,24.74,0,0,0-18.12,1.47c-.41.2-.81.41-1.21.62l-29.48,14.19a50.27,50.27,0,0,1-9.21,5.37A104.32,104.32,0,0,1,235.92,378.54Zm35-54.51a16.3,16.3,0,1,1-7.69,21.73A16.29,16.29,0,0,1,270.87,324Z"/><path class="a1be2ad7-942f-49a9-b21e-411366198f0d" d="M288.08,311.32a31,31,0,0,0-22.76,1.81c-.5.24-1,.5-1.34.69L250.1,320.5a57,57,0,0,1-4.95,6.22,53.73,53.73,0,0,1-7.76,6.94l29.48-14.19c.4-.21.8-.42,1.21-.62a24.74,24.74,0,0,1,18.12-1.47,21.09,21.09,0,0,1,13,11c5.16,10.73,0,24.18-11.5,30l-51.85,25c-.12,2.47-.31,4.92-.59,7.34l58.08-28-.1-.2c12.66-8,17.91-23.95,11.68-36.89A27.4,27.4,0,0,0,288.08,311.32Z"/><path class="a1be2ad7-942f-49a9-b21e-411366198f0d" d="M233.19,411v-8.59c-.68,2.91-1.49,5.77-2.41,8.59Z"/><path class="a1be2ad7-942f-49a9-b21e-411366198f0d" d="M26.59,385.15c-.06.75-.1,1.51-.1,2.27V411h5A103.94,103.94,0,0,1,26.59,385.15Z"/><path class="e42759cf-71bc-44c8-b5a6-99d97c2bf355" d="M229.57,378.54a98,98,0,0,0-7.35-37.31h0c-.13.19-.26.37-.4.55l-23.51,29.67A67.48,67.48,0,0,1,179.13,411h45A98.05,98.05,0,0,0,229.57,378.54Z"/><path class="e42759cf-71bc-44c8-b5a6-99d97c2bf355" d="M33,385.85A98.12,98.12,0,0,0,38.21,411H83.16a68.51,68.51,0,0,1-8-9.67Z"/><path class="a1be2ad7-942f-49a9-b21e-411366198f0d" d="M235.81,383.32c.07-1.58.11-3.18.11-4.78A104.32,104.32,0,0,0,228.18,339a47.35,47.35,0,0,1-6,2.2A98.39,98.39,0,0,1,224.08,411h6.7c.92-2.82,1.73-5.68,2.41-8.59a105.09,105.09,0,0,0,2-11.7C235.5,388.24,235.69,385.79,235.81,383.32Z"/><path class="a1be2ad7-942f-49a9-b21e-411366198f0d" d="M32.48,385.67a25,25,0,0,1-6-3.21c0,.9.08,1.8.14,2.69A103.94,103.94,0,0,0,31.51,411h6.7A98.12,98.12,0,0,1,33,385.85Z"/><path class="aaf3764a-e0ac-45e3-9ca1-bd17dcf7cb75" d="M122.05,353.46a30.47,30.47,0,0,1,10.13,4.16l11.41-14.39H73.73Z"/><path class="aaf3764a-e0ac-45e3-9ca1-bd17dcf7cb75" d="M167,411h12.16a67.48,67.48,0,0,0,19.14-39.49Z"/><path class="aaf3764a-e0ac-45e3-9ca1-bd17dcf7cb75" d="M92.54,407.63l-17.35-6.35a68.51,68.51,0,0,0,8,9.67h6.76Z"/><path class="a70626c8-c250-4f1e-a54c-2a29bf34a9c0" d="M168.74,68.81a7.42,7.42,0,0,1,12.86,0L193.26,89h4.21a48.3,48.3,0,0,1,15.11,2.42,13.58,13.58,0,0,0-.82-1.67L187.55,47.85a14.29,14.29,0,0,0-24.76,0L139,89h18.06Z"/><path class="a70626c8-c250-4f1e-a54c-2a29bf34a9c0" d="M184.78,36.7l-.51-.88a10.5,10.5,0,0,0-18.2,0l-.51.88a20.82,20.82,0,0,1,19.22,0Z"/><path class="a1be2ad7-942f-49a9-b21e-411366198f0d" d="M139,89l23.77-41.17a14.29,14.29,0,0,1,24.76,0l24.21,41.92a13.58,13.58,0,0,1,.82,1.67,50.34,50.34,0,0,1,7.33,3.1,20.85,20.85,0,0,0-2.66-8l-24.2-41.91a20.61,20.61,0,0,0-35.76,0l-24.2,41.91-.23.42.73,2Z"/><path class="bc7655eb-0206-420e-9fc7-5f7414883d18" d="M168.74,68.81,157.08,89h36.18L181.6,68.81A7.42,7.42,0,0,0,168.74,68.81Z"/><path class="ae3af12f-5b58-4b25-8922-0d1f947d8c3d" d="M240.48,322.41a51.09,51.09,0,0,0,6.93-9.54,59.17,59.17,0,0,1-13.13,1.47,60.24,60.24,0,0,1-10.3-.91c-1.93,1.74-4.18,3.93-6.64,6.58a38,38,0,0,1,4.1,6.34,21.68,21.68,0,0,1,2.4,7.62A45.42,45.42,0,0,0,240.48,322.41Z"/><path class="ae3af12f-5b58-4b25-8922-0d1f947d8c3d" d="M197.7,301.66a59.18,59.18,0,0,1-19.09-66.53,16.08,16.08,0,1,1,16.82-24.56,59,59,0,0,1,52.28-13l-4.44-55.19c-2.15-26.8-21.84-47-45.8-47h-28.2v47.22a4.54,4.54,0,0,1-4.54,4.54h-10a4.54,4.54,0,0,1-4.54-4.54V95.37H140v47.22a4.54,4.54,0,0,1-4.54,4.54h-10a4.54,4.54,0,0,1-4.54-4.54V121.91l-10.24,1.85v18.83a4.54,4.54,0,0,1-4.54,4.54h-10a4.54,4.54,0,0,1-4.54-4.54V127.21l-33.52,6.06a16.64,16.64,0,0,1-3,.28A17.09,17.09,0,0,1,38,116.64L37.86,104c-11.2,8.38-18.92,22.17-20.22,38.37l-4.43,55.19a59,59,0,0,1,52.27,13A16.08,16.08,0,1,1,82.3,235.13a59.18,59.18,0,0,1-68.8,77.74,51.09,51.09,0,0,0,6.93,9.54c8.61,9.33,19.94,14.47,31.91,14.47h96.28l25.84-32.6c2.94-3.71,8.31-4.85,15.11-3.19a38.83,38.83,0,0,1,6.9,2.43C196.9,302.89,197.3,302.26,197.7,301.66Zm-80.41-68.92h26.33a3.89,3.89,0,0,1,3.21,6.09l-13.16,19.24a3.91,3.91,0,0,1-6.43,0l-13.16-19.24A3.89,3.89,0,0,1,117.29,232.74Zm33.23,70.59a24.42,24.42,0,0,1-3.39,1.4s-12.07,4.55-23.78,2.28h-.08a39.29,39.29,0,0,1-9.26-2.62,26.13,26.13,0,0,1-4.77-2.42,40,40,0,0,1-5.89-4.32c-13.52-12-2.53-22.11-2.53-22.11s11.32-10.26,24.88,2c8.8,8,13.2-.75,23.47-2.94,7.31-1.56,15.15,2.73,15.13,10.14C164.29,288.4,164.53,297.57,150.52,303.33Z"/><path class="f24b6c39-fea9-493e-bbc6-37e84f6fb220" d="M127.24,258.07a3.91,3.91,0,0,0,6.43,0l13.16-19.24a3.89,3.89,0,0,0-3.21-6.09H117.29a3.89,3.89,0,0,0-3.21,6.09Z"/><path class="f1b8baf8-af1a-45de-9b57-fa5ec18a1b2a" d="M85.8,255.18a58.93,58.93,0,0,0-3.5-20.05,16.35,16.35,0,0,1-3.38.36,16.08,16.08,0,0,1-13.44-24.92,59,59,0,0,0-52.27-13l-6.67,83a56.4,56.4,0,0,0,7,32.28,59.19,59.19,0,0,0,72.3-57.69ZM16.42,234.46a1.25,1.25,0,0,1,1.47-1l47.42,9.57a1.24,1.24,0,0,1,1,1.47l-.54,2.68a1.24,1.24,0,0,1-1.47,1l-47.41-9.57a1.24,1.24,0,0,1-1-1.47Zm-.77,23.1a1.25,1.25,0,0,1,1.25-1.25H65.27a1.24,1.24,0,0,1,1.24,1.25v2.74a1.24,1.24,0,0,1-1.24,1.25H16.9a1.25,1.25,0,0,1-1.25-1.25Zm.77,25.84-.54-2.69a1.25,1.25,0,0,1,1-1.47l47.41-9.57a1.25,1.25,0,0,1,1.47,1l.54,2.69a1.25,1.25,0,0,1-1,1.47l-47.42,9.57A1.26,1.26,0,0,1,16.42,283.4Z"/><path class="f1b8baf8-af1a-45de-9b57-fa5ec18a1b2a" d="M195.43,210.57A16.08,16.08,0,0,1,182,235.49a16.38,16.38,0,0,1-3.39-.36,59.18,59.18,0,0,0,19.09,66.53A85.37,85.37,0,0,0,205,288.12a18,18,0,0,1,5.57-9.93l-16.76-3.38a1.25,1.25,0,0,1-1-1.47l.54-2.69a1.25,1.25,0,0,1,1.47-1l22.5,4.55a18.75,18.75,0,0,1,3.51-.76,18.2,18.2,0,0,1,13.5,3.85c.18.14.33.29.51.44l7.39,1.49a1.25,1.25,0,0,1,1,1.47l-.54,2.69a1.26,1.26,0,0,1-1.47,1l-1.59-.32a18.24,18.24,0,0,1-10,24.66c-1.06.79-3.06,2.34-5.67,4.71a60.24,60.24,0,0,0,10.3.91,59.17,59.17,0,0,0,13.13-1.47,56.32,56.32,0,0,0,7-32.28l-6.66-83a59,59,0,0,0-52.28,13Zm48,49.73a1.25,1.25,0,0,1-1.25,1.25H193.86a1.24,1.24,0,0,1-1.24-1.25v-2.74a1.24,1.24,0,0,1,1.24-1.25h48.37a1.25,1.25,0,0,1,1.25,1.25Zm-.77-25.84.54,2.69a1.24,1.24,0,0,1-1,1.47l-47.41,9.57a1.24,1.24,0,0,1-1.47-1l-.54-2.68a1.24,1.24,0,0,1,1-1.47l47.42-9.57A1.25,1.25,0,0,1,242.71,234.46Z"/><path class="a1be2ad7-942f-49a9-b21e-411366198f0d" d="M78.92,235.49a16.35,16.35,0,0,0,3.38-.36,16.09,16.09,0,1,0-3.38.36ZM73.3,210a5.62,5.62,0,1,1-5.61,5.61A5.62,5.62,0,0,1,73.3,210Z"/><path class="a1be2ad7-942f-49a9-b21e-411366198f0d" d="M198.08,219.4a16.09,16.09,0,1,0-19.47,15.73,16.38,16.38,0,0,0,3.39.36A16.08,16.08,0,0,0,198.08,219.4Zm-27.31-3.81a5.62,5.62,0,1,1,5.61,5.62A5.61,5.61,0,0,1,170.77,215.59Z"/><circle class="aaf3764a-e0ac-45e3-9ca1-bd17dcf7cb75" cx="73.3" cy="215.59" r="5.61"/><circle class="aaf3764a-e0ac-45e3-9ca1-bd17dcf7cb75" cx="176.38" cy="215.59" r="5.61"/><rect class="a1be2ad7-942f-49a9-b21e-411366198f0d" x="192.62" y="256.31" width="50.87" height="5.24" rx="1.25"/><rect class="a1be2ad7-942f-49a9-b21e-411366198f0d" x="192.62" y="238.22" width="50.87" height="5.24" rx="1.25" transform="matrix(0.98, -0.2, 0.2, 0.98, -43.33, 47.89)"/><path class="a1be2ad7-942f-49a9-b21e-411366198f0d" d="M239.65,284.06l1.59.32a1.26,1.26,0,0,0,1.47-1l.54-2.69a1.25,1.25,0,0,0-1-1.47l-7.39-1.49A18.23,18.23,0,0,1,239.65,284.06Z"/><path class="a1be2ad7-942f-49a9-b21e-411366198f0d" d="M194.86,269.67a1.25,1.25,0,0,0-1.47,1l-.54,2.69a1.25,1.25,0,0,0,1,1.47l16.76,3.38a18,18,0,0,1,6.78-4Z"/><rect class="a1be2ad7-942f-49a9-b21e-411366198f0d" x="15.65" y="256.31" width="50.87" height="5.24" rx="1.25"/><rect class="a1be2ad7-942f-49a9-b21e-411366198f0d" x="38.46" y="215.41" width="5.24" height="50.87" rx="1.25" transform="translate(-203.12 233.46) rotate(-78.59)"/><rect class="a1be2ad7-942f-49a9-b21e-411366198f0d" x="15.65" y="274.41" width="50.87" height="5.24" rx="1.25" transform="translate(-53.99 13.6) rotate(-11.41)"/><path class="bf7c8a9d-d56f-45bf-a5cc-15a285d20e45" d="M96.18,147.13h10a4.54,4.54,0,0,0,4.54-4.54V123.76l-19,3.45v15.38A4.54,4.54,0,0,0,96.18,147.13Z"/><path class="bf7c8a9d-d56f-45bf-a5cc-15a285d20e45" d="M125.47,147.13h10a4.54,4.54,0,0,0,4.54-4.54V95.37h-4.09l1.2,3.34a17.08,17.08,0,0,1-13,22.63l-3.14.57v20.68A4.54,4.54,0,0,0,125.47,147.13Z"/><path class="bf7c8a9d-d56f-45bf-a5cc-15a285d20e45" d="M150.22,142.59a4.54,4.54,0,0,0,4.54,4.54h10a4.54,4.54,0,0,0,4.54-4.54V95.37H150.22Z"/><path class="a1be2ad7-942f-49a9-b21e-411366198f0d" d="M46.33,337.43l27.4,5.8h69.86l5-6.35H52.34c-12,0-23.3-5.14-31.91-14.47a51.09,51.09,0,0,1-6.93-9.54,56.4,56.4,0,0,1-7-32.28l6.67-83,4.43-55.19c1.3-16.2,9-30,20.22-38.37l-.09-7.64c-14.61,9-24.87,25.67-26.46,45.51L.21,280.08c-1.4,17.41,4.27,34.41,15.55,46.64a52.25,52.25,0,0,0,16.18,11.94A24.88,24.88,0,0,1,46.33,337.43Z"/><path class="a1be2ad7-942f-49a9-b21e-411366198f0d" d="M212.58,91.44A48.3,48.3,0,0,0,197.47,89H133.59l2.3,6.35h61.58c24,0,43.65,20.21,45.8,47l4.44,55.19,6.66,83a56.32,56.32,0,0,1-7,32.28,51.09,51.09,0,0,1-6.93,9.54A45.42,45.42,0,0,1,223.84,334a10.77,10.77,0,0,1-1.66,7.27h0a47.35,47.35,0,0,0,6-2.2,50.27,50.27,0,0,0,9.21-5.37,53.73,53.73,0,0,0,7.76-6.94,57,57,0,0,0,4.95-6.22,62.2,62.2,0,0,0,10.6-40.42l-11.1-138.2c-1.71-21.27-13.38-38.84-29.69-47.34A50.34,50.34,0,0,0,212.58,91.44Z"/><path class="ae5ddc00-ee83-4a9c-b65c-c9a3e948c032" d="M149.17,274.63c-10.27,2.19-14.67,10.93-23.47,2.94-13.56-12.3-24.88-2-24.88-2s-11,10.15,2.53,22.11a40,40,0,0,0,5.89,4.32c-3.3-2.19-3.85-4-3.85-4s-3.5-6.41,4.88-4.56c7.84,1.73,14.08.14,22.79-2.28a38.78,38.78,0,0,1,17.69-.26s6.24,2.21,5.52,6.63c-.43,2.68-3.33,4.67-5.75,5.89,14-5.76,13.77-14.93,13.78-18.56C164.32,277.36,156.48,273.07,149.17,274.63Z"/><path class="ae5ddc00-ee83-4a9c-b65c-c9a3e948c032" d="M123.27,307a51.62,51.62,0,0,1-9.26-2.62A39.29,39.29,0,0,0,123.27,307Z"/><path class="a5d48f06-1575-4471-a0c4-30f5dc6c5189" d="M156.27,297.44c.72-4.42-5.52-6.63-5.52-6.63a38.78,38.78,0,0,0-17.69.26c-8.71,2.42-15,4-22.79,2.28-8.38-1.85-4.88,4.56-4.88,4.56s.55,1.86,3.85,4a26.13,26.13,0,0,0,4.77,2.42,51.62,51.62,0,0,0,9.26,2.62h.08c11.71,2.27,23.78-2.28,23.78-2.28a24.42,24.42,0,0,0,3.39-1.4C152.94,302.11,155.84,300.12,156.27,297.44Z"/><path class="aaf3764a-e0ac-45e3-9ca1-bd17dcf7cb75" d="M108.38,61.76a27.24,27.24,0,0,1-5.55.45,27,27,0,0,1-19.31,14,28.06,28.06,0,0,1-5.13.47,26.1,26.1,0,0,1-18.48-7.4,27.74,27.74,0,0,1-8,2.72,28.27,28.27,0,0,1-9.53.11l.48,44.51a12.19,12.19,0,0,0,14.36,11.86l66-11.93a12.19,12.19,0,0,0,9.29-16.14L117.33,58.51A28.21,28.21,0,0,1,108.38,61.76Zm-5.11,6a3.23,3.23,0,0,1,4.15,1.89l12.82,34.19a3.22,3.22,0,0,1-1.89,4.15,3,3,0,0,1-1.13.21,3.22,3.22,0,0,1-3-2.09L101.38,71.88A3.23,3.23,0,0,1,103.27,67.72Zm-21,10.67A3.24,3.24,0,0,1,86,81l5.18,28.65a3.24,3.24,0,0,1-2.6,3.76,3.9,3.9,0,0,1-.58,0,3.23,3.23,0,0,1-3.17-2.66L79.64,82.14A3.24,3.24,0,0,1,82.24,78.39ZM62.7,118a3.23,3.23,0,0,1-3.22-3l-2.93-37.6A3.23,3.23,0,1,1,63,77l2.93,37.6A3.23,3.23,0,0,1,63,118Z"/><path class="a1be2ad7-942f-49a9-b21e-411366198f0d" d="M37.86,104,38,116.64a17.09,17.09,0,0,0,17.08,16.91,16.64,16.64,0,0,0,3-.28l33.52-6.06,19-3.45,10.24-1.85,3.14-.57a17.08,17.08,0,0,0,13-22.63l-1.2-3.34L133.59,89l-.73-2L121.49,55.6a27,27,0,0,1-4.16,2.91l15.16,41.87a12.19,12.19,0,0,1-9.29,16.14L57.25,128.45a12.19,12.19,0,0,1-14.36-11.86l-.48-44.51A26.66,26.66,0,0,1,37.5,70.8l.27,25.57Z"/><path class="aaf3764a-e0ac-45e3-9ca1-bd17dcf7cb75" d="M50.8,65.62a21.66,21.66,0,0,0,8-3.18,3.15,3.15,0,0,1,1.76-.53,3.21,3.21,0,0,1,2.53,1.22c4.3,5.41,11.87,8.05,19.29,6.7,7.11-1.28,13-5.93,15.41-12.13a3.25,3.25,0,0,1,3.34-2.05,21.6,21.6,0,0,0,6.11-.24,20.82,20.82,0,0,0,12.9-7.68,16.21,16.21,0,0,0-4.39-24.23A20.84,20.84,0,0,0,101,20.81a1.39,1.39,0,0,1-.23.05,3.21,3.21,0,0,1-3.65-2.2C94.47,10.12,85,5,75.11,6.81a20.79,20.79,0,0,0-12.9,7.68,16.48,16.48,0,0,0-3.38,13.12l.08.32a3.22,3.22,0,0,1-4.13,3.72A21.61,21.61,0,0,0,44.54,31c-10.7,1.93-18,11.27-16.28,20.8A16.51,16.51,0,0,0,36,63,20.84,20.84,0,0,0,50.8,65.62Zm54.88-41c4.34.49,12.73,4,13.52,13.74a3.22,3.22,0,0,1-3,3.48H116a3.23,3.23,0,0,1-3.21-3c-.55-6.74-7.09-7.76-7.83-7.85a3.23,3.23,0,0,1,.74-6.42ZM34.8,40.7a3.23,3.23,0,0,1,6.13,2c-.54,1.68-1.46,6.65.79,9.45S48.55,55,52.1,54.68a3.22,3.22,0,1,1,.6,6.42c-1.11.11-2.17.16-3.19.16-5.85,0-10.17-1.71-12.86-5.09C31.78,50.05,34.67,41.08,34.8,40.7Z"/><path class="a1be2ad7-942f-49a9-b21e-411366198f0d" d="M42.41,72.08A28.27,28.27,0,0,0,51.94,72a27.74,27.74,0,0,0,8-2.72,26.1,26.1,0,0,0,18.48,7.4,28.06,28.06,0,0,0,5.13-.47,27,27,0,0,0,19.31-14,27.24,27.24,0,0,0,5.55-.45,28.21,28.21,0,0,0,9-3.25,27,27,0,0,0,4.16-2.91,26.38,26.38,0,0,0,3.76-3.93A22.68,22.68,0,0,0,119.16,18a27.08,27.08,0,0,0-16.84-3.89C97.72,4.07,86-1.73,74,.46A27.29,27.29,0,0,0,57.09,10.55a23.29,23.29,0,0,0-5,13.93,28.42,28.42,0,0,0-8.73.2C29.18,27.25,19.55,40,21.9,53A23,23,0,0,0,32.61,68.43a26.81,26.81,0,0,0,9.8,3.65ZM28.26,51.84C26.53,42.31,33.84,33,44.54,31a21.61,21.61,0,0,1,10.24.61,3.22,3.22,0,0,0,4.13-3.72l-.08-.32a16.48,16.48,0,0,1,3.38-13.12,20.79,20.79,0,0,1,12.9-7.68C85,5,94.47,10.12,97.16,18.66a3.21,3.21,0,0,0,3.65,2.2,1.39,1.39,0,0,0,.23-.05,20.84,20.84,0,0,1,14.7,2.69,16.21,16.21,0,0,1,4.39,24.23,20.82,20.82,0,0,1-12.9,7.68,21.6,21.6,0,0,1-6.11.24,3.25,3.25,0,0,0-3.34,2.05c-2.4,6.2-8.3,10.85-15.41,12.13-7.42,1.35-15-1.29-19.29-6.7a3.21,3.21,0,0,0-2.53-1.22,3.15,3.15,0,0,0-1.76.53,21.66,21.66,0,0,1-8,3.18A20.84,20.84,0,0,1,36,63,16.51,16.51,0,0,1,28.26,51.84Z"/><path class="f54db332-5a9f-4fa2-9fb1-cf2fc4f42499" d="M65.92,114.55,63,77a3.23,3.23,0,1,0-6.44.5l2.93,37.6a3.23,3.23,0,0,0,3.22,3H63A3.23,3.23,0,0,0,65.92,114.55Z"/><path class="f54db332-5a9f-4fa2-9fb1-cf2fc4f42499" d="M84.83,110.79A3.23,3.23,0,0,0,88,113.45a3.9,3.9,0,0,0,.58,0,3.24,3.24,0,0,0,2.6-3.76L86,81a3.23,3.23,0,0,0-6.36,1.15Z"/><path class="f54db332-5a9f-4fa2-9fb1-cf2fc4f42499" d="M114.2,106.07a3.22,3.22,0,0,0,3,2.09,3,3,0,0,0,1.13-.21,3.22,3.22,0,0,0,1.89-4.15L107.42,69.61a3.23,3.23,0,1,0-6,2.27Z"/><path class="f54db332-5a9f-4fa2-9fb1-cf2fc4f42499" d="M102.13,27.47a3.25,3.25,0,0,0,2.81,3.59c.74.09,7.28,1.11,7.83,7.85a3.23,3.23,0,0,0,3.21,3h.27a3.22,3.22,0,0,0,3-3.48c-.79-9.74-9.18-13.25-13.52-13.74A3.23,3.23,0,0,0,102.13,27.47Z"/><path class="f54db332-5a9f-4fa2-9fb1-cf2fc4f42499" d="M49.51,61.26c1,0,2.08,0,3.19-.16a3.22,3.22,0,1,0-.6-6.42c-3.55.33-8.24.16-10.38-2.51s-1.33-7.77-.79-9.45a3.23,3.23,0,0,0-6.13-2c-.13.38-3,9.35,1.85,15.47C39.34,59.55,43.66,61.26,49.51,61.26Z"/><path class="abbce4ee-5d1b-4d7a-9d41-ec749a2f92b9" d="M218,309.31a18.14,18.14,0,0,1-11.2-9c-1.14,2-2.5,4.22-4.11,6.63a59.77,59.77,0,0,1,5.25,3.71c1.64,1.31,3.19,2.68,4.64,4.09C214.53,312.66,216.36,310.86,218,309.31Z"/><path class="a1be2ad7-942f-49a9-b21e-411366198f0d" d="M224,313.43c2.61-2.37,4.61-3.92,5.67-4.71a18.11,18.11,0,0,1-11.64.59c-1.65,1.55-3.48,3.35-5.42,5.42a52.52,52.52,0,0,1,4.75,5.28C219.8,317.36,222.05,315.17,224,313.43Z"/><path class="a1be2ad7-942f-49a9-b21e-411366198f0d" d="M206.81,300.3a18.4,18.4,0,0,1-1.8-12.18,85.37,85.37,0,0,1-7.31,13.54c-.4.6-.8,1.23-1.23,1.86a53.28,53.28,0,0,1,6.23,3.41C204.31,304.52,205.67,302.29,206.81,300.3Z"/><polygon class="a502984f-6a09-4a8a-af2f-f54903a3b713" points="98.89 410.95 101.61 410.95 99.5 410.17 98.89 410.95"/><path class="a502984f-6a09-4a8a-af2f-f54903a3b713" d="M216.27,337.42c1.09-1.37.67-4.4-1.1-7.9-2.25-4.44-6.47-9.31-11.59-13.37s-10.83-7.06-15.67-8.23a17.52,17.52,0,0,0-4-.54c-1.85,0-3.24.43-3.9,1.27l-42.34,53.41a30.06,30.06,0,0,1,4.34,5.6,30.66,30.66,0,0,1-12.38,43.12l-.35.17h13.63l59.32-74.85a3.52,3.52,0,0,1,5.51,4.37L151.84,411H158Zm-22.13-26a3.52,3.52,0,0,1-3,6.34c-4.23-2-7,2.7-7.56,3.68a3.54,3.54,0,0,1-4.75,1.46,3.52,3.52,0,0,1-1.48-4.73C179.44,314.09,185.71,307.39,194.14,311.45Z"/><path class="a1be2ad7-942f-49a9-b21e-411366198f0d" d="M198.27,371.46l23.51-29.67c.14-.18.27-.36.4-.55a10.77,10.77,0,0,0,1.66-7.27,21.68,21.68,0,0,0-2.4-7.62,38,38,0,0,0-4.1-6.34,52.52,52.52,0,0,0-4.75-5.28c-1.45-1.41-3-2.78-4.64-4.09a59.77,59.77,0,0,0-5.25-3.71,53.28,53.28,0,0,0-6.23-3.41,38.83,38.83,0,0,0-6.9-2.43c-6.8-1.66-12.17-.52-15.11,3.19l-25.84,32.6-5,6.35-11.41,14.39a30.58,30.58,0,0,1,5.45,4.44L180,308.65c.66-.84,2.05-1.27,3.9-1.27a17.52,17.52,0,0,1,4,.54c4.84,1.17,10.55,4.17,15.67,8.23s9.34,8.93,11.59,13.37c1.77,3.5,2.19,6.53,1.1,7.9L158,411h9Z"/><polygon class="a1be2ad7-942f-49a9-b21e-411366198f0d" points="92.54 407.63 89.92 410.95 98.89 410.95 99.5 410.17 92.54 407.63"/><path class="ed3d27f0-a6c1-4147-82fd-c4d46c4a4593" d="M221.68,280.45A11.3,11.3,0,0,0,216,300.54a11.3,11.3,0,1,0,7-20.17A9.74,9.74,0,0,0,221.68,280.45ZM226,300.29a1.74,1.74,0,0,1-1.29.56,1.78,1.78,0,0,1-1.3-3c2.1-2.22,3.12-4.37,3.05-6.4a5.89,5.89,0,0,0-1.68-3.86,1.78,1.78,0,0,1,2.37-2.65,9.56,9.56,0,0,1,2.87,6.3C230.12,294.28,228.77,297.33,226,300.29Z"/><path class="a1be2ad7-942f-49a9-b21e-411366198f0d" d="M237.35,303.07a18.32,18.32,0,0,0-2.47-25.32c-.18-.15-.33-.3-.51-.44a18.2,18.2,0,0,0-13.5-3.85,18.75,18.75,0,0,0-3.51.76,18,18,0,0,0-6.78,4,18,18,0,0,0-5.57,9.93,18.37,18.37,0,0,0,6.58,17.93,18.44,18.44,0,0,0,25.76-3ZM230,282.82a11.31,11.31,0,1,1-8.32-2.37,9.74,9.74,0,0,1,1.32-.08A11.22,11.22,0,0,1,230,282.82Z"/><path class="a60c6d28-eb73-43a9-a017-4f02c6f647d7" d="M207.7,340.47a3.52,3.52,0,0,0-5.51-4.37L142.87,411h9Z"/><path class="abbce4ee-5d1b-4d7a-9d41-ec749a2f92b9" d="M227.12,284.94a1.78,1.78,0,0,0-2.37,2.65,5.89,5.89,0,0,1,1.68,3.86c.07,2-1,4.18-3.05,6.4a1.78,1.78,0,0,0,1.3,3,1.74,1.74,0,0,0,1.29-.56c2.8-3,4.15-6,4-9.05A9.56,9.56,0,0,0,227.12,284.94Z"/><path class="ae3af12f-5b58-4b25-8922-0d1f947d8c3d" d="M126.71,405.12a24.31,24.31,0,0,0-6-45.45L45,343.64A18.81,18.81,0,0,0,34.66,379.7l72.69,26.58A24,24,0,0,0,126.71,405.12ZM106.89,405l-74.7-27.4c-15-10.39-6.06-24.38-6.06-24.38C24.4,366.13,34,368.89,34,368.89s48,16.78,69.92,23.92,34.51-4.8,34.51-4.8C129.86,414.48,106.89,405,106.89,405Z"/><path class="a1be2ad7-942f-49a9-b21e-411366198f0d" d="M145.16,391.91A30.74,30.74,0,0,0,142,367.66a30.06,30.06,0,0,0-4.34-5.6,30.71,30.71,0,0,0-15.58-8.6L73.73,343.23l-27.4-5.8a24.88,24.88,0,0,0-14.39,1.23,25.16,25.16,0,0,0,.54,47l.51.18,42.2,15.43,17.35,6.35,7,2.54,2.11.78h27.63l.35-.17A30.77,30.77,0,0,0,145.16,391.91Zm-37.81,14.37L34.66,379.7A18.81,18.81,0,0,1,45,343.64l75.71,16a24.31,24.31,0,1,1-13.38,46.61Z"/><path class="afddd8d2-97b6-4f96-a2a4-085e7ac4df17" d="M138.44,388s-12.58,11.95-34.51,4.8S34,368.89,34,368.89s-9.61-2.76-7.88-15.69c0,0-9,14,6.06,24.38l74.7,27.4S129.86,414.48,138.44,388Z"/><path class="aaf3764a-e0ac-45e3-9ca1-bd17dcf7cb75" d="M177.3,318.2a3.51,3.51,0,0,0,3.11,5.13,3.55,3.55,0,0,0,3.12-1.86c.52-1,3.33-5.72,7.56-3.68a3.52,3.52,0,0,0,3-6.34C185.71,307.39,179.44,314.09,177.3,318.2Z"/></g></g></svg>