<svg xmlns="http://www.w3.org/2000/svg" viewBox="0 0 120.53 108.53"><defs><style>.b0f0d42d-d278-4e70-a060-26bfe1519f31{fill:#fff;}.f645d882-75c5-42a2-bf45-77c13f083d8e{fill:#40220f;}.e82d9845-857c-49ab-ac96-30d2cf8a90f6{fill:#231815;}.a5282aae-102f-42a1-a8a1-e8f32fd9f8f6{fill:#615f5f;}.e4d7a8ab-5687-4fab-ad04-df49d9cef90c{fill:#b5b5b6;}.bfbddbc9-0ff4-435f-9e7f-673151b119c7{fill:#4f4c4b;}</style></defs><title>資產 318</title><g id="bba61170-891b-4341-93e1-89f33dda9040" data-name="圖層 2"><g id="b42c5b2a-9a76-4e41-986a-e4b6d3e52148" data-name="圖層 1"><path class="b0f0d42d-d278-4e70-a060-26bfe1519f31" d="M60.26.83C27.44.83.83,19.72.83,43S27.44,85.2,60.26,85.2,119.69,66.31,119.69,43,93.09.83,60.26.83Zm42.28,68.08c-10.19,8.38-25.23,13.7-42,13.75-26.64-.09-48.19-12.6-48.19-28s21.71-28,48.49-28,48.49,12.54,48.49,28C109.3,59.86,106.83,64.73,102.54,68.91Z"/><path class="f645d882-75c5-42a2-bf45-77c13f083d8e" d="M60.26,86C27,86,0,66.73,0,43S27,0,60.26,0s60.27,19.3,60.27,43S93.49,86,60.26,86Zm0-84.37C28,1.66,1.66,20.21,1.66,43S28,84.37,60.26,84.37s58.6-18.55,58.6-41.35S92.58,1.66,60.26,1.66Zm.25,81.83c-27-.09-49-13-49-28.84S33.62,25.81,60.81,25.81s49.32,12.94,49.32,28.84c0,5.25-2.42,10.39-7,14.86l-.05,0C92.36,78.36,76.84,83.44,60.51,83.49Zm.3-56c-26.27,0-47.65,12.19-47.65,27.18S34.4,81.74,60.51,81.83c15.94,0,31.05-5,41.48-13.54,4.24-4.14,6.48-8.86,6.48-13.64C108.47,39.66,87.09,27.47,60.81,27.47Z"/><path class="b0f0d42d-d278-4e70-a060-26bfe1519f31" d="M119.69,43l-1.45,9.28A30.78,30.78,0,0,0,119.69,43Z"/><path class="f645d882-75c5-42a2-bf45-77c13f083d8e" d="M119,52.54l-1.62-.38,1.46-9.27,1.66.13A31.69,31.69,0,0,1,119,52.54Z"/><path class="b0f0d42d-d278-4e70-a060-26bfe1519f31" d="M2.5,52.92.83,43A30.68,30.68,0,0,0,2.5,52.92Z"/><path class="e82d9845-857c-49ab-ac96-30d2cf8a90f6" d="M1.71,53.19A31.47,31.47,0,0,1,0,43l1.65-.14,1.67,9.9Z"/><path class="b0f0d42d-d278-4e70-a060-26bfe1519f31" d="M60.81,82.67c17.77,0,33.29-5.53,41.73-13.76-10.19,8.38-25.23,13.7-42,13.75Z"/><path class="f645d882-75c5-42a2-bf45-77c13f083d8e" d="M60.81,83.23h-.3V82.09c16,0,31.2-5,41.67-13.62l.76.85C94.14,77.9,78,83.23,60.81,83.23Z"/><path class="a5282aae-102f-42a1-a8a1-e8f32fd9f8f6" d="M60.26,3.36C29.41,3.36,4.4,21.12,4.4,43s25,39.66,55.86,39.66h.25c-26.64-.09-48.19-12.6-48.19-28s21.71-28,48.49-28,48.49,12.54,48.49,28c0,5.21-2.47,10.08-6.76,14.26C111,62,116.13,52.92,116.13,43,116.13,21.12,91.11,3.36,60.26,3.36Z"/><path class="f645d882-75c5-42a2-bf45-77c13f083d8e" d="M60.26,83.5C29,83.5,3.57,65.34,3.57,43S29,2.53,60.26,2.53,117,20.69,117,43c0,9.75-4.93,19.18-13.89,26.53L102,68.32c4.26-4.15,6.51-8.88,6.51-13.67,0-15-21.38-27.18-47.66-27.18S13.16,39.66,13.16,54.65,34.4,81.74,60.51,81.83v1.66Zm0-79.3c-30.34,0-55,17.41-55,38.82,0,8,3.42,15.37,9.27,21.54a18.55,18.55,0,0,1-3-9.91c0-15.9,22.13-28.84,49.32-28.84s49.32,12.94,49.32,28.84a17.68,17.68,0,0,1-1.28,6.56A30.14,30.14,0,0,0,115.29,43C115.29,21.61,90.61,4.2,60.26,4.2Z"/><path class="e4d7a8ab-5687-4fab-ad04-df49d9cef90c" d="M60.26,85.2c-28.33,0-52-14.08-58-32.91L4,62.89A52.72,52.72,0,0,0,52.19,107.4c1.14.08,2.31.15,3.5.19,1.57.06,3.09.09,4.57.11s3,0,4.57-.11c1.2,0,2.37-.11,3.51-.19a52.73,52.73,0,0,0,48.23-44.51l1.67-10.6C112.28,71.12,88.59,85.2,60.26,85.2Z"/><path class="f645d882-75c5-42a2-bf45-77c13f083d8e" d="M60.27,108.53c-1.51,0-3,0-4.61-.11-1.2,0-2.38-.11-3.53-.19A53.27,53.27,0,0,1,3.14,63L1.47,52.42,3.08,52C9,70.77,33.06,84.37,60.26,84.37S111.52,70.77,117.44,52l1.62.38L117.39,63a53.27,53.27,0,0,1-49,45.21c-1.15.08-2.33.15-3.53.19C63.29,108.48,61.77,108.51,60.27,108.53ZM4.15,58.75l.63,4a51.63,51.63,0,0,0,47.47,43.82c1.13.07,2.29.14,3.47.18,1.56.06,3.07.09,4.55.11s3-.05,4.53-.11c1.19,0,2.35-.11,3.48-.18a51.64,51.64,0,0,0,47.47-43.82l.63-4C107.49,75.09,85.54,86,60.26,86S13,75.09,4.15,58.75Z"/><path class="b0f0d42d-d278-4e70-a060-26bfe1519f31" d="M59.91,103.63c-29.53,0-43.31-20.52-43.89-21.4A1.66,1.66,0,0,1,18.8,80.4c.14.21,13.9,20.53,42.55,19.89a1.66,1.66,0,0,1,.08,3.32Z"/><path class="bfbddbc9-0ff4-435f-9e7f-673151b119c7" d="M109.3,42a.89.89,0,0,1-.72-.37c-18.09-24.42-59-19.84-59.43-19.79A.9.9,0,0,1,48.94,20C49.36,20,91.31,15.28,110,40.55a.88.88,0,0,1-.19,1.25A.87.87,0,0,1,109.3,42Z"/></g></g></svg>