<svg xmlns="http://www.w3.org/2000/svg" viewBox="0 0 155.44 117.94"><defs><style>.a22f20db-9aac-4814-aaf0-6a350bf02d41{fill:#cfd0d0;}.b7de2f3b-4bea-4163-b0d8-85d3cc152b62{fill:#78a639;}.f2078121-3b2e-4ecb-97cd-b52c8ace9263{fill:#577d4a;}.e63dc294-5de7-4557-b18c-659f9df3f962{fill:#5c863d;opacity:0.61;}</style></defs><title>綠</title><g id="a8aeb465-f81b-43a7-9d6f-8f8f60ec79df" data-name="圖層 2"><g id="ee27b2e6-b2d6-4b30-8d44-49a226169b1e" data-name="圖層 1"><path class="a22f20db-9aac-4814-aaf0-6a350bf02d41" d="M25.47,106.91,14.66,97.3A43.65,43.65,0,0,1,9.06,38l9.45-12.27A43.66,43.66,0,0,1,69.46,11.92l48.81,19.73a43.65,43.65,0,0,1,27.08,44.82h0a43.67,43.67,0,0,1-41.46,39.27l-47.44,2.15A43.62,43.62,0,0,1,25.47,106.91Z"/><path class="b7de2f3b-4bea-4163-b0d8-85d3cc152b62" d="M33.23,100.26,22.41,90.65a43.65,43.65,0,0,1-5.59-59.26l9.45-12.27a43.66,43.66,0,0,1,51-13.85L126,25a43.65,43.65,0,0,1,27.08,44.82h0a43.67,43.67,0,0,1-41.46,39.27l-47.44,2.15A43.62,43.62,0,0,1,33.23,100.26Z"/><path class="f2078121-3b2e-4ecb-97cd-b52c8ace9263" d="M62.19,113.4a45.46,45.46,0,0,1-30.36-11.56L21,92.23A45.92,45.92,0,0,1,15.15,30.1L24.6,17.83A45.9,45.9,0,0,1,78,3.31L126.82,23a45.77,45.77,0,0,1-15.07,88.16l-47.44,2.15C63.6,113.38,62.9,113.4,62.19,113.4ZM34.63,98.68a41.26,41.26,0,0,0,29.49,10.45L111.55,107a41.55,41.55,0,0,0,13.69-80L76.43,7.23A41.69,41.69,0,0,0,27.94,20.4L18.5,32.67a41.68,41.68,0,0,0,5.32,56.4Z"/><path class="e63dc294-5de7-4557-b18c-659f9df3f962" d="M49.23,36.94c4.32-2.67,9-3.92,14-3,3.53.66,6.35,3,9.8,3.67,3.24.6,6.42-.76,9.66-.54A18.94,18.94,0,0,1,96.9,45.64c3,4.4,10.19.24,7.17-4.2-6.87-10.12-15.34-12-26.74-12.3C71.74,29,67,25.58,61.29,25.3A27.93,27.93,0,0,0,45,29.76c-4.54,2.8-.37,10,4.2,7.18Z"/><path class="e63dc294-5de7-4557-b18c-659f9df3f962" d="M59.3,69.33A26.27,26.27,0,0,0,73.9,81c8.9,2.72,17.69-2.1,25.78,3.26,10.53,7,23.52,5.58,28.17-7.53,1.79-5-6.23-7.23-8-2.21-4.92,13.85-17.63-.73-25.5-2C90,71.79,86,73.7,81.74,73.84c-6.42.22-12-3.39-15.26-8.71-2.81-4.54-10-.37-7.18,4.2Z"/><path class="e63dc294-5de7-4557-b18c-659f9df3f962" d="M11,51.73c1.68,12.94,7.47,21.73,16.3,31.13,7.51,8,15,19.25,27,19.86,5.34.27,5.33-8,0-8.31C45.91,94,38.37,82.51,33.17,77c-7.08-7.53-12.5-14.71-13.86-25.25-.68-5.23-9-5.29-8.32,0Z"/><path class="e63dc294-5de7-4557-b18c-659f9df3f962" d="M125.26,36.44c-1.19,1-1.72.12.1,1.23a20.08,20.08,0,0,1,2,1.42,35.89,35.89,0,0,1,4.41,4.13A33.93,33.93,0,0,1,138,53c2,4.87,10.07,2.74,8-2.21a44.1,44.1,0,0,0-10.86-16c-4.33-4-10.19-8.67-15.72-4.25-4.18,3.34,1.73,9.19,5.87,5.88Z"/></g></g></svg>