<svg xmlns="http://www.w3.org/2000/svg" xmlns:xlink="http://www.w3.org/1999/xlink" viewBox="0 0 85.94 79.54"><defs><style>.fb6458f8-12ea-4244-8da1-a133c8dff75e{opacity:0.25;}.ba667275-98af-4443-82c6-67c343e9be7e{fill:#fff;}.bb6fe95f-2d93-45ec-a944-d656c32f2ad2{fill:#98d6f6;}.b9f7a90a-776d-450b-801b-207dbf1c293c{fill:#90afd2;}.fe6d271f-65ef-4f8a-9fc4-47163e0c3fb9{opacity:0.65;fill:url(#a8b43907-3c34-4542-ba35-aeb27618a781);}</style><radialGradient id="a8b43907-3c34-4542-ba35-aeb27618a781" cx="1.6" cy="65.75" r="40" gradientTransform="translate(41.51 -20.52) scale(0.91 0.92)" gradientUnits="userSpaceOnUse"><stop offset="0" stop-color="#fff" stop-opacity="0"/><stop offset="0.45" stop-color="#fbfcfc" stop-opacity="0.02"/><stop offset="0.61" stop-color="#eeeff3" stop-opacity="0.08"/><stop offset="0.72" stop-color="#d7dae2" stop-opacity="0.2"/><stop offset="0.81" stop-color="#b6bbca" stop-opacity="0.36"/><stop offset="0.89" stop-color="#8b94aa" stop-opacity="0.57"/><stop offset="0.96" stop-color="#576384" stop-opacity="0.82"/><stop offset="1" stop-color="#324169"/></radialGradient></defs><title>餅乾六角</title><g id="f49efcd1-34bd-4413-a752-ac5871c87645" data-name="圖層 2"><g id="fb61ca55-45bf-4a09-82a1-3734608b5d38" data-name="圖層 1"><g class="fb6458f8-12ea-4244-8da1-a133c8dff75e"><path class="ba667275-98af-4443-82c6-67c343e9be7e" d="M55.83,3a14.14,14.14,0,0,1,12.26,7.1l13,22.6A14.17,14.17,0,0,1,81,46.8l-13,22.59A14.13,14.13,0,0,1,55.83,76.5H30.1a14.11,14.11,0,0,1-12.25-7.11L4.9,46.8a14.12,14.12,0,0,1,0-14.06l13-22.6A14.13,14.13,0,0,1,30.1,3H55.83m0-3H30.1A17.21,17.21,0,0,0,15.21,8.63L2.27,31.23a17.18,17.18,0,0,0,0,17.08l12.94,22.6A17.21,17.21,0,0,0,30.1,79.54H55.83a17.2,17.2,0,0,0,14.89-8.63l13-22.6a17.23,17.23,0,0,0,0-17.08l-13-22.6A17.2,17.2,0,0,0,55.83,0Z"/><path class="bb6fe95f-2d93-45ec-a944-d656c32f2ad2" d="M43,39.77C43,18.41,30.34,8,24.08,4.19A13,13,0,0,0,18.2,9.52L4.58,33.29a13.16,13.16,0,0,0-1.64,5.17C9.37,34.91,24.61,29.09,43,39.77Z"/><path class="b9f7a90a-776d-450b-801b-207dbf1c293c" d="M43,39.77c18.35-10.68,21-26.89,21.14-34.26A12.78,12.78,0,0,0,56.59,3H29.35a12.78,12.78,0,0,0-5.27,1.15C30.34,8,43,18.41,43,39.77Z"/><path class="bb6fe95f-2d93-45ec-a944-d656c32f2ad2" d="M43,39.77c18.35,10.68,33.59,4.85,40,1.31a13,13,0,0,0-1.64-7.79L67.73,9.52a12.8,12.8,0,0,0-3.62-4C63.94,12.88,61.32,29.09,43,39.77Z"/><path class="b9f7a90a-776d-450b-801b-207dbf1c293c" d="M43,39.77c-18.36-10.68-33.6-4.86-40-1.31a13.12,13.12,0,0,0,1.64,7.79L18.2,70a13,13,0,0,0,3.63,4C22,66.65,24.61,50.45,43,39.77Z"/><path class="b9f7a90a-776d-450b-801b-207dbf1c293c" d="M43,39.77c0,21.35,12.62,31.74,18.88,35.58A12.85,12.85,0,0,0,67.73,70L81.35,46.25A13,13,0,0,0,83,41.08C76.56,44.62,61.32,50.45,43,39.77Z"/><path class="bb6fe95f-2d93-45ec-a944-d656c32f2ad2" d="M43,39.77C24.61,50.45,22,66.65,21.83,74a12.75,12.75,0,0,0,7.52,2.47H56.59a12.85,12.85,0,0,0,5.26-1.15C55.59,71.51,43,61.12,43,39.77Z"/><path class="fe6d271f-65ef-4f8a-9fc4-47163e0c3fb9" d="M59.09,3H26.84a8.5,8.5,0,0,0-7.37,4.27L3.29,35.54a8.51,8.51,0,0,0,0,8.46L19.47,72.22a8.49,8.49,0,0,0,7.37,4.28H59.09a8.5,8.5,0,0,0,7.38-4.28L82.64,44a8.51,8.51,0,0,0,0-8.46L66.47,7.31A8.51,8.51,0,0,0,59.09,3Z"/></g></g></g></svg>