<svg xmlns="http://www.w3.org/2000/svg" viewBox="0 0 112.08 96.44"><defs><style>.e055b273-944f-445d-b5f1-782cc904e60f{fill:#999;}.adb1207a-5bf1-406f-8639-e2e05b67e466{fill:#40220f;}.fc854ff5-a8e9-4709-8418-d90bb9fb5250{fill:#b5b5b6;}.eaa57259-fc85-4995-9828-a8c018ab8c47{fill:#615f5f;}.b13b0329-925d-45e2-80ee-d723187feb7c{fill:#fff;}.b3ee08b4-fe7d-4f50-bf46-2b0701dacb89{fill:#4f4c4b;}</style></defs><title>六角</title><g id="fddcd252-f114-47c1-9363-889a5fd0dca3" data-name="圖層 2"><g id="bf6535fe-9b97-419b-88c5-171247fdf865" data-name="圖層 1"><path class="e055b273-944f-445d-b5f1-782cc904e60f" d="M80.54,92.57l24.7-33.8a33.17,33.17,0,0,0,5.36-15.14l.57-6.14L80.86,77.15Z"/><path class="adb1207a-5bf1-406f-8639-e2e05b67e466" d="M80.54,93.47a.92.92,0,0,1-.28,0,.9.9,0,0,1-.61-.87L80,77.14a.92.92,0,0,1,.19-.53L110.46,37a.9.9,0,0,1,1.61.63l-.58,6.13A34.08,34.08,0,0,1,106,59.27L81.27,93.1A.91.91,0,0,1,80.54,93.47Zm1.21-16L81.5,89.74l23-31.5a32.19,32.19,0,0,0,5.18-14.7l.29-3Z"/><path class="fc854ff5-a8e9-4709-8418-d90bb9fb5250" d="M24.55,77.15H80.86V90.54a5,5,0,0,1-5,5H29.55a5,5,0,0,1-5-5Z"/><path class="adb1207a-5bf1-406f-8639-e2e05b67e466" d="M75.86,96.44H29.55a5.91,5.91,0,0,1-5.9-5.9V77.15a.89.89,0,0,1,.9-.89H80.86a.89.89,0,0,1,.9.89V90.54A5.91,5.91,0,0,1,75.86,96.44ZM25.45,78.05V90.54a4.1,4.1,0,0,0,4.1,4.1H75.86a4.11,4.11,0,0,0,4.1-4.1V78.05Z"/><path class="e055b273-944f-445d-b5f1-782cc904e60f" d="M1,38.22,24.55,77.15V91.56L3.32,55.44a13.27,13.27,0,0,1-1.5-5.26Z"/><path class="adb1207a-5bf1-406f-8639-e2e05b67e466" d="M24.55,92.46a.92.92,0,0,1-.78-.45L2.55,55.89A13.81,13.81,0,0,1,.93,50.24l-.83-12a.9.9,0,0,1,1.67-.52L25.32,76.69a.94.94,0,0,1,.13.46V91.56a.9.9,0,0,1-.67.86A.59.59,0,0,1,24.55,92.46ZM2.15,41.86l.57,8.26A12.38,12.38,0,0,0,4.11,55L23.65,88.26V77.41Z"/><path class="eaa57259-fc85-4995-9828-a8c018ab8c47" d="M11.21,55.93,33.4,23.59,31.23.9,2.2,34.52a5.3,5.3,0,0,0-.48,6.29Z"/><path class="adb1207a-5bf1-406f-8639-e2e05b67e466" d="M11.21,56.82h0a.88.88,0,0,1-.75-.42L1,41.29a6.17,6.17,0,0,1,.56-7.36L30.55.31a.89.89,0,0,1,1.57.5l2.18,22.7a.88.88,0,0,1-.16.59L12,56.43A.87.87,0,0,1,11.21,56.82ZM30.54,3.07,2.88,35.1a4.38,4.38,0,0,0-.4,5.23l8.77,14L32.48,23.35Z"/><polygon class="eaa57259-fc85-4995-9828-a8c018ab8c47" points="33.41 23.59 85.71 23.59 87.54 0.9 31.23 0.9 33.41 23.59"/><path class="adb1207a-5bf1-406f-8639-e2e05b67e466" d="M85.71,24.49H33.4a.89.89,0,0,1-.89-.81L30.34,1a.88.88,0,0,1,.22-.69A.94.94,0,0,1,31.23,0H87.54a.88.88,0,0,1,.66.29.89.89,0,0,1,.24.68l-1.83,22.7A.9.9,0,0,1,85.71,24.49ZM34.22,22.7H84.88L86.57,1.8H32.22Z"/><path class="eaa57259-fc85-4995-9828-a8c018ab8c47" d="M85.71,23.59l12,32.34L110.19,40.1a4.57,4.57,0,0,0,.21-5.37L87.54.9Z"/><path class="adb1207a-5bf1-406f-8639-e2e05b67e466" d="M97.66,56.82h-.14a.89.89,0,0,1-.7-.57L84.87,23.91a.89.89,0,0,1-.06-.39L86.65.83A.9.9,0,0,1,88.29.4l22.85,33.83a5.44,5.44,0,0,1-.24,6.43L98.37,56.48A.89.89,0,0,1,97.66,56.82Zm-11-33.35L98,54.12l11.54-14.58a3.63,3.63,0,0,0,.16-4.31L88.23,3.52Z"/><path class="b13b0329-925d-45e2-80ee-d723187feb7c" d="M84.52.9H33.84a5.69,5.69,0,0,0-4.31,2L2.38,34.3a5.7,5.7,0,0,0-.51,6.75l21,33.44a5.71,5.71,0,0,0,4.83,2.66H78.1A5.67,5.67,0,0,0,82.57,75l27.1-34.23a5.71,5.71,0,0,0,.25-6.73L89.24,3.41A5.7,5.7,0,0,0,84.52.9ZM71.89,73.09H35.13A13.16,13.16,0,0,1,24,66.93L10.74,45.83a13.13,13.13,0,0,1,1.18-15.59l18-20.83a13.16,13.16,0,0,1,10-4.55H77.24a13.13,13.13,0,0,1,10.89,5.79l12.82,19a13.15,13.15,0,0,1-.58,15.52l-18.18,23A13.14,13.14,0,0,1,71.89,73.09Z"/><path class="adb1207a-5bf1-406f-8639-e2e05b67e466" d="M78.1,78.05H27.7A6.57,6.57,0,0,1,22.11,75l-21-33.44a6.57,6.57,0,0,1,.59-7.82L28.85,2.28a6.58,6.58,0,0,1,5-2.28H84.52A6.6,6.6,0,0,1,90,2.9l20.69,30.63a6.56,6.56,0,0,1-.3,7.79L83.28,75.55A6.57,6.57,0,0,1,78.1,78.05ZM33.84,1.8A4.8,4.8,0,0,0,30.2,3.46L3.06,34.89a4.78,4.78,0,0,0-.43,5.69L23.63,74a4.79,4.79,0,0,0,4.07,2.25H78.1a4.81,4.81,0,0,0,3.77-1.82L109,40.2a4.77,4.77,0,0,0,.21-5.66L88.49,3.91a4.79,4.79,0,0,0-4-2.11ZM71.89,74H35.13a14,14,0,0,1-11.9-6.58L10,46.3a14,14,0,0,1,1.26-16.65l18-20.82A14,14,0,0,1,39.86,4H77.24a14,14,0,0,1,11.64,6.18l12.82,19a14,14,0,0,1-.63,16.58l-18.17,23A14,14,0,0,1,71.89,74Zm-32-68.23A12.24,12.24,0,0,0,30.58,10l-18,20.83a12.17,12.17,0,0,0-1.1,14.52L24.75,66.46a12.2,12.2,0,0,0,10.38,5.73H71.89a12.17,12.17,0,0,0,9.6-4.65l18.17-23a12.19,12.19,0,0,0,.55-14.45l-12.82-19A12.23,12.23,0,0,0,77.24,5.76Z"/><path class="adb1207a-5bf1-406f-8639-e2e05b67e466" d="M14.88,52.11a.88.88,0,0,1-.49-.15.89.89,0,0,1-.25-1.25L30.48,26.34c1.25-1.86,3.12-4,6.55-4h.06l42.38.3a10,10,0,0,1,9.25,6.49L96.43,50a.9.9,0,1,1-1.69.63L87,29.77a8.16,8.16,0,0,0-7.57-5.32l-42.38-.31h0c-2.07,0-3.53.93-5.06,3.2L15.63,51.71A.9.9,0,0,1,14.88,52.11Z"/><path class="b13b0329-925d-45e2-80ee-d723187feb7c" d="M47.24,92.28H33.66a4.55,4.55,0,0,1-4.55-4.54V84a1.67,1.67,0,0,1,3.33,0v3.77A1.22,1.22,0,0,0,33.66,89H47.24a1.66,1.66,0,1,1,0,3.32Z"/><path class="b3ee08b4-fe7d-4f50-bf46-2b0701dacb89" d="M77,20.1H39a.9.9,0,1,1,0-1.79H77a2.77,2.77,0,0,0,2.77-2.67L80,11.55a.88.88,0,0,1,.94-.86.9.9,0,0,1,.86.93l-.17,4.1A4.56,4.56,0,0,1,77,20.1Z"/><path class="b3ee08b4-fe7d-4f50-bf46-2b0701dacb89" d="M97.46,42.41a.89.89,0,0,1-.81-.53L88.33,23.62A.9.9,0,0,1,90,22.87l8.31,18.27a.9.9,0,0,1-.44,1.19A1,1,0,0,1,97.46,42.41Z"/><path class="b3ee08b4-fe7d-4f50-bf46-2b0701dacb89" d="M16.28,39.87a.89.89,0,0,1-.71-1.44L28,22a.9.9,0,0,1,1.44,1.08L17,39.51A.89.89,0,0,1,16.28,39.87Z"/></g></g></svg>