<svg xmlns="http://www.w3.org/2000/svg" viewBox="0 0 155.48 112.87"><defs><style>.a4670efc-6789-4de1-b040-4bd2d5b7e51d{fill:#cfd0d0;}.b5c08b1a-8e68-45b7-8153-b90efa462b51{fill:#f4a146;}.b573e718-9b42-450d-8038-d4dbbb5d056e{fill:#ed7044;}.e25c02ee-418b-4fb0-aaec-d61f158d03e1{fill:#ed6d13;opacity:0.61;}</style></defs><title>橘</title><g id="ae82daa3-0d90-4457-9099-2a49630d5554" data-name="圖層 2"><g id="af6b248f-793f-4d84-a8f8-bbf4cb4c5c41" data-name="圖層 1"><path class="a4670efc-6789-4de1-b040-4bd2d5b7e51d" d="M35,21.48l37.65-9a47.21,47.21,0,0,1,33.08,4.23l23.5,12.54a44.17,44.17,0,0,1,23.33,45.29h0c-3.21,22-22.59,38.3-45.47,38.3H46C21.12,112.87.76,93.62.11,69.48L0,65.91C-.55,45,14,26.47,35,21.48Z"/><path class="b5c08b1a-8e68-45b7-8153-b90efa462b51" d="M38.51,12.75,75,3.78A44.58,44.58,0,0,1,107.12,8l22.8,12.54a44.57,44.57,0,0,1,22.64,45.29h0a44.56,44.56,0,0,1-44.11,38.3H49.22A44.55,44.55,0,0,1,4.68,60.75l-.09-3.57A44.55,44.55,0,0,1,38.51,12.75Z"/><path class="b573e718-9b42-450d-8038-d4dbbb5d056e" d="M108.45,106.63H49.22a46.78,46.78,0,0,1-47-45.81l-.1-3.58A47.31,47.31,0,0,1,37.91,10.33l36.53-9a46.9,46.9,0,0,1,33.88,4.47l22.8,12.54a47,47,0,0,1-22.67,88.26ZM39.1,15.17a42.3,42.3,0,0,0-32,41.94l.09,3.58a41.83,41.83,0,0,0,42.05,41h59.23a42.06,42.06,0,0,0,20.26-78.91L105.92,10.2a41.92,41.92,0,0,0-30.29-4Z"/><path class="e25c02ee-418b-4fb0-aaec-d61f158d03e1" d="M28.68,67.86a17.2,17.2,0,0,0,8.63,8.41c4.24,1.86,7,.8,11.22,1q2-1.8,2.76.48l.84.64c2.57,1.2,4.59,3,7.37,3.93a27.3,27.3,0,0,0,14.21.5c5.24-1,3-9.06-2.21-8a17.44,17.44,0,0,1-13.19-2.18c-1.8-1.16-4-4-6.33-4.53-2.16-.46-3.63.81-5.66,1.15-4.77.82-8.38-1.39-10.46-5.59-2.38-4.79-9.55-.59-7.18,4.2Z"/><path class="e25c02ee-418b-4fb0-aaec-d61f158d03e1" d="M74.57,38.83a11.65,11.65,0,0,1,12.75-5.74c2.74.54,4.92,2,7.8,1.71,5.41-.63,8.7-3.7,14.52-1.65,5.16,1.81,9.06,6.43,12.67,10.33s9.51-1.95,5.88-5.87c-4.43-4.79-9.11-9.72-15.28-12.21a22.79,22.79,0,0,0-9.19-1.76c-3.16.12-5.73,1.88-8.74,2.27-5.2.67-10.11-2.27-15.87-.64a19.4,19.4,0,0,0-11.72,9.37c-2.64,4.66,4.54,8.85,7.18,4.19Z"/><path class="e25c02ee-418b-4fb0-aaec-d61f158d03e1" d="M25.38,34.27c.34-5,6.12-7.55,10-9.41a90.17,90.17,0,0,1,16-5.64c5.17-1.35,3-9.37-2.21-8-11.71,3-31.1,8.43-32.1,23.06-.36,5.34,8,5.32,8.31,0Z"/><path class="e25c02ee-418b-4fb0-aaec-d61f158d03e1" d="M141.52,56.8c-.13,10.85-1,20.68-10.36,27.65s-18,9.92-29.85,7.89c-5.23-.89-7.48,7.12-2.21,8,14.61,2.5,25.25-.36,37.16-9.32,11.44-8.62,13.41-20.66,13.57-34.24.07-5.35-8.24-5.35-8.31,0Z"/></g></g></svg>