<svg xmlns="http://www.w3.org/2000/svg" xmlns:xlink="http://www.w3.org/1999/xlink" viewBox="0 0 589.08 107.86"><defs><style>.f92e8f4b-a0c7-42dd-8f17-92b0224f2887{fill:none;}.ac6c2bc5-8e8f-48dd-94f2-d2135abfef5e{fill:#b28247;}.b0b61b16-f4a8-4db6-9ca4-178d7f444bd7{fill:#40220f;}.b825c3a2-19c6-4354-ba83-76068954eb58{opacity:0.25;}.b3738f4d-ae93-45de-b4a3-ce82f040b10f{fill:#f4a146;}.efb68bb5-9107-4d27-88ab-654cd913bbb4{fill:#fff;}.b0d90cba-10d7-4210-90c4-a5dbd05fc1e2{fill:url(#bc611e25-b4b6-4da4-9b7d-3ba9cee78046);}.a12e7668-3678-495c-b4f8-dab4d4a4441c{fill:#7f4f21;}.b2fde26f-9aac-4ccf-b890-1388cf27523a{fill:#6a3906;}.b807626a-fc27-49a6-b37d-8273834a33f4{fill:#7b4d16;}</style><radialGradient id="bc611e25-b4b6-4da4-9b7d-3ba9cee78046" cx="67.61" cy="36.49" r="36.03" gradientTransform="translate(-27.66 23.02) scale(1.01 1.01)" gradientUnits="userSpaceOnUse"><stop offset="0" stop-color="#fff" stop-opacity="0"/><stop offset="0.32" stop-color="#fefdfc" stop-opacity="0.01"/><stop offset="0.48" stop-color="#f9f6f2" stop-opacity="0.06"/><stop offset="0.6" stop-color="#f1e9e0" stop-opacity="0.14"/><stop offset="0.7" stop-color="#e6d7c7" stop-opacity="0.26"/><stop offset="0.79" stop-color="#d7c0a6" stop-opacity="0.41"/><stop offset="0.87" stop-color="#c5a47e" stop-opacity="0.6"/><stop offset="0.95" stop-color="#b1834f" stop-opacity="0.82"/><stop offset="1" stop-color="#9f6728"/></radialGradient></defs><title>展示</title><g id="be2401ee-d97a-40da-aa42-36e886935f4f" data-name="圖層 2"><g id="b338c43e-55ed-45a0-9b7f-2523c53e3b52" data-name="圖層 1"><path class="f92e8f4b-a0c7-42dd-8f17-92b0224f2887" d="M42.34,0H0V107.86H.33V42.28A42.28,42.28,0,0,1,42.34,0Z"/><rect class="ac6c2bc5-8e8f-48dd-94f2-d2135abfef5e" x="48.27" y="3.93" width="536.88" height="103.94"/><polygon class="b0b61b16-f4a8-4db6-9ca4-178d7f444bd7" points="48.23 107.86 48.27 107.86 48.27 3.93 585.15 3.93 585.15 107.86 589.08 107.86 589.08 0 48.23 0 48.23 107.86"/><g class="b825c3a2-19c6-4354-ba83-76068954eb58"><ellipse class="b3738f4d-ae93-45de-b4a3-ce82f040b10f" cx="40.39" cy="59.8" rx="36.26" ry="36.31"/><path class="efb68bb5-9107-4d27-88ab-654cd913bbb4" d="M40.39,23.49A36.32,36.32,0,1,1,4.13,59.8,36.29,36.29,0,0,1,40.39,23.49m0-3.8A40.12,40.12,0,1,0,80.45,59.8,40.13,40.13,0,0,0,40.39,19.69Z"/><ellipse class="b0d90cba-10d7-4210-90c4-a5dbd05fc1e2" cx="40.39" cy="59.8" rx="36.26" ry="36.31"/><ellipse class="a12e7668-3678-495c-b4f8-dab4d4a4441c" cx="22.89" cy="43.28" rx="4.27" ry="4.28"/><path class="b2fde26f-9aac-4ccf-b890-1388cf27523a" d="M22.89,48.18a4.91,4.91,0,1,1,4.9-4.9A4.91,4.91,0,0,1,22.89,48.18Zm0-8.55a3.65,3.65,0,1,0,3.63,3.65A3.65,3.65,0,0,0,22.89,39.63Z"/><ellipse class="a12e7668-3678-495c-b4f8-dab4d4a4441c" cx="19.78" cy="67.66" rx="4.27" ry="4.28"/><path class="b2fde26f-9aac-4ccf-b890-1388cf27523a" d="M19.78,72.57a4.91,4.91,0,1,1,4.91-4.91A4.91,4.91,0,0,1,19.78,72.57Zm0-8.55a3.64,3.64,0,1,0,3.64,3.64A3.64,3.64,0,0,0,19.78,64Z"/><ellipse class="a12e7668-3678-495c-b4f8-dab4d4a4441c" cx="41.6" cy="59.11" rx="4.27" ry="4.28"/><path class="b2fde26f-9aac-4ccf-b890-1388cf27523a" d="M41.6,64a4.91,4.91,0,1,1,4.91-4.91A4.91,4.91,0,0,1,41.6,64Zm0-8.55a3.64,3.64,0,1,0,3.64,3.64A3.64,3.64,0,0,0,41.6,55.47Z"/><ellipse class="a12e7668-3678-495c-b4f8-dab4d4a4441c" cx="52.99" cy="39" rx="4.27" ry="4.28"/><path class="b2fde26f-9aac-4ccf-b890-1388cf27523a" d="M53,43.91A4.91,4.91,0,1,1,57.89,39,4.91,4.91,0,0,1,53,43.91Zm0-8.55A3.64,3.64,0,1,0,56.63,39,3.64,3.64,0,0,0,53,35.36Z"/><ellipse class="a12e7668-3678-495c-b4f8-dab4d4a4441c" cx="63.58" cy="63.38" rx="4.27" ry="4.28"/><path class="b2fde26f-9aac-4ccf-b890-1388cf27523a" d="M63.58,68.29a4.91,4.91,0,1,1,4.91-4.91A4.91,4.91,0,0,1,63.58,68.29Zm0-8.55a3.65,3.65,0,1,0,3.64,3.64A3.64,3.64,0,0,0,63.58,59.74Z"/><ellipse class="a12e7668-3678-495c-b4f8-dab4d4a4441c" cx="43.5" cy="82.76" rx="4.27" ry="4.28"/><path class="b2fde26f-9aac-4ccf-b890-1388cf27523a" d="M43.5,87.67a4.91,4.91,0,1,1,4.9-4.91A4.91,4.91,0,0,1,43.5,87.67Zm0-8.55a3.65,3.65,0,1,0,3.64,3.64A3.64,3.64,0,0,0,43.5,79.12Z"/><path class="b807626a-fc27-49a6-b37d-8273834a33f4" d="M34,37.58c3.06,0,3.06-4.75,0-4.75s-3.06,4.75,0,4.75Z"/><path class="b807626a-fc27-49a6-b37d-8273834a33f4" d="M56.52,52.89c3.06,0,3.06-4.75,0-4.75s-3.06,4.75,0,4.75Z"/><path class="b807626a-fc27-49a6-b37d-8273834a33f4" d="M25.42,59.86c3.06,0,3.06-4.75,0-4.75s-3.06,4.75,0,4.75Z"/><path class="b807626a-fc27-49a6-b37d-8273834a33f4" d="M56.09,67.52,56,67.41c-2.16-2.16-5.51,1.2-3.35,3.36l.1.11c2.17,2.16,5.52-1.19,3.36-3.36Z"/><path class="b807626a-fc27-49a6-b37d-8273834a33f4" d="M25.32,82.55c3.05,0,3.06-4.75,0-4.75s-3.06,4.75,0,4.75Z"/><path class="b807626a-fc27-49a6-b37d-8273834a33f4" d="M63.15,77.86l-.21-.21c-2.16-2.16-5.52,1.2-3.35,3.36l.21.21C62,83.39,65.32,80,63.15,77.86Z"/><path class="b807626a-fc27-49a6-b37d-8273834a33f4" d="M68,49c3.06,0,3.06-4.75,0-4.75S65,49,68,49Z"/><path class="b807626a-fc27-49a6-b37d-8273834a33f4" d="M14.3,53.68v-.1a2.37,2.37,0,1,0-4.74,0v.1a2.37,2.37,0,1,0,4.74,0Z"/><path class="b807626a-fc27-49a6-b37d-8273834a33f4" d="M37.85,67.41l-.1-.1c-2.16-2.17-5.52,1.19-3.36,3.36l.11.1c2.16,2.17,5.52-1.19,3.35-3.36Z"/></g><path class="b0b61b16-f4a8-4db6-9ca4-178d7f444bd7" d="M42.6,4.58A37.74,37.74,0,0,0,4.91,42.28v65.58H43.65V4.58ZM28.8,75.66,16.07,61.41,28.8,47.15Z"/><rect class="b0b61b16-f4a8-4db6-9ca4-178d7f444bd7" x="48.23" height="107.86"/><path class="b0b61b16-f4a8-4db6-9ca4-178d7f444bd7" d="M42.34,0a42.28,42.28,0,0,0-42,42.28v65.58H4.91V42.28A37.74,37.74,0,0,1,42.6,4.58h1V107.86h4.58V0Z"/><polygon class="efb68bb5-9107-4d27-88ab-654cd913bbb4" points="28.8 75.66 28.8 47.16 16.07 61.41 28.8 75.66"/></g></g></svg>