<svg xmlns="http://www.w3.org/2000/svg" viewBox="0 0 125.46 83.85"><defs><style>.b88c0796-3e78-44ff-8936-cae5ceba1485{fill:#b5b5b6;}.a34abe14-94c5-416c-aa82-f4b7edd1d64b{fill:#40220f;}.f3da971c-0c9e-456f-99b2-80cc72bb482a{fill:#999;}.b3991ef1-9e46-40a6-880a-2a4b6f88dc11{fill:#615f5f;}.bd066a2a-6b31-47f1-84c4-53deb713504f{fill:#fff;}.bca1b3a3-7ee8-4d80-8aeb-e61a131e9336{fill:#4f4c4b;}</style></defs><title>方形</title><g id="ee3322f5-078b-445e-b5a8-56431ba4467b" data-name="圖層 2"><g id="aa4eebf6-0afe-425b-8579-3afe43f2d690" data-name="圖層 1"><path class="b88c0796-3e78-44ff-8936-cae5ceba1485" d="M83.39,82.92l-78-9a5.09,5.09,0,0,1-4.52-5V48.94l88.78,6.93L89,78A5.09,5.09,0,0,1,83.39,82.92Z"/><path class="a34abe14-94c5-416c-aa82-f4b7edd1d64b" d="M84,83.85c-.22,0-.44,0-.66,0h0l-78-9A6,6,0,0,1,0,68.86V48.94a.92.92,0,0,1,.29-.66A.9.9,0,0,1,1,48.05L89.75,55a.91.91,0,0,1,.83.92L89.93,78a6,6,0,0,1-6,5.81ZM83.49,82a4.15,4.15,0,0,0,3.21-1,4.11,4.11,0,0,0,1.43-3l.63-21.29-87-6.79v19A4.17,4.17,0,0,0,5.52,73Z"/><path class="f3da971c-0c9e-456f-99b2-80cc72bb482a" d="M124.56,3.25V15.61a11.67,11.67,0,0,1-1.68,6L88.33,80.4l1.35-24.53Z"/><path class="a34abe14-94c5-416c-aa82-f4b7edd1d64b" d="M88.33,81.29l-.26,0a.9.9,0,0,1-.63-.91l1.35-24.53a1,1,0,0,1,.14-.45L123.81,2.75a.9.9,0,0,1,1.65.5V15.61a12.58,12.58,0,0,1-1.81,6.49L89.11,80.85A.91.91,0,0,1,88.33,81.29Zm2.24-25.13L89.43,76.75l32.68-55.57a10.76,10.76,0,0,0,1.55-5.57V6.23Z"/><path class="b3991ef1-9e46-40a6-880a-2a4b6f88dc11" d="M45.63,2.2l-44,44.57a2.6,2.6,0,0,0,1.71,4.42l86.32,4.68L18.07,52,48.9,19.54a4.61,4.61,0,0,1,3.9-2l62.06,1.06L89.68,55.87,124.1,5.05A2.66,2.66,0,0,0,121.89.9H48.74A4.37,4.37,0,0,0,45.63,2.2Z"/><path class="a34abe14-94c5-416c-aa82-f4b7edd1d64b" d="M89.63,56.76,3.31,52.08A3.49,3.49,0,0,1,1,46.14L45,1.57A5.28,5.28,0,0,1,48.74,0h73.15a3.55,3.55,0,0,1,3,5.55L90.43,56.37l-.75-.5ZM20.06,51.19l69.16,3.75,24-35.51-60.4-1A3.82,3.82,0,0,0,49.64,20ZM46.27,2.83,2.29,47.4a1.66,1.66,0,0,0-.37,1.81,1.65,1.65,0,0,0,1.49,1.08l14.29.78L48.25,18.92a5.38,5.38,0,0,1,4.57-2.31l61.66,1,8.87-13.1a1.76,1.76,0,0,0-1.46-2.75H48.74a3.45,3.45,0,0,0-2.47,1Z"/><line class="bd066a2a-6b31-47f1-84c4-53deb713504f" x1="50.3" y1="17.46" x2="47.21" y2="2.36"/><path class="a34abe14-94c5-416c-aa82-f4b7edd1d64b" d="M50.3,18.36a.9.9,0,0,1-.88-.72L46.33,2.54A.9.9,0,0,1,47,1.48a.91.91,0,0,1,1.06.7l3.09,15.1a.9.9,0,0,1-.7,1.06Z"/><path class="bd066a2a-6b31-47f1-84c4-53deb713504f" d="M46.08,1.73,2,46.43a2.81,2.81,0,0,0,1.85,4.78l84.25,4.57a2.8,2.8,0,0,0,2.48-1.23L123.94,5.29A2.82,2.82,0,0,0,121.61.9H48.09A2.84,2.84,0,0,0,46.08,1.73ZM86.2,51.65,11,47.61a2.81,2.81,0,0,1-1.85-4.78L46.67,4.68a2.82,2.82,0,0,1,2-.84h65.84a2.82,2.82,0,0,1,2.34,4.38L88.69,50.4A2.8,2.8,0,0,1,86.2,51.65Z"/><path class="a34abe14-94c5-416c-aa82-f4b7edd1d64b" d="M88.24,56.68H88L3.79,52.11A3.71,3.71,0,0,1,1.35,45.8L45.44,1.1A3.76,3.76,0,0,1,48.09,0h73.52a3.71,3.71,0,0,1,3.07,5.79L91.32,55.05A3.74,3.74,0,0,1,88.24,56.68ZM48.09,1.8a1.91,1.91,0,0,0-1.37.57h0L2.63,47.06a1.87,1.87,0,0,0-.43,2,1.89,1.89,0,0,0,1.69,1.22l84.25,4.56a1.91,1.91,0,0,0,1.69-.83L123.19,4.78a1.87,1.87,0,0,0,.11-2,1.89,1.89,0,0,0-1.69-1Zm-2-.07h0ZM86.35,52.55h-.19l-75.24-4A3.71,3.71,0,0,1,8.48,42.2L46,4.05A3.72,3.72,0,0,1,48.67,3h65.84a3.64,3.64,0,0,1,3.27,2,3.66,3.66,0,0,1-.18,3.81L89.44,50.9A3.74,3.74,0,0,1,86.35,52.55Zm-.1-1.8A1.89,1.89,0,0,0,88,49.9L116.1,7.72a1.91,1.91,0,0,0-1.59-3H48.67a1.91,1.91,0,0,0-1.37.57L9.76,43.46A1.91,1.91,0,0,0,11,46.71Z"/><path class="bd066a2a-6b31-47f1-84c4-53deb713504f" d="M76.89,77.53a4.68,4.68,0,0,1-.64,0L9.43,70a1.66,1.66,0,0,1,.37-3.3l66.82,7.52A2.41,2.41,0,0,0,79.3,71.8V64a1.67,1.67,0,0,1,3.33,0V71.8a5.75,5.75,0,0,1-5.74,5.73Z"/><path class="bca1b3a3-7ee8-4d80-8aeb-e61a131e9336" d="M101.9,15.72h0L56,14.61a.9.9,0,0,1-.88-.92.93.93,0,0,1,.92-.87l45.86,1.11a.9.9,0,0,1,0,1.79Z"/><path class="bca1b3a3-7ee8-4d80-8aeb-e61a131e9336" d="M19.61,44.67a.89.89,0,0,1-.64-.26.91.91,0,0,1,0-1.27L45.65,16.82a.9.9,0,0,1,1.26,1.28L20.24,44.42A.88.88,0,0,1,19.61,44.67Z"/><path class="bd066a2a-6b31-47f1-84c4-53deb713504f" d="M92.76,65.69a1.7,1.7,0,0,1-.93-.29,1.67,1.67,0,0,1-.45-2.31l5.54-8.23a1.66,1.66,0,0,1,2.76,1.85L94.14,65A1.66,1.66,0,0,1,92.76,65.69Z"/></g></g></svg>