<svg xmlns="http://www.w3.org/2000/svg" xmlns:xlink="http://www.w3.org/1999/xlink" viewBox="0 0 77.92 78.24"><defs><style>.b78b0ecf-0bb7-453b-ab63-4a2f0ee5c493{opacity:0.25;}.fceb22ba-695e-43e4-8648-e63b6f69e911{fill:#fff;}.e8063663-617e-4a05-a530-d15b26ab9e64{fill:#426319;}.a0ff1b5f-5896-4864-9213-68a2076fe0a7{fill:#78a639;}.b24ba66f-e196-4d79-ab97-8cae36d3b10a{opacity:0.65;fill:url(#ed4d518c-0b5d-4d92-8c64-0be03c7d69e9);}</style><radialGradient id="ed4d518c-0b5d-4d92-8c64-0be03c7d69e9" cx="52.78" cy="25.94" r="39.42" gradientTransform="translate(-16.08 11.94) scale(1.04 1.05)" gradientUnits="userSpaceOnUse"><stop offset="0" stop-color="#fff" stop-opacity="0"/><stop offset="0.46" stop-color="#fbfbfb" stop-opacity="0.02"/><stop offset="0.63" stop-color="#eeeeeb" stop-opacity="0.1"/><stop offset="0.75" stop-color="#d7d7cf" stop-opacity="0.24"/><stop offset="0.84" stop-color="#b7b6a7" stop-opacity="0.43"/><stop offset="0.93" stop-color="#8d8c75" stop-opacity="0.68"/><stop offset="1" stop-color="#5a5836" stop-opacity="0.98"/><stop offset="1" stop-color="#575533"/></radialGradient></defs><title>餅乾方</title><g id="f8389004-b630-4cf5-97a2-a652b469cd13" data-name="圖層 2"><g id="b593171c-fe71-4fae-92b2-def2d135b5c7" data-name="圖層 1"><g class="b78b0ecf-0bb7-453b-ab63-4a2f0ee5c493"><path class="fceb22ba-695e-43e4-8648-e63b6f69e911" d="M66.4,3.48a8,8,0,0,1,8,8v55.2a8,8,0,0,1-8,8H11.51a8,8,0,0,1-8-8V11.52a8,8,0,0,1,8-8H66.4M66.4,0H11.51A11.53,11.53,0,0,0,0,11.52v55.2A11.53,11.53,0,0,0,11.51,78.24H66.4A11.54,11.54,0,0,0,77.92,66.72V11.52A11.54,11.54,0,0,0,66.4,0Z"/><path class="e8063663-617e-4a05-a530-d15b26ab9e64" d="M74.44,39.12V11.9a8.4,8.4,0,0,0-8.39-8.42H39V39.12Z"/><path class="a0ff1b5f-5896-4864-9213-68a2076fe0a7" d="M39,3.48H11.86A8.41,8.41,0,0,0,3.47,11.9V39.12H39Z"/><path class="a0ff1b5f-5896-4864-9213-68a2076fe0a7" d="M39,39.12V74.76H66.05a8.4,8.4,0,0,0,8.39-8.43V39.12Z"/><path class="e8063663-617e-4a05-a530-d15b26ab9e64" d="M3.47,39.12V66.33a8.41,8.41,0,0,0,8.39,8.43H39V39.12Z"/><rect class="b24ba66f-e196-4d79-ab97-8cae36d3b10a" x="3.47" y="3.48" width="70.97" height="71.29" rx="4.84"/></g></g></g></svg>