<svg xmlns="http://www.w3.org/2000/svg" xmlns:xlink="http://www.w3.org/1999/xlink" viewBox="0 0 78.51 78.89"><defs><style>.b379f46f-73d5-4001-937d-d7a634fcb494{opacity:0.35;}.b92c47c4-1b5b-413e-9a70-c097e8105cbb{fill:#fff;}.b2d8dce0-3eef-4453-b4d7-3a45b4784a57{fill:#fed400;}.bebf2a7d-e98b-4b1c-a363-e54ea9bd8bf9{fill:#fbc300;}.ae6f06a8-9d2b-4e57-ba75-4b72d47ba573{opacity:0.65;fill:url(#ea8c1731-8a5d-4832-b0df-6daf956a3231);}</style><radialGradient id="ea8c1731-8a5d-4832-b0df-6daf956a3231" cx="39.13" cy="23.98" r="39.42" gradientTransform="translate(-1.86 14.12) scale(1.05 1.06)" gradientUnits="userSpaceOnUse"><stop offset="0" stop-color="#fff" stop-opacity="0"/><stop offset="0.38" stop-color="#fffefe" stop-opacity="0.01"/><stop offset="0.52" stop-color="#fefbf8" stop-opacity="0.04"/><stop offset="0.61" stop-color="#fdf6ef" stop-opacity="0.09"/><stop offset="0.69" stop-color="#fcefe1" stop-opacity="0.16"/><stop offset="0.76" stop-color="#fae6d0" stop-opacity="0.25"/><stop offset="0.82" stop-color="#f8daba" stop-opacity="0.37"/><stop offset="0.87" stop-color="#f5cca0" stop-opacity="0.51"/><stop offset="0.92" stop-color="#f2bc82" stop-opacity="0.67"/><stop offset="0.97" stop-color="#eeab62" stop-opacity="0.84"/><stop offset="1" stop-color="#eb9b44"/></radialGradient></defs><title>餅乾方黃</title><g id="f3db1b75-2625-42eb-8ca7-e50234136dbd" data-name="圖層 2"><g id="fa77b195-c8ba-400d-b1be-e726cf775e36" data-name="圖層 1"><g class="b379f46f-73d5-4001-937d-d7a634fcb494"><path class="b92c47c4-1b5b-413e-9a70-c097e8105cbb" d="M67,3.5a8,8,0,0,1,8,8.05V67.34a8,8,0,0,1-8,8H11.54a8,8,0,0,1-8-8V11.55a8,8,0,0,1,8-8H67M67,0H11.54A11.56,11.56,0,0,0,0,11.55V67.34A11.56,11.56,0,0,0,11.54,78.89H67A11.55,11.55,0,0,0,78.51,67.34V11.55A11.55,11.55,0,0,0,67,0Z"/><path class="b2d8dce0-3eef-4453-b4d7-3a45b4784a57" d="M75,39.44V12a8.48,8.48,0,0,0-8.45-8.5H39.26V39.44Z"/><path class="bebf2a7d-e98b-4b1c-a363-e54ea9bd8bf9" d="M39.26,3.5H12A8.48,8.48,0,0,0,3.5,12V39.44H39.26Z"/><path class="bebf2a7d-e98b-4b1c-a363-e54ea9bd8bf9" d="M39.26,39.44v36h27.3A8.48,8.48,0,0,0,75,66.89V39.44Z"/><path class="b2d8dce0-3eef-4453-b4d7-3a45b4784a57" d="M3.5,39.44V66.89A8.48,8.48,0,0,0,12,75.39h27.3V39.44Z"/><rect class="ae6f06a8-9d2b-4e57-ba75-4b72d47ba573" x="3.5" y="3.5" width="71.51" height="71.88" rx="4.84"/></g></g></g></svg>