<svg xmlns="http://www.w3.org/2000/svg" viewBox="0 0 323.89 76.5"><defs><style>.a8cc0504-6607-461f-b131-0bcf555039ab{fill:#956134;}.bc7424b2-8351-43ec-bf89-f2a6435f2b78{fill:#40220f;}.ec6bab71-55cc-41e9-afcb-2c5c8376dd69{fill:#b28247;}.f3c98f8e-6071-47ee-8c7f-9d7ac6bd09b8{fill:#6a3906;}.e79caf5f-2067-4a7b-8352-f6b69a8efa09{fill:#fff;}</style></defs><title>擀麵棍</title><g id="f1bd60f3-e8e3-42c8-9828-60998f5f91d7" data-name="圖層 2"><g id="b8d7d57f-5a3c-4dae-a17c-a7b94c7199ca" data-name="圖層 1"><path class="a8cc0504-6607-461f-b131-0bcf555039ab" d="M292.25,55.35l.16-15.78v-.3l.16-15.78s-29.79,9.37-71.48-.73l-.16,15.79v.29l-.16,15.79C262.65,45.38,292.25,55.35,292.25,55.35Z"/><path class="bc7424b2-8351-43ec-bf89-f2a6435f2b78" d="M292.25,59.7a4.38,4.38,0,0,1-1.38-.22c-.37-.12-29.15-9.44-69.17-.61a4.34,4.34,0,0,1-5.28-4.29l.32-31.86a4.34,4.34,0,0,1,5.37-4.18c39.89,9.66,68.88.89,69.17.8a4.34,4.34,0,0,1,5.64,4.19L296.6,55.4a4.34,4.34,0,0,1-4.35,4.3ZM256.43,46.33A141.14,141.14,0,0,1,288,49.69l.21-20.63C278,31.22,255,34.4,225.38,28.19l-.21,21.1A168.93,168.93,0,0,1,256.43,46.33Z"/><path class="a8cc0504-6607-461f-b131-0bcf555039ab" d="M31.64,21.13l-.16,15.79v.29L31.31,53s29.8-9.37,71.49.72L103,37.94v-.3l.16-15.78C61.23,31.11,31.64,21.13,31.64,21.13Z"/><path class="bc7424b2-8351-43ec-bf89-f2a6435f2b78" d="M102.8,58.07a4.44,4.44,0,0,1-1-.12c-39.89-9.66-68.88-.89-69.17-.8A4.34,4.34,0,0,1,27,53l.32-31.86A4.35,4.35,0,0,1,33,17c.36.12,29.14,9.44,69.17.6a4.35,4.35,0,0,1,5.28,4.29l-.32,31.87a4.38,4.38,0,0,1-1.68,3.39A4.33,4.33,0,0,1,102.8,58.07ZM64.06,44.67A167.9,167.9,0,0,1,98.51,48.3l.21-21.1c-29.73,5.6-52.65,2-62.79-.4l-.21,20.62A139.16,139.16,0,0,1,64.06,44.67ZM31.64,21.13h0Z"/><path class="a8cc0504-6607-461f-b131-0bcf555039ab" d="M266.93,39.31c.19-18.22-6.47-33.06-14.88-33.15L73.6,4.35C65.2,4.26,58.24,19,58.06,37.19s6.47,33.06,14.87,33.15l178.45,1.81C259.79,72.24,266.75,57.53,266.93,39.31Z"/><path class="bc7424b2-8351-43ec-bf89-f2a6435f2b78" d="M251.46,76.5h-.12L72.89,74.68c-5.86-.06-11-4.44-14.58-12.34-3.06-6.82-4.7-15.77-4.6-25.2C53.92,15.93,62.44,0,73.53,0h.12L252.1,1.82c5.86.05,11,4.44,14.58,12.33,3.06,6.83,4.7,15.78,4.6,25.2l-4.35,0,4.35,0C271.07,60.57,262.55,76.5,251.46,76.5ZM73.53,8.7c-4.43,0-11,11.08-11.13,28.53-.08,8.08,1.32,15.94,3.84,21.55C68.23,63.21,70.81,66,73,66L251.43,67.8h0c4.43,0,11-11.08,11.14-28.53.08-8.08-1.32-15.94-3.84-21.55-2-4.43-4.57-7.19-6.74-7.21L73.56,8.7Z"/><circle class="ec6bab71-55cc-41e9-afcb-2c5c8376dd69" cx="301.21" cy="39.66" r="18.33"/><path class="bc7424b2-8351-43ec-bf89-f2a6435f2b78" d="M301.21,62.34H301A22.68,22.68,0,0,1,301.21,17h.23a22.68,22.68,0,0,1-.23,45.36Zm0-36.66a13.91,13.91,0,1,0,.14,0Z"/><circle class="ec6bab71-55cc-41e9-afcb-2c5c8376dd69" cx="22.68" cy="36.83" r="18.33"/><path class="bc7424b2-8351-43ec-bf89-f2a6435f2b78" d="M22.68,59.51h-.23a22.8,22.8,0,1,1,.23,0Zm0-36.66a14,14,0,0,0-.13,28,14,14,0,1,0,.28-28Z"/><path class="f3c98f8e-6071-47ee-8c7f-9d7ac6bd09b8" d="M242,61.74h0L115.48,60.45a4.35,4.35,0,0,1,.09-8.69L242.05,53a4.35,4.35,0,0,1-.05,8.7Z"/><path class="a8cc0504-6607-461f-b131-0bcf555039ab" d="M297.44,49.24c-.76,0-1.56,0-2.38-.12a2.2,2.2,0,0,1,.42-4.38c3.76.36,6.64-.27,8.57-1.87a7.23,7.23,0,0,0,2.49-4.58,2.21,2.21,0,0,1,2.36-2,2.18,2.18,0,0,1,2,2.33,11.77,11.77,0,0,1-4,7.58A14.27,14.27,0,0,1,297.44,49.24Z"/><path class="a8cc0504-6607-461f-b131-0bcf555039ab" d="M13.63,41.92a2.19,2.19,0,0,1-2.19-2,12.46,12.46,0,0,1,2.91-9.73c4.13-4.62,11-4.9,11.3-4.9a2.2,2.2,0,0,1,.14,4.39h0c-.05,0-5.32.24-8.17,3.45a8.2,8.2,0,0,0-1.8,6.42,2.21,2.21,0,0,1-2,2.38Z"/><path class="f3c98f8e-6071-47ee-8c7f-9d7ac6bd09b8" d="M70.14,36.83a5.07,5.07,0,0,1-.55,0,4.35,4.35,0,0,1-3.77-4.86A49.78,49.78,0,0,1,68,22.25a14.18,14.18,0,0,1,13.6-9.58l8,.08a4.35,4.35,0,0,1,0,8.7h0l-8-.08A5.45,5.45,0,0,0,76.22,25a41.64,41.64,0,0,0-1.77,8A4.35,4.35,0,0,1,70.14,36.83Z"/><path class="e79caf5f-2067-4a7b-8352-f6b69a8efa09" d="M255.76,31.75a4.35,4.35,0,0,1-4.25-3.44c-1.21-5.69-8-4.83-9.33-4.6a4.35,4.35,0,0,1-1.53-8.56c5.64-1,16.94,0,19.37,11.34a4.35,4.35,0,0,1-3.35,5.16A4.7,4.7,0,0,1,255.76,31.75Z"/><path class="e79caf5f-2067-4a7b-8352-f6b69a8efa09" d="M97.43,62.25h-.22l-20-1a4.35,4.35,0,1,1,.43-8.68l20,1a4.35,4.35,0,0,1-.21,8.69Z"/></g></g></svg>