<svg xmlns="http://www.w3.org/2000/svg" viewBox="0 0 106.63 130.72"><defs><style>.bb81d90f-eab0-4a4c-979b-992d7c8c9849{fill:#615f5f;}.bb0c5262-cdf5-4e96-9c59-0ae770ba4244{fill:#40220f;}.bd857275-321c-47fd-9d22-67eeabbbe678{fill:#999;}.b5f2cf73-d5a1-4675-a1fc-c26d55c2b2a7{fill:#b5b5b6;}.a9f10527-282f-4d26-93db-f2e89a21efc1{fill:#fff;}.b4672e13-04ae-484b-85db-6fa49eed8ac6{fill:#4f4c4b;}</style></defs><title>三角</title><g id="b49b2161-b927-4036-a5cd-548750ac0fe5" data-name="圖層 2"><g id="a2d35310-0310-43a5-89bc-e4fb27a6b196" data-name="圖層 1"><path class="bb81d90f-eab0-4a4c-979b-992d7c8c9849" d="M102.43,108.52l.32.15L96.32,4a2.91,2.91,0,0,0-4.47-2.11L2,57.47a2,2,0,0,0,.22,3.59L24.75,71.75l72.66-45Z"/><path class="bb0c5262-cdf5-4e96-9c59-0ae770ba4244" d="M103.8,110.22l-2.28-1.08-5-80.71L24.81,72.83l-23-10.91A3,3,0,0,1,0,59.37a3,3,0,0,1,1.45-2.71L91.35,1A4,4,0,0,1,95.27.88a3.66,3.66,0,0,1,2,3ZM93.43,2.34a2.07,2.07,0,0,0-1.07.31L2.45,58.28a1.06,1.06,0,0,0,.13,1.91L24.69,70.66l72-44.57L95.36,4a1.72,1.72,0,0,0-1-1.43A2,2,0,0,0,93.43,2.34Z"/><polygon class="bd857275-321c-47fd-9d22-67eeabbbe678" points="24.75 71.75 23.86 72.3 102.5 109.52 102.44 108.52 24.75 71.75"/><path class="bb0c5262-cdf5-4e96-9c59-0ae770ba4244" d="M102.5,110.11a.58.58,0,0,1-.26-.06L23.61,72.83a.58.58,0,0,1-.06-1l.89-.56a.62.62,0,0,1,.56,0L102.69,108a.58.58,0,0,1,.33.49l.06,1a.57.57,0,0,1-.26.53A.6.6,0,0,1,102.5,110.11Z"/><path class="b5f2cf73-d5a1-4675-a1fc-c26d55c2b2a7" d="M1.52,60.75,7.45,80.23a15.77,15.77,0,0,0,7.65,8L99,129.48a2.57,2.57,0,0,0,3.76-2.14l-2.49-20Z"/><path class="bb0c5262-cdf5-4e96-9c59-0ae770ba4244" d="M100.19,130.72a3.73,3.73,0,0,1-1.62-.38L14.67,89.09a16.69,16.69,0,0,1-8.1-8.49L.61,61A.94.94,0,0,1,.9,60a.93.93,0,0,1,1-.14l98.74,46.61a1,1,0,0,1,.54.75l2.49,20a3.37,3.37,0,0,1-1.6,2.94A3.59,3.59,0,0,1,100.19,130.72ZM3.06,62.53,8.37,80a14.77,14.77,0,0,0,7.15,7.42l83.89,41.25a1.73,1.73,0,0,0,1.68-.09,1.38,1.38,0,0,0,.7-1.2L99.38,108Z"/><path class="bd857275-321c-47fd-9d22-67eeabbbe678" d="M96.18,2.28l8.07,28.83a48.86,48.86,0,0,1,1.52,14l-3,82.25h0l-1.38-20.74Z"/><path class="bb0c5262-cdf5-4e96-9c59-0ae770ba4244" d="M102.75,128.17a.83.83,0,0,1-.83-.78l-1.38-20.74L95.35,2.32a.84.84,0,0,1,.7-.87.85.85,0,0,1,.94.6l8.06,28.83a49.33,49.33,0,0,1,1.55,14.24l-3,82.25a.84.84,0,0,1-.82.8ZM97.38,9.65l4.82,96.91.31,4.64,2.43-66.14a48,48,0,0,0-1.49-13.75Z"/><path class="a9f10527-282f-4d26-93db-f2e89a21efc1" d="M92.72,1.3l-90.55,56a2.16,2.16,0,0,0,.24,3.84l95.44,45.18a2.42,2.42,0,0,0,3.52-2.15L96.22,3A2.28,2.28,0,0,0,92.72,1.3Zm-.64,12.23,5,81.39a3.77,3.77,0,0,1-5.49,3.39L14.24,61.7a3.48,3.48,0,0,1-.38-6.18L86.21,10.75A3.83,3.83,0,0,1,92.08,13.53Z"/><path class="bb0c5262-cdf5-4e96-9c59-0ae770ba4244" d="M98.94,107.55a3.46,3.46,0,0,1-1.5-.34L2,62a3.11,3.11,0,0,1-.33-5.51L92.22.49A3.34,3.34,0,0,1,95.5.38a3.06,3.06,0,0,1,1.67,2.55l5.15,101.22a3.16,3.16,0,0,1-1.44,2.81A3.48,3.48,0,0,1,98.94,107.55ZM94,1.9a1.38,1.38,0,0,0-.73.22h0l-90.56,56a1.2,1.2,0,0,0-.61,1.1,1.26,1.26,0,0,0,.75,1.06l95.45,45.18a1.58,1.58,0,0,0,1.56-.11,1.25,1.25,0,0,0,.59-1.13L95.26,3a1.15,1.15,0,0,0-.64-1A1.44,1.44,0,0,0,94,1.9Zm-1.24-.6h0Zm.58,98.35a5.07,5.07,0,0,1-2.12-.47L13.83,62.56a4.48,4.48,0,0,1-2.63-3.81,4.44,4.44,0,0,1,2.16-4L85.71,9.94a4.91,4.91,0,0,1,4.85-.18A4.47,4.47,0,0,1,93,13.47h0l5,81.39a4.41,4.41,0,0,1-2,4A4.89,4.89,0,0,1,93.3,99.65Zm-5-88.53a3,3,0,0,0-1.57.45L14.36,56.34a2.52,2.52,0,0,0-1.25,2.3,2.58,2.58,0,0,0,1.54,2.19L92,97.45a3,3,0,0,0,3-.22A2.52,2.52,0,0,0,96.13,95l-5-81.39a2.55,2.55,0,0,0-1.44-2.13A3,3,0,0,0,88.29,11.12Z"/><path class="a9f10527-282f-4d26-93db-f2e89a21efc1" d="M95.4,123.7a3.07,3.07,0,0,1-1.4-.34L41.52,96.78a1.67,1.67,0,1,1,1.51-3l52,26.37L93.16,112a1.66,1.66,0,1,1,3.24-.76l2,8.63a3.1,3.1,0,0,1-3,3.81Z"/><path class="b4672e13-04ae-484b-85db-6fa49eed8ac6" d="M30.22,62.32a.87.87,0,0,1-.76-.43.89.89,0,0,1,.29-1.23L78.8,30.72A.9.9,0,0,1,80,31a.91.91,0,0,1-.3,1.24l-49,29.93A.9.9,0,0,1,30.22,62.32Z"/></g></g></svg>