<svg xmlns="http://www.w3.org/2000/svg" xmlns:xlink="http://www.w3.org/1999/xlink" viewBox="0 0 79.39 70.6"><defs><style>.a57db7b6-c57c-48c0-9822-832478fec3e1{opacity:0.35;}.fe776922-aaa5-4c3d-a304-103bdb8d06b7{fill:#fff;}.bcffbaa9-e6ac-459d-80bf-d82c827b4a22{fill:#fed400;}.b2abc92a-2fe0-45c8-94ab-a125b72e21b8{fill:#fbc200;}.bb2a8a70-4b4b-40c2-86be-0d62d526ed91{fill:url(#b086c047-3c90-4ec5-8ab5-7d07fd602d3d);}</style><radialGradient id="b086c047-3c90-4ec5-8ab5-7d07fd602d3d" cx="18.4" cy="58.05" r="32.26" gradientTransform="translate(21.88 -12.9) scale(0.95 0.95)" gradientUnits="userSpaceOnUse"><stop offset="0" stop-color="#fff" stop-opacity="0"/><stop offset="0.28" stop-color="#fffefd" stop-opacity="0.01"/><stop offset="0.42" stop-color="#fffcf6" stop-opacity="0.04"/><stop offset="0.53" stop-color="#fef8e9" stop-opacity="0.09"/><stop offset="0.62" stop-color="#fef3d7" stop-opacity="0.17"/><stop offset="0.7" stop-color="#fdecc0" stop-opacity="0.26"/><stop offset="0.78" stop-color="#fce3a3" stop-opacity="0.38"/><stop offset="0.84" stop-color="#fbd880" stop-opacity="0.53"/><stop offset="0.91" stop-color="#facc59" stop-opacity="0.69"/><stop offset="0.97" stop-color="#f9bf2d" stop-opacity="0.88"/><stop offset="1" stop-color="#f8b60f"/></radialGradient></defs><title>餅乾三角</title><g id="a2d8e8dd-abd3-4ffe-8689-f9fdbef38978" data-name="圖層 2"><g id="e85b9c85-e392-406c-bd3e-8f5a0b172494" data-name="圖層 1"><g class="a57db7b6-c57c-48c0-9822-832478fec3e1"><path class="fe776922-aaa5-4c3d-a304-103bdb8d06b7" d="M39.69,3.16a4.59,4.59,0,0,1,4,2.31l31.89,55a4.64,4.64,0,0,1-4,7H7.81a4.64,4.64,0,0,1-4-7l31.89-55a4.58,4.58,0,0,1,4-2.31m0-3.16A7.71,7.71,0,0,0,33,3.88l-31.89,55A7.8,7.8,0,0,0,7.81,70.6H71.58a7.79,7.79,0,0,0,6.74-11.71l-31.88-55A7.72,7.72,0,0,0,39.69,0Z"/><path class="bcffbaa9-e6ac-459d-80bf-d82c827b4a22" d="M3.59,60.84a4.4,4.4,0,0,0,3.83,6.6H72a4.4,4.4,0,0,0,3.83-6.6l-5.52-9.52H9.11Z"/><polygon class="b2abc92a-2fe0-45c8-94ab-a125b72e21b8" points="9.11 51.32 70.28 51.32 60.93 35.2 18.45 35.2 9.11 51.32"/><polygon class="bcffbaa9-e6ac-459d-80bf-d82c827b4a22" points="27.8 19.08 18.45 35.2 60.93 35.2 51.59 19.08 27.8 19.08"/><path class="b2abc92a-2fe0-45c8-94ab-a125b72e21b8" d="M43.52,5.16a4.43,4.43,0,0,0-7.65,0L27.8,19.08H51.59Z"/><path class="bb2a8a70-4b4b-40c2-86be-0d62d526ed91" d="M37.28,2.72,2.19,63.25A2.79,2.79,0,0,0,4.6,67.44H74.79a2.79,2.79,0,0,0,2.41-4.19L42.11,2.72A2.8,2.8,0,0,0,37.28,2.72Z"/></g></g></g></svg>