<svg xmlns="http://www.w3.org/2000/svg" viewBox="0 0 439.85 272.62"><defs><style>.b0cefcef-625b-4833-962f-2a236d7af1ca{fill:#e6e6e6;}.e1da985d-8040-4036-9eb0-69c390b8fe98{fill:#fff;}.f9b52e6d-1890-453b-885b-f32c025c3b9a{fill:#b3b3b4;opacity:0.19;}</style></defs><title>白</title><g id="b6e7ace1-39d9-4058-a0ce-13a45808fc3c" data-name="圖層 2"><g id="f4955467-39e4-49cd-9e94-c1acae7f1d9a" data-name="圖層 1"><path class="b0cefcef-625b-4833-962f-2a236d7af1ca" d="M102,26.37,241.66,8.21c28.15-3.66,56.89,1.42,81.08,14.34l57.54,30.72c55.19,29.48,73.14,91.44,40.48,139.8l-4.85,7.18c-16.23,24-43,41.42-74.29,48.22l-96.53,21A137.44,137.44,0,0,1,162.64,262L66.85,221.21C19.72,201.16-6.77,157,1.5,112.29h0C9.72,67.84,50.38,33.09,102,26.37Z"/><path class="e1da985d-8040-4036-9eb0-69c390b8fe98" d="M115,18.73,250.41,1.12C277.7-2.43,305.57,2.5,329,15l55.78,29.79c53.51,28.57,70.91,88.65,39.25,135.54l-4.7,7c-15.73,23.29-41.7,40.15-72,46.75l-93.59,20.36a133.25,133.25,0,0,1-80-7.3l-92.88-39.5C35.22,188.2,9.54,145.39,17.56,102h0C25.53,58.94,65,25.25,115,18.73Z"/><path class="f9b52e6d-1890-453b-885b-f32c025c3b9a" d="M281.24,43.56c10.93,1.39,22.4,2.85,32.3,8,8.39,4.36,14.42,12,22.78,16.39s17.53,2.8,26.22,5.43a42.65,42.65,0,0,1,24.24,19.41c2.73,4.59,9.92.41,7.17-4.2a51.31,51.31,0,0,0-21.23-20.06A49,49,0,0,0,358.65,64c-6.1-1-12.44-.42-18.13-3.25-10.13-5-17-14.21-27.71-18.64-10-4.16-20.87-5.51-31.57-6.88-5.29-.67-5.24,7.65,0,8.32Z"/><path class="f9b52e6d-1890-453b-885b-f32c025c3b9a" d="M57.43,146.41c2.67,6.49,6.51,11.88,12.39,15.87,7.94,5.39,18.37,4.3,25.56,10.8,6.2,5.62,11.51,11.77,18.38,16.69a100.43,100.43,0,0,0,25.37,12.94c5.06,1.78,7.23-6.25,2.21-8-16.53-5.82-27.54-15.88-40.09-27.48-4.63-4.29-9.51-6.25-15.6-7.69-9.17-2.16-16.46-6.23-20.21-15.32-2-4.88-10-2.74-8,2.21Z"/></g></g></svg>