<svg xmlns="http://www.w3.org/2000/svg" viewBox="0 0 151.77 102.6"><defs><style>.e7456ad8-0dbd-4617-a4ce-21e7ce281bf5{fill:#cfd0d0;}.fd78a7ec-322c-40da-96c1-a74f1ca8e4b9{fill:#fed400;}.af56d69e-7992-486e-a1ee-df78ef941599{fill:#f9bb45;}.e44b5cdb-912e-478d-8126-16eaa0bd641b{fill:#f8b200;opacity:0.61;}</style></defs><title>黃</title><g id="f68197aa-430d-4771-95d2-87a9287d3d67" data-name="圖層 2"><g id="ba48d9f7-4bcf-4d19-8da0-d75670612bef" data-name="圖層 1"><path class="e7456ad8-0dbd-4617-a4ce-21e7ce281bf5" d="M9.09,75.2,7.76,71.49a41.42,41.42,0,0,1,22.4-52L47.53,11.9a41.44,41.44,0,0,1,23-3l43.51,6.86a41.44,41.44,0,0,1,28.87,19.27l2.72,4.43a41.44,41.44,0,0,1,4.63,32.66h0a41.44,41.44,0,0,1-39.95,30.44H48.08A41.43,41.43,0,0,1,9.09,75.2Z"/><path class="fd78a7ec-322c-40da-96c1-a74f1ca8e4b9" d="M5.56,68.55,4.23,64.84a41.42,41.42,0,0,1,22.4-52L44,5.25a41.44,41.44,0,0,1,23-3l43.51,6.86a41.44,41.44,0,0,1,28.87,19.27l2.72,4.43a41.44,41.44,0,0,1,4.63,32.66h0A41.44,41.44,0,0,1,106.81,96H44.55A41.44,41.44,0,0,1,5.56,68.55Z"/><path class="af56d69e-7992-486e-a1ee-df78ef941599" d="M106.81,97.74H44.55A43.35,43.35,0,0,1,3.88,69.16L2.55,65.44A43.32,43.32,0,0,1,25.92,11.19L43.29,3.61a43.2,43.2,0,0,1,24-3.08l43.51,6.86a43.14,43.14,0,0,1,30.11,20.09l2.72,4.44a43.22,43.22,0,0,1-36.84,65.82ZM60.57,3.57A39.49,39.49,0,0,0,44.72,6.89L27.35,14.47A39.75,39.75,0,0,0,5.91,64.24L7.24,68A39.76,39.76,0,0,0,44.55,94.17h62.26a39.66,39.66,0,0,0,33.8-60.38l-2.72-4.44a39.61,39.61,0,0,0-27.63-18.44L66.75,4.06A38.91,38.91,0,0,0,60.57,3.57Z"/><path class="e44b5cdb-912e-478d-8126-16eaa0bd641b" d="M40,50.74c-.22-4.44,5.08-7.3,8.4-8.24,1.38-.39,2.81-.58,4.16-1.08,3.57-1.34,5.11-3.38,7.74-6.06A25.42,25.42,0,0,1,85,28.59c5.2,1.28,7.41-6.74,2.21-8-11-2.71-22.55-.35-31.1,7.3-3.43,3.07-5.26,5.06-9.9,6.61-2.77.93-5.39,1.58-7.86,3.22a14.12,14.12,0,0,0-6.64,13c.26,5.33,8.58,5.36,8.31,0Z"/><path class="e44b5cdb-912e-478d-8126-16eaa0bd641b" d="M94.35,59.84c7.34-.71,7.77,6.48,13.7,8.37,2.65.85,5.38.67,7.89,2.12a13.09,13.09,0,0,1,6.47,10.1c.51,5.27,8.83,5.32,8.31,0-.83-8.41-5.74-16-14-18.86-2.78-1-5-.65-7.35-2.9-1.33-1.3-2.13-2.81-3.66-4a15.86,15.86,0,0,0-11.4-3.16c-5.27.51-5.33,8.83,0,8.32Z"/><path class="e44b5cdb-912e-478d-8126-16eaa0bd641b" d="M6.61,54.17c3.33,20.4,20.61,34.49,41.16,34.39,5.35,0,5.36-8.33,0-8.31-17.16.08-30.4-11.5-33.14-28.29-.86-5.27-8.87-3-8,2.21Z"/><path class="e44b5cdb-912e-478d-8126-16eaa0bd641b" d="M106.46,16.86c14.23,3.29,23.73,15.19,28.54,28.43,1.82,5,9.85,2.84,8-2.21-5.78-15.92-17.2-30.27-34.35-34.23-5.2-1.21-7.43,6.8-2.21,8Z"/></g></g></svg>