<svg xmlns="http://www.w3.org/2000/svg" viewBox="0 0 153.37 185.69"><defs><style>.f85df761-a4dc-4be2-a0bc-72f84ee1164a{fill:#fff;}.a52e141c-a2fb-4bf6-b07b-1643bc71f208{fill:#231815;}.bdebeeee-a204-4523-a67b-d42756372eda{fill:#b2b2b2;}.e3c3d588-70ab-46d1-bf89-516609ccda02{fill:#8ac7a5;}.b91519f5-9f47-4034-b83e-c9fe86cb94c9{fill:#58886c;}</style></defs><title>衣服2</title><g id="ae36f83a-7a51-4415-91ab-577e97a47754" data-name="圖層 2"><g id="e676b959-7fa2-4d43-a9db-75750621ae9c" data-name="圖層 1"><path class="f85df761-a4dc-4be2-a0bc-72f84ee1164a" d="M35,79.38s36.11,13.4,83.92,1.19c0,0,13.8,15.77-.35,99.21a2.54,2.54,0,0,1-3.88,1.72,13.85,13.85,0,0,0-8.46-2.51c-4,.37-9.61,2.4-13,3.76a2.54,2.54,0,0,1-3.46-2l-8-53-3.88-.56-6.2,54.16a2.94,2.94,0,0,1-4.07,2.38c-4-1.66-11.36-3.2-21.52.75a3,3,0,0,1-3.88-2C38.69,170.2,27,124.48,35,79.38Z"/><path class="a52e141c-a2fb-4bf6-b07b-1643bc71f208" d="M45.09,185.69a4,4,0,0,1-1.75-.41,4,4,0,0,1-2.08-2.49C37.53,169.89,26,124.3,34,79.2L34.2,78l1.15.43c.36.13,36.39,13.14,83.31,1.16l.61-.16.42.48c.58.65,14,17.08-.11,100.06a3.58,3.58,0,0,1-5.45,2.41,12.73,12.73,0,0,0-7.8-2.35c-4,.36-9.67,2.46-12.71,3.68a3.56,3.56,0,0,1-4.85-2.78L80.9,128.65l-2.08-.3-6.08,53.11a4,4,0,0,1-5.48,3.21c-4.16-1.72-11.13-3-20.76.75A3.8,3.8,0,0,1,45.09,185.69ZM35.8,80.74c-7.5,44.27,3.77,88.8,7.43,101.48a2,2,0,0,0,1,1.22,1.89,1.89,0,0,0,1.51.07c10.26-4,17.78-2.6,22.28-.74a1.94,1.94,0,0,0,1.74-.11,1.9,1.9,0,0,0,.92-1.43L77,126l5.68.82,8.1,53.78a1.51,1.51,0,0,0,2,1.19c3.84-1.55,9.26-3.46,13.29-3.83,3.6-.33,7,1.27,9.11,2.67a1.47,1.47,0,0,0,1.42.11,1.49,1.49,0,0,0,.89-1.14c12.55-74,2.9-94.58.91-97.87C76,92.39,42.38,82.85,35.8,80.74Z"/><path class="bdebeeee-a204-4523-a67b-d42756372eda" d="M78,93.45A55.52,55.52,0,0,1,66.66,92.1l.47-2c.09,0,8.6,2,14.88,1l.32,2A28.83,28.83,0,0,1,78,93.45Z"/><path class="bdebeeee-a204-4523-a67b-d42756372eda" d="M119.72,155.93l-2-.27c4.88-37.08.62-64.13.58-64.4l2-.33C120.34,91.21,124.65,118.53,119.72,155.93Z"/><path class="bdebeeee-a204-4523-a67b-d42756372eda" d="M67.55,179.4c-1.27-15.71,5.68-51.54,6-53.05l2,.39c-.07.37-7.19,37.06-5.94,52.5Z"/><path class="a52e141c-a2fb-4bf6-b07b-1643bc71f208" d="M81.36,128.3a25.24,25.24,0,0,1-11.28-3l1-1.79c.11.06,10.73,5.94,18.48.08l1.24,1.64A15.4,15.4,0,0,1,81.36,128.3Z"/><path class="e3c3d588-70ab-46d1-bf89-516609ccda02" d="M58.7,2.69c2.41,1.06,19.62,8,37.58-.34a1.31,1.31,0,0,1,.28-.09c2.57-.46,36.1-4.66,52,85.38a1.27,1.27,0,0,1-.73,1.38l-17.49,7.8a1.26,1.26,0,0,1-1.59-.49c-1.72-2.84-6.62-12-7.53-26a66.89,66.89,0,0,0-2.31-13.79,1.26,1.26,0,0,0-2.45.62l9.64,44.34a2.61,2.61,0,0,1-1.47,2.93c-7.94,3.54-38.75,16.07-58.86,6.86C49.93,104,39,104.56,33.69,105.65a2.61,2.61,0,0,1-3.08-3l5.73-34.51a1.26,1.26,0,0,0-2.44-.59c-3.18,10-6.85,22-8,27.81a1.25,1.25,0,0,1-1.8.86L4.41,86.37a1.28,1.28,0,0,1-.66-1.43C6,75.77,24.43,5.07,58.09,2.58A1.17,1.17,0,0,1,58.7,2.69Z"/><path class="a52e141c-a2fb-4bf6-b07b-1643bc71f208" d="M83,115.61a42.5,42.5,0,0,1-17.69-3.41c-15.71-7.2-26.44-6.57-31.44-5.54a3.65,3.65,0,0,1-4.3-4.18L35.33,68c0-.07,0-.21-.18-.26a.19.19,0,0,0-.27.15c-3,9.4-6.81,21.84-8,27.7a2.28,2.28,0,0,1-3.27,1.58L4,87.28a2.28,2.28,0,0,1-1.2-2.59C4.78,76.46,23.5,4.11,58,1.55a2.32,2.32,0,0,1,1.1.2h0c1.9.83,19.06,7.91,36.74-.33a2,2,0,0,1,.54-.17C97.68,1,104.64.16,113.45,6.31c11.34,7.92,26.81,28.42,36.12,81.16A2.28,2.28,0,0,1,148.24,90l-17.48,7.8a2.29,2.29,0,0,1-2.89-.9,45.69,45.69,0,0,1-3-6.1l2.28,10.49a3.65,3.65,0,0,1-2.06,4.08C118.52,108.25,100.3,115.61,83,115.61ZM40.46,104c6.1,0,14.77,1.32,25.74,6.34,19.52,9,49.34-3,58-6.87a1.57,1.57,0,0,0,.89-1.77l-9.64-44.34a2.26,2.26,0,0,1,1.69-2.71,2.21,2.21,0,0,1,2.74,1.59,67.2,67.2,0,0,1,2.35,14c.91,13.89,5.89,23.07,7.39,25.56a.23.23,0,0,0,.29.08l17.49-7.79a.25.25,0,0,0,.13-.27c-9.18-52-24.25-72.13-35.27-79.82C104,2.19,97.45,3.14,96.74,3.27,78.22,11.9,60.27,4.5,58.29,3.63c0,0-.09-.06-.13,0C25.1,6.05,6.74,77.09,4.75,85.19a.22.22,0,0,0,.12.26L24.52,95.3a.22.22,0,0,0,.21,0c1.35-6.11,5.19-18.62,8.19-28.07a2.29,2.29,0,0,1,4.44,1.07l-5.74,34.5a1.6,1.6,0,0,0,.47,1.42,1.55,1.55,0,0,0,1.4.41A34.82,34.82,0,0,1,40.46,104Zm77.28-47.37-.09,0c-.23,0-.2.19-.18.27l2.62,12a65.45,65.45,0,0,0-2.17-12.17C117.9,56.72,117.87,56.62,117.74,56.62Z"/><path class="b91519f5-9f47-4034-b83e-c9fe86cb94c9" d="M97.42,1.06S105.83.56,111,5A1.11,1.11,0,0,1,111,6.75c-5.6,4.14-33.3,22.17-64.57,0a1.06,1.06,0,0,1,0-1.71A20.93,20.93,0,0,1,57.09,1C64.37.5,71.3,13.31,97.42,1.06Z"/><path class="a52e141c-a2fb-4bf6-b07b-1643bc71f208" d="M78.3,18.6c-9.75,0-20.9-2.77-32.51-11a2.09,2.09,0,0,1,0-3.38A21.93,21.93,0,0,1,57,0c2.35-.14,4.55.84,7.1,2C70.3,4.83,78.76,8.68,97,.13l.38-.1c.36,0,8.89-.47,14.33,4.21a2.14,2.14,0,0,1-.11,3.34C108.15,10.11,95.37,18.6,78.3,18.6ZM57.55,2.05l-.38,0A19.79,19.79,0,0,0,47,5.88c30.79,21.86,58.2,3.87,63.39,0C106,2,98.9,2,97.67,2.08c-19,8.83-28.25,4.6-34.4,1.8C61,2.87,59.25,2.05,57.55,2.05Z"/><path class="a52e141c-a2fb-4bf6-b07b-1643bc71f208" d="M50.76,7,49.23,5.64c2.64-2.94,9.65-4,10-4.06l.3,2C57.66,3.89,52.54,5,50.76,7Z"/><path class="a52e141c-a2fb-4bf6-b07b-1643bc71f208" d="M55.65,9.57l-2-.53c1.18-4.42,7.64-5.54,7.92-5.59l.34,2C60.42,5.73,56.35,7,55.65,9.57Z"/><path class="a52e141c-a2fb-4bf6-b07b-1643bc71f208" d="M59.85,11.83l-2-.55a9.72,9.72,0,0,1,6.83-6.6l.47,2A7.66,7.66,0,0,0,59.85,11.83Z"/><path class="a52e141c-a2fb-4bf6-b07b-1643bc71f208" d="M62.91,13.39l-2-.3c.79-5.35,6.5-7.11,6.74-7.19l.6,2S63.51,9.35,62.91,13.39Z"/><path class="a52e141c-a2fb-4bf6-b07b-1643bc71f208" d="M65.4,14.57C64.86,10,70.27,7,70.5,6.83l1,1.8s-4.43,2.52-4.06,5.7Z"/><path class="a52e141c-a2fb-4bf6-b07b-1643bc71f208" d="M70,15c-.1-3.77,2.52-7.31,2.63-7.46l1.64,1.23s-2.3,3.13-2.21,6.17Z"/><path class="a52e141c-a2fb-4bf6-b07b-1643bc71f208" d="M73.63,16.22c-.16-.33-.33-.66.74-8.26l2,.29c-.44,3.18-.89,6.79-.85,7.33l-.76.06Z"/><path class="a52e141c-a2fb-4bf6-b07b-1643bc71f208" d="M78.81,16l-2-.52a17.14,17.14,0,0,0,0-6.67l2-.42A19.19,19.19,0,0,1,78.81,16Z"/><path class="a52e141c-a2fb-4bf6-b07b-1643bc71f208" d="M81.79,16.35l-1.67-1.19c1.94-2.72-.55-6.44-.58-6.48l1.69-1.16C81.37,7.72,84.57,12.45,81.79,16.35Z"/><path class="a52e141c-a2fb-4bf6-b07b-1643bc71f208" d="M85.66,16l-2-.42c.94-4.44-.45-6.9-.47-6.92L85,7.57C85,7.7,86.78,10.69,85.66,16Z"/><path class="a52e141c-a2fb-4bf6-b07b-1643bc71f208" d="M90,15.24,88,14.59c.79-2.36-1.27-6.36-2.13-7.7l1.73-1.11C87.79,6,91.25,11.46,90,15.24Z"/><path class="a52e141c-a2fb-4bf6-b07b-1643bc71f208" d="M94,13.66l-1.88-.84c.62-1.37-1.14-4.64-2.58-6.52l1.63-1.25C91.57,5.61,95.32,10.64,94,13.66Z"/><path class="a52e141c-a2fb-4bf6-b07b-1643bc71f208" d="M97.31,11.26C97,9.13,94.18,6.55,93.14,5.74l1.27-1.62c.18.14,4.37,3.46,4.92,6.8Z"/><path class="a52e141c-a2fb-4bf6-b07b-1643bc71f208" d="M101.07,9c-.93-2.16-4.42-3.94-5.69-4.44l.76-1.91c.22.08,5.36,2.15,6.82,5.54Z"/><path class="a52e141c-a2fb-4bf6-b07b-1643bc71f208" d="M105.58,6.57c-.59-1.19-4.66-2.47-7.23-3l.39-2c1.23.23,7.43,1.54,8.68,4.08Z"/><rect class="b91519f5-9f47-4034-b83e-c9fe86cb94c9" x="0.78" y="84.21" width="27.78" height="9.73" rx="1.97" transform="translate(29.1 -0.04) rotate(18.55)"/><path class="a52e141c-a2fb-4bf6-b07b-1643bc71f208" d="M23.74,98.06a5,5,0,0,1-1.61-.26h0L3.46,91.53a5.08,5.08,0,0,1-3.2-6.42l.53-1.56a5.07,5.07,0,0,1,6.42-3.19l18.67,6.26a5.08,5.08,0,0,1,3.19,6.43l-.52,1.55A5.08,5.08,0,0,1,23.74,98.06Zm-1-2.21A3,3,0,0,0,26.6,94l.53-1.56a3,3,0,0,0-1.91-3.82L6.56,82.3a3,3,0,0,0-3.83,1.91l-.52,1.55a3,3,0,0,0,1.9,3.83Z"/><line class="b91519f5-9f47-4034-b83e-c9fe86cb94c9" x1="4.86" y1="82.37" x2="2.94" y2="88.34"/><rect class="a52e141c-a2fb-4bf6-b07b-1643bc71f208" x="0.76" y="84.33" width="6.27" height="2.05" transform="translate(-78.59 63.05) rotate(-72.26)"/><line class="b91519f5-9f47-4034-b83e-c9fe86cb94c9" x1="7.47" y1="83.3" x2="5.46" y2="89.32"/><rect class="a52e141c-a2fb-4bf6-b07b-1643bc71f208" x="3.29" y="85.29" width="6.35" height="2.05" transform="translate(-77.46 65.13) rotate(-71.55)"/><line class="b91519f5-9f47-4034-b83e-c9fe86cb94c9" x1="10.22" y1="84.28" x2="8.12" y2="90.54"/><rect class="a52e141c-a2fb-4bf6-b07b-1643bc71f208" x="5.87" y="86.38" width="6.6" height="2.06" transform="translate(-76.61 68.29) rotate(-71.44)"/><line class="b91519f5-9f47-4034-b83e-c9fe86cb94c9" x1="12.98" y1="85.03" x2="10.92" y2="91.38"/><rect class="a52e141c-a2fb-4bf6-b07b-1643bc71f208" x="8.62" y="87.18" width="6.67" height="2.05" transform="translate(-75.64 72.35) rotate(-72.03)"/><line class="b91519f5-9f47-4034-b83e-c9fe86cb94c9" x1="15.36" y1="85.87" x2="13.35" y2="92.21"/><rect class="a52e141c-a2fb-4bf6-b07b-1643bc71f208" x="11.03" y="88.02" width="6.65" height="2.05" transform="translate(-74.88 75.93) rotate(-72.49)"/><line class="b91519f5-9f47-4034-b83e-c9fe86cb94c9" x1="17.65" y1="86.94" x2="15.73" y2="93.06"/><rect class="a52e141c-a2fb-4bf6-b07b-1643bc71f208" x="13.48" y="88.97" width="6.41" height="2.05" transform="translate(-74.19 79.03) rotate(-72.61)"/><line class="b91519f5-9f47-4034-b83e-c9fe86cb94c9" x1="20.07" y1="87.41" x2="18.07" y2="93.85"/><rect class="a52e141c-a2fb-4bf6-b07b-1643bc71f208" x="15.7" y="89.6" width="6.75" height="2.05" transform="translate(-73.14 81.94) rotate(-72.73)"/><line class="b91519f5-9f47-4034-b83e-c9fe86cb94c9" x1="22.41" y1="88.62" x2="20.45" y2="94.6"/><rect class="a52e141c-a2fb-4bf6-b07b-1643bc71f208" x="18.28" y="90.58" width="6.29" height="2.06" transform="translate(-72.29 83.34) rotate(-71.8)"/><line class="b91519f5-9f47-4034-b83e-c9fe86cb94c9" x1="24.93" y1="89.32" x2="22.78" y2="95.53"/><rect class="a52e141c-a2fb-4bf6-b07b-1643bc71f208" x="20.57" y="91.4" width="6.57" height="2.05" transform="translate(-71.3 84.83) rotate(-70.96)"/><line class="b91519f5-9f47-4034-b83e-c9fe86cb94c9" x1="26.7" y1="90.21" x2="24.93" y2="96.23"/><rect class="a52e141c-a2fb-4bf6-b07b-1643bc71f208" x="22.68" y="92.2" width="6.28" height="2.05" transform="translate(-70.9 91.58) rotate(-73.55)"/><rect class="b91519f5-9f47-4034-b83e-c9fe86cb94c9" x="125.04" y="83.99" width="27.78" height="9.73" rx="1.97" transform="translate(-23.82 62.24) rotate(-23.32)"/><path class="a52e141c-a2fb-4bf6-b07b-1643bc71f208" d="M130.22,98.58a5.08,5.08,0,0,1-4.67-3.07L124.9,94a5.09,5.09,0,0,1-.05-3.89,5,5,0,0,1,2.7-2.78l18.08-7.8a5.08,5.08,0,0,1,6.67,2.65L153,83.7a5,5,0,0,1,.06,3.88,5.08,5.08,0,0,1-2.71,2.79l-18.08,7.79A5.06,5.06,0,0,1,130.22,98.58Zm17.42-17.4a3,3,0,0,0-1.19.25l-18.08,7.79a3,3,0,0,0-1.58,4l.65,1.51a3,3,0,0,0,4,1.58l18.08-7.8a3,3,0,0,0,1.57-4l-.64-1.5A3,3,0,0,0,147.64,81.18Z"/><line class="b91519f5-9f47-4034-b83e-c9fe86cb94c9" x1="127.14" y1="90.41" x2="129.7" y2="96.13"/><rect class="a52e141c-a2fb-4bf6-b07b-1643bc71f208" x="127.4" y="90.13" width="2.05" height="6.27" transform="translate(-26.89 60.58) rotate(-24.11)"/><line class="b91519f5-9f47-4034-b83e-c9fe86cb94c9" x1="129.71" y1="89.36" x2="132.24" y2="95.18"/><rect class="a52e141c-a2fb-4bf6-b07b-1643bc71f208" x="129.95" y="89.1" width="2.06" height="6.35" transform="translate(-25.89 59.68) rotate(-23.43)"/><line class="b91519f5-9f47-4034-b83e-c9fe86cb94c9" x1="132.42" y1="88.25" x2="135.03" y2="94.31"/><rect class="a52e141c-a2fb-4bf6-b07b-1643bc71f208" x="132.69" y="87.98" width="2.06" height="6.6" transform="translate(-25.2 60.33) rotate(-23.3)"/><line class="b91519f5-9f47-4034-b83e-c9fe86cb94c9" x1="134.97" y1="86.97" x2="137.67" y2="93.07"/><rect class="a52e141c-a2fb-4bf6-b07b-1643bc71f208" x="135.29" y="86.68" width="2.06" height="6.67" transform="translate(-24.8 63.05) rotate(-23.94)"/><line class="b91519f5-9f47-4034-b83e-c9fe86cb94c9" x1="137.3" y1="86" x2="140.04" y2="92.07"/><rect class="a52e141c-a2fb-4bf6-b07b-1643bc71f208" x="137.64" y="85.71" width="2.05" height="6.65" transform="translate(-24.36 64.98) rotate(-24.31)"/><line class="b91519f5-9f47-4034-b83e-c9fe86cb94c9" x1="139.72" y1="85.28" x2="142.38" y2="91.11"/><rect class="a52e141c-a2fb-4bf6-b07b-1643bc71f208" x="140.02" y="84.99" width="2.05" height="6.41" transform="translate(-23.87 66.42) rotate(-24.49)"/><line class="b91519f5-9f47-4034-b83e-c9fe86cb94c9" x1="141.84" y1="84.01" x2="144.64" y2="90.14"/><rect class="a52e141c-a2fb-4bf6-b07b-1643bc71f208" x="142.21" y="83.7" width="2.05" height="6.75" transform="translate(-23.23 67.42) rotate(-24.56)"/><line class="b91519f5-9f47-4034-b83e-c9fe86cb94c9" x1="144.39" y1="83.35" x2="146.91" y2="89.11"/><rect class="a52e141c-a2fb-4bf6-b07b-1643bc71f208" x="144.62" y="83.08" width="2.06" height="6.29" transform="translate(-22.37 65.8) rotate(-23.7)"/><line class="b91519f5-9f47-4034-b83e-c9fe86cb94c9" x1="146.73" y1="82.19" x2="149.28" y2="88.25"/><rect class="a52e141c-a2fb-4bf6-b07b-1643bc71f208" x="146.98" y="81.93" width="2.05" height="6.57" transform="translate(-21.45 63.96) rotate(-22.78)"/><line class="b91519f5-9f47-4034-b83e-c9fe86cb94c9" x1="148.64" y1="81.67" x2="151.34" y2="87.34"/><rect class="a52e141c-a2fb-4bf6-b07b-1643bc71f208" x="148.97" y="81.36" width="2.06" height="6.28" transform="translate(-21.76 72.64) rotate(-25.44)"/><path class="f85df761-a4dc-4be2-a0bc-72f84ee1164a" d="M81,39.35l5.14,10.41a2.62,2.62,0,0,0,2,1.42l11.49,1.67a2.58,2.58,0,0,1,1.43,4.4l-8.32,8.1a2.6,2.6,0,0,0-.74,2.29l2,11.44a2.58,2.58,0,0,1-3.74,2.73L79.88,76.4a2.63,2.63,0,0,0-2.41,0L67.2,81.81a2.59,2.59,0,0,1-3.75-2.73l2-11.44a2.57,2.57,0,0,0-.74-2.29l-8.31-8.1a2.58,2.58,0,0,1,1.43-4.4l11.49-1.67a2.6,2.6,0,0,0,1.94-1.42l5.14-10.41A2.58,2.58,0,0,1,81,39.35Z"/><path class="f85df761-a4dc-4be2-a0bc-72f84ee1164a" d="M137.67,59.37a1,1,0,0,1-1-.86c-5.31-31.9-26.26-47.46-26.47-47.62A1,1,0,0,1,110,9.46a1,1,0,0,1,1.43-.23c.22.16,21.84,16.22,27.29,48.94a1,1,0,0,1-.85,1.18Z"/><path class="f85df761-a4dc-4be2-a0bc-72f84ee1164a" d="M89.24,112.76a1,1,0,0,1-.09-2.05c24.06-2.13,30.95-8.66,32-9.84,1-11.81-7.41-40.28-7.5-40.57a1,1,0,1,1,2-.58c.36,1.2,8.73,29.64,7.55,41.66l0,.26-.14.22c-.24.34-6.11,8.45-33.67,10.89Zm32.92-11.48h0Z"/><path class="f85df761-a4dc-4be2-a0bc-72f84ee1164a" d="M78.39,17.19c-9.24,0-19.9-2.52-31.2-10a1,1,0,0,1,1.13-1.72c29.56,19.56,54.5,4,59.75.18C105.27,3.85,100,3.08,98,2.92a1,1,0,0,1,.16-2c.36,0,9,.72,12.32,4.08l.79.79-.86.72A54.23,54.23,0,0,1,78.39,17.19Z"/><path class="f85df761-a4dc-4be2-a0bc-72f84ee1164a" d="M129.7,98a1,1,0,0,1-.4-2c7.14-3,18.32-7.9,21.24-9.34-.55-1.09-1.71-3.21-2.79-5.12a1,1,0,1,1,1.79-1c3.33,5.91,3.33,6.26,3.33,6.56,0,.9,0,1.07-22.76,10.8A1.15,1.15,0,0,1,129.7,98Z"/><path class="f85df761-a4dc-4be2-a0bc-72f84ee1164a" d="M26.14,97.55,1.66,89.32a1,1,0,1,1,.65-1.95l22.43,7.54,1.44-5.18a1,1,0,1,1,2,.55Z"/><path class="f85df761-a4dc-4be2-a0bc-72f84ee1164a" d="M25.81,86.9a1,1,0,0,1-.3-.05,1,1,0,0,1-.68-1.28c4.21-13.75,7.35-21.1,9.31-21.84a1.44,1.44,0,0,1,1.08.07,1,1,0,0,1,.34,1.41,1,1,0,0,1-.72.48c-.5.46-2.79,3.32-8,20.48A1,1,0,0,1,25.81,86.9Zm8.36-21.33Zm0,0Zm0,0h0Zm0,0Zm0,0h0Zm0,0Zm0,0Z"/></g></g></svg>