<svg xmlns="http://www.w3.org/2000/svg" viewBox="0 0 116.88 184.47"><defs><style>.ad184b35-ae1d-4e73-8521-3e9822e84886{fill:#7c748b;}.a58a7c7b-d4f6-484b-82d7-4a2b4d5e0cf1{fill:#231815;}.aa872b38-1263-47a2-91cd-239b277557a2{fill:#fff;}.a635c135-66cb-448c-b8b5-f0665322ad73{fill:#afa8be;}.bbb4489e-d621-4adf-8a45-ff55429c51a3{fill:#667faa;}</style></defs><title>衣服1</title><g id="e9514e54-3afc-4084-b7bb-d93723c8021c" data-name="圖層 2"><g id="bd69df36-9986-425e-a3f6-bc481378a8c0" data-name="圖層 1"><path class="ad184b35-ae1d-4e73-8521-3e9822e84886" d="M15.77,78.17s36.11,13.39,83.92,1.19c0,0,13.81,15.76-.34,99.21a2.55,2.55,0,0,1-3.89,1.72A13.67,13.67,0,0,0,87,177.78c-4,.37-9.62,2.39-13,3.75a2.53,2.53,0,0,1-3.45-2l-8-53L58.7,126l-6.2,54.16a3,3,0,0,1-4.08,2.38c-4-1.67-11.35-3.2-21.51.74a3,3,0,0,1-3.89-2C19.47,169,7.78,123.27,15.77,78.17Z"/><path class="a58a7c7b-d4f6-484b-82d7-4a2b4d5e0cf1" d="M25.87,184.47a3.86,3.86,0,0,1-1.76-.41A4,4,0,0,1,22,181.57C18.31,168.67,6.77,123.09,14.76,78L15,76.78l1.16.43c.36.13,36.39,13.13,83.31,1.15l.61-.15.41.47c.58.66,14,17.09-.1,100.06a3.57,3.57,0,0,1-5.45,2.41c-1.89-1.22-4.79-2.63-7.81-2.35-4,.37-9.67,2.47-12.71,3.69a3.57,3.57,0,0,1-4.85-2.79l-7.87-52.27-2.07-.3-6.08,53.12a3.92,3.92,0,0,1-1.93,3,4,4,0,0,1-3.56.24c-4.15-1.72-11.12-3-20.75.75A3.79,3.79,0,0,1,25.87,184.47ZM16.58,79.53C9.07,123.8,20.34,168.33,24,181a2,2,0,0,0,1,1.22,1.88,1.88,0,0,0,1.52.08c10.26-4,17.78-2.6,22.28-.74A1.93,1.93,0,0,0,51.48,180L57.8,124.8l5.67.82,8.1,53.78a1.5,1.5,0,0,0,.75,1.09,1.48,1.48,0,0,0,1.31.09c3.83-1.54,9.25-3.46,13.28-3.82A14.82,14.82,0,0,1,96,179.43a1.47,1.47,0,0,0,1.42.11,1.51,1.51,0,0,0,.89-1.14c12.55-74,2.9-94.59.92-97.87C56.75,91.18,23.15,81.64,16.58,79.53Z"/><path class="aa872b38-1263-47a2-91cd-239b277557a2" d="M58.81,92.24a55.32,55.32,0,0,1-11.38-1.36,1,1,0,0,1,.48-2c.08,0,8.58,2,14.88,1a1,1,0,1,1,.31,2A27.51,27.51,0,0,1,58.81,92.24Z"/><path class="aa872b38-1263-47a2-91cd-239b277557a2" d="M99.48,155.61h-.14a1,1,0,0,1-.88-1.15c4.88-37.09.63-64.13.58-64.4a1,1,0,0,1,.85-1.18,1,1,0,0,1,1.18.85c0,.27,4.35,27.59-.57,65A1,1,0,0,1,99.48,155.61Z"/><path class="aa872b38-1263-47a2-91cd-239b277557a2" d="M49.35,179.13a1,1,0,0,1-1-.94c-1.27-15.72,5.67-51.54,6-53.06a1,1,0,0,1,1.2-.81,1,1,0,0,1,.82,1.21c-.08.36-7.19,37.06-5.94,52.49a1,1,0,0,1-.94,1.11Z"/><path class="ad184b35-ae1d-4e73-8521-3e9822e84886" d="M51.36,123.21s11.2,6.35,19.6,0"/><path class="a58a7c7b-d4f6-484b-82d7-4a2b4d5e0cf1" d="M62.13,127.08a25.15,25.15,0,0,1-11.28-3l1-1.78c.1.06,10.72,5.93,18.48.07L71.58,124A15.31,15.31,0,0,1,62.13,127.08Z"/><path class="aa872b38-1263-47a2-91cd-239b277557a2" d="M39,1.72s18.58,18.43,37.57-.38c0,0,28.28,1.15,39.15,33.62,0,0-6,4.65-21,6.65l10.08,36.65S66.72,97.65,12.94,80l8.18-37s-10.8-1.23-20-6C1.13,36.93,5.7,8,39,1.72Z"/><path class="a58a7c7b-d4f6-484b-82d7-4a2b4d5e0cf1" d="M58,88.38A144.72,144.72,0,0,1,12.62,81l-.88-.29,8.14-36.87A66,66,0,0,1,.66,37.84L0,37.5l.12-.74C.16,36.47,5.19,7,38.77.71l.53-.1.38.38c.73.72,18.1,17.48,36.13-.38L76.13.3l.44,0c.29,0,29.11,1.55,40.08,34.31l.23.69-.57.45c-.24.19-6,4.61-20.28,6.69l10,36.33-.75.38C105,79.31,86.71,88.38,58,88.38Zm-43.81-9.1c48.21,15.54,83.88.94,89.44-1.58l-10.16-37,1.17-.15c11.91-1.59,18-4.9,19.85-6C104.49,6,80.43,2.72,76.92,2.4c-17.81,17.24-35.39,3-38.28.42C9.86,8.48,3.29,31.93,2.29,36.36a66.12,66.12,0,0,0,19,5.54l1.13.13Z"/><path class="ad184b35-ae1d-4e73-8521-3e9822e84886" d="M39,1.82s-9.93.41-11,5c-1.36,5.61-17.79,77.12-17.79,77.12S29.75,96,45.71,94.24C45.71,94.24,35.57,22,39,1.82Z"/><path class="a58a7c7b-d4f6-484b-82d7-4a2b4d5e0cf1" d="M42.43,95.44c-15.32,0-32.07-10.18-32.83-10.65L9,84.41l.16-.72C9.31,83,25.59,12.11,26.93,6.56,28.18,1.39,37.82.84,38.92.79L40.18.74,40,2c-3.32,19.78,6.66,91.38,6.76,92.1l.15,1-1.06.12A31.8,31.8,0,0,1,42.43,95.44Zm-31.12-12c3.38,1.94,19.58,10.81,33.23,9.89-1.26-9.18-9.42-70-6.78-90.37-3,.32-8.18,1.4-8.84,4.1C27.66,12.27,13.05,75.83,11.31,83.42Z"/><path class="ad184b35-ae1d-4e73-8521-3e9822e84886" d="M77.25,1.08s9.93.42,11,5.08c1.35,5.71,17.31,76.46,17.31,76.46S80.75,95.74,64.79,94C64.79,94,80.64,21.63,77.25,1.08Z"/><path class="a58a7c7b-d4f6-484b-82d7-4a2b4d5e0cf1" d="M67.92,95.16A28.85,28.85,0,0,1,64.67,95l-1.13-.12.24-1.12c.16-.72,15.77-72.38,12.45-92.5L76,0l1.26.05c1.1.05,10.74.61,12,5.87,1.34,5.65,17.15,75.76,17.31,76.47l.17.77-.7.37C105.11,84,83.84,95.16,67.92,95.16ZM66,93.05c14,.89,34.36-9,38.37-11C102.66,74.33,88.54,11.71,87.28,6.4c-.65-2.74-5.87-3.87-8.84-4.19C80.89,22.91,68.07,83.61,66,93.05Z"/><path class="a58a7c7b-d4f6-484b-82d7-4a2b4d5e0cf1" d="M75,69.16c-1.92,0-3.16-.08-3.34-.1l.15-2c.15,0,15.5,1,25.47-4.63l1,1.79C90.62,68.54,80.27,69.16,75,69.16Z"/><path class="a635c135-66cb-448c-b8b5-f0665322ad73" d="M79.79,44l11.6-1.9a1.2,1.2,0,0,1,1.21,1.66c-1.5,3.5-6.64,11.16-13.54,1.83A1,1,0,0,1,79.79,44Z"/><path class="a58a7c7b-d4f6-484b-82d7-4a2b4d5e0cf1" d="M85.59,51c-2.49,0-5-1.64-7.36-4.88a2,2,0,0,1,1.43-3.22l11.57-1.89A2.22,2.22,0,0,1,93.3,42a2.2,2.2,0,0,1,.24,2.17c-.45,1.06-2.93,6.36-7.28,6.87A5.12,5.12,0,0,1,85.59,51ZM79.9,45C82,47.84,84.11,49.19,86,49c2.5-.29,4.6-3.22,5.63-5.64l-.26-1.26.17,1Z"/><polygon class="a58a7c7b-d4f6-484b-82d7-4a2b4d5e0cf1" points="79.16 56.56 79.16 46.57 81.21 46.57 81.21 54.31 91.02 53.39 90.39 45.33 92.44 45.17 93.23 55.24 79.16 56.56"/><path class="a635c135-66cb-448c-b8b5-f0665322ad73" d="M25.08,26.05l11.69,1.87a1.06,1.06,0,0,1,.68,1.69c-2.28,3-8.1,8.59-13.35-2.25A.92.92,0,0,1,25.08,26.05Z"/><path class="a58a7c7b-d4f6-484b-82d7-4a2b4d5e0cf1" d="M31.05,34.76l-.56,0c-2.77-.29-5.23-2.62-7.32-6.92a2,2,0,0,1,.2-2A1.9,1.9,0,0,1,25.25,25L36.93,26.9a2.08,2.08,0,0,1,1.33,3.33C36.93,32,34.28,34.75,31.05,34.76Zm-6-7.68c1.76,3.48,3.66,5.4,5.66,5.6,2.48.28,4.78-2.21,5.93-3.7Z"/><polygon class="a58a7c7b-d4f6-484b-82d7-4a2b4d5e0cf1" points="36.74 40.39 21.02 38.13 23.36 28.02 25.36 28.49 23.53 36.41 35 38.06 36.2 29.68 38.23 29.96 36.74 40.39"/><path class="a58a7c7b-d4f6-484b-82d7-4a2b4d5e0cf1" d="M34.3,67.19a40,40,0,0,1-18.87-4.61l1-1.81a38.88,38.88,0,0,0,23.51,3.92l.4,2A33.82,33.82,0,0,1,34.3,67.19Z"/><path class="a635c135-66cb-448c-b8b5-f0665322ad73" d="M15.91,69.44l19.16,2.83s4.75,10.79-1.4,15.14a51.71,51.71,0,0,0-22.18-6.77l2.74-11.55Z"/><path class="a58a7c7b-d4f6-484b-82d7-4a2b4d5e0cf1" d="M33.7,88.64l-.58-.36a51.11,51.11,0,0,0-21.7-6.61l-1.21-.08,3.25-13.71,2.63.55,19.69,2.91.23.52c.21.47,5,11.61-1.75,16.39ZM12.76,79.71a53.09,53.09,0,0,1,20.83,6.45c4-3.51,1.52-10.94.75-13L15,70.3Z"/><path class="bbb4489e-d621-4adf-8a45-ff55429c51a3" d="M28,73.17s2.2,5.79-.6,8.22"/><path class="a58a7c7b-d4f6-484b-82d7-4a2b4d5e0cf1" d="M28.09,82.17l-1.35-1.56c2.2-1.9.33-7,.31-7.07L29,72.81C29.07,73.07,31.39,79.3,28.09,82.17Z"/><line class="bbb4489e-d621-4adf-8a45-ff55429c51a3" x1="21.16" y1="71.21" x2="19.57" y2="80.74"/><rect class="a58a7c7b-d4f6-484b-82d7-4a2b4d5e0cf1" x="15.54" y="74.95" width="9.65" height="2.05" transform="translate(-57.92 83.6) rotate(-80.56)"/><path class="a635c135-66cb-448c-b8b5-f0665322ad73" d="M19.2,45.52c3.74.54,12.31,1.71,15.55,1.52a1.12,1.12,0,0,1,1.18.91,33.82,33.82,0,0,1,.6,6.87,5,5,0,0,1-3,4.36,16,16,0,0,1-16.63-2,4.64,4.64,0,0,1-1.76-4.06,21.82,21.82,0,0,1,1.36-6A2.54,2.54,0,0,1,19.2,45.52Z"/><path class="a58a7c7b-d4f6-484b-82d7-4a2b4d5e0cf1" d="M26.59,61.67a16.3,16.3,0,0,1-10.35-3.73A5.65,5.65,0,0,1,14.09,53a23,23,0,0,1,1.44-6.29,3.57,3.57,0,0,1,3.82-2.2C22.9,45,31.52,46.19,34.7,46a2.13,2.13,0,0,1,2.24,1.75,35,35,0,0,1,.62,7.1,6.05,6.05,0,0,1-3.65,5.26A19.1,19.1,0,0,1,26.59,61.67ZM18.84,46.52a1.53,1.53,0,0,0-1.41,1,20.82,20.82,0,0,0-1.29,5.7,3.56,3.56,0,0,0,1.38,3.15,14.93,14.93,0,0,0,15.59,1.9,4,4,0,0,0,2.4-3.46,33.15,33.15,0,0,0-.59-6.63c-3.44.13-12.25-1.08-15.86-1.61h-.22Z"/><path class="bbb4489e-d621-4adf-8a45-ff55429c51a3" d="M17.24,49.27A39.11,39.11,0,0,0,34.6,51.14"/><path class="a58a7c7b-d4f6-484b-82d7-4a2b4d5e0cf1" d="M30.06,52.49a41.07,41.07,0,0,1-13.19-2.25l.73-1.93a38.36,38.36,0,0,0,16.85,1.81l.3,2A33,33,0,0,1,30.06,52.49Z"/><path class="bbb4489e-d621-4adf-8a45-ff55429c51a3" d="M18.35,54.43s8.38,4,13.26,1"/><path class="a58a7c7b-d4f6-484b-82d7-4a2b4d5e0cf1" d="M27.1,57.55a24.71,24.71,0,0,1-9.19-2.19l.88-1.86c.08,0,7.94,3.68,12.29,1.06l1.06,1.76A9.74,9.74,0,0,1,27.1,57.55Z"/><path class="a635c135-66cb-448c-b8b5-f0665322ad73" d="M80.68,72.28C85,71.6,95,70,98.5,68.66a1.29,1.29,0,0,1,1.61.61,38.72,38.72,0,0,1,3,7.43,5.8,5.8,0,0,1-1.87,5.88C98,85.32,91.09,89.51,82.07,86a5.41,5.41,0,0,1-3.35-3.91A25.53,25.53,0,0,1,78.19,75,3,3,0,0,1,80.68,72.28Z"/><path class="a58a7c7b-d4f6-484b-82d7-4a2b4d5e0cf1" d="M89,88.37A19.64,19.64,0,0,1,81.7,87a6.37,6.37,0,0,1-4-4.65,26.4,26.4,0,0,1-.55-7.44,4,4,0,0,1,3.35-3.6c4.15-.64,14.15-2.28,17.62-3.57A2.34,2.34,0,0,1,101,68.8a39.5,39.5,0,0,1,3.1,7.65,6.85,6.85,0,0,1-2.2,6.92A20.45,20.45,0,0,1,89,88.37ZM99,69.6l-.11,0c-3.52,1.3-12.8,2.86-18,3.68h0a1.92,1.92,0,0,0-1.62,1.75,24.28,24.28,0,0,0,.51,6.83A4.34,4.34,0,0,0,82.45,85c8.49,3.32,15-.61,18.16-3.25A4.77,4.77,0,0,0,102.14,77a37.66,37.66,0,0,0-2.94-7.21A.24.24,0,0,0,99,69.6Z"/><path class="bbb4489e-d621-4adf-8a45-ff55429c51a3" d="M79.78,77.13a45.57,45.57,0,0,0,20-3.86"/><path class="a58a7c7b-d4f6-484b-82d7-4a2b4d5e0cf1" d="M81.31,78.19c-.93,0-1.5,0-1.6,0l.13-2c.1,0,10.29.58,19.45-3.77l.88,1.86A45.9,45.9,0,0,1,81.31,78.19Z"/><path class="a58a7c7b-d4f6-484b-82d7-4a2b4d5e0cf1" d="M86.52,83.73a31.23,31.23,0,0,1-3.88-.23l.29-2c.1,0,10.18,1.39,14.18-3.08l1.53,1.37C95.65,83.1,90.22,83.73,86.52,83.73Z"/><path class="aa872b38-1263-47a2-91cd-239b277557a2" d="M90.72,32.38a1,1,0,0,1-1-.89C88.18,20.69,86,8.75,85,7.49,83.76,6,80.79,5.63,79.75,5.63a1,1,0,0,1,0-2c.2,0,4.75,0,6.83,2.62,1.88,2.34,4.63,21.24,5.16,25a1,1,0,0,1-.88,1.16Z"/><path class="aa872b38-1263-47a2-91cd-239b277557a2" d="M84.94,74.2h-.17a1,1,0,1,1,0-2h.1c.87,0,8.48-.08,13.15-2.5a1,1,0,1,1,1,1.82C93.94,74.09,86.23,74.2,84.94,74.2Z"/><path class="aa872b38-1263-47a2-91cd-239b277557a2" d="M82.78,46.28a1,1,0,0,1-.27-2c3.18-.86,7.23-1.68,8.46-.68A1,1,0,0,1,91.13,45a1,1,0,0,1-1.44.16c-.56-.22-3.68.26-6.64,1.06A.84.84,0,0,1,82.78,46.28Z"/><path class="aa872b38-1263-47a2-91cd-239b277557a2" d="M88,64.94A1,1,0,0,1,87,64a1,1,0,0,1,.92-1.12,24.5,24.5,0,0,0,7.94-2.13,1,1,0,0,1,.94,1.83,26,26,0,0,1-8.68,2.34Z"/><path class="aa872b38-1263-47a2-91cd-239b277557a2" d="M34.6,31.82a1,1,0,0,1-.89-.51,1,1,0,0,1,0-1A30.78,30.78,0,0,0,27.3,29a1,1,0,0,1-.91-1.14,1,1,0,0,1,1.14-.9c8.17.92,8.47,2.4,8.59,2.95a1.63,1.63,0,0,1-1,1.78A1.07,1.07,0,0,1,34.6,31.82Zm-.38-1.26h0Z"/><path class="aa872b38-1263-47a2-91cd-239b277557a2" d="M29.47,59.82a1,1,0,0,1-1-.93,1,1,0,0,1,.93-1.12,5,5,0,0,0,4-2.05c1.36-2.12.63-5.53.23-6.67a1,1,0,0,1,1.94-.67c.07.2,1.73,5.06-.44,8.45a7,7,0,0,1-5.57,3Z"/><path class="aa872b38-1263-47a2-91cd-239b277557a2" d="M33.21,85.82l-3.09-1a1,1,0,0,1-.65-1.3,1,1,0,0,1,1.3-.65l2.2.74c3.11-2.34,0-9.93,0-10a1,1,0,0,1,1.89-.8c.17.4,4.14,9.9-1.24,12.84Z"/><path class="aa872b38-1263-47a2-91cd-239b277557a2" d="M35,65.85a25.64,25.64,0,0,1-6.41-.95,1,1,0,0,1-.73-1.25,1,1,0,0,1,1.26-.73c7,1.84,9.45.18,9.47.17a1,1,0,0,1,1.43.22,1,1,0,0,1-.18,1.41C39.62,64.88,38.25,65.85,35,65.85Z"/><path class="aa872b38-1263-47a2-91cd-239b277557a2" d="M36,23.76A1,1,0,0,1,35,23c-1.63-7.4.36-18.09.44-18.54a1,1,0,1,1,2,.38c0,.11-2,10.73-.46,17.72a1,1,0,0,1-.78,1.22A.83.83,0,0,1,36,23.76Z"/></g></g></svg>