<svg xmlns="http://www.w3.org/2000/svg" viewBox="0 0 140.99 130.84"><defs><style>.e934dcd8-7c1f-413b-b5be-8cb1ac925d1f{fill:#f7ec85;}.a5d952ea-fbe0-46b7-8611-84590f8feb38{fill:#231815;}.bb6b591c-f4ee-4ea5-9e85-9a99d6d2dd7a{fill:#fff;}</style></defs><title>頭髮3</title><g id="ec8c4cd8-cbd0-4528-8728-0a5be73c5b05" data-name="圖層 2"><g id="a21db79e-20c9-434a-8c1d-9ddf41803cfb" data-name="圖層 1"><path class="e934dcd8-7c1f-413b-b5be-8cb1ac925d1f" d="M66.28,15.28c.07.14.26.13.27,0,.31-2.47,2.45-11,17.25-13.42,0,0-10.32,6.4-5.85,13.21A3.51,3.51,0,0,0,81,16.6c7.83-.25,40.89,1,55,38.78a7.24,7.24,0,0,1,.25.79c1.41,5.15,10.57,38.34-6.35,61.39,0,0,.39-30.26-6.86-45.91,0,0,2.76,16-2.25,21.26,0,0-3.65-19.25-17.37-25.27,0,0-6.58,15.65,4.09,24.07,0,0-8.36.16-10.88-5,0,0-2.6,6.37.2,7.58,0,0-28.57-4.5-19.45-29.79,0,0-14.56,21.24-3.72,28.87,0,0-16.54.8-12.49-25.68,0,0-2.24,22.87-15.34,28.48,0,0,4.67-5.21,0-17.65,0,0-7.4,6.42-4.63,12.44,0,0-17-6.42-10.72-23.27,0,0-6.72,30.09-14.3,36.9,0,0,7-14.19-.78-16.91,0,0-8,14.77-2,36.54,0,0-14.89-24.09-12-59.34C1.75,60.32,4,53.76,6,49.68c5.41-11.24,18.27-30,47.77-32.43,0,0,5.88-4.58.44-9.73C54.16,7.52,62,7.1,66.28,15.28Z"/><path class="a5d952ea-fbe0-46b7-8611-84590f8feb38" d="M16.34,130.84l-3.79-6.13c-.15-.24-15-24.79-12.19-60C.73,60.17,3,53.48,5,49.24c6.62-13.76,20.35-30.61,48.29-33a6.29,6.29,0,0,0,2.13-4,5.3,5.3,0,0,0-2-4L51.72,6.62l2.39-.13A14.36,14.36,0,0,1,66,12.91C67.28,9.12,71.2,2.85,83.63.82L88.69,0,84.34,2.71S78.9,6.14,78,10.32a5.24,5.24,0,0,0,.83,4.17A2.42,2.42,0,0,0,81,15.58c6.82-.21,41.5.67,56,39.44a8.39,8.39,0,0,1,.28.89c3.21,11.72,9,41.16-6.52,62.25l-1.89,2.59,0-3.21c0-.25.23-21.92-4.06-37.77.12,5-.44,10.9-3.28,13.86l-1.37,1.43-.38-2c0-.18-3.53-17.86-15.78-24.06-1.17,3.49-4.27,15.21,4.15,21.86l2.25,1.77-2.87.06c-.33,0-7,.09-10.57-3.78-.47,1.84-.68,3.93.27,4.33l7.49,3.23-8-1.27c-.57-.09-13.86-2.28-19.59-12a19,19,0,0,1-2.38-12.14c-3.31,6.61-6.89,16.8-.45,21.32l2.44,1.73-3,.14A13.09,13.09,0,0,1,64,90c-2.36-2.62-3.8-6.22-4.3-10.76C57.49,86.06,53.45,94,46.22,97.07L42,98.9l3.1-3.46s3.8-4.58.34-15.09c-1.81,2-5.06,6.24-3.27,10.13l1.05,2.28-2.34-.89C40.69,91.82,31,88,28.61,79c-2.7,9.43-7,22.06-11.75,26.31l-3.93,3.53,2.32-4.74c0-.09,4.16-8.6,2.29-13.16A3.86,3.86,0,0,0,15.89,89c-1.53,3.42-6.51,16.74-1.47,34.91ZM56.53,8.78a6.3,6.3,0,0,1,1,3.61,8.5,8.5,0,0,1-3.14,5.67l-.24.19-.3,0C26.62,20.46,13.28,36.81,6.88,50.13c-2,4.07-4.12,10.45-4.47,14.78a109.3,109.3,0,0,0,8.34,51.58C8.21,99,14.2,87.68,14.49,87.14l.42-.77.83.29a6,6,0,0,1,3.7,3.5c.91,2.21.71,5,.15,7.62,3.71-7.35,6.9-18.54,8.59-25.09a23.26,23.26,0,0,1,1.33-5.41l2,.58c-.07.31-.52,2.3-1.28,5.24-.93,9.12,5.9,14,9.4,15.92-.72-5.8,5.26-11.07,5.55-11.32l1.11-1,.52,1.38c2.82,7.51,2.36,12.54,1.44,15.48,8-5.77,10.85-19.08,11.65-24.1.08-.65.17-1.33.28-2l2,.26c0,.17-.11,1-.32,2.34-1,8.53.24,14.76,3.65,18.54a11.15,11.15,0,0,0,5.15,3.23c-6.82-9.24,5.28-27.16,5.85-28l4.54-6.63-2.73,7.55c-2.46,6.84-2.3,12.71.5,17.44,3.85,6.51,11.79,9.38,15.76,10.45-.44-2.52.87-5.89,1.08-6.41l.87-2.14,1,2.08c1.34,2.77,4.68,3.83,7.11,4.23-8-9.07-2.26-23-2.19-23.2l.4-1,1,.42c11.3,5,16,18.26,17.41,23.69,2.35-5,1.43-14.78.78-18.57l-1.32-7.63,3.26,7c5.92,12.77,6.82,34.66,6.94,43,12.63-20.12,7.35-46.84,4.37-57.73-.08-.3-.16-.53-.24-.75C121.4,19.22,90.23,17.32,81,17.63a4.48,4.48,0,0,1-4-2A7.27,7.27,0,0,1,76,9.87,12.94,12.94,0,0,1,79.72,3.8c-10.23,3-11.88,9.48-12.15,11.58l-.09.75-.85.25a1.18,1.18,0,0,1-1.26-.63A12.92,12.92,0,0,0,56.53,8.78Z"/><circle class="bb6b591c-f4ee-4ea5-9e85-9a99d6d2dd7a" cx="28.83" cy="47.02" r="3.97"/><circle class="bb6b591c-f4ee-4ea5-9e85-9a99d6d2dd7a" cx="35.99" cy="43.02" r="2.25"/><circle class="bb6b591c-f4ee-4ea5-9e85-9a99d6d2dd7a" cx="44.86" cy="39.66" r="2.25"/><circle class="bb6b591c-f4ee-4ea5-9e85-9a99d6d2dd7a" cx="110.14" cy="38.87" r="1.93"/><circle class="bb6b591c-f4ee-4ea5-9e85-9a99d6d2dd7a" cx="114.83" cy="41.97" r="1.93"/></g></g></svg>