<svg xmlns="http://www.w3.org/2000/svg" viewBox="0 0 147.84 119.16"><defs><style>.b04ed7cd-0376-4803-83ef-961ef9850b3f{fill:#756860;}.a374d949-0a66-46ed-b9ed-f9264df4e5af{fill:#231815;}.b773f8d3-79c2-49da-85e4-2f55ce99f531{fill:#bbaea6;}</style></defs><title>頭髮1</title><g id="bd0329cb-0c66-45df-ad92-f928f45732af" data-name="圖層 2"><g id="f7715ef3-35f2-44aa-a346-4119dd7e5661" data-name="圖層 1"><path class="b04ed7cd-0376-4803-83ef-961ef9850b3f" d="M110.4,15S68.87-21.51,18.13,23c0,0,1.07,2.86,6.54,2.67,0,0-26.77,13-23.34,43.83,0,0,3.23-9.79,9-12.36,0,0-11.47,34.65,12.39,58.6.13.14.26.27.4.4S17.3,86.61,27.86,79.76c0,0,1.54,9.86,10.67,13,0,0-10.43-16.7.7-23.26,0,0,7.41,21.3,27.85,20.18,0,0-14.27-37.8,4.14-38.72,0,0,2.5.23,4.46,6.58a.49.49,0,0,0,.95-.06c.63-4.28,3.38-11.2,10.1-11.2,11.2,0,10.51,22.37,2.78,28.36,0,0,8.09.57,15-14,0,0,12.7,14.53,3.86,25.08,0,0,25-.55,18.59-39.91,0,0,11.33,27.89,8.49,63.17,0,0,13.87-23.34,10.95-57.63a45.41,45.41,0,0,0-5.53-18.27C135.37,23.24,125,10,110.4,15Z"/><path class="a374d949-0a66-46ed-b9ed-f9264df4e5af" d="M24.8,119.16,22,116.46C1.81,96.17,6.58,68.05,8.67,59.43c-4,3.42-6.34,10.3-6.37,10.39L.83,74.28.31,69.61C-2.48,44.55,14.49,30.87,21.4,26.39c-3.35-.8-4.19-2.92-4.23-3l-.26-.67.54-.47c48-42.08,88.41-12.18,93.16-8.37,11.35-3.58,22.4,3,31.16,18.74a46.73,46.73,0,0,1,5.66,18.69c2.92,34.21-10.94,58-11.08,58.24l-2.27,3.81.36-4.42A156.26,156.26,0,0,0,129,55.4c.41,10.31-1.71,18.32-6.33,23.88a20.51,20.51,0,0,1-14.29,7.48l-2.26,0,1.45-1.74c6.74-8-.17-18.89-2.87-22.51-7,13.51-14.93,13.12-15.28,13.09l-2.69-.18,2.13-1.65c4.52-3.51,6.72-14.09,4.37-21-.87-2.53-2.7-5.55-6.52-5.55-7.34,0-8.93,9.27-9.09,10.32a1.51,1.51,0,0,1-1.37,1.29,1.48,1.48,0,0,1-1.57-1.08C73,52.45,71.09,52,71.07,52a7.48,7.48,0,0,0-6.17,3.4c-6.06,9.26,3,33.7,3.15,34l.49,1.31-1.4.08c-18.06,1-26.38-15-28.39-19.66a8.73,8.73,0,0,0-3.3,5c-1.71,7,3.89,16.07,3.95,16.16l1.53,2.46-2.74-.94c-7.38-2.54-10.08-9.07-11-12.16-8.2,7.86-3.13,34.09-3.07,34.37ZM12.06,55.25l-.72,2.2C11.23,57.78,1,89.89,21.58,113c-1.21-8.08-3.22-28.3,5.72-34.1L28.62,78l.25,1.56c0,.08,1.23,7.24,7.28,10.92-1.68-3.48-4-9.62-2.7-15a10.81,10.81,0,0,1,5.26-7L39.79,68l.41,1.18c.07.2,7,19.54,25.37,19.54h.07c-1.9-5.45-8.29-25.55-2.46-34.45a9.57,9.57,0,0,1,8-4.32c.61,0,2.89.52,4.84,5.43,1.27-5,4.64-10.11,10.72-10.11,3.93,0,6.93,2.47,8.46,6.94,2,6,1.16,15.25-2.65,20.69,2.78-1.19,7.1-4.35,11-12.66l.68-1.41,1,1.17c.12.15,11.66,13.57,5.29,24.4a19,19,0,0,0,10.55-6.44c5.56-6.72,7.19-17.47,4.82-32l-1.48-9,3.45,8.48A154.93,154.93,0,0,1,136.8,104a107.87,107.87,0,0,0,8.59-52.56A44.68,44.68,0,0,0,140,33.59C134.06,23,124.18,11.34,110.73,16l-.56.19-.45-.39c-.41-.36-41.09-35.06-90.24,7.39.61.63,2,1.57,5.15,1.46l4.82-.17-4.33,2.12c-.25.12-23.59,11.85-23,38.53,1.57-3.17,4.22-7.3,7.87-8.92Z"/><circle class="b773f8d3-79c2-49da-85e4-2f55ce99f531" cx="33.59" cy="35.89" r="3.81"/><circle class="b773f8d3-79c2-49da-85e4-2f55ce99f531" cx="40.47" cy="32.05" r="2.16"/><circle class="b773f8d3-79c2-49da-85e4-2f55ce99f531" cx="48.99" cy="28.82" r="2.16"/><circle class="b773f8d3-79c2-49da-85e4-2f55ce99f531" cx="111.7" cy="28.06" r="1.86"/><circle class="b773f8d3-79c2-49da-85e4-2f55ce99f531" cx="116.21" cy="31.04" r="1.86"/></g></g></svg>