<svg xmlns="http://www.w3.org/2000/svg" xmlns:xlink="http://www.w3.org/1999/xlink" viewBox="0 0 152.52 43.67"><defs><style>.a58dae43-c691-405e-bb3a-10b2fdace7f0{fill:none;}.ef9e288a-4c26-4700-b237-9d892a9fd01c{fill:#222;}.b79d0a5e-05c0-4e02-917e-bef7f1b7ab35{fill:#231815;}.b9be9b58-d84f-4322-a61b-27e33fc2f6f0{clip-path:url(#b652bdcc-2014-44fe-96ec-d5d4a242f749);}.b457a5ca-3bf2-47a2-8e39-2f1c8f5e0c0c{fill:#6b6b6b;}.b7de1479-1b23-4d1a-9bb7-c097dc5ccce7{fill:#fff;}.b1ec2aa1-c06d-4b85-aa15-5a0cae64bbaf{clip-path:url(#aa0eb187-362f-4e16-a1d8-e2d8c2bc9330);}</style><clipPath id="b652bdcc-2014-44fe-96ec-d5d4a242f749" transform="translate(-4.13)"><path class="a58dae43-c691-405e-bb3a-10b2fdace7f0" d="M7.18,30.5s16.67,15.68,65.28-5.28l9.48-1.66,2.14,13.72L70.17,43.92,33,43.77c-1.83,0-28.28,2.56-28.28,2.56L.46,35,0,25.07Z"/></clipPath><clipPath id="aa0eb187-362f-4e16-a1d8-e2d8c2bc9330" transform="translate(-4.13)"><path class="a58dae43-c691-405e-bb3a-10b2fdace7f0" d="M153.59,30.5s-16.66,15.68-65.27-5.28l-9.48-1.66L76.7,37.28l13.91,6.64,37.15-.15c1.83,0,28.28,2.56,28.28,2.56L160.32,35l.46-9.88Z"/></clipPath></defs><title>鞋子3</title><g id="ef58a229-10bf-4c1b-b96a-e75496f5dd40" data-name="圖層 2"><g id="e86ad5ca-6c18-4b4e-a010-96326788fbe6" data-name="圖層 1"><path class="ef9e288a-4c26-4700-b237-9d892a9fd01c" d="M74.24,3.53v25.9A4.84,4.84,0,0,1,71.15,34,133.47,133.47,0,0,1,26.8,42.63C.23,43,1.62,25.44,12.38,14.5A68.3,68.3,0,0,1,29,1.87a6.12,6.12,0,0,1,5-.53C40.32,3.43,57.31,8,71.54,1.77A1.92,1.92,0,0,1,74.24,3.53Z" transform="translate(-4.13)"/><path class="b79d0a5e-05c0-4e02-917e-bef7f1b7ab35" d="M25.91,43.67c-13.93,0-19-5-20.81-9.18-2.55-6,0-14.08,6.55-20.71a67.65,67.65,0,0,1,16-12.31L28.48,1A7.19,7.19,0,0,1,34.36.36c6.45,2.15,23,6.48,36.77.46a3,3,0,0,1,4.14,2.71v25.9a5.82,5.82,0,0,1-3.75,5.47,134.61,134.61,0,0,1-44.7,8.76Zm6.2-41.62a5.1,5.1,0,0,0-2.59.71l-.82.48a65.71,65.71,0,0,0-15.59,12C7.26,21.16,4.8,28.58,7,33.68c2.29,5.34,9.12,8,19.81,7.93a132.69,132.69,0,0,0,44-8.62,3.79,3.79,0,0,0,2.44-3.56V3.53a.88.88,0,0,0-.41-.75A.91.91,0,0,0,72,2.71C57.48,9,40.39,4.53,33.71,2.31A5.15,5.15,0,0,0,32.11,2.05Z" transform="translate(-4.13)"/><g class="b9be9b58-d84f-4322-a61b-27e33fc2f6f0"><path class="b457a5ca-3bf2-47a2-8e39-2f1c8f5e0c0c" d="M73.23,4.17V29.06a4.66,4.66,0,0,1-3,4.34A131.37,131.37,0,0,1,27,41.74c-25.87.39-24.53-16.52-14-27A66.62,66.62,0,0,1,29.16,2.58a6.05,6.05,0,0,1,4.9-.51c6.13,2,22.67,6.36,36.53.41A1.88,1.88,0,0,1,73.23,4.17Z" transform="translate(-4.13)"/></g><path class="b7de1479-1b23-4d1a-9bb7-c097dc5ccce7" d="M42.38,13.65c-13,0-16.68-6.3-16.84-6.59a1,1,0,1,1,1.79-1c.06.1,3.93,6.41,18,5.43a1,1,0,0,1,.15,2.06C44.36,13.62,43.34,13.65,42.38,13.65Z" transform="translate(-4.13)"/><path class="b7de1479-1b23-4d1a-9bb7-c097dc5ccce7" d="M40.9,19.45c-16.33,0-20.9-6.22-21.1-6.5a1,1,0,0,1,1.67-1.19c.08.1,5,6.52,23.14,5.53a1,1,0,0,1,.11,2.05C43.38,19.42,42.11,19.45,40.9,19.45Z" transform="translate(-4.13)"/><path class="b7de1479-1b23-4d1a-9bb7-c097dc5ccce7" d="M36.37,25.89c-19.13,0-24.47-6.15-24.7-6.43A1,1,0,0,1,11.8,18a1,1,0,0,1,1.44.13c.07.08,6,6.58,27.53,5.59a1,1,0,1,1,.09,2.05C39.29,25.86,37.79,25.89,36.37,25.89Z" transform="translate(-4.13)"/><path class="ef9e288a-4c26-4700-b237-9d892a9fd01c" d="M86.53,3.53v25.9A4.84,4.84,0,0,0,89.62,34,133.54,133.54,0,0,0,134,42.63c26.56.41,25.18-17.19,14.42-28.13A68.49,68.49,0,0,0,131.78,1.87a6.15,6.15,0,0,0-5-.53c-6.28,2.09-23.27,6.62-37.5.43A1.93,1.93,0,0,0,86.53,3.53Z" transform="translate(-4.13)"/><path class="b79d0a5e-05c0-4e02-917e-bef7f1b7ab35" d="M134.87,43.67H134A134.75,134.75,0,0,1,89.25,34.9a5.83,5.83,0,0,1-3.74-5.47V3.53A3,3,0,0,1,89.65.82c13.82,6,30.32,1.69,36.77-.46a7.16,7.16,0,0,1,5.87.63l.82.48a67.37,67.37,0,0,1,16,12.31c6.52,6.63,9.1,14.76,6.55,20.71C153.88,38.7,148.8,43.67,134.87,43.67Zm-46.41-41a.91.91,0,0,0-.9.9v25.9A3.79,3.79,0,0,0,90,33a132.56,132.56,0,0,0,44,8.62c10.69.14,17.52-2.58,19.8-7.93,2.18-5.1-.28-12.52-6.13-18.46a65.71,65.71,0,0,0-15.58-12l-.82-.48a5.1,5.1,0,0,0-4.19-.45c-6.68,2.22-23.77,6.7-38.24.4A1,1,0,0,0,88.46,2.63Z" transform="translate(-4.13)"/><g class="b1ec2aa1-c06d-4b85-aa15-5a0cae64bbaf"><path class="b457a5ca-3bf2-47a2-8e39-2f1c8f5e0c0c" d="M87.55,4.17V29.06a4.66,4.66,0,0,0,3,4.34,131.37,131.37,0,0,0,43.2,8.34c25.87.39,24.53-16.52,14-27A66.24,66.24,0,0,0,131.61,2.58a6,6,0,0,0-4.9-.51c-6.12,2-22.66,6.36-36.53.41A1.88,1.88,0,0,0,87.55,4.17Z" transform="translate(-4.13)"/></g><path class="b7de1479-1b23-4d1a-9bb7-c097dc5ccce7" d="M118.39,13.65c-1,0-2,0-3-.1a1,1,0,0,1,.14-2.06c14.09,1,17.92-5.37,18-5.43a1,1,0,0,1,1.79,1C135.08,7.35,131.43,13.65,118.39,13.65Z" transform="translate(-4.13)"/><path class="b7de1479-1b23-4d1a-9bb7-c097dc5ccce7" d="M119.87,19.45c-1.2,0-2.47,0-3.81-.11a1,1,0,0,1-1-1.08,1,1,0,0,1,1.08-1c18.33,1,23.08-5.46,23.13-5.52A1,1,0,0,1,141,13C140.78,13.23,136.21,19.45,119.87,19.45Z" transform="translate(-4.13)"/><path class="b7de1479-1b23-4d1a-9bb7-c097dc5ccce7" d="M124.4,25.89c-1.42,0-2.91,0-4.48-.11a1,1,0,0,1-1-1.07,1,1,0,0,1,1.07-1c21.58,1,27.47-5.52,27.52-5.59A1,1,0,0,1,149,18a1,1,0,0,1,.13,1.44C148.88,19.74,143.53,25.89,124.4,25.89Z" transform="translate(-4.13)"/></g></g></svg>