<svg xmlns="http://www.w3.org/2000/svg" xmlns:xlink="http://www.w3.org/1999/xlink" viewBox="0 0 152.05 44.04"><defs><style>.f251386f-851d-4b2b-a111-1f1423d9dfbd{fill:none;}.af64699f-2daf-4b6b-ab97-e12babee1cf7{fill:#806654;}.f9451b09-df7a-4888-a908-f7400915b270{fill:#231815;}.bb7b892c-c418-4552-8bf8-9e3d58120ef2{clip-path:url(#b8996cbe-1e87-4934-9677-83f0963aa553);}.fefdcec9-3cc2-4f56-842f-82f2cccc6e75{fill:#4e3b2e;}.e1742515-870e-4f74-8d44-cbcad14632e5{fill:#fff;}.bfdbfeae-0d15-495d-bb6e-1811cfb6c04e{clip-path:url(#e5c7930f-5817-4976-9dde-daa621b9001a);}</style><clipPath id="b8996cbe-1e87-4934-9677-83f0963aa553" transform="translate(-4.94)"><path class="f251386f-851d-4b2b-a111-1f1423d9dfbd" d="M6.17,31.56s20.42,12.18,69.18-6.27h7.76l-.83,12.14L45.5,43,21.84,47.74,0,40.26,3,28.68Z"/></clipPath><clipPath id="e5c7930f-5817-4976-9dde-daa621b9001a" transform="translate(-4.94)"><path class="f251386f-851d-4b2b-a111-1f1423d9dfbd" d="M155.77,31.56s-20.42,12.18-69.18-6.27H78.83l.83,12.14L116.44,43l23.66,4.73,21.84-7.48-3-11.58Z"/></clipPath></defs><title>鞋子2</title><g id="a46c15bd-d353-43fc-9a50-0385b97ac874" data-name="圖層 2"><g id="aeb9d51b-b480-4745-b3e5-ebbc6c94ada5" data-name="圖層 1"><path class="af64699f-2daf-4b6b-ab97-e12babee1cf7" d="M75.15,3.54V29.61a4.87,4.87,0,0,1-3.1,4.54,133,133,0,0,1-44.41,8.74C1,43.3,2.43,25.59,13.2,14.59A68,68,0,0,1,29.85,1.88a6.11,6.11,0,0,1,5-.54c6.29,2.1,23.3,6.66,37.55.43A1.93,1.93,0,0,1,75.15,3.54Z" transform="translate(-4.94)"/><path class="f9451b09-df7a-4888-a908-f7400915b270" d="M26.75,43.92c-13.92,0-19-5-20.82-9.2-2.57-6,0-14.17,6.54-20.85a67.62,67.62,0,0,1,16-12.39L29.33,1A7.14,7.14,0,0,1,35.21.36c6.46,2.16,23,6.52,36.82.47a3,3,0,0,1,4.14,2.71V29.61a5.86,5.86,0,0,1-3.75,5.5,134.49,134.49,0,0,1-44.76,8.81ZM33,2.06a5.09,5.09,0,0,0-2.59.7l-.83.49A65.65,65.65,0,0,0,13.94,15.3c-5.87,6-8.33,13.47-6.13,18.61,2.31,5.37,9.2,8.1,19.82,8a132,132,0,0,0,44.05-8.67,3.82,3.82,0,0,0,2.44-3.58V3.54a.9.9,0,0,0-.41-.76.91.91,0,0,0-.86-.07c-14.49,6.34-31.6,1.84-38.29-.4A5.14,5.14,0,0,0,33,2.06Z" transform="translate(-4.94)"/><path class="f9451b09-df7a-4888-a908-f7400915b270" d="M26.68,37.15c-4-5.62-5.35-11.3-4-16.89C25.34,8.89,38.05,2,38.59,1.74l1,1.81c-.12.07-12.44,6.73-14.9,17.19-1.18,5,.07,10.11,3.7,15.21Z" transform="translate(-4.94)"/><g class="bb7b892c-c418-4552-8bf8-9e3d58120ef2"><path class="fefdcec9-3cc2-4f56-842f-82f2cccc6e75" d="M75.35,3.65V29.72a4.86,4.86,0,0,1-3.1,4.54A132.89,132.89,0,0,1,27.85,43c-26.6.41-25.22-17.3-14.44-28.3A67.84,67.84,0,0,1,30.05,2a6.11,6.11,0,0,1,5-.54c6.29,2.1,23.3,6.66,37.55.43A1.93,1.93,0,0,1,75.35,3.65Z" transform="translate(-4.94)"/><path class="f9451b09-df7a-4888-a908-f7400915b270" d="M27,44c-13.92,0-19-5-20.82-9.21-2.57-6,0-14.17,6.54-20.85a67.54,67.54,0,0,1,16-12.4l.81-.48A7.18,7.18,0,0,1,35.41.47c6.46,2.16,23,6.52,36.82.47A2.93,2.93,0,0,1,75,1.17a3,3,0,0,1,1.34,2.48V29.72a5.88,5.88,0,0,1-3.75,5.5A134.75,134.75,0,0,1,27.86,44ZM33.17,2.17a5.13,5.13,0,0,0-2.6.7l-.82.48A66.24,66.24,0,0,0,14.14,15.41C8.27,21.41,5.81,28.88,8,34c2.3,5.37,9.17,8.06,19.81,7.95A132.17,132.17,0,0,0,71.88,33.3a3.81,3.81,0,0,0,2.44-3.58V3.65a.9.9,0,0,0-.41-.76.88.88,0,0,0-.86-.07c-14.49,6.34-31.6,1.84-38.29-.4A5.13,5.13,0,0,0,33.17,2.17Z" transform="translate(-4.94)"/></g><path class="e1742515-870e-4f74-8d44-cbcad14632e5" d="M10.56,29a1,1,0,0,1-.24,0,1,1,0,0,1-.76-1.24c3.59-15,20.39-23.64,21.1-24a1,1,0,0,1,.93,1.84c-.16.08-16.67,8.6-20,22.64A1,1,0,0,1,10.56,29Z" transform="translate(-4.94)"/><path class="e1742515-870e-4f74-8d44-cbcad14632e5" d="M54.37,10.62c-9.76,0-15.43-2.86-15.78-3a1,1,0,0,1,.95-1.83C39.66,5.82,52,12,71.72,5.69A1,1,0,0,1,73,6.35a1,1,0,0,1-.66,1.3A59,59,0,0,1,54.37,10.62Z" transform="translate(-4.94)"/><path class="af64699f-2daf-4b6b-ab97-e12babee1cf7" d="M86.8,3.54V29.61a4.86,4.86,0,0,0,3.09,4.54,133,133,0,0,0,44.41,8.74c26.6.41,25.21-17.3,14.44-28.3A68,68,0,0,0,132.09,1.88a6.11,6.11,0,0,0-5-.54c-6.29,2.1-23.3,6.66-37.55.43A1.93,1.93,0,0,0,86.8,3.54Z" transform="translate(-4.94)"/><path class="f9451b09-df7a-4888-a908-f7400915b270" d="M135.19,43.92h-.91a134.49,134.49,0,0,1-44.76-8.81,5.86,5.86,0,0,1-3.75-5.5V3.54A3,3,0,0,1,89.91.83c13.84,6.05,30.36,1.69,36.82-.47a7.17,7.17,0,0,1,5.89.63l.82.49a67.62,67.62,0,0,1,16,12.39c6.55,6.68,9.11,14.86,6.54,20.85C154.2,39,149.11,43.92,135.19,43.92ZM88.72,2.63a.88.88,0,0,0-.49.15.9.9,0,0,0-.41.76V29.61a3.82,3.82,0,0,0,2.44,3.58,132,132,0,0,0,44.05,8.67c10.69.15,17.52-2.58,19.82-8,2.2-5.14-.26-12.62-6.13-18.61a65.65,65.65,0,0,0-15.6-12l-.83-.49a5.13,5.13,0,0,0-4.19-.45c-6.69,2.23-23.8,6.74-38.29.4A1,1,0,0,0,88.72,2.63Z" transform="translate(-4.94)"/><path class="f9451b09-df7a-4888-a908-f7400915b270" d="M135.26,37.15,133.59,36c3.63-5.1,4.88-10.23,3.7-15.21-2.46-10.46-14.78-17.12-14.9-17.19l1-1.81c.54.28,13.25,7.15,15.94,18.52C140.61,25.85,139.26,31.53,135.26,37.15Z" transform="translate(-4.94)"/><g class="bfdbfeae-0d15-495d-bb6e-1811cfb6c04e"><path class="fefdcec9-3cc2-4f56-842f-82f2cccc6e75" d="M86.59,3.65V29.72a4.86,4.86,0,0,0,3.1,4.54A132.89,132.89,0,0,0,134.09,43c26.6.41,25.22-17.3,14.44-28.3A67.84,67.84,0,0,0,131.89,2a6.11,6.11,0,0,0-5-.54c-6.29,2.1-23.3,6.66-37.55.43A1.93,1.93,0,0,0,86.59,3.65Z" transform="translate(-4.94)"/><path class="f9451b09-df7a-4888-a908-f7400915b270" d="M135,44h-.91a134.75,134.75,0,0,1-44.77-8.81,5.87,5.87,0,0,1-3.74-5.5V3.65a3,3,0,0,1,1.34-2.48,2.91,2.91,0,0,1,2.8-.23C103.55,7,120.07,2.63,126.53.47a7.18,7.18,0,0,1,5.88.63l.81.48A67.54,67.54,0,0,1,149.27,14c6.54,6.68,9.11,14.86,6.54,20.85C154,39.06,148.9,44,135,44ZM88.52,2.74a.88.88,0,0,0-.49.15.9.9,0,0,0-.41.76V29.72a3.81,3.81,0,0,0,2.44,3.58A132.17,132.17,0,0,0,134.11,42c10.67.18,17.51-2.58,19.81-7.95,2.21-5.14-.25-12.61-6.12-18.61A66.24,66.24,0,0,0,132.19,3.35l-.82-.48a5.1,5.1,0,0,0-4.19-.45c-6.69,2.23-23.8,6.74-38.29.4A1,1,0,0,0,88.52,2.74Z" transform="translate(-4.94)"/></g><path class="e1742515-870e-4f74-8d44-cbcad14632e5" d="M151.16,29.39a1.07,1.07,0,0,1-.25,0,1,1,0,0,1-.74-1.25C152,20.9,136.41,8.76,130.25,4.69A1,1,0,1,1,131.38,3c1,.63,23.36,15.54,20.78,25.64A1,1,0,0,1,151.16,29.39Z" transform="translate(-4.94)"/><path class="e1742515-870e-4f74-8d44-cbcad14632e5" d="M105.39,10.62c-9.12,0-14.9-2.86-15.26-3a1,1,0,0,1,.93-1.83c.13.06,12.73,6.25,30,0a1,1,0,0,1,.71,1.93A47.53,47.53,0,0,1,105.39,10.62Z" transform="translate(-4.94)"/></g></g></svg>