<svg xmlns="http://www.w3.org/2000/svg" xmlns:xlink="http://www.w3.org/1999/xlink" viewBox="0 0 275.31 716.8"><defs><style>.e8a9c5a5-27ca-4fc3-87bd-1e6e09a646ad{fill:none;}.a4ccec61-c85f-433b-a7ee-bcbe4ec47b1b{fill:#231815;}.b42a1907-eb6f-4bb7-9786-3b6d88415af5{fill:#856a4d;}.bc79bb75-8386-48af-9a76-143f9943f2e0{fill:#bca377;}.a71d4b25-4abf-496c-bae0-3eb410364049{fill:#fff;}.a27e6868-c3fe-4ebd-a039-6a1d66be0380{fill:#fef4ed;}.ed48e773-607a-4e3a-a2fc-ede6e4ec04a8{fill:#427880;}.e98e1902-89a7-4c00-91cf-818cadcfd1eb{fill:#f7c2ba;}.e06a2c27-2463-4989-899c-a84780026cc6{fill:#5c4c44;}.b0c97991-761b-4161-920b-649bdf88bedc{fill:#373433;}.aad21911-b2c7-4e80-b8f3-42461a8770ba{fill:#716a69;}.a3b812b1-3791-403d-bfd4-205556fdfe9f{fill:#80a8bc;}.bb0c75ec-34d2-4a2a-8ed0-74b3b1c845c5{fill:#4c737f;}.e4835b7a-0935-4535-9a44-74c432377fdb{fill:#aed6e2;}.b8ff303c-f6e1-4d91-8da5-94169dc55aa3{fill:#f4f4f4;}.bd241da0-d42b-411f-9bd2-f55e7b7420d5{clip-path:url(#ade4f564-2c5f-4726-afdf-e3af1f063f11);}.b6267fb0-851c-4e3f-a076-2dbaf6f682cb{fill:#c9c9c9;}.abb2fdbb-c5f5-4b17-933f-5131fb92ebe4{clip-path:url(#eb216a43-99dd-41ab-87e5-a2cbf1f4b194);}</style><clipPath id="ade4f564-2c5f-4726-afdf-e3af1f063f11"><path class="e8a9c5a5-27ca-4fc3-87bd-1e6e09a646ad" d="M232.72,630.65s-17.14,16.13-67.15-5.43l-9.74-1.71-2.21,14.12,14.31,6.82,38.21-.15c1.89,0,29.09,2.63,29.09,2.63l4.41-11.71.47-10.16Z"/></clipPath><clipPath id="eb216a43-99dd-41ab-87e5-a2cbf1f4b194"><path class="e8a9c5a5-27ca-4fc3-87bd-1e6e09a646ad" d="M63.38,629.82s17.14,16.13,67.14-5.43l9.75-1.71,2.2,14.12-14.31,6.82L90,643.47c-1.89,0-29.09,2.64-29.09,2.64l-4.4-11.72L56,624.24Z"/></clipPath></defs><title>小勳</title><g id="b4d6d7c5-8616-4e99-9b09-b43af5453a53" data-name="圖層 2"><g id="ef7bfc3a-ceb3-4d35-8439-f9e328262812" data-name="圖層 1"><circle class="a4ccec61-c85f-433b-a7ee-bcbe4ec47b1b" cx="112.53" cy="347.45" r="1.06"/><circle class="a4ccec61-c85f-433b-a7ee-bcbe4ec47b1b" cx="178.62" cy="347.45" r="1.06"/><path class="b42a1907-eb6f-4bb7-9786-3b6d88415af5" d="M261.05,597.19s14.16,34.42,9.43,67.9C268,683,250.34,698.31,225.61,704.51a300.37,300.37,0,0,1-74.48,9.09l-5.23.12a300.92,300.92,0,0,1-74.48-9.09c-24.72-6.2-42.34-21.5-44.87-39.42C21.83,631.72,36,597.3,36,597.3Z"/><path class="a4ccec61-c85f-433b-a7ee-bcbe4ec47b1b" d="M144.61,716.8a304.18,304.18,0,0,1-73.94-9.18c-26-6.52-44.49-23-47.17-42-4.78-33.92,9-68.07,9.63-69.51l.79-1.9,229.2-.13.78,1.92c.59,1.43,14.42,35.58,9.63,69.5-2.67,19-21.19,35.46-47.17,42a302.83,302.83,0,0,1-75.24,9.18l-5.14.12ZM38.1,600.38c-2.78,7.6-12.42,36.56-8.5,64.4,2.33,16.49,19,31,42.57,36.86a297.92,297.92,0,0,0,73.72,9l5.17-.12a296.44,296.44,0,0,0,73.8-9c23.54-5.91,40.25-20.38,42.57-36.87,3.93-27.88-5.71-56.81-8.5-64.39Z"/><ellipse class="bc79bb75-8386-48af-9a76-143f9943f2e0" cx="148.73" cy="597.19" rx="112.32" ry="46"/><path class="a4ccec61-c85f-433b-a7ee-bcbe4ec47b1b" d="M148.73,646.27c-64.71,0-115.4-21.56-115.4-49.08S84,548.1,148.73,548.1s115.4,21.56,115.4,49.09S213.44,646.27,148.73,646.27Zm0-92c-59.22,0-109.24,19.65-109.24,42.92s50,42.91,109.24,42.91S258,620.45,258,597.19,208,554.27,148.73,554.27Z"/><path class="a71d4b25-4abf-496c-bae0-3eb410364049" d="M258.82,665.78a3,3,0,0,1-1.47-.38,3.07,3.07,0,0,1-1.23-4.18c2.67-4.89,1.76-18.89.32-28.84-67.7,31.83-123.25,29.09-158.16,21-38.66-8.91-60.58-25.64-61.49-26.35a3.08,3.08,0,0,1,3.77-4.87c.22.17,22,16.73,59.42,25.29,34.53,7.9,89.88,10.42,157.5-22.43l3.65-1.78.72,4c.51,2.79,4.77,27.56-.32,36.89A3.08,3.08,0,0,1,258.82,665.78Z"/><path class="a71d4b25-4abf-496c-bae0-3eb410364049" d="M247.37,609.76a3.08,3.08,0,0,1-2.26-5.17c2.58-2.78,3.49-5.45,2.79-8.16C245.36,586.61,224,577.63,216,575a3.08,3.08,0,0,1,1.92-5.86c3.27,1.08,32.1,10.94,35.93,25.75.86,3.32.83,8.43-4.23,13.88A3,3,0,0,1,247.37,609.76Z"/><path class="a27e6868-c3fe-4ebd-a039-6a1d66be0380" d="M200.22,329.22c11.74,48.36,35.69,101.55,35.69,101.55,3.89,9.73,4.82,29.19,11.94,26.72,4-1.37.76-15.63,4.25-9.25,3.21,5.85,17.2,9.14,20.79.77,5.51-12.87-6.62-19.72-14.12-27.37-2-2.08-2.4-4.39-3.63-7.67-13.55-36.26-20.65-77.29-35.36-106.71-15.48-30.95-46.44-27.31-51-31.86s0-28.75,0-28.75H148.43v83.88Z"/><path class="a4ccec61-c85f-433b-a7ee-bcbe4ec47b1b" d="M246.66,458.74a4.06,4.06,0,0,1-2-.52c-3.42-1.89-5-8.78-6.69-16.07a81.07,81.07,0,0,0-3.05-11c-.22-.49-23.83-53.19-35.53-100.88l-52,1.31v-86H170l-.23,1.22c-1.72,9.15-3.32,24.79-.28,27.83,1,1,4.19,1.65,7.89,2.41,11.85,2.44,31.69,6.53,43.29,29.72,8.61,17.24,14.54,38.11,20.82,60.21,4.4,15.49,8.95,31.51,14.59,46.6.29.78.53,1.51.76,2.2.72,2.14,1.24,3.69,2.63,5.11s2.86,2.74,4.45,4.16c6.88,6.17,14.67,13.16,9.88,24.34-1.48,3.44-4.66,5.45-9,5.65-5.5.24-11.48-2.48-13.61-6.26,0,.37,0,.76-.05,1.11-.15,3.4-.34,7.62-3,8.55A4.75,4.75,0,0,1,246.66,458.74ZM201,328.18l.19.8c11.58,47.71,35.39,100.84,35.62,101.37A81.82,81.82,0,0,1,240,441.69c1.44,6.23,3.07,13.28,5.68,14.73a2.13,2.13,0,0,0,1.84.1c1.34-.46,1.52-4.51,1.62-6.69.11-2.54.17-3.94,1.36-4.22s1.83.91,2.5,2.13c1.69,3.09,7.08,5.52,11.75,5.28,2-.1,5.64-.8,7.19-4.41,4.21-9.82-2.38-15.74-9.36-22-1.54-1.38-3.13-2.81-4.54-4.25-1.73-1.76-2.37-3.68-3.11-5.9-.23-.66-.46-1.37-.75-2.13-5.67-15.16-10.23-31.23-14.64-46.76-6.25-22-12.15-42.79-20.68-59.85-11.15-22.3-30.38-26.26-41.87-28.63-4.35-.89-7.5-1.54-8.92-3-4.35-4.34-1.45-23.06-.51-28.44H149.45v81.81Z"/><path class="a27e6868-c3fe-4ebd-a039-6a1d66be0380" d="M87.15,329.22C75.41,377.58,51.46,430.77,51.46,430.77c-3.89,9.73-4.82,29.19-11.94,26.72-4-1.37-.76-15.63-4.25-9.25-3.21,5.85-17.2,9.14-20.79.77C9,436.14,21.09,429.29,28.6,421.64c2-2.08,2.4-4.39,3.62-7.67,13.56-36.26,20.66-77.29,35.37-106.71,15.48-30.95,46.44-27.31,51-31.86s0-28.75,0-28.75h29.85v83.88Z"/><path class="a4ccec61-c85f-433b-a7ee-bcbe4ec47b1b" d="M40.71,458.74a4.7,4.7,0,0,1-1.53-.27c-2.67-.93-2.85-5.15-3-8.55,0-.35,0-.74,0-1.11-2.13,3.78-8.05,6.47-13.61,6.26-4.32-.2-7.51-2.21-9-5.65-4.79-11.18,3-18.17,9.88-24.34,1.58-1.42,3.08-2.77,4.45-4.16s1.91-3,2.62-5.11c.23-.68.48-1.42.77-2.2,5.64-15.08,10.19-31.1,14.59-46.59,6.28-22.1,12.2-43,20.82-60.22,11.6-23.19,31.44-27.28,43.29-29.72,3.7-.76,6.9-1.42,7.89-2.41,3-3,1.44-18.68-.28-27.83l-.23-1.22h32.11v86L88,330.27C76.25,378,52.64,430.66,52.4,431.19a80.36,80.36,0,0,0-3,11c-1.68,7.29-3.27,14.17-6.69,16.07A4.06,4.06,0,0,1,40.71,458.74Zm-4.14-13.16a1.53,1.53,0,0,1,.3,0c1.19.28,1.25,1.68,1.36,4.22.1,2.18.27,6.23,1.62,6.69a2.11,2.11,0,0,0,1.83-.1c2.62-1.45,4.25-8.5,5.69-14.73a82.51,82.51,0,0,1,3.14-11.3c.25-.57,24.06-53.7,35.64-101.41l.19-.8,61.06,1.3V247.67H119.81c.94,5.38,3.84,24.1-.51,28.44-1.42,1.43-4.57,2.08-8.92,3-11.49,2.37-30.72,6.33-41.87,28.63C60,324.78,54.07,345.57,47.82,367.58c-4.41,15.53-9,31.59-14.63,46.75-.29.76-.53,1.47-.75,2.14-.74,2.22-1.38,4.13-3.11,5.89-1.41,1.44-3,2.87-4.54,4.25-7,6.26-13.57,12.18-9.36,22,1.55,3.61,5.17,4.31,7.19,4.41,4.64.25,10.06-2.19,11.75-5.28C35,446.64,35.64,445.58,36.57,445.58Z"/><rect class="a27e6868-c3fe-4ebd-a039-6a1d66be0380" x="144.57" y="247.55" width="5.85" height="81.77"/><path class="a27e6868-c3fe-4ebd-a039-6a1d66be0380" d="M205.2,350.43c-.81-2-1-3.06-2.21-4.82l-.71-1.07"/><path class="a4ccec61-c85f-433b-a7ee-bcbe4ec47b1b" d="M204.25,350.82c-.23-.57-.41-1.07-.57-1.52a11.28,11.28,0,0,0-1.53-3.1l-.73-1.1,1.72-1.13.7,1.08a12.55,12.55,0,0,1,1.76,3.55c.16.43.33.9.55,1.44Z"/><path class="a27e6868-c3fe-4ebd-a039-6a1d66be0380" d="M89.15,319.1C73.07,372.92,73.76,444.31,73.76,444.31v.19c-2.28,51.33,18.4,131.61,21.66,147.56a5.39,5.39,0,0,0,5.29,4.3h21.74a8.56,8.56,0,0,0,8.55-9.24c-1-12.33-.78-34.68-.23-57.07.64-26,5.77-54.53,6.13-64.41.1-2.78,4.75-2.33,6.48-2.05a31.55,31.55,0,0,0,11,0,2.85,2.85,0,0,1,3.48,2.77c0,9.9,4,36.27,6.1,61.6,2.12,25.7,3.93,44,3,56.31a8.58,8.58,0,0,0,8.55,9.25h19.41a8.24,8.24,0,0,0,8.09-6.63c3.71-18.64,13.5-73.37,11.29-122.46-1.31-29.25.32-41.73-2.28-55.1,0,0-10.39-76.06-14.64-90.23"/><path class="a4ccec61-c85f-433b-a7ee-bcbe4ec47b1b" d="M122.45,597.39H100.71a6.44,6.44,0,0,1-6.3-5.12c-.46-2.27-1.27-5.84-2.33-10.44-6.37-27.89-21.3-93.21-19.35-137.38,0-.85-.5-72.29,15.44-125.64l2,.59C74.29,372.45,74.78,443.59,74.79,444.3v.26c-1.94,43.87,13,109,19.31,136.81,1,4.63,1.87,8.21,2.34,10.48a4.38,4.38,0,0,0,4.28,3.49h21.74A7.55,7.55,0,0,0,130,587.2c-.83-10.59-.91-29.83-.23-57.17.4-16.52,2.64-34.23,4.27-47.16,1-7.65,1.72-13.69,1.85-17.27a2.93,2.93,0,0,1,1.08-2.2c1.67-1.37,4.84-1.11,6.59-.83a30.58,30.58,0,0,0,10.57,0,3.91,3.91,0,0,1,3.3.78,3.81,3.81,0,0,1,1.43,3c0,5.29,1.19,15.59,2.56,27.53,1.2,10.45,2.57,22.31,3.53,34l.73,8.75c1.8,21.34,3.09,36.76,2.24,47.72a7.54,7.54,0,0,0,7.52,8.14h19.41a7.23,7.23,0,0,0,7.08-5.8C206,566,215.36,512.8,213.19,464.47c-.53-11.8-.58-21-.62-28.38-.07-11.24-.11-18.68-1.64-26.56-.12-.82-10.44-76.21-14.62-90.13l2-.59c4.22,14.08,14.25,87.27,14.67,90.39,1.56,8,1.61,15.93,1.67,26.88,0,7.37.09,16.54.62,28.3,2.18,48.55-7.18,102-11.31,122.71a9.29,9.29,0,0,1-9.1,7.45H175.42a9.59,9.59,0,0,1-9.57-10.35c.84-10.8-.45-26.14-2.23-47.38l-.73-8.77c-1-11.65-2.33-23.49-3.53-33.93-1.37-12-2.57-22.35-2.58-27.75a1.76,1.76,0,0,0-.66-1.4,1.9,1.9,0,0,0-1.58-.37,32.23,32.23,0,0,1-11.32,0c-2.29-.36-4.24-.21-5,.39a.84.84,0,0,0-.33.69c-.13,3.67-.9,9.75-1.87,17.44-1.62,12.89-3.85,30.54-4.25,47-.67,27.27-.6,46.44.22,57a9.59,9.59,0,0,1-9.57,10.35Z"/><path class="a71d4b25-4abf-496c-bae0-3eb410364049" d="M214.84,444a73.18,73.18,0,0,0,1.85-8.64,52.32,52.32,0,0,0-5.18-32.05c-66.68,22.86-135.78,0-135.78,0s-7.37,16.52-4.06,34.05A43.63,43.63,0,0,0,74,445.16c16-1.41,42.28-1.12,60.89,28.52.84,1.33,1.38,2.81,2.91,3.19,3.16.78,7,2.08,9.83,2.08a29.44,29.44,0,0,0,8.61-.85c1.71-.36,2.46-1.93,3.15-3.54C172.62,443.58,199.25,443.19,214.84,444Z"/><path class="a4ccec61-c85f-433b-a7ee-bcbe4ec47b1b" d="M147.64,480a32.28,32.28,0,0,1-7.72-1.49c-.81-.22-1.6-.44-2.36-.63-1.66-.41-2.43-1.74-3.1-2.91-.14-.24-.28-.48-.43-.72-17.77-28.31-42.71-29.57-59.93-28l-.77.06-.28-.71a44.35,44.35,0,0,1-2.38-8c-3.34-17.64,3.81-34,4.12-34.66l.38-.84.88.29c.69.22,69.55,22.47,135.12,0l.8-.27.42.72a52.81,52.81,0,0,1,5.32,32.72,74.58,74.58,0,0,1-1.88,8.76l-.23.79-.82,0c-19-1-42.31,1.52-54.44,29.93-.62,1.46-1.56,3.65-3.87,4.15l-.74.15A29.42,29.42,0,0,1,147.64,480ZM83,443.71c16.72,0,37.33,4.86,52.75,29.43.16.26.32.52.47.79.62,1.08,1,1.75,1.82,1.94s1.58.41,2.4.64a30.75,30.75,0,0,0,7.18,1.42,28.11,28.11,0,0,0,7.65-.67l.75-.16c1.18-.25,1.77-1.43,2.41-2.94C170.9,445,194.55,442,214.06,442.94a73.34,73.34,0,0,0,1.62-7.73A52.38,52.38,0,0,0,211,404.57c-61.86,20.85-126.3,2.57-134.69,0-1.4,3.56-6.43,17.81-3.64,32.6a41.22,41.22,0,0,0,2,6.89C77.31,443.86,80.11,443.71,83,443.71Z"/><path class="ed48e773-607a-4e3a-a2fc-ede6e4ec04a8" d="M82.09,413.4c-3.1-1.12-4.76-1.87-4.82-1.9l.63-1.4s1.67.75,4.72,1.85Z"/><path class="ed48e773-607a-4e3a-a2fc-ede6e4ec04a8" d="M143,423.36c-1.64,0-3.25,0-4.84-.06l0-1.54c1.64,0,3.28.08,5,.06s3.63,0,5.49-.08l0,1.54C146.82,423.34,144.92,423.38,143,423.36ZM131.83,423c-3.53-.21-7.08-.51-10.54-.89l.16-1.53c3.44.38,7,.68,10.47.88Zm23.28,0-.09-1.54c3.48-.2,7-.51,10.46-.89l.17,1.53C162.17,422.5,158.62,422.8,155.11,423ZM115,421.35c-3.51-.51-7-1.11-10.43-1.8l.31-1.51c3.38.68,6.86,1.28,10.35,1.79Zm57,0-.22-1.53c3.45-.49,6.93-1.09,10.35-1.76l.3,1.51C178.93,420.21,175.42,420.81,172,421.31Zm16.65-3.1-.35-1.5c3.37-.77,6.8-1.65,10.18-2.6l.42,1.48C195.44,416.55,192,417.43,188.6,418.21Zm-90.25,0c-3.51-.83-6.95-1.77-10.22-2.77l.45-1.48c3.24,1,6.65,1.93,10.12,2.75Z"/><path class="ed48e773-607a-4e3a-a2fc-ede6e4ec04a8" d="M205,413.76l-.47-1.47q2.41-.77,4.86-1.6l.5,1.46Q207.39,413,205,413.76Z"/><circle class="a4ccec61-c85f-433b-a7ee-bcbe4ec47b1b" cx="110.33" cy="339.33" r="1.08"/><circle class="a4ccec61-c85f-433b-a7ee-bcbe4ec47b1b" cx="178.02" cy="339.33" r="1.08"/><path class="a27e6868-c3fe-4ebd-a039-6a1d66be0380" d="M48,173.18S17,175.58,20.84,201a26.09,26.09,0,0,0,11.28,17.72c7.4,5,19.43,9.65,34.57,3Z"/><path class="a4ccec61-c85f-433b-a7ee-bcbe4ec47b1b" d="M51.78,226.06a36,36,0,0,1-20.23-6.49,27.22,27.22,0,0,1-11.72-18.42c-1-7,.34-12.92,4.14-17.7,7.92-9.94,23.33-11.24,24-11.29l.76-.06L68,222.28l-.9.39A37.85,37.85,0,0,1,51.78,226.06Zm-4.43-51.77c-3.15.39-15.38,2.4-21.78,10.45-3.42,4.31-4.67,9.73-3.71,16.1a25.2,25.2,0,0,0,10.84,17c7.06,4.79,18.41,9.18,32.68,3.3Z"/><path class="a27e6868-c3fe-4ebd-a039-6a1d66be0380" d="M57.1,196.76S45,192.7,41.93,199.51"/><path class="a4ccec61-c85f-433b-a7ee-bcbe4ec47b1b" d="M42.87,199.92,41,199.09c3.37-7.57,15.9-3.48,16.43-3.3l-.65,2C56.66,197.7,45.48,194.05,42.87,199.92Z"/><path class="a27e6868-c3fe-4ebd-a039-6a1d66be0380" d="M228.79,157s38.86-2.78,31.71,32.73a17,17,0,0,1-2.2,5.62c-4,6.39-15.84,20.74-42.19,19.45Z"/><path class="a4ccec61-c85f-433b-a7ee-bcbe4ec47b1b" d="M219.39,215.87c-1.09,0-2.19,0-3.33-.08l-1.21-.06L228,156l.76-.06c.76-.05,18.73-1.2,28.17,9.53,5.15,5.85,6.71,14.07,4.62,24.43a18.06,18.06,0,0,1-2.34,6C255.35,202,244,215.87,219.39,215.87Zm-2-2.08c25,.75,36.31-13,40-19a16.16,16.16,0,0,0,2.08-5.29c1.95-9.69.55-17.32-4.15-22.66-7.73-8.79-22.25-9-25.72-8.87Z"/><path class="a27e6868-c3fe-4ebd-a039-6a1d66be0380" d="M178.42,258.39c55.74-12.7,55.66-85.92,55.66-85.92l-.48-87.92-33-49.41L49.14,61.44,38.86,143.12l11.76,42.47c19.33,67.67,54.88,79.85,105.61,76A150.07,150.07,0,0,0,178.42,258.39Z"/><path class="a4ccec61-c85f-433b-a7ee-bcbe4ec47b1b" d="M140.78,263.26c-42,0-73.57-15.84-91.14-77.38L37.81,143.2l0-.21L48.22,60.56l.75-.13L201.1,34l33.53,50.21.47,88.24c0,.74-.56,74.19-56.45,86.92a149.19,149.19,0,0,1-22.34,3.24C151,263,145.8,263.26,140.78,263.26ZM39.9,143.05l11.71,42.27C71,253.11,106,264.38,156.16,260.58a149,149,0,0,0,22-3.19h0c54.31-12.38,54.86-84.19,54.86-84.92l-.47-87.61L200.13,36.27,50.07,62.32Z"/><circle class="e98e1902-89a7-4c00-91cf-818cadcfd1eb" cx="196.1" cy="228.74" r="16.54"/><circle class="e98e1902-89a7-4c00-91cf-818cadcfd1eb" cx="93.89" cy="228.74" r="16.54"/><polygon class="e06a2c27-2463-4989-899c-a84780026cc6" points="120.6 154.26 82.85 148.77 73.22 162.2 117.99 158.12 120.6 154.26"/><path class="a4ccec61-c85f-433b-a7ee-bcbe4ec47b1b" d="M71.08,163.42l11.29-15.76,40,5.82-3.8,5.62Zm12.24-13.54L75.37,161l42-3.83,1.42-2.1Z"/><polygon class="e06a2c27-2463-4989-899c-a84780026cc6" points="162.29 154.73 197.81 143.1 209.37 152.52 167.19 157.4 162.29 154.73"/><path class="a4ccec61-c85f-433b-a7ee-bcbe4ec47b1b" d="M167,158.46l-7.26-4L198,142l13.88,11.31Zm-2.11-3.5,2.52,1.38,39.44-4.56-9.24-7.53Z"/><circle class="a4ccec61-c85f-433b-a7ee-bcbe4ec47b1b" cx="101.01" cy="193.29" r="11.24"/><circle class="a4ccec61-c85f-433b-a7ee-bcbe4ec47b1b" cx="185.83" cy="193.29" r="11.24"/><path class="a4ccec61-c85f-433b-a7ee-bcbe4ec47b1b" d="M144.63,233.43c-4.49,0-8.91-3.42-9.13-3.59l1.26-1.61c.06,0,5.62,4.32,9.76,2.83,2.08-.74,3.53-2.89,4.31-6.39l.32-1.42,4.5,2.84-1.1,1.74-2.08-1.31c-1,3.42-2.79,5.6-5.26,6.48A7.64,7.64,0,0,1,144.63,233.43Z"/><path class="a27e6868-c3fe-4ebd-a039-6a1d66be0380" d="M233,185.87s6-6.67,13.06-1.84"/><path class="a4ccec61-c85f-433b-a7ee-bcbe4ec47b1b" d="M233.75,186.57l-1.53-1.38c.07-.07,6.74-7.29,14.41-2l-1.16,1.69C239.26,180.6,234,186.32,233.75,186.57Z"/><path class="b0c97991-761b-4161-920b-649bdf88bedc" d="M219.94,108.75c2.13-.09-.31,15.36,6.7,15.91a1.49,1.49,0,0,1,1.35,1.41c1.78,26.13,5.25,45.77,5.25,45.77,50.84-80-10.5-125.77-10.5-125.77l9.34-2.46C224.24,29,202.8,26,202.8,26S223.38,10.61,215,14.15c-3.61,1.52-27.89,5.35-27.89,5.35-52.29-34.17-81-4-81-4l.91-14.23C73.72,8.75,65.66,26.19,65.66,26.19,37.89,29.51,43.6,36,26.3,51.22,11.27,64.43,3.52,65.87,3.52,65.87L17,71.64C-1.39,85.15,3.39,124.57,3.39,124.57L14.88,111.5l-.43,23.65L19,129.72c-1.73,11.12,4.51,34.78,4.51,34.78l5.79-10.85c5,21.34,22.34,36.74,22.34,36.74-5.06-16.65-.11-38.31-.11-38.31C79,129.83,72.36,87,72.36,87c24.79,20.77,36.82,10.83,36.82,10.83C98.83,96.49,90.42,82.27,90.42,82.27c35.87,19.85,48.81,5.79,48.81,5.79S161.42,96.44,174.5,93h0S196.89,109.72,219.94,108.75Z"/><path class="a4ccec61-c85f-433b-a7ee-bcbe4ec47b1b" d="M53.68,193.56,51,191.15c-.16-.15-16.28-14.61-22-34.69l-5.79,10.83-.67-2.53c-.23-.88-5.22-20-4.81-31.88L13.37,138l.43-23.76L2.65,127l-.28-2.27C2.18,123.11-2,86.46,15,71.91L0,65.49l3.33-.62c.08,0,7.75-1.64,22.29-14.42A90,90,0,0,0,36.53,38.91C42.48,31.64,45.78,27.6,65,25.24c1.66-3,11.22-18.1,41.83-24.94l1.34-.3-.84,13.11c7.34-5.92,35.34-23.69,80,5.32,7-1.12,24.45-4,27.26-5.23,1-.44,2.64-1.11,3.28,0,.46.79,1.08,1.87-12.58,12.22,5.89,1.25,21.17,5.56,27.7,17.7l.61,1.14-8.67,2.29c9.35,8.09,55.25,53.34,9.17,125.83l-1.42,2.23-.45-2.6c0-.2-3.5-20-5.26-45.88a.46.46,0,0,0-.41-.45c-5.37-.43-6-7.63-6.47-12.4a21.71,21.71,0,0,0-.48-3.5c-21.65.72-42.14-13.4-45.33-15.69-12.2,2.92-31.11-3.53-34.8-4.86-2.68,2.33-15.77,11.31-45.85-4.1,3.12,4.18,9.05,10.82,15.69,11.7l2.33.31-1.81,1.5c-.51.42-12.33,9.73-36.17-9.23.88,9.6,2.2,44-21.2,63.23-.59,2.81-4.41,22.37.16,37.44Zm-24-42.81.62,2.67c3.67,15.82,14.42,28.45,19.41,33.64-3.49-16,.62-34.38.81-35.21l.08-.34.28-.23c26.65-21.61,20.51-63.67,20.45-64.1l-.42-2.69L73,86.24c17.76,14.88,28.77,13.6,33.23,12-9.36-3.16-16.39-14.88-16.71-15.43l-1.92-3.25,3.3,1.83c34.59,19.15,47.43,6.12,47.56,6l.47-.49.65.23c.21.09,22,8.23,34.63,4.9L180,90.45l.53,2-3.66,1c5.72,3.83,24.24,15.19,43,14.31,1.77,0,1.93,2.1,2.23,5.39.4,4.32.94,10.24,4.6,10.53A2.54,2.54,0,0,1,229,126c1.38,20.25,3.8,36.76,4.79,43,24.4-39.79,20.25-70.59,12.33-89.55a84.58,84.58,0,0,0-24-32.54l-1.7-1.28L230.52,43c-8-13-27.66-15.9-27.86-15.92l-2.47-.35,2-1.49c4.62-3.47,9.52-7.38,12.08-9.73-5.91,1.71-26.09,4.9-27,5l-.39.06-.33-.22c-50.91-33.26-79.38-4.42-79.66-4.12l-1.95,2,1-15.67C74.68,10,66.67,26.46,66.59,26.63l-.24.51-.57.07c-18.87,2.26-21.81,5.85-27.66,13A92.21,92.21,0,0,1,27,52C16.81,60.92,9.92,64.56,6.41,66L19.09,71.4l-1.45,1.07C2.46,83.6,3.54,113.49,4.19,122.1L16,108.72l-.42,23.55,5.07-6L20,129.88c-1.35,8.64,2.31,25.37,3.84,31.78Zm190.28-41Z"/><circle class="aad21911-b2c7-4e80-b8f3-42461a8770ba" cx="63.58" cy="53" r="6.18"/><circle class="aad21911-b2c7-4e80-b8f3-42461a8770ba" cx="75.96" cy="49.28" r="3.51"/><circle class="aad21911-b2c7-4e80-b8f3-42461a8770ba" cx="86.04" cy="44.57" r="3.51"/><circle class="aad21911-b2c7-4e80-b8f3-42461a8770ba" cx="190.3" cy="49.99" r="3.01"/><circle class="aad21911-b2c7-4e80-b8f3-42461a8770ba" cx="197.61" cy="54.81" r="3.01"/><path class="a4ccec61-c85f-433b-a7ee-bcbe4ec47b1b" d="M213.51,109.22c-8.73,0-21.51-3.24-38.44-15.68l1.22-1.65c29.42,21.62,45.83,14.45,49.39,12.37-10.61-17.77-35.34-28-37.29-28h0l-.43-2c2.82-.78,29.59,11.42,40,29.86l.43.76-.69.55C227.33,105.69,222.63,109.22,213.51,109.22Z"/><path class="a4ccec61-c85f-433b-a7ee-bcbe4ec47b1b" d="M167.57,94.76c-10.57,0-28.89-4.05-59.16-21.13l1-1.79c49.44,27.9,66.16,20.28,69,18.48-4-14.09-35.29-25.53-35.61-25.64l.69-1.94c1.38.5,33.69,12.3,37.08,27.78l.13.56-.42.4C180,91.75,176.67,94.76,167.57,94.76Z"/><path class="a71d4b25-4abf-496c-bae0-3eb410364049" d="M112.92,274.65c7.45,6,31.38,21.74,56.22-.56a7.1,7.1,0,0,1,5.82-1.72c10.79,1.64,43.23,9.86,58.49,50.32a4.74,4.74,0,0,1-2.23,5.86c-4.71,2.48-14.36,6.48-30.37,8.61l9.6,59.46s-47.31,32.59-134.37,4l5.6-61.31s-15.56-1.77-29.8-8.43a3.55,3.55,0,0,1-2-4.09c2.53-10,14.14-43.77,57.14-53.46A6.88,6.88,0,0,1,112.92,274.65Z"/><path class="a4ccec61-c85f-433b-a7ee-bcbe4ec47b1b" d="M144.15,413.29c-19,0-41.92-3-68.39-11.73l-.78-.25,5.58-61.14c-3.68-.52-17-2.7-29.12-8.39a4.59,4.59,0,0,1-2.51-5.27c2.59-10.24,14.43-44.41,57.91-54.21a7.9,7.9,0,0,1,6.73,1.55c6.7,5.42,30.48,21.4,54.89-.52a8.1,8.1,0,0,1,6.66-2c10,1.51,43.7,9.65,59.29,51a5.78,5.78,0,0,1-2.71,7.13c-4.31,2.27-13.84,6.35-29.67,8.58l9.54,59.06-.53.37C210.7,397.7,187.35,413.29,144.15,413.29Zm-67-13.42c80.22,26.11,126.7-.36,132.15-3.75l-9.66-59.84,1-.14c16.15-2.14,25.75-6.24,30-8.5a3.73,3.73,0,0,0,1.75-4.59c-15.19-40.27-48-48.2-57.68-49.66a6.08,6.08,0,0,0-5,1.47c-25.62,23-50.53,6.27-57.55.59a5.87,5.87,0,0,0-5-1.15C65,283.85,53.44,317.06,50.92,327a2.54,2.54,0,0,0,1.39,2.9c13.92,6.51,29.33,8.33,29.48,8.34l1,.12Z"/><path class="a4ccec61-c85f-433b-a7ee-bcbe4ec47b1b" d="M175,352.37a10.73,10.73,0,1,1,10.73-10.72A10.74,10.74,0,0,1,175,352.37Zm0-19.4a8.68,8.68,0,1,0,8.67,8.68A8.69,8.69,0,0,0,175,333Z"/><path class="a3b812b1-3791-403d-bfd4-205556fdfe9f" d="M180.14,274.17a3.48,3.48,0,0,1,3.89-1.54c4.32,1.16,12.94,3.68,15.62,5.91,3.63,3-16.12,12.69-18.14,32.64-1.44,14.13.86,18.65,1.79,22.78s-14.79,3.15-15.39,1.07S163.05,302.47,180.14,274.17Z"/><path class="a4ccec61-c85f-433b-a7ee-bcbe4ec47b1b" d="M175.9,337.85c-4,0-8.46-.77-9-2.53-1.06-3.66-4.27-34.17,12.34-61.68h0a4.5,4.5,0,0,1,5-2c4.78,1.28,13.22,3.78,16,6.11a2.19,2.19,0,0,1,.81,1.56c.09,1.69-1.64,3.51-4.52,6.52-5.12,5.37-12.85,13.49-14.07,25.46-1.18,11.62.2,16.64,1.21,20.3.21.75.4,1.45.56,2.14.22,1,.09,2.74-3.26,3.6A22.37,22.37,0,0,1,175.9,337.85Zm7.21-64.31A2.44,2.44,0,0,0,181,274.7h0c-17.52,29-12.2,59.77-12.12,60,.88.87,9.69,1.84,12.82.16.66-.35.61-.59.58-.71-.15-.66-.34-1.33-.54-2.06-1-3.82-2.49-9-1.27-21.05,1.28-12.67,9.64-21.43,14.63-26.66,1.87-2,4-4.2,3.95-5-1.9-1.62-7.44-3.7-15.31-5.81A2.36,2.36,0,0,0,183.11,273.54Z"/><rect class="bb0c75ec-34d2-4a2a-8ed0-74b3b1c845c5" x="166.02" y="301.48" width="18.42" height="11.18" rx="1.8" transform="translate(281.65 644.23) rotate(-167.81)"/><path class="a4ccec61-c85f-433b-a7ee-bcbe4ec47b1b" d="M180.21,314.82a4.94,4.94,0,0,1-1-.11l-10.76-2.33a4.71,4.71,0,0,1-3.62-5.62l.79-3.69a4.74,4.74,0,0,1,5.62-3.63L182,301.77a4.73,4.73,0,0,1,3.62,5.62l-.8,3.7A4.74,4.74,0,0,1,180.21,314.82Zm-10-13.43a2.68,2.68,0,0,0-2.62,2.11l-.8,3.7a2.64,2.64,0,0,0,.37,2,2.7,2.7,0,0,0,1.68,1.17l10.77,2.32a2.68,2.68,0,0,0,3.18-2.05l.8-3.69a2.68,2.68,0,0,0-2-3.18l-10.77-2.33A2.74,2.74,0,0,0,170.25,301.39Z"/><path class="a4ccec61-c85f-433b-a7ee-bcbe4ec47b1b" d="M111.86,352.37a10.73,10.73,0,1,1,10.72-10.72A10.74,10.74,0,0,1,111.86,352.37Zm0-19.4a8.68,8.68,0,1,0,8.67,8.68A8.68,8.68,0,0,0,111.86,333Z"/><path class="a3b812b1-3791-403d-bfd4-205556fdfe9f" d="M106.71,274.17a3.49,3.49,0,0,0-3.9-1.54c-4.32,1.16-12.94,3.68-15.62,5.91-3.62,3,16.12,12.69,18.15,32.64,1.43,14.13-.86,18.65-1.8,22.78s14.79,3.15,15.39,1.07S123.79,302.47,106.71,274.17Z"/><path class="a4ccec61-c85f-433b-a7ee-bcbe4ec47b1b" d="M110.94,337.85a22.27,22.27,0,0,1-5.13-.52c-3.35-.86-3.49-2.62-3.27-3.6.16-.69.35-1.39.56-2.15,1-3.66,2.4-8.68,1.22-20.29-1.22-12-9-20.09-14.08-25.46-2.88-3-4.61-4.83-4.51-6.52a2.14,2.14,0,0,1,.8-1.56c2.79-2.33,11.23-4.83,16-6.11a4.52,4.52,0,0,1,5,2h0c16.62,27.53,13.39,58,12.33,61.68C119.41,337.08,115,337.85,110.94,337.85Zm-7.21-64.31a2.41,2.41,0,0,0-.65.08c-7.86,2.11-13.41,4.19-15.23,5.71-.12.89,2,3.12,3.88,5.08,5,5.24,13.34,14,14.63,26.67,1.22,12-.23,17.23-1.28,21.05-.2.72-.38,1.39-.53,2.06,0,.12-.09.36.57.71,3.13,1.68,11.94.71,12.9-.31,0-.12,5.34-30.85-12.19-59.89A2.45,2.45,0,0,0,103.73,273.54Z"/><path class="a3b812b1-3791-403d-bfd4-205556fdfe9f" d="M211.1,558.89a4.39,4.39,0,0,1-6.63,2.72c-3.61-2.23-8.67-4.46-14.06-4-6.75.6-16.11,3.88-21.79,6.08a4.25,4.25,0,0,1-5.78-3.21l-13.39-85.84-6.5-.91-10.39,87.69a5,5,0,0,1-6.83,3.85c-6.74-2.7-19-5.18-36.07,1.2a5,5,0,0,1-6.51-3.17c-6-19.93-25.55-93.94-12.16-167,0,0,3.33-12.77,7.45-13.22s13.83.91,19.3-8.16c4.18-6.92,1.89-18.23.44-23.57a2.38,2.38,0,0,1,2.4-2.95l83.9.83a2.43,2.43,0,0,1,2.45,2.57c-.4,5.3-.7,17.29,4.56,20.4,3.83,2.26,12,1.85,12,1.85s7.2-.49,9.76,13.56C216.09,402.93,233.52,450.82,211.1,558.89Z"/><path class="a4ccec61-c85f-433b-a7ee-bcbe4ec47b1b" d="M87.92,567.83a6.06,6.06,0,0,1-2.7-.64,6,6,0,0,1-3.06-3.59C75.93,542.75,56.62,469.06,70,396.17c.61-2.32,3.76-13.56,8.35-14.06.68-.07,1.5-.1,2.43-.13,4.69-.16,11.79-.4,16.1-7.54,4-6.71,1.58-18.16.33-22.77a3.3,3.3,0,0,1,.58-2.89,3.44,3.44,0,0,1,2.82-1.36l83.9.84a3.53,3.53,0,0,1,2.58,1.14,3.35,3.35,0,0,1,.89,2.53c-.79,10.21.73,17.47,4,19.43,3.52,2.09,11.4,1.71,11.47,1.71.32,0,8.13-.38,10.83,14.41.32,1.72.81,3.84,1.44,6.52,4.87,20.7,16.26,69.19-3.65,165.1a5.22,5.22,0,0,1-3.1,3.76,5.51,5.51,0,0,1-5.07-.37c-3.24-2-8.19-4.31-13.43-3.84-6.76.59-16.38,4-21.5,6a5.35,5.35,0,0,1-4.65-.35,5.14,5.14,0,0,1-2.53-3.66l-13.26-85.09-4.71-.66-10.27,86.65a5.72,5.72,0,0,1-2.8,4.27,6.11,6.11,0,0,1-5.43.41c-7.08-2.83-19-4.91-35.33,1.22A6.09,6.09,0,0,1,87.92,567.83Zm12.63-218.35a1.47,1.47,0,0,0-1.16.55,1.26,1.26,0,0,0-.22,1.1c1.64,6.05,3.75,17.25-.55,24.37-4.89,8.1-13,8.37-17.79,8.53-.87,0-1.64.05-2.28.12-2.35.26-5.25,7.45-6.56,12.46C58.72,469,77.93,542.27,84.13,563a3.9,3.9,0,0,0,2,2.35,4,4,0,0,0,3.17.16c17-6.36,29.39-4.16,36.81-1.19a4.08,4.08,0,0,0,3.62-.27,3.69,3.69,0,0,0,1.81-2.75l10.52-88.73,8.29,1.15,13.5,86.6a3.08,3.08,0,0,0,1.53,2.2,3.37,3.37,0,0,0,2.87.22c6.39-2.48,15.4-5.56,22.07-6.15,5.81-.52,11.19,2,14.69,4.14a3.5,3.5,0,0,0,3.18.24,3.2,3.2,0,0,0,1.9-2.3h0c19.81-95.47,8.49-143.64,3.66-164.21-.63-2.71-1.14-4.85-1.46-6.62-2.35-12.85-8.48-12.73-8.7-12.73s-8.58.41-12.63-2c-5.57-3.29-5.56-14.79-5.05-21.36a1.28,1.28,0,0,0-.35-1,1.47,1.47,0,0,0-1.09-.48l-83.9-.83Z"/><path class="a71d4b25-4abf-496c-bae0-3eb410364049" d="M211,520.2l-2-.27c7.92-60.16,1-104,.94-104.44l2-.33C212,415.6,218.93,459.74,211,520.2Z"/><path class="a71d4b25-4abf-496c-bae0-3eb410364049" d="M127.77,558.24c-2-25.36,9.55-85.13,9.66-85.73l2,.39c-.12.6-11.66,60.1-9.63,85.17Z"/><path class="a4ccec61-c85f-433b-a7ee-bcbe4ec47b1b" d="M149.48,474.91a40.1,40.1,0,0,1-17.94-4.74l1-1.78c.18.1,17.72,9.82,30.62.07l1.24,1.64A24.25,24.25,0,0,1,149.48,474.91Z"/><rect class="bb0c75ec-34d2-4a2a-8ed0-74b3b1c845c5" x="102.41" y="301.48" width="18.42" height="11.18" rx="1.8" transform="translate(-62.33 30.5) rotate(-12.19)"/><path class="a4ccec61-c85f-433b-a7ee-bcbe4ec47b1b" d="M106.63,314.82a4.74,4.74,0,0,1-4.62-3.73l-.8-3.7a4.73,4.73,0,0,1,3.62-5.62l10.77-2.33a4.75,4.75,0,0,1,5.62,3.62l.8,3.7a4.74,4.74,0,0,1-3.62,5.62l-10.77,2.33A4.94,4.94,0,0,1,106.63,314.82Zm10-13.43a2.76,2.76,0,0,0-.57.06l-10.76,2.33a2.65,2.65,0,0,0-2,3.17l.8,3.7a2.67,2.67,0,0,0,3.18,2.05L118,310.38A2.69,2.69,0,0,0,120,307.2l-.8-3.7A2.68,2.68,0,0,0,116.6,301.39Z"/><path class="a71d4b25-4abf-496c-bae0-3eb410364049" d="M183.55,296.79a1,1,0,0,1-.33-.05,1,1,0,0,1-.64-1.31c2-5.7,8.43-12.43,11-15a67.72,67.72,0,0,0-11.46-3.65,1,1,0,0,1,.44-2c.35.08,8.51,1.88,13.28,4.49l1.24.68-1,1c-.09.09-9.23,8.61-11.51,15.15A1,1,0,0,1,183.55,296.79Z"/><path class="a71d4b25-4abf-496c-bae0-3eb410364049" d="M178.6,333a1,1,0,0,1-1-.66c-3.07-8.08-.12-16,0-16.35a1,1,0,1,1,1.92.73c0,.07-2.79,7.56,0,14.89a1,1,0,0,1-.59,1.32A.94.94,0,0,1,178.6,333Z"/><path class="a71d4b25-4abf-496c-bae0-3eb410364049" d="M113.71,299.21a1,1,0,0,1-1-.84,46.19,46.19,0,0,0-9.82-21c-7.3,1-11.33,3.92-11.37,3.95a1,1,0,1,1-1.23-1.64c.18-.14,4.71-3.47,12.89-4.41l.51-.06.35.37A46.75,46.75,0,0,1,114.72,298a1,1,0,0,1-.82,1.2Z"/><path class="a71d4b25-4abf-496c-bae0-3eb410364049" d="M116.28,332.31a.91.91,0,0,1-.42-.09,1,1,0,0,1-.51-1.35c2.24-5,0-15.46-.07-15.57a1,1,0,1,1,2-.44c.11.45,2.46,11.23-.06,16.85A1,1,0,0,1,116.28,332.31Z"/><path class="a71d4b25-4abf-496c-bae0-3eb410364049" d="M118.55,309.34h-.13a1,1,0,0,1-.89-1.15c.17-1.33.18-3.06-.75-3.73-1.19-.86-3.69,0-4.48.4a1,1,0,1,1-.89-1.84c.42-.21,4.17-1.95,6.56-.23,1.42,1,2,2.92,1.6,5.66A1,1,0,0,1,118.55,309.34Z"/><path class="a71d4b25-4abf-496c-bae0-3eb410364049" d="M180.82,311.76a1,1,0,0,1-.58-.18,1,1,0,0,1-.27-1.43c1.12-1.62,1.53-2.92,1.14-3.56-.62-1-3.37-1-4.51-.9a1,1,0,0,1-1.15-.89,1,1,0,0,1,.89-1.15c.51-.07,5-.57,6.53,1.87.87,1.42.46,3.37-1.2,5.79A1,1,0,0,1,180.82,311.76Z"/><path class="a71d4b25-4abf-496c-bae0-3eb410364049" d="M183.55,367.23a1,1,0,0,1-.87-.48c-2.41-3.83-1.92-9.47-1.58-11.79-18-2.75-73.59-1.35-74.16-1.33a1.06,1.06,0,0,1-1.06-1,1,1,0,0,1,1-1.05c2.38-.06,58.54-1.48,75.58,1.53l1,.18-.22,1c0,.07-1.47,7.21,1.13,11.33a1,1,0,0,1-.32,1.42A1,1,0,0,1,183.55,367.23Z"/><rect class="a71d4b25-4abf-496c-bae0-3eb410364049" x="164.63" y="576.18" width="42.26" height="36.2" rx="2.17" transform="translate(371.52 1188.56) rotate(180)"/><path class="a4ccec61-c85f-433b-a7ee-bcbe4ec47b1b" d="M202.43,613.41H169.09a5.49,5.49,0,0,1-5.49-5.49V580.63a5.49,5.49,0,0,1,5.49-5.48h33.34a5.49,5.49,0,0,1,5.49,5.48v27.29A5.49,5.49,0,0,1,202.43,613.41ZM169.09,577.2a3.44,3.44,0,0,0-3.43,3.43v27.29a3.44,3.44,0,0,0,3.43,3.44h33.34a3.44,3.44,0,0,0,3.43-3.44V580.63a3.44,3.44,0,0,0-3.43-3.43Z"/><rect class="e4835b7a-0935-4535-9a44-74c432377fdb" x="165.68" y="580.5" width="40.28" height="3.79" transform="translate(371.64 1164.79) rotate(180)"/><rect class="e4835b7a-0935-4535-9a44-74c432377fdb" x="165.68" y="587.04" width="40.28" height="3.79" transform="translate(371.64 1177.86) rotate(180)"/><rect class="e4835b7a-0935-4535-9a44-74c432377fdb" x="165.68" y="593.57" width="40.28" height="3.79" transform="translate(371.64 1190.94) rotate(180)"/><rect class="e4835b7a-0935-4535-9a44-74c432377fdb" x="165.68" y="600.11" width="40.28" height="3.79" transform="translate(371.64 1204.02) rotate(180)"/><path class="b8ff303c-f6e1-4d91-8da5-94169dc55aa3" d="M163.74,602.91v26.64a5,5,0,0,0,3.18,4.65,137.2,137.2,0,0,0,45.62,8.93c27.33.41,25.91-17.69,14.83-28.93a69.76,69.76,0,0,0-17.09-13,6.32,6.32,0,0,0-5.18-.56c-6.47,2.15-23.94,6.82-38.58.44A2,2,0,0,0,163.74,602.91Z"/><path class="a4ccec61-c85f-433b-a7ee-bcbe4ec47b1b" d="M213.46,644.17h-.94a138.42,138.42,0,0,1-46-9,6,6,0,0,1-3.83-5.6V602.91a3,3,0,0,1,4.21-2.76c14.23,6.19,31.21,1.73,37.85-.47a7.32,7.32,0,0,1,6,.64l.83.49a69.45,69.45,0,0,1,16.48,12.67c6.7,6.8,9.34,15.15,6.73,21.26C233,639.07,227.77,644.17,213.46,644.17ZM165.72,602a1,1,0,0,0-.52.16,1,1,0,0,0-.43.8v26.64a3.93,3.93,0,0,0,2.52,3.69,136.25,136.25,0,0,0,45.27,8.86c11,.14,18-2.65,20.39-8.17,2.25-5.26-.29-12.9-6.31-19a67.51,67.51,0,0,0-16-12.34l-.84-.49a5.29,5.29,0,0,0-4.34-.46c-6.86,2.28-24.43,6.88-39.31.4A1,1,0,0,0,165.72,602Z"/><g class="bd241da0-d42b-411f-9bd2-f55e7b7420d5"><path class="b6267fb0-851c-4e3f-a076-2dbaf6f682cb" d="M164.79,603.57v25.6a4.77,4.77,0,0,0,3.1,4.46,134.78,134.78,0,0,0,44.42,8.58c26.62.4,25.24-17,14.45-27.79a68,68,0,0,0-16.65-12.48,6.18,6.18,0,0,0-5-.53c-6.3,2.06-23.31,6.54-37.57.42A1.93,1.93,0,0,0,164.79,603.57Z"/></g><circle class="b8ff303c-f6e1-4d91-8da5-94169dc55aa3" cx="204.79" cy="613.94" r="7.61"/><path class="a4ccec61-c85f-433b-a7ee-bcbe4ec47b1b" d="M204.78,622.57a8.63,8.63,0,0,1-.87-17.22,8.63,8.63,0,0,1,9.47,7.71h0a8.6,8.6,0,0,1-8.6,9.51Zm0-15.22c-.22,0-.45,0-.68,0a6.59,6.59,0,0,0-5.88,7.21,6.58,6.58,0,1,0,13.1-1.33h0a6.58,6.58,0,0,0-6.54-5.92Z"/><circle class="b8ff303c-f6e1-4d91-8da5-94169dc55aa3" cx="217.26" cy="608.78" r="5.94"/><path class="a4ccec61-c85f-433b-a7ee-bcbe4ec47b1b" d="M217.26,615.75a7,7,0,1,1,6.93-7.67,7,7,0,0,1-6.22,7.63A5.74,5.74,0,0,1,217.26,615.75Zm0-11.88-.5,0a4.91,4.91,0,1,0,5.39,4.39h0A4.93,4.93,0,0,0,217.26,603.87Z"/><path class="a4ccec61-c85f-433b-a7ee-bcbe4ec47b1b" d="M226.86,623.81a19.87,19.87,0,0,1-12.76-8.31,11.23,11.23,0,0,1-.68-1.08l1.81-1s.2.36.56.89a17.76,17.76,0,0,0,11.41,7.44Z"/><path class="a4ccec61-c85f-433b-a7ee-bcbe4ec47b1b" d="M213.8,633.76l-1.31-1.58c4.17-3.46,1.2-14.07-.3-17.87l1.91-.75C214.34,614.17,220,628.66,213.8,633.76Z"/><path class="a71d4b25-4abf-496c-bae0-3eb410364049" d="M182.76,608.86c-9.09,0-14.24-2.11-14.59-2.26a1,1,0,1,1,.8-1.89c.14.06,14,5.68,36.66-1.94a1,1,0,0,1,1.3.65,1,1,0,0,1-.64,1.3A73.84,73.84,0,0,1,182.76,608.86Z"/><rect class="a71d4b25-4abf-496c-bae0-3eb410364049" x="89.2" y="575.35" width="42.26" height="36.2" rx="2.17"/><path class="a4ccec61-c85f-433b-a7ee-bcbe4ec47b1b" d="M127,612.58H93.66a5.49,5.49,0,0,1-5.48-5.48V579.81a5.49,5.49,0,0,1,5.48-5.49H127a5.49,5.49,0,0,1,5.48,5.49V607.1A5.49,5.49,0,0,1,127,612.58Zm-33.35-36.2a3.44,3.44,0,0,0-3.43,3.43V607.1a3.44,3.44,0,0,0,3.43,3.43H127a3.44,3.44,0,0,0,3.43-3.43V579.81a3.44,3.44,0,0,0-3.43-3.43Z"/><rect class="e4835b7a-0935-4535-9a44-74c432377fdb" x="90.13" y="579.67" width="40.28" height="3.79"/><rect class="e4835b7a-0935-4535-9a44-74c432377fdb" x="90.13" y="586.21" width="40.28" height="3.79"/><rect class="e4835b7a-0935-4535-9a44-74c432377fdb" x="90.13" y="592.75" width="40.28" height="3.79"/><rect class="e4835b7a-0935-4535-9a44-74c432377fdb" x="90.13" y="599.29" width="40.28" height="3.79"/><path class="b8ff303c-f6e1-4d91-8da5-94169dc55aa3" d="M132.35,602.08v26.65a5,5,0,0,1-3.18,4.64,137.2,137.2,0,0,1-45.62,8.93c-27.32.42-25.9-17.69-14.83-28.93a70,70,0,0,1,17.1-13,6.26,6.26,0,0,1,5.17-.55c6.47,2.14,23.94,6.81,38.58.44A2,2,0,0,1,132.35,602.08Z"/><path class="a4ccec61-c85f-433b-a7ee-bcbe4ec47b1b" d="M82.63,643.34c-14.31,0-19.53-5.1-21.37-9.43-2.62-6.11,0-14.45,6.73-21.26A69.65,69.65,0,0,1,84.46,600l.84-.49a7.35,7.35,0,0,1,6-.64c6.64,2.21,23.62,6.67,37.84.48a3,3,0,0,1,4.22,2.75v26.65a6,6,0,0,1-3.84,5.59,138.15,138.15,0,0,1-46,9ZM89,600.54a5.22,5.22,0,0,0-2.68.73l-.85.49a67.8,67.8,0,0,0-16,12.33c-6,6.12-8.56,13.76-6.31,19,2.36,5.51,9.39,8.3,20.4,8.17a136.43,136.43,0,0,0,45.26-8.87,3.92,3.92,0,0,0,2.52-3.68V602.08a.94.94,0,0,0-.42-.8,1,1,0,0,0-.92-.07c-14.88,6.48-32.45,1.87-39.31-.41A5.17,5.17,0,0,0,89,600.54Z"/><g class="abb2fdbb-c5f5-4b17-933f-5131fb92ebe4"><path class="b6267fb0-851c-4e3f-a076-2dbaf6f682cb" d="M131.31,602.74v25.6a4.77,4.77,0,0,1-3.1,4.46,135.05,135.05,0,0,1-44.43,8.59c-26.62.39-25.23-17-14.45-27.8A68.21,68.21,0,0,1,86,601.11a6.2,6.2,0,0,1,5-.53c6.29,2.06,23.31,6.54,37.57.42A1.93,1.93,0,0,1,131.31,602.74Z"/></g><circle class="b8ff303c-f6e1-4d91-8da5-94169dc55aa3" cx="91.31" cy="613.11" r="7.61"/><path class="a4ccec61-c85f-433b-a7ee-bcbe4ec47b1b" d="M91.32,621.75c-.29,0-.59,0-.89,0a8.48,8.48,0,1,1,.89,0Zm0-15.23a6.6,6.6,0,0,0-6.54,5.92h0a6.57,6.57,0,0,0,5.88,7.22A6.58,6.58,0,1,0,92,606.56C91.75,606.54,91.52,606.52,91.3,606.52Z"/><circle class="b8ff303c-f6e1-4d91-8da5-94169dc55aa3" cx="78.83" cy="607.96" r="5.94"/><path class="a4ccec61-c85f-433b-a7ee-bcbe4ec47b1b" d="M78.85,614.92a5.79,5.79,0,0,1-.72,0,7,7,0,0,1-6.22-7.63h0A7,7,0,0,1,79.54,601a7,7,0,0,1-.69,13.89Zm0-11.88A4.92,4.92,0,0,0,74,607.46h0a4.91,4.91,0,0,0,9.77,1,4.93,4.93,0,0,0-4.39-5.38Z"/><path class="a4ccec61-c85f-433b-a7ee-bcbe4ec47b1b" d="M69.23,623l-.33-2a17.83,17.83,0,0,0,11.41-7.45c.36-.53.54-.87.56-.89l1.81,1s-.23.41-.69,1.08A19.77,19.77,0,0,1,69.23,623Z"/><path class="a4ccec61-c85f-433b-a7ee-bcbe4ec47b1b" d="M82.29,632.93c-6.15-5.1-.54-19.58-.3-20.2l1.91.75c-1.49,3.8-4.46,14.42-.3,17.87Z"/><path class="a71d4b25-4abf-496c-bae0-3eb410364049" d="M112.4,607.05A77.42,77.42,0,0,1,88,602.77a1,1,0,0,1-.61-1.32,1,1,0,0,1,1.32-.6c.23.08,22.59,8.22,39.54,1.37a1,1,0,1,1,.77,1.91A44.65,44.65,0,0,1,112.4,607.05Z"/></g></g></svg>