<svg xmlns="http://www.w3.org/2000/svg" viewBox="0 0 450.33 142.76"><defs><style>.a57ca566-6394-4abb-b428-7ad49aaa69c3{fill:#53815c;}.a479cba6-35d1-4404-887d-86f291f7bc19{fill:#203e20;}.e6014273-4776-4173-8a35-af9169dae040{fill:#bcdeb4;}.a6209d90-e369-4c67-a84a-19f7a211d994{fill:#bddeb3;}.b5f6ff54-d258-42b9-8e42-dee01a18e45f{fill:#fff;}</style></defs><title>名牌</title><g id="ec850d00-3265-4e03-84b2-1fb08d9a844f" data-name="圖層 2"><g id="b29860f7-5108-4917-aed3-e8a94601d457" data-name="圖層 1"><path class="a57ca566-6394-4abb-b428-7ad49aaa69c3" d="M364.27,139.89a325.8,325.8,0,0,0-277.44,1.36c-3.54,1.79-7.78,1.79-9.54-.08L2.46,61C.7,59.1,3.67,55.2,9.18,52.42c135.25-65.58,296-66.37,431.86-2.11,5.53,2.72,8.54,6.59,6.8,8.49l-74,80.91C372.06,141.61,367.82,141.64,364.27,139.89Z" transform="translate(0 -0.42)"/><path class="a479cba6-35d1-4404-887d-86f291f7bc19" d="M355.84,138.62a324,324,0,0,0-260.6,1.28c-9.25,4.35-20.25,4.5-24.93-.33L.55,67.45C-2.76,55.87,9.7,50.32,18.18,45.29a510,510,0,0,1,413.79-2c8.53,4.93,21,10.37,17.85,22l-69.06,72.8C376.14,142.93,365.13,142.88,355.84,138.62ZM21.38,49.22c-8.31,3.91-12.83,9.7-10.27,12.54q33.26,36.95,66.5,73.88c2.57,2.85,9,2.89,14.43.33a331.86,331.86,0,0,1,267-1.31c5.48,2.51,11.89,2.4,14.42-.47L439.2,59.67c2.53-2.88-2-8.61-10.4-12.44A502.14,502.14,0,0,0,21.38,49.22Z" transform="translate(0 -0.42)"/><path class="e6014273-4776-4173-8a35-af9169dae040" d="M376.27,119.44a3.09,3.09,0,0,1-2.31-5.13l46.65-52.54C394.76,45.44,310.74,26.88,309.86,26.69a3.08,3.08,0,1,1,1.32-6c3.79.83,92.91,20.52,115.92,38.1a3.08,3.08,0,0,1,.43,4.5l-49,55.13A3.05,3.05,0,0,1,376.27,119.44Z" transform="translate(0 -0.42)"/><path class="a6209d90-e369-4c67-a84a-19f7a211d994" d="M86,129.33a7.85,7.85,0,0,1-5.7-2.64c-6.93-6.92-44.76-45.44-45.14-45.83a3.08,3.08,0,1,1,4.4-4.32c.38.39,38.19,38.89,45.09,45.79,1.24,1.24,1.65,1.37,7.27-1.77,6.33-3.54,16.92-9.46,36.47-10.67a3.09,3.09,0,0,1,.38,6.16c-18.15,1.11-27.59,6.39-33.84,9.89C91.75,127.71,88.84,129.33,86,129.33Z" transform="translate(0 -0.42)"/><path class="b5f6ff54-d258-42b9-8e42-dee01a18e45f" d="M181.22,43.78q-1.36,14.38-7.61,33.64l-4.87-1.19q6.36-20.45,7.61-33.34Zm18.13,13.85q-.3,13-.48,23.65a7.07,7.07,0,0,1-1.25,4.34,5.86,5.86,0,0,1-4.22,1.43,119,119,0,0,1-12.48-1V81.11a69.43,69.43,0,0,0,10.34,1.18,2.52,2.52,0,0,0,1.91-.59,2.6,2.6,0,0,0,.65-1.9q.18-8.8.42-21.16t-.54-25.55l4.93-.36Q199.59,47.12,199.35,57.63Zm17.59,18.25q-4.63-13-6.84-32.1l4.94-1q2.73,20.2,6.71,31.86Z" transform="translate(0 -0.42)"/><path class="b5f6ff54-d258-42b9-8e42-dee01a18e45f" d="M236.25,79.86a42.66,42.66,0,0,1-4.1,7.19l-3.68-2.26a40.27,40.27,0,0,0,4-7Zm-7.6-7.79q6.58.06,12.36,0V69H229.89V64.82H241V62.39h-7.08v.71h-4.69V47.83h4.69v.23A40,40,0,0,1,241,47V44.44H229.18V40H241V38.26c-3.29.08-6.72.09-10.28.06l-.24-4.76q16.39.06,26.09-1.78l.47,4.69A107.85,107.85,0,0,1,245.94,38v2h11.53v4.46H245.94v2.14a48.5,48.5,0,0,1,5.41-.3A8,8,0,0,1,256,47.41a5.15,5.15,0,0,1,2,4.1,57.91,57.91,0,0,1-.35,6.66h1.3v4.22H245.94v2.43h11.77V69H245.94v2.74q7.13-.54,12.54-1.49L259,75q-12.42,2.37-30.13,1.84Zm5.28-19v5.06H241V51.39a28.06,28.06,0,0,0-2.8.36,37.73,37.73,0,0,1,2.62,4.16l-3.69,2.26A33.65,33.65,0,0,0,233.93,53.11Zm5.53,34.3a41.34,41.34,0,0,1-2.61-7.85l4-1.19a46.21,46.21,0,0,0,2.61,7.55Zm8.74.06a39.83,39.83,0,0,1-3.81-8.92l4-1.54a50,50,0,0,0,3.68,8.67Zm1.07-36.67a22.76,22.76,0,0,0-3.33.12V53C247.17,52.16,248.28,51.43,249.27,50.8Zm-3.21,7.07-.12-.12v.42h6.71c.16-1.59.26-3.18.3-4.76A60.11,60.11,0,0,1,246.06,57.87Zm31-11a3.55,3.55,0,0,0-.59-2.19,1.82,1.82,0,0,0-1.67-.66c-.47.08-.91.14-1.31.18l-2.49.48a294.07,294.07,0,0,1-7.79,41.77l-4.69-.83-2.44,1.19a42,42,0,0,1-4.1-9.15l3.92-1.61A64.34,64.34,0,0,0,259,83.42a357,357,0,0,0,7-37.56c-1.91.52-3.89,1.15-5.95,1.91l-1-4.94a65.43,65.43,0,0,1,7.49-2.14q.42-4.52.6-8.49l4.69.59q-.18,3.27-.42,6.83a7.63,7.63,0,0,1,1.73-.29q2.08-.24,2.43-.3a6,6,0,0,1,4.16,1.66,7.51,7.51,0,0,1,2.2,5.83q.24,2.67.84,9.27a112.18,112.18,0,0,1,0,15.51q-.54,9.33-2,13.07a5.25,5.25,0,0,1-4.94,2.56,60.19,60.19,0,0,1-9.09-1V81.23a50,50,0,0,0,8,1,1.89,1.89,0,0,0,2.14-1.55,56,56,0,0,0,1-9.21,128.5,128.5,0,0,0-.23-17.3Q277.32,49.79,277.08,46.87Z" transform="translate(0 -0.42)"/></g></g></svg>