<svg xmlns="http://www.w3.org/2000/svg" xmlns:xlink="http://www.w3.org/1999/xlink" viewBox="0 0 1400 1050"><defs><style>.b426701e-dacf-48a1-9d3a-0f957e42cd7c{fill:#f9cfc7;}.b1433651-1392-4afa-ba00-b2460c1dc3ba{fill:#feeda5;}.f1edc53d-ed18-499f-977a-6aa09516e2cc{fill:#fbc52c;}.bf0e5d9f-5cc8-477a-b5fd-094789696bc4{fill:#604800;}.afa61772-6b66-41fc-95f7-bd39085d8316{fill:#e9842e;}.fa092ef9-dd11-4f46-b6b9-038beacecd27{fill:#ad8818;}.a13cf5bf-8d2c-450f-a2af-72e3f6bf7311,.a3f57f11-a41c-4734-9d2a-a58ac47042ee,.a401da15-bbc0-4168-a2e6-341c7ff2b0cf,.a527d019-e6b4-42ac-a729-aedc7497da1b,.aacb01af-1410-4017-a62a-1017ac8eb8a6,.ad00b039-82b5-44fe-a20d-6a60845ba748,.b08503c7-4801-471b-97e9-2c4a6fa31a7a,.b1a8eda5-6211-418f-be31-eb700a39b055,.b2326030-f843-453c-af39-db55f6b60e85,.b6ce8453-478f-449b-96d7-62fc82e3ae1e,.be26dacc-ee1f-4eb2-97c9-06ccc7a70aca,.bf3f51ba-9872-469c-9739-0d385b2bff1e,.e4a9720a-fe2f-40b0-b51d-69207cfac55e,.ea4d508d-cb26-4524-b814-af48076e3485,.eaacca69-4164-4207-9c75-d63f122dad34,.f3874435-58ad-43db-afb1-cf7f1d1b649d,.f51af162-9b2d-41c4-ab4d-6294820fb2de,.f9ba2d55-91f5-4907-a09e-8ba08871d1c9,.fa55eff0-86df-447a-b741-9c9750fa408d,.fa958e71-1043-4afe-9e37-caf7c1e5db55,.fb5deee5-ad9f-4b48-9232-3efee3ed6887{fill:none;}.b6ce8453-478f-449b-96d7-62fc82e3ae1e,.be26dacc-ee1f-4eb2-97c9-06ccc7a70aca{stroke:#799875;}.a3f57f11-a41c-4734-9d2a-a58ac47042ee,.aacb01af-1410-4017-a62a-1017ac8eb8a6,.ad00b039-82b5-44fe-a20d-6a60845ba748,.b08503c7-4801-471b-97e9-2c4a6fa31a7a,.b1a8eda5-6211-418f-be31-eb700a39b055,.b2326030-f843-453c-af39-db55f6b60e85,.be26dacc-ee1f-4eb2-97c9-06ccc7a70aca,.e4a9720a-fe2f-40b0-b51d-69207cfac55e,.ea4d508d-cb26-4524-b814-af48076e3485,.f51af162-9b2d-41c4-ab4d-6294820fb2de,.f9ba2d55-91f5-4907-a09e-8ba08871d1c9,.fa55eff0-86df-447a-b741-9c9750fa408d,.fa958e71-1043-4afe-9e37-caf7c1e5db55{stroke-miterlimit:10;}.a527d019-e6b4-42ac-a729-aedc7497da1b,.b6ce8453-478f-449b-96d7-62fc82e3ae1e,.be26dacc-ee1f-4eb2-97c9-06ccc7a70aca,.f9ba2d55-91f5-4907-a09e-8ba08871d1c9{stroke-width:4.98px;}.a13cf5bf-8d2c-450f-a2af-72e3f6bf7311,.a401da15-bbc0-4168-a2e6-341c7ff2b0cf,.a527d019-e6b4-42ac-a729-aedc7497da1b,.b08503c7-4801-471b-97e9-2c4a6fa31a7a,.b1a8eda5-6211-418f-be31-eb700a39b055,.b2326030-f843-453c-af39-db55f6b60e85,.b38b9157-9816-46a9-b4bd-6646ecdb84b8,.b6ce8453-478f-449b-96d7-62fc82e3ae1e,.beb29860-b6b4-410e-96fd-8c1c519456ed,.bf3f51ba-9872-469c-9739-0d385b2bff1e,.e4a9720a-fe2f-40b0-b51d-69207cfac55e,.ea4d508d-cb26-4524-b814-af48076e3485,.eaacca69-4164-4207-9c75-d63f122dad34,.ed17463c-5e02-4b8b-978b-7e951afb9c72,.f0e558d3-82d8-4192-b5df-efbee0e18e9c,.f9ba2d55-91f5-4907-a09e-8ba08871d1c9,.fa55eff0-86df-447a-b741-9c9750fa408d,.fa958e71-1043-4afe-9e37-caf7c1e5db55,.fae60d96-2e33-459a-92fc-bcaae62ba4f7,.fb5deee5-ad9f-4b48-9232-3efee3ed6887{stroke-linecap:round;}.a13cf5bf-8d2c-450f-a2af-72e3f6bf7311,.a401da15-bbc0-4168-a2e6-341c7ff2b0cf,.a527d019-e6b4-42ac-a729-aedc7497da1b,.b38b9157-9816-46a9-b4bd-6646ecdb84b8,.b6ce8453-478f-449b-96d7-62fc82e3ae1e,.beb29860-b6b4-410e-96fd-8c1c519456ed,.bf3f51ba-9872-469c-9739-0d385b2bff1e,.eaacca69-4164-4207-9c75-d63f122dad34,.ed17463c-5e02-4b8b-978b-7e951afb9c72,.f0e558d3-82d8-4192-b5df-efbee0e18e9c,.fae60d96-2e33-459a-92fc-bcaae62ba4f7,.fb5deee5-ad9f-4b48-9232-3efee3ed6887{stroke-linejoin:round;}.bf3f51ba-9872-469c-9739-0d385b2bff1e{stroke:#227163;stroke-width:6.34px;}.a527d019-e6b4-42ac-a729-aedc7497da1b{stroke:#6b8767;}.b38b9157-9816-46a9-b4bd-6646ecdb84b8{fill:#537d35;}.b38b9157-9816-46a9-b4bd-6646ecdb84b8,.beb29860-b6b4-410e-96fd-8c1c519456ed,.ed17463c-5e02-4b8b-978b-7e951afb9c72,.f0e558d3-82d8-4192-b5df-efbee0e18e9c,.fae60d96-2e33-459a-92fc-bcaae62ba4f7{stroke:#40220f;}.b38b9157-9816-46a9-b4bd-6646ecdb84b8,.fae60d96-2e33-459a-92fc-bcaae62ba4f7{stroke-width:3.7px;}.f0e558d3-82d8-4192-b5df-efbee0e18e9c,.fae60d96-2e33-459a-92fc-bcaae62ba4f7{fill:#c1a017;}.beb29860-b6b4-410e-96fd-8c1c519456ed{fill:#327739;}.a401da15-bbc0-4168-a2e6-341c7ff2b0cf,.beb29860-b6b4-410e-96fd-8c1c519456ed,.f0e558d3-82d8-4192-b5df-efbee0e18e9c{stroke-width:3.33px;}.ed17463c-5e02-4b8b-978b-7e951afb9c72{fill:#9b0000;stroke-width:3.32px;}.fc38d627-d43d-4595-bfaf-e0e5f6efa5ce{fill:#40220f;}.a401da15-bbc0-4168-a2e6-341c7ff2b0cf{stroke:#e8e7d7;}.eaacca69-4164-4207-9c75-d63f122dad34{stroke:#dadfca;}.a13cf5bf-8d2c-450f-a2af-72e3f6bf7311,.eaacca69-4164-4207-9c75-d63f122dad34,.f51af162-9b2d-41c4-ab4d-6294820fb2de,.fb5deee5-ad9f-4b48-9232-3efee3ed6887{stroke-width:1.66px;}.e1b23cf8-84a9-4e8c-9c4f-c04019b16be4{fill:#cca70f;}.e5d6f683-0fa1-44ce-845b-834d0d5948eb{fill:#604c00;}.a13cf5bf-8d2c-450f-a2af-72e3f6bf7311{stroke:#b49307;}.fcb1e153-3245-4fb1-bea9-d9443e2b3398{fill:#fff;}.fb5deee5-ad9f-4b48-9232-3efee3ed6887{stroke:#e6e6e6;}.aa9dc5bc-91ad-4ad0-a87e-a475789d1131{fill:#595757;}.e1d62727-c4e8-4be8-a0d3-04b9e0dd0f84{fill:#00834b;}.fac62878-c6f3-4786-8dd5-1ab3af64cb85{fill:#e83e43;}.abc0bfc8-df89-4433-8d3f-2fdde9d0b6a8{fill:#ffe129;}.a9f1bca2-17de-481e-8833-0c80c271ed5e{fill:#ee84a5;}.bd9492d3-8c95-4cdf-be0b-0152fefeb10e{fill:#e83833;}.b89ab4fd-413f-431a-9fa3-4fc5a103c6df{fill:#0c7340;}.aa46de29-7cc7-4945-9c68-fb3ac2d59f6c{fill:url(#be798bb5-8ea8-4607-8d60-2bad9bc3a453);}.a3f57f11-a41c-4734-9d2a-a58ac47042ee,.f51af162-9b2d-41c4-ab4d-6294820fb2de{stroke:#f7ae00;}.a85b5e82-8b7b-465a-a9c1-561f46ef738b{fill:#ae7129;}.fc4b5eb9-b7ea-4bef-bbdf-ecc394d129da{fill:url(#b88f398e-12e8-4353-bf04-f34c932b0c26);}.fb75732a-ecd7-4b66-87ec-1f8be44401fe{fill:url(#badbc682-677d-450d-bf8a-78ed033b0123);}.b08503c7-4801-471b-97e9-2c4a6fa31a7a,.b1a8eda5-6211-418f-be31-eb700a39b055,.b2326030-f843-453c-af39-db55f6b60e85,.e4a9720a-fe2f-40b0-b51d-69207cfac55e,.ea4d508d-cb26-4524-b814-af48076e3485,.f9ba2d55-91f5-4907-a09e-8ba08871d1c9,.fa55eff0-86df-447a-b741-9c9750fa408d,.fa958e71-1043-4afe-9e37-caf7c1e5db55{stroke:#fff;}.b1a8eda5-6211-418f-be31-eb700a39b055{stroke-width:0.83px;}.b1b2ac07-6659-4705-bb4b-a2eff03bebf7{fill:url(#a9008eb3-4021-444e-ba54-e0bff9f61ad5);}.aacb01af-1410-4017-a62a-1017ac8eb8a6,.ad00b039-82b5-44fe-a20d-6a60845ba748{stroke:#382765;}.ad00b039-82b5-44fe-a20d-6a60845ba748{stroke-width:1.23px;}.afa9a488-b079-471f-b404-f44afe1113d6{fill:#ddf1fc;}.bcf86bd9-606e-4485-a585-54081135684e{fill:url(#b1391bc1-1351-420c-8772-ea920580cb27);}.faf1aa91-b083-4bb6-b8af-9e07fbc3a8ee{fill:url(#b9acd651-5ef5-4719-a150-de24124b9658);}.e4a9720a-fe2f-40b0-b51d-69207cfac55e{stroke-width:0.62px;}.b08503c7-4801-471b-97e9-2c4a6fa31a7a{stroke-width:3.69px;}.f418052c-d2dc-4abb-b088-679c81c3ddd1{fill:url(#abd86346-e725-4254-99c8-89da5cb576a6);}.e50c80bd-52e2-4063-a071-44422a5b654f{fill:url(#bf6e53a9-3527-46b9-ae6a-c0a658e09c76);}.a99ab0d5-d6a2-4447-b7af-830a1f69df6e{fill:#a2cf7d;}.fa2be5e9-4add-48ce-a2a6-cee3e0a1f508{fill:url(#b59f5440-661e-4338-8c58-c7fd791228f0);}.b52f5f7d-d104-41ea-b2c9-c6e50df840e8{fill:url(#a2627749-6850-44ee-a8aa-a4957926d844);}.bf4bde38-e34d-4f22-ac8b-e83073424af9{fill:url(#fb49026a-39da-4667-858c-a0a0732aea80);}.a3f57f11-a41c-4734-9d2a-a58ac47042ee{stroke-width:1.26px;}.b8147c30-066c-4eda-ae99-52c8294290d8{fill:#ef7e09;}.af5171d9-af29-4683-893e-27aeadf89c84{fill:url(#f4a2ed08-af88-422a-b7ce-27440df9de2e);}.ae51dabf-7690-4960-89ef-087bfd0b2808{fill:url(#fad766da-7b43-4314-835a-d23ed3a39400);}.fa958e71-1043-4afe-9e37-caf7c1e5db55{stroke-width:3.78px;}.b2326030-f843-453c-af39-db55f6b60e85{stroke-width:0.63px;}.fa0adc1d-88dd-4e0c-8775-ab1f18c0725b{fill:url(#bddbdd26-20a1-4186-8191-5432bf28b586);}.e243c46f-6f77-4b8a-85a2-0badc5083375{fill:url(#b1f946d4-f9e9-4469-b71b-07f1ebd69919);}.aacb01af-1410-4017-a62a-1017ac8eb8a6{stroke-width:1.1px;}.fd064672-c115-45fb-8b84-a5dc8634e500{fill:#fbe0ec;}.a2212eea-c451-48f6-9276-77f673623cdb{fill:url(#e14be959-55d3-410c-92a7-0903f5deb763);}.e2e61563-5fa3-45c1-aab0-f65c6e9aca3b{fill:url(#f8151323-8f6e-42ea-80d6-30136057d263);}.fa55eff0-86df-447a-b741-9c9750fa408d{stroke-width:0.55px;}.ea4d508d-cb26-4524-b814-af48076e3485{stroke-width:3.31px;}</style><radialGradient id="be798bb5-8ea8-4607-8d60-2bad9bc3a453" cx="5038.63" cy="251.8" r="29.08" gradientTransform="matrix(-1, 0, 0, 1, 5200.95, 0.65)" gradientUnits="userSpaceOnUse"><stop offset="0" stop-color="#fff"/><stop offset="1" stop-color="#ffde00"/></radialGradient><linearGradient id="b88f398e-12e8-4353-bf04-f34c932b0c26" x1="5030.6" y1="222.25" x2="5062.31" y2="222.25" gradientTransform="matrix(1, 0, 0, -1, -4894.03, 444.5)" gradientUnits="userSpaceOnUse"><stop offset="0" stop-color="#5e5d5c"/><stop offset="0.22" stop-color="#6a6969"/><stop offset="0.52" stop-color="#b7b8b8"/><stop offset="0.8" stop-color="#6a6969"/><stop offset="0.89" stop-color="#626161"/><stop offset="1" stop-color="#5e5d5c"/></linearGradient><radialGradient id="badbc682-677d-450d-bf8a-78ed033b0123" cx="5047.49" cy="212.89" r="9.96" gradientTransform="matrix(-1, 0, 0, 0.2, 5200.95, 170.95)" gradientUnits="userSpaceOnUse"><stop offset="0" stop-color="#b7b8b8"/><stop offset="0.21" stop-color="#a2a3a3"/><stop offset="0.74" stop-color="#717170"/><stop offset="1" stop-color="#5e5d5c"/></radialGradient><radialGradient id="a9008eb3-4021-444e-ba54-e0bff9f61ad5" cx="60.5" cy="189.26" r="21.53" gradientTransform="translate(0 0.65)" gradientUnits="userSpaceOnUse"><stop offset="0" stop-color="#fff"/><stop offset="1" stop-color="#5b5da0"/></radialGradient><linearGradient id="b1391bc1-1351-420c-8772-ea920580cb27" x1="54.56" y1="167.55" x2="78.04" y2="167.55" gradientTransform="matrix(1, 0, 0, 1, 0, 0)" xlink:href="#b88f398e-12e8-4353-bf04-f34c932b0c26"/><radialGradient id="b9acd651-5ef5-4719-a150-de24124b9658" cx="67.07" cy="160.45" r="7.37" gradientTransform="translate(0 129) scale(1 0.2)" xlink:href="#badbc682-677d-450d-bf8a-78ed033b0123"/><radialGradient id="abd86346-e725-4254-99c8-89da5cb576a6" cx="226.47" cy="161.91" r="21.53" xlink:href="#a9008eb3-4021-444e-ba54-e0bff9f61ad5"/><radialGradient id="bf6e53a9-3527-46b9-ae6a-c0a658e09c76" cx="226.47" cy="161.91" r="21.53" gradientTransform="translate(0 0.65)" gradientUnits="userSpaceOnUse"><stop offset="0" stop-color="#fff"/><stop offset="1" stop-color="#d73e30"/></radialGradient><linearGradient id="b59f5440-661e-4338-8c58-c7fd791228f0" x1="220.52" y1="140.2" x2="244" y2="140.2" gradientTransform="matrix(1, 0, 0, 1, 0, 0)" xlink:href="#b88f398e-12e8-4353-bf04-f34c932b0c26"/><radialGradient id="a2627749-6850-44ee-a8aa-a4957926d844" cx="233.03" cy="133.1" r="7.37" gradientTransform="translate(0 107.12) scale(1 0.2)" xlink:href="#badbc682-677d-450d-bf8a-78ed033b0123"/><radialGradient id="fb49026a-39da-4667-858c-a0a0732aea80" cx="3869.91" cy="147.67" r="22.05" xlink:href="#be798bb5-8ea8-4607-8d60-2bad9bc3a453"/><linearGradient id="f4a2ed08-af88-422a-b7ce-27440df9de2e" x1="3863.82" y1="125.41" x2="3887.87" y2="125.41" gradientTransform="matrix(1, 0, 0, -1, -2552.31, 250.83)" xlink:href="#b88f398e-12e8-4353-bf04-f34c932b0c26"/><radialGradient id="fad766da-7b43-4314-835a-d23ed3a39400" cx="3876.63" cy="118.16" r="7.55" gradientTransform="matrix(-1, 0, 0, 0.2, 5200.95, 95.17)" xlink:href="#badbc682-677d-450d-bf8a-78ed033b0123"/><radialGradient id="bddbdd26-20a1-4186-8191-5432bf28b586" cx="1250.49" cy="108.45" r="19.3" xlink:href="#a9008eb3-4021-444e-ba54-e0bff9f61ad5"/><radialGradient id="b1f946d4-f9e9-4469-b71b-07f1ebd69919" cx="1250.49" cy="108.45" r="19.3" gradientTransform="translate(0 0.65)" gradientUnits="userSpaceOnUse"><stop offset="0" stop-color="#fff"/><stop offset="1" stop-color="#99798a"/></radialGradient><linearGradient id="e14be959-55d3-410c-92a7-0903f5deb763" x1="1245.16" y1="89.05" x2="1266.21" y2="89.05" gradientTransform="matrix(1, 0, 0, 1, 0, 0)" xlink:href="#b88f398e-12e8-4353-bf04-f34c932b0c26"/><radialGradient id="f8151323-8f6e-42ea-80d6-30136057d263" cx="1256.37" cy="82.62" r="6.61" gradientTransform="translate(0 66.74) scale(1 0.2)" xlink:href="#badbc682-677d-450d-bf8a-78ed033b0123"/></defs><title>背景_1</title><g id="a890c8bf-3115-4fc3-a83f-fd22f3584006" data-name="圖層 2"><g id="b0179a4a-b5b7-4796-bc0c-5f31938b9fb6" data-name="圖層 1"><rect class="b426701e-dacf-48a1-9d3a-0f957e42cd7c" width="155.56" height="750.59"/><rect class="b1433651-1392-4afa-ba00-b2460c1dc3ba" x="155.56" width="155.56" height="750.59"/><rect class="b426701e-dacf-48a1-9d3a-0f957e42cd7c" x="311.11" width="155.56" height="750.59"/><rect class="b1433651-1392-4afa-ba00-b2460c1dc3ba" x="466.67" width="155.56" height="750.59"/><rect class="b426701e-dacf-48a1-9d3a-0f957e42cd7c" x="622.22" width="155.56" height="750.59"/><rect class="b1433651-1392-4afa-ba00-b2460c1dc3ba" x="777.78" width="155.56" height="750.59"/><rect class="b426701e-dacf-48a1-9d3a-0f957e42cd7c" x="933.33" width="155.56" height="750.59"/><rect class="b1433651-1392-4afa-ba00-b2460c1dc3ba" x="1088.89" width="155.56" height="750.59"/><rect class="b426701e-dacf-48a1-9d3a-0f957e42cd7c" x="1244.44" width="155.56" height="750.59"/><rect class="f1edc53d-ed18-499f-977a-6aa09516e2cc" y="750.59" width="1400" height="52.54"/><rect class="bf0e5d9f-5cc8-477a-b5fd-094789696bc4" y="803.12" width="1400" height="13.29"/><rect class="afa61772-6b66-41fc-95f7-bd39085d8316" y="816.42" width="1400" height="233.58"/><rect class="fa092ef9-dd11-4f46-b6b9-038beacecd27" y="743.33" width="1400" height="7.25"/><ellipse class="be26dacc-ee1f-4eb2-97c9-06ccc7a70aca" cx="1020.64" cy="367.87" rx="98.59" ry="98.58"/><polyline class="b6ce8453-478f-449b-96d7-62fc82e3ae1e" points="937.56 280.8 966.16 285.69 963.54 313.57"/><polyline class="b6ce8453-478f-449b-96d7-62fc82e3ae1e" points="926.25 293.21 955.26 294.07 956.54 322.05"/><polyline class="b6ce8453-478f-449b-96d7-62fc82e3ae1e" points="916.78 307.07 945.62 303.89 950.78 331.42"/><polyline class="b6ce8453-478f-449b-96d7-62fc82e3ae1e" points="909.33 322.11 937.45 314.95 946.39 341.49"/><polyline class="b6ce8453-478f-449b-96d7-62fc82e3ae1e" points="904.04 338.05 930.89 327.05 943.44 352.08"/><polyline class="b6ce8453-478f-449b-96d7-62fc82e3ae1e" points="901.03 354.57 926.09 339.93 942 362.98"/><polyline class="b6ce8453-478f-449b-96d7-62fc82e3ae1e" points="900.34 371.34 923.12 353.36 942.08 373.97"/><polyline class="b6ce8453-478f-449b-96d7-62fc82e3ae1e" points="901.99 388.05 922.05 367.07 943.7 384.84"/><polyline class="b6ce8453-478f-449b-96d7-62fc82e3ae1e" points="905.96 404.37 922.9 380.8 946.81 395.39"/><polyline class="b6ce8453-478f-449b-96d7-62fc82e3ae1e" points="912.15 419.97 925.65 394.28 951.36 405.39"/><polyline class="b6ce8453-478f-449b-96d7-62fc82e3ae1e" points="920.46 434.56 930.25 407.24 957.25 414.67"/><polyline class="b6ce8453-478f-449b-96d7-62fc82e3ae1e" points="930.72 447.85 936.61 419.44 964.38 423.04"/><polyline class="b6ce8453-478f-449b-96d7-62fc82e3ae1e" points="942.73 459.59 944.61 430.63 972.61 430.33"/><polyline class="b6ce8453-478f-449b-96d7-62fc82e3ae1e" points="956.25 469.54 954.08 440.6 981.77 436.4"/><polyline class="b6ce8453-478f-449b-96d7-62fc82e3ae1e" points="971.03 477.51 964.85 449.15 991.69 441.14"/><polyline class="b6ce8453-478f-449b-96d7-62fc82e3ae1e" points="986.77 483.35 976.71 456.13 1002.17 444.46"/><polyline class="b6ce8453-478f-449b-96d7-62fc82e3ae1e" points="1003.17 486.93 989.42 461.38 1013.01 446.29"/><polyline class="b6ce8453-478f-449b-96d7-62fc82e3ae1e" points="1019.91 488.21 1002.74 464.81 1024 446.58"/><polyline class="b6ce8453-478f-449b-96d7-62fc82e3ae1e" points="1036.67 487.14 1016.41 466.36 1034.92 445.35"/><polyline class="b6ce8453-478f-449b-96d7-62fc82e3ae1e" points="1053.12 483.74 1030.16 465.99 1045.57 442.61"/><polyline class="b6ce8453-478f-449b-96d7-62fc82e3ae1e" points="1068.93 478.1 1043.72 463.71 1055.73 438.41"/><polyline class="b6ce8453-478f-449b-96d7-62fc82e3ae1e" points="1083.8 470.3 1056.84 459.57 1065.2 432.84"/><polyline class="b6ce8453-478f-449b-96d7-62fc82e3ae1e" points="1097.44 460.52 1069.25 453.64 1073.81 426.01"/><polyline class="b6ce8453-478f-449b-96d7-62fc82e3ae1e" points="1109.59 448.93 1080.71 446.04 1081.39 418.04"/><polyline class="b6ce8453-478f-449b-96d7-62fc82e3ae1e" points="1120.01 435.76 1091.01 436.92 1087.78 409.1"/><polyline class="b6ce8453-478f-449b-96d7-62fc82e3ae1e" points="1128.49 421.27 1099.93 426.45 1092.87 399.35"/><polyline class="b6ce8453-478f-449b-96d7-62fc82e3ae1e" points="1134.87 405.74 1107.32 414.85 1096.55 389"/><polyline class="b6ce8453-478f-449b-96d7-62fc82e3ae1e" points="1139.03 389.48 1113.01 402.33 1098.75 378.23"/><polyline class="b6ce8453-478f-449b-96d7-62fc82e3ae1e" points="1140.89 372.79 1116.91 389.14 1099.43 367.26"/><polyline class="b6ce8453-478f-449b-96d7-62fc82e3ae1e" points="1140.4 356.01 1118.93 375.53 1098.58 356.3"/><polyline class="b6ce8453-478f-449b-96d7-62fc82e3ae1e" points="1137.59 339.45 1119.04 361.78 1096.21 345.56"/><polyline class="b6ce8453-478f-449b-96d7-62fc82e3ae1e" points="1132.49 323.46 1117.24 348.14 1092.37 335.26"/><polyline class="b6ce8453-478f-449b-96d7-62fc82e3ae1e" points="1125.22 308.32 1113.55 334.89 1087.13 325.6"/><polyline class="b6ce8453-478f-449b-96d7-62fc82e3ae1e" points="1115.92 294.35 1108.06 322.28 1080.6 316.75"/><polyline class="b6ce8453-478f-449b-96d7-62fc82e3ae1e" points="1104.76 281.8 1100.86 310.56 1072.91 308.91"/><polyline class="b6ce8453-478f-449b-96d7-62fc82e3ae1e" points="1091.96 270.93 1092.11 299.95 1064.19 302.21"/><polyline class="b6ce8453-478f-449b-96d7-62fc82e3ae1e" points="1077.78 261.95 1081.96 290.67 1054.63 296.79"/><polyline class="b6ce8453-478f-449b-96d7-62fc82e3ae1e" points="1062.48 255.03 1070.62 282.88 1044.41 292.75"/><polyline class="b6ce8453-478f-449b-96d7-62fc82e3ae1e" points="1046.37 250.31 1058.3 276.76 1033.72 290.17"/><polyline class="b6ce8453-478f-449b-96d7-62fc82e3ae1e" points="1029.76 247.87 1045.26 272.4 1022.78 289.11"/><polyline class="b6ce8453-478f-449b-96d7-62fc82e3ae1e" points="1012.97 247.77 1031.73 269.9 1011.8 289.57"/><polyline class="b6ce8453-478f-449b-96d7-62fc82e3ae1e" points="996.33 250 1017.99 269.31 1000.99 291.57"/><polyline class="b6ce8453-478f-449b-96d7-62fc82e3ae1e" points="980.16 254.53 1004.3 270.64 990.56 295.04"/><polyline class="b6ce8453-478f-449b-96d7-62fc82e3ae1e" points="964.78 261.27 990.92 273.86 980.71 299.94"/><polyline class="b6ce8453-478f-449b-96d7-62fc82e3ae1e" points="950.49 270.08 978.13 278.91 971.65 306.16"/><polyline class="bf3f51ba-9872-469c-9739-0d385b2bff1e" points="934.92 272.1 970.09 283.33 961.84 317.99"/><polyline class="bf3f51ba-9872-469c-9739-0d385b2bff1e" points="913.05 297.55 949.93 299.29 950.94 334.91"/><polyline class="bf3f51ba-9872-469c-9739-0d385b2bff1e" points="898.51 327.79 934.59 319.93 944.78 354.07"/><polyline class="bf3f51ba-9872-469c-9739-0d385b2bff1e" points="892.3 360.76 925.12 343.83 943.79 374.17"/><polyline class="bf3f51ba-9872-469c-9739-0d385b2bff1e" points="894.84 394.21 922.15 369.37 948.04 393.85"/><polyline class="bf3f51ba-9872-469c-9739-0d385b2bff1e" points="905.94 425.88 925.9 394.81 957.24 411.75"/><polyline class="bf3f51ba-9872-469c-9739-0d385b2bff1e" points="924.87 453.58 936.1 418.41 970.76 426.66"/><polyline class="bf3f51ba-9872-469c-9739-0d385b2bff1e" points="950.32 475.45 952.06 438.57 987.68 437.56"/><polyline class="bf3f51ba-9872-469c-9739-0d385b2bff1e" points="980.56 489.98 972.7 453.91 1006.84 443.72"/><polyline class="bf3f51ba-9872-469c-9739-0d385b2bff1e" points="1013.53 496.19 996.61 463.38 1026.94 444.71"/><polyline class="bf3f51ba-9872-469c-9739-0d385b2bff1e" points="1046.99 493.66 1022.15 466.35 1046.62 440.45"/><polyline class="bf3f51ba-9872-469c-9739-0d385b2bff1e" points="1078.65 482.56 1047.59 462.6 1064.52 431.26"/><polyline class="bf3f51ba-9872-469c-9739-0d385b2bff1e" points="1106.36 463.63 1071.19 452.4 1079.43 417.74"/><polyline class="bf3f51ba-9872-469c-9739-0d385b2bff1e" points="1128.23 438.19 1091.35 436.44 1090.34 400.82"/><polyline class="bf3f51ba-9872-469c-9739-0d385b2bff1e" points="1142.76 407.94 1106.69 415.8 1096.5 381.66"/><polyline class="bf3f51ba-9872-469c-9739-0d385b2bff1e" points="1148.97 374.97 1116.16 391.9 1097.48 361.56"/><polyline class="bf3f51ba-9872-469c-9739-0d385b2bff1e" points="1146.44 341.52 1119.13 366.36 1093.23 341.89"/><polyline class="bf3f51ba-9872-469c-9739-0d385b2bff1e" points="1135.34 309.86 1115.38 340.92 1084.03 323.98"/><polyline class="bf3f51ba-9872-469c-9739-0d385b2bff1e" points="1116.41 282.15 1105.18 317.32 1070.52 309.07"/><polyline class="bf3f51ba-9872-469c-9739-0d385b2bff1e" points="1090.96 260.28 1089.21 297.16 1053.6 298.17"/><polyline class="bf3f51ba-9872-469c-9739-0d385b2bff1e" points="1060.72 245.75 1068.58 281.82 1034.43 292.01"/><polyline class="bf3f51ba-9872-469c-9739-0d385b2bff1e" points="1027.75 239.54 1044.67 272.35 1014.33 291.03"/><polyline class="bf3f51ba-9872-469c-9739-0d385b2bff1e" points="994.29 242.07 1019.13 269.38 994.66 295.28"/><polyline class="bf3f51ba-9872-469c-9739-0d385b2bff1e" points="962.63 253.18 993.69 273.13 976.75 304.47"/><polyline class="a527d019-e6b4-42ac-a729-aedc7497da1b" points="1039.38 293.03 1022.53 269.41 1044.04 251.47"/><polyline class="a527d019-e6b4-42ac-a729-aedc7497da1b" points="999.45 293.69 973.04 281.65 982.7 255.37"/><polyline class="a527d019-e6b4-42ac-a729-aedc7497da1b" points="965.2 314.22 936.31 317 931.53 289.4"/><polyline class="a527d019-e6b4-42ac-a729-aedc7497da1b" points="945.8 349.12 922.17 365.97 904.24 344.47"/><polyline class="a527d019-e6b4-42ac-a729-aedc7497da1b" points="946.46 389.05 934.42 415.46 908.13 405.8"/><polyline class="a527d019-e6b4-42ac-a729-aedc7497da1b" points="966.99 423.3 969.77 452.19 942.17 456.97"/><polyline class="a527d019-e6b4-42ac-a729-aedc7497da1b" points="1001.89 442.7 1018.75 466.32 997.24 484.26"/><polyline class="a527d019-e6b4-42ac-a729-aedc7497da1b" points="1041.83 442.04 1068.23 454.08 1058.58 480.37"/><polyline class="a527d019-e6b4-42ac-a729-aedc7497da1b" points="1076.08 421.51 1104.96 418.73 1109.75 446.33"/><polyline class="a527d019-e6b4-42ac-a729-aedc7497da1b" points="1095.48 386.61 1119.1 369.76 1137.04 391.26"/><polyline class="a527d019-e6b4-42ac-a729-aedc7497da1b" points="1094.82 346.68 1106.86 320.27 1133.14 329.93"/><polyline class="a527d019-e6b4-42ac-a729-aedc7497da1b" points="1074.29 312.43 1071.51 283.54 1099.1 278.76"/><path class="b38b9157-9816-46a9-b4bd-6646ecdb84b8" d="M1013.33,284.13s-12.69-10.29-21.05-1.42l6.41,3.07s-12.63-1.57-17.94,5.44l6.8,2.84s-8,.89-14,13.17c0,0,6.62,7.16,21.6-1.91,0,0,0,6.38,2,8.52a31.4,31.4,0,0,0,11.86-14.45l1.9,7.08S1020.5,296.88,1013.33,284.13Z"/><path class="fae60d96-2e33-459a-92fc-bcaae62ba4f7" d="M1013.33,284.13s-12.69,12.36-23.76,16.14"/><path class="beb29860-b6b4-410e-96fd-8c1c519456ed" d="M1014.33,286s10.71-10.08,18.8-2.66l-5.54,3.17s11.22-2.25,16.46,3.7l-5.92,3s7.27.26,13.43,10.89c0,0-5.46,6.87-19.51-.28,0,0,.41,5.73-1.26,7.78a28.26,28.26,0,0,1-11.6-12.18l-1.24,6.48A17,17,0,0,1,1014.33,286Z"/><path class="f0e558d3-82d8-4192-b5df-efbee0e18e9c" d="M1014.33,286s12.21,10.26,22.4,12.92"/><circle class="ed17463c-5e02-4b8b-978b-7e951afb9c72" cx="999.45" cy="274.53" r="18.64"/><circle class="fc38d627-d43d-4595-bfaf-e0e5f6efa5ce" cx="990.92" cy="274.79" r="3.36"/><path class="a401da15-bbc0-4168-a2e6-341c7ff2b0cf" d="M992.23,284.61s17.29,5.08,20.3-9.82"/><circle class="ed17463c-5e02-4b8b-978b-7e951afb9c72" cx="1029.5" cy="274.53" r="18.64"/><circle class="fc38d627-d43d-4595-bfaf-e0e5f6efa5ce" cx="1040.67" cy="274.79" r="3.36"/><path class="a401da15-bbc0-4168-a2e6-341c7ff2b0cf" d="M1018,272.62s-1.51,13.25,15.73,13.52"/><path class="eaacca69-4164-4207-9c75-d63f122dad34" d="M980.82,305.15a34.41,34.41,0,0,0,9-1.26"/><path class="eaacca69-4164-4207-9c75-d63f122dad34" d="M999.87,305.15a12.83,12.83,0,0,0,4.43-6.65"/><path class="eaacca69-4164-4207-9c75-d63f122dad34" d="M1037.83,302.4s5.4,1.66,8.56.93"/><path class="eaacca69-4164-4207-9c75-d63f122dad34" d="M1025,299.49s1.71,4.52,3.79,6.07"/><circle class="e1b23cf8-84a9-4e8c-9c4f-c04019b16be4" cx="927.86" cy="310.14" r="8.52"/><circle class="e5d6f683-0fa1-44ce-845b-834d0d5948eb" cx="924.93" cy="310.93" r="1.79"/><path class="a13cf5bf-8d2c-450f-a2af-72e3f6bf7311" d="M932.52,307.35s2.59,4.63-1,8"/><circle class="fcb1e153-3245-4fb1-bea9-d9443e2b3398" cx="937.56" cy="335.8" r="8.52"/><path class="fb5deee5-ad9f-4b48-9232-3efee3ed6887" d="M942.23,333s2.58,4.63-1,8"/><circle class="fcb1e153-3245-4fb1-bea9-d9443e2b3398" cx="941.39" cy="432.84" r="8.52"/><path class="fb5deee5-ad9f-4b48-9232-3efee3ed6887" d="M941,438.27s-5.27-.56-5.91-5.45"/><circle class="fcb1e153-3245-4fb1-bea9-d9443e2b3398" cx="1112.43" cy="423.01" r="8.52"/><path class="fb5deee5-ad9f-4b48-9232-3efee3ed6887" d="M1112,428.43s-5.27-.55-5.91-5.45"/><circle class="fcb1e153-3245-4fb1-bea9-d9443e2b3398" cx="1120.96" cy="323.46" r="8.52"/><path class="fb5deee5-ad9f-4b48-9232-3efee3ed6887" d="M1126.24,322.16s1.11,5.19-3.34,7.32"/><circle class="fcb1e153-3245-4fb1-bea9-d9443e2b3398" cx="1016.41" cy="475.45" r="8.52"/><path class="fb5deee5-ad9f-4b48-9232-3efee3ed6887" d="M1016,480.87s-5.28-.55-5.92-5.45"/><circle class="e1b23cf8-84a9-4e8c-9c4f-c04019b16be4" cx="926.38" cy="396.13" r="8.52"/><circle class="e5d6f683-0fa1-44ce-845b-834d0d5948eb" cx="928.93" cy="397.76" r="1.79"/><path class="a13cf5bf-8d2c-450f-a2af-72e3f6bf7311" d="M921.18,394.56s1.68-5,6.6-4.6"/><circle class="e1b23cf8-84a9-4e8c-9c4f-c04019b16be4" cx="999.19" cy="456.91" r="8.52"/><circle class="e5d6f683-0fa1-44ce-845b-834d0d5948eb" cx="996.17" cy="456.8" r="1.79"/><path class="a13cf5bf-8d2c-450f-a2af-72e3f6bf7311" d="M1004.47,455.6s1.12,5.19-3.32,7.32"/><circle class="e1b23cf8-84a9-4e8c-9c4f-c04019b16be4" cx="1105.52" cy="395.98" r="8.52"/><circle class="e5d6f683-0fa1-44ce-845b-834d0d5948eb" cx="1108.06" cy="397.61" r="1.79"/><path class="a13cf5bf-8d2c-450f-a2af-72e3f6bf7311" d="M1100.31,394.4s1.68-5,6.6-4.59"/><circle class="e1b23cf8-84a9-4e8c-9c4f-c04019b16be4" cx="1095.38" cy="315.33" r="8.52"/><circle class="e5d6f683-0fa1-44ce-845b-834d0d5948eb" cx="1093.73" cy="317.86" r="1.79"/><path class="a13cf5bf-8d2c-450f-a2af-72e3f6bf7311" d="M1097,310.13s5,1.72,4.55,6.63"/><rect class="aa9dc5bc-91ad-4ad0-a87e-a475789d1131" x="151.92" y="0.05" width="3.32" height="220.3"/><rect class="aa9dc5bc-91ad-4ad0-a87e-a475789d1131" x="65.76" width="2.61" height="166.45"/><rect class="aa9dc5bc-91ad-4ad0-a87e-a475789d1131" x="231.66" y="3.94" width="2.74" height="153.27"/><rect class="aa9dc5bc-91ad-4ad0-a87e-a475789d1131" x="1255" y="0.05" width="2.74" height="85.54"/><rect class="aa9dc5bc-91ad-4ad0-a87e-a475789d1131" x="1322.95" y="0.05" width="2.74" height="127.73"/><path class="f3874435-58ad-43db-afb1-cf7f1d1b649d" d="M955.38,95.7a332.25,332.25,0,0,0,86.18-64.24A355.39,355.39,0,0,0,1068.6,0H862A419.69,419.69,0,0,0,902.6,49.77,375.27,375.27,0,0,0,955.38,95.7Z"/><path class="f3874435-58ad-43db-afb1-cf7f1d1b649d" d="M109.84,122.58c13.61-2.91,28.22-6.65,43.46-11.45q-5.06-2.26-10-4.7-14-6.86-27.45-15a10.07,10.07,0,1,1-8.51-5.32A371.27,371.27,0,0,1,71.48,59.74a10.06,10.06,0,1,1-7.64-6.48h0Q50.57,41.58,38,28.49q-4.77-5-9.24-10a10,10,0,1,1-4.48-5.11Q18.52,6.61,13.26,0H0V134.07A529.17,529.17,0,0,0,109.84,122.58Z"/><path class="f3874435-58ad-43db-afb1-cf7f1d1b649d" d="M960.57,127.82A9.07,9.07,0,0,1,959,123a6.28,6.28,0,0,1,.72-3.2,6.17,6.17,0,0,1,1.71-2.68,8.62,8.62,0,0,1,5.88-2.43h1.58q-7.17-4.53-14.17-9.41c-2.6,1.29-5.21,2.57-7.84,3.8-1,.48-2.08,1-3.12,1.42a12.65,12.65,0,1,1-10.36,4.5c-43.17,17.86-90.79,26.9-141.77,26.9a384,384,0,0,1-40.95-2.16,12.67,12.67,0,1,1-8.91-1.07,352.27,352.27,0,0,1-63.29-14.3,12.67,12.67,0,1,1-7-2.08c.3,0,.6,0,.89,0a341,341,0,0,1-38.18-15.88q-7.43-3.65-14.71-7.65a12.65,12.65,0,1,1-10-4.91,13.84,13.84,0,0,1,1.59.11,365.91,365.91,0,0,1-51-36.15A12.66,12.66,0,1,1,536.45,66a9.93,9.93,0,0,1-1.8-8.37,339.28,339.28,0,0,1-44.29,32.75,10.16,10.16,0,0,1,1.84-.17,10.08,10.08,0,1,1-7.89,3.83q-13.83,8.18-28.4,15-12.26,5.72-25,10.44a10.06,10.06,0,1,1-12.43,9.77,10,10,0,0,1,2.09-6.12,353.39,353.39,0,0,1-51.69,13,10.06,10.06,0,1,1-7.91,1.29Q350.63,139,340.06,140c64.47,47.39,159.65,87.21,297.45,87.21C787,227.22,891,180.37,960.57,127.82Zm-82.15,5.42a12.67,12.67,0,1,1-12.67,12.67A12.67,12.67,0,0,1,878.42,133.24Zm-67.59,8.64a12.67,12.67,0,1,1-12.66,12.67A12.67,12.67,0,0,1,810.83,141.88Z"/><path class="f3874435-58ad-43db-afb1-cf7f1d1b649d" d="M584.87,6.83A10.07,10.07,0,1,1,574.8,16.9c0-.16,0-.3,0-.45-5.58,6.7-11.64,13.52-18.25,20.36-1.23,1.28-2.48,2.53-3.73,3.78,49.94,45.93,128.24,93.25,238.81,93.25,62.72,0,114.13-14.09,155.5-34q-6.23-4.59-12.3-9.47A9.47,9.47,0,0,1,936,94.5a6.28,6.28,0,0,1-.72,3.2,6.28,6.28,0,0,1-1.72,2.68,8.57,8.57,0,0,1-5.87,2.43H926a8.64,8.64,0,0,1-5.88-2.43,8.39,8.39,0,0,1-2.43-5.88,6.19,6.19,0,0,1,.71-3.2,6.25,6.25,0,0,1,1.72-2.67A8.57,8.57,0,0,1,926,86.2h1.66a8.06,8.06,0,0,1,2.74.49A394.56,394.56,0,0,1,896.57,55.1c-9.7-10.17-18.41-20.36-26.18-30.25A10.86,10.86,0,0,1,870.7,27a6.29,6.29,0,0,1-.71,3.2,6.25,6.25,0,0,1-1.72,2.67,8.58,8.58,0,0,1-5.88,2.44h-1.66a8.58,8.58,0,0,1-5.87-2.44A8.4,8.4,0,0,1,852.42,27a6.3,6.3,0,0,1,.72-3.2,6.16,6.16,0,0,1,1.72-2.67,8.54,8.54,0,0,1,5.87-2.44h1.66a8.23,8.23,0,0,1,4.06,1.1C861.26,13,856.53,6.33,852.24,0H587.73q-2.62,3.56-5.45,7.18A10.05,10.05,0,0,1,584.87,6.83ZM884.14,60.64A6.19,6.19,0,0,1,885.86,58a8.57,8.57,0,0,1,5.87-2.43h1.66A8.66,8.66,0,0,1,899.27,58a8.43,8.43,0,0,1,2.43,5.88A6.29,6.29,0,0,1,901,67a6.25,6.25,0,0,1-1.72,2.67,8.57,8.57,0,0,1-5.88,2.43h-1.66a8.62,8.62,0,0,1-5.87-2.43,8.42,8.42,0,0,1-2.44-5.87A6.28,6.28,0,0,1,884.14,60.64Z"/><path class="f3874435-58ad-43db-afb1-cf7f1d1b649d" d="M548.75,50.85h.12a12.61,12.61,0,0,1,4,.66c-1.94-1.73-3.87-3.47-5.79-5.24q-1.94,1.88-3.91,3.7a10.69,10.69,0,0,1,1.27-.09A10,10,0,0,1,548.75,50.85Z"/><path class="f3874435-58ad-43db-afb1-cf7f1d1b649d" d="M1061.48,37.45a5.76,5.76,0,1,1,5.68,6.77,5.68,5.68,0,0,1-.59,0,12.66,12.66,0,0,1-21.52,12.24c-6.71,8.3-14,16.7-21.8,25.08-2.84,3-5.73,6-8.64,9a12.67,12.67,0,0,1-12.61,12.3q-7.23,6.8-14.74,13.26c45.09,25.49,102.06,44.39,171.93,44.39,116.73,0,194.32-48.79,240.81-93.34V0H1084.19c-6.8,11.52-14.77,23.88-24,36.68A11,11,0,0,1,1061.48,37.45Zm-40.84,61.77a5.77,5.77,0,1,1,5.76-5.77A5.77,5.77,0,0,1,1020.64,99.22Z"/><path class="f3874435-58ad-43db-afb1-cf7f1d1b649d" d="M994,100a12.65,12.65,0,0,1-3.31-15.58q-13.45,9-27.69,16.6,8.34,5.66,17.33,11Q987.44,106,994,100Z"/><path class="f3874435-58ad-43db-afb1-cf7f1d1b649d" d="M1378,96.79c.37-.05.73-.09,1.1-.11a6.3,6.3,0,0,1,3.2.72,6.14,6.14,0,0,1,2.67,1.71,8.58,8.58,0,0,1,2.44,5.88v.83a8.58,8.58,0,0,1-2.44,5.87,8.4,8.4,0,0,1-5.87,2.44,9.3,9.3,0,0,1-5.88-2.44,8.57,8.57,0,0,1-2.43-5.87V105a8,8,0,0,1,.71-3.27,336.63,336.63,0,0,1-38.37,24.5,9.17,9.17,0,0,1,5.84,2.43,8.54,8.54,0,0,1,2.44,5.87v.83a8.63,8.63,0,0,1-2.44,5.88,8.39,8.39,0,0,1-5.87,2.43,6.27,6.27,0,0,1-3.2-.71,6.35,6.35,0,0,1-2.68-1.72,8.62,8.62,0,0,1-2.43-5.88v-.83a8.22,8.22,0,0,1,1.48-4.66c-3.9,2-7.82,4-11.8,5.81a331.73,331.73,0,0,1-31.28,12.71,6.07,6.07,0,0,1,1.47.55,6.28,6.28,0,0,1,2.68,1.72,8.55,8.55,0,0,1,2.43,5.87v.83a8.66,8.66,0,0,1-2.43,5.88,8.39,8.39,0,0,1-5.88,2.43,9.16,9.16,0,0,1-5.87-2.43,8.57,8.57,0,0,1-2.43-5.88v-.83a8.48,8.48,0,0,1,2.11-5.49,356.57,356.57,0,0,1-49.36,12,6.43,6.43,0,0,1,1.42.53,6.25,6.25,0,0,1,2.67,1.72,8.55,8.55,0,0,1,2.43,5.87V172a8.64,8.64,0,0,1-2.43,5.87,8.38,8.38,0,0,1-5.87,2.43,9.16,9.16,0,0,1-5.88-2.43,8.55,8.55,0,0,1-2.43-5.87v-.84a8.64,8.64,0,0,1,2.43-5.87,6.87,6.87,0,0,1,1.65-1.29,401.09,401.09,0,0,1-60.67,4.51,377.8,377.8,0,0,1-60.44-4.78,8.58,8.58,0,0,1,2.35,5.78v.83a8.58,8.58,0,0,1-2.44,5.87,8.35,8.35,0,0,1-5.87,2.44,9.3,9.3,0,0,1-5.88-2.44,8.57,8.57,0,0,1-2.43-5.87v-.83a8.66,8.66,0,0,1,2.43-5.88,7.09,7.09,0,0,1,2.25-1.59,346.16,346.16,0,0,1-56.73-15.81,8.53,8.53,0,0,1,2.38,5.82v.83a8.66,8.66,0,0,1-2.43,5.88,8.41,8.41,0,0,1-5.87,2.43,6.27,6.27,0,0,1-3.2-.71,6.35,6.35,0,0,1-2.68-1.72,8.62,8.62,0,0,1-2.43-5.88V152a8.62,8.62,0,0,1,2.43-5.87,8.23,8.23,0,0,1,5.43-2.4q-12.33-4.89-24.27-10.73-10.78-5.26-21.23-11.31l-3.38,2.78a6.4,6.4,0,0,1-.59,1.67,6.14,6.14,0,0,1-1.71,2.67,8.57,8.57,0,0,1-5.88,2.43h-.36a464,464,0,0,1-92.44,55.6,505.85,505.85,0,0,1-85.36,29.7,5.76,5.76,0,1,1-6.7,1.65c-45.78,11-94.8,16.5-146.63,16.5-88.49,0-167.24-16.11-234.07-47.88A410.08,410.08,0,0,1,328.5,141q-12.79.85-25.9.91a10.08,10.08,0,1,1-9.41-.06,373.85,373.85,0,0,1-64.09-6.68,10,10,0,1,1-11.52-2.45,342.89,342.89,0,0,1-38.71-11.27,12.33,12.33,0,1,1-23.24,6.94A10,10,0,0,1,160,116.92a491.26,491.26,0,0,1-48.81,13c-2.16.46-4.29.9-6.42,1.32h.13a12.36,12.36,0,1,1-4.51.86,536.35,536.35,0,0,1-71.82,8.68,12.32,12.32,0,1,1-3.25.16c-9,.43-17.24.59-24.54.59H0V252.83H1400V78.15Q1389.32,88,1378,96.79ZM327.66,155.6a5.77,5.77,0,1,1,5.77-5.76A5.76,5.76,0,0,1,327.66,155.6Zm54.57,34.6a5.77,5.77,0,1,1,5.77-5.77A5.78,5.78,0,0,1,382.23,190.2Zm56.37,25.33a5.77,5.77,0,1,1,5.76-5.77A5.77,5.77,0,0,1,438.6,215.53Zm63.66,17.67a5.77,5.77,0,1,1,5.77-5.77A5.77,5.77,0,0,1,502.26,233.2Zm71,13.31a5.77,5.77,0,1,1,5.77-5.77A5.77,5.77,0,0,1,573.26,246.51Zm71.67.68a5.77,5.77,0,1,1,5.77-5.77A5.77,5.77,0,0,1,644.93,247.19Zm67.64-4.1a5.77,5.77,0,1,1,5.76-5.77A5.77,5.77,0,0,1,712.57,243.09Zm148.84-37.16a5.77,5.77,0,1,1,5.76-5.77A5.77,5.77,0,0,1,861.41,205.93Zm56.28-27a5.77,5.77,0,1,1,5.77-5.77A5.76,5.76,0,0,1,917.69,178.89Zm52.43-34.78a5.77,5.77,0,1,1,5.77-5.77A5.77,5.77,0,0,1,970.12,144.11Zm199,33.54a8.64,8.64,0,0,1-2.43,5.87,8.39,8.39,0,0,1-5.88,2.43,9.16,9.16,0,0,1-5.87-2.43,8.56,8.56,0,0,1-2.44-5.87v-.84a8.65,8.65,0,0,1,2.44-5.87,8.36,8.36,0,0,1,5.87-2.43,6.17,6.17,0,0,1,3.2.71,6.35,6.35,0,0,1,2.68,1.72,8.59,8.59,0,0,1,2.43,5.87Z"/><path class="f3874435-58ad-43db-afb1-cf7f1d1b649d" d="M547,35.1c1.21-1.22,2.41-2.43,3.57-3.64A355.39,355.39,0,0,0,577.6,0h-63c6.26,7.63,13.08,15.4,20.48,23.15C538.83,27.08,542.8,31.08,547,35.1Z"/><path class="f3874435-58ad-43db-afb1-cf7f1d1b649d" d="M280.26,56.16a12.34,12.34,0,1,1-3.76,2.73q-5.83,4.17-11.85,8.14,3.84,4.89,7.93,9.79a385.53,385.53,0,0,0,57.88,55.92c100.11-7.42,168.34-51.43,210.77-92q-6.18-6-12.19-12.25-6.21-6.52-11.89-13a12.8,12.8,0,0,1,.38,3.05,12.67,12.67,0,1,1-7.71-11.66Q507,3.4,504.26,0H341.7A386.9,386.9,0,0,1,280.26,56.16Zm63.23-26.93A12.33,12.33,0,1,1,331.16,16.9,12.33,12.33,0,0,1,343.49,29.23Z"/><path class="f3874435-58ad-43db-afb1-cf7f1d1b649d" d="M331.61,0H222.11A403,403,0,0,0,260,61,380.14,380.14,0,0,0,331.61,0Z"/><path class="f3874435-58ad-43db-afb1-cf7f1d1b649d" d="M1012,82.44c1.88-1.94,3.73-3.87,5.53-5.8,8.83-9.44,16.92-18.89,24.31-28.22,0-.14,0-.27,0-.42a12.67,12.67,0,0,1,9.77-12.32q5.55-7.5,10.48-14.79-6.78,7.91-14.49,15.92a346.48,346.48,0,0,1-47,40.74,12.44,12.44,0,0,1,1.37-.07A12.65,12.65,0,0,1,1012,82.44Z"/><path class="f3874435-58ad-43db-afb1-cf7f1d1b649d" d="M266.59,81.35q-4.27-5.1-8.25-10.21-7.74,4.9-15.72,9.51c-4.43,2.53-8.94,5-13.49,7.37.34,0,.68,0,1,0a12.35,12.35,0,1,1-9.34,4.29,440.06,440.06,0,0,1-45.07,19.25c35.89,13.59,77.42,22.33,124.91,22.33q9.38,0,18.4-.42A397.7,397.7,0,0,1,266.59,81.35ZM282,116a5.77,5.77,0,1,1,5.76-5.77A5.77,5.77,0,0,1,282,116Z"/><path class="f3874435-58ad-43db-afb1-cf7f1d1b649d" d="M165.06,107.25A424.81,424.81,0,0,0,253.66,65,410.35,410.35,0,0,1,213.74,0H23.59c6.26,7.63,13.08,15.4,20.48,23.15C72.08,52.48,112.05,85.08,165.06,107.25Zm76.1-49.51a5.77,5.77,0,1,1-5.76,5.77A5.77,5.77,0,0,1,241.16,57.74ZM211.5,6.83a5.77,5.77,0,1,1-5.77,5.77A5.76,5.76,0,0,1,211.5,6.83Z"/><path class="e1d62727-c4e8-4be8-a0d3-04b9e0dd0f84" d="M229.13,88c4.55-2.39,9.06-4.84,13.49-7.37q8-4.59,15.72-9.51-2.4-3.06-4.68-6.12a424.81,424.81,0,0,1-88.6,42.23q5.26,2.2,10.69,4.26a440.06,440.06,0,0,0,45.07-19.25A12.31,12.31,0,0,1,229.13,88Z"/><path class="e1d62727-c4e8-4be8-a0d3-04b9e0dd0f84" d="M25.29,141a12.78,12.78,0,0,1,2.24-.21c.34,0,.68,0,1,0a536.35,536.35,0,0,0,71.82-8.68,12.46,12.46,0,0,1,4.38-.85c2.13-.42,4.26-.86,6.42-1.32a491.26,491.26,0,0,0,48.81-13,9.9,9.9,0,0,1,3.1-1.27c.13-.06.26-.1.39-.15q-5.11-2.1-10.16-4.37c-15.24,4.8-29.85,8.54-43.46,11.45A529.17,529.17,0,0,1,0,134.07v7.5H.75C8.05,141.57,16.29,141.41,25.29,141Z"/><path class="e1d62727-c4e8-4be8-a0d3-04b9e0dd0f84" d="M260,61c1.53,2,3.08,4,4.67,6.08q6-4,11.85-8.14a12.56,12.56,0,0,1,3.76-2.73A386.9,386.9,0,0,0,341.7,0H331.61A380.14,380.14,0,0,1,260,61Z"/><path class="fcb1e153-3245-4fb1-bea9-d9443e2b3398" d="M1017.53,76.64c-1.8,1.93-3.65,3.86-5.53,5.8a12.6,12.6,0,0,1,2.62,7.7c0,.13,0,.25,0,.37,2.91-3,5.8-6,8.64-9,7.83-8.38,15.09-16.78,21.8-25.08a12.61,12.61,0,0,1-3.21-8C1034.45,57.75,1026.36,67.2,1017.53,76.64Z"/><path class="fcb1e153-3245-4fb1-bea9-d9443e2b3398" d="M994,100q-6.56,6-13.67,12c2.29,1.37,4.6,2.71,7,4q7.51-6.46,14.74-13.26h0A12.6,12.6,0,0,1,994,100Z"/><path class="fcb1e153-3245-4fb1-bea9-d9443e2b3398" d="M1051.59,35.68a12.6,12.6,0,0,1,8.56,1c9.27-12.8,17.24-25.16,24-36.68h-5.46c-5,6.77-10.55,13.77-16.66,20.89Q1057.12,28.17,1051.59,35.68Z"/><path class="fcb1e153-3245-4fb1-bea9-d9443e2b3398" d="M961.46,128.85a6.21,6.21,0,0,1-.89-1C891,180.37,787,227.22,637.51,227.22c-137.8,0-233-39.82-297.45-87.21q-5.74.56-11.56,1a410.08,410.08,0,0,0,74.94,45.89c66.83,31.77,145.58,47.88,234.07,47.88,51.83,0,100.85-5.54,146.63-16.5a5.79,5.79,0,0,1,6.7-1.65,505.85,505.85,0,0,0,85.36-29.7,464,464,0,0,0,92.44-55.6h-1.3A8.66,8.66,0,0,1,961.46,128.85Z"/><path class="fcb1e153-3245-4fb1-bea9-d9443e2b3398" d="M977.31,123a6.5,6.5,0,0,1-.13,1.53l3.38-2.78c-1.38-.8-2.75-1.63-4.12-2.45A9.87,9.87,0,0,1,977.31,123Z"/><path class="fcb1e153-3245-4fb1-bea9-d9443e2b3398" d="M258.34,71.14q4,5.1,8.25,10.21a397.7,397.7,0,0,0,52.47,52.07q5.78-.25,11.4-.68a385.53,385.53,0,0,1-57.88-55.92q-4.09-4.89-7.93-9.79C263.06,65,261.51,63,260,61A403,403,0,0,1,222.11,0h-8.37a410.35,410.35,0,0,0,39.92,65Q255.94,68.08,258.34,71.14Z"/><path class="fac62878-c6f3-4786-8dd5-1ab3af64cb85" d="M987.26,116.07c-2.35-1.33-4.66-2.67-7-4q-9-5.36-17.33-11c-2.73,1.45-5.46,2.88-8.23,4.26q7,4.89,14.17,9.41H969a8.66,8.66,0,0,1,5.88,2.43,7,7,0,0,1,1.56,2.18c1.37.82,2.74,1.65,4.12,2.45q10.46,6,21.23,11.31,11.94,5.85,24.27,10.73l.45,0a6.3,6.3,0,0,1,3.2.72,6.16,6.16,0,0,1,2.67,1.72l0,.05A346.16,346.16,0,0,0,1089.16,162a9.87,9.87,0,0,1,3.63-.84,6.3,6.3,0,0,1,3.2.72,6.14,6.14,0,0,1,2.67,1.71l.09.1a377.8,377.8,0,0,0,60.44,4.78,401.09,401.09,0,0,0,60.67-4.51,9.48,9.48,0,0,1,4.23-1.14,6.23,6.23,0,0,1,1.78.18,356.57,356.57,0,0,0,49.36-12c.1-.13.21-.26.32-.38a8.38,8.38,0,0,1,5.87-2.43,6.2,6.2,0,0,1,1.73.16,331.73,331.73,0,0,0,31.28-12.71c4-1.85,7.9-3.8,11.8-5.81a9.91,9.91,0,0,1,1-1.21,8.44,8.44,0,0,1,5.88-2.44h0a336.63,336.63,0,0,0,38.37-24.5,9.68,9.68,0,0,1,1.72-2.61,8,8,0,0,1,4.78-2.32q11.36-8.81,22-18.64v-11c-46.49,44.55-124.08,93.34-240.81,93.34C1089.32,160.46,1032.35,141.56,987.26,116.07Z"/><path class="fac62878-c6f3-4786-8dd5-1ab3af64cb85" d="M868.27,21.09a7.53,7.53,0,0,1,2.12,3.76c7.77,9.89,16.48,20.08,26.18,30.25a394.56,394.56,0,0,0,33.84,31.59,9.48,9.48,0,0,1,3.13,1.94,6.81,6.81,0,0,1,1.32,1.71q6.07,4.88,12.3,9.47,4.17-2,8.22-4.11A375.27,375.27,0,0,1,902.6,49.77,419.69,419.69,0,0,1,862,0h-9.75c4.29,6.33,9,13,14.21,19.75A10.52,10.52,0,0,1,868.27,21.09Z"/><path class="abc0bfc8-df89-4433-8d3f-2fdde9d0b6a8" d="M517.15,15.46q5.69,6.49,11.89,13,6,6.29,12.19,12.25,3-2.84,5.76-5.64c-4.19-4-8.16-8-11.92-12C527.67,15.4,520.85,7.63,514.59,0H504.26q2.7,3.41,5.56,6.85A12.68,12.68,0,0,1,517.15,15.46Z"/><path class="abc0bfc8-df89-4433-8d3f-2fdde9d0b6a8" d="M955.38,95.7q-4.05,2.1-8.22,4.11c-41.37,19.94-92.78,34-155.5,34-110.57,0-188.87-47.32-238.81-93.25-1.9,1.92-3.83,3.81-5.77,5.67,1.92,1.77,3.85,3.51,5.79,5.24a12.7,12.7,0,0,1,7.31,6.33,365.91,365.91,0,0,0,51,36.15,12.64,12.64,0,0,1,8.41,4.8q7.28,4,14.71,7.65a341,341,0,0,0,38.18,15.88,12.69,12.69,0,0,1,6.07,2,352.27,352.27,0,0,0,63.29,14.3,12.52,12.52,0,0,1,8.91,1.07,384,384,0,0,0,40.95,2.16c51,0,98.6-9,141.77-26.9a12.63,12.63,0,0,1,9.71-4.53c.22,0,.43,0,.65,0,1-.47,2.09-.94,3.12-1.42,2.63-1.23,5.24-2.51,7.84-3.8,2.77-1.38,5.5-2.81,8.23-4.26q14.22-7.62,27.69-16.6a12.69,12.69,0,0,1,9.92-6.85,346.48,346.48,0,0,0,47-40.74q7.73-8,14.49-15.92c6.11-7.12,11.65-14.12,16.66-20.89H1068.6a355.39,355.39,0,0,1-27,31.46A332.25,332.25,0,0,1,955.38,95.7Z"/><path class="a9f1bca2-17de-481e-8833-0c80c271ed5e" d="M28.8,18.46q4.47,5,9.24,10Q50.55,41.6,63.89,53.27a10.05,10.05,0,0,1,7.59,6.47A371.27,371.27,0,0,0,107.3,86.09a10.34,10.34,0,0,1,1.45.15,10,10,0,0,1,7.06,5.17q13.44,8.15,27.45,15,5,2.43,10,4.7t10.16,4.37a12.3,12.3,0,0,1,15.41,5.91,342.89,342.89,0,0,0,38.71,11.27,10.05,10.05,0,0,1,11.52,2.45,373.85,373.85,0,0,0,64.09,6.68,9.92,9.92,0,0,1,4.64-1.14,10.1,10.1,0,0,1,4.77,1.2q13.09-.06,25.9-.91,5.82-.39,11.56-1,10.56-1,20.9-2.58a9.9,9.9,0,0,1,7.91-1.29,353.39,353.39,0,0,0,51.69-13,10,10,0,0,1,8-3.94,9.74,9.74,0,0,1,2.37.29q12.75-4.74,25-10.44,14.56-6.81,28.4-15a10.1,10.1,0,0,1,6.05-3.66,339.28,339.28,0,0,0,44.29-32.75,10.05,10.05,0,0,1,8.52-7.7q2-1.83,3.91-3.7c1.94-1.86,3.87-3.75,5.77-5.67,1.25-1.25,2.5-2.5,3.73-3.78,6.61-6.84,12.67-13.66,18.25-20.36a10,10,0,0,1,7.45-9.27Q585.1,3.55,587.73,0H577.6a355.39,355.39,0,0,1-27,31.46c-1.16,1.21-2.36,2.42-3.57,3.64q-2.79,2.81-5.76,5.64c-42.43,40.57-110.66,84.58-210.77,92q-5.62.42-11.4.68-9,.41-18.4.42c-47.49,0-89-8.74-124.91-22.33q-5.43-2.06-10.69-4.26c-53-22.17-93-54.77-121-84.1C36.67,15.4,29.85,7.63,23.59,0H13.26q5.25,6.6,11.06,13.35A10.07,10.07,0,0,1,28.8,18.46Z"/><path class="bd9492d3-8c95-4cdf-be0b-0152fefeb10e" d="M976.44,119.28a7,7,0,0,0-1.56-2.18,8.66,8.66,0,0,0-5.88-2.43h-1.66a8.62,8.62,0,0,0-5.88,2.43,6.17,6.17,0,0,0-1.71,2.68A6.28,6.28,0,0,0,959,123a9.07,9.07,0,0,0,1.54,4.84,6.21,6.21,0,0,0,.89,1,8.66,8.66,0,0,0,5.88,2.43H969a8.57,8.57,0,0,0,5.88-2.43,6.14,6.14,0,0,0,1.71-2.67,6.4,6.4,0,0,0,.59-1.67,6.5,6.5,0,0,0,.13-1.53A9.87,9.87,0,0,0,976.44,119.28Z"/><path class="bd9492d3-8c95-4cdf-be0b-0152fefeb10e" d="M930.41,86.69a8.06,8.06,0,0,0-2.74-.49H926a8.57,8.57,0,0,0-5.88,2.43,6.25,6.25,0,0,0-1.72,2.67,6.19,6.19,0,0,0-.71,3.2,8.39,8.39,0,0,0,2.43,5.88,8.64,8.64,0,0,0,5.88,2.43h1.66a8.57,8.57,0,0,0,5.87-2.43,6.28,6.28,0,0,0,1.72-2.68,6.28,6.28,0,0,0,.72-3.2,9.47,9.47,0,0,0-1.12-4.16,6.81,6.81,0,0,0-1.32-1.71A9.48,9.48,0,0,0,930.41,86.69Z"/><path class="bd9492d3-8c95-4cdf-be0b-0152fefeb10e" d="M891.73,72.14h1.66a8.57,8.57,0,0,0,5.88-2.43A6.25,6.25,0,0,0,901,67a6.29,6.29,0,0,0,.71-3.2A8.43,8.43,0,0,0,899.27,58a8.66,8.66,0,0,0-5.88-2.43h-1.66A8.57,8.57,0,0,0,885.86,58a6.19,6.19,0,0,0-1.72,2.68,6.28,6.28,0,0,0-.72,3.2,8.42,8.42,0,0,0,2.44,5.87A8.62,8.62,0,0,0,891.73,72.14Z"/><path class="bd9492d3-8c95-4cdf-be0b-0152fefeb10e" d="M866.45,19.75a8.23,8.23,0,0,0-4.06-1.1h-1.66a8.54,8.54,0,0,0-5.87,2.44,6.16,6.16,0,0,0-1.72,2.67,6.3,6.3,0,0,0-.72,3.2,8.4,8.4,0,0,0,2.44,5.87,8.58,8.58,0,0,0,5.87,2.44h1.66a8.58,8.58,0,0,0,5.88-2.44A6.25,6.25,0,0,0,870,30.16a6.29,6.29,0,0,0,.71-3.2,10.86,10.86,0,0,0-.31-2.11,7.53,7.53,0,0,0-2.12-3.76A10.52,10.52,0,0,0,866.45,19.75Z"/><path class="bd9492d3-8c95-4cdf-be0b-0152fefeb10e" d="M1096,161.91a6.3,6.3,0,0,0-3.2-.72,9.87,9.87,0,0,0-3.63.84,7.09,7.09,0,0,0-2.25,1.59,8.66,8.66,0,0,0-2.43,5.88v.83a8.57,8.57,0,0,0,2.43,5.87,9.3,9.3,0,0,0,5.88,2.44,8.35,8.35,0,0,0,5.87-2.44,8.58,8.58,0,0,0,2.44-5.87v-.83a8.58,8.58,0,0,0-2.35-5.78l-.09-.1A6.14,6.14,0,0,0,1096,161.91Z"/><path class="bd9492d3-8c95-4cdf-be0b-0152fefeb10e" d="M1029.71,144.45a6.3,6.3,0,0,0-3.2-.72l-.45,0a8.23,8.23,0,0,0-5.43,2.4,8.62,8.62,0,0,0-2.43,5.87v.83a8.62,8.62,0,0,0,2.43,5.88,6.35,6.35,0,0,0,2.68,1.72,6.27,6.27,0,0,0,3.2.71,8.41,8.41,0,0,0,5.87-2.43,8.66,8.66,0,0,0,2.43-5.88V152a8.53,8.53,0,0,0-2.38-5.82l0-.05A6.16,6.16,0,0,0,1029.71,144.45Z"/><path class="bd9492d3-8c95-4cdf-be0b-0152fefeb10e" d="M1164,169.22a6.17,6.17,0,0,0-3.2-.71,8.36,8.36,0,0,0-5.87,2.43,8.65,8.65,0,0,0-2.44,5.87v.84a8.56,8.56,0,0,0,2.44,5.87,9.16,9.16,0,0,0,5.87,2.43,8.39,8.39,0,0,0,5.88-2.43,8.64,8.64,0,0,0,2.43-5.87v-.84a8.59,8.59,0,0,0-2.43-5.87A6.35,6.35,0,0,0,1164,169.22Z"/><path class="bd9492d3-8c95-4cdf-be0b-0152fefeb10e" d="M1219.86,164a6.87,6.87,0,0,0-1.65,1.29,8.64,8.64,0,0,0-2.43,5.87V172a8.55,8.55,0,0,0,2.43,5.87,9.16,9.16,0,0,0,5.88,2.43,8.38,8.38,0,0,0,5.87-2.43,8.64,8.64,0,0,0,2.43-5.87v-.84a8.55,8.55,0,0,0-2.43-5.87,6.25,6.25,0,0,0-2.67-1.72,6.43,6.43,0,0,0-1.42-.53,6.23,6.23,0,0,0-1.78-.18A9.48,9.48,0,0,0,1219.86,164Z"/><path class="bd9492d3-8c95-4cdf-be0b-0152fefeb10e" d="M1275.55,150.65c-.11.12-.22.25-.32.38a8.48,8.48,0,0,0-2.11,5.49v.83a8.57,8.57,0,0,0,2.43,5.88,9.16,9.16,0,0,0,5.87,2.43,8.39,8.39,0,0,0,5.88-2.43,8.66,8.66,0,0,0,2.43-5.88v-.83a8.55,8.55,0,0,0-2.43-5.87,6.28,6.28,0,0,0-2.68-1.72,6.07,6.07,0,0,0-1.47-.55,6.2,6.2,0,0,0-1.73-.16A8.38,8.38,0,0,0,1275.55,150.65Z"/><path class="bd9492d3-8c95-4cdf-be0b-0152fefeb10e" d="M1327.18,128.65a9.91,9.91,0,0,0-1,1.21,8.22,8.22,0,0,0-1.48,4.66v.83a8.62,8.62,0,0,0,2.43,5.88,6.35,6.35,0,0,0,2.68,1.72,6.27,6.27,0,0,0,3.2.71,8.39,8.39,0,0,0,5.87-2.43,8.63,8.63,0,0,0,2.44-5.88v-.83a8.54,8.54,0,0,0-2.44-5.87,9.17,9.17,0,0,0-5.84-2.43h0A8.44,8.44,0,0,0,1327.18,128.65Z"/><path class="bd9492d3-8c95-4cdf-be0b-0152fefeb10e" d="M1371.46,101.72a8,8,0,0,0-.71,3.27v.83a8.57,8.57,0,0,0,2.43,5.87,9.3,9.3,0,0,0,5.88,2.44,8.4,8.4,0,0,0,5.87-2.44,8.58,8.58,0,0,0,2.44-5.87V105a8.58,8.58,0,0,0-2.44-5.88,6.14,6.14,0,0,0-2.67-1.71,6.3,6.3,0,0,0-3.2-.72c-.37,0-.73.06-1.1.11a8,8,0,0,0-4.78,2.32A9.68,9.68,0,0,0,1371.46,101.72Z"/><path class="b89ab4fd-413f-431a-9fa3-4fc5a103c6df" d="M25.29,141a12.35,12.35,0,1,0,3.25-.16c-.33,0-.67,0-1,0A12.78,12.78,0,0,0,25.29,141Z"/><path class="b89ab4fd-413f-431a-9fa3-4fc5a103c6df" d="M92.53,143.62a12.34,12.34,0,1,0,12.34-12.34h-.13a12.33,12.33,0,0,0-12.21,12.33Z"/><path class="b89ab4fd-413f-431a-9fa3-4fc5a103c6df" d="M167.89,114.67a12.28,12.28,0,0,0-4.43.83c-.13,0-.26.09-.39.15a10.07,10.07,0,1,1-7.44,12.7,12.33,12.33,0,1,0,12.26-13.68Z"/><path class="b89ab4fd-413f-431a-9fa3-4fc5a103c6df" d="M220.82,92.26A12.32,12.32,0,1,0,230.16,88c-.35,0-.69,0-1,0A12.31,12.31,0,0,0,220.82,92.26Z"/><path class="b89ab4fd-413f-431a-9fa3-4fc5a103c6df" d="M285.49,79.65a12.34,12.34,0,1,0-5.23-23.49,12.56,12.56,0,0,0-3.76,2.73,12.32,12.32,0,0,0,9,20.76Z"/><path class="b89ab4fd-413f-431a-9fa3-4fc5a103c6df" d="M318.83,29.23A12.33,12.33,0,1,0,331.16,16.9,12.33,12.33,0,0,0,318.83,29.23Z"/><path class="abc0bfc8-df89-4433-8d3f-2fdde9d0b6a8" d="M509.82,6.85a12.67,12.67,0,1,0,7.71,11.66,12.8,12.8,0,0,0-.38-3.05A12.68,12.68,0,0,0,509.82,6.85Z"/><path class="abc0bfc8-df89-4433-8d3f-2fdde9d0b6a8" d="M548.75,50.85A10.06,10.06,0,1,1,536.45,66a12.65,12.65,0,1,0,12.42-15.19Z"/><path class="abc0bfc8-df89-4433-8d3f-2fdde9d0b6a8" d="M596.89,106.54A12.66,12.66,0,1,0,611.14,94a13.84,13.84,0,0,0-1.59-.11A12.66,12.66,0,0,0,596.89,106.54Z"/><path class="abc0bfc8-df89-4433-8d3f-2fdde9d0b6a8" d="M658.89,134.94a12.68,12.68,0,1,0,13.55-12.63c-.29,0-.59,0-.89,0A12.66,12.66,0,0,0,658.89,134.94Z"/><path class="abc0bfc8-df89-4433-8d3f-2fdde9d0b6a8" d="M732.17,150.94a12.72,12.72,0,1,0,9.63-12.29A12.66,12.66,0,0,0,732.17,150.94Z"/><path class="abc0bfc8-df89-4433-8d3f-2fdde9d0b6a8" d="M810.83,167.21a12.67,12.67,0,1,0-12.66-12.66A12.66,12.66,0,0,0,810.83,167.21Z"/><path class="abc0bfc8-df89-4433-8d3f-2fdde9d0b6a8" d="M878.42,158.58a12.67,12.67,0,1,0-12.67-12.67A12.66,12.66,0,0,0,878.42,158.58Z"/><path class="abc0bfc8-df89-4433-8d3f-2fdde9d0b6a8" d="M943.14,135.78a12.66,12.66,0,0,0,.65-25.3c-.22,0-.43,0-.65,0a12.67,12.67,0,1,0,0,25.33Z"/><path class="abc0bfc8-df89-4433-8d3f-2fdde9d0b6a8" d="M994,100a12.6,12.6,0,0,0,8,2.83h0a12.67,12.67,0,0,0,12.61-12.3c0-.12,0-.24,0-.37A12.68,12.68,0,0,0,1002,77.48a12.44,12.44,0,0,0-1.37.07A12.66,12.66,0,0,0,994,100Z"/><path class="abc0bfc8-df89-4433-8d3f-2fdde9d0b6a8" d="M1041.82,48c0,.15,0,.28,0,.42a12.66,12.66,0,1,0,24.73-4.23,5.76,5.76,0,0,1-5.18-5.74,6.52,6.52,0,0,1,.09-1,11,11,0,0,0-1.33-.77A12.67,12.67,0,0,0,1041.82,48Z"/><path class="a9f1bca2-17de-481e-8833-0c80c271ed5e" d="M584.87,27a10.06,10.06,0,1,0-10-10.51c0,.15,0,.29,0,.45A10.07,10.07,0,0,0,584.87,27Z"/><path class="a9f1bca2-17de-481e-8833-0c80c271ed5e" d="M536.45,66a10,10,0,1,0,8-16.16,10.69,10.69,0,0,0-1.27.09A10,10,0,0,0,536.45,66Z"/><path class="a9f1bca2-17de-481e-8833-0c80c271ed5e" d="M492.2,110.37a10.06,10.06,0,1,0-10.06-10.07A10.06,10.06,0,0,0,492.2,110.37Z"/><path class="a9f1bca2-17de-481e-8833-0c80c271ed5e" d="M428.53,139.33a10.05,10.05,0,0,0,2.37-19.83,9.74,9.74,0,0,0-2.37-.29,10.06,10.06,0,1,0,0,20.12Z"/><path class="a9f1bca2-17de-481e-8833-0c80c271ed5e" d="M356.34,145.89a10.09,10.09,0,1,0,4.62-8.46A10.05,10.05,0,0,0,356.34,145.89Z"/><path class="a9f1bca2-17de-481e-8833-0c80c271ed5e" d="M293.19,141.81a10,10,0,1,0,4.64-1.14A9.92,9.92,0,0,0,293.19,141.81Z"/><path class="a9f1bca2-17de-481e-8833-0c80c271ed5e" d="M223.48,132a10.1,10.1,0,1,0,5.62,3.14A10.07,10.07,0,0,0,223.48,132Z"/><path class="a9f1bca2-17de-481e-8833-0c80c271ed5e" d="M163.45,135.37a10.07,10.07,0,1,0-.38-19.72,9.9,9.9,0,0,0-3.1,1.27,10.06,10.06,0,0,0,3.48,18.45Z"/><path class="a9f1bca2-17de-481e-8833-0c80c271ed5e" d="M108.75,86.24a10.34,10.34,0,0,0-1.45-.15,9.94,9.94,0,1,0,1.45.15Z"/><path class="a9f1bca2-17de-481e-8833-0c80c271ed5e" d="M63.89,53.27h0a10.08,10.08,0,1,0,7.64,6.48A10.06,10.06,0,0,0,63.84,53.26Z"/><path class="a9f1bca2-17de-481e-8833-0c80c271ed5e" d="M24.32,13.35a10.11,10.11,0,1,0,4.48,5.11A10.08,10.08,0,0,0,24.32,13.35Z"/><circle class="fcb1e153-3245-4fb1-bea9-d9443e2b3398" cx="211.5" cy="12.6" r="5.77"/><circle class="fcb1e153-3245-4fb1-bea9-d9443e2b3398" cx="241.16" cy="63.51" r="5.77"/><circle class="fcb1e153-3245-4fb1-bea9-d9443e2b3398" cx="282" cy="110.2" r="5.77"/><path class="fcb1e153-3245-4fb1-bea9-d9443e2b3398" d="M327.66,144.07a5.77,5.77,0,1,0,5.77,5.77A5.76,5.76,0,0,0,327.66,144.07Z"/><path class="fcb1e153-3245-4fb1-bea9-d9443e2b3398" d="M382.23,178.66a5.77,5.77,0,1,0,5.77,5.77A5.78,5.78,0,0,0,382.23,178.66Z"/><path class="fcb1e153-3245-4fb1-bea9-d9443e2b3398" d="M438.6,204a5.77,5.77,0,1,0,5.76,5.76A5.76,5.76,0,0,0,438.6,204Z"/><circle class="fcb1e153-3245-4fb1-bea9-d9443e2b3398" cx="502.26" cy="227.43" r="5.77"/><circle class="fcb1e153-3245-4fb1-bea9-d9443e2b3398" cx="573.26" cy="240.74" r="5.77"/><path class="fcb1e153-3245-4fb1-bea9-d9443e2b3398" d="M644.93,235.66a5.77,5.77,0,1,0,5.77,5.76A5.76,5.76,0,0,0,644.93,235.66Z"/><path class="fcb1e153-3245-4fb1-bea9-d9443e2b3398" d="M784.14,218.23a5.79,5.79,0,1,0,4.46-2.1A5.77,5.77,0,0,0,784.14,218.23Z"/><circle class="fcb1e153-3245-4fb1-bea9-d9443e2b3398" cx="861.41" cy="200.16" r="5.77"/><path class="fcb1e153-3245-4fb1-bea9-d9443e2b3398" d="M917.69,167.36a5.77,5.77,0,1,0,5.77,5.76A5.76,5.76,0,0,0,917.69,167.36Z"/><circle class="fcb1e153-3245-4fb1-bea9-d9443e2b3398" cx="970.12" cy="138.34" r="5.77"/><path class="fcb1e153-3245-4fb1-bea9-d9443e2b3398" d="M1020.64,87.69a5.77,5.77,0,1,0,5.76,5.76A5.76,5.76,0,0,0,1020.64,87.69Z"/><path class="fcb1e153-3245-4fb1-bea9-d9443e2b3398" d="M1066.57,44.19a5.68,5.68,0,0,0,.59,0,5.77,5.77,0,1,0-5.68-6.77,6.52,6.52,0,0,0-.09,1A5.76,5.76,0,0,0,1066.57,44.19Z"/><path class="fcb1e153-3245-4fb1-bea9-d9443e2b3398" d="M712.57,231.56a5.77,5.77,0,1,0,5.76,5.76A5.76,5.76,0,0,0,712.57,231.56Z"/><circle class="aa46de29-7cc7-4945-9c68-fb3ac2d59f6c" cx="153.46" cy="270.71" r="45.55"/><circle class="f3874435-58ad-43db-afb1-cf7f1d1b649d" cx="153.46" cy="270.71" r="45.55"/><circle class="f51af162-9b2d-41c4-ab4d-6294820fb2de" cx="153.46" cy="270.71" r="45.55" transform="translate(-1.37 0.78) rotate(-0.29)"/><path class="f3874435-58ad-43db-afb1-cf7f1d1b649d" d="M176.12,231.21l-66.9,28.68A44.76,44.76,0,0,0,108,268l74.8-32.07A45.07,45.07,0,0,0,176.12,231.21Z"/><path class="f3874435-58ad-43db-afb1-cf7f1d1b649d" d="M193.8,249.57l-83.46,35.79a45.64,45.64,0,0,0,2.72,6.38l83.49-35.8A45.65,45.65,0,0,0,193.8,249.57Z"/><path class="f3874435-58ad-43db-afb1-cf7f1d1b649d" d="M159.11,225.53l-42.29,18.13a45.63,45.63,0,0,0-5.57,9.94l58.91-25.26A44.82,44.82,0,0,0,159.11,225.53Z"/><path class="f3874435-58ad-43db-afb1-cf7f1d1b649d" d="M126.23,234.2l19.53-8.37A45.29,45.29,0,0,0,126.23,234.2Z"/><path class="f3874435-58ad-43db-afb1-cf7f1d1b649d" d="M186.74,239.63,108,273.39a45.33,45.33,0,0,0,1,7.13l82.24-35.27A44.25,44.25,0,0,0,186.74,239.63Z"/><path class="f3874435-58ad-43db-afb1-cf7f1d1b649d" d="M197.91,260.78l-82.29,35.29a46.61,46.61,0,0,0,4.47,5.63l78.83-33.8A45.06,45.06,0,0,0,197.91,260.78Z"/><path class="f3874435-58ad-43db-afb1-cf7f1d1b649d" d="M195.74,287.66,136.6,313a45.07,45.07,0,0,0,11,2.84l42.69-18.3A45.52,45.52,0,0,0,195.74,287.66Z"/><path class="f3874435-58ad-43db-afb1-cf7f1d1b649d" d="M160.61,315.7a45.31,45.31,0,0,0,20.49-8.79Z"/><path class="f3874435-58ad-43db-afb1-cf7f1d1b649d" d="M198.93,273.32,124,305.44a45.68,45.68,0,0,0,6.66,4.7l67.07-28.77A44.52,44.52,0,0,0,198.93,273.32Z"/><path class="a85b5e82-8b7b-465a-a9c1-561f46ef738b" d="M153.46,225.17a45.46,45.46,0,0,0-7.7.66l-19.53,8.37a46.1,46.1,0,0,0-9.41,9.46l42.29-18.13A45.7,45.7,0,0,0,153.46,225.17Z"/><path class="a85b5e82-8b7b-465a-a9c1-561f46ef738b" d="M170.16,228.34,111.25,253.6a46.15,46.15,0,0,0-2,6.29l66.9-28.68A44.75,44.75,0,0,0,170.16,228.34Z"/><path class="a85b5e82-8b7b-465a-a9c1-561f46ef738b" d="M182.81,235.89,108,268c-.06.91-.09,1.83-.09,2.75s0,1.79.08,2.68l78.74-33.76A44.7,44.7,0,0,0,182.81,235.89Z"/><path class="a85b5e82-8b7b-465a-a9c1-561f46ef738b" d="M191.23,245.25,109,280.52a43.83,43.83,0,0,0,1.35,4.84l83.46-35.79A43.51,43.51,0,0,0,191.23,245.25Z"/><path class="a85b5e82-8b7b-465a-a9c1-561f46ef738b" d="M196.55,255.94l-83.49,35.8a46.89,46.89,0,0,0,2.56,4.33l82.29-35.29A43.86,43.86,0,0,0,196.55,255.94Z"/><path class="a85b5e82-8b7b-465a-a9c1-561f46ef738b" d="M199,270.71c0-.94,0-1.88-.09-2.81l-78.83,33.8a46.18,46.18,0,0,0,3.92,3.74l74.92-32.12C199,272.45,199,271.59,199,270.71Z"/><path class="a85b5e82-8b7b-465a-a9c1-561f46ef738b" d="M197.74,281.37l-67.07,28.77A45.74,45.74,0,0,0,136.6,313l59.14-25.36A43.43,43.43,0,0,0,197.74,281.37Z"/><path class="a85b5e82-8b7b-465a-a9c1-561f46ef738b" d="M190.25,297.56l-42.69,18.3a44.29,44.29,0,0,0,5.9.4,46.82,46.82,0,0,0,7.15-.56l20.49-8.79A45.82,45.82,0,0,0,190.25,297.56Z"/><path class="fc4b5eb9-b7ea-4bef-bbdf-ecc394d129da" d="M146.29,213.39h14.36a2.79,2.79,0,0,1,2.79,2.79v14.93a0,0,0,0,1,0,0H143.49a0,0,0,0,1,0,0V216.18A2.79,2.79,0,0,1,146.29,213.39Z" transform="translate(306.93 444.5) rotate(-180)"/><ellipse class="fb75732a-ecd7-4b66-87ec-1f8be44401fe" cx="153.46" cy="213.53" rx="9.97" ry="2.35"/><path class="aa9dc5bc-91ad-4ad0-a87e-a475789d1131" d="M153.46,212c5.48,0,8.82,1,9.14,1.58v12.88a3.82,3.82,0,0,1-3.81,3.81H148.13a3.81,3.81,0,0,1-3.8-3.81V213.61c.37-.58,3.7-1.6,9.13-1.6m0-.83c-5.3,0-9.63,1-9.94,2.21h0v13.08a4.64,4.64,0,0,0,4.64,4.64h10.66a4.63,4.63,0,0,0,4.64-4.64V213.39h0c-.3-1.23-4.63-2.21-9.94-2.21Z"/><path class="f9ba2d55-91f5-4907-a09e-8ba08871d1c9" d="M117.2,261.3s-4.15,32.81,29.77,47.35"/><line class="b1a8eda5-6211-418f-be31-eb700a39b055" x1="160.09" y1="217.44" x2="160.09" y2="226.79"/><path class="b1a8eda5-6211-418f-be31-eb700a39b055" d="M145.4,213.73s1.19,1,5.55,1"/><circle class="b1b2ac07-6659-4705-bb4b-a2eff03bebf7" cx="67.07" cy="203.43" r="33.73"/><circle class="b1b2ac07-6659-4705-bb4b-a2eff03bebf7" cx="67.07" cy="203.43" r="33.73"/><circle class="f3874435-58ad-43db-afb1-cf7f1d1b649d" cx="67.07" cy="203.43" r="33.73"/><circle class="ad00b039-82b5-44fe-a20d-6a60845ba748" cx="67.07" cy="203.43" r="33.73" transform="translate(-136.7 269.46) rotate(-89.71)"/><path class="f3874435-58ad-43db-afb1-cf7f1d1b649d" d="M87.07,226.66a18.58,18.58,0,0,1-19.22.7A21,21,0,0,1,57,230.43,20.51,20.51,0,0,1,46,227.18c-.58.19-1.14.35-1.7.49a33.26,33.26,0,0,0,45.7-.08A22.59,22.59,0,0,1,87.07,226.66Z"/><path class="f3874435-58ad-43db-afb1-cf7f1d1b649d" d="M47.76,222.88c.35.27,8.74,6.75,18.84-.11a2.27,2.27,0,0,1,2.68.09c.29.22,7.38,5.5,16.3-.65a2.26,2.26,0,0,1,2.36-.14,16.28,16.28,0,0,0,5.6,1.54,33.14,33.14,0,0,0,5.39-10.53,20.89,20.89,0,0,1-11.86-1.15,18.57,18.57,0,0,1-19.22.69A20.9,20.9,0,0,1,57,215.69,20.51,20.51,0,0,1,46,212.45a18,18,0,0,1-10.8.5,33.22,33.22,0,0,0,5.49,10.74,19.18,19.18,0,0,0,4.89-1.17A2.25,2.25,0,0,1,47.76,222.88Z"/><path class="f3874435-58ad-43db-afb1-cf7f1d1b649d" d="M47.76,178.67c.35.27,8.74,6.76,18.84-.11a2.27,2.27,0,0,1,2.68.09c.29.22,7.38,5.5,16.3-.65a2.26,2.26,0,0,1,2.36-.13c.07,0,.39.19.92.41a33.25,33.25,0,0,0-43.82.2l.5-.17A2.28,2.28,0,0,1,47.76,178.67Z"/><path class="f3874435-58ad-43db-afb1-cf7f1d1b649d" d="M45.54,207.78a2.28,2.28,0,0,1,2.22.36c.35.28,8.74,6.76,18.84-.11a2.28,2.28,0,0,1,2.68.09c.29.22,7.38,5.51,16.3-.65a2.28,2.28,0,0,1,2.36-.13A15.84,15.84,0,0,0,100,208a34.68,34.68,0,0,0,.32-4.59,33.53,33.53,0,0,0-.43-5.33,20.62,20.62,0,0,1-12.86-.91,18.58,18.58,0,0,1-19.22.7A21,21,0,0,1,57,201,20.51,20.51,0,0,1,46,197.71c-4.4,1.43-8.33,1.49-11.72.19a33.64,33.64,0,0,0-.47,5.53,33.21,33.21,0,0,0,.25,4,8.82,8.82,0,0,0,1.13.66C37.91,209.43,41.4,209.32,45.54,207.78Z"/><path class="f3874435-58ad-43db-afb1-cf7f1d1b649d" d="M45.54,193a2.28,2.28,0,0,1,2.22.37c.35.27,8.74,6.75,18.84-.12a2.27,2.27,0,0,1,2.68.1c.29.22,7.38,5.5,16.3-.65a2.26,2.26,0,0,1,2.36-.14,16.06,16.06,0,0,0,11,1.07A33.21,33.21,0,0,0,94.09,184a21.71,21.71,0,0,1-7-1.54,18.55,18.55,0,0,1-19.22.7A21,21,0,0,1,57,186.22,20.51,20.51,0,0,1,46,183a21.59,21.59,0,0,1-6,1.09,33.41,33.41,0,0,0-4.69,9.36C38,194.68,41.48,194.56,45.54,193Z"/><path class="afa9a488-b079-471f-b404-f44afe1113d6" d="M57,186.22a21,21,0,0,0,10.81-3.07,18.55,18.55,0,0,0,19.22-.7,21.71,21.71,0,0,0,7,1.54,33.35,33.35,0,0,0-5.23-5.71c-.53-.22-.85-.38-.92-.41a2.26,2.26,0,0,0-2.36.13c-8.92,6.15-16,.87-16.3.65a2.27,2.27,0,0,0-2.68-.09c-10.1,6.87-18.49.38-18.84.11a2.28,2.28,0,0,0-2.22-.36l-.5.17a33.12,33.12,0,0,0-5,5.59A21.59,21.59,0,0,0,46,183,20.51,20.51,0,0,0,57,186.22Z"/><path class="afa9a488-b079-471f-b404-f44afe1113d6" d="M46,197.71A20.51,20.51,0,0,0,57,201a21,21,0,0,0,10.81-3.07,18.58,18.58,0,0,0,19.22-.7,20.62,20.62,0,0,0,12.86.91,34.36,34.36,0,0,0-1-4.43,16.06,16.06,0,0,1-11-1.07,2.26,2.26,0,0,0-2.36.14c-8.92,6.15-16,.87-16.3.65a2.27,2.27,0,0,0-2.68-.1c-10.1,6.87-18.49.39-18.84.12a2.28,2.28,0,0,0-2.22-.37c-4.06,1.52-7.5,1.64-10.24.39a33.06,33.06,0,0,0-1.06,4.47C37.63,199.2,41.56,199.14,46,197.71Z"/><path class="afa9a488-b079-471f-b404-f44afe1113d6" d="M46,212.45A20.51,20.51,0,0,0,57,215.69a20.9,20.9,0,0,0,10.81-3.07,18.57,18.57,0,0,0,19.22-.69,20.89,20.89,0,0,0,11.86,1.15A32.53,32.53,0,0,0,100,208a15.84,15.84,0,0,1-12.1-.68,2.28,2.28,0,0,0-2.36.13c-8.92,6.16-16,.87-16.3.65A2.28,2.28,0,0,0,66.6,208c-10.1,6.87-18.49.39-18.84.11a2.28,2.28,0,0,0-2.22-.36c-4.14,1.54-7.63,1.65-10.39.32a8.82,8.82,0,0,1-1.13-.66A33.45,33.45,0,0,0,35.16,213,18,18,0,0,0,46,212.45Z"/><path class="afa9a488-b079-471f-b404-f44afe1113d6" d="M57,230.43a21,21,0,0,0,10.81-3.07,18.58,18.58,0,0,0,19.22-.7,22.59,22.59,0,0,0,2.89.93,34.69,34.69,0,0,0,3.58-4,16.28,16.28,0,0,1-5.6-1.54,2.26,2.26,0,0,0-2.36.14c-8.92,6.15-16,.87-16.3.65a2.27,2.27,0,0,0-2.68-.09c-10.1,6.86-18.49.38-18.84.11a2.25,2.25,0,0,0-2.22-.36,19.18,19.18,0,0,1-4.89,1.17,34,34,0,0,0,3.61,4c.56-.14,1.12-.3,1.7-.49A20.51,20.51,0,0,0,57,230.43Z"/><path class="bcf86bd9-606e-4485-a585-54081135684e" d="M59.68,161H74.45a0,0,0,0,1,0,0v10.33a2.79,2.79,0,0,1-2.79,2.79H62.47a2.79,2.79,0,0,1-2.79-2.79V161A0,0,0,0,1,59.68,161Z"/><ellipse class="faf1aa91-b083-4bb6-b8af-9e07fbc3a8ee" cx="67.07" cy="161.09" rx="7.38" ry="1.74"/><path class="aa9dc5bc-91ad-4ad0-a87e-a475789d1131" d="M67.07,160c4.05,0,6.52.77,6.76,1.17v9.54A2.82,2.82,0,0,1,71,173.49H63.12a2.82,2.82,0,0,1-2.82-2.82v-9.52c.27-.43,2.74-1.19,6.77-1.19m0-.62c-3.94,0-7.14.73-7.37,1.64h0v9.69a3.44,3.44,0,0,0,3.44,3.44H71a3.44,3.44,0,0,0,3.44-3.44V161h0c-.23-.91-3.43-1.64-7.36-1.64Z"/><line class="e4a9720a-fe2f-40b0-b51d-69207cfac55e" x1="62.16" y1="163.98" x2="62.16" y2="170.9"/><path class="e4a9720a-fe2f-40b0-b51d-69207cfac55e" d="M73,161.23s-.88.71-4.11.73"/><path class="b08503c7-4801-471b-97e9-2c4a6fa31a7a" d="M93.92,196.46s3.07,24.3-22,35.06"/><circle class="f418052c-d2dc-4abb-b088-679c81c3ddd1" cx="233.03" cy="176.08" r="33.73"/><circle class="e50c80bd-52e2-4063-a071-44422a5b654f" cx="233.03" cy="176.08" r="33.73"/><circle class="f3874435-58ad-43db-afb1-cf7f1d1b649d" cx="233.03" cy="176.08" r="33.73"/><circle class="ad00b039-82b5-44fe-a20d-6a60845ba748" cx="233.03" cy="176.08" r="33.73" transform="matrix(0.01, -1, 1, 0.01, 55.77, 408.22)"/><path class="f3874435-58ad-43db-afb1-cf7f1d1b649d" d="M253,199.31a18.57,18.57,0,0,1-19.23.7A20.85,20.85,0,0,1,223,203.08a20.5,20.5,0,0,1-11.07-3.24c-.58.18-1.14.34-1.7.48a33.26,33.26,0,0,0,45.7-.08A20.66,20.66,0,0,1,253,199.31Z"/><path class="f3874435-58ad-43db-afb1-cf7f1d1b649d" d="M213.73,195.53c.35.28,8.74,6.76,18.84-.11a2.27,2.27,0,0,1,2.68.09c.28.22,7.38,5.51,16.3-.65a2.28,2.28,0,0,1,2.36-.13,16.4,16.4,0,0,0,5.6,1.53,33.3,33.3,0,0,0,5.39-10.52A21,21,0,0,1,253,184.58a18.59,18.59,0,0,1-19.23.7A21,21,0,0,1,223,188.35a20.5,20.5,0,0,1-11.07-3.25,17.9,17.9,0,0,1-10.8.5,33.22,33.22,0,0,0,5.49,10.74,19.18,19.18,0,0,0,4.89-1.17A2.28,2.28,0,0,1,213.73,195.53Z"/><path class="f3874435-58ad-43db-afb1-cf7f1d1b649d" d="M213.73,151.33c.35.27,8.74,6.75,18.84-.12a2.28,2.28,0,0,1,2.68.09c.28.22,7.38,5.51,16.3-.65a2.28,2.28,0,0,1,2.36-.13c.06,0,.39.2.92.41a33.25,33.25,0,0,0-43.82.2c.16-.06.33-.1.5-.17A2.26,2.26,0,0,1,213.73,151.33Z"/><path class="f3874435-58ad-43db-afb1-cf7f1d1b649d" d="M211.51,180.43a2.28,2.28,0,0,1,2.22.37c.35.27,8.74,6.75,18.84-.12a2.27,2.27,0,0,1,2.68.1c.28.22,7.38,5.5,16.3-.65a2.26,2.26,0,0,1,2.36-.14,15.77,15.77,0,0,0,12.09.68,32.64,32.64,0,0,0-.1-9.91,20.68,20.68,0,0,1-12.86-.92,18.57,18.57,0,0,1-19.23.7A21,21,0,0,1,223,173.61a20.5,20.5,0,0,1-11.07-3.24c-4.4,1.42-8.33,1.48-11.72.19a33.43,33.43,0,0,0-.47,5.52,33.08,33.08,0,0,0,.25,4,7.79,7.79,0,0,0,1.13.66C203.88,182.08,207.37,182,211.51,180.43Z"/><path class="f3874435-58ad-43db-afb1-cf7f1d1b649d" d="M211.51,165.7a2.28,2.28,0,0,1,2.22.36c.35.27,8.74,6.76,18.84-.11a2.27,2.27,0,0,1,2.68.09c.28.22,7.38,5.5,16.3-.65a2.26,2.26,0,0,1,2.36-.13,16.08,16.08,0,0,0,11,1.06,33.41,33.41,0,0,0-4.81-9.67,22,22,0,0,1-7-1.54,18.59,18.59,0,0,1-19.23.69A21,21,0,0,1,223,158.88a20.5,20.5,0,0,1-11.07-3.25,21.63,21.63,0,0,1-6,1.1,33.09,33.09,0,0,0-4.69,9.35C204,167.34,207.44,167.21,211.51,165.7Z"/><path class="a99ab0d5-d6a2-4447-b7af-830a1f69df6e" d="M223,158.88a21,21,0,0,0,10.81-3.08,18.59,18.59,0,0,0,19.23-.69,22,22,0,0,0,7,1.54,33.41,33.41,0,0,0-5.23-5.72c-.53-.21-.86-.38-.92-.41a2.28,2.28,0,0,0-2.36.13c-8.92,6.16-16,.87-16.3.65a2.28,2.28,0,0,0-2.68-.09c-10.1,6.87-18.49.39-18.84.12a2.26,2.26,0,0,0-2.22-.37c-.17.07-.34.11-.5.17a33.14,33.14,0,0,0-5,5.6,21.63,21.63,0,0,0,6-1.1A20.5,20.5,0,0,0,223,158.88Z"/><path class="a99ab0d5-d6a2-4447-b7af-830a1f69df6e" d="M211.93,170.37A20.5,20.5,0,0,0,223,173.61a21,21,0,0,0,10.81-3.07,18.57,18.57,0,0,0,19.23-.7,20.68,20.68,0,0,0,12.86.92,34.12,34.12,0,0,0-1-4.44,16.08,16.08,0,0,1-11-1.06,2.26,2.26,0,0,0-2.36.13c-8.92,6.15-16,.87-16.3.65a2.27,2.27,0,0,0-2.68-.09c-10.1,6.87-18.49.38-18.84.11a2.28,2.28,0,0,0-2.22-.36c-4.07,1.51-7.51,1.64-10.24.38a33.2,33.2,0,0,0-1.06,4.48C203.6,171.85,207.53,171.79,211.93,170.37Z"/><path class="a99ab0d5-d6a2-4447-b7af-830a1f69df6e" d="M211.93,185.1A20.5,20.5,0,0,0,223,188.35a21,21,0,0,0,10.81-3.07,18.59,18.59,0,0,0,19.23-.7,21,21,0,0,0,11.86,1.16,32.64,32.64,0,0,0,1.1-5.07,15.77,15.77,0,0,1-12.09-.68,2.26,2.26,0,0,0-2.36.14c-8.92,6.15-16,.87-16.3.65a2.27,2.27,0,0,0-2.68-.1c-10.1,6.87-18.49.39-18.84.12a2.28,2.28,0,0,0-2.22-.37c-4.14,1.55-7.63,1.65-10.39.32a7.79,7.79,0,0,1-1.13-.66,33.45,33.45,0,0,0,1.14,5.51A17.9,17.9,0,0,0,211.93,185.1Z"/><path class="a99ab0d5-d6a2-4447-b7af-830a1f69df6e" d="M223,203.08A20.85,20.85,0,0,0,233.81,200a18.57,18.57,0,0,0,19.23-.7,20.66,20.66,0,0,0,2.89.93,33.87,33.87,0,0,0,3.58-4,16.4,16.4,0,0,1-5.6-1.53,2.28,2.28,0,0,0-2.36.13c-8.92,6.16-16,.87-16.3.65a2.27,2.27,0,0,0-2.68-.09c-10.1,6.87-18.49.39-18.84.11a2.28,2.28,0,0,0-2.22-.36,19.18,19.18,0,0,1-4.89,1.17,33.25,33.25,0,0,0,3.61,4c.56-.14,1.12-.3,1.7-.48A20.5,20.5,0,0,0,223,203.08Z"/><path class="fa2be5e9-4add-48ce-a2a6-cee3e0a1f508" d="M225.65,133.64h14.76a0,0,0,0,1,0,0V144a2.79,2.79,0,0,1-2.79,2.79h-9.18a2.79,2.79,0,0,1-2.79-2.79V133.64A0,0,0,0,1,225.65,133.64Z"/><ellipse class="b52f5f7d-d104-41ea-b2c9-c6e50df840e8" cx="233.03" cy="133.74" rx="7.38" ry="1.74"/><path class="aa9dc5bc-91ad-4ad0-a87e-a475789d1131" d="M233,132.61c4.06,0,6.53.77,6.77,1.17v9.55a2.82,2.82,0,0,1-2.82,2.82h-7.89a2.82,2.82,0,0,1-2.82-2.82V133.8c.27-.43,2.74-1.19,6.76-1.19m0-.61c-3.93,0-7.13.72-7.36,1.64h0v9.69a3.44,3.44,0,0,0,3.44,3.43H237a3.44,3.44,0,0,0,3.44-3.43v-9.69h0c-.22-.92-3.43-1.64-7.36-1.64Z"/><line class="e4a9720a-fe2f-40b0-b51d-69207cfac55e" x1="228.13" y1="136.64" x2="228.13" y2="143.56"/><path class="e4a9720a-fe2f-40b0-b51d-69207cfac55e" d="M239,133.89s-.89.71-4.12.73"/><path class="b08503c7-4801-471b-97e9-2c4a6fa31a7a" d="M259.89,169.11s3.07,24.3-22,35.07"/><circle class="bf4bde38-e34d-4f22-ac8b-e83073424af9" cx="1324.32" cy="162.17" r="34.54"/><circle class="f3874435-58ad-43db-afb1-cf7f1d1b649d" cx="1324.32" cy="162.17" r="34.54"/><circle class="a3f57f11-a41c-4734-9d2a-a58ac47042ee" cx="1324.32" cy="162.17" r="34.55" transform="translate(-0.81 6.73) rotate(-0.29)"/><path class="f3874435-58ad-43db-afb1-cf7f1d1b649d" d="M1341.51,132.2,1290.77,154a33.47,33.47,0,0,0-.92,6.12l56.73-24.32A35.24,35.24,0,0,0,1341.51,132.2Z"/><path class="f3874435-58ad-43db-afb1-cf7f1d1b649d" d="M1354.92,146.13l-63.3,27.15a34.49,34.49,0,0,0,2.06,4.84L1357,151A34.46,34.46,0,0,0,1354.92,146.13Z"/><path class="f3874435-58ad-43db-afb1-cf7f1d1b649d" d="M1328.61,127.9l-32.08,13.75a34.57,34.57,0,0,0-4.22,7.54L1337,130A34,34,0,0,0,1328.61,127.9Z"/><path class="f3874435-58ad-43db-afb1-cf7f1d1b649d" d="M1303.67,134.48l14.81-6.35A34.25,34.25,0,0,0,1303.67,134.48Z"/><path class="f3874435-58ad-43db-afb1-cf7f1d1b649d" d="M1349.56,138.59l-59.72,25.61a34.25,34.25,0,0,0,.75,5.4L1353,142.85A35,35,0,0,0,1349.56,138.59Z"/><path class="f3874435-58ad-43db-afb1-cf7f1d1b649d" d="M1358,154.63l-62.42,26.77a35,35,0,0,0,3.4,4.27L1358.8,160A34.42,34.42,0,0,0,1358,154.63Z"/><path class="f3874435-58ad-43db-afb1-cf7f1d1b649d" d="M1356.39,175l-44.86,19.23a34.06,34.06,0,0,0,8.32,2.16l32.37-13.88A34.17,34.17,0,0,0,1356.39,175Z"/><path class="f3874435-58ad-43db-afb1-cf7f1d1b649d" d="M1329.74,196.29a34.37,34.37,0,0,0,15.54-6.67Z"/><path class="f3874435-58ad-43db-afb1-cf7f1d1b649d" d="M1358.81,164.14,1302,188.51a35,35,0,0,0,5,3.56l50.88-21.82A35,35,0,0,0,1358.81,164.14Z"/><path class="b8147c30-066c-4eda-ae99-52c8294290d8" d="M1324.32,127.62a34.1,34.1,0,0,0-5.84.51l-14.81,6.35a34.91,34.91,0,0,0-7.14,7.17l32.08-13.75A33.72,33.72,0,0,0,1324.32,127.62Z"/><path class="b8147c30-066c-4eda-ae99-52c8294290d8" d="M1337,130l-44.68,19.16a33.6,33.6,0,0,0-1.54,4.77l50.74-21.76A35.41,35.41,0,0,0,1337,130Z"/><path class="b8147c30-066c-4eda-ae99-52c8294290d8" d="M1346.58,135.76l-56.73,24.32c0,.69-.07,1.39-.07,2.09s0,1.36.06,2l59.72-25.61A34.62,34.62,0,0,0,1346.58,135.76Z"/><path class="b8147c30-066c-4eda-ae99-52c8294290d8" d="M1353,142.85l-62.38,26.75a32.27,32.27,0,0,0,1,3.68l63.3-27.15A33.73,33.73,0,0,0,1353,142.85Z"/><path class="b8147c30-066c-4eda-ae99-52c8294290d8" d="M1357,151l-63.32,27.16a37.17,37.17,0,0,0,1.94,3.28L1358,154.63A35,35,0,0,0,1357,151Z"/><path class="b8147c30-066c-4eda-ae99-52c8294290d8" d="M1358.87,162.17c0-.72,0-1.43-.07-2.14L1299,185.67a34.68,34.68,0,0,0,3,2.84l56.82-24.37C1358.85,163.49,1358.87,162.83,1358.87,162.17Z"/><path class="b8147c30-066c-4eda-ae99-52c8294290d8" d="M1357.91,170.25,1307,192.07a34.58,34.58,0,0,0,4.5,2.18L1356.39,175A33.53,33.53,0,0,0,1357.91,170.25Z"/><path class="b8147c30-066c-4eda-ae99-52c8294290d8" d="M1352.22,182.53l-32.37,13.88a34.83,34.83,0,0,0,4.47.3,35.72,35.72,0,0,0,5.42-.42l15.54-6.67A34.8,34.8,0,0,0,1352.22,182.53Z"/><path class="af5171d9-af29-4683-893e-27aeadf89c84" d="M1319.55,118.69h9.54a2.79,2.79,0,0,1,2.79,2.79v10.65a0,0,0,0,1,0,0h-15.12a0,0,0,0,1,0,0V121.48a2.79,2.79,0,0,1,2.79-2.79Z" transform="translate(2648.65 250.83) rotate(-180)"/><ellipse class="ae51dabf-7690-4960-89ef-087bfd0b2808" cx="1324.32" cy="118.8" rx="7.56" ry="1.79"/><path class="aa9dc5bc-91ad-4ad0-a87e-a475789d1131" d="M1324.32,117.64c4.15,0,6.69.79,6.93,1.2v9.78a2.89,2.89,0,0,1-2.89,2.88h-8.09a2.89,2.89,0,0,1-2.89-2.88v-9.76c.29-.44,2.81-1.22,6.93-1.22m0-.63c-4,0-7.3.75-7.53,1.68h0v9.93a3.52,3.52,0,0,0,3.52,3.51h8.09a3.52,3.52,0,0,0,3.52-3.51v-9.93h0c-.23-.93-3.51-1.68-7.54-1.68Z"/><path class="fa958e71-1043-4afe-9e37-caf7c1e5db55" d="M1296.82,155s-3.15,24.88,22.58,35.91"/><line class="b2326030-f843-453c-af39-db55f6b60e85" x1="1329.35" y1="121.76" x2="1329.35" y2="128.85"/><path class="b2326030-f843-453c-af39-db55f6b60e85" d="M1318.2,119s.91.73,4.22.75"/><circle class="fa0adc1d-88dd-4e0c-8775-ab1f18c0725b" cx="1256.37" cy="121.22" r="30.23"/><circle class="e243c46f-6f77-4b8a-85a2-0badc5083375" cx="1256.37" cy="121.22" r="30.23"/><circle class="f3874435-58ad-43db-afb1-cf7f1d1b649d" cx="1256.37" cy="121.22" r="30.23"/><circle class="aacb01af-1410-4017-a62a-1017ac8eb8a6" cx="1256.37" cy="121.22" r="30.23" transform="translate(1128.78 1376.96) rotate(-89.71)"/><path class="f3874435-58ad-43db-afb1-cf7f1d1b649d" d="M1274.3,142a16.66,16.66,0,0,1-17.23.63,18.77,18.77,0,0,1-9.69,2.75,18.42,18.42,0,0,1-9.93-2.91c-.51.17-1,.31-1.52.44a29.81,29.81,0,0,0,41-.08A19,19,0,0,1,1274.3,142Z"/><path class="f3874435-58ad-43db-afb1-cf7f1d1b649d" d="M1239.07,138.65c.31.25,7.83,6.06,16.88-.1a2,2,0,0,1,2.41.08c.25.2,6.61,4.94,14.61-.58a2,2,0,0,1,2.12-.12,14.7,14.7,0,0,0,5,1.38,29.86,29.86,0,0,0,4.84-9.44,18.71,18.71,0,0,1-10.64-1,16.66,16.66,0,0,1-17.23.63,18.77,18.77,0,0,1-9.69,2.75,18.42,18.42,0,0,1-9.93-2.91,16,16,0,0,1-9.68.45,29.8,29.8,0,0,0,4.93,9.63,17.53,17.53,0,0,0,4.38-1A2,2,0,0,1,1239.07,138.65Z"/><path class="f3874435-58ad-43db-afb1-cf7f1d1b649d" d="M1239.07,99c.31.25,7.83,6.06,16.88-.1a2,2,0,0,1,2.41.09c.25.19,6.61,4.93,14.61-.59a2,2,0,0,1,2.12-.12,7.44,7.44,0,0,0,.82.37,29.82,29.82,0,0,0-39.28.18l.45-.15A2,2,0,0,1,1239.07,99Z"/><path class="f3874435-58ad-43db-afb1-cf7f1d1b649d" d="M1237.08,125.12a2,2,0,0,1,2,.32c.31.25,7.83,6.06,16.88-.1a2,2,0,0,1,2.41.08c.25.2,6.61,4.94,14.61-.58a2,2,0,0,1,2.12-.12,14.19,14.19,0,0,0,10.84.61,30.94,30.94,0,0,0,.29-4.11,30.13,30.13,0,0,0-.39-4.78,18.48,18.48,0,0,1-11.53-.82,16.66,16.66,0,0,1-17.23.63,18.77,18.77,0,0,1-9.69,2.75,18.42,18.42,0,0,1-9.93-2.91c-3.94,1.28-7.46,1.33-10.5.17a30.09,30.09,0,0,0-.42,5,30.48,30.48,0,0,0,.22,3.59,6.79,6.79,0,0,0,1,.59C1230.23,126.6,1233.37,126.5,1237.08,125.12Z"/><path class="f3874435-58ad-43db-afb1-cf7f1d1b649d" d="M1237.08,111.91a2,2,0,0,1,2,.32c.31.25,7.83,6.06,16.88-.1a2.06,2.06,0,0,1,2.41.08c.25.2,6.61,4.94,14.61-.58a2,2,0,0,1,2.12-.12,14.4,14.4,0,0,0,9.82,1,29.46,29.46,0,0,0-4.32-8.67,19.87,19.87,0,0,1-6.29-1.39,16.66,16.66,0,0,1-17.23.63,18.77,18.77,0,0,1-9.69,2.75,18.42,18.42,0,0,1-9.93-2.91,19.19,19.19,0,0,1-5.35,1,30,30,0,0,0-4.2,8.38C1230.35,113.38,1233.43,113.27,1237.08,111.91Z"/><path class="fd064672-c115-45fb-8b84-a5dc8634e500" d="M1247.38,105.79a18.77,18.77,0,0,0,9.69-2.75,16.66,16.66,0,0,0,17.23-.63,19.87,19.87,0,0,0,6.29,1.39,29.6,29.6,0,0,0-4.68-5.13,7.44,7.44,0,0,1-.82-.37,2,2,0,0,0-2.12.12c-8,5.52-14.36.78-14.61.59a2,2,0,0,0-2.41-.09c-9,6.16-16.57.35-16.88.1a2,2,0,0,0-2-.32l-.45.15a30,30,0,0,0-4.53,5,19.19,19.19,0,0,0,5.35-1A18.42,18.42,0,0,0,1247.38,105.79Z"/><path class="fd064672-c115-45fb-8b84-a5dc8634e500" d="M1237.45,116.09a18.42,18.42,0,0,0,9.93,2.91,18.77,18.77,0,0,0,9.69-2.75,16.66,16.66,0,0,0,17.23-.63,18.48,18.48,0,0,0,11.53.82,30.55,30.55,0,0,0-.92-4,14.4,14.4,0,0,1-9.82-1,2,2,0,0,0-2.12.12c-8,5.52-14.36.78-14.61.58a2.06,2.06,0,0,0-2.41-.08c-9,6.16-16.57.35-16.88.1a2,2,0,0,0-2-.32c-3.65,1.36-6.73,1.47-9.18.34a29.63,29.63,0,0,0-1,4C1230,117.42,1233.51,117.37,1237.45,116.09Z"/><path class="fd064672-c115-45fb-8b84-a5dc8634e500" d="M1237.45,129.3a18.42,18.42,0,0,0,9.93,2.91,18.77,18.77,0,0,0,9.69-2.75,16.66,16.66,0,0,0,17.23-.63,18.71,18.71,0,0,0,10.64,1,30.78,30.78,0,0,0,1-4.54,14.19,14.19,0,0,1-10.84-.61,2,2,0,0,0-2.12.12c-8,5.52-14.36.78-14.61.58a2,2,0,0,0-2.41-.08c-9,6.16-16.57.35-16.88.1a2,2,0,0,0-2-.32c-3.71,1.38-6.85,1.48-9.31.28a6.79,6.79,0,0,1-1-.59,31.14,31.14,0,0,0,1,4.94A16,16,0,0,0,1237.45,129.3Z"/><path class="fd064672-c115-45fb-8b84-a5dc8634e500" d="M1247.38,145.42a18.77,18.77,0,0,0,9.69-2.75,16.66,16.66,0,0,0,17.23-.63,19,19,0,0,0,2.59.83,30.09,30.09,0,0,0,3.21-3.56,14.7,14.7,0,0,1-5-1.38,2,2,0,0,0-2.12.12c-8,5.52-14.36.78-14.61.58a2,2,0,0,0-2.41-.08c-9,6.16-16.57.35-16.88.1a2,2,0,0,0-2-.32,17.53,17.53,0,0,1-4.38,1,30.35,30.35,0,0,0,3.23,3.57c.5-.13,1-.27,1.52-.44A18.42,18.42,0,0,0,1247.38,145.42Z"/><path class="a2212eea-c451-48f6-9276-77f673623cdb" d="M1249.75,83.17H1263a0,0,0,0,1,0,0v9a2.79,2.79,0,0,1-2.79,2.79h-7.65a2.79,2.79,0,0,1-2.79-2.79v-9A0,0,0,0,1,1249.75,83.17Z"/><ellipse class="e2e61563-5fa3-45c1-aab0-f65c6e9aca3b" cx="1256.37" cy="83.26" rx="6.62" ry="1.56"/><path class="aa9dc5bc-91ad-4ad0-a87e-a475789d1131" d="M1256.37,82.25c3.63,0,5.85.69,6.06,1h0v8.54a2.53,2.53,0,0,1-2.53,2.53h-7.08a2.52,2.52,0,0,1-2.52-2.53V83.32c.24-.39,2.45-1.07,6.06-1.07m0-.55c-3.52,0-6.39.65-6.6,1.47h0v8.68a3.08,3.08,0,0,0,3.08,3.08h7.08a3.08,3.08,0,0,0,3.08-3.08V83.17h0c-.2-.82-3.07-1.47-6.6-1.47Z"/><line class="fa55eff0-86df-447a-b741-9c9750fa408d" x1="1251.97" y1="85.86" x2="1251.97" y2="92.06"/><path class="fa55eff0-86df-447a-b741-9c9750fa408d" d="M1261.73,83.39s-.8.64-3.69.66"/><path class="ea4d508d-cb26-4524-b814-af48076e3485" d="M1280.44,115s2.76,21.78-19.76,31.43"/></g></g></svg>