<svg xmlns="http://www.w3.org/2000/svg" xmlns:xlink="http://www.w3.org/1999/xlink" viewBox="0 0 287.33 461.46"><defs><style>.a3c2ab84-0aa3-4700-a0c6-3623ed114458,.efd7572c-9b6a-4c5e-8929-f5f2d756a4bc{fill:none;}.fa4406c9-c290-4bdb-8481-05915482d254{fill:#fcdebe;}.a3c2ab84-0aa3-4700-a0c6-3623ed114458,.a8b05ebe-8736-46eb-91a4-226b5a1aa11c,.ae0d40c1-620c-40b7-91d4-1551c7076976,.af860ee6-de5f-4c0c-8e63-5761f0d950b2,.f94ae4a6-e38a-4d7c-a785-8f7f67fb2d4a,.fa4406c9-c290-4bdb-8481-05915482d254{stroke:#40220f;stroke-miterlimit:10;stroke-width:5.93px;}.afa4a387-f7c8-42bf-9d41-ad5819788e9b{fill:#fff;}.a18a8a34-fcd0-4ada-aaf0-31a01f1fa4c3{clip-path:url(#f8a3ea60-1794-451e-9048-91177f4ce894);}.ff3bbe45-dd6f-4918-bc7a-e37f677206f9{fill:#786d60;}.f5d56a6f-0e57-4817-ac4c-77b98c1e613f{clip-path:url(#affb412e-a778-4602-b4fa-4ddd46a9bd7a);}.ae0d40c1-620c-40b7-91d4-1551c7076976{fill:#a79a89;}.ab651a04-2a8f-415d-add5-466c69cb044a{fill:#fff89e;}.af860ee6-de5f-4c0c-8e63-5761f0d950b2{fill:#efddc4;}.f94ae4a6-e38a-4d7c-a785-8f7f67fb2d4a{fill:#fdeacf;}.bde21b99-e6d4-4bf0-97c3-698d669e1a9a{fill:#564438;}.b0859b05-70ff-4e27-8687-72f17f34a464{fill:#fddb93;}.e5aeb194-baa8-48b6-8c5f-f00e4ddef921{fill:#40220f;}.e527d674-5fd7-4bab-8c8f-783cf49c4f68{fill:#d53533;}.feb18fdb-8b26-4872-8f3e-ff1930c7dc22{fill:#ef8889;}.a8b05ebe-8736-46eb-91a4-226b5a1aa11c{fill:url(#e4d7a184-599f-443b-a1bf-d66e6add3ff0);}.f2ac5f38-7aa3-48ec-b0d0-d88210c346de{fill:#f39800;}.bfca9f36-dced-43fa-b616-4a9361afcc28{fill:#dbcbb4;}</style><clipPath id="f8a3ea60-1794-451e-9048-91177f4ce894"><path class="efd7572c-9b6a-4c5e-8929-f5f2d756a4bc" d="M171.5,312.55h28.42a15,15,0,0,1,15,15v121.8a9.17,9.17,0,0,1-9.17,9.17h-40a9.17,9.17,0,0,1-9.17-9.17V327.53A15,15,0,0,1,171.5,312.55Z"/></clipPath><clipPath id="affb412e-a778-4602-b4fa-4ddd46a9bd7a"><path class="efd7572c-9b6a-4c5e-8929-f5f2d756a4bc" d="M36.88,312.55h40a9.17,9.17,0,0,1,9.17,9.17v121.8a15,15,0,0,1-15,15H42.69a15,15,0,0,1-15-15V321.72a9.17,9.17,0,0,1,9.17-9.17Z" transform="translate(113.8 771.04) rotate(180)"/></clipPath><radialGradient id="e4d7a184-599f-443b-a1bf-d66e6add3ff0" cx="8.72" cy="538.49" r="79.5" gradientTransform="matrix(0.99, 0.15, -0.15, 0.99, 237.07, -240.42)" gradientUnits="userSpaceOnUse"><stop offset="0" stop-color="#fff"/><stop offset="0.61" stop-color="#ffe600"/><stop offset="1" stop-color="#f8b417"/></radialGradient></defs><title>小貓</title><g id="a9fbb548-3f51-468c-9552-b3343bbd7135" data-name="圖層 2"><g id="b010ef8d-7b29-404a-8c5e-20e3744ab213" data-name="圖層 1"><path class="fa4406c9-c290-4bdb-8481-05915482d254" d="M270.09,311.17c12.24-6.18,17.65-20.37,12.08-31.95-5.65-11.73-20.42-16.33-33-10.28-.43.21-.84.42-1.25.65l-64,30.79,20.42,42.44,65.72-31.64Z"/><circle class="afa4a387-f7c8-42bf-9d41-ad5819788e9b" cx="259.62" cy="290.2" r="15.23"/><path class="fa4406c9-c290-4bdb-8481-05915482d254" d="M182.32,312.55h6.77a25.8,25.8,0,0,1,25.8,25.8V438.5a20,20,0,0,1-20,20H176.51a20,20,0,0,1-20-20V338.35A25.8,25.8,0,0,1,182.32,312.55Z"/><g class="a18a8a34-fcd0-4ada-aaf0-31a01f1fa4c3"><rect class="ff3bbe45-dd6f-4918-bc7a-e37f677206f9" x="197.91" y="346.96" width="17.8" height="53.7" rx="4.57" transform="translate(580.62 167.01) rotate(90)"/><rect class="ff3bbe45-dd6f-4918-bc7a-e37f677206f9" x="197.91" y="374.33" width="17.8" height="53.7" rx="4.57" transform="translate(607.98 194.37) rotate(90)"/><rect class="ff3bbe45-dd6f-4918-bc7a-e37f677206f9" x="197.91" y="401.69" width="17.8" height="53.7" rx="4.57" transform="translate(635.35 221.74) rotate(90)"/></g><path class="a3c2ab84-0aa3-4700-a0c6-3623ed114458" d="M171.5,312.55h28.42a15,15,0,0,1,15,15V441.1a17.39,17.39,0,0,1-17.39,17.39H173.92a17.39,17.39,0,0,1-17.39-17.39V327.53A15,15,0,0,1,171.5,312.55Z"/><path class="fa4406c9-c290-4bdb-8481-05915482d254" d="M47.7,312.55H66.1a20,20,0,0,1,20,20V432.69a25.8,25.8,0,0,1-25.8,25.8H53.51a25.8,25.8,0,0,1-25.8-25.8V332.54a20,20,0,0,1,20-20Z" transform="translate(113.8 771.04) rotate(180)"/><g class="f5d56a6f-0e57-4817-ac4c-77b98c1e613f"><rect class="ff3bbe45-dd6f-4918-bc7a-e37f677206f9" x="26.9" y="346.96" width="17.8" height="53.7" rx="4.57" transform="translate(409.62 338.01) rotate(90)"/><rect class="ff3bbe45-dd6f-4918-bc7a-e37f677206f9" x="26.9" y="374.33" width="17.8" height="53.7" rx="4.57" transform="translate(436.98 365.37) rotate(90)"/><rect class="ff3bbe45-dd6f-4918-bc7a-e37f677206f9" x="26.9" y="401.69" width="17.8" height="53.7" rx="4.57" transform="translate(464.35 392.74) rotate(90)"/></g><path class="a3c2ab84-0aa3-4700-a0c6-3623ed114458" d="M45.11,312.55H68.69a17.39,17.39,0,0,1,17.39,17.39V443.51a15,15,0,0,1-15,15H42.69a15,15,0,0,1-15-15V329.94a17.39,17.39,0,0,1,17.39-17.39Z" transform="translate(113.8 771.04) rotate(180)"/><circle class="fa4406c9-c290-4bdb-8481-05915482d254" cx="122.53" cy="327.38" r="94.92"/><circle class="afa4a387-f7c8-42bf-9d41-ad5819788e9b" cx="122.53" cy="313.14" r="63.18"/><path class="ae0d40c1-620c-40b7-91d4-1551c7076976" d="M154.56,8.22,121.87,64.83A10.51,10.51,0,0,0,131,80.59h65.36a10.5,10.5,0,0,0,9.1-15.76L172.76,8.22A10.5,10.5,0,0,0,154.56,8.22Z"/><path class="ab651a04-2a8f-415d-add5-466c69cb044a" d="M157.23,38.74,140.39,67.9A7.43,7.43,0,0,0,146.82,79H180.5a7.42,7.42,0,0,0,6.42-11.14L170.09,38.74A7.42,7.42,0,0,0,157.23,38.74Z"/><path class="af860ee6-de5f-4c0c-8e63-5761f0d950b2" d="M71.05,8.22,38.37,64.83a10.51,10.51,0,0,0,9.11,15.76h65.36a10.5,10.5,0,0,0,9.1-15.76L89.26,8.22A10.51,10.51,0,0,0,71.05,8.22Z"/><path class="ab651a04-2a8f-415d-add5-466c69cb044a" d="M73.73,38.74,56.89,67.9A7.43,7.43,0,0,0,63.32,79H97a7.42,7.42,0,0,0,6.42-11.14L86.59,38.74A7.42,7.42,0,0,0,73.73,38.74Z"/><path class="f94ae4a6-e38a-4d7c-a785-8f7f67fb2d4a" d="M230.24,106.51c-2.12-26.41-22-46.66-45.75-46.66H59.27c-23.78,0-43.63,20.25-45.75,46.66L3.15,235.63c-2.4,30,18.77,55.79,45.75,55.79h146c27,0,48.16-25.82,45.75-55.79Z"/><path class="bde21b99-e6d4-4bf0-97c3-698d669e1a9a" d="M125.09,214.52l11.82-17.27a3.89,3.89,0,0,0-3.21-6.09H110.07a3.89,3.89,0,0,0-3.21,6.09l11.81,17.27A3.89,3.89,0,0,0,125.09,214.52Z"/><path class="b0859b05-70ff-4e27-8687-72f17f34a464" d="M80.16,212.12a55.28,55.28,0,0,0-70.86-53L3.15,235.63A55.85,55.85,0,0,0,8.71,265a55.3,55.3,0,0,0,71.45-52.87Z"/><path class="b0859b05-70ff-4e27-8687-72f17f34a464" d="M240.61,235.63l-6.14-76.54a55.27,55.27,0,1,0,.58,105.9A55.76,55.76,0,0,0,240.61,235.63Z"/><circle class="e5aeb194-baa8-48b6-8c5f-f00e4ddef921" cx="73.73" cy="178.7" r="15.03"/><circle class="e5aeb194-baa8-48b6-8c5f-f00e4ddef921" cx="170.04" cy="178.7" r="15.03"/><circle class="afa4a387-f7c8-42bf-9d41-ad5819788e9b" cx="68.49" cy="175.14" r="5.24"/><circle class="afa4a387-f7c8-42bf-9d41-ad5819788e9b" cx="164.79" cy="175.14" r="5.24"/><rect class="e5aeb194-baa8-48b6-8c5f-f00e4ddef921" x="179.96" y="213.19" width="47.52" height="4.89" rx="1.26"/><rect class="e5aeb194-baa8-48b6-8c5f-f00e4ddef921" x="179.96" y="196.28" width="47.52" height="4.89" rx="1.26" transform="translate(-35.29 44.24) rotate(-11.41)"/><rect class="e5aeb194-baa8-48b6-8c5f-f00e4ddef921" x="179.96" y="230.09" width="47.52" height="4.89" rx="1.26" transform="translate(357.4 500.79) rotate(-168.59)"/><rect class="e5aeb194-baa8-48b6-8c5f-f00e4ddef921" x="14.62" y="213.19" width="47.52" height="4.89" rx="1.26" transform="translate(76.76 431.27) rotate(180)"/><rect class="e5aeb194-baa8-48b6-8c5f-f00e4ddef921" x="14.62" y="196.28" width="47.52" height="4.89" rx="1.26" transform="translate(36.68 401.13) rotate(-168.59)"/><rect class="e5aeb194-baa8-48b6-8c5f-f00e4ddef921" x="14.62" y="230.09" width="47.52" height="4.89" rx="1.26" transform="translate(-45.25 12.19) rotate(-11.41)"/><rect class="ff3bbe45-dd6f-4918-bc7a-e37f677206f9" x="85.62" y="57.48" width="17.8" height="53.7" rx="4.57"/><rect class="ff3bbe45-dd6f-4918-bc7a-e37f677206f9" x="112.98" y="57.48" width="17.8" height="53.7" rx="4.57"/><rect class="ff3bbe45-dd6f-4918-bc7a-e37f677206f9" x="140.35" y="57.48" width="17.8" height="53.7" rx="4.57"/><path class="a3c2ab84-0aa3-4700-a0c6-3623ed114458" d="M230.24,106.51c-2.12-26.41-22-46.66-45.75-46.66H59.27c-23.78,0-43.63,20.25-45.75,46.66L3.15,235.63c-2.4,30,18.77,55.79,45.75,55.79h146c27,0,48.16-25.82,45.75-55.79Z"/><path class="e527d674-5fd7-4bab-8c8f-783cf49c4f68" d="M94.2,231.15s10.57-9.59,23.24,1.9c8.22,7.46,12.33-.7,21.93-2.75,6.82-1.46,14.15,2.55,14.14,9.47,0,3.48.23,12.39-13.86,17.73s-30.47,5.47-43.09-5.7S94.2,231.15,94.2,231.15Z"/><path class="feb18fdb-8b26-4872-8f3e-ff1930c7dc22" d="M98.46,252.05s1.63,5.57,16.78,8.51c11,2.12,22.22-2.13,22.22-2.13s7.83-2.41,8.54-6.82c.67-4.13-5.16-6.19-5.16-6.19a36.3,36.3,0,0,0-16.52.24c-8.14,2.26-14,3.75-21.3,2.13C95.19,246.06,98.46,252.05,98.46,252.05Z"/><path class="a8b05ebe-8736-46eb-91a4-226b5a1aa11c" d="M198.65,254.57l4.56,28a14.73,14.73,0,0,0,12.29,12.18l28,4.32c14.09,2.17,17.18,21.1,4.5,27.63l-25.22,13A14.72,14.72,0,0,0,215,355.14l4.56,28c2.29,14.08-14.76,22.86-24.89,12.82l-20.14-20a14.72,14.72,0,0,0-17.1-2.63l-25.22,13c-12.68,6.53-26.3-7-19.88-19.71l12.77-25.33a14.72,14.72,0,0,0-2.79-17.08l-20.14-20c-10.12-10-1.49-27.17,12.61-25l28,4.32a14.72,14.72,0,0,0,15.38-7.92L171,250.31C177.4,237.58,196.36,240.5,198.65,254.57Z"/><path class="f2ac5f38-7aa3-48ec-b0d0-d88210c346de" d="M184.17,256.33a112.59,112.59,0,0,1,5,34.68c0,3.21,4.94,3.21,5,0A117.2,117.2,0,0,0,189,255c-.94-3.05-5.75-1.75-4.8,1.33Z"/><path class="f2ac5f38-7aa3-48ec-b0d0-d88210c346de" d="M241,312.87a62.36,62.36,0,0,1-25,11.27c-3.14.65-1.81,5.45,1.32,4.8a65.55,65.55,0,0,0,26.22-11.77c2.54-1.9.06-6.22-2.51-4.3Z"/><path class="f2ac5f38-7aa3-48ec-b0d0-d88210c346de" d="M199.44,357.47a82,82,0,0,1,4,13.46,72.24,72.24,0,0,1,1.17,8c.1,1.17.17,2.34.22,3.51-.13,1.89-.07,2.32.19,1.3l3-.39-.34-.2,1.23,2.15,0-.43-1.83,2.4.27-.08c3.08-.88,1.77-5.69-1.32-4.8l-.28.08a2.54,2.54,0,0,0-1.83,2.4,3,3,0,0,0,1.61,2.78,2.56,2.56,0,0,0,3-.39c2.78-2.88,1.06-9,.58-12.49a82.3,82.3,0,0,0-4.9-18.65c-1.15-3-6-1.67-4.8,1.32Z"/><path class="afa4a387-f7c8-42bf-9d41-ad5819788e9b" d="M114.44,295.67c3.21,0,3.21-5,0-5s-3.21,5,0,5Z"/><path class="afa4a387-f7c8-42bf-9d41-ad5819788e9b" d="M112.42,294.58a86,86,0,0,0,18.48,16.84c2.66,1.81,5.15-2.51,2.51-4.3a81.53,81.53,0,0,1-17.47-16.06c-2-2.48-5.53,1.06-3.52,3.52Z"/><path class="afa4a387-f7c8-42bf-9d41-ad5819788e9b" d="M127.73,376a39.17,39.17,0,0,0,22.58-11.42c2.25-2.29-1.27-5.81-3.53-3.52a34.81,34.81,0,0,1-20.37,10.14c-3.17.44-1.82,5.24,1.32,4.8Z"/><path class="f94ae4a6-e38a-4d7c-a785-8f7f67fb2d4a" d="M113.41,306.85l-70.73-15a20.55,20.55,0,0,0-24,14.43h0a20.54,20.54,0,0,0,12.69,24.95l67.9,24.84a25.68,25.68,0,0,0,33.5-17h0A25.69,25.69,0,0,0,113.41,306.85Z"/><path class="bfca9f36-dced-43fa-b616-4a9361afcc28" d="M129.34,336.23s-11.75,11.16-32.24,4.49-65.32-22.35-65.32-22.35-9-2.58-7.36-14.66c0,0-8.39,13.07,5.65,22.77l69.8,25.61S121.33,361,129.34,336.23Z"/></g></g></svg>