<svg xmlns="http://www.w3.org/2000/svg" xmlns:xlink="http://www.w3.org/1999/xlink" viewBox="0 0 111.49 126.92"><defs><style>.ba4f757a-246e-4fbb-a18f-8e6f32f1dd3f{isolation:isolate;}.ac3f0977-9931-43d4-9480-5d87d259eb68{fill:url(#b78d6b65-4d77-4ed9-b2f8-7a7f14e332c8);}.eb67a922-444d-4556-aff2-21e1e11f8832{opacity:0.7;mix-blend-mode:soft-light;}.b4afcb28-a322-4dd2-bebf-0ecb59473eb1{fill:#fff;}.e4df057c-31c4-4038-8073-b3a9ef1430f3{fill:url(#a193c296-983d-4562-a508-dd0a751c60fb);}.b44b2de3-b052-49d7-8f5f-b07d9c6a3f66{fill:url(#ee5f4454-5ad9-4f1c-a4a7-bc929f588152);}.a0822d73-ef76-4551-bfab-39aefb464ae9{fill:#949495;}</style><radialGradient id="b78d6b65-4d77-4ed9-b2f8-7a7f14e332c8" cx="14.52" cy="38.8" r="70.16" gradientTransform="translate(29.79 8.38) scale(0.97 0.98)" gradientUnits="userSpaceOnUse"><stop offset="0" stop-color="#fff"/><stop offset="0.04" stop-color="#f9e7ea"/><stop offset="0.15" stop-color="#ebaeb6"/><stop offset="0.26" stop-color="#df7d89"/><stop offset="0.36" stop-color="#d55564"/><stop offset="0.47" stop-color="#cd3548"/><stop offset="0.57" stop-color="#c71f33"/><stop offset="0.66" stop-color="#c41227"/><stop offset="0.75" stop-color="#c30d23"/><stop offset="0.96" stop-color="#950012"/></radialGradient><linearGradient id="a193c296-983d-4562-a508-dd0a751c60fb" x1="44.01" y1="16.6" x2="67.48" y2="16.6" gradientUnits="userSpaceOnUse"><stop offset="0" stop-color="#b8b8b9"/><stop offset="0.42" stop-color="#fff"/><stop offset="0.69" stop-color="#dcdddd"/><stop offset="1" stop-color="#acadae"/></linearGradient><radialGradient id="ee5f4454-5ad9-4f1c-a4a7-bc929f588152" cx="26.53" cy="-1.05" r="12.67" gradientTransform="translate(29.79 7.66) scale(0.97 0.29)" gradientUnits="userSpaceOnUse"><stop offset="0" stop-color="#fff"/><stop offset="0.78" stop-color="#7d7d7d"/></radialGradient></defs><title>圓形</title><g class="ba4f757a-246e-4fbb-a18f-8e6f32f1dd3f"><g id="bb2b56c1-b350-460d-a971-55eb3cddddab" data-name="圖層 2"><g id="f98b602b-3f9a-4c1b-969b-15a1e2b34d7a" data-name="圖層 1"><ellipse class="ac3f0977-9931-43d4-9480-5d87d259eb68" cx="55.75" cy="71.05" rx="50.89" ry="51.01"/><g class="eb67a922-444d-4556-aff2-21e1e11f8832"><path class="b4afcb28-a322-4dd2-bebf-0ecb59473eb1" d="M95.89,39.69a51.06,51.06,0,0,0-8.61-5.24,56.64,56.64,0,0,0-3.11-5.72A42.82,42.82,0,0,1,91.73,35,43.25,43.25,0,0,1,95.89,39.69Z"/><path class="b4afcb28-a322-4dd2-bebf-0ecb59473eb1" d="M104.29,55.71c-4-1.06-6.19-1.54-10.71-2.37-.58-2.86-.93-4.26-1.72-7A84.66,84.66,0,0,1,102,49.74,40.93,40.93,0,0,1,104.29,55.71Z"/><path class="b4afcb28-a322-4dd2-bebf-0ecb59473eb1" d="M106.53,74.42c-4.26.22-6.53.32-11.28.5a76.85,76.85,0,0,0,0-7.74c4.75.18,7,.28,11.28.5A44.6,44.6,0,0,1,106.53,74.42Z"/><path class="b4afcb28-a322-4dd2-bebf-0ecb59473eb1" d="M102,92.36a82.92,82.92,0,0,1-10.13,3.38c.79-2.72,1.14-4.11,1.72-7,4.52-.84,6.68-1.32,10.71-2.38A40.93,40.93,0,0,1,102,92.36Z"/><path class="b4afcb28-a322-4dd2-bebf-0ecb59473eb1" d="M91.73,107.12a42.82,42.82,0,0,1-7.56,6.25,56.64,56.64,0,0,0,3.11-5.72,51.06,51.06,0,0,0,8.61-5.24A43.25,43.25,0,0,1,91.73,107.12Z"/></g><path class="e4df057c-31c4-4038-8073-b3a9ef1430f3" d="M44,7.35H67.48a0,0,0,0,1,0,0V23.7a2.15,2.15,0,0,1-2.15,2.15H46.16A2.15,2.15,0,0,1,44,23.7V7.35A0,0,0,0,1,44,7.35Z"/><ellipse class="b44b2de3-b052-49d7-8f5f-b07d9c6a3f66" cx="55.75" cy="7.35" rx="11.74" ry="2.49"/><path class="b4afcb28-a322-4dd2-bebf-0ecb59473eb1" d="M81,46.47a53.32,53.32,0,0,1-4.7,47c-2.82,4.53,4.33,8.68,7.13,4.17A61.31,61.31,0,0,0,89,44.28c-1.82-5-9.81-2.81-8,2.19Z"/><path class="b4afcb28-a322-4dd2-bebf-0ecb59473eb1" d="M71.24,110.43c5.32,0,5.33-8.26,0-8.26s-5.32,8.26,0,8.26Z"/><path class="a0822d73-ef76-4551-bfab-39aefb464ae9" d="M46.73,13.48q-.16,3.63,0,7.26c.07,1.77,2.82,1.78,2.76,0-.09-2.42-.09-4.84,0-7.26.08-1.77-2.67-1.77-2.75,0Z"/><path class="b4afcb28-a322-4dd2-bebf-0ecb59473eb1" d="M55.75,4.86c6.48,0,11.73,1.11,11.73,2.49V21.11c0,.1,0,.2,0,.3a50.89,50.89,0,1,1-23.41,0c0-.1,0-.2,0-.3V7.35C44,6,49.27,4.86,55.75,4.86m0-4.86c-11.17,0-16.6,2.4-16.6,7.35V17.72a55.85,55.85,0,1,0,72.34,53.33A55.83,55.83,0,0,0,72.34,17.72V7.35C72.34,2.4,66.91,0,55.75,0Z"/></g></g></g></svg>