<svg xmlns="http://www.w3.org/2000/svg" viewBox="0 0 77.03 75.5"><defs><style>.a733b124-3e0b-4376-a999-49fae727aa1f{fill:#fff;}</style></defs><title>六3</title><g id="febb5610-3b07-47a7-976e-42e1ff472a30" data-name="圖層 2"><g id="b484fda8-c17a-4102-813f-f306f3f017a5" data-name="圖層 1"><path class="a733b124-3e0b-4376-a999-49fae727aa1f" d="M75.58,35.08,61.34,10.9a10.39,10.39,0,0,0-3-3.24,1.87,1.87,0,0,1,.07-.22,14.7,14.7,0,0,0,1.17-4.61,2.59,2.59,0,0,0-3-2.81,33.82,33.82,0,0,0-13,4.35,2.06,2.06,0,0,0-2-1.55L36,2.87A2.07,2.07,0,0,0,34,4.4,33.87,33.87,0,0,0,21,.33a2.59,2.59,0,0,0-2.9,2.86,15.56,15.56,0,0,0,1.07,4.16,10.34,10.34,0,0,0-4,4L1.36,35.72a10.43,10.43,0,0,0,.09,10.45L15.69,70.36a10.43,10.43,0,0,0,9.09,5.14l28.07-.24a10.44,10.44,0,0,0,9-5.3L75.67,45.53A10.43,10.43,0,0,0,75.58,35.08Z"/></g></g></svg>