<svg xmlns="http://www.w3.org/2000/svg" viewBox="0 0 75.37 81.01"><defs><style>.acf51ad2-530c-42e7-8840-7e187cec8131{fill:#fff;}</style></defs><title>六1</title><g id="ace97655-977b-496c-a5ce-cd01ede3ded7" data-name="圖層 2"><g id="e810fc22-c355-41e0-be7e-cbc78c587555" data-name="圖層 1"><path class="acf51ad2-530c-42e7-8840-7e187cec8131" d="M75,47.48l-7.74-27a10.51,10.51,0,0,0-2.11-3.89,2.14,2.14,0,0,1,.13-.19,14.77,14.77,0,0,0,2.28-4.18,2.59,2.59,0,0,0-2.15-3.45,34,34,0,0,0-13.71,1,2.06,2.06,0,0,0-1.55-2L44.65,6.38a2.06,2.06,0,0,0-2.28,1A33.81,33.81,0,0,0,30.79.18a2.58,2.58,0,0,0-3.52,2,15.46,15.46,0,0,0,0,4.3,10.4,10.4,0,0,0-4.84,2.83L2.93,29.54A10.45,10.45,0,0,0,.41,39.68l7.74,27a10.47,10.47,0,0,0,7.52,7.26L42.9,80.7A10.45,10.45,0,0,0,53,77.81L72.44,57.62A10.45,10.45,0,0,0,75,47.48Z"/></g></g></svg>