<svg xmlns="http://www.w3.org/2000/svg" viewBox="0 0 59.97 60.59"><defs><style>.f465762d-da51-4210-a06e-c0a64485d79e{fill:#fff;}</style></defs><title>六2</title><g id="b7df6d42-85e1-40a2-846f-cd147a0b3f8c" data-name="圖層 2"><g id="a0b6b293-e91d-4d2b-841a-689dafe397b0" data-name="圖層 1"><path class="f465762d-da51-4210-a06e-c0a64485d79e" d="M58.53,26.28,46.1,8.25a8.09,8.09,0,0,0-2.52-2.36,1.36,1.36,0,0,1,0-.17,11.31,11.31,0,0,0,.65-3.66,2,2,0,0,0-2.44-2,26.44,26.44,0,0,0-9.91,4.11,1.61,1.61,0,0,0-1.64-1.1L25.9,3.4a1.62,1.62,0,0,0-1.44,1.3A26.54,26.54,0,0,0,14.11,2.26,2,2,0,0,0,12,4.64a12,12,0,0,0,1.06,3.18,8.17,8.17,0,0,0-2.88,3.3L.79,30.9A8.17,8.17,0,0,0,1.44,39l12.43,18a8.13,8.13,0,0,0,7.36,3.5l21.83-1.74a8.15,8.15,0,0,0,6.72-4.63l9.4-19.78A8.14,8.14,0,0,0,58.53,26.28Z"/></g></g></svg>