<svg xmlns="http://www.w3.org/2000/svg" viewBox="0 0 65.48 73.03"><defs><style>.b9f81c5a-8459-476d-b8f5-975b48b3fac2{fill:#fff;}</style></defs><title>六4</title><g id="ff218fe3-cb4e-408d-a1ec-e698e956ff17" data-name="圖層 2"><g id="e6c2e909-af50-44cc-a76a-b4571501a511" data-name="圖層 1"><path class="b9f81c5a-8459-476d-b8f5-975b48b3fac2" d="M61.51,52.52l.94-24.83a9.28,9.28,0,0,0-.7-3.85l.16-.13A13,13,0,0,0,65,20.83a2.29,2.29,0,0,0-.85-3.5,30,30,0,0,0-11.8-3,1.81,1.81,0,0,0-.75-2.11L47.37,9.58a1.8,1.8,0,0,0-2.19.2A30.15,30.15,0,0,0,37.42.53a2.29,2.29,0,0,0-3.52.75,13.56,13.56,0,0,0-1.2,3.61,9.17,9.17,0,0,0-4.85,1l-22,11.6A9.25,9.25,0,0,0,1,25.37L0,50.2a9.24,9.24,0,0,0,4.32,8.18l21,13.23a9.27,9.27,0,0,0,9.25.35l22-11.6A9.24,9.24,0,0,0,61.51,52.52Z"/></g></g></svg>