<svg xmlns="http://www.w3.org/2000/svg" xmlns:xlink="http://www.w3.org/1999/xlink" viewBox="0 0 133.42 139.7"><defs><style>.a53620f8-352a-4d82-8ecf-69355746bb3e{fill:none;}.b53418db-3d37-4b35-b79b-bcc644d63c3e{fill:#fff;}.a1c5f5d3-e9eb-4e4a-bcb3-c66d68fedf34{fill:#9773b1;}.e068c418-370a-40e8-94e6-66d33ecd3251{clip-path:url(#f77c9abb-3e38-4329-9f9a-1c53d5b9c1c1);}.fe072dda-4a56-4acb-b56b-20451147cb72{fill:#c4a9d0;}.adeda7ea-f62e-4fe5-a8ea-827f936ee1c2,.b1af725d-1c2f-4a7c-aeb5-9732bb9f012d,.b91d55ed-9397-4044-9295-02ea0178b43a{fill:#6a3b93;}.adeda7ea-f62e-4fe5-a8ea-827f936ee1c2,.b91d55ed-9397-4044-9295-02ea0178b43a{stroke:#4c246c;stroke-width:1.98px;}.adeda7ea-f62e-4fe5-a8ea-827f936ee1c2{stroke-linecap:round;stroke-linejoin:round;}.a0ee010e-44e3-4a98-873d-51a47b87f5c4{fill:#4c246c;}.b91d55ed-9397-4044-9295-02ea0178b43a{stroke-miterlimit:10;}</style><clipPath id="f77c9abb-3e38-4329-9f9a-1c53d5b9c1c1"><path class="a53620f8-352a-4d82-8ecf-69355746bb3e" d="M87.12,13.52H38a9.42,9.42,0,0,0-8.14,4.71L5.27,60.78a9.4,9.4,0,0,0,0,9.4l24.57,42.56a9.41,9.41,0,0,0,8.14,4.7H87.12a9.39,9.39,0,0,0,8.14-4.7l24.57-42.56a9.4,9.4,0,0,0,0-9.4L95.26,18.23A9.4,9.4,0,0,0,87.12,13.52Z"/></clipPath></defs><title>六角</title><g id="b435b567-7815-4a7d-8010-9cd6cbef9c36" data-name="圖層 2"><g id="a507917e-1dc0-4377-8e94-ec21cd259af8" data-name="圖層 1"><path class="b53418db-3d37-4b35-b79b-bcc644d63c3e" d="M90.65,5a3.86,3.86,0,0,1,3.86,4.27,22.12,22.12,0,0,1-1.8,6.88c0,.11-.07.22-.11.32a15.74,15.74,0,0,1,4.46,4.89l21,36.33a15.62,15.62,0,0,1,0,15.62l-21,36.34a15.63,15.63,0,0,1-13.53,7.81H41.58a15.62,15.62,0,0,1-13.53-7.81l-21-36.34a15.62,15.62,0,0,1,0-15.62l21-36.33a15.53,15.53,0,0,1,6-5.86,23.06,23.06,0,0,1-1.53-6.23A3.86,3.86,0,0,1,36.37,5a4.38,4.38,0,0,1,.5,0,50.83,50.83,0,0,1,19.41,6.24A3,3,0,0,1,59.22,9h8.41a3.08,3.08,0,0,1,3,2.34A50.71,50.71,0,0,1,90.14,5a4.38,4.38,0,0,1,.51,0m0-5a8.47,8.47,0,0,0-1.13.07A58.17,58.17,0,0,0,71.7,5.12,8,8,0,0,0,67.63,4H59.22a8,8,0,0,0-4,1.06A58,58,0,0,0,37.5.07,8.47,8.47,0,0,0,36.37,0a8.88,8.88,0,0,0-6.64,3,8.77,8.77,0,0,0-2.17,6.84,31.6,31.6,0,0,0,.63,3.68,20.65,20.65,0,0,0-4.46,5.35l-21,36.34a20.67,20.67,0,0,0,0,20.61l21,36.33a20.68,20.68,0,0,0,17.85,10.3h42a20.68,20.68,0,0,0,17.85-10.3l21-36.33a20.67,20.67,0,0,0,0-20.61l-21-36.34A20.12,20.12,0,0,0,98.46,15a31.35,31.35,0,0,0,1-5.15A8.8,8.8,0,0,0,97.29,3a8.92,8.92,0,0,0-6.64-3Z"/><path class="a1c5f5d3-e9eb-4e4a-bcb3-c66d68fedf34" d="M85,13.52h-45A13,13,0,0,0,28.8,20L6.31,59a13,13,0,0,0,0,13l22.49,39a13,13,0,0,0,11.26,6.5H85a13,13,0,0,0,11.26-6.5l22.49-39a13,13,0,0,0,0-13L96.3,20A13,13,0,0,0,85,13.52Z"/><g class="e068c418-370a-40e8-94e6-66d33ecd3251"><circle class="fe072dda-4a56-4acb-b56b-20451147cb72" cx="39.06" cy="25.89" r="19.1"/><circle class="fe072dda-4a56-4acb-b56b-20451147cb72" cx="71.67" cy="63.69" r="19.1"/><circle class="fe072dda-4a56-4acb-b56b-20451147cb72" cx="101.03" cy="19.24" r="19.1"/><circle class="fe072dda-4a56-4acb-b56b-20451147cb72" cx="114.32" cy="89.24" r="19.1"/><circle class="fe072dda-4a56-4acb-b56b-20451147cb72" cx="59.76" cy="120.6" r="19.1"/><circle class="fe072dda-4a56-4acb-b56b-20451147cb72" cx="22.02" cy="82.8" r="19.1"/></g><path class="b53418db-3d37-4b35-b79b-bcc644d63c3e" d="M49.65,38.75a.62.62,0,0,0,0-1.24.62.62,0,0,0,0,1.24Z"/><path class="adeda7ea-f62e-4fe5-a8ea-827f936ee1c2" d="M56.57,22.64S43.42,34.11,36.36,36.33c0,0,5.33,2.56,10.1.55,0,0-1.73,4.85-4.36,6,0,0,16.69-.56,19.32-19.7Z"/><path class="a0ee010e-44e3-4a98-873d-51a47b87f5c4" d="M57.81,23.77a31.86,31.86,0,0,1-8.05,9.32c-1,.83.42,2.29,1.46,1.47a33.32,33.32,0,0,0,8.38-9.74,1,1,0,0,0-1.79-1.05Z"/><path class="adeda7ea-f62e-4fe5-a8ea-827f936ee1c2" d="M70.28,22.64S83.43,34.11,90.5,36.33c0,0-5.34,2.56-10.11.55,0,0,1.73,4.85,4.36,6,0,0-16.69-.56-19.32-19.7Z"/><path class="a0ee010e-44e3-4a98-873d-51a47b87f5c4" d="M67.25,24.82a33.32,33.32,0,0,0,8.38,9.74c1,.82,2.52-.64,1.47-1.47A31.74,31.74,0,0,1,69,23.77a1,1,0,0,0-1.79,1.05Z"/><path class="b91d55ed-9397-4044-9295-02ea0178b43a" d="M90.14,5C76.35,6.77,68.68,12.24,65.8,14.75a3.87,3.87,0,0,0-1.34,2.92v.53a3.85,3.85,0,0,0,1.34,2.91c2.88,2.51,10.55,8,24.34,9.74a3.87,3.87,0,0,0,4.37-4.23,22.11,22.11,0,0,0-1.8-6.89,4.07,4.07,0,0,1,0-3.6,22.12,22.12,0,0,0,1.8-6.88A3.86,3.86,0,0,0,90.14,5Z"/><path class="a0ee010e-44e3-4a98-873d-51a47b87f5c4" d="M70.15,16.48a27.11,27.11,0,0,1,7.21-2.42,11.22,11.22,0,0,1,3.91-.37c3.37.76.7,2.69-1,3.36-1.23.49-.7,2.5.55,2,2.29-.9,6.88-4.56,3.19-6.93-1.66-1.06-4.35-.48-6.16-.23a28.83,28.83,0,0,0-8.74,2.8c-1.2.59-.15,2.38,1,1.79Z"/><path class="a0ee010e-44e3-4a98-873d-51a47b87f5c4" d="M68.54,20.34c3.85,3,9.9,3.55,14.61,3.25,1.33-.08,1.34-2.16,0-2.07-4.06.25-9.78,0-13.14-2.65-1-.82-2.52.64-1.47,1.47Z"/><path class="adeda7ea-f62e-4fe5-a8ea-827f936ee1c2" d="M61.22,14.75c-2.88-2.51-10.55-8-24.35-9.73a3.85,3.85,0,0,0-4.36,4.23,22.12,22.12,0,0,0,1.8,6.88,4.13,4.13,0,0,1,0,3.6,22.11,22.11,0,0,0-1.8,6.89,3.86,3.86,0,0,0,4.36,4.23c13.8-1.75,21.47-7.23,24.35-9.74a3.87,3.87,0,0,0,1.33-2.91v-.53A3.9,3.9,0,0,0,61.22,14.75ZM42.85,15a1.85,1.85,0,0,1,.39-1.84,2.79,2.79,0,0,1,2-.55,26.29,26.29,0,0,1,12.17,2.93,26.29,26.29,0,0,0-12.17-2.93,2.79,2.79,0,0,0-2,.55A1.85,1.85,0,0,0,42.85,15,3.65,3.65,0,0,0,44,16.64a6.93,6.93,0,0,0,2.51,1.41A6.93,6.93,0,0,1,44,16.64,3.65,3.65,0,0,1,42.85,15Zm13.38,5.51a26.3,26.3,0,0,1-12.36,2,26.3,26.3,0,0,0,12.36-2,4.14,4.14,0,0,0,1.51-.94A4.14,4.14,0,0,1,56.23,20.55Z"/><rect class="b1af725d-1c2f-4a7c-aeb5-9732bb9f012d" x="56.99" y="9.83" width="12.88" height="16.2" rx="1.01"/><path class="a0ee010e-44e3-4a98-873d-51a47b87f5c4" d="M68.85,10.66a.19.19,0,0,1,.18.18V25a.18.18,0,0,1-.18.18H58a.18.18,0,0,1-.18-.18V10.84a.19.19,0,0,1,.18-.18H68.85m0-1.66H58a1.85,1.85,0,0,0-1.84,1.84V25A1.85,1.85,0,0,0,58,26.86H68.85A1.84,1.84,0,0,0,70.69,25V10.84A1.84,1.84,0,0,0,68.85,9Z"/><path class="b53418db-3d37-4b35-b79b-bcc644d63c3e" d="M37.32,7.54A2,2,0,0,0,35.5,9.16a5.05,5.05,0,0,0,1,3.4.62.62,0,0,0,1.07-.63c-.32-.55-1.69-3-.25-3.14.8-.06.8-1.3,0-1.25Z"/><path class="b53418db-3d37-4b35-b79b-bcc644d63c3e" d="M89.67,8.41c1.8.21,1.23,2.12.49,3.16-.46.66.62,1.29,1.08.63a4.33,4.33,0,0,0,.82-3.3,2.46,2.46,0,0,0-2.39-1.74c-.8-.09-.79,1.16,0,1.25Z"/><path class="b53418db-3d37-4b35-b79b-bcc644d63c3e" d="M59.32,21.77a2.59,2.59,0,0,0,.48,1.75,1.49,1.49,0,0,0,1.57.48c.76-.23.44-1.44-.33-1.2-.49.15-.47-.76-.47-1a.63.63,0,0,0-1.25,0Z"/><path class="b53418db-3d37-4b35-b79b-bcc644d63c3e" d="M76.06,37.47a7.63,7.63,0,0,0,1.86,1.9c.65.48,1.27-.6.63-1.07a6.35,6.35,0,0,1-1.42-1.46c-.45-.66-1.53,0-1.07.63Z"/><path class="b53418db-3d37-4b35-b79b-bcc644d63c3e" d="M49.82,38.76a5.61,5.61,0,0,0,3-2.2c.46-.65-.62-1.28-1.08-.63a4.22,4.22,0,0,1-2.3,1.63.62.62,0,0,0,.33,1.2Z"/><path class="b53418db-3d37-4b35-b79b-bcc644d63c3e" d="M106.44,59.25a8.61,8.61,0,0,1,.2,6.16c-.47,1.67-1.28,4.94-2.88,5.9-3.44,2-.31,7.44,3.15,5.38,3.23-1.94,4.76-6.14,5.74-9.63a15.14,15.14,0,0,0-.83-11c-1.72-3.62-7.09-.46-5.38,3.14Z"/><path class="b53418db-3d37-4b35-b79b-bcc644d63c3e" d="M21.48,82.91Q27,94.52,33.3,105.72c2,3.49,7.36.36,5.38-3.14q-6.32-11.2-11.82-22.82c-1.72-3.62-7.1-.46-5.38,3.15Z"/></g></g></svg>