<svg xmlns="http://www.w3.org/2000/svg" viewBox="0 0 105.27 126.35"><defs><style>.eb687900-8ce4-4ba2-aa34-e807dde6bbb6{fill:#6991cb;}.b8795311-492d-4cb2-a2ac-24589709e94f{fill:#546da3;}.f2160b0c-6dcc-46ac-90e9-718650e392be{fill:#76ccf3;}.a7937c20-730a-4a58-8fbf-c61ffd339706{fill:#588dca;}.e7843020-dd0b-46d4-bdba-251079d4e753{fill:#75b3dc;}.a3b9b8ef-d4f3-4274-9b13-25892c5d4e0d{fill:#e6f4fd;}.b965ccbe-39b3-4089-8b29-3d042edefffd{fill:#fff;}</style></defs><title>方形</title><g id="b54f7b1b-b62b-4de7-88fb-b8f7b2145b4c" data-name="圖層 2"><g id="ea3a5177-7035-494f-84cc-8ae17ca1a537" data-name="圖層 1"><path class="eb687900-8ce4-4ba2-aa34-e807dde6bbb6" d="M50.53,25.74a1.05,1.05,0,0,1-.6-.2l-18-12a1.16,1.16,0,0,1-.5-1,1.13,1.13,0,0,1,.65-.95L47.45,4.47a1.1,1.1,0,0,1,.47-.1,1.12,1.12,0,0,1,1.1,1l2.63,19.08a1.12,1.12,0,0,1-.26.91A1.17,1.17,0,0,1,50.53,25.74Z"/><path class="b8795311-492d-4cb2-a2ac-24589709e94f" d="M47.64,6l2.47,17.92L33.25,12.66,47.64,6m.28-3.08a2.61,2.61,0,0,0-1.08.24L31.51,10.26a2.61,2.61,0,0,0-.34,4.52l17.95,12a2.53,2.53,0,0,0,1.41.43,2.59,2.59,0,0,0,2.56-3L50.47,5.15a2.59,2.59,0,0,0-2.55-2.24Z"/><path class="eb687900-8ce4-4ba2-aa34-e807dde6bbb6" d="M55.22,25.74a1.17,1.17,0,0,1-.86-.4,1.11,1.11,0,0,1-.26-.9L56.73,5.35a1.12,1.12,0,0,1,1.1-1,1.1,1.1,0,0,1,.47.1l15.33,7.11a1.13,1.13,0,0,1,.65.95,1.15,1.15,0,0,1-.51,1l-17.95,12a1.05,1.05,0,0,1-.6.2Z"/><path class="b8795311-492d-4cb2-a2ac-24589709e94f" d="M58.11,6,72.5,12.66,55.64,23.91,58.11,6m-.28-3.08a2.59,2.59,0,0,0-2.55,2.24L52.66,24.24a2.59,2.59,0,0,0,2.56,3,2.53,2.53,0,0,0,1.41-.43l17.95-12a2.61,2.61,0,0,0-.34-4.52L58.91,3.15a2.61,2.61,0,0,0-1.08-.24Z"/><rect class="f2160b0c-6dcc-46ac-90e9-718650e392be" x="4.61" y="24.68" width="96.53" height="97.3" rx="18.42"/><path class="a7937c20-730a-4a58-8fbf-c61ffd339706" d="M82.72,26.14a17,17,0,0,1,17,17v60.45a17,17,0,0,1-17,17H23a17,17,0,0,1-17-17V43.11a17,17,0,0,1,17-17H82.72m0-2.91H23A19.88,19.88,0,0,0,3.15,43.11v60.45A19.88,19.88,0,0,0,23,123.44H82.72a19.88,19.88,0,0,0,19.88-19.88V43.11A19.88,19.88,0,0,0,82.72,23.23Z"/><polygon class="eb687900-8ce4-4ba2-aa34-e807dde6bbb6" points="42.97 121.98 42.97 83.32 4.61 83.32 4.61 63.34 42.97 63.34 42.97 24.68 62.78 24.68 62.78 63.34 101.14 63.34 101.14 83.32 62.78 83.32 62.78 121.98 42.97 121.98"/><path class="b8795311-492d-4cb2-a2ac-24589709e94f" d="M61.32,26.14V64.79H99.68V81.87H61.32v38.65H44.43V81.87H6.06V64.79H44.43V26.14H61.32m2.92-2.91H41.51V61.88H3.15v22.9H41.51v38.66H64.24V84.78H102.6V61.88H64.24V23.23Z"/><path class="e7843020-dd0b-46d4-bdba-251079d4e753" d="M90.5,41.59v15a1.82,1.82,0,0,0,3.64,0V56.2a1.82,1.82,0,0,0-3.64,0v.39h3.64v-15a1.82,1.82,0,0,0-3.64,0Z"/><path class="e7843020-dd0b-46d4-bdba-251079d4e753" d="M90.6,100.88c-.43,5.78-3.55,12.14-10,12.47-2.33.12-2.35,3.76,0,3.64,8.65-.45,13.1-8.23,13.69-16.11.18-2.34-3.46-2.32-3.64,0Z"/><path class="e7843020-dd0b-46d4-bdba-251079d4e753" d="M10.84,93.23v12.18a1.82,1.82,0,0,0,3.64,0V93.23a1.82,1.82,0,0,0-3.64,0Z"/><path class="e7843020-dd0b-46d4-bdba-251079d4e753" d="M15.4,45.85c-.12-4.55,4.8-9.65,9.33-9.49,2.34.08,2.34-3.56,0-3.64-6.48-.23-13.15,6.64-13,13.13.07,2.33,3.71,2.34,3.64,0Z"/><path class="a3b9b8ef-d4f3-4274-9b13-25892c5d4e0d" d="M56.23,33.55V54.89h1.82v-.76a.91.91,0,0,0-1.82,0v.76a.91.91,0,0,0,1.82,0V33.55a.91.91,0,0,0-1.82,0Z"/><path class="a3b9b8ef-d4f3-4274-9b13-25892c5d4e0d" d="M87.84,79.05l7.26-.27c1.17,0,1.17-1.86,0-1.82l-7.26.27c-1.17,0-1.17,1.87,0,1.82Z"/><path class="a3b9b8ef-d4f3-4274-9b13-25892c5d4e0d" d="M10.06,68.38V79.2a.91.91,0,0,0,1.82,0v-.59a.91.91,0,0,0-1.82,0v.59a.91.91,0,0,0,1.82,0V68.38a.91.91,0,0,0-1.82,0Z"/><path class="a3b9b8ef-d4f3-4274-9b13-25892c5d4e0d" d="M47.65,108.82v8.37h1.82v-.57a.91.91,0,0,0-1.82,0v.57a.91.91,0,0,0,1.82,0v-8.37a.91.91,0,0,0-1.82,0Z"/><path class="a3b9b8ef-d4f3-4274-9b13-25892c5d4e0d" d="M62.27,17.88q2.64-1.86,5.19-3.82c.92-.7,0-2.28-.92-1.57q-2.55,2-5.18,3.81c-1,.67,0,2.25.91,1.58Z"/><path class="a3b9b8ef-d4f3-4274-9b13-25892c5d4e0d" d="M43.5,14.25A42.41,42.41,0,0,1,47.14,21c.44,1.06,2.21.59,1.75-.49a44.7,44.7,0,0,0-3.82-7.2c-.64-1-2.22-.06-1.57.92Z"/><path class="b965ccbe-39b3-4089-8b29-3d042edefffd" d="M57.59,2.91a2.61,2.61,0,0,1,1.08.24L74,10.26a2.61,2.61,0,0,1,.34,4.52L61.68,23.23h20A20.72,20.72,0,0,1,102.36,44v58.62a20.72,20.72,0,0,1-20.64,20.8H23.55a20.72,20.72,0,0,1-20.64-20.8V44A20.72,20.72,0,0,1,23.55,23.23h20L30.93,14.78a2.6,2.6,0,0,1,.34-4.52L46.6,3.15a2.56,2.56,0,0,1,3.62,2l2.41,17.52L55,5.15a2.59,2.59,0,0,1,2.55-2.24m0-2.91h0a5.52,5.52,0,0,0-5,3.16,5.51,5.51,0,0,0-5-3.16,5.43,5.43,0,0,0-2.3.51L30.05,7.62a5.51,5.51,0,0,0-.74,9.58L34,20.32H23.55A23.65,23.65,0,0,0,0,44v58.62a23.66,23.66,0,0,0,23.55,23.71H81.72a23.66,23.66,0,0,0,23.55-23.71V44a23.65,23.65,0,0,0-23.55-23.7H71.29L76,17.2a5.51,5.51,0,0,0-.74-9.58L59.89.51A5.4,5.4,0,0,0,57.59,0Z"/></g></g></svg>