<svg xmlns="http://www.w3.org/2000/svg" viewBox="0 0 60.15 66.99"><defs><style>.b2d5d2c8-0d81-4758-ac47-bd012e0fd273{fill:#fff;}</style></defs><title>方2</title><g id="a4bdb547-9b7a-4809-af92-5bfad88645e8" data-name="圖層 2"><g id="bba722d7-01a6-4433-860d-14e1daa88913" data-name="圖層 1"><path class="b2d5d2c8-0d81-4758-ac47-bd012e0fd273" d="M53.45,15.37,32.93,5.67a8.38,8.38,0,0,0-3.49-.79c0-.06,0-.12-.05-.18a11.85,11.85,0,0,0-1.32-3.62A2.08,2.08,0,0,0,24.83.55a27.38,27.38,0,0,0-6.74,8.83,1.67,1.67,0,0,0-2-.13l-3.74,2.59a1.65,1.65,0,0,0-.61,1.91A27.43,27.43,0,0,0,1.15,17a2.09,2.09,0,0,0-.64,3.23,12.37,12.37,0,0,0,2.6,2.3,8.45,8.45,0,0,0-.86,4.45L4.11,49.54a8.46,8.46,0,0,0,4.81,7l20.52,9.69a8.47,8.47,0,0,0,8.42-.69L56.51,52.56a8.44,8.44,0,0,0,3.61-7.64L58.26,22.31A8.43,8.43,0,0,0,53.45,15.37Z"/></g></g></svg>