<svg xmlns="http://www.w3.org/2000/svg" viewBox="0 0 57.91 58.44"><defs><style>.bb95d6f9-2c71-4620-95d8-84ca61ab7904{fill:#fff;}</style></defs><title>方6</title><g id="f47900b4-3bc4-42cf-bfb7-5b398ef9a80a" data-name="圖層 2"><g id="ba75cd11-c84b-4bf5-a3ba-614792cb7a04" data-name="圖層 1"><path class="bb95d6f9-2c71-4620-95d8-84ca61ab7904" d="M54.26,19.51l-7.37-5.84,7.12.59a1.23,1.23,0,0,0,1.19-1.77L51.64,5.41a1.21,1.21,0,0,0-1.92-.32l-6,5.74L48,3.68a1.2,1.2,0,0,0-.75-1.79L39.49,0A1.22,1.22,0,0,0,38.05,1.6l2.19,6.8L32.87,2.55A9.73,9.73,0,0,0,19.22,4.18L2.13,25.73A9.73,9.73,0,0,0,3.65,39.4L25,56.36a9.73,9.73,0,0,0,13.65-1.63L55.78,33.18A9.73,9.73,0,0,0,54.26,19.51Z"/></g></g></svg>