<svg xmlns="http://www.w3.org/2000/svg" viewBox="0 0 47.77 50.86"><defs><style>.e1fe3e01-d264-4c5a-a039-82d423331359{fill:#fff;}</style></defs><title>方3</title><g id="fa5ad017-d33a-4fe3-b261-a0b2ca016c42" data-name="圖層 2"><g id="a2c55a14-20f6-4741-8088-90e819a8651c" data-name="圖層 1"><path class="e1fe3e01-d264-4c5a-a039-82d423331359" d="M42.84,13.17l-7.4-3.29,6.06-1a1.05,1.05,0,0,0,.62-1.72L37.63,2A1,1,0,0,0,36,2.12L32.2,8.19l2-6.86a1,1,0,0,0-1-1.33L26.35.11a1,1,0,0,0-.87,1.61l3.29,5.19-7.4-3.28a8.36,8.36,0,0,0-11,4.29L.73,29.54A8.37,8.37,0,0,0,4.94,40.6L26.4,50.15a8.37,8.37,0,0,0,11-4.29L47,24.23A8.36,8.36,0,0,0,42.84,13.17Z"/></g></g></svg>