<svg xmlns="http://www.w3.org/2000/svg" viewBox="0 0 51.87 62.87"><defs><style>.b3eb40bb-d5ee-4308-9ebc-a3d740a60220{fill:#fff;}</style></defs><title>方1</title><g id="efa825cb-6abd-454c-9564-80737d77c618" data-name="圖層 2"><g id="a0262e1a-bdb9-49dc-b4b8-3f6fe4745f67" data-name="圖層 1"><path class="b3eb40bb-d5ee-4308-9ebc-a3d740a60220" d="M41.11,10.6H30.65l6.61-4.41a1.36,1.36,0,0,0-.18-2.36l-8-3.71a1.35,1.35,0,0,0-1.89,1l-1.25,9.14L24.68,1.17a1.35,1.35,0,0,0-1.89-1l-8,3.71a1.37,1.37,0,0,0-.18,2.36l6.61,4.41H10.77A10.8,10.8,0,0,0,0,21.44V52A10.81,10.81,0,0,0,10.77,62.87H41.11A10.81,10.81,0,0,0,51.87,52V21.44A10.8,10.8,0,0,0,41.11,10.6Z"/></g></g></svg>