<svg xmlns="http://www.w3.org/2000/svg" viewBox="0 0 63.84 76.32"><defs><style>.ad4b0bf9-5bba-4104-9150-2305e89324d0{fill:#fff;}</style></defs><title>方5</title><g id="e31ea477-8389-402e-a9d3-25898a1d280c" data-name="圖層 2"><g id="b3c23dfc-d346-477c-9fcc-614c59698d76" data-name="圖層 1"><path class="ad4b0bf9-5bba-4104-9150-2305e89324d0" d="M48.7,12l-12.53.56L43.85,7a1.64,1.64,0,0,0-.34-2.82l-9.79-4a1.61,1.61,0,0,0-2.21,1.35l-1,11-2-10.88A1.61,1.61,0,0,0,26.18.46L16.8,5.33a1.63,1.63,0,0,0-.09,2.84l8.15,4.92-12.53.57A13,13,0,0,0,0,27.24L1.66,63.88A13,13,0,0,0,15.14,76.3l36.37-1.63A13,13,0,0,0,63.82,61.09L62.18,24.45A13,13,0,0,0,48.7,12Z"/></g></g></svg>