<svg xmlns="http://www.w3.org/2000/svg" viewBox="0 0 56.73 62.05"><defs><style>.eae09a36-7dbc-4f18-ac7e-1fcf2a87b247{fill:#fff;}</style></defs><title>方4</title><g id="f322f737-9fc9-40ea-ab74-5f0dc2a2af8e" data-name="圖層 2"><g id="a2df5320-5c3b-44b8-8ff0-4b8d5c9271fd" data-name="圖層 1"><path class="eae09a36-7dbc-4f18-ac7e-1fcf2a87b247" d="M33.8,5.61,24.5,8.84l4.52-6a1.28,1.28,0,0,0-.89-2L19.87,0a1.26,1.26,0,0,0-1.36,1.51L20.21,10,16.27,2.29a1.26,1.26,0,0,0-2-.34l-6,5.77a1.27,1.27,0,0,0,.57,2.15l7.23,1.88L6.8,15A10.17,10.17,0,0,0,.57,28L10,55.16a10.18,10.18,0,0,0,12.92,6.33l27-9.36a10.18,10.18,0,0,0,6.23-13L46.73,11.94A10.19,10.19,0,0,0,33.8,5.61Z"/></g></g></svg>