<svg xmlns="http://www.w3.org/2000/svg" viewBox="0 0 865.23 921.2"><defs><style>.a5303cf9-0053-47c4-ab28-88d7cdacd82f{fill:#40220f;}.a65e039b-1ae5-4821-8214-7911fba389c7{fill:#349b5d;}.bbff65c9-176d-45f0-9ac9-fb7418c643b1{fill:#4ea15d;}.aed3c760-2d13-456c-a065-8828a2f90bb9{fill:#59ad46;}.b624fe39-7288-4f91-9078-ee147fce2206{fill:#8ac459;}.ed5d84aa-f64a-4a94-8063-8afdd1645c8b{fill:none;stroke:#fff;stroke-miterlimit:10;stroke-width:1.66px;}.a75c9ecc-016c-40ac-9279-d36867a823a5{fill:#fff45f;}.e5efdb03-d567-4281-bba3-814ca2a4f3d7{fill:#f9d1cd;}.b4ee4b4a-3800-4854-bdb8-c3e62bc22370{fill:#b8e2f9;}.a1e41756-8e2d-402c-9b35-bfd14d544255{fill:#61834c;}.ee46f6f6-d27c-421c-b21f-f766bdf79eb2{fill:#779e5d;}.b9ac1fac-9352-49ec-910e-21a15b620c0a{fill:#006041;}.a8cd4679-2d25-4c3b-8dac-3caf99a5d5cd{fill:#33774e;}</style></defs><title>聖誕樹</title><g id="b10f1486-0206-4b22-982a-86be51d6de41" data-name="圖層 2"><g id="a0ec13b8-c8e6-4fdf-bf72-1b1d5987c7c2" data-name="圖層 1"><rect class="a5303cf9-0053-47c4-ab28-88d7cdacd82f" x="381.22" y="683.14" width="116.77" height="238.06"/><path class="a65e039b-1ae5-4821-8214-7911fba389c7" d="M436.59,279.09v-1.95a1.76,1.76,0,0,0-2.87-1.38h0a1.74,1.74,0,0,1-2.23,0h0a1.76,1.76,0,0,0-2.87,1.38v1.95a1.74,1.74,0,0,1-.64,1.37L.65,630.47a1.75,1.75,0,0,0-.26,2.46C15.42,651.4,184,851.45,432.62,851.45S849.82,651.4,864.84,632.93a1.75,1.75,0,0,0-.25-2.46l-427.36-350A1.74,1.74,0,0,1,436.59,279.09Z"/><path class="bbff65c9-176d-45f0-9ac9-fb7418c643b1" d="M436,198.71v-1.64a1.48,1.48,0,0,0-2.42-1.16h0a1.48,1.48,0,0,1-1.88,0h0a1.49,1.49,0,0,0-2.43,1.16v1.64a1.51,1.51,0,0,1-.54,1.16L67.8,495.47a1.48,1.48,0,0,0-.21,2.08c12.69,15.59,155,184.54,365,184.54s352.34-169,365-184.54a1.48,1.48,0,0,0-.21-2.08L436.51,199.87A1.51,1.51,0,0,1,436,198.71Z"/><path class="aed3c760-2d13-456c-a065-8828a2f90bb9" d="M436.83,113.87a4.22,4.22,0,0,1-1.55-3.3l0-2.35h0a4.22,4.22,0,0,1-5.36,0h0v2.35a4.22,4.22,0,0,1-1.55,3.3L146.48,344.77a4.22,4.22,0,0,0-.57,6c18.34,21.75,128.14,143.56,286.71,143.56S701,372.51,719.32,350.76a4.23,4.23,0,0,0-.56-6Z"/><path class="b624fe39-7288-4f91-9078-ee147fce2206" d="M435.58,4a2.94,2.94,0,0,1-1.09-2.32V0h0a3,3,0,0,1-3.77,0h0V1.65A2.94,2.94,0,0,1,429.65,4L231.26,166.46a3,3,0,0,0-.39,4.22c12.92,15.32,90.18,101,201.75,101s188.82-85.69,201.74-101a3,3,0,0,0-.39-4.22Z"/><path class="ed5d84aa-f64a-4a94-8063-8afdd1645c8b" d="M305.82,105.39S383.49,185.3,598,137c0,0-113.43,200.75-398.42,164.27,0,0,208.53,170.21,499,71.85,0,0-190,217.69-580.29,80.85,0,0,276.44,284.72,637.6,87.49,0,0-270.17,359.76-714.4,55.54,0,0,154.14,289.13,617.82,198.19"/><path class="a75c9ecc-016c-40ac-9279-d36867a823a5" d="M361,76.21H359.9a13.82,13.82,0,0,0-8.81,3.65,9.26,9.26,0,0,0-2.58,4,9.33,9.33,0,0,0-1.07,4.8l.44,3.31a12.41,12.41,0,0,0,3.21,5.5l2.52,2a12.3,12.3,0,0,0,6.29,1.7H361a13.82,13.82,0,0,0,8.81-3.65,9.35,9.35,0,0,0,2.58-4,9.41,9.41,0,0,0,1.07-4.8L373,85.36a12.45,12.45,0,0,0-3.2-5.5l-2.52-2a12.42,12.42,0,0,0-6.29-1.7Z"/><path class="a75c9ecc-016c-40ac-9279-d36867a823a5" d="M574.8,281.69c16,0,16.06-24.92,0-24.92s-16.06,24.92,0,24.92Z"/><path class="a75c9ecc-016c-40ac-9279-d36867a823a5" d="M344.67,338.74c16,0,16.06-24.92,0-24.92s-16.06,24.92,0,24.92Z"/><path class="a75c9ecc-016c-40ac-9279-d36867a823a5" d="M677.82,467.79c16,0,16.06-24.92,0-24.92s-16.07,24.92,0,24.92Z"/><path class="a75c9ecc-016c-40ac-9279-d36867a823a5" d="M198.17,450.07c16,0,16.07-24.93,0-24.93s-16.06,24.93,0,24.93Z"/><path class="a75c9ecc-016c-40ac-9279-d36867a823a5" d="M423,633.4h-2.21a13.81,13.81,0,0,0-8.82,3.65,9.27,9.27,0,0,0-2.57,4,9.41,9.41,0,0,0-1.08,4.8l.45,3.31a12.5,12.5,0,0,0,3.2,5.5l2.53,2a12.4,12.4,0,0,0,6.29,1.7H423a12.8,12.8,0,0,0,12.46-12.46l-.44-3.32a12.34,12.34,0,0,0-3.21-5.49l-2.52-1.95a12.3,12.3,0,0,0-6.29-1.7Z"/><path class="a75c9ecc-016c-40ac-9279-d36867a823a5" d="M464,785.71c16,0,16.06-24.93,0-24.93s-16.07,24.93,0,24.93Z"/><path class="a75c9ecc-016c-40ac-9279-d36867a823a5" d="M37.55,647.24c16,0,16.07-24.92,0-24.92s-16.06,24.92,0,24.92Z"/><path class="e5efdb03-d567-4281-bba3-814ca2a4f3d7" d="M263,187.81c16,0,16.07-24.92,0-24.92s-16.06,24.92,0,24.92Z"/><path class="e5efdb03-d567-4281-bba3-814ca2a4f3d7" d="M450.73,58.21c16,0,16.07-24.93,0-24.93s-16.06,24.93,0,24.93Z"/><path class="e5efdb03-d567-4281-bba3-814ca2a4f3d7" d="M534.92,382.5c16,0,16.06-24.93,0-24.93s-16.06,24.93,0,24.93Z"/><path class="e5efdb03-d567-4281-bba3-814ca2a4f3d7" d="M190.42,369.2c16,0,16.06-24.92,0-24.92s-16.07,24.92,0,24.92Z"/><path class="e5efdb03-d567-4281-bba3-814ca2a4f3d7" d="M551.49,530.7l-1.11-1.1A12.05,12.05,0,0,0,536.77,527a9.2,9.2,0,0,0-4,2.58l-2,2.52a12.3,12.3,0,0,0-1.7,6.29l.44,3.31a12.37,12.37,0,0,0,3.21,5.5l1.1,1.11a12.84,12.84,0,0,0,17.63,0l2-2.52a12.52,12.52,0,0,0,1.7-6.29l-.45-3.32a12.5,12.5,0,0,0-3.2-5.5Z"/><path class="e5efdb03-d567-4281-bba3-814ca2a4f3d7" d="M112.88,512.1c16,0,16.06-24.92,0-24.92s-16.07,24.92,0,24.92Z"/><path class="e5efdb03-d567-4281-bba3-814ca2a4f3d7" d="M691.11,745.83c16,0,16.06-24.92,0-24.92s-16.06,24.92,0,24.92Z"/><path class="e5efdb03-d567-4281-bba3-814ca2a4f3d7" d="M131.15,614c16,0,16.07-24.92,0-24.92s-16.06,24.92,0,24.92Z"/><path class="b4ee4b4a-3800-4854-bdb8-c3e62bc22370" d="M429.69,228.52c16,0,16.06-24.92,0-24.92s-16.07,24.92,0,24.92Z"/><path class="b4ee4b4a-3800-4854-bdb8-c3e62bc22370" d="M507.23,116.09c16,0,16.06-24.93,0-24.93s-16.07,24.93,0,24.93Z"/><path class="b4ee4b4a-3800-4854-bdb8-c3e62bc22370" d="M410.86,458.93c16,0,16.06-24.93,0-24.93s-16.07,24.93,0,24.93Z"/><path class="b4ee4b4a-3800-4854-bdb8-c3e62bc22370" d="M340.79,525.12v2.21a12.8,12.8,0,0,0,12.46,12.46l3.32-.44a12.43,12.43,0,0,0,5.5-3.21l1.94-2.52a12.41,12.41,0,0,0,1.71-6.29v-2.21a12.83,12.83,0,0,0-12.47-12.47l-3.31.45a12.5,12.5,0,0,0-5.5,3.2l-1.95,2.53a12.5,12.5,0,0,0-1.7,6.29Z"/><path class="b4ee4b4a-3800-4854-bdb8-c3e62bc22370" d="M588.09,724.78c16,0,16.07-24.92,0-24.92s-16.06,24.92,0,24.92Z"/><path class="b4ee4b4a-3800-4854-bdb8-c3e62bc22370" d="M342.45,678v-2.21A12.83,12.83,0,0,0,330,663.3l-3.31.45a12.45,12.45,0,0,0-5.5,3.2l-1.95,2.53a12.4,12.4,0,0,0-1.7,6.29V678A12.8,12.8,0,0,0,330,690.44l3.31-.44a12.32,12.32,0,0,0,5.5-3.21l1.95-2.52a12.3,12.3,0,0,0,1.7-6.29Z"/><path class="b4ee4b4a-3800-4854-bdb8-c3e62bc22370" d="M327.78,832.23c16,0,16.06-24.92,0-24.92s-16.07,24.92,0,24.92Z"/><path class="a1e41756-8e2d-402c-9b35-bfd14d544255" d="M636.3,317.62a505.43,505.43,0,0,1,45.92,39.17c3.85,3.7,9.74-2.16,5.87-5.88a524.32,524.32,0,0,0-47.59-40.46c-4.27-3.22-8.42,4-4.2,7.17Z"/><path class="ee46f6f6-d27c-421c-b21f-f766bdf79eb2" d="M599.66,161.28l15.56,13.22c4,3.44,10-2.4,5.88-5.87L605.53,155.4c-4-3.44-10,2.41-5.87,5.88Z"/><path class="a1e41756-8e2d-402c-9b35-bfd14d544255" d="M278.36,430.52a194.08,194.08,0,0,0,103.71,43.21c5.31.54,5.28-7.77,0-8.31a184.08,184.08,0,0,1-97.83-40.78c-4.1-3.37-10,2.48-5.88,5.88Z"/><path class="ee46f6f6-d27c-421c-b21f-f766bdf79eb2" d="M330,223.2a258,258,0,0,0,80.88,32.35c5.22,1.11,7.44-6.89,2.21-8A251,251,0,0,1,334.16,216c-4.57-2.8-8.75,4.38-4.19,7.18Z"/><path class="b9ac1fac-9352-49ec-910e-21a15b620c0a" d="M174.16,697.51a324.72,324.72,0,0,0,107.15,50.37c5.18,1.35,7.39-6.66,2.21-8a318.17,318.17,0,0,1-105.17-49.54c-4.35-3.12-8.5,4.08-4.19,7.18Z"/><path class="a8cd4679-2d25-4c3b-8dac-3caf99a5d5cd" d="M213.79,548.31A253.54,253.54,0,0,0,304.62,587c5.22,1.09,7.45-6.91,2.21-8A247.68,247.68,0,0,1,218,541.14c-4.43-3-8.59,4.17-4.19,7.17Z"/></g></g></svg>