<svg xmlns="http://www.w3.org/2000/svg" viewBox="0 0 125.38 128.51"><defs><style>.be57b60a-205d-481a-8971-1cf9887042fe{fill:#f8b630;}.ec7859fb-8b83-41ae-9478-a796fb69d100{fill:#fff343;}.f2d2d703-6564-405f-a716-e7c7d44d251c{fill:#ee7a29;}.bd3a81ab-d69c-43f7-8d5c-48d1305a7e0a{fill:#fed725;}.b1f53700-e441-4f68-9f16-81ac70a8ba7f{fill:#fff;}.add79c20-ac90-41be-a5d2-44ad94a2f998{fill:none;stroke:#fff;stroke-linecap:round;stroke-linejoin:round;stroke-width:2.68px;}</style></defs><title>三角</title><g id="fa3a7ec4-2c5e-40f3-b19e-75f34c280508" data-name="圖層 2"><g id="b43ee17b-5c28-46d3-aa11-fd0dee80b10f" data-name="圖層 1"><path class="be57b60a-205d-481a-8971-1cf9887042fe" d="M11,104.08a207.46,207.46,0,0,0,30.44,19.45H95.67A215.2,215.2,0,0,1,23.74,81.77Z"/><path class="ec7859fb-8b83-41ae-9478-a796fb69d100" d="M8.06,109.24a9.52,9.52,0,0,0,8.16,14.29H41.44A207.46,207.46,0,0,1,11,104.08Z"/><path class="ec7859fb-8b83-41ae-9478-a796fb69d100" d="M23.74,81.77a215.2,215.2,0,0,0,71.93,41.76h13.49a9.53,9.53,0,0,0,8.16-14.29l-4.65-8.14A217.1,217.1,0,0,1,37.4,57.84Z"/><path class="be57b60a-205d-481a-8971-1cf9887042fe" d="M49.74,36.23,37.4,57.84a217.1,217.1,0,0,0,75.27,43.26L89.23,60A217.2,217.2,0,0,1,49.74,36.23Z"/><path class="ec7859fb-8b83-41ae-9478-a796fb69d100" d="M70.85,27.84a9.37,9.37,0,0,0-16.32,0l-4.79,8.39A217.2,217.2,0,0,0,89.23,60Z"/><path class="f2d2d703-6564-405f-a716-e7c7d44d251c" d="M47.22,58.4A119.84,119.84,0,0,0,79,77.05c2,.8,2.88-2.44.89-3.23A114.5,114.5,0,0,1,49.59,56c-1.66-1.35-4.05,1-2.37,2.37Z"/><path class="f2d2d703-6564-405f-a716-e7c7d44d251c" d="M19.76,102.88a113.6,113.6,0,0,0,26.77,15.47c2,.82,2.87-2.42.9-3.23a107.58,107.58,0,0,1-25.3-14.61c-1.68-1.31-4.07,1-2.37,2.37Z"/><path class="bd3a81ab-d69c-43f7-8d5c-48d1305a7e0a" d="M67.8,34.86q2.91,6,5.7,12.06c.9,2,3.79.26,2.89-1.69Q73.6,39.17,70.7,33.17c-.94-1.94-3.83-.24-2.9,1.69Z"/><path class="bd3a81ab-d69c-43f7-8d5c-48d1305a7e0a" d="M107.56,106c3.51,4.19,4.32,12.37-3.24,12-2.15-.11-2.15,3.24,0,3.35,3.91.19,7.65-1.69,9.06-5.6,1.46-4.1-.87-9.05-3.45-12.13-1.38-1.66-3.74.73-2.37,2.37Z"/><path class="bd3a81ab-d69c-43f7-8d5c-48d1305a7e0a" d="M10.85,111.56a10.06,10.06,0,0,0,9.69,10.08c2.16.11,2.15-3.24,0-3.35a6.64,6.64,0,0,1-6.34-6.73c0-2.15-3.38-2.16-3.35,0Z"/><path class="bd3a81ab-d69c-43f7-8d5c-48d1305a7e0a" d="M36.9,65.18q-3,6.9-6.61,13.5c-1,1.9,1.86,3.59,2.89,1.69q3.6-6.6,6.62-13.5c.85-2-2-3.66-2.9-1.69Z"/><path class="b1f53700-e441-4f68-9f16-81ac70a8ba7f" d="M62.69,20.74a7,7,0,0,1,6.13,3.56L119.44,113a7.06,7.06,0,0,1-6.13,10.57H12.07A7.07,7.07,0,0,1,5.93,113L56.55,24.3a7,7,0,0,1,6.14-3.56m0-5a11.93,11.93,0,0,0-10.47,6.08L1.6,110.49a12.05,12.05,0,0,0,10.47,18H113.31a12,12,0,0,0,10.46-18L73.15,21.83a11.9,11.9,0,0,0-10.46-6.08Z"/><path class="add79c20-ac90-41be-a5d2-44ad94a2f998" d="M62.69,28.53s-10.9-26.79,1-27.18c11.38-.38,3.55,20,3.55,20"/></g></g></svg>