<svg xmlns="http://www.w3.org/2000/svg" xmlns:xlink="http://www.w3.org/1999/xlink" viewBox="0 0 1400 1050"><defs><style>.ace49d88-bfb0-4237-b4cb-b8da0eee1575{fill:url(#bff1ca71-0f0d-402d-ae14-5faac3fb498e);}.a4f1b75a-f3ab-4b14-b31c-013790b36502,.ac833f53-c031-4354-ab41-3ebbb80b8979,.b424eddd-5797-4aba-bd38-5e81b58f2ba3,.bd0f4c80-0605-4352-929a-6db90960ac30{fill:#fff;}.a4f1b75a-f3ab-4b14-b31c-013790b36502{opacity:0.85;}.b424eddd-5797-4aba-bd38-5e81b58f2ba3{opacity:0.74;}.bd0f4c80-0605-4352-929a-6db90960ac30{opacity:0.78;}.fe2d7254-25ec-4426-8b45-de11a7914994{fill:#819c61;}.a84cf361-cf48-447d-8243-6c895b6bd088{fill:#8baa69;}.a59b8dc7-88a7-4f67-9c8a-e702a878f8fd{fill:#95ba71;}.a48b7e31-0441-4517-a423-cefa5ef65b3c{fill:#a8cb83;}.faa2acb3-291f-44d2-b363-f3536640a1cc{fill:none;}</style><linearGradient id="bff1ca71-0f0d-402d-ae14-5faac3fb498e" x1="700.03" y1="-117.07" x2="700.03" y2="887.61" gradientUnits="userSpaceOnUse"><stop offset="0.11" stop-color="#5ec5f2"/><stop offset="0.39" stop-color="#9bdbf7"/><stop offset="0.68" stop-color="#d1eefb"/><stop offset="0.89" stop-color="#f2fafe"/><stop offset="1" stop-color="#fff"/></linearGradient></defs><title>背景</title><g id="b3dc1c30-a98a-4d3b-8477-85c6ec596f5e" data-name="圖層 2"><g id="adca6e17-e1a1-4d44-bf04-5ba5110157fd" data-name="圖層 1"><polygon class="ace49d88-bfb0-4237-b4cb-b8da0eee1575" points="1399.21 791.72 0.85 791.72 0.4 0 1399.65 0 1399.21 791.72"/><ellipse class="a4f1b75a-f3ab-4b14-b31c-013790b36502" cx="818.83" cy="676.41" rx="139.87" ry="71.12"/><ellipse class="a4f1b75a-f3ab-4b14-b31c-013790b36502" cx="531.36" cy="676.41" rx="179.9" ry="91.47"/><path class="a4f1b75a-f3ab-4b14-b31c-013790b36502" d="M1399.22,561.7c-27.83,12.26-60.84,19.36-96.24,19.36-99.35,0-179.89-55.95-179.89-125s80.54-125,179.89-125c34.86,0,67.41,6.89,95,18.81Z"/><path class="a4f1b75a-f3ab-4b14-b31c-013790b36502" d="M0,453.2c27.83-12.26,60.84-19.36,96.23-19.36,99.36,0,179.9,56,179.9,125s-80.54,125-179.9,125c-34.86,0-67.4-6.89-95-18.81Z"/><ellipse class="b424eddd-5797-4aba-bd38-5e81b58f2ba3" cx="900.43" cy="731.14" rx="107.64" ry="54.73"/><ellipse class="bd0f4c80-0605-4352-929a-6db90960ac30" cx="325.34" cy="635.79" rx="107.64" ry="54.73"/><ellipse class="bd0f4c80-0605-4352-929a-6db90960ac30" cx="405.36" cy="714.21" rx="107.64" ry="54.73"/><ellipse class="ac833f53-c031-4354-ab41-3ebbb80b8979" cx="183.35" cy="614.04" rx="53.82" ry="27.36"/><ellipse class="ac833f53-c031-4354-ab41-3ebbb80b8979" cx="936" cy="676.41" rx="98.14" ry="49.9"/><ellipse class="ac833f53-c031-4354-ab41-3ebbb80b8979" cx="1126.85" cy="707.87" rx="149.54" ry="76.03"/><ellipse class="ac833f53-c031-4354-ab41-3ebbb80b8979" cx="201.92" cy="714.21" rx="149.54" ry="76.03"/><ellipse class="ac833f53-c031-4354-ab41-3ebbb80b8979" cx="705.14" cy="731.14" rx="138.6" ry="70.47"/><ellipse class="ac833f53-c031-4354-ab41-3ebbb80b8979" cx="325.34" cy="558.81" rx="81.84" ry="41.61"/><ellipse class="ac833f53-c031-4354-ab41-3ebbb80b8979" cx="886.87" cy="589.02" rx="81.84" ry="41.61"/><ellipse class="b424eddd-5797-4aba-bd38-5e81b58f2ba3" cx="1034.14" cy="626.51" rx="107.64" ry="54.73"/><ellipse class="b424eddd-5797-4aba-bd38-5e81b58f2ba3" cx="1194.82" cy="586.67" rx="132.34" ry="67.29"/><path class="fe2d7254-25ec-4426-8b45-de11a7914994" d="M.86,627.29S237.28,587.38,488.13,778L.86,893.11Z"/><path class="fe2d7254-25ec-4426-8b45-de11a7914994" d="M1399.65,605.43s-240-40.19-492.75,150.44l492.75,115.38Z"/><path class="a84cf361-cf48-447d-8243-6c895b6bd088" d="M1400,647.88S1167.83,572.7,860.57,776.46L1400,891.21Z"/><path class="a84cf361-cf48-447d-8243-6c895b6bd088" d="M.86,652.33S255.67,608.08,506.51,798.7L.86,918.15Z"/><path class="a59b8dc7-88a7-4f67-9c8a-e702a878f8fd" d="M.86,991.08H1400V855.49s-256.18-127.64-655.85-103S.86,870.18.86,870.18Z"/><path class="a48b7e31-0441-4517-a423-cefa5ef65b3c" d="M.46,1050H1399.61l.39-194.51s-277.26-110.37-647.25-86.15C346.37,796,.46,906.75.46,906.75Z"/><path class="a48b7e31-0441-4517-a423-cefa5ef65b3c" d="M516.11,666.24c6.61,0,6.62-10.28,0-10.28s-6.62,10.28,0,10.28Z"/><rect class="faa2acb3-291f-44d2-b363-f3536640a1cc" x="0.63" width="1399.14" height="1050"/></g></g></svg>