<svg xmlns="http://www.w3.org/2000/svg" viewBox="0 0 1400 1050"><defs><style>.fc2af023-0715-4992-9aaf-709bfb14cbb3{fill:#e9c7a9;}.a49a335a-6f1f-4954-9469-4822db7bd36a{fill:#c49e95;}.f19e093f-d8fb-477b-b9a3-466ef0805b1c{fill:#f9d1cf;}.f19e093f-d8fb-477b-b9a3-466ef0805b1c,.f4dba4d0-28bc-45b4-915d-a44e39dc6f67{stroke:#e83956;}.f19e093f-d8fb-477b-b9a3-466ef0805b1c,.f4dba4d0-28bc-45b4-915d-a44e39dc6f67,.fbae7724-1ad0-4a81-ad51-3a9c30b738b2{stroke-miterlimit:10;stroke-width:1.54px;}.f4dba4d0-28bc-45b4-915d-a44e39dc6f67,.fbae7724-1ad0-4a81-ad51-3a9c30b738b2{fill:none;}.fbae7724-1ad0-4a81-ad51-3a9c30b738b2{stroke:#f3aab8;}.a89a56ab-1391-4e24-899f-388841bad38e{fill:#bde4f9;stroke:#4769a0;stroke-linejoin:round;stroke-width:3.32px;opacity:0.93;}.f509d546-39fe-42be-a9a6-b4adb39c7dad{fill:#a6a6a7;}.bbb8c97d-13f2-46eb-ad28-c93d529dcad5{fill:#929292;}</style></defs><title>背景</title><g id="abe1c54d-485a-497e-a685-dc456ef727d6" data-name="圖層 2"><g id="f14193fa-42f1-443e-a847-87c38bb39a0f" data-name="圖層 1"><rect class="fc2af023-0715-4992-9aaf-709bfb14cbb3" width="1400" height="1050"/><rect class="a49a335a-6f1f-4954-9469-4822db7bd36a" x="96.65" y="596.55" width="779.08" height="377.67" rx="18.89"/><rect class="f19e093f-d8fb-477b-b9a3-466ef0805b1c" x="106.34" y="596.55" width="772.43" height="372.5" rx="18.89"/><line class="fbae7724-1ad0-4a81-ad51-3a9c30b738b2" x1="179.97" y1="596.55" x2="179.97" y2="968"/><line class="f4dba4d0-28bc-45b4-915d-a44e39dc6f67" x1="189.1" y1="596.55" x2="189.1" y2="968"/><line class="fbae7724-1ad0-4a81-ad51-3a9c30b738b2" x1="198.24" y1="596.55" x2="198.24" y2="968"/><line class="fbae7724-1ad0-4a81-ad51-3a9c30b738b2" x1="382.5" y1="596.55" x2="382.5" y2="968"/><line class="f4dba4d0-28bc-45b4-915d-a44e39dc6f67" x1="391.64" y1="596.55" x2="391.64" y2="968"/><line class="fbae7724-1ad0-4a81-ad51-3a9c30b738b2" x1="400.78" y1="596.55" x2="400.78" y2="968"/><line class="fbae7724-1ad0-4a81-ad51-3a9c30b738b2" x1="585.04" y1="596.55" x2="585.04" y2="968"/><line class="f4dba4d0-28bc-45b4-915d-a44e39dc6f67" x1="594.18" y1="596.55" x2="594.18" y2="968"/><line class="fbae7724-1ad0-4a81-ad51-3a9c30b738b2" x1="603.32" y1="596.55" x2="603.32" y2="968"/><line class="fbae7724-1ad0-4a81-ad51-3a9c30b738b2" x1="787.58" y1="596.55" x2="787.58" y2="968"/><line class="f4dba4d0-28bc-45b4-915d-a44e39dc6f67" x1="796.71" y1="596.55" x2="796.71" y2="968"/><line class="fbae7724-1ad0-4a81-ad51-3a9c30b738b2" x1="805.85" y1="596.55" x2="805.85" y2="968"/><line class="fbae7724-1ad0-4a81-ad51-3a9c30b738b2" x1="106.34" y1="699.33" x2="878.78" y2="699.33"/><line class="f4dba4d0-28bc-45b4-915d-a44e39dc6f67" x1="106.34" y1="705.8" x2="878.78" y2="705.8"/><line class="fbae7724-1ad0-4a81-ad51-3a9c30b738b2" x1="106.34" y1="712.27" x2="878.78" y2="712.27"/><line class="fbae7724-1ad0-4a81-ad51-3a9c30b738b2" x1="106.34" y1="855.4" x2="878.78" y2="855.4"/><line class="f4dba4d0-28bc-45b4-915d-a44e39dc6f67" x1="106.34" y1="861.87" x2="878.78" y2="861.87"/><line class="fbae7724-1ad0-4a81-ad51-3a9c30b738b2" x1="106.34" y1="868.34" x2="878.78" y2="868.34"/><polygon class="a89a56ab-1391-4e24-899f-388841bad38e" points="767.24 902.44 783.27 886.88 767.24 866.82 783.27 847.45 767.24 838.01 783.27 819.68 767.24 805.24 783.27 783.58 767.24 767.49 781.45 752.39 767.26 742.18 782.26 725.35 768.42 709.83 782.57 693.95 767.66 677.23 783.04 659.98 781.09 657.79 203.83 657.79 203.83 927.18 773.12 927.18 783.27 919.1 767.24 902.44"/><path class="a89a56ab-1391-4e24-899f-388841bad38e" d="M154.49,672.45V909.91c0,10.3,16.85,18.64,37.63,18.64s37.64-8.34,37.64-18.64V672.45Z"/><ellipse class="a89a56ab-1391-4e24-899f-388841bad38e" cx="192.12" cy="671.83" rx="37.64" ry="18.64"/><path class="f509d546-39fe-42be-a9a6-b4adb39c7dad" d="M173.32,667.29v6.81c0,2.12,8.69,3.84,19.42,3.84s19.42-1.72,19.42-3.84v-6.81Z"/><ellipse class="bbb8c97d-13f2-46eb-ad28-c93d529dcad5" cx="192.74" cy="667.29" rx="19.42" ry="3.84"/></g></g></svg>