<svg xmlns="http://www.w3.org/2000/svg" xmlns:xlink="http://www.w3.org/1999/xlink" viewBox="0 0 84.62 60.71"><defs><style>.e6f22e61-2cf2-4485-a514-f939b0ab9ea8{fill:#c58a4a;}.fbbf8a86-e18f-475d-98ee-b5e73bdbcdfc{fill:#fed400;}.f130aff7-72ca-4a7a-9e25-d69ca7ff9ac5{fill:#fbc200;}.b769b128-2d61-4088-a9f3-b7124e9c3f22{fill:url(#a06b18d6-52f8-42ed-9ede-03c960fb7969);}.b18a863b-e171-46cc-ac7e-e77b3c29f619{fill:none;stroke:#ffecb5;stroke-linecap:round;stroke-miterlimit:10;stroke-width:2.78px;}.e2fe5daa-c0dc-4849-9278-85da3420f782{fill:#fff;}</style><radialGradient id="a06b18d6-52f8-42ed-9ede-03c960fb7969" cx="880.41" cy="730.25" r="26.68" gradientTransform="matrix(1.15, 0.13, -0.18, 0.85, -833.84, -698.46)" gradientUnits="userSpaceOnUse"><stop offset="0" stop-color="#fff" stop-opacity="0"/><stop offset="0.28" stop-color="#fffefd" stop-opacity="0.01"/><stop offset="0.42" stop-color="#fffcf6" stop-opacity="0.04"/><stop offset="0.53" stop-color="#fef8e9" stop-opacity="0.09"/><stop offset="0.62" stop-color="#fef3d7" stop-opacity="0.17"/><stop offset="0.7" stop-color="#fdecc0" stop-opacity="0.26"/><stop offset="0.78" stop-color="#fce3a3" stop-opacity="0.38"/><stop offset="0.84" stop-color="#fbd880" stop-opacity="0.53"/><stop offset="0.91" stop-color="#facc59" stop-opacity="0.69"/><stop offset="0.97" stop-color="#f9bf2d" stop-opacity="0.88"/><stop offset="1" stop-color="#f8b60f"/></radialGradient></defs><title>盤1_2</title><g id="acc7dba5-46c5-40bb-a330-11cfc40f13d9" data-name="圖層 2"><g id="ba6191fc-409c-4b98-93a1-7130f6eb80c8" data-name="圖層 1"><path class="e6f22e61-2cf2-4485-a514-f939b0ab9ea8" d="M81.84,52.82,79.14,52l-13.09-25-4.73-9-4.14-7.9-2.5-4.77A3.85,3.85,0,0,0,53.62,4.1l.71-1.24c-4.16-.48-5.92,1.39-5.92,1.39L44.53,7.77l-8.22,7.46-9.23,8.38L5.31,43.38h0L3.84,44.71c-2.28,2.07-.66,5.16,2.91,5.55l37.32,4.17L75.13,57.9a3.94,3.94,0,0,0,1.92-.25l.28-.1A5.67,5.67,0,0,0,81.84,52.82Z"/><path class="fbbf8a86-e18f-475d-98ee-b5e73bdbcdfc" d="M8.34,42.86c-2.2,2-.64,5,2.81,5.36l65.44,7.31c3.44.38,6.19-2.11,4.94-4.49l-4-7.73-62-6.93Z"/><polygon class="f130aff7-72ca-4a7a-9e25-d69ca7ff9ac5" points="15.48 36.38 77.48 43.31 70.62 30.22 27.56 25.41 15.48 36.38"/><polygon class="fbbf8a86-e18f-475d-98ee-b5e73bdbcdfc" points="39.65 14.44 27.56 25.41 70.62 30.22 63.76 17.13 39.65 14.44"/><path class="f130aff7-72ca-4a7a-9e25-d69ca7ff9ac5" d="M57.84,5.83a4.46,4.46,0,0,0-3.52-2.08A5.51,5.51,0,0,0,50.08,5L39.65,14.44l24.11,2.69Z"/><path class="b769b128-2d61-4088-a9f3-b7124e9c3f22" d="M52.36,2.89,8,43.2A2.79,2.79,0,0,0,9.53,48l69.6,7.78a2.78,2.78,0,0,0,2.77-4.06L56.7,3.66A2.79,2.79,0,0,0,52.36,2.89Z"/><path class="b18a863b-e171-46cc-ac7e-e77b3c29f619" d="M59.23,22.78l11.23,22c1.37,2.68-1.72,5.46-5.58,5L48,47.88"/><path class="e2fe5daa-c0dc-4849-9278-85da3420f782" d="M53,2.78a12.77,12.77,0,0,1,1.33.08v0a3.85,3.85,0,0,1,3,2l1.69,3.22,4.71,9,5.29,10.09L81,49.93h0L81.53,51a2.45,2.45,0,0,1,.24,1.76l.07,0a5.67,5.67,0,0,1-4.51,4.73l-.28.1a3.93,3.93,0,0,1-1.47.28l-.45,0L44.07,54.43,6.75,50.27c-3.57-.4-5.19-3.49-2.91-5.56l1.47-1.33h0L27.08,23.61l9.23-8.38,8.22-7.46,3.88-3.52S49.79,2.78,53,2.78M53,0a9.18,9.18,0,0,0-6.51,2.23L42.65,5.71l-8.21,7.46-9.23,8.38L3.44,41.32,2,42.65a5.51,5.51,0,0,0-1.7,5.87A7,7,0,0,0,6.44,53L43.76,57.2l31.06,3.47a6.45,6.45,0,0,0,.76,0,6.58,6.58,0,0,0,2.4-.44l.21-.07A8.38,8.38,0,0,0,84.61,53a2.46,2.46,0,0,0,0-.47A5.27,5.27,0,0,0,84,49.74l-.58-1.11-11.9-22.7L66.23,15.84l-4.71-9-1.7-3.23A6.63,6.63,0,0,0,55,.16,1.86,1.86,0,0,0,54.65.1,13.39,13.39,0,0,0,53,0Z"/></g></g></svg>