<svg xmlns="http://www.w3.org/2000/svg" xmlns:xlink="http://www.w3.org/1999/xlink" viewBox="0 0 79.23 65.46"><defs><style>.fb3f13d1-a289-442f-8ecb-3cc4ec67ed9d{fill:#b25c00;}.a41de710-8e79-4c43-a2c1-fa7d354d661c{fill:#ee7811;}.a5260d68-b9c6-46e2-a7d9-6124aee8a6a5{fill:#f4a000;}.bf1f07bf-6201-432d-94e6-5b4b98e113fe{opacity:0.65;fill:url(#b58447f4-a2a7-459f-b902-5b5a0cd48352);}.b8d56463-0e47-47eb-a6e3-6b77aa4005d4{fill:none;stroke:#ffecb5;stroke-linecap:round;stroke-miterlimit:10;stroke-width:2.73px;}.b960a0d2-f530-4552-835d-050a80f32cdf{fill:#fff;}</style><radialGradient id="b58447f4-a2a7-459f-b902-5b5a0cd48352" cx="1407.35" cy="233.16" r="34.87" gradientTransform="matrix(1.23, 0.07, -0.36, 0.93, -1612.09, -278.43)" gradientUnits="userSpaceOnUse"><stop offset="0" stop-color="#fff" stop-opacity="0"/><stop offset="0.38" stop-color="#fffefe" stop-opacity="0.01"/><stop offset="0.52" stop-color="#fefbf8" stop-opacity="0.04"/><stop offset="0.61" stop-color="#fdf6ef" stop-opacity="0.09"/><stop offset="0.69" stop-color="#fcefe1" stop-opacity="0.16"/><stop offset="0.76" stop-color="#fae6d0" stop-opacity="0.25"/><stop offset="0.82" stop-color="#f8daba" stop-opacity="0.37"/><stop offset="0.87" stop-color="#f5cca0" stop-opacity="0.51"/><stop offset="0.92" stop-color="#f2bc82" stop-opacity="0.67"/><stop offset="0.97" stop-color="#eeab62" stop-opacity="0.84"/><stop offset="1" stop-color="#eb9b44"/></radialGradient></defs><title>盤1_3</title><g id="ea3dafff-d9c2-428d-924c-12de56abc6ce" data-name="圖層 2"><g id="b8098570-e317-41c4-9cc9-d6f4e410af9a" data-name="圖層 1"><path class="fb3f13d1-a289-442f-8ecb-3cc4ec67ed9d" d="M76.36,11.79a11.5,11.5,0,0,0-2.73-5.94L73.36,8.1a8,8,0,0,0-3.5-.87L44.78,6.54,19.7,5.85c-4.29-.12-8.31,2.73-9,6.35L6.81,33.39,3.2,53l-.39.13a12.57,12.57,0,0,0,0,2.71A5.09,5.09,0,0,0,3.4,58v0h0a6.84,6.84,0,0,0,6.05,3.34L34.54,62l25.08.69c4.29.12,8.31-2.72,9-6.35l3.91-21.19L76.42,14A5.32,5.32,0,0,0,76.36,11.79Z"/><path class="a41de710-8e79-4c43-a2c1-fa7d354d661c" d="M71.24,32.54,75.08,11c.66-3.67-2.23-6.75-6.44-6.87L44,3.45,39,31.62Z"/><path class="a5260d68-b9c6-46e2-a7d9-6124aee8a6a5" d="M44,3.45,19.39,2.74c-4.21-.11-8.16,2.77-8.82,6.45L6.74,30.7,39,31.62Z"/><path class="a5260d68-b9c6-46e2-a7d9-6124aee8a6a5" d="M39,31.62,34,59.79l24.63.71c4.21.11,8.16-2.77,8.81-6.45l3.84-21.51Z"/><path class="a41de710-8e79-4c43-a2c1-fa7d354d661c" d="M6.74,30.7,2.9,52.22C2.24,55.89,5.12,59,9.33,59.09l24.63.7,5-28.17Z"/><path class="bf1f07bf-6201-432d-94e6-5b4b98e113fe" d="M59.15,60.51,8.77,59.08c-3.9-.11-6.57-2.95-6-6.33L10.67,8.66c.6-3.39,4.25-6,8.16-5.93L69.2,4.16c3.91.11,6.58,3,6,6.33L67.31,54.58C66.7,58,63.05,60.62,59.15,60.51Z"/><path class="b8d56463-0e47-47eb-a6e3-6b77aa4005d4" d="M67,27.11l-4.2,23.53c-.58,3.26-4.1,5.82-7.87,5.71l-24.81-.7"/><path class="b960a0d2-f530-4552-835d-050a80f32cdf" d="M18.59,2.73h.24l.56,0h0L44,3.45,67,4.1l2.18.06a6.65,6.65,0,0,1,4.42,1.72v0l.12.14a5,5,0,0,1,.94,1.3,11.28,11.28,0,0,1,1.67,4.5A5.32,5.32,0,0,1,76.42,14L72.51,35.19,68.6,56.38c-.66,3.55-4.53,6.35-8.72,6.35h-.26L34.54,62,9.46,61.35A6.84,6.84,0,0,1,3.41,58h0v0a5.09,5.09,0,0,1-.58-2.18,13,13,0,0,1-.07-1.7,5.22,5.22,0,0,1,0-1.36l.1-.53h0L6.73,30.7,10.57,9.19h0l.1-.53c.59-3.32,4.11-5.93,7.92-5.93m0-2.73h0C13.46,0,8.8,3.59,8,8.18l-.09.49v0h0L4.05,30.22.21,51.74h0l-.09.53A7.62,7.62,0,0,0,0,54.19,15.42,15.42,0,0,0,.1,56a8,8,0,0,0,.83,3.13l0,.05.11.22a9.53,9.53,0,0,0,8.31,4.65l25.09.69,25.08.69h.33c5.5,0,10.51-3.77,11.4-8.58l3.91-21.19L79.1,14.5a8.21,8.21,0,0,0,0-3.2,13.92,13.92,0,0,0-2-5.37,7.57,7.57,0,0,0-1.31-1.79L75.64,4a2.59,2.59,0,0,0-.51-.43,9.48,9.48,0,0,0-5.85-2.14L67.1,1.38l-23-.66L19.47,0,18.9,0Z"/></g></g></svg>