<svg xmlns="http://www.w3.org/2000/svg" xmlns:xlink="http://www.w3.org/1999/xlink" viewBox="0 0 74.1 55.75"><defs><style>.f3326ac5-252f-4ac3-9d1b-0c8c6588cd54{fill:#c66d43;}.b5c06f52-36ec-4c60-95a6-75f44cd30e6f{fill:#f29667;}.a8ceb313-999e-4b7e-843d-3f7953575358{fill:#ec6b43;}.bb75b60a-ad00-4349-bae9-b31f578a9193{opacity:0.65;fill:url(#aad20e75-b8fb-4f5f-b9e5-48f9fd353c2e);}.bce09146-84eb-47cb-ac46-677759e15968{fill:none;stroke:#feefe2;stroke-linecap:round;stroke-miterlimit:10;stroke-width:2.18px;}.e334a8e8-a930-4b13-b249-ab9bd7881521{fill:#fff;}</style><radialGradient id="aad20e75-b8fb-4f5f-b9e5-48f9fd353c2e" cx="2889.06" cy="588.05" r="25.84" gradientTransform="matrix(-1.13, -0.07, -0.22, 0.87, 3425.07, -272.8)" gradientUnits="userSpaceOnUse"><stop offset="0" stop-color="#fff" stop-opacity="0"/><stop offset="0.38" stop-color="#fffefe" stop-opacity="0.01"/><stop offset="0.51" stop-color="#fefbf9" stop-opacity="0.04"/><stop offset="0.61" stop-color="#fef4f0" stop-opacity="0.09"/><stop offset="0.69" stop-color="#fdece3" stop-opacity="0.16"/><stop offset="0.76" stop-color="#fbe1d3" stop-opacity="0.25"/><stop offset="0.81" stop-color="#fad3bf" stop-opacity="0.36"/><stop offset="0.87" stop-color="#f8c2a7" stop-opacity="0.5"/><stop offset="0.92" stop-color="#f5af8b" stop-opacity="0.65"/><stop offset="0.96" stop-color="#f39a6d" stop-opacity="0.82"/><stop offset="1" stop-color="#f0844e"/></radialGradient></defs><title>盤1_5</title><g id="fa31542e-666a-4078-b285-1d11383b550f" data-name="圖層 2"><g id="f98277c4-fca4-4cd2-a8b2-a30e4d4df744" data-name="圖層 1"><path class="f3326ac5-252f-4ac3-9d1b-0c8c6588cd54" d="M5.22,27.32a8,8,0,0,1,2.57-4.78L17.85,13l5.89-5.6a9.29,9.29,0,0,1,7-2.53L43,5.65l11.88.78h0l.57,0c.26,0,.52.06.77.1L55.83,5.5s5.4,1.31,7.35,6.14h0l.07.14h0l2.6,5.55,4.37,9.29a6.06,6.06,0,0,1,.51,3.32,8,8,0,0,1-2.57,4.77l-8.4,8-7.55,7.17a9.24,9.24,0,0,1-7,2.54L34,51.67l-12.88-.84h0l-.58,0-.4,0-.15,0a7.4,7.4,0,0,1-1-.17l-.38-.09-.08,0a13.59,13.59,0,0,1-7.74-5.51l1.56-.21L9.79,39.25l-4-8.62A6,6,0,0,1,5.22,27.32Z"/><path class="b5c06f52-36ec-4c60-95a6-75f44cd30e6f" d="M35.45,27c3.39-13.33,15.3-19.14,21-21.2a7.74,7.74,0,0,1,3.94,3.64l6.77,15.46a6,6,0,0,1,.51,3.31C63,25.65,52.07,21.3,35.45,27Z"/><path class="a8ceb313-999e-4b7e-843d-3f7953575358" d="M35.45,27C22.22,19.35,22.66,9.1,23.7,4.48a14.36,14.36,0,0,1,6.5-1.14L52.35,4.79a11.76,11.76,0,0,1,4.1,1C50.75,7.85,38.84,13.66,35.45,27Z"/><path class="b5c06f52-36ec-4c60-95a6-75f44cd30e6f" d="M35.45,27C18.83,32.68,8,28.29,3.37,25.74A8,8,0,0,1,5.94,21L20.11,6.79A12.36,12.36,0,0,1,23.7,4.48C22.66,9.1,22.22,19.35,35.45,27Z"/><path class="a8ceb313-999e-4b7e-843d-3f7953575358" d="M34.92,26.9C51.54,21.21,63,25.65,67.67,28.2A8,8,0,0,1,65.1,33L50.26,47.09a12.47,12.47,0,0,1-3.58,2.32C47.71,44.79,48.15,34.54,34.92,26.9Z"/><path class="a8ceb313-999e-4b7e-843d-3f7953575358" d="M35.45,27c-3.38,13.33-15.3,19.14-21,21.2a7.74,7.74,0,0,1-3.94-3.64L3.88,29.05a6,6,0,0,1-.51-3.31C8,28.29,18.83,32.68,35.45,27Z"/><path class="b5c06f52-36ec-4c60-95a6-75f44cd30e6f" d="M35.45,27c13.24,7.64,12.79,17.9,11.76,22.51a14.11,14.11,0,0,1-6.51,1.14L18.55,49.19a11.71,11.71,0,0,1-4.09-1C20.15,46.13,32.07,40.32,35.45,27Z"/><path class="bb75b60a-ad00-4349-bae9-b31f578a9193" d="M28.79,3.19,54.3,4.86a8.49,8.49,0,0,1,7.14,4.87l6.55,14a8.5,8.5,0,0,1-1.84,9.78l-15.79,15a8.48,8.48,0,0,1-6.42,2.32L18.43,49.13a8.52,8.52,0,0,1-7.14-4.88L4.74,30.3a8.49,8.49,0,0,1,1.84-9.77l15.8-15A8.49,8.49,0,0,1,28.79,3.19Z"/><path class="bce09146-84eb-47cb-ac46-677759e15968" d="M30,44.72l-9.65-.63a5.74,5.74,0,0,1-5-2.9L9.72,29A4.33,4.33,0,0,1,11,24l8.52-8.29"/><path class="e334a8e8-a930-4b13-b249-ab9bd7881521" d="M30.39,3.32c.29,0,.57,0,.86,0L51,4.64c.29,0,.58.08.87.12l.49,0a11.71,11.71,0,0,1,3.5.76l0,0s5.4,1.31,7.35,6.14h0l.07.14h0l2.6,5.55,4.37,9.29a6.06,6.06,0,0,1,.51,3.32,8,8,0,0,1-2.57,4.77l-8.4,8-7.55,7.17a9.26,9.26,0,0,1-6.39,2.56l-.6,0L34,51.67l-12.88-.84h0l-.58,0-.41,0-.14,0a7.4,7.4,0,0,1-1-.17l-.38-.09-.08,0a13.38,13.38,0,0,1-6.08-3.5,7,7,0,0,1-1.93-2.39L3.88,29.05a6,6,0,0,1-.51-3.31A8,8,0,0,1,5.94,21L20.11,6.79A12.36,12.36,0,0,1,23.7,4.48a14.22,14.22,0,0,1,5.61-1.15h.36l.72,0m0-3.32-.75,0h-.33a17.6,17.6,0,0,0-6.93,1.42,15.4,15.4,0,0,0-4.56,3l0,0,0,0L3.62,18.58A11.22,11.22,0,0,0,.07,25.34a9.44,9.44,0,0,0,.78,5.07L7.46,45.86l0,0,0,.06a10.13,10.13,0,0,0,2.72,3.44,16.74,16.74,0,0,0,7.44,4.24h.12l.46.11a11.29,11.29,0,0,0,1.27.23l.16,0h.1a4.43,4.43,0,0,0,.51.06l.57,0L33.74,55,45,55.72c.27,0,.55,0,.82,0a12.52,12.52,0,0,0,8.68-3.47l7.55-7.17,8.4-8A11.19,11.19,0,0,0,74,30.34a9.36,9.36,0,0,0-.8-5.13l-4.37-9.3-2.61-5.54,0-.07a10.8,10.8,0,0,0-.48-1l-.38-.81h-.09a15.34,15.34,0,0,0-8.66-6.19l-.25-.06A14.78,14.78,0,0,0,54,1.63L50.52.79l.19.5L31.46,0c-.34,0-.7,0-1.07,0Z"/></g></g></svg>