<svg xmlns="http://www.w3.org/2000/svg" xmlns:xlink="http://www.w3.org/1999/xlink" viewBox="0 0 84.39 60.88"><defs><style>.a4bd9cc1-9c41-48ec-9315-e54b60115d38{fill:#496b25;}.a420c156-705d-433c-bd34-b41416c1239d{fill:#73932c;}.afcb1a21-1f00-45bb-8f96-9f31e475fd5a{fill:#b9ac0d;}.b30ddfc6-acce-46d6-b132-f3603f966482{fill:url(#f827dcf1-7443-41f7-a462-fd83a73f64c3);}.fa650b28-fa48-4140-8d93-cd6f0312dd26{fill:none;stroke:#ffecb5;stroke-linecap:round;stroke-miterlimit:10;stroke-width:2.74px;}.ba916cbf-0ec7-4b42-a0c1-e89003325808{fill:#fff;}</style><radialGradient id="f827dcf1-7443-41f7-a462-fd83a73f64c3" cx="4210.68" cy="240.58" r="26.21" gradientTransform="matrix(-1.15, 0.13, 0.18, 0.85, 4851.61, -713.45)" gradientUnits="userSpaceOnUse"><stop offset="0" stop-color="#fff" stop-opacity="0"/><stop offset="0.33" stop-color="#fdfdfc" stop-opacity="0.01"/><stop offset="0.48" stop-color="#f7f8f1" stop-opacity="0.07"/><stop offset="0.61" stop-color="#ecefde" stop-opacity="0.15"/><stop offset="0.71" stop-color="#dde2c4" stop-opacity="0.28"/><stop offset="0.8" stop-color="#cad1a1" stop-opacity="0.44"/><stop offset="0.89" stop-color="#b1bc76" stop-opacity="0.64"/><stop offset="0.96" stop-color="#95a445" stop-opacity="0.87"/><stop offset="1" stop-color="#859628"/></radialGradient></defs><title>盤1_6</title><g id="e5767bcb-ad5f-4a57-bdf0-ee6d7d5b2aa1" data-name="圖層 2"><g id="b5df9acf-1944-4a86-852d-7d59c4abba69" data-name="圖層 1"><path class="a4bd9cc1-9c41-48ec-9315-e54b60115d38" d="M3.32,52.53,6,51.75,18.85,27.2l4.65-8.89,4.07-7.76L30,5.85a4,4,0,0,1,1-1.23L30.38,3.4c4.09-.47,5.82,1.36,5.82,1.36L40,8.23l8.08,7.33,9.08,8.25,21.4,19.43h0L80,44.55c2.24,2,.65,5.07-2.87,5.47l-36.7,4.1L9.92,57.53A4.07,4.07,0,0,1,8,57.28l-.27-.1A5.59,5.59,0,0,1,3.32,52.53Z"/><path class="a420c156-705d-433c-bd34-b41416c1239d" d="M75.6,42.73c2.16,2,.63,4.89-2.76,5.27L8.49,55.19c-3.39.38-6.09-2.07-4.86-4.42l4-7.6,61-6.81Z"/><polygon class="afcb1a21-1f00-45bb-8f96-9f31e475fd5a" points="68.58 36.36 7.61 43.17 14.36 30.3 56.7 25.57 68.58 36.36"/><polygon class="a420c156-705d-433c-bd34-b41416c1239d" points="44.81 14.78 56.7 25.57 14.36 30.3 21.1 17.43 44.81 14.78"/><path class="afcb1a21-1f00-45bb-8f96-9f31e475fd5a" d="M26.93,6.32a4.34,4.34,0,0,1,3.46-2,5.35,5.35,0,0,1,4.16,1.18l10.26,9.32L21.1,17.43Z"/><path class="b30ddfc6-acce-46d6-b132-f3603f966482" d="M32.71,3.47,76.25,43a2.78,2.78,0,0,1-1.57,4.83L6.43,55.46A2.79,2.79,0,0,1,3.65,51.4L28.37,4.24A2.79,2.79,0,0,1,32.71,3.47Z"/><path class="fa650b28-fa48-4140-8d93-cd6f0312dd26" d="M25.55,23l-11,21.59C13.17,47.21,16.2,50,20,49.52l16.58-1.85"/><path class="ba916cbf-0ec7-4b42-a0c1-e89003325808" d="M31.68,3.32c3.16,0,4.52,1.44,4.52,1.44L40,8.23l8.08,7.33,9.08,8.25,21.4,19.43h0L80,44.55c2.24,2,.65,5.07-2.87,5.47l-36.7,4.1L9.92,57.53l-.44,0A4.06,4.06,0,0,1,8,57.28l-.27-.1a5.59,5.59,0,0,1-4.44-4.65l.07,0a2.46,2.46,0,0,1,.24-1.74l4-7.6L14.36,30.3,21.1,17.43,26.93,6.32a3.63,3.63,0,0,1,1.65-1.51,4.66,4.66,0,0,1,2.1-.88l-.3-.53a12.23,12.23,0,0,1,1.3-.08m0-3.32h0A13.87,13.87,0,0,0,30,.1a3.31,3.31,0,0,0-2.33,1.37,7.23,7.23,0,0,0-.84.51A6.85,6.85,0,0,0,24,4.77L18.16,15.89,11.41,28.76,4.67,41.63l-4,7.6A5.79,5.79,0,0,0,0,52.28a4.34,4.34,0,0,0,0,.51,8.81,8.81,0,0,0,6.72,7.55l.19.07a7.21,7.21,0,0,0,2.56.47,7.49,7.49,0,0,0,.81-.05l30.54-3.41,36.7-4.1a7.48,7.48,0,0,0,6.57-4.84,6,6,0,0,0-1.84-6.39l-1.44-1.31L59.41,21.35,50.33,13.1,42.25,5.77,38.48,2.34A9.7,9.7,0,0,0,31.68,0Z"/></g></g></svg>