<svg xmlns="http://www.w3.org/2000/svg" xmlns:xlink="http://www.w3.org/1999/xlink" viewBox="0 0 86.6 79.45"><defs><style>.ab500ed0-aa18-4520-b665-ac5dc1bf2943{fill:#c88100;}.bffbd816-3bea-4ea2-9917-1f2580fc0dcb{fill:#fac100;}.edaaf008-159c-4ca1-bd73-656cc15acf72{fill:url(#b7588c4b-b953-4c47-adac-2d905367200a);}.f051b097-01f7-41a8-bd95-c48ace8e425b{fill:#f5a200;stroke:#ee7300;stroke-width:1.27px;}.f051b097-01f7-41a8-bd95-c48ace8e425b,.f32d85bf-7025-4a46-84a5-a493f66a38cc{stroke-miterlimit:10;}.b156d9dd-b66d-43fa-8bd2-85a75471ebfe{fill:#f08321;}.f32d85bf-7025-4a46-84a5-a493f66a38cc{fill:none;stroke:#ffefcc;stroke-linecap:round;stroke-width:3.32px;}.a5de6cd2-77d6-4d2b-bc89-2ebf2c15cb53{fill:#fff;}</style><radialGradient id="b7588c4b-b953-4c47-adac-2d905367200a" cx="5034.16" cy="114.06" r="36" gradientTransform="matrix(-0.42, -0.97, -0.84, 0.48, 2236.5, 4877.32)" gradientUnits="userSpaceOnUse"><stop offset="0" stop-color="#fff" stop-opacity="0"/><stop offset="0.3" stop-color="#fefefd" stop-opacity="0.01"/><stop offset="0.45" stop-color="#fcfaf4" stop-opacity="0.05"/><stop offset="0.56" stop-color="#f9f4e6" stop-opacity="0.11"/><stop offset="0.66" stop-color="#f4ecd2" stop-opacity="0.2"/><stop offset="0.74" stop-color="#eee0b8" stop-opacity="0.32"/><stop offset="0.82" stop-color="#e7d297" stop-opacity="0.47"/><stop offset="0.89" stop-color="#ddc271" stop-opacity="0.64"/><stop offset="0.95" stop-color="#d3af45" stop-opacity="0.84"/><stop offset="1" stop-color="#cba022"/></radialGradient></defs><title>盤1_7</title><g id="aa1a71a7-20d3-492c-b13e-5eb2001ebae1" data-name="圖層 2"><g id="bdde51d5-a8af-467e-b8e3-4d147e0f0d93" data-name="圖層 1"><path class="ab500ed0-aa18-4520-b665-ac5dc1bf2943" d="M5.17,27.71h0l.07-.2a29.52,29.52,0,0,1,4-7.28A45.56,45.56,0,0,1,19.54,9.67l-.25,2A37.81,37.81,0,0,1,36.93,7.17C58,6.79,77.14,21.91,79.78,41a30.22,30.22,0,0,1-.49,11.15l2-.13a52,52,0,0,1-8.57,12.71A30.57,30.57,0,0,1,68.14,69c-.84.66-1.35,1-1.35,1h0a37.14,37.14,0,0,1-20.31,6.17c-21,.38-40.21-14.75-42.85-33.79A29.79,29.79,0,0,1,5.17,27.71Z"/><ellipse class="bffbd816-3bea-4ea2-9917-1f2580fc0dcb" cx="44.89" cy="37.8" rx="33.65" ry="39.1" transform="translate(-7.05 65.13) rotate(-67.85)"/><ellipse class="edaaf008-159c-4ca1-bd73-656cc15acf72" cx="44.65" cy="37.8" rx="33.65" ry="39.1" transform="translate(-7.2 64.9) rotate(-67.85)"/><ellipse class="f051b097-01f7-41a8-bd95-c48ace8e425b" cx="61.1" cy="21.78" rx="3.96" ry="4.6" transform="translate(17.89 70.16) rotate(-67.85)"/><ellipse class="f051b097-01f7-41a8-bd95-c48ace8e425b" cx="67.56" cy="44.87" rx="3.96" ry="4.6" transform="translate(0.53 90.53) rotate(-67.85)"/><ellipse class="f051b097-01f7-41a8-bd95-c48ace8e425b" cx="43.53" cy="37.17" rx="3.96" ry="4.6" transform="translate(-7.31 63.47) rotate(-67.85)"/><ellipse class="f051b097-01f7-41a8-bd95-c48ace8e425b" cx="28.93" cy="18.29" rx="3.96" ry="4.6" transform="translate(1.08 38.19) rotate(-67.85)"/><ellipse class="f051b097-01f7-41a8-bd95-c48ace8e425b" cx="21.01" cy="41.64" rx="3.96" ry="4.6" transform="translate(-25.48 45.4) rotate(-67.85)"/><ellipse class="f051b097-01f7-41a8-bd95-c48ace8e425b" cx="44.65" cy="59.66" rx="3.96" ry="4.6" transform="translate(-27.44 78.52) rotate(-67.85)"/><path class="b156d9dd-b66d-43fa-8bd2-85a75471ebfe" d="M48.41,16.7c3.05,0,3.06-4.74,0-4.74s-3.06,4.74,0,4.74Z"/><path class="b156d9dd-b66d-43fa-8bd2-85a75471ebfe" d="M26.73,31.66c3.06,0,3.06-4.74,0-4.74s-3.06,4.74,0,4.74Z"/><path class="b156d9dd-b66d-43fa-8bd2-85a75471ebfe" d="M60.3,37.69c3.06,0,3.06-4.75,0-4.75s-3.06,4.75,0,4.75Z"/><path class="b156d9dd-b66d-43fa-8bd2-85a75471ebfe" d="M33.08,48.67l.1-.1a2.38,2.38,0,0,0-3.36-3.36l-.09.1a2.37,2.37,0,0,0,3.35,3.36Z"/><path class="b156d9dd-b66d-43fa-8bd2-85a75471ebfe" d="M63.4,59.23c3.05,0,3.06-4.74,0-4.74s-3.06,4.74,0,4.74Z"/><path class="b156d9dd-b66d-43fa-8bd2-85a75471ebfe" d="M27,58.62l.19-.2a2.37,2.37,0,1,0-3.35-3.36l-.2.21A2.37,2.37,0,0,0,27,58.62Z"/><path class="b156d9dd-b66d-43fa-8bd2-85a75471ebfe" d="M14.15,28.17c3.06,0,3.06-4.74,0-4.74s-3.05,4.74,0,4.74Z"/><path class="b156d9dd-b66d-43fa-8bd2-85a75471ebfe" d="M76.26,30.82l0-.1a2.32,2.32,0,0,0-1.09-1.42,2.37,2.37,0,0,0-3.24.85A2.82,2.82,0,0,0,71.67,32v.1a2.36,2.36,0,0,0,1.09,1.42,2.44,2.44,0,0,0,1.83.24A2.4,2.4,0,0,0,76,32.65a2.82,2.82,0,0,0,.24-1.83Z"/><path class="b156d9dd-b66d-43fa-8bd2-85a75471ebfe" d="M52.22,48.22l.09-.1A2.37,2.37,0,1,0,49,44.76l-.1.1a2.38,2.38,0,0,0,3.36,3.36Z"/><path class="f32d85bf-7025-4a46-84a5-a493f66a38cc" d="M15,30.87S12,56.76,45.58,66.44"/><path class="a5de6cd2-77d6-4d2b-bc89-2ebf2c15cb53" d="M40.89,3.32c20.72,0,39.47,15,42.08,33.79A29.91,29.91,0,0,1,81.34,52h0v0A29.24,29.24,0,0,1,76,60.8c-1.11,1.48-2.2,2.77-3.22,3.88A30.57,30.57,0,0,1,68.14,69c-.84.66-1.35,1-1.35,1h0a37.14,37.14,0,0,1-20.31,6.17H45.7c-20.72,0-39.47-15-42.07-33.8A29.79,29.79,0,0,1,5.17,27.71h0l.07-.2a29.52,29.52,0,0,1,4-7.28c.76-1.09,1.65-2.25,2.65-3.43,5.89-8,15.91-13.25,27.93-13.47h1M81.34,52h0M40.89,0H39.82C27.2.24,16.1,5.6,9.34,14.74c-1,1.17-1.91,2.37-2.73,3.54a32.39,32.39,0,0,0-4.47,8l-.08.19a1.87,1.87,0,0,0-.07.22A33,33,0,0,0,.34,42.79C1.71,52.72,7.2,62,15.79,68.87A48,48,0,0,0,45.7,79.45h.84a40.51,40.51,0,0,0,22-6.66h0a17.35,17.35,0,0,0,1.63-1.17,34.06,34.06,0,0,0,5.06-4.7,51.41,51.41,0,0,0,3.34-4,32.74,32.74,0,0,0,5.8-9.56c.05-.12.1-.24.14-.37a33,33,0,0,0,1.74-16.3c-1.38-9.93-6.87-19.19-15.46-26.08A48,48,0,0,0,40.89,0Z"/></g></g></svg>