<svg xmlns="http://www.w3.org/2000/svg" xmlns:xlink="http://www.w3.org/1999/xlink" viewBox="0 0 70.37 64.86"><defs><style>.b8cf85b5-5ca0-41f8-abdf-c633d2ca0ab7{fill:#c88100;}.ba577d44-3baa-4b71-b7a0-d5c728396188{fill:#fac100;}.ad53fc7d-48c2-4d64-82e4-b9cefb289d5a{fill:url(#b316a033-c69a-4aa4-a65b-60fc567b7250);}.ed212226-8667-4c29-a3ec-cfdf332e6e11{fill:#f5a200;stroke:#ee7300;stroke-width:0.98px;}.ed212226-8667-4c29-a3ec-cfdf332e6e11,.f5d9ffc5-2498-4b82-9e4a-049110994ee6{stroke-miterlimit:10;}.a7865148-db8b-410f-9455-0fc866edaba3{fill:#f08321;}.f5d9ffc5-2498-4b82-9e4a-049110994ee6{fill:none;stroke:#ffefcc;stroke-linecap:round;stroke-width:2.57px;}.b60f77b3-2db4-412e-8416-6790bc7a2cd4{fill:#fff;}</style><radialGradient id="b316a033-c69a-4aa4-a65b-60fc567b7250" cx="1433.74" cy="159.61" r="27.8" gradientTransform="matrix(0.97, 0.42, -0.48, 0.84, -1282.65, -699.68)" gradientUnits="userSpaceOnUse"><stop offset="0" stop-color="#fff" stop-opacity="0"/><stop offset="0.3" stop-color="#fefefd" stop-opacity="0.01"/><stop offset="0.45" stop-color="#fcfaf4" stop-opacity="0.05"/><stop offset="0.56" stop-color="#f9f4e6" stop-opacity="0.11"/><stop offset="0.66" stop-color="#f4ecd2" stop-opacity="0.2"/><stop offset="0.74" stop-color="#eee0b8" stop-opacity="0.32"/><stop offset="0.82" stop-color="#e7d297" stop-opacity="0.47"/><stop offset="0.89" stop-color="#ddc271" stop-opacity="0.64"/><stop offset="0.95" stop-color="#d3af45" stop-opacity="0.84"/><stop offset="1" stop-color="#cba022"/></radialGradient></defs><title>盤2_2</title><g id="eab066eb-5ce1-4d8f-8e48-383591306f54" data-name="圖層 2"><g id="fb1eab79-8e83-491d-b123-9dcdfa8e99df" data-name="圖層 1"><path class="b8cf85b5-5ca0-41f8-abdf-c633d2ca0ab7" d="M64.62,23.15h0s0-.06-.06-.15a22.27,22.27,0,0,0-3.13-5.62,34.94,34.94,0,0,0-7.91-8.16l.2,1.57A29.17,29.17,0,0,0,40.1,7.29C23.86,7,9.05,18.68,7,33.38A23.24,23.24,0,0,0,7.39,42l-1.59-.1a40.1,40.1,0,0,0,6.62,9.82A24.51,24.51,0,0,0,16,55c.66.51,1,.75,1,.75h0a28.64,28.64,0,0,0,15.68,4.76c16.24.3,31.06-11.38,33.1-26.09A23.08,23.08,0,0,0,64.62,23.15Z"/><ellipse class="ba577d44-3baa-4b71-b7a0-d5c728396188" cx="33.95" cy="30.95" rx="30.2" ry="25.99" transform="translate(-9.16 15.08) rotate(-22.15)"/><ellipse class="ad53fc7d-48c2-4d64-82e4-b9cefb289d5a" cx="34.14" cy="30.95" rx="30.2" ry="25.99" transform="translate(-9.15 15.15) rotate(-22.15)"/><ellipse class="ed212226-8667-4c29-a3ec-cfdf332e6e11" cx="21.44" cy="18.57" rx="3.56" ry="3.06" transform="translate(-5.42 9.45) rotate(-22.15)"/><ellipse class="ed212226-8667-4c29-a3ec-cfdf332e6e11" cx="16.44" cy="36.4" rx="3.56" ry="3.06" transform="translate(-12.51 8.89) rotate(-22.15)"/><ellipse class="ed212226-8667-4c29-a3ec-cfdf332e6e11" cx="35.01" cy="30.45" rx="3.56" ry="3.06" transform="translate(-8.9 15.44) rotate(-22.15)"/><ellipse class="ed212226-8667-4c29-a3ec-cfdf332e6e11" cx="46.28" cy="15.88" rx="3.56" ry="3.06" transform="translate(-2.57 18.62) rotate(-22.15)"/><ellipse class="ed212226-8667-4c29-a3ec-cfdf332e6e11" cx="52.39" cy="33.91" rx="3.56" ry="3.06" transform="translate(-8.92 22.25) rotate(-22.15)"/><ellipse class="ed212226-8667-4c29-a3ec-cfdf332e6e11" cx="34.14" cy="47.82" rx="3.56" ry="3.06" transform="translate(-15.51 16.4) rotate(-22.15)"/><path class="a7865148-db8b-410f-9455-0fc866edaba3" d="M31.24,14.65a1.83,1.83,0,0,0,0-3.66,1.83,1.83,0,0,0,0,3.66Z"/><path class="a7865148-db8b-410f-9455-0fc866edaba3" d="M48,26.2a1.83,1.83,0,0,0,0-3.66,1.83,1.83,0,0,0,0,3.66Z"/><path class="a7865148-db8b-410f-9455-0fc866edaba3" d="M22.05,30.85a1.83,1.83,0,0,0,0-3.66,1.83,1.83,0,0,0,0,3.66Z"/><path class="a7865148-db8b-410f-9455-0fc866edaba3" d="M45.66,36.74l-.07-.08A1.83,1.83,0,1,0,43,39.26l.07.07a1.84,1.84,0,0,0,2.59,0,1.86,1.86,0,0,0,0-2.59Z"/><path class="a7865148-db8b-410f-9455-0fc866edaba3" d="M19.66,47.49a1.83,1.83,0,0,0,0-3.66,1.83,1.83,0,0,0,0,3.66Z"/><path class="a7865148-db8b-410f-9455-0fc866edaba3" d="M50.34,44.43l-.15-.16a1.83,1.83,0,1,0-2.59,2.59l.15.16a1.84,1.84,0,0,0,2.59,0,1.88,1.88,0,0,0,0-2.59Z"/><path class="a7865148-db8b-410f-9455-0fc866edaba3" d="M57.69,23.51a1.84,1.84,0,0,0,0-3.67,1.84,1.84,0,0,0,0,3.67Z"/><path class="a7865148-db8b-410f-9455-0fc866edaba3" d="M13.26,26.53v-.08A1.89,1.89,0,0,0,12,24.19a1.86,1.86,0,0,0-2.25,1.28v.08A1.89,1.89,0,0,0,11,27.81a1.86,1.86,0,0,0,2.25-1.28Z"/><path class="a7865148-db8b-410f-9455-0fc866edaba3" d="M30.89,36.4l-.08-.08a1.84,1.84,0,0,0-2.59,0,1.86,1.86,0,0,0,0,2.59l.07.08a1.83,1.83,0,0,0,2.6-2.59Z"/><path class="f5d9ffc5-2498-4b82-9e4a-049110994ee6" d="M57,25.59s2.31,20-23.6,27.47"/><path class="b60f77b3-2db4-412e-8416-6790bc7a2cd4" d="M37,4.32h.79c9.31.17,17.05,4.25,21.59,10.46.75.89,1.45,1.77,2,2.6A22.27,22.27,0,0,1,64.57,23c0,.09.06.15.06.15h0a23.08,23.08,0,0,1,1.2,11.29c-2,14.52-16.49,26.1-32.5,26.1h-.6A28.64,28.64,0,0,1,17,55.77h0s-.39-.24-1-.75a24.51,24.51,0,0,1-3.57-3.32c-.78-.85-1.62-1.89-2.48-3a22.7,22.7,0,0,1-4-6.54c-.05-.09-.1-.17-.14-.26h0A22.94,22.94,0,0,1,4.55,30.41C6.56,15.89,21,4.32,37,4.32M37,0C18.74,0,2.59,13.1.27,29.82a27.2,27.2,0,0,0,1.33,13,4.46,4.46,0,0,0,.31.89L2,44a27.13,27.13,0,0,0,4.56,7.41c.94,1.25,1.82,2.32,2.63,3.2a29.28,29.28,0,0,0,4.16,3.86,14.82,14.82,0,0,0,1.37,1,33,33,0,0,0,17.91,5.43h.67c18.31,0,34.46-13.1,36.77-29.82a27.12,27.12,0,0,0-1.35-13.2,2.25,2.25,0,0,0-.08-.24l-.07-.18a26.75,26.75,0,0,0-3.66-6.58c-.58-.83-1.27-1.73-2.11-2.73C57.26,4.6,48.2.19,37.91,0H37Z"/></g></g></svg>