<svg xmlns="http://www.w3.org/2000/svg" xmlns:xlink="http://www.w3.org/1999/xlink" viewBox="0 0 60.81 50.7"><defs><style>.b3b89fec-0a09-4f93-a5ba-49a718f49403{fill:#0a4d85;}.ffe16b66-83ef-4b5c-9956-47c4ffaa4509{fill:#97c7df;}.f7808351-79fe-4d55-af39-7141c5af526e{fill:#7aa2d6;}.e8559499-4b79-4b59-8c97-9ec00b4c1ff7{opacity:0.65;fill:url(#a0db36fc-9ec4-4c58-85c1-f3f0e838b9a5);}.b7b3932d-98d7-4da5-a17a-44268789fe85{fill:none;stroke:#ceebfb;stroke-linecap:round;stroke-miterlimit:10;stroke-width:2px;}.b945b0f7-0995-4d5a-a694-04be278220c3{fill:#fff;}</style><radialGradient id="a0db36fc-9ec4-4c58-85c1-f3f0e838b9a5" cx="3749.05" cy="24.53" r="25.59" gradientTransform="matrix(-1.23, 0.07, 0.36, 0.93, 4644.18, -244.98)" gradientUnits="userSpaceOnUse"><stop offset="0" stop-color="#fff" stop-opacity="0"/><stop offset="0.39" stop-color="#fefefe" stop-opacity="0.01"/><stop offset="0.54" stop-color="#f9fbfc" stop-opacity="0.04"/><stop offset="0.64" stop-color="#f1f6f8" stop-opacity="0.11"/><stop offset="0.72" stop-color="#e5eff3" stop-opacity="0.19"/><stop offset="0.79" stop-color="#d6e5ec" stop-opacity="0.31"/><stop offset="0.85" stop-color="#c3d9e3" stop-opacity="0.45"/><stop offset="0.91" stop-color="#accbd9" stop-opacity="0.62"/><stop offset="0.96" stop-color="#93bbcd" stop-opacity="0.8"/><stop offset="1" stop-color="#79aac1"/></radialGradient></defs><title>盤2_6</title><g id="fbe30385-a5a0-4191-ac2f-ae571f57a1e5" data-name="圖層 2"><g id="b40e2492-7bb7-4713-b4c8-1e3a633dbaa8" data-name="圖層 1"><path class="b3b89fec-0a09-4f93-a5ba-49a718f49403" d="M3.43,10a8.57,8.57,0,0,1,2-4.37l.19,1.66A6,6,0,0,1,8.2,6.63l18.41-.51L45,5.62c3.15-.09,6.1,2,6.59,4.66l2.87,15.55,2.65,14.38.28.09a9.31,9.31,0,0,1,0,2,3.67,3.67,0,0,1-.43,1.6v0h0a5,5,0,0,1-4.44,2.45l-18.41.5-18.41.51c-3.15.09-6.1-2-6.59-4.66L6.26,27.16,3.39,11.6A4,4,0,0,1,3.43,10Z"/><path class="ffe16b66-83ef-4b5c-9956-47c4ffaa4509" d="M7.19,25.21,4.37,9.42c-.48-2.71,1.64-5,4.73-5l18.08-.52,3.69,20.68Z"/><path class="f7808351-79fe-4d55-af39-7141c5af526e" d="M27.18,3.85l18.07-.51c3.1-.09,6,2,6.47,4.73l2.82,15.79-23.67.67Z"/><path class="f7808351-79fe-4d55-af39-7141c5af526e" d="M30.87,24.53l3.69,20.69-18.08.51c-3.09.09-6-2-6.47-4.73L7.19,25.21Z"/><path class="ffe16b66-83ef-4b5c-9956-47c4ffaa4509" d="M54.54,23.86l2.82,15.79c.48,2.7-1.63,5-4.73,5.05l-18.07.52L30.87,24.53Z"/><path class="e8559499-4b79-4b59-8c97-9ec00b4c1ff7" d="M16.07,45.74l37-1.05c2.86-.08,4.82-2.16,4.38-4.64L51.65,7.68c-.44-2.49-3.12-4.44-6-4.35l-37,1C5.82,4.46,3.86,6.54,4.3,9l5.78,32.37C10.52,43.88,13.2,45.82,16.07,45.74Z"/><path class="b7b3932d-98d7-4da5-a17a-44268789fe85" d="M10.27,21.22l3.09,17.27c.42,2.4,3,4.28,5.77,4.2l18.22-.52"/><path class="b945b0f7-0995-4d5a-a694-04be278220c3" d="M45.84,3.32c2.8,0,5.38,1.92,5.81,4.36l.07.39h0l2.81,15.79,2.82,15.79h0l.07.39a3.91,3.91,0,0,1,0,1,9.07,9.07,0,0,1,0,1.23,3.81,3.81,0,0,1-.43,1.6v0h0a5,5,0,0,1-4.44,2.45l-18.41.51-18.41.5h-.19c-3.08,0-5.92-2-6.4-4.66L6.26,27.16,3.39,11.6a4,4,0,0,1,0-1.62A8.34,8.34,0,0,1,4.66,6.67a3.75,3.75,0,0,1,.68-1l.1-.11v0A4.9,4.9,0,0,1,8.69,4.38H9.1l18.08-.52.61,0,17.88-.5h.17m0-3.32h-.27L27.7.51l-.62,0L9,1l-.41,0A8.27,8.27,0,0,0,3.52,2.9,4,4,0,0,0,3,3.38l-.06.07A7.4,7.4,0,0,0,1.77,5,11.59,11.59,0,0,0,.16,9.38a7.29,7.29,0,0,0,0,2.83L3,27.76,5.86,43.31c.78,4.21,4.93,7.39,9.67,7.39h.28l18.41-.5,18.41-.51a8.28,8.28,0,0,0,7.22-4.09.41.41,0,0,0,0-.09l.09-.17a7,7,0,0,0,.74-2.78,10.47,10.47,0,0,0,.06-1.4,6.78,6.78,0,0,0-.09-1.69l-.06-.35v0L57.81,23.28,55,7.48l-.07-.39C54.2,3.05,50.3,0,45.84,0Z"/></g></g></svg>