<svg xmlns="http://www.w3.org/2000/svg" xmlns:xlink="http://www.w3.org/1999/xlink" viewBox="0 0 78.78 65.31"><defs><style>.b49d535e-0b42-4a9f-910e-e7486417a43c{fill:#0a4d85;}.aedaa13b-640e-4f35-99ed-ae3e2f953bc7{fill:#97c7df;}.b5759364-f9be-4e61-9052-5bdcdf71aac9{fill:#7aa2d6;}.aa20a3b2-6189-4969-b651-50061fbd7d7b{opacity:0.65;fill:url(#ee7122b4-cb0a-439d-9fd2-751f8ae48066);}.e2c238e0-a786-4a63-8201-89333f50e16c{fill:none;stroke:#ceebfb;stroke-linecap:round;stroke-miterlimit:10;stroke-width:2.66px;}.ead2fc3d-56d8-4217-857e-899bc19be236{fill:#fff;}</style><radialGradient id="ee7122b4-cb0a-439d-9fd2-751f8ae48066" cx="1882.55" cy="183.66" r="34.09" gradientTransform="matrix(1.23, 0.07, -0.36, 0.93, -2216, -263.58)" gradientUnits="userSpaceOnUse"><stop offset="0" stop-color="#fff" stop-opacity="0"/><stop offset="0.39" stop-color="#fefefe" stop-opacity="0.01"/><stop offset="0.54" stop-color="#f9fbfc" stop-opacity="0.04"/><stop offset="0.64" stop-color="#f1f6f8" stop-opacity="0.11"/><stop offset="0.72" stop-color="#e5eff3" stop-opacity="0.19"/><stop offset="0.79" stop-color="#d6e5ec" stop-opacity="0.31"/><stop offset="0.85" stop-color="#c3d9e3" stop-opacity="0.45"/><stop offset="0.91" stop-color="#accbd9" stop-opacity="0.62"/><stop offset="0.96" stop-color="#93bbcd" stop-opacity="0.8"/><stop offset="1" stop-color="#79aac1"/></radialGradient></defs><title>盤2_7</title><g id="e7638d2e-f652-40e1-b8e0-d1c0ebb887dc" data-name="圖層 2"><g id="bdeae72d-b8e4-437b-9a57-642970d700eb" data-name="圖層 1"><path class="b49d535e-0b42-4a9f-910e-e7486417a43c" d="M75.32,12.19a11.32,11.32,0,0,0-2.68-5.81l-.26,2.2A7.71,7.71,0,0,0,69,7.73L44.44,7.05,19.92,6.38c-4.2-.12-8.13,2.66-8.78,6.2L7.32,33.3,3.79,52.45l-.39.13a12.68,12.68,0,0,0,0,2.64A5,5,0,0,0,4,57.35a0,0,0,0,1,0,0H4a6.69,6.69,0,0,0,5.92,3.27l24.52.67L59,62c4.19.11,8.12-2.67,8.77-6.21l3.83-20.71,3.82-20.72A5.21,5.21,0,0,0,75.32,12.19Z"/><path class="aedaa13b-640e-4f35-99ed-ae3e2f953bc7" d="M70.31,32.47l3.75-21c.64-3.6-2.18-6.61-6.29-6.73L43.69,4,38.78,31.57Z"/><path class="b5759364-f9be-4e61-9052-5bdcdf71aac9" d="M43.69,4,19.61,3.34c-4.12-.12-8,2.71-8.62,6.3l-3.75,21,31.54.89Z"/><path class="b5759364-f9be-4e61-9052-5bdcdf71aac9" d="M38.78,31.57,33.86,59.12l24.08.68c4.12.12,8-2.7,8.62-6.3l3.75-21Z"/><path class="aedaa13b-640e-4f35-99ed-ae3e2f953bc7" d="M7.24,30.68l-3.75,21c-.64,3.59,2.18,6.61,6.29,6.72l24.08.69,4.92-27.55Z"/><path class="aa20a3b2-6189-4969-b651-50061fbd7d7b" d="M58.49,59.82,9.24,58.42c-3.82-.11-6.43-2.88-5.84-6.19L11.09,9.12c.59-3.31,4.16-5.9,8-5.79l49.26,1.4c3.81.11,6.42,2.88,5.83,6.18L66.46,54C65.87,57.33,62.3,59.93,58.49,59.82Z"/><path class="e2c238e0-a786-4a63-8201-89333f50e16c" d="M66.2,27.16l-4.1,23c-.57,3.19-4,5.7-7.7,5.59l-24.26-.69"/><path class="ead2fc3d-56d8-4217-857e-899bc19be236" d="M18.83,3.32h.23l2.8.08L43.69,4,65,4.63l3.35.1a6.52,6.52,0,0,1,4.32,1.68v0l.13.14a5.12,5.12,0,0,1,.91,1.26,11.25,11.25,0,0,1,1.64,4.41,5.21,5.21,0,0,1,.05,2.16L71.55,35.07,67.72,55.78C67.08,59.25,63.3,62,59.2,62H59l-24.52-.68L9.91,60.64A6.69,6.69,0,0,1,4,57.37H4a0,0,0,0,0,0,0,5,5,0,0,1-.57-2.13,12.45,12.45,0,0,1-.07-1.66,5,5,0,0,1,.06-1.33l.09-.52h0l3.75-21L11,9.64h0l.09-.52c.58-3.24,4-5.8,7.74-5.8m0-3.32h0c-5.32,0-10.16,3.75-11,8.54L7.73,9v0L4,30.09l-3.75,21-.09.53a7.76,7.76,0,0,0-.11,2A15.52,15.52,0,0,0,.1,55.48,8.31,8.31,0,0,0,1,58.78l.07.15a1,1,0,0,1,.08.14A10,10,0,0,0,9.81,64l24.53.67,24.52.68h.34c5.69,0,10.87-3.92,11.79-8.93l3.82-20.71L78.64,15a8.68,8.68,0,0,0,0-3.37,14.37,14.37,0,0,0-2-5.46A8.27,8.27,0,0,0,75.2,4.26a.84.84,0,0,0-.12-.13,3,3,0,0,0-.57-.5,9.91,9.91,0,0,0-6.1-2.22l-3.34-.1L43.78.71,22,.08,19.16,0Z"/></g></g></svg>