<svg xmlns="http://www.w3.org/2000/svg" xmlns:xlink="http://www.w3.org/1999/xlink" viewBox="0 0 74.1 55.75"><defs><style>.aace37a8-32c3-4250-8535-5d20531320cf{fill:#c66d43;}.f9c1b479-3f8b-406f-9dbf-89d4167de936{fill:#f29667;}.ef739f31-8999-4eda-af1b-b7237beaf388{fill:#ec6b43;}.a4afa03d-512f-463f-8cca-a97c8091a162{opacity:0.65;fill:url(#e4846dd5-9cc9-4b49-be67-3e556fc79383);}.a8484f86-0846-4154-aa14-7397022d7973{fill:none;stroke:#feefe2;stroke-linecap:round;stroke-miterlimit:10;stroke-width:2.18px;}.b8bfbdff-e234-48dc-ac6f-d1533de6af7a{fill:#fff;}</style><radialGradient id="e4846dd5-9cc9-4b49-be67-3e556fc79383" cx="2236.14" cy="582.15" r="25.84" gradientTransform="matrix(-1.13, -0.07, -0.22, 0.87, 2687.38, -315.81)" gradientUnits="userSpaceOnUse"><stop offset="0" stop-color="#fff" stop-opacity="0"/><stop offset="0.38" stop-color="#fffefe" stop-opacity="0.01"/><stop offset="0.51" stop-color="#fefbf9" stop-opacity="0.04"/><stop offset="0.61" stop-color="#fef4f0" stop-opacity="0.09"/><stop offset="0.69" stop-color="#fdece3" stop-opacity="0.16"/><stop offset="0.76" stop-color="#fbe1d3" stop-opacity="0.25"/><stop offset="0.81" stop-color="#fad3bf" stop-opacity="0.36"/><stop offset="0.87" stop-color="#f8c2a7" stop-opacity="0.5"/><stop offset="0.92" stop-color="#f5af8b" stop-opacity="0.65"/><stop offset="0.96" stop-color="#f39a6d" stop-opacity="0.82"/><stop offset="1" stop-color="#f0844e"/></radialGradient></defs><title>盤2_8</title><g id="bc1324f1-4c36-4a5f-bde8-d18b0bdeb609" data-name="圖層 2"><g id="bb59bcb3-bcc0-45ca-b462-20dde1cabf45" data-name="圖層 1"><path class="aace37a8-32c3-4250-8535-5d20531320cf" d="M5.22,27.32a8,8,0,0,1,2.57-4.78L17.85,13l5.89-5.61a9.29,9.29,0,0,1,7-2.53L43,5.65l11.88.78h0l.57,0c.26,0,.52.06.77.1L55.83,5.5s5.4,1.31,7.35,6.14h0l.07.14h0l2.6,5.55,4.37,9.29a6.06,6.06,0,0,1,.51,3.32,8,8,0,0,1-2.57,4.78l-8.4,8-7.55,7.17a9.24,9.24,0,0,1-7,2.54L34,51.67l-12.88-.84h0l-.58,0-.4,0H20a9.59,9.59,0,0,1-1-.18l-.38-.09-.08,0a13.59,13.59,0,0,1-7.74-5.51l1.56-.21L9.79,39.26l-4-8.63A6,6,0,0,1,5.22,27.32Z"/><path class="f9c1b479-3f8b-406f-9dbf-89d4167de936" d="M35.45,27c3.39-13.33,15.3-19.14,21-21.2a7.74,7.74,0,0,1,3.94,3.64l6.77,15.46a6,6,0,0,1,.51,3.31C63,25.65,52.07,21.3,35.45,27Z"/><path class="ef739f31-8999-4eda-af1b-b7237beaf388" d="M35.45,27C22.22,19.35,22.66,9.1,23.7,4.48a14.36,14.36,0,0,1,6.5-1.14L52.35,4.79a11.76,11.76,0,0,1,4.1,1C50.75,7.85,38.84,13.66,35.45,27Z"/><path class="f9c1b479-3f8b-406f-9dbf-89d4167de936" d="M35.45,27C18.83,32.68,8,28.29,3.37,25.74A8,8,0,0,1,5.94,21L20.11,6.79A12.36,12.36,0,0,1,23.7,4.48C22.66,9.1,22.22,19.35,35.45,27Z"/><path class="ef739f31-8999-4eda-af1b-b7237beaf388" d="M34.92,26.9C51.54,21.21,63,25.65,67.67,28.2A8,8,0,0,1,65.1,33L50.26,47.09a12.26,12.26,0,0,1-3.58,2.32C47.71,44.79,48.15,34.54,34.92,26.9Z"/><path class="ef739f31-8999-4eda-af1b-b7237beaf388" d="M35.45,27c-3.38,13.33-15.3,19.14-21,21.2a7.7,7.7,0,0,1-3.94-3.64L3.88,29.05a6,6,0,0,1-.51-3.31C8,28.29,18.83,32.68,35.45,27Z"/><path class="f9c1b479-3f8b-406f-9dbf-89d4167de936" d="M35.45,27c13.24,7.64,12.79,17.9,11.76,22.51a14.11,14.11,0,0,1-6.51,1.14L18.55,49.19a11.71,11.71,0,0,1-4.09-1C20.15,46.13,32.07,40.32,35.45,27Z"/><path class="a4afa03d-512f-463f-8cca-a97c8091a162" d="M28.79,3.19,54.3,4.86a8.49,8.49,0,0,1,7.14,4.87l6.55,14a8.5,8.5,0,0,1-1.84,9.78l-15.79,15a8.48,8.48,0,0,1-6.42,2.32L18.43,49.13a8.52,8.52,0,0,1-7.14-4.88L4.74,30.31a8.51,8.51,0,0,1,1.84-9.78l15.8-15A8.49,8.49,0,0,1,28.79,3.19Z"/><path class="a8484f86-0846-4154-aa14-7397022d7973" d="M30,44.72l-9.65-.63a5.74,5.74,0,0,1-5-2.9L9.72,29A4.33,4.33,0,0,1,11,24l8.52-8.29"/><path class="b8bfbdff-e234-48dc-ac6f-d1533de6af7a" d="M30.39,3.32l.86,0L51,4.64c.29,0,.58.08.87.12l.49,0a12,12,0,0,1,3.5.76l0,0s5.4,1.31,7.35,6.14l.07.14h0l2.6,5.55,4.37,9.29a6.06,6.06,0,0,1,.51,3.32,7.94,7.94,0,0,1-2.57,4.77l-8.4,8-7.55,7.17a9.29,9.29,0,0,1-6.39,2.55l-.6,0L34,51.67l-12.88-.84h0l-.58,0-.4,0H20a9.59,9.59,0,0,1-1-.18l-.38-.09-.08,0a13.38,13.38,0,0,1-6.08-3.5,7.07,7.07,0,0,1-1.93-2.38L3.88,29.05a6,6,0,0,1-.51-3.31A8,8,0,0,1,5.94,21L20.11,6.79A12.36,12.36,0,0,1,23.7,4.48a14,14,0,0,1,5.61-1.14h.36l.72,0m0-3.32-.75,0h-.33a17.6,17.6,0,0,0-6.93,1.42,15.4,15.4,0,0,0-4.56,3l-.06.05L3.62,18.58A11.22,11.22,0,0,0,.07,25.34a9.44,9.44,0,0,0,.78,5.07L7.46,45.86l0,.11a10.13,10.13,0,0,0,2.72,3.44,16.74,16.74,0,0,0,7.44,4.24h0l.11,0,.44.1a11.29,11.29,0,0,0,1.27.23l.13,0h.14a3.86,3.86,0,0,0,.49.06l.58,0L33.74,55,45,55.72c.27,0,.55,0,.82,0a12.52,12.52,0,0,0,8.68-3.47l7.55-7.17,8.4-8A11.19,11.19,0,0,0,74,30.34a9.36,9.36,0,0,0-.8-5.13l-4.37-9.3-2.61-5.54h0l0,0c-2.6-6.27-9.33-8-9.62-8l-.19,0a15.2,15.2,0,0,0-3.85-.76l-.37,0-.13,0a8.12,8.12,0,0,0-.87-.1L31.46,0c-.35,0-.71,0-1.07,0Z"/></g></g></svg>