<svg xmlns="http://www.w3.org/2000/svg" xmlns:xlink="http://www.w3.org/1999/xlink" viewBox="0 0 77.58 57.78"><defs><style>.ee4f10fc-88b7-47ce-8904-0b93ff878d07{fill:#81a3bd;}.f1cebee2-0366-41b7-9f19-db52a1f190de{fill:#98d6f6;}.bf86bc7d-9106-4b4f-842b-ef87c48005e4{fill:#90afd2;}.a6d7e53b-767b-4ef1-910a-55345a452af2{opacity:0.65;fill:url(#b7fbf9d8-a05a-4e6b-8d00-5ccd89fd6564);}.b29cef72-61dc-42f0-a67a-358989284018{fill:none;stroke:#e0e5f3;stroke-linecap:round;stroke-miterlimit:10;stroke-width:2.35px;}.a3bfe953-3372-4776-bc22-f206e17403bd{fill:#fff;}</style><radialGradient id="b7fbf9d8-a05a-4e6b-8d00-5ccd89fd6564" cx="-503.1" cy="341.59" r="27.92" gradientTransform="matrix(1.13, -0.07, 0.22, 0.87, 532.16, -307.02)" gradientUnits="userSpaceOnUse"><stop offset="0" stop-color="#fff" stop-opacity="0"/><stop offset="0.45" stop-color="#fbfcfc" stop-opacity="0.02"/><stop offset="0.61" stop-color="#eeeff3" stop-opacity="0.08"/><stop offset="0.72" stop-color="#d7dae2" stop-opacity="0.2"/><stop offset="0.81" stop-color="#b6bbca" stop-opacity="0.36"/><stop offset="0.89" stop-color="#8b94aa" stop-opacity="0.57"/><stop offset="0.96" stop-color="#576384" stop-opacity="0.82"/><stop offset="1" stop-color="#324169"/></radialGradient></defs><title>盤3_1</title><g id="a0b864b3-9bb9-40ca-b438-2f23e2930e2b" data-name="圖層 2"><g id="a318383c-8818-4618-9a66-210a65be7d6c" data-name="圖層 1"><path class="ee4f10fc-88b7-47ce-8904-0b93ff878d07" d="M73,28.36a8.61,8.61,0,0,0-2.77-5.15L59.42,12.91l-6.36-6a10,10,0,0,0-7.54-2.73L32.3,5l-12.81.84h0l-.62,0c-.28,0-.55.06-.83.1l.43-1.14s-5.82,1.41-7.93,6.62h0l-.07.15h0l-2.81,6L3,27.61a6.42,6.42,0,0,0-.56,3.57,8.68,8.68,0,0,0,2.77,5.16L14.23,45l8.14,7.73a10,10,0,0,0,7.54,2.73L42,54.62l13.89-.91h0l.62,0c.15,0,.29,0,.44-.06h.16c.35-.05.69-.11,1-.19l.41-.1.08,0A14.69,14.69,0,0,0,67,47.35l-1.69-.23,2.76-5.89,4.37-9.29A6.52,6.52,0,0,0,73,28.36Z"/><path class="f1cebee2-0366-41b7-9f19-db52a1f190de" d="M40.43,28C36.78,13.64,23.94,7.38,17.8,5.15a8.36,8.36,0,0,0-4.25,3.93L6.25,25.75a6.47,6.47,0,0,0-.55,3.57C10.73,26.57,22.52,21.88,40.43,28Z"/><path class="bf86bc7d-9106-4b4f-842b-ef87c48005e4" d="M40.43,28C54.7,19.77,54.22,8.72,53.11,3.74a15.46,15.46,0,0,0-7-1.23L22.22,4.08A12.59,12.59,0,0,0,17.8,5.15C23.94,7.38,36.78,13.64,40.43,28Z"/><path class="f1cebee2-0366-41b7-9f19-db52a1f190de" d="M40.43,28C58.35,34.14,70,29.41,75,26.66a8.58,8.58,0,0,0-2.77-5.15L57,6.24a13,13,0,0,0-3.86-2.5C54.22,8.72,54.7,19.77,40.43,28Z"/><path class="bf86bc7d-9106-4b4f-842b-ef87c48005e4" d="M41,27.91C23.09,21.77,10.73,26.57,5.7,29.32a8.61,8.61,0,0,0,2.77,5.15l16,15.21a13.13,13.13,0,0,0,3.86,2.49C27.22,47.2,26.74,36.14,41,27.91Z"/><path class="bf86bc7d-9106-4b4f-842b-ef87c48005e4" d="M40.43,28c3.66,14.37,16.5,20.63,22.64,22.86a8.36,8.36,0,0,0,4.25-3.93l7.15-16.71A6.5,6.5,0,0,0,75,26.66C70,29.41,58.35,34.14,40.43,28Z"/><path class="f1cebee2-0366-41b7-9f19-db52a1f190de" d="M40.43,28C26.17,36.25,26.65,47.3,27.76,52.28a15.46,15.46,0,0,0,7,1.23l23.88-1.57a12.59,12.59,0,0,0,4.42-1.07C56.93,48.64,44.09,42.38,40.43,28Z"/><path class="a6d7e53b-767b-4ef1-910a-55345a452af2" d="M48.89,2.33,20.71,4.17A8.53,8.53,0,0,0,13.57,9L6.14,24.87A8.49,8.49,0,0,0,8,34.65L25.56,51.37A8.55,8.55,0,0,0,32,53.69l28.18-1.84A8.52,8.52,0,0,0,67.3,47l7.43-15.82a8.49,8.49,0,0,0-1.84-9.78L55.31,4.65A8.55,8.55,0,0,0,48.89,2.33Z"/><path class="b29cef72-61dc-42f0-a67a-358989284018" d="M46.3,47.12l10.4-.68c2.51-.17,4.56-1.36,5.38-3.13l6.09-13.17a4.65,4.65,0,0,0-1.32-5.33l-9.18-8.94"/><path class="a3bfe953-3372-4776-bc22-f206e17403bd" d="M48.89,2.35A10,10,0,0,1,55.78,5.1L72.11,20.63a10,10,0,0,1,2.16,11.5l-6.59,14c-.05.09-.1.17-.14.26l-.22.51a7.56,7.56,0,0,1-2.27,2.75,14.44,14.44,0,0,1-6.38,3.6l-.08,0-.41.1c-.34.08-.68.14-1,.19H57c-.15,0-.29,0-.44.06l-.62,0h0L42,54.62l-12.13.79-.65,0a10,10,0,0,1-6.89-2.75L14.23,45,5.17,36.34A8.68,8.68,0,0,1,2.4,31.18,6.42,6.42,0,0,1,3,27.61l4.7-10,2.81-6h0l.07-.15h0c2.11-5.21,7.93-6.62,7.93-6.62v0a10,10,0,0,1,3.13-.74l12.66-.83L46.1,2.51h0l2.14-.14.65,0m0-2.35c-.27,0-.54,0-.8,0L45.94.17,34.09.94l-12.65.83a12.27,12.27,0,0,0-3.55.79c-.48.12-7,1.85-9.51,8l0,.09-2.81,6-4.7,10a8.88,8.88,0,0,0-.76,4.86A10.92,10.92,0,0,0,3.55,38l9.06,8.61,8.14,7.73a12.24,12.24,0,0,0,8.51,3.4l.8,0L42.2,57l13.89-.9.62-.05.44,0,.11,0-.2-2.34.26,2.33h.15c.41-.06.84-.14,1.26-.23l.43-.1.11,0h0a16.81,16.81,0,0,0,7.3-4.08,9.75,9.75,0,0,0,2.86-3.54.25.25,0,0,0,0-.07l.17-.41a2.52,2.52,0,0,0,.16-.29l6.59-14a12.32,12.32,0,0,0-2.67-14.21L57.4,3.4A12.3,12.3,0,0,0,48.89,0Z"/></g></g></svg>