<svg xmlns="http://www.w3.org/2000/svg" xmlns:xlink="http://www.w3.org/1999/xlink" viewBox="0 0 69.46 57.39"><defs><style>.befb6c47-0ea4-4ed3-a4f2-2985345ca76c{fill:#b25c00;}.e5981f02-22f6-429e-be0e-83b3f0b120cd{fill:#ee7811;}.b79f4b28-f9be-4186-8b78-48f403c00cab{fill:#f4a000;}.bb8e0545-7a24-43e4-b011-db5333837864{opacity:0.65;fill:url(#b96926ba-932a-4a71-9618-9072ece4fb91);}.ae9f2127-ceb1-480d-9245-e966f1df794c{fill:none;stroke:#ffecb5;stroke-linecap:round;stroke-miterlimit:10;stroke-width:2.39px;}.eab92320-f792-4e1e-86d4-7345afd285c3{fill:#fff;}</style><radialGradient id="b96926ba-932a-4a71-9618-9072ece4fb91" cx="1215.91" cy="180.53" r="30.57" gradientTransform="matrix(1.23, 0.07, -0.36, 0.93, -1399.84, -220.65)" gradientUnits="userSpaceOnUse"><stop offset="0" stop-color="#fff" stop-opacity="0"/><stop offset="0.38" stop-color="#fffefe" stop-opacity="0.01"/><stop offset="0.52" stop-color="#fefbf8" stop-opacity="0.04"/><stop offset="0.61" stop-color="#fdf6ef" stop-opacity="0.09"/><stop offset="0.69" stop-color="#fcefe1" stop-opacity="0.16"/><stop offset="0.76" stop-color="#fae6d0" stop-opacity="0.25"/><stop offset="0.82" stop-color="#f8daba" stop-opacity="0.37"/><stop offset="0.87" stop-color="#f5cca0" stop-opacity="0.51"/><stop offset="0.92" stop-color="#f2bc82" stop-opacity="0.67"/><stop offset="0.97" stop-color="#eeab62" stop-opacity="0.84"/><stop offset="1" stop-color="#eb9b44"/></radialGradient></defs><title>盤3_2</title><g id="b97f4268-d42a-4b1f-a3e4-90655ed9f99a" data-name="圖層 2"><g id="b7cae0d3-5858-4710-b014-e96cd2010a2d" data-name="圖層 1"><path class="befb6c47-0ea4-4ed3-a4f2-2985345ca76c" d="M67,10.34a10.14,10.14,0,0,0-2.4-5.21l-.23,2a7.13,7.13,0,0,0-3.07-.76l-22-.61-22-.6C13.51,5,10,7.52,9.4,10.7L6,29.27,2.8,46.44l-.34.12a11.72,11.72,0,0,0,0,2.37A4.64,4.64,0,0,0,3,50.84v0H3a6,6,0,0,0,5.3,2.93l22,.6,22,.61c3.76.1,7.28-2.39,7.87-5.57l3.43-18.58L67,12.28A4.67,4.67,0,0,0,67,10.34Z"/><path class="e5981f02-22f6-429e-be0e-83b3f0b120cd" d="M62.46,28.53,65.82,9.67c.58-3.23-1.95-5.93-5.64-6L38.59,3l-4.41,24.7Z"/><path class="b79f4b28-f9be-4186-8b78-48f403c00cab" d="M38.59,3,17,2.41C13.3,2.3,9.84,4.83,9.27,8.06L5.9,26.92l28.28.8Z"/><path class="b79f4b28-f9be-4186-8b78-48f403c00cab" d="M34.18,27.72l-4.41,24.7L51.36,53c3.7.1,7.16-2.43,7.73-5.65l3.37-18.86Z"/><path class="e5981f02-22f6-429e-be0e-83b3f0b120cd" d="M5.9,26.92,2.54,45.78c-.58,3.22,2,5.92,5.64,6l21.59.61,4.41-24.7Z"/><path class="bb8e0545-7a24-43e4-b011-db5333837864" d="M51.86,53.05,7.69,51.79c-3.42-.09-5.76-2.58-5.23-5.54L9.35,7.59c.53-3,3.73-5.29,7.16-5.2L60.67,3.65c3.42.1,5.76,2.58,5.24,5.55L59,47.85C58.48,50.82,55.28,53.15,51.86,53.05Z"/><path class="ae9f2127-ceb1-480d-9245-e966f1df794c" d="M58.77,23.77,55.09,44.39c-.51,2.86-3.6,5.11-6.89,5l-21.76-.62"/><path class="eab92320-f792-4e1e-86d4-7345afd285c3" d="M16.3,2.39h.21l.49,0h0L38.59,3l20.17.57,1.91.06a5.82,5.82,0,0,1,3.87,1.5v0l.11.12a4.35,4.35,0,0,1,.82,1.14,9.87,9.87,0,0,1,1.47,4,4.67,4.67,0,0,1,0,1.94L63.57,30.85,60.14,49.43c-.57,3.11-4,5.57-7.64,5.57h-.23l-22-.61-22-.6A6,6,0,0,1,3,50.86H3v0a4.64,4.64,0,0,1-.51-1.91,11.48,11.48,0,0,1-.06-1.49,4.36,4.36,0,0,1,0-1.19l.08-.47h0L5.9,26.92,9.27,8.06h0l.08-.47c.52-2.91,3.61-5.2,7-5.2M16.3,0h0C11.8,0,7.72,3.15,7,7.17l-.08.43v0h0L3.55,26.5.19,45.36h0l-.09.46A7.15,7.15,0,0,0,0,47.51a11.79,11.79,0,0,0,.07,1.6,6.82,6.82,0,0,0,.73,2.75l0,.07.09.15a8.31,8.31,0,0,0,7.29,4.09l22,.61,22,.6h.3c4.82,0,9.21-3.31,10-7.53l3.43-18.57,3.42-18.58a7,7,0,0,0,0-2.8A12.25,12.25,0,0,0,67.56,5.2a6.9,6.9,0,0,0-1.15-1.57l-.1-.11a2,2,0,0,0-.44-.38,8.37,8.37,0,0,0-5.13-1.88l-1.91-.05L38.66.63,17.07,0l-.5,0Z"/></g></g></svg>