<svg xmlns="http://www.w3.org/2000/svg" xmlns:xlink="http://www.w3.org/1999/xlink" viewBox="0 0 93.44 67.04"><defs><style>.f8e036bd-e11e-4158-9ef8-4a1884ac5480{fill:#3a699f;}.a1447b7f-c977-4888-872b-3803bac0810a{fill:#769bd1;}.aaa76a04-00e2-4d49-a752-ea19ffcc0a8b{fill:#94c6df;}.b143559f-3df8-4c4e-babc-d2ea82afb028{fill:url(#a3c250dc-73a8-43f7-b3de-8939a0b9f039);}.e462df24-3dab-4048-8220-45699f1d98d4{fill:none;stroke:#f1f9fe;stroke-linecap:round;stroke-miterlimit:10;stroke-width:3.07px;}.b4426c63-5387-4308-8e77-644ee2c562e3{fill:#fff;}</style><radialGradient id="a3c250dc-73a8-43f7-b3de-8939a0b9f039" cx="768.8" cy="636.28" r="29.63" gradientTransform="matrix(1.15, 0.13, -0.18, 0.85, -717.74, -601.21)" gradientUnits="userSpaceOnUse"><stop offset="0" stop-color="#fff" stop-opacity="0"/><stop offset="0.29" stop-color="#fefeff" stop-opacity="0.01"/><stop offset="0.44" stop-color="#fbfcfd" stop-opacity="0.04"/><stop offset="0.55" stop-color="#f5f9fb" stop-opacity="0.1"/><stop offset="0.64" stop-color="#ecf4f8" stop-opacity="0.19"/><stop offset="0.72" stop-color="#e1eef5" stop-opacity="0.3"/><stop offset="0.8" stop-color="#d4e6f0" stop-opacity="0.43"/><stop offset="0.87" stop-color="#c4ddea" stop-opacity="0.59"/><stop offset="0.94" stop-color="#b2d3e4" stop-opacity="0.78"/><stop offset="1" stop-color="#9ec7dd" stop-opacity="0.98"/><stop offset="1" stop-color="#9cc6dc"/></radialGradient></defs><title>盤3_3</title><g id="bd5b32ae-1894-4df6-bc62-95cfcf0624ff" data-name="圖層 2"><g id="adfb19c9-2b36-4294-a85b-03f8ace5d5e7" data-name="圖層 1"><path class="f8e036bd-e11e-4158-9ef8-4a1884ac5480" d="M90.36,58.32l-3-.87L72.93,29.88l-5.23-10-4.56-8.71L60.37,5.92A4.18,4.18,0,0,0,59.2,4.53L60,3.16c-4.59-.53-6.54,1.53-6.54,1.53L49.16,8.58l-9.07,8.24L29.9,26.07,5.86,47.9h0L4.24,49.37c-2.52,2.28-.73,5.69,3.22,6.13l41.2,4.6L83,63.94a4.39,4.39,0,0,0,2.12-.29l.3-.11A6.25,6.25,0,0,0,90.36,58.32Z"/><path class="a1447b7f-c977-4888-872b-3803bac0810a" d="M9.21,47.32c-2.43,2.21-.71,5.49,3.1,5.92l72.25,8.07c3.81.43,6.84-2.33,5.46-5l-4.47-8.53L17.09,40.17Z"/><polygon class="aaa76a04-00e2-4d49-a752-ea19ffcc0a8b" points="17.09 40.17 85.55 47.82 77.98 33.37 30.43 28.05 17.09 40.17"/><polygon class="a1447b7f-c977-4888-872b-3803bac0810a" points="43.78 15.94 30.43 28.05 77.98 33.37 70.4 18.91 43.78 15.94"/><path class="aaa76a04-00e2-4d49-a752-ea19ffcc0a8b" d="M63.86,6.44A4.89,4.89,0,0,0,60,4.14,6.06,6.06,0,0,0,55.3,5.48L43.78,15.94l26.62,3Z"/><path class="b143559f-3df8-4c4e-babc-d2ea82afb028" d="M57.7,2.94,7.92,48.13A2.79,2.79,0,0,0,9.49,53l78,8.71a2.78,2.78,0,0,0,2.78-4.06L62,3.71A2.79,2.79,0,0,0,57.7,2.94Z"/><path class="e462df24-3dab-4048-8220-45699f1d98d4" d="M65.4,25.16,77.8,49.4c1.51,3-1.9,6-6.16,5.55L53,52.87"/><path class="b4426c63-5387-4308-8e77-644ee2c562e3" d="M58.52,3.07A13.13,13.13,0,0,1,60,3.16l0,.06a4.22,4.22,0,0,1,2.88,2.06,3.76,3.76,0,0,1,1,1.16L70.4,18.91,78,33.37l7.57,14.45L90,56.35a2.73,2.73,0,0,1,.27,1.95l.07,0a6.23,6.23,0,0,1-5,5.22l-.3.11a4.37,4.37,0,0,1-1.62.31l-.5,0L48.66,60.1,7.46,55.5c-3.95-.44-5.74-3.85-3.22-6.13L5.86,47.9h0l24-21.83,10.19-9.25,9.07-8.24,4.29-3.89S55,3.07,58.52,3.07m0-3.07C54.22,0,52,1.85,51.33,2.46L47.1,6.31,38,14.54,27.83,23.8,3.8,45.62,2.18,47.09A6.09,6.09,0,0,0,.29,53.58c.88,2.7,3.49,4.6,6.83,5l41.2,4.6L82.62,67a7.89,7.89,0,0,0,.84.05,7.48,7.48,0,0,0,2.64-.49l.24-.08a9.26,9.26,0,0,0,7.09-7.91,2.9,2.9,0,0,0,0-.51,5.79,5.79,0,0,0-.67-3.13l-4.48-8.53L80.7,31.94,73.13,17.49,66.58,5a6.15,6.15,0,0,0-1.41-1.78A7.34,7.34,0,0,0,61.35.4a3.17,3.17,0,0,0-1-.29A16.29,16.29,0,0,0,58.52,0Z"/></g></g></svg>