<svg xmlns="http://www.w3.org/2000/svg" xmlns:xlink="http://www.w3.org/1999/xlink" viewBox="0 0 60.81 50.7"><defs><style>.e2b21cd6-8bf0-4e58-be12-533e33a67e08{fill:#0a4d85;}.bbe53565-12db-4664-b2f6-3c401c439608{fill:#97c7df;}.b67afca9-d59c-48f0-aa36-0830bf6a30f7{fill:#7aa2d6;}.f9fec1b1-0287-4507-a767-d45bf68a0ff5{opacity:0.65;fill:url(#b66330ec-3f11-4dcc-817e-a017527ccdcd);}.e9a2b193-2a68-448a-b501-82dd13962964{fill:none;stroke:#ceebfb;stroke-linecap:round;stroke-miterlimit:10;stroke-width:2px;}.bc76f560-3c92-469e-85ce-35988131530c{fill:#fff;}</style><radialGradient id="b66330ec-3f11-4dcc-817e-a017527ccdcd" cx="3443.16" cy="36.15" r="25.59" gradientTransform="matrix(-1.23, 0.07, 0.36, 0.93, 4262.87, -235.7)" gradientUnits="userSpaceOnUse"><stop offset="0" stop-color="#fff" stop-opacity="0"/><stop offset="0.39" stop-color="#fefefe" stop-opacity="0.01"/><stop offset="0.54" stop-color="#f9fbfc" stop-opacity="0.04"/><stop offset="0.64" stop-color="#f1f6f8" stop-opacity="0.11"/><stop offset="0.72" stop-color="#e5eff3" stop-opacity="0.19"/><stop offset="0.79" stop-color="#d6e5ec" stop-opacity="0.31"/><stop offset="0.85" stop-color="#c3d9e3" stop-opacity="0.45"/><stop offset="0.91" stop-color="#accbd9" stop-opacity="0.62"/><stop offset="0.96" stop-color="#93bbcd" stop-opacity="0.8"/><stop offset="1" stop-color="#79aac1"/></radialGradient></defs><title>盤3_4</title><g id="b86757da-a291-4896-9099-f0b5e03a06fe" data-name="圖層 2"><g id="afaab712-6b29-4066-adf7-2027258f57ef" data-name="圖層 1"><path class="e2b21cd6-8bf0-4e58-be12-533e33a67e08" d="M3.43,10a8.57,8.57,0,0,1,2-4.37l.19,1.66A6,6,0,0,1,8.2,6.63l18.41-.51L45,5.62c3.15-.09,6.1,2,6.59,4.66l2.87,15.55,2.65,14.38.28.09a9.31,9.31,0,0,1,0,2,3.67,3.67,0,0,1-.43,1.6v0h0a5,5,0,0,1-4.44,2.45l-18.41.5-18.41.51c-3.15.09-6.1-2-6.59-4.66L6.26,27.16,3.39,11.6A4,4,0,0,1,3.43,10Z"/><path class="bbe53565-12db-4664-b2f6-3c401c439608" d="M7.19,25.21,4.37,9.42c-.48-2.71,1.64-5,4.73-5l18.08-.52,3.69,20.68Z"/><path class="b67afca9-d59c-48f0-aa36-0830bf6a30f7" d="M27.18,3.85l18.07-.51c3.1-.09,6,2,6.47,4.73l2.82,15.79-23.67.67Z"/><path class="b67afca9-d59c-48f0-aa36-0830bf6a30f7" d="M30.87,24.53l3.69,20.69-18.08.51c-3.09.09-6-2-6.47-4.73L7.19,25.21Z"/><path class="bbe53565-12db-4664-b2f6-3c401c439608" d="M54.54,23.86l2.82,15.79c.48,2.7-1.63,5-4.73,5.05l-18.07.52L30.87,24.53Z"/><path class="f9fec1b1-0287-4507-a767-d45bf68a0ff5" d="M16.06,45.74l37-1.05c2.86-.08,4.82-2.16,4.38-4.65L51.65,7.68c-.44-2.49-3.12-4.44-6-4.35l-37,1C5.82,4.46,3.86,6.54,4.3,9l5.78,32.37C10.52,43.88,13.2,45.82,16.06,45.74Z"/><path class="e9a2b193-2a68-448a-b501-82dd13962964" d="M10.27,21.22l3.09,17.27c.42,2.4,3,4.28,5.77,4.2l18.22-.52"/><path class="bc76f560-3c92-469e-85ce-35988131530c" d="M45.84,3.32c2.8,0,5.38,1.92,5.81,4.36l.07.39h0l2.82,15.79,2.82,15.79h0l.07.39a3.91,3.91,0,0,1,0,1,9.07,9.07,0,0,1,0,1.23,3.81,3.81,0,0,1-.43,1.6v0h0a5,5,0,0,1-4.44,2.45l-18.41.5-18.41.51h-.19c-3.08,0-5.92-2-6.4-4.66L6.26,27.16,3.39,11.6a4,4,0,0,1,0-1.62A8.34,8.34,0,0,1,4.66,6.67a3.75,3.75,0,0,1,.68-1l.1-.11v0A4.9,4.9,0,0,1,8.68,4.38H9.1l18.08-.52.61,0,17.88-.5h.17m0-3.32h-.27L27.7.51l-.62,0L9,1l-.41,0A8.31,8.31,0,0,0,3.51,2.91,2.81,2.81,0,0,0,3,3.37l-.09.09A7.25,7.25,0,0,0,1.77,5,11.59,11.59,0,0,0,.16,9.38a7.28,7.28,0,0,0,0,2.83L3,27.76,5.86,43.31c.78,4.21,4.93,7.39,9.67,7.39h.28l18.41-.5,18.41-.51a8.31,8.31,0,0,0,7.22-4.08l.11-.21,0-.07a6.88,6.88,0,0,0,.74-2.77,10.47,10.47,0,0,0,.06-1.4,6.78,6.78,0,0,0-.09-1.69l-.06-.35v0L57.81,23.28,55,7.48l-.07-.39C54.2,3.05,50.3,0,45.84,0Z"/></g></g></svg>