<svg xmlns="http://www.w3.org/2000/svg" xmlns:xlink="http://www.w3.org/1999/xlink" viewBox="0 0 93.21 70.13"><defs><style>.a3a9c4fc-7145-472d-83d4-f30cde56bfce{fill:#c66d43;}.ad8068bc-50ef-41b2-94e5-9829ccb8b8e5{fill:#f29667;}.ae7c035d-6887-41c4-a771-a5d2a190d77a{fill:#ec6b43;}.f8253838-94a9-4077-a87d-fd01d139104d{opacity:0.65;fill:url(#b3dde7d8-eb9b-4e1d-aab7-deb2b396eb4a);}.e5757ea1-e316-42d1-b767-ce9af544d16f{fill:none;stroke:#feefe2;stroke-linecap:round;stroke-miterlimit:10;stroke-width:2.74px;}.a3ee8a03-fb27-4655-90f3-bb58d5b73c88{fill:#fff;}</style><radialGradient id="b3dde7d8-eb9b-4e1d-aab7-deb2b396eb4a" cx="1753.99" cy="552.21" r="32.73" gradientTransform="matrix(-1.13, -0.07, -0.22, 0.87, 2146.34, -318.3)" gradientUnits="userSpaceOnUse"><stop offset="0" stop-color="#fff" stop-opacity="0"/><stop offset="0.38" stop-color="#fffefe" stop-opacity="0.01"/><stop offset="0.51" stop-color="#fefbf9" stop-opacity="0.04"/><stop offset="0.61" stop-color="#fef4f0" stop-opacity="0.09"/><stop offset="0.69" stop-color="#fdece3" stop-opacity="0.16"/><stop offset="0.76" stop-color="#fbe1d3" stop-opacity="0.25"/><stop offset="0.81" stop-color="#fad3bf" stop-opacity="0.36"/><stop offset="0.87" stop-color="#f8c2a7" stop-opacity="0.5"/><stop offset="0.92" stop-color="#f5af8b" stop-opacity="0.65"/><stop offset="0.96" stop-color="#f39a6d" stop-opacity="0.82"/><stop offset="1" stop-color="#f0844e"/></radialGradient></defs><title>盤3_5</title><g id="bc42d7d7-ee8f-4a56-a86a-c2e12a6a1440" data-name="圖層 2"><g id="b5718b29-fc28-4e10-ab29-9076c3769049" data-name="圖層 1"><path class="a3a9c4fc-7145-472d-83d4-f30cde56bfce" d="M6.57,34.36a10.13,10.13,0,0,1,3.23-6l12.65-12,7.41-7A11.72,11.72,0,0,1,38.67,6.1l15.42,1L69,8.08h0l.73.05c.32,0,.64.07,1,.12l-.49-1.33S77,8.56,79.48,14.65h0l.08.16h0l3.27,7,5.5,11.7A7.53,7.53,0,0,1,89,37.66a10,10,0,0,1-3.23,6l-10.57,10-9.49,9a11.65,11.65,0,0,1-8.8,3.18L42.72,65,26.51,63.94h0l-.72,0c-.17,0-.34,0-.51-.06l-.19,0c-.41-.06-.81-.13-1.2-.22l-.48-.11-.1,0a17.11,17.11,0,0,1-9.74-6.94l2-.26-3.23-6.87L7.22,38.53A7.52,7.52,0,0,1,6.57,34.36Z"/><path class="ad8068bc-50ef-41b2-94e5-9829ccb8b8e5" d="M44.6,34C48.86,17.19,63.84,9.88,71,7.28A9.76,9.76,0,0,1,76,11.86l8.52,19.45a7.62,7.62,0,0,1,.65,4.17C79.26,32.27,65.5,26.8,44.6,34Z"/><path class="ae7c035d-6887-41c4-a771-a5d2a190d77a" d="M44.6,34C28,24.34,28.51,11.44,29.81,5.64A17.92,17.92,0,0,1,38,4.2L65.85,6A14.76,14.76,0,0,1,71,7.28C63.84,9.88,48.86,17.19,44.6,34Z"/><path class="ad8068bc-50ef-41b2-94e5-9829ccb8b8e5" d="M44.6,34c-20.91,7.16-34.49,1.64-40.36-1.57a10,10,0,0,1,3.23-6L25.3,8.55a15.2,15.2,0,0,1,4.51-2.91C28.51,11.44,28,24.34,44.6,34Z"/><path class="ae7c035d-6887-41c4-a771-a5d2a190d77a" d="M43.93,33.83c20.9-7.15,35.33-1.56,41.2,1.65a10.06,10.06,0,0,1-3.24,6L63.22,59.24a15.4,15.4,0,0,1-4.51,2.91C60,56.34,60.57,43.44,43.93,33.83Z"/><path class="ae7c035d-6887-41c4-a771-a5d2a190d77a" d="M44.6,34C40.34,50.72,25.35,58,18.18,60.62a9.74,9.74,0,0,1-4.95-4.57L4.88,36.54a7.57,7.57,0,0,1-.64-4.16C10.11,35.59,23.69,41.11,44.6,34Z"/><path class="ad8068bc-50ef-41b2-94e5-9829ccb8b8e5" d="M44.6,34c16.64,9.61,16.08,22.51,14.78,28.32A17.76,17.76,0,0,1,51.2,63.7L23.34,61.88a14.77,14.77,0,0,1-5.16-1.26C25.35,58,40.34,50.72,44.6,34Z"/><path class="f8253838-94a9-4077-a87d-fd01d139104d" d="M35.26,4,69.6,6.19a8.52,8.52,0,0,1,7.14,4.88L86.2,31.22A8.48,8.48,0,0,1,84.36,41L62.65,61.63A8.52,8.52,0,0,1,56.23,64L21.9,61.71a8.52,8.52,0,0,1-7.15-4.87L5.29,36.69a8.51,8.51,0,0,1,1.84-9.78L28.84,6.27A8.51,8.51,0,0,1,35.26,4Z"/><path class="e5757ea1-e316-42d1-b767-ce9af544d16f" d="M37.76,56.25l-12.14-.79c-2.93-.2-5.33-1.59-6.28-3.65L12.23,36.44c-.94-2-.35-4.38,1.54-6.22L24.49,19.79"/><path class="a3ee8a03-fb27-4655-90f3-bb58d5b73c88" d="M38.23,4.18l1.08,0L64.14,5.84c.37,0,.73.1,1.1.14l.61,0a14.9,14.9,0,0,1,4.4,1l0-.06S77,8.56,79.48,14.65h0l.08.16h0l3.27,7,5.5,11.7A7.53,7.53,0,0,1,89,37.66a10,10,0,0,1-3.23,6l-10.57,10-9.49,9a11.67,11.67,0,0,1-8,3.21c-.25,0-.51,0-.76,0L42.72,65,26.51,63.94h0l-.72,0c-.17,0-.34,0-.51-.06l-.19,0c-.41-.06-.81-.13-1.2-.22l-.48-.11-.09,0A16.75,16.75,0,0,1,15.67,59a8.6,8.6,0,0,1-2.44-3L4.88,36.54a7.57,7.57,0,0,1-.64-4.16,10,10,0,0,1,3.23-6L25.3,8.55a15.2,15.2,0,0,1,4.51-2.91A17.79,17.79,0,0,1,36.87,4.2h.46l.9,0m0-4.18-.95,0h-.41A22.15,22.15,0,0,0,28.15,1.8a19.22,19.22,0,0,0-5.73,3.72l0,0,0,0L4.55,23.38A14.08,14.08,0,0,0,.09,31.87a11.77,11.77,0,0,0,1,6.38L9.39,57.69l0,.07,0,.06a12.68,12.68,0,0,0,3.41,4.33,21,21,0,0,0,9.37,5.34h0l.06,0,.09,0,.57.13a14.15,14.15,0,0,0,1.58.29l.21,0h.13c.21,0,.42.06.64.07l.72,0,16.21,1.06,14.15.92c.35,0,.7,0,1,0a15.8,15.8,0,0,0,10.92-4.36l9.49-9,10.57-10a14.16,14.16,0,0,0,4.5-8.54,11.85,11.85,0,0,0-1-6.45L86.62,20l-3.28-7,0-.08C80,5.08,71.57,2.94,71.21,2.85l-.32-.08a19.64,19.64,0,0,0-3-.71L63.57,1l.23.63L39.58,0c-.44,0-.89,0-1.35,0Z"/></g></g></svg>