<svg xmlns="http://www.w3.org/2000/svg" xmlns:xlink="http://www.w3.org/1999/xlink" viewBox="0 0 96.97 80.39"><defs><style>.f22ca477-bc79-4b3b-96ef-399f03c3fd5f{fill:#0a4d85;}.b94e23a1-e512-4d02-952b-fa2532f93b3b{fill:#97c7df;}.ffa02eae-4064-414a-8bfb-9d61977879b6{fill:#7aa2d6;}.a1c06b6c-0505-4bdf-986c-862354e1794f{opacity:0.65;fill:url(#b666922b-5f17-443b-8e9e-82f24fc95655);}.b651c361-d054-4177-8f6a-c83c522c381e{fill:none;stroke:#ceebfb;stroke-linecap:round;stroke-miterlimit:10;stroke-width:3.28px;}.b67ea3d5-80b5-4810-9c08-8111c8a189f6{fill:#fff;}</style><radialGradient id="b666922b-5f17-443b-8e9e-82f24fc95655" cx="1764.22" cy="158.61" r="41.96" gradientTransform="matrix(1.23, 0.07, -0.36, 0.93, -2070.19, -225.14)" gradientUnits="userSpaceOnUse"><stop offset="0" stop-color="#fff" stop-opacity="0"/><stop offset="0.39" stop-color="#fefefe" stop-opacity="0.01"/><stop offset="0.54" stop-color="#f9fbfc" stop-opacity="0.04"/><stop offset="0.64" stop-color="#f1f6f8" stop-opacity="0.11"/><stop offset="0.72" stop-color="#e5eff3" stop-opacity="0.19"/><stop offset="0.79" stop-color="#d6e5ec" stop-opacity="0.31"/><stop offset="0.85" stop-color="#c3d9e3" stop-opacity="0.45"/><stop offset="0.91" stop-color="#accbd9" stop-opacity="0.62"/><stop offset="0.96" stop-color="#93bbcd" stop-opacity="0.8"/><stop offset="1" stop-color="#79aac1"/></radialGradient></defs><title>盤3_6</title><g id="a6312589-9c38-4358-8dda-f06b451fb1af" data-name="圖層 2"><g id="efa908c6-1b78-4851-a81c-09c4c4c460a6" data-name="圖層 1"><path class="f22ca477-bc79-4b3b-96ef-399f03c3fd5f" d="M92.71,15a13.93,13.93,0,0,0-3.3-7.15l-.31,2.71a9.7,9.7,0,0,0-4.22-1.05L54.7,8.68,24.51,7.85c-5.16-.14-10,3.28-10.8,7.64L9,41,4.66,64.56l-.47.15A15.39,15.39,0,0,0,4.2,68a6.15,6.15,0,0,0,.7,2.62,0,0,0,0,1,0,0h0a8.2,8.2,0,0,0,7.27,4l30.19.83,30.18.83c5.16.14,10-3.28,10.8-7.64l4.71-25.5,4.7-25.49A6.63,6.63,0,0,0,92.71,15Z"/><path class="b94e23a1-e512-4d02-952b-fa2532f93b3b" d="M86.54,40l4.62-25.89C92,9.65,88.48,5.94,83.41,5.8L53.78,5l-6.05,33.9Z"/><path class="ffa02eae-4064-414a-8bfb-9d61977879b6" d="M53.78,5,24.14,4.11C19.07,4,14.32,7.44,13.53,11.87L8.91,37.76l38.82,1.1Z"/><path class="ffa02eae-4064-414a-8bfb-9d61977879b6" d="M47.73,38.86l-6,33.91,29.64.84c5.06.14,9.81-3.33,10.6-7.76L86.54,40Z"/><path class="b94e23a1-e512-4d02-952b-fa2532f93b3b" d="M8.91,37.76,4.3,63.65C3.51,68.07,7,71.78,12,71.92l29.64.85,6-33.91Z"/><path class="a1c06b6c-0505-4bdf-986c-862354e1794f" d="M72,73.63,11.37,71.9c-4.7-.13-7.92-3.54-7.19-7.61l9.47-53.06c.72-4.08,5.12-7.27,9.82-7.14L84.09,5.82c4.7.13,7.91,3.54,7.19,7.61L81.81,66.5C81.08,70.57,76.69,73.76,72,73.63Z"/><path class="b651c361-d054-4177-8f6a-c83c522c381e" d="M81.48,33.43l-5,28.32c-.7,3.92-4.94,7-9.46,6.87L37.1,67.77"/><path class="b67ea3d5-80b5-4810-9c08-8111c8a189f6" d="M23.18,4.09h.29l3.43.1L53.78,5,80,5.7l4.12.12a8,8,0,0,1,5.32,2.07v0l.16.17a6.12,6.12,0,0,1,1.12,1.56,13.75,13.75,0,0,1,2,5.42,6.63,6.63,0,0,1,.06,2.67l-4.7,25.49-4.71,25.5c-.79,4.27-5.45,7.64-10.49,7.64h-.31l-30.18-.83-30.19-.83a8.2,8.2,0,0,1-7.27-4h0a0,0,0,0,0,0,0A6.15,6.15,0,0,1,4.2,68a13.51,13.51,0,0,1-.08-2,6.06,6.06,0,0,1,.06-1.64l.12-.64h0L8.91,37.76l4.62-25.89h0l.12-.64c.71-4,4.94-7.14,9.53-7.14m0-4.09h0C16.63,0,10.67,4.62,9.62,10.51l-.11.61v0h0L4.89,37,.27,62.93v0l-.11.6A10.61,10.61,0,0,0,0,66a18.28,18.28,0,0,0,.1,2.25,10.1,10.1,0,0,0,1.09,4.06l.12.25.07.12c2,3.64,6,5.88,10.68,6l30.18.83,30.19.83h.42c7,0,13.38-4.82,14.51-11l4.71-25.49,4.7-25.5a10.3,10.3,0,0,0-.06-4.14,17.53,17.53,0,0,0-2.49-6.73,10.34,10.34,0,0,0-1.67-2.3l-.14-.16a4.16,4.16,0,0,0-.72-.61A12.23,12.23,0,0,0,84.2,1.73l-4.11-.12L53.89.87,27,.1,23.58,0Z"/></g></g></svg>