<svg xmlns="http://www.w3.org/2000/svg" xmlns:xlink="http://www.w3.org/1999/xlink" viewBox="0 0 92.68 76.83"><defs><style>.ab97a784-5e34-48ae-9986-20ef7f276a68{fill:#e28d03;}.af1ff0b1-222d-4773-abf8-6f579ddb65c5{fill:#fed400;}.b47e1b1f-1011-482e-a5a4-0d63c2b3fa69{fill:#fbc300;}.bcf1baf4-f20e-45f5-9ed7-562965180c90{opacity:0.65;fill:url(#bba69479-2549-44b8-9b10-8deaf2c48234);}.af32c7c9-e305-4bf2-9559-7b32facc5809{fill:none;stroke:#ffecb5;stroke-linecap:round;stroke-miterlimit:10;stroke-width:3.14px;}.f4deca8d-9a33-4d90-a74e-80777761f1dd{fill:#fff;}</style><radialGradient id="bba69479-2549-44b8-9b10-8deaf2c48234" cx="1306.35" cy="204.22" r="40.1" gradientTransform="matrix(1.23, 0.07, -0.36, 0.93, -1491.37, -239.28)" gradientUnits="userSpaceOnUse"><stop offset="0" stop-color="#fff" stop-opacity="0"/><stop offset="0.38" stop-color="#fffefe" stop-opacity="0.01"/><stop offset="0.52" stop-color="#fefbf8" stop-opacity="0.04"/><stop offset="0.61" stop-color="#fdf6ef" stop-opacity="0.09"/><stop offset="0.69" stop-color="#fcefe1" stop-opacity="0.16"/><stop offset="0.76" stop-color="#fae6d0" stop-opacity="0.25"/><stop offset="0.82" stop-color="#f8daba" stop-opacity="0.37"/><stop offset="0.87" stop-color="#f5cca0" stop-opacity="0.51"/><stop offset="0.92" stop-color="#f2bc82" stop-opacity="0.67"/><stop offset="0.97" stop-color="#eeab62" stop-opacity="0.84"/><stop offset="1" stop-color="#eb9b44"/></radialGradient></defs><title>盤3_7</title><g id="b3207f7c-bb7c-4aa8-8b3b-696de01f7687" data-name="圖層 2"><g id="e61bc116-5aa3-4434-9dee-16b779ed123c" data-name="圖層 1"><path class="ab97a784-5e34-48ae-9986-20ef7f276a68" d="M88.6,14.34A13.32,13.32,0,0,0,85.45,7.5l-.3,2.59a9.15,9.15,0,0,0-4-1L52.28,8.3,23.43,7.5c-4.93-.13-9.56,3.14-10.32,7.3L8.61,39.17,4.45,61.7,4,61.85A14.77,14.77,0,0,0,4,65a6.12,6.12,0,0,0,.67,2.51l0,0h0a7.82,7.82,0,0,0,7,3.84l28.85.8,28.85.79c4.93.14,9.55-3.13,10.32-7.3l4.5-24.37,4.49-24.37A6,6,0,0,0,88.6,14.34Z"/><path class="af1ff0b1-222d-4773-abf8-6f579ddb65c5" d="M82.71,38.2l4.42-24.75c.75-4.23-2.56-7.77-7.41-7.91L51.4,4.74l-5.78,32.4Z"/><path class="b47e1b1f-1011-482e-a5a4-0d63c2b3fa69" d="M51.4,4.74,23.07,3.93c-4.84-.14-9.38,3.18-10.14,7.41L8.52,36.09l37.1,1Z"/><path class="b47e1b1f-1011-482e-a5a4-0d63c2b3fa69" d="M45.62,37.14,39.83,69.55l28.33.8c4.84.14,9.38-3.18,10.14-7.41L82.71,38.2Z"/><path class="af1ff0b1-222d-4773-abf8-6f579ddb65c5" d="M8.52,36.09,4.11,60.83c-.76,4.23,2.56,7.77,7.4,7.91l28.32.81,5.79-32.41Z"/><path class="bcf1baf4-f20e-45f5-9ed7-562965180c90" d="M68.81,70.37,10.86,68.72C6.38,68.59,3.3,65.34,4,61.44l9-50.71c.7-3.89,4.9-7,9.39-6.82L80.37,5.56c4.49.13,7.56,3.39,6.87,7.28l-9,50.71C77.49,67.45,73.29,70.5,68.81,70.37Z"/><path class="af32c7c9-e305-4bf2-9559-7b32facc5809" d="M77.88,32,73.05,59c-.67,3.76-4.72,6.7-9,6.58l-28.54-.82"/><path class="f4deca8d-9a33-4d90-a74e-80777761f1dd" d="M22.15,3.91h.28l23.62.67,5.35.16,6,.17,23,.65a7.68,7.68,0,0,1,5.08,2v0l.15.17a6,6,0,0,1,1.08,1.48,13.22,13.22,0,0,1,1.92,5.18,6.06,6.06,0,0,1,.06,2.55L84.17,41.25l-4.5,24.37c-.75,4.09-5.21,7.31-10,7.31h-.29L40.5,72.13l-28.85-.8A7.82,7.82,0,0,1,4.7,67.49h0l0,0A6.12,6.12,0,0,1,4,65,15.25,15.25,0,0,1,3.93,63,6,6,0,0,1,4,61.44l.11-.61h0L8.52,36.09l4.41-24.75h0l.11-.61c.68-3.81,4.73-6.82,9.11-6.82m0-3.91h0C15.89,0,10.2,4.41,9.2,10l-.11.59v0L4.67,35.4.26,60.14l-.11.62A9.68,9.68,0,0,0,0,63.12a16.67,16.67,0,0,0,.1,2.15,9.64,9.64,0,0,0,1,3.86,1,1,0,0,0,.07.15l.12.22a11.69,11.69,0,0,0,10.21,5.74l28.84.8,28.85.79h.4c6.7,0,12.79-4.61,13.88-10.5L88,42l4.5-24.37a10.15,10.15,0,0,0-.06-4,16.81,16.81,0,0,0-2.38-6.42A9.53,9.53,0,0,0,88.47,5l-.13-.14a4.3,4.3,0,0,0-.69-.59,11.73,11.73,0,0,0-7.17-2.62L57.53,1l-6-.17L46.16.68,22.54,0Z"/></g></g></svg>