<svg xmlns="http://www.w3.org/2000/svg" xmlns:xlink="http://www.w3.org/1999/xlink" viewBox="0 0 76.22 70.18"><defs><style>.bee11af5-d136-4bfd-ab4b-94ae6e4a8d61{fill:#4a6c1e;}.adc186b4-df05-43c3-8ef9-4d6920032eb9{fill:#78a639;}.fcb8affe-bbbb-4517-b5cf-79067f000b30{fill:url(#afe9890b-7917-4e41-9b7a-d9e254a4bddf);}.a361c874-0691-4c59-a436-27a4e0604cc8{fill:#3f7222;stroke:#275200;stroke-width:1.07px;}.a361c874-0691-4c59-a436-27a4e0604cc8,.e252cf91-4901-4741-bdab-924f3c5b87f4{stroke-miterlimit:10;}.a640c31b-0152-4d97-b13b-70453de20bff{fill:#115829;}.e252cf91-4901-4741-bdab-924f3c5b87f4{fill:none;stroke:#d2e5aa;stroke-linecap:round;stroke-width:2.81px;}.e2605a01-1e96-4fa9-8594-605e1323a6da{fill:#fff;}</style><radialGradient id="afe9890b-7917-4e41-9b7a-d9e254a4bddf" cx="2678.74" cy="140.63" r="30.43" gradientTransform="matrix(-0.42, -0.97, -0.84, 0.48, 1272.66, 2569.95)" gradientUnits="userSpaceOnUse"><stop offset="0" stop-color="#fff" stop-opacity="0"/><stop offset="0.37" stop-color="#fafbf9" stop-opacity="0.02"/><stop offset="0.55" stop-color="#e9ede6" stop-opacity="0.11"/><stop offset="0.69" stop-color="#ccd5c5" stop-opacity="0.25"/><stop offset="0.81" stop-color="#a2b395" stop-opacity="0.46"/><stop offset="0.92" stop-color="#6d8758" stop-opacity="0.73"/><stop offset="1" stop-color="#355a19"/></radialGradient></defs><title>盤3_8</title><g id="bf26c5de-ad24-4b67-a306-145fe08ce7f8" data-name="圖層 2"><g id="a5934175-cd7e-4ad6-b8ff-2d2f9399f106" data-name="圖層 1"><path class="bee11af5-d136-4bfd-ab4b-94ae6e4a8d61" d="M5.89,24.94h0L6,24.77a24.54,24.54,0,0,1,3.42-6.15A38.28,38.28,0,0,1,18,9.69l-.21,1.72A31.93,31.93,0,0,1,32.73,7.58C50.5,7.26,66.72,20,69,36.13a25.69,25.69,0,0,1-.42,9.42l1.74-.11A43.93,43.93,0,0,1,63,56.18a26,26,0,0,1-3.91,3.64c-.72.55-1.15.82-1.15.82h0A31.34,31.34,0,0,1,40.8,65.85C23,66.17,6.81,53.39,4.58,37.3A25.19,25.19,0,0,1,5.89,24.94Z"/><ellipse class="adc186b4-df05-43c3-8ef9-4d6920032eb9" cx="39.46" cy="33.47" rx="28.44" ry="33.05" transform="translate(-6.42 57.4) rotate(-67.85)"/><ellipse class="fcb8affe-bbbb-4517-b5cf-79067f000b30" cx="39.46" cy="33.47" rx="28.44" ry="33.05" transform="translate(-6.42 57.4) rotate(-67.85)"/><ellipse class="a361c874-0691-4c59-a436-27a4e0604cc8" cx="53.15" cy="19.92" rx="3.35" ry="3.89" transform="translate(14.66 61.65) rotate(-67.85)"/><ellipse class="a361c874-0691-4c59-a436-27a4e0604cc8" cx="58.62" cy="39.44" rx="3.35" ry="3.89" transform="translate(-0.01 78.87) rotate(-67.85)"/><ellipse class="a361c874-0691-4c59-a436-27a4e0604cc8" cx="38.3" cy="32.93" rx="3.35" ry="3.89" transform="translate(-6.64 55.99) rotate(-67.85)"/><ellipse class="a361c874-0691-4c59-a436-27a4e0604cc8" cx="25.97" cy="16.98" rx="3.35" ry="3.89" transform="translate(0.45 34.63) rotate(-67.85)"/><ellipse class="a361c874-0691-4c59-a436-27a4e0604cc8" cx="19.27" cy="36.71" rx="3.35" ry="3.89" transform="translate(-22 40.73) rotate(-67.85)"/><ellipse class="a361c874-0691-4c59-a436-27a4e0604cc8" cx="39.25" cy="51.94" rx="3.35" ry="3.89" transform="translate(-23.65 68.71) rotate(-67.85)"/><path class="a640c31b-0152-4d97-b13b-70453de20bff" d="M42.43,15.64c2.58,0,2.58-4,0-4s-2.59,4,0,4Z"/><path class="a640c31b-0152-4d97-b13b-70453de20bff" d="M24.11,28.28c2.58,0,2.59-4,0-4s-2.58,4,0,4Z"/><path class="a640c31b-0152-4d97-b13b-70453de20bff" d="M52.48,33.37c2.58,0,2.59-4,0-4s-2.58,4,0,4Z"/><path class="a640c31b-0152-4d97-b13b-70453de20bff" d="M29.48,42.65l.08-.09a2,2,0,1,0-2.84-2.83l-.08.08a2,2,0,1,0,2.84,2.84Z"/><path class="a640c31b-0152-4d97-b13b-70453de20bff" d="M55.1,51.58c2.58,0,2.58-4,0-4s-2.58,4,0,4Z"/><path class="a640c31b-0152-4d97-b13b-70453de20bff" d="M24.36,51.06l.16-.17a2,2,0,0,0-2.83-2.84l-.17.18a2,2,0,0,0,2.84,2.83Z"/><path class="a640c31b-0152-4d97-b13b-70453de20bff" d="M13.48,25.33c2.58,0,2.59-4,0-4s-2.58,4,0,4Z"/><path class="a640c31b-0152-4d97-b13b-70453de20bff" d="M66,27.57v-.09a2,2,0,0,0-2.47-1.4,2.07,2.07,0,0,0-1.4,2.47v.08A2,2,0,0,0,64.57,30,2.07,2.07,0,0,0,66,27.57Z"/><path class="a640c31b-0152-4d97-b13b-70453de20bff" d="M45.65,42.27l.08-.08a2,2,0,1,0-2.83-2.84l-.09.09a2,2,0,0,0,2.84,2.83Z"/><path class="e252cf91-4901-4741-bdab-924f3c5b87f4" d="M14.21,27.61S11.69,49.49,40,57.67"/><path class="e2605a01-1e96-4fa9-8594-605e1323a6da" d="M36.08,4.33C53.59,4.33,69.44,17,71.64,32.89a25.12,25.12,0,0,1-1.41,12.55h0l-.15.27a24.45,24.45,0,0,1-4.39,7.16A41,41,0,0,1,63,56.18a26,26,0,0,1-3.91,3.64c-.72.55-1.14.82-1.14.82h0A31.4,31.4,0,0,1,40.8,65.85h-.66C22.63,65.86,6.79,53.19,4.58,37.3A25.19,25.19,0,0,1,5.89,24.94h0L6,24.77a24.54,24.54,0,0,1,3.42-6.15,39.91,39.91,0,0,1,4.21-5,27.36,27.36,0,0,1,4.34-3.81L18,9.69h0A31.32,31.32,0,0,1,35.42,4.33h.66M70.27,45.44h0M36.08,0h-.74a35.72,35.72,0,0,0-19.6,6l-.25.18a1.33,1.33,0,0,0-.19.14,31.31,31.31,0,0,0-4.86,4.27,44.39,44.39,0,0,0-4.57,5.46,29,29,0,0,0-4,7.16l-.06.14c0,.09-.07.18-.1.28A29.5,29.5,0,0,0,.3,37.89c1.21,8.78,6.05,17,13.62,23a42.07,42.07,0,0,0,26.22,9.27h.74a35.73,35.73,0,0,0,19.4-5.87c.13-.09.67-.43,1.46-1a30.22,30.22,0,0,0,4.5-4.18c.88-1,1.84-2.12,2.86-3.47a29.53,29.53,0,0,0,4.94-8,4.25,4.25,0,0,0,.45-1.19,29.31,29.31,0,0,0,1.43-14.08c-1.21-8.78-6-16.95-13.61-23A42.1,42.1,0,0,0,36.08,0Z"/></g></g></svg>