<svg xmlns="http://www.w3.org/2000/svg" viewBox="0 0 267.6 216.9"><defs><style>.a2ca91b7-d1b5-47bf-8efb-57d8da945bfd{fill:#5299b8;}.b9be27a8-7b2e-4f5f-9cba-1852bff75f8a{fill:#4769a0;}.bb0df154-2c97-411c-a49a-ef02f48c8bdc,.fa0ad309-5d97-4594-90b8-71147b0c8064{fill:#3f7c96;}.afa8601f-adb2-49fe-8477-b6ecf6144353,.fa242b13-1629-4376-8c20-7daccdaf2b11{fill:#0081ad;}.fa242b13-1629-4376-8c20-7daccdaf2b11,.fcc29d4f-adf1-451c-8c71-7af363d7920f{stroke:#005289;}.b3b9346f-6090-49d6-98c8-b15bbe5c8a59,.bb0df154-2c97-411c-a49a-ef02f48c8bdc,.fa242b13-1629-4376-8c20-7daccdaf2b11,.fcc29d4f-adf1-451c-8c71-7af363d7920f,.fdc9fe38-f163-4322-bf62-06e49bc29be4{stroke-linejoin:round;}.bb0df154-2c97-411c-a49a-ef02f48c8bdc,.fa242b13-1629-4376-8c20-7daccdaf2b11,.fdc9fe38-f163-4322-bf62-06e49bc29be4{stroke-width:2.33px;}.a091d1d7-bd89-4f90-925f-2939fb99f878,.ae533451-c0ea-4988-a2dd-69ca4d189b2b,.fcc29d4f-adf1-451c-8c71-7af363d7920f{fill:none;}.b3b9346f-6090-49d6-98c8-b15bbe5c8a59{fill:#95d5f6;stroke-width:5.7px;}.b3b9346f-6090-49d6-98c8-b15bbe5c8a59,.bb0df154-2c97-411c-a49a-ef02f48c8bdc,.fdc9fe38-f163-4322-bf62-06e49bc29be4{stroke:#4769a0;}.fdc9fe38-f163-4322-bf62-06e49bc29be4{fill:#60b1d5;}.ac7dba2e-3d18-44b0-aabf-4158457b14e6{fill:#005289;}.fcc29d4f-adf1-451c-8c71-7af363d7920f{stroke-linecap:round;stroke-width:1.16px;}.ae8a2220-34ec-45d6-93f9-23045cd3d13a{fill:#fff;}.f91f5ba2-f3a8-4ba2-8b9d-5c955d79ffaa{fill:#fdeacf;}.bc72a277-2c30-464c-8e12-f57fe80dbbe6{fill:#dbcbb4;}.a091d1d7-bd89-4f90-925f-2939fb99f878{stroke:#40220f;stroke-miterlimit:10;stroke-width:6.2px;}</style></defs><title>小貓_1</title><g id="b02f22fa-51d1-4712-8701-1bf87baeb26b" data-name="圖層 2"><g id="ba3fd94a-248a-4ea2-a283-597a391d1336" data-name="圖層 1"><path class="a2ca91b7-d1b5-47bf-8efb-57d8da945bfd" d="M143,207.25a47.11,47.11,0,0,1-17.43-4.48L60.78,167.93A24.78,24.78,0,0,1,47.7,147.5L43.1,72.28,143,126Z"/><path class="b9be27a8-7b2e-4f5f-9cba-1852bff75f8a" d="M44.28,74.13,142,126.63v79.49a46.66,46.66,0,0,1-15.87-4.29l-4.73-2.55L61.28,167a23.73,23.73,0,0,1-12.51-19.56l-4.49-73.3m-2.36-3.69,4.72,77.12a26,26,0,0,0,13.63,21.31l60.09,32.29,4.79,2.58a47.77,47.77,0,0,0,18.95,4.61v-83L41.92,70.44Z"/><path class="fa0ad309-5d97-4594-90b8-71147b0c8064" d="M145.53,126.18l99.24-58-2.6,74.61A22.46,22.46,0,0,1,231,161.47l-73,42.65a32.08,32.08,0,0,1-12.51,2.8Z"/><path class="b9be27a8-7b2e-4f5f-9cba-1852bff75f8a" d="M243.25,70.69l-2.51,72a21,21,0,0,1-10.46,17.52l-67.11,39.23-5.78,3.38A30.11,30.11,0,0,1,147,205.42V127l96.3-56.3m3-5.07L144.1,125.36v83h.59a33.5,33.5,0,0,0,14-3l5.91-3.46h0l67.11-39.23a24,24,0,0,0,11.87-19.88l2.69-77.2Z"/><polygon class="fa242b13-1629-4376-8c20-7daccdaf2b11" points="185.85 109.65 185.85 189.52 208.68 176.17 208.68 95.75 185.85 109.65"/><polygon class="fa242b13-1629-4376-8c20-7daccdaf2b11" points="77.31 98.37 77.31 178.02 100.17 190.31 100.17 110.77 77.31 98.37"/><path class="ae533451-c0ea-4988-a2dd-69ca4d189b2b" d="M164.61,204.26l-5.91,3.46A34.4,34.4,0,0,0,164.61,204.26Z"/><path class="ae533451-c0ea-4988-a2dd-69ca4d189b2b" d="M125.15,206.07l-4.79-2.58A40.14,40.14,0,0,0,125.15,206.07Z"/><path class="b3b9346f-6090-49d6-98c8-b15bbe5c8a59" d="M139.56,103.52,25.07,43.19a2.21,2.21,0,0,1,.44-4.09L128.9,10.19A44.36,44.36,0,0,1,152.11,10L254.58,36.92a5.63,5.63,0,0,1,1.19,10.42l-106.6,56.18A10.33,10.33,0,0,1,139.56,103.52Z"/><path class="fdc9fe38-f163-4322-bf62-06e49bc29be4" d="M23.63,42.05V65.32a10.57,10.57,0,0,0,5.52,9.28l115,62.31L256.22,70A5.79,5.79,0,0,0,259,65l-1-19.94-114,61Z"/><line class="bb0df154-2c97-411c-a49a-ef02f48c8bdc" x1="144.1" y1="106.05" x2="144.1" y2="136.91"/><polygon class="afa8601f-adb2-49fe-8477-b6ecf6144353" points="75.04 68.05 184.26 19.65 198.99 23.52 98.38 80.44 75.04 68.05"/><path class="ac7dba2e-3d18-44b0-aabf-4158457b14e6" d="M184.36,20.88l11.56,3L98.36,79.12l-20.66-11L184.36,20.88m-.2-2.46L72.38,68l26,13.82L202.06,23.12l-17.9-4.7Z"/><polygon class="afa8601f-adb2-49fe-8477-b6ecf6144353" points="80.51 24.93 99.37 19.66 212.65 68.09 190.41 80.45 80.51 24.93"/><path class="ac7dba2e-3d18-44b0-aabf-4158457b14e6" d="M99.29,20.89,210,68.22,190.38,79.14,83.71,25.24l15.58-4.35m.16-2.47L77.31,24.61,190.44,81.77,215.29,68,99.45,18.42Z"/><polygon class="afa8601f-adb2-49fe-8477-b6ecf6144353" points="191.61 82.45 214.15 69.92 214.48 94.88 191.94 108.36 191.61 82.45"/><path class="ac7dba2e-3d18-44b0-aabf-4158457b14e6" d="M213,71.88l.3,22.35-20.23,12.09-.3-23.19L213,71.88M215.29,68,190.44,81.77l.36,28.62,24.86-14.85L215.29,68Z"/><polygon class="afa8601f-adb2-49fe-8477-b6ecf6144353" points="73.55 97.34 73.55 69.91 96.75 82.47 96.75 110.01 73.55 97.34"/><path class="ac7dba2e-3d18-44b0-aabf-4158457b14e6" d="M74.71,71.86l20.87,11.3v24.89L74.71,96.65V71.86M72.38,68V98l25.53,14V81.77L72.38,68Z"/><path class="afa8601f-adb2-49fe-8477-b6ecf6144353" d="M106.15,71.18a5.75,5.75,0,0,1-4.24-1.79c-6.31-6.68-7.5-16.86-7.65-22.34a4.91,4.91,0,0,1,3.41-4.84c3.33-1,8.12-1.56,14.24-1.56A204,204,0,0,1,140,43.09c-9.92,14.38-23.49,23.25-30.85,27.32a6.14,6.14,0,0,1-3,.77Z"/><path class="ac7dba2e-3d18-44b0-aabf-4158457b14e6" d="M111.91,41.82a197.89,197.89,0,0,1,26,2.14c-9.66,13.3-22.36,21.56-29.36,25.43a5.09,5.09,0,0,1-2.43.63,4.63,4.63,0,0,1-3.4-1.43c-6-6.39-7.18-16.26-7.32-21.57A3.7,3.7,0,0,1,98,43.32c3.22-1,7.9-1.5,13.9-1.5m0-2.33c-5.54,0-10.77.42-14.59,1.61a6,6,0,0,0-4.22,6c.15,5.65,1.39,16.15,8,23.11a7,7,0,0,0,5.09,2.16,7.29,7.29,0,0,0,3.55-.92c7.27-4,22-13.53,32.27-29.21a210.58,210.58,0,0,0-30.06-2.73Z"/><path class="ac7dba2e-3d18-44b0-aabf-4158457b14e6" d="M138.92,44.47S103.27,59.25,106.26,65.8,138.92,44.47,138.92,44.47Z"/><path class="afa8601f-adb2-49fe-8477-b6ecf6144353" d="M181.39,57.49a6,6,0,0,1-.94-.07c-8.31-1.27-24.11-4.89-38.39-15,6-3.32,27.63-14.85,39.4-15.47h.26a4.88,4.88,0,0,1,4.61,3.37c1.76,5.19,4.16,15.16.56,23.6A5.93,5.93,0,0,1,181.39,57.49Z"/><path class="ac7dba2e-3d18-44b0-aabf-4158457b14e6" d="M181.72,28.15a3.74,3.74,0,0,1,3.51,2.58c1.7,5,4,14.69.59,22.77a4.77,4.77,0,0,1-4.43,2.83,4.87,4.87,0,0,1-.76-.06c-7.91-1.21-22.68-4.57-36.35-13.7,7.56-4.09,26.61-13.86,37.24-14.41h.2m0-2.33h-.32c-14.13.74-41.5,16.5-41.5,16.5,15,11.16,32.17,15,40.38,16.24a6.92,6.92,0,0,0,1.11.09A7.12,7.12,0,0,0,188,54.42c3.75-8.8,1.28-19.08-.52-24.44a6.06,6.06,0,0,0-5.72-4.16Z"/><path class="ac7dba2e-3d18-44b0-aabf-4158457b14e6" d="M143.54,43.38s38.56,1.54,38,8.72S143.54,43.38,143.54,43.38Z"/><path class="afa8601f-adb2-49fe-8477-b6ecf6144353" d="M129.28,129.66a1.17,1.17,0,0,1-1-.64l-6.3-12.35-10,3.92a1.09,1.09,0,0,1-.43.08,1.18,1.18,0,0,1-.87-.38,1.17,1.17,0,0,1-.16-1.32c.14-.27,14.16-27.07,15-42.19.88-15.72,12-31.21,12.48-31.86a1.17,1.17,0,0,1,.95-.48h.18a1.19,1.19,0,0,1,.93.8l.43,1.36a1.19,1.19,0,0,1,0,.83c-.08.17-7.77,17.7-2.55,33.53,5.5,16.69-7,46.7-7.52,48a1.17,1.17,0,0,1-1,.72Z"/><path class="ac7dba2e-3d18-44b0-aabf-4158457b14e6" d="M138.92,45.6l.43,1.36s-8,17.91-2.59,34.37-7.48,47.16-7.48,47.16L122.5,115.2l-11,4.31s14.27-27.11,15.15-42.67S138.92,45.6,138.92,45.6m0-2.33a2.33,2.33,0,0,0-1.89,1c-.48.67-11.8,16.43-12.71,32.48-.83,14.88-14.74,41.45-14.88,41.71a2.34,2.34,0,0,0,.33,2.64,2.32,2.32,0,0,0,2.58.62l9-3.54,5.82,11.41a2.34,2.34,0,0,0,2.08,1.27h.08a2.36,2.36,0,0,0,2.07-1.43C132,128.11,144.61,97.7,139,80.6c-5.07-15.38,2.42-32.52,2.5-32.69a2.38,2.38,0,0,0,.09-1.66l-.44-1.36a2.31,2.31,0,0,0-1.85-1.59l-.36,0Z"/><path class="afa8601f-adb2-49fe-8477-b6ecf6144353" d="M175.31,94.32a1.19,1.19,0,0,1-.44-.09c-1-.41-24.66-10.2-25.05-26.47-.35-14.88-9.33-21.88-9.42-22A1.12,1.12,0,0,1,140,45a1.14,1.14,0,0,1,.23-.86l.87-1.14a1.16,1.16,0,0,1,.92-.45,1.14,1.14,0,0,1,.41.07c.39.15,9.57,3.74,15.87,19.94,5.81,15,23.17,15.54,23.34,15.54a1.17,1.17,0,0,1,.15,2.32l-8.33,1.29,3,11.1a1.16,1.16,0,0,1-1.13,1.47Z"/><path class="ac7dba2e-3d18-44b0-aabf-4158457b14e6" d="M142,43.75s9,3.37,15.19,19.28,24.41,16.28,24.41,16.28l-9.63,1.49,3.37,12.35S151.36,83.42,151,67.74s-9.89-22.85-9.89-22.85l.87-1.14m0-2.33a2.35,2.35,0,0,0-1.85.91l-.87,1.14a2.33,2.33,0,0,0,.45,3.28c.34.26,8.62,6.77,9,21,.4,17,24.74,27.1,25.78,27.52a2.21,2.21,0,0,0,.87.17,2.32,2.32,0,0,0,2.25-2.94l-2.68-9.84,7-1.09a2.33,2.33,0,0,0-.31-4.63c-.67,0-16.76-.58-22.28-14.8-6.48-16.68-16.14-20.46-16.54-20.61a2.37,2.37,0,0,0-.82-.15Z"/><path class="afa8601f-adb2-49fe-8477-b6ecf6144353" d="M140.35,48.76c-2.44,0-4.41-2.71-5.85-8a.78.78,0,0,1,0-.22,1.94,1.94,0,0,1,.53-1.43,3,3,0,0,1,2.29-.82,9,9,0,0,1,2.18.31,7.06,7.06,0,0,1,2.32-.58,1.58,1.58,0,0,1,1.69,1.25c.35,1.07,2.11,7.13-1.32,9A3.06,3.06,0,0,1,140.35,48.76Z"/><path class="ac7dba2e-3d18-44b0-aabf-4158457b14e6" d="M141.79,39.13c.31,0,.54.1.56.36,0,0,2.09,6.29-.81,7.69a1.94,1.94,0,0,1-1.19.41c-1.2,0-3.09-1.13-4.72-7.18,0,0-.08-1,1.66-1a9.12,9.12,0,0,1,2.27.36,7.57,7.57,0,0,1,2.23-.64m0-2.33h0a7.63,7.63,0,0,0-2.41.53,9.85,9.85,0,0,0-2.09-.25,4.09,4.09,0,0,0-3.14,1.19,3.08,3.08,0,0,0-.84,2.31,2,2,0,0,0,.07.43c.59,2.21,2.4,8.91,7,8.91a4.29,4.29,0,0,0,2.43-.76c4.07-2.23,2.35-8.6,1.83-10.25a2.73,2.73,0,0,0-2.82-2.11Z"/><path class="ac7dba2e-3d18-44b0-aabf-4158457b14e6" d="M140.32,47s-3.81-5.87-2.54-5.87S140.32,47,140.32,47Z"/><path class="ac7dba2e-3d18-44b0-aabf-4158457b14e6" d="M141.1,45.6s1.52-5.49.54-5.18S141.1,45.6,141.1,45.6Z"/><path class="fcc29d4f-adf1-451c-8c71-7af363d7920f" d="M137.61,49.46s-6.46,12.35-7.33,25.95-.15,22.2-3.63,29.69"/><path class="fcc29d4f-adf1-451c-8c71-7af363d7920f" d="M144.62,47s5.8,4.71,9.08,15.94a31,31,0,0,0,12.63,16.75"/><path class="fcc29d4f-adf1-451c-8c71-7af363d7920f" d="M144.62,41.16S191.91,27.25,176.69,38"/><path class="fcc29d4f-adf1-451c-8c71-7af363d7920f" d="M134,42.24S91.23,46.46,104.2,52.7"/><path class="ae8a2220-34ec-45d6-93f9-23045cd3d13a" d="M140.84,8.55A44.34,44.34,0,0,1,152.11,10l32,8.41,8,2.1,62.43,16.4a5.57,5.57,0,0,1,4.08,6.5v0L258.09,45a5.31,5.31,0,0,0,.57-1.62L259,65a5.79,5.79,0,0,1-2.82,5l-10.3,6.15-2.33,66.72a24,24,0,0,1-11.87,19.88l-23,13.47h0l-22.83,13.35-21.24,12.41-5.91,3.46a33.5,33.5,0,0,1-14,3h-.59a47.77,47.77,0,0,1-18.95-4.61l-4.79-2.58-20.19-10.85L77.31,178h0l-17-9.15a26,26,0,0,1-13.63-21.31l-4-65.66L29.15,74.59a10.54,10.54,0,0,1-5.52-9.27V42.05l.59.31a2.21,2.21,0,0,1,1.29-3.27L128.9,10.19a44.48,44.48,0,0,1,11.94-1.64m-18.42,86,0,0-10.89-5.74,10.87,5.77m21.68,11.52L148,104a10.5,10.5,0,0,1-3.78.7,10,10,0,0,1-4.66-1.14L137,102.18s0,.06,0,.1l7.1,3.77M140.85,0h0A53.18,53.18,0,0,0,126.6,2L23.21,30.86a10.64,10.64,0,0,0-7.09,6.35,11.25,11.25,0,0,0-.6,2.11,8.62,8.62,0,0,0-.44,2.73V65.32a19.08,19.08,0,0,0,10,16.79l9.3,5,3.73,60.93A34.32,34.32,0,0,0,56.23,176.4l17,9.16,22.86,12.28,20.19,10.85,4.79,2.58.43.22A56.34,56.34,0,0,0,144,216.9h.72a42,42,0,0,0,17.55-3.73,8,8,0,0,0,.77-.4l5.92-3.45,21.23-12.42L213,183.55l23-13.47a32.37,32.37,0,0,0,16.1-27l2.16-62.06,6.31-3.77a14.42,14.42,0,0,0,7-12.31s0-.1,0-.15L267.22,44a14,14,0,0,0-10.47-15.3l-62.43-16.4-8-2.1L154.28,1.74A52.48,52.48,0,0,0,140.85,0Z"/><path class="f91f5ba2-f3a8-4ba2-8b9d-5c955d79ffaa" d="M103,114.92h0a31.92,31.92,0,0,0-42-20.42L3.1,116.82v40.25c19.07-4.74,47.61-11.88,63.81-16.22,25.87-6.95,30.55-26.55,30.55-26.55,8.42,31.21-20,36.52-20,36.52L3.1,167.88V173l76.49-17.62A31.93,31.93,0,0,0,103,114.92Z"/><path class="bc72a277-2c30-464c-8e12-f57fe80dbbe6" d="M77.5,150.82s28.38-5.31,20-36.52c0,0-4.68,19.6-30.55,26.55-16.2,4.34-44.74,11.48-63.81,16.22v10.81Z"/><path class="a091d1d7-bd89-4f90-925f-2939fb99f878" d="M103,115.31a31.93,31.93,0,0,0-42-20.42L3.1,117.21v56.2l76.49-17.63A31.93,31.93,0,0,0,103,115.31Z"/></g></g></svg>