<svg xmlns="http://www.w3.org/2000/svg" viewBox="0 0 138.86 131.73"><defs><style>.b3647eee-55c4-47ef-99be-256c700ff1af{fill:#890000;}.b711124b-4e8b-485b-9ba5-e983139eb251{fill:#690000;}.f0ccdf0d-7ae0-4489-94e6-2eda45ff1978{fill:#ab0002;}.a8befeb1-c738-455d-86d8-128d88711c51{fill:#c7000b;}.ea5f1e5e-61c4-4295-9a07-b70507ab11b6{fill:#dc686f;}.e81de573-b4c6-46d3-b7e0-146aee174600{fill:#c65c64;}.b9a0cc18-bdb5-4939-b8e8-37fc948d68dc{fill:#d2636b;}.a6710b44-36bc-4865-80b6-1877d58c69c7,.b79676d0-d839-499a-8995-2b7340f4a09f,.f49b7cf3-ee3c-4c57-a3a1-9831a0ec356d{fill:none;stroke-linecap:round;}.a6710b44-36bc-4865-80b6-1877d58c69c7{stroke:#c65c64;stroke-miterlimit:10;stroke-width:1.07px;}.a69dd309-3505-4997-8547-f4bbcf16627b{fill:#fff;}.f49b7cf3-ee3c-4c57-a3a1-9831a0ec356d{stroke:#fbe0ec;}.b79676d0-d839-499a-8995-2b7340f4a09f,.f49b7cf3-ee3c-4c57-a3a1-9831a0ec356d{stroke-linejoin:round;stroke-width:1.66px;}.b79676d0-d839-499a-8995-2b7340f4a09f{stroke:#f7c0ba;}</style></defs><title>圓</title><g id="ebcd1bd6-05cd-4744-ba81-5233f4a017f6" data-name="圖層 2"><g id="a7694f10-4703-4829-bdaf-5407c8993df4" data-name="圖層 1"><path class="b3647eee-55c4-47ef-99be-256c700ff1af" d="M69.42,125.85a99.71,99.71,0,0,1-41.31-9.06,23.78,23.78,0,0,1-13.6-19.5l-5.15-57H129.48l-5.15,57A24.1,24.1,0,0,1,110.25,117,99.53,99.53,0,0,1,69.42,125.85Z"/><path class="b711124b-4e8b-485b-9ba5-e983139eb251" d="M128.57,41.14,123.5,97.21a23.26,23.26,0,0,1-13.59,19A97.83,97.83,0,0,1,28.46,116,23,23,0,0,1,15.33,97.22L10.26,41.14H128.57m1.82-1.66H8.45l5.23,57.89a24.59,24.59,0,0,0,14.08,20.17,99.49,99.49,0,0,0,82.83.22,24.87,24.87,0,0,0,14.57-20.4l5.23-57.88Z"/><path class="f0ccdf0d-7ae0-4489-94e6-2eda45ff1978" d="M69.42,86.35c-57.47,0-62.24-25-62.28-25.3L5.87,40.31H133l-1.28,20.82C131.66,61.3,126.72,86.35,69.42,86.35Z"/><path class="b711124b-4e8b-485b-9ba5-e983139eb251" d="M132.08,41.14,130.87,61c-.29,1.38-6.09,24.54-61.45,24.54-29.65,0-44.81-6.76-52.31-12.43S8.11,61.61,8,61L6.75,41.14H132.08m1.77-1.66H5l1.34,21.7s4.26,26,63.1,26,63.1-26,63.1-26l1.33-21.7Z"/><path class="a8befeb1-c738-455d-86d8-128d88711c51" d="M69.42,73.13C34.35,73.13,5.82,58,5.82,39.48S34.35,5.83,69.42,5.83,133,20.93,133,39.48,104.49,73.13,69.42,73.13Z"/><path class="b711124b-4e8b-485b-9ba5-e983139eb251" d="M69.42,6.66c16.94,0,32.84,3.52,44.78,9.91,11.6,6.21,18,14.34,18,22.91s-6.39,16.71-18,22.92c-11.94,6.38-27.84,9.9-44.78,9.9s-32.85-3.52-44.78-9.9c-11.6-6.21-18-14.35-18-22.92s6.39-16.7,18-22.91c11.93-6.39,27.84-9.91,44.78-9.91m0-1.66C33.83,5,5,20.44,5,39.48S33.83,74,69.42,74s64.43-15.44,64.43-34.48S105,5,69.42,5Z"/><path class="ea5f1e5e-61c4-4295-9a07-b70507ab11b6" d="M63.63,86.11C58.5,86,52.44,85.32,50.17,85V73.48c5,.84,11.07,1.26,13.46,1.4Z"/><path class="e81de573-b4c6-46d3-b7e0-146aee174600" d="M51.23,74.73c4.15.63,8.75,1,11.33,1.15V85c-4.21-.14-8.84-.63-11.33-.92V74.73M49.1,72.21V86a140.67,140.67,0,0,0,15.59,1.21V73.87A137,137,0,0,1,49.1,72.21Z"/><path class="ea5f1e5e-61c4-4295-9a07-b70507ab11b6" d="M68.5,125.63a93.89,93.89,0,0,1-14.35-1.2l-.1-36.78c4.38.49,12.29.58,15.17.59v37.39Z"/><path class="e81de573-b4c6-46d3-b7e0-146aee174600" d="M55.12,88.83c4,.34,9.91.44,13,.47v35.27a93.64,93.64,0,0,1-12.94-1l-.09-34.69M53,86.44l.11,38.88a92.07,92.07,0,0,0,15.42,1.38l1.77,0V87.18h0c-.13,0-12.66,0-17.3-.74Z"/><path class="ea5f1e5e-61c4-4295-9a07-b70507ab11b6" d="M63.94,72.8a104.81,104.81,0,0,1-13.43-1.43L72.58,6.11a115.31,115.31,0,0,1,12.51,1Z"/><path class="e81de573-b4c6-46d3-b7e0-146aee174600" d="M73.34,7.19c4.16.12,8,.52,10.35.81L63.17,71.71a104.87,104.87,0,0,1-11.25-1.19L73.34,7.19M71.82,5,49.1,72.21a108.07,108.07,0,0,0,15.61,1.66L86.49,6.23A113.12,113.12,0,0,0,71.82,5Z"/><path class="ea5f1e5e-61c4-4295-9a07-b70507ab11b6" d="M6.1,38.53A21.26,21.26,0,0,1,9.25,29L132.81,39.35a20,20,0,0,1-4.08,11.95Z"/><path class="e81de573-b4c6-46d3-b7e0-146aee174600" d="M9.81,30.13l121.93,10.2a19,19,0,0,1-3.52,9.84L7.26,37.58a20,20,0,0,1,2.55-7.45M8.71,27.9A22,22,0,0,0,5,39.48L129.22,52.42c5.63-7.41,4.59-14.06,4.59-14.06L8.71,27.9Z"/><path class="ea5f1e5e-61c4-4295-9a07-b70507ab11b6" d="M42.31,56.25a6,6,0,0,1-4.39-1.87c-4.92-5.2-5.84-13-6-17.14a5.41,5.41,0,0,1,3.76-5.3,37.89,37.89,0,0,1,10.69-1.19,152,152,0,0,1,21.57,2,1.07,1.07,0,0,1,.71,1.63c-7.33,11.21-17.77,18-23.33,21.13a6.38,6.38,0,0,1-3,.78Z"/><path class="e81de573-b4c6-46d3-b7e0-146aee174600" d="M46.41,31.81A149.31,149.31,0,0,1,67.8,33.76C60.51,44.91,50,51.68,44.84,54.54a5.29,5.29,0,0,1-2.53.65,5,5,0,0,1-3.62-1.54C34,48.7,33.14,41.23,33,37.22A4.3,4.3,0,0,1,36,33a37.08,37.08,0,0,1,10.38-1.15m0-2.13a39,39,0,0,0-11,1.24,6.47,6.47,0,0,0-4.5,6.35C31,41.59,32,49.65,37.14,55.12a7.14,7.14,0,0,0,5.17,2.2,7.4,7.4,0,0,0,3.56-.92c5.66-3.13,16.26-10.07,23.71-21.48a2.13,2.13,0,0,0-1.42-3.26,149.93,149.93,0,0,0-21.75-2Z"/><path class="e81de573-b4c6-46d3-b7e0-146aee174600" d="M65.62,35.35S40.26,45.87,42.39,50.53,65.62,35.35,65.62,35.35Z"/><path class="ea5f1e5e-61c4-4295-9a07-b70507ab11b6" d="M95.84,46.51a6,6,0,0,1-1-.07c-6.29-1-18.45-3.77-29.2-11.75a1.06,1.06,0,0,1-.43-.92,1.08,1.08,0,0,1,.53-.86c.81-.46,19.81-11.34,30-11.88h.28a5.4,5.4,0,0,1,5.08,3.69c1.33,3.95,3.15,11.56.34,18.14A6.09,6.09,0,0,1,95.84,46.51Z"/><path class="e81de573-b4c6-46d3-b7e0-146aee174600" d="M96.07,22.09a4.32,4.32,0,0,1,4.07,3c1.29,3.81,3,11.12.37,17.38a5,5,0,0,1-4.67,3,5.25,5.25,0,0,1-.79-.06c-5.84-.89-18-3.62-28.73-11.56,0,0,19.48-11.21,29.53-11.73h.22m0-2.13h-.33c-10.44.55-29.67,11.55-30.48,12a2.14,2.14,0,0,0-.21,3.56c10.94,8.12,23.29,11,29.68,11.94a6.92,6.92,0,0,0,1.11.09,7.17,7.17,0,0,0,6.63-4.31c3-6.91,1.07-14.81-.31-18.9A6.44,6.44,0,0,0,96.07,20Z"/><path class="e81de573-b4c6-46d3-b7e0-146aee174600" d="M68.91,34.58s27.44,1.1,27.05,6.2S68.91,34.58,68.91,34.58Z"/><path class="ea5f1e5e-61c4-4295-9a07-b70507ab11b6" d="M58.77,96.19a1.06,1.06,0,0,1-1-.58L53.44,87l-6.93,2.71a1.07,1.07,0,0,1-.39.07,1,1,0,0,1-.79-.35,1.06,1.06,0,0,1-.15-1.21c.1-.19,10-19.21,10.65-29.91.64-11.25,8.59-22.33,8.93-22.79a1.07,1.07,0,0,1,.86-.44h.17a1,1,0,0,1,.85.73l.31,1a1.1,1.1,0,0,1,0,.76c-.06.13-5.49,12.52-1.81,23.69,3.94,12-5,33.39-5.35,34.29a1.06,1.06,0,0,1-.94.65Z"/><path class="e81de573-b4c6-46d3-b7e0-146aee174600" d="M65.62,36.16l.31,1s-5.7,12.74-1.84,24.45-5.32,33.55-5.32,33.55l-4.83-9.45-7.82,3.06S56.27,69.45,56.9,58.39s8.72-22.23,8.72-22.23m0-2.13a2.12,2.12,0,0,0-1.72.88c-.35.48-8.48,11.8-9.13,23.36-.59,10.48-10.43,29.29-10.53,29.48a2.12,2.12,0,0,0,.29,2.41,2.13,2.13,0,0,0,2.37.56l6-2.36,3.95,7.74a2.13,2.13,0,0,0,1.9,1.16h.08A2.13,2.13,0,0,0,60.73,96c.39-.92,9.45-22.71,5.39-35C62.57,50.15,67.83,38.12,67.88,38A2.15,2.15,0,0,0,68,36.48l-.31-1A2.12,2.12,0,0,0,66,34.06a1.87,1.87,0,0,0-.34,0Z"/><path class="ea5f1e5e-61c4-4295-9a07-b70507ab11b6" d="M91.52,71.06a1.1,1.1,0,0,1-.4-.08c-.73-.3-17.7-7.32-18-19.05C72.9,41.47,66.6,36.55,66.54,36.5a1.07,1.07,0,0,1-.42-.71,1.12,1.12,0,0,1,.21-.79l.62-.8a1.07,1.07,0,0,1,.85-.42,1,1,0,0,1,.37.07c.28.1,6.91,2.69,11.43,14.32C83.67,58.67,95.49,59.06,96,59.07a1.08,1.08,0,0,1,1,1,1.07,1.07,0,0,1-.9,1.12l-5.67.88,2.08,7.64a1.05,1.05,0,0,1-.32,1.08A1.07,1.07,0,0,1,91.52,71.06Z"/><path class="e81de573-b4c6-46d3-b7e0-146aee174600" d="M67.8,34.84s6.41,2.4,10.8,13.72S96,60.14,96,60.14L89.12,61.2,91.52,70s-17-6.92-17.31-18.08-7-16.26-7-16.26l.62-.81m0-2.13a2.12,2.12,0,0,0-1.69.84l-.62.8a2.13,2.13,0,0,0,.41,3c.23.18,5.94,4.71,6.18,14.61.3,12.41,17.89,19.7,18.64,20a2,2,0,0,0,.8.16,2.09,2.09,0,0,0,1.41-.54,2.12,2.12,0,0,0,.64-2.15L91.8,62.94l4.49-.7A2.13,2.13,0,0,0,96,58c-.47,0-11.61-.41-15.42-10.22C75.9,35.72,68.84,33,68.54,32.85a2.11,2.11,0,0,0-.74-.14Z"/><path class="b9a0cc18-bdb5-4939-b8e8-37fc948d68dc" d="M66.64,38.64c-1.85,0-3.33-2-4.38-5.9a1.18,1.18,0,0,1,0-.2,1.64,1.64,0,0,1,.44-1.19,2.36,2.36,0,0,1,1.81-.66A6.63,6.63,0,0,1,66,30.9a4.94,4.94,0,0,1,1.67-.41,1.38,1.38,0,0,1,1.43,1.06c.26.81,1.54,5.26-1,6.64A2.48,2.48,0,0,1,66.64,38.64Z"/><path class="e81de573-b4c6-46d3-b7e0-146aee174600" d="M67.67,31.56c.22,0,.38.07.39.25,0,0,1.49,4.48-.57,5.48a1.37,1.37,0,0,1-.85.29c-.85,0-2.2-.81-3.35-5.12,0,0-.06-.71,1.18-.71a6.46,6.46,0,0,1,1.62.27,5.24,5.24,0,0,1,1.58-.46m0-2.13a5.56,5.56,0,0,0-1.75.36,7.19,7.19,0,0,0-1.45-.17,3.41,3.41,0,0,0-2.59,1,2.76,2.76,0,0,0-.72,2,1.78,1.78,0,0,0,.07.39c.44,1.65,1.8,6.69,5.41,6.69a3.56,3.56,0,0,0,2-.61c3.18-1.76,1.91-6.58,1.51-7.84a2.44,2.44,0,0,0-2.46-1.83Z"/><path class="e81de573-b4c6-46d3-b7e0-146aee174600" d="M66.62,37.13S63.91,33,64.82,33,66.62,37.13,66.62,37.13Z"/><path class="e81de573-b4c6-46d3-b7e0-146aee174600" d="M67.18,36.16s1.08-3.91.38-3.69S67.18,36.16,67.18,36.16Z"/><path class="a6710b44-36bc-4865-80b6-1877d58c69c7" d="M64.69,38.9a52.63,52.63,0,0,0-5.21,18.47c-.62,9.67-.11,15.79-2.58,21.12"/><path class="a6710b44-36bc-4865-80b6-1877d58c69c7" d="M69.68,37.13s4.13,3.35,6.46,11.34a22,22,0,0,0,9,11.91"/><path class="a6710b44-36bc-4865-80b6-1877d58c69c7" d="M69.68,33s33.64-9.89,22.81-2.26"/><path class="a6710b44-36bc-4865-80b6-1877d58c69c7" d="M62.1,33.77s-30.4,3-21.17,7.44"/><path class="a69dd309-3505-4997-8547-f4bbcf16627b" d="M69.42,5l2.4,0h1a115.4,115.4,0,0,1,13.7,1.18h0C113.14,10.15,132.88,23,133.8,38.36h0a14.35,14.35,0,0,1-.13,3.83l-1.16,19s-.66,3.92-4.88,8.71l-2.48,27.47a24.87,24.87,0,0,1-14.57,20.4,100.08,100.08,0,0,1-40.31,8.91h-.86a99.51,99.51,0,0,1-16.13-1.33l-.2,0h0a100.53,100.53,0,0,1-25.33-7.77A24.59,24.59,0,0,1,13.68,97.37L11.19,69.89C7,65.1,6.32,61.18,6.32,61.18L5.11,41.57A20.75,20.75,0,0,1,5,39.48s0-.41.06-1.1a19.82,19.82,0,0,1,2.11-7.77A19.81,19.81,0,0,1,8.71,27.9h0C17.61,14.56,41.43,5,69.42,5M68.29,0V0c-27.21.24-51,9-62,22.75H6.21L4.62,25.06a24.84,24.84,0,0,0-1.95,3.36A25,25,0,0,0,.06,38C0,38.85,0,39.38,0,39.53c0,.73.05,1.55.14,2.46l1.2,19.5,0,.26,0,.26c.08.5.9,4.75,5,9.88L8.71,97.81a29.63,29.63,0,0,0,17,24.26,104.84,104.84,0,0,0,22.42,7.38v.18l4.28.62.15,0a104.47,104.47,0,0,0,16.89,1.38h.79l5.06.07v-.24a105.77,105.77,0,0,0,37.38-9.19,29.92,29.92,0,0,0,17.47-24.49l2.34-25.92c4.08-5.13,4.89-9.38,5-9.88l0-.26v-.26l1.16-18.79a19.09,19.09,0,0,0,.1-4.94,23,23,0,0,0-.54-3.6l-.05-.36h0C134.54,19.22,117.31,7.17,93,2.3l0-.08-3.76-.6-1.13-.18-.86-.14A120.31,120.31,0,0,0,72.9.07H71.15l-1.4,0L68.29,0Z"/><path class="f49b7cf3-ee3c-4c57-a3a1-9831a0ec356d" d="M20.17,90.7s-2.63,19,17.58,24.71"/><path class="f49b7cf3-ee3c-4c57-a3a1-9831a0ec356d" d="M119.57,79.7s-.41,14-1.1,19.72"/><path class="f49b7cf3-ee3c-4c57-a3a1-9831a0ec356d" d="M90.64,11.77s26,5.5,37,22"/><path class="f49b7cf3-ee3c-4c57-a3a1-9831a0ec356d" d="M12.76,43.68S18,58,43.91,64.12"/><path class="f49b7cf3-ee3c-4c57-a3a1-9831a0ec356d" d="M129,55.19l-.27,3a11.82,11.82,0,0,1-3.41,7.3,48.2,48.2,0,0,1-21.47,12.32"/><path class="b79676d0-d839-499a-8995-2b7340f4a09f" d="M56.53,121.4a27.86,27.86,0,0,0,8.93.36V105.1"/><line class="b79676d0-d839-499a-8995-2b7340f4a09f" x1="128.97" y1="42.79" x2="110.99" y2="40.65"/><path class="b79676d0-d839-499a-8995-2b7340f4a09f" d="M81.08,10a49,49,0,0,0-5.14-.59,1.47,1.47,0,0,0-1.45,1l-1,3.11"/><line class="b79676d0-d839-499a-8995-2b7340f4a09f" x1="9.8" y1="35.55" x2="25.34" y2="37.25"/><path class="b79676d0-d839-499a-8995-2b7340f4a09f" d="M98.48,28.83s2,10.64-1.72,14"/><path class="b79676d0-d839-499a-8995-2b7340f4a09f" d="M40.73,33.77s-7.83.09-4.92,7.95"/><path class="b79676d0-d839-499a-8995-2b7340f4a09f" d="M58.66,89.94S62.78,77.79,63,67.65"/><path class="b79676d0-d839-499a-8995-2b7340f4a09f" d="M87.87,65.64s-8-3.73-10.8-10.45"/></g></g></svg>