<svg xmlns="http://www.w3.org/2000/svg" viewBox="0 0 128.7 116"><defs><style>.b6814301-1083-4473-a5c9-c8633d467dd1,.f5349ecc-607b-4fb3-ad09-88fe767569dc{fill:#8bc775;}.b493b0e7-1261-4eb0-a57e-d05045028488{fill:#425d38;}.a1b4bfa5-a799-4edd-ae0e-5836e9d3080b{fill:#ffea00;}.aa340373-911b-44df-9c23-62bb80585812{fill:#fdd000;}.a7c29f7c-7ee1-4920-8419-cbadb332f8b4,.b25aba19-19a8-4e7c-adf7-b961b6970373,.b9479b92-bad0-48e1-ad4d-247b04f66e13,.bb2eb739-42cf-4ab3-a8cd-06c34d882ca2{fill:none;}.b9479b92-bad0-48e1-ad4d-247b04f66e13,.f5349ecc-607b-4fb3-ad09-88fe767569dc{stroke:#425d38;stroke-miterlimit:10;stroke-width:1.69px;}.a2bf8139-f3b4-49f1-9395-f975862b1b60{fill:#fff;}.a70ab771-00db-4200-9529-b376406ec088{fill:#fff100;}.ffeef09e-0e59-4e33-b8b6-c4040ee5314f{fill:#fcc900;}.b25aba19-19a8-4e7c-adf7-b961b6970373{stroke:#fccb00;stroke-width:0.95px;}.a7c29f7c-7ee1-4920-8419-cbadb332f8b4,.b25aba19-19a8-4e7c-adf7-b961b6970373,.bb2eb739-42cf-4ab3-a8cd-06c34d882ca2{stroke-linecap:round;stroke-linejoin:round;}.a7c29f7c-7ee1-4920-8419-cbadb332f8b4{stroke:#e3f1e6;}.a7c29f7c-7ee1-4920-8419-cbadb332f8b4,.bb2eb739-42cf-4ab3-a8cd-06c34d882ca2{stroke-width:1.25px;}.bb2eb739-42cf-4ab3-a8cd-06c34d882ca2{stroke:#fffbc2;}</style></defs><title>六角</title><g id="e87c261c-d43d-4cb9-84f3-649741173a57" data-name="圖層 2"><g id="bb1e159e-7d65-48d5-a5bd-eea330fa7fcc" data-name="圖層 1"><path class="b6814301-1083-4473-a5c9-c8633d467dd1" d="M47.49,110.17a15.17,15.17,0,0,1-10.16-3.89L25.94,96.05a15.21,15.21,0,0,1-4.62-7.74L10.51,43.6H118.1L107.28,88.32a15.14,15.14,0,0,1-4.61,7.73L91.28,106.28a15.2,15.2,0,0,1-10.16,3.89Z"/><path class="b493b0e7-1261-4eb0-a57e-d05045028488" d="M117,44.45,106.46,88.12a14.32,14.32,0,0,1-4.36,7.3L90.71,105.65a14.35,14.35,0,0,1-9.59,3.68H47.49a14.35,14.35,0,0,1-9.6-3.68L26.5,95.42a14.3,14.3,0,0,1-4.35-7.3L11.58,44.45H117m2.15-1.69H9.43L20.5,88.51a16.09,16.09,0,0,0,4.88,8.17l11.38,10.23A16.1,16.1,0,0,0,47.49,111H81.12a16.06,16.06,0,0,0,10.72-4.11l11.39-10.23a16.07,16.07,0,0,0,4.87-8.17l11.07-45.75Z"/><polygon class="a1b4bfa5-a799-4edd-ae0e-5836e9d3080b" points="60.3 110.17 58.25 66.39 71.75 66.39 68.14 110.17 60.3 110.17"/><path class="aa340373-911b-44df-9c23-62bb80585812" d="M70.83,67.24l-3.47,42.09H61.1l-2-42.09H70.83m1.84-1.69H57.37L59.49,111h9.43l3.75-45.47Z"/><polygon class="a1b4bfa5-a799-4edd-ae0e-5836e9d3080b" points="106.51 56.23 114.53 49.95 102.48 96.22 96.46 101.62 106.51 56.23"/><path class="aa340373-911b-44df-9c23-62bb80585812" d="M113.08,52.15,101.72,95.76l-3.86,3.47,9.41-42.53,5.81-4.55m2.9-4.41-10.23,8L95.07,104l8.16-7.33L116,47.74Z"/><polygon class="a1b4bfa5-a799-4edd-ae0e-5836e9d3080b" points="26.71 96.74 15.1 50.73 23.51 57.77 30.69 100.31 26.71 96.74"/><path class="aa340373-911b-44df-9c23-62bb80585812" d="M16.56,53.05l6.17,5.16,6.72,39.86-2-1.78L16.56,53.05M13.64,48.4,26,97.2l6,5.36L24.3,57.32,13.64,48.4Z"/><path class="b6814301-1083-4473-a5c9-c8633d467dd1" d="M34.12,46.89a.69.69,0,0,1-.39-.12L5.22,26.92a.67.67,0,0,1,0-1.12L33.73,6a.69.69,0,0,1,.39-.12H94.59A.69.69,0,0,1,95,6L123.5,25.8a.69.69,0,0,1,0,1.12L95,46.77a.69.69,0,0,1-.39.12Z"/><path class="b493b0e7-1261-4eb0-a57e-d05045028488" d="M94.54,6.67l28.28,19.69L94.54,46.05H34.17L5.89,26.36,34.17,6.67H94.54m0-1.69H34.12a1.53,1.53,0,0,0-.87.28L4.73,25.11a1.53,1.53,0,0,0,0,2.51L33.25,47.46a1.53,1.53,0,0,0,.87.28H94.59a1.5,1.5,0,0,0,.87-.28L124,27.62a1.53,1.53,0,0,0,0-2.51L95.46,5.26A1.5,1.5,0,0,0,94.59,5Z"/><path class="b6814301-1083-4473-a5c9-c8633d467dd1" d="M34,66.19,9,45.42a8.78,8.78,0,0,1-3.16-6.75V27.75l27.55,19h62l27.45-18.72V39a8.78,8.78,0,0,1-3.2,6.78L94.77,66.19Z"/><path class="b493b0e7-1261-4eb0-a57e-d05045028488" d="M6.67,29.36l26,18,.44.3H95.59l.43-.29,25.91-17.68V39A7.92,7.92,0,0,1,119,45.1L94.46,65.35H34.25L9.53,44.77a7.94,7.94,0,0,1-2.86-6.1V29.36M5,26.14V38.67a9.62,9.62,0,0,0,3.47,7.4L33.64,67H95.07L120.12,46.4a9.62,9.62,0,0,0,3.5-7.43V26.47L95.07,46H33.64L5,26.14Z"/><polyline class="b9479b92-bad0-48e1-ad4d-247b04f66e13" points="33.64 45.95 33.64 65.55 40.93 108.58"/><line class="f5349ecc-607b-4fb3-ad09-88fe767569dc" x1="95.07" y1="45.95" x2="95.07" y2="65.55"/><line class="b9479b92-bad0-48e1-ad4d-247b04f66e13" x1="95.07" y1="65.55" x2="87.68" y2="108.58"/><polygon class="a1b4bfa5-a799-4edd-ae0e-5836e9d3080b" points="15.48 34.06 105.79 13.47 114.11 19.27 24.65 40.45 15.48 34.06"/><path class="aa340373-911b-44df-9c23-62bb80585812" d="M105.61,14.38l6.47,4.5L24.82,39.54l-7.29-5.08,88.08-20.08m.36-1.81L13.42,33.67l11.06,7.69,91.67-21.71L106,12.57Z"/><polygon class="a1b4bfa5-a799-4edd-ae0e-5836e9d3080b" points="58.25 46.89 60.3 5.83 68.77 5.83 71.76 46.89 58.25 46.89"/><path class="aa340373-911b-44df-9c23-62bb80585812" d="M68,6.67l2.87,39.38H59.14l2-39.38H68M69.55,5H59.49L57.37,47.74h15.3L69.55,5Z"/><polygon class="a1b4bfa5-a799-4edd-ae0e-5836e9d3080b" points="18.02 16.89 25.08 11.97 114.12 33.45 106.42 38.81 18.02 16.89"/><path class="aa340373-911b-44df-9c23-62bb80585812" d="M25.25,12.88l86.84,20.95-5.84,4.07L20,16.52l5.22-3.64m-.34-1.82L16,17.26l90.58,22.46,9.56-6.65-91.24-22Z"/><rect class="a1b4bfa5-a799-4edd-ae0e-5836e9d3080b" x="58.21" y="46.79" width="13.61" height="19.4"/><path class="aa340373-911b-44df-9c23-62bb80585812" d="M71,47.64V65.35H59.06V47.64H71M72.67,46H57.37V67h15.3V46Z"/><polygon class="a1b4bfa5-a799-4edd-ae0e-5836e9d3080b" points="107.42 40.18 115.3 34.69 115.3 49.27 106.77 56.3 107.42 40.18"/><path class="aa340373-911b-44df-9c23-62bb80585812" d="M114.46,36.3V48.87l-6.77,5.58.55-13.82,6.22-4.33m1.69-3.23-9.56,6.65-.74,18.44,10.3-8.49V33.07Z"/><polygon class="a1b4bfa5-a799-4edd-ae0e-5836e9d3080b" points="14.27 49.81 14.27 35.28 23.62 41.79 23.25 57.29 14.27 49.81"/><path class="aa340373-911b-44df-9c23-62bb80585812" d="M15.11,36.9l7.66,5.33-.32,13.29-7.34-6.1V36.9m-1.69-3.23V50.21l10.64,8.85.42-17.7L13.42,33.67Z"/><path class="a2bf8139-f3b4-49f1-9395-f975862b1b60" d="M94.21,5a2.77,2.77,0,0,1,1.56.49l10.2,7.1,10.18,7.08,6.41,4.47a2.73,2.73,0,0,1,1.06,3V39a9.62,9.62,0,0,1-3.5,7.43l-2.28,1.88L108.1,88.51a16.07,16.07,0,0,1-4.87,8.17L95.07,104l-3.23,2.9A16.07,16.07,0,0,1,81.12,111H47.49a16.06,16.06,0,0,1-10.72-4.11l-4.84-4.35L26,97.2l-.59-.52a16.14,16.14,0,0,1-4.87-8.17L10.68,47.93,8.45,46.07A9.62,9.62,0,0,1,5,38.67V26.14H5a2.7,2.7,0,0,1,1.15-2L20.88,13.87l4-2.81,8-5.59A2.8,2.8,0,0,1,34.5,5H94.21m0-5H34.5a7.73,7.73,0,0,0-4.41,1.38L22.06,7,18,9.78,3.31,20A7.7,7.7,0,0,0,.14,25,5.23,5.23,0,0,0,0,26.14V38.67A14.6,14.6,0,0,0,5.26,49.9l1,.8,9.43,39A20.94,20.94,0,0,0,22,100.38l.59.53,6,5.36,4.84,4.35A21,21,0,0,0,47.49,116H81.12a21,21,0,0,0,14-5.38l3.23-2.9,8.16-7.34A20.94,20.94,0,0,0,113,89.68l9.34-38.61,1-.82A14.55,14.55,0,0,0,128.6,39V27.59A7.72,7.72,0,0,0,125.4,20L119,15.56,108.81,8.48,98.62,1.38A7.7,7.7,0,0,0,94.21,0Z"/><path class="a70ab771-00db-4200-9529-b376406ec088" d="M39.6,45.64a4.68,4.68,0,0,1-3.46-1.47C31,38.73,30,30.41,29.9,25.94a4,4,0,0,1,2.78-4A41.51,41.51,0,0,1,44.3,20.72a166.79,166.79,0,0,1,22.92,2C59.12,34.45,48,41.69,42,45a5.1,5.1,0,0,1-2.44.63Z"/><path class="ffeef09e-0e59-4e33-b8b6-c4040ee5314f" d="M44.3,21.67a160.81,160.81,0,0,1,21.25,1.75c-7.89,10.85-18.26,17.6-24,20.76a4.17,4.17,0,0,1-2,.51,3.77,3.77,0,0,1-2.77-1.17c-4.93-5.22-5.87-13.27-6-17.6a3,3,0,0,1,2.11-3A40.29,40.29,0,0,1,44.3,21.67m0-1.9a43.15,43.15,0,0,0-11.91,1.31A4.94,4.94,0,0,0,29,26c.12,4.61,1.13,13.18,6.49,18.86a5.73,5.73,0,0,0,4.16,1.76,6,6,0,0,0,2.9-.75c5.93-3.28,18-11.05,26.33-23.84A171.62,171.62,0,0,0,44.3,19.77Z"/><path class="ffeef09e-0e59-4e33-b8b6-c4040ee5314f" d="M66.34,23.83S37.25,35.9,39.69,41.25,66.34,23.83,66.34,23.83Z"/><path class="a70ab771-00db-4200-9529-b376406ec088" d="M101,34.46a4.9,4.9,0,0,1-.77-.05c-6.78-1-19.68-4-31.34-12.22,4.9-2.7,22.56-12.11,32.16-12.62h.21A4,4,0,0,1,105,12.32c1.43,4.23,3.39,12.37.45,19.26A4.83,4.83,0,0,1,101,34.46Z"/><path class="ffeef09e-0e59-4e33-b8b6-c4040ee5314f" d="M101.27,10.52a3.05,3.05,0,0,1,2.87,2.1c1.39,4.11,3.29,12,.48,18.59a3.89,3.89,0,0,1-3.61,2.3,4.21,4.21,0,0,1-.62,0c-6.46-1-18.52-3.73-29.67-11.19,6.17-3.34,21.71-11.3,30.39-11.76h.16m0-1.9H101c-11.53.61-33.87,13.47-33.87,13.47,12.27,9.11,26.26,12.23,33,13.26a7,7,0,0,0,.91.06A5.78,5.78,0,0,0,106.36,32c3.07-7.19,1-15.58-.42-20a5,5,0,0,0-4.67-3.39Z"/><path class="ffeef09e-0e59-4e33-b8b6-c4040ee5314f" d="M70.12,23s31.47,1.25,31,7.11S70.12,23,70.12,23Z"/><path class="a70ab771-00db-4200-9529-b376406ec088" d="M58.47,93.36a.94.94,0,0,1-.84-.52L52.49,82.77,44.31,86A.83.83,0,0,1,44,86a.93.93,0,0,1-.71-.32.94.94,0,0,1-.14-1.07c.12-.22,11.56-22.1,12.26-34.44.72-12.82,9.8-25.47,10.19-26a1,1,0,0,1,.77-.39h.15a1,1,0,0,1,.75.65l.36,1.11a.94.94,0,0,1,0,.68c-.06.14-6.33,14.44-2.07,27.36,4.49,13.63-5.7,38.12-6.14,39.16a.94.94,0,0,1-.84.58Z"/><path class="ffeef09e-0e59-4e33-b8b6-c4040ee5314f" d="M66.34,24.76l.36,1.11s-6.55,14.61-2.12,28.05-6.11,38.49-6.11,38.49L52.94,81.57l-9,3.51S55.61,63,56.33,50.26s10-25.5,10-25.5m0-1.9a1.92,1.92,0,0,0-1.54.78c-.39.54-9.63,13.41-10.37,26.51-.68,12.13-12,33.83-12.15,34A1.9,1.9,0,0,0,44,87a1.87,1.87,0,0,0,.69-.13L52,84l4.75,9.31a1.9,1.9,0,0,0,1.69,1h.07a1.92,1.92,0,0,0,1.69-1.16C60.67,92.1,71,67.28,66.39,53.33c-4.15-12.6,2-26.55,2-26.68a1.94,1.94,0,0,0,.08-1.36l-.36-1.11a1.92,1.92,0,0,0-1.51-1.3l-.3,0Z"/><path class="a70ab771-00db-4200-9529-b376406ec088" d="M96.05,64.52a.86.86,0,0,1-.36-.07c-.82-.33-20.13-8.33-20.45-21.6C75,30.65,67.63,25,67.55,24.93a.94.94,0,0,1-.18-1.33l.71-.93a.93.93,0,0,1,.75-.37,1,1,0,0,1,.34.06c.31.12,7.81,3.05,13,16.28,4.74,12.22,18.91,12.68,19,12.68a1,1,0,0,1,.13,1.89l-6.81,1.06,2.47,9a.94.94,0,0,1-.28,1A1,1,0,0,1,96.05,64.52Z"/><path class="ffeef09e-0e59-4e33-b8b6-c4040ee5314f" d="M68.83,23.25S76.19,26,81.23,39s19.92,13.29,19.92,13.29L93.3,53.49l2.75,10.08S76.5,55.63,76.19,42.82s-8.07-18.64-8.07-18.64l.71-.93m0-1.9a1.9,1.9,0,0,0-1.51.74l-.7.93a1.88,1.88,0,0,0-.38,1.41A1.92,1.92,0,0,0,67,25.69c.28.22,7,5.53,7.31,17.18.33,13.89,20.19,22.12,21,22.46a2,2,0,0,0,.72.14,1.9,1.9,0,0,0,1.83-2.4l-2.19-8,5.75-.89a1.9,1.9,0,0,0-.25-3.78c-.55,0-13.68-.47-18.19-12.08-5.28-13.62-13.17-16.7-13.5-16.82a1.93,1.93,0,0,0-.67-.12Z"/><path class="b25aba19-19a8-4e7c-adf7-b961b6970373" d="M65.27,27.91S60,38,59.29,49.09s-.12,18.12-3,24.23"/><path class="b25aba19-19a8-4e7c-adf7-b961b6970373" d="M71,25.87s4.73,3.84,7.41,13a25.33,25.33,0,0,0,10.3,13.67"/><path class="b25aba19-19a8-4e7c-adf7-b961b6970373" d="M71,21.13s38.59-11.35,26.17-2.59"/><path class="b25aba19-19a8-4e7c-adf7-b961b6970373" d="M62.3,22S27.42,25.46,38,30.55"/><path class="a70ab771-00db-4200-9529-b376406ec088" d="M67.51,27.34c-2,0-3.6-2.21-4.77-6.57a.57.57,0,0,1,0-.18,1.66,1.66,0,0,1,.43-1.17A2.45,2.45,0,0,1,65,18.75a7.36,7.36,0,0,1,1.78.25,6,6,0,0,1,1.9-.47,1.3,1.3,0,0,1,1.38,1c.28.88,1.72,5.82-1.08,7.31A2.51,2.51,0,0,1,67.51,27.34Z"/><path class="ffeef09e-0e59-4e33-b8b6-c4040ee5314f" d="M68.69,19.48c.25,0,.43.08.45.29,0,0,1.71,5.13-.66,6.28a1.56,1.56,0,0,1-1,.34c-1,0-2.52-.93-3.85-5.87,0,0-.06-.82,1.35-.82a7.59,7.59,0,0,1,1.86.3,6.21,6.21,0,0,1,1.82-.52m0-1.9h0a6,6,0,0,0-2,.43A8,8,0,0,0,65,17.8a3.3,3.3,0,0,0-2.56,1,2.54,2.54,0,0,0-.69,1.88,2,2,0,0,0,.06.35c.49,1.8,2,7.28,5.69,7.28a3.41,3.41,0,0,0,2-.63c3.32-1.81,1.92-7,1.5-8.36a2.23,2.23,0,0,0-2.3-1.72Z"/><path class="ffeef09e-0e59-4e33-b8b6-c4040ee5314f" d="M67.48,25.87s-3.1-4.79-2.07-4.79S67.48,25.87,67.48,25.87Z"/><path class="ffeef09e-0e59-4e33-b8b6-c4040ee5314f" d="M68.12,24.76s1.25-4.48.44-4.23S68.12,24.76,68.12,24.76Z"/><line class="a7c29f7c-7ee1-4920-8419-cbadb332f8b4" x1="88.12" y1="71.91" x2="84.64" y2="104.01"/><polyline class="a7c29f7c-7ee1-4920-8419-cbadb332f8b4" points="37.86 50.61 37.86 62.36 48.89 62.36"/><path class="a7c29f7c-7ee1-4920-8419-cbadb332f8b4" d="M56.33,9.64H37.66a4.28,4.28,0,0,0-2.87,1.11l-1.15,1"/><path class="a7c29f7c-7ee1-4920-8419-cbadb332f8b4" d="M18.13,22l-3.94,2.84a1.76,1.76,0,0,0,0,2.86l2.91,2.14"/><path class="bb2eb739-42cf-4ab3-a8cd-06c34d882ca2" d="M101.15,13.67A23.53,23.53,0,0,1,103,29.23"/><path class="bb2eb739-42cf-4ab3-a8cd-06c34d882ca2" d="M38.59,24.25s-6.83-.67-5,4.81"/><line class="bb2eb739-42cf-4ab3-a8cd-06c34d882ca2" x1="26.23" y1="14.44" x2="43.37" y2="18.69"/><line class="bb2eb739-42cf-4ab3-a8cd-06c34d882ca2" x1="24.48" y1="37.8" x2="29.76" y2="36.4"/><polyline class="bb2eb739-42cf-4ab3-a8cd-06c34d882ca2" points="16.94 42.89 16.94 48.4 20.31 50.61"/><polyline class="bb2eb739-42cf-4ab3-a8cd-06c34d882ca2" points="112.76 40.8 112.76 48.13 110.2 50.28"/><line class="bb2eb739-42cf-4ab3-a8cd-06c34d882ca2" x1="18.95" y1="57.2" x2="23.25" y2="75.13"/><line class="bb2eb739-42cf-4ab3-a8cd-06c34d882ca2" x1="110.2" y1="57.11" x2="107.59" y2="67.91"/><path class="bb2eb739-42cf-4ab3-a8cd-06c34d882ca2" d="M58.7,84.89s5-13.42,4.84-24.64"/><path class="bb2eb739-42cf-4ab3-a8cd-06c34d882ca2" d="M79.86,47.74A29.85,29.85,0,0,0,91.79,59.07"/></g></g></svg>