<svg xmlns="http://www.w3.org/2000/svg" viewBox="0 0 170.08 170.08"><defs><style>.a22db386-35f8-4639-98c1-7d21c5f6d626,.a6f771aa-d85d-43b3-967c-b55fbe411a53{fill:none;}.a830f8e3-4c00-464b-85a5-88df24b7de1c{fill:#fff;}.bd17a586-d355-4782-90b9-abb3377dded5{fill:#e96c37;}.af45094f-056e-47df-bf41-312fe42021e7{fill:#f9ca9a;}.aa427b20-3baa-435e-835a-d0b0b9c7ab79{fill:#bd4209;}.a22db386-35f8-4639-98c1-7d21c5f6d626{stroke:#eb5c28;stroke-linecap:round;stroke-miterlimit:10;stroke-width:2.99px;}</style></defs><title>房子</title><g id="b0124f54-effe-48c2-8eed-757957784bb7" data-name="圖層 2"><g id="b4891d95-6d9b-48d9-aada-4ce1d3a9ad75" data-name="圖層 1"><path class="a6f771aa-d85d-43b3-967c-b55fbe411a53" d="M143.55,124.78A109.66,109.66,0,0,0,0,20.52V0H170.08V170.08H133.75A109.3,109.3,0,0,0,143.55,124.78Z"/><path class="a830f8e3-4c00-464b-85a5-88df24b7de1c" d="M143.55,124.78a109.3,109.3,0,0,1-9.8,45.3H120.58a97.41,97.41,0,0,0,11.12-45.3A97.83,97.83,0,0,0,0,33V20.52A109.66,109.66,0,0,1,143.55,124.78Z"/><path class="bd17a586-d355-4782-90b9-abb3377dded5" d="M131.7,124.78a97.41,97.41,0,0,1-11.12,45.3H106.77a85.41,85.41,0,0,0,12.94-45.3A85.81,85.81,0,0,0,0,46V33a97.83,97.83,0,0,1,131.7,91.74Z"/><path class="af45094f-056e-47df-bf41-312fe42021e7" d="M119.71,124.78a85.41,85.41,0,0,1-12.94,45.3H0V46a85.81,85.81,0,0,1,119.71,78.81Z"/><path class="aa427b20-3baa-435e-835a-d0b0b9c7ab79" d="M88.18,106.57l-35-30.73a3.87,3.87,0,0,0-5.25,0L13,106.57c-3.33,2.93-1.55,9.11,2.63,9.11h5.26v30.06c0,4.11,2.86,7.44,6.4,7.44h7.81c2.84,0,5.14-2.68,5.14-6V128.06c0-3.19,2.23-5.78,5-5.78H56c2.75,0,5,2.59,5,5.78V147.2c0,3.3,2.3,6,5.14,6H73.9c3.54,0,6.4-3.33,6.4-7.44V115.68h5.26C89.74,115.68,91.52,109.5,88.18,106.57Z"/><line class="a22db386-35f8-4639-98c1-7d21c5f6d626" x1="47.39" y1="86.47" x2="28.53" y2="102.57"/><path class="a22db386-35f8-4639-98c1-7d21c5f6d626" d="M68,147h3.47c2.1,0,3.81-2,3.81-4.43v-4.32"/></g></g></svg>