<svg xmlns="http://www.w3.org/2000/svg" viewBox="0 0 170.08 170.08"><defs><style>.a20b50ea-2b30-4f60-ad84-7ea4aeb834a2,.aad9ac7c-4768-4adf-9596-e25e237a6366{fill:none;}.a659b8f7-6183-4a57-aa32-0d331b51cf91{fill:#fff;}.b285c389-983e-4114-a839-318b1e6a0b52{fill:#3e5e89;}.ac72746d-7a26-400d-bab9-d29a854efdad{fill:#d8effc;}.b5d5b50d-8092-4b37-85ea-09d7e0de3c3c{fill:#4e618d;}.a20b50ea-2b30-4f60-ad84-7ea4aeb834a2{stroke:#8586a2;stroke-linecap:round;stroke-miterlimit:10;stroke-width:3.26px;}</style></defs><title>問號</title><g id="bc1195a4-dd16-4f73-9df2-be8e85fd9e09" data-name="圖層 2"><g id="a7aff716-05ba-4999-a37c-2333a29b6367" data-name="圖層 1"><path class="aad9ac7c-4768-4adf-9596-e25e237a6366" d="M26.53,124.78A109.66,109.66,0,0,1,170.08,20.52V0H0V170.08H36.33A109.3,109.3,0,0,1,26.53,124.78Z"/><path class="a659b8f7-6183-4a57-aa32-0d331b51cf91" d="M26.53,124.78a109.3,109.3,0,0,0,9.8,45.3H49.5A97.82,97.82,0,0,1,170.08,33V20.52A109.66,109.66,0,0,0,26.53,124.78Z"/><path class="b285c389-983e-4114-a839-318b1e6a0b52" d="M38.37,124.78a97.42,97.42,0,0,0,11.13,45.3H63.31A85.8,85.8,0,0,1,170.08,46V33A97.84,97.84,0,0,0,38.37,124.78Z"/><path class="ac72746d-7a26-400d-bab9-d29a854efdad" d="M50.37,124.78a85.41,85.41,0,0,0,12.94,45.3H170.08V46A85.81,85.81,0,0,0,50.37,124.78Z"/><path class="b5d5b50d-8092-4b37-85ea-09d7e0de3c3c" d="M99.2,129.06V104h22.86V88.35H107.9v6.32H85V88.35a15.92,15.92,0,0,1,.72-5.55,7.35,7.35,0,0,1,2.72-3.21,14.8,14.8,0,0,1,5.65-2.12,61.74,61.74,0,0,1,10-.6H132.3q12.06,0,16,2.29t4,9.19v19.1a15.64,15.64,0,0,1-.77,5.75,7.44,7.44,0,0,1-3.25,3.23,16.26,16.26,0,0,1-5.79,2,63.6,63.6,0,0,1-9.61.55H122.06v10.12Z"/><path class="a20b50ea-2b30-4f60-ad84-7ea4aeb834a2" d="M144.16,104.06c0,3.18-3.18,5.75-7.1,5.75"/><ellipse class="b5d5b50d-8092-4b37-85ea-09d7e0de3c3c" cx="110.56" cy="143.6" rx="13.97" ry="11.31"/><path class="a20b50ea-2b30-4f60-ad84-7ea4aeb834a2" d="M110.07,138.1s-6.42,1.21-5.46,8.53"/></g></g></svg>