<svg xmlns="http://www.w3.org/2000/svg" viewBox="0 0 147.21 126.45"><defs><style>.a92b8b62-e364-4113-bdf9-354f802373df{fill:#5299b8;}.b2592110-fc47-4848-9193-a8d674aa560f{fill:#4769a0;}.bcfd7b13-a9e1-4c51-979c-ce59b829e8be,.fbb9a69c-4341-4afd-a87a-5226884e73e0{fill:#3f7c96;}.b2f0960c-7a30-4f00-91fd-9b74de690f27,.b7505c35-7287-4577-aa86-6e25864a8f5a{fill:#0081ad;}.b7505c35-7287-4577-aa86-6e25864a8f5a,.fc6840b3-be75-47b1-85ff-cc00285dd6f3{stroke:#005289;}.ae999776-ce8b-4f3b-8c32-1e812b50b585,.b0ca7c00-11de-4893-a23e-c36875800ff1,.b7505c35-7287-4577-aa86-6e25864a8f5a,.bca45f02-43d1-49a9-944a-57af3dde0566,.fa2cc909-a9e5-4294-8e1c-63bc9f404f25,.fbb9a69c-4341-4afd-a87a-5226884e73e0,.fc6840b3-be75-47b1-85ff-cc00285dd6f3{stroke-linejoin:round;}.ae999776-ce8b-4f3b-8c32-1e812b50b585,.b7505c35-7287-4577-aa86-6e25864a8f5a,.fbb9a69c-4341-4afd-a87a-5226884e73e0{stroke-width:1.36px;}.b5c7d09a-66ba-4ba2-ac5b-7c5f8223601f,.bca45f02-43d1-49a9-944a-57af3dde0566,.fa2cc909-a9e5-4294-8e1c-63bc9f404f25,.fc6840b3-be75-47b1-85ff-cc00285dd6f3{fill:none;}.b0ca7c00-11de-4893-a23e-c36875800ff1{fill:#95d5f6;stroke-width:3.32px;}.ae999776-ce8b-4f3b-8c32-1e812b50b585,.b0ca7c00-11de-4893-a23e-c36875800ff1,.fbb9a69c-4341-4afd-a87a-5226884e73e0{stroke:#4769a0;}.ae999776-ce8b-4f3b-8c32-1e812b50b585{fill:#60b1d5;}.a8d469f9-5a66-48ea-9b87-c9eb3e870366{fill:#005289;}.bca45f02-43d1-49a9-944a-57af3dde0566,.fa2cc909-a9e5-4294-8e1c-63bc9f404f25,.fc6840b3-be75-47b1-85ff-cc00285dd6f3{stroke-linecap:round;}.fc6840b3-be75-47b1-85ff-cc00285dd6f3{stroke-width:0.68px;}.b5d5f765-0f6d-451d-a048-4be583e6f38f{fill:#fff;}.bca45f02-43d1-49a9-944a-57af3dde0566,.fa2cc909-a9e5-4294-8e1c-63bc9f404f25{stroke:#e1f3fc;}.bca45f02-43d1-49a9-944a-57af3dde0566{stroke-width:1.66px;}.fa2cc909-a9e5-4294-8e1c-63bc9f404f25{stroke-width:1.25px;}</style></defs><title>方</title><g id="be8473df-7d82-4b00-9f40-c92ab0e9103b" data-name="圖層 2"><g id="a146c8b5-a5b3-4a56-8f53-db008c6f114e" data-name="圖層 1"><path class="a92b8b62-e364-4113-bdf9-354f802373df" d="M74.59,120.8a27.3,27.3,0,0,1-10.16-2.61L26.65,97.89A14.44,14.44,0,0,1,19,86L16.35,42.14,74.59,73.45Z"/><path class="b2592110-fc47-4848-9193-a8d674aa560f" d="M17,43.22,74,73.82v46.32a27,27,0,0,1-9.25-2.49L62,116.16,27,97.34a13.84,13.84,0,0,1-7.3-11.4L17,43.22m-1.38-2.15L18.41,86a15.17,15.17,0,0,0,8,12.42l35,18.82,2.79,1.5a27.87,27.87,0,0,0,11,2.68V73.08l-59.55-32Z"/><path class="bcfd7b13-a9e1-4c51-979c-ce59b829e8be" d="M76.05,73.55l57.84-33.81-1.52,43.48a13.08,13.08,0,0,1-6.51,10.9L83.3,119a18.45,18.45,0,0,1-7.25,1.61Z"/><path class="b2592110-fc47-4848-9193-a8d674aa560f" d="M133,41.22l-1.46,42a12.29,12.29,0,0,1-6.1,10.21L86.33,116.27l-3.37,2a17.64,17.64,0,0,1-6.08,1.5V74L133,41.22m1.77-3L75.21,73.08v48.36h.35a19.47,19.47,0,0,0,8.16-1.73l3.45-2h0l39.11-22.87a14,14,0,0,0,6.92-11.59l1.57-45Z"/><polygon class="b7505c35-7287-4577-aa86-6e25864a8f5a" points="99.55 63.92 99.55 110.47 112.85 102.69 112.85 55.82 99.55 63.92"/><polygon class="b7505c35-7287-4577-aa86-6e25864a8f5a" points="36.29 57.35 36.29 103.77 49.61 110.93 49.61 64.57 36.29 57.35"/><path class="b5c7d09a-66ba-4ba2-ac5b-7c5f8223601f" d="M87.17,119.06l-3.45,2A19.84,19.84,0,0,0,87.17,119.06Z"/><path class="b5c7d09a-66ba-4ba2-ac5b-7c5f8223601f" d="M64.17,120.12l-2.79-1.5A24.89,24.89,0,0,0,64.17,120.12Z"/><path class="b0ca7c00-11de-4893-a23e-c36875800ff1" d="M72.57,60.35,5.84,25.19A1.29,1.29,0,0,1,6.1,22.8L66.36,6a25.84,25.84,0,0,1,13.52-.1L139.6,21.53a3.28,3.28,0,0,1,.7,6.08L78.17,60.35A6,6,0,0,1,72.57,60.35Z"/><path class="ae999776-ce8b-4f3b-8c32-1e812b50b585" d="M5,24.52V38.09a6.15,6.15,0,0,0,3.22,5.4l67,36.32,65.35-39a3.38,3.38,0,0,0,1.65-2.89l-.56-11.62L75.21,61.82Z"/><line class="fbb9a69c-4341-4afd-a87a-5226884e73e0" x1="75.21" y1="61.82" x2="75.21" y2="79.81"/><polygon class="b2f0960c-7a30-4f00-91fd-9b74de690f27" points="34.97 39.67 98.62 11.47 107.2 13.73 48.57 46.9 34.97 39.67"/><path class="a8d469f9-5a66-48ea-9b87-c9eb3e870366" d="M98.68,12.19,105.42,14,48.56,46.13l-12-6.4L98.68,12.19m-.12-1.44L33.42,39.62l15.16,8.05L109,13.49,98.56,10.75Z"/><polygon class="b2f0960c-7a30-4f00-91fd-9b74de690f27" points="38.15 14.54 49.14 11.47 115.16 39.7 102.2 46.91 38.15 14.54"/><path class="a8d469f9-5a66-48ea-9b87-c9eb3e870366" d="M49.1,12.19l64.53,27.59-11.44,6.36L40,14.73l9.08-2.54m.09-1.44-12.9,3.61,65.93,33.31,14.48-8.05L49.19,10.75Z"/><polygon class="b2f0960c-7a30-4f00-91fd-9b74de690f27" points="102.9 48.07 116.04 40.76 116.24 55.31 103.09 63.17 102.9 48.07"/><path class="a8d469f9-5a66-48ea-9b87-c9eb3e870366" d="M115.38,41.91l.17,13-11.79,7-.17-13.51,11.79-6.56m1.32-2.29-14.48,8.05.21,16.69,14.49-8.66-.22-16.08Z"/><polygon class="b2f0960c-7a30-4f00-91fd-9b74de690f27" points="34.09 56.75 34.09 40.76 47.62 48.08 47.62 64.13 34.09 56.75"/><path class="a8d469f9-5a66-48ea-9b87-c9eb3e870366" d="M34.77,41.9l12.17,6.58V63L34.77,56.35V41.9m-1.35-2.28V57.15l14.87,8.13V47.67L33.42,39.62Z"/><path class="b2f0960c-7a30-4f00-91fd-9b74de690f27" d="M53.09,41.5a3.38,3.38,0,0,1-2.47-1c-3.67-3.89-4.36-9.83-4.45-13a2.85,2.85,0,0,1,2-2.82,29.26,29.26,0,0,1,8.3-.91,118.55,118.55,0,0,1,16.37,1.42,53.93,53.93,0,0,1-18,15.92,3.59,3.59,0,0,1-1.75.45Z"/><path class="a8d469f9-5a66-48ea-9b87-c9eb3e870366" d="M56.45,24.39a115.58,115.58,0,0,1,15.18,1.25A53.86,53.86,0,0,1,54.51,40.46a2.92,2.92,0,0,1-1.42.37,2.67,2.67,0,0,1-2-.84c-3.52-3.72-4.19-9.47-4.27-12.57a2.13,2.13,0,0,1,1.5-2.15,28.67,28.67,0,0,1,8.1-.88m0-1.36A30.63,30.63,0,0,0,48,24a3.54,3.54,0,0,0-2.46,3.49c.09,3.29.81,9.41,4.64,13.46a4,4,0,0,0,3,1.26,4.29,4.29,0,0,0,2.08-.53C59.4,39.31,68,33.76,74,24.62A122.69,122.69,0,0,0,56.45,23Z"/><path class="a8d469f9-5a66-48ea-9b87-c9eb3e870366" d="M72.19,25.93s-20.77,8.62-19,12.44S72.19,25.93,72.19,25.93Z"/><path class="b2f0960c-7a30-4f00-91fd-9b74de690f27" d="M97,33.52a3.48,3.48,0,0,1-.55,0A54,54,0,0,1,74,24.76c3.5-1.93,16.11-8.65,23-9h.15a2.86,2.86,0,0,1,2.69,2c1,3,2.42,8.83.32,13.76A3.44,3.44,0,0,1,97,33.52Z"/><path class="a8d469f9-5a66-48ea-9b87-c9eb3e870366" d="M97.14,16.42a2.17,2.17,0,0,1,2,1.51c1,2.93,2.36,8.56.35,13.27A2.78,2.78,0,0,1,97,32.85a3.42,3.42,0,0,1-.45,0,53.72,53.72,0,0,1-21.18-8c4.4-2.39,15.5-8.08,21.7-8.4h.12m0-1.35H97c-8.23.43-24.18,9.62-24.18,9.62,8.76,6.5,18.75,8.73,23.53,9.46a3.56,3.56,0,0,0,.65.05,4.15,4.15,0,0,0,3.83-2.47c2.18-5.13.74-11.12-.31-14.24a3.53,3.53,0,0,0-3.33-2.42Z"/><path class="a8d469f9-5a66-48ea-9b87-c9eb3e870366" d="M74.89,25.3s22.47.9,22.16,5.08S74.89,25.3,74.89,25.3Z"/><path class="b2f0960c-7a30-4f00-91fd-9b74de690f27" d="M66.58,75.58a.68.68,0,0,1-.61-.37L62.3,68,56.46,70.3a.7.7,0,0,1-.25,0,.66.66,0,0,1-.5-.23.68.68,0,0,1-.1-.77c.09-.15,8.26-15.77,8.75-24.59.52-9.16,7-18.18,7.28-18.56a.68.68,0,0,1,.55-.28h.11a.68.68,0,0,1,.54.47l.25.79a.72.72,0,0,1,0,.48c0,.1-4.53,10.32-1.49,19.55,3.21,9.72-4.07,27.22-4.38,28a.68.68,0,0,1-.6.41Z"/><path class="a8d469f9-5a66-48ea-9b87-c9eb3e870366" d="M72.19,26.59l.26.8s-4.67,10.43-1.51,20S66.58,74.9,66.58,74.9l-4-7.74-6.41,2.51S64.53,53.87,65,44.8s7.15-18.21,7.15-18.21m0-1.35a1.35,1.35,0,0,0-1.1.56c-.28.38-6.88,9.57-7.4,18.92C63.2,53.4,55.1,68.88,55,69a1.35,1.35,0,0,0,.19,1.53,1.36,1.36,0,0,0,1,.46,1.24,1.24,0,0,0,.5-.1L62,68.87l3.4,6.65a1.35,1.35,0,0,0,1.21.74h0a1.37,1.37,0,0,0,1.2-.83c.31-.75,7.68-18.47,4.4-28.44-3-9,1.41-19,1.46-19a1.41,1.41,0,0,0,0-1l-.25-.79a1.37,1.37,0,0,0-1.08-.93Z"/><path class="b2f0960c-7a30-4f00-91fd-9b74de690f27" d="M93.41,55a.75.75,0,0,1-.26-.05c-.59-.24-14.38-5.95-14.6-15.43-.21-8.68-5.44-12.75-5.49-12.79a.64.64,0,0,1-.26-.45.67.67,0,0,1,.13-.51l.5-.66a.7.7,0,0,1,.54-.26.67.67,0,0,1,.24,0c.23.08,5.58,2.18,9.25,11.62,3.39,8.75,13.5,9.06,13.6,9.06a.68.68,0,0,1,.67.63.69.69,0,0,1-.58.72l-4.85.75,1.76,6.47a.68.68,0,0,1-.2.69A.7.7,0,0,1,93.41,55Z"/><path class="a8d469f9-5a66-48ea-9b87-c9eb3e870366" d="M74,25.52s5.26,2,8.86,11.23,14.22,9.49,14.22,9.49l-5.61.87,2,7.2s-14-5.67-14.18-14.82-5.76-13.31-5.76-13.31l.5-.66m0-1.36a1.35,1.35,0,0,0-1.07.53l-.51.66a1.35,1.35,0,0,0,.26,1.91c.2.15,5,3.95,5.22,12.27.24,9.92,14.42,15.79,15,16a1.55,1.55,0,0,0,.52.1,1.36,1.36,0,0,0,.9-.35A1.38,1.38,0,0,0,94.72,54l-1.57-5.73,4.11-.64a1.36,1.36,0,0,0-.18-2.7c-.4,0-9.77-.33-13-8.62-3.77-9.73-9.4-11.93-9.64-12a1.61,1.61,0,0,0-.48-.08Z"/><path class="b2f0960c-7a30-4f00-91fd-9b74de690f27" d="M73,28.43c-1.43,0-2.57-1.58-3.41-4.69a.5.5,0,0,1,0-.12,1.16,1.16,0,0,1,.31-.84,1.73,1.73,0,0,1,1.34-.48,5.43,5.43,0,0,1,1.27.18,4.18,4.18,0,0,1,1.35-.34.92.92,0,0,1,1,.73c.21.63,1.23,4.16-.77,5.22A1.77,1.77,0,0,1,73,28.43Z"/><path class="a8d469f9-5a66-48ea-9b87-c9eb3e870366" d="M73.87,22.82c.18,0,.31.06.32.21,0,0,1.22,3.67-.47,4.48a1.11,1.11,0,0,1-.69.24c-.7,0-1.8-.66-2.75-4.18,0,0,0-.59,1-.59a5,5,0,0,1,1.32.22,4.38,4.38,0,0,1,1.3-.38m0-1.36h0a4.33,4.33,0,0,0-1.41.31,5.55,5.55,0,0,0-1.21-.14,2.39,2.39,0,0,0-1.84.69,1.86,1.86,0,0,0-.49,1.35,1.11,1.11,0,0,0,0,.25c.34,1.28,1.39,5.19,4.06,5.19a2.49,2.49,0,0,0,1.41-.44c2.38-1.3,1.38-5,1.07-6a1.59,1.59,0,0,0-1.64-1.23Z"/><path class="a8d469f9-5a66-48ea-9b87-c9eb3e870366" d="M73,27.39S70.79,24,71.53,24,73,27.39,73,27.39Z"/><path class="a8d469f9-5a66-48ea-9b87-c9eb3e870366" d="M73.47,26.59s.88-3.2.31-3S73.47,26.59,73.47,26.59Z"/><path class="fc6840b3-be75-47b1-85ff-cc00285dd6f3" d="M71.43,28.84A43.14,43.14,0,0,0,67.16,44c-.51,7.92-.09,12.94-2.12,17.3"/><path class="fc6840b3-be75-47b1-85ff-cc00285dd6f3" d="M75.52,27.39s3.38,2.74,5.29,9.29a18.1,18.1,0,0,0,7.36,9.76"/><path class="fc6840b3-be75-47b1-85ff-cc00285dd6f3" d="M75.52,24s27.56-8.1,18.69-1.85"/><path class="fc6840b3-be75-47b1-85ff-cc00285dd6f3" d="M69.31,24.63S44.4,27.1,52,30.73"/><path class="b5d5f765-0f6d-451d-a048-4be583e6f38f" d="M73.32,5a25.62,25.62,0,0,1,6.56.85l18.68,4.9L103.22,12l36.38,9.55A3.25,3.25,0,0,1,142,25.32v0l-.33,1a3.25,3.25,0,0,0,.33-.95l.23,12.57a3.38,3.38,0,0,1-1.65,2.89l-6,3.59L133.2,83.25a14,14,0,0,1-6.92,11.59l-13.43,7.85h0l-13.3,7.78-12.38,7.24-3.45,2a19.47,19.47,0,0,1-8.16,1.73h-.35a27.7,27.7,0,0,1-11-2.68l-2.79-1.5-11.77-6.33-13.32-7.16h0l-9.93-5.33A15.17,15.17,0,0,1,18.41,86L16.07,47.75,8.22,43.49A6.15,6.15,0,0,1,5,38.09V24.52l.34.19A1.3,1.3,0,0,1,6.1,22.8L66.36,6a26,26,0,0,1,7-1M62.58,55.11v0l-6.35-3.34,6.34,3.36m12.63,6.71,2.28-1.21a6.23,6.23,0,0,1-2.21.41,5.78,5.78,0,0,1-2.71-.67l-1.49-.78v.06l4.14,2.19M73.32,0h0A30.74,30.74,0,0,0,65,1.14L4.75,18A6.22,6.22,0,0,0,.61,21.7a5.94,5.94,0,0,0-.35,1.23A5,5,0,0,0,0,24.52V38.09a11.15,11.15,0,0,0,5.83,9.8l5.42,2.93,2.17,35.5A20,20,0,0,0,24,102.84l9.93,5.34,13.32,7.16L59,121.66l2.79,1.5.26.13a32.72,32.72,0,0,0,13.08,3.15h.42a24.4,24.4,0,0,0,10.23-2.18c.16-.07.31-.15.46-.23l3.44-2,12.38-7.23L115.38,107l13.43-7.85a18.91,18.91,0,0,0,9.39-15.73l1.26-36.16,3.67-2.2a8.41,8.41,0,0,0,4.08-7.18V37.8L147,25.63a8.2,8.2,0,0,0-6.12-8.93L104.49,7.14,99.83,5.92,81.15,1a30.86,30.86,0,0,0-7.83-1Z"/><path class="bca45f02-43d1-49a9-944a-57af3dde0566" d="M127.82,55.11l.39,22.65a15,15,0,0,1-5.39,11.77l-3.58,3"/><path class="bca45f02-43d1-49a9-944a-57af3dde0566" d="M21.35,71.61l.72,11.45a13.88,13.88,0,0,0,5.18,10l2.82,2.26"/><line class="bca45f02-43d1-49a9-944a-57af3dde0566" x1="46.13" y1="67.18" x2="46.13" y2="101.93"/><line class="bca45f02-43d1-49a9-944a-57af3dde0566" x1="36.29" y1="44.49" x2="36.29" y2="55.13"/><line class="bca45f02-43d1-49a9-944a-57af3dde0566" x1="112.85" y1="45.21" x2="112.85" y2="53.31"/><line class="bca45f02-43d1-49a9-944a-57af3dde0566" x1="45.19" y1="14.74" x2="56.82" y2="20.89"/><path class="bca45f02-43d1-49a9-944a-57af3dde0566" d="M52.46,26.21s-4.92-.1-3.69,4.52"/><path class="bca45f02-43d1-49a9-944a-57af3dde0566" d="M98.36,21.89A18.7,18.7,0,0,1,98,30"/><path class="fa2cc909-a9e5-4294-8e1c-63bc9f404f25" d="M66.3,69.36S70.66,56.48,70,50.51"/><path class="fa2cc909-a9e5-4294-8e1c-63bc9f404f25" d="M81.2,42.18s2,4.68,9.45,9.57"/></g></g></svg>