<svg xmlns="http://www.w3.org/2000/svg" viewBox="0 0 116.48 124.72"><defs><style>.aa4506a3-568f-4dc1-acf2-15eae476ac09{fill:#fff;}.ac8e0e1b-aa61-4dc8-9bed-219bfc3e74c8{fill:#9166a9;}.f9cccfe0-eb1b-4e8c-a285-32b1541fe0d8{fill:#270040;}.e4e68c00-1cd7-4501-ba39-387625771d24{fill:#664579;}.ef1edb5b-dd2f-47b1-a89c-b29badbf967b{fill:#923d92;}.fbd5606c-6a58-44b7-bac2-5d2e6f127268{fill:#610059;}.f9bcbefb-2283-4e6d-85ab-e66d0351ff77{fill:#7b5590;}.a7efd002-38b7-4d69-ac16-291d4f068045{fill:#88306d;}.b5b84518-fffd-4c4b-bf38-dedb8d9dddbb{fill:#681a65;}.b8d40453-d0cf-4da4-9f87-eff761c76525{fill:none;stroke:#6e1764;stroke-linecap:round;stroke-linejoin:round;stroke-width:0.75px;}</style></defs><title>三角</title><g id="bf23e462-4ace-49ca-b699-fd2f73cb1bbe" data-name="圖層 2"><g id="f47baef9-5783-4c50-b6c2-6cf5f7ee02d2" data-name="圖層 1"><path class="aa4506a3-568f-4dc1-acf2-15eae476ac09" d="M37.91,5a11.59,11.59,0,0,1,4.05.7v0a12,12,0,0,1,3.46,1.92L73.89,30.36l.35,0h.21a3.92,3.92,0,0,1,3.7,2.7q.12.34.24.72l8.27,6.81,22.73,18.17a3.34,3.34,0,0,1,1.28,2.68l.82-.2v9.65a4.5,4.5,0,0,1-3.37,4.36l-.36.09.16,14.7a8.92,8.92,0,0,1-6,8.81L23.55,119.43a7.64,7.64,0,0,1-2.14.31c-4.1,0-7.73-3.42-8.14-8.15l-2.75-11.47a4.49,4.49,0,0,1-4.36-3.93l-1-8.45,1-.26a3.39,3.39,0,0,1-1-3.55l12-39.38c0-.15,0-.31,0-.46a4,4,0,0,1,1-2.73l8.46-27.87a12,12,0,0,1,2.21-4.13v0S29.34,7.73,33,6.09L33.3,6l.43-.18A11.08,11.08,0,0,1,37.91,5m0-5h0a16.27,16.27,0,0,0-6,1.15l-.43.19-.1,0,0,0-.37.16c-3.85,1.72-5.61,3.71-6.42,5.1A17,17,0,0,0,21.75,12L13.54,39.1a8.89,8.89,0,0,0-1.45,4.78L.37,82.48a8.41,8.41,0,0,0-.15,4.36,4.76,4.76,0,0,0,0,1.51l1,8.44a9.5,9.5,0,0,0,5.13,7.28l2,8.35c.8,7,6.35,12.3,13.07,12.3a12.43,12.43,0,0,0,3.47-.49l78.26-20.6.14,0a13.9,13.9,0,0,0,9.63-13.64l-.13-11.57a9.48,9.48,0,0,0,3.7-7.52V61.2a5,5,0,0,0-1.88-3.9,8.42,8.42,0,0,0-2.1-2.48L89.8,36.68l-7.17-5.9a8.91,8.91,0,0,0-6.92-5.35L48.54,3.73a16.77,16.77,0,0,0-4.43-2.55l-.25-.11a16.43,16.43,0,0,0-6-1.07Z"/><path class="ac8e0e1b-aa61-4dc8-9bed-219bfc3e74c8" d="M5.57,88.57a1,1,0,0,1-.75-.39.93.93,0,0,1-.14-.83L29.09,6.93A6.65,6.65,0,0,1,39.6,3.66l72.49,57.92a1,1,0,0,1-.39,1.75L5.8,88.54A.91.91,0,0,1,5.57,88.57Z"/><path class="f9cccfe0-eb1b-4e8c-a285-32b1541fe0d8" d="M35.47,2.76h0a6,6,0,0,1,3.78,1.33L111.75,62a.41.41,0,0,1,.15.45.4.4,0,0,1-.33.33L5.67,88h-.1a.4.4,0,0,1-.31-.16.37.37,0,0,1,0-.34L29.62,7.09a6.06,6.06,0,0,1,5.85-4.33m0-1.11a7.19,7.19,0,0,0-6.91,5.12L4.15,87.19a1.5,1.5,0,0,0,1.42,1.93,2.2,2.2,0,0,0,.36,0l105.9-25.21a1.55,1.55,0,0,0,.61-2.72L39.94,3.23a7.1,7.1,0,0,0-4.47-1.58Z"/><path class="e4e68c00-1cd7-4501-ba39-387625771d24" d="M21.41,119.19c-3.95,0-7.21-3.29-7.59-7.65L9.1,91.82l98-25.63L107.37,90a8.35,8.35,0,0,1-5.66,8.27l-78.3,20.61a7,7,0,0,1-2,.3Z"/><path class="f9cccfe0-eb1b-4e8c-a285-32b1541fe0d8" d="M106.55,66.91l.27,23.1a7.81,7.81,0,0,1-5.23,7.73L23.23,118.37a6.68,6.68,0,0,1-1.82.27c-3.66,0-6.69-3.08-7-7.15v-.08l0-.08L9.77,92.22l96.78-25.31m1.09-1.43L8.44,91.42l4.83,20.17c.41,4.73,4,8.15,8.14,8.15a7.64,7.64,0,0,0,2.14-.31l78.32-20.62a8.92,8.92,0,0,0,6-8.81l-.28-24.52Z"/><polygon class="ef1edb5b-dd2f-47b1-a89c-b29badbf967b" points="49.83 86.31 66.55 81.89 66.55 107.52 49.83 111.88 49.83 86.31"/><path class="fbd5606c-6a58-44b7-bac2-5d2e6f127268" d="M66,82.62v24.46l-15.6,4.07V86.74L66,82.62m1.13-1.47L49.26,85.87v26.74L67.12,108V81.15Z"/><path class="f9bcbefb-2283-4e6d-85ab-e66d0351ff77" d="M10.62,99.58a3.94,3.94,0,0,1-3.91-3.46l-1-8L110.94,61.9v8.95a4,4,0,0,1-3,3.82L11.6,99.46A4,4,0,0,1,10.62,99.58Z"/><path class="f9cccfe0-eb1b-4e8c-a285-32b1541fe0d8" d="M110.39,62.61v8.24a3.38,3.38,0,0,1-2.55,3.28L11.47,98.92a3.54,3.54,0,0,1-.85.11,3.39,3.39,0,0,1-3.36-3l-.92-7.47,104.05-26m1.1-1.41L5.12,87.74l1,8.45a4.5,4.5,0,0,0,4.46,4,4.37,4.37,0,0,0,1.12-.15l96.38-24.78a4.5,4.5,0,0,0,3.37-4.36V61.2Z"/><path class="ef1edb5b-dd2f-47b1-a89c-b29badbf967b" d="M29.31,9.41c.26-.41,1.32-1.79,4.63-3.12a10.5,10.5,0,0,1,4-.75,11.92,11.92,0,0,1,3.62.57L65.68,74.28,47.05,78.72Z"/><path class="fbd5606c-6a58-44b7-bac2-5d2e6f127268" d="M37.91,6.09h0a11.33,11.33,0,0,1,3.19.46L65,73.89l-17.5,4.17L29.91,9.52A10,10,0,0,1,34.14,6.8a10.11,10.11,0,0,1,3.77-.71m0-1.11a11.08,11.08,0,0,0-4.18.8c-4.31,1.73-5,3.56-5,3.56l17.92,70,19.75-4.7L42,5.68A11.59,11.59,0,0,0,37.91,5Z"/><polygon class="ef1edb5b-dd2f-47b1-a89c-b29badbf967b" points="17.5 46.08 74.11 30.94 85.46 40.28 13.58 58.08 17.5 46.08"/><path class="fbd5606c-6a58-44b7-bac2-5d2e6f127268" d="M74,31.54,84.26,40,14.42,57.3l3.51-10.76L74,31.54m.26-1.21L17.07,45.63,12.75,58.85l73.91-18.3L74.24,30.33Z"/><polygon class="ef1edb5b-dd2f-47b1-a89c-b29badbf967b" points="47.21 79.32 65.84 74.78 65.84 85.5 47.21 90.29 47.21 79.32"/><path class="fbd5606c-6a58-44b7-bac2-5d2e6f127268" d="M65.27,75.5v9.56l-17.49,4.5v-9.8L65.27,75.5m1.13-1.44L46.65,78.88V91L66.4,85.93V74.06Z"/><path class="a7efd002-38b7-4d69-ac16-291d4f068045" d="M25.52,59.69a3.75,3.75,0,0,1-2.75-1.16c-4.08-4.32-4.85-10.91-4.95-14.46A3.19,3.19,0,0,1,20,40.93a32.85,32.85,0,0,1,9.22-1A132.94,132.94,0,0,1,47.43,41.5a60,60,0,0,1-20,17.69,4,4,0,0,1-1.94.5Z"/><path class="b5b84518-fffd-4c4b-bf38-dedb8d9dddbb" d="M29.25,40.68a126.65,126.65,0,0,1,16.86,1.39,59.66,59.66,0,0,1-19,16.46,3.2,3.2,0,0,1-1.57.41,3,3,0,0,1-2.2-.93c-3.91-4.13-4.65-10.52-4.74-14a2.44,2.44,0,0,1,1.67-2.4,32.48,32.48,0,0,1,9-1m0-1.51a34.23,34.23,0,0,0-9.44,1,3.93,3.93,0,0,0-2.74,3.88c.1,3.66.9,10.46,5.16,15a4.48,4.48,0,0,0,3.29,1.4,4.73,4.73,0,0,0,2.3-.6c4.71-2.6,14.26-8.76,20.89-18.91a136.11,136.11,0,0,0-19.46-1.77Z"/><path class="b5b84518-fffd-4c4b-bf38-dedb8d9dddbb" d="M46.74,42.4S23.65,52,25.59,56.21,46.74,42.4,46.74,42.4Z"/><path class="a7efd002-38b7-4d69-ac16-291d4f068045" d="M74.24,50.83a4.18,4.18,0,0,1-.61,0,60,60,0,0,1-24.86-9.69c3.89-2.14,17.89-9.61,25.51-10h.17a3.17,3.17,0,0,1,3,2.18c1.13,3.36,2.69,9.82.36,15.28A3.84,3.84,0,0,1,74.24,50.83Z"/><path class="b5b84518-fffd-4c4b-bf38-dedb8d9dddbb" d="M74.45,31.83a2.42,2.42,0,0,1,2.27,1.67c1.1,3.26,2.62,9.51.38,14.75a3.07,3.07,0,0,1-2.86,1.82,3.91,3.91,0,0,1-.49,0,59.8,59.8,0,0,1-23.54-8.87c4.89-2.65,17.23-9,24.11-9.34h.13m0-1.51h-.21C65.1,30.81,47.37,41,47.37,41c9.74,7.23,20.83,9.71,26.15,10.52a5.81,5.81,0,0,0,.72,0,4.6,4.6,0,0,0,4.25-2.74c2.43-5.7.83-12.36-.34-15.82a3.92,3.92,0,0,0-3.7-2.7Z"/><path class="b5b84518-fffd-4c4b-bf38-dedb8d9dddbb" d="M49.73,41.69s25,1,24.62,5.65S49.73,41.69,49.73,41.69Z"/><path class="a7efd002-38b7-4d69-ac16-291d4f068045" d="M40.5,97.55a.76.76,0,0,1-.68-.41l-4.07-8-6.49,2.53a.66.66,0,0,1-.27.06.76.76,0,0,1-.57-.26.74.74,0,0,1-.1-.85c.09-.17,9.17-17.52,9.72-27.31.57-10.18,7.78-20.21,8.09-20.63a.74.74,0,0,1,.61-.31h.11a.72.72,0,0,1,.6.51l.29.88a.83.83,0,0,1,0,.54c-.05.11-5,11.46-1.65,21.71,3.56,10.81-4.52,30.24-4.87,31.06a.74.74,0,0,1-.67.46Z"/><path class="b5b84518-fffd-4c4b-bf38-dedb8d9dddbb" d="M46.74,43.13,47,44S41.83,55.6,45.34,66.27,40.5,96.8,40.5,96.8l-4.39-8.6L29,91s9.24-17.55,9.8-27.62,8-20.23,8-20.23m0-1.51a1.51,1.51,0,0,0-1.22.62c-.32.43-7.65,10.64-8.23,21-.54,9.64-9.55,26.84-9.64,27A1.52,1.52,0,0,0,27.86,92a1.54,1.54,0,0,0,1.68.4l5.84-2.29,3.77,7.38a1.51,1.51,0,0,0,1.35.83h0a1.51,1.51,0,0,0,1.34-.92c.35-.83,8.53-20.52,4.88-31.59-3.29-10,1.58-21.05,1.62-21.16a1.44,1.44,0,0,0,.06-1.08l-.28-.88a1.5,1.5,0,0,0-1.2-1l-.23,0Z"/><path class="a7efd002-38b7-4d69-ac16-291d4f068045" d="M70.3,74.67a.92.92,0,0,1-.28,0c-.65-.27-16-6.61-16.22-17.14-.23-9.68-6-14.17-6.1-14.21a.77.77,0,0,1-.3-.5.8.8,0,0,1,.15-.56l.57-.74a.72.72,0,0,1,.59-.29.65.65,0,0,1,.27,0c.25.09,6.2,2.42,10.27,12.91C63,63.85,74.25,64.2,74.37,64.2a.74.74,0,0,1,.73.7.76.76,0,0,1-.63.8l-5.4.84,2,7.18a.75.75,0,0,1-.23.76A.73.73,0,0,1,70.3,74.67Z"/><path class="b5b84518-fffd-4c4b-bf38-dedb8d9dddbb" d="M48.71,41.93s5.84,2.18,9.84,12.48S74.35,65,74.35,65l-6.23,1,2.18,8s-15.51-6.3-15.75-16.46-6.4-14.79-6.4-14.79l.56-.74m0-1.51a1.51,1.51,0,0,0-1.19.59l-.56.74a1.46,1.46,0,0,0-.3,1.12,1.48,1.48,0,0,0,.58,1c.23.17,5.58,4.39,5.8,13.63.27,11,16,17.54,16.69,17.82a1.65,1.65,0,0,0,.57.11,1.52,1.52,0,0,0,1.46-1.91L70,67.15l4.56-.71a1.5,1.5,0,0,0-.2-3c-.44,0-10.85-.38-14.42-9.58-4.2-10.81-10.45-13.25-10.72-13.35a1.61,1.61,0,0,0-.53-.1Z"/><path class="b8d40453-d0cf-4da4-9f87-eff761c76525" d="M45.89,45.63a47.86,47.86,0,0,0-4.75,16.8c-.56,8.8-.09,14.38-2.35,19.22"/><path class="b8d40453-d0cf-4da4-9f87-eff761c76525" d="M50.43,44s3.76,3.05,5.88,10.32a20.06,20.06,0,0,0,8.18,10.84"/><path class="b8d40453-d0cf-4da4-9f87-eff761c76525" d="M50.43,40.25s30.62-9,20.76-2"/><path class="b8d40453-d0cf-4da4-9f87-eff761c76525" d="M43.53,41s-27.67,2.74-19.27,6.78"/><path class="a7efd002-38b7-4d69-ac16-291d4f068045" d="M47.66,45.17c-1.58,0-2.85-1.75-3.78-5.21a.59.59,0,0,1,0-.14,1.28,1.28,0,0,1,.34-.93,2,2,0,0,1,1.48-.53,6.26,6.26,0,0,1,1.42.2,4.72,4.72,0,0,1,1.5-.37,1,1,0,0,1,1.09.81c.23.69,1.37,4.62-.85,5.79A2,2,0,0,1,47.66,45.17Z"/><path class="b5b84518-fffd-4c4b-bf38-dedb8d9dddbb" d="M48.6,38.94c.2,0,.35.06.36.23,0,0,1.35,4.07-.53,5a1.23,1.23,0,0,1-.77.27c-.77,0-2-.74-3-4.65,0,0,0-.65,1.07-.65a5.53,5.53,0,0,1,1.48.24,4.76,4.76,0,0,1,1.44-.42m0-1.51h0a4.68,4.68,0,0,0-1.56.35,6.47,6.47,0,0,0-1.36-.17,2.63,2.63,0,0,0-2,.77,2,2,0,0,0-.55,1.5,2.74,2.74,0,0,0,0,.28c.39,1.42,1.55,5.77,4.51,5.77a2.72,2.72,0,0,0,1.58-.5c2.63-1.44,1.52-5.57,1.18-6.63a1.77,1.77,0,0,0-1.82-1.37Z"/><path class="a7efd002-38b7-4d69-ac16-291d4f068045" d="M47.64,44s-2.46-3.8-1.64-3.8S47.64,44,47.64,44Z"/><path class="b5b84518-fffd-4c4b-bf38-dedb8d9dddbb" d="M46,40.21c-.82,0,1.64,3.8,1.64,3.8s-.82-3.8-1.64-3.8Z"/><path class="a7efd002-38b7-4d69-ac16-291d4f068045" d="M48.15,43.13s1-3.56.35-3.36S48.15,43.13,48.15,43.13Z"/><path class="b5b84518-fffd-4c4b-bf38-dedb8d9dddbb" d="M49.67,40.6h0m-1.12-.83h0c-.64.2-.35,3.36-.35,3.36s.93-3.36.4-3.36Z"/></g></g></svg>