<svg xmlns="http://www.w3.org/2000/svg" xmlns:xlink="http://www.w3.org/1999/xlink" viewBox="0 0 130.66 116.44"><defs><style>.a77048a9-c708-4c4a-817c-ca083a5738ab{fill:url(#a67ef557-67bb-4905-9c96-22dc0e6f144f);}.fe5c6754-7f87-42e1-9cc1-0a619d1d6412{fill:#40220f;}</style><radialGradient id="a67ef557-67bb-4905-9c96-22dc0e6f144f" cx="54.92" cy="46.2" r="60.96" gradientUnits="userSpaceOnUse"><stop offset="0" stop-color="#fff"/><stop offset="0.06" stop-color="#fffded"/><stop offset="0.33" stop-color="#fff69a"/><stop offset="0.56" stop-color="#fff058"/><stop offset="0.76" stop-color="#ffec28"/><stop offset="0.91" stop-color="#ffe90b"/><stop offset="1" stop-color="#ffe800"/></radialGradient></defs><title>1_2</title><g id="bc3f82b5-32b9-4253-a546-f1b05f92b1b4" data-name="圖層 2"><g id="ec258352-78e8-43b6-b6ba-0e238716e59d" data-name="圖層 1"><path class="a77048a9-c708-4c4a-817c-ca083a5738ab" d="M55,6.69,2.5,97.14a12,12,0,0,0,10.38,18H117.79a12,12,0,0,0,10.38-18L75.71,6.69A12,12,0,0,0,55,6.69Z"/><path class="fe5c6754-7f87-42e1-9cc1-0a619d1d6412" d="M116.78,116.44H13.88a13.86,13.86,0,0,1-12-20.81L53.34,6.91a13.86,13.86,0,0,1,24,0l51.45,88.72a13.86,13.86,0,0,1-12,20.81ZM55.56,8.19,4.11,96.92a11.3,11.3,0,0,0,9.77,17h102.9a11.29,11.29,0,0,0,9.77-17L75.1,8.19a11.29,11.29,0,0,0-19.54,0Z"/></g></g></svg>