<svg xmlns="http://www.w3.org/2000/svg" xmlns:xlink="http://www.w3.org/1999/xlink" viewBox="0 0 120.28 121.12"><defs><style>.ed2a3a0b-31e1-4b8f-a0be-5aec43ecda1f{fill:url(#b30be1ae-362e-409b-9dd0-5c4aa8f451ed);}.eedb8352-4a8d-4f5c-8453-61799cd75c46{fill:#40220f;}</style><radialGradient id="b30be1ae-362e-409b-9dd0-5c4aa8f451ed" cx="45.18" cy="40.47" r="47.87" gradientUnits="userSpaceOnUse"><stop offset="0" stop-color="#fff"/><stop offset="0.06" stop-color="#fef7ed"/><stop offset="0.33" stop-color="#fad39a"/><stop offset="0.56" stop-color="#f6b658"/><stop offset="0.76" stop-color="#f4a128"/><stop offset="0.91" stop-color="#f3940b"/><stop offset="1" stop-color="#f28f00"/></radialGradient></defs><title>1_3</title><g id="a9495895-fa2f-4301-ac32-44f0e4450fa1" data-name="圖層 2"><g id="ee075773-2421-4b06-a22b-79470cc05927" data-name="圖層 1"><rect class="ed2a3a0b-31e1-4b8f-a0be-5aec43ecda1f" x="1.44" y="1.44" width="117.4" height="118.24" rx="25"/><path class="eedb8352-4a8d-4f5c-8453-61799cd75c46" d="M95.11,121.12H25.17A25.2,25.2,0,0,1,0,96V25.17A25.2,25.2,0,0,1,25.17,0H95.11a25.2,25.2,0,0,1,25.17,25.17V96A25.2,25.2,0,0,1,95.11,121.12ZM25.17,2.88A22.32,22.32,0,0,0,2.88,25.17V96a22.32,22.32,0,0,0,22.29,22.29H95.11A22.32,22.32,0,0,0,117.4,96V25.17A22.32,22.32,0,0,0,95.11,2.88Z"/></g></g></svg>