<svg xmlns="http://www.w3.org/2000/svg" xmlns:xlink="http://www.w3.org/1999/xlink" viewBox="0 0 125.11 114.28"><defs><style>.b019cd3f-8d80-45f2-a03b-ca3d6b0d098d{fill:url(#b18a2d91-22d7-43c9-a665-f5c2b7ce769c);}.b5920008-146d-47f8-afc9-6dcbd125d4b3{fill:#40220f;}</style><radialGradient id="b18a2d91-22d7-43c9-a665-f5c2b7ce769c" cx="51.9" cy="39.61" r="58.75" gradientUnits="userSpaceOnUse"><stop offset="0" stop-color="#fff"/><stop offset="0.12" stop-color="#ece5f0"/><stop offset="0.43" stop-color="#bea4cc"/><stop offset="0.69" stop-color="#9c74b1"/><stop offset="0.89" stop-color="#8757a1"/><stop offset="1" stop-color="#7f4c9b"/></radialGradient></defs><title>1_4</title><g id="e0ec8f00-68bc-4f62-b384-50bc0b26f467" data-name="圖層 2"><g id="ee39e474-0b85-4bd1-87ca-3134bd877b9b" data-name="圖層 1"><path class="b019cd3f-8d80-45f2-a03b-ca3d6b0d098d" d="M85.34,1.44H39.77a16,16,0,0,0-13.87,8L3.06,49.16a16,16,0,0,0,0,16l22.84,39.7a16,16,0,0,0,13.87,8H85.34a16,16,0,0,0,13.87-8l22.84-39.7a16,16,0,0,0,0-16L99.21,9.46A16,16,0,0,0,85.34,1.44Z"/><path class="b5920008-146d-47f8-afc9-6dcbd125d4b3" d="M83.46,114.28H41.65A20.76,20.76,0,0,1,23.71,103.9l-21-36.44a20.72,20.72,0,0,1,0-20.64l21-36.44A20.76,20.76,0,0,1,41.65,0H83.46A20.76,20.76,0,0,1,101.4,10.38l21,36.44a20.72,20.72,0,0,1,0,20.64l-21,36.44A20.76,20.76,0,0,1,83.46,114.28ZM41.65,2.88A17.88,17.88,0,0,0,26.2,11.81l-21,36.44A17.89,17.89,0,0,0,5.24,66l21,36.44a17.88,17.88,0,0,0,15.45,8.94H83.46a17.88,17.88,0,0,0,15.45-8.94l21-36.44a17.89,17.89,0,0,0,0-17.77l-21-36.44A17.88,17.88,0,0,0,83.46,2.88Z"/></g></g></svg>