<svg xmlns="http://www.w3.org/2000/svg" xmlns:xlink="http://www.w3.org/1999/xlink" viewBox="0 0 130.66 116.44"><defs><style>.b7f4d901-b762-4db2-ae75-def38858e413{fill:url(#bc048e6a-85b2-4ab7-9d9e-244d4b008b19);}.b83473c5-0556-44b0-bce9-5f60133099fa{fill:#40220f;}</style><radialGradient id="bc048e6a-85b2-4ab7-9d9e-244d4b008b19" cx="55.04" cy="46.8" r="60.34" gradientUnits="userSpaceOnUse"><stop offset="0" stop-color="#fff"/><stop offset="0.21" stop-color="#d6ecc8"/><stop offset="0.49" stop-color="#a5d587"/><stop offset="0.72" stop-color="#82c557"/><stop offset="0.9" stop-color="#6cbb3a"/><stop offset="1" stop-color="#64b72f"/></radialGradient></defs><title>2_1</title><g id="b7b7b023-9ef7-4756-b2a9-4df800a49f9b" data-name="圖層 2"><g id="b5868344-396f-4ac2-9374-b24ba2aad367" data-name="圖層 1"><path class="b7f4d901-b762-4db2-ae75-def38858e413" d="M54.09,8.18,3.37,95.64a13,13,0,0,0,11.25,19.52H116.05A13,13,0,0,0,127.3,95.64L76.58,8.18A13,13,0,0,0,54.09,8.18Z"/><path class="b83473c5-0556-44b0-bce9-5f60133099fa" d="M116.78,116.44H13.88a13.86,13.86,0,0,1-12-20.81L53.34,6.91a13.86,13.86,0,0,1,24,0l51.45,88.72a13.86,13.86,0,0,1-12,20.81ZM65.33,2.56a11.2,11.2,0,0,0-9.77,5.63L4.11,96.92a11.3,11.3,0,0,0,9.77,17h102.9a11.29,11.29,0,0,0,9.77-17L75.1,8.19A11.18,11.18,0,0,0,65.33,2.56Z"/></g></g></svg>