<svg xmlns="http://www.w3.org/2000/svg" xmlns:xlink="http://www.w3.org/1999/xlink" viewBox="0 0 119.97 120.81"><defs><style>.be5a2191-15a3-4c0b-abea-83a0b19823a1{fill:url(#af65523c-c6cd-4ae9-9868-521d7dcf5094);}.a1220fa2-6951-48fc-b834-20b6cf417201{fill:#40220f;}</style><radialGradient id="af65523c-c6cd-4ae9-9868-521d7dcf5094" cx="45.02" cy="40.31" r="47.87" gradientUnits="userSpaceOnUse"><stop offset="0" stop-color="#fff"/><stop offset="0.21" stop-color="#f5c9c9"/><stop offset="0.49" stop-color="#e88888"/><stop offset="0.72" stop-color="#df5859"/><stop offset="0.9" stop-color="#d93b3c"/><stop offset="1" stop-color="#d73031"/></radialGradient></defs><title>2_2</title><g id="eeb71fe7-94a8-4291-923e-8e1876b34fc5" data-name="圖層 2"><g id="acf74c04-3eb4-4fba-aa3a-9eee780c262b" data-name="圖層 1"><rect class="be5a2191-15a3-4c0b-abea-83a0b19823a1" x="1.28" y="1.28" width="117.4" height="118.24" rx="24"/><path class="a1220fa2-6951-48fc-b834-20b6cf417201" d="M95,120.81H25a25,25,0,0,1-25-25V25A25,25,0,0,1,25,0H95a25,25,0,0,1,25,25V95.8A25,25,0,0,1,95,120.81ZM25,2.57A22.47,22.47,0,0,0,2.56,25V95.8A22.47,22.47,0,0,0,25,118.24H95A22.47,22.47,0,0,0,117.4,95.8V25A22.46,22.46,0,0,0,95,2.57Z"/></g></g></svg>