<svg xmlns="http://www.w3.org/2000/svg" xmlns:xlink="http://www.w3.org/1999/xlink" viewBox="0 0 125.11 114.28"><defs><style>.a9544058-905f-465c-9847-6771096ff3ed{fill:url(#f732356b-9580-47b4-8649-72564a396533);}.b3948cce-4b13-4918-879f-d426d4891c0b{fill:#40220f;}</style><radialGradient id="f732356b-9580-47b4-8649-72564a396533" cx="51.9" cy="39.61" r="58.75" gradientUnits="userSpaceOnUse"><stop offset="0" stop-color="#fff"/><stop offset="0.06" stop-color="#fffced"/><stop offset="0.33" stop-color="#ffef9a"/><stop offset="0.56" stop-color="#ffe558"/><stop offset="0.76" stop-color="#ffdd28"/><stop offset="0.91" stop-color="#ffd90b"/><stop offset="1" stop-color="gold"/></radialGradient></defs><title>2_3</title><g id="e1df2209-d3c3-4299-88f2-f967ff2109ab" data-name="圖層 2"><g id="e5527858-6239-41f3-b66a-e6034dddee6a" data-name="圖層 1"><path class="a9544058-905f-465c-9847-6771096ff3ed" d="M85.34,1.44H39.77a16,16,0,0,0-13.87,8L3.06,49.16a16,16,0,0,0,0,16l22.84,39.7a16,16,0,0,0,13.87,8H85.34a16,16,0,0,0,13.87-8l22.84-39.7a16,16,0,0,0,0-16L99.21,9.46A16,16,0,0,0,85.34,1.44Z"/><path class="b3948cce-4b13-4918-879f-d426d4891c0b" d="M83.46,114.28H41.65A20.76,20.76,0,0,1,23.71,103.9l-21-36.44a20.72,20.72,0,0,1,0-20.64l21-36.44A20.76,20.76,0,0,1,41.65,0H83.46A20.76,20.76,0,0,1,101.4,10.38l21,36.44a20.72,20.72,0,0,1,0,20.64l-21,36.44A20.76,20.76,0,0,1,83.46,114.28ZM41.65,2.88A17.87,17.87,0,0,0,26.2,11.81l-21,36.44A17.89,17.89,0,0,0,5.24,66l21,36.44a17.89,17.89,0,0,0,15.45,8.94H83.46a17.89,17.89,0,0,0,15.45-8.94l21-36.44a17.89,17.89,0,0,0,0-17.77l-21-36.44A17.87,17.87,0,0,0,83.46,2.88Z"/></g></g></svg>