<svg xmlns="http://www.w3.org/2000/svg" xmlns:xlink="http://www.w3.org/1999/xlink" viewBox="0 0 130.98 116.75"><defs><style>.b2d204b2-a30b-4f00-b208-6e821bbc61d1{fill:url(#ea229cf3-4713-4b55-a9f0-26a7d59a25a8);}.b6792d95-a68b-4395-be7c-aa5a54cb2ae0{fill:#40220f;}</style><radialGradient id="ea229cf3-4713-4b55-a9f0-26a7d59a25a8" cx="55.07" cy="46.35" r="60.96" gradientUnits="userSpaceOnUse"><stop offset="0" stop-color="#fff"/><stop offset="0.06" stop-color="#fef7ed"/><stop offset="0.33" stop-color="#fad39a"/><stop offset="0.56" stop-color="#f6b658"/><stop offset="0.76" stop-color="#f4a128"/><stop offset="0.91" stop-color="#f3940b"/><stop offset="1" stop-color="#f28f00"/></radialGradient></defs><title>2_5</title><g id="ebcb1f25-de9e-44b0-96b2-f7924dad1dc2" data-name="圖層 2"><g id="b1936a07-8cdf-4e20-a065-e1a130eca05a" data-name="圖層 1"><path class="b2d204b2-a30b-4f00-b208-6e821bbc61d1" d="M55.11,6.84,2.66,97.3a12,12,0,0,0,10.38,18h104.9a12,12,0,0,0,10.38-18L75.87,6.84A12,12,0,0,0,55.11,6.84Z"/><path class="b6792d95-a68b-4395-be7c-aa5a54cb2ae0" d="M116.94,116.75H14a14,14,0,0,1-12.13-21L53.36,7A14,14,0,0,1,77.61,7l51.45,88.73a14,14,0,0,1-12.12,21ZM55.85,8.43,4.4,97.15A11.15,11.15,0,0,0,14,113.88h102.9a11.14,11.14,0,0,0,9.63-16.73L75.13,8.43a11.15,11.15,0,0,0-19.28,0Z"/></g></g></svg>