<svg xmlns="http://www.w3.org/2000/svg" xmlns:xlink="http://www.w3.org/1999/xlink" viewBox="0 0 120.28 121.12"><defs><style>.fc485ea0-ccad-4238-a9cd-629300538e4e{fill:url(#f474cfef-2c29-43ca-a8bc-65c99d81e5ed);}.a46d6ffb-6ff3-435b-b035-8df102969768{fill:#40220f;}</style><radialGradient id="f474cfef-2c29-43ca-a8bc-65c99d81e5ed" cx="45.18" cy="40.47" r="47.87" gradientUnits="userSpaceOnUse"><stop offset="0" stop-color="#fff"/><stop offset="0.06" stop-color="#fef7ed"/><stop offset="0.33" stop-color="#fad39a"/><stop offset="0.56" stop-color="#f6b658"/><stop offset="0.76" stop-color="#f4a128"/><stop offset="0.91" stop-color="#f3940b"/><stop offset="1" stop-color="#f28f00"/></radialGradient></defs><title>3_1</title><g id="bce12066-d1b1-47ef-a911-c8a3f051c014" data-name="圖層 2"><g id="b7661b91-b8c4-4179-b84d-1688679010be" data-name="圖層 1"><rect class="fc485ea0-ccad-4238-a9cd-629300538e4e" x="1.44" y="1.44" width="117.4" height="118.24" rx="25"/><path class="a46d6ffb-6ff3-435b-b035-8df102969768" d="M95.11,121.12H25.17A25.2,25.2,0,0,1,0,96V25.17A25.2,25.2,0,0,1,25.17,0H95.11a25.2,25.2,0,0,1,25.17,25.17V96A25.2,25.2,0,0,1,95.11,121.12ZM25.17,2.88A22.32,22.32,0,0,0,2.88,25.17V96a22.32,22.32,0,0,0,22.29,22.29H95.11A22.32,22.32,0,0,0,117.4,96V25.17A22.32,22.32,0,0,0,95.11,2.88Z"/></g></g></svg>