<svg xmlns="http://www.w3.org/2000/svg" xmlns:xlink="http://www.w3.org/1999/xlink" viewBox="0 0 130.66 116.44"><defs><style>.b1b620dc-137a-4ecc-b677-a85734b38a6d{fill:url(#e4f721bb-f235-4670-8820-5b1fe17c8fdd);}.bc37c96d-2fda-41c0-a4c3-4d79f5179730{fill:#40220f;}</style><radialGradient id="e4f721bb-f235-4670-8820-5b1fe17c8fdd" cx="55.04" cy="46.8" r="60.34" gradientUnits="userSpaceOnUse"><stop offset="0" stop-color="#fff"/><stop offset="0.06" stop-color="#fffded"/><stop offset="0.33" stop-color="#fff69a"/><stop offset="0.56" stop-color="#fff058"/><stop offset="0.76" stop-color="#ffec28"/><stop offset="0.91" stop-color="#ffe90b"/><stop offset="1" stop-color="#ffe800"/></radialGradient></defs><title>3_4</title><g id="ae10751a-4be0-46a2-94dd-a2754420e311" data-name="圖層 2"><g id="a6885562-9e07-4286-acff-b29947325cce" data-name="圖層 1"><path class="b1b620dc-137a-4ecc-b677-a85734b38a6d" d="M54.09,8.18,3.37,95.64a13,13,0,0,0,11.25,19.52H116.05A13,13,0,0,0,127.3,95.64L76.58,8.18A13,13,0,0,0,54.09,8.18Z"/><path class="bc37c96d-2fda-41c0-a4c3-4d79f5179730" d="M116.78,116.44H13.88a13.86,13.86,0,0,1-12-20.81L53.34,6.91a13.86,13.86,0,0,1,24,0l51.45,88.72a13.86,13.86,0,0,1-12,20.81ZM65.33,2.56a11.2,11.2,0,0,0-9.77,5.63L4.11,96.92a11.3,11.3,0,0,0,9.77,17h102.9a11.29,11.29,0,0,0,9.77-17L75.1,8.19A11.18,11.18,0,0,0,65.33,2.56Z"/></g></g></svg>