<svg xmlns="http://www.w3.org/2000/svg" xmlns:xlink="http://www.w3.org/1999/xlink" viewBox="0 0 119.95 120.79"><defs><style>.f5af422f-2d0e-4628-9296-8375603b96a7{fill:url(#b85971cf-dae3-4b86-bbc2-9497b997a80f);}.b7e31fb3-2787-45f0-9134-8e66927ac9ea{fill:#40220f;}</style><radialGradient id="b85971cf-dae3-4b86-bbc2-9497b997a80f" cx="45.02" cy="40.3" r="47.87" gradientUnits="userSpaceOnUse"><stop offset="0" stop-color="#fff"/><stop offset="0.04" stop-color="#f7fcfe"/><stop offset="0.38" stop-color="#b6e5f9"/><stop offset="0.66" stop-color="#86d3f5"/><stop offset="0.88" stop-color="#69c9f3"/><stop offset="1" stop-color="#5ec5f2"/></radialGradient></defs><title>3_5</title><g id="a2743ea3-84d3-4289-8965-acbeaf434065" data-name="圖層 2"><g id="bedd8584-c9c0-439a-b0d2-18b833ed37c9" data-name="圖層 1"><rect class="f5af422f-2d0e-4628-9296-8375603b96a7" x="1.28" y="1.28" width="117.4" height="118.24" rx="25"/><path class="b7e31fb3-2787-45f0-9134-8e66927ac9ea" d="M95,120.79H25a25,25,0,0,1-25-25V25A25,25,0,0,1,25,0H95a25,25,0,0,1,25,25V95.79A25,25,0,0,1,95,120.79ZM25,2.55A22.47,22.47,0,0,0,2.55,25V95.79A22.47,22.47,0,0,0,25,118.24H95A22.47,22.47,0,0,0,117.4,95.79V25A22.47,22.47,0,0,0,95,2.55Z"/></g></g></svg>