<svg xmlns="http://www.w3.org/2000/svg" xmlns:xlink="http://www.w3.org/1999/xlink" viewBox="0 0 125.11 114.28"><defs><style>.bfba4dd9-b7bb-4d25-84c3-2bb26e001252{fill:url(#ef14c6c1-373c-4685-9dfb-ef30281d7075);}.fe2fba83-962c-4985-87c6-8efc7bb88984{fill:#40220f;}</style><radialGradient id="ef14c6c1-373c-4685-9dfb-ef30281d7075" cx="51.78" cy="39.61" r="59.07" gradientUnits="userSpaceOnUse"><stop offset="0" stop-color="#fff"/><stop offset="0.12" stop-color="#ece5f0"/><stop offset="0.43" stop-color="#bea4cc"/><stop offset="0.69" stop-color="#9c74b1"/><stop offset="0.89" stop-color="#8757a1"/><stop offset="1" stop-color="#7f4c9b"/></radialGradient></defs><title>4_1</title><g id="b8b4b138-1321-495d-802f-366e04620545" data-name="圖層 2"><g id="a19f9387-91d9-4064-b215-cbaa9e85c086" data-name="圖層 1"><path class="bfba4dd9-b7bb-4d25-84c3-2bb26e001252" d="M87.9,1.44H37.21a11.59,11.59,0,0,0-10,5.8L1.79,51.36a11.57,11.57,0,0,0,0,11.55L27.17,107a11.6,11.6,0,0,0,10,5.81H87.9a11.6,11.6,0,0,0,10-5.81l25.38-44.12a11.57,11.57,0,0,0,0-11.55L97.94,7.24A11.59,11.59,0,0,0,87.9,1.44Z"/><path class="fe2fba83-962c-4985-87c6-8efc7bb88984" d="M83.46,114.28H41.65A20.76,20.76,0,0,1,23.71,103.9l-21-36.44a20.72,20.72,0,0,1,0-20.64l21-36.44A20.76,20.76,0,0,1,41.65,0H83.46A20.76,20.76,0,0,1,101.4,10.38l21,36.44a20.72,20.72,0,0,1,0,20.64l-21,36.44A20.76,20.76,0,0,1,83.46,114.28ZM41.65,2.88A17.87,17.87,0,0,0,26.2,11.81l-21,36.44A17.89,17.89,0,0,0,5.24,66l21,36.44a17.89,17.89,0,0,0,15.45,8.94H83.46a17.89,17.89,0,0,0,15.45-8.94l21-36.44a17.89,17.89,0,0,0,0-17.77l-21-36.44A17.87,17.87,0,0,0,83.46,2.88Z"/></g></g></svg>