<svg xmlns="http://www.w3.org/2000/svg" xmlns:xlink="http://www.w3.org/1999/xlink" viewBox="0 0 130.66 116.44"><defs><style>.a0d7cbf4-9988-4d58-9a79-9c53700b59ea{fill:url(#f82ac5b5-a540-426e-a7fe-cffda9f0d57e);}.a7506a58-0ca0-4a6c-9c86-014ffea0356a{fill:#40220f;}</style><radialGradient id="f82ac5b5-a540-426e-a7fe-cffda9f0d57e" cx="55.27" cy="48" r="59.11" gradientUnits="userSpaceOnUse"><stop offset="0" stop-color="#fff"/><stop offset="0.21" stop-color="#d7eac8"/><stop offset="0.49" stop-color="#a7d287"/><stop offset="0.72" stop-color="#84c057"/><stop offset="0.9" stop-color="#6fb53a"/><stop offset="1" stop-color="#67b12f"/></radialGradient></defs><title>4_3</title><g id="b9be921c-c0d0-4649-9efa-ccb0d972dee4" data-name="圖層 2"><g id="e67267ca-aae2-4a0f-8c3f-6840e9ce2aa5" data-name="圖層 1"><path class="a0d7cbf4-9988-4d58-9a79-9c53700b59ea" d="M52.36,11.16,5.11,92.64a15,15,0,0,0,13,22.52h94.49a15,15,0,0,0,13-22.52L78.31,11.16A15,15,0,0,0,52.36,11.16Z"/><path class="a7506a58-0ca0-4a6c-9c86-014ffea0356a" d="M116.78,116.44H13.88a13.86,13.86,0,0,1-12-20.81L53.34,6.91a13.86,13.86,0,0,1,24,0l51.45,88.72a13.86,13.86,0,0,1-12,20.81ZM65.33,2.56a11.2,11.2,0,0,0-9.77,5.63L4.11,96.92a11.3,11.3,0,0,0,9.77,17h102.9a11.29,11.29,0,0,0,9.77-17L75.1,8.19A11.18,11.18,0,0,0,65.33,2.56Z"/></g></g></svg>