<svg xmlns="http://www.w3.org/2000/svg" xmlns:xlink="http://www.w3.org/1999/xlink" viewBox="0 0 120.28 121.12"><defs><style>.f196c192-84f5-4a72-8e3b-cde263ad0f13{fill:url(#bb147a01-1d3a-42c2-ad49-992228587913);}.a3ba3f50-bce9-41cf-890e-ae766e10b25e{fill:#40220f;}</style><radialGradient id="bb147a01-1d3a-42c2-ad49-992228587913" cx="45.18" cy="40.47" r="47.87" gradientUnits="userSpaceOnUse"><stop offset="0" stop-color="#fff"/><stop offset="0.06" stop-color="#fef7ed"/><stop offset="0.33" stop-color="#fad39a"/><stop offset="0.56" stop-color="#f6b658"/><stop offset="0.76" stop-color="#f4a128"/><stop offset="0.91" stop-color="#f3940b"/><stop offset="1" stop-color="#f28f00"/></radialGradient></defs><title>4_4</title><g id="f3bc097b-53b1-43e2-b7c6-dfe904366825" data-name="圖層 2"><g id="a816b534-6dbc-4644-afd0-8bb5d7b185a7" data-name="圖層 1"><rect class="f196c192-84f5-4a72-8e3b-cde263ad0f13" x="1.44" y="1.44" width="117.4" height="118.24" rx="25"/><path class="a3ba3f50-bce9-41cf-890e-ae766e10b25e" d="M95.11,121.12H25.17A25.2,25.2,0,0,1,0,96V25.17A25.2,25.2,0,0,1,25.17,0H95.11a25.2,25.2,0,0,1,25.17,25.17V96A25.2,25.2,0,0,1,95.11,121.12ZM25.17,2.88A22.32,22.32,0,0,0,2.88,25.17V96a22.32,22.32,0,0,0,22.29,22.29H95.11A22.32,22.32,0,0,0,117.4,96V25.17A22.32,22.32,0,0,0,95.11,2.88Z"/></g></g></svg>