<svg xmlns="http://www.w3.org/2000/svg" xmlns:xlink="http://www.w3.org/1999/xlink" viewBox="0 0 124.8 113.96"><defs><style>.f70ad5da-31cb-4e23-937d-22d369b65d3c{fill:url(#bacdee83-9748-4f92-8f6e-ac040ef4c11f);}.baf7679f-00c6-441d-8107-438d0f35d71e{fill:#40220f;}</style><radialGradient id="bacdee83-9748-4f92-8f6e-ac040ef4c11f" cx="51.62" cy="39.45" r="59.07" gradientUnits="userSpaceOnUse"><stop offset="0" stop-color="#fff"/><stop offset="0.21" stop-color="#f5c9c9"/><stop offset="0.49" stop-color="#e88888"/><stop offset="0.72" stop-color="#df5859"/><stop offset="0.9" stop-color="#d93b3c"/><stop offset="1" stop-color="#d73031"/></radialGradient></defs><title>4_5</title><g id="fa0850ae-07ae-4a44-b877-c68425021c75" data-name="圖層 2"><g id="f4dcdb0a-3fdc-4cf4-9cfb-1a384ffeba57" data-name="圖層 1"><path class="f70ad5da-31cb-4e23-937d-22d369b65d3c" d="M87.74,1.28H37.05A11.57,11.57,0,0,0,27,7.09L1.64,51.21a11.57,11.57,0,0,0,0,11.55L27,106.87a11.55,11.55,0,0,0,10,5.81H87.74a11.56,11.56,0,0,0,10-5.81l25.38-44.11a11.57,11.57,0,0,0,0-11.55L97.78,7.09A11.58,11.58,0,0,0,87.74,1.28Z"/><path class="baf7679f-00c6-441d-8107-438d0f35d71e" d="M83.3,114H41.5a20.58,20.58,0,0,1-17.81-10.3l-21-36.43a20.59,20.59,0,0,1,0-20.49l21-36.44A20.6,20.6,0,0,1,41.5,0H83.3a20.61,20.61,0,0,1,17.81,10.3l21,36.44a20.59,20.59,0,0,1,0,20.49l-21,36.43A20.59,20.59,0,0,1,83.3,114ZM41.5,2.57a18,18,0,0,0-15.59,9L5,48A18,18,0,0,0,5,66l21,36.44a18,18,0,0,0,15.59,9H83.3a18,18,0,0,0,15.59-9l21-36.44a18,18,0,0,0,0-17.93l-21-36.44a18,18,0,0,0-15.59-9Z"/></g></g></svg>