<svg xmlns="http://www.w3.org/2000/svg" xmlns:xlink="http://www.w3.org/1999/xlink" viewBox="0 0 119.97 120.81"><defs><style>.a9a98093-2625-482c-a454-e466dd9901a9{fill:url(#ab8e6e06-117f-4677-ad9a-62d202057697);}.f97bd455-d240-40b2-9783-545bcf542a48{fill:#40220f;}</style><radialGradient id="ab8e6e06-117f-4677-ad9a-62d202057697" cx="45.02" cy="40.31" r="47.87" gradientUnits="userSpaceOnUse"><stop offset="0" stop-color="#fff"/><stop offset="0.07" stop-color="#f4faf1"/><stop offset="0.39" stop-color="#c3e2b0"/><stop offset="0.67" stop-color="#9fd080"/><stop offset="0.88" stop-color="#89c563"/><stop offset="1" stop-color="#81c158"/></radialGradient></defs><title>5_1</title><g id="fd9c8d55-6e46-42a7-9365-baf391df1df4" data-name="圖層 2"><g id="fb08f539-378d-4897-9834-94fd61538eb0" data-name="圖層 1"><rect class="a9a98093-2625-482c-a454-e466dd9901a9" x="1.28" y="1.28" width="117.4" height="118.24" rx="25"/><path class="f97bd455-d240-40b2-9783-545bcf542a48" d="M95,120.81H25a25,25,0,0,1-25-25V25A25,25,0,0,1,25,0H95a25,25,0,0,1,25,25V95.8A25,25,0,0,1,95,120.81ZM25,2.57A22.47,22.47,0,0,0,2.56,25V95.8A22.47,22.47,0,0,0,25,118.24H95A22.47,22.47,0,0,0,117.4,95.8V25A22.46,22.46,0,0,0,95,2.57Z"/></g></g></svg>