<svg xmlns="http://www.w3.org/2000/svg" xmlns:xlink="http://www.w3.org/1999/xlink" viewBox="0 0 125.11 114.28"><defs><style>.b71a0da2-a624-426f-ac3d-eafb085c61cb{fill:url(#b2878dd6-d89f-4db1-9075-991ab4069b6f);}.b810fc81-0c26-4ccd-8f11-9114b794a82b{fill:#40220f;}</style><radialGradient id="b2878dd6-d89f-4db1-9075-991ab4069b6f" cx="51.78" cy="39.61" r="59.07" gradientUnits="userSpaceOnUse"><stop offset="0" stop-color="#fff"/><stop offset="0.06" stop-color="#fef7ed"/><stop offset="0.33" stop-color="#fad39a"/><stop offset="0.56" stop-color="#f6b658"/><stop offset="0.76" stop-color="#f4a128"/><stop offset="0.91" stop-color="#f3940b"/><stop offset="1" stop-color="#f28f00"/></radialGradient></defs><title>5_2</title><g id="bc601191-fa02-425c-b88a-fa8b6862ecd2" data-name="圖層 2"><g id="fb16c0a4-4274-4f35-84cb-eacf6c4527de" data-name="圖層 1"><path class="b71a0da2-a624-426f-ac3d-eafb085c61cb" d="M87.9,1.44H37.21a11.58,11.58,0,0,0-10,5.81L1.79,51.36a11.57,11.57,0,0,0,0,11.55L27.17,107a11.6,11.6,0,0,0,10,5.81H87.9a11.6,11.6,0,0,0,10-5.81l25.38-44.12a11.57,11.57,0,0,0,0-11.55L97.94,7.25A11.58,11.58,0,0,0,87.9,1.44Z"/><path class="b810fc81-0c26-4ccd-8f11-9114b794a82b" d="M83.46,114.28H41.65A20.76,20.76,0,0,1,23.71,103.9l-21-36.44a20.72,20.72,0,0,1,0-20.64l21-36.44A20.76,20.76,0,0,1,41.65,0H83.46A20.76,20.76,0,0,1,101.4,10.38l21,36.44a20.72,20.72,0,0,1,0,20.64l-21,36.44A20.76,20.76,0,0,1,83.46,114.28ZM41.65,2.88A17.88,17.88,0,0,0,26.2,11.81l-21,36.44A17.89,17.89,0,0,0,5.24,66l21,36.44a17.88,17.88,0,0,0,15.45,8.94H83.46a17.88,17.88,0,0,0,15.45-8.94l21-36.44a17.89,17.89,0,0,0,0-17.77l-21-36.44A17.88,17.88,0,0,0,83.46,2.88Z"/></g></g></svg>