<svg xmlns="http://www.w3.org/2000/svg" xmlns:xlink="http://www.w3.org/1999/xlink" viewBox="0 0 130.66 116.44"><defs><style>.a191a604-65c5-4cfa-b347-4d61de176094{fill:url(#aa990247-0e26-4004-8885-80f2e2f1e5e9);}.b3b1b483-ae6b-4726-898b-af64d6ffee08{fill:#40220f;}</style><radialGradient id="aa990247-0e26-4004-8885-80f2e2f1e5e9" cx="55.04" cy="46.8" r="60.34" gradientUnits="userSpaceOnUse"><stop offset="0" stop-color="#fff"/><stop offset="0.21" stop-color="#d6ecc8"/><stop offset="0.49" stop-color="#a5d587"/><stop offset="0.72" stop-color="#82c557"/><stop offset="0.9" stop-color="#6cbb3a"/><stop offset="1" stop-color="#64b72f"/></radialGradient></defs><title>5_4</title><g id="af3578bc-95b5-447e-b529-b852de62dd8c" data-name="圖層 2"><g id="a526d2e7-028a-4116-b73d-5fa5da7beebc" data-name="圖層 1"><path class="a191a604-65c5-4cfa-b347-4d61de176094" d="M54.09,8.18,3.37,95.64a13,13,0,0,0,11.25,19.52H116.05A13,13,0,0,0,127.3,95.64L76.58,8.18A13,13,0,0,0,54.09,8.18Z"/><path class="b3b1b483-ae6b-4726-898b-af64d6ffee08" d="M116.78,116.44H13.88a13.86,13.86,0,0,1-12-20.81L53.34,6.91a13.86,13.86,0,0,1,24,0l51.45,88.72a13.86,13.86,0,0,1-12,20.81ZM65.33,2.56a11.2,11.2,0,0,0-9.77,5.63L4.11,96.92a11.3,11.3,0,0,0,9.77,17h102.9a11.29,11.29,0,0,0,9.77-17L75.1,8.19A11.18,11.18,0,0,0,65.33,2.56Z"/></g></g></svg>