<svg xmlns="http://www.w3.org/2000/svg" xmlns:xlink="http://www.w3.org/1999/xlink" viewBox="0 0 120.28 121.12"><defs><style>.f4d3e9ec-32e6-44d0-a7a7-83e5a659ef41{fill:url(#eb181136-fc02-42f8-b891-0248d64b0c49);}.ea30d6db-1c3f-47e8-9e1c-efb4703e6912{fill:#40220f;}</style><radialGradient id="eb181136-fc02-42f8-b891-0248d64b0c49" cx="45.18" cy="40.47" r="47.87" gradientUnits="userSpaceOnUse"><stop offset="0" stop-color="#fff"/><stop offset="0.12" stop-color="#ece5f0"/><stop offset="0.43" stop-color="#bea4cc"/><stop offset="0.69" stop-color="#9c74b1"/><stop offset="0.89" stop-color="#8757a1"/><stop offset="1" stop-color="#7f4c9b"/></radialGradient></defs><title>5_5</title><g id="a74d7299-b935-4ac1-a9e0-cc99bd3fc877" data-name="圖層 2"><g id="ab9f16d7-6586-4973-99e2-34c999b38ff1" data-name="圖層 1"><rect class="f4d3e9ec-32e6-44d0-a7a7-83e5a659ef41" x="1.44" y="1.44" width="117.4" height="118.24" rx="14.27"/><path class="ea30d6db-1c3f-47e8-9e1c-efb4703e6912" d="M95.11,121.12H25.17A25.2,25.2,0,0,1,0,96V25.17A25.2,25.2,0,0,1,25.17,0H95.11a25.2,25.2,0,0,1,25.17,25.17V96A25.2,25.2,0,0,1,95.11,121.12ZM25.17,2.88A22.32,22.32,0,0,0,2.88,25.17V96a22.32,22.32,0,0,0,22.29,22.29H95.11A22.32,22.32,0,0,0,117.4,96V25.17A22.32,22.32,0,0,0,95.11,2.88Z"/></g></g></svg>