<svg xmlns="http://www.w3.org/2000/svg" xmlns:xlink="http://www.w3.org/1999/xlink" viewBox="0 0 130.66 116.44"><defs><style>.fd6860eb-8a62-4bb1-9836-a077720b20c1{fill:url(#a96bdbaa-6db9-409d-bbb2-b75f6eecc8dc);}.acac18a4-51d7-4af8-a0fc-573129434fa2{fill:#40220f;}</style><radialGradient id="a96bdbaa-6db9-409d-bbb2-b75f6eecc8dc" cx="55.04" cy="46.8" r="60.34" gradientUnits="userSpaceOnUse"><stop offset="0" stop-color="#fff"/><stop offset="0.21" stop-color="#f5c9c9"/><stop offset="0.49" stop-color="#e88888"/><stop offset="0.72" stop-color="#df5859"/><stop offset="0.9" stop-color="#d93b3c"/><stop offset="1" stop-color="#d73031"/></radialGradient></defs><title>6_1</title><g id="e0bc4988-98b3-4d37-a460-555cb7c6e1df" data-name="圖層 2"><g id="b02df02b-2c32-475b-961b-b2b09d49775b" data-name="圖層 1"><path class="fd6860eb-8a62-4bb1-9836-a077720b20c1" d="M54.09,8.18,3.37,95.64a13,13,0,0,0,11.25,19.52H116.05A13,13,0,0,0,127.3,95.64L76.58,8.18A13,13,0,0,0,54.09,8.18Z"/><path class="acac18a4-51d7-4af8-a0fc-573129434fa2" d="M116.78,116.44H13.88a13.86,13.86,0,0,1-12-20.81L53.34,6.91a13.86,13.86,0,0,1,24,0l51.45,88.72a13.86,13.86,0,0,1-12,20.81ZM65.33,2.56a11.2,11.2,0,0,0-9.77,5.63L4.11,96.92a11.3,11.3,0,0,0,9.77,17h102.9a11.29,11.29,0,0,0,9.77-17L75.1,8.19A11.18,11.18,0,0,0,65.33,2.56Z"/></g></g></svg>