<svg xmlns="http://www.w3.org/2000/svg" xmlns:xlink="http://www.w3.org/1999/xlink" viewBox="0 0 119.97 120.81"><defs><style>.b35c94d2-df42-4620-8323-bd77a57d5599{fill:url(#f2b995f1-9fe3-4119-ba2f-46f4fa8a42f4);}.a73eb5be-4961-42fa-98ae-0c1bad2fe8c7{fill:#40220f;}</style><radialGradient id="f2b995f1-9fe3-4119-ba2f-46f4fa8a42f4" cx="45.02" cy="40.31" r="47.87" gradientUnits="userSpaceOnUse"><stop offset="0" stop-color="#fff"/><stop offset="0.06" stop-color="#fffeed"/><stop offset="0.33" stop-color="#fff79a"/><stop offset="0.56" stop-color="#fff158"/><stop offset="0.76" stop-color="#ffed28"/><stop offset="0.91" stop-color="#ffeb0b"/><stop offset="1" stop-color="#ffea00"/></radialGradient></defs><title>6_2</title><g id="b2b84b90-dd61-4c9e-a953-edf828fd1988" data-name="圖層 2"><g id="a64feb5c-dafc-49d7-b827-cb3b52a7300c" data-name="圖層 1"><rect class="b35c94d2-df42-4620-8323-bd77a57d5599" x="1.28" y="1.28" width="117.4" height="118.24" rx="25"/><path class="a73eb5be-4961-42fa-98ae-0c1bad2fe8c7" d="M95,120.81H25a25,25,0,0,1-25-25V25A25,25,0,0,1,25,0H95a25,25,0,0,1,25,25V95.8A25,25,0,0,1,95,120.81ZM25,2.57A22.47,22.47,0,0,0,2.56,25V95.8A22.47,22.47,0,0,0,25,118.24H95A22.47,22.47,0,0,0,117.4,95.8V25A22.46,22.46,0,0,0,95,2.57Z"/></g></g></svg>