<svg xmlns="http://www.w3.org/2000/svg" xmlns:xlink="http://www.w3.org/1999/xlink" viewBox="0 0 130.67 116.44"><defs><style>.beb81113-75ad-4e49-b893-8a4637f32ce9{fill:url(#f493b1a1-0590-4d40-9f39-9acc7e53fd33);}.a0b5f835-c94c-4e2b-8d68-a22fc0d4aceb{fill:#40220f;}</style><radialGradient id="f493b1a1-0590-4d40-9f39-9acc7e53fd33" cx="54.92" cy="46.2" r="60.96" gradientUnits="userSpaceOnUse"><stop offset="0" stop-color="#fff"/><stop offset="0.18" stop-color="#ddedd2"/><stop offset="0.47" stop-color="#acd491"/><stop offset="0.71" stop-color="#88c261"/><stop offset="0.9" stop-color="#72b644"/><stop offset="1" stop-color="#6ab239"/></radialGradient></defs><title>6_5</title><g id="bd9e0150-e9ab-4302-af21-bfead32b0451" data-name="圖層 2"><g id="bbd85ecb-f535-4e36-979d-c3e9984280e0" data-name="圖層 1"><path class="beb81113-75ad-4e49-b893-8a4637f32ce9" d="M55,6.69,2.5,97.14a12,12,0,0,0,10.38,18H117.79a12,12,0,0,0,10.38-18L75.71,6.69A12,12,0,0,0,55,6.69Z"/><path class="a0b5f835-c94c-4e2b-8d68-a22fc0d4aceb" d="M116.78,116.44H13.88a13.86,13.86,0,0,1-12-20.81L53.34,6.91a13.86,13.86,0,0,1,24,0l51.45,88.72a13.86,13.86,0,0,1-12,20.81ZM55.56,8.19,4.11,96.92a11.3,11.3,0,0,0,9.77,17h102.9a11.29,11.29,0,0,0,9.77-17L75.1,8.19a11.29,11.29,0,0,0-19.54,0Z"/></g></g></svg>