<svg xmlns="http://www.w3.org/2000/svg" xmlns:xlink="http://www.w3.org/1999/xlink" viewBox="0 0 130.66 116.44"><defs><style>.bd335dea-267a-461d-988c-6dd5bb8e0d90{fill:url(#b40ca199-aef3-41a1-9635-cd93128ca910);}.ba6017e8-13c5-472a-b294-10845661f81d{fill:#40220f;}</style><radialGradient id="b40ca199-aef3-41a1-9635-cd93128ca910" cx="55.04" cy="46.8" r="60.34" gradientUnits="userSpaceOnUse"><stop offset="0" stop-color="#fff"/><stop offset="0.21" stop-color="#d6ecc8"/><stop offset="0.49" stop-color="#a5d587"/><stop offset="0.72" stop-color="#82c557"/><stop offset="0.9" stop-color="#6cbb3a"/><stop offset="1" stop-color="#64b72f"/></radialGradient></defs><title>7_2</title><g id="ef0c2689-86c2-4317-9303-9247d3d53a7c" data-name="圖層 2"><g id="bbd0f7d7-e5c4-4c02-b733-258e45768917" data-name="圖層 1"><path class="bd335dea-267a-461d-988c-6dd5bb8e0d90" d="M54.09,8.18,3.37,95.64a13,13,0,0,0,11.25,19.52H116.05A13,13,0,0,0,127.3,95.64L76.58,8.18A13,13,0,0,0,54.09,8.18Z"/><path class="ba6017e8-13c5-472a-b294-10845661f81d" d="M116.78,116.44H13.88a13.86,13.86,0,0,1-12-20.81L53.34,6.91a13.86,13.86,0,0,1,24,0l51.45,88.72a13.86,13.86,0,0,1-12,20.81ZM55.56,8.19,4.11,96.92a11.3,11.3,0,0,0,9.77,17h102.9a11.29,11.29,0,0,0,9.77-17L75.1,8.19a11.29,11.29,0,0,0-19.54,0Z"/></g></g></svg>