<svg xmlns="http://www.w3.org/2000/svg" xmlns:xlink="http://www.w3.org/1999/xlink" viewBox="0 0 120.28 121.12"><defs><style>.a6e006ff-6ae5-4a01-b6b2-39ecd91898e2{fill:url(#be3bf0d7-fdab-4f37-8bac-4523034fd228);}.aa50188f-5270-4e38-8bb3-da929717ffa8{fill:#40220f;}</style><radialGradient id="be3bf0d7-fdab-4f37-8bac-4523034fd228" cx="45.18" cy="40.47" r="47.87" gradientUnits="userSpaceOnUse"><stop offset="0" stop-color="#fff"/><stop offset="0.06" stop-color="#fef7ed"/><stop offset="0.33" stop-color="#fad39a"/><stop offset="0.56" stop-color="#f6b658"/><stop offset="0.76" stop-color="#f4a128"/><stop offset="0.91" stop-color="#f3940b"/><stop offset="1" stop-color="#f28f00"/></radialGradient></defs><title>7_3</title><g id="a0e9a463-7073-407c-b332-b303ab36a49e" data-name="圖層 2"><g id="fafa8c5c-148e-41ef-bc30-0cf883d4f4c2" data-name="圖層 1"><rect class="a6e006ff-6ae5-4a01-b6b2-39ecd91898e2" x="1.44" y="1.44" width="117.4" height="118.24" rx="25"/><path class="aa50188f-5270-4e38-8bb3-da929717ffa8" d="M95.11,121.12H25.17A25.2,25.2,0,0,1,0,96V25.17A25.2,25.2,0,0,1,25.17,0H95.11a25.2,25.2,0,0,1,25.17,25.17V96A25.2,25.2,0,0,1,95.11,121.12ZM25.17,2.88A22.32,22.32,0,0,0,2.88,25.17V96a22.32,22.32,0,0,0,22.29,22.29H95.11A22.32,22.32,0,0,0,117.4,96V25.17A22.32,22.32,0,0,0,95.11,2.88Z"/></g></g></svg>