<svg xmlns="http://www.w3.org/2000/svg" xmlns:xlink="http://www.w3.org/1999/xlink" viewBox="0 0 124.8 113.96"><defs><style>.ec325aa3-fd6a-4e3e-a0bd-1bbf2d1d08cd{fill:url(#af0c2f6e-48f1-4086-b79b-076e0ded17ab);}.b9047ba6-60b3-4e58-9795-be0f6e6e747e{fill:#40220f;}</style><radialGradient id="af0c2f6e-48f1-4086-b79b-076e0ded17ab" cx="51.62" cy="39.46" r="59.07" gradientUnits="userSpaceOnUse"><stop offset="0" stop-color="#fff"/><stop offset="0.06" stop-color="#fffded"/><stop offset="0.33" stop-color="#fff69a"/><stop offset="0.56" stop-color="#fff058"/><stop offset="0.76" stop-color="#ffec28"/><stop offset="0.91" stop-color="#ffe90b"/><stop offset="1" stop-color="#ffe800"/></radialGradient></defs><title>7_4</title><g id="b1e3c82a-1e2d-4d3a-a1de-3039a0a87830" data-name="圖層 2"><g id="fd46a596-1547-42d8-8489-d97a6a5155d4" data-name="圖層 1"><path class="ec325aa3-fd6a-4e3e-a0bd-1bbf2d1d08cd" d="M87.74,1.28H37.05A11.57,11.57,0,0,0,27,7.09L1.64,51.21a11.57,11.57,0,0,0,0,11.55L27,106.87a11.55,11.55,0,0,0,10,5.81H87.74a11.56,11.56,0,0,0,10-5.81l25.38-44.11a11.57,11.57,0,0,0,0-11.55L97.78,7.09A11.58,11.58,0,0,0,87.74,1.28Z"/><path class="b9047ba6-60b3-4e58-9795-be0f6e6e747e" d="M83.3,114H41.5a20.58,20.58,0,0,1-17.81-10.3l-21-36.43a20.59,20.59,0,0,1,0-20.49l21-36.44A20.6,20.6,0,0,1,41.5,0H83.3a20.61,20.61,0,0,1,17.81,10.3l21,36.44a20.59,20.59,0,0,1,0,20.49l-21,36.43A20.59,20.59,0,0,1,83.3,114ZM41.5,2.57a18,18,0,0,0-15.59,9L5,48A18,18,0,0,0,5,66l21,36.44a18,18,0,0,0,15.59,9H83.3a18,18,0,0,0,15.59-9l21-36.44a18,18,0,0,0,0-17.93l-21-36.44a18,18,0,0,0-15.59-9Z"/></g></g></svg>