<svg xmlns="http://www.w3.org/2000/svg" xmlns:xlink="http://www.w3.org/1999/xlink" viewBox="0 0 357.85 491.64"><defs><style>.ec67b6fb-9052-4dad-9106-2c227f28a703{fill:none;}.b5b76f1e-f4e2-4721-a358-ef8a277489b0{fill:#fcdebe;}.b1501d16-ca4e-4963-87ff-40059eb9b4ed{fill:#40220f;}.b341c2ee-c510-489a-865b-c40e8fca1609{clip-path:url(#ff0af1e1-dedf-4c6d-9596-911597866c18);}.b81a34e5-e551-48de-88f6-d2196b62c4c0{fill:#786d60;}.fa21436b-f6c4-4747-b183-d9fb6e72695b{clip-path:url(#b604f3ae-17c8-4570-9bf5-e1acfc7fd935);}.f29add5d-4b9c-4306-ab1f-020039ed6521{fill:#a79a89;}.bcf47983-9793-4199-93c4-e7b0053e0db3{fill:#fff89e;}.ece18906-9735-4cf1-a25e-10052a106bb2{fill:#efddc4;}.b71b825f-fcdf-4f5a-9423-19d74b7f425c{fill:#fdeacf;}.fe033f4e-803e-44e2-b691-94b8f2cbeaa1{fill:#564438;}.f1652464-9edc-43ab-9a27-964fcbf2b698{fill:#fff;}.abcfc1c5-dc86-4430-87bd-d148a3f2bd13{fill:#727171;}.a6dbfffa-b36e-48a8-8e88-e097054374e9{fill:#ce302a;}.f06e83f3-fb65-435c-86fc-c990734bccfa{fill:#8e1913;}.bba225fc-1f55-4b61-8a36-17c439a78c93{fill:#ab1d27;}.adb7bcde-93e1-48af-bc9e-90ea70468bf9{fill:#770d06;}.a6a32270-2e49-4731-b837-e400beefca93{fill:#480000;}.f4820062-b3c7-43d2-a929-75ada3133f54{fill:#176e8a;}.a9e0fc16-d52b-44ee-ad72-b089df6b5484,.f992594c-4001-476d-8f9e-a927ec8a3975{fill:#fddb93;}.f992594c-4001-476d-8f9e-a927ec8a3975{opacity:0.31;}</style><clipPath id="ff0af1e1-dedf-4c6d-9596-911597866c18"><path class="ec67b6fb-9052-4dad-9106-2c227f28a703" d="M279.34,332.21h32.71a14.89,14.89,0,0,1,14.89,14.89V479.35a9.12,9.12,0,0,1-9.12,9.12H273.56a9.12,9.12,0,0,1-9.12-9.12V347.1A14.89,14.89,0,0,1,279.34,332.21Z"/></clipPath><clipPath id="b604f3ae-17c8-4570-9bf5-e1acfc7fd935"><path class="ec67b6fb-9052-4dad-9106-2c227f28a703" d="M135.65,332.21h44.27a9.12,9.12,0,0,1,9.12,9.12V473.57a14.89,14.89,0,0,1-14.89,14.89H141.43a14.89,14.89,0,0,1-14.89-14.89V341.32A9.12,9.12,0,0,1,135.65,332.21Z" transform="translate(315.56 820.67) rotate(180)"/></clipPath></defs><title>小貓_2</title><g id="a230947b-794e-4096-ae2e-e36633d18219" data-name="圖層 2"><g id="f53c492e-a443-4231-a7f1-65fa97704537" data-name="圖層 1"><path class="b5b76f1e-f4e2-4721-a358-ef8a277489b0" d="M279.34,332.21h32.71a14.89,14.89,0,0,1,14.89,14.89V479.35a9.12,9.12,0,0,1-9.12,9.12H273.56a9.12,9.12,0,0,1-9.12-9.12V347.1A14.89,14.89,0,0,1,279.34,332.21Z"/><path class="b1501d16-ca4e-4963-87ff-40059eb9b4ed" d="M311.79,491.64H279.6a18.36,18.36,0,0,1-18.33-18.34V357A28,28,0,0,1,289.21,329h13A28,28,0,0,1,330.12,357V473.3A18.36,18.36,0,0,1,311.79,491.64ZM289.21,335.38A21.62,21.62,0,0,0,267.62,357V473.3a12,12,0,0,0,12,12h32.19a12,12,0,0,0,12-12V357a21.62,21.62,0,0,0-21.59-21.59Z"/><g class="b341c2ee-c510-489a-865b-c40e8fca1609"><rect class="b81a34e5-e551-48de-88f6-d2196b62c4c0" x="308.75" y="369.05" width="19.06" height="57.49" rx="4.54" transform="translate(716.08 79.51) rotate(90)"/><rect class="b81a34e5-e551-48de-88f6-d2196b62c4c0" x="308.75" y="398.35" width="19.06" height="57.49" rx="4.54" transform="translate(745.38 108.81) rotate(90)"/><rect class="b81a34e5-e551-48de-88f6-d2196b62c4c0" x="308.75" y="427.65" width="19.06" height="57.49" rx="4.54" transform="translate(774.68 138.11) rotate(90)"/></g><path class="b1501d16-ca4e-4963-87ff-40059eb9b4ed" d="M311.79,491.64H279.6a18.36,18.36,0,0,1-18.33-18.34V357A28,28,0,0,1,289.21,329h13A28,28,0,0,1,330.12,357V473.3A18.36,18.36,0,0,1,311.79,491.64ZM289.21,335.38A21.62,21.62,0,0,0,267.62,357V473.3a12,12,0,0,0,12,12h32.19a12,12,0,0,0,12-12V357a21.62,21.62,0,0,0-21.59-21.59Z"/><path class="b5b76f1e-f4e2-4721-a358-ef8a277489b0" d="M135.65,332.21h44.27a9.12,9.12,0,0,1,9.12,9.12V473.57a14.89,14.89,0,0,1-14.89,14.89H141.43a14.89,14.89,0,0,1-14.89-14.89V341.32A9.12,9.12,0,0,1,135.65,332.21Z" transform="translate(315.56 820.67) rotate(180)"/><path class="b1501d16-ca4e-4963-87ff-40059eb9b4ed" d="M173.87,491.64H141.69a18.36,18.36,0,0,1-18.33-18.34V357A28,28,0,0,1,151.3,329h13A28,28,0,0,1,192.21,357V473.3A18.36,18.36,0,0,1,173.87,491.64ZM151.3,335.38A21.61,21.61,0,0,0,129.71,357V473.3a12,12,0,0,0,12,12h32.18a12,12,0,0,0,12-12V357a21.62,21.62,0,0,0-21.59-21.59Z"/><g class="fa21436b-f6c4-4747-b183-d9fb6e72695b"><rect class="b81a34e5-e551-48de-88f6-d2196b62c4c0" x="125.67" y="369.05" width="19.06" height="57.49" rx="4.54" transform="translate(532.99 262.6) rotate(90)"/><rect class="b81a34e5-e551-48de-88f6-d2196b62c4c0" x="125.67" y="398.35" width="19.06" height="57.49" rx="4.54" transform="translate(562.29 291.9) rotate(90)"/><rect class="b81a34e5-e551-48de-88f6-d2196b62c4c0" x="125.67" y="427.65" width="19.06" height="57.49" rx="4.54" transform="translate(591.59 321.2) rotate(90)"/></g><path class="b1501d16-ca4e-4963-87ff-40059eb9b4ed" d="M173.87,491.64H141.69a18.36,18.36,0,0,1-18.33-18.34V357A28,28,0,0,1,151.3,329h13A28,28,0,0,1,192.21,357V473.3A18.36,18.36,0,0,1,173.87,491.64ZM151.3,335.38A21.61,21.61,0,0,0,129.71,357V473.3a12,12,0,0,0,12,12h32.18a12,12,0,0,0,12-12V357a21.62,21.62,0,0,0-21.59-21.59Z"/><circle class="b5b76f1e-f4e2-4721-a358-ef8a277489b0" cx="228.05" cy="348.09" r="101.63"/><path class="b1501d16-ca4e-4963-87ff-40059eb9b4ed" d="M228.05,452.89a104.81,104.81,0,1,1,104.8-104.8A104.93,104.93,0,0,1,228.05,452.89Zm0-203.26a98.46,98.46,0,1,0,98.45,98.46A98.57,98.57,0,0,0,228.05,249.63Z"/><path class="f29add5d-4b9c-4306-ab1f-020039ed6521" d="M263,5.26,226.71,68.09a10.51,10.51,0,0,0,9.1,15.77h72.55a10.52,10.52,0,0,0,9.11-15.77L281.19,5.26A10.51,10.51,0,0,0,263,5.26Z"/><path class="b1501d16-ca4e-4963-87ff-40059eb9b4ed" d="M296.29,87H247.88a20.66,20.66,0,0,1-17.89-31L254.2,14.12,257,15.71l-2.75-1.59a20.65,20.65,0,0,1,35.77,0l24.21,41.93a20.66,20.66,0,0,1-17.89,31ZM259.7,17.3,235.49,59.23a14.3,14.3,0,0,0,12.39,21.45h48.41a14.3,14.3,0,0,0,12.39-21.45L284.47,17.3a14.29,14.29,0,0,0-24.77,0Z"/><path class="bcf47983-9793-4199-93c4-e7b0053e0db3" d="M265.66,38.26l-18.94,32.8a7.43,7.43,0,0,0,6.43,11.13H291a7.42,7.42,0,0,0,6.43-11.13l-18.94-32.8A7.42,7.42,0,0,0,265.66,38.26Z"/><path class="ece18906-9735-4cf1-a25e-10052a106bb2" d="M173.58,5.26,137.3,68.09a10.52,10.52,0,0,0,9.11,15.77H219a10.52,10.52,0,0,0,9.11-15.77L191.79,5.26A10.51,10.51,0,0,0,173.58,5.26Z"/><path class="b1501d16-ca4e-4963-87ff-40059eb9b4ed" d="M206.89,87H158.48a20.66,20.66,0,0,1-17.89-31L164.8,14.12l2.75,1.59-2.75-1.59a20.65,20.65,0,0,1,35.77,0l24.21,41.93a20.66,20.66,0,0,1-17.89,31ZM170.3,17.3,146.09,59.23a14.3,14.3,0,0,0,12.39,21.45h48.41a14.3,14.3,0,0,0,12.39-21.45L195.07,17.3a14.29,14.29,0,0,0-24.77,0Z"/><path class="bcf47983-9793-4199-93c4-e7b0053e0db3" d="M176.26,38.26l-18.94,32.8a7.43,7.43,0,0,0,6.43,11.13h37.87a7.43,7.43,0,0,0,6.43-11.13l-18.94-32.8A7.42,7.42,0,0,0,176.26,38.26Z"/><path class="b71b825f-fcdf-4f5a-9423-19d74b7f425c" d="M343.38,111.6c-2.28-28.28-23.53-49.95-49-49.95H160.32c-25.46,0-46.71,21.67-49,49.95l-11.1,138.25c-2.58,32.09,20.09,59.74,49,59.74H305.5c28.89,0,51.56-27.65,49-59.74Z"/><path class="b1501d16-ca4e-4963-87ff-40059eb9b4ed" d="M305.5,312.76H149.22c-13.77,0-26.76-5.86-36.59-16.51C101.34,284,95.67,267,97.07,249.59l11.11-138.24C110.6,81.21,133,58.47,160.32,58.47H294.39c27.31,0,49.73,22.74,52.15,52.88l11.1,138.24C359,267,353.37,284,342.08,296.25,332.26,306.9,319.26,312.76,305.5,312.76ZM160.32,64.83c-24,0-43.66,20.22-45.81,47L103.4,250.1c-1.25,15.66,3.81,30.91,13.9,41.84,8.61,9.33,20,14.47,31.92,14.47H305.5c12,0,23.31-5.14,31.92-14.47,10.08-10.93,15.15-26.18,13.89-41.84l-11.1-138.24c-2.15-26.81-21.85-47-45.82-47Z"/><path class="fe033f4e-803e-44e2-b691-94b8f2cbeaa1" d="M143.14,231.69l16.72-16.26a3.89,3.89,0,0,0-1.94-6.61l-25.82-5.21a3.89,3.89,0,0,0-4.35,5.33l9.1,21.48A3.88,3.88,0,0,0,143.14,231.69Z"/><circle class="b1501d16-ca4e-4963-87ff-40059eb9b4ed" cx="132.1" cy="174.61" r="16.09"/><circle class="f1652464-9edc-43ab-9a27-964fcbf2b698" cx="126.48" cy="170.8" r="5.61"/><rect class="b81a34e5-e551-48de-88f6-d2196b62c4c0" x="188.53" y="59.11" width="19.06" height="57.49" rx="4.54"/><rect class="b81a34e5-e551-48de-88f6-d2196b62c4c0" x="217.83" y="59.11" width="19.06" height="57.49" rx="4.54"/><rect class="b81a34e5-e551-48de-88f6-d2196b62c4c0" x="247.13" y="59.11" width="19.06" height="57.49" rx="4.54"/><path class="b1501d16-ca4e-4963-87ff-40059eb9b4ed" d="M305.5,312.76H149.22c-13.77,0-26.76-5.86-36.59-16.51C101.34,284,95.67,267,97.07,249.59l11.11-138.24C110.6,81.21,133,58.47,160.32,58.47H294.39c27.31,0,49.73,22.74,52.15,52.88l11.1,138.24C359,267,353.37,284,342.08,296.25,332.26,306.9,319.26,312.76,305.5,312.76ZM160.32,64.83c-24,0-43.66,20.22-45.81,47L103.4,250.1c-1.25,15.66,3.81,30.91,13.9,41.84,8.61,9.33,20,14.47,31.92,14.47H305.5c12,0,23.31-5.14,31.92-14.47,10.08-10.93,15.15-26.18,13.89-41.84l-11.1-138.24c-2.15-26.81-21.85-47-45.82-47Z"/><polygon class="abcfc1c5-dc86-4430-87bd-d148a3f2bd13" points="1.66 215.13 23.29 234.97 24.98 232.95 1.66 215.13"/><path class="a6dbfffa-b36e-48a8-8e88-e097054374e9" d="M127.88,343.18c4.57-3.66,6.23-10.13,5.29-17.84,7.75-.41,13.84-3.18,16.63-8.33,6.1-11.2-5.68-29.39-26.31-40.62s-42.31-11.24-48.4,0l-.11.22-.2.15c-10,8-6.16,29.29,8.5,47.64S117.91,351.14,127.88,343.18Z"/><path class="f06e83f3-fb65-435c-86fc-c990734bccfa" d="M133.17,325.34a27.09,27.09,0,0,0,9.46-2.07L80.34,271.06a13.88,13.88,0,0,0-5.25,5.29l-.11.22-.2.15a13.88,13.88,0,0,0-4.29,6.1L132.78,335A27.2,27.2,0,0,0,133.17,325.34Z"/><path class="bba225fc-1f55-4b61-8a36-17c439a78c93" d="M110.71,310.33a2.91,2.91,0,0,0,4.08-.39h0a2.92,2.92,0,0,0-.33-4.09L41,242.19a4.51,4.51,0,0,0-6.4.53h0a4.51,4.51,0,0,0,.6,6.38Z"/><path class="adb7bcde-93e1-48af-bc9e-90ea70468bf9" d="M42.84,237.5l-9.13-7.65a9.51,9.51,0,0,0-13.23.82,9.3,9.3,0,0,0,1,13.23l9.37,7.85a3.53,3.53,0,0,0,5-.43l7.4-8.84A3.53,3.53,0,0,0,42.84,237.5Z"/><rect class="a6a32270-2e49-4731-b837-e400beefca93" x="26.47" y="242.63" width="18.6" height="2.15" transform="translate(245.53 372.84) rotate(129.97)"/><rect class="a6a32270-2e49-4731-b837-e400beefca93" x="23.25" y="239.93" width="18.6" height="2.15" transform="translate(238.17 370.88) rotate(129.97)"/><rect class="a6a32270-2e49-4731-b837-e400beefca93" x="20.03" y="237.24" width="18.6" height="2.15" transform="translate(230.81 368.91) rotate(129.97)"/><path class="f1652464-9edc-43ab-9a27-964fcbf2b698" d="M40.86,240.68a.85.85,0,0,1-.54-.19l-8.1-6.79a8.86,8.86,0,0,0-4.71-2.09,6.77,6.77,0,0,0-4.37.91.86.86,0,0,1-1.16-.29.84.84,0,0,1,.29-1.15,8.51,8.51,0,0,1,5.42-1.14,10.46,10.46,0,0,1,5.61,2.47l8.1,6.79a.83.83,0,0,1,.1,1.18A.81.81,0,0,1,40.86,240.68Z"/><path class="f1652464-9edc-43ab-9a27-964fcbf2b698" d="M78.06,281.35a.43.43,0,0,1-.26-.09L48.86,258.38a.41.41,0,0,1-.06-.59.42.42,0,0,1,.59-.07L78.32,280.6a.43.43,0,0,1,.07.59A.41.41,0,0,1,78.06,281.35Z"/><path class="f1652464-9edc-43ab-9a27-964fcbf2b698" d="M141.89,317.36a.87.87,0,0,1-.51-.17.84.84,0,0,1-.16-1.18,12.76,12.76,0,0,0,1.61-9.6c-1-5.43-5.63-14-21.62-23.68a.84.84,0,1,1,.88-1.43c13.29,8.08,20.83,16.45,22.4,24.86,1.25,6.63-1.8,10.7-1.93,10.87A.84.84,0,0,1,141.89,317.36Z"/><path class="f1652464-9edc-43ab-9a27-964fcbf2b698" d="M95.53,330.59a.81.81,0,0,1-.54-.2c-.18-.15-18-15.51-23.37-40.28a.84.84,0,0,1,1.64-.36C78.5,314,95.9,329,96.08,329.11a.84.84,0,0,1,.09,1.18A.81.81,0,0,1,95.53,330.59Z"/><path class="f4820062-b3c7-43d2-a929-75ada3133f54" d="M129.57,329.06a.86.86,0,0,1-.54-.2l-13.6-11.4a.84.84,0,0,1,1.08-1.29l13.6,11.4a.84.84,0,0,1,.11,1.19A.88.88,0,0,1,129.57,329.06Z"/><path class="b1501d16-ca4e-4963-87ff-40059eb9b4ed" d="M1.66,215.13,21.13,230a9.15,9.15,0,0,1,6.29-2.44,9.81,9.81,0,0,1,6.29,2.29l9.13,7.65a3.53,3.53,0,0,1,.43,5l-.82,1L77,273.69l.27-.29.24-.22a13.44,13.44,0,0,1,1.06-.92l.18-.14c.21-.17.43-.32.66-.48l.17-.11c3.58-2.38,8.51-3.56,14.21-3.56,8.76,0,19.34,2.8,29.67,8.42,20.63,11.23,32.41,29.42,26.31,40.62a14.89,14.89,0,0,1-8.16,6.67l-.07,0c-.32.12-.65.24-1,.35l-.14,0-1,.28-.24.06-.92.23-.36.07-.84.17-.51.08-.76.11-.73.09-.58.06c-.45,0-.91.08-1.37.1v.05c.06.45.1.88.14,1.32,0,.2,0,.39,0,.58s0,.5,0,.74,0,.51,0,.76,0,.35,0,.52,0,.57,0,.86c0,.12,0,.25,0,.37,0,.32,0,.63,0,.94a2,2,0,0,0,0,.25c0,.33-.07.66-.11,1a.77.77,0,0,0,0,.15c-.05.35-.1.69-.17,1,0,0,0,.05,0,.07a15,15,0,0,1-5.13,9.21,14.64,14.64,0,0,1-9.36,3c-10.48,0-24.33-8.16-35.24-21.82-11.79-14.75-16.55-31.43-12.79-41.54h0l.33-.81.09-.19c.11-.25.22-.49.34-.73a2,2,0,0,0,.11-.2c.23-.42.46-.82.72-1.2l.18-.28.24-.32L36.69,250.34l-.82,1a3.54,3.54,0,0,1-2.71,1.26,3.5,3.5,0,0,1-2.27-.83l-9.37-7.84a9.3,9.3,0,0,1-1.8-12.22L1.66,215.13m0-1.67a1.67,1.67,0,0,0-1.27.6,1.66,1.66,0,0,0,.15,2.29L17.62,232a11,11,0,0,0,2.83,13.15L29.82,253a5.22,5.22,0,0,0,7.09-.38l33.36,26.79c-.13.22-.25.44-.37.67l-.12.22q-.21.41-.39.81l-.09.19c-.13.31-.25.61-.36.91-4.08,10.95,1.16,28.29,13,43.16,10.89,13.63,25.23,22.44,36.54,22.44a16.19,16.19,0,0,0,10.39-3.36,16.42,16.42,0,0,0,5.73-10.2l0-.09c.07-.35.12-.72.18-1.1l0-.16c0-.35.08-.7.11-1.06l0-.2c0-.39,0-.72.07-1.06v-.39c0-.31,0-.61,0-.92v-.69c0-.22,0-.43,0-.65l0-.64v-.14l0-.19v-.12l.12,0,.19,0h.13l.64-.08.68-.1.12,0,.16,0,.38-.07.89-.17.11,0,.28-.06c.32-.07.65-.15,1-.24l.09,0,.16,0,1-.3.15-.05c.36-.12.72-.24,1.06-.37a16.56,16.56,0,0,0,9.12-7.45c6.63-12.2-5.22-31-27-42.88-10.23-5.56-21-8.63-30.46-8.63-6.11,0-11.34,1.33-15.13,3.84l-.19.13-.73.52-.14.11c-.23.19-.45.36-.65.54L44.77,243.27a5.2,5.2,0,0,0-.87-7l-9.13-7.66a11.45,11.45,0,0,0-7.35-2.67,10.86,10.86,0,0,0-6.32,2L2.67,213.81a1.65,1.65,0,0,0-1-.35Z"/><path class="b1501d16-ca4e-4963-87ff-40059eb9b4ed" d="M210.74,202.84a2.61,2.61,0,0,1-.94-.18,95.4,95.4,0,0,0-32-6.61,2.49,2.49,0,0,1-2.28-3.5c6.9-15.59,30.72-17.75,31.73-17.83a2.49,2.49,0,0,1,.42,5c-.2,0-18.05,1.65-25.61,11.56A100,100,0,0,1,211.69,198a2.49,2.49,0,0,1-.95,4.8Z"/><path class="b1501d16-ca4e-4963-87ff-40059eb9b4ed" d="M137.15,264a25.85,25.85,0,0,1-4.13-.27,2.49,2.49,0,0,1,.83-4.92c.25.05,19,2.83,39.62-15.59a2.5,2.5,0,0,1,3.33,3.73C160,261.92,144.34,264,137.15,264Z"/><path class="b1501d16-ca4e-4963-87ff-40059eb9b4ed" d="M185.41,253.32a3.29,3.29,0,0,1-.54,0c-5.89-1.28-10-3.94-12.2-7.88-3.13-5.6-1.07-11.63-1-11.88a2.49,2.49,0,0,1,4.71,1.64c0,.1-1.38,4.26.65,7.84,1.49,2.63,4.47,4.44,8.88,5.4a2.49,2.49,0,0,1-.52,4.93Z"/><path class="b1501d16-ca4e-4963-87ff-40059eb9b4ed" d="M131.15,272.65a2.42,2.42,0,0,1-1-.2,2.49,2.49,0,0,1-1.31-3.27c3.12-7.29-2.32-14.33-2.37-14.4a2.49,2.49,0,0,1,3.92-3.08c.3.38,7.31,9.47,3,19.44A2.47,2.47,0,0,1,131.15,272.65Z"/><circle class="a9e0fc16-d52b-44ee-ad72-b089df6b5484" cx="251.92" cy="239.7" r="52.82"/><rect class="b1501d16-ca4e-4963-87ff-40059eb9b4ed" x="219.69" y="225.82" width="50.88" height="5.24" rx="1.25"/><rect class="b1501d16-ca4e-4963-87ff-40059eb9b4ed" x="219.69" y="207.72" width="50.88" height="5.24" rx="1.25" transform="translate(-36.77 52.66) rotate(-11.41)"/><rect class="b1501d16-ca4e-4963-87ff-40059eb9b4ed" x="219.69" y="243.92" width="50.88" height="5.24" rx="1.25" transform="translate(436.64 536.71) rotate(-168.59)"/><path class="f992594c-4001-476d-8f9e-a927ec8a3975" d="M107.22,202.78,104,242.06s-1.89,15.24,0,23.13a62.42,62.42,0,0,0,3.33,11.32,52.78,52.78,0,0,0-.1-73.73Z"/><rect class="b1501d16-ca4e-4963-87ff-40059eb9b4ed" x="69.46" y="225.82" width="50.88" height="5.24" rx="1.25" transform="translate(189.8 456.88) rotate(180)"/><rect class="b1501d16-ca4e-4963-87ff-40059eb9b4ed" x="69.46" y="207.72" width="50.88" height="5.24" rx="1.25" transform="translate(146.31 435.3) rotate(-168.59)"/><rect class="b1501d16-ca4e-4963-87ff-40059eb9b4ed" x="69.46" y="243.92" width="50.88" height="5.24" rx="1.25" transform="translate(-46.9 23.65) rotate(-11.41)"/><rect class="b5b76f1e-f4e2-4721-a358-ef8a277489b0" x="93.37" y="295.46" width="66.1" height="54.11" rx="26.38" transform="translate(-27.05 11.96) rotate(-4.89)"/><path class="b1501d16-ca4e-4963-87ff-40059eb9b4ed" d="M120.39,353.26a30.24,30.24,0,0,1-2.53-60.36l12-1A30.23,30.23,0,0,1,135,352.12h0l-12,1C122.14,353.22,121.26,353.26,120.39,353.26Zm12-55.14c-.68,0-1.36,0-2,.09l-12,1a23.88,23.88,0,0,0,4.07,47.59l12-1a23.88,23.88,0,0,0-2-47.67Z"/><path class="b81a34e5-e551-48de-88f6-d2196b62c4c0" d="M224.18,386.07a17.67,17.67,0,0,0,11,18h0a18,18,0,0,0,23.22-9.72l-33.14-18.58C224.87,379.06,224.5,382.49,224.18,386.07Z"/><path class="b81a34e5-e551-48de-88f6-d2196b62c4c0" d="M230.55,346.48l37,20.73a56.08,56.08,0,0,1,13.92-15.92q3-2.43,5.63-4.91L240,320A134.59,134.59,0,0,0,230.55,346.48Z"/><path class="b5b76f1e-f4e2-4721-a358-ef8a277489b0" d="M225.27,375.74l33.14,18.58a18.64,18.64,0,0,0,1.28-4.34,70.77,70.77,0,0,1,6.86-21c.31-.59.64-1.16,1-1.74l-37-20.73A238.69,238.69,0,0,0,225.27,375.74Z"/><path class="b81a34e5-e551-48de-88f6-d2196b62c4c0" d="M285.52,288.69s-14-3.55-28.88,8.82L302.06,323C306.93,306,298.84,291.53,285.52,288.69Z"/><path class="b5b76f1e-f4e2-4721-a358-ef8a277489b0" d="M302.06,323l-45.42-25.47c-5.71,4.75-11.52,11.87-16.69,22.44l47.12,26.43C295.13,338.64,299.89,330.57,302.06,323Z"/><path class="b1501d16-ca4e-4963-87ff-40059eb9b4ed" d="M241.87,408.51A20.91,20.91,0,0,1,221,385.78c4.26-47.56,16.59-78.87,36.63-93.07,14.76-10.46,28.1-7.23,28.66-7.1,9.71,2.07,17.05,9.57,19.51,20,3.77,16-4.61,34-22.4,48.14a51.7,51.7,0,0,0-14,16.62,67.25,67.25,0,0,0-6.56,20.09h0a21.42,21.42,0,0,1-10.64,15.31A21,21,0,0,1,241.87,408.51Zm38.59-117.13c-4.38,0-11.55,1.07-19.32,6.64-12.61,9-28.72,31.71-33.8,88.33a14.57,14.57,0,0,0,21.72,13.91,15.08,15.08,0,0,0,7.49-10.8h0a73.74,73.74,0,0,1,7.18-22,58.16,58.16,0,0,1,15.73-18.68c15.83-12.6,23.37-28.19,20.18-41.72-1.89-8-7.41-13.72-14.78-15.29A19.87,19.87,0,0,0,280.46,291.38Z"/></g></g></svg>