<svg xmlns="http://www.w3.org/2000/svg" viewBox="0 0 122.44 167.15"><defs><style>.a166eeac-ab0f-4d15-ae49-2fd97c0ea630{fill:#fff;}.b3f3b9bc-9b8f-42a9-a591-af318de6227b{fill:#727171;}.eba45762-7629-425d-88ec-5db0e067c46f{fill:#5aa64a;}.fd79313e-da71-4511-b57c-2dd966d229ba{fill:#428137;}.abf0e2c4-7e9c-4a4e-8f2c-57d91c392251{fill:#6fa347;}.b579b348-41be-4eb8-8bb2-281fecfcbfdd{fill:#2f6a25;}.f53ffc9f-f267-49b3-baec-06a94b4ed701{fill:#003b14;}.b3f39f00-fa89-40f7-9ca9-2c915a47bc3e{fill:#225214;}.fa9bd092-e47a-4f3b-8ceb-9a5c90b50298{fill:#1d4c1a;}</style></defs><title>綠</title><g id="af98ce8a-8aab-48c2-9df0-c2c973589e9a" data-name="圖層 2"><g id="a80b07e1-3809-4b8b-884f-e8807009ef72" data-name="圖層 1"><path class="a166eeac-ab0f-4d15-ae49-2fd97c0ea630" d="M81.28,3.33a13.13,13.13,0,0,1,4.85.9,14.86,14.86,0,0,1,7.62,7.28l0,.06c.16.31.31.62.46.94l.06.14c.14.3.27.6.4.91l.09.23c.11.29.23.59.33.88l.12.35c.09.27.19.55.27.82l.15.5c.07.24.14.48.2.73l.18.72c0,.19.09.38.13.57q.15.66.27,1.35l0,0,1.29-.29.58-.11.72-.14.75-.11.51-.07.86-.1.37,0,.94-.06h1.4c.35,0,.7,0,1,0H105a14.91,14.91,0,0,1,9.77,3.95c9.14,8.91,3.24,29.76-13.16,46.58C90.26,81,76.8,87.66,66.58,87.66A19.84,19.84,0,0,1,62,87.15h0c-.29-.06-.57-.14-.84-.22l-.2-.06-.77-.26L60,86.53q-.66-.25-1.29-.57l-.29-.14-.35-.19L33.94,124.71l1.07.69a3.54,3.54,0,0,1,1.05,4.89l-6.63,10.27a9.29,9.29,0,0,1-11.89,3.29l-14.21,20,12.36-21.15A9.55,9.55,0,0,1,14,130.2l6.46-10a3.53,3.53,0,0,1,3-1.62,3.46,3.46,0,0,1,1.91.57l1.07.69,25.73-38-.32-.24c-.09-.06-.17-.14-.25-.2-.36-.3-.71-.61-1.05-1l-.16-.15-.55-.6s-.09-.1-.13-.16c-7.11-8.28-7.69-26.08-.6-44.14,7.48-19,21-32,32.21-32m0-3.33h0C68.4,0,53.88,14,46,34.14c-7.44,18.94-7,38,1.16,47.53l.16.19.45.48L25.31,115.52a7.07,7.07,0,0,0-1.89-.26,6.84,6.84,0,0,0-5.77,3.13l-6.47,10a12.92,12.92,0,0,0,.39,14.72l-11.12,19A3.33,3.33,0,0,0,6,165.75l12.77-17.94a12.6,12.6,0,0,0,13.41-5.45l6.64-10.26a6.9,6.9,0,0,0-.53-8.17l21-34.08.63.2.24.07c.33.1.67.19,1,.27a23,23,0,0,0,5.35.6C78.05,91,92.4,83.58,104,71.65c8.31-8.52,14.34-18.35,17-27.67,2.83-10,1.46-18.41-3.87-23.61a18.34,18.34,0,0,0-11.89-4.89c-.48,0-.88,0-1.29-.05h-.32c-.32,0-.65,0-1,0h-.22l-1.12.07-.3,0h-.11l-1,.11-.42.06-.14,0-.13,0-.27,0c0-.09,0-.19-.08-.28l0-.1,0-.15-.12-.41c-.09-.3-.2-.61-.3-.91l0-.09-.1-.3c-.12-.34-.25-.66-.38-1l-3.12,1.14,3.09-1.22-.07-.19-.45-1-.07-.16c-.18-.37-.35-.73-.54-1.08l0-.08a18.28,18.28,0,0,0-9.34-8.82A16.52,16.52,0,0,0,81.28,0Z"/><polygon class="b3f3b9bc-9b8f-42a9-a591-af318de6227b" points="3.33 163.82 20.35 139.9 18.14 138.47 3.33 163.82"/><path class="eba45762-7629-425d-88ec-5db0e067c46f" d="M114.8,22.75c-4.19-4.08-10.82-4.94-18.35-3C95.08,12.06,91.58,6.37,86.13,4.23,74.26-.44,57.67,13.5,49.07,35.36S43.14,78.73,55,83.4l.23.08c.06,0,.11.12.17.17,9.13,8.91,29.83,2.5,46.23-14.32S123.94,31.66,114.8,22.75Z"/><path class="fd79313e-da71-4511-b57c-2dd966d229ba" d="M96.45,19.71a27.16,27.16,0,0,0-3.22-9.14L49.12,78.83A13.9,13.9,0,0,0,55,83.4l.23.08c.06,0,.11.12.17.17A13.74,13.74,0,0,0,62,87.15l44.11-68.26A27.14,27.14,0,0,0,96.45,19.71Z"/><path class="abf0e2c4-7e9c-4a4e-8f2c-57d91c392251" d="M84.33,43.85a2.93,2.93,0,0,0-.89-4h0a2.92,2.92,0,0,0-4,.84L25.33,121.46a4.52,4.52,0,0,0,1.31,6.29h0a4.5,4.5,0,0,0,6.26-1.39Z"/><path class="b579b348-41be-4eb8-8bb2-281fecfcbfdd" d="M20.44,120.2,14,130.2a9.51,9.51,0,0,0,2.45,13,9.3,9.3,0,0,0,13-2.67l6.63-10.27A3.54,3.54,0,0,0,35,125.4l-9.68-6.25A3.54,3.54,0,0,0,20.44,120.2Z"/><rect class="f53ffc9f-f267-49b3-baec-06a94b4ed701" x="18.18" y="125.37" width="18.6" height="2.15" transform="translate(73.03 5.33) rotate(32.87)"/><rect class="f53ffc9f-f267-49b3-baec-06a94b4ed701" x="15.9" y="128.9" width="18.6" height="2.15" transform="translate(74.58 7.13) rotate(32.87)"/><rect class="f53ffc9f-f267-49b3-baec-06a94b4ed701" x="13.62" y="132.43" width="18.6" height="2.15" transform="translate(76.13 8.94) rotate(32.87)"/><path class="a166eeac-ab0f-4d15-ae49-2fd97c0ea630" d="M17.27,141.72a.84.84,0,0,1-.66-.32,8.45,8.45,0,0,1-1.8-5.24,10.45,10.45,0,0,1,1.76-5.87l5.73-8.88a.86.86,0,0,1,1.17-.25.84.84,0,0,1,.24,1.17L18,131.2a8.87,8.87,0,0,0-1.49,4.93,6.84,6.84,0,0,0,1.44,4.23.84.84,0,0,1-.66,1.36Z"/><path class="a166eeac-ab0f-4d15-ae49-2fd97c0ea630" d="M40.06,111.84a.46.46,0,0,1-.22-.06.42.42,0,0,1-.14-.58L58.83,79.66a.42.42,0,0,1,.72.44L40.42,111.64A.42.42,0,0,1,40.06,111.84Z"/><path class="a166eeac-ab0f-4d15-ae49-2fd97c0ea630" d="M54.88,37.33a.89.89,0,0,1-.35-.08.84.84,0,0,1-.42-1.11C60.49,22,67.86,13.44,76,10.84c6.43-2.06,10.85.47,11,.58a.82.82,0,0,1,.3,1.14.84.84,0,0,1-1.14.31,12.79,12.79,0,0,0-9.73-.41c-5.26,1.7-13.15,7.31-20.83,24.37A.84.84,0,0,1,54.88,37.33Z"/><path class="a166eeac-ab0f-4d15-ae49-2fd97c0ea630" d="M68.81,85.19a.85.85,0,0,1-.28-1.64c23.37-8.19,36.12-27.31,36.24-27.5a.84.84,0,0,1,1.41.92c-.13.2-13.16,19.79-37.09,28.17A.92.92,0,0,1,68.81,85.19Z"/><path class="b3f39f00-fa89-40f7-9ca9-2c915a47bc3e" d="M90.11,38.67a.85.85,0,0,1-.7-1.3L99,22.46a.84.84,0,0,1,1.41.91L90.82,38.28A.84.84,0,0,1,90.11,38.67Z"/><path class="fa9bd092-e47a-4f3b-8ceb-9a5c90b50298" d="M88.71,28.62l-31.6,16.2a2.78,2.78,0,0,0-.24,4.81L86.69,68.9A2.78,2.78,0,0,0,91,66.7l1.78-35.46A2.79,2.79,0,0,0,88.71,28.62Z"/><path class="a166eeac-ab0f-4d15-ae49-2fd97c0ea630" d="M86.51,70.41a7,7,0,0,1-3.85-1.15L58.2,53.46a7.12,7.12,0,0,1,.62-12.32L84.73,27.86a7.12,7.12,0,0,1,10.36,6.7L93.64,63.64a7.05,7.05,0,0,1-3.87,6A7.15,7.15,0,0,1,86.51,70.41ZM87,32.3,61.09,45.58a2.13,2.13,0,0,0-.18,3.69l24.45,15.8a2.13,2.13,0,0,0,3.29-1.68l1.46-29.08a2.13,2.13,0,0,0-3.1-2Z"/></g></g></svg>