<svg xmlns="http://www.w3.org/2000/svg" viewBox="0 0 122.44 167.15"><defs><style>.b6218b0b-b96a-4dad-a66f-99d10432ea99{fill:#fff;}.aa173551-10c1-437b-96ff-0edcca24c8bb{fill:#727171;}.f3f21a63-c38d-40a7-9af9-3f821b956392{fill:#ef7e00;}.a02c2387-29c4-43f9-9772-5dd26eef8f18{fill:#bd4400;}.be884c7b-e8d1-4dcc-b096-c309ea2403bc{fill:#e69d00;}.ee39e349-e86e-44cd-9fb3-e69135b3ac34{fill:#b45f00;}.fb397ed9-507e-43f9-a70a-978f041d90d3{fill:#7a4a0b;}.fe12d10f-b292-4b15-8595-e3cfbdec37e7{fill:#732c04;}.b50c237a-b865-4cd0-b5b0-d487f6a3d442{fill:#733d03;}</style></defs><title>橘</title><g id="f2343ebb-ffd0-493b-82bf-cdaa8c8a3525" data-name="圖層 2"><g id="e243a535-2cfd-4ed7-95f2-a7a4b0e64cbf" data-name="圖層 1"><path class="b6218b0b-b96a-4dad-a66f-99d10432ea99" d="M81.28,3.33a13.13,13.13,0,0,1,4.85.9,14.86,14.86,0,0,1,7.62,7.28l0,.06c.16.31.31.62.46.94l.06.14c.14.3.27.6.4.91l.09.23c.11.29.23.59.33.88l.12.35c.09.27.19.55.27.82l.15.5c.07.24.14.48.2.73l.18.72c0,.19.09.38.13.57q.15.66.27,1.35l0,0,1.29-.29.58-.11.72-.14.75-.11.51-.07.86-.1.37,0,.94-.06h1.4c.35,0,.7,0,1,0H105a14.91,14.91,0,0,1,9.77,3.95c9.14,8.91,3.24,29.76-13.16,46.58C90.26,81,76.8,87.66,66.59,87.66A19.86,19.86,0,0,1,62,87.15h0c-.29-.06-.57-.14-.84-.22l-.2-.06-.77-.26L60,86.53q-.66-.25-1.29-.57l-.29-.14-.35-.19L33.94,124.71l1.07.69a3.54,3.54,0,0,1,1.05,4.89l-6.63,10.27a9.29,9.29,0,0,1-11.89,3.29l-14.21,20,12.36-21.15A9.55,9.55,0,0,1,14,130.2l6.46-10a3.53,3.53,0,0,1,3-1.62,3.46,3.46,0,0,1,1.91.57l1.07.69,25.73-38-.32-.24c-.09-.06-.17-.14-.25-.2-.36-.3-.71-.61-1.05-1l-.16-.15-.55-.6s-.09-.1-.13-.16c-7.11-8.28-7.69-26.08-.6-44.14,7.48-19,21-32,32.21-32m0-3.33V0C68.4,0,53.88,14,46,34.14c-7.44,18.94-7,38,1.16,47.53l.17.19c.14.16.29.33.44.48L25.31,115.52a7.07,7.07,0,0,0-1.89-.26,6.84,6.84,0,0,0-5.77,3.13l-6.47,10a12.92,12.92,0,0,0,.39,14.72l-11.12,19A3.33,3.33,0,0,0,6,165.75l12.77-17.94a12.6,12.6,0,0,0,13.41-5.45l6.64-10.26a6.9,6.9,0,0,0-.53-8.17l21-34.08.63.2.22.06c.35.11.69.2,1,.28a23,23,0,0,0,5.36.6C78.05,91,92.4,83.58,104,71.65c8.31-8.52,14.34-18.35,17-27.67,2.83-10,1.46-18.41-3.87-23.61a18.34,18.34,0,0,0-11.89-4.89h-.1l-1.18,0h-.31c-.33,0-.67,0-1,0h-.25l-1.09.07-.3,0h-.11l-1,.11-.44.06-.13,0-.13,0-.26,0a2.76,2.76,0,0,0-.08-.27l0-.11,0-.16-.12-.4c-.09-.3-.2-.61-.3-.91l0-.09-.1-.3c-.12-.34-.25-.67-.38-1l-.1-.27-.45-1,0-.1c-.21-.43-.38-.79-.57-1.14l0-.09a18.34,18.34,0,0,0-9.34-8.81A16.52,16.52,0,0,0,81.28,0Z"/><polygon class="aa173551-10c1-437b-96ff-0edcca24c8bb" points="3.33 163.82 20.35 139.9 18.14 138.47 3.33 163.82"/><path class="f3f21a63-c38d-40a7-9af9-3f821b956392" d="M114.8,22.75c-4.19-4.08-10.82-4.94-18.35-3C95.08,12.06,91.58,6.37,86.13,4.23,74.26-.44,57.67,13.5,49.07,35.36S43.14,78.73,55,83.4l.23.08c.06,0,.11.12.17.17,9.13,8.91,29.83,2.5,46.23-14.32S123.94,31.66,114.8,22.75Z"/><path class="a02c2387-29c4-43f9-9772-5dd26eef8f18" d="M96.45,19.71a27.16,27.16,0,0,0-3.22-9.14L49.12,78.83A13.9,13.9,0,0,0,55,83.4l.23.08c.06,0,.11.12.17.17A13.74,13.74,0,0,0,62,87.15l44.11-68.26A27.14,27.14,0,0,0,96.45,19.71Z"/><path class="be884c7b-e8d1-4dcc-b096-c309ea2403bc" d="M84.33,43.85a2.93,2.93,0,0,0-.89-4h0a2.92,2.92,0,0,0-4,.84L25.33,121.46a4.52,4.52,0,0,0,1.31,6.29h0a4.5,4.5,0,0,0,6.26-1.39Z"/><path class="ee39e349-e86e-44cd-9fb3-e69135b3ac34" d="M20.44,120.2,14,130.2a9.51,9.51,0,0,0,2.45,13,9.3,9.3,0,0,0,13-2.67l6.63-10.27A3.54,3.54,0,0,0,35,125.4l-9.68-6.25A3.54,3.54,0,0,0,20.44,120.2Z"/><rect class="fb397ed9-507e-43f9-a70a-978f041d90d3" x="18.18" y="125.37" width="18.6" height="2.15" transform="translate(73.03 5.33) rotate(32.87)"/><rect class="fb397ed9-507e-43f9-a70a-978f041d90d3" x="15.9" y="128.9" width="18.6" height="2.15" transform="translate(74.58 7.13) rotate(32.87)"/><rect class="fb397ed9-507e-43f9-a70a-978f041d90d3" x="13.62" y="132.43" width="18.6" height="2.15" transform="translate(76.13 8.94) rotate(32.87)"/><path class="b6218b0b-b96a-4dad-a66f-99d10432ea99" d="M17.27,141.72a.83.83,0,0,1-.66-.32,8.45,8.45,0,0,1-1.8-5.24,10.43,10.43,0,0,1,1.76-5.87l5.73-8.88a.85.85,0,0,1,1.17-.25.84.84,0,0,1,.24,1.17L18,131.2a8.87,8.87,0,0,0-1.49,4.93,6.84,6.84,0,0,0,1.44,4.23.84.84,0,0,1-.66,1.36Z"/><path class="b6218b0b-b96a-4dad-a66f-99d10432ea99" d="M40.06,111.84a.46.46,0,0,1-.22-.06.42.42,0,0,1-.14-.58L58.83,79.66a.42.42,0,0,1,.72.44L40.42,111.64A.42.42,0,0,1,40.06,111.84Z"/><path class="b6218b0b-b96a-4dad-a66f-99d10432ea99" d="M54.88,37.33a.74.74,0,0,1-.35-.08.84.84,0,0,1-.42-1.11C60.49,22,67.86,13.44,76,10.84c6.42-2.05,10.84.47,11,.57a.84.84,0,0,1-.84,1.46,12.86,12.86,0,0,0-9.73-.41c-5.26,1.7-13.15,7.31-20.83,24.37A.84.84,0,0,1,54.88,37.33Z"/><path class="b6218b0b-b96a-4dad-a66f-99d10432ea99" d="M68.81,85.19a.85.85,0,0,1-.28-1.64c23.37-8.19,36.12-27.31,36.24-27.5a.84.84,0,0,1,1.41.92c-.13.2-13.16,19.78-37.09,28.17A.92.92,0,0,1,68.81,85.19Z"/><path class="fe12d10f-b292-4b15-8595-e3cfbdec37e7" d="M90.11,38.67a.85.85,0,0,1-.7-1.3L99,22.46a.84.84,0,0,1,1.41.91L90.82,38.28A.84.84,0,0,1,90.11,38.67Z"/><rect class="b50c237a-b865-4cd0-b5b0-d487f6a3d442" x="61.76" y="30.44" width="34.02" height="33.25" rx="4.62" transform="translate(38.16 -35.22) rotate(32.87)"/><path class="b6218b0b-b96a-4dad-a66f-99d10432ea99" d="M75.81,26.82A7.59,7.59,0,0,1,80,28L95.63,38.17a7.68,7.68,0,0,1,2.28,10.61l-9.71,15A7.7,7.7,0,0,1,77.58,66.1L61.91,56a7.7,7.7,0,0,1-2.28-10.62l9.71-15a7.67,7.67,0,0,1,6.47-3.5m0-5h0a12.64,12.64,0,0,0-10.66,5.78l-9.71,15A12.69,12.69,0,0,0,59.2,60.16L74.88,70.29a12.68,12.68,0,0,0,17.51-3.77l9.71-15A12.67,12.67,0,0,0,98.34,34L82.66,23.85a12.58,12.58,0,0,0-6.85-2Z"/></g></g></svg>