<svg xmlns="http://www.w3.org/2000/svg" viewBox="0 0 122.44 167.15"><defs><style>.ffb6136d-b536-4b14-a049-b5a9bf2be96c{fill:#fff;}.fd34d0f3-3aa0-40c9-ac69-6c467cd08159{fill:#727171;}.bdbfb28f-5c69-44d5-873d-558f10d25cef{fill:#7b4a9a;}.a1cb332b-7e79-4b46-9770-2120543a1f79{fill:#5c075c;}.a149b5d5-f985-4c3a-893f-d4b6ffd860dd{fill:#9c1c84;}.fcebfd30-6b2b-4903-971b-b9b5a6e8ab74{fill:#700055;}.b42b6eb3-678c-4d11-9f0f-19454e08dc9f{fill:#381b3b;}.a0daab07-f865-4a0a-b7f3-81cc3eb4f252{fill:#36033c;}.bb9b79bc-b4c3-427b-980c-1b00aa26f020{fill:#451f4f;}</style></defs><title>紫</title><g id="b8df1fff-739a-4d9a-8d19-d1e1bc14ebfb" data-name="圖層 2"><g id="b21adf82-152e-452c-8023-0b1f8bae6572" data-name="圖層 1"><path class="ffb6136d-b536-4b14-a049-b5a9bf2be96c" d="M81.28,3.33a13.13,13.13,0,0,1,4.85.9,14.86,14.86,0,0,1,7.62,7.28l0,.06c.16.31.31.62.46.94l.06.14c.14.3.27.6.4.91l.09.23c.12.29.23.59.33.88l.12.35c.09.27.19.55.27.82l.15.5c.07.24.14.48.2.73l.18.72c0,.19.09.38.13.57q.15.66.27,1.35l0,0,1.29-.29.58-.11.72-.14.75-.11.51-.07.86-.1.37,0,.94-.06h1.4c.35,0,.7,0,1,0H105a14.91,14.91,0,0,1,9.77,3.95c9.14,8.91,3.24,29.76-13.16,46.58C90.26,81,76.8,87.66,66.59,87.66A19.86,19.86,0,0,1,62,87.15h0c-.29-.06-.57-.14-.84-.22l-.2-.06-.77-.26L60,86.53q-.66-.25-1.29-.57l-.29-.14-.35-.19L33.94,124.71l1.07.69a3.54,3.54,0,0,1,1.05,4.89l-6.63,10.27a9.29,9.29,0,0,1-11.89,3.29l-14.21,20,12.36-21.15A9.55,9.55,0,0,1,14,130.2l6.46-10a3.53,3.53,0,0,1,3-1.62,3.46,3.46,0,0,1,1.91.57l1.07.69,25.73-38-.32-.24c-.09-.06-.17-.14-.25-.2-.36-.3-.71-.61-1.05-1l-.16-.15-.55-.6s-.09-.1-.13-.16c-7.11-8.28-7.69-26.08-.6-44.14,7.48-19,21-32,32.21-32m0-3.33V0C68.4,0,53.88,14,46,34.14c-7.44,18.94-7,38,1.16,47.53l.17.19c.14.16.29.33.44.48L25.31,115.52a7.07,7.07,0,0,0-1.89-.26,6.84,6.84,0,0,0-5.77,3.13l-6.47,10a12.92,12.92,0,0,0,.39,14.72l-11.12,19A3.33,3.33,0,0,0,6,165.75l12.77-17.94a12.6,12.6,0,0,0,13.41-5.45l6.64-10.26a6.9,6.9,0,0,0-.53-8.17l21-34.08.63.2.22.07,1,.27a23,23,0,0,0,5.36.6C78.05,91,92.4,83.58,104,71.65c8.31-8.52,14.34-18.35,17-27.67,2.83-10,1.46-18.41-3.87-23.61a18.34,18.34,0,0,0-11.89-4.89h-.1l-1.18,0h-.31c-.33,0-.67,0-1,0h-.25l-1.09.07-.3,0h-.11l-1,.11-.44.06-.13,0-.13,0-.26,0c0-.09,0-.18-.08-.28l0-.1,0-.16-.12-.4c-.09-.3-.2-.61-.3-.91l0-.1-.1-.29c-.12-.34-.25-.67-.38-1l0-.08-.07-.19-.45-1-.06-.12c-.19-.4-.36-.76-.55-1.11l0-.08a18.32,18.32,0,0,0-9.34-8.82A16.52,16.52,0,0,0,81.28,0Z"/><polygon class="fd34d0f3-3aa0-40c9-ac69-6c467cd08159" points="3.33 163.82 20.35 139.9 18.14 138.47 3.33 163.82"/><path class="bdbfb28f-5c69-44d5-873d-558f10d25cef" d="M114.8,22.75c-4.19-4.08-10.82-4.94-18.35-3C95.08,12.06,91.58,6.37,86.13,4.23,74.26-.44,57.67,13.5,49.07,35.36S43.14,78.73,55,83.4l.23.08c.06,0,.11.12.17.17,9.13,8.91,29.83,2.5,46.23-14.32S123.94,31.66,114.8,22.75Z"/><path class="a1cb332b-7e79-4b46-9770-2120543a1f79" d="M96.45,19.71a27.16,27.16,0,0,0-3.22-9.14L49.12,78.83A13.9,13.9,0,0,0,55,83.4l.23.08c.06,0,.11.12.17.17A13.74,13.74,0,0,0,62,87.15l44.11-68.26A27.14,27.14,0,0,0,96.45,19.71Z"/><path class="a149b5d5-f985-4c3a-893f-d4b6ffd860dd" d="M84.33,43.85a2.93,2.93,0,0,0-.89-4h0a2.92,2.92,0,0,0-4,.84L25.33,121.46a4.52,4.52,0,0,0,1.31,6.29h0a4.5,4.5,0,0,0,6.26-1.39Z"/><path class="fcebfd30-6b2b-4903-971b-b9b5a6e8ab74" d="M20.44,120.2,14,130.2a9.51,9.51,0,0,0,2.45,13,9.3,9.3,0,0,0,13-2.67l6.63-10.27A3.54,3.54,0,0,0,35,125.4l-9.68-6.25A3.54,3.54,0,0,0,20.44,120.2Z"/><rect class="b42b6eb3-678c-4d11-9f0f-19454e08dc9f" x="18.18" y="125.37" width="18.6" height="2.15" transform="translate(73.03 5.33) rotate(32.87)"/><rect class="b42b6eb3-678c-4d11-9f0f-19454e08dc9f" x="15.9" y="128.9" width="18.6" height="2.15" transform="translate(74.58 7.13) rotate(32.87)"/><rect class="b42b6eb3-678c-4d11-9f0f-19454e08dc9f" x="13.62" y="132.43" width="18.6" height="2.15" transform="matrix(0.84, 0.54, -0.54, 0.84, 76.13, 8.94)"/><path class="ffb6136d-b536-4b14-a049-b5a9bf2be96c" d="M17.27,141.72a.84.84,0,0,1-.66-.32,8.45,8.45,0,0,1-1.8-5.24,10.45,10.45,0,0,1,1.76-5.87l5.73-8.88a.86.86,0,0,1,1.17-.25.84.84,0,0,1,.24,1.17L18,131.2a8.87,8.87,0,0,0-1.49,4.93,6.84,6.84,0,0,0,1.44,4.23.84.84,0,0,1-.66,1.36Z"/><path class="ffb6136d-b536-4b14-a049-b5a9bf2be96c" d="M40.06,111.84a.46.46,0,0,1-.22-.06.42.42,0,0,1-.14-.58L58.83,79.66a.42.42,0,0,1,.72.44L40.42,111.64A.42.42,0,0,1,40.06,111.84Z"/><path class="ffb6136d-b536-4b14-a049-b5a9bf2be96c" d="M54.88,37.33a.89.89,0,0,1-.35-.08.84.84,0,0,1-.42-1.11C60.49,22,67.86,13.44,76,10.84c6.43-2.06,10.85.47,11,.58a.82.82,0,0,1,.3,1.14.84.84,0,0,1-1.14.31,12.79,12.79,0,0,0-9.73-.41c-5.26,1.7-13.15,7.31-20.83,24.37A.84.84,0,0,1,54.88,37.33Z"/><path class="ffb6136d-b536-4b14-a049-b5a9bf2be96c" d="M68.81,85.19a.85.85,0,0,1-.28-1.64c23.37-8.19,36.12-27.31,36.24-27.5a.84.84,0,0,1,1.41.92c-.13.2-13.16,19.78-37.09,28.17A.92.92,0,0,1,68.81,85.19Z"/><path class="a0daab07-f865-4a0a-b7f3-81cc3eb4f252" d="M90.11,38.67a.85.85,0,0,1-.7-1.3L99,22.46a.84.84,0,0,1,1.41.91L90.82,38.28A.84.84,0,0,1,90.11,38.67Z"/><path class="bb9b79bc-b4c3-427b-980c-1b00aa26f020" d="M95.34,36.82,80.49,28.25a4.76,4.76,0,0,0-4.76,0L60.88,36.82A4.77,4.77,0,0,0,58.5,41V58.09a4.76,4.76,0,0,0,2.38,4.12l14.85,8.58a4.76,4.76,0,0,0,4.76,0l14.85-8.58a4.76,4.76,0,0,0,2.38-4.12V41A4.77,4.77,0,0,0,95.34,36.82Z"/><path class="ffb6136d-b536-4b14-a049-b5a9bf2be96c" d="M78.11,73.43A10.51,10.51,0,0,1,72.9,72L61.21,65.29a10.46,10.46,0,0,1-5.21-9V42.77a10.44,10.44,0,0,1,5.21-9L72.9,27a10.48,10.48,0,0,1,10.42,0L95,33.75a10.44,10.44,0,0,1,5.2,9v13.5a10.45,10.45,0,0,1-5.2,9L83.32,72A10.51,10.51,0,0,1,78.11,73.43Zm0-42.83a5.42,5.42,0,0,0-2.71.72L63.71,38.07A5.44,5.44,0,0,0,61,42.77v13.5A5.44,5.44,0,0,0,63.71,61L75.4,67.72a5.46,5.46,0,0,0,5.42,0L92.51,61a5.44,5.44,0,0,0,2.72-4.7V42.77a5.44,5.44,0,0,0-2.72-4.7L80.82,31.32A5.42,5.42,0,0,0,78.11,30.6Z"/></g></g></svg>