<svg xmlns="http://www.w3.org/2000/svg" viewBox="0 0 122.44 167.15"><defs><style>.b199ea96-a103-4bc7-85df-5d42eeb413ef{fill:#727171;}.a926448b-14da-4920-8b66-c2a8ea5ceb4e{fill:#ce302a;}.b84bf4de-a2d5-4b2a-a16a-c4abf247e3f3{fill:#8e1913;}.b831ab17-0ba0-45d6-b75c-dab0806f4435{fill:#ab1d27;}.fe43b609-c94c-43e5-b354-4cf89eb935e8{fill:#770d06;}.fcec3e15-d73a-4d03-b9da-cd49af24d3c3{fill:#480000;}.f370f698-a3c6-47c7-a841-4efa4a53685d{fill:#fff;}.b66408b7-3517-4386-86d7-1e3983fce6d1{fill:#5b0000;}.ad89507c-1e3f-453b-ba60-6d2f0c7d6ae0{fill:#7e0101;}</style></defs><title>紅</title><g id="baeb5c21-3575-4a7b-bb4e-2bc787ec7c53" data-name="圖層 2"><g id="acbfd38e-ca1e-4fef-ac97-405366ed3da8" data-name="圖層 1"><polygon class="b199ea96-a103-4bc7-85df-5d42eeb413ef" points="3.33 163.82 20.35 139.9 18.14 138.47 3.33 163.82"/><path class="a926448b-14da-4920-8b66-c2a8ea5ceb4e" d="M114.8,22.75c-4.19-4.08-10.82-4.94-18.35-3C95.08,12.06,91.58,6.37,86.13,4.23,74.26-.44,57.67,13.5,49.07,35.36S43.14,78.73,55,83.4l.23.08c.06,0,.11.12.17.17,9.13,8.91,29.83,2.5,46.23-14.32S123.94,31.66,114.8,22.75Z"/><path class="b84bf4de-a2d5-4b2a-a16a-c4abf247e3f3" d="M96.45,19.71a27.16,27.16,0,0,0-3.22-9.14L49.12,78.83A13.9,13.9,0,0,0,55,83.4l.23.08c.06,0,.11.12.17.17A13.74,13.74,0,0,0,62,87.15l44.11-68.26A27.14,27.14,0,0,0,96.45,19.71Z"/><path class="b831ab17-0ba0-45d6-b75c-dab0806f4435" d="M84.33,43.85a2.93,2.93,0,0,0-.89-4h0a2.92,2.92,0,0,0-4,.84L25.33,121.46a4.52,4.52,0,0,0,1.31,6.29h0a4.5,4.5,0,0,0,6.26-1.39Z"/><path class="fe43b609-c94c-43e5-b354-4cf89eb935e8" d="M20.44,120.2,14,130.2a9.51,9.51,0,0,0,2.45,13,9.3,9.3,0,0,0,13-2.67l6.63-10.27A3.54,3.54,0,0,0,35,125.4l-9.68-6.25A3.54,3.54,0,0,0,20.44,120.2Z"/><rect class="fcec3e15-d73a-4d03-b9da-cd49af24d3c3" x="18.18" y="125.37" width="18.6" height="2.15" transform="translate(73.03 5.33) rotate(32.87)"/><rect class="fcec3e15-d73a-4d03-b9da-cd49af24d3c3" x="15.9" y="128.9" width="18.6" height="2.15" transform="translate(74.58 7.13) rotate(32.87)"/><rect class="fcec3e15-d73a-4d03-b9da-cd49af24d3c3" x="13.62" y="132.43" width="18.6" height="2.15" transform="translate(76.13 8.94) rotate(32.87)"/><path class="f370f698-a3c6-47c7-a841-4efa4a53685d" d="M17.27,141.72a.84.84,0,0,1-.66-.32,8.45,8.45,0,0,1-1.8-5.24,10.4,10.4,0,0,1,1.76-5.87l5.73-8.88a.85.85,0,1,1,1.42.92L18,131.2a8.85,8.85,0,0,0-1.49,4.93,6.84,6.84,0,0,0,1.44,4.23.84.84,0,0,1-.66,1.36Z"/><path class="f370f698-a3c6-47c7-a841-4efa4a53685d" d="M40.06,111.84a.46.46,0,0,1-.22-.06.42.42,0,0,1-.14-.58L58.83,79.66a.42.42,0,0,1,.72.44L40.42,111.64A.42.42,0,0,1,40.06,111.84Z"/><path class="f370f698-a3c6-47c7-a841-4efa4a53685d" d="M54.88,37.33a.74.74,0,0,1-.35-.08.84.84,0,0,1-.42-1.11C60.49,22,67.86,13.44,76,10.84c6.42-2.05,10.84.47,11,.57a.84.84,0,0,1-.84,1.46,12.86,12.86,0,0,0-9.73-.41c-5.26,1.7-13.15,7.31-20.83,24.37A.84.84,0,0,1,54.88,37.33Z"/><path class="f370f698-a3c6-47c7-a841-4efa4a53685d" d="M68.81,85.19a.85.85,0,0,1-.28-1.64c23.37-8.19,36.12-27.31,36.24-27.5a.84.84,0,0,1,1.41.92c-.13.2-13.16,19.78-37.09,28.17A.92.92,0,0,1,68.81,85.19Z"/><path class="b66408b7-3517-4386-86d7-1e3983fce6d1" d="M90.11,38.67a.85.85,0,0,1-.45-.14.83.83,0,0,1-.25-1.16L99,22.46a.84.84,0,0,1,1.41.91L90.82,38.28A.84.84,0,0,1,90.11,38.67Z"/><path class="f370f698-a3c6-47c7-a841-4efa4a53685d" d="M81.28,3.33a13.13,13.13,0,0,1,4.85.9,14.86,14.86,0,0,1,7.62,7.28l0,.06c.16.31.31.62.46.94l.06.14c.14.3.27.6.4.91l.09.23c.11.29.23.59.33.88l.12.35c.09.27.19.55.27.82l.15.5c.07.24.14.48.2.73l.18.72c0,.19.09.38.13.57q.15.66.27,1.35l0,0,1.29-.29.58-.11.72-.14.75-.11.51-.07.86-.1.37,0,.94-.06h1.4c.35,0,.7,0,1,0H105a14.91,14.91,0,0,1,9.77,3.95c9.14,8.91,3.24,29.76-13.16,46.58C90.26,81,76.8,87.66,66.59,87.66A19.86,19.86,0,0,1,62,87.15h0c-.29-.06-.57-.14-.84-.22l-.2-.06-.77-.26L60,86.53q-.66-.25-1.29-.57l-.29-.14-.35-.19L33.94,124.71l1.07.69a3.54,3.54,0,0,1,1.05,4.89l-6.63,10.27a9.29,9.29,0,0,1-11.89,3.29l-14.21,20,12.36-21.15A9.55,9.55,0,0,1,14,130.2l6.46-10a3.53,3.53,0,0,1,3-1.62,3.46,3.46,0,0,1,1.91.57l1.07.69,25.73-38-.32-.24c-.09-.06-.17-.14-.25-.2-.36-.3-.71-.61-1.05-1l-.16-.15-.55-.6s-.09-.1-.13-.16c-7.11-8.28-7.69-26.08-.6-44.14,7.48-19,21-32,32.21-32m0-3.33V0C68.4,0,53.88,14,46,34.14c-7.44,18.94-7,38,1.16,47.53l.17.19c.14.16.29.33.44.48L25.31,115.52a7.07,7.07,0,0,0-1.89-.26,6.84,6.84,0,0,0-5.77,3.13l-6.47,10a12.92,12.92,0,0,0,.39,14.72l-11.12,19A3.33,3.33,0,0,0,6,165.75l12.77-17.94a12.6,12.6,0,0,0,13.41-5.45l6.64-10.26a6.9,6.9,0,0,0-.53-8.17l21-34.08.63.2.22.07,1,.27a23,23,0,0,0,5.36.6C78.05,91,92.4,83.58,104,71.65c8.31-8.52,14.34-18.35,17-27.67,2.83-10,1.46-18.41-3.87-23.61a18.34,18.34,0,0,0-11.89-4.89h-.1l-1.18,0h-.31c-.33,0-.67,0-1,0h-.22l-1.12.06-.3,0h-.11l-1,.11-.43.06-.13,0-.16,0-.24,0c0-.09,0-.19-.08-.28l0-.1,0-.16-.12-.4c-.09-.3-.2-.61-.3-.91l0-.1-.1-.29c-.12-.34-.25-.67-.38-1l0-.09-.07-.17c-.15-.36-.3-.7-.45-1l-.08-.16c-.17-.37-.34-.73-.53-1.08l0-.09a18.34,18.34,0,0,0-9.34-8.81A16.52,16.52,0,0,0,81.28,0Z"/><circle class="ad89507c-1e3f-453b-ba60-6d2f0c7d6ae0" cx="78.77" cy="47.07" r="16.84"/><path class="f370f698-a3c6-47c7-a841-4efa4a53685d" d="M78.77,30.23A16.84,16.84,0,1,1,61.93,47.07,16.84,16.84,0,0,1,78.77,30.23m0-5A21.83,21.83,0,1,0,100.6,47.07,21.86,21.86,0,0,0,78.77,25.24Z"/></g></g></svg>