<svg xmlns="http://www.w3.org/2000/svg" viewBox="0 0 170.08 170.08"><defs><style>.ad9f305a-5bbe-4370-90f6-40027932ea58,.b15bcf06-9ec3-4337-b788-af044d2d0e0c,.be7fc251-d38f-452d-a9d1-ea6688bb9bc5,.e874da17-0b0c-4d75-96c1-94edffa02894,.e88bd3b6-0f94-44e2-bf56-1c4cf6dacc6a,.fa302cce-753d-41d4-b711-b23ec5f3b851{fill:none;}.fb57d2e2-2a82-4b05-9c47-4a0d1748d12d,.fe257130-df02-46e3-8a2c-50855c2efc7b{fill:#fff;}.a16a9309-5d4b-4a0f-9f34-91eea914fbdf{fill:#f3b340;}.fd8a4c02-cc61-42f6-8e20-4c08caeee878{fill:#fffcdb;}.fd946324-b9c8-4af7-9c76-e633c60da49d{fill:#f5ce2e;}.afd31c3e-d7c0-444a-9d5d-5415e9318f84,.fd946324-b9c8-4af7-9c76-e633c60da49d{stroke:#f1d6b3;}.afd31c3e-d7c0-444a-9d5d-5415e9318f84,.b15bcf06-9ec3-4337-b788-af044d2d0e0c,.be7fc251-d38f-452d-a9d1-ea6688bb9bc5,.e73ed46e-6da8-4626-a683-1488b88b31dc,.e874da17-0b0c-4d75-96c1-94edffa02894,.e88bd3b6-0f94-44e2-bf56-1c4cf6dacc6a,.f00267b1-6e8b-4db9-9131-838ce4ccf7a3,.fa302cce-753d-41d4-b711-b23ec5f3b851,.fd946324-b9c8-4af7-9c76-e633c60da49d,.fe257130-df02-46e3-8a2c-50855c2efc7b{stroke-miterlimit:10;}.afd31c3e-d7c0-444a-9d5d-5415e9318f84,.f00267b1-6e8b-4db9-9131-838ce4ccf7a3,.fd946324-b9c8-4af7-9c76-e633c60da49d{stroke-width:0.46px;}.e88bd3b6-0f94-44e2-bf56-1c4cf6dacc6a{stroke:#3b4f86;stroke-width:1.83px;}.afd31c3e-d7c0-444a-9d5d-5415e9318f84,.f00267b1-6e8b-4db9-9131-838ce4ccf7a3{fill:#f39800;}.b15bcf06-9ec3-4337-b788-af044d2d0e0c,.be7fc251-d38f-452d-a9d1-ea6688bb9bc5,.f00267b1-6e8b-4db9-9131-838ce4ccf7a3,.fa302cce-753d-41d4-b711-b23ec5f3b851{stroke:#fff;}.b15bcf06-9ec3-4337-b788-af044d2d0e0c,.be7fc251-d38f-452d-a9d1-ea6688bb9bc5,.fa302cce-753d-41d4-b711-b23ec5f3b851{stroke-width:0.23px;}.be7fc251-d38f-452d-a9d1-ea6688bb9bc5{stroke-dasharray:0.45 0.45;}.e874da17-0b0c-4d75-96c1-94edffa02894{stroke:#231815;stroke-width:0.69px;}.f8298b9f-4207-42cc-b221-8942964ee5e9{fill:#0b318f;}.fa302cce-753d-41d4-b711-b23ec5f3b851{stroke-linecap:round;}.b1a8346a-66da-4ead-96b5-8217cd650b23{fill:#f4ea92;}.e73ed46e-6da8-4626-a683-1488b88b31dc,.fe257130-df02-46e3-8a2c-50855c2efc7b{stroke:#898989;stroke-width:0.11px;}.e73ed46e-6da8-4626-a683-1488b88b31dc{fill:#898989;}</style></defs><title>背包</title><g id="f321513d-04c8-4569-aa1f-c0b7720b364d" data-name="圖層 2"><g id="a7c50f08-d83c-43f9-a86a-ee590d876d22" data-name="圖層 1"><path class="ad9f305a-5bbe-4370-90f6-40027932ea58" d="M26.53,124.78A109.66,109.66,0,0,1,170.08,20.52V0H0V170.08H36.33A109.3,109.3,0,0,1,26.53,124.78Z"/><path class="fb57d2e2-2a82-4b05-9c47-4a0d1748d12d" d="M26.53,124.78a109.3,109.3,0,0,0,9.8,45.3H49.5A97.82,97.82,0,0,1,170.08,33V20.52A109.66,109.66,0,0,0,26.53,124.78Z"/><path class="a16a9309-5d4b-4a0f-9f34-91eea914fbdf" d="M38.37,124.78a97.42,97.42,0,0,0,11.13,45.3H63.31A85.8,85.8,0,0,1,170.08,46V33A97.84,97.84,0,0,0,38.37,124.78Z"/><path class="fd8a4c02-cc61-42f6-8e20-4c08caeee878" d="M50.37,124.78a85.41,85.41,0,0,0,12.94,45.3H170.08V46A85.81,85.81,0,0,0,50.37,124.78Z"/><rect class="fd946324-b9c8-4af7-9c76-e633c60da49d" x="84.97" y="87.77" width="67.34" height="67.34" rx="20.08" transform="translate(237.29 242.88) rotate(-180)"/><path class="e88bd3b6-0f94-44e2-bf56-1c4cf6dacc6a" d="M113.33,79.48c0-6,2.37-10.9,5.24-10.9s5.2,4.87,5.24,10.9Z"/><rect class="afd31c3e-d7c0-444a-9d5d-5415e9318f84" x="90.17" y="76.87" width="56.81" height="30.1" rx="12.29" transform="translate(237.14 183.84) rotate(180)"/><rect class="f00267b1-6e8b-4db9-9131-838ce4ccf7a3" x="92.36" y="121.44" width="52.42" height="28" rx="10.08" transform="translate(237.14 270.88) rotate(-180)"/><line class="b15bcf06-9ec3-4337-b788-af044d2d0e0c" x1="144.56" y1="130.4" x2="144.33" y2="130.4"/><line class="be7fc251-d38f-452d-a9d1-ea6688bb9bc5" x1="143.87" y1="130.4" x2="93.19" y2="130.4"/><line class="b15bcf06-9ec3-4337-b788-af044d2d0e0c" x1="92.97" y1="130.4" x2="92.74" y2="130.4"/><rect class="e874da17-0b0c-4d75-96c1-94edffa02894" x="115.15" y="95.94" width="6.68" height="20.08" rx="3.34" transform="translate(236.97 211.96) rotate(180)"/><circle class="fb57d2e2-2a82-4b05-9c47-4a0d1748d12d" cx="118.48" cy="113.1" r="2.92"/><circle class="f8298b9f-4207-42cc-b221-8942964ee5e9" cx="118.48" cy="113.1" r="0.89"/><rect class="f8298b9f-4207-42cc-b221-8942964ee5e9" x="98.37" y="143.06" width="11.18" height="2.83" rx="1.41"/><line class="fa302cce-753d-41d4-b711-b23ec5f3b851" x1="108.04" y1="144.47" x2="99.89" y2="144.47"/><path class="b1a8346a-66da-4ead-96b5-8217cd650b23" d="M137.38,83.87a1.15,1.15,0,0,0,0-2.29,1.15,1.15,0,0,0,0,2.29Z"/><path class="b1a8346a-66da-4ead-96b5-8217cd650b23" d="M132.29,81.09q-12.58-.16-25.16.26c-1.47.05-1.47,2.33,0,2.28q12.59-.42,25.16-.25a1.15,1.15,0,0,0,0-2.29Z"/><path class="fe257130-df02-46e3-8a2c-50855c2efc7b" d="M94.62,131.46l.73,3.35a.55.55,0,0,1-.54.66h-2.1a.54.54,0,0,1-.53-.67l.83-3.35a.55.55,0,0,1,.54-.42h.53A.56.56,0,0,1,94.62,131.46Z"/><rect class="e73ed46e-6da8-4626-a683-1488b88b31dc" x="93.39" y="133.74" width="0.74" height="1.08" rx="0.37" transform="translate(187.52 268.56) rotate(180)"/><rect class="fe257130-df02-46e3-8a2c-50855c2efc7b" x="92.64" y="129.76" width="2.24" height="1.27" rx="0.64" transform="translate(187.52 260.8) rotate(-180)"/></g></g></svg>