<svg xmlns="http://www.w3.org/2000/svg" viewBox="0 0 1400 244.61"><defs><style>.b08b286e-8522-44ce-9d9b-25fac0f281a1{fill:#713e0a;}.ac903663-80d4-46aa-bcbb-9cea003e1972{fill:#673704;}.f6d2ba7a-f66c-41d1-a48b-3ee8fad062c5{fill:none;}.a20a1b21-023b-4d9b-bd83-8c7f1b60af28{fill:#00752e;}.b688e6f3-db51-47d2-a0e7-458b93b53553{fill:#157e25;}.a8de506c-0cc7-4269-9543-2c1ccbdb6cfd{fill:#006934;}.aed4e64d-3e90-4b35-9d32-b590fcc910b0{fill:#4d8719;}.b258a18d-f5ca-4d3f-8c4e-ecaf49f78e50{opacity:0.2;}.baf33eee-ad4d-43b7-84b1-198ffe03d17c{opacity:0.74;}.b4d81e1b-7fcb-4512-917b-74ba0fa1bc9d{fill:#40220f;}.a37ba819-831e-4201-86fd-4d9997424bf4{fill:#6b461b;}.a587949f-8474-4273-848b-71ec927df6f0{fill:#348220;}.e6903946-2c14-4a63-a130-2af192d6f22c{fill:#176a21;}.b362c648-7370-409f-9e4e-f9a6eb34c27a{fill:#548916;}.f6cfd798-f616-45c0-8ec5-3bab77031380{fill:#47861b;}.bc1b6cc3-e221-49d2-829d-e86a4a912edf{fill:#2e7f20;}</style></defs><title>bar</title><g id="fffd53c3-3db9-496b-826c-97532452fd7f" data-name="圖層 2"><g id="a29b83e4-eafb-4370-8a37-9b8e221d203f" data-name="圖層 1"><path class="b08b286e-8522-44ce-9d9b-25fac0f281a1" d="M338.94,81.55C528.26,93.07,1008.85,37.62,1055.42,34,1090.2,31.2,1278.5,5.43,1400,21.12V0H0V90.48C80.82,78.71,216.63,74.1,338.94,81.55Z"/><path class="ac903663-80d4-46aa-bcbb-9cea003e1972" d="M620.78,119.09c8.48-.5,19.72-1.33,33.08-2.43,15.26-1.26,33.27-2.85,53.06-4.7l15.15-1.42c12.87-1.23,26.34-2.54,40.17-3.91L779,105q8.44-.85,17-1.73c14.24-1.45,28.63-2.94,42.95-4.45L856,97l17-1.83,8.39-.91Q893.92,92.86,906,91.5l23.65-2.68,15-1.74,14.38-1.69c9.34-1.12,18.17-2.19,26.36-3.22s15.74-2,22.53-2.92c5.1-.69,9.77-1.34,14-2q4.18-.62,7.73-1.17c5.88-.93,10.33-1.74,13.12-2.4,1.67-.4,3.87-.86,6.54-1.36,1.78-.34,3.78-.7,6-1.08s4.57-.78,7.14-1.2c3.85-.63,8.12-1.3,12.74-2l9.7-1.46c6.77-1,14.11-2.06,21.92-3.17l12-1.68L1131.5,60c6.45-.88,13.09-1.77,19.87-2.68l6.83-.9,13.89-1.83c14-1.83,28.42-3.68,42.77-5.49l14.32-1.79c71.38-8.89,138.39-16.43,150.76-16.45,2.48,0,5,0,7.5,0l2.09,0,6.26.12,1.55,0,2.66.09V20.83c-121.5-15.69-309.8,10.08-344.58,12.82-46.57,3.68-527.16,59.13-716.48,47.61C216.63,73.81,80.82,78.41,0,90.18V194.12c32.2-14.88,84.14-35.31,137.73-41.59C225.2,142.26,567.26,122.27,620.78,119.09Z"/><path class="f6d2ba7a-f66c-41d1-a48b-3ee8fad062c5" d="M1397.34,31.39l-1.55,0c-2.09-.05-4.18-.08-6.26-.11l-2.09,0c-2.51,0-5,0-7.5,0-12.37,0-79.38,7.56-150.76,16.44l-14.32,1.8c-14.35,1.81-28.74,3.65-42.77,5.48l-13.89,1.83-6.83.91c-6.78.9-13.42,1.8-19.87,2.68l-12.64,1.73-12,1.69c-7.81,1.1-15.15,2.16-21.92,3.17-3.38.5-6.62,1-9.7,1.46-4.62.7-8.89,1.38-12.74,2-2.57.41-5,.82-7.14,1.2s-4.19.74-6,1.07c-2.67.51-4.87,1-6.54,1.36-2.79.67-7.24,1.47-13.12,2.4q-3.54.57-7.73,1.18c-4.19.61-8.86,1.26-14,2-6.79.92-14.34,1.9-22.53,2.92s-17,2.11-26.36,3.22q-7,.84-14.38,1.69t-15,1.74C922,90,914.11,90.89,906,91.79s-16.3,1.81-24.65,2.72l-8.39.91-17,1.83-17.12,1.82c-14.32,1.51-28.71,3-42.95,4.46l-17,1.72-16.74,1.67c-13.83,1.37-27.3,2.68-40.17,3.91l-15.15,1.43c-19.79,1.84-37.8,3.44-53.06,4.69-13.36,1.1-24.6,1.94-33.08,2.44-53.52,3.17-395.58,23.17-483,33.43C84.14,159.11,32.2,179.53,0,194.41v50.2H1400V31.48Z"/><path class="b08b286e-8522-44ce-9d9b-25fac0f281a1" d="M1008,79.54c-6.79.92-14.34,1.9-22.53,2.92C993.67,81.44,1001.22,80.46,1008,79.54Z"/><path class="b08b286e-8522-44ce-9d9b-25fac0f281a1" d="M1022,77.59c-4.19.61-8.86,1.26-14,2C1013.11,78.85,1017.78,78.2,1022,77.59Z"/><path class="b08b286e-8522-44ce-9d9b-25fac0f281a1" d="M1029.7,76.41q-3.54.57-7.73,1.18Q1026.16,77,1029.7,76.41Z"/><path class="b08b286e-8522-44ce-9d9b-25fac0f281a1" d="M929.69,89.11C922,90,914.11,90.89,906,91.79,914.11,90.89,922,90,929.69,89.11Z"/><path class="b08b286e-8522-44ce-9d9b-25fac0f281a1" d="M1055.33,71.58c-2.19.38-4.19.74-6,1.07C1051.14,72.32,1053.14,72,1055.33,71.58Z"/><path class="b08b286e-8522-44ce-9d9b-25fac0f281a1" d="M985.48,82.46c-8.19,1-17,2.11-26.36,3.22C968.46,84.57,977.29,83.49,985.48,82.46Z"/><path class="b08b286e-8522-44ce-9d9b-25fac0f281a1" d="M944.74,87.37q-7.37.87-15,1.74Q937.37,88.24,944.74,87.37Z"/><path class="b08b286e-8522-44ce-9d9b-25fac0f281a1" d="M1106.83,63.74c-7.81,1.1-15.15,2.16-21.92,3.17C1091.68,65.9,1099,64.84,1106.83,63.74Z"/><path class="b08b286e-8522-44ce-9d9b-25fac0f281a1" d="M906,91.79q-12.1,1.35-24.65,2.72Q893.92,93.14,906,91.79Z"/><path class="b08b286e-8522-44ce-9d9b-25fac0f281a1" d="M1118.86,62.05l-12,1.69Z"/><path class="b08b286e-8522-44ce-9d9b-25fac0f281a1" d="M1062.47,70.38c-2.57.41-5,.82-7.14,1.2C1057.52,71.2,1059.9,70.79,1062.47,70.38Z"/><path class="b08b286e-8522-44ce-9d9b-25fac0f281a1" d="M1172.09,54.9l-13.89,1.83Z"/><path class="b08b286e-8522-44ce-9d9b-25fac0f281a1" d="M1075.21,68.37c-4.62.7-8.89,1.38-12.74,2C1066.32,69.75,1070.59,69.07,1075.21,68.37Z"/><path class="b08b286e-8522-44ce-9d9b-25fac0f281a1" d="M1084.91,66.91c-3.38.5-6.62,1-9.7,1.46C1078.29,67.89,1081.53,67.41,1084.91,66.91Z"/><path class="b08b286e-8522-44ce-9d9b-25fac0f281a1" d="M1151.37,57.64c-6.78.9-13.42,1.8-19.87,2.68C1138,59.44,1144.59,58.54,1151.37,57.64Z"/><path class="b08b286e-8522-44ce-9d9b-25fac0f281a1" d="M1395.79,31.35c-2.09-.05-4.18-.08-6.26-.11C1391.61,31.27,1393.7,31.3,1395.79,31.35Z"/><path class="b08b286e-8522-44ce-9d9b-25fac0f281a1" d="M1029.7,76.41c5.88-.93,10.33-1.73,13.12-2.4,1.67-.4,3.87-.85,6.54-1.36-2.67.51-4.87,1-6.54,1.36C1040,74.68,1035.58,75.48,1029.7,76.41Z"/><path class="b08b286e-8522-44ce-9d9b-25fac0f281a1" d="M1387.44,31.21c-2.51,0-5,0-7.5,0C1382.42,31.17,1384.93,31.19,1387.44,31.21Z"/><path class="b08b286e-8522-44ce-9d9b-25fac0f281a1" d="M873,95.42l-17,1.83Z"/><path class="b08b286e-8522-44ce-9d9b-25fac0f281a1" d="M1400,31.48h0l-2.66-.08Z"/><path class="b08b286e-8522-44ce-9d9b-25fac0f281a1" d="M796,103.53l-17,1.72Z"/><path class="b08b286e-8522-44ce-9d9b-25fac0f281a1" d="M856,97.25l-17.12,1.82Z"/><path class="b08b286e-8522-44ce-9d9b-25fac0f281a1" d="M1229.18,47.62l-14.32,1.8Z"/><path class="b08b286e-8522-44ce-9d9b-25fac0f281a1" d="M779,105.25l-16.74,1.67Z"/><path class="b08b286e-8522-44ce-9d9b-25fac0f281a1" d="M722.07,110.83l-15.15,1.43Z"/><path class="a20a1b21-023b-4d9b-bd83-8c7f1b60af28" d="M1367.77,67.79c-119,22.23-152.33-18.74-152.33-18.74l-67,8.69s44.52,43.54,156,28.29C1359.56,78.47,1367.77,67.79,1367.77,67.79Z"/><path class="b688e6f3-db51-47d2-a0e7-458b93b53553" d="M1297,73.13s30.36,7.84,38.93-33.67C1335.89,39.46,1311.66,34,1297,73.13Z"/><path class="a20a1b21-023b-4d9b-bd83-8c7f1b60af28" d="M1217.88,85.52s-13.91,28.27,24.63,45.33C1242.51,130.85,1252.83,108.11,1217.88,85.52Z"/><path class="a8de506c-0cc7-4269-9543-2c1ccbdb6cfd" d="M1180.15,64.11c9.75,5.83,19.67,11.74,30.62,15A66,66,0,0,0,1244,80.23c2.54-.55,1.47-4.44-1.07-3.89-22.7,4.94-41.76-4.36-60.77-15.72-2.23-1.34-4.27,2.15-2,3.49Z"/><path class="a8de506c-0cc7-4269-9543-2c1ccbdb6cfd" d="M1221.84,99.51a35.66,35.66,0,0,0,12,23.18c.49.43,1.21-.28.72-.71a34.59,34.59,0,0,1-11.73-22.47c-.07-.64-1.08-.65-1,0Z"/><path class="a8de506c-0cc7-4269-9543-2c1ccbdb6cfd" d="M1328.38,45.16c-6,2-11,5.75-15.83,9.72-4.2,3.44-8.18,7-8.94,12.66-.09.64.89.91,1,.27.74-5.4,4.68-8.94,8.69-12.21,4.72-3.87,9.54-7.49,15.38-9.46.61-.21.35-1.19-.27-1Z"/><path class="a8de506c-0cc7-4269-9543-2c1ccbdb6cfd" d="M1282.82,78.24a50.93,50.93,0,0,0,20.12,3.15c.65,0,.65-1,0-1a50.45,50.45,0,0,1-19.85-3.12c-.61-.22-.88.75-.27,1Z"/><path class="aed4e64d-3e90-4b35-9d32-b590fcc910b0" d="M1199,63.88A77.58,77.58,0,0,0,1242.5,76.7c2.6,0,2.6-4.06,0-4a73.67,73.67,0,0,1-41.42-12.26c-2.18-1.44-4.21,2.06-2,3.48Z"/><g class="b258a18d-f5ca-4d3f-8c4e-ecaf49f78e50"><g class="baf33eee-ad4d-43b7-84b1-198ffe03d17c"><path class="b4d81e1b-7fcb-4512-917b-74ba0fa1bc9d" d="M143.53,26c28.08-.34,56.44.4,84.44-2.05,27.47-2.4,54-10.3,81-15.23,4.74-.87,2.73-8.09-2-7.23-27,4.92-53.49,12.91-80.95,15.12S171,18.13,143.53,18.46c-4.83.06-4.84,7.56,0,7.5Z"/></g><g class="baf33eee-ad4d-43b7-84b1-198ffe03d17c"><path class="b4d81e1b-7fcb-4512-917b-74ba0fa1bc9d" d="M3.05,72c36.46,7.13,73.55,7.19,110.37,3,37.32-4.22,73.65-13,110.49-19.87,21.77-4.08,44.11-6.66,66.17-3.3,4.72.71,6.75-6.51,2-7.24-37.52-5.7-74.48,4.29-111,11.72C144,63.85,106.34,70,68.38,70.37A312.92,312.92,0,0,1,5.05,64.71C.33,63.79-1.69,71,3.05,72Z"/></g><g class="baf33eee-ad4d-43b7-84b1-198ffe03d17c"><path class="b4d81e1b-7fcb-4512-917b-74ba0fa1bc9d" d="M106.81,120.67,289.69,73c29.76-7.75,59.63-17,90.16-21.21,29.47-4.06,58.47-.25,87.38,5.83,31.91,6.72,63.68,15.23,96.48,15.85,4.83.09,4.83-7.41,0-7.5C505,64.88,449.33,38,390.11,43.16c-30.26,2.65-59.66,11.49-88.93,19.12L208.77,86.35l-104,27.09c-4.66,1.22-2.69,8.45,2,7.23Z"/></g><g class="baf33eee-ad4d-43b7-84b1-198ffe03d17c"><path class="b4d81e1b-7fcb-4512-917b-74ba0fa1bc9d" d="M417.45,15.22c11.53,2.45,22.82.46,34.4-.29,12-.78,23.78,1,35.55,3.19,23.36,4.38,46.75,8.3,70.36,11.12q35.85,4.28,72,5.71c21.57.84,43.28,1.16,64.76-1.3,23.14-2.65,45.81-8.57,66.1-20.25,4.18-2.41.41-8.89-3.79-6.48C720.17,28,676.67,29,635.56,27.66a905,905,0,0,1-139.47-15.5c-12.4-2.36-24.91-4.93-37.59-5-13,0-26.11,3.54-39.05.79-4.71-1-6.72,6.23-2,7.23Z"/></g><g class="baf33eee-ad4d-43b7-84b1-198ffe03d17c"><path class="b4d81e1b-7fcb-4512-917b-74ba0fa1bc9d" d="M277.5,121.75a217.19,217.19,0,0,1,90.2-27.17c33.79-2.39,67.36,3.33,100.62,8.53,33.56,5.24,67.07,8.64,101.07,8.54s68-3,101.8-7.2c38.17-4.79,76.08-11.34,114-17.94,4.75-.83,2.74-8.06-2-7.23-68.43,11.92-137.28,23.85-206.92,24.81-34.64.47-68.84-2.46-103-7.77-33-5.12-66.35-11.08-99.93-9.56a225.66,225.66,0,0,0-99.54,28.51c-4.22,2.36-.44,8.84,3.78,6.48Z"/></g><g class="baf33eee-ad4d-43b7-84b1-198ffe03d17c"><path class="b4d81e1b-7fcb-4512-917b-74ba0fa1bc9d" d="M4.05,106.68c15.64.07,31.35.07,46.83,2.59,4.72.77,6.75-6.45,2-7.23-16.16-2.63-32.48-2.79-48.82-2.86-4.83,0-4.83,7.48,0,7.5Z"/></g><g class="baf33eee-ad4d-43b7-84b1-198ffe03d17c"><path class="b4d81e1b-7fcb-4512-917b-74ba0fa1bc9d" d="M4.05,151.6c49.68-5.1,101.94,9.09,150-8.64,4.49-1.65,2.55-8.9-2-7.23-47.34,17.47-99,3.34-148,8.37-4.76.49-4.81,8,0,7.5Z"/></g><g class="baf33eee-ad4d-43b7-84b1-198ffe03d17c"><path class="b4d81e1b-7fcb-4512-917b-74ba0fa1bc9d" d="M621.42,71.59c48.34,5.75,96,1.41,143.5-8.48,46.44-9.67,92.51-22.69,140.12-25,26.15-1.3,52.37.75,77.55,8.2,4.63,1.37,6.61-5.86,2-7.23-93.85-27.77-186.8,17.33-279.73,26.16a392.41,392.41,0,0,1-83.43-1.1c-4.78-.56-4.74,6.94,0,7.5Z"/></g><g class="baf33eee-ad4d-43b7-84b1-198ffe03d17c"><path class="b4d81e1b-7fcb-4512-917b-74ba0fa1bc9d" d="M813.15,16.41l32.15-1.29c4.81-.19,4.83-7.69,0-7.5L813.15,8.91c-4.81.19-4.83,7.69,0,7.5Z"/></g><g class="baf33eee-ad4d-43b7-84b1-198ffe03d17c"><path class="b4d81e1b-7fcb-4512-917b-74ba0fa1bc9d" d="M934,14.23c35.15.63,70.39,1.32,105.25,6.29,16.74,2.39,33.4,5.37,50.22,7.13A363,363,0,0,0,1141.77,29c20.17-.8,40.27-2.78,60.35-4.76,4.76-.47,4.81-8,0-7.5-35.15,3.47-70.56,7-105.88,4-17.49-1.45-34.78-4.54-52.14-7.08Q1018.95,10,993.57,8.59C973.72,7.44,953.83,7.09,934,6.73c-4.83-.08-4.83,7.42,0,7.5Z"/></g><g class="baf33eee-ad4d-43b7-84b1-198ffe03d17c"><path class="b4d81e1b-7fcb-4512-917b-74ba0fa1bc9d" d="M1072.13,8.27c21.69,1.87,43.39,4.11,65.12,5.52a175.35,175.35,0,0,0,31.83-.4c10.07-1.19,20-3.32,29.92-5.26,4.73-.92,2.73-8.15-2-7.23-9.88,1.93-19.75,4.13-29.77,5.19a182.2,182.2,0,0,1-31.94.06c-21.08-1.47-42.12-3.56-63.17-5.38-4.81-.42-4.78,7.09,0,7.5Z"/></g><g class="baf33eee-ad4d-43b7-84b1-198ffe03d17c"><path class="b4d81e1b-7fcb-4512-917b-74ba0fa1bc9d" d="M842.41,75.4c33.78-19.23,73.84-9.66,110-5,39,5,77-.51,115.62-6.22,22.09-3.27,44.27-6.16,66.65-6.22,4.82,0,4.83-7.51,0-7.5-40.15.11-79.36,9.45-119.17,13.26a276.14,276.14,0,0,1-59.32-.34c-19.85-2.39-39.57-6.41-59.61-7s-40.37,2.46-58,12.49c-4.2,2.39-.42,8.87,3.78,6.48Z"/></g><g class="baf33eee-ad4d-43b7-84b1-198ffe03d17c"><path class="b4d81e1b-7fcb-4512-917b-74ba0fa1bc9d" d="M1016,52a357.63,357.63,0,0,1,54.26-2.09c14.54.57,30.82,4,44-4.12,4.09-2.54.33-9-3.79-6.47-12.57,7.79-30.19,3.35-44.11,3A358.25,358.25,0,0,0,1016,44.52c-4.74.54-4.8,8,0,7.5Z"/></g><g class="baf33eee-ad4d-43b7-84b1-198ffe03d17c"><path class="b4d81e1b-7fcb-4512-917b-74ba0fa1bc9d" d="M8.12,43.14c9.11-2.08,18.22.46,27.36,1,8.41.47,16.84-.74,25.05-2.48,17.25-3.67,34.06-10,52-9,4.82.28,4.8-7.22,0-7.5-18-1-35,5-52.26,8.88C51.49,36,42.67,37.2,33.7,36.49c-9.33-.74-18.27-2.71-27.58-.58-4.7,1.08-2.71,8.31,2,7.23Z"/></g><g class="baf33eee-ad4d-43b7-84b1-198ffe03d17c"><path class="b4d81e1b-7fcb-4512-917b-74ba0fa1bc9d" d="M200.78,125.83l52.16-15.47c4.62-1.37,2.65-8.61-2-7.23L198.79,118.6c-4.62,1.37-2.65,8.61,2,7.23Z"/></g><g class="baf33eee-ad4d-43b7-84b1-198ffe03d17c"><path class="b4d81e1b-7fcb-4512-917b-74ba0fa1bc9d" d="M343.93,132.89c2.29-3.86,9.14-5.39,13.09-6.77a112.86,112.86,0,0,1,13.62-3.84,111.37,111.37,0,0,1,28.91-2.22c4.83.23,4.82-7.27,0-7.5a118.58,118.58,0,0,0-34.35,3.29,113.29,113.29,0,0,0-16,5.25c-4.57,1.88-9.17,3.58-11.79,8-2.47,4.16,4,7.94,6.48,3.79Z"/></g><g class="baf33eee-ad4d-43b7-84b1-198ffe03d17c"><path class="b4d81e1b-7fcb-4512-917b-74ba0fa1bc9d" d="M1252.46,29.45l51.24-8.19c14.07-2.24,30-3.35,41.64-12.37,3.76-2.91,0-9.43-3.79-6.48-11.58,9-27.82,9.7-41.76,11.93l-49.33,7.88c-4.75.75-2.73,8,2,7.23Z"/></g><g class="baf33eee-ad4d-43b7-84b1-198ffe03d17c"><path class="b4d81e1b-7fcb-4512-917b-74ba0fa1bc9d" d="M1196,50c20.38-11.89,44.88-9.31,67.33-6.77,4.79.54,4.75-7,0-7.5-23.9-2.7-49.48-4.83-71.11,7.79-4.17,2.43-.4,8.92,3.78,6.48Z"/></g></g><path class="a37ba819-831e-4201-86fd-4d9997424bf4" d="M332,31.33a250.38,250.38,0,0,0,45.78-9.17c4.61-1.39,2.65-8.63-2-7.23A240.37,240.37,0,0,1,332,23.83c-4.75.51-4.8,8,0,7.5Z"/><path class="a37ba819-831e-4201-86fd-4d9997424bf4" d="M864.1,14.84a202.31,202.31,0,0,1,54.31,4.6c2.53.56,3.62-3.33,1.07-3.9A206.52,206.52,0,0,0,864.1,10.8c-2.59.13-2.6,4.17,0,4Z"/><path class="a20a1b21-023b-4d9b-bd83-8c7f1b60af28" d="M76.65,162.1s-35.82-9.28-46,39.69C30.68,201.79,59.27,208.24,76.65,162.1Z"/><path class="a20a1b21-023b-4d9b-bd83-8c7f1b60af28" d="M239.63,196.44S225.47,162,180.5,183.29C180.5,183.29,192.56,210.18,239.63,196.44Z"/><path class="aed4e64d-3e90-4b35-9d32-b590fcc910b0" d="M182.87,110.12s6.37-30.9-35.2-37.6C147.67,72.52,143.39,97.15,182.87,110.12Z"/><path class="a8de506c-0cc7-4269-9543-2c1ccbdb6cfd" d="M154.65,79.91a34.45,34.45,0,0,1,21.41,18.86c.27.59,1.14.08.87-.51a35.48,35.48,0,0,0-22-19.33c-.62-.19-.89.78-.27,1Z"/><path class="a587949f-8474-4273-848b-71ec927df6f0" d="M236.94,146.75c-31.74-8.19-55.48,24.52-83.22,33.07s-41.94.74-42.46-17.67c-.56-20,30.57-68.42,48.12-125.43A102.8,102.8,0,0,0,163.86,0h-53a56.58,56.58,0,0,1,.38,6.51C111.26,41.14,81,135.14,78.14,154c-2.11,14.19-10.53,80.56,56.05,69.27,54.63-9.26,28.59-73.12,116.9-69.7C251.09,153.59,255.71,151.6,236.94,146.75Z"/><path class="a8de506c-0cc7-4269-9543-2c1ccbdb6cfd" d="M123.5,4.26c3.64,40.52-18.81,76.66-28.91,114.6-7.21,27.06-10.93,71.72,21,85.24,2.93,1.23,5.48-3.07,2.52-4.32-14.36-6.08-21.25-21.21-23-36-2.25-18.38,2-37,7.51-54.48,11-34.3,29.23-68,25.9-105.08-.29-3.18-5.29-3.21-5,0Z"/><path class="a8de506c-0cc7-4269-9543-2c1ccbdb6cfd" d="M146.43,1.5a93.67,93.67,0,0,1-4.1,48.14c-.22.61.76.87,1,.27A94.65,94.65,0,0,0,147.4,1.23c-.11-.64-1.09-.37-1,.27Z"/><path class="aed4e64d-3e90-4b35-9d32-b590fcc910b0" d="M125.41,6.24a45.79,45.79,0,0,1-3.11,43c-1.39,2.21,2.11,4.24,3.49,2A50,50,0,0,0,128.9,4.2c-1.06-2.37-4.54-.31-3.49,2Z"/><path class="e6903946-2c14-4a63-a130-2af192d6f22c" d="M453.67,4.25a42,42,0,0,1-11.86,17.57c-3.12,2.64-6.8,4.9-11,5.26-4.61.41-10.11-1.79-10.71-6.91C419,10.35,431.81,7.87,439,9.45a25.54,25.54,0,0,1,16.31,11.72c15.28,26-26.52,52.79-8.48,79.31,6.08,9,19.49,11.94,27.92,4.62,2-1.7-.9-4.55-2.85-2.85-6.75,5.84-17.46,2.53-22-4.46-5.15-8-3.59-18.16-.54-26.55,5.5-15.11,17.63-31,11.46-47.82-4.55-12.43-18.52-20.61-31.58-18-6.17,1.21-11.85,5.42-13,11.88-1,5.51,2.15,10.47,7.16,12.65,15.74,6.86,29.54-12.08,34.21-24.59.91-2.44-3-3.49-3.89-1.07Z"/><path class="a20a1b21-023b-4d9b-bd83-8c7f1b60af28" d="M602.77,0a223.52,223.52,0,0,0-46.12,45.28c-87,114.17-109.31,80.6-109.31,80.6l-53,1.94c1.22,1.39,39,44,78.65,40.18,40.89-3.95,55.2-38.91,115.91-113.31C611.3,27.26,636.16,10.4,658.63,0Z"/><path class="a20a1b21-023b-4d9b-bd83-8c7f1b60af28" d="M394.36,127.82Z"/><path class="a20a1b21-023b-4d9b-bd83-8c7f1b60af28" d="M522.39,85.36s18.85-25.21-15.91-49.13C506.48,36.23,492.18,56.67,522.39,85.36Z"/><path class="b362c648-7370-409f-9e4e-f9a6eb34c27a" d="M506.82,153.07s5.69,31,46.7,21.45C553.52,174.52,548.25,150.08,506.82,153.07Z"/><path class="f6cfd798-f616-45c0-8ec5-3bab77031380" d="M600,41.87s17.44,26.23,51.31,1C651.28,42.91,636.82,22.58,600,41.87Z"/><path class="a8de506c-0cc7-4269-9543-2c1ccbdb6cfd" d="M416.68,134.68c19.79,17.23,47.16,26.54,72.8,17.58a59.84,59.84,0,0,0,28.59-21.44c8.21-11.1,13.57-24,20.95-35.58,1.4-2.21-2.1-4.24-3.49-2-13,20.46-21,45.27-45.63,54.62s-51.19.7-70.36-16c-2-1.7-4.82,1.14-2.86,2.85Z"/><path class="a8de506c-0cc7-4269-9543-2c1ccbdb6cfd" d="M610.74,44.73c8.41,3.92,18.16,7.79,26.58,1.81.53-.37,0-1.25-.51-.87-8.13,5.77-17.49,1.95-25.56-1.81-.58-.28-1.09.6-.51.87Z"/><path class="a8de506c-0cc7-4269-9543-2c1ccbdb6cfd" d="M510.57,47.73c-3.16.74-.85,7.28-.36,9.06a36,36,0,0,0,8.64,15.06c.45.47,1.16-.25.72-.72a35.19,35.19,0,0,1-6.66-9.77c-.74-1.67-4.68-12-2.07-12.66.63-.14.36-1.12-.27-1Z"/><path class="a8de506c-0cc7-4269-9543-2c1ccbdb6cfd" d="M516.12,158.88a47.76,47.76,0,0,0,27.38,13.17c.64.08.63-.93,0-1a46.49,46.49,0,0,1-26.66-12.88c-.47-.45-1.19.27-.72.72Z"/><path class="a8de506c-0cc7-4269-9543-2c1ccbdb6cfd" d="M550.44,65.62c7.13-8.61,14.23-17.23,21.39-25.81a128.49,128.49,0,0,1,23.7-21.63c.52-.38,0-1.26-.51-.88-8.4,6.14-16.1,12.51-22.82,20.49-7.56,9-15,18.07-22.48,27.11-.41.5.3,1.22.72.72Z"/><path class="aed4e64d-3e90-4b35-9d32-b590fcc910b0" d="M457.06,144.52a51.25,51.25,0,0,0,52.28-11.06c2.34-2.22-1.2-5.75-3.54-3.54a46.26,46.26,0,0,1-47.42,9.78c-3-1.1-4.33,3.73-1.32,4.82Z"/><path class="aed4e64d-3e90-4b35-9d32-b590fcc910b0" d="M761.41,4.83c2.65,11.31,3,23.23-2.51,33.79-4.81,9.19-12.76,16.24-20.14,23.33-12.67,12.16-25.84,27.16-26,45.78,0,7.77,2.18,15.75,7,21.9,5.34,6.76,12.92,9.1,20.6,12.21a52.93,52.93,0,0,1,24.38,19.54c2.91,4.44,5.14,9.78,4.46,15.18-.72,5.73-5.57,12.49-12.13,11.26-2.89-.54-6.14-2.75-6.94-5.73-1-3.62,1.69-6.74,4.53-8.6,5-3.28,11.59-4.45,17.52-3.93a29,29,0,0,1,25.6,23c.56,2.54,4.45,1.47,3.9-1.07-4.67-21.24-31.52-34.59-50.19-20.71-7,5.2-7.52,14.62.39,19.31s17-.46,20.17-8.44c4-9.95-1.57-20.35-8-27.83-7.88-9.15-17.77-13.85-28.74-18.21-12.21-4.85-18.86-15.44-18.54-28.58s8.1-24.7,16.65-34c9-9.88,20.19-18.07,27.3-29.59,7.49-12.12,7.67-26.12,4.49-39.66-.59-2.53-4.49-1.45-3.89,1.08Z"/><path class="bc1b6cc3-e221-49d2-829d-e86a4a912edf" d="M985.4,0c-34.06,28.79-72.14,62.74-84.94,75.77-28.12,28.59-45,21.25-45,21.25L762,106.65s81.51,75.16,150.58,11.3C957.1,76.82,1002.05,29.8,1036.28,0Z"/><path class="a20a1b21-023b-4d9b-bd83-8c7f1b60af28" d="M958.71,0H935.09a84.57,84.57,0,0,0-13,4.2s14.93,27.74,51,5.85C973.13,10.05,969.13,3.16,958.71,0Z"/><path class="a20a1b21-023b-4d9b-bd83-8c7f1b60af28" d="M991.89,41.23s18.42,25.53,51.31-.95C1043.2,40.28,1028,20.52,991.89,41.23Z"/><path class="a20a1b21-023b-4d9b-bd83-8c7f1b60af28" d="M886.69,135.39s6.88,30.79,47.48,19.6C934.17,155,928,130.77,886.69,135.39Z"/><path class="f6cfd798-f616-45c0-8ec5-3bab77031380" d="M884,42.1s-27.33,15.45-5,51.43C879,93.53,900.21,80.61,884,42.1Z"/><path class="a8de506c-0cc7-4269-9543-2c1ccbdb6cfd" d="M800.49,114.87c25.47,16.6,58.8,19.79,86.87,8,29.54-12.45,49.06-39.47,67.07-64.72,1.88-2.62-2.46-5.12-4.31-2.52-16.91,23.7-35.14,49.14-62.4,61.66-27.09,12.44-59.86,9.5-84.71-6.7-2.7-1.76-5.21,2.57-2.52,4.32Z"/><path class="a8de506c-0cc7-4269-9543-2c1ccbdb6cfd" d="M932.81,6.57A31.46,31.46,0,0,1,965.53,8c.54.36,1.05-.52.51-.88A32.51,32.51,0,0,0,932.3,5.69c-.57.32-.06,1.19.51.88Z"/><path class="a8de506c-0cc7-4269-9543-2c1ccbdb6cfd" d="M1001.33,39.75a40.09,40.09,0,0,0,33.52.37c.59-.26.08-1.13-.51-.87a39.11,39.11,0,0,1-32.5-.37c-.58-.27-1.1.6-.51.87Z"/><path class="a8de506c-0cc7-4269-9543-2c1ccbdb6cfd" d="M880.38,50a34,34,0,0,0,.45,29c.29.59,1.16.08.88-.51a32.84,32.84,0,0,1-.46-28c.26-.58-.61-1.1-.87-.51Z"/><path class="a8de506c-0cc7-4269-9543-2c1ccbdb6cfd" d="M896.47,140.37a37.16,37.16,0,0,0,28.43,10.19c.65,0,.65-1.05,0-1a36.26,36.26,0,0,1-27.72-9.89c-.47-.45-1.19.26-.71.71Z"/><path class="a8de506c-0cc7-4269-9543-2c1ccbdb6cfd" d="M955.63,35A311.46,311.46,0,0,1,993.76,1.51c.52-.38,0-1.26-.51-.87a312.27,312.27,0,0,0-38.33,33.69c-.46.47.26,1.18.71.71Z"/><path class="a8de506c-0cc7-4269-9543-2c1ccbdb6cfd" d="M1016,10.55l11.25-9.12c.5-.41-.22-1.12-.72-.71l-11.24,9.12c-.51.41.21,1.12.71.71Z"/><path class="aed4e64d-3e90-4b35-9d32-b590fcc910b0" d="M839.57,119.68c4.36-1.11,8.72,0,13.1.44a101.16,101.16,0,0,0,12.67.52,81.15,81.15,0,0,0,21.89-3.41,61.73,61.73,0,0,0,31.89-22.31c1.53-2.1-2-4.12-3.49-2-8.38,11.44-21,18.72-34.71,21.85a84.1,84.1,0,0,1-22.82,1.77c-6.47-.33-13.22-2.35-19.61-.72-2.51.65-1.45,4.54,1.08,3.9Z"/><path class="e6903946-2c14-4a63-a130-2af192d6f22c" d="M1054.64,5c8.28,20.7,25.71,41.36,49.43,43.32,10.25.84,21.57-3.59,25.4-13.84,3.3-8.84-2.29-19.6-12-20.87-9.32-1.22-15.21,7.14-16.3,15.44-1.28,9.69,3.19,19.11,8.94,26.66,6.7,8.8,15.52,15.64,24.11,22.49,4.52,3.6,9,7.2,13.3,11.11,5,4.58,10.87,10,12.18,16.94.81,4.28-.31,9.54-4.47,11.72s-10.38.39-10-5.12c.64-10,14-9.27,20.75-7.32a38,38,0,0,1,26.81,31c.35,2.56,4.25,1.47,3.9-1.07a41.18,41.18,0,0,0-16.45-27.2c-8.13-6-20.43-10.56-30.39-6.66-7.46,2.91-12.69,14-4.66,19.57,7.74,5.34,17.2-1.13,18.6-9.37,2-11.83-8.58-21.22-16.6-28.15-8.71-7.53-18.22-14.13-26.5-22.16-7.79-7.57-16-18-15.7-29.44.14-5.29,2.15-11.8,7.56-13.88,7.71-3,15.09,5.31,13.77,12.72-1.57,8.74-10.72,13.32-18.83,13.55-7.7.21-15.35-2.62-21.86-6.55C1073,30.18,1064,17.49,1058.54,3.92c-1-2.38-4.87-1.34-3.9,1.07Z"/><path class="aed4e64d-3e90-4b35-9d32-b590fcc910b0" d="M3.73,34.11c10.88,2.53,23.49-2.26,27.66-13.25,1.65-4.34,1.91-10.27-2-13.51-4.25-3.51-10-1.37-13.5,2.19C5.67,20.07,11,33.78,18.31,44c4.82,6.71,9.1,13.91,9.32,22.43.21,7.85-5.28,19.53-15,16.69-2.5-.73-3.57,3.16-1.07,3.89,8.41,2.46,16-4,18.75-11.58,3.85-10.53-.64-22.23-6.71-30.93-3.43-4.92-7.59-9.73-9-15.73-1.42-6.17.54-16.17,7.37-18.57,5.9-2.07,7.18,4,5.95,8.3a16.47,16.47,0,0,1-5.65,8A20.17,20.17,0,0,1,4.81,30.21c-2.53-.59-3.61,3.31-1.08,3.9Z"/></g></g></svg>