<svg xmlns="http://www.w3.org/2000/svg" xmlns:xlink="http://www.w3.org/1999/xlink" viewBox="0 0 1136.33 781.37"><defs><style>.e7dfb7c8-6434-451d-b2be-42fbfc02c035{fill:#f7f8f8;}.a4e6763d-8acc-4aa2-9c82-25d6a2801bb4{fill:url(#af9e7ff3-0f0e-43aa-9ea7-f8c14a27a5be);}.fab1a859-c72a-4fc3-8082-357215b9aa63{fill:#c6dfe9;}.afed7108-d770-4f29-be08-aa14171de9cb,.b009d71a-e81c-4a58-b031-555db5456ea5,.b342ae30-b525-4690-a200-cab8f89fee4f,.beff5e64-1cb7-415d-b810-098a5cc6dc16,.bfa603e3-6aea-4c11-b938-6b8311b6eb98,.e12308ca-35e8-4055-9858-4fa48f35bbd6{fill:none;stroke-linecap:round;}.b009d71a-e81c-4a58-b031-555db5456ea5,.b9c8e555-7c6c-404e-b111-042045ddd8fb,.beff5e64-1cb7-415d-b810-098a5cc6dc16,.bfa603e3-6aea-4c11-b938-6b8311b6eb98{stroke:#fff;}.afed7108-d770-4f29-be08-aa14171de9cb,.b009d71a-e81c-4a58-b031-555db5456ea5,.beff5e64-1cb7-415d-b810-098a5cc6dc16,.bfa603e3-6aea-4c11-b938-6b8311b6eb98{stroke-linejoin:round;}.beff5e64-1cb7-415d-b810-098a5cc6dc16{stroke-width:13.49px;}.b5b209f2-ed4a-4775-9438-5d8da1d20323{fill:#fff;}.afed7108-d770-4f29-be08-aa14171de9cb{stroke:#107ac0;stroke-width:7.46px;opacity:0.37;}.aab5244c-32bb-4d86-917b-bd5a25ee79fc,.b9c8e555-7c6c-404e-b111-042045ddd8fb{fill:#107ac0;}.fa1ef91f-4f20-4867-9d3a-0b1e8d6016a7{fill:#79c8f1;}.bfa603e3-6aea-4c11-b938-6b8311b6eb98{stroke-width:1.56px;}.b342ae30-b525-4690-a200-cab8f89fee4f,.e12308ca-35e8-4055-9858-4fa48f35bbd6{stroke:#59c3e5;}.a9e626d3-f873-4859-9897-2e297bd0ef9b,.b342ae30-b525-4690-a200-cab8f89fee4f,.b9c8e555-7c6c-404e-b111-042045ddd8fb,.e12308ca-35e8-4055-9858-4fa48f35bbd6,.e4d4ee59-d139-408a-b070-8034cbffd970{stroke-miterlimit:10;}.b342ae30-b525-4690-a200-cab8f89fee4f{stroke-width:0.42px;}.e2e9f6c7-f9a8-43fe-82dd-4fdd9355d743{fill:url(#fe472daf-81b7-449a-92c2-0022687ced08);}.a9e626d3-f873-4859-9897-2e297bd0ef9b,.e4d4ee59-d139-408a-b070-8034cbffd970{fill:#171c61;stroke:#171c61;}.a9e626d3-f873-4859-9897-2e297bd0ef9b{stroke-width:1.45px;}.b9c8e555-7c6c-404e-b111-042045ddd8fb{stroke-width:8.75px;}.a76c8b2a-1d57-4391-bbe6-5740bce4d76e{fill:url(#e6d40d2a-7701-4408-854a-4546ebfc8627);}.b009d71a-e81c-4a58-b031-555db5456ea5{stroke-width:2.47px;}.e12308ca-35e8-4055-9858-4fa48f35bbd6{stroke-width:0.67px;}.a8d53abe-9684-451c-b131-8be94028a74d{fill:url(#e1071097-0da1-47d3-9203-3581c097f6fa);}.e4d4ee59-d139-408a-b070-8034cbffd970{stroke-width:0.96px;}</style><linearGradient id="af9e7ff3-0f0e-43aa-9ea7-f8c14a27a5be" x1="1066.77" y1="678.55" x2="63.98" y2="99.59" gradientUnits="userSpaceOnUse"><stop offset="0.1" stop-color="#07598e"/><stop offset="0.38" stop-color="#1173b6"/><stop offset="0.64" stop-color="#1172b4"/><stop offset="0.93" stop-color="#07598e"/></linearGradient><radialGradient id="fe472daf-81b7-449a-92c2-0022687ced08" cx="869.74" cy="405.28" r="13.16" gradientUnits="userSpaceOnUse"><stop offset="0.1" stop-color="#4b8cc8"/><stop offset="0.62" stop-color="#107ac0"/><stop offset="0.93" stop-color="#0f75b8"/></radialGradient><radialGradient id="e6d40d2a-7701-4408-854a-4546ebfc8627" cx="957.94" cy="155.75" r="20.8" gradientUnits="userSpaceOnUse"><stop offset="0.06" stop-color="#facd8e"/><stop offset="0.43" stop-color="#f5a22c"/><stop offset="0.72" stop-color="#f18e2c"/></radialGradient><radialGradient id="e1071097-0da1-47d3-9203-3581c097f6fa" cx="848" cy="281.48" r="20.8" xlink:href="#e6d40d2a-7701-4408-854a-4546ebfc8627"/></defs><title>設定頁</title><g id="a8a87e1f-f201-452f-9103-8cb7119fdcad" data-name="圖層 2"><g id="ef86b0ff-f118-4ba4-b2c2-8090a506ac9e" data-name="圖層 1"><rect class="e7dfb7c8-6434-451d-b2be-42fbfc02c035" width="1136.33" height="781.37" rx="140.1"/><rect class="a4e6763d-8acc-4aa2-9c82-25d6a2801bb4" x="43.38" y="29.83" width="1049.57" height="721.71" rx="129.41"/><rect class="fab1a859-c72a-4fc3-8082-357215b9aa63" x="86.31" y="76.05" width="958.42" height="644.88" rx="116.89"/><path class="beff5e64-1cb7-415d-b810-098a5cc6dc16" d="M1067.62,624.17a103.4,103.4,0,0,1-103.4,103.4"/><circle class="b5b209f2-ed4a-4775-9438-5d8da1d20323" cx="931.57" cy="735.77" r="9.99"/><path class="beff5e64-1cb7-415d-b810-098a5cc6dc16" d="M70.65,161a103.4,103.4,0,0,1,103.4-103.4"/><circle class="b5b209f2-ed4a-4775-9438-5d8da1d20323" cx="206.7" cy="55.18" r="9.99"/><line class="afed7108-d770-4f29-be08-aa14171de9cb" x1="131.33" y1="216.8" x2="1005.01" y2="216.8"/><line class="afed7108-d770-4f29-be08-aa14171de9cb" x1="131.33" y1="344.76" x2="1005.01" y2="344.76"/><line class="afed7108-d770-4f29-be08-aa14171de9cb" x1="131.33" y1="472.72" x2="1005.01" y2="472.72"/><line class="afed7108-d770-4f29-be08-aa14171de9cb" x1="131.33" y1="600.68" x2="1005.01" y2="600.68"/><rect class="b5b209f2-ed4a-4775-9438-5d8da1d20323" x="841.43" y="386.1" width="95.09" height="45.29" rx="22.64"/><rect class="aab5244c-32bb-4d86-917b-bd5a25ee79fc" x="847.47" y="388.56" width="85.54" height="37.96" rx="18.98"/><rect class="fa1ef91f-4f20-4867-9d3a-0b1e8d6016a7" x="848.16" y="387.64" width="85.54" height="37.96" rx="18.98"/><path class="b5b209f2-ed4a-4775-9438-5d8da1d20323" d="M928.31,399.6h0a.67.67,0,0,1-.76-.52l-.06-.46a.63.63,0,0,1,.6-.67h0a.65.65,0,0,1,.76.52l.06.45A.63.63,0,0,1,928.31,399.6Z"/><path class="bfa603e3-6aea-4c11-b938-6b8311b6eb98" d="M927.07,396.09a10.68,10.68,0,0,0-7.38-5.24"/><path class="b342ae30-b525-4690-a200-cab8f89fee4f" d="M926.8,396.26a10.74,10.74,0,0,0-7.38-5.24"/><path class="b342ae30-b525-4690-a200-cab8f89fee4f" d="M927.94,399.21a1.36,1.36,0,0,0-.09-.59"/><circle class="b5b209f2-ed4a-4775-9438-5d8da1d20323" cx="869.4" cy="407.07" r="14.94"/><circle class="e2e9f6c7-f9a8-43fe-82dd-4fdd9355d743" cx="869.74" cy="405.28" r="13.16"/><path class="b5b209f2-ed4a-4775-9438-5d8da1d20323" d="M859.41,407.07h0a.66.66,0,0,1,.77.51l.07.45a.63.63,0,0,1-.59.69h0a.67.67,0,0,1-.77-.5l-.07-.46A.64.64,0,0,1,859.41,407.07Z"/><path class="bfa603e3-6aea-4c11-b938-6b8311b6eb98" d="M860.73,410.56a10.7,10.7,0,0,0,7.48,5.09"/><path class="b342ae30-b525-4690-a200-cab8f89fee4f" d="M861,410.4a10.72,10.72,0,0,0,7.48,5.09"/><path class="b342ae30-b525-4690-a200-cab8f89fee4f" d="M859.77,407.48a1.57,1.57,0,0,0,.11.59"/><path class="b5b209f2-ed4a-4775-9438-5d8da1d20323" d="M855.06,398.84h0a.65.65,0,0,0,.76-.52l.06-.45a.63.63,0,0,0-.6-.68h0a.67.67,0,0,0-.76.52l-.06.46A.63.63,0,0,0,855.06,398.84Z"/><path class="bfa603e3-6aea-4c11-b938-6b8311b6eb98" d="M856.31,395.33a10.72,10.72,0,0,1,7.37-5.24"/><path class="b342ae30-b525-4690-a200-cab8f89fee4f" d="M856.58,395.51a10.72,10.72,0,0,1,7.37-5.24"/><path class="b342ae30-b525-4690-a200-cab8f89fee4f" d="M855.43,398.45a1.48,1.48,0,0,1,.1-.59"/><path class="b5b209f2-ed4a-4775-9438-5d8da1d20323" d="M880.38,403.69h0a.67.67,0,0,1-.76-.52l-.06-.46a.65.65,0,0,1,.6-.68h0a.66.66,0,0,1,.76.52l.06.46A.63.63,0,0,1,880.38,403.69Z"/><path class="bfa603e3-6aea-4c11-b938-6b8311b6eb98" d="M879.14,400.17a10.74,10.74,0,0,0-7.38-5.24"/><path class="b342ae30-b525-4690-a200-cab8f89fee4f" d="M878.87,400.35a10.74,10.74,0,0,0-7.38-5.24"/><path class="b342ae30-b525-4690-a200-cab8f89fee4f" d="M880,403.29a1.32,1.32,0,0,0-.09-.58"/><path class="a9e626d3-f873-4859-9897-2e297bd0ef9b" d="M179.44,163.4c2.37.17,5.6.33,9.68.46l-1.25-6.13c-.13-1,.31-1.47,1.32-1.51a1.22,1.22,0,0,1,1.31,1l1.39,6.72c1.49,0,3,0,4.48.06a.53.53,0,0,0,.06-.2c.57-1.58,1.17-3.53,1.78-5.86a1.36,1.36,0,0,1,1.45-1c.92.14,1.3.73,1.12,1.78a7.63,7.63,0,0,1-.2.79c-.39,1.54-.85,3.06-1.38,4.55q4.94.06,8.5,0a1.16,1.16,0,0,1,1.31,1.31c0,.75-.44,1.17-1.31,1.26q-1.59,0-3.3.06-12.45-.06-24-.66c-.57,0-1.08-.08-1.51-.13a1.29,1.29,0,0,1-.86-1.45C178.08,163.66,178.56,163.31,179.44,163.4ZM183.79,149q3.68.47,11.79.79,4.66.19,7.77.07a1.16,1.16,0,0,1,1.32,1.31q0,1.13-1.32,1.26-1.12,0-2.31.06-8.68-.06-16.79-.79a5.89,5.89,0,0,1-1.06-.2,1.28,1.28,0,0,1-.85-1.45C182.42,149.3,182.91,149,183.79,149Zm4.28-7.11c-.18-1,.15-1.61,1-1.78a1.52,1.52,0,0,1,1.45.66,15.74,15.74,0,0,0,5.34,4l.39.14a1.31,1.31,0,0,1,.8,1.38,1.28,1.28,0,0,1-1.45,1.12c-.93,0-2.29-.73-4.09-2a15.62,15.62,0,0,1-3.23-3.1Zm16.14,36.95q.25,2.37.46,6.45t0,5c-.09.61-.64,1-1.65,1.25a49.11,49.11,0,0,1-11.4.2c-1.66-.13-2.32-.84-2-2.11a54.4,54.4,0,0,0,.26-11.66,1.16,1.16,0,0,1,1.32-1.45,1.1,1.1,0,0,1,1,.4c3.33,0,6.63.13,9.88.26A2.21,2.21,0,0,1,204.21,178.88Zm-11.66,6.65c-.05,1.05-.11,2.2-.2,3.42,0,.22,0,.33.2.33a63.17,63.17,0,0,0,9.41-.06.27.27,0,0,0,.14-.27c0-1,0-2.1-.07-3.16Zm9.41-2.24a22.82,22.82,0,0,0-.19-3,.52.52,0,0,0-.46-.46q-4-.13-8.63-.26c0,1,0,2.13,0,3.49Z"/><path class="a9e626d3-f873-4859-9897-2e297bd0ef9b" d="M243.92,157.6a301.67,301.67,0,0,0,37.81,1c1,0,1.47.4,1.51,1.32a1.35,1.35,0,0,1-1.38,1.38q-13.58.53-23.78.07-10.41-.41-14.22-1c-1-.09-1.48-.55-1.52-1.38A1.29,1.29,0,0,1,243.92,157.6Zm23.65-17.52a1.85,1.85,0,0,1,1.91,1.52,83.86,83.86,0,0,1,.39,9.81,1.69,1.69,0,0,1-1.64,1.78q-9.09.47-16.14.2c-1.05-.13-1.49-.75-1.32-1.85q.6-8.16.13-11.06c0-1,.33-1.49,1.12-1.58a1.33,1.33,0,0,1,1.58,1Q261,139.89,267.57,140.08Zm-13.83,7.77c-.05.93-.09,1.83-.14,2.71a.24.24,0,0,0,.27.26q8.29.13,13.1-.2a.25.25,0,0,0,.2-.26V148Zm13.3-2.56c0-.84-.11-1.63-.2-2.38,0-.13-.15-.19-.33-.19q-4.08-.14-12.64-.14v2.57ZM273.5,169q.25,2.24.39,5.93a34.17,34.17,0,0,1,0,4.54q-.06,1-1.65,1.32a37.59,37.59,0,0,1-4.08.2l.07,2.56,4.21.14a1.23,1.23,0,0,1,1.32,1.38,1.31,1.31,0,0,1-1.45,1.32l-3.95-.14.13,3.76q3.09,0,6.78-.2c1.06.09,1.56.53,1.52,1.32s-.48,1.36-1.45,1.45a88.77,88.77,0,0,1-10.8.33,19.52,19.52,0,0,1-4.28-.4,1.33,1.33,0,0,1-1-1.38c0-1.1.77-1.49,2.17-1.19.93.05,2,.07,3.16.07h1.19l-.13-3.82-3.62-.13a1.18,1.18,0,0,1-1.26-1.32c0-1,.46-1.43,1.39-1.38l3.36.13-.07-2.44c-1.84,0-3.89,0-6.13-.13-1.71-.13-2.39-.86-2-2.17a49.21,49.21,0,0,0,.27-11.14c-.09-1,.37-1.51,1.38-1.51a1.19,1.19,0,0,1,1.25,1q5.67.06,11.13.26A2.25,2.25,0,0,1,273.5,169Zm-13.24,6.32c-.05.88-.11,1.8-.2,2.77,0,.22,0,.33.2.33,2,0,3.69.08,5.13.13l-.13-3-4.87-.2Zm.26-2.7,4.68.2-.07-2.83v-.14l-4.67-.13c0,.88,0,1.85-.07,2.9Zm7.31-2.7.13,3,3.16.13c0-.92-.11-1.8-.19-2.63a.51.51,0,0,0-.46-.46C269.59,170,268.71,170,267.83,169.92Zm.2,5.73.06,2.9a30,30,0,0,0,3-.2.26.26,0,0,0,.14-.26c0-.79,0-1.56-.07-2.31Z"/><rect class="b9c8e555-7c6c-404e-b111-042045ddd8fb" x="580.55" y="146.16" width="394.44" height="24.37" rx="12.19"/><circle class="b5b209f2-ed4a-4775-9438-5d8da1d20323" cx="956.34" cy="158.35" r="23.62"/><circle class="a76c8b2a-1d57-4391-bbe6-5740bce4d76e" cx="957.94" cy="155.75" r="20.8"/><path class="b5b209f2-ed4a-4775-9438-5d8da1d20323" d="M941.5,159.83h0a1,1,0,0,1,1.22.79l.11.72a1,1,0,0,1-.93,1.09h0a1.05,1.05,0,0,1-1.22-.8l-.11-.71A1,1,0,0,1,941.5,159.83Z"/><path class="b009d71a-e81c-4a58-b031-555db5456ea5" d="M943.58,165.34a17,17,0,0,0,11.83,8"/><path class="e12308ca-35e8-4055-9858-4fa48f35bbd6" d="M944,165.09a16.94,16.94,0,0,0,11.83,8"/><path class="e12308ca-35e8-4055-9858-4fa48f35bbd6" d="M942.08,160.47a2.23,2.23,0,0,0,.17.93"/><path class="b009d71a-e81c-4a58-b031-555db5456ea5" d="M948.14,143a16.93,16.93,0,0,0-7.26,12.32"/><path class="e12308ca-35e8-4055-9858-4fa48f35bbd6" d="M948.46,143.42a16.93,16.93,0,0,0-7.26,12.33"/><path class="a9e626d3-f873-4859-9897-2e297bd0ef9b" d="M179.24,256.27c.13.88-.28,1.41-1.25,1.58a1.48,1.48,0,0,1-1.38-.79l-.14-.33a16.25,16.25,0,0,1-1.25-2.57,2.12,2.12,0,0,1-.06-.59,1.24,1.24,0,0,1,1.18-1.18,1.48,1.48,0,0,1,1.52.79l1.25,2.63C179.15,256,179.2,256.14,179.24,256.27Zm3,22.07a19.68,19.68,0,0,1-1.51,5.14,2,2,0,0,1-.47.65,1.31,1.31,0,0,1-1.18.47,1.23,1.23,0,0,1-1.19-1.39,5,5,0,0,1,.27-.79,18.23,18.23,0,0,0,1.64-7,1.28,1.28,0,0,1,1.39-1.32,1.26,1.26,0,0,1,1.32,1.32v.2q21.27,0,29.5.92a1.51,1.51,0,0,1,1.52,1.71,22.91,22.91,0,0,1-.66,4.41,1.36,1.36,0,0,1-1.52,1.26c-1-.13-1.49-.68-1.31-1.65a24.88,24.88,0,0,0,.59-3.16Q200.91,278.34,182.27,278.34Zm-2.17-10.47c-1.06.13-1.65-.25-1.78-1.12a1.3,1.3,0,0,1,.59-1.32c1.85-1.14,3-3.21,3.49-6.19a44.57,44.57,0,0,0,.4-7.45,1.16,1.16,0,0,1,1.32-1.31c.92,0,1.38.44,1.38,1.31a48.08,48.08,0,0,1-.46,8.11c-.22.83-.44,1.58-.66,2.23a3.82,3.82,0,0,1,.46.33.72.72,0,0,0,.26.27,8.56,8.56,0,0,0,1.91,1.58,6.33,6.33,0,0,0,2.51.79q1.44.06,1.38,1.32c0,.79-.53,1.23-1.45,1.31h-.39a7.47,7.47,0,0,1-3.3-1.05,10.18,10.18,0,0,1-2.5-1.84A7.48,7.48,0,0,1,180.1,267.87Zm8.43-10.81c.17-.48.33-.92.46-1.31.13-.62.24-1.26.33-1.91a1.26,1.26,0,0,1,1.51-1.12c.84.08,1.23.59,1.19,1.51a12.43,12.43,0,0,1-.4,2.17,7.71,7.71,0,0,1-.72,2.05,1.43,1.43,0,0,1-1.12.65C188.51,258.89,188.09,258.21,188.53,257.06Zm9.75,27.4.06,2.77,4.48.13a2.2,2.2,0,0,1,2.24,1.58,24.42,24.42,0,0,1,.46,3.89,14.59,14.59,0,0,1,0,3q-.06,1-1.71,1.32a44.18,44.18,0,0,1-5.2.26l.13,5.08c2.19-.05,4.06-.12,5.6-.2-.13-.4-.27-.77-.4-1.12s-.15-.4-.2-.53a1.26,1.26,0,0,1,.93-1.71,1.36,1.36,0,0,1,1.64.92c.09.22.16.37.2.46a11,11,0,0,0,2.17,3.69A1.37,1.37,0,0,1,209,305c-.09.93-.63,1.32-1.64,1.19a1.55,1.55,0,0,1-.66-.33,5.66,5.66,0,0,1-1-1.18l-.13.06a64.93,64.93,0,0,1-7.91.26,45.1,45.1,0,0,1-8.23-.52,1.19,1.19,0,0,1-.92-1.25,1.34,1.34,0,0,1,.39-1,1.31,1.31,0,0,1,1.19-.27q2,.27,5.93.4l-.13-5c-1.63,0-3.39,0-5.27-.13s-2.46-.85-2.11-2.17a19.05,19.05,0,0,0,.26-6.92c-.09-1.09.4-1.64,1.45-1.64a1,1,0,0,1,1,.59q2.39,0,4.35.06l-.06-2.56c-.05-.88.39-1.34,1.31-1.39A1.21,1.21,0,0,1,198.28,284.46Zm-6.52,5.21a36.12,36.12,0,0,1-.4,4.74c0,.22,0,.33.2.33,1.62,0,3.05.06,4.28.06l-.13-5Zm10-32.34c.17.88-.22,1.4-1.19,1.58a1.52,1.52,0,0,1-1.38-.79l-.13-.2a17.27,17.27,0,0,1-1.25-2,1.24,1.24,0,0,1,1.12-1.65,1.48,1.48,0,0,1,1.51.79c.4.66.81,1.32,1.25,2A.65.65,0,0,1,201.77,257.33Zm-3.23,37.54a28.6,28.6,0,0,0,4.15-.2.25.25,0,0,0,.13-.26,23.62,23.62,0,0,0-.33-4,.51.51,0,0,0-.46-.46c-1.23,0-2.44-.07-3.62-.07Zm3.1-24.37c-1.06.18-1.65-.2-1.78-1.12a1.33,1.33,0,0,1,.39-1.12q3.69-3.69,3.69-15.48a1.22,1.22,0,0,1,1.38-1.38q1.32,0,1.32,1.38a52.26,52.26,0,0,1-1.25,10.8,1.9,1.9,0,0,1,.79.46l.26.27a14.58,14.58,0,0,0,3.17,2.37,10.1,10.1,0,0,0,4.08,1.19c1,0,1.43.48,1.38,1.31s-.52,1.23-1.45,1.32h-.52a12.21,12.21,0,0,1-4.75-1.45,12.69,12.69,0,0,1-3.82-2.77,10.28,10.28,0,0,1-2.24,3.82A1.59,1.59,0,0,1,201.64,270.5Zm8-12.58a6.89,6.89,0,0,0,.52-1.45,8.69,8.69,0,0,0,.46-2,1.28,1.28,0,0,1,1.52-1.12c.83.09,1.23.6,1.18,1.52a23.25,23.25,0,0,1-.46,2.37,8.45,8.45,0,0,1-.85,2,1.43,1.43,0,0,1-1.12.66C209.58,259.74,209.17,259.06,209.61,257.92Z"/><path class="a9e626d3-f873-4859-9897-2e297bd0ef9b" d="M267.9,266.42q.19,2.24.33,6a38.38,38.38,0,0,1,0,4.54c-.05.62-.57,1-1.58,1.26a35,35,0,0,1-5.6.39,1.4,1.4,0,0,1,.13,1.19,7.31,7.31,0,0,1-.92,2.17q7.77.19,16,0c.93,0,1.39.37,1.39,1.25a1.22,1.22,0,0,1-1.26,1.32l-6.06.13a20.83,20.83,0,0,0,2.57,2.64,13.76,13.76,0,0,0,4.68,3,1.29,1.29,0,0,1,.86,1.64,1.39,1.39,0,0,1-1.25,1,2.48,2.48,0,0,1-.8-.13,18.08,18.08,0,0,1-5.27-3.49,17.81,17.81,0,0,1-3.95-4.48l-.06-.13c-3.08,0-5.89-.05-8.43-.13a43.68,43.68,0,0,1-3.23,4c-3.08,3.25-5.4,4.83-7,4.75a1.28,1.28,0,0,1-1.39-1.19,1.2,1.2,0,0,1,.86-1.19,25.9,25.9,0,0,0,7.18-6.45c-4.13-.18-7.05-.35-8.76-.53-.92-.09-1.41-.52-1.45-1.32a1.22,1.22,0,0,1,1.52-1.31c3.46.22,7,.37,10.53.46a34.38,34.38,0,0,0,1.72-3c.08-.18.15-.26.19-.26-1.18,0-2.37-.05-3.55-.14q-2.5-.19-2-2.1a45.72,45.72,0,0,0,.27-10.74c-.09-.92.35-1.38,1.31-1.38a1.12,1.12,0,0,1,1,.39c3.38.05,6.67.13,9.88.27A2.17,2.17,0,0,1,267.9,266.42Zm-.73-14.49c0,.87-.06,1.75-.06,2.63q3.75.06,6.45,0c.92,0,1.39.44,1.39,1.32a1.23,1.23,0,0,1-1.39,1.38c-2.15.05-4.35.05-6.58,0-.05.88-.09,1.69-.14,2.44a1.34,1.34,0,0,1-1.45,1.18,1.21,1.21,0,0,1-1.31-1.45l.13-2.3-3-.13-3.1-.13a13.78,13.78,0,0,0,.2,1.58,1.86,1.86,0,0,0,.07.52,1.27,1.27,0,0,1-1.19,1.58,1.28,1.28,0,0,1-1.45-1,19.29,19.29,0,0,1-.39-2.9,66.54,66.54,0,0,1-6.72-.66,1.31,1.31,0,0,1-1-1.58,1.16,1.16,0,0,1,1.19-1,5.21,5.21,0,0,1,.85.07c1.14.17,2.92.33,5.34.46-.09-.66-.16-1.34-.2-2,0-1,.44-1.48,1.32-1.52s1.29.42,1.38,1.12c.09,1,.15,1.84.2,2.63,1.23.05,2.52.14,3.88.27.93,0,1.85.06,2.77.06l.13-2.83a1.36,1.36,0,0,1,2.7.27Zm-10.93,20.94c0,.92-.11,1.82-.2,2.7,0,.22,0,.33.2.33a59.44,59.44,0,0,0,9.29-.07.27.27,0,0,0,.13-.26c0-.83,0-1.67-.07-2.5Zm9.29-2.37c0-.92-.11-1.8-.2-2.63a.52.52,0,0,0-.46-.47l-8.5-.26c0,1,0,2,0,3.16Zm-6.79,31.95a1.26,1.26,0,0,1-1.38-1,59.89,59.89,0,0,1-.73-7.78A1.24,1.24,0,0,1,258,292.3c.66.05,1.06.27,1.19.66a2.17,2.17,0,0,1,.72,0l2.9.13c0-.7,0-1.4-.07-2.11,0-1,.44-1.47,1.32-1.51a1.22,1.22,0,0,1,1.32,1.12c0,.92.09,1.78.13,2.57,1.58.09,3.1.15,4.55.2a1.64,1.64,0,0,1,1.51,1.18,22.47,22.47,0,0,1,.66,5.6c0,1.8-.75,2.68-2.37,2.63-1.28,0-1.91-.48-1.91-1.44s.61-1.3,1.58-1.12a31.54,31.54,0,0,0-.46-4.29l-3.43-.13c.13,3.08.31,5.62.53,7.64a6.72,6.72,0,0,0,.07,1.06,1.27,1.27,0,0,1-1.19,1.58,1.17,1.17,0,0,1-1.32-1q-.46-3.22-.79-9.42l-3.49-.13c.13,2,.29,3.58.46,4.81a1.86,1.86,0,0,0,.07.52C260.06,301.7,259.66,302.23,258.74,302.45Z"/><path class="a9e626d3-f873-4859-9897-2e297bd0ef9b" d="M316.77,282.22a16.28,16.28,0,0,1-1.32,5.47,3.13,3.13,0,0,1-.39.59,1.33,1.33,0,0,1-1.19.47,1.22,1.22,0,0,1-1.18-1.39,4.1,4.1,0,0,1,.19-.66,19.67,19.67,0,0,0,1.39-6.52,1.19,1.19,0,0,1,1.32-1.31,1.23,1.23,0,0,1,1.18.72q20.75,0,28.78.92a1.48,1.48,0,0,1,1.52,1.65,15.37,15.37,0,0,1-.92,4.08,1.35,1.35,0,0,1-1.52,1.25c-1.05-.13-1.49-.68-1.32-1.64a15.54,15.54,0,0,0,.86-2.84Q334.83,282.23,316.77,282.22Zm10.14-25.68,13.18.19c.92,0,1.36.51,1.31,1.39a1.28,1.28,0,0,1-1.31,1.31l-23.19-.33a1.31,1.31,0,0,1-1.38-1.31,1.23,1.23,0,0,1,1.38-1.39l7.25.07a36,36,0,0,1-.46-3.75c0-.93.43-1.41,1.31-1.45a1.22,1.22,0,0,1,1.32,1.12,28.6,28.6,0,0,0,.53,3.95Zm8,10.4a20.37,20.37,0,0,1,.59,5.87,1.77,1.77,0,0,1-1.78,1.84,67,67,0,0,1-9.74-.26c-1.1-.18-1.58-.88-1.45-2.11-.05-2.59-.11-4.5-.2-5.73,0-.88.39-1.32,1.18-1.32a1.34,1.34,0,0,1,.93.26h.13q6.06-.06,7.77.07C333.79,265.65,334.64,266.11,335,266.94Zm-9.81,35.7c-1.1.18-1.74-.19-1.91-1.12a1.19,1.19,0,0,1,.72-1.25q3.82-2.37,3.76-7.7a1.26,1.26,0,0,1,1.44-1.32,1.2,1.2,0,0,1,1.32,1.32c0,3.11-.72,5.53-2,7.24S326,302.42,325.14,302.64Zm-.07-34.51c0,1,.07,2.11.07,3.29,0,.31.13.46.39.46,1.49.14,3.89.2,7.18.2.17,0,.24-.17.2-.39a18.44,18.44,0,0,0-.33-3.17.57.57,0,0,0-.59-.33Q329.68,268.13,325.07,268.13Zm12.65,26.28c-.09,1-.27,2.68-.53,5-.13,1,.46,1.53,1.78,1.71.7.09,1.29.15,1.78.2.65,0,1.38.06,2.17.06s1-.17,1.05-.53c.18-.87.62-1.31,1.32-1.31a1.2,1.2,0,0,1,1.32,1.31,3.31,3.31,0,0,1-.59,1.72,3.72,3.72,0,0,1-2.18,1.31,10.06,10.06,0,0,1-3.09.07,17,17,0,0,1-2.64-.33c-2.63-.39-3.86-1.78-3.69-4.15s.51-4.17.6-5c0-1,.43-1.52,1.31-1.52A1.29,1.29,0,0,1,337.72,294.41Z"/><path class="a9e626d3-f873-4859-9897-2e297bd0ef9b" d="M397.52,256.21q6.47.14,13,.19,1.32.08,1.32,1.32a1.27,1.27,0,0,1-1.32,1.25q-12.9-.12-26.94-.46c-.22,0-.3,0-.26.2a68.79,68.79,0,0,1-2.83,15.08q-1.71,5.15-4.22,7.18a1.37,1.37,0,0,1-.92.4c-.88-.05-1.32-.48-1.32-1.32a1.78,1.78,0,0,1,.4-.92,19.47,19.47,0,0,0,3.49-6.06,71.87,71.87,0,0,0,2.77-15.68c0-1.09.52-1.6,1.58-1.51l12.31.26-1.38-3.42-.06-.33a1.33,1.33,0,0,1,1.31-1.52,1.1,1.1,0,0,1,1.19.79ZM391.46,271q2.44.33,6.52.46c-.09-1.36-.19-2.46-.33-3.3s.36-1.44,1.32-1.44a1.23,1.23,0,0,1,1.32,1.18c.17,1.19.31,2.42.39,3.69l3.69.13c.62,0,1.19,0,1.72.07,0-1.72-.12-3-.2-3.89s.44-1.43,1.32-1.38a1.16,1.16,0,0,1,1.31,1.12,40.81,40.81,0,0,1,.27,4.21c1.53,0,2.87,0,4-.06a1.16,1.16,0,0,1,1.32,1.31q0,1.13-1.32,1.26c-.83,0-1.67,0-2.5.06h-1.45c0,1.58.07,3.43.07,5.53,0,1-.4,1.61-1.19,1.78a2.68,2.68,0,0,1-.59.07c-2.68,0-5.38-.18-8.1-.4A1.25,1.25,0,0,1,398,280c.09-1.22.11-3.18.07-5.86l-6.06-.39a6.9,6.9,0,0,1-1.12-.2,1.29,1.29,0,0,1-.86-1.45C390.1,271.29,390.58,270.94,391.46,271Zm7.18,34.91c-1,.08-1.56-.33-1.64-1.25a1.35,1.35,0,0,1,.85-1.32,8.6,8.6,0,0,0,2.57-2,21.65,21.65,0,0,1-3-2.37,6.78,6.78,0,0,1-.66-.72,1.24,1.24,0,0,1-.07-1.72,1.4,1.4,0,0,1,1.39-.39,4.51,4.51,0,0,1,1.18.79,20,20,0,0,0,2.9,2.3l.07-.13a18,18,0,0,0,2.43-4.87c-2.76-.09-5.38-.29-7.84-.6a1,1,0,0,1-1.18-1.18q0-1.46,1.32-1.32,5.6.46,9.35.46c1.23,0,1.78.49,1.65,1.58a19.8,19.8,0,0,1-2.77,6.39c-.27.4-.51.77-.73,1.12a15,15,0,0,0,8.63,1.72c.92,0,1.41.41,1.45,1.25a1.37,1.37,0,0,1-.92,1.31,4.15,4.15,0,0,1-1.25.14,20.43,20.43,0,0,1-9.62-2.31A11.44,11.44,0,0,1,398.64,305.94Zm2.11-31.69c0,1.54,0,3.14-.07,4.81a48.55,48.55,0,0,0,5.54.27c0-1.89,0-3.54-.07-4.94Z"/><path class="a9e626d3-f873-4859-9897-2e297bd0ef9b" d="M170.35,397.53c1.1.17,3.2.37,6.32.59a29.93,29.93,0,0,1-1.12-6.65c0-.93.44-1.39,1.32-1.39a1.15,1.15,0,0,1,1.32,1.06A58.55,58.55,0,0,0,179,397c.05.18.09.33.14.46a1,1,0,0,1-.14.79q5.15.13,6.72.13c.92,0,1.36.4,1.32,1.19a1.22,1.22,0,0,1-1.25,1.32c-1.14.08-3.76,0-7.84-.14s-6.68-.44-7.9-.65a1.22,1.22,0,0,1-1.12-1.32C169,397.85,169.43,397.44,170.35,397.53Zm10.08,8.89c1,0,1.56.48,1.51,1.31s-.61,1.24-1.71,1.32h-1c-3.61,0-5.93-.33-7-.85a1.51,1.51,0,0,1-.52-1A1.21,1.21,0,0,1,173,406a14,14,0,0,1,2.05.26A36.82,36.82,0,0,0,180.43,406.42Zm3.16,17.91a36.11,36.11,0,0,1,.39,6.59,1.9,1.9,0,0,1-1.91,2,39.33,39.33,0,0,1-7.9-.06c-.83,0-1.19-.51-1-1.39a63.73,63.73,0,0,0-.4-7.37q-.14-1.59,1.32-1.65a1.25,1.25,0,0,1,.92.33c2.41-.13,4.46-.15,6.13-.07C182.49,422.75,183.33,423.28,183.59,424.33Zm-2-10.6c1,0,1.56.48,1.51,1.32s-.61,1.23-1.71,1.31h-.92q-5-.06-6.39-.72a1.44,1.44,0,0,1-.53-1,1.21,1.21,0,0,1,1.32-1.25,15.12,15.12,0,0,1,1.84.2C177.81,413.69,179.44,413.73,181.55,413.73Zm-6.06,11.59c.13,1.71.22,3.27.26,4.68,0,.35,0,.52.26.52a41,41,0,0,0,5.14-.06c.18,0,.24-.22.2-.53a24.8,24.8,0,0,0-.33-4.21.48.48,0,0,0-.53-.46C178.78,425.21,177.11,425.23,175.49,425.32Zm41.69-17.12c1.32,0,2.46,0,3.43-.07a1.16,1.16,0,0,1,1.31,1.32c0,.74-.44,1.16-1.31,1.25s-1.87,0-2.84.07q-10.72-.07-20.68-1c-.53-.09-1-.16-1.32-.2a1.28,1.28,0,0,1-.85-1.45c.09-.79.57-1.14,1.45-1.05q3,.39,8,.65a46.93,46.93,0,0,0,1.25-5.26c-1.58-.05-3.3-.07-5.14-.07a1.31,1.31,0,0,1-1.51-1.25,1.16,1.16,0,0,1,1.31-1.32q3.23-.06,5.73,0,.47-3,.79-6.52l-7.83-.53a1,1,0,0,1-1.19-1.18q0-1.38,1.32-1.32l17.72,1.12a1.17,1.17,0,0,1,1.25,1.32,1.25,1.25,0,0,1-1.39,1.25l-7.18-.46q-.33,3.56-.72,6.39a29.74,29.74,0,0,1,5.66.66,3,3,0,0,1,2.11,2.17A18.3,18.3,0,0,1,217.18,408.2Zm-3.42,18a30.84,30.84,0,0,1,.65,7.51,1.77,1.77,0,0,1-1.84,1.78q-6.25.14-10.34-.2a1.63,1.63,0,0,1-1.52-2c0-3.47-.11-6.08-.19-7.84,0-.87.39-1.31,1.18-1.31s1.14.24,1.32.72q6.25-.06,8.1.07C212.57,425,213.45,425.45,213.76,426.24Zm-10.48,1.12c.05,1.45.07,3.12.07,5,0,.31.13.46.39.46q2.37.19,7.78.2c.17,0,.24-.18.19-.4a43,43,0,0,0-.33-4.87.55.55,0,0,0-.59-.33C209.12,427.39,206.62,427.36,203.28,427.36Zm5.07-24.83a40.7,40.7,0,0,1-1.25,5.34c1.28.09,2.57.15,3.89.19l3.49.14a22,22,0,0,0-.46-4.68.84.84,0,0,0-.66-.66Q211.38,402.67,208.35,402.53Z"/><path class="a9e626d3-f873-4859-9897-2e297bd0ef9b" d="M247.54,396.6q3.24.54,13.11,1a35,35,0,0,1-.92-6.12c0-.93.44-1.39,1.32-1.39a1.15,1.15,0,0,1,1.32,1.06,55.74,55.74,0,0,0,.85,5.86c0,.18.09.33.13.46v.26q10.15.27,13.18.13c1,0,1.42.44,1.38,1.19a1.24,1.24,0,0,1-1.25,1.38q-3.23.21-14.62-.19t-14.82-1.06a1.21,1.21,0,0,1-1.12-1.32C246.1,396.93,246.58,396.52,247.54,396.6Zm10.08,10.34a76.38,76.38,0,0,0,7.77.47c2,.08,3.72.11,5.08.06a1.16,1.16,0,0,1,1.31,1.32c0,.79-.44,1.23-1.31,1.32-.49,0-1,0-1.58.06-3.82,0-7.54-.22-11.14-.53-.26,0-.5-.08-.72-.13a1.29,1.29,0,0,1-.86-1.45A1.16,1.16,0,0,1,257.62,406.94Zm0,7a65,65,0,0,0,7.05.46c1.84.09,3.36.11,4.54.06.93,0,1.39.44,1.39,1.32s-.46,1.23-1.39,1.32c-.39,0-.83,0-1.31.06-3.56,0-7-.22-10.21-.52l-.66-.13a1.29,1.29,0,0,1-.86-1.45A1.15,1.15,0,0,1,257.62,413.93Zm12,12.05a44.17,44.17,0,0,1,.4,4.54,22.78,22.78,0,0,1,0,3.5c-.05.61-.58,1.05-1.59,1.31a52.38,52.38,0,0,1-9.35.14c-1.67-.14-2.33-.86-2-2.18a27.65,27.65,0,0,0,.26-8.3,1.16,1.16,0,0,1,1.32-1.45,1,1,0,0,1,1.05.6q4.08.06,7.77.26A2.2,2.2,0,0,1,269.61,426Zm-9.42.72a59.06,59.06,0,0,1-.39,5.93c-.05.22,0,.33.19.33a38.94,38.94,0,0,0,7.38-.06.28.28,0,0,0,.13-.27,38.77,38.77,0,0,0-.33-5.2.5.5,0,0,0-.46-.46Z"/><rect class="b9c8e555-7c6c-404e-b111-042045ddd8fb" x="585.51" y="271.89" width="394.44" height="24.37" rx="12.19"/><rect class="fa1ef91f-4f20-4867-9d3a-0b1e8d6016a7" x="843.36" y="276.28" width="132.31" height="15.6" rx="7.8"/><circle class="b5b209f2-ed4a-4775-9438-5d8da1d20323" cx="846.4" cy="284.08" r="23.62"/><circle class="a8d53abe-9684-451c-b131-8be94028a74d" cx="848" cy="281.48" r="20.8"/><path class="b5b209f2-ed4a-4775-9438-5d8da1d20323" d="M831.57,285.56h0a1,1,0,0,1,1.21.8l.11.71a1,1,0,0,1-.93,1.09h0a1,1,0,0,1-1.21-.79l-.11-.72A1,1,0,0,1,831.57,285.56Z"/><path class="b009d71a-e81c-4a58-b031-555db5456ea5" d="M833.64,291.07a17,17,0,0,0,11.83,8.05"/><path class="e12308ca-35e8-4055-9858-4fa48f35bbd6" d="M834,290.82a17,17,0,0,0,11.83,8.05"/><path class="e12308ca-35e8-4055-9858-4fa48f35bbd6" d="M832.14,286.21a2.18,2.18,0,0,0,.17.92"/><path class="b009d71a-e81c-4a58-b031-555db5456ea5" d="M838.2,268.75A17,17,0,0,0,831,281.08"/><path class="e12308ca-35e8-4055-9858-4fa48f35bbd6" d="M838.52,269.15a17,17,0,0,0-7.26,12.33"/><path class="e4d4ee59-d139-408a-b070-8034cbffd970" d="M812.48,390.76v6.41q5.64.27,7.32.41a1.45,1.45,0,0,1,1.35,1.31,68,68,0,0,1,.27,7.31c0,.7-.4,1.07-1.22,1.13q-4.38,0-7.72,0,0,8.49,0,11.52a.87.87,0,0,1-1,.81.89.89,0,0,1-.9-1V407.33a70.81,70.81,0,0,1-8.22-.45c-.84-.15-1.15-.63-.9-1.44a46,46,0,0,0,.63-8.31.79.79,0,0,1,.86-.82c.45,0,.72.17.81.5q3.88.13,6.82.27v-6.32a.8.8,0,0,1,.9-.91A.83.83,0,0,1,812.48,390.76Zm-8.54,7.81a43.47,43.47,0,0,1-.54,6.78q2.94.18,7.23.27v-6.78Q806.74,398.66,803.94,398.57Zm8.54,7.05q3.3,0,7.14,0c0-2.41-.08-4.54-.23-6.41l-6.91-.32Z"/><path class="e4d4ee59-d139-408a-b070-8034cbffd970" d="M968.44,398.57a.84.84,0,0,1-1,.95q-7.68,0-12-.23c0,.58-.09,3.15-.27,7.73q4.2.32,10.66.31c.69,0,1,.32,1,.95s-.33,1-1,1c-5,0-8.62-.08-10.79-.23l-.23,5.69a2,2,0,0,0,.45,1.54,3.81,3.81,0,0,0,2,.63,87.8,87.8,0,0,0,9.31.32c.66,0,1,.32,1,.95s-.33.95-1,.95q-7.41,0-9.49-.27a6.07,6.07,0,0,1-3.07-1,3.92,3.92,0,0,1-1.13-3.08c0-.21.11-2.34.32-6.41s.26-7,.23-9a1,1,0,0,1-.91-1,.84.84,0,0,1,1-.95l.59.05q4.16.31,13.32.31A.84.84,0,0,1,968.44,398.57Z"/><path class="e4d4ee59-d139-408a-b070-8034cbffd970" d="M985.38,411a34.74,34.74,0,0,1-.63,7.31.9.9,0,0,1-1,.73c-.61,0-.91-.29-.91-.86a2.93,2.93,0,0,1,.05-.41,44.41,44.41,0,0,0,.59-6.77,3.85,3.85,0,0,0-1.22-3,4.41,4.41,0,0,0-3.17-1.13,6.65,6.65,0,0,0-5,2.44c0,1.08,0,2.29,0,3.61,0,1.78-.06,3.5-.18,5.15-.06.66-.36,1-.9,1a.81.81,0,0,1-.91-.91V418c.09-1.24.14-2.91.14-5q0-4.43-.14-6.5v-.27c0-.6.33-.9,1-.9q.76,0,.81.9a5.4,5.4,0,0,1,.09.68,8.31,8.31,0,0,1,5.1-1.86,6.28,6.28,0,0,1,4.34,1.54A5.7,5.7,0,0,1,985.38,411Z"/></g></g></svg>