<svg xmlns="http://www.w3.org/2000/svg" xmlns:xlink="http://www.w3.org/1999/xlink" viewBox="0 0 215.89 290.35"><defs><style>.a1c3ebd6-f15d-4d07-b37e-5f439c671157,.a6f9422e-31df-460b-ba36-3c44f6e78d04,.aaf453d3-8684-45fe-bc3b-f9cfaff94629,.ed550059-7ab0-49fd-8188-d16938b78877,.fd4f3d21-424b-49b2-9747-15529b017d92{fill:none;}.a9fc751f-bba7-42eb-81f3-75184316eea4{fill:#44778e;}.aaf453d3-8684-45fe-bc3b-f9cfaff94629,.fd4f3d21-424b-49b2-9747-15529b017d92{stroke:#231815;}.a1c3ebd6-f15d-4d07-b37e-5f439c671157,.aaf453d3-8684-45fe-bc3b-f9cfaff94629,.ed550059-7ab0-49fd-8188-d16938b78877,.ee50792e-1b41-4185-8062-f7b44b7234ec,.fd4f3d21-424b-49b2-9747-15529b017d92{stroke-miterlimit:10;}.fd4f3d21-424b-49b2-9747-15529b017d92{stroke-width:1.68px;}.a6baafcd-fa6a-4aa6-b628-51fb3e9da6d3{fill:#914f24;}.ada4ea95-0df7-47cf-8604-55d1e8cc62b9{fill:#8b4b24;}.e56b0140-0553-4117-a634-11471418e1d5{fill:#9fa0a0;}.aaf453d3-8684-45fe-bc3b-f9cfaff94629,.ed550059-7ab0-49fd-8188-d16938b78877{stroke-width:0.42px;}.ed550059-7ab0-49fd-8188-d16938b78877{stroke:#fff;}.feb73d58-ab1a-4dfe-ac64-9e610bb0c2a6{fill:#2b729c;}.fed36673-1446-45bb-8b8e-7c7f2f8a5f90{clip-path:url(#abf7ee6b-7709-40c0-b28f-ab0f835e1caf);}.ee50792e-1b41-4185-8062-f7b44b7234ec{fill:#85cee0;}.a1c3ebd6-f15d-4d07-b37e-5f439c671157,.ee50792e-1b41-4185-8062-f7b44b7234ec{stroke:#40220f;stroke-width:5.04px;}.a8cea1ea-3295-4541-84c2-396cfe8b64a8{fill:#231815;}.e4b5438a-04a9-4a0e-963a-8dc642377b1c{fill:#fff;}.ea6bef04-1409-43d4-8b15-20bae2ff9ccb{fill:#9cd8f6;}.bad29ae8-dbd0-4403-90fd-b65125838c81{fill:#3b4f86;}.a06239e3-f812-4f8b-ad61-3701902beac4{fill:#e9e6f3;}.b545b4bd-7c35-4e60-8639-c8f56f8fd5b7{fill:#ffe137;}.f0fca931-2165-4fd1-866e-b113a86db2de{fill:#dbc260;}.b21792f9-1a87-4b50-9d8a-141e78aa229b{fill:#feeacd;}</style><clipPath id="abf7ee6b-7709-40c0-b28f-ab0f835e1caf"><ellipse class="a6f9422e-31df-460b-ba36-3c44f6e78d04" cx="109.04" cy="162.37" rx="95.37" ry="62.95" transform="translate(-85.56 142.78) rotate(-50.37)"/></clipPath></defs><title>魚2</title><g id="a615f764-eaaa-4fa8-b40e-fa27fe9c6afc" data-name="圖層 2"><g id="a880df87-4c70-4dc2-9186-57eca67c6525" data-name="圖層 1"><path class="a9fc751f-bba7-42eb-81f3-75184316eea4" d="M92.18,125a122.23,122.23,0,0,1,7.68-21.3c1.14-2.43-2.48-4.57-3.63-2.12a129,129,0,0,0-8.11,22.3c-.68,2.62,3.37,3.74,4.06,1.12Z"/><path class="a9fc751f-bba7-42eb-81f3-75184316eea4" d="M108.16,84.25l11.08-15.86c1.56-2.22-2.09-4.32-3.63-2.12L104.53,82.13c-1.55,2.22,2.09,4.33,3.63,2.12Z"/><path class="a9fc751f-bba7-42eb-81f3-75184316eea4" d="M130.74,57.08a119,119,0,0,1,13.1-11.35c2.15-1.59,0-5.24-2.12-3.62a124.49,124.49,0,0,0-14,12c-1.91,1.92,1.06,4.89,3,3Z"/><path class="a9fc751f-bba7-42eb-81f3-75184316eea4" d="M155.86,36.54l17.66-6.71c2.5-.95,1.42-5-1.12-4l-17.66,6.71c-2.5.95-1.41,5,1.12,4Z"/><path class="a9fc751f-bba7-42eb-81f3-75184316eea4" d="M190,23.76a24.63,24.63,0,0,1,14.08-2.09c2.67.35,2.64-3.85,0-4.21a28.61,28.61,0,0,0-16.21,2.67c-2.44,1.16-.31,4.79,2.13,3.63Z"/><path class="fd4f3d21-424b-49b2-9747-15529b017d92" d="M191.8,50.62s19.59,59.21,20.78,73.11c2.47,28.88-2.47,59.09-6.59,68.54"/><path class="fd4f3d21-424b-49b2-9747-15529b017d92" d="M202.37,93.9s-14.46-17.6-11.63-31.55"/><path class="fd4f3d21-424b-49b2-9747-15529b017d92" d="M189.22,61.61s-12.54-10.09-10.86-27"/><path class="fd4f3d21-424b-49b2-9747-15529b017d92" d="M177.87,33.07S170.19,27,167.2,13"/><path class="a6baafcd-fa6a-4aa6-b628-51fb3e9da6d3" d="M214.23,189.25c-2.06,21.27-9.63,9-6.74,3.4,2.15-4.18,3.6-23.76,3.45-44.18a5.84,5.84,0,0,0,2.4-.66.55.55,0,0,0-.32-.71h0c.87-.2,1.69-.45,1.56-1.07-.18-.88-1.46-.6-1.46-.6l-2.21.09c-.06-4-.18-8-.37-12,.5-.09.88-.23,1-.43a1,1,0,0,0-1.06-1.36h0c-.07-1.24-.15-2.47-.23-3.68-.7-10.34-3.37-21.92-6.5-32.68.55-.22,1-.54.9-1.07s-.8-.6-1.38-.57c-4.09-13.83-8.82-26.13-10.89-32.47.33-.26.63-.56.59-.8-.09-.5-.67-.56-.67-.56a.85.85,0,0,0-.35,0c-.07-.22-.13-.42-.18-.61-1.4-4.88-6.75-15.67-11.9-25.53.47-.12.69,0,.9-.67.31-1-.91-.87-.91-.87l-.68.22c-4.54-8.64-8.77-16.33-9.82-18.3-.31-.57-.71-1.23-1.17-1.94.3-.27.5-.53.44-.8A.53.53,0,0,0,168,11l-.44.35c-3.05-4.46-7.89-10.18-7.89-10.18s-.17-.67.45-.46,1,.82,5.11,5.19,16.08,26.19,21.23,34.9,19.17,48.63,22.83,61.39,6.26,44.42,6.26,44.42A369.9,369.9,0,0,1,214.23,189.25Z"/><path class="ada4ea95-0df7-47cf-8604-55d1e8cc62b9" d="M214.58,146c.13.62-.69.87-1.56,1.07-.36.08-.73.15-1,.24-1,.28-4.82.86-5.08.9a7,7,0,0,0-.2-2.54l4.21-.18,2.21-.09S214.4,145.15,214.58,146Z"/><path class="ada4ea95-0df7-47cf-8604-55d1e8cc62b9" d="M213.34,147.81a5.84,5.84,0,0,1-2.4.66c-1.82.31-4,.55-4.16.56a5.39,5.39,0,0,0,.12-.79c.26,0,4.07-.62,5.08-.9.31-.09.68-.16,1-.24h0A.55.55,0,0,1,213.34,147.81Z"/><path class="e56b0140-0553-4117-a634-11471418e1d5" d="M206.78,149a7.15,7.15,0,1,1-.08-3.33,7,7,0,0,1,.2,2.54A5.39,5.39,0,0,1,206.78,149Zm-4.54-.31a2.86,2.86,0,1,0-3.82,1.32A2.85,2.85,0,0,0,202.24,148.72Z"/><path class="ada4ea95-0df7-47cf-8604-55d1e8cc62b9" d="M209.76,132h0l.56-.14.14,0a1,1,0,0,1,1.06,1.36c-.09.2-.47.34-1,.43-1.24.22-3.21.1-3.23-.42s2-1.11,2.44-1.2h0Z"/><polygon class="ada4ea95-0df7-47cf-8604-55d1e8cc62b9" points="209.76 131.94 209.75 131.95 209.75 131.95 209.76 131.94"/><path class="e56b0140-0553-4117-a634-11471418e1d5" d="M200.92,144.91a2.85,2.85,0,1,1-3.82,1.31A2.85,2.85,0,0,1,200.92,144.91Z"/><path class="ada4ea95-0df7-47cf-8604-55d1e8cc62b9" d="M204.62,94.35c.12.53-.35.85-.9,1.07a12,12,0,0,1-1.17.33c-.58.16-1.25.15-1.54-.56s1.36-1.29,1.36-1.29a5.07,5.07,0,0,1,.87-.12C203.82,93.75,204.49,93.83,204.62,94.35Z"/><path class="ada4ea95-0df7-47cf-8604-55d1e8cc62b9" d="M192.94,60.51c0,.24-.26.54-.59.8a6.56,6.56,0,0,1-.8.53s-2,1.51-2.38.4,2.24-2.13,2.24-2.13a1.16,1.16,0,0,1,.51-.18.85.85,0,0,1,.35,0S192.85,60,192.94,60.51Z"/><path class="ada4ea95-0df7-47cf-8604-55d1e8cc62b9" d="M180.74,33.12c-.21.66-.43.55-.9.67a2.44,2.44,0,0,0-.85.41c-1.12.81-1.93.69-2.11.28s.49-1,1-1.41a5.47,5.47,0,0,1,1.28-.6l.68-.22S181.05,32.14,180.74,33.12Z"/><path class="ada4ea95-0df7-47cf-8604-55d1e8cc62b9" d="M168.6,11.43c.06.27-.14.53-.44.8s-.64.51-1,.8a.76.76,0,0,1-1.26-.27c-.07-.18.31-.63.62-.73a6.33,6.33,0,0,0,1-.68L168,11A.53.53,0,0,1,168.6,11.43Z"/><path class="aaf453d3-8684-45fe-bc3b-f9cfaff94629" d="M210.94,148.47c.15,20.42-1.3,40-3.45,44.18-2.89,5.6,4.68,17.87,6.74-3.4a369.9,369.9,0,0,0,1.32-42.64S213,115,209.29,102.19,191.61,49.51,186.46,40.8,169.32,10.27,165.23,5.9s-4.49-5-5.11-5.19-.56.34-.45.46"/><path class="aaf453d3-8684-45fe-bc3b-f9cfaff94629" d="M210.54,133.57c.19,3.92.31,7.94.37,12"/><path class="aaf453d3-8684-45fe-bc3b-f9cfaff94629" d="M203.72,95.42c3.13,10.76,5.8,22.34,6.5,32.68.08,1.21.16,2.44.23,3.68"/><path class="aaf453d3-8684-45fe-bc3b-f9cfaff94629" d="M192.35,61.31c2.07,6.34,6.8,18.64,10.89,32.47"/><path class="aaf453d3-8684-45fe-bc3b-f9cfaff94629" d="M179.84,33.79c5.15,9.86,10.5,20.65,11.9,25.53,0,.19.11.39.18.61"/><path class="aaf453d3-8684-45fe-bc3b-f9cfaff94629" d="M168.16,12.23c.46.71.86,1.37,1.17,1.94,1,2,5.28,9.66,9.82,18.3"/><path class="aaf453d3-8684-45fe-bc3b-f9cfaff94629" d="M159.67,1.17s4.84,5.72,7.89,10.18"/><path class="aaf453d3-8684-45fe-bc3b-f9cfaff94629" d="M206.7,145.7l4.21-.18,2.21-.09s1.28-.28,1.46.6c.13.62-.69.87-1.56,1.07-.36.08-.73.15-1,.24-1,.28-4.82.86-5.08.9h0"/><path class="aaf453d3-8684-45fe-bc3b-f9cfaff94629" d="M213,147.1a.55.55,0,0,1,.32.71,5.84,5.84,0,0,1-2.4.66c-1.82.31-4,.55-4.16.56h0"/><path class="aaf453d3-8684-45fe-bc3b-f9cfaff94629" d="M209.75,132h0"/><path class="aaf453d3-8684-45fe-bc3b-f9cfaff94629" d="M209.83,131.93l-.07,0h0c-.44.09-2.46.55-2.44,1.2s2,.64,3.23.42c.5-.09.88-.23,1-.43a1,1,0,0,0-1.06-1.36l-.14,0-.56.14"/><path class="aaf453d3-8684-45fe-bc3b-f9cfaff94629" d="M203.24,93.78a5.07,5.07,0,0,0-.87.12s-1.65.58-1.36,1.29,1,.72,1.54.56a12,12,0,0,0,1.17-.33c.55-.22,1-.54.9-1.07S203.82,93.75,203.24,93.78Z"/><path class="aaf453d3-8684-45fe-bc3b-f9cfaff94629" d="M191.92,59.93a.85.85,0,0,1,.35,0s.58.06.67.56c0,.24-.26.54-.59.8a6.56,6.56,0,0,1-.8.53s-2,1.51-2.38.4,2.24-2.13,2.24-2.13A1.16,1.16,0,0,1,191.92,59.93Z"/><path class="aaf453d3-8684-45fe-bc3b-f9cfaff94629" d="M179.84,33.79c.47-.12.69,0,.9-.67.31-1-.91-.87-.91-.87l-.68.22a5.47,5.47,0,0,0-1.28.6c-.5.4-1.17,1-1,1.41s1,.53,2.11-.28A2.44,2.44,0,0,1,179.84,33.79Z"/><path class="aaf453d3-8684-45fe-bc3b-f9cfaff94629" d="M168.16,12.23c.3-.27.5-.53.44-.8A.53.53,0,0,0,168,11l-.44.35a6.33,6.33,0,0,1-1,.68c-.31.1-.69.55-.62.73a.76.76,0,0,0,1.26.27C167.52,12.74,167.88,12.48,168.16,12.23Z"/><path class="aaf453d3-8684-45fe-bc3b-f9cfaff94629" d="M206.78,149a7.15,7.15,0,1,1-.08-3.33,7,7,0,0,1,.2,2.54A5.39,5.39,0,0,1,206.78,149Z"/><path class="ed550059-7ab0-49fd-8188-d16938b78877" d="M202.24,148.72a2.86,2.86,0,1,1-1.32-3.81A2.86,2.86,0,0,1,202.24,148.72Z"/><path class="fd4f3d21-424b-49b2-9747-15529b017d92" d="M166.56,12S158.74,2.29,159,.87,103.53,57.46,99.2,80.75a358,358,0,0,1-12.53,46.6"/><ellipse class="feb73d58-ab1a-4dfe-ac64-9e610bb0c2a6" cx="74.58" cy="226.24" rx="62.95" ry="19.85"/><g class="fed36673-1446-45bb-8b8e-7c7f2f8a5f90"><path class="ee50792e-1b41-4185-8062-f7b44b7234ec" d="M87.66,128.76S61.73,139.7,53.15,174.41s8.91,59.77,8.91,59.77L37.42,260.4,65.33,257,84.74,270.8,78.1,238.12s18-26.16,23.36-50.64C110.36,147,87.66,128.76,87.66,128.76Z"/><circle class="a8cea1ea-3295-4541-84c2-396cfe8b64a8" cx="82.39" cy="154.42" r="4.47"/><path class="e4b5438a-04a9-4a0e-963a-8dc642377b1c" d="M60.26,163.5S70,195.59,100,177L97.29,188.9s-16.77,15.82-40.4-12.62Z"/><path class="e4b5438a-04a9-4a0e-963a-8dc642377b1c" d="M55.58,179.92S65.3,212,95.78,193.35L93,205.22s-17,15.89-40.91-12.49Z"/><path class="e4b5438a-04a9-4a0e-963a-8dc642377b1c" d="M52.65,196.12s9.57,32.12,38,13.93l-2.43,11.8s-15.82,15.6-38.65-13Z"/><path class="a1c3ebd6-f15d-4d07-b37e-5f439c671157" d="M87.66,128.76S61.73,139.7,53.15,174.41s8.91,59.77,8.91,59.77L37.42,260.4,65.33,257,84.74,270.8,78.1,238.12s18-26.16,23.36-50.64C110.36,147,87.66,128.76,87.66,128.76Z"/></g><path class="ea6bef04-1409-43d4-8b15-20bae2ff9ccb" d="M26.75,197.11s4.77.14,2.94-12.6S13.85,159.69,7.13,166.85s-7.53,13.83,6.19,19.88S22.83,198.23,26.75,197.11Z"/><path class="feb73d58-ab1a-4dfe-ac64-9e610bb0c2a6" d="M26.7,196.56C26,192.62,23.34,190,20,187.94c-4.32-2.71-12.56-4.54-15-9.19-3.93-7.37,5.14-13,11.49-10.67,6.56,2.42,8.57,10,10.05,16.07L28,181.56l-.21.08,2.58,1.46,0-.22c-.48-2.65-4.53-1.53-4.05,1.12l0,.22a2.11,2.11,0,0,0,2.58,1.47l.21-.07A2.16,2.16,0,0,0,30.59,183c-1.65-6.75-4-14.27-10.5-17.87-5.56-3.08-12.72-2.47-17.07,2.38a11.6,11.6,0,0,0-.63,14.85c4.92,6.31,18.64,6.35,20.26,15.28.48,2.66,4.53,1.53,4.05-1.11Z"/><path class="ea6bef04-1409-43d4-8b15-20bae2ff9ccb" d="M116.2,206.39s-7.56-13.9,6.94-20.2,16.5-2.53,19.65,2.52,1.23,9.24-9.42,10.72-12.16,7.77-12.16,7.77S119.25,210.3,116.2,206.39Z"/><path class="feb73d58-ab1a-4dfe-ac64-9e610bb0c2a6" d="M116.63,195.82c2.35-4.71,6-8.95,11.3-10.4,3.37-.92,7.43-.84,10.49,1,4.46,2.73,3.75,7.92-1,9.85-7.08,2.87-17.34,1.29-18.32,11.45-.26,2.69,4,2.67,4.21,0,.74-7.74,15.31-5.47,20.09-10.2,4-3.92,3.19-9.49-.73-13.12-10-9.28-24.6-.92-29.65,9.27-1.2,2.42,2.42,4.55,3.62,2.12Z"/><path class="bad29ae8-dbd0-4403-90fd-b65125838c81" d="M30.77,216.73c-5.23,2-10.83,5.31-10.25,11.75a8.57,8.57,0,0,0,4.06,6.37c2.39,1.55,5.31,1.58,7.76,2.88,4.78,2.53,9-4.72,4.24-7.26a21.8,21.8,0,0,0-4.43-1.7c-.57-.16-3-.42-3.33-1.18s3.29-2.42,4.18-2.75c5-1.88,2.85-10-2.23-8.11Z"/><path class="bad29ae8-dbd0-4403-90fd-b65125838c81" d="M111.79,221.52a15.76,15.76,0,0,1,6.8,1.67,12.57,12.57,0,0,1,2.93,1.95c.75.72.71,1.37,1.13.92C119,230,124.88,236,128.6,232c4-4.23,2.3-9.95-1.81-13.38a24.33,24.33,0,0,0-15-5.51c-5.41-.17-5.4,8.24,0,8.41Z"/><path class="bad29ae8-dbd0-4403-90fd-b65125838c81" d="M133.11,189.81a2.23,2.23,0,0,1,1.86,4c-1.05.86.45,2.33,1.49,1.49a4.3,4.3,0,0,0-3.91-7.5,1,1,0,0,0,.56,2Z"/><path class="bad29ae8-dbd0-4403-90fd-b65125838c81" d="M9.45,170.83a5.73,5.73,0,0,0,1.81,8.62c1.21.6,2.28-1.22,1.06-1.81a3.65,3.65,0,0,1-1.39-5.33c.83-1.05-.65-2.55-1.48-1.48Z"/><path class="a06239e3-f812-4f8b-ad61-3701902beac4" d="M30.25,223.43a5.31,5.31,0,0,0-1,7.67c2.08,2.74,6,4,9.24,4.57,2.64.51,3.78-3.54,1.12-4a18.41,18.41,0,0,1-5.54-1.87c-.45-.26-2.77-1.91-1.71-2.69,2.15-1.59.06-5.24-2.12-3.63Z"/><path class="a06239e3-f812-4f8b-ad61-3701902beac4" d="M104.08,220.79c3.2,0,22.57-.28,19.51,6.67-1.08,2.45,2.54,4.6,3.63,2.12,5.61-12.73-16.18-13-23.14-13-2.7,0-2.7,4.19,0,4.2Z"/><path class="b545b4bd-7c35-4e60-8639-c8f56f8fd5b7" d="M78.13,257.52,81.35,264a2.64,2.64,0,0,0,2,1.45l7.19,1A2.64,2.64,0,0,1,92,271l-5.2,5.07a2.64,2.64,0,0,0-.76,2.33l1.23,7.16a2.64,2.64,0,0,1-3.82,2.78L77,285a2.61,2.61,0,0,0-2.46,0l-6.42,3.38a2.64,2.64,0,0,1-3.83-2.78l1.23-7.16a2.62,2.62,0,0,0-.76-2.33L59.56,271a2.64,2.64,0,0,1,1.46-4.5l7.19-1a2.64,2.64,0,0,0,2-1.45l3.22-6.51A2.63,2.63,0,0,1,78.13,257.52Z"/><path class="f0fca931-2165-4fd1-866e-b113a86db2de" d="M68.48,286.06a6.62,6.62,0,0,0,2.9-2.62,1.06,1.06,0,0,0-1.82-1.07,4.65,4.65,0,0,1-2.14,1.88,1,1,0,0,0-.38,1.43,1.08,1.08,0,0,0,1.44.38Z"/><path class="f0fca931-2165-4fd1-866e-b113a86db2de" d="M88.82,269.23c-.09,0,0,0-.06.18a2.21,2.21,0,0,1-.72.74,1.09,1.09,0,0,0-.38,1.44,1.06,1.06,0,0,0,1.44.37,3.74,3.74,0,0,0,1.79-2.53,2.12,2.12,0,0,0-1.51-2.23,1.05,1.05,0,0,0-.56,2Z"/><path class="f0fca931-2165-4fd1-866e-b113a86db2de" d="M76.25,260.07c0-.26-.11.08-.14.13s0-.08,0,0h-.06c.12,0,.14,0,.07,0a.14.14,0,0,1-.11-.07,1.94,1.94,0,0,1,.33,1,1.09,1.09,0,0,0,1.05,1.06,1.06,1.06,0,0,0,1-1.06c-.12-1.17-.42-2.52-1.69-3a1.93,1.93,0,0,0-2.54,1.27A1.09,1.09,0,0,0,75,260.8a1.06,1.06,0,0,0,1.29-.73Z"/><path class="b21792f9-1a87-4b50-9d8a-141e78aa229b" d="M127.15,289.51a3.42,3.42,0,0,1-1.62-.41l-6.43-3.38a1.77,1.77,0,0,0-1.67,0L111,289.1a3.42,3.42,0,0,1-1.62.41,3.47,3.47,0,0,1-2.66-1.26,3.39,3.39,0,0,1-.76-2.82l1.22-7.15a1.79,1.79,0,0,0-.51-1.59l-5.2-5.07a3.48,3.48,0,0,1,1.92-5.93l7.19-1.05a1.77,1.77,0,0,0,1.35-1l3.22-6.51a3.47,3.47,0,0,1,6.23,0l3.22,6.51a1.77,1.77,0,0,0,1.35,1l7.18,1.05a3.48,3.48,0,0,1,1.93,5.93l-5.2,5.07a1.79,1.79,0,0,0-.51,1.59l1.22,7.16a3.37,3.37,0,0,1-.76,2.81A3.47,3.47,0,0,1,127.15,289.51Z"/><path class="b545b4bd-7c35-4e60-8639-c8f56f8fd5b7" d="M118.27,256.05a2.6,2.6,0,0,1,2.36,1.47l3.21,6.51a2.67,2.67,0,0,0,2,1.45l7.18,1a2.64,2.64,0,0,1,1.47,4.5l-5.21,5.07a2.61,2.61,0,0,0-.75,2.33l1.22,7.16a2.64,2.64,0,0,1-3.82,2.78L119.49,285a2.58,2.58,0,0,0-2.45,0l-6.43,3.38a2.64,2.64,0,0,1-3.82-2.78l1.22-7.16a2.61,2.61,0,0,0-.75-2.33L102.05,271a2.64,2.64,0,0,1,1.47-4.5l7.18-1a2.67,2.67,0,0,0,2-1.45l3.21-6.51a2.6,2.6,0,0,1,2.37-1.47m0-1.68a4.3,4.3,0,0,0-3.88,2.41l-3.21,6.51a1,1,0,0,1-.72.52l-7.19,1.05a4.32,4.32,0,0,0-2.39,7.36l5.2,5.07a1,1,0,0,1,.28.84l-1.23,7.16a4.32,4.32,0,0,0,4.25,5.06,4.2,4.2,0,0,0,2-.51l6.43-3.38a1,1,0,0,1,.89,0l6.43,3.38a4.2,4.2,0,0,0,2,.51,4.32,4.32,0,0,0,4.25-5.06l-1.23-7.15a1,1,0,0,1,.28-.85l5.2-5.07a4.32,4.32,0,0,0-2.39-7.36l-7.19-1.05a1,1,0,0,1-.72-.52l-3.21-6.51a4.3,4.3,0,0,0-3.87-2.41Z"/><path class="f0fca931-2165-4fd1-866e-b113a86db2de" d="M111,286.06a6.52,6.52,0,0,0,2.9-2.62,1.06,1.06,0,0,0-1.82-1.07,4.61,4.61,0,0,1-2.14,1.88,1.05,1.05,0,0,0-.38,1.43,1.08,1.08,0,0,0,1.44.38Z"/><path class="f0fca931-2165-4fd1-866e-b113a86db2de" d="M131.32,269.23c-.09,0,0,0-.06.18a2.24,2.24,0,0,1-.73.74,1.09,1.09,0,0,0-.38,1.44,1.06,1.06,0,0,0,1.44.37,3.68,3.68,0,0,0,1.79-2.53,2.12,2.12,0,0,0-1.5-2.23,1.05,1.05,0,0,0-.56,2Z"/><path class="f0fca931-2165-4fd1-866e-b113a86db2de" d="M118.74,260.07c.05-.26-.11.08-.13.13s0-.08,0,0h-.07c.12,0,.15,0,.08,0a.15.15,0,0,1-.12-.07,1.94,1.94,0,0,1,.33,1,1.09,1.09,0,0,0,1,1.06,1.06,1.06,0,0,0,1-1.06c-.12-1.17-.42-2.52-1.68-3a1.92,1.92,0,0,0-2.54,1.27,1.07,1.07,0,0,0,.73,1.29,1.05,1.05,0,0,0,1.29-.73Z"/><path class="b545b4bd-7c35-4e60-8639-c8f56f8fd5b7" d="M35.64,257.52,38.85,264a2.67,2.67,0,0,0,2,1.45l7.19,1a2.64,2.64,0,0,1,1.46,4.5l-5.2,5.07a2.62,2.62,0,0,0-.76,2.33l1.23,7.16a2.64,2.64,0,0,1-3.83,2.78L34.5,285a2.59,2.59,0,0,0-2.45,0l-6.43,3.38a2.64,2.64,0,0,1-3.82-2.78L23,278.42a2.61,2.61,0,0,0-.75-2.33L17.07,271a2.64,2.64,0,0,1,1.46-4.5l7.18-1a2.67,2.67,0,0,0,2-1.45l3.21-6.51A2.64,2.64,0,0,1,35.64,257.52Z"/><path class="f0fca931-2165-4fd1-866e-b113a86db2de" d="M26,286.06a6.52,6.52,0,0,0,2.9-2.62,1.05,1.05,0,0,0-1.81-1.07,4.63,4.63,0,0,1-2.15,1.88,1,1,0,0,0-.37,1.43,1.06,1.06,0,0,0,1.43.38Z"/><path class="f0fca931-2165-4fd1-866e-b113a86db2de" d="M46.33,269.23c-.09,0,0,0-.06.18a2.24,2.24,0,0,1-.73.74,1.09,1.09,0,0,0-.38,1.44,1.06,1.06,0,0,0,1.44.37,3.68,3.68,0,0,0,1.79-2.53,2.12,2.12,0,0,0-1.5-2.23,1.05,1.05,0,0,0-.56,2Z"/><path class="f0fca931-2165-4fd1-866e-b113a86db2de" d="M33.75,260.07c0-.26-.11.08-.13.13s0-.08,0,0h-.07c.12,0,.15,0,.08,0a.15.15,0,0,1-.12-.07,1.85,1.85,0,0,1,.33,1,1.09,1.09,0,0,0,1,1.06A1.07,1.07,0,0,0,36,261.2c-.13-1.17-.43-2.52-1.69-3a1.92,1.92,0,0,0-2.54,1.27,1.07,1.07,0,0,0,.73,1.29,1.05,1.05,0,0,0,1.29-.73Z"/></g></g></svg>