<svg xmlns="http://www.w3.org/2000/svg" viewBox="0 0 308.61 172.58"><defs><style>.e93cb6fb-d4d9-41af-b689-e8a73e208415{fill:#c3a05e;}.f8f43ba7-dc67-4542-bcff-03af1a490ec2{fill:#805224;}.aa261ae9-1f52-4d73-9309-cd676ddac4bc{fill:#c58a45;}.ae8bdc7d-8909-4646-9771-3e0b6b76ee50{fill:#a06e35;}.ae675ab6-2fa2-4a66-b49a-a87b5e06acff,.b2fd7ea9-ba2a-4cfd-967f-4a44de33950e,.b3fb4939-5ee2-4cd4-a75a-5add5084eb5f,.beb5cd07-f9b4-4944-9675-589474fcbb28{fill:none;}.ae675ab6-2fa2-4a66-b49a-a87b5e06acff,.b2fd7ea9-ba2a-4cfd-967f-4a44de33950e,.beb5cd07-f9b4-4944-9675-589474fcbb28{stroke:#40220f;}.ae675ab6-2fa2-4a66-b49a-a87b5e06acff,.beb5cd07-f9b4-4944-9675-589474fcbb28{stroke-linecap:round;stroke-linejoin:round;}.beb5cd07-f9b4-4944-9675-589474fcbb28{stroke-width:5.5px;}.b2fd7ea9-ba2a-4cfd-967f-4a44de33950e,.b3fb4939-5ee2-4cd4-a75a-5add5084eb5f{stroke-miterlimit:10;stroke-width:1.66px;}.b3fb4939-5ee2-4cd4-a75a-5add5084eb5f{stroke:#231815;}.ae675ab6-2fa2-4a66-b49a-a87b5e06acff{stroke-width:1.83px;}.bfb39fc5-1fe0-447e-9f3a-da2819811815{fill:#804712;}.bff47cb7-8bea-4483-b535-1a05355b7dee{fill:#7b4510;}.a58dbaa8-f2d2-4117-a571-5bb0de5a0a5f{fill:#4b311f;}.aa54c199-5008-43a1-8a5c-12f9884ce0a8{fill:#fff;}</style></defs><title>蜂窩</title><g id="e2e7048d-fcc9-449c-a64b-a9479db2a3be" data-name="圖層 2"><g id="aee3fe1a-9978-4fb9-95cf-bd63015709bb" data-name="圖層 1"><path class="e93cb6fb-d4d9-41af-b689-e8a73e208415" d="M242.17,88.79c7.17,11.21,3.86,18,0,21.65-2.42.89-12.63,1.89-26.3,2.82,1.2-6.36-.55-12.33-10.55-21.43-1.3-1.19-2.57-2.24-3.78-3.17C222.07,88.78,240,88.9,242.17,88.79Z"/><path class="f8f43ba7-dc67-4542-bcff-03af1a490ec2" d="M239.12,84.56a49.34,49.34,0,0,1,3,4.23c-2.21.11-20.1,0-40.63-.13a37.43,37.43,0,0,0-8.77-5.07c23,0,46.52,0,46.52,0h0C239.2,84.23,239.12,84.56,239.12,84.56Z"/><path class="e93cb6fb-d4d9-41af-b689-e8a73e208415" d="M236.15,67.67c4.34,5.52,3.57,13.33,3.15,16h0s-23.49,0-46.52,0c-4.91-2-7.86-1.53-7.86-1.53a30,30,0,0,0-7.56,1.38l-.45.14c-13.83,0-25.2,0-27.83.06-7.63.13-55.56,2.07-56.18,2.09.57-.67.93-1,.93-1-2.24-6.85-.6-11.81,1.87-15.2h0s53-1.83,67.19-1.83,63.11-1.45,73.26,0Z"/><path class="f8f43ba7-dc67-4542-bcff-03af1a490ec2" d="M242.17,110.44A17.71,17.71,0,0,1,236.6,114a23.76,23.76,0,0,1-.08,2.57c-1.37.46-10.13,1-22,1.56.09-.29.19-.59.29-.9a31,31,0,0,0,1.05-4C229.54,112.33,239.75,111.33,242.17,110.44Z"/><path class="f8f43ba7-dc67-4542-bcff-03af1a490ec2" d="M229.87,63.19a14.12,14.12,0,0,1,6.28,4.48c-10.15-1.45-59.06,0-73.26,0S95.7,69.5,95.7,69.5h0a18.86,18.86,0,0,1,4.3-4.19s51-2.67,64.46-2.67,50-2.77,65.26-.59C229.84,62.77,229.87,63.19,229.87,63.19Z"/><path class="e93cb6fb-d4d9-41af-b689-e8a73e208415" d="M214.53,118.12c11.86-.56,20.62-1.1,22-1.56A16.91,16.91,0,0,1,227,130.43h0c-1.7.66-6.4,1.22-12.7,1.7a11.29,11.29,0,0,0,1.7-3.42C217.33,123.85,214.53,118.12,214.53,118.12Z"/><path class="e93cb6fb-d4d9-41af-b689-e8a73e208415" d="M212.9,43.79c13.28,5,16.2,14.92,16.81,18.26-15.28-2.18-51.84.59-65.26.59S100,65.31,100,65.31a17.6,17.6,0,0,1,3-1.73c1-8.45,6.09-13.63,11.17-16.75.79-.06,40.65-3,49.08-3H212.9Z"/><path class="f8f43ba7-dc67-4542-bcff-03af1a490ec2" d="M214.29,132.13c6.3-.48,11-1,12.7-1.7a19.7,19.7,0,0,1-5.07,1.86,24.15,24.15,0,0,1-.58,3.91h0A71.22,71.22,0,0,1,209,138.05c-.06-.21-.12-.43-.19-.63A23.61,23.61,0,0,0,214.29,132.13Z"/><path class="e93cb6fb-d4d9-41af-b689-e8a73e208415" d="M221.33,136.2h0a19.94,19.94,0,0,1-13.49,14.39,18.16,18.16,0,0,1-.25,2.14c-1.33.39-2.66.74-4,1.07,5-4.87,6.56-11.29,5.37-15.75A71.22,71.22,0,0,0,221.33,136.2Z"/><path class="aa261ae9-1f52-4d73-9309-cd676ddac4bc" d="M215.87,113.26a31,31,0,0,1-1.05,4c-.1.31-.2.61-.29.9,0,0,2.8,5.73,1.46,10.59a11.29,11.29,0,0,1-1.7,3.42,23.61,23.61,0,0,1-5.53,5.29c.07.2.13.42.19.63,1.19,4.46-.32,10.88-5.37,15.75a24.88,24.88,0,0,1-13.14,6.36c.06-.1,1.22-1.63,5.51-3.78s5.87-9.2,6.85-11.64a18.48,18.48,0,0,0,1-5.61c-.72-7.06,3.84-10.75,6.06-14s.06-3.1,1.43-9.17-.78-13.39-4-15.64-4.62-3.63-11.07-10-18.9-6.93-18.9-6.93a30,30,0,0,1,7.56-1.38s3-.42,7.86,1.53a37.43,37.43,0,0,1,8.77,5.07c1.21.93,2.48,2,3.78,3.17C215.32,100.93,217.07,106.9,215.87,113.26Z"/><path class="f8f43ba7-dc67-4542-bcff-03af1a490ec2" d="M212.89,43.79h-49.7c-8.43,0-48.29,3-49.08,3a34.65,34.65,0,0,1,11.24-4.36c0-.33.05-.67.08-1h0s29.58-2.25,39.4-2.25h41.83a8.64,8.64,0,0,1,.26,2.85A41,41,0,0,1,212.89,43.79Z"/><path class="ae8bdc7d-8909-4646-9771-3e0b6b76ee50" d="M151.94,120.89a18,18,0,0,1,1.87-3c-.07-.52-.13-1.08-.18-1.64a30.4,30.4,0,0,1,10.1-25A33.54,33.54,0,0,1,167,88.5h0a35.21,35.21,0,0,1,9.86-4.92l.45-.14s12.45.6,18.9,6.93,7.88,7.72,11.07,10,5.35,9.57,4,15.64.78,5.94-1.43,9.17-6.78,6.93-6.06,14a18.48,18.48,0,0,1-1,5.61c-1,2.44-2.42,9.43-6.85,11.64s-5.45,3.68-5.51,3.78a37.06,37.06,0,0,1-4.69.54,47.22,47.22,0,0,1-6.12-.12,31.14,31.14,0,0,1-14.13-4.29,22.06,22.06,0,0,1-10.22-17.1c0-.28,0-.44,0-.46a16,16,0,0,1-3.63-4.34C148.77,129.25,150.36,124.05,151.94,120.89Z"/><path class="e93cb6fb-d4d9-41af-b689-e8a73e208415" d="M206.67,39.22H164.84c-9.82,0-39.4,2.25-39.4,2.25h0c2.09-18,36.28-22,36.28-22V3.94l7.56-1.19.13,16.36C199.22,23.26,205.43,34.05,206.67,39.22Z"/><path class="f8f43ba7-dc67-4542-bcff-03af1a490ec2" d="M190.44,160.16a24.88,24.88,0,0,0,13.14-6.36c1.36-.33,2.69-.68,4-1.07a14.71,14.71,0,0,1-2.28,5.6c-4.44,1.38-12.14,2.11-19.56,2.49v-.12A37.06,37.06,0,0,0,190.44,160.16Z"/><path class="e93cb6fb-d4d9-41af-b689-e8a73e208415" d="M205.32,158.33c-5,7.58-16.38,10.12-22.06,10.73-7.3.79-32.49,2.12-46-2.9-8-2.94-10.69-7.49-11.61-10.74,0,0,21.78,5.46,40.36,5.81,0,0,9.64.12,19.8-.41C193.18,160.44,200.88,159.71,205.32,158.33Z"/><path class="f8f43ba7-dc67-4542-bcff-03af1a490ec2" d="M185.75,160.7v.12c-10.16.53-19.8.41-19.8.41-18.58-.35-40.36-5.81-40.36-5.81a10.08,10.08,0,0,1-.37-3.95,14.22,14.22,0,0,1-5.37-2.55,238.88,238.88,0,0,0,45.6,7.43l0-.06a31.14,31.14,0,0,0,14.13,4.29A47.22,47.22,0,0,0,185.75,160.7Z"/><path class="f8f43ba7-dc67-4542-bcff-03af1a490ec2" d="M176.9,83.58A35.21,35.21,0,0,0,167,88.5h0c-16.41,0-29.5,0-31.38.29-5.34.79-45.9,1.22-45.9,1.22a37,37,0,0,1,3.14-4.28h0c.62,0,48.55-2,56.18-2.09C151.7,83.6,163.07,83.58,176.9,83.58Z"/><path class="e93cb6fb-d4d9-41af-b689-e8a73e208415" d="M165.5,156.29l0,.06a238.88,238.88,0,0,1-45.6-7.43h0c-4.49-3.39-6.93-9-8.11-12.72,0,0,29.29,3,38.15,3l5.38,0A22.06,22.06,0,0,0,165.5,156.29Z"/><path class="e93cb6fb-d4d9-41af-b689-e8a73e208415" d="M167,88.5a33.54,33.54,0,0,0-3.3,2.71,30.4,30.4,0,0,0-10.1,25l-8.6.24c-35.11.87-51.62-4-52.09-4.15h0c-10.18-6.93-6.82-16.44-3.18-22.3,0,0,40.56-.43,45.9-1.22C137.53,88.51,150.62,88.46,167,88.5Z"/><path class="f8f43ba7-dc67-4542-bcff-03af1a490ec2" d="M155.26,138.73s0,.18,0,.46l-5.38,0c-8.86,0-38.15-3-38.15-3a31.13,31.13,0,0,1-1-3.8,23.33,23.33,0,0,1-3.71-1.31h0s33.29,3.5,44.06,3.32h.52A16,16,0,0,0,155.26,138.73Z"/><path class="f8f43ba7-dc67-4542-bcff-03af1a490ec2" d="M153.63,116.22c.05.56.11,1.12.18,1.64a18,18,0,0,0-1.87,3c-3.24.16-6.16.33-8.65.49a190.64,190.64,0,0,1-46.79-3.29,16.94,16.94,0,0,1-.47-4,27.69,27.69,0,0,1-3.09-1.81c.47.14,17,5,52.09,4.15Z"/><path class="e93cb6fb-d4d9-41af-b689-e8a73e208415" d="M151.63,134.39h-.52c-10.77.18-44.06-3.32-44.06-3.32h0a18.22,18.22,0,0,1-10.55-13,190.64,190.64,0,0,0,46.79,3.29c2.49-.16,5.41-.33,8.65-.49C150.36,124.05,148.77,129.25,151.63,134.39Z"/><path class="beb5cd07-f9b4-4944-9675-589474fcbb28" d="M92.89,85.73c.57-.67.93-1,.93-1-2.24-6.85-.6-11.81,1.87-15.2a18.86,18.86,0,0,1,4.3-4.19,17.6,17.6,0,0,1,3-1.73c1-8.45,6.09-13.63,11.17-16.75a34.65,34.65,0,0,1,11.24-4.36c0-.33.05-.67.08-1,2.09-18,36.28-22,36.28-22V3.94l7.56-1.19"/><path class="beb5cd07-f9b4-4944-9675-589474fcbb28" d="M92.93,112.31c-10.18-6.93-6.82-16.44-3.18-22.3a37,37,0,0,1,3.14-4.28"/><path class="beb5cd07-f9b4-4944-9675-589474fcbb28" d="M119.86,148.92c-4.49-3.39-6.93-9-8.11-12.72a31.13,31.13,0,0,1-1-3.8,23.33,23.33,0,0,1-3.71-1.31,18.22,18.22,0,0,1-10.55-13,16.94,16.94,0,0,1-.47-4,27.69,27.69,0,0,1-3.09-1.81"/><path class="beb5cd07-f9b4-4944-9675-589474fcbb28" d="M227,130.43a19.7,19.7,0,0,1-5.07,1.86,24.15,24.15,0,0,1-.58,3.91,19.94,19.94,0,0,1-13.49,14.39,18.16,18.16,0,0,1-.25,2.14,14.71,14.71,0,0,1-2.28,5.6c-5,7.58-16.38,10.12-22.06,10.73-7.3.79-32.49,2.12-46-2.9-8-2.94-10.69-7.49-11.61-10.74a10.08,10.08,0,0,1-.37-3.95,14.22,14.22,0,0,1-5.37-2.55"/><path class="beb5cd07-f9b4-4944-9675-589474fcbb28" d="M236.15,67.67c4.34,5.52,3.57,13.33,3.15,16-.1.59-.18.92-.18.92a49.34,49.34,0,0,1,3,4.23c7.17,11.21,3.86,18,0,21.65A17.71,17.71,0,0,1,236.6,114a23.76,23.76,0,0,1-.08,2.57A16.91,16.91,0,0,1,227,130.43"/><path class="beb5cd07-f9b4-4944-9675-589474fcbb28" d="M212.9,43.79c13.28,5,16.2,14.92,16.81,18.26.13.72.16,1.14.16,1.14a14.12,14.12,0,0,1,6.28,4.48"/><path class="beb5cd07-f9b4-4944-9675-589474fcbb28" d="M169.27,2.75l.13,16.36c29.82,4.15,36,14.94,37.27,20.11a8.64,8.64,0,0,1,.26,2.85,41,41,0,0,1,6,1.72"/><path class="b2fd7ea9-ba2a-4cfd-967f-4a44de33950e" d="M125.44,41.47s29.58-2.25,39.4-2.25h41.83"/><path class="beb5cd07-f9b4-4944-9675-589474fcbb28" d="M212.89,43.79h0"/><path class="b2fd7ea9-ba2a-4cfd-967f-4a44de33950e" d="M114.1,46.83h0c.79-.06,40.65-3,49.08-3h49.7"/><path class="b2fd7ea9-ba2a-4cfd-967f-4a44de33950e" d="M100,65.31s51-2.67,64.46-2.67,50-2.77,65.26-.59"/><path class="beb5cd07-f9b4-4944-9675-589474fcbb28" d="M95.7,69.5s53-1.83,67.19-1.83,63.11-1.45,73.26,0h0"/><path class="b2fd7ea9-ba2a-4cfd-967f-4a44de33950e" d="M192.77,83.59c23,0,46.52,0,46.52,0"/><path class="b2fd7ea9-ba2a-4cfd-967f-4a44de33950e" d="M92.89,85.73c.62,0,48.55-2,56.18-2.09,2.63,0,14-.06,27.83-.06"/><path class="beb5cd07-f9b4-4944-9675-589474fcbb28" d="M92.89,85.73h0"/><path class="b2fd7ea9-ba2a-4cfd-967f-4a44de33950e" d="M201.54,88.66c20.53.12,38.42.24,40.63.13"/><path class="b2fd7ea9-ba2a-4cfd-967f-4a44de33950e" d="M89.75,90s40.56-.43,45.9-1.22c1.88-.28,15-.33,31.38-.29"/><path class="b2fd7ea9-ba2a-4cfd-967f-4a44de33950e" d="M215.85,113.26h0c13.67-.93,23.88-1.93,26.3-2.82"/><path class="b2fd7ea9-ba2a-4cfd-967f-4a44de33950e" d="M92.94,112.31c.47.14,17,5,52.09,4.15l8.6-.24"/><path class="beb5cd07-f9b4-4944-9675-589474fcbb28" d="M92.93,112.31h0"/><path class="b2fd7ea9-ba2a-4cfd-967f-4a44de33950e" d="M214.53,118.12c11.86-.56,20.62-1.1,22-1.56"/><path class="b2fd7ea9-ba2a-4cfd-967f-4a44de33950e" d="M96.49,118.09h0a190.64,190.64,0,0,0,46.79,3.29c2.49-.16,5.41-.33,8.65-.49h0"/><line class="beb5cd07-f9b4-4944-9675-589474fcbb28" x1="226.99" y1="130.43" x2="227" y2="130.43"/><path class="b2fd7ea9-ba2a-4cfd-967f-4a44de33950e" d="M214.29,132.13c6.3-.48,11-1,12.7-1.7"/><path class="b2fd7ea9-ba2a-4cfd-967f-4a44de33950e" d="M107.05,131.08s33.29,3.5,44.06,3.32h.52"/><path class="b2fd7ea9-ba2a-4cfd-967f-4a44de33950e" d="M209,138.05a71.22,71.22,0,0,0,12.38-1.85"/><path class="b2fd7ea9-ba2a-4cfd-967f-4a44de33950e" d="M111.75,136.2s29.29,3,38.15,3l5.38,0h0"/><path class="b3fb4939-5ee2-4cd4-a75a-5add5084eb5f" d="M203.58,153.8c1.36-.33,2.69-.68,4-1.07h0"/><path class="b2fd7ea9-ba2a-4cfd-967f-4a44de33950e" d="M119.86,148.92a238.88,238.88,0,0,0,45.6,7.43"/><path class="beb5cd07-f9b4-4944-9675-589474fcbb28" d="M119.86,148.92h0"/><path class="beb5cd07-f9b4-4944-9675-589474fcbb28" d="M185.76,160.82c7.42-.38,15.12-1.11,19.56-2.49"/><path class="b2fd7ea9-ba2a-4cfd-967f-4a44de33950e" d="M125.6,155.42s21.78,5.46,40.36,5.81c0,0,9.64.12,19.8-.41"/><path class="ae675ab6-2fa2-4a66-b49a-a87b5e06acff" d="M167,88.5a35.21,35.21,0,0,1,9.86-4.92"/><path class="b2fd7ea9-ba2a-4cfd-967f-4a44de33950e" d="M167,88.5h0"/><path class="ae675ab6-2fa2-4a66-b49a-a87b5e06acff" d="M176.9,83.58l.45-.14a30,30,0,0,1,7.56-1.38s3-.42,7.86,1.53a37.43,37.43,0,0,1,8.77,5.07c1.21.93,2.48,2,3.78,3.17,10,9.1,11.75,15.07,10.55,21.43a31,31,0,0,1-1.05,4c-.1.31-.2.61-.29.9,0,0,2.8,5.73,1.46,10.59a11.29,11.29,0,0,1-1.7,3.42,23.61,23.61,0,0,1-5.53,5.29c.07.2.13.42.19.63,1.19,4.46-.32,10.88-5.37,15.75a24.88,24.88,0,0,1-13.14,6.36,37.06,37.06,0,0,1-4.69.54,47.22,47.22,0,0,1-6.12-.12,31.14,31.14,0,0,1-14.13-4.29,22.06,22.06,0,0,1-10.22-17.1c0-.28,0-.44,0-.46a16,16,0,0,1-3.63-4.34c-2.86-5.14-1.27-10.34.31-13.5a18,18,0,0,1,1.87-3c-.07-.52-.13-1.08-.18-1.64a30.4,30.4,0,0,1,10.1-25A33.54,33.54,0,0,1,167,88.5"/><path class="ae675ab6-2fa2-4a66-b49a-a87b5e06acff" d="M177.35,83.44s12.45.6,18.9,6.93,7.88,7.72,11.07,10,5.35,9.57,4,15.64.78,5.94-1.43,9.17-6.78,6.93-6.06,14a18.48,18.48,0,0,1-1,5.61c-1,2.44-2.42,9.43-6.85,11.64s-5.45,3.68-5.51,3.78h0"/><path class="bfb39fc5-1fe0-447e-9f3a-da2819811815" d="M95.88,93.87c-5.4,7-2.73,17.72,6.73,18.95,2.92.37,2.89-4.21,0-4.59-6.34-.82-5.64-8.29-2.77-12,1.8-2.35-2.18-4.63-4-2.32Z"/><path class="bfb39fc5-1fe0-447e-9f3a-da2819811815" d="M101.79,73a8.25,8.25,0,0,0-3.49,8.67c.62,2.88,5,1.66,4.43-1.22a3.44,3.44,0,0,1,1.38-3.49,2.35,2.35,0,0,0,.82-3.14,2.32,2.32,0,0,0-3.14-.82Z"/><path class="bfb39fc5-1fe0-447e-9f3a-da2819811815" d="M120.29,49.84a25.76,25.76,0,0,0-11.91,9.4c-1.69,2.43,2.28,4.72,4,2.32a20.21,20.21,0,0,1,9.17-7.29c2.71-1.08,1.53-5.51-1.22-4.43Z"/><path class="bfb39fc5-1fe0-447e-9f3a-da2819811815" d="M107.81,126.22l5.06,3.65a2.32,2.32,0,0,0,3.14-.82,2.35,2.35,0,0,0-.83-3.14l-5.06-3.65a2.31,2.31,0,0,0-3.13.82,2.34,2.34,0,0,0,.82,3.14Z"/><path class="bfb39fc5-1fe0-447e-9f3a-da2819811815" d="M121.37,140.68a8.68,8.68,0,0,0,7.86,8.36,2.3,2.3,0,0,0,2.29-2.29,2.36,2.36,0,0,0-2.29-2.3,4,4,0,0,1-3.28-3.77c-.08-2.94-4.67-3-4.58,0Z"/><path class="bfb39fc5-1fe0-447e-9f3a-da2819811815" d="M204.41,53.56a12.84,12.84,0,0,1,6,1.4c1.61.84,2.81,2.21,4.39,3.08,2.59,1.42,4.91-2.54,2.32-4-2-1.11-3.56-2.77-5.74-3.71a17.7,17.7,0,0,0-7-1.4c-2.95,0-3,4.58,0,4.59Z"/><path class="bfb39fc5-1fe0-447e-9f3a-da2819811815" d="M177.35,30.78a15.9,15.9,0,0,1,10.37,4.6c2.12,2.06,5.36-1.18,3.24-3.24a20.86,20.86,0,0,0-13.61-5.95c-2.95-.16-2.94,4.43,0,4.59Z"/><path class="bfb39fc5-1fe0-447e-9f3a-da2819811815" d="M227.12,73.49a3.62,3.62,0,0,1,.41,4.49c-1.55,2.53,2.41,4.83,4,2.32a8.32,8.32,0,0,0-1.13-10.06c-2-2.14-5.28,1.11-3.24,3.25Z"/><path class="bfb39fc5-1fe0-447e-9f3a-da2819811815" d="M233.24,95.93a5.92,5.92,0,0,1-1.52,6.95c-2.18,2,1.07,5.22,3.24,3.24a10.56,10.56,0,0,0,2.24-12.5c-1.28-2.66-5.24-.33-4,2.31Z"/><path class="bfb39fc5-1fe0-447e-9f3a-da2819811815" d="M224.12,120.79a3.1,3.1,0,0,1-2.74,2.18,2.3,2.3,0,0,0,0,4.59,7.77,7.77,0,0,0,7.16-5.55c.84-2.84-3.58-4.05-4.42-1.22Z"/><path class="bff47cb7-8bea-4483-b535-1a05355b7dee" d="M127.36,59.17l17.44-1.12c1.46-.1,1.48-2.39,0-2.29l-17.44,1.12c-1.47.1-1.48,2.39,0,2.29Z"/><path class="bff47cb7-8bea-4483-b535-1a05355b7dee" d="M117.73,81.79A46.29,46.29,0,0,0,130,80a1.15,1.15,0,0,0-.61-2.21,43.4,43.4,0,0,1-11.65,1.74,1.15,1.15,0,0,0,0,2.3Z"/><path class="bff47cb7-8bea-4483-b535-1a05355b7dee" d="M116.51,111.06a56.24,56.24,0,0,0,16.81,1.38c1.47-.1,1.48-2.4,0-2.29a53.83,53.83,0,0,1-16.2-1.3c-1.44-.34-2.05,1.87-.61,2.21Z"/><path class="bff47cb7-8bea-4483-b535-1a05355b7dee" d="M126.46,129.78l12.84,1.36c1.47.15,1.46-2.14,0-2.3l-12.84-1.36c-1.47-.15-1.46,2.14,0,2.3Z"/><path class="bff47cb7-8bea-4483-b535-1a05355b7dee" d="M137.22,148.87a61.32,61.32,0,0,0,14,2.24c1.47.06,1.47-2.23,0-2.29a59.41,59.41,0,0,1-13.38-2.16,1.15,1.15,0,0,0-.61,2.21Z"/><path class="bff47cb7-8bea-4483-b535-1a05355b7dee" d="M221.22,77.71a14.73,14.73,0,0,0-5.69.27,1.15,1.15,0,0,0,.61,2.21,11.82,11.82,0,0,1,4.47-.27c1.44.2,2.07-2,.61-2.21Z"/><path class="bff47cb7-8bea-4483-b535-1a05355b7dee" d="M208,56.42a18.88,18.88,0,0,0-5.36-.22c-1.45.15-1.47,2.44,0,2.29a17.17,17.17,0,0,1,4.75.14c1.45.25,2.07-2,.61-2.21Z"/><path class="bff47cb7-8bea-4483-b535-1a05355b7dee" d="M184.69,35h-2.75a1.15,1.15,0,0,0,0,2.29h2.75a1.15,1.15,0,0,0,0-2.29Z"/><path class="bff47cb7-8bea-4483-b535-1a05355b7dee" d="M157.46,28.43l5-.94c1.45-.28.84-2.49-.61-2.21l-5,.94c-1.44.27-.83,2.48.61,2.21Z"/><path class="bff47cb7-8bea-4483-b535-1a05355b7dee" d="M221.38,109.27h6.88a1.15,1.15,0,0,0,0-2.3h-6.88a1.15,1.15,0,0,0,0,2.3Z"/><path class="bff47cb7-8bea-4483-b535-1a05355b7dee" d="M211.75,143.71a4,4,0,0,0,3.24-2c.72-1.29-1.26-2.45-2-1.16a1.7,1.7,0,0,1-1.26.88,1.17,1.17,0,0,0-1.15,1.14,1.16,1.16,0,0,0,1.15,1.15Z"/><path class="bfb39fc5-1fe0-447e-9f3a-da2819811815" d="M173.25,93.06c-4-.4-7.41,5.91-8.69,8.93a31.56,31.56,0,0,0-2.14,8.67c-.6,4.78-2.58,7.58-4.34,11.82-2.8,6.7,1.22,9.6,3.41,15.53,1.92,5.22,3.18,10.7,8.78,13.11,2.69,1.15,5-2.8,2.32-4-4.89-2.1-5.47-7.47-7.25-11.9a46.66,46.66,0,0,0-2.4-4.4c-1.92-3.62-.87-6.35,1-9.72,2-3.69,2.58-6.81,3.14-10.93a24.31,24.31,0,0,1,1.83-6.7c.51-1.13,2.84-6,4.34-5.86,2.94.28,2.92-4.3,0-4.59Z"/><path class="a58dbaa8-f2d2-4117-a571-5bb0de5a0a5f" d="M4.39,94.15c0,16.8,8.15,34.78,21.15,45.57,9.79,8.13,27.29,13.52,37.45,2.85,7.83-8.23.89-26.32-11.41-19.81-5.67,3-7.91,10-6.33,16,1.94,7.35,8.33,12.89,14.39,17a60,60,0,0,0,52.49,6.63c2.54-.88,1.45-4.94-1.12-4.05a56,56,0,0,1-44-3.11c-6.66-3.48-14.48-8.82-17.23-16.16-1.44-3.82-1-8.07,1.92-11.09,3.57-3.62,8.48-2.34,10.22,2.24,3.2,8.45-5.88,13.63-13.06,14-7.45.38-14.64-2.79-20.31-7.45-12.22-10-19.91-26.9-19.93-42.6,0-2.7-4.2-2.71-4.2,0Z"/><path class="aa54c199-5008-43a1-8a5c-12f9884ce0a8" d="M306.72,29l-2.94,6.64c-.53,1.21,1.26,2.27,1.8,1.05l2.93-6.64c.54-1.21-1.25-2.27-1.79-1.05Z"/><path class="aa54c199-5008-43a1-8a5c-12f9884ce0a8" d="M299.46,44.32a28.58,28.58,0,0,1-4.38,6c-.92,1,.55,2.45,1.47,1.47a31.46,31.46,0,0,0,4.71-6.46c.63-1.18-1.16-2.23-1.8-1Z"/><path class="aa54c199-5008-43a1-8a5c-12f9884ce0a8" d="M286.47,59.62a12.24,12.24,0,0,1-5.24,4.09c-1.23.53-.17,2.32,1,1.8a14.22,14.22,0,0,0,6-4.84c.78-1.08-1-2.12-1.8-1.05Z"/><path class="aa54c199-5008-43a1-8a5c-12f9884ce0a8" d="M270.57,67.52l-10.79,2.54c-1.31.31-.76,2.31.55,2l10.8-2.54c1.3-.31.75-2.31-.56-2Z"/><path class="aa54c199-5008-43a1-8a5c-12f9884ce0a8" d="M249.88,68.57a7.1,7.1,0,0,1-5-4.9,1,1,0,0,0-2,.56,9.23,9.23,0,0,0,6.42,6.34,1,1,0,0,0,.55-2Z"/><path class="aa54c199-5008-43a1-8a5c-12f9884ce0a8" d="M245.19,55.79a4.43,4.43,0,0,1,3.63-2.07,1,1,0,0,0,0-2.08,6.56,6.56,0,0,0-5.42,3.11c-.72,1.13,1.08,2.17,1.79,1Z"/><path class="aa54c199-5008-43a1-8a5c-12f9884ce0a8" d="M256.91,55.85A5.37,5.37,0,0,1,259,60.78c-.18,1.31,1.82,1.87,2,.55a7.4,7.4,0,0,0-2.62-6.94c-1-.83-2.51.63-1.47,1.46Z"/><path class="aa54c199-5008-43a1-8a5c-12f9884ce0a8" d="M253.72,75.07a30.07,30.07,0,0,1-6.05,7.29c-1,.89.47,2.36,1.47,1.47a31.91,31.91,0,0,0,6.37-7.71,1,1,0,0,0-1.79-1.05Z"/><path class="aa54c199-5008-43a1-8a5c-12f9884ce0a8" d="M237.94,89.35a86.75,86.75,0,0,1-9.79,3.45,1,1,0,0,0,.55,2A87.39,87.39,0,0,0,239,91.14c1.23-.52.17-2.31-1.05-1.79Z"/><path class="aa54c199-5008-43a1-8a5c-12f9884ce0a8" d="M219.88,93.41a34.92,34.92,0,0,1-12.4-.31c-1.3-.26-1.86,1.74-.55,2a38,38,0,0,0,13.5.31c1.32-.21.76-2.21-.55-2Z"/><path class="aa54c199-5008-43a1-8a5c-12f9884ce0a8" d="M114.73,157.57l-7.11,1.8a1.05,1.05,0,0,0,.56,2l7.11-1.81a1,1,0,0,0-.56-2Z"/><path class="aa54c199-5008-43a1-8a5c-12f9884ce0a8" d="M98,161.33a29.67,29.67,0,0,1-7.53.25c-1.35-.12-1.34,2,0,2.1a31.77,31.77,0,0,0,8.09-.32c1.33-.22.77-2.25-.56-2Z"/><path class="aa54c199-5008-43a1-8a5c-12f9884ce0a8" d="M78,160.5A12.59,12.59,0,0,1,71.51,159c-1.19-.65-2.25,1.17-1.06,1.81A14.57,14.57,0,0,0,78,162.6c1.35,0,1.36-2.14,0-2.1Z"/><path class="aa54c199-5008-43a1-8a5c-12f9884ce0a8" d="M61.81,152.88l-8.75-7c-1.05-.83-2.54.64-1.49,1.49l8.76,7c1,.83,2.54-.64,1.48-1.49Z"/><path class="aa54c199-5008-43a1-8a5c-12f9884ce0a8" d="M48,137.09a7.37,7.37,0,0,1,.82-7.22c.78-1.11-1-2.16-1.81-1.06a9.31,9.31,0,0,0-1,8.84c.5,1.24,2.53.7,2-.56Z"/><path class="aa54c199-5008-43a1-8a5c-12f9884ce0a8" d="M55.06,125.28A4.63,4.63,0,0,1,59.2,127c.86,1,2.34-.45,1.48-1.48a6.53,6.53,0,0,0-5.62-2.3c-1.33.14-1.35,2.24,0,2.1Z"/><path class="aa54c199-5008-43a1-8a5c-12f9884ce0a8" d="M62.45,134.76a5.4,5.4,0,0,1-2.73,4.67,1.05,1.05,0,0,0,1.06,1.82,7.53,7.53,0,0,0,3.77-6.49,1.05,1.05,0,0,0-2.1,0Z"/><path class="aa54c199-5008-43a1-8a5c-12f9884ce0a8" d="M45.32,144.07a31.27,31.27,0,0,1-9.56-.23c-1.33-.24-1.89,1.79-.56,2a33,33,0,0,0,10.12.3c1.32-.17,1.34-2.27,0-2.1Z"/><path class="aa54c199-5008-43a1-8a5c-12f9884ce0a8" d="M24.12,140.49A87.7,87.7,0,0,1,15,134.72c-1.1-.8-2.15,1-1.06,1.81a87.79,87.79,0,0,0,9.09,5.78c1.18.65,2.24-1.16,1.06-1.82Z"/><path class="aa54c199-5008-43a1-8a5c-12f9884ce0a8" d="M9.6,128.68A35.49,35.49,0,0,1,1.93,118.4c-.6-1.21-2.41-.15-1.81,1.06a37.13,37.13,0,0,0,8,10.71c1,.92,2.48-.56,1.49-1.49Z"/></g></g></svg>