<svg xmlns="http://www.w3.org/2000/svg" viewBox="0 0 138.23 183.67"><defs><style>.b2483264-80af-4eea-90a5-2229600d02f3{fill:#feeacd;}.b010b499-2183-4e2a-a8c0-49f216eabb44{fill:#ffe137;}.fcbc3bb1-d8df-42d7-8f5a-0ad53c4025c0{fill:#dbc260;}.a3e150cb-a49f-4b6d-9cec-a2b42c8b1091{fill:#a96323;}.a6c9651d-c85c-4751-9dd2-fa673be6569d{fill:#855d26;}.f4f4b4de-ac99-4144-8b18-1bc67f6f4b03{fill:#e6c530;}.f1a0b5d0-a8a8-4730-8ba1-226e640485ba{fill:#e0a024;}.b56d0d53-7921-46c9-b6f2-c0fccba030a2{fill:none;stroke:#40220f;stroke-miterlimit:10;stroke-width:3.36px;}.af50d3c7-e851-452b-8dd8-1f37b033bc04{fill:#40220f;}.fd2e31c9-04ad-4af7-aaee-6b5117cd6418{fill:#673704;}.a72c89ad-447c-44ec-8924-65246f83e81a{fill:#ce783c;}.abae6dca-8a54-47c1-b9de-a84824e7c097{fill:#cd6f3a;}.ad9b61cf-554a-4b7d-9405-2b1a5b7a9735{fill:#85441c;}.e48b7103-edc6-430e-8d1b-a09a0e1b1025{fill:#935519;}.a20d4adf-69d0-402c-ad9a-16a447f71f22{fill:#fff9b3;}.b1b07766-fac7-4da4-a32b-9c644fa83fcd{fill:#fac12c;}.fa24ea9c-6c61-49c4-b67b-805bcc02ce55{fill:#f7b86d;}</style></defs><title>蜂蜜1</title><g id="b49ca2fa-5ab8-43c1-b050-1928ca558483" data-name="圖層 2"><g id="f421f534-6c60-41f5-82a2-3260b7b7400e" data-name="圖層 1"><path class="b2483264-80af-4eea-90a5-2229600d02f3" d="M85.93,182.83a3.44,3.44,0,0,1-1.62-.4l-6.43-3.38a1.71,1.71,0,0,0-.83-.21,1.77,1.77,0,0,0-.84.21l-6.42,3.38a3.48,3.48,0,0,1-4.29-.85,3.42,3.42,0,0,1-.76-2.82L66,171.61a1.77,1.77,0,0,0-.52-1.59L60.25,165A3.47,3.47,0,0,1,62.18,159L69.37,158a1.78,1.78,0,0,0,1.35-1l3.21-6.51a3.48,3.48,0,0,1,6.24,0L83.38,157a1.78,1.78,0,0,0,1.35,1L91.92,159A3.47,3.47,0,0,1,93.85,165L88.65,170a1.77,1.77,0,0,0-.52,1.59l1.23,7.15a3.48,3.48,0,0,1-3.43,4.07Z"/><path class="b010b499-2183-4e2a-a8c0-49f216eabb44" d="M77.05,149.38a2.6,2.6,0,0,1,2.36,1.47l3.22,6.51a2.64,2.64,0,0,0,2,1.45l7.19,1a2.64,2.64,0,0,1,1.46,4.5l-5.2,5.06a2.64,2.64,0,0,0-.76,2.34l1.23,7.16a2.64,2.64,0,0,1-2.6,3.08,2.58,2.58,0,0,1-1.23-.31l-6.42-3.37a2.6,2.6,0,0,0-2.46,0l-6.43,3.37a2.51,2.51,0,0,1-1.22.31,2.64,2.64,0,0,1-2.6-3.08l1.23-7.16a2.67,2.67,0,0,0-.76-2.34l-5.2-5.06a2.64,2.64,0,0,1,1.46-4.5l7.19-1a2.64,2.64,0,0,0,2-1.45l3.22-6.51a2.6,2.6,0,0,1,2.36-1.47m0-1.68a4.27,4.27,0,0,0-3.87,2.41L70,156.62a.93.93,0,0,1-.71.52l-7.19,1.05a4.31,4.31,0,0,0-2.39,7.36l5.2,5.07a1,1,0,0,1,.27.84l-1.23,7.16a4.32,4.32,0,0,0,4.26,5,4.22,4.22,0,0,0,2-.5l6.42-3.38a1,1,0,0,1,.45-.11,1,1,0,0,1,.44.11l6.43,3.38a4.22,4.22,0,0,0,2,.5,4.32,4.32,0,0,0,4.26-5L89,171.46a.94.94,0,0,1,.27-.84l5.2-5.07A4.31,4.31,0,0,0,92,158.19l-7.19-1.05a1,1,0,0,1-.72-.52l-3.21-6.51a4.28,4.28,0,0,0-3.87-2.41Z"/><path class="fcbc3bb1-d8df-42d7-8f5a-0ad53c4025c0" d="M69.76,179.39a6.51,6.51,0,0,0,2.89-2.63,1,1,0,0,0-1.81-1.06,4.58,4.58,0,0,1-2.14,1.87,1.06,1.06,0,0,0-.38,1.44,1.09,1.09,0,0,0,1.44.38Z"/><path class="fcbc3bb1-d8df-42d7-8f5a-0ad53c4025c0" d="M90.1,162.56c-.09,0,0,.05-.06.18a2.15,2.15,0,0,1-.73.74,1.09,1.09,0,0,0-.37,1.43,1.05,1.05,0,0,0,1.44.38,3.7,3.7,0,0,0,1.78-2.53,2.11,2.11,0,0,0-1.5-2.23,1.05,1.05,0,0,0-.56,2Z"/><path class="fcbc3bb1-d8df-42d7-8f5a-0ad53c4025c0" d="M77.53,153.39c0-.25-.11.08-.14.14s0-.08,0,0h0a.12.12,0,0,1-.12-.06,1.86,1.86,0,0,1,.34,1,1.08,1.08,0,0,0,1.05,1.05,1.06,1.06,0,0,0,1-1.05c-.13-1.17-.42-2.52-1.69-3a1.92,1.92,0,0,0-2.54,1.27,1.05,1.05,0,1,0,2,.55Z"/><path class="b2483264-80af-4eea-90a5-2229600d02f3" d="M128.43,182.83a3.41,3.41,0,0,1-1.62-.4l-6.43-3.38a1.77,1.77,0,0,0-.84-.21,1.73,1.73,0,0,0-.83.21l-6.43,3.38a3.44,3.44,0,0,1-1.62.4,3.48,3.48,0,0,1-2.67-1.25,3.41,3.41,0,0,1-.75-2.82l1.22-7.15A1.79,1.79,0,0,0,108,170l-5.2-5.07a3.48,3.48,0,0,1,1.92-5.93l7.19-1.05a1.77,1.77,0,0,0,1.35-1l3.22-6.51a3.47,3.47,0,0,1,6.23,0l3.22,6.51a1.77,1.77,0,0,0,1.35,1l7.18,1.05a3.47,3.47,0,0,1,1.93,5.93l-5.2,5.07a1.8,1.8,0,0,0-.52,1.59l1.23,7.15a3.39,3.39,0,0,1-.76,2.82A3.46,3.46,0,0,1,128.43,182.83Z"/><path class="b010b499-2183-4e2a-a8c0-49f216eabb44" d="M119.54,149.38a2.62,2.62,0,0,1,2.37,1.47l3.21,6.51a2.67,2.67,0,0,0,2,1.45l7.18,1a2.63,2.63,0,0,1,1.46,4.5l-5.2,5.06a2.64,2.64,0,0,0-.75,2.34l1.22,7.16a2.63,2.63,0,0,1-2.59,3.08,2.52,2.52,0,0,1-1.23-.31l-6.43-3.37a2.55,2.55,0,0,0-1.23-.31,2.52,2.52,0,0,0-1.22.31l-6.43,3.37a2.52,2.52,0,0,1-1.23.31,2.64,2.64,0,0,1-2.6-3.08l1.23-7.16a2.62,2.62,0,0,0-.76-2.34l-5.2-5.06a2.64,2.64,0,0,1,1.46-4.5l7.19-1a2.67,2.67,0,0,0,2-1.45l3.21-6.51a2.6,2.6,0,0,1,2.36-1.47m0-1.68a4.28,4.28,0,0,0-3.87,2.41l-3.21,6.51a1,1,0,0,1-.72.52l-7.19,1.05a4.31,4.31,0,0,0-2.39,7.36l5.2,5.07a.91.91,0,0,1,.27.84l-1.22,7.16a4.3,4.3,0,0,0,4.25,5,4.19,4.19,0,0,0,2-.5l6.43-3.38a1,1,0,0,1,.89,0l6.43,3.38a4.19,4.19,0,0,0,2,.5,4.3,4.3,0,0,0,4.25-5l-1.23-7.16a.94.94,0,0,1,.28-.84l5.2-5.07a4.31,4.31,0,0,0-2.4-7.36l-7.18-1.05a1,1,0,0,1-.72-.52l-3.22-6.51a4.27,4.27,0,0,0-3.87-2.41Z"/><path class="fcbc3bb1-d8df-42d7-8f5a-0ad53c4025c0" d="M112.25,179.39a6.48,6.48,0,0,0,2.9-2.63,1.05,1.05,0,0,0-1.82-1.06,4.53,4.53,0,0,1-2.14,1.87,1.07,1.07,0,0,0-.38,1.44,1.09,1.09,0,0,0,1.44.38Z"/><path class="fcbc3bb1-d8df-42d7-8f5a-0ad53c4025c0" d="M132.6,162.56c-.09,0,0,.05-.06.18a2.24,2.24,0,0,1-.73.74,1.08,1.08,0,0,0-.38,1.43,1.05,1.05,0,0,0,1.44.38,3.71,3.71,0,0,0,1.79-2.53,2.12,2.12,0,0,0-1.51-2.23,1.05,1.05,0,0,0-.55,2Z"/><path class="fcbc3bb1-d8df-42d7-8f5a-0ad53c4025c0" d="M120,153.39c0-.25-.11.08-.13.14s0-.08,0,0h0a.12.12,0,0,1-.12-.06,1.94,1.94,0,0,1,.33,1,1.08,1.08,0,0,0,1,1.05,1.06,1.06,0,0,0,1-1.05c-.12-1.17-.42-2.52-1.68-3a1.94,1.94,0,0,0-2.55,1.27,1.09,1.09,0,0,0,.74,1.29,1.07,1.07,0,0,0,1.29-.74Z"/><path class="b010b499-2183-4e2a-a8c0-49f216eabb44" d="M36.92,150.85l3.21,6.51a2.67,2.67,0,0,0,2,1.45l7.18,1a2.64,2.64,0,0,1,1.47,4.5l-5.21,5.06a2.64,2.64,0,0,0-.75,2.34L46,178.91a2.63,2.63,0,0,1-3.82,2.77l-6.43-3.37a2.59,2.59,0,0,0-2.45,0l-6.43,3.37a2.63,2.63,0,0,1-3.82-2.77l1.22-7.16a2.64,2.64,0,0,0-.75-2.34l-5.21-5.06a2.64,2.64,0,0,1,1.47-4.5l7.18-1a2.67,2.67,0,0,0,2-1.45l3.21-6.51A2.64,2.64,0,0,1,36.92,150.85Z"/><path class="fcbc3bb1-d8df-42d7-8f5a-0ad53c4025c0" d="M27.26,179.39a6.48,6.48,0,0,0,2.9-2.63,1.05,1.05,0,0,0-1.82-1.06,4.53,4.53,0,0,1-2.14,1.87,1.07,1.07,0,0,0-.38,1.44,1.09,1.09,0,0,0,1.44.38Z"/><path class="fcbc3bb1-d8df-42d7-8f5a-0ad53c4025c0" d="M47.61,162.56c-.09,0,0,.05-.06.18a2.24,2.24,0,0,1-.73.74,1.08,1.08,0,0,0-.38,1.43,1.05,1.05,0,0,0,1.44.38,3.68,3.68,0,0,0,1.79-2.53,2.12,2.12,0,0,0-1.5-2.23,1.05,1.05,0,0,0-.56,2Z"/><path class="fcbc3bb1-d8df-42d7-8f5a-0ad53c4025c0" d="M35,153.39c0-.25-.11.08-.13.14s0-.08,0,0h0a.12.12,0,0,1-.12-.06,1.94,1.94,0,0,1,.33,1,1.08,1.08,0,0,0,1,1.05,1.06,1.06,0,0,0,1-1.05c-.12-1.17-.42-2.52-1.68-3A1.92,1.92,0,0,0,33,152.84a1.07,1.07,0,0,0,.73,1.29,1.06,1.06,0,0,0,1.29-.74Z"/><ellipse class="a3e150cb-a49f-4b6d-9cec-a2b42c8b1091" cx="72.4" cy="117.57" rx="61.92" ry="20.48"/><path class="a6c9651d-c85c-4751-9dd2-fa673be6569d" d="M114.7,49.09c1.8,7.69,1.89,16.69,1.37,23.83-.94,12.7-2.8,20.7-6.72,31.13A38.12,38.12,0,0,1,99.91,118a12.77,12.77,0,0,1-5.9,3.11c-20.2,4.57-41.54-.18-44.11-.76s-5.37-3.54-5.37-3.54C27.46,97.64,31.25,62.43,34.68,47.3c0,.13.27,3.58,2,2.52s2.2-3.26,3.55-2.24,0,3.92.7,4.86,4.29,3.59,6.16,1.44a10.45,10.45,0,0,0,2.47-5.64c.14-1.17,1.4-5.74,3.32-5s2.1,2.47,1.58,5-.14,3.92.8,4.53,3.49,1.53,4.24-.66.7-5.18,1.78-6.81,1.63-2.2,2.14-2.17a2.16,2.16,0,0,1,1.82,2.35c0,1.82,1.5,2.67,2.62,1.87s2.08-2.24,3.73-1.71,2.69,1.71,3.88.21a4.67,4.67,0,0,1,3.72-1.72,4.13,4.13,0,0,1,2.44,1.65c.46.91,1.12,1.75,2.1,1.68s2.38-2.45,3.68-1.4,1.92,4.86.14,9.69-.74,9.52,2,9.66,5.53,0,5.39-7.77-2.55-13.09-.66-13.58,3.46-.21,3.6,1.61-.59,8.12,2.28,7.88,2-6.55,2.13-8.79,2.66-2.2,3.82-1.36,3.53,2,3.08,6.75.59,5.5.94,5.92,1.54,2.27,2.56,1.75S115.92,55.35,114.7,49.09Z"/><path class="f4f4b4de-ac99-4144-8b18-1bc67f6f4b03" d="M114.7,49.09c1.22,6.26-1,8.2-2.06,8.73s-2.21-1.33-2.56-1.75-1.4-1.12-.94-5.92-1.93-5.91-3.08-6.75-3.64-.88-3.82,1.36.74,8.54-2.13,8.79S98,47.49,97.83,45.67s-1.71-2.1-3.6-1.61.52,5.78.66,13.58-2.66,7.91-5.39,7.77-3.78-4.83-2-9.66,1.15-8.64-.14-9.69-2.7,1.33-3.68,1.4-1.64-.77-2.1-1.68a4.13,4.13,0,0,0-2.44-1.65,4.67,4.67,0,0,0-3.72,1.72c-1.19,1.5-2.24.31-3.88-.21s-2.61.92-3.73,1.71-2.57-.05-2.62-1.87a2.16,2.16,0,0,0-1.82-2.35c-.51,0-1.07.54-2.14,2.17s-1,4.62-1.78,6.81-3.31,1.26-4.24.66-1.31-2-.8-4.53.33-4.34-1.58-5-3.18,3.87-3.32,5a10.45,10.45,0,0,1-2.47,5.64c-1.87,2.15-5.46-.51-6.16-1.44s.65-3.83-.7-4.86-1.82,1.17-3.55,2.24-2-2.39-2-2.52h0a38.63,38.63,0,0,1,1.94-6.59c2.8-6,8.33-7.42,3.85-10.64s-1.75-9.17-1.75-9.17c1.33-4,12.74-10.08,36.32-10.08s32,5.39,32,5.39a7.36,7.36,0,0,1,4.94,5.71c1,4.69-1.75,8.47-4.52,9.45s-.5,3.67-.5,3.67c4,2.9,6.39,8.09,7.78,14.06Zm-10-27c0-3.79-13.26-6.86-29.62-6.86s-29.62,3.07-29.62,6.86S58.68,28.92,75,28.92,104.66,25.85,104.66,22.07Z"/><path class="f1a0b5d0-a8a8-4730-8ba1-226e640485ba" d="M75,15.21c16.36,0,29.62,3.07,29.62,6.86S91.4,28.92,75,28.92s-29.62-3.07-29.62-6.85S58.68,15.21,75,15.21Z"/><path class="b56d0d53-7921-46c9-b6f2-c0fccba030a2" d="M104.66,22.07c0,3.78-13.26,6.85-29.62,6.85s-29.62-3.07-29.62-6.85S58.68,15.21,75,15.21,104.66,18.28,104.66,22.07Z"/><path class="b56d0d53-7921-46c9-b6f2-c0fccba030a2" d="M34.68,47.3c-3.43,15.13-7.22,50.34,9.85,69.49,0,0,2.66,2.94,5.37,3.54s23.91,5.33,44.11.76a12.77,12.77,0,0,0,5.9-3.11,38.12,38.12,0,0,0,9.44-13.93c3.92-10.43,5.78-18.43,6.72-31.13.52-7.14.43-16.14-1.37-23.83"/><path class="b56d0d53-7921-46c9-b6f2-c0fccba030a2" d="M114.7,49.09c-1.39-6-3.82-11.16-7.78-14.06,0,0-2.26-2.69.5-3.67s5.5-4.76,4.52-9.45A7.36,7.36,0,0,0,107,16.2s-8.39-5.39-32-5.39-35,6.09-36.32,10.08c0,0-2.73,5.95,1.75,9.17s-1,4.69-3.85,10.64a38.63,38.63,0,0,0-1.94,6.59"/><path class="b56d0d53-7921-46c9-b6f2-c0fccba030a2" d="M34.68,47.29h0c0,.13.27,3.58,2,2.52s2.2-3.26,3.55-2.24,0,3.92.7,4.86,4.29,3.59,6.16,1.44a10.45,10.45,0,0,0,2.47-5.64c.14-1.17,1.4-5.74,3.32-5s2.1,2.47,1.58,5-.14,3.92.8,4.53,3.49,1.53,4.24-.66.7-5.18,1.78-6.81,1.63-2.2,2.14-2.17a2.16,2.16,0,0,1,1.82,2.35c0,1.82,1.5,2.67,2.62,1.87s2.08-2.24,3.73-1.71,2.69,1.71,3.88.21a4.67,4.67,0,0,1,3.72-1.72,4.13,4.13,0,0,1,2.44,1.65c.46.91,1.12,1.75,2.1,1.68s2.38-2.45,3.68-1.4,1.92,4.86.14,9.69-.74,9.52,2,9.66,5.53,0,5.39-7.77-2.55-13.09-.66-13.58,3.46-.21,3.6,1.61-.59,8.12,2.28,7.88,2-6.55,2.13-8.79,2.66-2.2,3.82-1.36,3.53,2,3.08,6.75.59,5.5.94,5.92,1.54,2.27,2.56,1.75,3.28-2.47,2.06-8.73h0"/><path class="af50d3c7-e851-452b-8dd8-1f37b033bc04" d="M44,90.51V70.34h5v7.44h1.49V70.34h5.07V90.51H50.54V81.07H49.05v9.44Z"/><path class="af50d3c7-e851-452b-8dd8-1f37b033bc04" d="M57.64,74.39c0-1.88.32-3,1-3.49s2.25-.68,4.79-.68,4.21.24,4.85.72,1,1.64,1,3.45v12c0,1.85-.32,3-1,3.5s-2.26.72-4.82.72-4.19-.25-4.83-.74-1-1.65-1-3.48Zm5,.12v11.8a1.36,1.36,0,0,0,.17.79.66.66,0,0,0,.56.23.86.86,0,0,0,.55-.16.58.58,0,0,0,.19-.46V74.51a1.33,1.33,0,0,0-.17-.79.83.83,0,0,0-.65-.21.65.65,0,0,0-.48.17.61.61,0,0,0-.17.45Z"/><path class="af50d3c7-e851-452b-8dd8-1f37b033bc04" d="M71.25,90.51V70.34H76l2.51,10.33V70.34h4.39V90.51H78.13l-2.52-9.89v9.89Z"/><path class="af50d3c7-e851-452b-8dd8-1f37b033bc04" d="M85,90.51V70.34h8v3.25H90v4.19h3v3.29H90v6.16h3v3.28Z"/><path class="af50d3c7-e851-452b-8dd8-1f37b033bc04" d="M97.09,90.51v-8L93.78,70.34h4.75l1.24,7.77,1.2-7.77h4.8l-3.38,12.17v8Z"/><path class="fd2e31c9-04ad-4af7-aaee-6b5117cd6418" d="M82.75,115.61a17.07,17.07,0,0,0,20.45-8.21c2.56-4.77-4.7-9-7.26-4.24a8.69,8.69,0,0,1-11,4.35c-5.16-1.68-7.37,6.43-2.23,8.1Z"/><path class="fd2e31c9-04ad-4af7-aaee-6b5117cd6418" d="M36.91,59.9a97.66,97.66,0,0,0-1.22,24.62c.21,2.68,4.41,2.7,4.2,0A93.42,93.42,0,0,1,41,61c.46-2.65-3.59-3.78-4.05-1.12Z"/><path class="a72c89ad-447c-44ec-8924-65246f83e81a" d="M43.29,46.54A2.33,2.33,0,0,0,44.64,50c1,.26,1.5-1.36.45-1.62a.65.65,0,0,1-.35-1c.63-.88-.83-1.72-1.45-.84Z"/><path class="a72c89ad-447c-44ec-8924-65246f83e81a" d="M89.1,61.29l.62.61a.84.84,0,0,0,1.18,0,3.8,3.8,0,0,0,1-3.66.84.84,0,0,0-1.62.45,2.09,2.09,0,0,1-.52,2H90.9l-.61-.61a.84.84,0,0,0-1.19,1.19Z"/><path class="a72c89ad-447c-44ec-8924-65246f83e81a" d="M40.86,23.18a6.31,6.31,0,0,0,4,7c1,.38,1.45-1.24.45-1.62a4.59,4.59,0,0,1-2.88-4.91c.17-1.06-1.45-1.51-1.62-.45Z"/><path class="a72c89ad-447c-44ec-8924-65246f83e81a" d="M107.25,24.1a12.46,12.46,0,0,1-4.56,5.56c-.89.6,0,2.06.85,1.45a14.51,14.51,0,0,0,5.33-6.56c.41-1-1.22-1.43-1.62-.45Z"/><path class="a72c89ad-447c-44ec-8924-65246f83e81a" d="M40.28,43.59a9.9,9.9,0,0,1,4.11-6.08c.89-.6,0-2.06-.85-1.45a11.7,11.7,0,0,0-4.89,7.08c-.24,1.06,1.38,1.5,1.63.45Z"/><path class="abae6dca-8a54-47c1-b9de-a84824e7c097" d="M54.19,21.53c-.07,2,2,2.46,3.58,2.69a44.57,44.57,0,0,0,10.95.13c1.07-.12,1.08-1.8,0-1.68-1.52.16-12.93,1-12.85-1.14,0-1.08-1.64-1.08-1.68,0Z"/><path class="abae6dca-8a54-47c1-b9de-a84824e7c097" d="M89.7,20.86l2.24.29a.84.84,0,1,0,0-1.68l-2.24-.29a.84.84,0,0,0-.84.84.87.87,0,0,0,.84.84Z"/><path class="ad9b61cf-554a-4b7d-9405-2b1a5b7a9735" d="M110.15,63.5a17.29,17.29,0,0,1-1.38,7.34c-.42,1,1.21,1.43,1.62.44a18.4,18.4,0,0,0,1.44-7.78.84.84,0,0,0-1.68,0Z"/><path class="e48b7103-edc6-430e-8d1b-a09a0e1b1025" d="M19.89,110.1A8.8,8.8,0,0,0,19,120.57c2,3.28,5.58,4.76,9,5.94a4.21,4.21,0,0,0,2.24-8.11,10.38,10.38,0,0,1-3.68-1.73,2.31,2.31,0,0,1-.49-.7c-.33-.56.13-.39-.27.07a4.3,4.3,0,0,0,0-5.94,4.24,4.24,0,0,0-5.94,0Z"/><path class="e48b7103-edc6-430e-8d1b-a09a0e1b1025" d="M116.5,115.49c2.4.34,2.31,2.53.93,4.13-1.69,2-4.62,2.56-7.07,2.84-2.27.26-4.18,1.75-4.2,4.2,0,2.08,1.94,4.47,4.2,4.21,6.24-.72,12.73-2.8,15.48-9,2.54-5.77-.38-13.51-7.1-14.47-2.27-.32-4.49.56-5.17,2.94-.57,2,.69,4.85,2.93,5.17Z"/><path class="a20d4adf-69d0-402c-ad9a-16a447f71f22" d="M26.75,33.85s4.77.14,2.94-12.61S13.85-3.57,7.13,3.58-.4,17.42,13.32,23.46,22.83,35,26.75,33.85Z"/><path class="b1b07766-fac7-4da4-a32b-9c644fa83fcd" d="M26.7,33.29C26,29.35,23.34,26.75,20,24.68,15.72,22,7.48,20.13,5,15.49c-3.93-7.38,5.14-13,11.49-10.68,6.56,2.43,8.57,10,10.05,16.07L28,18.3l-.21.07,2.58,1.47,0-.22c-.48-2.66-4.53-1.53-4.05,1.12l0,.21a2.1,2.1,0,0,0,2.58,1.47l.21-.07a2.16,2.16,0,0,0,1.47-2.59c-1.65-6.75-4-14.27-10.5-17.87C14.53-1.19,7.37-.58,3,4.27a11.6,11.6,0,0,0-.63,14.85C7.31,25.43,21,25.47,22.65,34.41c.48,2.65,4.53,1.53,4.05-1.12Z"/><path class="fa24ea9c-6c61-49c4-b67b-805bcc02ce55" d="M11.05,6.77a4.07,4.07,0,0,0-1.77,4.66C9.86,13.66,12,15,13.84,16a1,1,0,0,0,1.06-1.81,8.49,8.49,0,0,1-3.26-2.57,2.16,2.16,0,0,1,.47-3.06c1.18-.66.12-2.48-1.06-1.82Z"/></g></g></svg>