<svg xmlns="http://www.w3.org/2000/svg" viewBox="0 0 134.18 187.89"><defs><style>.b8e286d2-c2cf-4335-8cd5-4fe6a38aa6d2{fill:#ffe137;}.a4553dfc-c13a-4989-a085-686ba02a7b55{fill:#dbc260;}.b7b8f7f8-5b6d-40f2-b3f1-f12da3c49832{fill:#a96323;}.a7ee5ad9-587e-436f-9617-53045696e0e0{fill:#855d26;}.be6bb7c2-7117-41af-8b13-936006a9936d{fill:#e6c530;}.a3c8e022-8b73-4986-ac49-c71ddb45577c{fill:#e0a024;}.bfc7f778-297a-4a0c-bad0-4084161c6d3f{fill:none;stroke:#40220f;stroke-miterlimit:10;stroke-width:3.36px;}.ff069ebc-8323-464f-820e-d729169ea46c{fill:#40220f;}.a60453e5-1eeb-4bd2-b953-630fd7fdca41{fill:#673704;}.bc7fe382-4188-4d36-8e22-684f1575c20b{fill:#ce783c;}.e9c2dbe5-10d7-46d1-9a65-704d050731bc{fill:#cd6f3a;}.be6e1076-eaed-4b54-b43e-05de95191faf{fill:#85441c;}.b90f79a2-1dbd-4690-a5d3-a313a0993142{fill:#935519;}.ade818e4-e531-40d5-a4ff-1e5f7a59b8ba{fill:#fff9b3;}.a1963a40-643a-4985-916e-e0af86a8083d{fill:#fac12c;}.e1b92d53-3d6b-491b-8e82-8d1872eb37aa{fill:#f7b86d;}</style></defs><title>蜂蜜3</title><g id="b8682e9d-925a-483d-8e55-67be986b0b30" data-name="圖層 2"><g id="a2543d6d-b33f-4444-b8bb-3401fe20159b" data-name="圖層 1"><path class="b8e286d2-c2cf-4335-8cd5-4fe6a38aa6d2" d="M62.67,156.75l3.22,6.51a2.6,2.6,0,0,0,2,1.44l7.19,1.05a2.63,2.63,0,0,1,1.46,4.49l-5.2,5.07a2.63,2.63,0,0,0-.76,2.33l1.23,7.16A2.64,2.64,0,0,1,68,187.58l-6.42-3.38a2.67,2.67,0,0,0-2.46,0l-6.43,3.38a2.63,2.63,0,0,1-3.82-2.78l1.23-7.16a2.66,2.66,0,0,0-.76-2.33l-5.2-5.07a2.63,2.63,0,0,1,1.46-4.49l7.19-1.05a2.62,2.62,0,0,0,2-1.44l3.21-6.51A2.64,2.64,0,0,1,62.67,156.75Z"/><path class="a4553dfc-c13a-4989-a085-686ba02a7b55" d="M53,185.28a6.46,6.46,0,0,0,2.9-2.62,1,1,0,0,0-1.81-1.06A4.61,4.61,0,0,1,52,183.47,1,1,0,0,0,53,185.28Z"/><path class="a4553dfc-c13a-4989-a085-686ba02a7b55" d="M73.36,168.46c-.09,0,0,0-.06.18a2,2,0,0,1-.73.73,1.08,1.08,0,0,0-.37,1.44,1.05,1.05,0,0,0,1.43.38,3.68,3.68,0,0,0,1.79-2.53,2.12,2.12,0,0,0-1.5-2.23,1.05,1.05,0,0,0-.56,2Z"/><path class="a4553dfc-c13a-4989-a085-686ba02a7b55" d="M60.79,159.29c0-.26-.11.08-.14.13s0-.08,0,0l-.06,0h.07c-.05,0-.09,0-.12-.07a1.9,1.9,0,0,1,.34,1,1.08,1.08,0,0,0,1,1,1.06,1.06,0,0,0,1.05-1c-.13-1.17-.42-2.53-1.69-3a1.92,1.92,0,0,0-2.54,1.26,1.07,1.07,0,0,0,.73,1.29,1.06,1.06,0,0,0,1.3-.73Z"/><path class="b8e286d2-c2cf-4335-8cd5-4fe6a38aa6d2" d="M105.17,156.75l3.21,6.51a2.62,2.62,0,0,0,2,1.44l7.18,1.05a2.63,2.63,0,0,1,1.46,4.49l-5.2,5.07a2.66,2.66,0,0,0-.76,2.33l1.23,7.16a2.63,2.63,0,0,1-3.82,2.78L104,184.2a2.65,2.65,0,0,0-2.45,0l-6.43,3.38a2.64,2.64,0,0,1-3.83-2.78l1.23-7.16a2.63,2.63,0,0,0-.76-2.33l-5.2-5.07a2.63,2.63,0,0,1,1.46-4.49l7.19-1.05a2.6,2.6,0,0,0,2-1.44l3.22-6.51A2.64,2.64,0,0,1,105.17,156.75Z"/><path class="a4553dfc-c13a-4989-a085-686ba02a7b55" d="M95.51,185.28a6.51,6.51,0,0,0,2.9-2.62,1.05,1.05,0,0,0-1.82-1.06,4.58,4.58,0,0,1-2.14,1.87,1,1,0,1,0,1.06,1.81Z"/><path class="a4553dfc-c13a-4989-a085-686ba02a7b55" d="M115.85,168.46c-.08,0,0,0-.06.18-.11.3-.48.55-.72.73a1.09,1.09,0,0,0-.38,1.44,1.06,1.06,0,0,0,1.44.38,3.71,3.71,0,0,0,1.79-2.53,2.12,2.12,0,0,0-1.51-2.23,1.05,1.05,0,0,0-.56,2Z"/><path class="a4553dfc-c13a-4989-a085-686ba02a7b55" d="M103.28,159.29c0-.26-.11.08-.13.13s-.05-.08,0,0l-.06,0h.08c-.06,0-.09,0-.12-.07a2,2,0,0,1,.33,1,1.08,1.08,0,0,0,1.05,1,1.06,1.06,0,0,0,1-1c-.12-1.17-.42-2.53-1.68-3a1.93,1.93,0,0,0-2.55,1.26A1.08,1.08,0,0,0,102,160a1.05,1.05,0,0,0,1.29-.73Z"/><path class="b8e286d2-c2cf-4335-8cd5-4fe6a38aa6d2" d="M20.18,156.75l3.21,6.51a2.63,2.63,0,0,0,2,1.44l7.18,1.05A2.63,2.63,0,0,1,34,170.24l-5.2,5.07a2.63,2.63,0,0,0-.75,2.33l1.22,7.16a2.63,2.63,0,0,1-3.82,2.78L19,184.2a2.65,2.65,0,0,0-2.45,0l-6.43,3.38a2.64,2.64,0,0,1-3.83-2.78l1.23-7.16a2.61,2.61,0,0,0-.76-2.33l-5.2-5.07a2.63,2.63,0,0,1,1.46-4.49l7.19-1.05a2.63,2.63,0,0,0,2-1.44l3.21-6.51A2.64,2.64,0,0,1,20.18,156.75Z"/><path class="a4553dfc-c13a-4989-a085-686ba02a7b55" d="M10.52,185.28a6.46,6.46,0,0,0,2.9-2.62,1.05,1.05,0,0,0-1.82-1.06,4.58,4.58,0,0,1-2.14,1.87,1,1,0,1,0,1.06,1.81Z"/><path class="a4553dfc-c13a-4989-a085-686ba02a7b55" d="M30.87,168.46c-.09,0,0,0-.06.18a2.13,2.13,0,0,1-.73.73,1.09,1.09,0,0,0-.38,1.44,1.06,1.06,0,0,0,1.44.38,3.71,3.71,0,0,0,1.79-2.53,2.12,2.12,0,0,0-1.51-2.23,1.05,1.05,0,0,0-.55,2Z"/><path class="a4553dfc-c13a-4989-a085-686ba02a7b55" d="M18.29,159.29c.05-.26-.11.08-.13.13s-.05-.08,0,0l-.07,0h.08c-.05,0-.09,0-.12-.07a2,2,0,0,1,.33,1,1.08,1.08,0,0,0,1.05,1,1.06,1.06,0,0,0,1-1c-.12-1.17-.42-2.53-1.68-3a1.92,1.92,0,0,0-2.54,1.26A1.06,1.06,0,0,0,17,160a1,1,0,0,0,1.29-.73Z"/><ellipse class="b7b8f7f8-5b6d-40f2-b3f1-f12da3c49832" cx="61.92" cy="129.32" rx="61.92" ry="20.48"/><path class="a7ee5ad9-587e-436f-9617-53045696e0e0" d="M102.58,62.5c1.8,7.69,1.89,16.69,1.37,23.83a99.89,99.89,0,0,1-6.72,31.13,38.12,38.12,0,0,1-9.44,13.93,12.77,12.77,0,0,1-5.9,3.11c-20.2,4.57-41.54-.18-44.11-.76s-5.37-3.54-5.37-3.54c-17.07-19.15-13.28-54.36-9.85-69.49,0,.13.27,3.58,2,2.52S26.72,60,28.07,61s0,3.92.7,4.86,4.29,3.59,6.16,1.44a10.45,10.45,0,0,0,2.47-5.64c.14-1.17,1.4-5.74,3.32-5s2.1,2.47,1.58,5-.14,3.92.8,4.53,3.5,1.53,4.24-.66.7-5.18,1.78-6.81,1.63-2.2,2.15-2.17a2.16,2.16,0,0,1,1.81,2.35c.05,1.82,1.5,2.67,2.62,1.87s2.08-2.24,3.73-1.71,2.69,1.71,3.88.21A4.67,4.67,0,0,1,67,57.54a4.1,4.1,0,0,1,2.44,1.65c.46.91,1.13,1.75,2.1,1.68s2.38-2.45,3.68-1.4,1.93,4.86.14,9.69-.74,9.52,2,9.66,5.53,0,5.39-7.77S80.22,58,82.11,57.47s3.46-.21,3.6,1.61S85.12,67.2,88,67s2-6.55,2.13-8.79,2.66-2.2,3.82-1.36,3.53,2,3.08,6.75.59,5.5,1,5.92,1.53,2.27,2.55,1.75S103.8,68.76,102.58,62.5Z"/><path class="be6bb7c2-7117-41af-8b13-936006a9936d" d="M102.58,62.5c1.22,6.26-1,8.2-2.06,8.73S98.31,69.9,98,69.48s-1.41-1.12-1-5.92-1.93-5.91-3.08-6.75-3.64-.88-3.82,1.36S90.86,66.71,88,67s-2.13-6.06-2.28-7.88S84,57,82.11,57.47s.52,5.78.66,13.58S80.11,79,77.38,78.82s-3.78-4.83-2-9.66,1.16-8.64-.14-9.69-2.7,1.33-3.68,1.4-1.64-.77-2.1-1.68A4.1,4.1,0,0,0,67,57.54a4.67,4.67,0,0,0-3.72,1.72c-1.19,1.5-2.24.31-3.88-.21s-2.61.92-3.73,1.71-2.57,0-2.62-1.87a2.16,2.16,0,0,0-1.81-2.35c-.52,0-1.08.54-2.15,2.17s-1,4.62-1.78,6.81-3.31,1.26-4.24.66-1.31-2-.8-4.53.33-4.34-1.58-5-3.18,3.87-3.32,5a10.45,10.45,0,0,1-2.47,5.64c-1.87,2.15-5.46-.51-6.16-1.44s.66-3.83-.7-4.86-1.82,1.17-3.55,2.24-1.95-2.39-2-2.52h0a38.63,38.63,0,0,1,1.94-6.59c2.8-6,8.33-7.42,3.85-10.64S26.6,34.3,26.6,34.3c1.33-4,12.74-10.08,36.32-10.08s32,5.39,32,5.39a7.36,7.36,0,0,1,4.94,5.71c1,4.69-1.75,8.47-4.52,9.45s-.5,3.67-.5,3.67c4,2.9,6.39,8.09,7.78,14.06Zm-10-27c0-3.79-13.26-6.86-29.62-6.86S33.3,31.69,33.3,35.48s13.26,6.86,29.62,6.86S92.54,39.26,92.54,35.48Z"/><path class="a3c8e022-8b73-4986-ac49-c71ddb45577c" d="M62.92,28.62c16.36,0,29.62,3.07,29.62,6.86s-13.26,6.86-29.62,6.86S33.3,39.26,33.3,35.48,46.56,28.62,62.92,28.62Z"/><path class="bfc7f778-297a-4a0c-bad0-4084161c6d3f" d="M92.54,35.48c0,3.78-13.26,6.86-29.62,6.86S33.3,39.26,33.3,35.48s13.26-6.86,29.62-6.86S92.54,31.69,92.54,35.48Z"/><path class="bfc7f778-297a-4a0c-bad0-4084161c6d3f" d="M22.56,60.71c-3.43,15.13-7.22,50.34,9.85,69.49,0,0,2.66,2.94,5.37,3.54s23.91,5.33,44.11.76a12.77,12.77,0,0,0,5.9-3.11,38.12,38.12,0,0,0,9.44-13.93A99.89,99.89,0,0,0,104,86.33c.52-7.14.43-16.14-1.37-23.83"/><path class="bfc7f778-297a-4a0c-bad0-4084161c6d3f" d="M102.58,62.5c-1.39-6-3.82-11.16-7.78-14.06,0,0-2.26-2.69.5-3.67s5.5-4.76,4.52-9.45a7.36,7.36,0,0,0-4.94-5.71s-8.39-5.39-32-5.39-35,6.09-36.32,10.08c0,0-2.73,6,1.75,9.17S27.3,48.16,24.5,54.11a38.63,38.63,0,0,0-1.94,6.59"/><path class="bfc7f778-297a-4a0c-bad0-4084161c6d3f" d="M22.56,60.7h0c0,.13.27,3.58,2,2.52S26.72,60,28.07,61s0,3.92.7,4.86,4.29,3.59,6.16,1.44a10.45,10.45,0,0,0,2.47-5.64c.14-1.17,1.4-5.74,3.32-5s2.1,2.47,1.58,5-.14,3.92.8,4.53,3.5,1.53,4.24-.66.7-5.18,1.78-6.81,1.63-2.2,2.15-2.17a2.16,2.16,0,0,1,1.81,2.35c.05,1.82,1.5,2.67,2.62,1.87s2.08-2.24,3.73-1.71,2.69,1.71,3.88.21A4.67,4.67,0,0,1,67,57.54a4.1,4.1,0,0,1,2.44,1.65c.46.91,1.13,1.75,2.1,1.68s2.38-2.45,3.68-1.4,1.93,4.86.14,9.69-.74,9.52,2,9.66,5.53,0,5.39-7.77S80.22,58,82.11,57.47s3.46-.21,3.6,1.61S85.12,67.2,88,67s2-6.55,2.13-8.79,2.66-2.2,3.82-1.36,3.53,2,3.08,6.75.59,5.5,1,5.92,1.53,2.27,2.55,1.75,3.28-2.47,2.06-8.73h0"/><path class="ff069ebc-8323-464f-820e-d729169ea46c" d="M31.9,103.92V83.75h5v7.44h1.49V83.75h5.07v20.17H38.42V94.48H36.93v9.44Z"/><path class="ff069ebc-8323-464f-820e-d729169ea46c" d="M45.52,87.8c0-1.88.32-3,1-3.49s2.25-.68,4.79-.68,4.21.24,4.85.72,1,1.64,1,3.45v12c0,1.85-.32,3-1,3.5s-2.26.72-4.81.72-4.2-.25-4.84-.74-.95-1.65-.95-3.48Zm5,.12v11.8a1.36,1.36,0,0,0,.17.79.66.66,0,0,0,.57.23.83.83,0,0,0,.54-.16.58.58,0,0,0,.19-.46V87.92a1.33,1.33,0,0,0-.17-.79.82.82,0,0,0-.65-.21.65.65,0,0,0-.48.17.61.61,0,0,0-.17.45Z"/><path class="ff069ebc-8323-464f-820e-d729169ea46c" d="M59.13,103.92V83.75h4.7l2.52,10.33V83.75h4.38v20.17H66L63.49,94v9.89Z"/><path class="ff069ebc-8323-464f-820e-d729169ea46c" d="M72.9,103.92V83.75h8V87h-3v4.19h3v3.29h-3v6.16h3v3.28Z"/><path class="ff069ebc-8323-464f-820e-d729169ea46c" d="M85,103.92v-8L81.66,83.75h4.75l1.24,7.77,1.2-7.77h4.8L90.27,95.92v8Z"/><path class="a60453e5-1eeb-4bd2-b953-630fd7fdca41" d="M70.63,129a17.07,17.07,0,0,0,20.45-8.21c2.56-4.77-4.7-9-7.26-4.24a8.69,8.69,0,0,1-11,4.35c-5.16-1.68-7.36,6.43-2.23,8.1Z"/><path class="a60453e5-1eeb-4bd2-b953-630fd7fdca41" d="M24.79,73.31a97.66,97.66,0,0,0-1.22,24.62c.21,2.68,4.41,2.7,4.2,0a93.42,93.42,0,0,1,1.07-23.5c.46-2.65-3.59-3.78-4.05-1.12Z"/><path class="bc7fe382-4188-4d36-8e22-684f1575c20b" d="M31.17,60a2.33,2.33,0,0,0,1.35,3.48c1,.26,1.5-1.36.45-1.62a.65.65,0,0,1-.35-1c.63-.88-.83-1.72-1.45-.84Z"/><path class="bc7fe382-4188-4d36-8e22-684f1575c20b" d="M77,74.7l.61.61a.85.85,0,0,0,1.19,0,3.82,3.82,0,0,0,.95-3.66.84.84,0,0,0-1.62.45,2.09,2.09,0,0,1-.52,2h1.19l-.62-.61A.84.84,0,0,0,77,74.7Z"/><path class="bc7fe382-4188-4d36-8e22-684f1575c20b" d="M28.74,36.59a6.31,6.31,0,0,0,4.05,7c1,.38,1.45-1.24.45-1.62A4.59,4.59,0,0,1,30.36,37c.17-1.06-1.45-1.51-1.62-.45Z"/><path class="bc7fe382-4188-4d36-8e22-684f1575c20b" d="M95.13,37.51a12.46,12.46,0,0,1-4.56,5.56c-.89.6,0,2.06.85,1.45A14.51,14.51,0,0,0,96.75,38c.41-1-1.21-1.43-1.62-.45Z"/><path class="bc7fe382-4188-4d36-8e22-684f1575c20b" d="M28.16,57a9.9,9.9,0,0,1,4.11-6.08c.89-.6,0-2.06-.85-1.45a11.65,11.65,0,0,0-4.88,7.08c-.25,1.06,1.37,1.5,1.62.45Z"/><path class="e9c2dbe5-10d7-46d1-9a65-704d050731bc" d="M42.07,34.94c-.07,2,2,2.46,3.58,2.69a44.58,44.58,0,0,0,11,.13c1.07-.12,1.08-1.8,0-1.68-1.52.16-12.92,1-12.84-1.14,0-1.08-1.65-1.08-1.69,0Z"/><path class="e9c2dbe5-10d7-46d1-9a65-704d050731bc" d="M77.59,34.27l2.24.29a.84.84,0,0,0,0-1.68l-2.24-.29a.84.84,0,0,0-.85.84.87.87,0,0,0,.85.84Z"/><path class="be6e1076-eaed-4b54-b43e-05de95191faf" d="M98,76.91a17.28,17.28,0,0,1-1.37,7.34c-.42,1,1.2,1.43,1.62.44a18.55,18.55,0,0,0,1.43-7.78.84.84,0,0,0-1.68,0Z"/><path class="b90f79a2-1dbd-4690-a5d3-a313a0993142" d="M11.33,122.07a8.15,8.15,0,0,0-3.25,9.07c1.1,3.56,4.07,5.6,7.37,6.91,2.11.85,4.61-.92,5.17-2.93.65-2.4-.82-4.32-2.94-5.17a8.23,8.23,0,0,1-1.24-.74c.22.19-.37-.51-.33-.49-.16-.28-.16-.29,0,0s0,.35,0-.17c-.23.37-.17.5-.57.79a4.33,4.33,0,0,0,1.51-5.75c-1.06-1.81-3.91-2.85-5.75-1.51Z"/><path class="b90f79a2-1dbd-4690-a5d3-a313a0993142" d="M106.43,126.56c1.51.18,1.77,2,1.25,3-1,2-4,2.87-6,3.58-5.06,1.81-2.88,9.94,2.23,8.1,5.64-2,12-5.23,12.44-12,.41-6-4.33-10.39-9.95-11.09-2.27-.28-4.18,2.14-4.2,4.21,0,2.5,2,3.92,4.2,4.2Z"/><path class="ade818e4-e531-40d5-a4ff-1e5f7a59b8ba" d="M104.38,26s-7.56-13.89,6.94-20.2S127.82,3.25,131,8.3s1.23,9.24-9.42,10.71-12.16,7.78-12.16,7.78S107.43,29.89,104.38,26Z"/><path class="a1963a40-643a-4985-916e-e0af86a8083d" d="M104.82,15.41c2.34-4.72,6-8.95,11.3-10.4,3.36-.93,7.42-.84,10.48,1,4.46,2.72,3.75,7.91-1,9.85-7.08,2.87-17.34,1.29-18.32,11.44-.26,2.69,4,2.68,4.21,0,.74-7.73,15.31-5.47,20.09-10.19,4-3.92,3.19-9.49-.73-13.12-10-9.28-24.59-.92-29.65,9.27-1.2,2.41,2.42,4.55,3.63,2.12Z"/><path class="e1b92d53-3d6b-491b-8e82-8d1872eb37aa" d="M124,8.93a1.92,1.92,0,0,1-.63,3.67c-1.33.22-.77,2.25.56,2A4,4,0,0,0,125,7.11c-1.19-.63-2.26,1.19-1.06,1.82Z"/></g></g></svg>