<svg xmlns="http://www.w3.org/2000/svg" xmlns:xlink="http://www.w3.org/1999/xlink" viewBox="0 0 648.99 231.64"><defs><style>.b1ca1b11-cb0b-4f6e-b95c-a83c4b1c71e4,.fb812ab6-a732-4e93-b701-e49216a1481b{fill:none;}.b41f84f8-921f-4706-b503-575e22b57654{fill:#8bc220;}.bc1b44cf-90ca-4f11-91bc-ca8136edde77{fill:#dee100;}.b615ef5a-e002-44bd-8d62-381182d80c0d{fill:#3e5300;}.e35f6e70-5442-4945-b68c-de7045ba98bc{fill:#9cd8f6;}.f24936f9-1ff4-4e69-ba52-18bf6d1d229d{fill:#2b729c;}.b6642738-2831-4361-9907-d9b49ce07b82{fill:#3b4f86;}.bd20cb61-724f-42da-97a7-61879bff876d{fill:#266a91;}.b895eaac-090c-47d8-b8c6-0bd795fc3846{fill:#0a4360;}.ae77208b-c170-4f77-a2aa-483fb3c53d20{fill:#eaf6fd;}.a0bf0a04-2c10-41eb-acd8-107cd48bd7b0{fill:#294f68;}.a0bf0a04-2c10-41eb-acd8-107cd48bd7b0,.a0f686d5-ef3c-4a76-953c-c2e69fd4e36c,.a88c4af6-e5c0-4236-8f06-3679a1af9557,.b1ca1b11-cb0b-4f6e-b95c-a83c4b1c71e4,.bd7034fa-9aea-44f8-bf45-fa3d5813275a,.feff636a-efb1-441d-bbc5-19059c5e58df{stroke:#40220f;stroke-miterlimit:10;stroke-width:6px;}.bf968d73-5865-4be3-94f8-86a12283f374{clip-path:url(#adc6ff53-5c4e-45f8-a029-2faf60e9fa84);}.bd7034fa-9aea-44f8-bf45-fa3d5813275a{fill:#a0d7e2;}.a9e592ba-1f9f-4c0a-8578-97b92e67ecc4{fill:#231815;}.a1349ff4-f6c8-4285-8f7a-f9ae794eb5c6{fill:#fff;}.feff636a-efb1-441d-bbc5-19059c5e58df{fill:#bfe3e5;}.a0f686d5-ef3c-4a76-953c-c2e69fd4e36c{fill:#7eabb4;}.a88c4af6-e5c0-4236-8f06-3679a1af9557{fill:#65b0d1;}</style><clipPath id="adc6ff53-5c4e-45f8-a029-2faf60e9fa84"><ellipse class="fb812ab6-a732-4e93-b701-e49216a1481b" cx="436.3" cy="73.58" rx="112.5" ry="52.58"/></clipPath></defs><title>魚桶</title><g id="b451fb72-04d2-4736-82a5-7a613e2b3f52" data-name="圖層 2"><g id="a6b40ff9-5ffd-4c6e-85f4-bcb867aea16f" data-name="圖層 1"><polygon class="b41f84f8-921f-4706-b503-575e22b57654" points="597.63 196.01 578.44 229.24 616.81 229.24 597.63 196.01"/><polygon class="b41f84f8-921f-4706-b503-575e22b57654" points="629.8 196.01 610.62 229.24 648.99 229.24 629.8 196.01"/><polygon class="b41f84f8-921f-4706-b503-575e22b57654" points="612.43 174.5 593.25 229.24 631.62 229.24 612.43 174.5"/><polygon class="bc1b44cf-90ca-4f11-91bc-ca8136edde77" points="19.19 182.08 0 215.31 38.38 215.31 19.19 182.08"/><polygon class="bc1b44cf-90ca-4f11-91bc-ca8136edde77" points="51.36 182.08 32.18 215.31 70.55 215.31 51.36 182.08"/><polygon class="bc1b44cf-90ca-4f11-91bc-ca8136edde77" points="33.99 160.58 14.81 215.31 53.18 215.31 33.99 160.58"/><polygon class="b615ef5a-e002-44bd-8d62-381182d80c0d" points="57.86 200.98 42.72 227.2 73 227.2 57.86 200.98"/><polygon class="b615ef5a-e002-44bd-8d62-381182d80c0d" points="83.25 200.98 68.11 227.2 98.38 227.2 83.25 200.98"/><polygon class="b615ef5a-e002-44bd-8d62-381182d80c0d" points="69.54 184.02 54.4 227.2 84.68 227.2 69.54 184.02"/><circle class="e35f6e70-5442-4945-b68c-de7045ba98bc" cx="455.19" cy="8.93" r="7.15"/><path class="f24936f9-1ff4-4e69-ba52-18bf6d1d229d" d="M449,13.46c-1.18-5-.8-11.67,6-11.44,6.05.21,10.68,9.34,3.62,12.21-1.19.48-.67,2.44.54,1.95,7.65-3.11,5.67-13.73-1.73-15.81a9.17,9.17,0,0,0-9,2.12c-3,3.12-2.24,7.71-1.35,11.51.29,1.26,2.24.73,1.94-.54Z"/><path class="b6642738-2831-4361-9907-d9b49ce07b82" d="M452.91,9.94a2.56,2.56,0,0,1,2.65-4.27c.61.22.87-.76.26-1a3.66,3.66,0,0,0-4.31,1.45,3.69,3.69,0,0,0,.69,4.51c.47.45,1.18-.27.71-.72Z"/><path class="e35f6e70-5442-4945-b68c-de7045ba98bc" d="M522.85,66.18s-7.43-13.66,6.82-19.85,16.21-2.48,19.31,2.48,1.21,9.08-9.26,10.53-12,7.64-12,7.64S525.85,70,522.85,66.18Z"/><path class="f24936f9-1ff4-4e69-ba52-18bf6d1d229d" d="M522.57,55.39c2.68-5.35,7-9.84,13.12-11,3.42-.62,7.67-.14,10.37,2.22,4.46,3.89,2,9.28-3.22,10.81-6.45,1.88-15.49,1.34-16.33,10.05-.16,1.6,2.34,1.59,2.5,0,.84-8.7,14.89-5.64,20-10.59,3.34-3.25,3-8-.2-11.28-9.26-9.53-23.55-1.14-28.37,8.49-.72,1.43,1.43,2.7,2.15,1.26Z"/><path class="b6642738-2831-4361-9907-d9b49ce07b82" d="M540.8,49.09a2.42,2.42,0,0,1,2.4,2.29,2.5,2.5,0,0,1-2.32,2.33c-1.59.24-.91,2.65.66,2.42A4.91,4.91,0,0,0,545.68,51a5,5,0,0,0-4.88-4.4c-1.61-.05-1.61,2.45,0,2.5Z"/><path class="e35f6e70-5442-4945-b68c-de7045ba98bc" d="M371.69,55.68s4.68.14,2.89-12.39S359,18.91,352.41,25.94s-7.4,13.6,6.08,19.54S367.83,56.78,371.69,55.68Z"/><path class="f24936f9-1ff4-4e69-ba52-18bf6d1d229d" d="M370.85,55.35c-.62-3.42-2.76-5.72-5.6-7.62-4.43-3-11.86-4.43-15-8.79-5.91-8.23,5.15-15.86,12.7-12,6,3,7.83,9.77,9.3,15.8l.88-1.54-.21.07,1.54.87,0-.21c-.28-1.58-2.69-.91-2.41.66l0,.22a1.25,1.25,0,0,0,1.54.87l.2-.07a1.29,1.29,0,0,0,.88-1.54c-1.51-6.19-3.57-13.14-9.32-16.73-5.24-3.27-12.27-2.8-16.45,2a10.5,10.5,0,0,0-.18,13.84c5.17,5.88,18.09,6,19.71,14.9.29,1.58,2.7.91,2.41-.67Z"/><path class="b6642738-2831-4361-9907-d9b49ce07b82" d="M356.15,28.89a4.22,4.22,0,0,0-1.84,4.83c.59,2.25,2.69,3.57,4.58,4.65a1.25,1.25,0,0,0,1.26-2.16A8.09,8.09,0,0,1,357,33.76a1.92,1.92,0,0,1,.38-2.71,1.25,1.25,0,0,0-1.26-2.16Z"/><ellipse class="f24936f9-1ff4-4e69-ba52-18bf6d1d229d" cx="440.39" cy="208.32" rx="77.46" ry="23.31"/><path class="bd20cb61-724f-42da-97a7-61879bff876d" d="M377.83,200.93a9.72,9.72,0,0,0,1.11,10.44c2.51,3.36,6.52,5,10.28,6.5,2.23.9,3.21-2.73,1-3.62-4.25-1.72-12.19-5.48-9.14-11.43,1.1-2.15-2.14-4-3.24-1.89Z"/><path class="bd20cb61-724f-42da-97a7-61879bff876d" d="M497.75,202c3,1.7,6.94,3.74,7.57,7.5.7,4.16-3.55,5.83-6.72,6.79-2.3.7-1.32,4.32,1,3.62,4.24-1.29,9.09-3.7,9.52-8.69.52-6.08-4.82-9.82-9.48-12.45-2.1-1.19-4,2-1.89,3.23Z"/><path class="b895eaac-090c-47d8-b8c6-0bd795fc3846" d="M374.57,202.11c-4.06,6.26,2.32,11.72,7.47,14.21,2.16,1,4.06-2.19,1.89-3.24-3.17-1.53-8.91-4.79-6.13-9.08,1.32-2-1.92-3.91-3.23-1.89Z"/><path class="b895eaac-090c-47d8-b8c6-0bd795fc3846" d="M499.19,203.67a5,5,0,0,1,6.43,2.7c1,2.82-1.54,5.85-4.32,6-2.4.17-2.42,3.92,0,3.75,5-.33,9.29-5,8.1-10.17a8.67,8.67,0,0,0-11.2-5.92c-2.25.82-1.28,4.44,1,3.61Z"/><path class="ae77208b-c170-4f77-a2aa-483fb3c53d20" d="M400.48,219.63a74.69,74.69,0,0,0,30.35,2.62c2.37-.28,2.4-4,0-3.75A71.92,71.92,0,0,1,401.48,216c-2.32-.69-3.31,2.93-1,3.61Z"/><path class="ae77208b-c170-4f77-a2aa-483fb3c53d20" d="M498,199.18a1.52,1.52,0,0,0,0-3,1.52,1.52,0,0,0,0,3Z"/><ellipse class="a0bf0a04-2c10-41eb-acd8-107cd48bd7b0" cx="440.39" cy="92.43" rx="77.46" ry="36.2"/><path class="a0bf0a04-2c10-41eb-acd8-107cd48bd7b0" d="M362.93,92.43l23.71,98.66A23.4,23.4,0,0,0,409.4,209h61.72a23.41,23.41,0,0,0,22.75-17.89l24-98.72"/><g class="bf968d73-5865-4be3-94f8-86a12283f374"><path class="bd7034fa-9aea-44f8-bf45-fa3d5813275a" d="M436.87,27.42s10.61,4.93,13.68,19.48A32.43,32.43,0,0,1,446,71.61l9.86,11.26L444.29,81,436,86.51,439.26,73s-7.1-11.13-9-21.39C427.17,34.67,436.87,27.42,436.87,27.42Z"/><circle class="a9e592ba-1f9f-4c0a-8578-97b92e67ecc4" cx="438.68" cy="38.17" r="1.86"/><path class="a1349ff4-f6c8-4285-8f7a-f9ae794eb5c6" d="M447.75,42.26s-4.49,13.2-16.69,5.05l.93,5s6.74,6.82,17-4.66Z"/><path class="a1349ff4-f6c8-4285-8f7a-f9ae794eb5c6" d="M449.46,49.15s-4.51,13.2-16.9,5l1,5s6.85,6.85,17.18-4.6Z"/><path class="a1349ff4-f6c8-4285-8f7a-f9ae794eb5c6" d="M450.44,55.93s-4.44,13.21-16,5.24l.83,4.94s6.36,6.71,16.26-4.85Z"/><path class="b1ca1b11-cb0b-4f6e-b95c-a83c4b1c71e4" d="M436.87,27.42s10.61,4.93,13.68,19.48A32.43,32.43,0,0,1,446,71.61l9.86,11.26L444.29,81,436,86.51,439.26,73s-7.1-11.13-9-21.39C427.17,34.67,436.87,27.42,436.87,27.42Z"/><path class="feff636a-efb1-441d-bbc5-19059c5e58df" d="M494.4,32.74s5.44,9.84-.44,22.86A31.15,31.15,0,0,1,476.4,72.17l1.26,14.33-7.92-8-9.51-.45,10.16-8.62s.81-12.66,5.17-21.68C482.77,32.85,494.4,32.74,494.4,32.74Z"/><circle class="a9e592ba-1f9f-4c0a-8578-97b92e67ecc4" cx="489.72" cy="42.1" r="1.79"/><path class="a1349ff4-f6c8-4285-8f7a-f9ae794eb5c6" d="M494.42,50.42s-11,7.68-15.81-5.55l-2.09,4.38s1.36,9.11,15.81,6Z"/><path class="a1349ff4-f6c8-4285-8f7a-f9ae794eb5c6" d="M491.84,56.73s-11,7.68-15.94-5.71l-2.07,4.41s1.43,9.2,15.93,6.18Z"/><path class="a1349ff4-f6c8-4285-8f7a-f9ae794eb5c6" d="M488.76,62.54s-10.94,7.73-15.38-5l-2.15,4.31s1.11,8.81,15.35,5.46Z"/><path class="b1ca1b11-cb0b-4f6e-b95c-a83c4b1c71e4" d="M494.4,32.74s5.44,9.84-.44,22.86A31.15,31.15,0,0,1,476.4,72.17l1.26,14.33-7.92-8-9.51-.45,10.16-8.62s.81-12.66,5.17-21.68C482.77,32.85,494.4,32.74,494.4,32.74Z"/><path class="bd7034fa-9aea-44f8-bf45-fa3d5813275a" d="M499.24,51.66S508.78,57.6,510,71.84a31.1,31.1,0,0,1-7.26,23l8.09,11.89-10.8-3.1-8.53,4.24,4.67-12.48S490.7,84,490.11,74C489.13,57.43,499.24,51.66,499.24,51.66Z"/><circle class="a9e592ba-1f9f-4c0a-8578-97b92e67ecc4" cx="499.71" cy="62.12" r="1.79"/><path class="a1349ff4-f6c8-4285-8f7a-f9ae794eb5c6" d="M507.87,67.09S502,79.15,491.36,70l.31,4.84s5.63,7.3,16.73-2.45Z"/><path class="a1349ff4-f6c8-4285-8f7a-f9ae794eb5c6" d="M508.69,73.86s-5.84,12.06-16.7,2.79l.34,4.85s5.73,7.34,16.92-2.37Z"/><path class="a1349ff4-f6c8-4285-8f7a-f9ae794eb5c6" d="M508.83,80.44S503,92.51,493,83.56l.21,4.8s5.27,7.15,16.07-2.71Z"/><path class="b1ca1b11-cb0b-4f6e-b95c-a83c4b1c71e4" d="M499.24,51.66S508.78,57.6,510,71.84a31.1,31.1,0,0,1-7.26,23l8.09,11.89-10.8-3.1-8.53,4.24,4.67-12.48S490.7,84,490.11,74C489.13,57.43,499.24,51.66,499.24,51.66Z"/><path class="a0f686d5-ef3c-4a76-953c-c2e69fd4e36c" d="M425.39,56S442.26,63.85,447.12,87a51.51,51.51,0,0,1-7.26,39.27l15.68,17.88-18.36-2.91L424,149.9l5.14-21.43s-11.27-17.69-14.26-34C410,67.54,425.39,56,425.39,56Z"/><circle class="a9e592ba-1f9f-4c0a-8578-97b92e67ecc4" cx="428.27" cy="73.1" r="2.96"/><path class="a1349ff4-f6c8-4285-8f7a-f9ae794eb5c6" d="M442.68,79.6s-7.14,21-26.53,8l1.49,7.89s10.71,10.84,27-7.4Z"/><path class="a1349ff4-f6c8-4285-8f7a-f9ae794eb5c6" d="M445.39,90.56s-7.15,21-26.85,7.94l1.54,7.9s10.89,10.88,27.3-7.31Z"/><path class="a1349ff4-f6c8-4285-8f7a-f9ae794eb5c6" d="M447,101.32s-7.06,21-25.41,8.32l1.33,7.85s10.09,10.67,25.83-7.7Z"/><path class="b1ca1b11-cb0b-4f6e-b95c-a83c4b1c71e4" d="M425.39,56S442.26,63.85,447.12,87a51.51,51.51,0,0,1-7.26,39.27l15.68,17.88-18.36-2.91L424,149.9l5.14-21.43s-11.27-17.69-14.26-34C410,67.54,425.39,56,425.39,56Z"/><path class="a88c4af6-e5c0-4236-8f06-3679a1af9557" d="M464.55,42.44s15.78,14.81,12.71,42.15-22.39,40.76-22.39,40.76l10.79,25.5-19.23-9.94-17.7,4.81,13.52-21.81s-6-23.68-3.34-42.78C443.3,49.53,464.55,42.44,464.55,42.44Z"/><circle class="a9e592ba-1f9f-4c0a-8578-97b92e67ecc4" cx="461.49" cy="62.36" r="3.44"/><path class="a1349ff4-f6c8-4285-8f7a-f9ae794eb5c6" d="M475,74.82S459.48,95.39,442.78,74l-1.23,9.27s7.87,15.89,32.51,1.68Z"/><path class="a1349ff4-f6c8-4285-8f7a-f9ae794eb5c6" d="M474,87.92s-15.58,20.56-32.6-1l-1.18,9.3s8.06,16,32.86,1.91Z"/><path class="a1349ff4-f6c8-4285-8f7a-f9ae794eb5c6" d="M471.83,100.39s-15.48,20.62-31.14-.09l-1.4,9.16s7.25,15.49,31.37.94Z"/><path class="b1ca1b11-cb0b-4f6e-b95c-a83c4b1c71e4" d="M464.55,42.44s15.78,14.81,12.71,42.15-22.39,40.76-22.39,40.76l10.79,25.5-19.23-9.94-17.7,4.81,13.52-21.81s-6-23.68-3.34-42.78C443.3,49.53,464.55,42.44,464.55,42.44Z"/><path class="bd7034fa-9aea-44f8-bf45-fa3d5813275a" d="M412.24,41.3s13,18.48,4.06,45.77S384.79,124,384.79,124l5.62,28.34-17.54-14.22-19.11,1.15,18.44-19.41s-1.11-25.47,5.65-44.43C389,44,412.24,41.3,412.24,41.3Z"/><circle class="a9e592ba-1f9f-4c0a-8578-97b92e67ecc4" cx="404.9" cy="61.01" r="3.59"/><path class="a1349ff4-f6c8-4285-8f7a-f9ae794eb5c6" d="M416.1,76.61s-20.25,17.73-32.79-7.67l-3.22,9.2s4.68,17.91,32.87,8.61Z"/><path class="a1349ff4-f6c8-4285-8f7a-f9ae794eb5c6" d="M412.3,89.79s-20.27,17.7-33.08-8L376,91.07s4.85,18.07,33.18,8.91Z"/><path class="a1349ff4-f6c8-4285-8f7a-f9ae794eb5c6" d="M407.4,102.06s-20.19,17.79-31.8-6.69l-3.37,9.06s4.13,17.36,31.85,7.6Z"/><path class="b1ca1b11-cb0b-4f6e-b95c-a83c4b1c71e4" d="M412.24,41.3s13,18.48,4.06,45.77S384.79,124,384.79,124l5.62,28.34-17.54-14.22-19.11,1.15,18.44-19.41s-1.11-25.47,5.65-44.43C389,44,412.24,41.3,412.24,41.3Z"/><path class="bd7034fa-9aea-44f8-bf45-fa3d5813275a" d="M476.47,64.47s17.87,5.12,26.26,27.2a51.49,51.49,0,0,1-1.08,39.92l18.25,15.24-18.58,0-11.63,10.63,1.76-22s-13.89-15.72-19.37-31.36C463,78.23,476.47,64.47,476.47,64.47Z"/><circle class="a9e592ba-1f9f-4c0a-8578-97b92e67ecc4" cx="481.96" cy="80.89" r="2.96"/><path class="a1349ff4-f6c8-4285-8f7a-f9ae794eb5c6" d="M497.2,85.08s-3.8,21.82-25,12l2.7,7.56s12.25,9,25.49-11.49Z"/><path class="a1349ff4-f6c8-4285-8f7a-f9ae794eb5c6" d="M501.58,95.48s-3.82,21.82-25.3,12l2.75,7.57s12.44,9.06,25.84-11.45Z"/><path class="a1349ff4-f6c8-4285-8f7a-f9ae794eb5c6" d="M504.79,105.87S501.07,127.7,481,118l2.53,7.54s11.62,9,24.32-11.61Z"/><path class="b1ca1b11-cb0b-4f6e-b95c-a83c4b1c71e4" d="M476.47,64.47s17.87,5.12,26.26,27.2a51.49,51.49,0,0,1-1.08,39.92l18.25,15.24-18.58,0-11.63,10.63,1.76-22s-13.89-15.72-19.37-31.36C463,78.23,476.47,64.47,476.47,64.47Z"/></g><path class="b1ca1b11-cb0b-4f6e-b95c-a83c4b1c71e4" d="M517.85,92.43c0,20-34.68,36.2-77.46,36.2s-77.46-16.21-77.46-36.2"/><path class="a9e592ba-1f9f-4c0a-8578-97b92e67ecc4" d="M394.42,161.65c1.36,11.26,7.55,37.38,23.92,32.94,2.5-.68,1.44-4.58-1.08-3.89-12.59,3.42-17.77-20.54-18.8-29-.3-2.55-4.35-2.58-4,0Z"/><path class="a9e592ba-1f9f-4c0a-8578-97b92e67ecc4" d="M490.52,135.55A90.43,90.43,0,0,1,487,150.86c-.81,2.47,3.09,3.53,3.89,1.07a88.22,88.22,0,0,0,3.55-15.3c.36-2.55-3.53-3.65-3.89-1.08Z"/></g></g></svg>