<svg xmlns="http://www.w3.org/2000/svg" viewBox="0 0 1400 735.49"><defs><style>.a0617e1c-d6a5-4ccb-9414-cf151106bc6d{isolation:isolate;}.b2839f31-555a-4a49-8a80-05f062d9533e{opacity:0.1;mix-blend-mode:hard-light;}.ff3f7163-afb1-43d5-af34-3b7212ea8894{fill:#231815;}.b1cd9714-b8b3-4c3b-a58d-f118724b426c{fill:#fff;}</style></defs><title>路</title><g class="a0617e1c-d6a5-4ccb-9414-cf151106bc6d"><g id="fad0b569-d838-4963-92a4-65907738a71e" data-name="圖層 2"><g id="f59e854f-c08b-4b2b-ae36-946d6c720057" data-name="圖層 1"><g class="b2839f31-555a-4a49-8a80-05f062d9533e"><path class="ff3f7163-afb1-43d5-af34-3b7212ea8894" d="M0,565.24s47.12,67.42,115.69,40c107-42.8-7.76-192.79,27.43-298.34s159.93-116,189.44-113.76,98.74,21.57,114.63,204.3,88.53,234.2,110.1,259,118.28-.78,117.22-142.68C673.36,360.61,768.4,378.15,799,356.58s48.59-78.51-35.4-127.32S825.15,7,939.78,7s151,135.07,151,168,7.94,111.23-39.73,181.6S1108.9,469,1172.46,469s186.09-20.43,227.54-81.72v99.88s-63,56.75-229.81,54.48S961.35,439.44,994.26,355.45s60.16-98.75,44.27-175.93-28.38-106.69-101-124.85S785.69,158.89,809.35,185.84c41.14,46.85,134.85,102.85,37.36,202.52C750.37,486.87,741.79,377.06,723,579,706.65,754.73,566.82,755.7,528.23,710.3S375.9,571.44,373.42,395.17C371.67,271.55,318,255.55,318,256.69S215.11,238.4,198,337.75C185.61,409.4,279.28,523,227.68,604.09,155.69,717.23,34.48,664,0,664.66Z"/></g><path class="b1cd9714-b8b3-4c3b-a58d-f118724b426c" d="M0,558.24s47.12,67.42,115.69,40c107-42.8-7.76-192.79,27.43-298.34s159.93-116,189.44-113.76,98.74,21.57,114.63,204.3,88.53,234.2,110.1,259,118.28-.78,117.22-142.68C673.36,353.61,768.4,371.15,799,349.58s48.59-78.51-35.4-127.32S825.15,0,939.78,0s151,135.07,151,168,7.94,111.23-39.73,181.6S1108.9,462,1172.46,462s186.09-20.43,227.54-81.72v99.88s-63,56.75-229.81,54.48S961.35,432.44,994.26,348.45s60.16-98.75,44.27-175.93-28.38-106.69-101-124.85S785.69,151.89,809.35,178.84c41.14,46.85,134.85,102.85,37.36,202.52C750.37,479.87,741.79,370.06,723,572,706.65,747.73,566.82,748.7,528.23,703.3S375.9,564.44,373.42,388.17C371.67,264.55,318,248.55,318,249.69S215.11,231.4,198,330.75C185.61,402.4,279.28,516,227.68,597.09,155.69,710.23,34.48,657,0,657.66Z"/></g></g></g></svg>