<svg xmlns="http://www.w3.org/2000/svg" viewBox="0 0 146.42 146.42"><defs><style>.ba810336-822d-4f82-baf3-c1feeb08b379{fill:#107ac0;}.ba810336-822d-4f82-baf3-c1feeb08b379,.bc95ca81-4464-4f10-9ca1-2f34218aa759{stroke:#063a4a;}.aa9694dc-521a-41e3-8b51-f8ea231125f2,.ba810336-822d-4f82-baf3-c1feeb08b379,.bc95ca81-4464-4f10-9ca1-2f34218aa759{stroke-miterlimit:10;stroke-width:1.93px;}.a41300ea-2f95-4e5e-9fbf-017fa6fc8c9e{fill:#79c8f1;}.a2a05239-a8af-4043-9225-f28792b2c6d3,.bc95ca81-4464-4f10-9ca1-2f34218aa759,.e561bcee-8e4f-4ed0-b196-4f713f89fc96,.e6d8e9b0-ea6b-4c26-8758-594fd8a9d64d{fill:none;}.a2a05239-a8af-4043-9225-f28792b2c6d3,.aa9694dc-521a-41e3-8b51-f8ea231125f2,.e561bcee-8e4f-4ed0-b196-4f713f89fc96{stroke:#fff;}.a2a05239-a8af-4043-9225-f28792b2c6d3,.e561bcee-8e4f-4ed0-b196-4f713f89fc96,.e6d8e9b0-ea6b-4c26-8758-594fd8a9d64d{stroke-linecap:round;stroke-linejoin:round;}.e561bcee-8e4f-4ed0-b196-4f713f89fc96{stroke-width:3.85px;}.aa9694dc-521a-41e3-8b51-f8ea231125f2{fill:#f1d6b3;}.a2a05239-a8af-4043-9225-f28792b2c6d3{stroke-width:19.27px;}.f27d6cb7-2c84-4cc3-bd6c-5efa4b200305{fill:#063a4a;}.e6d8e9b0-ea6b-4c26-8758-594fd8a9d64d{stroke:#107ac0;stroke-width:9.64px;}</style></defs><title>叉</title><g id="f1b5de7a-8803-46df-8591-0a0a15e8ac05" data-name="圖層 2"><g id="abb3af29-1633-4316-ab9d-1a790044a079" data-name="圖層 1"><g id="a8168669-b4ba-433e-bed9-8603706216e6" data-name="叉叉"><circle class="ba810336-822d-4f82-baf3-c1feeb08b379" cx="73.21" cy="73.21" r="72.25"/><circle class="a41300ea-2f95-4e5e-9fbf-017fa6fc8c9e" cx="73.21" cy="73.21" r="59.43"/><path class="e561bcee-8e4f-4ed0-b196-4f713f89fc96" d="M140.11,71.48a67.67,67.67,0,0,1-38.77,61.21"/><ellipse class="aa9694dc-521a-41e3-8b51-f8ea231125f2" cx="90.86" cy="136.25" rx="4.13" ry="2.6" transform="translate(-34.66 31.06) rotate(-16.34)"/><path class="e561bcee-8e4f-4ed0-b196-4f713f89fc96" d="M10.17,55.53a67.75,67.75,0,0,1,27.7-37.14"/><rect class="aa9694dc-521a-41e3-8b51-f8ea231125f2" x="42.56" y="11.95" width="5.98" height="3.46" rx="1.73" transform="translate(-1.66 19.44) rotate(-23.67)"/><line class="a2a05239-a8af-4043-9225-f28792b2c6d3" x1="42.37" y1="104.05" x2="104.05" y2="42.37"/><line class="a2a05239-a8af-4043-9225-f28792b2c6d3" x1="104.05" y1="104.05" x2="42.37" y2="42.37"/><rect class="f27d6cb7-2c84-4cc3-bd6c-5efa4b200305" x="78.58" y="55.78" width="35.41" height="2.6" rx="1.08" transform="translate(204.73 29.36) rotate(135)"/><rect class="f27d6cb7-2c84-4cc3-bd6c-5efa4b200305" x="41.37" y="92.8" width="35.41" height="2.23" rx="1.01" transform="translate(167.26 118.54) rotate(135)"/><rect class="bc95ca81-4464-4f10-9ca1-2f34218aa759" x="40.98" y="51.37" width="35.41" height="1.6" rx="0.8" transform="translate(54.08 -26.22) rotate(45)"/><rect class="bc95ca81-4464-4f10-9ca1-2f34218aa759" x="73.42" y="85.32" width="38.48" height="1.6" rx="0.79" transform="translate(88.03 -40.3) rotate(45)"/><line class="e6d8e9b0-ea6b-4c26-8758-594fd8a9d64d" x1="43.28" y1="103.14" x2="103.14" y2="43.28"/><line class="e6d8e9b0-ea6b-4c26-8758-594fd8a9d64d" x1="103.14" y1="103.14" x2="43.28" y2="43.28"/></g></g></g></svg>