<svg xmlns="http://www.w3.org/2000/svg" viewBox="0 0 1400 1050"><defs><style>.a5b0f6b9-de58-4e4d-9ca3-dad5f62bf3f6{fill:#b8d1a8;}.b245c02c-418a-4535-b7c8-b1167ead03e5{fill:#d5e9c8;}.fe0b353c-49ed-4822-be16-5b45bd3abd81{fill:#f4f4f4;}.b26e180e-a60b-4f18-8896-f45e32de9400{fill:#d6d6d6;}.fec5a242-8a81-4736-91c4-d5ad798b145f{fill:#d8c3a4;}</style></defs><title>背景</title><g id="acbb04aa-aaa4-49f5-a56a-6084d608d4c3" data-name="圖層 2"><g id="e55fb226-1d21-4c2a-af97-e8475a5e17ee" data-name="圖層 1"><rect class="a5b0f6b9-de58-4e4d-9ca3-dad5f62bf3f6" width="47.22" height="631.72"/><rect class="b245c02c-418a-4535-b7c8-b1167ead03e5" x="46.35" width="76.59" height="631.72"/><rect class="a5b0f6b9-de58-4e4d-9ca3-dad5f62bf3f6" x="124.09" width="76.59" height="631.72"/><rect class="b245c02c-418a-4535-b7c8-b1167ead03e5" x="199.82" width="76.59" height="631.72"/><rect class="a5b0f6b9-de58-4e4d-9ca3-dad5f62bf3f6" x="277.56" width="76.59" height="631.72"/><rect class="b245c02c-418a-4535-b7c8-b1167ead03e5" x="353.29" width="76.59" height="631.72"/><rect class="a5b0f6b9-de58-4e4d-9ca3-dad5f62bf3f6" x="431.03" width="76.59" height="631.72"/><rect class="b245c02c-418a-4535-b7c8-b1167ead03e5" x="506.76" width="76.59" height="631.72"/><rect class="a5b0f6b9-de58-4e4d-9ca3-dad5f62bf3f6" x="584.5" width="76.59" height="631.72"/><rect class="b245c02c-418a-4535-b7c8-b1167ead03e5" x="660.22" width="76.59" height="631.72"/><rect class="a5b0f6b9-de58-4e4d-9ca3-dad5f62bf3f6" x="737.96" width="76.59" height="631.72"/><rect class="b245c02c-418a-4535-b7c8-b1167ead03e5" x="813.69" width="76.59" height="631.72"/><rect class="a5b0f6b9-de58-4e4d-9ca3-dad5f62bf3f6" x="891.43" width="76.59" height="631.72"/><rect class="b245c02c-418a-4535-b7c8-b1167ead03e5" x="967.16" width="76.59" height="631.72"/><rect class="a5b0f6b9-de58-4e4d-9ca3-dad5f62bf3f6" x="1044.9" width="76.59" height="631.72"/><rect class="b245c02c-418a-4535-b7c8-b1167ead03e5" x="1120.63" width="76.59" height="631.72"/><rect class="a5b0f6b9-de58-4e4d-9ca3-dad5f62bf3f6" x="1198.37" width="76.59" height="631.72"/><rect class="b245c02c-418a-4535-b7c8-b1167ead03e5" x="1274.1" width="76.59" height="631.72"/><rect class="a5b0f6b9-de58-4e4d-9ca3-dad5f62bf3f6" x="1351.84" width="48.16" height="631.72"/><rect class="fe0b353c-49ed-4822-be16-5b45bd3abd81" y="631.72" width="1400" height="28.43"/><ellipse class="b26e180e-a60b-4f18-8896-f45e32de9400" cx="18.24" cy="645.94" rx="11.78" ry="11.74"/><ellipse class="b26e180e-a60b-4f18-8896-f45e32de9400" cx="46.35" cy="645.94" rx="9.13" ry="9.1"/><ellipse class="b26e180e-a60b-4f18-8896-f45e32de9400" cx="75.67" cy="645.94" rx="11.78" ry="11.74"/><ellipse class="b26e180e-a60b-4f18-8896-f45e32de9400" cx="103.79" cy="645.94" rx="9.13" ry="9.1"/><ellipse class="b26e180e-a60b-4f18-8896-f45e32de9400" cx="133.11" cy="645.94" rx="11.78" ry="11.74"/><ellipse class="b26e180e-a60b-4f18-8896-f45e32de9400" cx="161.23" cy="645.94" rx="9.13" ry="9.1"/><ellipse class="b26e180e-a60b-4f18-8896-f45e32de9400" cx="190.55" cy="645.94" rx="11.78" ry="11.74"/><ellipse class="b26e180e-a60b-4f18-8896-f45e32de9400" cx="218.67" cy="645.94" rx="9.13" ry="9.1"/><ellipse class="b26e180e-a60b-4f18-8896-f45e32de9400" cx="247.99" cy="645.94" rx="11.78" ry="11.74"/><ellipse class="b26e180e-a60b-4f18-8896-f45e32de9400" cx="276.11" cy="645.94" rx="9.13" ry="9.1"/><ellipse class="b26e180e-a60b-4f18-8896-f45e32de9400" cx="305.43" cy="645.94" rx="11.78" ry="11.74"/><ellipse class="b26e180e-a60b-4f18-8896-f45e32de9400" cx="333.55" cy="645.94" rx="9.13" ry="9.1"/><ellipse class="b26e180e-a60b-4f18-8896-f45e32de9400" cx="362.87" cy="645.94" rx="11.78" ry="11.74"/><ellipse class="b26e180e-a60b-4f18-8896-f45e32de9400" cx="390.98" cy="645.94" rx="9.13" ry="9.1"/><ellipse class="b26e180e-a60b-4f18-8896-f45e32de9400" cx="420.3" cy="645.94" rx="11.78" ry="11.74"/><ellipse class="b26e180e-a60b-4f18-8896-f45e32de9400" cx="448.42" cy="645.94" rx="9.13" ry="9.1"/><ellipse class="b26e180e-a60b-4f18-8896-f45e32de9400" cx="477.74" cy="645.94" rx="11.78" ry="11.74"/><ellipse class="b26e180e-a60b-4f18-8896-f45e32de9400" cx="505.86" cy="645.94" rx="9.13" ry="9.1"/><ellipse class="b26e180e-a60b-4f18-8896-f45e32de9400" cx="535.18" cy="645.94" rx="11.78" ry="11.74"/><ellipse class="b26e180e-a60b-4f18-8896-f45e32de9400" cx="563.3" cy="645.94" rx="9.13" ry="9.1"/><ellipse class="b26e180e-a60b-4f18-8896-f45e32de9400" cx="592.62" cy="645.94" rx="11.78" ry="11.74"/><ellipse class="b26e180e-a60b-4f18-8896-f45e32de9400" cx="620.74" cy="645.94" rx="9.13" ry="9.1"/><ellipse class="b26e180e-a60b-4f18-8896-f45e32de9400" cx="650.06" cy="645.94" rx="11.78" ry="11.74"/><ellipse class="b26e180e-a60b-4f18-8896-f45e32de9400" cx="678.18" cy="645.94" rx="9.13" ry="9.1"/><ellipse class="b26e180e-a60b-4f18-8896-f45e32de9400" cx="707.5" cy="645.94" rx="11.78" ry="11.74"/><ellipse class="b26e180e-a60b-4f18-8896-f45e32de9400" cx="735.61" cy="645.94" rx="9.13" ry="9.1"/><ellipse class="b26e180e-a60b-4f18-8896-f45e32de9400" cx="764.94" cy="645.94" rx="11.78" ry="11.74"/><ellipse class="b26e180e-a60b-4f18-8896-f45e32de9400" cx="793.05" cy="645.94" rx="9.13" ry="9.1"/><ellipse class="b26e180e-a60b-4f18-8896-f45e32de9400" cx="822.37" cy="645.94" rx="11.78" ry="11.74"/><ellipse class="b26e180e-a60b-4f18-8896-f45e32de9400" cx="850.49" cy="645.94" rx="9.13" ry="9.1"/><ellipse class="b26e180e-a60b-4f18-8896-f45e32de9400" cx="879.81" cy="645.94" rx="11.78" ry="11.74"/><ellipse class="b26e180e-a60b-4f18-8896-f45e32de9400" cx="907.93" cy="645.94" rx="9.13" ry="9.1"/><ellipse class="b26e180e-a60b-4f18-8896-f45e32de9400" cx="937.25" cy="645.94" rx="11.78" ry="11.74"/><ellipse class="b26e180e-a60b-4f18-8896-f45e32de9400" cx="965.37" cy="645.94" rx="9.13" ry="9.1"/><ellipse class="b26e180e-a60b-4f18-8896-f45e32de9400" cx="994.69" cy="645.94" rx="11.78" ry="11.74"/><ellipse class="b26e180e-a60b-4f18-8896-f45e32de9400" cx="1022.81" cy="645.94" rx="9.13" ry="9.1"/><ellipse class="b26e180e-a60b-4f18-8896-f45e32de9400" cx="1052.13" cy="645.94" rx="11.78" ry="11.74"/><ellipse class="b26e180e-a60b-4f18-8896-f45e32de9400" cx="1080.24" cy="645.94" rx="9.13" ry="9.1"/><ellipse class="b26e180e-a60b-4f18-8896-f45e32de9400" cx="1109.57" cy="645.94" rx="11.78" ry="11.74"/><ellipse class="b26e180e-a60b-4f18-8896-f45e32de9400" cx="1137.68" cy="645.94" rx="9.13" ry="9.1"/><ellipse class="b26e180e-a60b-4f18-8896-f45e32de9400" cx="1167" cy="645.94" rx="11.78" ry="11.74"/><ellipse class="b26e180e-a60b-4f18-8896-f45e32de9400" cx="1195.12" cy="645.94" rx="9.13" ry="9.1"/><ellipse class="b26e180e-a60b-4f18-8896-f45e32de9400" cx="1224.44" cy="645.94" rx="11.78" ry="11.74"/><ellipse class="b26e180e-a60b-4f18-8896-f45e32de9400" cx="1252.56" cy="645.94" rx="9.13" ry="9.1"/><ellipse class="b26e180e-a60b-4f18-8896-f45e32de9400" cx="1281.88" cy="645.94" rx="11.78" ry="11.74"/><ellipse class="b26e180e-a60b-4f18-8896-f45e32de9400" cx="1310" cy="645.94" rx="9.13" ry="9.1"/><ellipse class="b26e180e-a60b-4f18-8896-f45e32de9400" cx="1339.32" cy="645.94" rx="11.78" ry="11.74"/><ellipse class="b26e180e-a60b-4f18-8896-f45e32de9400" cx="1367.44" cy="645.94" rx="9.13" ry="9.1"/><rect class="fec5a242-8a81-4736-91c4-d5ad798b145f" y="660.16" width="1400" height="389.84"/></g></g></svg>