<svg xmlns="http://www.w3.org/2000/svg" xmlns:xlink="http://www.w3.org/1999/xlink" viewBox="0 0 1400.26 1050.18"><defs><style>.a8c1165f-6da4-4ce8-8b43-3388714c30a0{fill:url(#b2076788-ddf8-4f7c-8c39-8e49d3431fe1);}.b56215fc-51af-48e4-9127-fb3d9feb8c94{fill:#006934;}.acc0c869-2af2-4ada-af77-5bcc4946cdf2{fill:#83b866;}.f8f83e20-7c78-4e86-bb42-ff9643af664f{fill:#fff;}.a4cb08fb-9609-4771-ae75-ba9c14ec96c4{fill:#eeebd1;}</style><linearGradient id="b2076788-ddf8-4f7c-8c39-8e49d3431fe1" x1="699.89" y1="-88.91" x2="699.89" y2="674.12" gradientUnits="userSpaceOnUse"><stop offset="0" stop-color="#5ec5f2"/><stop offset="1" stop-color="#cadef3"/></linearGradient></defs><title>背景</title><g id="a80739d9-c3e2-458e-9884-bdd55bde150a" data-name="圖層 2"><g id="b6b9bef7-afb7-477a-b872-69289c9e04e1" data-name="圖層 1"><rect class="a8c1165f-6da4-4ce8-8b43-3388714c30a0" width="1399.77" height="601.29"/><path class="b56215fc-51af-48e4-9127-fb3d9feb8c94" d="M189.87,657.92a144.86,144.86,0,0,1,21.2-6.52c2.8-.61,9.55-3,11.33,1.29,1.47,3.5-2.8,12-4.22,14.79a1.74,1.74,0,0,0,.9,2.44c4.66,1.47,9.69,1.23,14.49,1.25v-3.32c-.46,0-.92.06-1.38.09-1.92.1-1.93,3.42,0,3.31l13.56-.72c.67,0,4.07-.7,4.52-.24,1.38,1.41-.81,5.11-1.35,6.36-2.15,4.93-6.62,9.14-10.38,12.63-1.48,1.37.65,3.71,2.12,2.35,3.61-3.35,17.45-16.72,13.59-23-2-3.23-8.14-1.39-10.82-1.25l-11.24.61v3.31c.46,0,.92,0,1.38-.08,1.89-.19,2-3.31,0-3.32-4.53,0-9.3.25-13.69-1.13l.89,2.43c2.18-4.26,8.37-18.2,2.55-22.17-2.88-2-8.59.29-11.5.9a145.4,145.4,0,0,0-22.75,6.84c-1.81.7-1,3.91.8,3.2Z"/><path class="b56215fc-51af-48e4-9127-fb3d9feb8c94" d="M632.22,640.29a129.89,129.89,0,0,1,17.54-5.47c2.75-.63,8.6-2.92,10.49.71,1.45,2.79-2.53,10.55-3.64,12.75a1.75,1.75,0,0,0,.9,2.44c4.07,1.23,8.41,1.11,12.59,1.09l-.76-3.09c.14-.28,0-.33-.4-.15-1.93.1-1.94,3.42,0,3.32l12.2-.66c4.81-.25,3.94,1.38,1.83,5.63-2,4-5.5,7.4-8.63,10.32-1.47,1.39.66,3.72,2.12,2.35,3-2.78,15-14.44,11.93-20.17-2.32-4.27-15.79-1-19.45-.79v3.32a4.18,4.18,0,0,0,1.92-.3,1.71,1.71,0,0,0-.76-3.1c-3.91,0-8,.17-11.79-1l.89,2.43c2.18-4.33,7.21-15.69,2-19.68-2.17-1.67-7,.25-9.27.71a127.13,127.13,0,0,0-20.52,6.11c-1.82.7-1,3.91.79,3.2Z"/><path class="b56215fc-51af-48e4-9127-fb3d9feb8c94" d="M692.92,848.15a130.2,130.2,0,0,1,17.53-5.47c2.75-.63,8.6-2.92,10.49.71,1.46,2.79-2.53,10.54-3.63,12.75a1.72,1.72,0,0,0,.89,2.43c4.07,1.23,8.41,1.12,12.59,1.1l-.75-3.09c.13-.28,0-.33-.41-.15-1.92.1-1.93,3.42,0,3.32l12.21-.66c4.8-.26,3.93,1.38,1.82,5.63-2,4-5.5,7.4-8.63,10.32-1.47,1.38.66,3.72,2.13,2.35,3-2.79,15-14.45,11.92-20.17-2.31-4.28-15.79-1-19.45-.79v3.32a4.05,4.05,0,0,0,1.92-.31,1.71,1.71,0,0,0-.76-3.09c-3.91,0-8,.17-11.79-1l.9,2.44c2.17-4.33,7.2-15.69,2-19.68-2.17-1.67-7,.25-9.27.71A126.12,126.12,0,0,0,692.12,845c-1.81.7-1,3.9.8,3.2Z"/><path class="b56215fc-51af-48e4-9127-fb3d9feb8c94" d="M406.4,943.91a100.09,100.09,0,0,1,12.75-4c1.82-.43,4.34-1.52,6.13-.45q3-.26,1.38,2.91a15.72,15.72,0,0,1-2.29,7,1.75,1.75,0,0,0,.9,2.44c3.16.9,6.39.74,9.62.85V949.3l-.91.05c-1.92.1-1.93,3.42,0,3.32l8.53-.46c2.93-.16,3.51-1.37,2.37,2.48-1,3.29-4.83,6.65-7.08,8.81-1.46,1.4.67,3.74,2.12,2.35,3.75-3.6,8.51-8.59,9.29-14.3a1.88,1.88,0,0,0-.69-1.88c-3.33-2.68-10.59-.53-14.54-.32v3.32l.91,0c1.92-.12,1.94-3.26,0-3.32-3-.1-5.91.1-8.82-.73L427,951c1.79-3.68,5.45-11.78,1.54-15.27-1.29-1.16-4.59-.17-5.81,0a97,97,0,0,0-17.08,4.92c-1.82.69-1,3.9.79,3.2Z"/><path class="b56215fc-51af-48e4-9127-fb3d9feb8c94" d="M956.37,975.39a160.46,160.46,0,0,1,22.58-7c3.35-.75,11.07-3.76,13.19,1.42,1.59,3.9-3.06,13.17-4.63,16.25a1.73,1.73,0,0,0,.89,2.44c5.1,1.64,10.57,1.31,15.83,1.37v-3.32c-.5,0-1,.06-1.5.09-1.92.1-1.93,3.42,0,3.32l15.2-.82c.74,0,4-.72,4.55-.24,2.24,2-.71,6.12-1.72,7.79a59.39,59.39,0,0,1-11,13.25c-1.49,1.37.64,3.71,2.12,2.35,3.78-3.49,19-18.3,14.86-25-2.07-3.33-8.33-1.5-11.15-1.35l-12.86.69V990l1.5-.09c1.9-.16,1.95-3.29,0-3.32-5-.06-10.21.3-15-1.25l.9,2.44c2.37-4.64,9.33-20.11,2.67-24.19-3.1-1.89-10.13.67-13.08,1.3a159,159,0,0,0-24.12,7.33c-1.81.7-1,3.91.8,3.2Z"/><path class="b56215fc-51af-48e4-9127-fb3d9feb8c94" d="M1291.38,952.17a159.19,159.19,0,0,1,22.58-7c3.35-.75,11.07-3.76,13.19,1.42,1.59,3.9-3.06,13.17-4.63,16.26a1.73,1.73,0,0,0,.89,2.44c5.1,1.63,10.57,1.3,15.83,1.36v-3.32c-.5,0-1,.07-1.5.09-1.92.11-1.94,3.43,0,3.32l15.2-.81c.74,0,4-.73,4.55-.25,2.24,2-.72,6.12-1.72,7.79a59.45,59.45,0,0,1-11,13.26c-1.49,1.37.64,3.7,2.12,2.34,3.78-3.48,19-18.29,14.86-25-2.07-3.33-8.33-1.5-11.15-1.35l-12.86.69v3.32c.5,0,1,0,1.5-.09,1.9-.16,2-3.29,0-3.32-5-.06-10.21.3-15-1.25l.9,2.44c2.37-4.63,9.33-20.11,2.67-24.18-3.1-1.9-10.13.66-13.08,1.29a157.62,157.62,0,0,0-24.12,7.34c-1.81.7-1,3.9.8,3.2Z"/><path class="b56215fc-51af-48e4-9127-fb3d9feb8c94" d="M134.85,901.11a159.15,159.15,0,0,1,22.58-7c3.35-.75,11.07-3.76,13.19,1.41,1.59,3.9-3.06,13.17-4.64,16.26a1.74,1.74,0,0,0,.9,2.44c5.1,1.64,10.57,1.3,15.83,1.37v-3.32c-.5,0-1,.06-1.5.09-1.93.1-1.94,3.42,0,3.32l15.2-.82c.74,0,4-.72,4.55-.24,2.24,2-.72,6.11-1.72,7.79a59.66,59.66,0,0,1-11,13.25c-1.48,1.37.65,3.71,2.12,2.35,3.79-3.49,19-18.3,14.87-25-2.07-3.33-8.33-1.5-11.15-1.35l-12.86.69v3.32l1.5-.09c1.9-.16,1.95-3.3,0-3.32-5-.06-10.21.3-15-1.25l.89,2.44c2.37-4.64,9.34-20.12,2.68-24.19-3.1-1.89-10.13.67-13.08,1.29a159.54,159.54,0,0,0-24.12,7.34c-1.81.7-1,3.91.8,3.2Z"/><path class="b56215fc-51af-48e4-9127-fb3d9feb8c94" d="M1165.32,620.4a127.6,127.6,0,0,1,17.26-5.38c2.69-.62,8.43-2.87,10.29.67,1.43,2.73-2.5,10.37-3.58,12.53a1.75,1.75,0,0,0,.9,2.44c4,1.21,8.27,1.1,12.39,1.08l-.75-3.1q.23-.4-.39-.15c-1.92.1-1.93,3.42,0,3.32l12-.64c4.72-.26,3.85,1.32,1.77,5.49-2,4-5.4,7.27-8.48,10.15-1.48,1.38.65,3.72,2.12,2.35,2.94-2.75,14.81-14.23,11.74-19.88-2.29-4.22-15.54-1-19.16-.79v3.32a4,4,0,0,0,1.9-.3,1.71,1.71,0,0,0-.76-3.09c-3.84,0-7.86.17-11.59-1l.89,2.43c2.15-4.28,7.1-15.46,2-19.4-2.15-1.65-6.89.24-9.14.7a124.05,124.05,0,0,0-20.19,6c-1.82.7-1,3.9.79,3.2Z"/><path class="b56215fc-51af-48e4-9127-fb3d9feb8c94" d="M1117.84,791.43A127.65,127.65,0,0,1,1135.1,786c2.69-.61,8.43-2.87,10.29.68,1.43,2.72-2.5,10.37-3.58,12.52a1.75,1.75,0,0,0,.9,2.44c4,1.21,8.28,1.1,12.4,1.08l-.76-3.09q.23-.42-.39-.15c-1.92.1-1.93,3.42,0,3.32l12-.65c4.72-.25,3.85,1.33,1.77,5.5-2,4-5.4,7.27-8.48,10.15-1.48,1.38.65,3.72,2.12,2.35,2.94-2.76,14.81-14.23,11.74-19.89-2.29-4.22-15.54-1-19.16-.78v3.32a4.09,4.09,0,0,0,1.9-.3,1.72,1.72,0,0,0-.75-3.1c-3.85,0-7.87.17-11.6-1l.89,2.44c2.15-4.28,7.1-15.46,2-19.4-2.15-1.65-6.89.24-9.14.69a125.09,125.09,0,0,0-20.19,6c-1.82.69-1,3.9.79,3.2Z"/><path class="acc0c869-2af2-4ada-af77-5bcc4946cdf2" d="M1400.26,1050.18V461.54c-161.55,42-333.32,26.82-499.38,4.51-178.53-24-359.15-55.63-537.57-30.83C237.88,452.66,117.85,497.51,0,544.93v505.25Z"/><path class="b56215fc-51af-48e4-9127-fb3d9feb8c94" d="M33.87,550.82c82.91-26.75,165.67-57.22,250.35-76.43,82.16-18.65,166.2-25.67,250-24.45a1423.36,1423.36,0,0,1,143.19,9.66c6.5.75,11.94-6.65,12-13.28.07-7.8-5.58-12.54-12-13.28-84.54-9.8-169.8-12.94-254.63-6.13-86,6.9-169.41,25.69-252.1,52.12-47.76,15.27-95.46,30.78-143.19,46.18-14.8,4.78-8.5,30.41,6.38,25.61Z"/><path class="b56215fc-51af-48e4-9127-fb3d9feb8c94" d="M887.15,484.14c131,6.32,262.51,10.59,393.32-2.08q55-5.32,109.55-14.87c6.45-1.14,9.9-10,8.38-16.34-1.8-7.56-8.39-10.39-14.76-9.27C1256.14,464,1126.54,466,997.75,462.1c-36.88-1.12-73.74-2.74-110.6-4.52-15.44-.75-15.41,25.81,0,26.56Z"/><ellipse class="f8f83e20-7c78-4e86-bb42-ff9643af664f" cx="224.14" cy="170.25" rx="120.47" ry="67.26"/><ellipse class="f8f83e20-7c78-4e86-bb42-ff9643af664f" cx="1109.35" cy="142.87" rx="120.47" ry="67.26"/><ellipse class="f8f83e20-7c78-4e86-bb42-ff9643af664f" cx="707.7" cy="222.79" rx="112.31" ry="60.55"/><path class="f8f83e20-7c78-4e86-bb42-ff9643af664f" d="M122.39,735.78c74.48,111.29,211.5,150.41,339.43,148.31,71-1.17,139.72-16.25,208-34.59C734.91,832,800.5,811.83,868,805.9c62-5.46,136.59-2.13,181.72,44.44,18.59,19.19,48.84-9.33,30.16-28.6-42.53-43.89-105.17-58.12-164.34-59.07-68.82-1.11-136.45,14.46-202.53,32.1-66.66,17.8-133.3,38-202.21,45.11-64.15,6.57-131.27,3.09-193.34-15.15-62.39-18.33-121.83-54-158.54-108.85-6.24-9.32-17.7-14-28.2-8.3-9.18,5-14.58,18.82-8.31,28.2Z"/><path class="a4cb08fb-9609-4771-ae75-ba9c14ec96c4" d="M341.76,558.65c12.75,50.35,27.88,103.76,64.85,142.18,41.71,43.33,103.75,52.39,161.1,46.23,32.77-3.52,64.93-10.83,97.57-15.15A419.35,419.35,0,0,1,740,729.14c48,2.27,95.85,11.64,141.92,30A316.26,316.26,0,0,1,916.4,775.8q8.52,4.79,16.7,10.16,4.26,2.81,8.41,5.78l2.73,2c.57.42,4,3,2,1.52,9.6,7.53,17.42,16.59,26.42,24.69,5.34,4.82,11.91,7.07,18.88,8.16,2.22.34,4.46.55,6.67,1a26.39,26.39,0,0,0,3,.62c3.4.23-3.27-1.39-4.31-2.68l-5.35-9.17-.37-3.76c.59,11.21,9.14,20.78,20.79,20.78,10.8,0,21.37-9.52,20.78-20.78-.79-15.11-12-23.34-25.93-25.47-2-.3-3.94-.51-5.89-.85-2.66-.47-5.89-2.3-2.1.15,4.7,3,.64-.07-1.24-2q-3.37-3.55-6.93-7a268.71,268.71,0,0,0-59.42-42.35c-46-24.51-97-38.24-148.45-45.07a491.12,491.12,0,0,0-71.59-4.4c-30.2.44-60,4.84-89.72,10-53.56,9.29-115.68,21.6-164.91-8.8-22.54-13.93-37.53-35.83-49.12-60.64-11.22-24-18.79-53.06-25.62-80-6.56-25.91-46.65-14.93-40.08,11Z"/><path class="a4cb08fb-9609-4771-ae75-ba9c14ec96c4" d="M790.25,498.8c5,29.4,36.71,48.12,60,62.41,24.17,14.84,49.72,27.38,73.35,43.11,42.41,28.21,69.31,69.2,76.08,119.59,1.34,9.9,1.6,26,.51,38.22-1,11.56-4.66,26.6-9.34,39.49-3.83,10.55,4.3,22.76,14.52,25.57,11.55,3.17,21.72-3.93,25.56-14.52,18.8-51.86,13.69-110-9.74-159.46a193.22,193.22,0,0,0-48.42-63.57c-23-19.67-49.19-34.37-75.4-49.12-14.36-8.08-28.68-16.27-42.24-25.63a136.51,136.51,0,0,1-15.77-12.24c-5.62-5.24-7.91-8.36-9-14.9-1.88-11.07-15.53-17.28-25.57-14.52-11.72,3.23-16.4,14.46-14.51,25.57Z"/><path class="f8f83e20-7c78-4e86-bb42-ff9643af664f" d="M1101.45,450.56c-26.83,49.3-29.62,105.7-30.21,160.62-.3,28.15.06,56.76-4.29,84.65-2,12.85-5.59,25.36-7.64,38.2-1.86,11.73-3,23.55-4.47,35.33-.31,2.48,0,.42,0-.07-.2,1.43-.42,2.86-.65,4.28-.45,2.77-1,5.53-1.56,8.27s-1.26,5.26-2.07,7.85c-.36,1.16-3.09,7.4-1.45,4.15-1.17,2.31-2.43,4.49-3.81,6.67-.11.17-2,2.57-.69,1s-1.36,1.32-1.61,1.56c-1,.91-1.91,1.87-3,2.72-2.58,2.1,2.11-1.38-.85.48a70.37,70.37,0,0,1-9.1,4.78c-10.27,4.53-12.67,19.52-7.46,28.43,6.19,10.58,18.13,12,28.44,7.46,21.5-9.5,35.24-28.6,40.92-51,5.57-22,5.21-43.49,9.87-63.79,6.9-30.08,9.81-60.39,10.51-91.21.64-28.6.08-57.24,2.48-85.77,2.44-28.88,8.51-57.94,22.46-83.58,12.79-23.5-23.09-44.5-35.89-21Z"/><path class="f8f83e20-7c78-4e86-bb42-ff9643af664f" d="M1244.16,548.72c12.33,43.67-20.32,87.31-45.06,120.83-28,37.92-59,73.57-85.56,112.51-15.15,22.18-28.68,45.41-39.26,70.13-4.42,10.31-3.08,22.27,7.45,28.43,8.75,5.12,24,2.92,28.43-7.45,19.12-44.66,47.93-83.92,77.78-121.91,30.82-39.21,66.28-78.55,86.42-124.69,12.33-28.24,18.43-58.62,9.88-88.9-7.25-25.7-47.37-14.78-40.08,11.05Z"/><path class="f8f83e20-7c78-4e86-bb42-ff9643af664f" d="M534.11,511.28c31.33,73.57,121.81,72.84,188.77,82,33.34,4.53,67.26,11.54,96.84,28.21,25,14.07,46.82,34.13,64.23,56.81,21.76,28.37,37.72,60.64,48.64,94.28,3.47,10.67,14.39,17.59,25.57,14.51,10.47-2.87,18-14.84,14.51-25.56-20.64-63.56-57-122.85-111.46-162.69C833.07,578.23,800,565.63,766,558.58c-36.54-7.59-73.88-9.4-110.67-15.32-18.93-3-38.09-7.29-54.66-17.33A74.28,74.28,0,0,1,570,490.31c-4.4-10.33-19.62-12.62-28.44-7.46-10.68,6.25-11.87,18.06-7.45,28.43Z"/><path class="f8f83e20-7c78-4e86-bb42-ff9643af664f" d="M808.7,814.43s140.62-26.32,87.73,235.75h248.5s-58.73-139.37,42.13-299.47C1187.06,750.71,857.41,740.44,808.7,814.43Z"/></g></g></svg>