<svg xmlns="http://www.w3.org/2000/svg" viewBox="0 0 156.99 332.85"><defs><style>.abf62773-05e6-4d0a-a64c-600d306a3b0e{fill:#f5e078;}.a7ffa34a-dc64-4746-9ef3-b9b1f8f1c077{fill:#4196c4;}.b52f2ac8-4f1b-4bc5-8ebf-0bdccd78b875{fill:#b1dee9;}.eed9d9bb-6781-40f2-87c2-599af7d329cf{fill:#40220f;}.a5a25b24-2b73-44f5-8183-8a402f13ca21{fill:#fff;}.bf777980-0b60-440f-a316-6de810ba9b0f{fill:#338a5a;}.a8fa067a-e6f5-4809-9834-6be324ec8058{fill:#335030;}.f07a6b9d-b76a-4e34-bcae-37b07fa0bbb5{fill:#b28247;}.b31fb516-f878-4a6c-9298-7c7bbdc5f87d{fill:#956134;}.bdafaf70-5fcb-4dfd-ad1f-d51e631447c2{fill:#7f4f21;}.a1a1bf5f-8cd5-43c1-b98a-5f08f89c5873{fill:#eeb56b;}.ba9024f3-0f99-4d63-ae7a-57b6e71ee2bd{fill:#d1ecfb;}</style></defs><title>藍</title><g id="b615ce27-558b-458b-8dea-48453080473f" data-name="圖層 2"><g id="f218ed53-b3d1-449e-bb76-1461d57262de" data-name="圖層 1"><rect class="abf62773-05e6-4d0a-a64c-600d306a3b0e" x="25.84" y="146.43" width="105.3" height="178.48" rx="6.53"/><path class="a7ffa34a-dc64-4746-9ef3-b9b1f8f1c077" d="M74,4.16,7.33,148.68a5,5,0,0,0,4.54,7.09H145.11a5,5,0,0,0,4.55-7.09L83,4.16A5,5,0,0,0,74,4.16Z"/><rect class="b52f2ac8-4f1b-4bc5-8ebf-0bdccd78b875" x="66.32" y="160.76" width="24.19" height="49.88" rx="3.64"/><path class="eed9d9bb-6781-40f2-87c2-599af7d329cf" d="M84.46,211.59H72.36a7,7,0,0,1-7-7V166.81a7,7,0,0,1,7-7h12.1a7,7,0,0,1,7,7v37.78A7,7,0,0,1,84.46,211.59Zm-12.1-49.88a5.1,5.1,0,0,0-5.09,5.1v37.78a5.1,5.1,0,0,0,5.09,5.1h12.1a5.11,5.11,0,0,0,5.1-5.1V166.81a5.11,5.11,0,0,0-5.1-5.1Z"/><rect class="eed9d9bb-6781-40f2-87c2-599af7d329cf" x="77.46" y="161.29" width="1.9" height="49.35"/><rect class="eed9d9bb-6781-40f2-87c2-599af7d329cf" x="66.32" y="185.01" width="24.19" height="1.9"/><path class="a5a25b24-2b73-44f5-8183-8a402f13ca21" d="M72.3,163.67c-4.37,2.59-3.77,8-4,12.43-.08,1.53,2.3,1.52,2.38,0,.19-3.39-.52-8.38,2.84-10.37a1.19,1.19,0,0,0-1.2-2.06Z"/><path class="a5a25b24-2b73-44f5-8183-8a402f13ca21" d="M68.47,191.59c-.08,3.67-.64,7.7-.15,11.35a5.24,5.24,0,0,0,4.23,4.71c1.49.34,2.13-2,.63-2.3-3.26-.76-2.53-4.35-2.48-6.86l.14-6.9a1.19,1.19,0,0,0-2.37,0Z"/><rect class="b52f2ac8-4f1b-4bc5-8ebf-0bdccd78b875" x="66.48" y="221.55" width="24.19" height="49.88" rx="3.64"/><path class="eed9d9bb-6781-40f2-87c2-599af7d329cf" d="M84.62,272.38H72.53a7,7,0,0,1-7-7V227.6a7,7,0,0,1,7-7H84.62a7,7,0,0,1,7,7v37.77A7,7,0,0,1,84.62,272.38ZM72.53,222.5a5.1,5.1,0,0,0-5.1,5.1v37.77a5.1,5.1,0,0,0,5.1,5.1H84.62a5.11,5.11,0,0,0,5.1-5.1V227.6a5.11,5.11,0,0,0-5.1-5.1Z"/><rect class="eed9d9bb-6781-40f2-87c2-599af7d329cf" x="77.62" y="222.08" width="1.9" height="49.35"/><rect class="eed9d9bb-6781-40f2-87c2-599af7d329cf" x="66.48" y="245.8" width="24.19" height="1.9"/><path class="a5a25b24-2b73-44f5-8183-8a402f13ca21" d="M72.46,224.46c-4.37,2.59-3.77,8-4,12.42-.08,1.53,2.3,1.53,2.38,0,.19-3.39-.52-8.37,2.85-10.36a1.2,1.2,0,0,0-1.21-2.06Z"/><path class="a5a25b24-2b73-44f5-8183-8a402f13ca21" d="M68.63,252.38c-.08,3.67-.63,7.7-.15,11.34a5.22,5.22,0,0,0,4.23,4.71c1.49.35,2.13-1.94.64-2.29-3.27-.76-2.54-4.35-2.49-6.87l.15-6.89a1.19,1.19,0,0,0-2.38,0Z"/><path class="bf777980-0b60-440f-a316-6de810ba9b0f" d="M78.49,325.23h0c-9.62,0-17.49.6-17.49-6.35V300.61C61,293.67,68.87,288,78.49,288h0c9.63,0,17.5,5.68,17.5,12.62v18.27C96,325.83,88.12,325.23,78.49,325.23Z"/><path class="a8fa067a-e6f5-4809-9834-6be324ec8058" d="M82.56,325.72H76.38c-6.3,0-11.7.06-14.27-2.5a5.79,5.79,0,0,1-1.59-4.33V300.61c0-7.22,8.06-13.1,18-13.1s18,5.88,18,13.1v18.27a5.79,5.79,0,0,1-1.59,4.33C92.58,325.5,88,325.72,82.56,325.72Zm-4.07-1h2.13c6.07,0,11.3.05,13.59-2.23a4.87,4.87,0,0,0,1.3-3.65V300.61c0-6.7-7.63-12.15-17-12.15s-17,5.45-17,12.15v18.27a4.87,4.87,0,0,0,1.31,3.65c2.29,2.28,7.53,2.27,13.59,2.23Z"/><rect class="a8fa067a-e6f5-4809-9834-6be324ec8058" x="69.16" y="289.74" width="0.95" height="20.22"/><line class="f07a6b9d-b76a-4e34-bcae-37b07fa0bbb5" x1="69.63" y1="310.95" x2="69.63" y2="325.12"/><rect class="a8fa067a-e6f5-4809-9834-6be324ec8058" x="69.16" y="310.95" width="0.95" height="14.17"/><line class="f07a6b9d-b76a-4e34-bcae-37b07fa0bbb5" x1="77.33" y1="287.99" x2="77.33" y2="302.23"/><rect class="a8fa067a-e6f5-4809-9834-6be324ec8058" x="76.85" y="287.99" width="0.95" height="14.25"/><line class="f07a6b9d-b76a-4e34-bcae-37b07fa0bbb5" x1="77.33" y1="306.89" x2="77.33" y2="325.19"/><rect class="a8fa067a-e6f5-4809-9834-6be324ec8058" x="76.85" y="306.89" width="0.95" height="18.31"/><line class="f07a6b9d-b76a-4e34-bcae-37b07fa0bbb5" x1="85.75" y1="289.14" x2="85.75" y2="298.37"/><rect class="a8fa067a-e6f5-4809-9834-6be324ec8058" x="85.27" y="289.14" width="0.95" height="9.23"/><line class="f07a6b9d-b76a-4e34-bcae-37b07fa0bbb5" x1="85.75" y1="303.42" x2="85.75" y2="325.12"/><rect class="a8fa067a-e6f5-4809-9834-6be324ec8058" x="85.27" y="303.42" width="0.95" height="21.7"/><ellipse class="b31fb516-f878-4a6c-9298-7c7bbdc5f87d" cx="92.17" cy="307.36" rx="2.22" ry="1.6"/><path class="bdafaf70-5fcb-4dfd-ad1f-d51e631447c2" d="M92.17,309.21c-1.36,0-2.47-.83-2.47-1.85s1.11-1.84,2.47-1.84,2.46.83,2.46,1.84S93.52,309.21,92.17,309.21Zm0-3.21c-1.1,0-2,.61-2,1.36s.89,1.37,2,1.37,2-.61,2-1.37S93.26,306,92.17,306Z"/><path class="a1a1bf5f-8cd5-43c1-b98a-5f08f89c5873" d="M36.48,169.59V207c0,3.06,4.76,3.06,4.76,0V169.59c0-3.06-4.76-3.07-4.76,0Z"/><path class="a1a1bf5f-8cd5-43c1-b98a-5f08f89c5873" d="M120,305.3c.58,4.45.74,14.71-6.67,12.31-2.92-.94-4.17,3.65-1.27,4.59a9.69,9.69,0,0,0,10.62-3.32c2.78-3.74,2.65-9.19,2.07-13.58-.39-3-5.15-3-4.75,0Z"/><path class="ba9024f3-0f99-4d63-ae7a-57b6e71ee2bd" d="M39.74,100.2q-5.35,15.57-12,30.61c-1.23,2.78,2.86,5.2,4.11,2.41q6.93-15.61,12.51-31.75c1-2.9-3.6-4.15-4.59-1.27Z"/><path class="ba9024f3-0f99-4d63-ae7a-57b6e71ee2bd" d="M83.94,31.46A258.16,258.16,0,0,1,95.42,58.25c1,2.86,5.64,1.63,4.59-1.26A267.5,267.5,0,0,0,88,29.06c-1.36-2.74-5.46-.33-4.1,2.4Z"/><path class="ba9024f3-0f99-4d63-ae7a-57b6e71ee2bd" d="M134.35,142.72c3.45,5.3-8.71,4.72-11.31,4.08-3-.72-4.24,3.86-1.27,4.59,4.63,1.14,9.84,1.08,14.17-1.1s5.1-6,2.52-10c-1.66-2.55-5.79-.17-4.11,2.41Z"/><path class="eed9d9bb-6781-40f2-87c2-599af7d329cf" d="M78.49,7.61c3.41,0,6.81,1.47,8.17,4.42L148.87,147c2,4.3-2.2,8.8-8.17,8.8H131a8.51,8.51,0,0,1,.15,1.52V314.06c0,6-6.36,10.85-14.22,10.85H89.4a52,52,0,0,1-6.92.33h-8a51.94,51.94,0,0,1-6.91-.33H40.06c-7.85,0-14.22-4.85-14.22-10.85V157.29a8.52,8.52,0,0,1,.16-1.52H16.29c-6,0-10.15-4.5-8.17-8.8L70.32,12c1.36-2.95,4.77-4.42,8.17-4.42m0-7.61C71.7,0,65.93,3.39,63.41,8.84L1.21,143.78a12.66,12.66,0,0,0,.88,12.37c2.85,4.46,8.29,7.23,14.2,7.23h1.94V314.06c0,10.36,9.59,18.47,21.83,18.47h27a63.53,63.53,0,0,0,7.4.32h8a63.81,63.81,0,0,0,7.41-.32h27c12.25,0,21.84-8.11,21.84-18.47V163.38h1.94c5.9,0,11.34-2.77,14.2-7.23a12.71,12.71,0,0,0,.88-12.37L93.58,8.84C91.06,3.39,85.28,0,78.49,0Z"/></g></g></svg>