<svg xmlns="http://www.w3.org/2000/svg" viewBox="0 0 221.92 403.38"><defs><style>.a1c189e9-d843-431f-8495-eaaaeebe8f35{fill:#f8e7c0;}.a0a626ad-aac7-4ae7-be57-bf464d37b39f{fill:#b1dee9;}.a484ca6b-8cca-4ec1-a6d4-4702c5e894c7{fill:#40220f;}.ec5e9e6b-aba9-4cab-9e31-3bc7fb21d9e9{fill:#fff;}.a17c5325-42cc-4268-a90a-c6c95176dab7{fill:#f6c79b;}.a1f1468f-485a-48fb-be1e-4d6a413b78f3{fill:#ad5b98;}.fb7f8506-ae26-421e-92e6-d03eb71493b8{fill:#575673;}.a9f194ea-fd79-4a51-889d-3dd203bcd91c{fill:#753977;}.e931115c-480c-492a-8460-88c86b960729{fill:#b28247;}.abb2f2ec-514d-4143-aba2-554b80135dc6{fill:#956134;}.e42aa8a4-90d3-4305-8b8f-c028734292fb{fill:#7f4f21;}.ba865c3e-6722-43ba-8e9e-1b630c0aa08d{fill:#006934;}.b2034948-e01d-45fc-b534-0c2102c0ddca{fill:#e6c9b2;}.b5b3ab91-3dc4-4a61-b506-d4f7343801cf{fill:#c0d4b0;}.ae8531ad-7c74-4c70-80aa-b1de8bd7ee75{fill:#5a6d5a;}.e077399b-72d9-4722-81c0-d1bceda4e43e{fill:#fff352;}.e80ea84d-2e7b-4608-9732-4fdee47a9f08{fill:#fbe2ed;}.eaf92c50-b402-474d-96f4-704d23bb26ec{fill:#f2998b;}</style></defs><title>綠</title><g id="bb0c9c91-c83d-4ff2-b592-a90a493aa5b4" data-name="圖層 2"><g id="e9c8f181-52f5-454a-9615-2b85ccbe62f0" data-name="圖層 1"><rect class="a1c189e9-d843-431f-8495-eaaaeebe8f35" x="21.06" y="77.65" width="170.93" height="299.74" rx="6.33"/><rect class="a0a626ad-aac7-4ae7-be57-bf464d37b39f" x="37.73" y="128.24" width="33.31" height="99.28" rx="2.43"/><path class="a484ca6b-8cca-4ec1-a6d4-4702c5e894c7" d="M67,228.47H41.76a5,5,0,0,1-5-5V132.28a5,5,0,0,1,5-5H67a5,5,0,0,1,5,5v91.21A5,5,0,0,1,67,228.47ZM41.76,129.19a3.09,3.09,0,0,0-3.09,3.09v91.21a3.1,3.1,0,0,0,3.09,3.09H67a3.09,3.09,0,0,0,3.08-3.09V132.28A3.08,3.08,0,0,0,67,129.19Z"/><rect class="a484ca6b-8cca-4ec1-a6d4-4702c5e894c7" x="37.73" y="176.94" width="33.31" height="1.9"/><rect class="a484ca6b-8cca-4ec1-a6d4-4702c5e894c7" x="53.43" y="128.24" width="1.9" height="99.28"/><path class="ec5e9e6b-aba9-4cab-9e31-3bc7fb21d9e9" d="M43,135.76c-2.6,5.82-2.59,11.66-2.15,17.93.11,1.52,2.48,1.53,2.37,0-.4-5.78-.58-11.34,1.82-16.73.62-1.38-1.42-2.59-2-1.2Z"/><path class="ec5e9e6b-aba9-4cab-9e31-3bc7fb21d9e9" d="M41.41,190c.09,7.45-.11,15,.28,22.42.19,3.76.55,5.86,4.3,7.15,1.45.49,2.07-1.79.63-2.29-3.9-1.34-2.65-11.85-2.69-14.95L43.78,190a1.19,1.19,0,0,0-2.37,0Z"/><rect class="a0a626ad-aac7-4ae7-be57-bf464d37b39f" x="89.87" y="128.24" width="33.31" height="99.28" rx="2.43"/><path class="a484ca6b-8cca-4ec1-a6d4-4702c5e894c7" d="M119.15,228.47H93.91a5,5,0,0,1-5-5V132.28a5,5,0,0,1,5-5h25.24a5,5,0,0,1,5,5v91.21A5,5,0,0,1,119.15,228.47ZM93.91,129.19a3.09,3.09,0,0,0-3.09,3.09v91.21a3.09,3.09,0,0,0,3.09,3.09h25.24a3.09,3.09,0,0,0,3.08-3.09V132.28a3.08,3.08,0,0,0-3.08-3.09Z"/><rect class="a484ca6b-8cca-4ec1-a6d4-4702c5e894c7" x="89.87" y="176.94" width="33.31" height="1.9"/><rect class="a484ca6b-8cca-4ec1-a6d4-4702c5e894c7" x="105.58" y="128.24" width="1.9" height="99.28"/><path class="ec5e9e6b-aba9-4cab-9e31-3bc7fb21d9e9" d="M95.15,135.76c-2.59,5.82-2.58,11.66-2.14,17.93.1,1.52,2.48,1.53,2.37,0C95,147.91,94.8,142.35,97.2,137c.61-1.38-1.43-2.59-2-1.2Z"/><path class="ec5e9e6b-aba9-4cab-9e31-3bc7fb21d9e9" d="M93.56,190c.09,7.45-.11,15,.27,22.42.2,3.76.55,5.86,4.31,7.15,1.45.49,2.07-1.79.63-2.29-3.91-1.34-2.65-11.85-2.69-14.95L95.93,190a1.19,1.19,0,0,0-2.37,0Z"/><rect class="a0a626ad-aac7-4ae7-be57-bf464d37b39f" x="142.02" y="128.24" width="33.31" height="99.28" rx="2.43"/><path class="a484ca6b-8cca-4ec1-a6d4-4702c5e894c7" d="M171.3,228.47H146.05a5,5,0,0,1-5-5V132.28a5,5,0,0,1,5-5H171.3a5,5,0,0,1,5,5v91.21A5,5,0,0,1,171.3,228.47Zm-25.25-99.28a3.08,3.08,0,0,0-3.08,3.09v91.21a3.09,3.09,0,0,0,3.08,3.09H171.3a3.09,3.09,0,0,0,3.08-3.09V132.28a3.08,3.08,0,0,0-3.08-3.09Z"/><rect class="a484ca6b-8cca-4ec1-a6d4-4702c5e894c7" x="142.02" y="176.94" width="33.31" height="1.9"/><rect class="a484ca6b-8cca-4ec1-a6d4-4702c5e894c7" x="157.73" y="128.24" width="1.9" height="99.28"/><path class="ec5e9e6b-aba9-4cab-9e31-3bc7fb21d9e9" d="M147.3,135.76c-2.6,5.82-2.59,11.66-2.15,17.93.11,1.52,2.48,1.53,2.37,0-.4-5.78-.58-11.34,1.82-16.73.62-1.38-1.42-2.59-2-1.2Z"/><path class="ec5e9e6b-aba9-4cab-9e31-3bc7fb21d9e9" d="M145.7,190c.09,7.45-.11,15,.28,22.42.19,3.76.55,5.86,4.31,7.15,1.44.49,2.06-1.79.63-2.29-3.91-1.34-2.66-11.85-2.69-14.95L148.07,190a1.19,1.19,0,0,0-2.37,0Z"/><path class="a17c5325-42cc-4268-a90a-c6c95176dab7" d="M39.38,256.65c3,0,3-4.74,0-4.74s-3.06,4.74,0,4.74Z"/><path class="a17c5325-42cc-4268-a90a-c6c95176dab7" d="M40.15,285.08c3.05,0,3.05-4.74,0-4.74s-3.06,4.74,0,4.74Z"/><path class="a17c5325-42cc-4268-a90a-c6c95176dab7" d="M70.64,264.53c3,0,3-4.75,0-4.75s-3.06,4.75,0,4.75Z"/><path class="a17c5325-42cc-4268-a90a-c6c95176dab7" d="M167.76,311.76c3.05,0,3.05-4.74,0-4.74s-3.06,4.74,0,4.74Z"/><path class="a17c5325-42cc-4268-a90a-c6c95176dab7" d="M160.84,326.63c3,0,3-4.74,0-4.74s-3.06,4.74,0,4.74Z"/><path class="a17c5325-42cc-4268-a90a-c6c95176dab7" d="M184.67,316.13c3.05,0,3.05-4.74,0-4.74s-3.06,4.74,0,4.74Z"/><path class="a17c5325-42cc-4268-a90a-c6c95176dab7" d="M177.49,283.77c3,0,3.06-4.74,0-4.74s-3.05,4.74,0,4.74Z"/><path class="a17c5325-42cc-4268-a90a-c6c95176dab7" d="M69.1,362.93c3.05,0,3.06-4.74,0-4.74s-3.06,4.74,0,4.74Z"/><path class="a17c5325-42cc-4268-a90a-c6c95176dab7" d="M80.38,343.69c3.05,0,3.05-4.74,0-4.74s-3.06,4.74,0,4.74Z"/><path class="a17c5325-42cc-4268-a90a-c6c95176dab7" d="M64.23,335.38c3,0,3.06-4.74,0-4.74s-3.05,4.74,0,4.74Z"/><path class="a17c5325-42cc-4268-a90a-c6c95176dab7" d="M55.78,352.44c3,0,3-4.75,0-4.75s-3.06,4.75,0,4.75Z"/><path class="a17c5325-42cc-4268-a90a-c6c95176dab7" d="M65.51,352c3,0,3.06-4.74,0-4.74s-3.05,4.74,0,4.74Z"/><path class="a17c5325-42cc-4268-a90a-c6c95176dab7" d="M173.39,113.4c3.05,0,3.06-4.74,0-4.74s-3,4.74,0,4.74Z"/><path class="a17c5325-42cc-4268-a90a-c6c95176dab7" d="M161.09,118.45c3,0,3.06-4.75,0-4.75s-3.05,4.75,0,4.75Z"/><path class="a17c5325-42cc-4268-a90a-c6c95176dab7" d="M138,256.65c3.05,0,3.06-4.74,0-4.74s-3.06,4.74,0,4.74Z"/><path class="a17c5325-42cc-4268-a90a-c6c95176dab7" d="M129.83,248.34c3,0,3.06-4.74,0-4.74s-3.06,4.74,0,4.74Z"/><path class="a17c5325-42cc-4268-a90a-c6c95176dab7" d="M117.53,263.65c3,0,3.06-4.74,0-4.74s-3,4.74,0,4.74Z"/><path class="a17c5325-42cc-4268-a90a-c6c95176dab7" d="M46.3,122.82c3.05,0,3.05-4.74,0-4.74s-3.06,4.74,0,4.74Z"/><path class="a17c5325-42cc-4268-a90a-c6c95176dab7" d="M34.25,135.5c3,0,3.06-4.74,0-4.74s-3.05,4.74,0,4.74Z"/><path class="a17c5325-42cc-4268-a90a-c6c95176dab7" d="M35.53,120.63c3,0,3.06-4.74,0-4.74s-3.05,4.74,0,4.74Z"/><path class="a17c5325-42cc-4268-a90a-c6c95176dab7" d="M70.89,115.82c3.06,0,3.06-4.74,0-4.74s-3,4.74,0,4.74Z"/><path class="a17c5325-42cc-4268-a90a-c6c95176dab7" d="M81.66,188.42c3,0,3-4.74,0-4.74s-3.06,4.74,0,4.74Z"/><path class="a17c5325-42cc-4268-a90a-c6c95176dab7" d="M171.34,265c3,0,3.06-4.74,0-4.74s-3.05,4.74,0,4.74Z"/><path class="a17c5325-42cc-4268-a90a-c6c95176dab7" d="M151.87,296.45c3,0,3-4.74,0-4.74s-3.06,4.74,0,4.74Z"/><path class="a17c5325-42cc-4268-a90a-c6c95176dab7" d="M140.59,343.25c3,0,3.06-4.74,0-4.74s-3.05,4.74,0,4.74Z"/><path class="a17c5325-42cc-4268-a90a-c6c95176dab7" d="M173.9,360.31c3.06,0,3.06-4.74,0-4.74s-3.05,4.74,0,4.74Z"/><path class="a1f1468f-485a-48fb-be1e-4d6a413b78f3" d="M106.53,377.38h0c-11.28,0-20.5.91-20.5-9.75V339.58c0-10.65,9.22-19.38,20.5-19.38h0c11.27,0,20.5,8.73,20.5,19.38v28.05C127,378.29,117.8,377.38,106.53,377.38Z"/><path class="fb7f8506-ae26-421e-92e6-d03eb71493b8" d="M111.32,377.87h-7.27c-6.92,0-12.88.08-16.07-3.1-1.63-1.62-2.42-3.95-2.42-7.13V339.58c0-10.94,9.4-19.85,21-19.85s21,8.91,21,19.85v28.05c0,3.18-.79,5.51-2.43,7.13C122.24,377.58,117.23,377.87,111.32,377.87Zm-4.79-57.19c-11,0-20,8.48-20,18.9v28.05c0,2.91.71,5,2.15,6.46,2.91,2.9,8.68,2.86,15.39,2.82,1.63,0,3.34,0,5,0,6.68,0,12.47.08,15.39-2.82,1.44-1.43,2.14-3.55,2.14-6.46V339.58C126.55,329.16,117.57,320.68,106.53,320.68Z"/><rect class="a9f194ea-fd79-4a51-889d-3dd203bcd91c" x="95.67" y="322.9" width="0.95" height="31.05"/><line class="e931115c-480c-492a-8460-88c86b960729" x1="96.15" y1="355.46" x2="96.15" y2="377.21"/><rect class="a9f194ea-fd79-4a51-889d-3dd203bcd91c" x="95.67" y="355.46" width="0.95" height="21.75"/><line class="e931115c-480c-492a-8460-88c86b960729" x1="105.16" y1="320.2" x2="105.16" y2="342.08"/><rect class="a9f194ea-fd79-4a51-889d-3dd203bcd91c" x="104.69" y="320.2" width="0.95" height="21.87"/><line class="e931115c-480c-492a-8460-88c86b960729" x1="105.16" y1="349.22" x2="105.16" y2="377.32"/><rect class="a9f194ea-fd79-4a51-889d-3dd203bcd91c" x="104.69" y="349.22" width="0.95" height="28.1"/><line class="e931115c-480c-492a-8460-88c86b960729" x1="115.03" y1="321.97" x2="115.03" y2="336.14"/><rect class="a9f194ea-fd79-4a51-889d-3dd203bcd91c" x="114.56" y="321.97" width="0.95" height="14.17"/><line class="e931115c-480c-492a-8460-88c86b960729" x1="115.03" y1="343.89" x2="115.03" y2="377.21"/><rect class="a9f194ea-fd79-4a51-889d-3dd203bcd91c" x="114.56" y="343.89" width="0.95" height="33.32"/><ellipse class="abb2f2ec-514d-4143-aba2-554b80135dc6" cx="122.55" cy="349.95" rx="2.61" ry="2.46"/><path class="e42aa8a4-90d3-4305-8b8f-c028734292fb" d="M122.55,352.65a2.7,2.7,0,1,1,2.84-2.7A2.77,2.77,0,0,1,122.55,352.65Zm0-4.93a2.23,2.23,0,1,0,2.37,2.23A2.3,2.3,0,0,0,122.55,347.72Z"/><path class="ba865c3e-6722-43ba-8e9e-1b630c0aa08d" d="M98.27,9.31l-86.2,63c-10.93,8-5.28,25.3,8.26,25.3H192.72c13.55,0,19.2-17.31,8.26-25.3l-86.19-63A14,14,0,0,0,98.27,9.31Z"/><ellipse class="a0a626ad-aac7-4ae7-be57-bf464d37b39f" cx="106.53" cy="58.95" rx="18.19" ry="17.2"/><path class="a484ca6b-8cca-4ec1-a6d4-4702c5e894c7" d="M106.53,77.1C96,77.1,87.39,69,87.39,59S96,40.8,106.53,40.8,125.67,48.94,125.67,59,117.08,77.1,106.53,77.1Zm0-34.4C97,42.7,89.28,50,89.28,59S97,75.2,106.53,75.2,123.77,67.91,123.77,59,116,42.7,106.53,42.7Z"/><line class="a0a626ad-aac7-4ae7-be57-bf464d37b39f" x1="88.33" y1="58.95" x2="124.72" y2="58.95"/><rect class="a484ca6b-8cca-4ec1-a6d4-4702c5e894c7" x="88.33" y="58" width="36.39" height="1.9"/><line class="a0a626ad-aac7-4ae7-be57-bf464d37b39f" x1="106.53" y1="41.75" x2="106.53" y2="76.14"/><rect class="a484ca6b-8cca-4ec1-a6d4-4702c5e894c7" x="105.58" y="41.75" width="1.9" height="34.39"/><path class="ec5e9e6b-aba9-4cab-9e31-3bc7fb21d9e9" d="M103,45.6a14.67,14.67,0,0,0-10.21,8.88c-.55,1.42,1.74,2,2.29.63a12.24,12.24,0,0,1,8.55-7.22A1.19,1.19,0,0,0,103,45.6Z"/><path class="ec5e9e6b-aba9-4cab-9e31-3bc7fb21d9e9" d="M93.57,63.43a9.12,9.12,0,0,0,5.35,7.87c1.37.63,2.58-1.42,1.19-2a6.79,6.79,0,0,1-4.17-5.82c-.08-1.52-2.45-1.52-2.37,0Z"/><path class="b2034948-e01d-45fc-b534-0c2102c0ddca" d="M29.79,368.83a2.49,2.49,0,0,1-2.49-2.5v-79a2.49,2.49,0,0,1,5,0v79A2.49,2.49,0,0,1,29.79,368.83Z"/><path class="b2034948-e01d-45fc-b534-0c2102c0ddca" d="M185.59,127a2.5,2.5,0,0,1-2.5-2.49v-19.4H168a2.5,2.5,0,0,1,0-5h17.6a2.5,2.5,0,0,1,2.49,2.5v21.89A2.5,2.5,0,0,1,185.59,127Z"/><path class="b5b3ab91-3dc4-4a61-b506-d4f7343801cf" d="M25.7,76.15a2.49,2.49,0,0,1-1.44-4.52L52.93,51.17a2.5,2.5,0,0,1,2.9,4.07L27.15,75.69A2.49,2.49,0,0,1,25.7,76.15Z"/><path class="b5b3ab91-3dc4-4a61-b506-d4f7343801cf" d="M188.83,77.31c3.45,4.52,1.58,11.17-4.5,11.9-2.62.31-2.66,4.47,0,4.16,8.79-1.06,13.73-10.79,8.09-18.16-1.61-2.09-5.22,0-3.59,2.1Z"/><path class="b5b3ab91-3dc4-4a61-b506-d4f7343801cf" d="M140.5,40.5a64,64,0,0,0,7.45,6c2.2,1.52,4.29-2.08,2.09-3.59a57.47,57.47,0,0,1-6.6-5.34c-2-1.83-4.9,1.11-2.94,2.94Z"/><path class="ae8531ad-7c74-4c70-80aa-b1de8bd7ee75" d="M101.29,17.24c2.21-2.63,6.07-3,8.25,0,1.58,2.13,5.18.06,3.59-2.1-3.64-4.94-10.68-5.66-14.78-.79-1.72,2,1.21,5,2.94,2.94Z"/><path class="ae8531ad-7c74-4c70-80aa-b1de8bd7ee75" d="M148,92.4h16.07c2.67,0,2.68-4.16,0-4.16H148c-2.68,0-2.68,4.16,0,4.16Z"/><path class="a484ca6b-8cca-4ec1-a6d4-4702c5e894c7" d="M106.53,6.65a14.16,14.16,0,0,1,8.36,2.73L200.55,72c11.07,8.09,5.35,25.62-8.36,25.62H192V366.88a10.51,10.51,0,0,1-10.51,10.51H31.58a10.51,10.51,0,0,1-10.52-10.51V97.6h-.19C7.16,97.6,1.43,80.07,12.5,72L98.16,9.38a14.19,14.19,0,0,1,8.37-2.73m0-6.65A20.72,20.72,0,0,0,94.24,4L8.58,66.61a20.87,20.87,0,0,0,5.83,36.66V366.88A17.18,17.18,0,0,0,31.58,384h149.9a17.18,17.18,0,0,0,17.16-17.16V103.27a20.87,20.87,0,0,0,5.84-36.66L118.82,4a20.74,20.74,0,0,0-12.29-4Z"/><ellipse class="e077399b-72d9-4722-81c0-d1bceda4e43e" cx="191.99" cy="376.58" rx="29.93" ry="26.8"/><path class="e80ea84d-2e7b-4608-9732-4fdee47a9f08" d="M192.67,368.24V368c0-2.67-4.15-2.67-4.15,0v.28c0,2.68,4.15,2.68,4.15,0Z"/><path class="e80ea84d-2e7b-4608-9732-4fdee47a9f08" d="M180.39,379.87l.28-.83a2.08,2.08,0,1,0-4-1.1l-.28.82a2.1,2.1,0,0,0,1.45,2.56,2.12,2.12,0,0,0,2.56-1.45Z"/><path class="e80ea84d-2e7b-4608-9732-4fdee47a9f08" d="M207.64,381v-.56c0-2.67-4.16-2.68-4.16,0V381c0,2.67,4.16,2.68,4.16,0Z"/><path class="e80ea84d-2e7b-4608-9732-4fdee47a9f08" d="M206.8,362.15v-.28c0-2.68-4.15-2.68-4.15,0v.28c0,2.67,4.15,2.67,4.15,0Z"/><path class="eaf92c50-b402-474d-96f4-704d23bb26ec" d="M181,362.62l-.28-.28c-1.89-1.9-4.83,1-2.94,2.94l.28.27c1.9,1.9,4.84-1,2.94-2.93Z"/><path class="eaf92c50-b402-474d-96f4-704d23bb26ec" d="M188.93,383.62c2.68,0,2.68-4.16,0-4.16s-2.68,4.16,0,4.16Z"/><path class="eaf92c50-b402-474d-96f4-704d23bb26ec" d="M195.86,359.79c2.67,0,2.68-4.16,0-4.16s-2.68,4.16,0,4.16Z"/><path class="eaf92c50-b402-474d-96f4-704d23bb26ec" d="M214.7,375.31c2.68,0,2.68-4.16,0-4.16s-2.68,4.16,0,4.16Z"/><path class="eaf92c50-b402-474d-96f4-704d23bb26ec" d="M178.13,387.22c2.67,0,2.67-4.15,0-4.15s-2.68,4.15,0,4.15Z"/><path class="eaf92c50-b402-474d-96f4-704d23bb26ec" d="M198.35,392.21c2.68,0,2.68-4.16,0-4.16s-2.68,4.16,0,4.16Z"/></g></g></svg>