<svg xmlns="http://www.w3.org/2000/svg" xmlns:xlink="http://www.w3.org/1999/xlink" viewBox="0 0 301.95 492.56"><defs><style>.b466930d-57d7-493e-946e-1ecbbf21cfb6{fill:none;}.a32b00cb-af12-48c9-ba11-aa6f8893ef73{fill:#f6bfbe;}.ef06e88c-dda9-4325-8b83-b74962f57841{fill:#40220f;}.be06956c-6376-4a2a-a9e6-6092f4dfb040{fill:#d6776f;}.abd56302-4c7f-4fd4-9304-9b2fb93cc50e{fill:#f9d3d3;}.bab78a54-16e3-48d5-99be-0c7cef37b46a{fill:#e097aa;}.f6bdab11-c108-43e8-8c3c-7454eb67770a{fill:#f2a4b7;}.ee23070d-757a-4987-9cf1-fc391243ffbb{fill:#604c3f;}.b69997d7-5e09-470a-8f04-3172c496fa96{fill:#fff;}.b69723d0-75f0-4f2e-a4c1-89baeb11d4aa{fill:#f198a4;}.efac5b17-7882-462e-8514-9da0bf274fdb{fill:#e35651;}.b1e3df40-8075-4c4b-9e59-bb43cdf2899c{isolation:isolate;}.b65ee7df-a5a6-4ada-8a67-ff5a84ec9f88{clip-path:url(#f9596b52-228c-416b-a122-7fe431ebfcfc);}.ed86eb27-3208-4058-8ead-9c5e6955477e{fill:#402210;}.b909fe9f-9b74-42f0-a816-b644c23892f9{clip-path:url(#bc330d19-3d37-4024-892a-b7b04c79b3d8);}.ad5be0a1-4f0b-4298-8e29-011ca2d976c1{clip-path:url(#a22a00ef-b73e-4e20-9269-753e9158a36e);}.e909dce2-000d-4dfd-ba2d-7c8d3301a8b6{fill:#b99d9e;}.bc29dc1d-2e85-435a-bb4b-f3e4bb5b88a8{fill:#b59a9b;}.e460a8e8-7769-43e6-9ecb-25918a0aaa88{fill:#b89c9d;}.a0a07ce5-da7a-484c-afeb-e3a7e7ab8342{clip-path:url(#f137834a-c179-4127-b2d6-8c1b2461cf47);}.b959a307-87eb-4ca8-bcfb-e08c795b6fa7{fill:#9c8485;}.e78bff90-333c-4834-b612-6bc32a0fb841{fill:#bfa3a4;}.b768c7a4-65d3-4250-b81e-04a584141b15{clip-path:url(#aac4a2f3-41bd-4af5-9efc-5b0a2385f290);}.e0c11965-c886-403b-b853-44b3dac8f535{clip-path:url(#f592f55a-e47b-4b7c-a9cd-b2a75cff385e);}.b1d30fa9-a0f1-433c-ad27-c16b8bb1ca77{clip-path:url(#f86cacf8-bf80-4761-acae-1bf55e0e6ad8);}.b1ca1ab0-835d-4aa1-9e49-4c0cefc9ee85{fill:#a08889;}.f84a1238-1010-47da-a6ba-b3c79c02b9c3{fill:#a58b8c;}.aecf57d1-fce0-4caa-adb3-1eca24a9e904{fill:#a98f90;}.f6a30ac3-7b27-4a12-9671-505af8cffa2c{fill:#ad9394;}.be70df26-90a0-40bd-87a6-7bf0179f2bbe{fill:#b19697;}.bd2d08c3-ba43-4922-aef9-afff626a4253{fill:#bca0a1;}.a010e828-33c1-42b0-a5ba-aafd57c09006{clip-path:url(#bae4b213-c519-4ee2-b9d1-79a83f265cc9);}.bc967c21-c73f-4e09-a2e9-509994a6f70e{clip-path:url(#bc109788-6477-4ea3-ba10-c58fd5d6d09d);}.e575be25-4d69-4bea-88cf-2f42b1a557ad{clip-path:url(#bbe49ef7-1535-467f-8978-26e442338605);}.ff3e11cc-0ee5-41c1-aed8-a811cc5cbd2c{clip-path:url(#f0200477-a075-4eeb-b714-5391bcd357cd);}.a033dffe-82d3-4e8b-a47a-fa7e73176368{clip-path:url(#b9026e9c-a873-491c-8b11-47a3f390e80a);}.f789b878-f2c2-4672-a917-3457f576bd6d{clip-path:url(#f3254aba-568c-4415-b6ba-4aa9ea16cc3a);}.bab44016-c70d-4fe2-bf2f-4073b0bcd1c7{clip-path:url(#a1235d0c-dd05-44cb-8fa2-bfc7eea9cb88);}.ee94f519-dc3c-428e-b90e-dabd57bf25bc{fill:#e7c4c5;}.b3b42252-1e63-4953-ae26-dee9c62ff813{clip-path:url(#e16bb08a-1970-4f2f-9d5c-419c6843455c);}</style><clipPath id="f9596b52-228c-416b-a122-7fe431ebfcfc"><path class="b466930d-57d7-493e-946e-1ecbbf21cfb6" d="M199.62,376.11l.8.38a23.26,23.26,0,0,1,13.74,20.7c.38,15-13,29-29.87,31.18l-.8-.38c16.85-2.17,30.25-16.16,29.87-31.18A23.26,23.26,0,0,0,199.62,376.11Z"/></clipPath><clipPath id="bc330d19-3d37-4024-892a-b7b04c79b3d8"><path class="b466930d-57d7-493e-946e-1ecbbf21cfb6" d="M200.5,374.27l.8.38a29.73,29.73,0,0,0-3.48-1.4l-.8-.38A29.73,29.73,0,0,1,200.5,374.27Z"/></clipPath><clipPath id="a22a00ef-b73e-4e20-9269-753e9158a36e"><path class="b466930d-57d7-493e-946e-1ecbbf21cfb6" d="M195.71,374.59a28.57,28.57,0,0,1,3.91,1.52l.8.38a28.57,28.57,0,0,0-3.91-1.52Z"/></clipPath><clipPath id="f137834a-c179-4127-b2d6-8c1b2461cf47"><path class="b466930d-57d7-493e-946e-1ecbbf21cfb6" d="M166.88,425.82l-.8-.38A31.12,31.12,0,0,0,183.49,428l.8.38A31.12,31.12,0,0,1,166.88,425.82Z"/></clipPath><clipPath id="aac4a2f3-41bd-4af5-9efc-5b0a2385f290"><path class="b466930d-57d7-493e-946e-1ecbbf21cfb6" d="M189.41,342.83l.8.38c2.73,1.31,5.63,10,5.94,22.41a80.18,80.18,0,0,1-.23,8.4l-.8-.39a79.91,79.91,0,0,0,.23-8.39C195,352.82,192.14,344.13,189.41,342.83Z"/></clipPath><clipPath id="f592f55a-e47b-4b7c-a9cd-b2a75cff385e"><path class="b466930d-57d7-493e-946e-1ecbbf21cfb6" d="M188.53,342.67a1.64,1.64,0,0,1,.88.16l.8.38a1.64,1.64,0,0,0-.88-.16Z"/></clipPath><clipPath id="f86cacf8-bf80-4761-acae-1bf55e0e6ad8"><path class="b466930d-57d7-493e-946e-1ecbbf21cfb6" d="M184,372.7l-.8-.38c-.18-1.81-.28-3.65-.33-5.47-.34-13.78,2.7-23.8,5.65-24.18l.8.38c-3,.39-6,10.41-5.65,24.18C183.73,369.05,183.83,370.89,184,372.7Z"/></clipPath><clipPath id="bae4b213-c519-4ee2-b9d1-79a83f265cc9"><path class="b466930d-57d7-493e-946e-1ecbbf21cfb6" d="M190.24,341l.8.39a3.07,3.07,0,0,0-1.76-.29c-3.5.45-5.78,6.58-6.82,14.26l-.8-.39c1-7.68,3.32-13.8,6.82-14.26A3.15,3.15,0,0,1,190.24,341Z"/></clipPath><clipPath id="bc109788-6477-4ea3-ba10-c58fd5d6d09d"><path class="b466930d-57d7-493e-946e-1ecbbf21cfb6" d="M156.46,389.72a34.45,34.45,0,0,1,12.21-11.64l.8.38a34.45,34.45,0,0,0-12.21,11.64l-.09,0-.1-.05L157,390l-.1,0-.11-.05-.1-.05-.1,0Z"/></clipPath><clipPath id="bbe49ef7-1535-467f-8978-26e442338605"><path class="b466930d-57d7-493e-946e-1ecbbf21cfb6" d="M152.24,404.7a27.26,27.26,0,0,1,4.22-15l.8.38a27.26,27.26,0,0,0-4.22,15c.24,9.31,5.71,16.86,13.84,20.74l-.8-.38C158,421.56,152.48,414,152.24,404.7Z"/></clipPath><clipPath id="f0200477-a075-4eeb-b714-5391bcd357cd"><path class="b466930d-57d7-493e-946e-1ecbbf21cfb6" d="M175.09,344.68l.8.38c2.73,1.3,5.62,10,5.94,22.41,0,1.85,0,3.7-.05,5.52l-.8-.39c.08-1.81.09-3.66.05-5.51C180.71,354.66,177.82,346,175.09,344.68Z"/></clipPath><clipPath id="b9026e9c-a873-491c-8b11-47a3f390e80a"><path class="b466930d-57d7-493e-946e-1ecbbf21cfb6" d="M166,427.65l-.8-.38c-8.71-4.15-14.58-12.3-14.84-22.33-.27-11,6.18-21.79,16.89-28.23l.8.38c-10.71,6.44-17.16,17.19-16.89,28.23C151.45,415.35,157.32,423.5,166,427.65Z"/></clipPath><clipPath id="f3254aba-568c-4415-b6ba-4aa9ea16cc3a"><path class="b466930d-57d7-493e-946e-1ecbbf21cfb6" d="M174.21,344.52a1.55,1.55,0,0,1,.88.16l.8.38a1.55,1.55,0,0,0-.88-.16c-.74.1-1.48.79-2.18,2l-.09,0-.1-.05-.1-.05-.11-.05-.1,0-.1-.05-.1,0-.1-.05C172.73,345.31,173.47,344.62,174.21,344.52Z"/></clipPath><clipPath id="a1235d0c-dd05-44cb-8fa2-bfc7eea9cb88"><path class="b466930d-57d7-493e-946e-1ecbbf21cfb6" d="M168.56,368.7c-.26-10.33,1.39-18.55,3.47-22.18l.8.38c-2.08,3.63-3.73,11.85-3.47,22.18a77.07,77.07,0,0,0,.64,8.27l-.8-.38A77.27,77.27,0,0,1,168.56,368.7Z"/></clipPath><clipPath id="e16bb08a-1970-4f2f-9d5c-419c6843455c"><path class="b466930d-57d7-493e-946e-1ecbbf21cfb6" d="M175.92,342.83l.8.38a3.15,3.15,0,0,0-1.76-.29c-5.25.68-7.75,14.1-7.45,26.4.07,2.68.26,5.29.57,7.77l-.8-.38c-.31-2.48-.5-5.09-.57-7.77-.3-12.3,2.2-25.72,7.45-26.4A3.15,3.15,0,0,1,175.92,342.83Z"/></clipPath></defs><title>兔</title><g id="abd8484d-7be3-4086-a5f9-9d3fe7f82204" data-name="圖層 2"><g id="b5c98bf6-70d5-4467-898b-557705bbbddf" data-name="圖層 1"><rect class="a32b00cb-af12-48c9-ba11-aa6f8893ef73" x="47.04" y="338.54" width="60.07" height="150.17" rx="11.04"/><path class="ef06e88c-dda9-4325-8b83-b74962f57841" d="M88.75,492.56H65.4a22.23,22.23,0,0,1-22.2-22.2V356.9a22.23,22.23,0,0,1,22.2-22.2H88.75A22.23,22.23,0,0,1,111,356.9V470.36A22.23,22.23,0,0,1,88.75,492.56ZM65.4,342.38A14.54,14.54,0,0,0,50.88,356.9V470.36A14.53,14.53,0,0,0,65.4,484.88H88.75a14.54,14.54,0,0,0,14.52-14.52V356.9a14.54,14.54,0,0,0-14.52-14.52Z"/><rect class="a32b00cb-af12-48c9-ba11-aa6f8893ef73" x="177.07" y="338.54" width="60.07" height="150.17" rx="11.04"/><path class="ef06e88c-dda9-4325-8b83-b74962f57841" d="M218.78,492.56H195.42a22.22,22.22,0,0,1-22.19-22.2V356.9a22.22,22.22,0,0,1,22.19-22.2h23.36A22.23,22.23,0,0,1,241,356.9V470.36A22.23,22.23,0,0,1,218.78,492.56ZM195.42,342.38a14.54,14.54,0,0,0-14.51,14.52V470.36a14.53,14.53,0,0,0,14.51,14.52h23.36a14.54,14.54,0,0,0,14.52-14.52V356.9a14.54,14.54,0,0,0-14.52-14.52Z"/><circle class="a32b00cb-af12-48c9-ba11-aa6f8893ef73" cx="142.09" cy="353.81" r="97.67"/><path class="ef06e88c-dda9-4325-8b83-b74962f57841" d="M142.09,455.32A101.52,101.52,0,1,1,243.6,353.81,101.63,101.63,0,0,1,142.09,455.32Zm0-195.35a93.84,93.84,0,1,0,93.83,93.84A94,94,0,0,0,142.09,260Z"/><path class="be06956c-6376-4a2a-a9e6-6092f4dfb040" d="M50.21,320.6s.42,33.29,26.86,51.85L83.46,312l-23-11.89Z"/><path class="ef06e88c-dda9-4325-8b83-b74962f57841" d="M79.42,377.62l-4-2.81c-27.34-19.19-28.07-52.76-28.09-54.18v-.7l11.92-23.74,27.29,14.13Zm-26.31-56.4c.24,4.4,2.45,29.47,21.64,45.8l5.64-53.39L61.77,304Z"/><path class="a32b00cb-af12-48c9-ba11-aa6f8893ef73" d="M283.5,329.24c12.56-6.35,18.12-20.91,12.4-32.79-5.8-12-21-16.76-33.86-10.55-.44.21-.87.43-1.29.67L195.1,318.16l21,43.56,67.45-32.47Z"/><path class="ef06e88c-dda9-4325-8b83-b74962f57841" d="M214.26,366.84,190,316.37l69-33.22c.46-.25.91-.48,1.38-.71,14.8-7.12,32.28-1.59,39,12.34,6,12.48,1.21,27.77-10.65,35.84l.17.3Zm-14-46.88,17.63,36.63,63.92-30.78c10.64-5.38,15.43-17.8,10.67-27.7-4.87-10.11-17.77-14-28.74-8.75-.38.18-.75.38-1.11.57l-.18.09Z"/><ellipse class="abd56302-4c7f-4fd4-9304-9b2fb93cc50e" cx="171.8" cy="98.26" rx="29.71" ry="94.42"/><path class="ef06e88c-dda9-4325-8b83-b74962f57841" d="M171.8,196.52c-21.8,0-33.55-50.63-33.55-98.26S150,0,171.8,0s33.55,50.62,33.55,98.26S193.59,196.52,171.8,196.52Zm0-188.84c-12.24,0-25.87,37.2-25.87,90.58s13.63,90.58,25.87,90.58,25.87-37.2,25.87-90.58S184,7.68,171.8,7.68Z"/><ellipse class="abd56302-4c7f-4fd4-9304-9b2fb93cc50e" cx="112.38" cy="98.26" rx="29.71" ry="94.42"/><path class="ef06e88c-dda9-4325-8b83-b74962f57841" d="M112.38,196.52c-21.79,0-33.55-50.63-33.55-98.26S90.59,0,112.38,0s33.55,50.62,33.55,98.26S134.17,196.52,112.38,196.52Zm0-188.84c-12.24,0-25.87,37.2-25.87,90.58s13.63,90.58,25.87,90.58,25.87-37.2,25.87-90.58S124.61,7.68,112.38,7.68Z"/><ellipse class="bab78a54-16e3-48d5-99be-0c7cef37b46a" cx="171.8" cy="119.8" rx="17.71" ry="56.27"/><ellipse class="bab78a54-16e3-48d5-99be-0c7cef37b46a" cx="112.49" cy="119.8" rx="17.71" ry="56.27"/><ellipse class="f6bdab11-c108-43e8-8c3c-7454eb67770a" cx="115.11" cy="124.97" rx="15.86" ry="54.48"/><ellipse class="f6bdab11-c108-43e8-8c3c-7454eb67770a" cx="173.64" cy="124.97" rx="15.86" ry="54.48"/><ellipse class="abd56302-4c7f-4fd4-9304-9b2fb93cc50e" cx="142.09" cy="229.18" rx="130.64" ry="109.38"/><path class="ef06e88c-dda9-4325-8b83-b74962f57841" d="M142.09,342.41c-74.16,0-134.48-50.8-134.48-113.23S67.93,116,142.09,116s134.48,50.79,134.48,113.22S216.24,342.41,142.09,342.41Zm0-218.77c-69.92,0-126.8,47.35-126.8,105.54s56.88,105.55,126.8,105.55,126.8-47.35,126.8-105.55S212,123.64,142.09,123.64Z"/><path class="ef06e88c-dda9-4325-8b83-b74962f57841" d="M142.09,341.62c-73.72,0-133.7-50.44-133.7-112.44s60-112.43,133.7-112.43,133.69,50.44,133.69,112.43S215.81,341.62,142.09,341.62Zm0-218.77c-70.35,0-127.59,47.7-127.59,106.33S71.74,335.51,142.09,335.51s127.58-47.69,127.58-106.33S212.44,122.85,142.09,122.85Z"/><path class="ee23070d-757a-4987-9cf1-fc391243ffbb" d="M51.94,243l17.25-13.5A3.89,3.89,0,0,0,68,222.76l-23.59-7.48a3.9,3.9,0,0,0-4.9,4.84l6.33,21A3.9,3.9,0,0,0,51.94,243Z"/><circle class="ef06e88c-dda9-4325-8b83-b74962f57841" cx="57.69" cy="186.81" r="15.42"/><circle class="ef06e88c-dda9-4325-8b83-b74962f57841" cx="123.44" cy="208.61" r="15.42"/><circle class="b69997d7-5e09-470a-8f04-3172c496fa96" cx="52.31" cy="183.16" r="5.38"/><circle class="b69997d7-5e09-470a-8f04-3172c496fa96" cx="118.06" cy="204.96" r="5.38"/><circle class="b69723d0-75f0-4f2e-a4c1-89baeb11d4aa" cx="173.64" cy="272.77" r="47.82"/><path class="efac5b17-7882-462e-8514-9da0bf274fdb" d="M83.72,300.09l-10.65,114a23.37,23.37,0,0,0,9.21,18.66l36.84,30.12-2.56-130.78Z"/><path class="ef06e88c-dda9-4325-8b83-b74962f57841" d="M119.12,467.07a4.27,4.27,0,0,1-2.68-1L79.6,436A27.64,27.64,0,0,1,68.84,414c0-.13,0-.26,0-.38l10.64-114a4.23,4.23,0,0,1,7.17-2.64l32.84,32a4.23,4.23,0,0,1,1.28,2.95l2.57,130.79a4.24,4.24,0,0,1-4.24,4.32ZM77.31,414.25a19.17,19.17,0,0,0,7.54,15.09l29.86,24.42-2.35-119.89L87.11,309.3Z"/><path class="efac5b17-7882-462e-8514-9da0bf274fdb" d="M116.56,332.05l124.55-24.29,7,120.26a11.35,11.35,0,0,1-8.93,11.67L126.89,463.94a11.33,11.33,0,0,1-13.73-11.21Z"/><path class="ef06e88c-dda9-4325-8b83-b74962f57841" d="M124.46,468.44a15.58,15.58,0,0,1-15.54-15.75l3.4-120.76a4.25,4.25,0,0,1,3.43-4L240.3,303.61a4.23,4.23,0,0,1,5,3.91l7,120.26A15.53,15.53,0,0,1,240,443.83L127.78,468.08A15.55,15.55,0,0,1,124.46,468.44Zm-3.77-132.89-3.3,117.3a7.1,7.1,0,0,0,8.6,6.95l112.25-24.25a7.07,7.07,0,0,0,5.6-7.31l-6.67-115.39Z"/><path class="efac5b17-7882-462e-8514-9da0bf274fdb" d="M86.34,308.54,113.51,334a10.53,10.53,0,0,0,8.88,2.61l110.47-18.14c8.65-1.43,11.25-11.7,4.17-16.5L203.2,279a10.66,10.66,0,0,0-7.54-1.67L91.85,293C83.85,294.18,80.65,303.21,86.34,308.54Z"/><path class="ef06e88c-dda9-4325-8b83-b74962f57841" d="M120.64,341a14.7,14.7,0,0,1-10-3.9L83.45,311.63h0a12.77,12.77,0,0,1-3.64-13.35,13.87,13.87,0,0,1,11.41-9.49L195,273.15a14.85,14.85,0,0,1,10.54,2.35l33.83,22.94A12.93,12.93,0,0,1,245,312.1a13.82,13.82,0,0,1-11.49,10.52L123.08,340.77A15.44,15.44,0,0,1,120.64,341Zm-31.4-35.52,27.16,25.44a6.32,6.32,0,0,0,5.3,1.52l110.47-18.14a5.32,5.32,0,0,0,4.6-4,4.49,4.49,0,0,0-2.12-4.84l-33.83-22.94a6.48,6.48,0,0,0-4.53-1L92.48,297.16a5.4,5.4,0,0,0-4.58,3.64,4.42,4.42,0,0,0,1.34,4.65Z"/><g class="b1e3df40-8075-4c4b-9e59-bb43cdf2899c"><g class="b1e3df40-8075-4c4b-9e59-bb43cdf2899c"><g class="b65ee7df-a5a6-4ada-8a67-ff5a84ec9f88"><g class="b1e3df40-8075-4c4b-9e59-bb43cdf2899c"><path class="ed86eb27-3208-4058-8ead-9c5e6955477e" d="M184.29,428.37l-.8-.38a35.8,35.8,0,0,0,7.25-1.72l.8.39a36.47,36.47,0,0,1-7.25,1.71"/><path class="ed86eb27-3208-4058-8ead-9c5e6955477e" d="M191.54,426.66l-.8-.39a35.9,35.9,0,0,0,6.78-3.18l.8.38a36.57,36.57,0,0,1-6.78,3.19"/><path class="ed86eb27-3208-4058-8ead-9c5e6955477e" d="M198.32,423.47l-.8-.38a36.84,36.84,0,0,0,4.54-3.23l.8.38a36.84,36.84,0,0,1-4.54,3.23"/><path class="ed86eb27-3208-4058-8ead-9c5e6955477e" d="M202.86,420.24l-.8-.38a35.27,35.27,0,0,0,3.52-3.39l.8.39a36.33,36.33,0,0,1-3.52,3.38"/><path class="ed86eb27-3208-4058-8ead-9c5e6955477e" d="M206.38,416.86l-.8-.39a32.4,32.4,0,0,0,2.87-3.67l.8.38a33.42,33.42,0,0,1-2.87,3.68"/><path class="ed86eb27-3208-4058-8ead-9c5e6955477e" d="M209.25,413.18l-.8-.38a30.62,30.62,0,0,0,2.45-4.35l.8.38a30.08,30.08,0,0,1-2.45,4.35"/><path class="ed86eb27-3208-4058-8ead-9c5e6955477e" d="M211.7,408.83l-.8-.38a26.46,26.46,0,0,0,2.46-11.64,23.26,23.26,0,0,0-13.74-20.7l.8.38a23.26,23.26,0,0,1,13.74,20.7,26.43,26.43,0,0,1-2.46,11.64"/></g></g></g><g class="b1e3df40-8075-4c4b-9e59-bb43cdf2899c"><g class="b909fe9f-9b74-42f0-a816-b644c23892f9"><g class="b1e3df40-8075-4c4b-9e59-bb43cdf2899c"><path class="ed86eb27-3208-4058-8ead-9c5e6955477e" d="M197.82,373.25l-.8-.38a29.73,29.73,0,0,1,3.48,1.4l.8.38a29.73,29.73,0,0,0-3.48-1.4"/></g></g></g><g class="b1e3df40-8075-4c4b-9e59-bb43cdf2899c"><g class="ad5be0a1-4f0b-4298-8e29-011ca2d976c1"><g class="b1e3df40-8075-4c4b-9e59-bb43cdf2899c"><path class="e909dce2-000d-4dfd-ba2d-7c8d3301a8b6" d="M196.51,375l-.8-.38.54.17.8.38-.54-.17"/><path class="bc29dc1d-2e85-435a-bb4b-f3e4bb5b88a8" d="M197.05,375.14l-.8-.38a26.31,26.31,0,0,1,3.37,1.35l.8.38a29.59,29.59,0,0,0-3.37-1.35"/></g></g></g><polygon class="e460a8e8-7769-43e6-9ecb-25918a0aaa88" points="195.86 374.77 195.06 374.39 195.71 374.59 196.51 374.97 195.86 374.77"/><polygon class="ed86eb27-3208-4058-8ead-9c5e6955477e" points="195.86 374.77 195.06 374.39 195.12 373.63 195.92 374.02 195.86 374.77"/><g class="b1e3df40-8075-4c4b-9e59-bb43cdf2899c"><g class="a0a07ce5-da7a-484c-afeb-e3a7e7ab8342"><g class="b1e3df40-8075-4c4b-9e59-bb43cdf2899c"><path class="ed86eb27-3208-4058-8ead-9c5e6955477e" d="M166.88,425.82l-.8-.38a27.16,27.16,0,0,0,3.29,1.31l.8.38a27.16,27.16,0,0,1-3.29-1.31"/><path class="ed86eb27-3208-4058-8ead-9c5e6955477e" d="M170.17,427.13l-.8-.38A31.91,31.91,0,0,0,183.49,428l.8.38a31.91,31.91,0,0,1-14.12-1.24"/></g></g></g><polygon class="b959a307-87eb-4ca8-bcfb-e08c795b6fa7" points="184.11 373.75 183.31 373.37 183.21 372.32 184.01 372.7 184.11 373.75"/><polygon class="e78bff90-333c-4834-b612-6bc32a0fb841" points="181.93 374.03 181.13 373.65 183.31 373.37 184.11 373.75 181.93 374.03"/><polygon class="ed86eb27-3208-4058-8ead-9c5e6955477e" points="181.93 374.03 181.13 373.65 180.98 372.6 181.78 372.99 181.93 374.03"/><g class="b1e3df40-8075-4c4b-9e59-bb43cdf2899c"><g class="b768c7a4-65d3-4250-b81e-04a584141b15"><g class="b1e3df40-8075-4c4b-9e59-bb43cdf2899c"><path class="ed86eb27-3208-4058-8ead-9c5e6955477e" d="M195.92,374l-.8-.39a79.91,79.91,0,0,0,.23-8.39c-.31-12.42-3.21-21.11-5.94-22.41l.8.38c2.73,1.31,5.63,10,5.94,22.41a80.18,80.18,0,0,1-.23,8.4"/></g></g></g><g class="b1e3df40-8075-4c4b-9e59-bb43cdf2899c"><g class="e0c11965-c886-403b-b853-44b3dac8f535"><g class="b1e3df40-8075-4c4b-9e59-bb43cdf2899c"><path class="e909dce2-000d-4dfd-ba2d-7c8d3301a8b6" d="M189.33,343.05l-.8-.38a1.69,1.69,0,0,1,.63.06l.8.38a1.69,1.69,0,0,0-.63-.06"/><path class="bc29dc1d-2e85-435a-bb4b-f3e4bb5b88a8" d="M190,343.11l-.8-.38.25.1.8.38-.25-.1"/></g></g></g><g class="b1e3df40-8075-4c4b-9e59-bb43cdf2899c"><g class="b1d30fa9-a0f1-433c-ad27-c16b8bb1ca77"><g class="b1e3df40-8075-4c4b-9e59-bb43cdf2899c"><path class="b1ca1ab0-835d-4aa1-9e49-4c0cefc9ee85" d="M184,372.7l-.8-.38c-.18-1.81-.28-3.65-.33-5.47-.23-9.46,1.13-17.15,3-21.16l.8.38c-1.84,4-3.19,11.7-3,21.16,0,1.82.15,3.66.33,5.47"/><path class="f84a1238-1010-47da-a6ba-b3c79c02b9c3" d="M186.64,346.07l-.8-.38a10,10,0,0,1,.82-1.51l.8.38a10.46,10.46,0,0,0-.82,1.51"/><path class="aecf57d1-fce0-4caa-adb3-1eca24a9e904" d="M187.46,344.56l-.8-.38a6.32,6.32,0,0,1,.51-.66l.8.38a6.32,6.32,0,0,0-.51.66"/><path class="f6a30ac3-7b27-4a12-9671-505af8cffa2c" d="M188,343.9l-.8-.38a2.5,2.5,0,0,1,.37-.36l.8.38a2.5,2.5,0,0,0-.37.36"/><path class="be70df26-90a0-40bd-87a6-7bf0179f2bbe" d="M188.34,343.54l-.8-.38a2,2,0,0,1,.34-.25l.8.38a2,2,0,0,0-.34.25"/><path class="bc29dc1d-2e85-435a-bb4b-f3e4bb5b88a8" d="M188.68,343.29l-.8-.38a1.7,1.7,0,0,1,.39-.18l.8.38a1.7,1.7,0,0,0-.39.18"/><path class="e909dce2-000d-4dfd-ba2d-7c8d3301a8b6" d="M189.07,343.11l-.8-.38a1.22,1.22,0,0,1,.26-.06l.8.38-.26.06"/></g></g></g><polygon class="b959a307-87eb-4ca8-bcfb-e08c795b6fa7" points="170.1 378.09 169.31 377.71 169.21 376.97 170 377.35 170.1 378.09"/><polygon class="bd2d08c3-ba43-4922-aef9-afff626a4253" points="169.47 378.46 168.67 378.08 169.31 377.71 170.1 378.09 169.47 378.46"/><g class="b1e3df40-8075-4c4b-9e59-bb43cdf2899c"><g class="a010e828-33c1-42b0-a5ba-aafd57c09006"><g class="b1e3df40-8075-4c4b-9e59-bb43cdf2899c"><path class="ed86eb27-3208-4058-8ead-9c5e6955477e" d="M182.46,355.34l-.8-.39a37.16,37.16,0,0,1,2.55-10l.8.38a37.14,37.14,0,0,0-2.55,10"/><path class="ed86eb27-3208-4058-8ead-9c5e6955477e" d="M185,345.34l-.8-.38a13.23,13.23,0,0,1,1-1.88l.8.38a13.23,13.23,0,0,0-1,1.88"/><path class="ed86eb27-3208-4058-8ead-9c5e6955477e" d="M186.05,343.46l-.8-.38a8.38,8.38,0,0,1,.7-.91l.8.38a8.38,8.38,0,0,0-.7.91"/><path class="ed86eb27-3208-4058-8ead-9c5e6955477e" d="M186.75,342.55l-.8-.38a8.07,8.07,0,0,1,.6-.58l.8.38a8.07,8.07,0,0,0-.6.58"/><path class="ed86eb27-3208-4058-8ead-9c5e6955477e" d="M187.35,342l-.8-.38a5.28,5.28,0,0,1,.58-.42l.8.39a3.62,3.62,0,0,0-.58.41"/><path class="ed86eb27-3208-4058-8ead-9c5e6955477e" d="M187.93,341.56l-.8-.39a4,4,0,0,1,.7-.32l.8.38a3.42,3.42,0,0,0-.7.33"/><path class="ed86eb27-3208-4058-8ead-9c5e6955477e" d="M188.63,341.23l-.8-.38a2.94,2.94,0,0,1,.65-.16,3.25,3.25,0,0,1,1.32.12l.8.38a3.1,3.1,0,0,0-1.32-.11,2.45,2.45,0,0,0-.65.15"/><path class="ed86eb27-3208-4058-8ead-9c5e6955477e" d="M190.6,341.19l-.8-.38.44.17.8.39a4.07,4.07,0,0,0-.44-.18"/></g></g></g><g class="b1e3df40-8075-4c4b-9e59-bb43cdf2899c"><g class="bc967c21-c73f-4e09-a2e9-509994a6f70e"><g class="b1e3df40-8075-4c4b-9e59-bb43cdf2899c"><path class="f84a1238-1010-47da-a6ba-b3c79c02b9c3" d="M155.52,393.35l-.8-.39a30.92,30.92,0,0,1,2.42-4.29l.8.38a30.45,30.45,0,0,0-2.42,4.3"/><path class="aecf57d1-fce0-4caa-adb3-1eca24a9e904" d="M157.94,389.05l-.8-.38a32,32,0,0,1,2.82-3.61l.8.38a32,32,0,0,0-2.82,3.61"/><path class="f6a30ac3-7b27-4a12-9671-505af8cffa2c" d="M160.76,385.44l-.8-.38a34.41,34.41,0,0,1,3.48-3.34l.8.38a36.76,36.76,0,0,0-3.48,3.34"/><path class="be70df26-90a0-40bd-87a6-7bf0179f2bbe" d="M164.24,382.1l-.8-.38a38,38,0,0,1,4.62-3.29l.8.39a36.9,36.9,0,0,0-4.62,3.28"/><path class="bc29dc1d-2e85-435a-bb4b-f3e4bb5b88a8" d="M168.86,378.82l-.8-.39c.2-.12.4-.24.61-.35l.8.38c-.21.12-.41.23-.61.36"/></g></g></g><g class="b1e3df40-8075-4c4b-9e59-bb43cdf2899c"><g class="e575be25-4d69-4bea-88cf-2f42b1a557ad"><g class="b1e3df40-8075-4c4b-9e59-bb43cdf2899c"><path class="b1ca1ab0-835d-4aa1-9e49-4c0cefc9ee85" d="M166.88,425.82l-.8-.38c-8.13-3.88-13.6-11.44-13.84-20.74A26.69,26.69,0,0,1,154.72,393l.8.39A26.62,26.62,0,0,0,153,405.08c.24,9.31,5.71,16.86,13.84,20.74"/><path class="f84a1238-1010-47da-a6ba-b3c79c02b9c3" d="M155.52,393.35l-.8-.39a30.92,30.92,0,0,1,2.42-4.29l.8.38a30.45,30.45,0,0,0-2.42,4.3"/></g></g></g><g class="b1e3df40-8075-4c4b-9e59-bb43cdf2899c"><g class="ff3e11cc-0ee5-41c1-aed8-a811cc5cbd2c"><g class="b1e3df40-8075-4c4b-9e59-bb43cdf2899c"><path class="ed86eb27-3208-4058-8ead-9c5e6955477e" d="M181.78,373l-.8-.39c.08-1.81.09-3.66.05-5.51-.32-12.43-3.21-21.11-5.94-22.41l.8.38c2.73,1.3,5.62,10,5.94,22.41,0,1.85,0,3.7-.05,5.52"/></g></g></g><g class="b1e3df40-8075-4c4b-9e59-bb43cdf2899c"><g class="a033dffe-82d3-4e8b-a47a-fa7e73176368"><g class="b1e3df40-8075-4c4b-9e59-bb43cdf2899c"><path class="ed86eb27-3208-4058-8ead-9c5e6955477e" d="M166,427.65l-.8-.38c-8.71-4.15-14.58-12.3-14.84-22.33a28.77,28.77,0,0,1,2.69-12.74l.8.38a28.8,28.8,0,0,0-2.69,12.74c.26,10,6.13,18.18,14.84,22.33"/><path class="ed86eb27-3208-4058-8ead-9c5e6955477e" d="M153.88,392.58l-.8-.38a33.75,33.75,0,0,1,2.59-4.6l.8.38a33.75,33.75,0,0,0-2.59,4.6"/><path class="ed86eb27-3208-4058-8ead-9c5e6955477e" d="M156.47,388l-.8-.38a33.4,33.4,0,0,1,3-3.85l.8.38a33.4,33.4,0,0,0-3,3.85"/><path class="ed86eb27-3208-4058-8ead-9c5e6955477e" d="M159.49,384.13l-.8-.38a35.66,35.66,0,0,1,3.7-3.56l.8.38a35.66,35.66,0,0,0-3.7,3.56"/><path class="ed86eb27-3208-4058-8ead-9c5e6955477e" d="M163.19,380.57l-.8-.38a37.6,37.6,0,0,1,4.88-3.47l.8.38a38.58,38.58,0,0,0-4.88,3.47"/><path class="ed86eb27-3208-4058-8ead-9c5e6955477e" d="M168.07,377.1l-.8-.38h0l.8.38h0"/></g></g></g><g class="b1e3df40-8075-4c4b-9e59-bb43cdf2899c"><g class="f789b878-f2c2-4672-a917-3457f576bd6d"><g class="b1e3df40-8075-4c4b-9e59-bb43cdf2899c"><path class="f84a1238-1010-47da-a6ba-b3c79c02b9c3" d="M172.32,347.91l-.8-.38a12.22,12.22,0,0,1,.82-1.51l.8.39a11.37,11.37,0,0,0-.82,1.5"/><path class="aecf57d1-fce0-4caa-adb3-1eca24a9e904" d="M173.14,346.41l-.8-.39a6.32,6.32,0,0,1,.51-.66l.8.39a6.32,6.32,0,0,0-.51.66"/><path class="f6a30ac3-7b27-4a12-9671-505af8cffa2c" d="M173.65,345.75l-.8-.39c.12-.13.25-.25.37-.36l.8.38a4.3,4.3,0,0,0-.37.37"/><path class="be70df26-90a0-40bd-87a6-7bf0179f2bbe" d="M174,345.38l-.8-.38a3.53,3.53,0,0,1,.34-.24l.8.38a3.53,3.53,0,0,0-.34.24"/><path class="bc29dc1d-2e85-435a-bb4b-f3e4bb5b88a8" d="M174.36,345.14l-.8-.38a1.7,1.7,0,0,1,.39-.18l.8.38a1.7,1.7,0,0,0-.39.18"/><path class="e909dce2-000d-4dfd-ba2d-7c8d3301a8b6" d="M174.75,345l-.8-.38a1.22,1.22,0,0,1,.26-.06,1.36,1.36,0,0,1,.63.06l.8.38a1.51,1.51,0,0,0-.63-.06,1.22,1.22,0,0,0-.26.06"/><path class="bc29dc1d-2e85-435a-bb4b-f3e4bb5b88a8" d="M175.64,345l-.8-.38.25.1.8.38-.25-.1"/></g></g></g><g class="b1e3df40-8075-4c4b-9e59-bb43cdf2899c"><g class="bab44016-c70d-4fe2-bf2f-4073b0bcd1c7"><g class="b1e3df40-8075-4c4b-9e59-bb43cdf2899c"><path class="b1ca1ab0-835d-4aa1-9e49-4c0cefc9ee85" d="M170,377.35l-.8-.38a77.27,77.27,0,0,1-.64-8.27c-.24-9.46,1.13-17.16,3-21.17l.8.38c-1.83,4-3.2,11.71-3,21.17a77.07,77.07,0,0,0,.64,8.27"/><path class="f84a1238-1010-47da-a6ba-b3c79c02b9c3" d="M172.32,347.91l-.8-.38a12.22,12.22,0,0,1,.82-1.51l.8.39a11.37,11.37,0,0,0-.82,1.5"/></g></g></g><path class="ee94f519-dc3c-428e-b90e-dabd57bf25bc" d="M189.33,343.05c2.95-.38,6.47,8.8,6.82,22.57a80.18,80.18,0,0,1-.23,8.4l-.06.75.65.2c10.63,3.27,17.39,11.79,17.65,22.22.38,15-13,29-29.87,31.18S153.42,420.1,153,405.08c-.26-10.43,6-20.63,16.43-26.62l.64-.37-.11-.74a77.07,77.07,0,0,1-.64-8.27c-.34-13.78,2.7-23.8,5.65-24.18s6.47,8.8,6.82,22.57c0,1.85,0,3.7-.05,5.52l.15,1,2.18-.28-.1-1.05c-.18-1.81-.28-3.65-.33-5.47C183.34,353.46,186.38,343.44,189.33,343.05Z"/><path class="ed86eb27-3208-4058-8ead-9c5e6955477e" d="M197.82,373.25c11,3.65,17.91,12.67,18.19,23.71.4,16.1-13.8,31.08-31.67,33.39s-32.74-8.93-33.15-25c-.27-11,6.18-21.79,16.89-28.23-.31-2.48-.5-5.09-.57-7.77-.3-12.3,2.2-25.72,7.45-26.4,3.51-.45,6.07,5.05,7.5,12.42,1-7.68,3.32-13.81,6.82-14.26,5.25-.68,8.42,12,8.72,24.3A78.68,78.68,0,0,1,197.82,373.25Zm-13.53,55.12c16.85-2.17,30.25-16.16,29.87-31.18-.26-10.43-7-18.95-17.65-22.22l-.65-.2.06-.75a80.18,80.18,0,0,0,.23-8.4c-.35-13.77-3.87-22.95-6.82-22.57s-6,10.41-5.65,24.18c0,1.82.15,3.66.33,5.47l.1,1.05-2.18.28-.15-1c.08-1.82.09-3.67.05-5.52-.35-13.77-3.87-23-6.82-22.57s-6,10.4-5.65,24.18a77.07,77.07,0,0,0,.64,8.27l.11.74-.64.37c-10.4,6-16.69,16.19-16.43,26.62.38,15,14.39,25.47,31.25,23.29"/><g class="b1e3df40-8075-4c4b-9e59-bb43cdf2899c"><g class="b3b42252-1e63-4953-ae26-dee9c62ff813"><g class="b1e3df40-8075-4c4b-9e59-bb43cdf2899c"><path class="ed86eb27-3208-4058-8ead-9c5e6955477e" d="M168.08,377.09l-.8-.38c-.31-2.48-.5-5.09-.57-7.77-.2-8.26.86-17,3.17-22.1l.8.39c-2.31,5.07-3.37,13.83-3.17,22.09.07,2.68.26,5.29.57,7.77"/><path class="ed86eb27-3208-4058-8ead-9c5e6955477e" d="M170.68,347.23l-.8-.39a13.22,13.22,0,0,1,1-1.88l.8.38a12.82,12.82,0,0,0-1,1.89"/><path class="ed86eb27-3208-4058-8ead-9c5e6955477e" d="M171.71,345.34l-.8-.38a7.58,7.58,0,0,1,.71-.93l.8.39a6.78,6.78,0,0,0-.71.92"/><path class="ed86eb27-3208-4058-8ead-9c5e6955477e" d="M172.42,344.42l-.8-.39a6.65,6.65,0,0,1,.6-.59l.8.38a6.79,6.79,0,0,0-.6.6"/><path class="ed86eb27-3208-4058-8ead-9c5e6955477e" d="M173,343.82l-.8-.38a4.65,4.65,0,0,1,.6-.42l.8.38a4.65,4.65,0,0,0-.6.42"/><path class="ed86eb27-3208-4058-8ead-9c5e6955477e" d="M173.62,343.4l-.8-.38a3.34,3.34,0,0,1,.72-.33l.8.38a3.34,3.34,0,0,0-.72.33"/><path class="ed86eb27-3208-4058-8ead-9c5e6955477e" d="M174.34,343.07l-.8-.38a3.3,3.3,0,0,1,.62-.15,3,3,0,0,1,1.34.13l.8.38a3,3,0,0,0-1.34-.13,3.3,3.3,0,0,0-.62.15"/><path class="ed86eb27-3208-4058-8ead-9c5e6955477e" d="M176.3,343.05l-.8-.38a3.61,3.61,0,0,1,.42.16l.8.38a3.61,3.61,0,0,0-.42-.16"/></g></g></g></g><path class="a32b00cb-af12-48c9-ba11-aa6f8893ef73" d="M6.71,284.77c-6.3-12.59-2.06-27.59,9.61-33.72,11.83-6.2,26.82-1,33.47,11.74.23.43.44.87.64,1.3L70,313.55a22.81,22.81,0,0,1-10.16,28.37h0a17.39,17.39,0,0,1-23.42-6.42L6.7,284.77Z"/><path class="ef06e88c-dda9-4325-8b83-b74962f57841" d="M51.38,348a21.14,21.14,0,0,1-18.26-10.53L1.42,283.37l.41-.24c-4.92-13.64.33-29,12.71-35.48,13.69-7.18,31-1.18,38.65,13.36.26.49.5,1,.73,1.49l.08.18,19.59,49.45a26.71,26.71,0,0,1-11.88,33.15A21.2,21.2,0,0,1,51.38,348ZM10.17,283.11l29.58,50.45a13.49,13.49,0,0,0,18.25,5A19,19,0,0,0,66.45,315L46.9,265.6q-.24-.51-.51-1c-5.66-10.8-18.35-15.34-28.28-10.13-9.73,5.1-13.3,17.93-8,28.6Z"/></g></g></svg>