<svg xmlns="http://www.w3.org/2000/svg" viewBox="0 0 220.66 382.1"><defs><style>.b923b0f7-d87f-49b0-a0c3-441426a5b96b{fill:#3e3a39;}.ba0f0af2-4106-4ab7-bf7f-20f9a014ad1b{fill:#727171;}.afef4ed6-7e41-4720-8546-7f10b040d32a{fill:#f7f8f8;}.b9d19ef2-94d4-4c48-8dbb-4584001232d5{fill:#efefef;}.ae80f1b4-99e8-4345-921f-61f4bcb9b418{fill:#b1dee9;}.b543ed72-3283-4ca8-9d20-84ee32e50aaa{fill:#40220f;}.af7feda1-3090-4c90-97a1-dbf87b499ea7{fill:#fff;}.ba4d14c2-b4c2-424e-b229-b7931cf73afc{fill:#c30d23;}.bcd8d5be-4ab8-499e-a40e-314c4618a04d{fill:#6a3906;}.fbe9c154-08ec-42b9-a156-ef5701ff1aee{fill:#f0871e;}.f669cf8b-f744-44a0-b8d0-f60b46474d6a{fill:#941602;}.b60aaa0e-653c-4490-aebe-06b4cc50dd81{fill:#dedfdf;}.e629a323-7e67-4fe4-816d-3f0f7161baf8{fill:#218395;}.a6eca670-3efb-4ec1-9f0a-6163f29d9a44{fill:#f2998b;}.b4e61411-9522-49fa-8bda-146b566afc01{fill:#f2985b;}</style></defs><title>紅</title><g id="baf5351f-393b-4844-928a-b8ecf4d7fa58" data-name="圖層 2"><g id="aad42efb-3245-4e13-8dec-f2fa9386d390" data-name="圖層 1"><rect class="b923b0f7-d87f-49b0-a0c3-441426a5b96b" x="55.11" y="24.31" width="24.16" height="88.34" rx="5.49"/><path class="ba0f0af2-4106-4ab7-bf7f-20f9a014ad1b" d="M62,33.86c2.68,0,2.68-4.15,0-4.15s-2.68,4.15,0,4.15Z"/><path class="ba0f0af2-4106-4ab7-bf7f-20f9a014ad1b" d="M59.49,40.06Q60,62.14,59.14,84.2c-.1,2.68,4,2.67,4.15,0q.84-22.07.36-44.14c-.06-2.67-4.22-2.68-4.16,0Z"/><rect class="afef4ed6-7e41-4720-8546-7f10b040d32a" x="33.6" y="130.98" width="157.44" height="235.52" rx="6.4"/><path class="b9d19ef2-94d4-4c48-8dbb-4584001232d5" d="M168.35,178c8.7,0,17-7.64,16.63-16.62s-7.3-16.63-16.63-16.63c-8.69,0-17,7.65-16.62,16.63S159,178,168.35,178Z"/><path class="b9d19ef2-94d4-4c48-8dbb-4584001232d5" d="M52.9,210.91c8.69,0,17-7.64,16.62-16.62s-7.3-16.63-16.62-16.63c-8.7,0-17,7.65-16.63,16.63s7.31,16.62,16.63,16.62Z"/><path class="b9d19ef2-94d4-4c48-8dbb-4584001232d5" d="M168.35,276.3c8.7,0,17-7.64,16.63-16.62s-7.3-16.63-16.63-16.63c-8.69,0-17,7.65-16.62,16.63s7.3,16.62,16.62,16.62Z"/><path class="b9d19ef2-94d4-4c48-8dbb-4584001232d5" d="M96.19,277.7c8.7,0,17-7.65,16.63-16.63s-7.31-16.62-16.63-16.62c-8.69,0-17,7.65-16.62,16.62s7.3,16.63,16.62,16.63Z"/><path class="b9d19ef2-94d4-4c48-8dbb-4584001232d5" d="M57,327.79c8.7,0,17-7.65,16.63-16.63S66.32,294.54,57,294.54c-8.7,0-17,7.64-16.63,16.62S47.68,327.79,57,327.79Z"/><path class="b9d19ef2-94d4-4c48-8dbb-4584001232d5" d="M147.91,340.17c8.7,0,17-7.64,16.62-16.62s-7.3-16.63-16.62-16.63c-8.7,0-17,7.65-16.63,16.63s7.31,16.62,16.63,16.62Z"/><rect class="ae80f1b4-99e8-4345-921f-61f4bcb9b418" x="88.4" y="161.36" width="47.86" height="47.86" rx="7.96"/><path class="b543ed72-3283-4ca8-9d20-84ee32e50aaa" d="M123,210.05H101.64A14.09,14.09,0,0,1,87.56,196V174.6a14.09,14.09,0,0,1,14.08-14.07H123a14.09,14.09,0,0,1,14.07,14.07V196A14.09,14.09,0,0,1,123,210.05Zm-21.38-47.86A12.41,12.41,0,0,0,89.23,174.6V196a12.42,12.42,0,0,0,12.41,12.41H123A12.42,12.42,0,0,0,135.42,196V174.6A12.41,12.41,0,0,0,123,162.19Z"/><line class="ae80f1b4-99e8-4345-921f-61f4bcb9b418" x1="112.33" y1="161.36" x2="112.33" y2="209.22"/><rect class="b543ed72-3283-4ca8-9d20-84ee32e50aaa" x="111.49" y="161.36" width="1.66" height="47.86"/><line class="ae80f1b4-99e8-4345-921f-61f4bcb9b418" x1="88.4" y1="185.29" x2="136.26" y2="185.29"/><rect class="b543ed72-3283-4ca8-9d20-84ee32e50aaa" x="88.4" y="184.46" width="47.86" height="1.66"/><path class="af7feda1-3090-4c90-97a1-dbf87b499ea7" d="M104.25,165.09a12.23,12.23,0,0,0-7.77,3.72c-1.9,1.89,1,4.83,2.94,2.94a7.83,7.83,0,0,1,4.83-2.51c2.65-.21,2.67-4.37,0-4.15Z"/><path class="af7feda1-3090-4c90-97a1-dbf87b499ea7" d="M92,190.73a13.05,13.05,0,0,0,3.59,11.61c1.88,1.9,4.82-1,2.94-2.94A8.67,8.67,0,0,1,96,191.83c.43-2.61-3.57-3.74-4-1.1Z"/><rect class="ae80f1b4-99e8-4345-921f-61f4bcb9b418" x="88.4" y="220.16" width="47.86" height="47.86" rx="7.96"/><path class="b543ed72-3283-4ca8-9d20-84ee32e50aaa" d="M123,268.86H101.64a14.1,14.1,0,0,1-14.08-14.07V233.4a14.1,14.1,0,0,1,14.08-14.07H123a14.1,14.1,0,0,1,14.07,14.07v21.39A14.1,14.1,0,0,1,123,268.86ZM101.64,221a12.41,12.41,0,0,0-12.41,12.4v21.39a12.41,12.41,0,0,0,12.41,12.4H123a12.41,12.41,0,0,0,12.4-12.4V233.4A12.41,12.41,0,0,0,123,221Z"/><line class="ae80f1b4-99e8-4345-921f-61f4bcb9b418" x1="112.33" y1="220.16" x2="112.33" y2="268.02"/><rect class="b543ed72-3283-4ca8-9d20-84ee32e50aaa" x="111.49" y="220.16" width="1.66" height="47.86"/><line class="ae80f1b4-99e8-4345-921f-61f4bcb9b418" x1="88.4" y1="244.09" x2="136.26" y2="244.09"/><rect class="b543ed72-3283-4ca8-9d20-84ee32e50aaa" x="88.4" y="243.26" width="47.86" height="1.66"/><path class="af7feda1-3090-4c90-97a1-dbf87b499ea7" d="M104.25,223.89a12.25,12.25,0,0,0-7.77,3.73c-1.9,1.89,1,4.83,2.94,2.94a7.83,7.83,0,0,1,4.83-2.51c2.65-.21,2.67-4.37,0-4.16Z"/><path class="af7feda1-3090-4c90-97a1-dbf87b499ea7" d="M92,249.54a13.07,13.07,0,0,0,3.59,11.61c1.88,1.9,4.82-1,2.94-2.94A8.68,8.68,0,0,1,96,250.64c.43-2.62-3.57-3.74-4-1.1Z"/><path class="ba4d14c2-b4c2-424e-b229-b7931cf73afc" d="M109.59,7.41,10.16,147.74A3.35,3.35,0,0,0,12.89,153H211.76a3.35,3.35,0,0,0,2.73-5.29L115.06,7.41A3.35,3.35,0,0,0,109.59,7.41Z"/><rect class="bcd8d5be-4ab8-499e-a40e-314c4618a04d" x="95.5" y="291.01" width="1.66" height="26.09"/><rect class="bcd8d5be-4ab8-499e-a40e-314c4618a04d" x="108.78" y="291.01" width="1.66" height="4.81"/><rect class="bcd8d5be-4ab8-499e-a40e-314c4618a04d" x="114.64" y="291.01" width="1.66" height="26.41"/><rect class="bcd8d5be-4ab8-499e-a40e-314c4618a04d" x="129.07" y="291.01" width="1.66" height="18.18"/><rect class="fbe9c154-08ec-42b9-a156-ef5701ff1aee" x="89.74" y="291.01" width="45.18" height="75.49" rx="3.33"/><path class="b543ed72-3283-4ca8-9d20-84ee32e50aaa" d="M129.39,367.33H95.27A6.37,6.37,0,0,1,88.91,361V296.54a6.36,6.36,0,0,1,6.36-6.36h34.12a6.37,6.37,0,0,1,6.36,6.36V361A6.38,6.38,0,0,1,129.39,367.33ZM95.27,291.84a4.71,4.71,0,0,0-4.7,4.7V361a4.7,4.7,0,0,0,4.7,4.69h34.12a4.69,4.69,0,0,0,4.69-4.69V296.54a4.7,4.7,0,0,0-4.69-4.7Z"/><rect class="bcd8d5be-4ab8-499e-a40e-314c4618a04d" x="95.5" y="326.61" width="1.66" height="39.88"/><rect class="bcd8d5be-4ab8-499e-a40e-314c4618a04d" x="101.57" y="291.01" width="1.66" height="42.13"/><rect class="bcd8d5be-4ab8-499e-a40e-314c4618a04d" x="101.57" y="338.91" width="1.66" height="27.59"/><rect class="bcd8d5be-4ab8-499e-a40e-314c4618a04d" x="108.78" y="298.92" width="1.66" height="23.63"/><rect class="bcd8d5be-4ab8-499e-a40e-314c4618a04d" x="108.78" y="327.04" width="1.66" height="39.46"/><rect class="bcd8d5be-4ab8-499e-a40e-314c4618a04d" x="114.64" y="331.74" width="1.66" height="26.73"/><rect class="bcd8d5be-4ab8-499e-a40e-314c4618a04d" x="114.64" y="360.87" width="1.66" height="5.63"/><rect class="bcd8d5be-4ab8-499e-a40e-314c4618a04d" x="114.64" y="319.32" width="1.66" height="7.29"/><rect class="bcd8d5be-4ab8-499e-a40e-314c4618a04d" x="122.69" y="291.65" width="1.66" height="30.47"/><rect class="bcd8d5be-4ab8-499e-a40e-314c4618a04d" x="122.69" y="325.54" width="1.66" height="18.39"/><rect class="bcd8d5be-4ab8-499e-a40e-314c4618a04d" x="122.69" y="348.85" width="1.66" height="17.32"/><rect class="bcd8d5be-4ab8-499e-a40e-314c4618a04d" x="129.07" y="315.92" width="1.66" height="50.25"/><ellipse class="b543ed72-3283-4ca8-9d20-84ee32e50aaa" cx="128.39" cy="324.72" rx="3.71" ry="3.79"/><path class="af7feda1-3090-4c90-97a1-dbf87b499ea7" d="M127.33,321.78a2.63,2.63,0,0,0-1,.92c-.3.44.42.85.72.42a1.86,1.86,0,0,1,.74-.62c.48-.24.06-.95-.42-.72Z"/><path class="af7feda1-3090-4c90-97a1-dbf87b499ea7" d="M125.87,324.14a2.79,2.79,0,0,0,3,2.94c.53,0,.53-.81,0-.83a2,2,0,0,1-2.13-2.11c0-.53-.8-.53-.83,0Z"/><path class="f669cf8b-f744-44a0-b8d0-f60b46474d6a" d="M45,130.09A349.39,349.39,0,0,1,67.42,93c3.06-4.41-4.14-8.57-7.17-4.2a347.81,347.81,0,0,0-22.42,37.05c-2.47,4.74,4.7,8.94,7.18,4.2Z"/><path class="f669cf8b-f744-44a0-b8d0-f60b46474d6a" d="M115.54,34.21,133.6,57.73c3.22,4.18,10.44.05,7.18-4.2L122.72,30c-3.21-4.19-10.44-.05-7.18,4.19Z"/><path class="f669cf8b-f744-44a0-b8d0-f60b46474d6a" d="M189.46,136.09c.88.78,2.62,2.38,1.69,3.53-1.22,1.5-4.6,1.54-6.3,1.48-5.35-.18-5.34,8.13,0,8.32,4.78.16,11-1.29,13.6-5.72,2.75-4.66.64-10.14-3.11-13.49-4-3.55-9.88,2.31-5.88,5.88Z"/><path class="af7feda1-3090-4c90-97a1-dbf87b499ea7" d="M90,63.52A29,29,0,0,0,93.71,58a4.15,4.15,0,1,0-7.17-4.2,23.56,23.56,0,0,1-1.33,2.29,7,7,0,0,1-.75,1.09c.72-.71-.25.29-.38.45-1.4,1.66-1.75,4.27,0,5.88,1.54,1.42,4.38,1.77,5.87,0Z"/><path class="af7feda1-3090-4c90-97a1-dbf87b499ea7" d="M157.43,147.93l3.88-.34c2.16-.2,4.26-1.78,4.15-4.16-.09-2.09-1.83-4.36-4.15-4.16l-3.88.34c-2.16.19-4.26,1.78-4.15,4.16.09,2.09,1.83,4.36,4.15,4.16Z"/><path class="b60aaa0e-653c-4490-aebe-06b4cc50dd81" d="M176.83,162.72v57.36c0,5.34,8.31,5.35,8.31,0V162.72c0-5.35-8.31-5.36-8.31,0Z"/><path class="b60aaa0e-653c-4490-aebe-06b4cc50dd81" d="M40.91,320.24v32.42c0,5.35,8.32,5.36,8.32,0V320.24c0-5.35-8.32-5.35-8.32,0Z"/><path class="b543ed72-3283-4ca8-9d20-84ee32e50aaa" d="M112.33,7.61A5.53,5.53,0,0,1,116.87,10L212,144.24a5.57,5.57,0,0,1-4.54,8.79H191.05V355.85a10.65,10.65,0,0,1-10.64,10.65H44.25A10.65,10.65,0,0,1,33.6,355.85V153H17.18a5.57,5.57,0,0,1-4.54-8.79L55.11,84.31V33.44a9.15,9.15,0,0,1,9.12-9.13h5.91a9.16,9.16,0,0,1,9.13,9.13V50.21L107.78,10a5.53,5.53,0,0,1,4.55-2.35m0-7.61a13.21,13.21,0,0,0-10.76,5.56L85.87,27.72a16.75,16.75,0,0,0-15.73-11H64.23A16.76,16.76,0,0,0,47.49,33.44V81.88l-41.06,58a13.18,13.18,0,0,0,10.75,20.8H26V355.85a18.28,18.28,0,0,0,18.26,18.26H180.41a18.28,18.28,0,0,0,18.25-18.26V160.64h8.81a13.18,13.18,0,0,0,10.75-20.8L123.08,5.56A13.21,13.21,0,0,0,112.33,0Z"/><ellipse class="e629a323-7e67-4fe4-816d-3f0f7161baf8" cx="29.93" cy="355.3" rx="29.93" ry="26.8"/><path class="a6eca670-3efb-4ec1-9f0a-6163f29d9a44" d="M32.9,344.23c2.67,0,2.67-4.15,0-4.15s-2.68,4.15,0,4.15Z"/><path class="a6eca670-3efb-4ec1-9f0a-6163f29d9a44" d="M18.34,355.52l-.28-.56a2.08,2.08,0,1,0-3.58,2.1l.27.55a2.08,2.08,0,1,0,3.59-2.09Z"/><path class="a6eca670-3efb-4ec1-9f0a-6163f29d9a44" d="M43.7,358.92c2.68,0,2.68-4.16,0-4.16s-2.68,4.16,0,4.16Z"/><path class="a6eca670-3efb-4ec1-9f0a-6163f29d9a44" d="M48.22,341.24l-.28-.28c-1.89-1.89-4.83,1.05-2.94,2.94l.28.28c1.89,1.89,4.83-1,2.94-2.94Z"/><path class="a6eca670-3efb-4ec1-9f0a-6163f29d9a44" d="M16.93,340l.28-.83a2.08,2.08,0,0,0-4-1.11l-.27.84a2.07,2.07,0,1,0,4,1.1Z"/><path class="a6eca670-3efb-4ec1-9f0a-6163f29d9a44" d="M15,366.82c-.21-.52-.21.51,0,0a2.09,2.09,0,0,0-1.45-2.56,2.14,2.14,0,0,0-2.56,1.45,3.06,3.06,0,0,0,0,2.21,2.13,2.13,0,0,0,2.55,1.45A2.09,2.09,0,0,0,15,366.82Z"/><path class="b4e61411-9522-49fa-8bda-146b566afc01" d="M34.56,353.93c2.67,0,2.68-4.15,0-4.15s-2.68,4.15,0,4.15Z"/><path class="b4e61411-9522-49fa-8bda-146b566afc01" d="M54.51,358.64c2.67,0,2.68-4.15,0-4.15s-2.68,4.15,0,4.15Z"/><path class="b4e61411-9522-49fa-8bda-146b566afc01" d="M36.63,365.49l-.28-.55a2.09,2.09,0,0,0-2.84-.75,2.12,2.12,0,0,0-.75,2.84l.28.56a2.08,2.08,0,0,0,3.59-2.1Z"/><path class="b4e61411-9522-49fa-8bda-146b566afc01" d="M7.13,351.16c2.67,0,2.67-4.15,0-4.15s-2.68,4.15,0,4.15Z"/></g></g></svg>