<svg xmlns="http://www.w3.org/2000/svg" viewBox="0 0 306.28 345.8"><defs><style>.a7244c69-2e17-46e1-8549-828105499884{fill:#40220f;}.a49a34cd-f26b-4b60-bc7c-f910b095fe94{fill:#3e3a39;}.bc2e4f11-9d72-4e11-8854-50d656011559{fill:#c9caca;}.a4cbbfba-b6ab-4ca6-8c76-ff662e9998b8{fill:#ea5514;}.bf58740a-07fe-4c6b-8aa6-0d446265ad5f{fill:#6a3906;}.ba850006-1270-4cd4-915b-174de81d1742{fill:#172a88;}.b6ce5b22-503a-4c96-8a4b-71e13143987e{fill:#171c61;}.bb17495f-ed97-44de-b395-42c805e200b5{fill:#fff;}.bffcc308-cb8b-4673-bca8-9962c38da02e{fill:#b1dee9;}.ab8a7dcd-6d88-4a06-a36a-d6703e0259df{fill:#727171;}.aefa45b4-6f73-4d9c-bdad-173c6728aab2{fill:#b5b5b6;}.a4f6c4ec-4785-418c-b326-f20cca891d1b{fill:#c73410;}.ad304bc1-4fcc-433b-9047-98dd7bdfb7b8{fill:#fbddc4;}.b46ae969-a00a-438a-907b-b28dba974be8{fill:#3c7653;}.aa2f30f6-1f9c-44b0-b3a4-c3893a5141c8{fill:#f39800;}.b3225036-5135-4c70-be63-0bf9dc547868{fill:#fbe2ed;}</style></defs><title>橘</title><g id="ec6f483d-2041-4197-8fbf-000240a62ad1" data-name="圖層 2"><g id="a9f0cfcf-f6da-4815-9db3-7dee2c40e66e" data-name="圖層 1"><path class="a7244c69-2e17-46e1-8549-828105499884" d="M231.07,6.65A9,9,0,0,1,240,15.56V74.77l55.77,45.65A10.48,10.48,0,0,1,289.13,139H276.74V314.45a7.87,7.87,0,0,1-7.87,7.87H37.42a7.87,7.87,0,0,1-7.88-7.87V139H17.16a10.48,10.48,0,0,1-6.64-18.59l136-111.3a10.49,10.49,0,0,1,13.28,0l52.06,42.61V15.56a8.94,8.94,0,0,1,8.91-8.91h10.32m0-6.65H220.75a15.58,15.58,0,0,0-15.56,15.56V37.69L164,4a17.14,17.14,0,0,0-21.7,0l-136,111.3a17.13,17.13,0,0,0,10.85,30.39h5.73V314.45A14.54,14.54,0,0,0,37.42,329H268.87a14.54,14.54,0,0,0,14.52-14.52V145.66h5.74A17.13,17.13,0,0,0,300,115.27L246.64,71.62V15.56A15.59,15.59,0,0,0,231.07,0Z"/><rect class="a49a34cd-f26b-4b60-bc7c-f910b095fe94" x="211.84" y="6.65" width="28.15" height="82.11" rx="5.36"/><rect class="bc2e4f11-9d72-4e11-8854-50d656011559" x="29.54" y="125.77" width="247.19" height="196.55" rx="4.73"/><path class="a4cbbfba-b6ab-4ca6-8c76-ff662e9998b8" d="M147.44,8.35,7.31,123A9,9,0,0,0,13,139H293.27a9,9,0,0,0,5.7-16L158.84,8.35A9,9,0,0,0,147.44,8.35Z"/><rect class="bf58740a-07fe-4c6b-8aa6-0d446265ad5f" x="130.45" y="236.5" width="1.66" height="29.66"/><rect class="bf58740a-07fe-4c6b-8aa6-0d446265ad5f" x="148.42" y="236.5" width="1.66" height="5.47"/><rect class="bf58740a-07fe-4c6b-8aa6-0d446265ad5f" x="156.35" y="236.5" width="1.66" height="30.02"/><rect class="bf58740a-07fe-4c6b-8aa6-0d446265ad5f" x="175.87" y="236.5" width="1.66" height="20.66"/><rect class="ba850006-1270-4cd4-915b-174de81d1742" x="122.36" y="236.5" width="61.13" height="85.82" rx="3.33"/><path class="a7244c69-2e17-46e1-8549-828105499884" d="M178,323.16H127.89a6.37,6.37,0,0,1-6.36-6.37V242a6.36,6.36,0,0,1,6.36-6.36H178a6.37,6.37,0,0,1,6.36,6.36v74.76A6.38,6.38,0,0,1,178,323.16Zm-50.07-85.83a4.71,4.71,0,0,0-4.7,4.7v74.76a4.7,4.7,0,0,0,4.7,4.7H178a4.69,4.69,0,0,0,4.69-4.7V242a4.7,4.7,0,0,0-4.69-4.7Z"/><path class="b6ce5b22-503a-4c96-8a4b-71e13143987e" d="M131.28,322.32a1.66,1.66,0,0,1-1.66-1.66V275.32a1.67,1.67,0,0,1,3.33,0v45.34A1.66,1.66,0,0,1,131.28,322.32Z"/><path class="b6ce5b22-503a-4c96-8a4b-71e13143987e" d="M139.49,286.06a1.66,1.66,0,0,1-1.66-1.66V240.06a1.66,1.66,0,0,1,3.32,0V284.4A1.66,1.66,0,0,1,139.49,286.06Z"/><path class="b6ce5b22-503a-4c96-8a4b-71e13143987e" d="M139.49,322.32a1.66,1.66,0,0,1-1.66-1.66V293.39a1.66,1.66,0,0,1,3.32,0v27.27A1.66,1.66,0,0,1,139.49,322.32Z"/><path class="b6ce5b22-503a-4c96-8a4b-71e13143987e" d="M149.25,274a1.66,1.66,0,0,1-1.66-1.66V245.5a1.67,1.67,0,0,1,3.33,0v26.86A1.66,1.66,0,0,1,149.25,274Z"/><path class="b6ce5b22-503a-4c96-8a4b-71e13143987e" d="M149.25,319a1.66,1.66,0,0,1-1.66-1.67v-39.9a1.67,1.67,0,0,1,3.33,0v39.9A1.67,1.67,0,0,1,149.25,319Z"/><path class="b6ce5b22-503a-4c96-8a4b-71e13143987e" d="M157.18,309.88a1.66,1.66,0,0,1-1.66-1.66V277.83a1.66,1.66,0,0,1,3.32,0v30.39A1.66,1.66,0,0,1,157.18,309.88Z"/><path class="b6ce5b22-503a-4c96-8a4b-71e13143987e" d="M157.18,320.66a1.66,1.66,0,0,1-1.66-1.66v-6.4a1.66,1.66,0,1,1,3.32,0V319A1.66,1.66,0,0,1,157.18,320.66Z"/><path class="b6ce5b22-503a-4c96-8a4b-71e13143987e" d="M157.18,273.66a1.66,1.66,0,0,1-1.66-1.67v-8.28a1.66,1.66,0,1,1,3.32,0V272A1.66,1.66,0,0,1,157.18,273.66Z"/><path class="b6ce5b22-503a-4c96-8a4b-71e13143987e" d="M168.07,273.54a1.66,1.66,0,0,1-1.66-1.66V240.06a1.66,1.66,0,0,1,3.32,0v31.82A1.66,1.66,0,0,1,168.07,273.54Z"/><path class="b6ce5b22-503a-4c96-8a4b-71e13143987e" d="M168.07,298.34a1.66,1.66,0,0,1-1.66-1.67v-20.9a1.66,1.66,0,1,1,3.32,0v20.9A1.66,1.66,0,0,1,168.07,298.34Z"/><path class="b6ce5b22-503a-4c96-8a4b-71e13143987e" d="M168.07,320.66a1.66,1.66,0,0,1-1.66-1.66V302.27a1.66,1.66,0,1,1,3.32,0V319A1.66,1.66,0,0,1,168.07,320.66Z"/><path class="b6ce5b22-503a-4c96-8a4b-71e13143987e" d="M176.7,320.66A1.66,1.66,0,0,1,175,319V264.83a1.67,1.67,0,1,1,3.33,0V319A1.66,1.66,0,0,1,176.7,320.66Z"/><ellipse class="a7244c69-2e17-46e1-8549-828105499884" cx="174.66" cy="274.83" rx="5.02" ry="4.31"/><path class="bb17495f-ed97-44de-b395-42c805e200b5" d="M173.4,271.5a3.19,3.19,0,0,0-1.39,1c-.33.41.25,1,.59.58a2.35,2.35,0,0,1,1-.76c.49-.2.27-1-.22-.8Z"/><path class="bb17495f-ed97-44de-b395-42c805e200b5" d="M171.4,274.17c-.15,2.21,1.87,3.23,3.85,3.29a.42.42,0,0,0,0-.83,4.11,4.11,0,0,1-2.11-.58,1.79,1.79,0,0,1-.91-1.88c0-.53-.8-.53-.83,0Z"/><rect class="bffcc308-cb8b-4673-bca8-9962c38da02e" x="50.77" y="160.95" width="59.64" height="59.64" rx="12"/><path class="a7244c69-2e17-46e1-8549-828105499884" d="M90.46,221.42H70.72a20.8,20.8,0,0,1-20.78-20.78V180.9a20.8,20.8,0,0,1,20.78-20.78H90.46a20.8,20.8,0,0,1,20.78,20.78v19.74A20.8,20.8,0,0,1,90.46,221.42ZM70.72,161.78A19.15,19.15,0,0,0,51.6,180.9v19.74a19.15,19.15,0,0,0,19.12,19.12H90.46a19.15,19.15,0,0,0,19.12-19.12V180.9a19.15,19.15,0,0,0-19.12-19.12Z"/><line class="bffcc308-cb8b-4673-bca8-9962c38da02e" x1="80.59" y1="160.95" x2="80.59" y2="220.59"/><rect class="a7244c69-2e17-46e1-8549-828105499884" x="79.76" y="160.95" width="1.66" height="59.64"/><line class="bffcc308-cb8b-4673-bca8-9962c38da02e" x1="50.77" y1="190.77" x2="110.41" y2="190.77"/><rect class="a7244c69-2e17-46e1-8549-828105499884" x="50.77" y="189.94" width="59.64" height="1.66"/><path class="bb17495f-ed97-44de-b395-42c805e200b5" d="M70.52,166.11c-7.22.69-11.57,6.27-14.42,12.45-1.11,2.41,2.47,4.52,3.59,2.1,2.13-4.61,5.22-9.86,10.83-10.4,2.64-.25,2.67-4.41,0-4.15Z"/><path class="bb17495f-ed97-44de-b395-42c805e200b5" d="M55.74,197.68c-1.29,8.18,3,13.85,9.82,17.78,2.32,1.34,4.42-2.25,2.1-3.59-5-2.9-8.91-6.8-7.91-13.08.41-2.62-3.59-3.74-4-1.11Z"/><rect class="bffcc308-cb8b-4673-bca8-9962c38da02e" x="195.87" y="160.95" width="59.64" height="59.64" rx="12"/><path class="a7244c69-2e17-46e1-8549-828105499884" d="M235.56,221.42H215.82A20.81,20.81,0,0,1,195,200.64V180.9a20.81,20.81,0,0,1,20.78-20.78h19.74a20.8,20.8,0,0,1,20.78,20.78v19.74A20.8,20.8,0,0,1,235.56,221.42Zm-19.74-59.64a19.14,19.14,0,0,0-19.11,19.12v19.74a19.14,19.14,0,0,0,19.11,19.12h19.74a19.15,19.15,0,0,0,19.12-19.12V180.9a19.15,19.15,0,0,0-19.12-19.12Z"/><line class="bffcc308-cb8b-4673-bca8-9962c38da02e" x1="225.69" y1="160.95" x2="225.69" y2="220.59"/><rect class="a7244c69-2e17-46e1-8549-828105499884" x="224.86" y="160.95" width="1.66" height="59.64"/><line class="bffcc308-cb8b-4673-bca8-9962c38da02e" x1="195.87" y1="190.77" x2="255.51" y2="190.77"/><rect class="a7244c69-2e17-46e1-8549-828105499884" x="195.87" y="189.94" width="59.64" height="1.66"/><path class="bb17495f-ed97-44de-b395-42c805e200b5" d="M215.63,166.11c-7.22.69-11.57,6.27-14.42,12.45-1.12,2.41,2.47,4.52,3.59,2.1,2.13-4.61,5.22-9.86,10.83-10.4,2.64-.25,2.66-4.41,0-4.15Z"/><path class="bb17495f-ed97-44de-b395-42c805e200b5" d="M200.84,197.68c-1.29,8.18,3,13.85,9.83,17.78,2.32,1.34,4.41-2.25,2.1-3.59-5-2.9-8.91-6.8-7.92-13.08.42-2.62-3.59-3.74-4-1.11Z"/><path class="ab8a7dcd-6d88-4a06-a36a-d6703e0259df" d="M218.35,15.05c2.68,0,2.68-4.15,0-4.15s-2.68,4.15,0,4.15Z"/><path class="ab8a7dcd-6d88-4a06-a36a-d6703e0259df" d="M215.48,20.41a219.8,219.8,0,0,0,1.19,29.92c.28,2.63,4.44,2.66,4.15,0a221.43,221.43,0,0,1-1.19-29.92c.08-2.68-4.08-2.68-4.15,0Z"/><path class="aefa45b4-6f73-4d9c-bdad-173c6728aab2" d="M203.05,257.47c17.92-2.1,36.75-.33,54.78-.18,4,0,4-6.2,0-6.24-18-.15-36.86-1.92-54.78.19-3.94.46-4,6.7,0,6.23Z"/><path class="aefa45b4-6f73-4d9c-bdad-173c6728aab2" d="M243.19,270.47q10.92-.42,21.86-.55c4,0,4-6.27,0-6.23q-10.94.12-21.86.55c-4,.16-4,6.39,0,6.23Z"/><path class="aefa45b4-6f73-4d9c-bdad-173c6728aab2" d="M196.07,303.29q20.51.31,41,1.75c4,.28,4-6,0-6.24q-20.46-1.44-41-1.75c-4-.06-4,6.18,0,6.24Z"/><path class="aefa45b4-6f73-4d9c-bdad-173c6728aab2" d="M193.31,314.71h10.4c4,0,4-6.23,0-6.23h-10.4c-4,0-4,6.23,0,6.23Z"/><path class="aefa45b4-6f73-4d9c-bdad-173c6728aab2" d="M38.16,252.82q34.2-.45,68.33,1.86c4,.28,4-6,0-6.23q-34.12-2.31-68.33-1.86c-4,0-4,6.28,0,6.23Z"/><path class="aefa45b4-6f73-4d9c-bdad-173c6728aab2" d="M41.14,263.1,53,262.89c4-.07,4-6.31,0-6.24l-11.88.21c-4,.07-4,6.31,0,6.24Z"/><path class="aefa45b4-6f73-4d9c-bdad-173c6728aab2" d="M63.4,302.73q21.75-1.53,43.53-1.57c4,0,4-6.24,0-6.23q-21.79,0-43.53,1.56c-4,.28-4,6.52,0,6.24Z"/><path class="aefa45b4-6f73-4d9c-bdad-173c6728aab2" d="M90.8,311.33l15.28-.47c4-.13,4-6.36,0-6.24l-15.28.48c-4,.12-4,6.36,0,6.23Z"/><path class="aefa45b4-6f73-4d9c-bdad-173c6728aab2" d="M126.66,224.26q23.25-.75,46.49-.32c4,.07,4-6.16,0-6.23q-23.25-.44-46.49.32c-4,.13-4,6.36,0,6.23Z"/><path class="aefa45b4-6f73-4d9c-bdad-173c6728aab2" d="M162.53,215.08a74.29,74.29,0,0,1,13.17-.52c4,.2,4-6,0-6.24a74.3,74.3,0,0,0-13.17.53,3.23,3.23,0,0,0-3.12,3.12c0,1.51,1.45,3.33,3.12,3.11Z"/><path class="aefa45b4-6f73-4d9c-bdad-173c6728aab2" d="M49.85,152.79a160.18,160.18,0,0,1,25.26.37c4,.37,4-5.87,0-6.24a162.62,162.62,0,0,0-25.26-.37c-4,.26-4,6.49,0,6.24Z"/><path class="aefa45b4-6f73-4d9c-bdad-173c6728aab2" d="M37.74,163.19l13.37-.26c4-.07,4-6.31,0-6.23L37.74,157c-4,.08-4,6.31,0,6.24Z"/><path class="aefa45b4-6f73-4d9c-bdad-173c6728aab2" d="M228.55,152.33q11.77.19,23.55.64c4,.15,4-6.08,0-6.23q-11.78-.44-23.55-.65c-4-.07-4,6.16,0,6.24Z"/><path class="aefa45b4-6f73-4d9c-bdad-173c6728aab2" d="M256.35,164.45a89.78,89.78,0,0,0,10-.45,3.2,3.2,0,0,0,3.12-3.12,3.14,3.14,0,0,0-3.12-3.12,89.79,89.79,0,0,1-10,.46c-4-.05-4,6.19,0,6.23Z"/><path class="a4f6c4ec-4785-418c-b326-f20cca891d1b" d="M79,93.07a467,467,0,0,1,45.23-41.69c4.17-3.36-1.75-9.21-5.88-5.88A465.76,465.76,0,0,0,73.12,87.19C69.43,91.07,75.3,97,79,93.07Z"/><path class="a4f6c4ec-4785-418c-b326-f20cca891d1b" d="M254.66,109.68a53.86,53.86,0,0,1,7.09,4.9c1.84,1.53,4.9,3.62,5.92,5.82,2.32,5-12.16,3.1-14.6,2.43-5.16-1.41-7.37,6.6-2.21,8,7.44,2,23.2,3.12,25.62-7,2.19-9.18-11.15-17.48-17.63-21.33-4.61-2.74-8.79,4.45-4.19,7.18Z"/><path class="a4f6c4ec-4785-418c-b326-f20cca891d1b" d="M31.68,127.21a29.63,29.63,0,0,0,7.34-.57,4.17,4.17,0,0,0,2.9-5.11,4.26,4.26,0,0,0-5.11-2.91,20.84,20.84,0,0,1-5.13.28,4.18,4.18,0,0,0-4.15,4.16,4.24,4.24,0,0,0,4.15,4.15Z"/><path class="ad304bc1-4fcc-433b-9047-98dd7bdfb7b8" d="M154.66,25.69l3.72,2.53a4.18,4.18,0,0,0,5.69-1.49A4.27,4.27,0,0,0,162.58,21l-3.72-2.52A4.18,4.18,0,0,0,153.17,20a4.26,4.26,0,0,0,1.49,5.68Z"/><path class="ad304bc1-4fcc-433b-9047-98dd7bdfb7b8" d="M245.07,128.16a50.15,50.15,0,0,0,18-.62c5.23-1.14,3-9.16-2.21-8a38.92,38.92,0,0,1-13.57.62c-2.24-.31-4.44.54-5.11,2.9-.56,1.94.68,4.81,2.9,5.11Z"/><path class="ad304bc1-4fcc-433b-9047-98dd7bdfb7b8" d="M41.81,126.63a8.59,8.59,0,0,0,5.7-.78A4.19,4.19,0,0,0,49,120.16a4.25,4.25,0,0,0-5.68-1.49c.6-.23.7-.27.27-.12s-.33.09,0,0,.4,0,0,0-.35,0,.33.07a4.46,4.46,0,0,0-3.2.42,4.24,4.24,0,0,0-1.91,2.48c-.46,2,.62,4.71,2.91,5.11Z"/><path class="bb17495f-ed97-44de-b395-42c805e200b5" d="M131.83,240.09c-1.79,0-3.77.24-4.87,1.86-1.26,1.83-1,4.75-1.13,6.85-.1,1.33,2,1.32,2.08,0a26.88,26.88,0,0,1,.42-4.84c.45-1.68,2-1.76,3.5-1.79a1,1,0,0,0,0-2.08Z"/><path class="bb17495f-ed97-44de-b395-42c805e200b5" d="M178.17,307a77,77,0,0,0-.16,8.73c.05,1.33,2.13,1.34,2.08,0a74.78,74.78,0,0,1,.16-8.73c.1-1.33-2-1.33-2.08,0Z"/><path class="bb17495f-ed97-44de-b395-42c805e200b5" d="M269.15,228.91a1.66,1.66,0,0,1-1.66-1.66V173.9a1.66,1.66,0,1,1,3.32,0v53.35A1.66,1.66,0,0,1,269.15,228.91Z"/><path class="bb17495f-ed97-44de-b395-42c805e200b5" d="M57.51,317.37H44.58a8.51,8.51,0,0,1-8.5-8.5V297.42a1.66,1.66,0,1,1,3.32,0v11.45a5.19,5.19,0,0,0,5.18,5.18H57.51a1.66,1.66,0,1,1,0,3.32Z"/><ellipse class="b46ae969-a00a-438a-907b-b28dba974be8" cx="257.83" cy="319" rx="29.93" ry="26.8"/><ellipse class="b46ae969-a00a-438a-907b-b28dba974be8" cx="285.1" cy="322.32" rx="20.05" ry="17.95"/><path class="aa2f30f6-1f9c-44b0-b3a4-c3893a5141c8" d="M259.43,308v-.28c0-2.67-4.16-2.68-4.16,0V308c0,2.67,4.16,2.68,4.16,0Z"/><path class="aa2f30f6-1f9c-44b0-b3a4-c3893a5141c8" d="M277.3,312.8c2.68,0,2.68-4.16,0-4.16s-2.68,4.16,0,4.16Z"/><path class="aa2f30f6-1f9c-44b0-b3a4-c3893a5141c8" d="M231.86,325h-.28c-2.67,0-2.68,4.16,0,4.16h.28c2.67,0,2.68-4.16,0-4.16Z"/><path class="aa2f30f6-1f9c-44b0-b3a4-c3893a5141c8" d="M258.74,337.46c2.67,0,2.68-4.16,0-4.16s-2.68,4.16,0,4.16Z"/><path class="aa2f30f6-1f9c-44b0-b3a4-c3893a5141c8" d="M249,311.14h-.28c-2.67,0-2.68,4.15,0,4.15H249c2.67,0,2.68-4.15,0-4.15Z"/><path class="aa2f30f6-1f9c-44b0-b3a4-c3893a5141c8" d="M286.17,328.32c2.67,0,2.68-4.16,0-4.16s-2.68,4.16,0,4.16Z"/><path class="aa2f30f6-1f9c-44b0-b3a4-c3893a5141c8" d="M297,314.74c2.67,0,2.68-4.16,0-4.16s-2.68,4.16,0,4.16Z"/><path class="aa2f30f6-1f9c-44b0-b3a4-c3893a5141c8" d="M263.45,323.88c2.67,0,2.68-4.15,0-4.15s-2.68,4.15,0,4.15Z"/><path class="b3225036-5135-4c70-be63-0bf9dc547868" d="M240.09,302.32l-.28.28c-1.89,1.9,1.05,4.84,2.94,2.94l.28-.28c1.89-1.89-1.05-4.83-2.94-2.94Z"/><path class="b3225036-5135-4c70-be63-0bf9dc547868" d="M267.33,300.33c2.67,0,2.68-4.16,0-4.16s-2.68,4.16,0,4.16Z"/><path class="b3225036-5135-4c70-be63-0bf9dc547868" d="M249.32,329.7c2.67,0,2.68-4.15,0-4.15s-2.68,4.15,0,4.15Z"/><path class="b3225036-5135-4c70-be63-0bf9dc547868" d="M284,315.57c2.68,0,2.68-4.16,0-4.16s-2.68,4.16,0,4.16Z"/><path class="b3225036-5135-4c70-be63-0bf9dc547868" d="M298.92,329.42c2.67,0,2.67-4.15,0-4.15s-2.68,4.15,0,4.15Z"/></g></g></svg>