<svg xmlns="http://www.w3.org/2000/svg" viewBox="0 0 233.17 260.09"><defs><style>.f07c39f5-57ce-4e02-9964-d6782c52d9b2{fill:#40220f;}.ad462b96-29cb-4752-9a88-179f3238111d{fill:#3e3a39;}.bebe53b6-9cb8-4e21-aedf-2a2118ecdfb9{fill:#0095be;}.ac9e15e6-64f4-4c54-a9e8-433bb3343e97{fill:#fcc800;}.e0e173ea-536a-4651-8ff9-0fd33abc60f1{fill:#6a3906;}.f3df05e0-f751-44a9-b5fd-1124be4d5648{fill:#172a88;}.a9ce7c27-1924-48ff-a378-d71e8e970382{fill:#171c61;}.f0a222a9-be51-464b-b334-28a6593d23a5{fill:#fff;}.a2ea7517-fd02-4c0f-95c2-befb6a99649b{fill:#b1dee9;}.baa31c9c-2c03-4e92-89ec-c35860c66d3e{fill:#727171;}.a7f94ff2-91d7-4449-9cb9-a498655ab94f{fill:#77b1ce;}.fdb8d5dd-9e82-413e-9c3c-06ec0f89cb8f{fill:#f18b03;}.a0838bd6-52d8-4e7b-9d9c-8b12d3d79888{fill:#fbddc4;}.e2d95ceb-e2ae-4137-a50d-1b13ee9b0ab0{fill:#fff352;}.aa66d4c4-ac40-4060-bf0d-10c50391cfe6{fill:#f2998b;}.f02a4b14-6ea4-46df-b95e-5354e16a0ed8{fill:#f2985b;}</style></defs><title>黃</title><g id="ae52615c-c048-4fef-bf3e-1e407a678870" data-name="圖層 2"><g id="b0f931e5-d2d5-4a7d-825b-14a4a75ee142" data-name="圖層 1"><path class="f07c39f5-57ce-4e02-9964-d6782c52d9b2" d="M175.58,5.05a6.8,6.8,0,0,1,6.77,6.78v45L224.73,91.5a8,8,0,0,1-5,14.12h-9.41V238.93a6,6,0,0,1-6,6H28.43a6,6,0,0,1-6-6V105.62H13A8,8,0,0,1,8,91.5L111.32,6.93a8,8,0,0,1,10.08,0L161,39.31V11.83a6.8,6.8,0,0,1,6.78-6.78h7.84m0-5h-7.84a11.84,11.84,0,0,0-11.83,11.83V28.64L124.61,3a13,13,0,0,0-16.49,0L4.79,87.59A13,13,0,0,0,13,110.67H17.4V238.93a11,11,0,0,0,11,11H204.29a11,11,0,0,0,11-11V110.67h4.36a13,13,0,0,0,8.24-23.08L187.4,54.42V11.83A11.84,11.84,0,0,0,175.58,0Z"/><rect class="ad462b96-29cb-4752-9a88-179f3238111d" x="160.96" y="5.05" width="21.39" height="62.39" rx="5.36"/><rect class="bebe53b6-9cb8-4e21-aedf-2a2118ecdfb9" x="22.45" y="95.57" width="187.83" height="149.35" rx="4.73"/><path class="ac9e15e6-64f4-4c54-a9e8-433bb3343e97" d="M111.3,7,8.08,91.43a8,8,0,0,0,5.06,14.19H219.58a8,8,0,0,0,5.07-14.19L121.43,7A8,8,0,0,0,111.3,7Z"/><rect class="e0e173ea-536a-4651-8ff9-0fd33abc60f1" x="99.12" y="179.7" width="1.26" height="22.54"/><rect class="e0e173ea-536a-4651-8ff9-0fd33abc60f1" x="112.78" y="179.7" width="1.26" height="4.16"/><rect class="e0e173ea-536a-4651-8ff9-0fd33abc60f1" x="118.8" y="179.7" width="1.26" height="22.81"/><rect class="e0e173ea-536a-4651-8ff9-0fd33abc60f1" x="133.63" y="179.7" width="1.26" height="15.7"/><rect class="f3df05e0-f751-44a9-b5fd-1124be4d5648" x="92.97" y="179.7" width="46.45" height="65.21" rx="3.33"/><path class="f07c39f5-57ce-4e02-9964-d6782c52d9b2" d="M133.89,245.54H98.5a6.16,6.16,0,0,1-6.16-6.16V185.23a6.17,6.17,0,0,1,6.16-6.16h35.39a6.17,6.17,0,0,1,6.16,6.16v54.15A6.16,6.16,0,0,1,133.89,245.54ZM98.5,180.34a4.9,4.9,0,0,0-4.9,4.89v54.15a4.91,4.91,0,0,0,4.9,4.9h35.39a4.91,4.91,0,0,0,4.9-4.9V185.23a4.9,4.9,0,0,0-4.9-4.89Z"/><path class="a9ce7c27-1924-48ff-a378-d71e8e970382" d="M99.75,244.91a1.26,1.26,0,0,1-1.26-1.26V209.2a1.27,1.27,0,1,1,2.53,0v34.45A1.26,1.26,0,0,1,99.75,244.91Z"/><path class="a9ce7c27-1924-48ff-a378-d71e8e970382" d="M106,217.36a1.26,1.26,0,0,1-1.26-1.27V182.41a1.26,1.26,0,0,1,2.52,0v33.68A1.26,1.26,0,0,1,106,217.36Z"/><path class="a9ce7c27-1924-48ff-a378-d71e8e970382" d="M106,244.91a1.25,1.25,0,0,1-1.26-1.26V222.93a1.26,1.26,0,1,1,2.52,0v20.72A1.25,1.25,0,0,1,106,244.91Z"/><path class="a9ce7c27-1924-48ff-a378-d71e8e970382" d="M113.41,208.21a1.26,1.26,0,0,1-1.27-1.26V186.54a1.27,1.27,0,0,1,2.53,0V207A1.25,1.25,0,0,1,113.41,208.21Z"/><path class="a9ce7c27-1924-48ff-a378-d71e8e970382" d="M113.41,242.41a1.26,1.26,0,0,1-1.27-1.26V210.83a1.27,1.27,0,0,1,2.53,0v30.32A1.25,1.25,0,0,1,113.41,242.41Z"/><path class="a9ce7c27-1924-48ff-a378-d71e8e970382" d="M119.43,235.46a1.26,1.26,0,0,1-1.26-1.27V211.1a1.26,1.26,0,0,1,2.52,0v23.09A1.26,1.26,0,0,1,119.43,235.46Z"/><path class="a9ce7c27-1924-48ff-a378-d71e8e970382" d="M119.43,243.65a1.26,1.26,0,0,1-1.26-1.26v-4.86a1.26,1.26,0,1,1,2.52,0v4.86A1.26,1.26,0,0,1,119.43,243.65Z"/><path class="a9ce7c27-1924-48ff-a378-d71e8e970382" d="M119.43,207.93a1.25,1.25,0,0,1-1.26-1.26v-6.3a1.26,1.26,0,0,1,2.52,0v6.3A1.25,1.25,0,0,1,119.43,207.93Z"/><path class="a9ce7c27-1924-48ff-a378-d71e8e970382" d="M127.71,207.84a1.26,1.26,0,0,1-1.27-1.26V182.41a1.27,1.27,0,0,1,2.53,0v24.17A1.25,1.25,0,0,1,127.71,207.84Z"/><path class="a9ce7c27-1924-48ff-a378-d71e8e970382" d="M127.71,226.69a1.27,1.27,0,0,1-1.27-1.27V209.54a1.27,1.27,0,1,1,2.53,0v15.88A1.26,1.26,0,0,1,127.71,226.69Z"/><path class="a9ce7c27-1924-48ff-a378-d71e8e970382" d="M127.71,243.65a1.27,1.27,0,0,1-1.27-1.26V229.67a1.27,1.27,0,0,1,2.53,0v12.72A1.26,1.26,0,0,1,127.71,243.65Z"/><path class="a9ce7c27-1924-48ff-a378-d71e8e970382" d="M134.27,243.65a1.27,1.27,0,0,1-1.27-1.26V201.22a1.27,1.27,0,0,1,2.53,0v41.17A1.27,1.27,0,0,1,134.27,243.65Z"/><ellipse class="f07c39f5-57ce-4e02-9964-d6782c52d9b2" cx="132.72" cy="208.82" rx="3.81" ry="3.28"/><path class="f0a222a9-be51-464b-b334-28a6593d23a5" d="M131.75,206.29a2.61,2.61,0,0,0-1.05.75c-.26.31.19.76.45.44a2,2,0,0,1,.77-.58c.37-.15.21-.76-.17-.61Z"/><path class="f0a222a9-be51-464b-b334-28a6593d23a5" d="M130.23,208.32c-.09,1.69,1.42,2.45,2.93,2.5.41,0,.41-.61,0-.63-1.13,0-2.37-.52-2.3-1.87,0-.4-.6-.4-.63,0Z"/><rect class="a2ea7517-fd02-4c0f-95c2-befb6a99649b" x="38.58" y="122.29" width="45.32" height="45.32" rx="12"/><path class="f07c39f5-57ce-4e02-9964-d6782c52d9b2" d="M63.94,168.24H58.53a20.61,20.61,0,0,1-20.59-20.58v-5.42a20.62,20.62,0,0,1,20.59-20.58h5.41a20.61,20.61,0,0,1,20.58,20.58v5.42A20.6,20.6,0,0,1,63.94,168.24Zm-5.41-45.31a19.33,19.33,0,0,0-19.32,19.31v5.42A19.34,19.34,0,0,0,58.53,167h5.41a19.35,19.35,0,0,0,19.32-19.32v-5.42a19.34,19.34,0,0,0-19.32-19.31Z"/><line class="a2ea7517-fd02-4c0f-95c2-befb6a99649b" x1="61.23" y1="122.29" x2="61.23" y2="167.61"/><rect class="f07c39f5-57ce-4e02-9964-d6782c52d9b2" x="60.6" y="122.29" width="1.26" height="45.32"/><line class="a2ea7517-fd02-4c0f-95c2-befb6a99649b" x1="38.58" y1="144.95" x2="83.89" y2="144.95"/><rect class="f07c39f5-57ce-4e02-9964-d6782c52d9b2" x="38.58" y="144.32" width="45.32" height="1.26"/><path class="f0a222a9-be51-464b-b334-28a6593d23a5" d="M53.59,126.21c-5.49.53-8.79,4.77-11,9.46-.85,1.84,1.87,3.44,2.73,1.6,1.61-3.51,4-7.49,8.23-7.9,2-.19,2-3.35,0-3.16Z"/><path class="f0a222a9-be51-464b-b334-28a6593d23a5" d="M42.35,150.21c-1,6.21,2.31,10.52,7.47,13.5A1.58,1.58,0,0,0,51.41,161c-3.8-2.21-6.77-5.17-6-9.94.31-2-2.73-2.85-3-.84Z"/><rect class="a2ea7517-fd02-4c0f-95c2-befb6a99649b" x="148.83" y="122.29" width="45.32" height="45.32" rx="12"/><path class="f07c39f5-57ce-4e02-9964-d6782c52d9b2" d="M174.2,168.24h-5.42a20.6,20.6,0,0,1-20.58-20.58v-5.42a20.61,20.61,0,0,1,20.58-20.58h5.42a20.61,20.61,0,0,1,20.58,20.58v5.42A20.6,20.6,0,0,1,174.2,168.24Zm-5.42-45.31a19.34,19.34,0,0,0-19.32,19.31v5.42A19.35,19.35,0,0,0,168.78,167h5.42a19.35,19.35,0,0,0,19.32-19.32v-5.42a19.34,19.34,0,0,0-19.32-19.31Z"/><line class="a2ea7517-fd02-4c0f-95c2-befb6a99649b" x1="171.49" y1="122.29" x2="171.49" y2="167.61"/><rect class="f07c39f5-57ce-4e02-9964-d6782c52d9b2" x="170.86" y="122.29" width="1.26" height="45.32"/><line class="a2ea7517-fd02-4c0f-95c2-befb6a99649b" x1="148.83" y1="144.95" x2="194.15" y2="144.95"/><rect class="f07c39f5-57ce-4e02-9964-d6782c52d9b2" x="148.83" y="144.32" width="45.32" height="1.26"/><path class="f0a222a9-be51-464b-b334-28a6593d23a5" d="M163.84,126.21c-5.48.53-8.79,4.77-11,9.46-.85,1.84,1.87,3.44,2.72,1.6,1.62-3.51,4-7.49,8.23-7.9,2-.19,2-3.35,0-3.16Z"/><path class="f0a222a9-be51-464b-b334-28a6593d23a5" d="M152.61,150.21c-1,6.21,2.31,10.52,7.46,13.5a1.58,1.58,0,0,0,1.6-2.72c-3.81-2.21-6.77-5.17-6-9.94.32-2-2.72-2.85-3-.84Z"/><path class="baa31c9c-2c03-4e92-89ec-c35860c66d3e" d="M165.91,11.44a1.58,1.58,0,0,0,0-3.16,1.58,1.58,0,0,0,0,3.16Z"/><path class="baa31c9c-2c03-4e92-89ec-c35860c66d3e" d="M163.73,15.51a165.93,165.93,0,0,0,.9,22.73c.22,2,3.38,2,3.16,0a167.54,167.54,0,0,1-.91-22.73c.06-2-3.1-2-3.15,0Z"/><path class="a7f94ff2-91d7-4449-9cb9-a498655ab94f" d="M154.28,195.64c13.66-1.46,27.9-.26,41.63-.14,3.05,0,3.05-4.71,0-4.74-13.73-.12-28-1.31-41.63.14-3,.32-3,5.06,0,4.74Z"/><path class="a7f94ff2-91d7-4449-9cb9-a498655ab94f" d="M184.78,205.52q8.31-.33,16.61-.42c3.05,0,3.06-4.77,0-4.74q-8.31.09-16.61.42c-3,.12-3.05,4.86,0,4.74Z"/><path class="a7f94ff2-91d7-4449-9cb9-a498655ab94f" d="M149,230.45q15.59.24,31.12,1.33c3,.21,3-4.53,0-4.74q-15.54-1.09-31.12-1.33c-3,0-3,4.69,0,4.74Z"/><path class="a7f94ff2-91d7-4449-9cb9-a498655ab94f" d="M146.89,239.13h7.9c3.05,0,3.05-4.74,0-4.74h-7.9c-3,0-3.06,4.74,0,4.74Z"/><path class="a7f94ff2-91d7-4449-9cb9-a498655ab94f" d="M29,192.1q26-.32,51.91,1.42c3,.2,3-4.54,0-4.74Q55,187,29,187.36c-3.05,0-3.06,4.78,0,4.74Z"/><path class="a7f94ff2-91d7-4449-9cb9-a498655ab94f" d="M31.26,199.91l9-.16c3-.05,3.05-4.79,0-4.74l-9,.16c-3.05.06-3.06,4.79,0,4.74Z"/><path class="a7f94ff2-91d7-4449-9cb9-a498655ab94f" d="M48.17,230q16.53-1.16,33.08-1.19c3,0,3-4.74,0-4.73q-16.56,0-33.08,1.18c-3,.22-3,4.95,0,4.74Z"/><path class="a7f94ff2-91d7-4449-9cb9-a498655ab94f" d="M69,236.56l11.61-.36c3.05-.09,3.06-4.83,0-4.74L69,231.82c-3,.1-3,4.84,0,4.74Z"/><path class="a7f94ff2-91d7-4449-9cb9-a498655ab94f" d="M96.24,170.4q17.67-.57,35.32-.24c3.05.05,3.05-4.68,0-4.74q-17.65-.33-35.32.24c-3,.1-3,4.84,0,4.74Z"/><path class="a7f94ff2-91d7-4449-9cb9-a498655ab94f" d="M123.49,163.43a55.84,55.84,0,0,1,10-.4c3.05.15,3-4.59,0-4.74a56.78,56.78,0,0,0-10,.4,2.45,2.45,0,0,0-2.36,2.37,2.38,2.38,0,0,0,2.36,2.37Z"/><path class="a7f94ff2-91d7-4449-9cb9-a498655ab94f" d="M37.88,116.09a124.2,124.2,0,0,1,19.19.28c3,.29,3-4.45,0-4.73a121.75,121.75,0,0,0-19.19-.28c-3,.19-3.05,4.93,0,4.73Z"/><path class="a7f94ff2-91d7-4449-9cb9-a498655ab94f" d="M28.68,124l10.16-.19c3-.06,3-4.79,0-4.74l-10.16.2c-3.05.06-3.06,4.79,0,4.73Z"/><path class="a7f94ff2-91d7-4449-9cb9-a498655ab94f" d="M173.66,115.74q9,.17,17.9.5c3.05.11,3-4.63,0-4.74q-9-.34-17.9-.5c-3,0-3,4.69,0,4.74Z"/><path class="a7f94ff2-91d7-4449-9cb9-a498655ab94f" d="M194.78,125a68.45,68.45,0,0,0,7.58-.35,2.44,2.44,0,0,0,2.37-2.37,2.39,2.39,0,0,0-2.37-2.37,66.1,66.1,0,0,1-7.58.35c-3.05,0-3.05,4.7,0,4.74Z"/><path class="fdb8d5dd-9e82-413e-9c3c-06ec0f89cb8f" d="M60,71.11A355.25,355.25,0,0,1,94.39,39.43c3.16-2.55-1.33-7-4.47-4.46A355,355,0,0,0,55.56,66.64c-2.8,3,1.65,7.42,4.46,4.47Z"/><path class="fdb8d5dd-9e82-413e-9c3c-06ec0f89cb8f" d="M193.5,83.73a42.32,42.32,0,0,1,5.39,3.72c1.4,1.17,3.72,2.75,4.49,4.43,1.77,3.81-9.23,2.35-11.09,1.84-3.92-1.07-5.6,5-1.68,6.09,5.66,1.56,17.63,2.38,19.47-5.33,1.67-7-8.47-13.28-13.39-16.21-3.51-2.08-6.69,3.38-3.19,5.46Z"/><path class="fdb8d5dd-9e82-413e-9c3c-06ec0f89cb8f" d="M24.07,97.05a21.77,21.77,0,0,0,5.58-.44,3.17,3.17,0,0,0,2.2-3.88A3.24,3.24,0,0,0,28,90.52a15.57,15.57,0,0,1-3.9.21,3.17,3.17,0,0,0-3.15,3.16,3.22,3.22,0,0,0,3.15,3.16Z"/><path class="a0838bd6-52d8-4e7b-9d9c-8b12d3d79888" d="M117.52,19.52l2.82,1.92a3.19,3.19,0,0,0,4.33-1.13A3.24,3.24,0,0,0,123.53,16l-2.82-1.92a3.17,3.17,0,0,0-4.32,1.13,3.23,3.23,0,0,0,1.13,4.32Z"/><path class="a0838bd6-52d8-4e7b-9d9c-8b12d3d79888" d="M186.21,97.38a38.37,38.37,0,0,0,13.68-.47c4-.87,2.28-7-1.68-6.09a29.35,29.35,0,0,1-10.32.47A3.27,3.27,0,0,0,184,93.5c-.43,1.47.52,3.65,2.2,3.88Z"/><path class="a0838bd6-52d8-4e7b-9d9c-8b12d3d79888" d="M31.77,96.22a6.68,6.68,0,0,0,4.33-.6,3.17,3.17,0,0,0,1.13-4.32,3.24,3.24,0,0,0-4.32-1.13q.5-.18,0,0a.73.73,0,0,1,.56,0,3.24,3.24,0,0,0-3.88,2.21c-.35,1.52.46,3.6,2.21,3.88Z"/><path class="f0a222a9-be51-464b-b334-28a6593d23a5" d="M100.17,182.43c-1.36,0-2.86.18-3.7,1.41-1,1.39-.75,3.61-.86,5.2-.07,1,1.51,1,1.58,0a19.56,19.56,0,0,1,.32-3.67c.34-1.28,1.54-1.34,2.66-1.36a.79.79,0,0,0,0-1.58Z"/><path class="f0a222a9-be51-464b-b334-28a6593d23a5" d="M135.38,233.25a56.56,56.56,0,0,0-.12,6.64c0,1,1.62,1,1.58,0a56.56,56.56,0,0,1,.12-6.64c.08-1-1.5-1-1.58,0Z"/><path class="f0a222a9-be51-464b-b334-28a6593d23a5" d="M204.51,173.93a1.25,1.25,0,0,1-1.26-1.26V132.13a1.26,1.26,0,0,1,2.52,0v40.54A1.25,1.25,0,0,1,204.51,173.93Z"/><path class="f0a222a9-be51-464b-b334-28a6593d23a5" d="M43.7,241.15H33.88a6.47,6.47,0,0,1-6.47-6.46V226a1.27,1.27,0,0,1,2.53,0v8.7a3.94,3.94,0,0,0,3.94,3.93H43.7a1.27,1.27,0,0,1,0,2.53Z"/><ellipse class="e2d95ceb-e2ae-4137-a50d-1b13ee9b0ab0" cx="203.25" cy="233.29" rx="29.93" ry="26.8"/><path class="aa66d4c4-ac40-4060-bf0d-10c50391cfe6" d="M211.83,218.68h-.55c-2.68,0-2.68,4.16,0,4.16h.55c2.68,0,2.68-4.16,0-4.16Z"/><path class="aa66d4c4-ac40-4060-bf0d-10c50391cfe6" d="M187.53,228.16l-.27-.28c-1.9-1.89-4.84,1.05-2.94,2.94l.27.28c1.9,1.89,4.84-1,2.94-2.94Z"/><path class="aa66d4c4-ac40-4060-bf0d-10c50391cfe6" d="M204.27,242l-.28.27c-1.89,1.9,1,4.84,2.94,2.94l.28-.28c1.89-1.89-1.05-4.83-2.94-2.93Z"/><path class="aa66d4c4-ac40-4060-bf0d-10c50391cfe6" d="M222.09,235.31c2.67,0,2.67-4.16,0-4.16s-2.68,4.16,0,4.16Z"/><path class="f02a4b14-6ea4-46df-b95e-5354e16a0ed8" d="M200.33,228.86l-.28-.56a2.1,2.1,0,0,0-2.84-.74,2.12,2.12,0,0,0-.75,2.84l.28.56a2.1,2.1,0,0,0,2.84.74,2.12,2.12,0,0,0,.75-2.84Z"/><path class="f02a4b14-6ea4-46df-b95e-5354e16a0ed8" d="M197.15,215.08c2.67,0,2.68-4.15,0-4.15s-2.68,4.15,0,4.15Z"/><path class="f02a4b14-6ea4-46df-b95e-5354e16a0ed8" d="M187.73,238.36c2.67,0,2.68-4.16,0-4.16s-2.68,4.16,0,4.16Z"/><path class="f02a4b14-6ea4-46df-b95e-5354e16a0ed8" d="M221.25,227.55c2.68,0,2.68-4.15,0-4.15s-2.67,4.15,0,4.15Z"/></g></g></svg>