<svg xmlns="http://www.w3.org/2000/svg" xmlns:xlink="http://www.w3.org/1999/xlink" viewBox="0 0 203.27 250.81"><defs><style>.b84e4d51-345e-4b46-96c5-f5d42d046ce5,.bb4f6bae-4cfb-414d-b0cb-11471254d2d9{fill:none;}.af0aee51-0aeb-4c36-8d4f-b4e7ec2983ae{fill:#4b311f;}.a9e5a787-c1a2-4da3-a515-50a63d8073e5,.b9b58e1c-019f-4754-88ad-3289b2f72999{fill:#ac7c4c;}.a9739050-aa8a-46ae-a369-73a35e933ebe,.a9e5a787-c1a2-4da3-a515-50a63d8073e5,.bb4f6bae-4cfb-414d-b0cb-11471254d2d9,.bd4e74f3-ef7b-471c-856e-76665f2cf8f2,.f8aef023-8621-4b96-b563-af535eb7d40b{stroke:#40220f;stroke-miterlimit:10;}.a9e5a787-c1a2-4da3-a515-50a63d8073e5,.bb4f6bae-4cfb-414d-b0cb-11471254d2d9,.bd4e74f3-ef7b-471c-856e-76665f2cf8f2,.f8aef023-8621-4b96-b563-af535eb7d40b{stroke-width:5.04px;}.a9739050-aa8a-46ae-a369-73a35e933ebe,.fe0eda6d-2068-4adb-a772-4abad88c2ddb{fill:#fff;}.fc0049a4-82bb-4947-b198-11c59625b4f0{clip-path:url(#fb5c9e3e-6d38-4866-bbd4-2be6c4dfd517);}.a9739050-aa8a-46ae-a369-73a35e933ebe{stroke-width:0.51px;}.f8aef023-8621-4b96-b563-af535eb7d40b{fill:#b0804f;}.bbef0cec-7e5f-47dc-886a-798f1b21170c{fill:#d99852;}.b415aa55-7442-47d0-afbc-6aa462127209{fill:#f5ac5c;}.b9c75ce8-063a-4d50-937c-72e5e1224030{fill:#604c3f;}.bd4e74f3-ef7b-471c-856e-76665f2cf8f2{fill:#ca925b;}.a2d9d0b8-521c-463a-a4b6-a30f7b3ed7c1{fill:#efcd89;}.b8ebea56-e5e0-4c10-bc9a-e4a68c1b1331{fill:#f29432;}.af45dc31-e461-4003-b6bf-103815ac65e9{fill:#231815;}.afdfd1a5-6a1e-44c2-bc4a-071862c0fcb6{fill:#4b3a2f;}.b2c388d7-9260-4aed-bc85-065b21922213{fill:#d53533;}.ef6cce0c-e617-4a3a-b74e-61e80a9296cd{fill:#ef8889;}.fe6a4a3e-d9a0-4908-94c2-031b9566b48a{fill:#fff100;}.b2d5a2ed-5806-472e-bedf-3796041b8ddc{fill:#f9bf55;}.a9df3fb1-25a7-4aab-a658-5c974b928757{fill:#f08831;}</style><clipPath id="fb5c9e3e-6d38-4866-bbd4-2be6c4dfd517" transform="translate(-6.82)"><ellipse class="b84e4d51-345e-4b46-96c5-f5d42d046ce5" cx="107.74" cy="166.26" rx="107.74" ry="70.23"/></clipPath></defs><title>小熊</title><g id="e589504d-d065-4a18-ba0d-092cf8f240a6" data-name="圖層 2"><g id="edc4e4e9-9377-4617-b5ed-11283a34a96f" data-name="圖層 1"><ellipse class="af0aee51-0aeb-4c36-8d4f-b4e7ec2983ae" cx="114.47" cy="191.42" rx="95.66" ry="44.69" transform="matrix(1, -0.03, 0.03, 1, -13.11, 3.9)"/><path class="a9e5a787-c1a2-4da3-a515-50a63d8073e5" d="M196,159.57c7.23-5,9.44-14.46,4.91-21.33s-14.38-8.6-21.84-3.67c-.25.17-.5.34-.74.52l-38,25.06L157,185.33l39-25.75Z" transform="translate(-6.82)"/><circle class="fe0eda6d-2068-4adb-a772-4abad88c2ddb" cx="180.72" cy="147.16" r="8.18"/><g class="fc0049a4-82bb-4947-b198-11c59625b4f0"><circle class="a9e5a787-c1a2-4da3-a515-50a63d8073e5" cx="106.2" cy="188.5" r="59.79" transform="translate(-109.01 130.31) rotate(-45)"/></g><circle class="fe0eda6d-2068-4adb-a772-4abad88c2ddb" cx="98.38" cy="179.15" r="39.8"/><circle class="a9739050-aa8a-46ae-a369-73a35e933ebe" cx="136.73" cy="26.57" r="24.05"/><circle class="f8aef023-8621-4b96-b563-af535eb7d40b" cx="136.73" cy="26.57" r="24.05"/><circle class="bbef0cec-7e5f-47dc-886a-798f1b21170c" cx="136.73" cy="26.57" r="12.83"/><circle class="b415aa55-7442-47d0-afbc-6aa462127209" cx="138.38" cy="26.95" r="11.19"/><circle class="a9739050-aa8a-46ae-a369-73a35e933ebe" cx="53.71" cy="28.25" r="24.05"/><circle class="f8aef023-8621-4b96-b563-af535eb7d40b" cx="53.71" cy="28.25" r="24.05"/><circle class="bbef0cec-7e5f-47dc-886a-798f1b21170c" cx="52.66" cy="27.9" r="12.83"/><circle class="b415aa55-7442-47d0-afbc-6aa462127209" cx="54.55" cy="26.42" r="10.51"/><ellipse class="b9c75ce8-063a-4d50-937c-72e5e1224030" cx="82.24" cy="116.17" rx="10.84" ry="7.75"/><circle class="bd4e74f3-ef7b-471c-856e-76665f2cf8f2" cx="95.69" cy="98.82" r="79.97"/><circle class="a2d9d0b8-521c-463a-a4b6-a30f7b3ed7c1" cx="95.69" cy="124.67" r="31.26"/><path class="b8ebea56-e5e0-4c10-bc9a-e4a68c1b1331" d="M70.5,130.84a35.11,35.11,0,0,0-47.95-32.7c0,.23,0,.45,0,.68a79.82,79.82,0,0,0,30.17,62.56A35.1,35.1,0,0,0,70.5,130.84Z" transform="translate(-6.82)"/><path class="b8ebea56-e5e0-4c10-bc9a-e4a68c1b1331" d="M182.48,98.82c0-.13,0-.25,0-.38A35.13,35.13,0,0,0,152,161.64,79.85,79.85,0,0,0,182.48,98.82Z" transform="translate(-6.82)"/><circle class="af45dc31-e461-4003-b6bf-103815ac65e9" cx="65.36" cy="94.47" r="9.47"/><circle class="af45dc31-e461-4003-b6bf-103815ac65e9" cx="126.02" cy="94.47" r="9.47"/><circle class="fe0eda6d-2068-4adb-a772-4abad88c2ddb" cx="62.06" cy="92.23" r="3.3"/><circle class="fe0eda6d-2068-4adb-a772-4abad88c2ddb" cx="122.72" cy="92.23" r="3.3"/><ellipse class="afdfd1a5-6a1e-44c2-bc4a-071862c0fcb6" cx="95.69" cy="107.77" rx="10.84" ry="7.75"/><ellipse class="b9c75ce8-063a-4d50-937c-72e5e1224030" cx="96.77" cy="107.02" rx="9.2" ry="6.65"/><circle class="bb4f6bae-4cfb-414d-b0cb-11471254d2d9" cx="95.69" cy="98.82" r="79.97"/><path class="b2c388d7-9260-4aed-bc85-065b21922213" d="M73.61,127.34s11-10,24.26,2c8.59,7.79,12.88-.74,22.89-2.88,7.13-1.52,14.78,2.66,14.76,9.89,0,3.63.24,12.93-14.46,18.51s-31.81,5.7-45-6S73.61,127.34,73.61,127.34Z" transform="translate(-6.82)"/><path class="ef6cce0c-e617-4a3a-b74e-61e80a9296cd" d="M78.07,149.16A30.93,30.93,0,0,0,95.58,158c11.48,1.88,23.2-2.23,23.2-2.23s8.16-2.51,8.91-7.11c.69-4.31-5.39-6.46-5.39-6.46a37.76,37.76,0,0,0-17.25.25c-8.49,2.36-14.58,3.91-22.22,2.22C74.65,142.9,78.07,149.16,78.07,149.16Z" transform="translate(-6.82)"/><path class="bd4e74f3-ef7b-471c-856e-76665f2cf8f2" d="M37.39,179.15l18-15.47,1.43-.85,11.72-7c22.7-9.48,26.9,2.66,26.9,2.66,7.36,14.5-21.8,28.33-21.8,28.33l-30.43,14.2s-24.93,11-32.89-9.39c-4.66-11.9,8.91-22.87,8.91-22.87l22.69-17.4,13.47,12.28" transform="translate(-6.82)"/><path class="fe6a4a3e-d9a0-4908-94c2-031b9566b48a" d="M56.79,148.3s12-14.13,35.59-5.93c15.77,5.49,18.6,20.27,18.75,29.44A17.82,17.82,0,0,1,107,183.42c-2.91,3.55-6.4,8.94-5.57,13.67,2.14,12.19-6.32,12.95-6.32,12.95s-10.62,1.1-1.39-20.63c10.15-23.9-1.62-10.39-1.62-10.39s-17.31,24.27-20.41,7.4c-1.63-8.88,10.58-8,9.91-17.22s-4.51-15.43-26-.1C46.41,175.6,46.89,158.66,56.79,148.3Z" transform="translate(-6.82)"/><path class="b2d5a2ed-5806-472e-bedf-3796041b8ddc" d="M97.83,157.06c3.26,3.81,2.8,9.27,2.88,14a1.05,1.05,0,0,0,2.1,0c-.09-5.37.2-11.12-3.49-15.44-.88-1-2.36.46-1.49,1.48Z" transform="translate(-6.82)"/><path class="b2d5a2ed-5806-472e-bedf-3796041b8ddc" d="M75,182.25c-.88,2.58-.74,6.4,2.93,6.2,3.29-.17,6.26-3.47,8-6,.76-1.11-1.06-2.17-1.82-1.06a14.24,14.24,0,0,1-4.22,4.14,6.1,6.1,0,0,1-1.08.55c-.7.27-1.79.37-2.2-.52s.19-2,.44-2.77c.44-1.28-1.59-1.84-2-.56Z" transform="translate(-6.82)"/><path class="b2d5a2ed-5806-472e-bedf-3796041b8ddc" d="M92.6,202.51c-.42,1.48-.74,3.16.31,4.46a2.59,2.59,0,0,0,3.38.67c2.86-1.65,3.27-6.26,3.62-9.16.16-1.34-1.94-1.32-2.1,0a21.63,21.63,0,0,1-.93,4.66,5,5,0,0,1-1.12,2.14c-.19.44-.47.42-.85-.06-.55-.05-.75-.29-.59-.72a4.11,4.11,0,0,1,.3-1.43,1,1,0,0,0-2-.56Z" transform="translate(-6.82)"/><path class="b2d5a2ed-5806-472e-bedf-3796041b8ddc" d="M54.77,166.07c-2.2-3.86,4.53-10.53,7.08-12.74a43.28,43.28,0,0,1,11.36-6.9c1.24-.54.17-2.35-1.06-1.82A40.59,40.59,0,0,0,57.2,155c-2.58,3-6.55,8.08-4.24,12.12a1.05,1.05,0,0,0,1.81-1.07Z" transform="translate(-6.82)"/><path class="b9b58e1c-019f-4754-88ad-3289b2f72999" d="M147.81,36.15S125.78,16,87.62,22.82c0,0-24,2.8-43.15,24.8,0,0-19.21,19.11-19.43,49.65,0,0,6.71-1.83,9.19-1.54,0,0,4.57-39.8,34.24-57.36C94.73,22.82,130.58,28.9,147.81,36.15Z" transform="translate(-6.82)"/><path class="a9df3fb1-25a7-4aab-a658-5c974b928757" d="M56.37,104.44S44.59,92.66,25.15,97.28a76.21,76.21,0,0,0,8.19,37.55s9.25,15.85,17.09,20.53l1.84-3s-18.53-16-22-40.76A8.13,8.13,0,0,1,38,102.25,77.48,77.48,0,0,1,56.37,104.44Z" transform="translate(-6.82)"/><path class="a9df3fb1-25a7-4aab-a658-5c974b928757" d="M180,97.3a35.16,35.16,0,0,0-31.21,6.34,160.86,160.86,0,0,1,17.11-2.57,6.41,6.41,0,0,1,6.8,7.52c-1.73,9.74-7,28.73-22.74,51,0,0,11.8-7.61,22.17-26.11C172.17,133.44,181.21,116.7,180,97.3Z" transform="translate(-6.82)"/></g></g></svg>