<svg xmlns="http://www.w3.org/2000/svg" xmlns:xlink="http://www.w3.org/1999/xlink" viewBox="0 0 125.91 162.76"><defs><style>.a037f2ef-354e-43b9-b967-ee26d8849439,.b7e2952e-d613-43d2-b679-f28bac5e5407{fill:none;}.b69ec3fd-5286-4608-96a4-d2850412b2a4{fill:#ffe137;}.f283b63b-bf20-417f-a010-87209e9474d6{fill:#dbc260;}.a48bfc9f-cf3c-4c4c-8ca9-6b73170c83b0{fill:#feeacd;}.b215ac9c-8bfa-4782-9f75-cb198eee9039{fill:#4b311f;}.adc12572-3dc8-4487-a069-fb3b7f25bfe2{clip-path:url(#e3554336-ba80-4a1e-a93e-28a5d0c88cdf);}.eca6b2d8-09b4-4854-9fd9-d4caf6eb78aa{fill:#4ea549;}.b7e2952e-d613-43d2-b679-f28bac5e5407,.eca6b2d8-09b4-4854-9fd9-d4caf6eb78aa,.ee1de70b-5d56-443e-8009-48642884efd4{stroke:#40220f;stroke-miterlimit:10;}.eca6b2d8-09b4-4854-9fd9-d4caf6eb78aa,.ee1de70b-5d56-443e-8009-48642884efd4{stroke-width:5.04px;}.ee1de70b-5d56-443e-8009-48642884efd4{fill:#fbc602;}.b7e2952e-d613-43d2-b679-f28bac5e5407{stroke-linecap:round;stroke-width:3.36px;}.a97b8bc0-f449-40e7-9f1b-0e15ec3ad385{fill:#f49e00;}.f5e6bbfa-e7f6-43a9-bc3d-bf7fe16c759e{fill:#844a40;}</style><clipPath id="e3554336-ba80-4a1e-a93e-28a5d0c88cdf" transform="translate(-2.01 -49.64)"><ellipse class="a037f2ef-354e-43b9-b967-ee26d8849439" cx="62.98" cy="85.09" rx="62.95" ry="85.11" transform="matrix(1, -0.03, 0.03, 1, -2.79, 2.14)"/></clipPath></defs><title>蘿蔔2</title><g id="ed059545-68ff-4751-9544-126981373891" data-name="圖層 2"><g id="f657f5e8-ff51-4d5f-aad1-bf7046fb0d32" data-name="圖層 1"><path class="b69ec3fd-5286-4608-96a4-d2850412b2a4" d="M67.33,179.58l3.21,6.51a2.62,2.62,0,0,0,2,1.44l7.18,1.05a2.63,2.63,0,0,1,1.46,4.49L76,198.14a2.67,2.67,0,0,0-.76,2.34l1.23,7.15a2.63,2.63,0,0,1-3.82,2.78L66.19,207a2.65,2.65,0,0,0-2.45,0l-6.43,3.38a2.64,2.64,0,0,1-3.83-2.78l1.23-7.15a2.64,2.64,0,0,0-.76-2.34l-5.2-5.07a2.63,2.63,0,0,1,1.46-4.49l7.19-1.05a2.63,2.63,0,0,0,2-1.44l3.21-6.51A2.64,2.64,0,0,1,67.33,179.58Z" transform="translate(-2.01 -49.64)"/><path class="f283b63b-bf20-417f-a010-87209e9474d6" d="M57.67,208.12a6.54,6.54,0,0,0,2.9-2.63,1.05,1.05,0,0,0-1.82-1.06,4.58,4.58,0,0,1-2.14,1.87,1.06,1.06,0,0,0-.38,1.44,1.09,1.09,0,0,0,1.44.38Z" transform="translate(-2.01 -49.64)"/><path class="f283b63b-bf20-417f-a010-87209e9474d6" d="M78,191.29c-.08,0,0,.05-.05.18a2.13,2.13,0,0,1-.73.73,1.09,1.09,0,0,0-.38,1.44,1.06,1.06,0,0,0,1.44.38,3.71,3.71,0,0,0,1.79-2.53,2.12,2.12,0,0,0-1.51-2.23,1.05,1.05,0,0,0-.56,2Z" transform="translate(-2.01 -49.64)"/><path class="f283b63b-bf20-417f-a010-87209e9474d6" d="M65.44,182.12c0-.25-.11.08-.13.13s0-.08,0,0l-.06,0h.08s-.09,0-.12-.06a1.91,1.91,0,0,1,.33,1,1.08,1.08,0,0,0,1,1.05,1.06,1.06,0,0,0,1-1.05c-.12-1.17-.42-2.53-1.68-3a1.94,1.94,0,0,0-2.55,1.26,1.09,1.09,0,0,0,.74,1.3,1.07,1.07,0,0,0,1.29-.74Z" transform="translate(-2.01 -49.64)"/><path class="a48bfc9f-cf3c-4c4c-8ca9-6b73170c83b0" d="M116.34,211.56a3.44,3.44,0,0,1-1.62-.4l-6.43-3.38a1.71,1.71,0,0,0-.83-.21,1.77,1.77,0,0,0-.84.21l-6.43,3.38a3.4,3.4,0,0,1-1.61.4,3.47,3.47,0,0,1-2.67-1.25,3.39,3.39,0,0,1-.76-2.82l1.23-7.16a1.82,1.82,0,0,0-.52-1.59l-5.2-5.07a3.48,3.48,0,0,1,1.93-5.93l7.18-1a1.8,1.8,0,0,0,1.36-1l3.21-6.51a3.48,3.48,0,0,1,6.24,0l3.21,6.51a1.78,1.78,0,0,0,1.35,1l7.19,1a3.46,3.46,0,0,1,2.8,2.37,3.42,3.42,0,0,1-.88,3.56l-5.2,5.07a1.81,1.81,0,0,0-.51,1.59l1.23,7.16a3.48,3.48,0,0,1-3.43,4.07Z" transform="translate(-2.01 -49.64)"/><path class="b69ec3fd-5286-4608-96a4-d2850412b2a4" d="M107.46,178.11a2.6,2.6,0,0,1,2.36,1.47l3.22,6.51a2.6,2.6,0,0,0,2,1.44l7.19,1.05a2.63,2.63,0,0,1,1.46,4.49l-5.2,5.07a2.64,2.64,0,0,0-.76,2.34l1.23,7.15a2.64,2.64,0,0,1-2.6,3.09,2.67,2.67,0,0,1-1.23-.31L108.68,207a2.62,2.62,0,0,0-1.22-.3,2.66,2.66,0,0,0-1.23.3l-6.43,3.38A2.62,2.62,0,0,1,96,207.63l1.23-7.15a2.67,2.67,0,0,0-.76-2.34l-5.2-5.07a2.63,2.63,0,0,1,1.46-4.49l7.18-1.05a2.62,2.62,0,0,0,2-1.44l3.21-6.51a2.62,2.62,0,0,1,2.37-1.47m0-1.68a4.28,4.28,0,0,0-3.87,2.4l-3.22,6.52a1,1,0,0,1-.72.52l-7.18,1a4.32,4.32,0,0,0-2.4,7.37l5.2,5.07a.94.94,0,0,1,.28.84l-1.23,7.16a4.31,4.31,0,0,0,6.26,4.55l6.43-3.38a1,1,0,0,1,.45-.11,1,1,0,0,1,.44.11l6.43,3.38a4.3,4.3,0,0,0,5.32-1.05,4.25,4.25,0,0,0,.94-3.5l-1.22-7.16a.94.94,0,0,1,.27-.84l5.2-5.07a4.32,4.32,0,0,0-2.39-7.37l-7.19-1a1,1,0,0,1-.72-.52l-3.21-6.52a4.29,4.29,0,0,0-3.87-2.4Z" transform="translate(-2.01 -49.64)"/><path class="f283b63b-bf20-417f-a010-87209e9474d6" d="M100.16,208.12a6.54,6.54,0,0,0,2.9-2.63,1,1,0,0,0-1.81-1.06,4.61,4.61,0,0,1-2.15,1.87,1.06,1.06,0,0,0-.37,1.44,1.07,1.07,0,0,0,1.43.38Z" transform="translate(-2.01 -49.64)"/><path class="f283b63b-bf20-417f-a010-87209e9474d6" d="M120.51,191.29c-.09,0,0,.05-.06.18a2.13,2.13,0,0,1-.73.73,1.08,1.08,0,0,0-.37,1.44,1,1,0,0,0,1.43.38,3.68,3.68,0,0,0,1.79-2.53,2.12,2.12,0,0,0-1.5-2.23,1.05,1.05,0,0,0-.56,2Z" transform="translate(-2.01 -49.64)"/><path class="f283b63b-bf20-417f-a010-87209e9474d6" d="M107.94,182.12c0-.25-.12.08-.14.13s0-.08,0,0l-.07,0h.08s-.09,0-.12-.06a1.83,1.83,0,0,1,.33,1,1.08,1.08,0,0,0,1.06,1.05,1.06,1.06,0,0,0,1-1.05c-.13-1.17-.43-2.53-1.69-3a1.93,1.93,0,0,0-2.54,1.26,1.05,1.05,0,1,0,2,.56Z" transform="translate(-2.01 -49.64)"/><path class="b69ec3fd-5286-4608-96a4-d2850412b2a4" d="M24.83,179.58l3.22,6.51a2.6,2.6,0,0,0,2,1.44l7.19,1.05a2.63,2.63,0,0,1,1.46,4.49l-5.2,5.07a2.64,2.64,0,0,0-.76,2.34L34,207.63a2.64,2.64,0,0,1-3.83,2.78L23.7,207a2.67,2.67,0,0,0-2.46,0l-6.43,3.38A2.63,2.63,0,0,1,11,207.63l1.23-7.15a2.67,2.67,0,0,0-.76-2.34l-5.2-5.07a2.63,2.63,0,0,1,1.46-4.49l7.19-1.05a2.62,2.62,0,0,0,2-1.44l3.22-6.51A2.63,2.63,0,0,1,24.83,179.58Z" transform="translate(-2.01 -49.64)"/><path class="f283b63b-bf20-417f-a010-87209e9474d6" d="M15.18,208.12a6.57,6.57,0,0,0,2.89-2.63,1,1,0,0,0-1.81-1.06,4.61,4.61,0,0,1-2.15,1.87,1.06,1.06,0,0,0-.37,1.44,1.09,1.09,0,0,0,1.44.38Z" transform="translate(-2.01 -49.64)"/><path class="f283b63b-bf20-417f-a010-87209e9474d6" d="M35.52,191.29c-.09,0,0,.05-.06.18a2,2,0,0,1-.73.73,1.09,1.09,0,0,0-.37,1.44,1.05,1.05,0,0,0,1.43.38,3.68,3.68,0,0,0,1.79-2.53,2.12,2.12,0,0,0-1.5-2.23,1.05,1.05,0,0,0-.56,2Z" transform="translate(-2.01 -49.64)"/><path class="f283b63b-bf20-417f-a010-87209e9474d6" d="M23,182.12c.05-.25-.11.08-.14.13s0-.08,0,0l-.06,0h.07s-.09,0-.12-.06a1.84,1.84,0,0,1,.34,1,1.08,1.08,0,0,0,1.05,1.05,1.06,1.06,0,0,0,1-1.05c-.13-1.17-.42-2.53-1.69-3a1.93,1.93,0,0,0-2.54,1.26,1.09,1.09,0,0,0,.73,1.3,1.07,1.07,0,0,0,1.3-.74Z" transform="translate(-2.01 -49.64)"/><ellipse class="b215ac9c-8bfa-4782-9f75-cb198eee9039" cx="62.95" cy="100.42" rx="62.95" ry="19.85"/><g class="adc12572-3dc8-4487-a069-fb3b7f25bfe2"><path class="eca6b2d8-09b4-4854-9fd9-d4caf6eb78aa" d="M49.27,101.83S32.26,96.16,31,86.36c-.57-4.28,3.83-8.55,3.83-8.55s3.49-3.12,12.43,4.52,4.18-5.47,5.89-19.39c.62-5.11,2.78-8,5.27-9.56a8.07,8.07,0,0,1,11.75,3.94l1.43,3.62a17,17,0,0,1,1.19,6.38l.4,12.76c0,1.68,2.25,5.19,3.94,5.24a3.62,3.62,0,0,0,2.71-.67c3.41-1.83,5.66-2.76,6.2-12.55s14.75-8,15.67.22c1.67,15-5,26.08-12.85,33.22l-15.64-4.13Z" transform="translate(-2.01 -49.64)"/><path class="ee1de70b-5d56-443e-8009-48642884efd4" d="M67.46,99.21l2.73.14c20.79,1,30,17.28,25.11,29.33l-24,59.62C69,193.92,60,193.64,58,187.88L37.16,126.56C32.87,113.93,44.68,98.12,67.46,99.21Z" transform="translate(-2.01 -49.64)"/><path class="b7e2952e-d613-43d2-b679-f28bac5e5407" d="M40.23,131s4.41-4.68,14.43-5.17" transform="translate(-2.01 -49.64)"/><path class="b7e2952e-d613-43d2-b679-f28bac5e5407" d="M44.56,140.75s2.48-3.89,15.37-3.84" transform="translate(-2.01 -49.64)"/><path class="b7e2952e-d613-43d2-b679-f28bac5e5407" d="M72,131.31a25.29,25.29,0,0,1,17.7,8.05" transform="translate(-2.01 -49.64)"/><path class="b7e2952e-d613-43d2-b679-f28bac5e5407" d="M71.37,143.94a25.25,25.25,0,0,1,17.7,8" transform="translate(-2.01 -49.64)"/><path class="b7e2952e-d613-43d2-b679-f28bac5e5407" d="M65.51,155.08a25.31,25.31,0,0,1,17.71,8" transform="translate(-2.01 -49.64)"/></g><path class="a97b8bc0-f449-40e7-9f1b-0e15ec3ad385" d="M45.56,120.35c-.71-4,3.36-10.63,7.68-10.89,1.34-.08,1.35-2.19,0-2.1-5.85.35-10.68,8.09-9.71,13.55.24,1.33,2.27.77,2-.56Z" transform="translate(-2.01 -49.64)"/><path class="f5e6bbfa-e7f6-43a9-bc3d-bf7fe16c759e" d="M21.77,140.47c-5.65-.29-12.37,1.52-14.12,7.64a9.16,9.16,0,0,0,.83,7.22c1.83,3,4.88,2.78,7.57,4.38,3.49,2.09,6.66-3.36,3.18-5.44-2.08-1.24-6.57-1.11-5.5-4.49,1-3.13,5.43-3.14,8-3,4.06.21,4.05-6.1,0-6.31Z" transform="translate(-2.01 -49.64)"/><path class="f5e6bbfa-e7f6-43a9-bc3d-bf7fe16c759e" d="M111.73,148a6.29,6.29,0,0,1,3.57,1.24c.55.57.18.23.2.18-.22.43-1.39.76-1.78.93a23.52,23.52,0,0,1-8.32,1.76c-4,.16-4.06,6.47,0,6.31,5-.2,13.53-1.34,16-6.54,3-6.15-4.89-9.75-9.7-10.18-4-.37-4,5.94,0,6.3Z" transform="translate(-2.01 -49.64)"/></g></g></svg>