<svg xmlns="http://www.w3.org/2000/svg" xmlns:xlink="http://www.w3.org/1999/xlink" viewBox="0 0 125.91 161.31"><defs><style>.eff2e584-3234-4e37-854e-ca5dc796541e,.f7a7c66d-0ff7-4f90-a5b0-3fe57d1cd832{fill:none;}.b0c007ca-8691-4378-9b70-01ad2a1efdf2{fill:#ffe137;}.e5c3ae6c-0739-49fe-a66c-c95c10cc390c{fill:#dbc260;}.e2a19ffb-7a19-44b8-a326-6330886d9ceb{fill:#4b311f;}.b09eef70-1e1a-4fcc-8c4c-a2a46204ccee{clip-path:url(#f4e02991-3d11-464f-beea-f34f1f9fb11b);}.e45591b7-2014-496b-aa85-b90ed33f54b1{fill:#4ea549;}.aca415ed-0e5f-4ef8-939e-c0be2ccbfc51,.e45591b7-2014-496b-aa85-b90ed33f54b1,.f7a7c66d-0ff7-4f90-a5b0-3fe57d1cd832{stroke:#40220f;stroke-miterlimit:10;}.aca415ed-0e5f-4ef8-939e-c0be2ccbfc51,.e45591b7-2014-496b-aa85-b90ed33f54b1{stroke-width:5.04px;}.aca415ed-0e5f-4ef8-939e-c0be2ccbfc51{fill:#f29418;}.f7a7c66d-0ff7-4f90-a5b0-3fe57d1cd832{stroke-linecap:round;stroke-width:3.36px;}.a2b2dec8-d770-4e45-86a4-99cd0da48587{fill:#ed6c00;}.e192f8f1-1d59-41be-9217-382ce3771612{fill:#844a40;}</style><clipPath id="f4e02991-3d11-464f-beea-f34f1f9fb11b" transform="translate(-2.01 -49.64)"><ellipse class="eff2e584-3234-4e37-854e-ca5dc796541e" cx="62.98" cy="85.09" rx="62.95" ry="85.11" transform="translate(-2.79 2.14) rotate(-1.9)"/></clipPath></defs><title>蘿蔔3</title><g id="baa48300-bb6b-4e4f-b6b8-07468bc6ad04" data-name="圖層 2"><g id="afbfa654-a0e8-4184-b576-902b880d0eb2" data-name="圖層 1"><path class="b0c007ca-8691-4378-9b70-01ad2a1efdf2" d="M69.94,179.81l3.21,6.51a2.62,2.62,0,0,0,2,1.44l7.18,1.05a2.64,2.64,0,0,1,1.46,4.5l-5.2,5.06a2.67,2.67,0,0,0-.76,2.34l1.23,7.16a2.63,2.63,0,0,1-3.82,2.77l-6.43-3.38a2.65,2.65,0,0,0-2.45,0l-6.43,3.38a2.63,2.63,0,0,1-3.83-2.77l1.23-7.16a2.64,2.64,0,0,0-.76-2.34l-5.2-5.06a2.64,2.64,0,0,1,1.46-4.5L60,187.76a2.6,2.6,0,0,0,2-1.44l3.22-6.51A2.64,2.64,0,0,1,69.94,179.81Z" transform="translate(-2.01 -49.64)"/><path class="e5c3ae6c-0739-49fe-a66c-c95c10cc390c" d="M60.28,208.35a6.53,6.53,0,0,0,2.9-2.63,1.05,1.05,0,0,0-1.82-1.06,4.58,4.58,0,0,1-2.14,1.87,1.07,1.07,0,0,0-.38,1.44,1.09,1.09,0,0,0,1.44.38Z" transform="translate(-2.01 -49.64)"/><path class="e5c3ae6c-0739-49fe-a66c-c95c10cc390c" d="M80.62,191.52c-.08,0,0,0-.06.18-.11.3-.48.55-.72.74a1.08,1.08,0,0,0-.38,1.43,1.05,1.05,0,0,0,1.44.38,3.71,3.71,0,0,0,1.79-2.53,2.12,2.12,0,0,0-1.51-2.23,1.05,1.05,0,0,0-.56,2Z" transform="translate(-2.01 -49.64)"/><path class="e5c3ae6c-0739-49fe-a66c-c95c10cc390c" d="M68.05,182.35c0-.25-.11.08-.13.14s0-.09,0,0l-.06,0h.08a.11.11,0,0,1-.12-.06,1.94,1.94,0,0,1,.33,1,1.08,1.08,0,0,0,1,1,1.06,1.06,0,0,0,1-1c-.12-1.17-.42-2.52-1.68-3A1.94,1.94,0,0,0,66,181.79a1.09,1.09,0,0,0,.74,1.3,1.07,1.07,0,0,0,1.29-.74Z" transform="translate(-2.01 -49.64)"/><path class="b0c007ca-8691-4378-9b70-01ad2a1efdf2" d="M112.43,179.81l3.21,6.51a2.63,2.63,0,0,0,2,1.44l7.19,1.05a2.64,2.64,0,0,1,1.46,4.5l-5.2,5.06a2.64,2.64,0,0,0-.76,2.34l1.23,7.16a2.63,2.63,0,0,1-3.83,2.77l-6.43-3.38a2.65,2.65,0,0,0-2.45,0l-6.43,3.38a2.63,2.63,0,0,1-3.82-2.77l1.23-7.16a2.67,2.67,0,0,0-.76-2.34l-5.2-5.06a2.64,2.64,0,0,1,1.46-4.5l7.18-1.05a2.62,2.62,0,0,0,2-1.44l3.21-6.51A2.64,2.64,0,0,1,112.43,179.81Z" transform="translate(-2.01 -49.64)"/><path class="e5c3ae6c-0739-49fe-a66c-c95c10cc390c" d="M102.77,208.35a6.48,6.48,0,0,0,2.9-2.63,1,1,0,0,0-1.81-1.06,4.55,4.55,0,0,1-2.15,1.87,1.05,1.05,0,0,0,1.06,1.82Z" transform="translate(-2.01 -49.64)"/><path class="e5c3ae6c-0739-49fe-a66c-c95c10cc390c" d="M123.12,191.52c-.09,0,0,0-.06.18a2.24,2.24,0,0,1-.73.74,1.07,1.07,0,0,0-.37,1.43,1,1,0,0,0,1.43.38,3.68,3.68,0,0,0,1.79-2.53,2.12,2.12,0,0,0-1.5-2.23,1.05,1.05,0,0,0-.56,2Z" transform="translate(-2.01 -49.64)"/><path class="e5c3ae6c-0739-49fe-a66c-c95c10cc390c" d="M110.54,182.35c0-.25-.11.08-.13.14s0-.09,0,0l-.07,0h.08a.12.12,0,0,1-.12-.06,1.85,1.85,0,0,1,.33,1,1.08,1.08,0,0,0,1.06,1,1.06,1.06,0,0,0,1-1c-.13-1.17-.43-2.52-1.69-3a1.93,1.93,0,0,0-2.54,1.26,1.08,1.08,0,0,0,.73,1.3,1.06,1.06,0,0,0,1.29-.74Z" transform="translate(-2.01 -49.64)"/><path class="b0c007ca-8691-4378-9b70-01ad2a1efdf2" d="M27.44,179.81l3.22,6.51a2.6,2.6,0,0,0,2,1.44l7.19,1.05a2.64,2.64,0,0,1,1.46,4.5l-5.2,5.06a2.64,2.64,0,0,0-.76,2.34l1.23,7.16a2.63,2.63,0,0,1-3.83,2.77l-6.42-3.38a2.67,2.67,0,0,0-2.46,0l-6.43,3.38a2.63,2.63,0,0,1-3.82-2.77l1.23-7.16a2.67,2.67,0,0,0-.76-2.34l-5.2-5.06a2.64,2.64,0,0,1,1.46-4.5l7.19-1.05a2.62,2.62,0,0,0,2-1.44l3.21-6.51A2.64,2.64,0,0,1,27.44,179.81Z" transform="translate(-2.01 -49.64)"/><path class="e5c3ae6c-0739-49fe-a66c-c95c10cc390c" d="M17.78,208.35a6.48,6.48,0,0,0,2.9-2.63,1,1,0,0,0-1.81-1.06,4.55,4.55,0,0,1-2.15,1.87,1.06,1.06,0,0,0-.37,1.44,1.08,1.08,0,0,0,1.43.38Z" transform="translate(-2.01 -49.64)"/><path class="e5c3ae6c-0739-49fe-a66c-c95c10cc390c" d="M38.13,191.52c-.09,0,0,0-.06.18a2.15,2.15,0,0,1-.73.74,1.07,1.07,0,0,0-.37,1.43,1,1,0,0,0,1.43.38,3.68,3.68,0,0,0,1.79-2.53,2.12,2.12,0,0,0-1.5-2.23,1.05,1.05,0,0,0-.56,2Z" transform="translate(-2.01 -49.64)"/><path class="e5c3ae6c-0739-49fe-a66c-c95c10cc390c" d="M25.56,182.35c0-.25-.11.08-.14.14s-.05-.09,0,0l-.06,0h.07a.12.12,0,0,1-.12-.06,2,2,0,0,1,.34,1,1.08,1.08,0,0,0,1.05,1,1.06,1.06,0,0,0,1.05-1c-.13-1.17-.42-2.52-1.69-3a1.93,1.93,0,0,0-2.54,1.26,1.09,1.09,0,0,0,.73,1.3,1.07,1.07,0,0,0,1.3-.74Z" transform="translate(-2.01 -49.64)"/><ellipse class="e2a19ffb-7a19-44b8-a326-6330886d9ceb" cx="62.95" cy="100.42" rx="62.95" ry="19.85"/><g class="b09eef70-1e1a-4fcc-8c4c-a2a46204ccee"><path class="e45591b7-2014-496b-aa85-b90ed33f54b1" d="M49.27,101.83S32.26,96.16,31,86.36c-.57-4.28,3.83-8.55,3.83-8.55s3.49-3.12,12.43,4.52,4.18-5.47,5.89-19.39c.62-5.11,2.78-8,5.27-9.56a8.07,8.07,0,0,1,11.75,3.94l1.43,3.62a17,17,0,0,1,1.19,6.38l.4,12.76c0,1.68,2.25,5.19,3.94,5.24a3.62,3.62,0,0,0,2.71-.67c3.41-1.83,5.66-2.76,6.2-12.55s14.75-8,15.67.22c1.67,15-5,26.08-12.85,33.22l-15.64-4.13Z" transform="translate(-2.01 -49.64)"/><path class="aca415ed-0e5f-4ef8-939e-c0be2ccbfc51" d="M67.46,99.21l2.73.14c20.79,1,30,17.28,25.11,29.33l-24,59.62C69,193.92,60,193.64,58,187.88L37.16,126.56C32.87,113.93,44.68,98.12,67.46,99.21Z" transform="translate(-2.01 -49.64)"/><path class="f7a7c66d-0ff7-4f90-a5b0-3fe57d1cd832" d="M40.23,131s4.41-4.68,14.43-5.17" transform="translate(-2.01 -49.64)"/><path class="f7a7c66d-0ff7-4f90-a5b0-3fe57d1cd832" d="M44.56,140.75s2.48-3.89,15.37-3.84" transform="translate(-2.01 -49.64)"/><path class="f7a7c66d-0ff7-4f90-a5b0-3fe57d1cd832" d="M72,131.31a25.29,25.29,0,0,1,17.7,8.05" transform="translate(-2.01 -49.64)"/><path class="f7a7c66d-0ff7-4f90-a5b0-3fe57d1cd832" d="M71.37,143.94a25.25,25.25,0,0,1,17.7,8" transform="translate(-2.01 -49.64)"/><path class="f7a7c66d-0ff7-4f90-a5b0-3fe57d1cd832" d="M65.51,155.08a25.31,25.31,0,0,1,17.71,8" transform="translate(-2.01 -49.64)"/></g><path class="a2b2dec8-d770-4e45-86a4-99cd0da48587" d="M46,121.55c-.71-4,3.36-10.63,7.68-10.9,1.34-.08,1.35-2.18,0-2.1-5.85.36-10.69,8.1-9.71,13.56.24,1.33,2.27.77,2-.56Z" transform="translate(-2.01 -49.64)"/><path class="e192f8f1-1d59-41be-9217-382ce3771612" d="M17.5,141c-1.61.81-3.36,1.22-4.84,2.29a7.67,7.67,0,0,0-3.39,6.17c.1,5.15,4.5,7.75,8.92,9,5.21,1.48,7.44-6.62,2.23-8.1-.8-.23-1.56-.59-2.34-.83-.45-.13-.85-.73-.58.47.09.44-.5.19.07.09a5.08,5.08,0,0,0,.87-.44c1.09-.48,2.23-.85,3.3-1.39A4.2,4.2,0,0,0,17.5,141Z" transform="translate(-2.01 -49.64)"/><path class="e192f8f1-1d59-41be-9217-382ce3771612" d="M107.35,147.36c1.23.45,4.84,1.67,2.84,3.18a18.8,18.8,0,0,1-6.76,2.8c-3.93,1-2.27,7,1.68,6.08,4.14-1,10.45-3.12,11.84-7.72,1.68-5.51-3.57-8.83-7.92-10.42-3.82-1.39-5.47,4.7-1.68,6.08Z" transform="translate(-2.01 -49.64)"/></g></g></svg>