<svg xmlns="http://www.w3.org/2000/svg" viewBox="0 0 174.52 347.12"><defs><style>.a538bff9-65a1-429b-ab75-b9a2bd0f5d03{fill:#599a21;}.ef6b9fcf-4803-423a-864c-7f3dcf6074c6{fill:#bed400;}.e46cda3f-29c9-4df0-910d-858a24c82e72{fill:#c58a45;}.e4b7e265-2444-4a0e-a969-87fafb630b4d{fill:#c3a05e;}.b09cd0c8-ba91-4f11-ba56-ecbcfbb245ba,.bc4d89bc-3acd-46e5-9d1a-8e9a3a662e72{fill:none;stroke-miterlimit:10;}.bc4d89bc-3acd-46e5-9d1a-8e9a3a662e72{stroke:#40220f;}.ff2c4b8d-6ad7-4856-8d91-a9cb2530d20a{fill:#40220f;}.fc7a01e8-8f8d-4c98-9196-6597620ff8c8{fill:#956134;}.a9e12461-8b50-420e-97f6-a20e9bb67d03{fill:#b28247;}.b09cd0c8-ba91-4f11-ba56-ecbcfbb245ba{stroke:#b28247;stroke-linecap:round;stroke-width:0.25px;}</style></defs><title>椅子</title><g id="b591cfdf-37b8-43c0-813c-845b3e0aa65d" data-name="圖層 2"><g id="e6240450-3b02-4cdf-9ed4-59258a6e378c" data-name="圖層 1"><polygon class="a538bff9-65a1-429b-ab75-b9a2bd0f5d03" points="98.85 317.93 82 347.12 115.7 347.12 98.85 317.93"/><polygon class="a538bff9-65a1-429b-ab75-b9a2bd0f5d03" points="127.11 317.93 110.26 347.12 143.97 347.12 127.11 317.93"/><polygon class="a538bff9-65a1-429b-ab75-b9a2bd0f5d03" points="111.86 299.04 95 347.12 128.71 347.12 111.86 299.04"/><polygon class="ef6b9fcf-4803-423a-864c-7f3dcf6074c6" points="19.63 133.01 0 167.01 39.27 167.01 19.63 133.01"/><polygon class="ef6b9fcf-4803-423a-864c-7f3dcf6074c6" points="52.56 133.01 32.92 167.01 72.19 167.01 52.56 133.01"/><polygon class="ef6b9fcf-4803-423a-864c-7f3dcf6074c6" points="34.78 111.01 15.15 167.01 54.42 167.01 34.78 111.01"/><path class="e46cda3f-29c9-4df0-910d-858a24c82e72" d="M163.71,95c-9.92,1.82-8.42-16.52-8.42-16.52,8.27-4.21,9.7-5,9.7-5a21.62,21.62,0,0,0,4.77-3.53S173.63,93.14,163.71,95Z"/><path class="e4b7e265-2444-4a0e-a969-87fafb630b4d" d="M126.47,85a27.26,27.26,0,0,0,13.07.41s1.08,24.17-7.56,23.51S126.47,85,126.47,85Z"/><path class="e4b7e265-2444-4a0e-a969-87fafb630b4d" d="M168.24,50.49s-7.12-7.64-10.79-7.94S116,5.53,116,5.53L116.6,1c6.56,1.23,9.77,4.56,9.77,4.56s29.56,23.73,42.09,32.64c3.82,2.72,5.31,5.46,5.53,8,0,.42,0,.91,0,1.44v.1A10.94,10.94,0,0,1,171.75,53Z"/><path class="e4b7e265-2444-4a0e-a969-87fafb630b4d" d="M98.75,2.93C106.26.22,112.19.12,116.6,1L116,5.53s37.76,36.72,41.42,37,10.79,7.94,10.79,7.94L171.75,53a17.36,17.36,0,0,1-3.29,3.43s-10.58,6.48-22,14.56a12.57,12.57,0,0,1-7.84,2.38c-9-.24-17.19-9.16-17.19-9.16l-18.56-16S82.13,28.18,73.72,20.63c-2.59-2.32-3.47-4.08-3.47-5.38a2,2,0,0,0,0-.23c.22-2.76,4.53-3.45,4.53-3.45L79,10.06Z"/><path class="e46cda3f-29c9-4df0-910d-858a24c82e72" d="M97.18,62.11c3.45,3.14,6.81,6.18,9.8,8.89,0,0-1.1,2.92-6.29,2.4S97.18,62.11,97.18,62.11Z"/><path class="e4b7e265-2444-4a0e-a969-87fafb630b4d" d="M81.05,57.48c-.64,4.69-6.25,21.63-13.59,17.3S73.6,40.17,73.6,40.17c2.35,2.31,5.9,5.66,10,9.46A22.92,22.92,0,0,0,81.05,57.48Z"/><path class="e4b7e265-2444-4a0e-a969-87fafb630b4d" d="M121.42,64.22s8.18,8.92,17.19,9.16A12.57,12.57,0,0,0,146.45,71c11.43-8.08,22-14.56,22-14.56A17.36,17.36,0,0,0,171.75,53,10.94,10.94,0,0,0,174,47.69c0,3.23-.05,8.08.05,12.86a12.87,12.87,0,0,1-4.26,9.32A21.62,21.62,0,0,1,165,73.4s-1.43.84-9.7,5c-2.3,1.17-5.15,2.61-8.64,4.36a29.9,29.9,0,0,1-7.11,2.56A27.26,27.26,0,0,1,126.47,85a25.83,25.83,0,0,1-8.3-3.87S113.46,76.86,107,71c-3-2.71-6.35-5.75-9.8-8.89-4.62-4.21-9.4-8.59-13.59-12.48s-7.64-7.15-10-9.46a32.64,32.64,0,0,1-3-3.21c-1.91-3.1-.54-19.56-.36-21.71,0,1.3.88,3.06,3.47,5.38,8.41,7.55,29.14,27.62,29.14,27.62Z"/><path class="bc4d89bc-3acd-46e5-9d1a-8e9a3a662e72" d="M174,47.59a6.9,6.9,0,0,0,0-1.44c-.22-2.52-1.71-5.26-5.53-8-12.53-8.91-42.09-32.64-42.09-32.64S123.16,2.2,116.6,1c-4.41-.85-10.34-.75-17.85,2L79,10.06,74.8,11.57s-4.31.69-4.53,3.45"/><path class="bc4d89bc-3acd-46e5-9d1a-8e9a3a662e72" d="M70.25,15.25c0,1.3.88,3.06,3.47,5.38,8.41,7.55,29.14,27.62,29.14,27.62l18.56,16s8.18,8.92,17.19,9.16A12.57,12.57,0,0,0,146.45,71c11.43-8.08,22-14.56,22-14.56A17.36,17.36,0,0,0,171.75,53,10.94,10.94,0,0,0,174,47.69"/><path class="bc4d89bc-3acd-46e5-9d1a-8e9a3a662e72" d="M70.27,15a2,2,0,0,1,0,.23c-.18,2.15-1.55,18.61.36,21.71a32.64,32.64,0,0,0,3,3.21c2.35,2.31,5.9,5.66,10,9.46s9,8.27,13.59,12.48c3.45,3.14,6.81,6.18,9.8,8.89,6.48,5.86,11.19,10.09,11.19,10.09a25.83,25.83,0,0,0,8.3,3.87,27.26,27.26,0,0,0,13.07.41,29.9,29.9,0,0,0,7.11-2.56c3.49-1.75,6.34-3.19,8.64-4.36,8.27-4.21,9.7-5,9.7-5a21.62,21.62,0,0,0,4.77-3.53A12.87,12.87,0,0,0,174,60.55c-.1-4.78-.09-9.63-.05-12.86v-.1c0-.53,0-1,0-1.44,0-1.39-.23-1.27-.23-1.27"/><path class="bc4d89bc-3acd-46e5-9d1a-8e9a3a662e72" d="M73.6,40.17s-13.47,30.3-6.14,34.61,13-12.61,13.59-17.3a22.92,22.92,0,0,1,2.54-7.85"/><path class="bc4d89bc-3acd-46e5-9d1a-8e9a3a662e72" d="M126.47,85s-3.11,23.28,5.51,23.92,7.56-23.51,7.56-23.51"/><path class="bc4d89bc-3acd-46e5-9d1a-8e9a3a662e72" d="M155.29,78.45s-1.5,18.34,8.42,16.52,6-25.1,6-25.1"/><path class="bc4d89bc-3acd-46e5-9d1a-8e9a3a662e72" d="M97.18,62.11s-1.66,10.76,3.51,11.29S107,71,107,71"/><path class="ff2c4b8d-6ad7-4856-8d91-a9cb2530d20a" d="M79,10c.88.59,1.68,1.26,2.53,1.88l2.41,2c1.58,1.36,3.07,2.82,4.62,4.23s2.94,2.95,4.34,4.51L95,25c.65.83,1.34,1.62,1.95,2.48l-.07.08-9-8.71L79,10.1Z"/><path class="ff2c4b8d-6ad7-4856-8d91-a9cb2530d20a" d="M94.69,10a37.53,37.53,0,0,1,6.75,5.2c1,1,2,2,2.94,3.06l1.38,1.63c.42.58.87,1.13,1.26,1.75l-.07.08L100.75,16,94.63,10.1Z"/><path class="ff2c4b8d-6ad7-4856-8d91-a9cb2530d20a" d="M108.87,24.69a11.06,11.06,0,0,1,3.45-1,8,8,0,0,1,3.65.35,6.36,6.36,0,0,1,3,2.36,8.63,8.63,0,0,1,.85,1.69l.32.89.25.85A43,43,0,0,0,126,42.45,64.61,64.61,0,0,0,130.16,48c1.44,1.86,2.93,3.69,4.33,5.59l4.24,5.66c1.36,1.92,2.77,3.81,4.09,5.76l-.08.06-8.85-11-4.43-5.5A63.06,63.06,0,0,1,125.18,43a41.87,41.87,0,0,1-5.58-12.93,11.69,11.69,0,0,0-1.21-3.27,5.84,5.84,0,0,0-2.62-2.22,9.88,9.88,0,0,0-6.86.2Z"/><path class="ff2c4b8d-6ad7-4856-8d91-a9cb2530d20a" d="M132.8,31.18a49.58,49.58,0,0,1,6.55,7.37c1,1.32,1.93,2.65,2.78,4.05l1.28,2.12c.38.74.8,1.44,1.14,2.21l-.08.06-5.92-7.85-5.83-7.9Z"/><path class="ff2c4b8d-6ad7-4856-8d91-a9cb2530d20a" d="M144.54,55.33a16.33,16.33,0,0,1,2.75,2,29.54,29.54,0,0,1,4.53,4.86,16.15,16.15,0,0,1,1.78,2.88l-.07.07L149,60.29l-4.49-4.89Z"/><path class="ff2c4b8d-6ad7-4856-8d91-a9cb2530d20a" d="M116.06,5.5c2.2,1.87,4.34,3.81,6.52,5.7L129,17c4.28,3.87,8.49,7.81,12.79,11.65s8.49,7.8,12.91,11.42c.55.44,1.11.89,1.68,1.26a7.2,7.2,0,0,0,.85.52l.32.12.61.13a12.46,12.46,0,0,1,3.92,2.24,47.19,47.19,0,0,1,6.19,6.13l-.08.07a50.19,50.19,0,0,0-6.42-5.77,11.84,11.84,0,0,0-3.76-2,6.29,6.29,0,0,1-1.06-.26c-.32-.17-.65-.34-1-.54-.62-.39-1.19-.82-1.77-1.26-4.57-3.54-8.83-7.43-13.12-11.3-8.5-7.8-16.85-15.77-25.13-23.8Z"/><path class="ff2c4b8d-6ad7-4856-8d91-a9cb2530d20a" d="M164.16,42.51a2.14,2.14,0,0,1,1.08,0,2.28,2.28,0,0,1,.81.34,2.17,2.17,0,0,1,.59.65,2.2,2.2,0,0,1,.33,1l-.06.08-1.43-1-1.38-1Z"/><path class="ff2c4b8d-6ad7-4856-8d91-a9cb2530d20a" d="M157.69,50.46a5.76,5.76,0,0,1,1.75.73,9.57,9.57,0,0,1,1.43,1.08A9,9,0,0,1,162,53.63a5.63,5.63,0,0,1,.84,1.7l-.07.07L160.18,53l-2.56-2.47Z"/><path class="ff2c4b8d-6ad7-4856-8d91-a9cb2530d20a" d="M107,36.92c1.49,1.37,2.89,2.82,4.33,4.23l4.18,4.37c2.75,2.95,5.37,6,8,9.1.62.8,1.25,1.59,1.85,2.41s1.22,1.72,1.76,2.49c1.11,1.62,2.42,3.13,3.67,4.7s2.58,3.06,3.91,4.57l3.95,4.57-.07.07c-2.88-2.81-5.69-5.69-8.38-8.7-1.33-1.51-2.64-3-3.82-4.68s-2.37-3.24-3.65-4.8C117.64,49,112.31,43,106.94,37Z"/><path class="fc7a01e8-8f8d-4c98-9196-6597620ff8c8" d="M166.94,87.68a3.33,3.33,0,0,1-5.4,3.35c-.61-.52-1.5.36-.89.88a4.59,4.59,0,0,0,7.5-4.56c-.19-.78-1.4-.45-1.21.33Z"/><path class="a9e12461-8b50-420e-97f6-a20e9bb67d03" d="M135.14,103.35a2,2,0,0,1-3.3,2.06c-.61-.52-1.5.36-.88.88a3.29,3.29,0,0,0,5.38-3.27c-.18-.78-1.39-.45-1.2.33Z"/><path class="a9e12461-8b50-420e-97f6-a20e9bb67d03" d="M72,72.65a2,2,0,0,1-2.06-3.3c.51-.61-.37-1.5-.89-.88a3.3,3.3,0,0,0,3.28,5.39c.78-.19.45-1.4-.33-1.21Z"/><path class="b09cd0c8-ba91-4f11-ba56-ecbcfbb245ba" d="M93.43,54.7S121,81.18,128.82,82.24s17.05-1.69,17.05-1.69"/></g></g></svg>