<svg xmlns="http://www.w3.org/2000/svg" xmlns:xlink="http://www.w3.org/1999/xlink" viewBox="0 0 155.34 63.97"><defs><style>.f1c9612c-aaeb-423f-8cef-e4b6d9d6f938{fill:none;}.a66a26e0-2ba1-4a29-b63a-c386041f7cd2{fill:#fff;}.a242cd5e-7d5c-4f5e-bea8-15fe519256e4{fill:#ffe35f;}.e7927e89-5afb-473d-93b5-a8d64293570f{fill:#fccb3b;}.b7932b34-3f03-4624-a26d-759a08da3f9e{fill:#af8934;}.bc0412a0-865c-4af8-9c3f-19261dae4f72{clip-path:url(#ab63d26a-6f19-44df-9987-ce4210e5a70d);}</style><clipPath id="ab63d26a-6f19-44df-9987-ce4210e5a70d"><circle class="f1c9612c-aaeb-423f-8cef-e4b6d9d6f938" cx="31.79" cy="31.66" r="24"/></clipPath></defs><title>money</title><g id="a09d9d2b-3a86-4803-aaa1-394266664bc8" data-name="圖層 2"><g id="f24056df-9c71-4731-9630-b5bbf493a5a6" data-name="圖層 1"><path class="a66a26e0-2ba1-4a29-b63a-c386041f7cd2" d="M93.44,24.57a1.3,1.3,0,0,1-.49.8A13.61,13.61,0,0,0,90.5,29a31.76,31.76,0,0,0-1.79,4,35.38,35.38,0,0,0-1.9,8.89c-.06.79-.33,1.26-.8,1.39a18.9,18.9,0,0,1-3.47.17c-1.18,0-1.88,0-2.11,0-1.05-.11-1.58-.41-1.58-.89a18.33,18.33,0,0,1,1.73-6.77,58.43,58.43,0,0,1,3.22-6.32c1.15-2,1.73-3,1.73-2.94,0-.13-.26-.19-.78-.19-.92,0-2.3,0-4.13.14s-3.21.14-4.13.14a.41.41,0,0,1-.46-.47,8.7,8.7,0,0,1,.18-1.5c.14-.76.22-1.26.24-1.51,0-.56.08-1.49.08-2.79,0-.32.28-.48.83-.48a19.29,19.29,0,0,1,2,.13c1.14.12,1.83.19,2,.2q3.19.24,11,.24a.84.84,0,0,1,.91.88C93.4,22.14,93.44,23.24,93.44,24.57Z"/><path class="a66a26e0-2ba1-4a29-b63a-c386041f7cd2" d="M113.4,37.63c0,.28,0,.71-.1,1.28s-.09,1-.09,1.3,0,.77,0,1.41,0,1.11,0,1.42-.2.47-.61.47a15.27,15.27,0,0,1-1.75-.36,34.9,34.9,0,0,0-6.32-.37c-1,0-2.39,0-4.3.16s-3.33.16-4.26.16a.49.49,0,0,1-.54-.47c0-.42-.13-1.05-.28-1.88a17.73,17.73,0,0,1-.46-2.17c0-.28.52-.48,1.56-.62a5.17,5.17,0,0,0,2.34-.67,29.14,29.14,0,0,0,3.85-4c1.68-2,2.51-3.56,2.51-4.57a3,3,0,0,0-1-2.23,3.22,3.22,0,0,0-2.28-.9,7.79,7.79,0,0,0-3,.6,10.52,10.52,0,0,0-2.06,1.08,6,6,0,0,1-1,.57c-.42,0-.63-.49-.63-1.49a9.58,9.58,0,0,0-.1-1.67,7.16,7.16,0,0,0-.27-1,3.45,3.45,0,0,1-.23-1,.62.62,0,0,1,.32-.47,12.22,12.22,0,0,1,4.13-1.73,19.12,19.12,0,0,1,4.48-.55,10.59,10.59,0,0,1,5.92,1.56,5.83,5.83,0,0,1,2.81,5.19q0,4.48-6.79,10.47,4.81-.24,7.55-.24C113.21,36.94,113.4,37.17,113.4,37.63Z"/><path class="a66a26e0-2ba1-4a29-b63a-c386041f7cd2" d="M131.66,36.57a6,6,0,0,1-2.84,5.3,10.79,10.79,0,0,1-6,1.6,22.28,22.28,0,0,1-4.59-.39c-2.62-.55-3.93-1-3.93-1.45a1.22,1.22,0,0,1,.08-.34c.17-.46.42-1.15.76-2.06.1-.46.27-1.14.52-2a.58.58,0,0,1,.56-.46s.52.2,1.66.61a8.81,8.81,0,0,0,2.82.61q3.64,0,3.65-2.43c0-1.31-1.16-2-3.46-2-.31,0-.72,0-1.23,0l-1,0c-.76,0-1.18,0-1.25,0-.55-.06-.82-.27-.82-.63a16.47,16.47,0,0,1,.22-3.57.6.6,0,0,1,.6-.47,15.31,15.31,0,0,1,1.87.16,17.38,17.38,0,0,0,1.85.16,1.82,1.82,0,0,0,1.33-.53,1.86,1.86,0,0,0,.53-1.35c0-1.47-1.07-2.2-3.2-2.2a12.69,12.69,0,0,0-3.63.73l-.16,0c-.17,0-.3-.18-.41-.52,0-.52-.07-1.12-.12-1.79,0-.15,0-.45-.11-.89a6.49,6.49,0,0,1-.07-.88c0-.65,1-1.16,3.05-1.52a23.15,23.15,0,0,1,4.07-.37,10.79,10.79,0,0,1,5.55,1.39A5.15,5.15,0,0,1,130.79,26a5.62,5.62,0,0,1-3.09,5.17,5.74,5.74,0,0,1,2.89,2.07A5.45,5.45,0,0,1,131.66,36.57Z"/><path class="a66a26e0-2ba1-4a29-b63a-c386041f7cd2" d="M155.34,31.69a11.86,11.86,0,0,1-3.1,8.24,10.67,10.67,0,0,1-16,0,11.84,11.84,0,0,1-3.12-8.24,11.74,11.74,0,0,1,3.12-8.22,10.79,10.79,0,0,1,15.93,0A11.77,11.77,0,0,1,155.34,31.69Zm-6.9,0a5.21,5.21,0,0,0-1.12-3.33,3.91,3.91,0,0,0-6.15,0,5.13,5.13,0,0,0-1.1,3.34,5.33,5.33,0,0,0,1.1,3.37,3.8,3.8,0,0,0,6.14,0A5.26,5.26,0,0,0,148.44,31.69Z"/><circle class="a242cd5e-7d5c-4f5e-bea8-15fe519256e4" cx="31.98" cy="31.66" r="24"/><path class="a66a26e0-2ba1-4a29-b63a-c386041f7cd2" d="M32,7.66a24,24,0,1,1-24,24,24,24,0,0,1,24-24M32,4A27.63,27.63,0,1,0,59.61,31.66,27.65,27.65,0,0,0,32,4Z"/><circle class="e7927e89-5afb-473d-93b5-a8d64293570f" cx="31.98" cy="31.66" r="18.5"/><path class="b7932b34-3f03-4624-a26d-759a08da3f9e" d="M32,50.39A18.73,18.73,0,1,1,50.72,31.66,18.76,18.76,0,0,1,32,50.39Zm0-37A18.28,18.28,0,1,0,50.26,31.66,18.3,18.3,0,0,0,32,13.38Z"/><g class="bc0412a0-865c-4af8-9c3f-19261dae4f72"><rect class="e7927e89-5afb-473d-93b5-a8d64293570f" x="31.08" width="1.81" height="31.98"/><rect class="e7927e89-5afb-473d-93b5-a8d64293570f" x="23.08" y="2.14" width="1.81" height="31.98" transform="translate(-5.85 14.42) rotate(-30)"/><rect class="e7927e89-5afb-473d-93b5-a8d64293570f" x="17.23" y="8" width="1.81" height="31.98" transform="translate(-11.71 27.7) rotate(-60)"/><rect class="e7927e89-5afb-473d-93b5-a8d64293570f" y="31.08" width="31.98" height="1.81"/><rect class="e7927e89-5afb-473d-93b5-a8d64293570f" x="2.14" y="39.07" width="31.98" height="1.81" transform="translate(-17.56 14.42) rotate(-30)"/><rect class="e7927e89-5afb-473d-93b5-a8d64293570f" x="8" y="44.93" width="31.98" height="1.81" transform="translate(-27.7 43.69) rotate(-60)"/><rect class="e7927e89-5afb-473d-93b5-a8d64293570f" x="31.08" y="31.98" width="1.81" height="31.98"/><rect class="e7927e89-5afb-473d-93b5-a8d64293570f" x="39.07" y="29.84" width="1.81" height="31.98" transform="translate(-17.56 26.13) rotate(-30)"/><rect class="e7927e89-5afb-473d-93b5-a8d64293570f" x="44.93" y="23.99" width="1.81" height="31.98" transform="translate(-11.71 59.68) rotate(-60)"/><rect class="e7927e89-5afb-473d-93b5-a8d64293570f" x="31.98" y="31.08" width="31.98" height="1.81"/><rect class="e7927e89-5afb-473d-93b5-a8d64293570f" x="29.84" y="23.08" width="31.98" height="1.81" transform="translate(-5.85 26.13) rotate(-30)"/><rect class="e7927e89-5afb-473d-93b5-a8d64293570f" x="23.99" y="17.23" width="31.98" height="1.81" transform="translate(4.28 43.69) rotate(-60)"/></g><path class="b7932b34-3f03-4624-a26d-759a08da3f9e" d="M40.69,34.05V41H28.88q-6.14.07-6-3.93V26.77a5.6,5.6,0,0,1,.34-2.2,3,3,0,0,1,1.21-1.32,8.58,8.58,0,0,1,4.46-1H40.44v6H34.25V26.21h-4.2V37h4.2v-3Z"/><path class="b7932b34-3f03-4624-a26d-759a08da3f9e" d="M32,50.61a19,19,0,1,1,19-18.95A19,19,0,0,1,32,50.61Zm0-37A18.05,18.05,0,1,0,50,31.66,18.07,18.07,0,0,0,32,13.61Z"/></g></g></svg>