<svg xmlns="http://www.w3.org/2000/svg" viewBox="0 0 197.7 188.2"><defs><style>.a0ee1ca6-361e-4e55-bf5e-952fd3de94a6{fill:#8bc220;}.a5e4a699-6176-46c9-a6a6-9eb41e3ae33e{fill:#679816;}.aea596e3-8dbb-407f-865c-712923434b54{fill:#898989;}.e2d8f41f-b075-4e49-9c18-b014ff98d7df{fill:#c9caca;}.a30186d0-aeae-4fc1-a894-e351b4a0ade0,.ab3366b8-8f4b-42fd-be33-d5d239c17e93{fill:#9fa0a0;}.a055421e-7c5e-40e4-9a8b-4966b2cff055,.a8b634ab-1349-4071-bd18-615733e1c16a,.b3d1aa11-1793-4f6a-ac1c-8a1efb086d7d,.b7c0b0e6-912a-4514-969b-40e3ca38d7ea,.e0f00342-67f0-40d0-ad99-7c9708e817e3{fill:none;}.a055421e-7c5e-40e4-9a8b-4966b2cff055,.ab3366b8-8f4b-42fd-be33-d5d239c17e93,.b7c0b0e6-912a-4514-969b-40e3ca38d7ea,.ee0508cd-7fdb-454d-a7ad-9d1a60d7305b{stroke:#40220f;}.a055421e-7c5e-40e4-9a8b-4966b2cff055,.ab3366b8-8f4b-42fd-be33-d5d239c17e93,.b3d1aa11-1793-4f6a-ac1c-8a1efb086d7d,.b7c0b0e6-912a-4514-969b-40e3ca38d7ea,.ee0508cd-7fdb-454d-a7ad-9d1a60d7305b{stroke-miterlimit:10;}.b7c0b0e6-912a-4514-969b-40e3ca38d7ea{stroke-width:1.68px;}.a055421e-7c5e-40e4-9a8b-4966b2cff055,.a8b634ab-1349-4071-bd18-615733e1c16a,.b3d1aa11-1793-4f6a-ac1c-8a1efb086d7d{stroke-width:3.36px;}.a8b634ab-1349-4071-bd18-615733e1c16a,.b3d1aa11-1793-4f6a-ac1c-8a1efb086d7d{stroke:#898989;}.a8b634ab-1349-4071-bd18-615733e1c16a,.b3d1aa11-1793-4f6a-ac1c-8a1efb086d7d,.e0f00342-67f0-40d0-ad99-7c9708e817e3{stroke-linecap:round;}.a8b634ab-1349-4071-bd18-615733e1c16a,.e0f00342-67f0-40d0-ad99-7c9708e817e3{stroke-linejoin:round;}.b1c30e71-8acd-485d-a052-de8ce88789c5{fill:#4b311f;}.ab3366b8-8f4b-42fd-be33-d5d239c17e93,.ee0508cd-7fdb-454d-a7ad-9d1a60d7305b{stroke-width:2.26px;}.ee0508cd-7fdb-454d-a7ad-9d1a60d7305b{fill:#595757;}.e0f00342-67f0-40d0-ad99-7c9708e817e3{stroke:#6a3906;stroke-width:5.04px;}</style></defs><title>鏟子</title><g id="bd142a8e-e59a-4aeb-ae37-9fcfa5ecc38d" data-name="圖層 2"><g id="eab780a0-61cb-48e8-abf9-fa8fbe54c4bc" data-name="圖層 1"><polygon class="a0ee1ca6-361e-4e55-bf5e-952fd3de94a6" points="19.53 151.37 0 185.19 39.05 185.19 19.53 151.37"/><polygon class="a0ee1ca6-361e-4e55-bf5e-952fd3de94a6" points="52.27 151.37 32.75 185.19 71.8 185.19 52.27 151.37"/><polygon class="a0ee1ca6-361e-4e55-bf5e-952fd3de94a6" points="34.6 129.48 15.07 185.19 54.12 185.19 34.6 129.48"/><polygon class="a5e4a699-6176-46c9-a6a6-9eb41e3ae33e" points="54.49 165.83 41.58 188.2 67.41 188.2 54.49 165.83"/><polygon class="a5e4a699-6176-46c9-a6a6-9eb41e3ae33e" points="76.15 165.83 63.24 188.2 89.06 188.2 76.15 165.83"/><polygon class="a5e4a699-6176-46c9-a6a6-9eb41e3ae33e" points="64.46 151.37 51.55 188.2 77.37 188.2 64.46 151.37"/><path class="aea596e3-8dbb-407f-865c-712923434b54" d="M192.09,13.51a.85.85,0,0,1,.22-.28c.69-.55,2-.11,2.88,1s1.1,2.47.42,3-2,.11-2.88-1A2.62,2.62,0,0,1,192.09,13.51Z"/><path class="e2d8f41f-b075-4e49-9c18-b014ff98d7df" d="M195.61,17.26l-24,28.38h-.09L169,31.79l.42-.08,22.71-18.2a2.62,2.62,0,0,0,.64,2.74C193.64,17.37,194.93,17.81,195.61,17.26Z"/><path class="e2d8f41f-b075-4e49-9c18-b014ff98d7df" d="M173.31,55.57s4.11,14.94-13.68,14.94H130.69c-18.67-.38-17.53-11.19-16.85-14.18.11-.48.2-.76.2-.76l1-4.65s.37.07,0,0l4.36-20,1.44-6.61.39-1.76c0,5.75,10.3,10.41,23,10.41s23-4.66,23-10.41L169,31.79l2.54,13.86Z"/><path class="e2d8f41f-b075-4e49-9c18-b014ff98d7df" d="M144.26,12.14c12.71,0,23,4.66,23,10.42S157,33,144.26,33s-23-4.66-23-10.41S131.55,12.14,144.26,12.14Zm16.18,10.42c0-2.57-7.25-4.64-16.18-4.64s-16.2,2.07-16.2,4.64,7.26,4.64,16.2,4.64S160.44,25.12,160.44,22.56Z"/><path class="a30186d0-aeae-4fc1-a894-e351b4a0ade0" d="M144.26,17.92c8.93,0,16.18,2.07,16.18,4.64s-7.25,4.64-16.18,4.64-16.2-2.08-16.2-4.64S135.32,17.92,144.26,17.92Z"/><path class="e2d8f41f-b075-4e49-9c18-b014ff98d7df" d="M113.49,56.33c-.25.05-2,.33-6.38-1.63-4.79-2.15,0-15.14,3.17-25s9.92-5.56,9.92-5.56l.66.15-1.44,6.61-.42-.09s-3.25-2.44-4.28.87-3.84,16-3.84,16-.94,2.05,2.13,2.73l2,.47v0l-1,4.65s-.09.28-.2.76Z"/><path class="b7c0b0e6-912a-4514-969b-40e3ca38d7ea" d="M160.44,22.56c0,2.56-7.25,4.64-16.18,4.64s-16.2-2.08-16.2-4.64,7.26-4.64,16.2-4.64S160.44,20,160.44,22.56Z"/><path class="a055421e-7c5e-40e4-9a8b-4966b2cff055" d="M167.27,22.56c0,5.75-10.3,10.41-23,10.41s-23-4.66-23-10.41,10.3-10.42,23-10.42S167.27,16.8,167.27,22.56Z"/><path class="a055421e-7c5e-40e4-9a8b-4966b2cff055" d="M121.25,22.56l-.39,1.76-1.44,6.61-4.36,20v0l-1,4.65s-.09.28-.2.76c-.68,3-1.82,13.8,16.85,14.18h28.94c17.79,0,13.68-14.94,13.68-14.94l-1.81-9.92L169,31.79l-1.69-9.23"/><line class="a055421e-7c5e-40e4-9a8b-4966b2cff055" x1="195.61" y1="17.26" x2="171.59" y2="45.64"/><polyline class="a055421e-7c5e-40e4-9a8b-4966b2cff055" points="169.38 31.71 192.09 13.51 192.22 13.4"/><path class="a055421e-7c5e-40e4-9a8b-4966b2cff055" d="M192.09,13.51a.85.85,0,0,1,.22-.28c.69-.55,2-.11,2.88,1s1.1,2.47.42,3-2,.11-2.88-1A2.62,2.62,0,0,1,192.09,13.51Z"/><path class="a055421e-7c5e-40e4-9a8b-4966b2cff055" d="M120.2,24.17s-6.76-4.27-9.92,5.56-8,22.82-3.17,25c4.4,2,6.13,1.68,6.38,1.63h0"/><path class="a055421e-7c5e-40e4-9a8b-4966b2cff055" d="M119,30.84s-3.25-2.44-4.28.87-3.84,16-3.84,16-.94,2.05,2.13,2.73l2,.47c.37.1,0,0,0,0"/><path class="b3d1aa11-1793-4f6a-ac1c-8a1efb086d7d" d="M122.34,53.58s-5.36,9.57,7.25,10.09"/><path class="a8b634ab-1349-4071-bd18-615733e1c16a" d="M165,39.71l-.94-5.77a45.35,45.35,0,0,1-6.41,2.1"/><ellipse class="b1c30e71-8acd-485d-a052-de8ce88789c5" cx="103.84" cy="131.32" rx="59.22" ry="18.67" transform="translate(-4.3 3.52) rotate(-1.9)"/><path class="ab3366b8-8f4b-42fd-be33-d5d239c17e93" d="M104,84.58l-16.78,8-16.78,8a10.5,10.5,0,0,0-3.81,15.87C75.94,128.66,92.89,146,109,138.32s13.27-31.83,9.67-46.74A10.5,10.5,0,0,0,104,84.58Z"/><path class="ee0508cd-7fdb-454d-a7ad-9d1a60d7305b" d="M60.38,1.9,33.43,14.78a7.72,7.72,0,0,0-1,13.33L57,45a7.75,7.75,0,0,0,2.33,1.07l30.79,64.41a5,5,0,1,0,9.11-4.36L68.46,41.73a7.73,7.73,0,0,0,.63-2.49L71.41,9.47A7.72,7.72,0,0,0,60.38,1.9Zm2.95,15L62.26,30.64a4.89,4.89,0,0,1-7.64,3.65l-11.36-7.8a4.88,4.88,0,0,1,.65-8.43l12.44-5.95A4.89,4.89,0,0,1,63.33,16.9Z"/><path class="aea596e3-8dbb-407f-865c-712923434b54" d="M78.88,101.16c-8.69-.92-13.38,10.37-6.67,15.92,2.92,2.42,7.14-1.76,4.2-4.19s-1.21-6.19,2.47-5.8,3.76-5.53,0-5.93Z"/><path class="aea596e3-8dbb-407f-865c-712923434b54" d="M107.15,95.55a59.74,59.74,0,0,1-1.8,28c-1.12,3.66,4.61,5.23,5.71,1.58A66.47,66.47,0,0,0,112.87,94c-.66-3.75-6.37-2.16-5.72,1.58Z"/><path class="aea596e3-8dbb-407f-865c-712923434b54" d="M34.65,17.8c-3,2.68-1.78,7.79,1.83,9.19,1.19.46,1.7-1.45.52-1.91-2.31-.9-2.71-4.29-1-5.88,1-.85-.46-2.25-1.4-1.4Z"/><path class="aea596e3-8dbb-407f-865c-712923434b54" d="M91.31,106.84c.41,1.65,1,3.44,2.77,4.11a2.68,2.68,0,0,0,3.62-1.78c.29-1.24-1.62-1.77-1.91-.53-.2.87-1.18.5-1.61,0a5.41,5.41,0,0,1-1-2.36c-.3-1.23-2.21-.71-1.9.53Z"/><path class="aea596e3-8dbb-407f-865c-712923434b54" d="M65.69,44.93l7.79,15.54c.57,1.14,2.27.14,1.7-1L67.4,43.93c-.57-1.14-2.28-.14-1.71,1Z"/><path class="b1c30e71-8acd-485d-a052-de8ce88789c5" d="M75.27,140.23s14.41-12.36,53.68-5l-27.93,10Z"/><path class="e0f00342-67f0-40d0-ad99-7c9708e817e3" d="M61.08,125.87S45.53,132.6,62.55,140"/><path class="e0f00342-67f0-40d0-ad99-7c9708e817e3" d="M125.4,119.36s20.61,2.13,27.73,9"/></g></g></svg>