<svg xmlns="http://www.w3.org/2000/svg" viewBox="0 0 170.08 170.08"><defs><style>.b4563dfc-ba32-4064-86cb-644c72519ad4{fill:none;}.aa9cdb8b-98bf-4bd8-932c-05fd22a04498{fill:#fff;}.f11fece1-3115-4b8e-8413-be96ed5df8f7{fill:#714290;}.b93cf6ee-5cab-42c3-a51d-7adf27146496{fill:#cab0d3;}.f835875b-fbb7-417d-b89a-8a958e9899ab{fill:#ad94c4;}</style></defs><title>增加</title><g id="aa680883-704f-4a5a-988e-b1f00f1839f6" data-name="圖層 2"><g id="f721d507-8169-4414-b56f-ff562672ace0" data-name="圖層 1"><path class="b4563dfc-ba32-4064-86cb-644c72519ad4" d="M26.53,124.78A109.66,109.66,0,0,1,170.08,20.52V0H0V170.08H36.33A109.3,109.3,0,0,1,26.53,124.78Z"/><path class="aa9cdb8b-98bf-4bd8-932c-05fd22a04498" d="M26.53,124.78a109.3,109.3,0,0,0,9.8,45.3H49.5A97.82,97.82,0,0,1,170.08,33V20.52A109.66,109.66,0,0,0,26.53,124.78Z"/><path class="f11fece1-3115-4b8e-8413-be96ed5df8f7" d="M38.37,124.78a97.42,97.42,0,0,0,11.13,45.3H63.31A85.8,85.8,0,0,1,170.08,46V33A97.84,97.84,0,0,0,38.37,124.78Z"/><path class="b93cf6ee-5cab-42c3-a51d-7adf27146496" d="M50.37,124.78a85.41,85.41,0,0,0,12.94,45.3H170.08V46A85.81,85.81,0,0,0,50.37,124.78Z"/><path class="f11fece1-3115-4b8e-8413-be96ed5df8f7" d="M125.68,103.4V123h26.51c2.52,0,4.56-2.84,4.56-6.35v-6.86c0-3.51-2-6.35-4.56-6.35Z"/><path class="f11fece1-3115-4b8e-8413-be96ed5df8f7" d="M85.11,103.4c-2.52,0-4.57,2.84-4.57,6.35v6.86c0,3.51,2,6.35,4.57,6.35h26.51V103.4ZM91.89,114H87.53v2.87c0,1.94-1.13,3.51-2.53,3.51s-2.52-1.57-2.52-3.51V107h9.41c1.4,0,2.53,1.57,2.53,3.52S93.29,114,91.89,114Z"/><path class="f11fece1-3115-4b8e-8413-be96ed5df8f7" d="M128.43,79.44c0-2.54-2.85-4.59-6.36-4.59h-6.85c-3.51,0-6.36,2.05-6.36,4.59v67.48c0,2.54,2.85,4.59,6.36,4.59h6.85c3.51,0,6.36-2,6.36-4.59V79.44Zm-16.6,3.8c0-1.4,1.58-2.54,3.52-2.54s3.52,1.14,3.52,2.54v17.61c0,1.4-1.57,2.54-3.52,2.54s-3.52-1.14-3.52-2.54Zm7,61c0,1.4-1.57,2.54-3.52,2.54s-3.52-1.14-3.52-2.54V124.74c0-1.41,1.58-2.55,3.52-2.55s3.52,1.14,3.52,2.55Z"/><path class="f835875b-fbb7-417d-b89a-8a958e9899ab" d="M115.35,103.39c2,0,3.52-1.14,3.52-2.54V83.24c0-1.4-1.57-2.54-3.52-2.54s-3.52,1.14-3.52,2.54v17.61C111.83,102.25,113.41,103.39,115.35,103.39Z"/><path class="f835875b-fbb7-417d-b89a-8a958e9899ab" d="M115.35,122.19c-1.94,0-3.52,1.14-3.52,2.55v19.51c0,1.4,1.58,2.54,3.52,2.54s3.52-1.14,3.52-2.54V124.74C118.87,123.33,117.3,122.19,115.35,122.19Z"/></g></g></svg>