<svg xmlns="http://www.w3.org/2000/svg" viewBox="0 0 1400 1050"><defs><style>.bf8ac3a3-f4ff-43f3-88f2-e9d13aa465db{fill:#b8d1a8;}.f3197f91-1529-4a48-908f-dfda82fde624{fill:#d5e9c8;}.afc9d1f2-e064-47c4-ab7f-66c3f9799379{fill:#f4f4f4;}.a21e13c0-257d-4b96-a1cf-61821162a6e7{fill:#d6d6d6;}.ad67712a-2966-4c41-ba2d-5e7c354174c3{fill:#d8c3a4;}</style></defs><title>背景</title><g id="b7b2421b-34fb-475b-8c02-f04e74e8b53d" data-name="圖層 2"><g id="f0644d2d-2d6b-4bf2-85ae-29a1e780d0ff" data-name="圖層 1"><rect class="bf8ac3a3-f4ff-43f3-88f2-e9d13aa465db" width="47.22" height="631.72"/><rect class="f3197f91-1529-4a48-908f-dfda82fde624" x="46.35" width="76.59" height="631.72"/><rect class="bf8ac3a3-f4ff-43f3-88f2-e9d13aa465db" x="124.09" width="76.59" height="631.72"/><rect class="f3197f91-1529-4a48-908f-dfda82fde624" x="199.82" width="76.59" height="631.72"/><rect class="bf8ac3a3-f4ff-43f3-88f2-e9d13aa465db" x="277.56" width="76.59" height="631.72"/><rect class="f3197f91-1529-4a48-908f-dfda82fde624" x="353.29" width="76.59" height="631.72"/><rect class="bf8ac3a3-f4ff-43f3-88f2-e9d13aa465db" x="431.03" width="76.59" height="631.72"/><rect class="f3197f91-1529-4a48-908f-dfda82fde624" x="506.76" width="76.59" height="631.72"/><rect class="bf8ac3a3-f4ff-43f3-88f2-e9d13aa465db" x="584.5" width="76.59" height="631.72"/><rect class="f3197f91-1529-4a48-908f-dfda82fde624" x="660.22" width="76.59" height="631.72"/><rect class="bf8ac3a3-f4ff-43f3-88f2-e9d13aa465db" x="737.96" width="76.59" height="631.72"/><rect class="f3197f91-1529-4a48-908f-dfda82fde624" x="813.69" width="76.59" height="631.72"/><rect class="bf8ac3a3-f4ff-43f3-88f2-e9d13aa465db" x="891.43" width="76.59" height="631.72"/><rect class="f3197f91-1529-4a48-908f-dfda82fde624" x="967.16" width="76.59" height="631.72"/><rect class="bf8ac3a3-f4ff-43f3-88f2-e9d13aa465db" x="1044.9" width="76.59" height="631.72"/><rect class="f3197f91-1529-4a48-908f-dfda82fde624" x="1120.63" width="76.59" height="631.72"/><rect class="bf8ac3a3-f4ff-43f3-88f2-e9d13aa465db" x="1198.37" width="76.59" height="631.72"/><rect class="f3197f91-1529-4a48-908f-dfda82fde624" x="1274.1" width="76.59" height="631.72"/><rect class="bf8ac3a3-f4ff-43f3-88f2-e9d13aa465db" x="1351.84" width="48.16" height="631.72"/><rect class="afc9d1f2-e064-47c4-ab7f-66c3f9799379" y="631.72" width="1400" height="28.43"/><ellipse class="a21e13c0-257d-4b96-a1cf-61821162a6e7" cx="18.24" cy="645.94" rx="11.78" ry="11.74"/><ellipse class="a21e13c0-257d-4b96-a1cf-61821162a6e7" cx="46.35" cy="645.94" rx="9.13" ry="9.1"/><ellipse class="a21e13c0-257d-4b96-a1cf-61821162a6e7" cx="75.67" cy="645.94" rx="11.78" ry="11.74"/><ellipse class="a21e13c0-257d-4b96-a1cf-61821162a6e7" cx="103.79" cy="645.94" rx="9.13" ry="9.1"/><ellipse class="a21e13c0-257d-4b96-a1cf-61821162a6e7" cx="133.11" cy="645.94" rx="11.78" ry="11.74"/><ellipse class="a21e13c0-257d-4b96-a1cf-61821162a6e7" cx="161.23" cy="645.94" rx="9.13" ry="9.1"/><ellipse class="a21e13c0-257d-4b96-a1cf-61821162a6e7" cx="190.55" cy="645.94" rx="11.78" ry="11.74"/><ellipse class="a21e13c0-257d-4b96-a1cf-61821162a6e7" cx="218.67" cy="645.94" rx="9.13" ry="9.1"/><ellipse class="a21e13c0-257d-4b96-a1cf-61821162a6e7" cx="247.99" cy="645.94" rx="11.78" ry="11.74"/><ellipse class="a21e13c0-257d-4b96-a1cf-61821162a6e7" cx="276.11" cy="645.94" rx="9.13" ry="9.1"/><ellipse class="a21e13c0-257d-4b96-a1cf-61821162a6e7" cx="305.43" cy="645.94" rx="11.78" ry="11.74"/><ellipse class="a21e13c0-257d-4b96-a1cf-61821162a6e7" cx="333.55" cy="645.94" rx="9.13" ry="9.1"/><ellipse class="a21e13c0-257d-4b96-a1cf-61821162a6e7" cx="362.87" cy="645.94" rx="11.78" ry="11.74"/><ellipse class="a21e13c0-257d-4b96-a1cf-61821162a6e7" cx="390.98" cy="645.94" rx="9.13" ry="9.1"/><ellipse class="a21e13c0-257d-4b96-a1cf-61821162a6e7" cx="420.3" cy="645.94" rx="11.78" ry="11.74"/><ellipse class="a21e13c0-257d-4b96-a1cf-61821162a6e7" cx="448.42" cy="645.94" rx="9.13" ry="9.1"/><ellipse class="a21e13c0-257d-4b96-a1cf-61821162a6e7" cx="477.74" cy="645.94" rx="11.78" ry="11.74"/><ellipse class="a21e13c0-257d-4b96-a1cf-61821162a6e7" cx="505.86" cy="645.94" rx="9.13" ry="9.1"/><ellipse class="a21e13c0-257d-4b96-a1cf-61821162a6e7" cx="535.18" cy="645.94" rx="11.78" ry="11.74"/><ellipse class="a21e13c0-257d-4b96-a1cf-61821162a6e7" cx="563.3" cy="645.94" rx="9.13" ry="9.1"/><ellipse class="a21e13c0-257d-4b96-a1cf-61821162a6e7" cx="592.62" cy="645.94" rx="11.78" ry="11.74"/><ellipse class="a21e13c0-257d-4b96-a1cf-61821162a6e7" cx="620.74" cy="645.94" rx="9.13" ry="9.1"/><ellipse class="a21e13c0-257d-4b96-a1cf-61821162a6e7" cx="650.06" cy="645.94" rx="11.78" ry="11.74"/><ellipse class="a21e13c0-257d-4b96-a1cf-61821162a6e7" cx="678.18" cy="645.94" rx="9.13" ry="9.1"/><ellipse class="a21e13c0-257d-4b96-a1cf-61821162a6e7" cx="707.5" cy="645.94" rx="11.78" ry="11.74"/><ellipse class="a21e13c0-257d-4b96-a1cf-61821162a6e7" cx="735.61" cy="645.94" rx="9.13" ry="9.1"/><ellipse class="a21e13c0-257d-4b96-a1cf-61821162a6e7" cx="764.94" cy="645.94" rx="11.78" ry="11.74"/><ellipse class="a21e13c0-257d-4b96-a1cf-61821162a6e7" cx="793.05" cy="645.94" rx="9.13" ry="9.1"/><ellipse class="a21e13c0-257d-4b96-a1cf-61821162a6e7" cx="822.37" cy="645.94" rx="11.78" ry="11.74"/><ellipse class="a21e13c0-257d-4b96-a1cf-61821162a6e7" cx="850.49" cy="645.94" rx="9.13" ry="9.1"/><ellipse class="a21e13c0-257d-4b96-a1cf-61821162a6e7" cx="879.81" cy="645.94" rx="11.78" ry="11.74"/><ellipse class="a21e13c0-257d-4b96-a1cf-61821162a6e7" cx="907.93" cy="645.94" rx="9.13" ry="9.1"/><ellipse class="a21e13c0-257d-4b96-a1cf-61821162a6e7" cx="937.25" cy="645.94" rx="11.78" ry="11.74"/><ellipse class="a21e13c0-257d-4b96-a1cf-61821162a6e7" cx="965.37" cy="645.94" rx="9.13" ry="9.1"/><ellipse class="a21e13c0-257d-4b96-a1cf-61821162a6e7" cx="994.69" cy="645.94" rx="11.78" ry="11.74"/><ellipse class="a21e13c0-257d-4b96-a1cf-61821162a6e7" cx="1022.81" cy="645.94" rx="9.13" ry="9.1"/><ellipse class="a21e13c0-257d-4b96-a1cf-61821162a6e7" cx="1052.13" cy="645.94" rx="11.78" ry="11.74"/><ellipse class="a21e13c0-257d-4b96-a1cf-61821162a6e7" cx="1080.24" cy="645.94" rx="9.13" ry="9.1"/><ellipse class="a21e13c0-257d-4b96-a1cf-61821162a6e7" cx="1109.57" cy="645.94" rx="11.78" ry="11.74"/><ellipse class="a21e13c0-257d-4b96-a1cf-61821162a6e7" cx="1137.68" cy="645.94" rx="9.13" ry="9.1"/><ellipse class="a21e13c0-257d-4b96-a1cf-61821162a6e7" cx="1167" cy="645.94" rx="11.78" ry="11.74"/><ellipse class="a21e13c0-257d-4b96-a1cf-61821162a6e7" cx="1195.12" cy="645.94" rx="9.13" ry="9.1"/><ellipse class="a21e13c0-257d-4b96-a1cf-61821162a6e7" cx="1224.44" cy="645.94" rx="11.78" ry="11.74"/><ellipse class="a21e13c0-257d-4b96-a1cf-61821162a6e7" cx="1252.56" cy="645.94" rx="9.13" ry="9.1"/><ellipse class="a21e13c0-257d-4b96-a1cf-61821162a6e7" cx="1281.88" cy="645.94" rx="11.78" ry="11.74"/><ellipse class="a21e13c0-257d-4b96-a1cf-61821162a6e7" cx="1310" cy="645.94" rx="9.13" ry="9.1"/><ellipse class="a21e13c0-257d-4b96-a1cf-61821162a6e7" cx="1339.32" cy="645.94" rx="11.78" ry="11.74"/><ellipse class="a21e13c0-257d-4b96-a1cf-61821162a6e7" cx="1367.44" cy="645.94" rx="9.13" ry="9.1"/><rect class="ad67712a-2966-4c41-ba2d-5e7c354174c3" y="660.16" width="1400" height="389.84"/></g></g></svg>