<svg xmlns="http://www.w3.org/2000/svg" viewBox="0 0 170.08 170.08"><defs><style>.b500a6c1-3f33-49df-8d7c-9ba7f216a1e8,.bd5e139d-f99e-488f-aae1-b8cff1101340{fill:none;}.ffe35508-00ed-454a-b319-bda9c2e29b2b{fill:#fff;}.ad36c770-043e-4cbd-9e37-4a7dcf8bab91{fill:#657857;}.a3db4406-091f-483a-9c18-282a2df55d93{fill:#c8e3c1;}.ae3885e8-6a85-43c4-9b13-cc10b704f260{fill:#586a4d;}.b500a6c1-3f33-49df-8d7c-9ba7f216a1e8{stroke:#738864;stroke-linecap:round;stroke-miterlimit:10;stroke-width:2.42px;}</style></defs><title>離開</title><g id="b1ea9871-c1bc-44b2-b530-045e8280290f" data-name="圖層 2"><g id="ba66ef17-bba4-4885-a7da-cb7fc383b1e6" data-name="圖層 1"><path class="bd5e139d-f99e-488f-aae1-b8cff1101340" d="M0,0V20.52A109.66,109.66,0,0,1,143.55,124.78a109.3,109.3,0,0,1-9.8,45.3h36.33V0Z"/><path class="ffe35508-00ed-454a-b319-bda9c2e29b2b" d="M33.92,15.15A109.55,109.55,0,0,0,0,20.52V33a97.84,97.84,0,0,1,131.71,91.74,97.42,97.42,0,0,1-11.13,45.3h13.17A109.62,109.62,0,0,0,33.92,15.15Z"/><path class="ad36c770-043e-4cbd-9e37-4a7dcf8bab91" d="M33.92,27A97.55,97.55,0,0,0,0,33V46a85.81,85.81,0,0,1,119.71,78.81,85.41,85.41,0,0,1-12.94,45.3h13.81a97.42,97.42,0,0,0,11.13-45.3A97.8,97.8,0,0,0,33.92,27Z"/><path class="a3db4406-091f-483a-9c18-282a2df55d93" d="M33.92,39A85.38,85.38,0,0,0,0,46V170.08H106.77a85.41,85.41,0,0,0,12.94-45.3A85.79,85.79,0,0,0,33.92,39Z"/><path class="ae3885e8-6a85-43c4-9b13-cc10b704f260" d="M72.46,129.37V98.61a13.11,13.11,0,0,0-13.26-13H31.15c-7,0-7.63-10.27-.68-10.82.36,0,.72,0,1.09,0H71a13.1,13.1,0,0,1,13.26,13v52.48a13.11,13.11,0,0,1-13.26,13H31.56c-.37,0-.73,0-1.09,0-6.95-.56-6.3-10.82.67-10.82H59.2A13.11,13.11,0,0,0,72.46,129.37Z"/><path class="ae3885e8-6a85-43c4-9b13-cc10b704f260" d="M18.51,110,33.65,93.81a2.31,2.31,0,0,1,4,1.65V100H56.44a6.17,6.17,0,0,1,6.09,6.25v15.5A6.16,6.16,0,0,1,56.44,128H37.63v4.54a2.3,2.3,0,0,1-4,1.64L18.51,118A5.92,5.92,0,0,1,18.51,110Z"/><line class="b500a6c1-3f33-49df-8d7c-9ba7f216a1e8" x1="56.82" y1="122.09" x2="41.66" y2="122.09"/><line class="b500a6c1-3f33-49df-8d7c-9ba7f216a1e8" x1="30.16" y1="103.42" x2="23.55" y2="110.67"/><path class="b500a6c1-3f33-49df-8d7c-9ba7f216a1e8" d="M65.23,147.86s13.44,1.78,13.44-14.31"/></g></g></svg>