<svg xmlns="http://www.w3.org/2000/svg" xmlns:xlink="http://www.w3.org/1999/xlink" viewBox="0 0 1400 1050"><defs><style>.e7e6ef1d-c0b0-4f3a-af32-870798d4cb06{fill:none;}.bc95820e-9aa8-4943-9899-fee84617fed9{fill:url(#ed8dedfd-a82d-4d00-9786-e7c57a28f090);}.babd7614-bbe5-4459-b9e9-ace42eca18bf{fill:#79a45c;}.ad6aa265-e785-4099-a574-ce53c5527951{fill:#80b45e;}.f7359e33-d408-46bd-8879-808fae99f8a7{fill:#8ebb64;}.b3e8a41a-14a9-4f2e-9272-ff4f08baeae5{fill:#a5be97;}.e95e183d-a7fe-4355-86c9-afdbf47d18c3{clip-path:url(#ec06709b-e113-4f35-be6a-20ee4c17f1e3);}.a4b371d7-c6c3-4e5b-928d-5e0af175d1b5{fill:url(#b7d1ac37-0a53-46d5-8edf-e50960866270);}.b74bb875-ac82-4756-a808-489128c2cd0d{fill:#56925a;}.f26aa26d-f9d5-472a-956e-4572b66f638e{fill:#007239;}.b7fa64a2-3962-4d8c-8171-cd85b1e5beef{fill:#006735;}.ae8e50c3-33dd-471e-8e8c-da0c16870093{fill:#005023;}.a58719a0-d16d-4e2b-ae04-05da5a509288{fill:#fff;}.bb2989e6-d038-46e7-abef-b32336b7389a{fill:url(#a85b43d3-095a-472e-aa9d-369f491f36fc);}.fa5c466d-d249-4e26-b95f-256d74ac4416{fill:#008c31;}.a4994159-b5ff-4225-8835-97812af2d843{fill:#007827;}.bb69e893-628e-43d5-95dc-e4c6e6ff506f{fill:#45831a;}.ea8b94a4-b72c-411b-a770-784223a24817{fill:#578712;}.aaa57bec-7abb-43bf-aa34-02867c520b40{fill:#599a21;}.b995ca21-9327-4b0c-9522-cd7d05ee2d8d{fill:#575757;}.eb6950d4-b2eb-425c-a73c-038b01597cf3{fill:url(#adca19b0-a6ca-4136-8be8-986dc6c42d08);}.bc3a41e0-9652-45c8-97fd-a25014974738{fill:url(#a43a3ab2-42fa-431e-b568-67cb6fc232b5);}</style><linearGradient id="ed8dedfd-a82d-4d00-9786-e7c57a28f090" x1="699.48" y1="-106.85" x2="699.48" y2="810.13" gradientUnits="userSpaceOnUse"><stop offset="0" stop-color="#5ec5f2"/><stop offset="0.24" stop-color="#67c7f2"/><stop offset="0.33" stop-color="#90d6f5"/><stop offset="0.48" stop-color="#cbecfb"/><stop offset="0.6" stop-color="#f1fafe"/><stop offset="0.65" stop-color="#fff"/></linearGradient><clipPath id="ec06709b-e113-4f35-be6a-20ee4c17f1e3"><path class="e7e6ef1d-c0b0-4f3a-af32-870798d4cb06" d="M520.42,786.83S535.79,165.66,879.48,164,1238.71,777,1238.71,777Z"/></clipPath><radialGradient id="b7d1ac37-0a53-46d5-8edf-e50960866270" cx="1038.86" cy="361.18" r="264.9" gradientTransform="translate(-331.8 0.09) scale(1.15 1)" gradientUnits="userSpaceOnUse"><stop offset="0" stop-color="#96b64a"/><stop offset="1" stop-color="#00824e"/></radialGradient><linearGradient id="a85b43d3-095a-472e-aa9d-369f491f36fc" x1="421.98" y1="929.77" x2="1250.79" y2="929.77" gradientUnits="userSpaceOnUse"><stop offset="0" stop-color="#b5b5b6"/><stop offset="0.08" stop-color="#bababb"/><stop offset="0.17" stop-color="#c8c8c9"/><stop offset="0.27" stop-color="#dfdfdf"/><stop offset="0.36" stop-color="#fbfbfb"/><stop offset="1" stop-color="#6b6b6b"/></linearGradient><radialGradient id="adca19b0-a6ca-4136-8be8-986dc6c42d08" cx="1315.61" cy="445.74" r="212.26" gradientTransform="translate(0 0.09)" gradientUnits="userSpaceOnUse"><stop offset="0" stop-color="#96b64a"/><stop offset="0.03" stop-color="#5fa34f"/><stop offset="1" stop-color="#003c1b"/></radialGradient><radialGradient id="a43a3ab2-42fa-431e-b568-67cb6fc232b5" cx="283.5" cy="445.74" r="212.26" gradientTransform="translate(-209.99 0.09) scale(1.11 1)" gradientUnits="userSpaceOnUse"><stop offset="0" stop-color="#96b64a"/><stop offset="1" stop-color="#005b37"/></radialGradient></defs><title>背景</title><g id="e09b65b1-bad2-42eb-9475-fe326bd5f1bd" data-name="圖層 2"><g id="b4c4cd89-384a-4b40-af2b-5cb8c7bfc74e" data-name="圖層 1"><rect class="bc95820e-9aa8-4943-9899-fee84617fed9" width="1398.95" height="722.61"/><path class="babd7614-bbe5-4459-b9e9-ace42eca18bf" d="M1400,868.29H695.22s-29.29,0-29.29-15.28,28.47-12.74,28.47-12.74l105-.16s32.55,2.71,32.55-16.4-41.5-14.86-41.5-14.86H481.25s-19.52-1.7-19.52-14.86,20.34-10.61,20.34-10.61H705.79s27.66,1.27,27.66-9.77-9.76-11.89-26.84-11.89H539.83s-21.15-.84-21.15-9.76,7.32-11.89,17.89-11.89H853.86s22.78-1.7,22.78-12.31-8.13-14.44-22-14.44H617.12s-18.72-.85-18.72-11.89,18.31-9.55,18.31-9.55H962.88s22.52.21,22.52-9.55S965.6,672,965.6,672H696.84S679,671.39,679,661.52s17.18-9,17.18-9H1400Z"/><path class="ad6aa265-e785-4099-a574-ce53c5527951" d="M2.29,723.82H200.74s15.29,0,15.29,15.28-14.86,12.74-14.86,12.74L146.4,752s-17-2.71-17,16.4,21.66,14.86,21.66,14.86H312.41s10.19,1.7,10.19,14.86S312,808.73,312,808.73H195.22s-14.43-1.27-14.43,9.77,5.09,11.89,14,11.89h87s11,.85,11,9.76S289.05,852,283.54,852H118s-11.89,1.7-11.89,12.31,4.25,14.44,11.47,14.44h124s9.77.85,9.77,11.89-9.56,9.55-9.56,9.55H61.06S49.3,900,49.3,909.78s10.34,10.34,10.34,10.34H199.89s9.34.6,9.34,10.47-9,9-9,9H2.29Z"/><path class="f7359e33-d408-46bd-8879-808fae99f8a7" d="M592.38,908.35c0,15.28-14.86,12.73-14.86,12.73l-54.77.16s-17-2.7-17,16.4,21.65,14.86,21.65,14.86H688.76S699,954.2,699,967.36,688.34,978,688.34,978H571.58s-14.44-1.28-14.44,9.76,5.1,11.89,14,11.89h87s11,.85,11,9.77-3.82,11.88-9.34,11.88H494.31s-11.89,1.7-11.89,12.32,4.24,14.43,11.46,14.43h124a11.63,11.63,0,0,1,3.82,1.2l419.18-.53c.32-17.45,11.89-14,11.89-14h130.92s16.19,1.77,16.19-13.58-5.72-16.53-15.71-16.53h-97.6s-12.38-1.18-12.38-13.58,4.29-16.53,10.48-16.53h185.67s13.33-2.36,13.33-17.12-4.77-20.07-12.86-20.07h-139s-11-1.18-11-16.53,10.71-13.29,10.71-13.29h202.57s13.18.3,13.18-13.28-11.59-14.37-11.59-14.37H1178.43S1168,879,1168,865.24,1178,852.77,1178,852.77h222V722.22H0V893.06H577.1S592.38,893.06,592.38,908.35Z"/><path class="b3e8a41a-14a9-4f2e-9272-ff4f08baeae5" d="M617.86,1048h-124c-7.22,0-11.46-3.82-11.46-14.43s11.89-12.32,11.89-12.32H659.89c5.52,0,9.34-3,9.34-11.88s-11-9.77-11-9.77h-87c-8.91,0-14-.85-14-11.89S571.58,978,571.58,978H688.34S699,980.52,699,967.36s-10.19-14.86-10.19-14.86H527.42s-21.65,4.25-21.65-14.86,17-16.4,17-16.4l54.77-.16s14.86,2.55,14.86-12.73-15.28-15.29-15.28-15.29H0V1050l621.68-.77A11.63,11.63,0,0,0,617.86,1048Z"/><path class="ad6aa265-e785-4099-a574-ce53c5527951" d="M1168,865.24c0,13.72,10.47,14.56,10.47,14.56H1335.7s11.59.79,11.59,14.37-13.18,13.28-13.18,13.28H1131.54s-10.71-2.06-10.71,13.29,11,16.53,11,16.53h139c8.09,0,12.86,5.31,12.86,20.07s-13.33,17.12-13.33,17.12H1084.65c-6.19,0-10.48,4.13-10.48,16.53s12.38,13.58,12.38,13.58h97.6c10,0,15.71,1.18,15.71,16.53s-16.19,13.58-16.19,13.58H1052.75s-11.57-3.43-11.89,14l359.14-.44V852.77H1178S1168,851.52,1168,865.24Z"/><g class="e95e183d-a7fe-4355-86c9-afdbf47d18c3"><path class="a4b371d7-c6c3-4e5b-928d-5e0af175d1b5" d="M520.42,786.83S535.79,165.66,879.48,164,1238.71,777,1238.71,777Z"/><path class="b74bb875-ac82-4756-a808-489128c2cd0d" d="M661.37,197.93c27,51.17,81.72,85.39,137.64,96.21,66.44,12.85,133.15-7.39,189.77-42.23,33.11-20.37,63.14-45.3,93-70.13,6.43-5.35,5.53-16.35,0-21.88-6.36-6.36-15.44-5.37-21.88,0-47.68,39.72-97.68,79.88-157.29,97.85q-11.43,3.45-23.14,5.82a165.89,165.89,0,0,1-20.47,3,203.38,203.38,0,0,1-22.62.76c-3.38-.08-6.76-.24-10.13-.5-1.55-.11-3.1-.25-4.65-.4l-2.32-.25c-.27,0-3.24-.37-1.8-.19.83.1-3.15-.47-4.09-.62-1.53-.25-3.06-.51-4.58-.8q-5.32-1-10.6-2.26a203.24,203.24,0,0,1-19.93-5.89q-4.34-1.52-8.6-3.23c-.32-.13-3.23-1.35-1.68-.69,1.39.6-.91-.4-1-.42-1.62-.73-3.23-1.46-4.84-2.22a198.22,198.22,0,0,1-17.94-9.63q-4.79-2.9-9.4-6.08-2.15-1.47-4.24-3c-.6-.43-1.19-.88-1.78-1.32-1.31-1,1.15,1-1-.73A178.29,178.29,0,0,1,712.09,215c-2.52-2.55-5-5.19-7.32-7.91-1.24-1.44-2.45-2.92-3.65-4.39-.09-.1-1.53-2-.55-.68s-.77-1-.93-1.26a147.4,147.4,0,0,1-11.55-18.46c-3.9-7.39-14.17-9.64-21.17-5.55-7.48,4.37-9.47,13.76-5.55,21.17Z"/><path class="f26aa26d-f9d5-472a-956e-4572b66f638e" d="M565.62,303.29c42.84,73.32,112.68,133.34,196,154.38,51.37,13,104.86,9.68,156.49.1,49.59-9.2,99.23-23.9,142.73-50,24.48-14.69,46.86-32.67,68.63-51.05,23.13-19.54,46.06-39.33,69.08-59,6.36-5.43,5.58-16.3,0-21.88-6.3-6.3-15.51-5.45-21.88,0q-29.75,25.41-59.48,50.83c-18.54,15.82-36,30.59-55.8,44-40,27.21-83.32,42.56-130.63,53s-98.1,16.48-145.61,7.51a257.77,257.77,0,0,1-30.24-7.62q-6.61-2.1-13.11-4.54c-2.4-.89-4.77-1.84-7.15-2.79-4.55-1.83,1.43.63-1.24-.52-1.63-.71-3.27-1.43-4.89-2.17a289.64,289.64,0,0,1-52.09-30.75c-.81-.59-1.61-1.19-2.42-1.8-.32-.24-3.65-2.83-1.63-1.24q-3.55-2.79-7-5.66Q659,368.85,653,363.26a334.57,334.57,0,0,1-23.92-24.46q-5.37-6.09-10.44-12.42l-1.83-2.3c-1.11-1.43-1.21-1.54-.28-.35-.45-.58-.89-1.16-1.33-1.75-1.62-2.13-3.21-4.29-4.77-6.46q-9.72-13.49-18.07-27.85a15.48,15.48,0,0,0-26.72,15.62Z"/><path class="b7fa64a2-3962-4d8c-8171-cd85b1e5beef" d="M496.87,499.83c69.66,79.3,175.88,119.34,279.54,124.55a506.07,506.07,0,0,0,169-20.66c51.74-15.39,101-38.64,147.45-65.91,50.81-29.81,98.58-64.4,146.13-99.06,6.75-4.91,10.08-13.44,5.56-21.17-3.9-6.66-14.38-10.5-21.18-5.55-41.53,30.27-83.2,60.47-127,87.5-44,27.2-89.71,50.92-137.5,67.37C907.13,584.72,854.94,594,800.64,594c-53,.05-104.37-8.71-154.24-28.24a374.39,374.39,0,0,1-69.54-36.67,265,265,0,0,1-29.5-22.63A307,307,0,0,1,518.75,478c-5.52-6.28-16.24-5.64-21.88,0-6.24,6.23-5.53,15.58,0,21.88Z"/><path class="ae8e50c3-33dd-471e-8e8c-da0c16870093" d="M445.59,650.53c42.52,35.71,91.6,62.52,144.22,80.14,56.82,19,116.45,25.08,176.12,25.15,62.42.08,126.52-1.43,187.58-15.56C1013,726.49,1070,702,1125.75,677.48c60.09-26.44,118.89-56.43,172.81-94.08,6.84-4.78,10-13.55,5.55-21.17-4-6.77-14.29-10.36-21.17-5.55-47.34,33.06-98.49,60.23-150.92,84.25-52.12,23.87-105.38,46.84-161.15,62.84-58.5,16.78-117.68,19.66-178.52,20.85-58.88,1.14-116.51-1.38-173.15-17.29-55.06-15.46-108.68-42.53-151.73-78.68-6.4-5.38-15.61-6.28-21.88,0-5.52,5.51-6.43,16.48,0,21.88Z"/></g><ellipse class="a58719a0-d16d-4e2b-ae04-05da5a509288" cx="999.25" cy="133.94" rx="95.73" ry="49.89"/><ellipse class="a58719a0-d16d-4e2b-ae04-05da5a509288" cx="1318.63" cy="183.83" rx="73.67" ry="38.39"/><ellipse class="a58719a0-d16d-4e2b-ae04-05da5a509288" cx="477.7" cy="97.46" rx="73.67" ry="38.39"/><ellipse class="a58719a0-d16d-4e2b-ae04-05da5a509288" cx="1124.02" cy="146.14" rx="67.17" ry="35"/><ellipse class="a58719a0-d16d-4e2b-ae04-05da5a509288" cx="76.82" cy="188.87" rx="51.69" ry="26.94"/><ellipse class="a58719a0-d16d-4e2b-ae04-05da5a509288" cx="804.11" cy="351.71" rx="73.67" ry="38.39"/><ellipse class="a58719a0-d16d-4e2b-ae04-05da5a509288" cx="196.9" cy="172.49" rx="96.46" ry="49.73"/><path class="bb2989e6-d038-46e7-abef-b32336b7389a" d="M422,1049.09s94-106.66,324.58-148.95,217.33-89.69,217.33-89.69h285.65s20.65,190.36-106,238.64Z"/><polygon class="fa5c466d-d249-4e26-b95f-256d74ac4416" points="1300.86 864.97 1274.94 909.86 1326.78 909.86 1300.86 864.97"/><polygon class="fa5c466d-d249-4e26-b95f-256d74ac4416" points="1344.33 864.97 1318.41 909.86 1370.24 909.86 1344.33 864.97"/><polygon class="fa5c466d-d249-4e26-b95f-256d74ac4416" points="1320.86 835.92 1294.95 909.86 1346.78 909.86 1320.86 835.92"/><polygon class="a4994159-b5ff-4225-8835-97812af2d843" points="85.33 967.57 59.41 1012.46 111.25 1012.46 85.33 967.57"/><polygon class="a4994159-b5ff-4225-8835-97812af2d843" points="128.79 967.57 102.87 1012.46 154.71 1012.46 128.79 967.57"/><polygon class="a4994159-b5ff-4225-8835-97812af2d843" points="105.33 938.53 79.41 1012.46 131.25 1012.46 105.33 938.53"/><polygon class="bb69e893-628e-43d5-95dc-e4c6e6ff506f" points="48.27 987.59 30.7 1018.02 65.84 1018.02 48.27 987.59"/><polygon class="bb69e893-628e-43d5-95dc-e4c6e6ff506f" points="77.73 987.59 60.16 1018.02 95.3 1018.02 77.73 987.59"/><polygon class="bb69e893-628e-43d5-95dc-e4c6e6ff506f" points="61.83 967.9 44.25 1018.02 79.39 1018.02 61.83 967.9"/><polygon class="a4994159-b5ff-4225-8835-97812af2d843" points="1347.2 883.55 1330.62 912.27 1363.78 912.27 1347.2 883.55"/><polygon class="a4994159-b5ff-4225-8835-97812af2d843" points="1375.01 883.55 1358.42 912.27 1391.59 912.27 1375.01 883.55"/><polygon class="a4994159-b5ff-4225-8835-97812af2d843" points="1360 864.97 1343.42 912.27 1376.58 912.27 1360 864.97"/><polygon class="ea8b94a4-b72c-411b-a770-784223a24817" points="1274.03 992.75 1257.45 1021.47 1290.61 1021.47 1274.03 992.75"/><polygon class="ea8b94a4-b72c-411b-a770-784223a24817" points="1301.84 992.75 1285.26 1021.47 1318.42 1021.47 1301.84 992.75"/><polygon class="ea8b94a4-b72c-411b-a770-784223a24817" points="1286.83 974.17 1270.25 1021.47 1303.41 1021.47 1286.83 974.17"/><polygon class="aaa57bec-7abb-43bf-aa34-02867c520b40" points="41.71 813.36 25.13 842.08 58.29 842.08 41.71 813.36"/><polygon class="aaa57bec-7abb-43bf-aa34-02867c520b40" points="69.52 813.36 52.94 842.08 86.1 842.08 69.52 813.36"/><polygon class="aaa57bec-7abb-43bf-aa34-02867c520b40" points="54.51 794.78 37.93 842.08 71.09 842.08 54.51 794.78"/><path class="b995ca21-9327-4b0c-9522-cd7d05ee2d8d" d="M1118.19,1038c39.84-25.95,68.57-67.8,77.4-114.64,1.11-5.86-1.63-11.92-7.71-13.59-5.39-1.48-12.48,1.82-13.59,7.71-7.78,41.25-32,78.47-67.25,101.45-11.86,7.73-.8,26.86,11.15,19.07Z"/><path class="b995ca21-9327-4b0c-9522-cd7d05ee2d8d" d="M619.17,1033.11a454.8,454.8,0,0,1,157-86.06,469,469,0,0,1,50.78-12.77c5.86-1.13,9.2-8.16,7.71-13.59-1.68-6.12-7.71-8.85-13.58-7.71a476.61,476.61,0,0,0-174.16,71.75,492.6,492.6,0,0,0-43.36,32.76c-4.56,3.85-4,11.65,0,15.62,4.52,4.51,11,3.86,15.62,0Z"/><path class="eb6950d4-b2eb-425c-a73c-038b01597cf3" d="M1186.92,464.56c21,18.12,45.87,31.62,72.93,37.78,34.84,7.94,71.5,2.47,105.6-6.48A287.81,287.81,0,0,0,1400,484.51V359.82c-37.91,25.89-84,41.7-129.92,31.29a143.31,143.31,0,0,1-70.88-40.33c-18.56,21.48-34.32,47.26-47.69,75.41A234.81,234.81,0,0,0,1186.92,464.56Z"/><path class="eb6950d4-b2eb-425c-a73c-038b01597cf3" d="M1233.39,349.82a122.72,122.72,0,0,0,50.06,20.41c19.55,3.25,40.72,0,59.75-6.71,20.81-7.29,39.45-18.72,56.8-32.08V305a155.11,155.11,0,0,0-73.14-17.29c-44.75.25-81.51,17.85-111.7,46.3A113.53,113.53,0,0,0,1233.39,349.82Z"/><path class="eb6950d4-b2eb-425c-a73c-038b01597cf3" d="M1383.49,610.79q8.35-3.36,16.51-7.15V509.37a348.07,348.07,0,0,1-45.14,12.78c-37,8-76,10.66-112.63-.58-40.45-12.41-74.73-38.74-101.35-71.34-15.82,38.4-27.76,79.95-36.75,120.32A243.24,243.24,0,0,0,1165.9,611C1234.5,642.43,1314.45,638.54,1383.49,610.79Z"/><path class="eb6950d4-b2eb-425c-a73c-038b01597cf3" d="M1380.62,748.17c-43.06,11.78-89.09,13.09-133.5,13-42.34-.11-84.5-5.29-124.1-20.86A305.94,305.94,0,0,1,1081.11,720c-3.78,40.51-4.35,66.81-4.35,66.81L1400,781.76V742.23C1393.59,744.38,1387.13,746.38,1380.62,748.17Z"/><path class="eb6950d4-b2eb-425c-a73c-038b01597cf3" d="M1265.45,737.83c42.79-.92,85.13-3.49,126-17.13q4.27-1.44,8.53-3v-89q-12.59,5.46-25.57,10c-39,13.54-81,19.68-122.25,16.85-56.36-3.87-110.29-24.49-153.38-59.67-7,35.65-11.81,69.61-15.09,98.74a271.18,271.18,0,0,0,61,28.88C1183.84,736.4,1224.52,738.72,1265.45,737.83Z"/><path class="b74bb875-ac82-4756-a808-489128c2cd0d" d="M1270.08,391.11c45.93,10.41,92-5.4,129.92-31.29V331.44c-17.35,13.36-36,24.79-56.8,32.08-19,6.67-40.2,10-59.75,6.71a122.72,122.72,0,0,1-50.06-20.41,113.53,113.53,0,0,1-18.23-15.77,222.47,222.47,0,0,0-16,16.73A143.31,143.31,0,0,0,1270.08,391.11Z"/><path class="f26aa26d-f9d5-472a-956e-4572b66f638e" d="M1242.23,521.57c36.63,11.24,75.63,8.57,112.63.58A348.07,348.07,0,0,0,1400,509.37V484.51a287.81,287.81,0,0,1-34.55,11.35c-34.1,8.95-70.76,14.42-105.6,6.48-27.06-6.16-51.91-19.66-72.93-37.78a234.81,234.81,0,0,1-35.41-38.37q-5.6,11.76-10.63,24C1167.5,482.83,1201.78,509.16,1242.23,521.57Z"/><path class="b7fa64a2-3962-4d8c-8171-cd85b1e5beef" d="M1374.43,638.79q13-4.51,25.57-10V603.64q-8.16,3.78-16.51,7.15c-69,27.75-149,31.64-217.59.18a243.24,243.24,0,0,1-61.77-40.42q-2.87,12.81-5.33,25.42c43.09,35.18,97,55.8,153.38,59.67C1293.41,658.47,1335.43,652.33,1374.43,638.79Z"/><path class="ae8e50c3-33dd-471e-8e8c-da0c16870093" d="M1247.12,761.15c44.41.11,90.44-1.2,133.5-13,6.51-1.79,13-3.79,19.38-5.94V717.74q-4.26,1.51-8.53,3c-40.89,13.64-83.23,16.21-126,17.13-40.93.89-81.61-1.43-120.76-14.24a271.18,271.18,0,0,1-61-28.88c-1,8.92-1.86,17.38-2.6,25.31A305.94,305.94,0,0,0,1123,740.29C1162.62,755.86,1204.78,761,1247.12,761.15Z"/><path class="bc3a41e0-9652-45c8-97fd-a25014974738" d="M12,349.11c36.79,23.13,80.09,27,121.58,14,31.06-9.72,58.2-27.19,83.59-47.07-28.77-18-62.24-28.52-101.18-28.33C70.19,288,31.93,303.1,0,327.93v12.62A128.89,128.89,0,0,0,12,349.11Z"/><path class="bc3a41e0-9652-45c8-97fd-a25014974738" d="M53.77,391.76A164,164,0,0,1,0,370.32V488a191.75,191.75,0,0,0,43.6,14.18c37.5,7.33,76.71,2.13,113.53-6.44,35.94-8.37,70-21.44,100.2-43,14.84-10.6,28.52-22.73,42.14-34.83l5.25-4.66c-18.3-32.19-40.37-60.72-67-82.41A424.07,424.07,0,0,1,200.39,358C157,385.73,105.27,402.21,53.77,391.76Z"/><path class="bc3a41e0-9652-45c8-97fd-a25014974738" d="M256,482.81C222.55,503.7,184,515.59,145.52,523c-40,7.67-81.54,10.25-121.24-.38A209.05,209.05,0,0,1,0,514.46V627.91c59,10,120.54,3.2,177.1-17.06,62.19-22.28,117.28-59.59,170.14-98.86a576.19,576.19,0,0,0-30.82-76.7q-3.92,3.48-7.85,6.93C291.94,456.82,274.8,471.07,256,482.81Z"/><path class="bc3a41e0-9652-45c8-97fd-a25014974738" d="M166.12,640.1A375.62,375.62,0,0,1,33.68,656.25c-11.24-.68-22.49-1.94-33.68-3.74v84.15c16.5.84,33.08.89,49.67.54,46.65-1,92.93-3.49,137.86-17,42.95-12.95,84.52-31.63,124.92-51,22-10.54,43.68-21.85,64.71-34.23a941.78,941.78,0,0,0-22.41-98.49c-24.38,18-49.18,35.37-75.07,51.11C244,609.28,206.11,627.82,166.12,640.1Z"/><path class="bc3a41e0-9652-45c8-97fd-a25014974738" d="M381.32,660.66c-24.57,14-49.95,26.68-75.69,38.45-42.48,19.43-86,38.85-131.57,49.94-47.65,11.61-98,12.84-146.82,12.69Q13.6,761.71,0,761v23.52L392.8,779S391.57,728.87,381.32,660.66Z"/><path class="b74bb875-ac82-4756-a808-489128c2cd0d" d="M12,349.11a128.89,128.89,0,0,1-12-8.56v29.77a164,164,0,0,0,53.77,21.44c51.5,10.45,103.24-6,146.62-33.79a424.07,424.07,0,0,0,37.32-27.17,205.66,205.66,0,0,0-20.5-14.72c-25.39,19.88-52.53,37.35-83.59,47.07C92.13,376.13,48.83,372.24,12,349.11Z"/><path class="f26aa26d-f9d5-472a-956e-4572b66f638e" d="M257.33,452.7c-30.17,21.56-64.26,34.63-100.2,43-36.82,8.57-76,13.77-113.53,6.44A191.75,191.75,0,0,1,0,488v26.5a209.05,209.05,0,0,0,24.28,8.15c39.7,10.63,81.27,8,121.24.38,38.49-7.4,77-19.29,110.48-40.18,18.8-11.74,35.94-26,52.57-40.59q3.93-3.45,7.85-6.93-5.58-11.28-11.7-22.08l-5.25,4.66C285.85,430,272.17,442.1,257.33,452.7Z"/><path class="b7fa64a2-3962-4d8c-8171-cd85b1e5beef" d="M0,627.91v24.6c11.19,1.8,22.44,3.06,33.68,3.74A375.62,375.62,0,0,0,166.12,640.1c40-12.28,77.89-30.82,113.56-52.52,25.89-15.74,50.69-33.14,75.07-51.11q-3.53-12.26-7.51-24.48c-52.86,39.27-108,76.58-170.14,98.86C120.54,631.11,59,637.93,0,627.91Z"/><path class="ae8e50c3-33dd-471e-8e8c-da0c16870093" d="M187.53,720.16c-44.93,13.55-91.21,16.07-137.86,17-16.59.35-33.17.3-49.67-.54V761q13.61.68,27.24.7c48.84.15,99.17-1.08,146.82-12.69,45.53-11.09,89.09-30.51,131.57-49.94,25.74-11.77,51.12-24.41,75.69-38.45q-1.87-12.48-4.16-25.7c-21,12.38-42.7,23.69-64.71,34.23C272.05,688.53,230.48,707.21,187.53,720.16Z"/></g></g></svg>