<svg xmlns="http://www.w3.org/2000/svg" viewBox="0 0 1400 221.63"><defs><style>.fe8c3f5f-d96e-475e-a16f-b005957b4bb4{fill:none;}.fcd66ffa-91f5-4ffb-ad4e-8c37dba8309d{fill:#713e0a;}.b0c83999-37f0-4bce-b118-465807ae4f09{fill:#673704;}.eb4e6444-125e-4a90-931b-95ff9fbfa7e9{fill:#00752e;}.ac56ff9d-8aea-4d05-a2e4-51a8fc5a2acc{fill:#157e25;}.ac57a089-2a80-4ffc-8b90-f92aa16458ef{fill:#006934;}.a9ac5c5a-2061-446a-86a2-878df0643d68{fill:#4d8719;}.ec574a96-06f6-4c43-b551-cb882d92f9de{opacity:0.2;}.b9433c35-d3f1-45f6-8cc7-81e8823de481{opacity:0.74;}.a8cb11f6-452b-4359-96b2-15ea109b3153{fill:#40220f;}.a05d43b8-7499-494d-9479-c22a4ac6b44f{fill:#6b461b;}.b1cacbd0-1981-4330-95ca-c7e3e2ac7003{fill:#176a21;}.e126d7bf-9e62-449f-baef-61e2da147a54{fill:#348220;}.fbc23da6-db75-41c6-abc7-2bf5e16d5aef{fill:#548916;}.b0111298-f807-40dd-99ea-6f47b8a50ff1{fill:#47861b;}.b5b6ac72-b697-4fd5-96e2-22c1301de917{fill:#2e7f20;}</style></defs><title>bar_2</title><g id="b3323817-95df-4507-96be-6e0e64b5a890" data-name="圖層 2"><g id="a3ab8f3e-6bd3-479c-8416-a23cae80d736" data-name="圖層 1"><path class="fe8c3f5f-d96e-475e-a16f-b005957b4bb4" d="M1380.46,91c-2.06-.16-5.64-.22-10.52-.21l-6.46.06c-2.35,0-4.9.07-7.62.13s-5.62.12-8.68.2c-4.59.11-9.54.25-14.81.41l-10.95.36-5.75.19c-7.8.28-16.07.58-24.68.92l-6.53.26q-9.89.39-20.25.84c-20.68.88-42.53,1.88-64.17,3l-14.38.71-7.14.37c-9.49.49-18.85,1-28,1.49-52.38,2.87-96.47,5.84-109.48,7.89-7.36,1.15-26,2.41-51.76,3.68-9.89.48-20.83,1-32.58,1.45-9.39.39-19.31.77-29.61,1.15-17.94.65-37.08,1.29-56.74,1.89l-9,.27-25.51.74c-14.32.39-28.72.77-43,1.11l-17.48.41-16.63.37-16.63.35-15.89.3-15.63.27-14.66.23c-21.87.32-41.33.5-57,.5-8.66,0-16.15,0-22.22-.15h0c-53.59-1-396.17-7.38-484.15-3.93C86.17,118,36.5,114.94,0,111.63v110H1400V92.76C1393.45,92.06,1386.91,91.47,1380.46,91Z"/><path class="fcd66ffa-91f5-4ffb-ad4e-8c37dba8309d" d="M1178.52,98.17c-9.49.49-18.85,1-28,1.49C1159.67,99.16,1169,98.66,1178.52,98.17Z"/><path class="fcd66ffa-91f5-4ffb-ad4e-8c37dba8309d" d="M775.45,118.25l-16.63.37Z"/><path class="fcd66ffa-91f5-4ffb-ad4e-8c37dba8309d" d="M989.32,111.23c-9.89.48-20.83,1-32.58,1.45C968.49,112.2,979.43,111.71,989.32,111.23Z"/><path class="fcd66ffa-91f5-4ffb-ad4e-8c37dba8309d" d="M1264.21,94.14c-20.68.88-42.53,1.88-64.17,3C1221.68,96,1243.53,95,1264.21,94.14Z"/><path class="fcd66ffa-91f5-4ffb-ad4e-8c37dba8309d" d="M1200,97.09l-14.38.71Z"/><path class="fcd66ffa-91f5-4ffb-ad4e-8c37dba8309d" d="M861.39,116l-25.51.74Z"/><path class="fcd66ffa-91f5-4ffb-ad4e-8c37dba8309d" d="M956.74,112.68c-9.39.39-19.31.77-29.61,1.15C937.43,113.45,947.35,113.07,956.74,112.68Z"/><path class="fcd66ffa-91f5-4ffb-ad4e-8c37dba8309d" d="M927.13,113.83c-17.94.65-37.08,1.29-56.74,1.89C890.05,115.12,909.19,114.48,927.13,113.83Z"/><path class="fcd66ffa-91f5-4ffb-ad4e-8c37dba8309d" d="M616.83,120.12h0c6.07.11,13.56.16,22.22.15-8.66,0-16.15,0-22.22-.15Z"/><path class="fcd66ffa-91f5-4ffb-ad4e-8c37dba8309d" d="M989.32,111.23c25.73-1.27,44.4-2.53,51.76-3.68,13-2,57.1-5,109.48-7.89-52.38,2.87-96.47,5.84-109.48,7.89C1033.72,108.7,1015.05,110,989.32,111.23Z"/><path class="fcd66ffa-91f5-4ffb-ad4e-8c37dba8309d" d="M835.88,116.73c-14.32.39-28.72.77-43,1.11C807.16,117.5,821.56,117.12,835.88,116.73Z"/><path class="fcd66ffa-91f5-4ffb-ad4e-8c37dba8309d" d="M710.67,119.54l-14.66.23Z"/><path class="fcd66ffa-91f5-4ffb-ad4e-8c37dba8309d" d="M338.71,61.05c187.88,25.92,671.27,7.86,718,7.79,34.77,0,223.3-11.05,343.31,13.47V0H0V43.92C81.46,38.45,217.28,44.3,338.71,61.05Z"/><path class="fcd66ffa-91f5-4ffb-ad4e-8c37dba8309d" d="M1369.94,90.77l-6.46.06Z"/><path class="fcd66ffa-91f5-4ffb-ad4e-8c37dba8309d" d="M1284.46,93.3q-9.89.39-20.25.84Q1274.56,93.69,1284.46,93.3Z"/><path class="fcd66ffa-91f5-4ffb-ad4e-8c37dba8309d" d="M1355.86,91c-2.72.05-5.62.12-8.68.2C1350.24,91.08,1353.14,91,1355.86,91Z"/><path class="fcd66ffa-91f5-4ffb-ad4e-8c37dba8309d" d="M1332.37,91.57l-10.95.36Z"/><path class="fcd66ffa-91f5-4ffb-ad4e-8c37dba8309d" d="M1315.67,92.12c-7.8.28-16.07.58-24.68.92C1299.6,92.7,1307.87,92.4,1315.67,92.12Z"/><path class="fcd66ffa-91f5-4ffb-ad4e-8c37dba8309d" d="M742.19,119l-15.89.3Z"/><path class="b0c83999-37f0-4bce-b118-465807ae4f09" d="M132.68,115.9c88-3.46,430.56,3,484.15,3.93h0c6.07.11,13.56.16,22.22.15,15.63,0,35.09-.18,57-.5l14.66-.23L726.3,119l15.89-.31q8.22-.15,16.63-.34l16.63-.37,17.48-.41c14.23-.35,28.63-.72,43-1.12,8.55-.23,17.07-.48,25.51-.73l9-.27c19.66-.6,38.8-1.24,56.74-1.89,10.3-.38,20.22-.76,29.61-1.15,11.75-.48,22.69-1,32.58-1.46,25.73-1.26,44.4-2.52,51.76-3.68,13-2,57.1-5,109.48-7.88,9.11-.5,18.47-1,28-1.49l7.14-.37,14.38-.72c21.64-1.06,43.49-2.07,64.17-3q10.35-.44,20.25-.83l6.53-.26c8.61-.34,16.88-.64,24.68-.92l5.75-.19,10.95-.36c5.27-.16,10.22-.3,14.81-.41,3.06-.08,6-.15,8.68-.2s5.27-.1,7.62-.13l6.46-.06c4.88,0,8.46,0,10.52.21,6.45.49,13,1.08,19.54,1.78V82C1280,57.5,1091.46,68.5,1056.69,68.55c-46.71.07-530.1,18.13-718-7.79C217.28,44,81.46,38.15,0,43.62v67.71C36.5,114.64,86.17,117.73,132.68,115.9Z"/><path class="eb4e6444-125e-4a90-931b-95ff9fbfa7e9" d="M1365.51,126.58c-120.36,12.89-150.45-30.22-150.45-30.22l-67.5,3.46s41.08,46.52,153.35,40C1356.52,136.54,1365.51,126.58,1365.51,126.58Z"/><path class="ac56ff9d-8aea-4d05-a2e4-51a8fc5a2acc" d="M1294.51,126.44s29.67,10.09,41.38-30.35C1335.89,96.09,1312.14,88.84,1294.51,126.44Z"/><path class="eb4e6444-125e-4a90-931b-95ff9fbfa7e9" d="M1214.72,132.65s-16,26.93,21.11,46.77C1235.83,179.42,1247.85,157.69,1214.72,132.65Z"/><path class="ac57a089-2a80-4ffc-8b90-f92aa16458ef" d="M1178.64,108.78c9.34,6.56,18.8,13.13,29.52,17.26a66.84,66.84,0,0,0,33.33,3.53c3.18-.43,1.82-5.25-1.33-4.82-22.78,3.13-41.09-7.7-59-20.29-2.63-1.85-5.14,2.48-2.52,4.32Z"/><path class="ac57a089-2a80-4ffc-8b90-f92aa16458ef" d="M1217.51,146.55a35.55,35.55,0,0,0,10.28,23.95c.57.58,1.45-.31.89-.88a34.15,34.15,0,0,1-9.92-23.07c0-.8-1.28-.8-1.25,0Z"/><path class="ac57a089-2a80-4ffc-8b90-f92aa16458ef" d="M1327.92,100.76c-6.54,1.65-12.18,5.29-17.62,9.18-4.08,2.92-7.74,6.11-8.84,11.2-.17.78,1,1.12,1.21.33,1.25-5.8,6.21-9.09,10.83-12.21s9.3-5.91,14.75-7.29a.63.63,0,0,0-.33-1.21Z"/><path class="ac57a089-2a80-4ffc-8b90-f92aa16458ef" d="M1279.9,130.19a51.69,51.69,0,0,0,20,4.72c.8,0,.8-1.22,0-1.25a49.74,49.74,0,0,1-19.38-4.55c-.72-.33-1.36.75-.63,1.08Z"/><path class="a9ac5c5a-2061-446a-86a2-878df0643d68" d="M1197.5,110a78.18,78.18,0,0,0,42.62,16c3.21.23,3.2-4.78,0-5a73.61,73.61,0,0,1-40.1-15.32c-2.55-2-5,2.38-2.52,4.32Z"/><g class="ec574a96-06f6-4c43-b551-cb882d92f9de"><g class="b9433c35-d3f1-45f6-8cc7-81e8823de481"><path class="a8cb11f6-452b-4359-96b2-15ea109b3153" d="M4.38,12.65c19.7,6.11,39.34,12,59.75,15.3a374.1,374.1,0,0,0,60.08,4.42c41.48-.12,82.23-6.42,123.32-11.11,23.57-2.69,47.51-3.9,70.8,1.48,3.14.73,4.47-4.09,1.33-4.82-40-9.25-81.23-.07-121.26,4.52C157.54,27.12,116,29.71,75.09,24.52c-23.79-3-46.54-9.61-69.38-16.7-3.08-1-4.39,3.87-1.33,4.83Z"/></g><g class="b9433c35-d3f1-45f6-8cc7-81e8823de481"><path class="a8cb11f6-452b-4359-96b2-15ea109b3153" d="M129.68,76.73,317.62,43.22c31.09-5.55,62.47-12.7,94.12-13.91,29.4-1.13,57.75,5.43,85.76,13.68,30.19,8.88,60.16,19.06,91.67,22.08,3.2.3,3.18-4.7,0-5-57.29-5.48-109.68-35.45-167.76-35.92C390.63,23.9,360.15,30.58,330,36L236,52.71,128.35,71.9c-3.16.57-1.82,5.39,1.33,4.83Z"/></g><g class="b9433c35-d3f1-45f6-8cc7-81e8823de481"><path class="a8cb11f6-452b-4359-96b2-15ea109b3153" d="M510.56,10.27c38,9.57,75.63,18.93,114.39,24.85,35.7,5.45,72.62,10.52,108.77,7.44,19.27-1.64,38.11-6,55.63-14.29,2.91-1.37.37-5.69-2.52-4.31C755,39.05,719,39.89,684.43,37.19A849.31,849.31,0,0,1,573.26,20.6c-20.64-4.41-40.92-10-61.37-15.15-3.12-.79-4.45,4-1.33,4.82Z"/></g><g class="b9433c35-d3f1-45f6-8cc7-81e8823de481"><path class="a8cb11f6-452b-4359-96b2-15ea109b3153" d="M299.47,90.93a219.66,219.66,0,0,1,94.42-20c33.71.49,66.57,8.83,99.2,16.48,32.34,7.58,64.8,13.29,97.94,15.79,33.81,2.54,67.76,2.38,101.61.81,38.52-1.79,76.93-5.4,115.32-9,3.17-.3,3.2-5.3,0-5-68.84,6.53-138.1,13.06-207.29,8.88A615.62,615.62,0,0,1,498.1,83.47C466.21,76,434.22,67.75,401.37,66.18A225.67,225.67,0,0,0,296.94,86.61c-2.92,1.34-.38,5.65,2.53,4.32Z"/></g><g class="b9433c35-d3f1-45f6-8cc7-81e8823de481"><path class="a8cb11f6-452b-4359-96b2-15ea109b3153" d="M5.35,52.72c22.35,2.91,45.11,2.83,67.07,8.35,3.12.79,4.46-4,1.33-4.82-22.4-5.63-45.6-5.57-68.4-8.53-3.18-.41-3.15,4.59,0,5Z"/></g><g class="b9433c35-d3f1-45f6-8cc7-81e8823de481"><path class="a8cb11f6-452b-4359-96b2-15ea109b3153" d="M4.94,100.8A294.27,294.27,0,0,1,49.57,100c14,.9,27.86,2.8,41.76,4.46,27.3,3.28,55.12,5.54,81.93-2.13,3.08-.89,1.77-5.71-1.33-4.82-27,7.72-55,5.06-82.46,1.73-13.58-1.65-27.16-3.46-40.83-4.3a293.86,293.86,0,0,0-43.7.91c-3.18.28-3.21,5.28,0,5Z"/></g><g class="b9433c35-d3f1-45f6-8cc7-81e8823de481"><path class="a8cb11f6-452b-4359-96b2-15ea109b3153" d="M646.18,67.53c47.58,9.36,95.24,8.89,143.19,2.77,47.48-6.06,94.85-15.5,142.94-14.14,26.23.74,52.28,4.85,76.88,14.18,3,1.14,4.31-3.69,1.33-4.82-91.16-34.58-187.41,2.94-280.47,4.57a392.25,392.25,0,0,1-82.54-7.38c-3.14-.62-4.49,4.2-1.33,4.82Z"/></g><g class="b9433c35-d3f1-45f6-8cc7-81e8823de481"><path class="a8cb11f6-452b-4359-96b2-15ea109b3153" d="M891.12,8.83C913,12.55,934.8,15.54,957,15.49a358.36,358.36,0,0,0,65.82-6.66c3.15-.6,1.82-5.42-1.33-4.82A350.91,350.91,0,0,1,957,10.49c-21.76,0-43.15-2.83-64.56-6.48-3.15-.54-4.5,4.28-1.33,4.82Z"/></g><g class="b9433c35-d3f1-45f6-8cc7-81e8823de481"><path class="a8cb11f6-452b-4359-96b2-15ea109b3153" d="M842.21,27.68l32.15,1.19c3.22.12,3.21-4.88,0-5l-32.15-1.19c-3.21-.12-3.21,4.88,0,5Z"/></g><g class="b9433c35-d3f1-45f6-8cc7-81e8823de481"><path class="a8cb11f6-452b-4359-96b2-15ea109b3153" d="M962.83,34.79c35.46,3.35,70.91,6.88,105.73,14.62,16.81,3.73,33.5,8.06,50.47,11a375.28,375.28,0,0,0,51,5c19.81.71,39.63.29,59.44-.12,3.21-.07,3.22-5.07,0-5-35.4.74-71.12,1.54-106.19-4.19-17-2.78-33.7-7.06-50.49-10.85-17-3.84-34-6.82-51.27-9.12-19.49-2.61-39.07-4.47-58.65-6.32-3.2-.31-3.18,4.69,0,5Z"/></g><g class="b9433c35-d3f1-45f6-8cc7-81e8823de481"><path class="a8cb11f6-452b-4359-96b2-15ea109b3153" d="M1063.69,18.29l57.42,12c18.49,3.88,37.07,8.73,55.86,10.83,19,2.14,36.69-2.45,55.19-6.11a295.28,295.28,0,0,1,57-5.56,300.17,300.17,0,0,1,64.42,7c3.14.69,4.47-4.13,1.33-4.82a305.26,305.26,0,0,0-109.05-4c-19,2.75-37.87,9.32-57.2,9.23-19.65-.09-39.28-5.74-58.4-9.75L1065,13.47c-3.14-.66-4.48,4.16-1.33,4.82Z"/></g><g class="b9433c35-d3f1-45f6-8cc7-81e8823de481"><path class="a8cb11f6-452b-4359-96b2-15ea109b3153" d="M865.74,91c35.82-16.75,75.59-3.6,112,3.77,38.1,7.73,76.18,5,114.66,2.39,22.24-1.53,44.54-2.68,66.81-1,3.21.24,3.19-4.76,0-5-40.17-3-80.14,3.33-120.26,4A276,276,0,0,1,979,89.9c-19-3.85-37.75-9-57-11.1-20-2.17-40.37-.77-58.76,7.83-2.92,1.36-.38,5.67,2.52,4.32Z"/></g><g class="b9433c35-d3f1-45f6-8cc7-81e8823de481"><path class="a8cb11f6-452b-4359-96b2-15ea109b3153" d="M1041.76,75.57a359.15,359.15,0,0,1,52.67,1.91c14.72,1.64,31.07,6.66,45-.51,2.87-1.47.34-5.78-2.52-4.32-7.32,3.76-15.45,3.38-23.39,2.39-7.66-1-15.27-2.19-23-3a360.51,360.51,0,0,0-48.85-1.51c-3.21.11-3.22,5.11,0,5Z"/></g><g class="b9433c35-d3f1-45f6-8cc7-81e8823de481"><path class="a8cb11f6-452b-4359-96b2-15ea109b3153" d="M223,89l53.18-11.31c3.14-.67,1.81-5.49-1.33-4.82L221.66,84.21c-3.14.67-1.81,5.49,1.33,4.82Z"/></g><g class="b9433c35-d3f1-45f6-8cc7-81e8823de481"><path class="a8cb11f6-452b-4359-96b2-15ea109b3153" d="M364.3,107.38c2.73-3.85,10.47-5,14.78-6.17a110,110,0,0,1,14-2.72,116,116,0,0,1,28.84.1c3.19.4,3.16-4.6,0-5a118.12,118.12,0,0,0-34.36.7,113.62,113.62,0,0,0-16.85,4.17c-4.21,1.4-8.12,2.66-10.75,6.4-1.87,2.63,2.47,5.13,4.31,2.52Z"/></g><g class="b9433c35-d3f1-45f6-8cc7-81e8823de481"><path class="a8cb11f6-452b-4359-96b2-15ea109b3153" d="M1278.06,73.48c21.66-2.76,43.43-5.09,65-8.32,8.6-1.28,17.28-3.45,24.25-8.9,3.37-2.63,6.17-5.86,9.37-8.68,5-4.43,10.19-5.67,16.83-4.47,3.14.56,4.49-4.25,1.33-4.82-8.81-1.59-15.61.21-22.25,6.25-3.61,3.28-6.78,7-11,9.62-4.59,2.85-9.86,4.34-15.12,5.37-11.34,2.22-23,3.17-34.45,4.62l-34,4.33c-3.15.4-3.19,5.4,0,5Z"/></g><g class="b9433c35-d3f1-45f6-8cc7-81e8823de481"><path class="a8cb11f6-452b-4359-96b2-15ea109b3153" d="M1220.67,90.26c21.22-10.19,45.48-5.88,67.64-1.65,3.15.6,4.5-4.22,1.33-4.82-23.65-4.52-48.9-8.69-71.49,2.15-2.9,1.39-.37,5.71,2.52,4.32Z"/></g><g class="b9433c35-d3f1-45f6-8cc7-81e8823de481"><path class="a8cb11f6-452b-4359-96b2-15ea109b3153" d="M1145.79,16.6c17.25,16.79,42,8.63,61.27.65,2.93-1.21,1.64-6.05-1.33-4.82-17.37,7.18-40.63,16-56.4.64-2.31-2.25-5.85,1.28-3.54,3.53Z"/></g></g><path class="a05d43b8-7499-494d-9479-c22a4ac6b44f" d="M361.39,15.78a250.79,250.79,0,0,0,46-5.6c3.14-.68,1.81-5.51-1.33-4.82a244.2,244.2,0,0,1-44.68,5.42c-3.21.1-3.22,5.1,0,5Z"/><path class="a05d43b8-7499-494d-9479-c22a4ac6b44f" d="M1144.28,11.31a235.56,235.56,0,0,0,43.15,9.32c3.19.39,3.16-4.62,0-5a228.15,228.15,0,0,1-41.82-9.15c-3.08-1-4.39,3.85-1.33,4.83Z"/><path class="a05d43b8-7499-494d-9479-c22a4ac6b44f" d="M893,31.74a203.11,203.11,0,0,1,53.66,8.74c3.09.94,4.41-3.89,1.33-4.82a208.54,208.54,0,0,0-55-8.92c-3.22-.09-3.22,4.91,0,5Z"/><path class="a05d43b8-7499-494d-9479-c22a4ac6b44f" d="M4.45,31.06A84.58,84.58,0,0,0,28.63,38c3.18.42,3.15-4.58,0-5A76.11,76.11,0,0,1,7,26.74c-2.9-1.33-5.45,3-2.52,4.32Z"/><path class="b1cacbd0-1981-4330-95ca-c7e3e2ac7003" d="M1052.15,5.22c1.59,26.79,8,55.6,30.78,72.55,10,7.47,24.2,12.89,36.45,7.89,9.19-3.75,16.11-14,11.72-23.79-4.18-9.31-16.27-12.68-23.68-5s-6.69,19.35-3.1,28.45c4.25,10.78,12.24,19.44,20.5,27.34,9.21,8.8,20.6,17.21,27.14,28.34,2.2,3.74,3.62,8.17,2.36,12.47s-5.4,7.53-9.91,6.05c-5.65-1.85-4-8.71.23-11.23,3.94-2.37,9.19-1.8,13.43-.69,14.86,3.9,26.32,17.59,27.26,32.93.2,3.2,5.2,3.22,5,0a41.71,41.71,0,0,0-15.3-29.65c-8-6.61-21.33-12.39-31.59-7.58-8.73,4.1-11.23,17.93-.36,21,10.38,3,17.77-7.14,16.56-16.66-1.55-12.13-13.35-21.84-21.76-29.67-9.05-8.45-18.9-16.7-25.38-27.41-3.13-5.17-5.75-11.25-5.85-17.39-.09-5.63,1.95-12.8,7.66-15.09,8.25-3.32,15.09,6.51,12.47,13.87s-10.94,10.81-18.26,10.56c-16.33-.54-30.25-13.08-38.29-26.41-9.27-15.36-12-33.26-13.08-50.9-.19-3.2-5.19-3.22-5,0Z"/><path class="eb4e6444-125e-4a90-931b-95ff9fbfa7e9" d="M71.06,97.37s-35-11.93-48.85,35.78C22.21,133.15,50.23,141.72,71.06,97.37Z"/><path class="eb4e6444-125e-4a90-931b-95ff9fbfa7e9" d="M231,143.86s-11.5-35.14-57.95-17.55C173,126.31,183,153.86,231,143.86Z"/><path class="a9ac5c5a-2061-446a-86a2-878df0643d68" d="M180.93,77.37s8.7-30.1-32.24-39.92C148.69,37.45,142.55,61.51,180.93,77.37Z"/><path class="ac57a089-2a80-4ffc-8b90-f92aa16458ef" d="M155.1,45.43a34.12,34.12,0,0,1,19.75,20.13c.28.75,1.49.43,1.21-.33a35.5,35.5,0,0,0-20.62-21c-.75-.29-1.08.92-.34,1.21Z"/><path class="e126d7bf-9e62-449f-baef-61e2da147a54" d="M232.05,94.47c-31-10.55-57.18,20-85.49,26.35s-41.87-2.48-41-20.75C106.41,82.78,133,45.8,154.29,0h-50.4c-12,37-28,77.77-30.72,89.49-3.18,13.88-16.64,79,50.61,72.88,55.17-5,34.07-70.2,121.86-60.05C245.64,102.32,250.4,100.7,232.05,94.47Z"/><path class="ac57a089-2a80-4ffc-8b90-f92aa16458ef" d="M139.74,1.16a90,90,0,0,1-17.65,40.75c-.49.63.59,1.26,1.08.63A90.71,90.71,0,0,0,141,1.5c.12-.79-1.08-1.13-1.21-.34Z"/><path class="ac57a089-2a80-4ffc-8b90-f92aa16458ef" d="M115.29,3.42C106.91,34.76,90.18,63.71,86,96.19c-2.94,22.94,1.27,52.31,25.43,62.22,2.41,1,3.45-2.92,1.08-3.89-25.61-10.51-25.58-45-20.87-67.6,5.95-28.48,20-54.4,27.53-82.43C119.86,2,116,.9,115.29,3.42Z"/><path class="a9ac5c5a-2061-446a-86a2-878df0643d68" d="M123.28,4a42.07,42.07,0,0,1-9.55,25.53c-1.5,1.86,1.13,4.53,2.65,2.65A46.35,46.35,0,0,0,127,4c.06-2.41-3.69-2.41-3.75,0Z"/><path class="a9ac5c5a-2061-446a-86a2-878df0643d68" d="M20.48,6c4.77,6.17,9.63,14.24,7.11,22.35a14.1,14.1,0,0,1-17.47,9c-3.08-1-4.4,3.86-1.33,4.82a19.26,19.26,0,0,0,22.4-9.43c5.2-9.95-.2-21.25-6.39-29.28C22.86,1,18.51,3.46,20.48,6Z"/><path class="eb4e6444-125e-4a90-931b-95ff9fbfa7e9" d="M390.45,111.11Z"/><path class="eb4e6444-125e-4a90-931b-95ff9fbfa7e9" d="M608.86,0a222.68,222.68,0,0,0-50.32,41.83c-95.47,106.36-115.13,71.42-115.13,71.42l-53-2.14c1.1,1.47,35.51,46.56,75.35,45.81,41.07-.78,58-34.29,124.2-103.3C619.81,22.55,652.1,7.35,678.6,0Z"/><path class="eb4e6444-125e-4a90-931b-95ff9fbfa7e9" d="M521.33,78.89S542.05,55.37,509.21,29C509.21,29,493.39,48.16,521.33,78.89Z"/><path class="fbc23da6-db75-41c6-abc7-2bf5e16d5aef" d="M500.66,144.74s3.3,31.16,44.92,24.81C545.58,169.55,542.19,145,500.66,144.74Z"/><path class="b0111298-f807-40dd-99ea-6f47b8a50ff1" d="M602,41.78s15.39,27.3,51.07,5C653.06,46.74,640.2,25.5,602,41.78Z"/><path class="ac57a089-2a80-4ffc-8b90-f92aa16458ef" d="M411.94,120.08c18.45,18.6,44.8,29.64,71,23.15A60.19,60.19,0,0,0,514.68,123c8.63-10.28,14.91-22.24,23-32.94,1.94-2.57-2.4-5.07-4.31-2.53C518.65,107,508.76,130.94,483.14,138c-24.89,6.86-50.1-3.75-67.66-21.46-2.27-2.29-5.81,1.24-3.54,3.53Z"/><path class="ac57a089-2a80-4ffc-8b90-f92aa16458ef" d="M612.49,45.56c8.13,4.56,17.58,9.1,26.48,3.8a.63.63,0,0,0-.63-1.08c-8.51,5.06-17.51.52-25.22-3.8-.71-.39-1.34.69-.63,1.08Z"/><path class="ac57a089-2a80-4ffc-8b90-f92aa16458ef" d="M512.34,40.62c-3.28.5-1.48,7.11-1.08,9.12a35.48,35.48,0,0,0,7.51,15.61c.51.63,1.39-.26.89-.88a34.6,34.6,0,0,1-6-10.73c-.54-1.6-3.35-11.55-.94-11.92.8-.12.46-1.33-.33-1.2Z"/><path class="ac57a089-2a80-4ffc-8b90-f92aa16458ef" d="M509.43,151.31a47.86,47.86,0,0,0,26.22,15.13c.78.16,1.12-1,.33-1.21a46.79,46.79,0,0,1-25.67-14.8c-.54-.6-1.42.28-.88.88Z"/><path class="ac57a089-2a80-4ffc-8b90-f92aa16458ef" d="M550.91,61.55c7.76-8,15.5-16,23.29-23.91a128.61,128.61,0,0,1,25.26-19.57c.68-.42.06-1.51-.63-1.08-8.86,5.44-17,11.14-24.33,18.56-8.22,8.31-16.32,16.74-24.48,25.12-.56.57.33,1.46.89.88Z"/><path class="a9ac5c5a-2061-446a-86a2-878df0643d68" d="M451.27,132.27a51.58,51.58,0,0,0,53.52-6.88c2.51-2-1.05-5.54-3.53-3.54a46.33,46.33,0,0,1-47.47,6.1c-2.91-1.3-5.45,3-2.52,4.32Z"/><path class="b1cacbd0-1981-4330-95ca-c7e3e2ac7003" d="M465.13,4.37c-2.91,8-8.37,15.32-16,19.38-4.25,2.26-9.63,3.54-14.13,1.19-7.07-3.69-2.39-10.51,3.38-12,8-2.11,17.22,1.46,22.69,7.43,7.15,7.79,5.11,17.9.56,26.44-6.66,12.51-19,25.82-12.86,41.07,4.26,10.66,18.63,16.27,28.54,9.77,2.68-1.76.17-6.09-2.53-4.32-6.09,4-15,1.83-19.38-3.83-5.8-7.52-2.73-17.51,1.39-25,6.8-12.33,19-26.18,12.19-41.17-5.28-11.63-20.4-18.77-32.71-15-11.87,3.66-13.35,18.61-.6,22.22C451.31,35,465.24,18.72,470,5.7c1.09-3-3.74-4.34-4.82-1.33Z"/><path class="a9ac5c5a-2061-446a-86a2-878df0643d68" d="M731.31,5C723,21.25,705.42,29.73,693.24,42.69,682.63,54,675.09,68.75,678.68,84.55a29.77,29.77,0,0,0,10.9,17.25c6.95,5.23,15.66,7.39,22.66,12.65,7.36,5.52,14.7,13.84,16.67,23,1.07,5,.12,10.35-3.71,14-4.27,4-13.09,3.75-14.64-3-1.37-6,7.05-8.87,11.44-9.79a29.86,29.86,0,0,1,15.68,1,28.29,28.29,0,0,1,18.69,23c.47,3.17,5.28,1.83,4.83-1.33-2.86-19.68-23-32.15-42.05-27.12-7.38,1.94-16.41,7.94-13,16.8,3,7.65,12.49,10.3,19.35,6.42,8.08-4.57,10.25-14.47,7.79-22.89-2.81-9.59-10.1-17.95-17.91-23.9-8.68-6.61-21.42-8.74-27.84-18-6-8.72-6-20.42-2-29.94,10.18-24,38.39-32.44,50-55.18,1.47-2.86-2.84-5.39-4.31-2.53Z"/><path class="b5b6ac72-b697-4fd5-96e2-22c1301de917" d="M1032.7,0C995.17,24.37,918.93,81.1,899,98.37,868.77,124.53,852.49,116,852.49,116l-93.87,2.38S834.17,199,907.89,141.07,1059.17,3.39,1089,0H1032.7Z"/><path class="eb4e6444-125e-4a90-931b-95ff9fbfa7e9" d="M992.77,71.19s16.43,26.68,51.23,3C1044,74.18,1030.32,53.45,992.77,71.19Z"/><path class="eb4e6444-125e-4a90-931b-95ff9fbfa7e9" d="M880.71,156.35s4.52,31,45.86,23C926.57,179.39,922.22,154.94,880.71,156.35Z"/><path class="eb4e6444-125e-4a90-931b-95ff9fbfa7e9" d="M926.05,29.17s12.78,28.62,50.39,9.71C976.44,38.88,965.61,16.54,926.05,29.17Z"/><path class="b0111298-f807-40dd-99ea-6f47b8a50ff1" d="M885.14,63.78s-28.42,13.2-8.95,50.53C876.19,114.31,898.37,103.14,885.14,63.78Z"/><path class="ac57a089-2a80-4ffc-8b90-f92aa16458ef" d="M796.52,129.25a94.68,94.68,0,0,0,84.78,14.8c30.71-9.75,52.53-35.14,72.58-59,2.06-2.45-1.46-6-3.54-3.54-19.11,22.71-39.84,47.39-68.9,57.2-27.75,9.36-59.18,3.88-82.4-13.82-2.56-2-5,2.39-2.52,4.32Z"/><path class="ac57a089-2a80-4ffc-8b90-f92aa16458ef" d="M936.62,32.13A31.53,31.53,0,0,1,968.89,36c.63.49,1.52-.39.89-.88A32.85,32.85,0,0,0,936,31.05c-.73.33-.09,1.41.63,1.08Z"/><path class="ac57a089-2a80-4ffc-8b90-f92aa16458ef" d="M1002.3,70.28a40.41,40.41,0,0,0,33.36,3c.75-.26.43-1.47-.34-1.21a39.11,39.11,0,0,1-32.39-2.83c-.71-.39-1.34.69-.63,1.08Z"/><path class="ac57a089-2a80-4ffc-8b90-f92aa16458ef" d="M880.83,71a33.62,33.62,0,0,0-1.78,28.74c.29.74,1.5.42,1.2-.33a32.37,32.37,0,0,1,1.66-27.77c.38-.71-.7-1.34-1.08-.64Z"/><path class="ac57a089-2a80-4ffc-8b90-f92aa16458ef" d="M890.05,161.85a37.49,37.49,0,0,0,27.67,12.28.63.63,0,0,0,0-1.25A36.2,36.2,0,0,1,890.94,161c-.55-.6-1.43.29-.89.88Z"/><path class="ac57a089-2a80-4ffc-8b90-f92aa16458ef" d="M957.23,62a310.28,310.28,0,0,1,51.4-37.89.63.63,0,0,0-.63-1.08,312,312,0,0,0-51.65,38.09c-.6.54.29,1.42.88.88Z"/><path class="ac57a089-2a80-4ffc-8b90-f92aa16458ef" d="M1020,42.49,1035.32,29c.6-.54-.28-1.42-.89-.89l-15.34,13.51c-.6.53.28,1.41.89.88Z"/><path class="a9ac5c5a-2061-446a-86a2-878df0643d68" d="M835.23,137.33c4.69-.81,9.68,1,14.3,1.76,3.35.53,6.73.94,10.12,1.16a82.45,82.45,0,0,0,23.29-1.69,61.74,61.74,0,0,0,33.32-19.46c2.09-2.43-1.43-6-3.54-3.54-9,10.39-21.37,16.64-34.83,18.9a82.65,82.65,0,0,1-23.92.25c-6.67-.83-13.32-3.37-20.07-2.2-3.16.55-1.82,5.37,1.33,4.82Z"/></g></g></svg>