<svg xmlns="http://www.w3.org/2000/svg" viewBox="0 0 834.25 924.35"><defs><style>.a36859cc-d5f4-427a-b965-569c07e6b628{fill:#59c4f1;}.aae333db-181e-4bf2-a4ff-9644fa03ded5{fill:#40220f;}.ae95f478-8fef-40e6-954a-00a141ee0a3a{fill:#eaf6fd;}.b6e5b8c4-779a-45ec-a689-da8f4b754c3b{fill:#8fd3f5;}.a1ed4e25-b5b2-4e50-8811-f468aa81bab5{fill:#62c6f2;}.a962c26c-81c8-4d78-ad33-852e132e99d5{fill:#8f663d;}.beb73c9e-1308-4e39-9835-ef6ffc1489ca{fill:#ac7c4c;}.aa26c261-d8ff-48c7-a48f-9b2f7dd1d2aa{fill:#865f38;}.eecdb12b-115c-40ff-91c2-413e8e92620d{fill:#b0804f;}.b40636ff-3083-4f50-a6e0-14dc3289987d{fill:#fff;}.ae6ee0fb-ee55-40f6-983c-48a014d8d4e1{fill:#d99852;}.b4217bbf-f6be-45f4-b143-e0c94cba7651{fill:#f5ac5c;}.a485aa1e-2a38-41f4-bb13-9f5dc9ff96df{fill:#ca925b;}.a3101967-f14d-43d6-b541-a086b0f8a408{fill:#f29432;}.bbe5095a-1abf-4c0d-b246-02d9b718c2f7{fill:#f08831;}.b7ce8ac6-464b-41b8-bb74-3c0cd53a53be{fill:#cbaf75;}.f752cc8c-1685-411f-9611-f9a9b67eab75{fill:#986d41;}.bffd933c-ee2f-48a6-969f-ecf26f479122{fill:#efcd89;}.bc3336c3-f0ff-41b4-95c2-083aa5aa9d7a{fill:#4b3a2f;}.e5ca3711-bcff-4181-b669-1157e9fcda0f{fill:#c30d23;}.af31086d-cd4f-4322-b3b3-c0f92b23cc1d{fill:#f4a25a;}.abbfe226-7f97-4102-ad9d-100113720aa0{fill:#604c3f;}.a5179705-9c2e-41be-aa05-13820dcb7fc4{fill:#f9be61;}.e15e85d3-0d6a-4a4e-9c70-31fcdade9a6a{fill:#7c1e15;}.b72a8d95-16de-42fe-90be-45b18988420c{fill:#745d4d;}.a18a5ee8-0b4c-45f5-af29-1f1d54445743{fill:#c0e5f9;}</style></defs><title>小熊</title><g id="ad8374c1-8eb1-41c8-8ec6-cbec959105ad" data-name="圖層 2"><g id="b204aa92-3ff4-4afb-a864-ca2e4f421cd5" data-name="圖層 1"><path class="a36859cc-d5f4-427a-b965-569c07e6b628" d="M758.81,151.76c-5.18,15.25-31,50.73-46.26,45.55s-14.12-49.05-8.94-64.29a29.15,29.15,0,0,1,55.2,18.74Z"/><path class="aae333db-181e-4bf2-a4ff-9644fa03ded5" d="M709.54,197.8c-6.59-16.49-8.39-34.73-3.95-52,3.75-14.63,16.5-33.55,34.27-27.12,15.71,5.68,18.87,24.48,13.87,38.52-6,16.74-20.87,28.07-34.65,38.23-4.53,3.34-.13,11,4.46,7.63,13.21-9.75,26.88-20.09,34.85-34.83,7.14-13.19,9.48-29.62,1.63-43-6.92-11.86-20.34-19-34-15.51-15.46,4-24.81,18.36-28.73,33A92,92,0,0,0,701,200.15c2.08,5.21,10.63,2.94,8.52-2.35Z"/><path class="ae95f478-8fef-40e6-954a-00a141ee0a3a" d="M734.54,132.69c6.47,2.44,8.18,12.43,5.43,18.07-2.48,5.09,5.13,9.58,7.62,4.46,5.45-11.17,1.44-26.47-10.7-31-5.33-2-7.63,6.53-2.35,8.52Z"/><path class="ae95f478-8fef-40e6-954a-00a141ee0a3a" d="M736,171.32c5.68,0,5.69-8.84,0-8.84s-5.7,8.84,0,8.84Z"/><path class="b6e5b8c4-779a-45ec-a689-da8f4b754c3b" d="M45.7,251.7c7.67,10.63,36.26,32.1,46.9,24.43s-.71-41.58-8.38-52.22A23.75,23.75,0,0,0,45.7,251.7Z"/><path class="aae333db-181e-4bf2-a4ff-9644fa03ded5" d="M102.26,275.69c1.9-23.38-8.32-59.79-35.59-64.26C55,209.52,44.47,215.8,40,226.57c-4.68,11.16-1.67,23.41,5.53,32.77C55.3,272.1,70.56,278,85.28,283.17c4.38,1.54,6.26-5.41,1.91-6.94-13-4.55-26.83-9.63-35.66-20.75-7.76-9.78-10.15-25.78,1.11-34.15C65,212.11,79.48,224,85.84,234.54a68.74,68.74,0,0,1,9.23,41.15c-.38,4.61,6.82,4.59,7.19,0Z"/><path class="ae95f478-8fef-40e6-954a-00a141ee0a3a" d="M55.57,225.46c-8,6.19-6.83,19.28-.42,26.15,3.17,3.39,8.25-1.7,5.09-5.09-4-4.29-4.41-12.23.42-16,3.66-2.83-1.47-7.89-5.09-5.09Z"/><path class="ae95f478-8fef-40e6-954a-00a141ee0a3a" d="M67.12,261.63c4.63,0,4.64-7.2,0-7.2s-4.64,7.2,0,7.2Z"/><path class="a1ed4e25-b5b2-4e50-8811-f468aa81bab5" d="M29.64,344.36c15.2,1.39,55.89-7.31,57.28-22.51s-37.05-31.14-52.25-32.53a27.63,27.63,0,1,0-5,55Z"/><path class="aae333db-181e-4bf2-a4ff-9644fa03ded5" d="M94.13,313.23A88.68,88.68,0,0,0,56,290c-14.46-4.3-31.63-5.36-44.3,4.17C.55,302.49-3,316.27,2.61,329c5.69,13,18.55,20,32.25,21.33,19,1.78,36.48-7.46,52.45-16.53,4.68-2.66.47-9.9-4.23-7.23-14.7,8.35-30.7,17.15-48.22,15.39-13.92-1.4-28.73-12.53-26.5-28.07,2.6-18.1,25-20.44,39.21-17.43A80,80,0,0,1,88.2,319.15c3.77,3.87,9.69-2.06,5.93-5.92Z"/><path class="ae95f478-8fef-40e6-954a-00a141ee0a3a" d="M14.13,315.36c-.78,11.55,11.38,21.19,22.36,20.65,5.37-.27,5.4-8.64,0-8.38-6.64.33-14.46-5.13-14-12.27.36-5.38-8-5.35-8.38,0Z"/><path class="ae95f478-8fef-40e6-954a-00a141ee0a3a" d="M51.56,334.58c5.39,0,5.4-8.38,0-8.38s-5.4,8.38,0,8.38Z"/><path class="b6e5b8c4-779a-45ec-a689-da8f4b754c3b" d="M807.81,243.36c-17.34,7.1-68.23,11.52-75.33-5.82s32.28-49.87,49.62-57a33.92,33.92,0,1,1,25.71,62.79Z"/><path class="aae333db-181e-4bf2-a4ff-9644fa03ded5" d="M729.9,235a98.33,98.33,0,0,1,28.73-34.43c11.92-8.85,27.46-17,42.77-14.54,14.57,2.31,24.5,14,22.37,28.95-2.12,14.74-14.1,24.83-27.71,29.12-18.76,5.91-38.54,1.77-57.2-2.39-6.44-1.44-9.19,8.47-2.73,9.91,20,4.45,41,8.65,61.19,2.84,16.37-4.72,31.18-16.14,35.62-33.18,4.27-16.39-2-33.9-17.67-41.51-17.27-8.39-36.62-3.38-52.49,5.79A108,108,0,0,0,721,229.83c-3,5.88,5.87,11.09,8.88,5.19Z"/><path class="ae95f478-8fef-40e6-954a-00a141ee0a3a" d="M805.7,206.62c3,8.16-3.8,17.49-11.82,19.53-6.41,1.62-3.69,11.54,2.74,9.91,13.12-3.33,23.94-18.82,19-32.17-2.28-6.15-12.22-3.49-9.91,2.73Z"/><path class="ae95f478-8fef-40e6-954a-00a141ee0a3a" d="M777.05,240c6.62,0,6.63-10.28,0-10.28s-6.62,10.28,0,10.28Z"/><path class="a962c26c-81c8-4d78-ad33-852e132e99d5" d="M408.38,567.49a248.28,248.28,0,0,1,50.65,5.2,249.57,249.57,0,0,0-68.52-9.54c-138,0-250.25,112.26-250.25,250.25a248.72,248.72,0,0,0,26,111h35.67A229.36,229.36,0,0,1,167,802.52C167,672.72,275.07,567.49,408.38,567.49Z"/><path class="aae333db-181e-4bf2-a4ff-9644fa03ded5" d="M578.87,625A266.5,266.5,0,0,0,148.18,924.35h18.06a248.72,248.72,0,0,1-26-111c0-138,112.26-250.25,250.25-250.25A249.57,249.57,0,0,1,459,572.69c109,22.66,190.74,116.95,190.74,229.83a229.36,229.36,0,0,1-34.92,121.83h18a266.85,266.85,0,0,0-54-299.32Z"/><path class="beb73c9e-1308-4e39-9835-ef6ffc1489ca" d="M649.77,802.52C649.77,689.64,568,595.35,459,572.69a248.28,248.28,0,0,0-50.65-5.2c-133.31,0-241.39,105.23-241.39,235a229.36,229.36,0,0,0,34.92,121.83H614.85A229.36,229.36,0,0,0,649.77,802.52Z"/><circle class="aa26c261-d8ff-48c7-a48f-9b2f7dd1d2aa" cx="572.55" cy="104.51" r="96.97"/><path class="aae333db-181e-4bf2-a4ff-9644fa03ded5" d="M572.55,209A104.51,104.51,0,1,1,677.06,104.51,104.62,104.62,0,0,1,572.55,209Zm0-194A89.44,89.44,0,1,0,662,104.51,89.54,89.54,0,0,0,572.55,15.07Z"/><ellipse class="eecdb12b-115c-40ff-91c2-413e8e92620d" cx="578.44" cy="110.43" rx="82.94" ry="80.59"/><circle class="b40636ff-3083-4f50-a6e0-14dc3289987d" cx="259.6" cy="107.84" r="96.97"/><path class="aae333db-181e-4bf2-a4ff-9644fa03ded5" d="M259.6,205.26A97.43,97.43,0,1,1,357,107.84,97.54,97.54,0,0,1,259.6,205.26Zm0-193.95a96.53,96.53,0,1,0,96.52,96.53A96.63,96.63,0,0,0,259.6,11.31Z"/><circle class="aa26c261-d8ff-48c7-a48f-9b2f7dd1d2aa" cx="254.61" cy="111.16" r="96.97"/><path class="aae333db-181e-4bf2-a4ff-9644fa03ded5" d="M254.61,215.67A104.51,104.51,0,1,1,359.12,111.16,104.62,104.62,0,0,1,254.61,215.67Zm0-193.95a89.44,89.44,0,1,0,89.44,89.44A89.54,89.54,0,0,0,254.61,21.72Z"/><ellipse class="eecdb12b-115c-40ff-91c2-413e8e92620d" cx="261.02" cy="107.17" rx="82.94" ry="80.59"/><circle class="ae6ee0fb-ee55-40f6-983c-48a014d8d4e1" cx="254.61" cy="111.16" r="51.74"/><circle class="ae6ee0fb-ee55-40f6-983c-48a014d8d4e1" cx="572.55" cy="104.51" r="51.74"/><circle class="b4217bbf-f6be-45f4-b143-e0c94cba7651" cx="261.02" cy="111.16" r="45.33"/><circle class="b4217bbf-f6be-45f4-b143-e0c94cba7651" cx="578.44" cy="107.71" r="45.33"/><circle class="b40636ff-3083-4f50-a6e0-14dc3289987d" cx="424.54" cy="754" r="160.5"/><circle class="a485aa1e-2a38-41f4-bb13-9f5dc9ff96df" cx="424.54" cy="403.06" r="322.5"/><path class="aae333db-181e-4bf2-a4ff-9644fa03ded5" d="M424.54,733.1A330,330,0,0,1,191.18,169.69,330,330,0,1,1,657.91,636.43,327.84,327.84,0,0,1,424.54,733.1Zm0-645c-173.67,0-315,141.29-315,315s141.29,315,315,315,315-141.3,315-315S598.22,88.1,424.54,88.1Z"/><path class="beb73c9e-1308-4e39-9835-ef6ffc1489ca" d="M141.63,403.06c13.62-192,157.44-279.27,282.91-285.4,106.22-5.18,175,31.1,225.23,54.61A321.46,321.46,0,0,0,424.54,80.56c-178.11,0-322.49,144.39-322.49,322.5,0,106.34,51.47,200.64,130.85,259.38C201.18,620.21,131.32,548.31,141.63,403.06Z"/><path class="a3101967-f14d-43d6-b541-a086b0f8a408" d="M298.55,532.19A141.66,141.66,0,0,0,105.19,400.31c0,.92,0,1.83,0,2.75A321.9,321.9,0,0,0,226.81,655.38,141.6,141.6,0,0,0,298.55,532.19Z"/><path class="bbe5095a-1abf-4c0d-b246-02d9b718c2f7" d="M178.39,407c33.61,4,68.47,23,86.46,34.14a141.62,141.62,0,0,0-162.77-44c0,.92,0,1.83,0,2.75,0,102.17,50.64,195.5,124.77,254.59,4.93-2.8-.44.62,4.09-2.73-68.77-73.41-82.58-163.5-88.84-207.67A32.79,32.79,0,0,1,178.39,407Z"/><circle class="b7ce8ac6-464b-41b8-bb74-3c0cd53a53be" cx="419.43" cy="507.33" r="126.06"/><path class="a3101967-f14d-43d6-b541-a086b0f8a408" d="M747,403.06c0-.51,0-1,0-1.54A141.68,141.68,0,0,0,624.12,656.4,321.93,321.93,0,0,0,747,403.06Z"/><circle class="aae333db-181e-4bf2-a4ff-9644fa03ded5" cx="302.23" cy="385.51" r="38.18"/><circle class="aae333db-181e-4bf2-a4ff-9644fa03ded5" cx="546.86" cy="385.51" r="38.18"/><circle class="b40636ff-3083-4f50-a6e0-14dc3289987d" cx="287.4" cy="374.96" r="13.32"/><circle class="b40636ff-3083-4f50-a6e0-14dc3289987d" cx="319.61" cy="379.24" r="13.32"/><circle class="b40636ff-3083-4f50-a6e0-14dc3289987d" cx="298.48" cy="403.06" r="13.32"/><circle class="b40636ff-3083-4f50-a6e0-14dc3289987d" cx="530.76" cy="374.96" r="13.32"/><circle class="b40636ff-3083-4f50-a6e0-14dc3289987d" cx="562.97" cy="379.24" r="13.32"/><circle class="b40636ff-3083-4f50-a6e0-14dc3289987d" cx="541.84" cy="403.06" r="13.32"/><path class="bbe5095a-1abf-4c0d-b246-02d9b718c2f7" d="M668.06,409.51c-33.61,4-68.48,23-86.47,34.14a141.66,141.66,0,0,1,162.77-44c0,.92,0,1.83,0,2.75,0,102.17-50.65,195.51-124.78,254.59-4.92-2.8.45.62-4.08-2.73,68.77-73.4,82.57-163.5,88.84-207.67A32.79,32.79,0,0,0,668.06,409.51Z"/><path class="aae333db-181e-4bf2-a4ff-9644fa03ded5" d="M424.54,733.1A330,330,0,0,1,191.18,169.69,330,330,0,1,1,657.91,636.43,327.84,327.84,0,0,1,424.54,733.1Zm0-645c-173.67,0-315,141.29-315,315s141.29,315,315,315,315-141.3,315-315S598.22,88.1,424.54,88.1Z"/><path class="beb73c9e-1308-4e39-9835-ef6ffc1489ca" d="M238.07,914.79,678.7,858v-.07c82.66-12.08,142.18-75.79,133.44-143.64-8.86-68.72-84.41-115.62-168.74-104.74-2.86.37-5.69.81-8.5,1.3l-408.71,52.7"/><path class="aae333db-181e-4bf2-a4ff-9644fa03ded5" d="M238.06,922.33a7.54,7.54,0,0,1-1-15l438-56.47,2.51-.39c78.2-11.43,135.19-72.09,127-135.22-4-31-22.65-58.22-52.56-76.79C721.69,619.58,683.43,612,644.36,617c-2.58.33-5.25.74-8.18,1.25l-.33,0L227.14,671a7.54,7.54,0,0,1-1.92-15l408.54-52.67c3.08-.54,5.92-1,8.67-1.33,42.5-5.47,84.27,2.91,117.61,23.6,33.83,21,55,52.13,59.56,87.66,4.52,35-7.7,70.14-34.4,98.83-24.73,26.58-59.36,44.89-98.14,52l0,.26-7.44,1L239,922.26A6.42,6.42,0,0,1,238.06,922.33Z"/><path class="f752cc8c-1685-411f-9611-f9a9b67eab75" d="M250.42,876.12l392.49-52C721,813.81,803.58,747.39,788,669.34c-3.62-18.13,7.62,2.73,7.84,1,0,0,75.08,128.57-97.3,183.56L255.25,912.63A18.42,18.42,0,0,1,235,898.81h0A18.42,18.42,0,0,1,250.42,876.12Z"/><path class="aae333db-181e-4bf2-a4ff-9644fa03ded5" d="M238.06,922.33a7.54,7.54,0,0,1-1-15l438-56.47,2.51-.39c78.2-11.43,135.19-72.09,127-135.22-4-31-22.65-58.22-52.56-76.79C721.69,619.58,683.43,612,644.36,617c-2.58.33-5.25.74-8.18,1.25l-.39.06L230.63,667.57a7.54,7.54,0,0,1-1.82-15l405-49.23c3.08-.54,5.91-1,8.65-1.33,42.5-5.47,84.27,2.91,117.61,23.6,33.83,21,55,52.13,59.56,87.66,4.52,35-7.7,70.14-34.4,98.83-24.73,26.58-59.36,44.89-98.14,52l0,.26-7.44,1L239,922.26A6.42,6.42,0,0,1,238.06,922.33Z"/><circle class="bffd933c-ee2f-48a6-969f-ecf26f479122" cx="427.66" cy="507.33" r="126.06"/><ellipse class="bc3336c3-f0ff-41b4-95c2-083aa5aa9d7a" cx="424.54" cy="439.14" rx="43.7" ry="31.27"/><path class="e5ca3711-bcff-4181-b669-1157e9fcda0f" d="M424.54,487.81a85.91,85.91,0,0,0-78.23,50.37,25.16,25.16,0,0,0,22.95,35.52H479.83a25.16,25.16,0,0,0,22.94-35.52A85.89,85.89,0,0,0,424.54,487.81Z"/><path class="aae333db-181e-4bf2-a4ff-9644fa03ded5" d="M479.83,579.73H369.26a31.18,31.18,0,0,1-28.43-44.05,92,92,0,0,1,167.43,0,31.18,31.18,0,0,1-28.43,44.05Zm-55.29-85.9a80.1,80.1,0,0,0-72.74,46.84,18.76,18.76,0,0,0,1.34,18.21,19.1,19.1,0,0,0,16.12,8.8H479.83a19.1,19.1,0,0,0,16.12-8.8,18.76,18.76,0,0,0,1.34-18.21A80.1,80.1,0,0,0,424.54,493.83Z"/><path class="af31086d-cd4f-4322-b3b3-c0f92b23cc1d" d="M424.54,526.44a41.05,41.05,0,0,0-37.38,24.07,12,12,0,0,0,11,17H451a12,12,0,0,0,11-17A41.06,41.06,0,0,0,424.54,526.44Z"/><ellipse class="abbfe226-7f97-4102-ad9d-100113720aa0" cx="431.2" cy="433.75" rx="33.71" ry="24.12"/><path class="a5179705-9c2e-41be-aa05-13820dcb7fc4" d="M427.66,532.51A35,35,0,0,0,395.8,553a10.25,10.25,0,0,0,9.34,14.47h45A10.25,10.25,0,0,0,459.52,553,35,35,0,0,0,427.66,532.51Z"/><path class="e15e85d3-0d6a-4a4e-9c70-31fcdade9a6a" d="M354,538.23c-4.7,8.8,1.67,20.83,10.72,23.83,4.51,1.5,6.44-5.61,2-7.1s-8.67-8.61-6.32-13c2.23-4.18-4.12-7.9-6.36-3.72Z"/><path class="e15e85d3-0d6a-4a4e-9c70-31fcdade9a6a" d="M484.17,544.31a5.28,5.28,0,0,1,2.14,4.62c-.14,1.38-1.23,3.72-2.87,3.82-4.71.29-4.74,7.66,0,7.37,10.62-.65,13.18-14.64,5.93-21-3.54-3.12-8.77,2.07-5.2,5.21Z"/><path class="b72a8d95-16de-42fe-90be-45b18988420c" d="M405.93,432.72c3.52,12,15.64,16.28,27.12,14.3,4.66-.81,2.68-7.9-2-7.1-7.47,1.29-15.74-1.25-18.06-9.16-1.33-4.54-8.44-2.61-7.1,2Z"/><path class="b40636ff-3083-4f50-a6e0-14dc3289987d" d="M683.61,523.07,668.19,492c-1.24-2.5-2.67-5-3.73-7.56-.39-.94-.18-2.8-1-1.65.4-.59,2-1.06,2.58-1.37A92.6,92.6,0,0,1,682,475.64c4.73-1.29,10.54-1.46,14.33-4.87,4-3.58,4.47-8.85,2.54-13.66s-5.44-9.48-8.25-14q-4.78-7.73-9.58-15.46c-5-8-17.73-.66-12.71,7.43l9.07,14.65,5.05,8.14c.57.93,1.2,2.55,2,3.26l.7,1.23c2.87-2.53,3.38-3.5,1.51-2.92-2.11-.38-5.62,1.22-7.73,1.78-2.6.69-5.18,1.48-7.73,2.35-5.05,1.74-10.63,3.6-15.16,6.48-11.14,7.11-6.12,18.23-1.45,27.64L670.9,530.5c4.21,8.49,16.91,1,12.71-7.43Z"/><path class="b40636ff-3083-4f50-a6e0-14dc3289987d" d="M705.17,545.53c4.5-8.29,8.88-16.66,13.51-24.89.28-.48,1.69-3.31,1.87-3.36,1.3-.36,3.49,1.63,4.38,2.31,3.15,2.41,5.79,5.22,9.4,7,7.3,3.59,16.25,3,20.68-4.65,2-3.43,2.66-7.57,3.61-11.37q1.78-7.06,3.56-14.15c2.31-9.2-11.89-13.12-14.2-3.92q-1.79,7.08-3.56,14.16c-.44,1.77-.86,3.55-1.33,5.31-.3,1.1-1.5,2.59-.33,2.2-2,.66-6.11-3.9-7.42-5-3.19-2.65-6.62-5.08-10.7-6.11-8.58-2.17-14.75,3.17-18.67,10.14-4.63,8.22-9,16.6-13.51,24.89s8.18,15.77,12.71,7.43Z"/><ellipse class="a18a5ee8-0b4c-45f5-af29-1f1d54445743" cx="586.15" cy="413.66" rx="32.43" ry="15.42" transform="translate(-68.42 120.03) rotate(-11.05)"/><path class="b40636ff-3083-4f50-a6e0-14dc3289987d" d="M603.57,406.75c.25,1.21-2.72,3.44-3.46,4.09a28,28,0,0,1-5.23,3.59c-4.15,2.29-.44,8.65,3.72,6.36,5.56-3.06,13.57-8.73,12.07-16-.95-4.64-8-2.67-7.1,2Z"/><path class="b40636ff-3083-4f50-a6e0-14dc3289987d" d="M586.39,424.05c4.74,0,4.75-7.36,0-7.36s-4.74,7.36,0,7.36Z"/><ellipse class="a18a5ee8-0b4c-45f5-af29-1f1d54445743" cx="264.85" cy="418.4" rx="15.42" ry="32.43" transform="translate(-196.56 598.14) rotate(-78.95)"/><path class="b40636ff-3083-4f50-a6e0-14dc3289987d" d="M240.33,409.53c-1.5,7.27,6.52,12.93,12.08,16,4.15,2.28,7.87-4.07,3.71-6.36a29.22,29.22,0,0,1-5.23-3.59c-.78-.69-3.71-2.87-3.46-4.09.95-4.63-6.14-6.61-7.1-2Z"/><path class="b40636ff-3083-4f50-a6e0-14dc3289987d" d="M264.61,428.79c4.74,0,4.75-7.36,0-7.36s-4.74,7.36,0,7.36Z"/></g></g></svg>