<svg xmlns="http://www.w3.org/2000/svg" viewBox="0 0 141.84 142.06"><defs><style>.bb41f16f-9491-4372-beb5-f393e15c24cd,.fca33bac-7a8f-450c-a0b6-63233a18ee59{fill:#b89982;}.fca33bac-7a8f-450c-a0b6-63233a18ee59{stroke:#40220f;stroke-miterlimit:10;stroke-width:6.65px;}.bc736f0b-d92d-4fc3-95c5-13760b7096fb{fill:#eec5a6;}.be73022d-45eb-46e7-8b02-d21556d7e04c{fill:#917764;}</style></defs><title>圓</title><g id="e7925240-2528-47ad-ad71-e00dbe527594" data-name="圖層 2"><g id="aad0c153-b2a6-412a-9759-154c1c41525a" data-name="圖層 1"><ellipse class="fca33bac-7a8f-450c-a0b6-63233a18ee59" cx="70.92" cy="71.03" rx="67.6" ry="67.7"/><ellipse class="bc736f0b-d92d-4fc3-95c5-13760b7096fb" cx="70.92" cy="71.03" rx="47.8" ry="47.87"/><ellipse class="bb41f16f-9491-4372-beb5-f393e15c24cd" cx="47.93" cy="51.22" rx="6.67" ry="6.68"/><ellipse class="bb41f16f-9491-4372-beb5-f393e15c24cd" cx="47.93" cy="71.03" rx="6.67" ry="6.68"/><ellipse class="bb41f16f-9491-4372-beb5-f393e15c24cd" cx="47.93" cy="90.83" rx="6.67" ry="6.68"/><ellipse class="bb41f16f-9491-4372-beb5-f393e15c24cd" cx="70.92" cy="51.22" rx="6.67" ry="6.68"/><ellipse class="bb41f16f-9491-4372-beb5-f393e15c24cd" cx="70.92" cy="71.03" rx="6.67" ry="6.68"/><ellipse class="bb41f16f-9491-4372-beb5-f393e15c24cd" cx="70.92" cy="90.83" rx="6.67" ry="6.68"/><ellipse class="bb41f16f-9491-4372-beb5-f393e15c24cd" cx="93.91" cy="51.22" rx="6.67" ry="6.68"/><ellipse class="bb41f16f-9491-4372-beb5-f393e15c24cd" cx="93.91" cy="71.03" rx="6.67" ry="6.68"/><ellipse class="bb41f16f-9491-4372-beb5-f393e15c24cd" cx="93.91" cy="90.83" rx="6.67" ry="6.68"/><path class="be73022d-45eb-46e7-8b02-d21556d7e04c" d="M124.79,63.24a40.25,40.25,0,0,1-2.93,21.43c-1.63,3.77,3.93,7.07,5.57,3.26A48.45,48.45,0,0,0,131,61.52c-.56-4.1-6.78-2.35-6.23,1.72Z"/><path class="be73022d-45eb-46e7-8b02-d21556d7e04c" d="M58.29,18.67a27.52,27.52,0,0,1,15.49-.76c4,1,5.76-5.26,1.71-6.23a33.94,33.94,0,0,0-18.92.77c-3.92,1.31-2.24,7.55,1.72,6.22Z"/><path class="be73022d-45eb-46e7-8b02-d21556d7e04c" d="M10.77,69.89a26.27,26.27,0,0,0,.77,15c1.38,3.88,7.62,2.21,6.22-1.72A20,20,0,0,1,17,71.6c.94-4-5.29-5.77-6.22-1.71Z"/><path class="be73022d-45eb-46e7-8b02-d21556d7e04c" d="M76.39,130.9a24.3,24.3,0,0,0,15-2.31c3.72-1.87.45-7.44-3.26-5.58a16.77,16.77,0,0,1-10.07,1.66,3.34,3.34,0,0,0-4,2.26c-.43,1.52.54,3.7,2.26,4Z"/></g></g></svg>