<svg xmlns="http://www.w3.org/2000/svg" viewBox="0 0 144.59 128.12"><defs><style>.a0a6f542-f09f-44e0-b8b9-1f33f5ad746a,.b1fe1faf-1ab1-4598-81fe-9aa3982e55b3{fill:#b89982;}.b1fe1faf-1ab1-4598-81fe-9aa3982e55b3{stroke:#40220f;stroke-miterlimit:10;stroke-width:6.65px;}.ade3ceed-ff4d-46e1-8035-cc9ee49cdf5d{fill:#eec5a6;}.f00ae412-c900-4112-adc9-3b4cd5f3a0d8{fill:#917764;}</style></defs><title>六角</title><g id="ef4715c2-3e7e-4b70-80d2-953b48eb48a2" data-name="圖層 2"><g id="a52d5ba6-5b29-4de7-9712-cd95d36ac89c" data-name="圖層 1"><path class="b1fe1faf-1ab1-4598-81fe-9aa3982e55b3" d="M99.79,3.33h-55a14.18,14.18,0,0,0-12.23,7L5.27,56.89a14.2,14.2,0,0,0,0,14.34l27.3,46.56a14.18,14.18,0,0,0,12.23,7h55a14.15,14.15,0,0,0,12.22-7l27.3-46.56a14.16,14.16,0,0,0,0-14.34L112,10.33A14.15,14.15,0,0,0,99.79,3.33Z"/><path class="ade3ceed-ff4d-46e1-8035-cc9ee49cdf5d" d="M92.39,21.48H52.2a8.52,8.52,0,0,0-7.34,4.2l-20,34.08a8.49,8.49,0,0,0,0,8.6l20,34.08a8.52,8.52,0,0,0,7.34,4.2H92.39a8.52,8.52,0,0,0,7.34-4.2l20-34.08a8.49,8.49,0,0,0,0-8.6l-20-34.08A8.52,8.52,0,0,0,92.39,21.48Z"/><circle class="a0a6f542-f09f-44e0-b8b9-1f33f5ad746a" cx="49.7" cy="44.63" r="6.55"/><circle class="a0a6f542-f09f-44e0-b8b9-1f33f5ad746a" cx="49.7" cy="64.06" r="6.55"/><circle class="a0a6f542-f09f-44e0-b8b9-1f33f5ad746a" cx="49.7" cy="83.49" r="6.55"/><circle class="a0a6f542-f09f-44e0-b8b9-1f33f5ad746a" cx="72.29" cy="44.63" r="6.55"/><circle class="a0a6f542-f09f-44e0-b8b9-1f33f5ad746a" cx="72.29" cy="64.06" r="6.55"/><circle class="a0a6f542-f09f-44e0-b8b9-1f33f5ad746a" cx="72.29" cy="83.49" r="6.55"/><circle class="a0a6f542-f09f-44e0-b8b9-1f33f5ad746a" cx="94.89" cy="44.63" r="6.55"/><circle class="a0a6f542-f09f-44e0-b8b9-1f33f5ad746a" cx="94.89" cy="64.06" r="6.55"/><circle class="a0a6f542-f09f-44e0-b8b9-1f33f5ad746a" cx="94.89" cy="83.49" r="6.55"/><path class="f00ae412-c900-4112-adc9-3b4cd5f3a0d8" d="M95.32,16.93a4.56,4.56,0,0,1,5.2,1.85c2.27,3.55,8,.26,5.67-3.31A11.26,11.26,0,0,0,93.57,10.6c-4,1.17-2.33,7.51,1.75,6.33Z"/><path class="f00ae412-c900-4112-adc9-3b4cd5f3a0d8" d="M14,58.13a17.77,17.77,0,0,0,1.64,14.21C17.73,76,23.41,72.7,21.3,69a11.15,11.15,0,0,1-1-9.16c1.25-4-5.09-5.78-6.33-1.74Z"/><path class="f00ae412-c900-4112-adc9-3b4cd5f3a0d8" d="M125,59.41a12.62,12.62,0,0,1-.34,8.4A3.28,3.28,0,0,0,131,69.56a18.51,18.51,0,0,0,.34-11.9c-1.21-4-7.55-2.31-6.33,1.75Z"/><path class="f00ae412-c900-4112-adc9-3b4cd5f3a0d8" d="M37.55,108.67c3.51,5.58,8.47,10.29,15.54,9,4.15-.76,2.39-7.09-1.74-6.33-3.75.68-6.43-3.29-8.12-6-2.25-3.58-7.93-.28-5.68,3.31Z"/></g></g></svg>