<svg xmlns="http://www.w3.org/2000/svg" viewBox="0 0 141.02 141.02"><defs><style>.e50392fe-8ab9-4f24-b06d-d79af8bc046f{fill:#b89982;}.ba21d5e7-e564-4feb-98d8-86307829d6ae{fill:#40220f;}.e3f7a861-30bb-4980-a624-867d7e42b9bc{fill:#eec5a6;}.a9db416e-0eb9-4c28-8079-08d09e03a89f{fill:#917764;}</style></defs><title>方形</title><g id="a2d0a3cf-360e-4197-b5f3-e2c5781ce149" data-name="圖層 2"><g id="e16baecf-e3ea-470b-bebb-816d2fcc7021" data-name="圖層 1"><rect class="e50392fe-8ab9-4f24-b06d-d79af8bc046f" x="3.33" y="3.33" width="134.36" height="134.36" rx="15"/><path class="ba21d5e7-e564-4feb-98d8-86307829d6ae" d="M122.69,141H18.33A18.35,18.35,0,0,1,0,122.69V18.33A18.35,18.35,0,0,1,18.33,0H122.69A18.35,18.35,0,0,1,141,18.33V122.69A18.35,18.35,0,0,1,122.69,141ZM18.33,6.65A11.69,11.69,0,0,0,6.65,18.33V122.69a11.69,11.69,0,0,0,11.68,11.67H122.69a11.68,11.68,0,0,0,11.67-11.67V18.33A11.69,11.69,0,0,0,122.69,6.65Z"/><rect class="e3f7a861-30bb-4980-a624-867d7e42b9bc" x="21.86" y="21.86" width="97.3" height="97.3" rx="15"/><circle class="e50392fe-8ab9-4f24-b06d-d79af8bc046f" cx="48.3" cy="51.41" r="6.44"/><circle class="e50392fe-8ab9-4f24-b06d-d79af8bc046f" cx="48.3" cy="70.51" r="6.44"/><circle class="e50392fe-8ab9-4f24-b06d-d79af8bc046f" cx="48.3" cy="89.6" r="6.44"/><circle class="e50392fe-8ab9-4f24-b06d-d79af8bc046f" cx="70.51" cy="51.41" r="6.44"/><circle class="e50392fe-8ab9-4f24-b06d-d79af8bc046f" cx="70.51" cy="70.51" r="6.44"/><circle class="e50392fe-8ab9-4f24-b06d-d79af8bc046f" cx="70.51" cy="89.6" r="6.44"/><circle class="e50392fe-8ab9-4f24-b06d-d79af8bc046f" cx="92.71" cy="51.41" r="6.44"/><circle class="e50392fe-8ab9-4f24-b06d-d79af8bc046f" cx="92.71" cy="70.51" r="6.44"/><circle class="e50392fe-8ab9-4f24-b06d-d79af8bc046f" cx="92.71" cy="89.6" r="6.44"/><path class="a9db416e-0eb9-4c28-8079-08d09e03a89f" d="M128.6,34.08a3,3,0,0,1-3-2.67C124.17,18.1,112.45,17.35,112,17.33a3,3,0,0,1,.3-6c6,.31,17.73,4.76,19.33,19.42a3,3,0,0,1-2.65,3.31Z"/><path class="a9db416e-0eb9-4c28-8079-08d09e03a89f" d="M12.6,34.08a3,3,0,0,1-3-2.63c-.92-7.36.49-13.1,4.21-17.07,5.34-5.71,13.35-5.31,13.69-5.3a3,3,0,0,1-.34,6c-.11,0-5.63-.2-9,3.44-2.42,2.61-3.3,6.71-2.61,12.2A3,3,0,0,1,13,34.06Z"/><path class="a9db416e-0eb9-4c28-8079-08d09e03a89f" d="M31.28,132.08c-7.2,0-12.71-1.83-16.39-5.46a14,14,0,0,1-4.29-9.29,3,3,0,0,1,6,0c0,.47.58,9,15.21,8.78a3,3,0,0,1,.09,6ZM16.6,117.33h0Z"/><path class="a9db416e-0eb9-4c28-8079-08d09e03a89f" d="M112.1,132.08a3,3,0,0,1-.18-6c13.53-.82,13.68-15.87,13.68-16.51a3,3,0,0,1,6,0c0,7.38-4,21.58-19.32,22.5Z"/></g></g></svg>