<svg xmlns="http://www.w3.org/2000/svg" viewBox="0 0 148.12 131.89"><defs><style>.a5277c1f-0c78-4c56-b4b4-20bce3e62650,.bf07b7ec-2799-4aa1-afa1-b3081fd7fbaf{fill:#b89982;}.a5277c1f-0c78-4c56-b4b4-20bce3e62650{stroke:#40220f;stroke-miterlimit:10;stroke-width:6.65px;}.b48a2eda-6490-4756-b382-82b1b706f37a{fill:#eec5a6;}.a4622cda-df09-4513-a6a1-de35bcbfff20{fill:#917764;}</style></defs><title>三角</title><g id="e5f820d4-975a-4ee5-8ab3-e2388ad74378" data-name="圖層 2"><g id="bb946603-359b-49ca-ad60-5a36e604ecb5" data-name="圖層 1"><path class="a5277c1f-0c78-4c56-b4b4-20bce3e62650" d="M66.69,7.59,4.47,115.82a8.5,8.5,0,0,0,7.37,12.74H136.28a8.5,8.5,0,0,0,7.37-12.74L81.43,7.59A8.5,8.5,0,0,0,66.69,7.59Z"/><path class="b48a2eda-6490-4756-b382-82b1b706f37a" d="M66.69,40.21,32.6,99.51A8.5,8.5,0,0,0,40,112.25h68.18a8.5,8.5,0,0,0,7.37-12.74L81.43,40.21A8.5,8.5,0,0,0,66.69,40.21Z"/><circle class="bf07b7ec-2799-4aa1-afa1-b3081fd7fbaf" cx="53.91" cy="81.61" r="5.84"/><circle class="bf07b7ec-2799-4aa1-afa1-b3081fd7fbaf" cx="53.91" cy="98.94" r="5.84"/><circle class="bf07b7ec-2799-4aa1-afa1-b3081fd7fbaf" cx="74.06" cy="64.28" r="5.84"/><circle class="bf07b7ec-2799-4aa1-afa1-b3081fd7fbaf" cx="74.06" cy="81.61" r="5.84"/><circle class="bf07b7ec-2799-4aa1-afa1-b3081fd7fbaf" cx="74.06" cy="98.94" r="5.84"/><circle class="bf07b7ec-2799-4aa1-afa1-b3081fd7fbaf" cx="94.22" cy="81.61" r="5.84"/><circle class="bf07b7ec-2799-4aa1-afa1-b3081fd7fbaf" cx="94.22" cy="98.94" r="5.84"/><path class="a4622cda-df09-4513-a6a1-de35bcbfff20" d="M73.08,24.89c.22-1.71,2.74-1.73,3.29-.25a3,3,0,0,0,3.61,2,2.94,2.94,0,0,0,2-3.6,7.79,7.79,0,0,0-8.17-5.33c-3.78.46-6.15,3.54-6.63,7.14-.21,1.57,1.49,2.93,2.93,2.93a3,3,0,0,0,2.93-2.93Z"/><path class="a4622cda-df09-4513-a6a1-de35bcbfff20" d="M16.27,108c-2.41,5.24.35,12,6.25,13.26,3.68.78,5.25-4.87,1.56-5.65-1.9-.41-3.67-2.66-2.75-4.66a3,3,0,0,0-1-4,3,3,0,0,0-4,1.06Z"/><path class="a4622cda-df09-4513-a6a1-de35bcbfff20" d="M125.41,108.38c1.93,3.06.3,7-3.51,7.16s-3.78,6,0,5.86a10.42,10.42,0,0,0,8.57-16c-2-3.19-7.08-.25-5.06,3Z"/></g></g></svg>