<svg xmlns="http://www.w3.org/2000/svg" xmlns:xlink="http://www.w3.org/1999/xlink" viewBox="0 0 75.13 80.67"><defs><style>.b4190f3a-ac03-4f57-8c04-b6f65a724e5d{fill:#97c488;}.a6369fe1-d9a5-4ed7-b657-9ad5e068c2b6{fill:#bddda9;}.efb8196a-9ef2-43c7-b6d1-3b6fbb34cc8a{fill:url(#b29fe812-731a-4b2e-a5e7-4dc5abdb9cef);}.a010529b-4464-4cd8-9af8-2a3c63f0ee35{fill:url(#f6c03ca3-ddee-4a0c-b1b6-ea966e7ebfa5);}.fbecf2c7-da21-4e0e-8352-22276beb8b1e{fill:#fff;}.b0801105-5860-4e20-a8cb-f3b91ca31bcc{fill:none;stroke:#fff;stroke-linecap:round;stroke-miterlimit:10;stroke-width:1.93px;}</style><radialGradient id="b29fe812-731a-4b2e-a5e7-4dc5abdb9cef" cx="1009.33" cy="79.91" r="31.82" gradientTransform="matrix(0.82, -0.57, 0.57, 0.82, -848.28, 543.06)" gradientUnits="userSpaceOnUse"><stop offset="0" stop-color="#fff" stop-opacity="0"/><stop offset="0.31" stop-color="#ccdec1" stop-opacity="0.22"/><stop offset="0.97" stop-color="#4a8924" stop-opacity="0.77"/><stop offset="1" stop-color="#43841b" stop-opacity="0.8"/></radialGradient><radialGradient id="f6c03ca3-ddee-4a0c-b1b6-ea966e7ebfa5" cx="1003.32" cy="68.56" r="35.2" gradientTransform="matrix(0.82, -0.57, 0.57, 0.82, -848.28, 543.06)" gradientUnits="userSpaceOnUse"><stop offset="0" stop-color="#fff"/><stop offset="0.01" stop-color="#fcfefb" stop-opacity="0.98"/><stop offset="0.09" stop-color="#dcefd1" stop-opacity="0.78"/><stop offset="0.17" stop-color="#c0e2aa" stop-opacity="0.59"/><stop offset="0.26" stop-color="#a7d689" stop-opacity="0.43"/><stop offset="0.35" stop-color="#92cd6d" stop-opacity="0.3"/><stop offset="0.45" stop-color="#81c556" stop-opacity="0.19"/><stop offset="0.55" stop-color="#74bf45" stop-opacity="0.11"/><stop offset="0.67" stop-color="#6bba39" stop-opacity="0.05"/><stop offset="0.8" stop-color="#66b831" stop-opacity="0.01"/><stop offset="1" stop-color="#64b72f" stop-opacity="0"/></radialGradient></defs><title>1</title><g id="f7ec711f-9b94-4784-b430-e63d90fa9ef9" data-name="圖層 2"><g id="b61d0aa5-ae2b-4435-8b8c-faa713441583" data-name="圖層 1"><path class="b4190f3a-ac03-4f57-8c04-b6f65a724e5d" d="M13.75,4a7.3,7.3,0,0,0-10.4,7.18L8,70.6A7.31,7.31,0,0,0,19.45,76L68.64,42.1a7.31,7.31,0,0,0-1-12.62Z"/><path class="a6369fe1-d9a5-4ed7-b657-9ad5e068c2b6" d="M13.75,4a7.31,7.31,0,0,0-10.4,7.18l.73,9.26L8.62,73A7.31,7.31,0,0,0,19.45,76l2.48-1.71-6-69.26Z"/><path class="a6369fe1-d9a5-4ed7-b657-9ad5e068c2b6" d="M8,70.6A7,7,0,0,0,8.62,73L4.08,20.48Z"/><polygon class="a6369fe1-d9a5-4ed7-b657-9ad5e068c2b6" points="29.68 11.56 34.37 65.74 46.81 57.16 43.43 18.06 29.68 11.56"/><path class="a6369fe1-d9a5-4ed7-b657-9ad5e068c2b6" d="M67.61,29.48,57.18,24.56l2.08,24,9.38-6.47A7.19,7.19,0,0,0,71.53,38l-.43-5A7.23,7.23,0,0,0,67.61,29.48Z"/><path class="a6369fe1-d9a5-4ed7-b657-9ad5e068c2b6" d="M71.1,33l.43,5A7.39,7.39,0,0,0,71.1,33Z"/><path class="efb8196a-9ef2-43c7-b6d1-3b6fbb34cc8a" d="M13.75,4a7.3,7.3,0,0,0-10.4,7.18L8,70.6A7.31,7.31,0,0,0,19.45,76L68.64,42.1a7.31,7.31,0,0,0-1-12.62Z"/><path class="a010529b-4464-4cd8-9af8-2a3c63f0ee35" d="M13.75,4a7.3,7.3,0,0,0-10.4,7.18L8,70.6A7.31,7.31,0,0,0,19.45,76L68.64,42.1a7.31,7.31,0,0,0-1-12.62Z"/><path class="fbecf2c7-da21-4e0e-8352-22276beb8b1e" d="M10.63,3.33A7.23,7.23,0,0,1,13.75,4L67.61,29.48a7.31,7.31,0,0,1,1,12.62L19.45,76a7.21,7.21,0,0,1-4.12,1.3A7.32,7.32,0,0,1,8,70.6L3.35,11.22a7.32,7.32,0,0,1,7.28-7.89m0-3.33A10.71,10.71,0,0,0,2.81,3.44a10.5,10.5,0,0,0-2.78,8L4.7,70.86a10.62,10.62,0,0,0,16.64,7.92L70.53,44.84A10.63,10.63,0,0,0,69,26.47L15.18,1a10.65,10.65,0,0,0-4.55-1Z"/><path class="b0801105-5860-4e20-a8cb-f3b91ca31bcc" d="M10.85,32l2.23,32a4.94,4.94,0,0,0,7.73,3.72L38.46,55.52"/></g></g></svg>