<svg xmlns="http://www.w3.org/2000/svg" xmlns:xlink="http://www.w3.org/1999/xlink" viewBox="0 0 39.72 41.36"><defs><style>.ba110e3d-68f3-4123-928f-86c7568c5ac2{stroke:#39591d;stroke-width:0.77px;fill:url(#b530b6d5-b096-424b-880a-47535b021957);}.ba110e3d-68f3-4123-928f-86c7568c5ac2,.bbaf7336-8b5c-413e-ba02-eb419b15da8c{stroke-miterlimit:10;}.e00e5db2-0ea4-45a6-bdd3-1187268d0ebf{fill:#fff;}.bbaf7336-8b5c-413e-ba02-eb419b15da8c{fill:none;stroke:#fff;stroke-linecap:round;stroke-width:1.44px;}</style><radialGradient id="b530b6d5-b096-424b-880a-47535b021957" cx="-754.73" cy="614.25" r="18.22" gradientTransform="translate(998.76 10.17) rotate(39.09)" gradientUnits="userSpaceOnUse"><stop offset="0" stop-color="#fff"/><stop offset="0.21" stop-color="#d6ecc8"/><stop offset="0.49" stop-color="#a5d587"/><stop offset="0.72" stop-color="#82c557"/><stop offset="0.9" stop-color="#6cbb3a"/><stop offset="1" stop-color="#64b72f"/></radialGradient></defs><title>10</title><g id="af28736a-18f3-42c0-ab91-733d9aad6cfd" data-name="圖層 2"><g id="e17f039a-0913-4095-9d64-ceead51f4a9a" data-name="圖層 1"><path class="ba110e3d-68f3-4123-928f-86c7568c5ac2" d="M38,6a3.78,3.78,0,0,0-5.08-4.12L4.1,12.87a3.78,3.78,0,0,0-1,6.47l24,19.5A3.78,3.78,0,0,0,33.2,36.5Z"/><path class="e00e5db2-0ea4-45a6-bdd3-1187268d0ebf" d="M34.28,1.66A3.79,3.79,0,0,1,38,6L33.2,36.5a3.78,3.78,0,0,1-3.75,3.19,3.69,3.69,0,0,1-2.37-.85l-24-19.5a3.78,3.78,0,0,1,1-6.47L32.93,1.92a3.63,3.63,0,0,1,1.35-.26m0-1.66a5.42,5.42,0,0,0-1.94.36l-28.83,11A5.45,5.45,0,0,0,2,20.63L26,40.14a5.36,5.36,0,0,0,3.42,1.22,5.43,5.43,0,0,0,5.39-4.6L39.65,6.3A5.45,5.45,0,0,0,34.28,0Z"/><path class="bbaf7336-8b5c-413e-ba02-eb419b15da8c" d="M16.66,24l9.53,9.3A2.3,2.3,0,0,0,30,32.22l2.47-10.56"/></g></g></svg>