<svg xmlns="http://www.w3.org/2000/svg" xmlns:xlink="http://www.w3.org/1999/xlink" viewBox="0 0 103.41 103.77"><defs><style>.e8ebf1c5-6974-4277-b957-b4eb4fd8e8fa{fill:url(#ac647c19-1ebe-421c-9e5a-c6de2478005e);}.b4e86d41-9a85-42d8-b0c7-7e00329d0b6d{fill:url(#bf52c0c4-9936-4bf0-8bc6-2a47a89c6a58);}.a87276c6-d723-472b-b375-c6150a97c0e0{fill:url(#ba20321d-5db0-41b8-8a3a-d95d2b72af61);}.a361ecd7-e87d-480f-9926-7571b17628f0{fill:url(#b1bd4d21-4c17-45e4-af9c-f871dc6a3579);}.b974235f-05ba-4298-8a5d-0233be2ac47a{fill:url(#e504b71c-5798-4bc6-839c-abe386ce286a);}.b8642995-2daf-4281-8cdb-3f31f10b349e{fill:url(#fca3fbb3-cbbb-411d-b92d-177dbaec4ccc);}.bf8a9ac2-884e-44fd-b7c4-ab0054403f00{fill:url(#b49789e1-cb88-491e-9ef7-620b988ad70d);}.f6edba39-0a40-42b5-9061-9bdcd5e186ba{fill:url(#a0dd07a8-cbf7-4d32-b9b6-2f16f1a88948);}.e0d09da4-a12d-4908-a24c-b7f395ef9570{fill:url(#e5708270-ab91-4603-828f-f02c795e2eee);}.a1dd0858-e363-4150-8b1f-261edc5ca9c3{fill:url(#b3205146-c9be-4cdd-ba52-6af2ed406c78);}.bca5d591-1d04-4a0c-9a06-66e1dacacbd0{fill:url(#bc8bf357-fcd7-42bd-a8cd-1d5b10ab1c69);}.efbf9ab7-b0d2-415d-b9d9-daffbcc28e7c{fill:url(#e7e91fd1-4d8c-447d-9434-56f22802d1bd);}.b1a4a461-d4c3-4fae-918c-fcef90326b72{fill:url(#a2f22b8f-e4cc-4ece-b114-5aff662dd06f);}.a03fd215-1f79-4fa0-80cf-cce551caf988{fill:url(#b9322a10-31fe-4154-927d-eac9783a5fc2);}.ac8f316c-7b74-433c-abe6-898a68d6e0cf{fill:url(#f70b81c8-7d3b-487f-8e11-3ce99030ad49);}.aacdffc4-f022-488a-8636-e3bd83a906a1{fill:url(#f737259b-88ba-458b-9bf9-a2a97a5bd7c3);}.b92f7df5-5486-435d-b772-8e45442f66cd{fill:url(#e842176b-629b-4080-b56f-47ad3b513dc1);}.e4a21be1-88d8-4e9c-aea0-23444b17c6ef{fill:url(#beeb9823-ac38-42d5-8445-70fefc15f7e6);}.b4ebc7a3-c281-47f2-8e6c-37bca1659c15{fill:url(#b6f71364-2d4d-4f87-8dd2-c6691133f10e);}.e2c07056-23e6-4b9b-8416-6e48342f1b9f{fill:url(#ec0d8114-b1ac-4ad7-b645-61c9e8a04976);}.ea7718b7-3d90-456f-8374-9389d1f52c4f{fill:url(#b913fc37-3b26-4d43-90fe-b926fccb0643);}.a54d5688-c190-4e8a-a3b4-7409d50ee3f7{fill:none;stroke:#fff;stroke-linecap:round;stroke-miterlimit:10;stroke-width:2.37px;}.b9898cc2-2658-458a-af7a-717fe62e416c{fill:#fff;}</style><radialGradient id="ac647c19-1ebe-421c-9e5a-c6de2478005e" cx="500.91" cy="21.68" r="22.6" gradientTransform="translate(-456.19 20.56)" gradientUnits="userSpaceOnUse"><stop offset="0" stop-color="#fff"/><stop offset="0.32" stop-color="#feecc7"/><stop offset="0.63" stop-color="#fddc97"/><stop offset="0.87" stop-color="#fcd37a"/><stop offset="1" stop-color="#fccf6f"/></radialGradient><radialGradient id="bf52c0c4-9936-4bf0-8bc6-2a47a89c6a58" cx="497.3" cy="16.86" r="34.08" gradientTransform="translate(-438.86 186.92) rotate(-18.92)" gradientUnits="userSpaceOnUse"><stop offset="0" stop-color="#fff"/><stop offset="0.06" stop-color="#fef5ed"/><stop offset="0.33" stop-color="#f8c69a"/><stop offset="0.56" stop-color="#f3a158"/><stop offset="0.76" stop-color="#f08628"/><stop offset="0.91" stop-color="#ee750b"/><stop offset="1" stop-color="#ed6f00"/></radialGradient><radialGradient id="ba20321d-5db0-41b8-8a3a-d95d2b72af61" cx="497.3" cy="16.86" r="34.08" gradientTransform="translate(-438.86 186.92) rotate(-18.92)" gradientUnits="userSpaceOnUse"><stop offset="0" stop-color="#fff"/><stop offset="0.06" stop-color="#fef7ed"/><stop offset="0.33" stop-color="#fad39a"/><stop offset="0.56" stop-color="#f6b658"/><stop offset="0.76" stop-color="#f4a128"/><stop offset="0.91" stop-color="#f3940b"/><stop offset="1" stop-color="#f28f00"/></radialGradient><radialGradient id="b1bd4d21-4c17-45e4-af9c-f871dc6a3579" cx="516.42" cy="2.97" r="21.17" xlink:href="#ba20321d-5db0-41b8-8a3a-d95d2b72af61"/><radialGradient id="e504b71c-5798-4bc6-839c-abe386ce286a" cx="870.56" cy="125.94" r="21.17" gradientTransform="matrix(0.78, -0.63, 0.63, 0.78, -715.82, 473.36)" xlink:href="#ba20321d-5db0-41b8-8a3a-d95d2b72af61"/><radialGradient id="fca3fbb3-cbbb-411d-b92d-177dbaec4ccc" cx="1161.27" cy="362.62" r="21.17" gradientTransform="translate(-878.11 837.24) rotate(-58.92)" xlink:href="#ba20321d-5db0-41b8-8a3a-d95d2b72af61"/><radialGradient id="b49789e1-cb88-491e-9ef7-620b988ad70d" cx="1353.51" cy="684.45" r="21.17" gradientTransform="translate(-906.16 1234.69) rotate(-78.92)" xlink:href="#ba20321d-5db0-41b8-8a3a-d95d2b72af61"/><radialGradient id="a0dd07a8-cbf7-4d32-b9b6-2f16f1a88948" cx="1424.08" cy="1052.62" r="21.17" gradientTransform="translate(-796.58 1617.76) rotate(-98.92)" xlink:href="#ba20321d-5db0-41b8-8a3a-d95d2b72af61"/><radialGradient id="e5708270-ab91-4603-828f-f02c795e2eee" cx="1364.47" cy="1422.73" r="21.17" gradientTransform="matrix(-0.48, -0.88, 0.88, -0.48, -562.6, 1940.25)" xlink:href="#ba20321d-5db0-41b8-8a3a-d95d2b72af61"/><radialGradient id="b3205146-c9be-4cdd-ba52-6af2ed406c78" cx="1181.87" cy="1750.13" r="21.17" gradientTransform="translate(-232.42 2163.26) rotate(-138.92)" xlink:href="#ba20321d-5db0-41b8-8a3a-d95d2b72af61"/><radialGradient id="bc8bf357-fcd7-42bd-a8cd-1d5b10ab1c69" cx="898.31" cy="1995.33" r="21.17" gradientTransform="matrix(-0.93, -0.36, 0.36, -0.93, 154.12, 2259.9)" xlink:href="#ba20321d-5db0-41b8-8a3a-d95d2b72af61"/><radialGradient id="e7e91fd1-4d8c-447d-9434-56f22802d1bd" cx="547.98" cy="2128.76" r="21.17" gradientTransform="translate(550.4 2218.51) rotate(-178.92)" xlink:href="#ba20321d-5db0-41b8-8a3a-d95d2b72af61"/><radialGradient id="a2f22b8f-e4cc-4ece-b114-5aff662dd06f" cx="173.15" cy="2134.32" r="21.17" gradientTransform="translate(908.62 2044.07) rotate(161.08)" xlink:href="#ba20321d-5db0-41b8-8a3a-d95d2b72af61"/><radialGradient id="b9322a10-31fe-4154-927d-eac9783a5fc2" cx="-180.98" cy="2011.35" r="21.17" gradientTransform="matrix(-0.78, 0.63, -0.63, -0.78, 1185.58, 1757.64)" xlink:href="#ba20321d-5db0-41b8-8a3a-d95d2b72af61"/><radialGradient id="f70b81c8-7d3b-487f-8e11-3ce99030ad49" cx="-471.7" cy="1774.67" r="21.17" gradientTransform="translate(1347.87 1393.76) rotate(121.08)" xlink:href="#ba20321d-5db0-41b8-8a3a-d95d2b72af61"/><radialGradient id="f737259b-88ba-458b-9bf9-a2a97a5bd7c3" cx="-663.93" cy="1452.84" r="21.17" gradientTransform="translate(1375.92 996.31) rotate(101.08)" xlink:href="#ba20321d-5db0-41b8-8a3a-d95d2b72af61"/><radialGradient id="e842176b-629b-4080-b56f-47ad3b513dc1" cx="-734.5" cy="1084.67" r="21.17" gradientTransform="translate(1266.34 613.24) rotate(81.08)" xlink:href="#ba20321d-5db0-41b8-8a3a-d95d2b72af61"/><radialGradient id="beeb9823-ac38-42d5-8445-70fefc15f7e6" cx="-674.89" cy="714.56" r="21.17" gradientTransform="matrix(0.48, 0.88, -0.88, 0.48, 1032.35, 290.75)" xlink:href="#ba20321d-5db0-41b8-8a3a-d95d2b72af61"/><radialGradient id="b6f71364-2d4d-4f87-8dd2-c6691133f10e" cx="-492.3" cy="387.17" r="21.17" gradientTransform="translate(702.18 67.73) rotate(41.08)" xlink:href="#ba20321d-5db0-41b8-8a3a-d95d2b72af61"/><radialGradient id="ec0d8114-b1ac-4ad7-b645-61c9e8a04976" cx="-208.73" cy="141.96" r="21.17" gradientTransform="matrix(0.93, 0.36, -0.36, 0.93, 315.64, -28.9)" xlink:href="#ba20321d-5db0-41b8-8a3a-d95d2b72af61"/><radialGradient id="b913fc37-3b26-4d43-90fe-b926fccb0643" cx="141.59" cy="8.53" r="21.17" gradientTransform="translate(-80.64 12.49) rotate(1.08)" xlink:href="#ba20321d-5db0-41b8-8a3a-d95d2b72af61"/></defs><title>11</title><g id="a9618401-fffc-4679-a107-8de951550301" data-name="圖層 2"><g id="ec027c3f-6356-433d-8c4b-476af0193c65" data-name="圖層 1"><rect class="e8ebf1c5-6974-4277-b957-b4eb4fd8e8fa" x="24.07" y="23.81" width="55.44" height="55.83" rx="11.2" transform="translate(-13.97 19.58) rotate(-18.92)"/><path class="b4e86d41-9a85-42d8-b0c7-7e00329d0b6d" d="M58.34,20a11.13,11.13,0,0,1,2.87-.56L66.49,3a16.71,16.71,0,0,0-4.82.89L51,7.51l.57,14.8Z"/><path class="b4e86d41-9a85-42d8-b0c7-7e00329d0b6d" d="M76.44,72.79l-3.35,1.15L83.46,85.37,89,83.49a16.77,16.77,0,0,0,8.54-6.63L81.93,68.65A11.14,11.14,0,0,1,76.44,72.79Z"/><path class="a87276c6-d723-472b-b375-c6150a97c0e0" d="M71.55,24.78,81.84,11.51A17,17,0,0,0,68.35,3L63.07,19.44A11.25,11.25,0,0,1,71.55,24.78Z"/><polygon class="a87276c6-d723-472b-b375-c6150a97c0e0" points="49.77 22.91 49.2 8.11 36.67 12.41 42.04 25.56 49.77 22.91"/><path class="a87276c6-d723-472b-b375-c6150a97c0e0" d="M83.4,58.56a11.15,11.15,0,0,1-.55,8.56l15.57,8.21A16.81,16.81,0,0,0,99.48,62l-1-3L82.83,56.89Z"/><polygon class="a87276c6-d723-472b-b375-c6150a97c0e0" points="78.75 44.99 92.61 41.99 88.4 29.71 76.16 37.42 78.75 44.99"/><polygon class="b4e86d41-9a85-42d8-b0c7-7e00329d0b6d" points="79.33 46.68 82.19 55.01 97.8 57.15 93.19 43.69 79.33 46.68"/><path class="b4e86d41-9a85-42d8-b0c7-7e00329d0b6d" d="M72.57,26.94l3,8.76L87.81,28,83.13,14.34c-.12-.36-.27-.7-.42-1.05L72.42,26.56C72.46,26.69,72.52,26.81,72.57,26.94Z"/><path class="a87276c6-d723-472b-b375-c6150a97c0e0" d="M45.19,83.5a11.13,11.13,0,0,1-2.87.56L37,100.52a16.58,16.58,0,0,0,4.82-.89L52.57,96,52,81.16Z"/><polygon class="a87276c6-d723-472b-b375-c6150a97c0e0" points="21.34 48.47 5.73 46.33 10.34 59.78 24.2 56.79 21.34 48.47"/><polygon class="b4e86d41-9a85-42d8-b0c7-7e00329d0b6d" points="24.77 58.48 10.92 61.48 15.13 73.76 27.37 66.05 24.77 58.48"/><polygon class="b4e86d41-9a85-42d8-b0c7-7e00329d0b6d" points="53.76 80.56 54.33 95.36 66.85 91.06 61.49 77.91 53.76 80.56"/><path class="a87276c6-d723-472b-b375-c6150a97c0e0" d="M31,76.53l-3-8.76L15.72,75.48l4.67,13.65c.13.36.28.71.43,1.05L31.11,76.91Z"/><path class="b4e86d41-9a85-42d8-b0c7-7e00329d0b6d" d="M32,78.69,21.68,92a17,17,0,0,0,13.5,8.53L40.46,84A11.25,11.25,0,0,1,32,78.69Z"/><path class="b4e86d41-9a85-42d8-b0c7-7e00329d0b6d" d="M20.12,44.91a11.15,11.15,0,0,1,.56-8.56L5.1,28.14a16.85,16.85,0,0,0-1,13.31l1,3L20.7,46.58Z"/><path class="a87276c6-d723-472b-b375-c6150a97c0e0" d="M27.09,30.68l3.35-1.14L20.06,18.1,14.56,20A16.73,16.73,0,0,0,6,26.61l15.58,8.21A11.16,11.16,0,0,1,27.09,30.68Z"/><polygon class="b4e86d41-9a85-42d8-b0c7-7e00329d0b6d" points="40.36 26.14 34.99 12.98 21.89 17.47 32.26 28.91 40.36 26.14"/><polygon class="a87276c6-d723-472b-b375-c6150a97c0e0" points="63.17 77.34 68.54 90.49 81.64 86 71.27 74.56 63.17 77.34"/><polygon class="a87276c6-d723-472b-b375-c6150a97c0e0" points="51.52 22.31 50.95 7.51 49.2 8.11 49.77 22.91 51.52 22.31"/><polygon class="a361ecd7-e87d-480f-9926-7571b17628f0" points="51.52 22.31 50.95 7.51 49.2 8.11 49.77 22.91 51.52 22.31"/><polygon class="a87276c6-d723-472b-b375-c6150a97c0e0" points="42.04 25.56 36.67 12.41 34.99 12.98 40.36 26.14 42.04 25.56"/><polygon class="b974235f-05ba-4298-8a5d-0233be2ac47a" points="42.04 25.56 36.67 12.41 34.99 12.98 40.36 26.14 42.04 25.56"/><polygon class="a87276c6-d723-472b-b375-c6150a97c0e0" points="32.26 28.91 21.89 17.47 20.07 18.1 30.43 29.54 32.26 28.91"/><polygon class="b8642995-2daf-4281-8cdb-3f31f10b349e" points="32.26 28.91 21.89 17.47 20.07 18.1 30.43 29.54 32.26 28.91"/><path class="a87276c6-d723-472b-b375-c6150a97c0e0" d="M21.59,34.82,6,26.61a16.67,16.67,0,0,0-.91,1.53l15.58,8.21A11.86,11.86,0,0,1,21.59,34.82Z"/><path class="bf8a9ac2-884e-44fd-b7c4-ab0054403f00" d="M21.59,34.82,6,26.61a16.67,16.67,0,0,0-.91,1.53l15.58,8.21A11.86,11.86,0,0,1,21.59,34.82Z"/><polygon class="a87276c6-d723-472b-b375-c6150a97c0e0" points="20.7 46.58 5.08 44.45 5.73 46.33 21.34 48.47 20.7 46.58"/><polygon class="f6edba39-0a40-42b5-9061-9bdcd5e186ba" points="20.7 46.58 5.08 44.45 5.73 46.33 21.34 48.47 20.7 46.58"/><polygon class="a87276c6-d723-472b-b375-c6150a97c0e0" points="24.2 56.79 10.34 59.78 10.92 61.48 24.77 58.48 24.2 56.79"/><polygon class="e0d09da4-a12d-4908-a24c-b7f395ef9570" points="24.2 56.79 10.34 59.78 10.92 61.48 24.77 58.48 24.2 56.79"/><polygon class="a87276c6-d723-472b-b375-c6150a97c0e0" points="27.37 66.05 15.13 73.76 15.72 75.48 27.96 67.78 27.37 66.05"/><polygon class="a1dd0858-e363-4150-8b1f-261edc5ca9c3" points="27.37 66.05 15.13 73.76 15.72 75.48 27.96 67.78 27.37 66.05"/><path class="a87276c6-d723-472b-b375-c6150a97c0e0" d="M31.11,76.91,20.82,90.18A16.27,16.27,0,0,0,21.68,92L32,78.69A10.49,10.49,0,0,1,31.11,76.91Z"/><path class="bca5d591-1d04-4a0c-9a06-66e1dacacbd0" d="M31.11,76.91,20.82,90.18A16.27,16.27,0,0,0,21.68,92L32,78.69A10.49,10.49,0,0,1,31.11,76.91Z"/><path class="a87276c6-d723-472b-b375-c6150a97c0e0" d="M40.46,84l-5.28,16.46a16.28,16.28,0,0,0,1.85,0l5.29-16.46A11.52,11.52,0,0,1,40.46,84Z"/><path class="efbf9ab7-b0d2-415d-b9d9-daffbcc28e7c" d="M40.46,84l-5.28,16.46a16.28,16.28,0,0,0,1.85,0l5.29-16.46A11.52,11.52,0,0,1,40.46,84Z"/><polygon class="a87276c6-d723-472b-b375-c6150a97c0e0" points="52.01 81.16 52.57 95.96 54.33 95.36 53.76 80.56 52.01 81.16"/><polygon class="b1a4a461-d4c3-4fae-918c-fcef90326b72" points="52.01 81.16 52.57 95.96 54.33 95.36 53.76 80.56 52.01 81.16"/><polygon class="a87276c6-d723-472b-b375-c6150a97c0e0" points="61.49 77.91 66.85 91.06 68.54 90.49 63.17 77.34 61.49 77.91"/><polygon class="a03fd215-1f79-4fa0-80cf-cce551caf988" points="61.49 77.91 66.85 91.06 68.54 90.49 63.17 77.34 61.49 77.91"/><polygon class="a87276c6-d723-472b-b375-c6150a97c0e0" points="71.27 74.56 81.64 86 83.46 85.37 73.09 73.94 71.27 74.56"/><polygon class="ac8f316c-7b74-433c-abe6-898a68d6e0cf" points="71.27 74.56 81.64 86 83.46 85.37 73.09 73.94 71.27 74.56"/><path class="a87276c6-d723-472b-b375-c6150a97c0e0" d="M81.93,68.65l15.58,8.21a14.68,14.68,0,0,0,.91-1.53L82.85,67.12A10.89,10.89,0,0,1,81.93,68.65Z"/><path class="aacdffc4-f022-488a-8636-e3bd83a906a1" d="M81.93,68.65l15.58,8.21a14.68,14.68,0,0,0,.91-1.53L82.85,67.12A10.89,10.89,0,0,1,81.93,68.65Z"/><polygon class="a87276c6-d723-472b-b375-c6150a97c0e0" points="82.83 56.89 98.45 59.03 97.8 57.15 82.19 55.01 82.83 56.89"/><polygon class="b92f7df5-5486-435d-b772-8e45442f66cd" points="82.83 56.89 98.45 59.03 97.8 57.15 82.19 55.01 82.83 56.89"/><polygon class="a87276c6-d723-472b-b375-c6150a97c0e0" points="79.33 46.68 93.19 43.69 92.61 41.99 78.75 44.99 79.33 46.68"/><polygon class="e4a21be1-88d8-4e9c-aea0-23444b17c6ef" points="79.33 46.68 93.19 43.69 92.61 41.99 78.75 44.99 79.33 46.68"/><polygon class="a87276c6-d723-472b-b375-c6150a97c0e0" points="76.16 37.42 88.4 29.71 87.81 27.99 75.57 35.7 76.16 37.42"/><polygon class="b4ebc7a3-c281-47f2-8e6c-37bca1659c15" points="76.16 37.42 88.4 29.71 87.81 27.99 75.57 35.7 76.16 37.42"/><path class="a87276c6-d723-472b-b375-c6150a97c0e0" d="M72.42,26.56,82.71,13.29a14.68,14.68,0,0,0-.87-1.78L71.55,24.78A11.74,11.74,0,0,1,72.42,26.56Z"/><path class="e2c07056-23e6-4b9b-8416-6e48342f1b9f" d="M72.42,26.56,82.71,13.29a14.68,14.68,0,0,0-.87-1.78L71.55,24.78A11.74,11.74,0,0,1,72.42,26.56Z"/><path class="a87276c6-d723-472b-b375-c6150a97c0e0" d="M63.07,19.44,68.35,3a16.42,16.42,0,0,0-1.86,0L61.21,19.41A11.56,11.56,0,0,1,63.07,19.44Z"/><path class="ea7718b7-3d90-456f-8374-9389d1f52c4f" d="M63.07,19.44,68.35,3a16.42,16.42,0,0,0-1.86,0L61.21,19.41A11.56,11.56,0,0,1,63.07,19.44Z"/><path class="a54d5688-c190-4e8a-a3b4-7409d50ee3f7" d="M84.34,36.31l8.27,24.13a13.33,13.33,0,0,1-8.29,16.93L57.44,86.58"/><path class="b9898cc2-2658-458a-af7a-717fe62e416c" d="M67.18,3.42a16.89,16.89,0,0,1,16,11.47l16,47.54a16.87,16.87,0,0,1-10.6,21.29l-47,15.76a16.67,16.67,0,0,1-5.31.86,16.87,16.87,0,0,1-16-11.46L4.3,41.33A16.86,16.86,0,0,1,14.89,20.05l47-15.76a16.58,16.58,0,0,1,5.3-.87m0-3.42a19.91,19.91,0,0,0-6.39,1.05L13.8,16.8A20.29,20.29,0,0,0,1.05,42.42L17,90a20.24,20.24,0,0,0,19.22,13.8,19.92,19.92,0,0,0,6.4-1L89.6,87a20.25,20.25,0,0,0,12.75-25.61L86.41,13.8A20.24,20.24,0,0,0,67.18,0Z"/></g></g></svg>