<svg xmlns="http://www.w3.org/2000/svg" xmlns:xlink="http://www.w3.org/1999/xlink" viewBox="0 0 77.5 77.64"><defs><style>.b8f7c4c5-e4ae-43b8-bc4d-3a49df4c8a1e{fill:url(#e7167d64-0656-42ed-b0ce-40fbb568035b);}.e0a2c525-9db5-4c51-ad18-c0b3c6bc8be1{fill:url(#ed6fbb92-de93-41d4-8bba-670e12d4dccb);}.ea8e735f-2e90-4697-9e3e-ccc5a9c6ee03{fill:url(#a478b72e-8be8-4122-ac38-783e5d04c222);}.a0964e24-1504-4385-a7d4-baa7f5689034{fill:url(#f8e4af87-ebbb-4631-8ebc-b5061d1e6113);}.b397f7f2-16e5-4f50-91b0-49df2a135aa6{fill:url(#b226559f-3af1-4651-b868-63f5b2cdf2d6);}.b73bfaaa-3eb7-4df1-8699-89d9e3292605{fill:url(#e36ad1ca-cab2-437a-934a-66bb4fd87721);}.aaca329b-d598-4526-ab53-5461b4eb72fb{fill:url(#b984f28b-4907-4b8a-9850-d6060ab16f5f);}.e0e857a1-7508-4db9-abfe-740013e235df{fill:url(#a8067acd-3ccc-4286-ae7a-4c632b054bc9);}.fe456f87-64fb-47ac-bd03-a1c95609babb{fill:url(#e5acaf97-931b-4630-9ebd-b89c0ec7c676);}.b2499973-0354-4227-8498-11fe919be178{fill:url(#fdc944d5-6d39-4446-a551-ddac4d270c59);}.bf8373dc-45f3-487b-b711-a828605d36f8{fill:url(#aa816bcf-c418-431d-b200-12d7547a6c37);}.b51e1b9f-3de3-4904-8116-64c98a1237b6{fill:url(#f99160f5-80d0-4cec-bf20-a6419122990d);}.a2198524-d040-45be-94e8-4d42e0fa467c{fill:url(#a4bda84c-2767-4dce-9e44-58c84b62c0e9);}.fe6a8c45-afc7-4aa6-ae6b-c86dc5ab75fc{fill:url(#a9e1243e-eaf9-479d-8be1-9ffe79fa0886);}.a1d83c01-c25a-46f5-a4b0-892e25d5e91f{fill:url(#e704b56d-8b02-47f5-a690-0392898c0484);}.b4a07727-9d8c-474f-86d8-aed5e0303a2c{fill:url(#b3f6a38f-b690-466d-a86e-8c778bb9b964);}.e503a513-efda-4eba-b478-9fa034d3c8a5{fill:url(#f448b6e0-d651-4c21-a7d2-f8e17c1d65d0);}.fd24a78d-0a83-4175-a4f1-c11b5c6e0dc5{fill:url(#b0ee087d-10f4-4fc3-ae6a-4bfc66ef327d);}.bc4d2af2-caed-4e3a-bee4-18ac592384e1{fill:url(#b4c0ccfc-79d0-4764-a637-40792bf8330f);}.aedada0d-9b0c-43c9-9dfa-77abdee8658b{fill:url(#e0caeeb8-badb-4b97-b55b-b43e81860387);}.ba9894e6-976c-473d-b3d5-9bd092ee5422{fill:url(#a62c54f5-91cc-454f-878d-e18c1ad84a8f);}.ef982359-a6e3-4580-abee-fb61458db16a{fill:url(#a3f5f187-58ef-413b-b520-22d74cc6b699);}.b53c523f-f245-4d1a-8543-ee0645ef4256{fill:none;stroke:#fff;stroke-linecap:round;stroke-miterlimit:10;stroke-width:1.69px;}.f8ab99f3-405e-4ba0-a175-071b9d6b08dd{fill:#fff;}</style><radialGradient id="e7167d64-0656-42ed-b0ce-40fbb568035b" cx="-1005.54" cy="669.68" r="16.11" gradientTransform="translate(715.19 1039.32) rotate(90)" gradientUnits="userSpaceOnUse"><stop offset="0" stop-color="#fff"/><stop offset="0.11" stop-color="#fce8e7"/><stop offset="0.42" stop-color="#f4aca6"/><stop offset="0.68" stop-color="#ef7f76"/><stop offset="0.89" stop-color="#eb6459"/><stop offset="1" stop-color="#ea5a4e"/></radialGradient><radialGradient id="ed6fbb92-de93-41d4-8bba-670e12d4dccb" cx="-1008.11" cy="666.24" r="24.29" gradientTransform="translate(1146.14 520.75) rotate(57.58)" gradientUnits="userSpaceOnUse"><stop offset="0" stop-color="#fff"/><stop offset="0.02" stop-color="#fef9f8"/><stop offset="0.3" stop-color="#f6b8a5"/><stop offset="0.55" stop-color="#f08363"/><stop offset="0.75" stop-color="#ec5e33"/><stop offset="0.91" stop-color="#e94716"/><stop offset="1" stop-color="#e83e0b"/></radialGradient><radialGradient id="a478b72e-8be8-4122-ac38-783e5d04c222" cx="-1008.11" cy="666.24" r="24.29" gradientTransform="translate(1146.14 520.75) rotate(57.58)" gradientUnits="userSpaceOnUse"><stop offset="0" stop-color="#fff"/><stop offset="0.2" stop-color="#fbe4e2"/><stop offset="0.56" stop-color="#f5b8b3"/><stop offset="0.84" stop-color="#f19c96"/><stop offset="1" stop-color="#f0928b"/></radialGradient><radialGradient id="f8e4af87-ebbb-4631-8ebc-b5061d1e6113" cx="-1008.11" cy="666.24" r="24.29" gradientTransform="translate(1146.14 520.75) rotate(57.58)" gradientUnits="userSpaceOnUse"><stop offset="0" stop-color="#fff"/><stop offset="0.06" stop-color="#fef7ed"/><stop offset="0.33" stop-color="#fad39a"/><stop offset="0.56" stop-color="#f6b658"/><stop offset="0.76" stop-color="#f4a128"/><stop offset="0.91" stop-color="#f3940b"/><stop offset="1" stop-color="#f28f00"/></radialGradient><radialGradient id="b226559f-3af1-4651-b868-63f5b2cdf2d6" cx="-994.48" cy="656.34" r="15.09" xlink:href="#f8e4af87-ebbb-4631-8ebc-b5061d1e6113"/><radialGradient id="e36ad1ca-cab2-437a-934a-66bb4fd87721" cx="-835.11" cy="217.31" r="15.09" gradientTransform="translate(850.13 363.66) rotate(37.58)" xlink:href="#f8e4af87-ebbb-4631-8ebc-b5061d1e6113"/><radialGradient id="b984f28b-4907-4b8a-9850-d6060ab16f5f" cx="-535.19" cy="-140.74" r="15.09" gradientTransform="translate(518.25 317.29) rotate(17.58)" xlink:href="#f8e4af87-ebbb-4631-8ebc-b5061d1e6113"/><radialGradient id="a8067acd-3ccc-4286-ae7a-4c632b054bc9" cx="-130.9" cy="-374.62" r="15.09" gradientTransform="translate(190.52 387.23) rotate(-2.42)" xlink:href="#f8e4af87-ebbb-4631-8ebc-b5061d1e6113"/><radialGradient id="e5acaf97-931b-4630-9ebd-b89c0ec7c676" cx="329" cy="-456.11" r="15.09" gradientTransform="translate(-93.53 565.04) rotate(-22.42)" xlink:href="#f8e4af87-ebbb-4631-8ebc-b5061d1e6113"/><radialGradient id="fdc944d5-6d39-4446-a551-ddac4d270c59" cx="789.03" cy="-375.4" r="15.09" gradientTransform="translate(-299.63 829.27) rotate(-42.42)" xlink:href="#f8e4af87-ebbb-4631-8ebc-b5061d1e6113"/><radialGradient id="aa816bcf-c418-431d-b200-12d7547a6c37" cx="1193.72" cy="-142.21" r="15.09" gradientTransform="translate(-402.93 1148.06) rotate(-62.42)" xlink:href="#f8e4af87-ebbb-4631-8ebc-b5061d1e6113"/><radialGradient id="f99160f5-80d0-4cec-bf20-a6419122990d" cx="1494.25" cy="215.33" r="15.09" gradientTransform="translate(-390.96 1482.95) rotate(-82.42)" xlink:href="#f8e4af87-ebbb-4631-8ebc-b5061d1e6113"/><radialGradient id="a4bda84c-2767-4dce-9e44-58c84b62c0e9" cx="1654.37" cy="654.09" r="15.09" gradientTransform="translate(-265.18 1793.56) rotate(-102.42)" xlink:href="#f8e4af87-ebbb-4631-8ebc-b5061d1e6113"/><radialGradient id="a9e1243e-eaf9-479d-8be1-9ffe79fa0886" cx="1654.76" cy="1121.15" r="15.09" gradientTransform="translate(-40.75 2042.41) rotate(-122.42)" xlink:href="#f8e4af87-ebbb-4631-8ebc-b5061d1e6113"/><radialGradient id="e704b56d-8b02-47f5-a690-0392898c0484" cx="1495.39" cy="1560.18" r="15.09" gradientTransform="translate(255.26 2199.5) rotate(-142.42)" xlink:href="#f8e4af87-ebbb-4631-8ebc-b5061d1e6113"/><radialGradient id="b3f6a38f-b690-466d-a86e-8c778bb9b964" cx="1195.47" cy="1918.23" r="15.09" gradientTransform="translate(587.14 2245.87) rotate(-162.42)" xlink:href="#f8e4af87-ebbb-4631-8ebc-b5061d1e6113"/><radialGradient id="f448b6e0-d651-4c21-a7d2-f8e17c1d65d0" cx="791.18" cy="2152.11" r="15.09" gradientTransform="translate(914.87 2175.93) rotate(177.58)" xlink:href="#f8e4af87-ebbb-4631-8ebc-b5061d1e6113"/><radialGradient id="b0ee087d-10f4-4fc3-ae6a-4bfc66ef327d" cx="331.28" cy="2233.6" r="15.09" gradientTransform="translate(1198.92 1998.13) rotate(157.58)" xlink:href="#f8e4af87-ebbb-4631-8ebc-b5061d1e6113"/><radialGradient id="b4c0ccfc-79d0-4764-a637-40792bf8330f" cx="-128.75" cy="2152.89" r="15.09" gradientTransform="translate(1405.02 1733.89) rotate(137.58)" xlink:href="#f8e4af87-ebbb-4631-8ebc-b5061d1e6113"/><radialGradient id="e0caeeb8-badb-4b97-b55b-b43e81860387" cx="-533.44" cy="1919.7" r="15.09" gradientTransform="translate(1508.32 1415.1) rotate(117.58)" xlink:href="#f8e4af87-ebbb-4631-8ebc-b5061d1e6113"/><radialGradient id="a62c54f5-91cc-454f-878d-e18c1ad84a8f" cx="-833.97" cy="1562.16" r="15.09" gradientTransform="translate(1496.35 1080.21) rotate(97.58)" xlink:href="#f8e4af87-ebbb-4631-8ebc-b5061d1e6113"/><radialGradient id="a3f5f187-58ef-413b-b520-22d74cc6b699" cx="-994.09" cy="1123.4" r="15.09" gradientTransform="translate(1370.57 769.6) rotate(77.58)" xlink:href="#f8e4af87-ebbb-4631-8ebc-b5061d1e6113"/></defs><title>12</title><g id="bd02e439-e801-4acc-bc2b-6cee92db45b2" data-name="圖層 2"><g id="e84c1835-60be-4060-9848-fc041dbce67b" data-name="圖層 1"><rect class="b8f7c4c5-e4ae-43b8-bc4d-3a49df4c8a1e" x="18.85" y="19.06" width="39.79" height="39.51" rx="7.99" transform="translate(-14.77 26.82) rotate(-32.42)"/><path class="e0a2c525-9db5-4c51-ad18-c0b3c6bc8be1" d="M61.85,38.08A8.26,8.26,0,0,1,62.72,40L75,40.9a11.83,11.83,0,0,0-1.42-3.2l-4.33-6.81L59.09,33.74Z"/><path class="e0a2c525-9db5-4c51-ad18-c0b3c6bc8be1" d="M28.25,59.41,26.9,57.28l-6.2,9.09,2.23,3.51a12,12,0,0,0,6,4.82L32,62.53A8,8,0,0,1,28.25,59.41Z"/><path class="ea8e735f-2e90-4697-9e3e-ccc5a9c6ee03" d="M60.72,48,71.63,53a12.1,12.1,0,0,0,3.66-10.77L63,41.26A8,8,0,0,1,60.72,48Z"/><polygon class="ea8e735f-2e90-4697-9e3e-ccc5a9c6ee03" points="58.38 32.63 68.55 29.77 63.49 21.8 55.26 27.71 58.38 32.63"/><path class="ea8e735f-2e90-4697-9e3e-ccc5a9c6ee03" d="M39.28,61.87a8,8,0,0,1-6,1l-3.1,12.16a12.05,12.05,0,0,0,9.4-1.48l1.91-1.22L40.34,61.19Z"/><polygon class="ea8e735f-2e90-4697-9e3e-ccc5a9c6ee03" points="47.91 56.39 52.29 65.49 60.1 60.53 52.72 53.33 47.91 56.39"/><polygon class="e0a2c525-9db5-4c51-ad18-c0b3c6bc8be1" points="46.83 57.07 41.54 60.44 42.65 71.61 51.21 66.18 46.83 57.07"/><path class="e0a2c525-9db5-4c51-ad18-c0b3c6bc8be1" d="M59.39,49.1l-5.57,3.53,7.38,7.21,8.68-5.51c.23-.15.44-.31.66-.47L59.63,48.93A2.07,2.07,0,0,0,59.39,49.1Z"/><path class="ea8e735f-2e90-4697-9e3e-ccc5a9c6ee03" d="M15.63,39.54a8.53,8.53,0,0,1-.87-1.9L2.48,36.72A11.77,11.77,0,0,0,3.9,39.91l4.33,6.82,10.16-2.86Z"/><polygon class="ea8e735f-2e90-4697-9e3e-ccc5a9c6ee03" points="35.94 17.18 34.83 6 26.27 11.44 30.65 20.54 35.94 17.18"/><polygon class="e0a2c525-9db5-4c51-ad18-c0b3c6bc8be1" points="29.57 21.22 25.19 12.12 17.38 17.08 24.76 24.28 29.57 21.22"/><polygon class="e0a2c525-9db5-4c51-ad18-c0b3c6bc8be1" points="19.09 44.99 8.94 47.84 13.99 55.81 22.22 49.9 19.09 44.99"/><path class="ea8e735f-2e90-4697-9e3e-ccc5a9c6ee03" d="M18.09,28.52,23.66,25l-7.38-7.2L7.61,23.29a8,8,0,0,0-.67.47l10.92,4.92Z"/><path class="e0a2c525-9db5-4c51-ad18-c0b3c6bc8be1" d="M16.76,29.58,5.85,24.65A12.11,12.11,0,0,0,2.19,35.42l12.29.93A8,8,0,0,1,16.76,29.58Z"/><path class="e0a2c525-9db5-4c51-ad18-c0b3c6bc8be1" d="M38.2,15.74a8,8,0,0,1,6-1l3.1-12.16A12,12,0,0,0,37.93,4L36,5.24l1.12,11.18Z"/><path class="ea8e735f-2e90-4697-9e3e-ccc5a9c6ee03" d="M49.23,18.2l1.35,2.13,6.2-9.09-2.23-3.5a12,12,0,0,0-6-4.82l-3.1,12.16A8,8,0,0,1,49.23,18.2Z"/><polygon class="e0a2c525-9db5-4c51-ad18-c0b3c6bc8be1" points="54.58 26.64 62.81 20.73 57.52 12.4 51.31 21.49 54.58 26.64"/><polygon class="ea8e735f-2e90-4697-9e3e-ccc5a9c6ee03" points="22.9 50.97 14.68 56.88 19.96 65.21 26.16 56.12 22.9 50.97"/><polygon class="a0964e24-1504-4385-a7d4-baa7f5689034" points="59.09 33.74 69.25 30.89 68.55 29.77 58.38 32.63 59.09 33.74"/><polygon class="b397f7f2-16e5-4f50-91b0-49df2a135aa6" points="59.09 33.74 69.25 30.89 68.55 29.77 58.38 32.63 59.09 33.74"/><polygon class="a0964e24-1504-4385-a7d4-baa7f5689034" points="55.26 27.71 63.49 21.8 62.81 20.73 54.58 26.64 55.26 27.71"/><polygon class="b73bfaaa-3eb7-4df1-8699-89d9e3292605" points="55.26 27.71 63.49 21.8 62.81 20.73 54.58 26.64 55.26 27.71"/><polygon class="a0964e24-1504-4385-a7d4-baa7f5689034" points="51.31 21.49 57.52 12.4 56.78 11.24 50.58 20.33 51.31 21.49"/><polygon class="aaca329b-d598-4526-ab53-5461b4eb72fb" points="51.31 21.49 57.52 12.4 56.78 11.24 50.58 20.33 51.31 21.49"/><path class="a0964e24-1504-4385-a7d4-baa7f5689034" d="M45.44,15.08l3.1-12.16c-.4-.15-.8-.27-1.21-.38L44.23,14.7A8.49,8.49,0,0,1,45.44,15.08Z"/><path class="e0e857a1-7508-4db9-abfe-740013e235df" d="M45.44,15.08l3.1-12.16c-.4-.15-.8-.27-1.21-.38L44.23,14.7A8.49,8.49,0,0,1,45.44,15.08Z"/><polygon class="a0964e24-1504-4385-a7d4-baa7f5689034" points="37.14 16.42 36.02 5.24 34.83 6 35.94 17.18 37.14 16.42"/><polygon class="fe456f87-64fb-47ac-bd03-a1c95609babb" points="37.14 16.42 36.02 5.24 34.83 6 35.94 17.18 37.14 16.42"/><polygon class="a0964e24-1504-4385-a7d4-baa7f5689034" points="30.65 20.54 26.27 11.44 25.19 12.12 29.57 21.22 30.65 20.54"/><polygon class="b2499973-0354-4227-8498-11fe919be178" points="30.65 20.54 26.27 11.44 25.19 12.12 29.57 21.22 30.65 20.54"/><polygon class="a0964e24-1504-4385-a7d4-baa7f5689034" points="24.76 24.28 17.38 17.08 16.28 17.78 23.66 24.98 24.76 24.28"/><polygon class="bf8373dc-45f3-487b-b711-a828605d36f8" points="24.76 24.28 17.38 17.08 16.28 17.78 23.66 24.98 24.76 24.28"/><path class="a0964e24-1504-4385-a7d4-baa7f5689034" d="M17.86,28.68,6.94,23.76a13.61,13.61,0,0,0-1.09.89l10.91,4.93A8.12,8.12,0,0,1,17.86,28.68Z"/><path class="b51e1b9f-3de3-4904-8116-64c98a1237b6" d="M17.86,28.68,6.94,23.76a13.61,13.61,0,0,0-1.09.89l10.91,4.93A8.12,8.12,0,0,1,17.86,28.68Z"/><path class="a0964e24-1504-4385-a7d4-baa7f5689034" d="M14.48,36.35,2.19,35.42a11.61,11.61,0,0,0,.29,1.3l12.28.92A8.5,8.5,0,0,1,14.48,36.35Z"/><path class="a2198524-d040-45be-94e8-4d42e0fa467c" d="M14.48,36.35,2.19,35.42a11.61,11.61,0,0,0,.29,1.3l12.28.92A8.5,8.5,0,0,1,14.48,36.35Z"/><polygon class="a0964e24-1504-4385-a7d4-baa7f5689034" points="18.39 43.87 8.23 46.73 8.94 47.84 19.09 44.99 18.39 43.87"/><polygon class="fe6a8c45-afc7-4aa6-ae6b-c86dc5ab75fc" points="18.39 43.87 8.23 46.73 8.94 47.84 19.09 44.99 18.39 43.87"/><polygon class="a0964e24-1504-4385-a7d4-baa7f5689034" points="22.22 49.9 13.99 55.81 14.68 56.88 22.9 50.97 22.22 49.9"/><polygon class="a1d83c01-c25a-46f5-a4b0-892e25d5e91f" points="22.22 49.9 13.99 55.81 14.68 56.88 22.9 50.97 22.22 49.9"/><polygon class="a0964e24-1504-4385-a7d4-baa7f5689034" points="26.16 56.12 19.96 65.21 20.7 66.37 26.9 57.28 26.16 56.12"/><polygon class="b4a07727-9d8c-474f-86d8-aed5e0303a2c" points="26.16 56.12 19.96 65.21 20.7 66.37 26.9 57.28 26.16 56.12"/><path class="a0964e24-1504-4385-a7d4-baa7f5689034" d="M32,62.53,28.94,74.7c.4.14.8.27,1.21.37l3.1-12.16A7.7,7.7,0,0,1,32,62.53Z"/><path class="e503a513-efda-4eba-b478-9fa034d3c8a5" d="M32,62.53,28.94,74.7c.4.14.8.27,1.21.37l3.1-12.16A7.7,7.7,0,0,1,32,62.53Z"/><polygon class="a0964e24-1504-4385-a7d4-baa7f5689034" points="40.34 61.19 41.46 72.37 42.65 71.61 41.54 60.44 40.34 61.19"/><polygon class="fd24a78d-0a83-4175-a4f1-c11b5c6e0dc5" points="40.34 61.19 41.46 72.37 42.65 71.61 41.54 60.44 40.34 61.19"/><polygon class="a0964e24-1504-4385-a7d4-baa7f5689034" points="46.83 57.07 51.21 66.18 52.29 65.49 47.91 56.39 46.83 57.07"/><polygon class="bc4d2af2-caed-4e3a-bee4-18ac592384e1" points="46.83 57.07 51.21 66.18 52.29 65.49 47.91 56.39 46.83 57.07"/><polygon class="a0964e24-1504-4385-a7d4-baa7f5689034" points="52.72 53.33 60.1 60.53 61.2 59.84 53.82 52.63 52.72 53.33"/><polygon class="aedada0d-9b0c-43c9-9dfa-77abdee8658b" points="52.72 53.33 60.1 60.53 61.2 59.84 53.82 52.63 52.72 53.33"/><path class="a0964e24-1504-4385-a7d4-baa7f5689034" d="M59.63,48.93l10.91,4.93a13.71,13.71,0,0,0,1.09-.9L60.72,48A7.9,7.9,0,0,1,59.63,48.93Z"/><path class="ba9894e6-976c-473d-b3d5-9bd092ee5422" d="M59.63,48.93l10.91,4.93a13.71,13.71,0,0,0,1.09-.9L60.72,48A7.9,7.9,0,0,1,59.63,48.93Z"/><path class="a0964e24-1504-4385-a7d4-baa7f5689034" d="M63,41.26l12.29.93A11,11,0,0,0,75,40.9L62.72,40A7.44,7.44,0,0,1,63,41.26Z"/><path class="ef982359-a6e3-4580-abee-fb61458db16a" d="M63,41.26l12.29.93A11,11,0,0,0,75,40.9L62.72,40A7.44,7.44,0,0,1,63,41.26Z"/><path class="b53c523f-f245-4d1a-8543-ee0645ef4256" d="M54.85,58.82,39.5,68.56a9.49,9.49,0,0,1-13.11-2.93L15.53,48.54"/><path class="f8ab99f3-405e-4ba0-a175-071b9d6b08dd" d="M43.76,2.43a11.91,11.91,0,0,1,10,5.43L73.15,37.71a12,12,0,0,1-3.5,16.49L40.19,73.3a11.82,11.82,0,0,1-6.45,1.91,12,12,0,0,1-10-5.43L4.34,39.93A12,12,0,0,1,7.85,23.44L37.31,4.33a11.81,11.81,0,0,1,6.45-1.9m0-2.43A14.16,14.16,0,0,0,36,2.3L6.53,21.4A14.38,14.38,0,0,0,2.31,41.25L21.67,71.1a14.36,14.36,0,0,0,19.84,4.24L71,56.23a14.36,14.36,0,0,0,4.22-19.84L55.83,6.54A14.31,14.31,0,0,0,43.76,0Z"/></g></g></svg>