<svg xmlns="http://www.w3.org/2000/svg" xmlns:xlink="http://www.w3.org/1999/xlink" viewBox="0 0 81.61 81.6"><defs><style>.ba55f681-71ee-4ae3-b8db-60492ea4a4bf{fill:#ee7500;}.b8bf6ea6-375d-49a1-8a1d-6d56e22d2179{fill:#f29660;}.ba986cf4-b535-4302-841c-22bc6ff0e797{fill:url(#b402fd1d-1d26-45be-9e23-5ae50f60826d);}.a0a9be01-3d5e-4e09-a689-7700c029a82e{fill:url(#b5482e1f-3a39-4925-89fb-7280688b6d3a);}.a7284cfe-0f79-4414-95c3-d41ad495f0e9{fill:#fff;}.e0895c97-6ae7-4ddb-a88c-f978e5d01f15{fill:none;stroke:#fff;stroke-linecap:round;stroke-miterlimit:10;stroke-width:2.12px;}</style><radialGradient id="b402fd1d-1d26-45be-9e23-5ae50f60826d" cx="41.1" cy="40.52" r="36.77" gradientUnits="userSpaceOnUse"><stop offset="0" stop-color="#fff" stop-opacity="0"/><stop offset="0.24" stop-color="#fefdfc" stop-opacity="0.01"/><stop offset="0.39" stop-color="#fcf5f2" stop-opacity="0.05"/><stop offset="0.52" stop-color="#f8e9e0" stop-opacity="0.13"/><stop offset="0.64" stop-color="#f3d8c7" stop-opacity="0.23"/><stop offset="0.75" stop-color="#ecc1a7" stop-opacity="0.36"/><stop offset="0.86" stop-color="#e3a580" stop-opacity="0.51"/><stop offset="0.95" stop-color="#d98552" stop-opacity="0.7"/><stop offset="1" stop-color="#d47339" stop-opacity="0.8"/></radialGradient><radialGradient id="b5482e1f-3a39-4925-89fb-7280688b6d3a" cx="27.19" cy="25.15" r="27.23" gradientUnits="userSpaceOnUse"><stop offset="0" stop-color="#fff" stop-opacity="0.8"/><stop offset="0.14" stop-color="#fff" stop-opacity="0.6"/><stop offset="0.29" stop-color="#fff" stop-opacity="0.42"/><stop offset="0.44" stop-color="#fff" stop-opacity="0.27"/><stop offset="0.58" stop-color="#fff" stop-opacity="0.15"/><stop offset="0.73" stop-color="#fff" stop-opacity="0.07"/><stop offset="0.87" stop-color="#fff" stop-opacity="0.02"/><stop offset="1" stop-color="#fff" stop-opacity="0"/></radialGradient></defs><title>13</title><g id="a1d2e934-01cd-4638-8b7c-dea0bd9e99e6" data-name="圖層 2"><g id="b471a851-be85-4268-97ca-871fe43bf076" data-name="圖層 1"><path class="ba55f681-71ee-4ae3-b8db-60492ea4a4bf" d="M40.8,40.8c17.61,0,26.89-10.23,31.75-19.91A37.53,37.53,0,0,0,49.17,4.28C52.59,14.56,53.25,28.35,40.8,40.8Z"/><path class="b8bf6ea6-375d-49a1-8a1d-6d56e22d2179" d="M40.8,40.8C53.25,28.35,52.59,14.56,49.17,4.28A37.42,37.42,0,0,0,20.89,9.06C30.58,13.91,40.8,23.2,40.8,40.8Z"/><path class="ba55f681-71ee-4ae3-b8db-60492ea4a4bf" d="M4.28,32.43C14.56,29,28.36,28.35,40.8,40.8c0-17.6-10.22-26.89-19.91-31.74A37.48,37.48,0,0,0,4.28,32.43Z"/><path class="b8bf6ea6-375d-49a1-8a1d-6d56e22d2179" d="M40.8,40.8c12.45,12.45,26.25,11.79,36.53,8.37a37.81,37.81,0,0,0,1-8.37,37.34,37.34,0,0,0-5.73-19.91C67.69,30.57,58.41,40.8,40.8,40.8Z"/><path class="ba55f681-71ee-4ae3-b8db-60492ea4a4bf" d="M40.8,40.8C23.2,40.8,13.91,51,9.06,60.71A37.48,37.48,0,0,0,32.43,77.32C29,67,28.36,53.25,40.8,40.8Z"/><path class="ba55f681-71ee-4ae3-b8db-60492ea4a4bf" d="M40.8,40.8C40.8,58.4,51,67.69,60.71,72.54A37.49,37.49,0,0,0,77.33,49.17C67.05,52.59,53.25,53.25,40.8,40.8Z"/><path class="b8bf6ea6-375d-49a1-8a1d-6d56e22d2179" d="M40.8,40.8C28.36,28.35,14.56,29,4.28,32.43A37.42,37.42,0,0,0,9.06,60.71C13.91,51,23.2,40.8,40.8,40.8Z"/><path class="b8bf6ea6-375d-49a1-8a1d-6d56e22d2179" d="M40.8,40.8C28.36,53.25,29,67,32.43,77.32a37.42,37.42,0,0,0,28.28-4.78C51,67.69,40.8,58.4,40.8,40.8Z"/><ellipse class="ba986cf4-b535-4302-841c-22bc6ff0e797" cx="40.8" cy="40.8" rx="37.48" ry="37.47"/><ellipse class="a0a9be01-3d5e-4e09-a689-7700c029a82e" cx="40.8" cy="40.8" rx="37.48" ry="37.47"/><path class="a7284cfe-0f79-4414-95c3-d41ad495f0e9" d="M40.8,3.33A37.47,37.47,0,1,1,3.33,40.8,37.47,37.47,0,0,1,40.8,3.33M40.8,0A40.8,40.8,0,1,0,81.61,40.8,40.84,40.84,0,0,0,40.8,0Z"/><path class="e0895c97-6ae7-4ddb-a88c-f978e5d01f15" d="M67.23,26.16S77.87,59.73,44.51,71.94"/></g></g></svg>