<svg xmlns="http://www.w3.org/2000/svg" xmlns:xlink="http://www.w3.org/1999/xlink" viewBox="0 0 95.15 94.39"><defs><style>.b139b6d5-6ed6-4e63-8123-b07bb97daf0f{fill:url(#fac9555d-3b9e-4a7b-a868-09ffa7aaa29b);}.e769b1b4-4952-4a5b-9e2f-6778b15d91ee{fill:none;stroke:#fff;stroke-miterlimit:10;stroke-width:2.45px;}.b7e9a124-69e1-425e-9bb5-cb0954559f66{fill:url(#bbc53e19-aaa9-4135-8804-fb851f122f6b);}.f8215fbe-bb9d-4d39-b8fd-66db7cef8832{opacity:0.49;fill:url(#a6848386-4f3d-4ffa-82e1-e891253a080e);}.a7aaf561-7fc6-4ecf-b921-a28b5f6db4f1{fill:#fff;}</style><radialGradient id="fac9555d-3b9e-4a7b-a868-09ffa7aaa29b" cx="483.22" cy="53.96" r="43.14" gradientTransform="translate(-434.09 104.12) rotate(-13.17)" gradientUnits="userSpaceOnUse"><stop offset="0" stop-color="#fffcd7"/><stop offset="0.23" stop-color="#fff499"/><stop offset="0.5" stop-color="#ffec58"/><stop offset="0.73" stop-color="#ffe628"/><stop offset="0.9" stop-color="#ffe20b"/><stop offset="1" stop-color="#ffe100"/></radialGradient><radialGradient id="bbc53e19-aaa9-4135-8804-fb851f122f6b" cx="468.37" cy="38.19" r="40.99" gradientTransform="translate(-434.09 104.12) rotate(-13.17)" gradientUnits="userSpaceOnUse"><stop offset="0" stop-color="#fff"/><stop offset="0.34" stop-color="#fff69e" stop-opacity="0.62"/><stop offset="0.67" stop-color="#ffef49" stop-opacity="0.29"/><stop offset="0.89" stop-color="#ffea14" stop-opacity="0.08"/><stop offset="1" stop-color="#ffe800" stop-opacity="0"/></radialGradient><radialGradient id="a6848386-4f3d-4ffa-82e1-e891253a080e" cx="482.16" cy="53.36" r="36.47" gradientTransform="translate(-434.09 104.12) rotate(-13.17)" gradientUnits="userSpaceOnUse"><stop offset="0" stop-color="#fff" stop-opacity="0"/><stop offset="0.38" stop-color="#fffefd" stop-opacity="0.01"/><stop offset="0.51" stop-color="#fefdf6" stop-opacity="0.04"/><stop offset="0.61" stop-color="#fef9e9" stop-opacity="0.09"/><stop offset="0.69" stop-color="#fcf5d7" stop-opacity="0.16"/><stop offset="0.76" stop-color="#fbefc0" stop-opacity="0.25"/><stop offset="0.82" stop-color="#f9e7a3" stop-opacity="0.36"/><stop offset="0.87" stop-color="#f7df80" stop-opacity="0.5"/><stop offset="0.92" stop-color="#f5d458" stop-opacity="0.66"/><stop offset="0.96" stop-color="#f2c92c" stop-opacity="0.83"/><stop offset="1" stop-color="#efbe00"/></radialGradient></defs><title>14</title><g id="f6cdb7e3-e045-471a-99be-6aeb537f0b35" data-name="圖層 2"><g id="a31ceb3b-5d96-44f8-a1d6-82c1e79e72f9" data-name="圖層 1"><path class="b139b6d5-6ed6-4e63-8123-b07bb97daf0f" d="M66.83,7.83A14.19,14.19,0,0,0,53.23,3.7l-30,7a14.22,14.22,0,0,0-10.36,9.74L3.92,50.14A14.23,14.23,0,0,0,7.15,63.93L28.32,86.57a14.2,14.2,0,0,0,13.61,4.12l30-7A14.19,14.19,0,0,0,82.3,73.93l8.93-29.67A14.18,14.18,0,0,0,88,30.47Z"/><path class="e769b1b4-4952-4a5b-9e2f-6778b15d91ee" d="M64,13.69a12.07,12.07,0,0,0-11.58-3.51l-25.55,6A12.11,12.11,0,0,0,18,24.44L10.42,49.7a12.1,12.1,0,0,0,2.75,11.74l18,19.26a12.09,12.09,0,0,0,11.58,3.52l25.54-6A12.06,12.06,0,0,0,77.13,70l7.6-25.26A12.07,12.07,0,0,0,82,33Z"/><path class="b7e9a124-69e1-425e-9bb5-cb0954559f66" d="M66.83,7.83A14.19,14.19,0,0,0,53.23,3.7l-30,7a14.22,14.22,0,0,0-10.36,9.74L3.92,50.14A14.23,14.23,0,0,0,7.15,63.93L28.32,86.57a14.2,14.2,0,0,0,13.61,4.12l30-7A14.19,14.19,0,0,0,82.3,73.93l8.93-29.67A14.18,14.18,0,0,0,88,30.47Z"/><polyline class="e769b1b4-4952-4a5b-9e2f-6778b15d91ee" points="21.43 19.02 47.58 47.2 58.51 10.34"/><polyline class="e769b1b4-4952-4a5b-9e2f-6778b15d91ee" points="10.1 55.75 47.58 47.2 21.12 19.3"/><polyline class="e769b1b4-4952-4a5b-9e2f-6778b15d91ee" points="36.24 83.93 47.58 47.2 10.19 56.16"/><polyline class="e769b1b4-4952-4a5b-9e2f-6778b15d91ee" points="73.72 75.38 47.58 47.2 36.65 84.05"/><polyline class="e769b1b4-4952-4a5b-9e2f-6778b15d91ee" points="85.06 38.64 47.58 47.2 74.03 75.09"/><path class="f8215fbe-bb9d-4d39-b8fd-66db7cef8832" d="M66.83,7.83A14.19,14.19,0,0,0,53.23,3.7l-30,7a14.22,14.22,0,0,0-10.36,9.74L3.92,50.14A14.23,14.23,0,0,0,7.15,63.93L28.32,86.57a14.2,14.2,0,0,0,13.61,4.12l30-7A14.19,14.19,0,0,0,82.3,73.93l8.93-29.67A14.18,14.18,0,0,0,88,30.47Z"/><path class="a7aaf561-7fc6-4ecf-b921-a28b5f6db4f1" d="M56.46,3.33a14.17,14.17,0,0,1,10.37,4.5L88,30.47a14.18,14.18,0,0,1,3.23,13.79L82.3,73.93a14.19,14.19,0,0,1-10.36,9.74l-30,7a14.16,14.16,0,0,1-13.61-4.12L7.15,63.93A14.23,14.23,0,0,1,3.92,50.14l8.93-29.68a14.22,14.22,0,0,1,10.36-9.74l30-7a14.17,14.17,0,0,1,3.23-.37m0-3.33a17.89,17.89,0,0,0-4,.46l-30,7a17.58,17.58,0,0,0-12.79,12L.74,49.18a17.58,17.58,0,0,0,4,17L25.89,88.84a17.55,17.55,0,0,0,16.8,5.09l30-7a17.56,17.56,0,0,0,12.79-12l8.93-29.68a17.59,17.59,0,0,0-4-17L69.26,5.56A17.59,17.59,0,0,0,56.46,0Z"/></g></g></svg>