<svg xmlns="http://www.w3.org/2000/svg" xmlns:xlink="http://www.w3.org/1999/xlink" viewBox="0 0 75.33 77.36"><defs><style>.f9b5fe51-1af1-4270-acbd-d52055ecedf6{fill:url(#e9b8e5fe-a81c-4de6-be14-04ec19e3778a);}.ecb3efb3-1e86-476a-98d8-0d5c5b78535a{fill:none;stroke:#fff;stroke-miterlimit:10;stroke-width:1.94px;}.f22f282d-b294-41b3-9bb1-a8886d910e9e{fill:url(#a7084f2b-2b62-4978-81d5-254a8781f4be);}.b999a29f-654b-4b5c-a884-ffd702248bf2{opacity:0.49;fill:url(#b6e65870-64e2-4633-bbae-8fcdf6345701);}.e64dbea8-0935-4e3e-a2f7-50d062ebc47b{fill:#fff;}</style><radialGradient id="e9b8e5fe-a81c-4de6-be14-04ec19e3778a" cx="-793.6" cy="490.19" r="34.16" gradientTransform="translate(960.48 181.28) rotate(40.47)" gradientUnits="userSpaceOnUse"><stop offset="0" stop-color="#fffcd7"/><stop offset="0.23" stop-color="#efc19d"/><stop offset="0.5" stop-color="#dd805d"/><stop offset="0.73" stop-color="#d0502e"/><stop offset="0.9" stop-color="#c83311"/><stop offset="1" stop-color="#c52806"/></radialGradient><radialGradient id="a7084f2b-2b62-4978-81d5-254a8781f4be" cx="-805.35" cy="477.7" r="32.46" gradientTransform="translate(960.48 181.28) rotate(40.47)" gradientUnits="userSpaceOnUse"><stop offset="0" stop-color="#fff"/><stop offset="0.34" stop-color="#f6ada3" stop-opacity="0.62"/><stop offset="0.67" stop-color="#ee6654" stop-opacity="0.29"/><stop offset="0.89" stop-color="#e93a22" stop-opacity="0.08"/><stop offset="1" stop-color="#e7290f" stop-opacity="0"/></radialGradient><radialGradient id="b6e65870-64e2-4633-bbae-8fcdf6345701" cx="-794.43" cy="489.72" r="28.88" gradientTransform="translate(960.48 181.28) rotate(40.47)" gradientUnits="userSpaceOnUse"><stop offset="0" stop-color="#fff" stop-opacity="0"/><stop offset="0.39" stop-color="#fffdfd" stop-opacity="0.01"/><stop offset="0.53" stop-color="#fdf7f5" stop-opacity="0.04"/><stop offset="0.63" stop-color="#faede6" stop-opacity="0.1"/><stop offset="0.71" stop-color="#f7ded2" stop-opacity="0.18"/><stop offset="0.78" stop-color="#f2cab7" stop-opacity="0.28"/><stop offset="0.84" stop-color="#ecb297" stop-opacity="0.41"/><stop offset="0.89" stop-color="#e5966f" stop-opacity="0.57"/><stop offset="0.94" stop-color="#dc7442" stop-opacity="0.75"/><stop offset="0.99" stop-color="#d35010" stop-opacity="0.95"/><stop offset="1" stop-color="#d14603"/></radialGradient></defs><title>15</title><g id="bfd2f923-8579-4e54-b768-92de941cbc8f" data-name="圖層 2"><g id="e9cb5e56-6c35-436c-9a2a-9b69f73fab6b" data-name="圖層 1"><path class="f9b5fe51-1af1-4270-acbd-d52055ecedf6" d="M71.81,32.48a11.24,11.24,0,0,0-3.75-10.62L49.49,6A11.26,11.26,0,0,0,38.41,4L15.29,12.22A11.28,11.28,0,0,0,8,20.75L3.52,44.88A11.24,11.24,0,0,0,7.27,55.5L25.84,71.34a11.26,11.26,0,0,0,11.08,2L60,65.14a11.25,11.25,0,0,0,7.27-8.53Z"/><path class="ecb3efb3-1e86-476a-98d8-0d5c5b78535a" d="M66.73,33.4a9.57,9.57,0,0,0-3.2-9L47.73,10.88A9.58,9.58,0,0,0,38.3,9.15l-19.68,7a9.57,9.57,0,0,0-6.19,7.26L8.6,44a9.54,9.54,0,0,0,3.2,9L27.6,66.48A9.58,9.58,0,0,0,37,68.21l19.68-7a9.57,9.57,0,0,0,6.19-7.26Z"/><path class="f22f282d-b294-41b3-9bb1-a8886d910e9e" d="M71.81,32.48a11.24,11.24,0,0,0-3.75-10.62L49.49,6A11.26,11.26,0,0,0,38.41,4L15.29,12.22A11.28,11.28,0,0,0,8,20.75L3.52,44.88A11.24,11.24,0,0,0,7.27,55.5L25.84,71.34a11.26,11.26,0,0,0,11.08,2L60,65.14a11.25,11.25,0,0,0,7.27-8.53Z"/><polyline class="ecb3efb3-1e86-476a-98d8-0d5c5b78535a" points="43.36 8.77 37.66 38.68 66.3 28.34"/><polyline class="ecb3efb3-1e86-476a-98d8-0d5c5b78535a" points="14.61 18.79 37.66 38.68 43.03 8.71"/><polyline class="ecb3efb3-1e86-476a-98d8-0d5c5b78535a" points="8.92 48.7 37.66 38.68 14.4 19.05"/><polyline class="ecb3efb3-1e86-476a-98d8-0d5c5b78535a" points="31.97 68.58 37.66 38.68 9.03 49.01"/><polyline class="ecb3efb3-1e86-476a-98d8-0d5c5b78535a" points="60.72 58.56 37.66 38.68 32.3 68.65"/><path class="b999a29f-654b-4b5c-a884-ffd702248bf2" d="M71.81,32.48a11.24,11.24,0,0,0-3.75-10.62L49.49,6A11.26,11.26,0,0,0,38.41,4L15.29,12.22A11.28,11.28,0,0,0,8,20.75L3.52,44.88A11.24,11.24,0,0,0,7.27,55.5L25.84,71.34a11.26,11.26,0,0,0,11.08,2L60,65.14a11.25,11.25,0,0,0,7.27-8.53Z"/><path class="e64dbea8-0935-4e3e-a2f7-50d062ebc47b" d="M42.19,3.33A11.23,11.23,0,0,1,49.49,6L68.06,21.86a11.24,11.24,0,0,1,3.75,10.62L67.32,56.61A11.28,11.28,0,0,1,60,65.14L36.92,73.38a11.27,11.27,0,0,1-11.08-2L7.27,55.5A11.24,11.24,0,0,1,3.52,44.88L8,20.75a11.28,11.28,0,0,1,7.28-8.53L38.41,4a11.22,11.22,0,0,1,3.78-.65m0-3.33A14.3,14.3,0,0,0,37.3.85L14.18,9.09A14.6,14.6,0,0,0,4.74,20.14L.25,44.27A14.61,14.61,0,0,0,5.11,58L23.68,73.87A14.54,14.54,0,0,0,38,76.51l23.12-8.24a14.62,14.62,0,0,0,9.44-11.06l4.49-24.12a14.6,14.6,0,0,0-4.86-13.76L51.65,3.49A14.6,14.6,0,0,0,42.19,0Z"/></g></g></svg>