<svg xmlns="http://www.w3.org/2000/svg" xmlns:xlink="http://www.w3.org/1999/xlink" viewBox="0 0 77.1 77.34"><defs><style>.accdaa01-9419-44a5-b7f8-795067de9e68{fill:#6fbfe4;}.b1f5f981-f3e8-4993-8d21-6b738e1c88d0{fill:#b8e2f9;}.bd7fbcb7-7bbf-4e57-b9e4-a3dae40fdd2f{fill:#bddda9;}.b808109a-0dd4-46a6-9a7e-ba19bbfd37d2{fill:url(#a93df95e-ac47-44d8-9790-a4f86ef1acf3);}.a2848409-762c-4a9a-8e28-d3063727b146{fill:url(#e833c785-c3fa-46b0-a171-4db5828c0fad);}.e6e10e39-da0d-41da-9564-157c20cf0a50{fill:#fff;}.a7e55545-cca8-433f-b79b-89c225087d3b{fill:none;stroke:#fff;stroke-linecap:round;stroke-miterlimit:10;stroke-width:1.89px;}</style><radialGradient id="a93df95e-ac47-44d8-9790-a4f86ef1acf3" cx="918.5" cy="88.97" r="31.11" gradientTransform="translate(-685.81 612.44) rotate(-44.54)" gradientUnits="userSpaceOnUse"><stop offset="0" stop-color="#fff" stop-opacity="0"/><stop offset="0.27" stop-color="#cbe0e7" stop-opacity="0.19"/><stop offset="0.84" stop-color="#4891aa" stop-opacity="0.66"/><stop offset="1" stop-color="#237a99" stop-opacity="0.8"/></radialGradient><radialGradient id="e833c785-c3fa-46b0-a171-4db5828c0fad" cx="912.63" cy="77.87" r="34.41" gradientTransform="translate(-685.81 612.44) rotate(-44.54)" gradientUnits="userSpaceOnUse"><stop offset="0" stop-color="#fff"/><stop offset="0.01" stop-color="#fdfeff" stop-opacity="0.98"/><stop offset="0.09" stop-color="#e6f5fd" stop-opacity="0.78"/><stop offset="0.17" stop-color="#d1edfb" stop-opacity="0.59"/><stop offset="0.26" stop-color="#c0e6f9" stop-opacity="0.43"/><stop offset="0.35" stop-color="#b0e0f8" stop-opacity="0.3"/><stop offset="0.45" stop-color="#a4dbf7" stop-opacity="0.19"/><stop offset="0.55" stop-color="#9bd8f6" stop-opacity="0.11"/><stop offset="0.67" stop-color="#94d5f5" stop-opacity="0.05"/><stop offset="0.8" stop-color="#90d3f5" stop-opacity="0.01"/><stop offset="1" stop-color="#8fd3f5" stop-opacity="0"/></radialGradient></defs><title>16</title><g id="a4f59d5a-dadf-49c0-8e42-cf700f5aaf52" data-name="圖層 2"><g id="f15cd336-4674-4e14-9b1c-4ab73cc1765b" data-name="圖層 1"><path class="accdaa01-9419-44a5-b7f8-795067de9e68" d="M12.37,3.46a7.15,7.15,0,0,0-8.81,8.67L18.07,68.52A7.14,7.14,0,0,0,30,71.83l41.64-41a7.13,7.13,0,0,0-3.11-12Z"/><path class="b1f5f981-f3e8-4993-8d21-6b738e1c88d0" d="M12.36,3.47a7.13,7.13,0,0,0-8.8,8.66l2.26,8.79L19.05,70.7A7.13,7.13,0,0,0,30,71.83l2.1-2.06L14.63,4.09Z"/><path class="bd7fbcb7-7bbf-4e57-b9e4-a3dae40fdd2f" d="M18.07,68.52a7,7,0,0,0,1,2.18L5.82,20.92Z"/><polygon class="b1f5f981-f3e8-4993-8d21-6b738e1c88d0" points="28.97 8.03 42.62 59.4 53.16 49.04 43.3 11.96 28.97 8.03"/><path class="b1f5f981-f3e8-4993-8d21-6b738e1c88d0" d="M68.51,18.88l-10.87-3,6,22.77,7.94-7.81a7,7,0,0,0,2.1-4.43l-1.27-4.77A7,7,0,0,0,68.51,18.88Z"/><path class="bd7fbcb7-7bbf-4e57-b9e4-a3dae40fdd2f" d="M72.46,21.66l1.27,4.77A7.21,7.21,0,0,0,72.46,21.66Z"/><path class="b808109a-0dd4-46a6-9a7e-ba19bbfd37d2" d="M12.37,3.59a7.14,7.14,0,0,0-8.81,8.67L18.07,68.65A7.14,7.14,0,0,0,30,72L71.63,31a7.14,7.14,0,0,0-3.11-12Z"/><path class="a2848409-762c-4a9a-8e28-d3063727b146" d="M12.37,3.59a7.14,7.14,0,0,0-8.81,8.67L18.07,68.65A7.14,7.14,0,0,0,30,72L71.63,31a7.14,7.14,0,0,0-3.11-12Z"/><path class="e6e10e39-da0d-41da-9564-157c20cf0a50" d="M10.44,3.33a7.23,7.23,0,0,1,1.93.26L68.52,19a7.14,7.14,0,0,1,3.11,12L30,72A7,7,0,0,1,25,74a7.13,7.13,0,0,1-6.94-5.36L3.56,12.26a7.15,7.15,0,0,1,6.88-8.93m0-3.33A10.5,10.5,0,0,0,2.19,4.08a10.35,10.35,0,0,0-1.85,9L14.85,69.48a10.47,10.47,0,0,0,17.48,4.85L74,33.35A10.46,10.46,0,0,0,69.4,15.8L13.25.38A10.75,10.75,0,0,0,10.44,0Z"/><path class="a7e55545-cca8-433f-b79b-89c225087d3b" d="M14.28,30.84l7.54,30.45a4.83,4.83,0,0,0,8.07,2.28l14.94-14.7"/></g></g></svg>