<svg xmlns="http://www.w3.org/2000/svg" xmlns:xlink="http://www.w3.org/1999/xlink" viewBox="0 0 99.39 99.38"><defs><style>.b6b37711-f31e-480b-b6e7-c926205b4dc6{fill:#88bc56;}.a4a95eea-c709-4d07-8af0-137e1ad4582e{fill:#bbdbf3;}.bc80ea85-c1a3-4461-be7a-3a0095447a7a{fill:#f5a500;}.a431291b-ae07-4d0e-9534-9523943ba299{fill:#a181b9;}.a99000bd-de19-4e21-8636-04b094e06ecb{fill:#ffe800;}.f1c84705-4340-4b0f-888b-8a175681f77e{fill:#d94206;}.a9856ed9-5bf7-4f7c-9a17-85ebe4a9be4f{fill:#fef6f9;}.bccbb3d1-ad13-4993-b818-6024a6f3b918{opacity:0.38;fill:url(#e4cbdfff-f505-408a-8851-6eb2b30597cb);}.b9ac5a7c-c915-45a6-8e96-7c950586298d{opacity:0.68;fill:url(#ac739f1c-f5bc-40fd-804f-ade5a8872f15);}.a58b1fce-6076-45f2-8b83-b64a25cb884b{fill:#fff;}.b520857b-d1b1-4d2b-83f7-d48f4d95df15{fill:none;stroke:#fff;stroke-linecap:round;stroke-miterlimit:10;stroke-width:2.85px;}</style><radialGradient id="e4cbdfff-f505-408a-8851-6eb2b30597cb" cx="-915.1" cy="514.06" r="37.16" gradientTransform="translate(1060.3 333.27) rotate(45)" gradientUnits="userSpaceOnUse"><stop offset="0" stop-color="#fff" stop-opacity="0"/><stop offset="0.57" stop-color="#f6f6f4" stop-opacity="0.02"/><stop offset="0.77" stop-color="#d7d6cd" stop-opacity="0.08"/><stop offset="0.91" stop-color="#a19e89" stop-opacity="0.19"/><stop offset="1" stop-color="#6b6746" stop-opacity="0.3"/></radialGradient><radialGradient id="ac739f1c-f5bc-40fd-804f-ade5a8872f15" cx="-923.63" cy="496.67" r="37.16" gradientTransform="translate(1060.3 333.27) rotate(45)" gradientUnits="userSpaceOnUse"><stop offset="0" stop-color="#fff"/><stop offset="0.34" stop-color="#fff69e" stop-opacity="0.62"/><stop offset="0.67" stop-color="#ffef49" stop-opacity="0.29"/><stop offset="0.89" stop-color="#ffea14" stop-opacity="0.08"/><stop offset="1" stop-color="#ffe800" stop-opacity="0"/></radialGradient></defs><title>17</title><g id="a437644b-ba02-435f-949d-3531a5a546ad" data-name="圖層 2"><g id="bf6297bf-5cf4-4c2b-bc30-7d1140756fad" data-name="圖層 1"><path class="b6b37711-f31e-480b-b6e7-c926205b4dc6" d="M71.31,60.1c-12.06-1.2-29.69-6.34-50.8-22.53L9.33,48.75C29.87,64.46,47,69.48,58.68,70.68A60.31,60.31,0,0,0,70,70.79L80.38,60.37A66.36,66.36,0,0,1,71.31,60.1Z"/><path class="a4a95eea-c709-4d07-8af0-137e1ad4582e" d="M58.64,72.77c-12.06-1.2-29.7-6.34-50.8-22.53L7,51.05a12.53,12.53,0,0,0-.21,17.49C22.85,78.72,36.29,82.36,46,83.35a60.5,60.5,0,0,0,11.28.12L67.7,73A63.17,63.17,0,0,1,58.64,72.77Z"/><path class="bc80ea85-c1a3-4461-be7a-3a0095447a7a" d="M94.53,45.51a12.56,12.56,0,0,0,.55-10.94c-12-1.48-29-6.86-49.22-22.35L34.68,23.4C55.22,39.11,72.32,44.13,84,45.33A60.54,60.54,0,0,0,94.53,45.51Z"/><path class="a431291b-ae07-4d0e-9534-9523943ba299" d="M46,85.44c-8.55-.84-19.89-3.68-33.27-11l18,17.95a12.51,12.51,0,0,0,17.71,0L55,85.72A64.76,64.76,0,0,1,46,85.44Z"/><path class="a99000bd-de19-4e21-8636-04b094e06ecb" d="M84,47.42c-12.06-1.2-29.7-6.34-50.8-22.53L22,36.08C42.54,51.78,59.65,56.81,71.35,58a60.39,60.39,0,0,0,11.27.12l9.8-9.79c.2-.21.38-.42.57-.63A63.88,63.88,0,0,1,84,47.42Z"/><path class="f1c84705-4340-4b0f-888b-8a175681f77e" d="M92.42,30.61,68.8,7A12.52,12.52,0,0,0,51.08,7l-3.73,3.73C66.26,25.18,82.26,30.59,93.81,32.29A12.91,12.91,0,0,0,92.42,30.61Z"/><path class="a9856ed9-5bf7-4f7c-9a17-85ebe4a9be4f" d="M93.81,32.29c-11.55-1.7-27.55-7.11-46.46-21.56l-1.49,1.49c20.2,15.49,37.22,20.87,49.22,22.35A12.81,12.81,0,0,0,93.81,32.29Z"/><path class="a9856ed9-5bf7-4f7c-9a17-85ebe4a9be4f" d="M84,45.33c-11.71-1.2-28.81-6.22-49.35-21.93l-1.49,1.49C54.29,41.08,71.93,46.22,84,47.42a63.88,63.88,0,0,0,9,.28,12.94,12.94,0,0,0,1.54-2.19A60.54,60.54,0,0,1,84,45.33Z"/><path class="a9856ed9-5bf7-4f7c-9a17-85ebe4a9be4f" d="M71.35,58C59.65,56.81,42.54,51.78,22,36.08l-1.49,1.49C41.62,53.76,59.25,58.9,71.31,60.1a66.36,66.36,0,0,0,9.07.27l2.24-2.25A60.39,60.39,0,0,1,71.35,58Z"/><path class="a9856ed9-5bf7-4f7c-9a17-85ebe4a9be4f" d="M58.68,70.68C47,69.48,29.87,64.46,9.33,48.75L7.84,50.24c21.1,16.19,38.74,21.33,50.8,22.53A63.17,63.17,0,0,0,67.7,73L70,70.79A60.31,60.31,0,0,1,58.68,70.68Z"/><path class="a9856ed9-5bf7-4f7c-9a17-85ebe4a9be4f" d="M46,83.35c-9.71-1-23.15-4.63-39.18-14.81l.21.23,5.67,5.66C26.08,81.76,37.42,84.6,46,85.44a64.76,64.76,0,0,0,9.06.28l2.25-2.25A60.5,60.5,0,0,1,46,83.35Z"/><path class="bccbb3d1-ad13-4993-b818-6024a6f3b918" d="M93,47.7a12.94,12.94,0,0,0,1.54-2.19,12.56,12.56,0,0,0,.55-10.94,13.11,13.11,0,0,0-2.66-4L68.8,7A12.52,12.52,0,0,0,51.08,7l-3.73,3.73-1.49,1.49L34.68,23.4l-1.49,1.49L22,36.08l-1.49,1.49L9.33,48.75,7.84,50.24,7,51.05a12.53,12.53,0,0,0-.21,17.49l.21.23,5.67,5.66,18,17.95a12.51,12.51,0,0,0,17.71,0L55,85.72l2.25-2.25L67.7,73,70,70.79,80.38,60.37l2.24-2.25,9.8-9.79C92.62,48.12,92.8,47.91,93,47.7Z"/><path class="b9ac5a7c-c915-45a6-8e96-7c950586298d" d="M93,47.7a12.94,12.94,0,0,0,1.54-2.19,12.56,12.56,0,0,0,.55-10.94,13.11,13.11,0,0,0-2.66-4L68.8,7A12.52,12.52,0,0,0,51.08,7l-3.73,3.73-1.49,1.49L34.68,23.4l-1.49,1.49L22,36.08l-1.49,1.49L9.33,48.75,7.84,50.24,7,51.05a12.53,12.53,0,0,0-.21,17.49l.21.23,5.67,5.66,18,17.95a12.51,12.51,0,0,0,17.71,0L55,85.72l2.25-2.25L67.7,73,70,70.79,80.38,60.37l2.24-2.25,9.8-9.79C92.62,48.12,92.8,47.91,93,47.7Z"/><path class="a58b1fce-6076-45f2-8b83-b64a25cb884b" d="M59.94,3.33A12.48,12.48,0,0,1,68.8,7L92.42,30.61a13.11,13.11,0,0,1,2.66,4,12.56,12.56,0,0,1-.55,10.94A12.94,12.94,0,0,1,93,47.7c-.19.21-.37.42-.57.63l-9.8,9.79-2.24,2.25L70,70.79,67.7,73,57.28,83.47,55,85.72l-6.67,6.66a12.52,12.52,0,0,1-17.71,0L12.7,74.43,7,68.77l-.21-.23A12.53,12.53,0,0,1,7,51.05l.81-.81,1.49-1.49L20.51,37.57,22,36.08,33.19,24.89l1.49-1.49L45.86,12.22l1.49-1.49L51.08,7a12.49,12.49,0,0,1,8.86-3.67m0-3.33A15.78,15.78,0,0,0,48.73,4.64L45,8.38,43.51,9.86,32.32,21.05l-1.48,1.49L19.65,33.72l-1.49,1.49L7,46.4,5.49,47.89l-.82.81a15.76,15.76,0,0,0-.26,22.13l.27.29,5.66,5.67,18,17.95a15.86,15.86,0,0,0,22.42,0l6.67-6.67,2.25-2.25L70.05,75.39l2.25-2.24L82.73,62.72,85,60.47l9.79-9.79c.22-.22.42-.45.63-.68l.09-.11a15.33,15.33,0,0,0,2-2.78,15.94,15.94,0,0,0,.7-13.84,15.25,15.25,0,0,0-1.61-2.89,16.37,16.37,0,0,0-1.76-2.12L71.15,4.64A15.75,15.75,0,0,0,59.94,0Z"/><path class="b520857b-d1b1-4d2b-83f7-d48f4d95df15" d="M72.51,61.69l-26.6,26.6a8.26,8.26,0,0,1-11.69,0L19.8,73.87"/></g></g></svg>