<svg xmlns="http://www.w3.org/2000/svg" xmlns:xlink="http://www.w3.org/1999/xlink" viewBox="0 0 81.38 81.97"><defs><style>.b057ed4a-25ae-4335-a1e7-eae8afc75712{fill:url(#baf4507d-3c46-479e-b526-f422825d8cfa);}.a217e3ef-c077-4ef7-ae74-6c06a212deb1{fill:none;stroke:#fff;stroke-miterlimit:10;stroke-width:2.09px;}.f07b4890-1721-4986-9fa1-966b0f15bf15{fill:url(#bb0a4504-1cca-4dd5-bdc6-0a9e739ac439);}.bc23a228-b15b-42bd-be8a-5cc925f923a1{opacity:0.49;fill:url(#aba92322-dca4-412e-abcd-522ce57dda1a);}.a19452eb-8006-4451-ba53-fdfb608c672d{fill:#fff;}</style><radialGradient id="baf4507d-3c46-479e-b526-f422825d8cfa" cx="-252.03" cy="9.54" r="36.72" gradientTransform="translate(286.93 100.32) rotate(15.78)" gradientUnits="userSpaceOnUse"><stop offset="0" stop-color="#dbd5ea"/><stop offset="0.1" stop-color="#cec9e3"/><stop offset="0.51" stop-color="#9f9bca"/><stop offset="0.82" stop-color="#827fbb"/><stop offset="1" stop-color="#7774b5"/></radialGradient><radialGradient id="bb0a4504-1cca-4dd5-bdc6-0a9e739ac439" cx="-264.66" cy="-3.88" r="34.89" gradientTransform="translate(286.93 100.32) rotate(15.78)" gradientUnits="userSpaceOnUse"><stop offset="0" stop-color="#fff"/><stop offset="0.34" stop-color="#ececf6" stop-opacity="0.62"/><stop offset="0.67" stop-color="#dbdbee" stop-opacity="0.29"/><stop offset="0.89" stop-color="#d1d1e9" stop-opacity="0.08"/><stop offset="1" stop-color="#cdcde7" stop-opacity="0"/></radialGradient><radialGradient id="aba92322-dca4-412e-abcd-522ce57dda1a" cx="-252.92" cy="9.03" r="31.04" gradientTransform="translate(286.93 100.32) rotate(15.78)" gradientUnits="userSpaceOnUse"><stop offset="0" stop-color="#fff" stop-opacity="0"/><stop offset="0.42" stop-color="#fdfdfd" stop-opacity="0.01"/><stop offset="0.58" stop-color="#f5f4f7" stop-opacity="0.07"/><stop offset="0.69" stop-color="#e7e4ec" stop-opacity="0.15"/><stop offset="0.77" stop-color="#d4cedd" stop-opacity="0.28"/><stop offset="0.85" stop-color="#bbb1c9" stop-opacity="0.45"/><stop offset="0.92" stop-color="#9b8eb0" stop-opacity="0.65"/><stop offset="0.98" stop-color="#776593" stop-opacity="0.89"/><stop offset="1" stop-color="#665185"/></radialGradient></defs><title>18</title><g id="ba9b6a34-b537-4a76-827a-744c29502320" data-name="圖層 2"><g id="addb2028-f874-456a-9c03-b5dc5fe55793" data-name="圖層 1"><path class="b057ed4a-25ae-4335-a1e7-eae8afc75712" d="M71.25,19.59a12.1,12.1,0,0,0-8.43-8.68L37.57,3.78a12.09,12.09,0,0,0-11.73,3L7,25.19a12.1,12.1,0,0,0-3.28,11.6l6.44,25.58a12.07,12.07,0,0,0,8.44,8.68l25.24,7.13a12.08,12.08,0,0,0,11.73-3L74.42,56.77a12.08,12.08,0,0,0,3.27-11.6Z"/><path class="a217e3ef-c077-4ef7-ae74-6c06a212deb1" d="M66.7,22.78a10.3,10.3,0,0,0-7.18-7.39L38,9.32a10.29,10.29,0,0,0-10,2.54L12,27.54A10.29,10.29,0,0,0,9.2,37.42l5.48,21.77a10.31,10.31,0,0,0,7.18,7.39l21.49,6.07a10.29,10.29,0,0,0,10-2.54L69.39,54.42a10.25,10.25,0,0,0,2.79-9.87Z"/><path class="f07b4890-1721-4986-9fa1-966b0f15bf15" d="M71.25,19.59a12.1,12.1,0,0,0-8.43-8.68L37.57,3.78a12.09,12.09,0,0,0-11.73,3L7,25.19a12.1,12.1,0,0,0-3.28,11.6l6.44,25.58a12.07,12.07,0,0,0,8.44,8.68l25.24,7.13a12.08,12.08,0,0,0,11.73-3L74.42,56.77a12.08,12.08,0,0,0,3.27-11.6Z"/><polyline class="a217e3ef-c077-4ef7-ae74-6c06a212deb1" points="32.83 9.22 40.69 40.98 64.01 18.04"/><polyline class="a217e3ef-c077-4ef7-ae74-6c06a212deb1" points="9.25 31.92 40.69 40.98 32.48 9.31"/><polyline class="a217e3ef-c077-4ef7-ae74-6c06a212deb1" points="17.12 63.67 40.69 40.98 9.16 32.26"/><polyline class="a217e3ef-c077-4ef7-ae74-6c06a212deb1" points="48.56 72.74 40.69 40.98 17.37 63.93"/><polyline class="a217e3ef-c077-4ef7-ae74-6c06a212deb1" points="72.13 50.05 40.69 40.98 48.9 72.65"/><path class="bc23a228-b15b-42bd-be8a-5cc925f923a1" d="M71.25,19.59a12.1,12.1,0,0,0-8.43-8.68L37.57,3.78a12.09,12.09,0,0,0-11.73,3L7,25.19a12.1,12.1,0,0,0-3.28,11.6l6.44,25.58a12.07,12.07,0,0,0,8.44,8.68l25.24,7.13a12.08,12.08,0,0,0,11.73-3L74.42,56.77a12.08,12.08,0,0,0,3.27-11.6Z"/><path class="a19452eb-8006-4451-ba53-fdfb608c672d" d="M34.29,3.33a12.29,12.29,0,0,1,3.28.45l25.25,7.13a12.1,12.1,0,0,1,8.43,8.68l6.44,25.58a12.06,12.06,0,0,1-3.28,11.6L55.54,75.2a12.05,12.05,0,0,1-11.73,3L18.57,71.05a12.07,12.07,0,0,1-8.44-8.68L3.69,36.79A12.1,12.1,0,0,1,7,25.19L25.84,6.77a12.07,12.07,0,0,1,8.45-3.44m0-3.33A15.32,15.32,0,0,0,23.52,4.39L4.64,22.81A15.49,15.49,0,0,0,.46,37.61L6.91,63.19A15.43,15.43,0,0,0,17.66,74.25l25.25,7.14A15.58,15.58,0,0,0,47.1,82a15.31,15.31,0,0,0,10.76-4.39L76.74,59.15a15.47,15.47,0,0,0,4.18-14.79L74.48,18.78A15.49,15.49,0,0,0,63.72,7.71L38.48.58A15.69,15.69,0,0,0,34.29,0Z"/></g></g></svg>