<svg xmlns="http://www.w3.org/2000/svg" xmlns:xlink="http://www.w3.org/1999/xlink" viewBox="0 0 52.96 53.13"><defs><style>.bd8fcec9-59e1-4d4a-98b2-6e5dd6c2834b{stroke:#9a4923;stroke-width:0.98px;fill:url(#b7d30a4f-cd06-4f8c-9f40-816b58ac157c);}.a3f5cc78-c6e1-4a43-b076-1301d05c597e,.bd8fcec9-59e1-4d4a-98b2-6e5dd6c2834b{stroke-miterlimit:10;}.ea6173e8-1f74-43cd-b08a-0046d1171211{fill:#fff;}.a3f5cc78-c6e1-4a43-b076-1301d05c597e{fill:none;stroke:#fff;stroke-linecap:round;stroke-width:2.55px;}</style><radialGradient id="b7d30a4f-cd06-4f8c-9f40-816b58ac157c" cx="465.11" cy="56.47" r="16.23" gradientTransform="translate(-443.7 -36.71)" gradientUnits="userSpaceOnUse"><stop offset="0" stop-color="#fff"/><stop offset="0.06" stop-color="#fef7ed"/><stop offset="0.33" stop-color="#fad39a"/><stop offset="0.56" stop-color="#f6b658"/><stop offset="0.76" stop-color="#f4a128"/><stop offset="0.91" stop-color="#f3940b"/><stop offset="1" stop-color="#f28f00"/></radialGradient></defs><title>19</title><g id="fd6466dd-ed2a-4370-921a-cba388dfdea5" data-name="圖層 2"><g id="b7a52b60-c5c2-4226-8bae-876ad0b29dc8" data-name="圖層 1"><rect class="bd8fcec9-59e1-4d4a-98b2-6e5dd6c2834b" x="6.58" y="6.52" width="39.81" height="40.09" rx="8.04" transform="matrix(0.95, -0.32, 0.32, 0.95, -7.18, 10.02)"/><path class="ea6173e8-1f74-43cd-b08a-0046d1171211" d="M33.79,3.33a8.08,8.08,0,0,1,7.63,5.43L49.2,31.47a8.07,8.07,0,0,1-5,10.21L21.76,49.37a7.82,7.82,0,0,1-2.59.43,8.08,8.08,0,0,1-7.63-5.43L3.76,21.67a8.07,8.07,0,0,1,5-10.22L31.2,3.76a8.08,8.08,0,0,1,2.59-.43m0-3.33a11.48,11.48,0,0,0-3.67.61L7.69,8.3A11.38,11.38,0,0,0,.61,22.74L8.39,45.45a11.4,11.4,0,0,0,10.78,7.68,11.21,11.21,0,0,0,3.67-.61l22.43-7.69a11.38,11.38,0,0,0,7.08-14.44L44.57,7.68A11.4,11.4,0,0,0,33.79,0Z"/><path class="a3f5cc78-c6e1-4a43-b076-1301d05c597e" d="M39.39,20.39l2.71,8.4a7.09,7.09,0,0,1-4.2,8.8l-9.51,3.64"/></g></g></svg>