<svg xmlns="http://www.w3.org/2000/svg" xmlns:xlink="http://www.w3.org/1999/xlink" viewBox="0 0 74.31 74.31"><defs><style>.a5b9fb6c-b16e-4d02-b1ea-412dbfbb461c{fill:#e83437;}.a60d4424-49bb-471a-9aa8-c1789067383f{fill:#f198ab;}.be102b31-f6dc-4330-ac6b-f5bb606faae2{fill:url(#af2590db-7e32-4dfd-a906-a263497b86d8);}.aa81c4eb-6d37-455f-a2a1-ec1cdb30a884{fill:url(#e79099b8-ab48-4fa5-b686-c7364564f1d0);}.a9278331-51fd-4a4f-a615-de870cb16acb{fill:#fff;}.f5ef1d00-aa3d-478a-b655-4bbcaefdbf33{fill:none;stroke:#fff;stroke-linecap:round;stroke-miterlimit:10;stroke-width:1.92px;}</style><radialGradient id="af2590db-7e32-4dfd-a906-a263497b86d8" cx="37.42" cy="36.91" r="33.19" gradientUnits="userSpaceOnUse"><stop offset="0" stop-color="#fff" stop-opacity="0"/><stop offset="0.24" stop-color="#fefbfb" stop-opacity="0.01"/><stop offset="0.4" stop-color="#faefef" stop-opacity="0.06"/><stop offset="0.54" stop-color="#f4dada" stop-opacity="0.14"/><stop offset="0.66" stop-color="#ebbcbd" stop-opacity="0.25"/><stop offset="0.78" stop-color="#e09697" stop-opacity="0.39"/><stop offset="0.89" stop-color="#d26668" stop-opacity="0.57"/><stop offset="0.99" stop-color="#c22f31" stop-opacity="0.77"/><stop offset="1" stop-color="#c0282a" stop-opacity="0.8"/></radialGradient><radialGradient id="e79099b8-ab48-4fa5-b686-c7364564f1d0" cx="24.87" cy="23.03" r="24.58" gradientUnits="userSpaceOnUse"><stop offset="0" stop-color="#fff" stop-opacity="0.8"/><stop offset="0.14" stop-color="#fff" stop-opacity="0.6"/><stop offset="0.29" stop-color="#fff" stop-opacity="0.42"/><stop offset="0.44" stop-color="#fff" stop-opacity="0.27"/><stop offset="0.58" stop-color="#fff" stop-opacity="0.15"/><stop offset="0.73" stop-color="#fff" stop-opacity="0.07"/><stop offset="0.87" stop-color="#fff" stop-opacity="0.02"/><stop offset="1" stop-color="#fff" stop-opacity="0"/></radialGradient></defs><title>2</title><g id="af976746-52b3-481e-a41f-8ddc8c3b0d16" data-name="圖層 2"><g id="ab3a63a1-48fd-46b6-901b-42fe5463dad0" data-name="圖層 1"><path class="a5b9fb6c-b16e-4d02-b1ea-412dbfbb461c" d="M37.16,37.15c15.89,0,24.27-9.23,28.65-18a33.85,33.85,0,0,0-21.1-15C47.8,13.46,48.39,25.92,37.16,37.15Z"/><path class="a60d4424-49bb-471a-9aa8-c1789067383f" d="M37.16,37.15c11.23-11.23,10.64-23.69,7.55-33A33.75,33.75,0,0,0,19.19,8.5C27.93,12.88,37.16,21.26,37.16,37.15Z"/><path class="a5b9fb6c-b16e-4d02-b1ea-412dbfbb461c" d="M4.19,29.6c9.27-3.09,21.73-3.68,33,7.55,0-15.89-9.23-24.27-18-28.65A33.82,33.82,0,0,0,4.19,29.6Z"/><path class="a60d4424-49bb-471a-9aa8-c1789067383f" d="M37.16,37.15c11.23,11.24,23.69,10.64,33,7.56A34.22,34.22,0,0,0,71,37.15a33.62,33.62,0,0,0-5.18-18C61.43,27.92,53.05,37.15,37.16,37.15Z"/><path class="a5b9fb6c-b16e-4d02-b1ea-412dbfbb461c" d="M37.16,37.15c-15.9,0-24.28,9.23-28.66,18a33.87,33.87,0,0,0,21.1,15C26.52,60.84,25.92,48.39,37.16,37.15Z"/><path class="a5b9fb6c-b16e-4d02-b1ea-412dbfbb461c" d="M37.16,37.15c0,15.89,9.23,24.28,18,28.66a33.92,33.92,0,0,0,15-21.1C60.85,47.79,48.39,48.39,37.16,37.15Z"/><path class="a60d4424-49bb-471a-9aa8-c1789067383f" d="M37.16,37.15c-11.24-11.23-23.7-10.64-33-7.55A33.77,33.77,0,0,0,8.5,55.13C12.88,46.38,21.26,37.15,37.16,37.15Z"/><path class="a60d4424-49bb-471a-9aa8-c1789067383f" d="M37.16,37.15c-11.24,11.24-10.64,23.69-7.56,33a33.77,33.77,0,0,0,25.53-4.31C46.39,61.43,37.16,53,37.16,37.15Z"/><circle class="be102b31-f6dc-4330-ac6b-f5bb606faae2" cx="37.16" cy="37.15" r="33.83"/><circle class="aa81c4eb-6d37-455f-a2a1-ec1cdb30a884" cx="37.16" cy="37.15" r="33.83"/><path class="a9278331-51fd-4a4f-a615-de870cb16acb" d="M37.16,3.33A33.83,33.83,0,1,1,3.33,37.15,33.83,33.83,0,0,1,37.16,3.33m0-3.33A37.16,37.16,0,1,0,74.31,37.15,37.2,37.2,0,0,0,37.16,0Z"/><path class="f5ef1d00-aa3d-478a-b655-4bbcaefdbf33" d="M61,23.94s9.61,30.3-20.51,41.32"/></g></g></svg>