<svg xmlns="http://www.w3.org/2000/svg" xmlns:xlink="http://www.w3.org/1999/xlink" viewBox="0 0 59.41 55.08"><defs><style>.acd9f46e-3665-435e-94a3-b722a9013c95{fill:url(#e2e56603-e10b-42de-a1bb-087cbd62ad08);}.b0287d67-ad5b-4c49-a727-f330ae878787{fill:url(#e8fa5aaa-ffb5-4b5e-82eb-07e26cca312b);}.aee41cc7-b657-45db-9da8-705a7f70b21d{fill:url(#a0437912-73f1-49a2-945e-0e21f534affb);}.bbc95c89-6a6c-47ac-b8d2-f763eefa4e43{fill:url(#bc7358ba-6dbf-4d02-8356-be8df2a20c49);}.f39dabc4-bae3-4fef-bcce-0034ce354854{fill:none;stroke:#2c2321;stroke-linecap:round;stroke-miterlimit:10;stroke-width:1.66px;}.b731e002-f318-46dd-be3e-74fc132b0abc{fill:#fff;}.bfa6999f-b8a3-4b0f-acfe-b5481c322690{fill:#b91904;}.ea9f220e-4fd7-4d18-a1ce-cfe48bc06696{fill:#ef7a00;}</style><radialGradient id="e2e56603-e10b-42de-a1bb-087cbd62ad08" cx="-391.89" cy="117.49" r="21.07" gradientTransform="translate(433.45 38.44) rotate(17.78)" gradientUnits="userSpaceOnUse"><stop offset="0" stop-color="#949495"/><stop offset="1" stop-color="#352f2d"/></radialGradient><linearGradient id="e8fa5aaa-ffb5-4b5e-82eb-07e26cca312b" x1="-396.98" y1="95.48" x2="-386.79" y2="95.48" gradientTransform="translate(423.01 -85.77)" gradientUnits="userSpaceOnUse"><stop offset="0" stop-color="#352f2d"/><stop offset="0.35" stop-color="#636262"/><stop offset="0.56" stop-color="#afafb0"/><stop offset="1" stop-color="#352f2d"/></linearGradient><radialGradient id="a0437912-73f1-49a2-945e-0e21f534affb" cx="-391.89" cy="92.26" r="5.1" gradientTransform="matrix(0, 1, -0.3, 0, 59.78, 398.53)" gradientUnits="userSpaceOnUse"><stop offset="0" stop-color="#afafb0"/><stop offset="1" stop-color="#352f2d"/></radialGradient><radialGradient id="bc7358ba-6dbf-4d02-8356-be8df2a20c49" cx="-390.47" cy="116.01" r="9.52" gradientTransform="translate(433.45 38.44) rotate(17.78)" gradientUnits="userSpaceOnUse"><stop offset="0" stop-color="#feda5a"/><stop offset="0.5" stop-color="#e66d3c"/><stop offset="1" stop-color="#ca2120"/></radialGradient></defs><title>20</title><g id="f9b081fb-160d-4085-a9f9-871593d94bc7" data-name="圖層 2"><g id="abef7904-bff9-4760-9519-ee5ebc20df61" data-name="圖層 1"><circle class="acd9f46e-3665-435e-94a3-b722a9013c95" cx="24.4" cy="30.67" r="21.07"/><path class="b0287d67-ad5b-4c49-a727-f330ae878787" d="M26,6.49H36.22a0,0,0,0,1,0,0v5.64a.8.8,0,0,1-.8.8H26.83a.8.8,0,0,1-.8-.8V6.49a0,0,0,0,1,0,0Z" transform="translate(4.45 -9.04) rotate(17.78)"/><ellipse class="aee41cc7-b657-45db-9da8-705a7f70b21d" cx="32.11" cy="6.64" rx="1.61" ry="5.1" transform="matrix(0.31, -0.95, 0.95, 0.31, 15.98, 35.19)"/><polygon class="bbc95c89-6a6c-47ac-b8d2-f763eefa4e43" points="19.76 24.67 19.8 15.36 26.43 22.34 32.02 20.05 31.47 25.99 39.27 27.09 33.06 31.94 34.8 41.04 28.93 36.34 20.24 43.16 19.83 32.65 11.84 32.42 17.59 28.73 12.06 22.97 19.76 24.67"/><path class="f39dabc4-bae3-4fef-bcce-0034ce354854" d="M32.21,6.32S35,1.63,41.42,6.08c6.79,4.72,9.08,2.56,9.08,2.56"/><path class="b731e002-f318-46dd-be3e-74fc132b0abc" d="M36.35,3.33A9.91,9.91,0,0,1,41.9,5.39c3.43,2.39,5.58,2.91,6.78,2.91A2.2,2.2,0,0,0,50,8a.85.85,0,0,1,.53-.18.82.82,0,0,1,.63.28.8.8,0,0,1,0,1.13,3.42,3.42,0,0,1-2.36.72c-1.6,0-4.1-.65-7.76-3.2A8.3,8.3,0,0,0,36.35,5a4.05,4.05,0,0,0-.92.1,4.1,4.1,0,0,0-1.37.58c1.88.82,3.12,1.85,2.9,2.53l-1.47,4.57a21.08,21.08,0,1,1-11.1-3.15c.47,0,.93,0,1.4,0l1.47-4.57c.13-.42.78-.63,1.72-.63A12,12,0,0,1,32.24,5a5.72,5.72,0,0,1,2.84-1.54,6,6,0,0,1,1.27-.13m0-3.33h0a9.28,9.28,0,0,0-2,.21,9,9,0,0,0-2.91,1.18A13.26,13.26,0,0,0,29,1.13c-3.57,0-4.61,2.06-4.89,2.94l-.72,2.24a24.4,24.4,0,1,0,16,5.14L39.86,10c3.3,2.16,6.27,3.25,8.85,3.25a6.59,6.59,0,0,0,4.65-1.64A4.15,4.15,0,0,0,50.49,4.5,4.2,4.2,0,0,0,48.58,5c-.52,0-2-.35-4.78-2.3A13.15,13.15,0,0,0,36.35,0Z"/><path class="bfa6999f-b8a3-4b0f-acfe-b5481c322690" d="M50.81,6.33a.63.63,0,0,1-.19,0,.61.61,0,0,1-.42-.5l-.49-3a.64.64,0,0,1,.52-.72h0a.64.64,0,0,1,.69.52l.49,3a.62.62,0,0,1-.52.71Z"/><path class="b731e002-f318-46dd-be3e-74fc132b0abc" d="M50.32,2.31a.43.43,0,0,1,.42.35l.48,3a.42.42,0,0,1-.34.48h-.07l-.13,0a.43.43,0,0,1-.28-.33l-.48-3a.41.41,0,0,1,.34-.48h.06m0-.41H50.2a.8.8,0,0,0-.55.33.8.8,0,0,0-.14.62l.48,3a.84.84,0,0,0,.57.66,1,1,0,0,0,.25,0H51a.87.87,0,0,0,.54-.34.8.8,0,0,0,.14-.62l-.48-3a.83.83,0,0,0-.83-.7Z"/><path class="ea9f220e-4fd7-4d18-a1ce-cfe48bc06696" d="M52,6.45a.62.62,0,0,1-.58-.84L53,1.54a.63.63,0,0,1,.61-.39l.18,0a.63.63,0,0,1,.38.81L52.62,6.05A.63.63,0,0,1,52,6.45Z"/><path class="b731e002-f318-46dd-be3e-74fc132b0abc" d="M53.59,1.36h.13a.43.43,0,0,1,.24.54L52.42,6a.41.41,0,0,1-.39.27.25.25,0,0,1-.12,0h0a.43.43,0,0,1-.24-.54l1.54-4.06a.43.43,0,0,1,.41-.26m0-.42h0a.83.83,0,0,0-.8.53L51.25,5.53a.83.83,0,0,0,.49,1.07.71.71,0,0,0,.29.06.84.84,0,0,0,.78-.54l1.54-4.06A.84.84,0,0,0,53.87,1a.83.83,0,0,0-.28-.05Z"/><path class="bfa6999f-b8a3-4b0f-acfe-b5481c322690" d="M53,7.17a.69.69,0,0,1-.2,0,.72.72,0,0,1-.29-.2.63.63,0,0,1,.09-.88L55,4.15a.67.67,0,0,1,.4-.14.6.6,0,0,1,.48.23.63.63,0,0,1-.08.88L53.42,7A.62.62,0,0,1,53,7.17Z"/><path class="b731e002-f318-46dd-be3e-74fc132b0abc" d="M55.36,4.22a.41.41,0,0,1,.26.73L53.29,6.86A.39.39,0,0,1,53,7l-.13,0a.53.53,0,0,1-.2-.13.43.43,0,0,1,.06-.59L55.1,4.31a.41.41,0,0,1,.26-.09m0-.42h0a.86.86,0,0,0-.53.19L52.5,5.9a.82.82,0,0,0-.3.56.84.84,0,0,0,.18.61.79.79,0,0,0,.39.26.75.75,0,0,0,.26,0,.82.82,0,0,0,.52-.18l2.34-1.91A.83.83,0,0,0,56,4.11a.81.81,0,0,0-.64-.31Z"/><path class="ea9f220e-4fd7-4d18-a1ce-cfe48bc06696" d="M53.53,8.28a.63.63,0,0,1-.19,0,.62.62,0,0,1-.43-.49A.7.7,0,0,1,53,7.29.68.68,0,0,1,53.43,7l5-.82h0a.64.64,0,0,1,.69.52.58.58,0,0,1-.11.46.61.61,0,0,1-.41.25l-5,.82Z"/><path class="b731e002-f318-46dd-be3e-74fc132b0abc" d="M58.57,6.42a.42.42,0,0,1,.07.83l-5,.82h-.07a.3.3,0,0,1-.13,0,.4.4,0,0,1-.28-.33.41.41,0,0,1,.34-.47l5-.82h.06m0-.42h-.13l-5,.83a.8.8,0,0,0-.54.33.81.81,0,0,0-.15.62.84.84,0,0,0,.57.66.69.69,0,0,0,.25,0h.13l5.05-.82a.85.85,0,0,0,.54-.34.8.8,0,0,0,.14-.62.83.83,0,0,0-.82-.7Z"/><path class="bfa6999f-b8a3-4b0f-acfe-b5481c322690" d="M56.23,10.57a.58.58,0,0,1-.19,0L53.19,9.46a.62.62,0,0,1,.22-1.2.69.69,0,0,1,.2,0l2.84,1.07a.62.62,0,0,1,.36.8A.61.61,0,0,1,56.23,10.57Z"/><path class="b731e002-f318-46dd-be3e-74fc132b0abc" d="M53.41,8.47a.32.32,0,0,1,.14,0l2.82,1.06a.43.43,0,0,1,.25.54.42.42,0,0,1-.39.27l-.13,0h0L53.26,9.27A.43.43,0,0,1,53,8.73a.4.4,0,0,1,.39-.26m0-.42a.82.82,0,0,0-.78.53.84.84,0,0,0,.48,1.08l2.82,1.06a1,1,0,0,0,.3.06.86.86,0,0,0,.78-.54.83.83,0,0,0-.49-1.07L53.7,8.1a.84.84,0,0,0-.29,0Z"/><path class="ea9f220e-4fd7-4d18-a1ce-cfe48bc06696" d="M56.09,14.66a.63.63,0,0,1-.19,0,.72.72,0,0,1-.29-.2l-3.4-4.16a.6.6,0,0,1-.14-.46.61.61,0,0,1,.23-.42.63.63,0,0,1,.88.09l3.4,4.16a.61.61,0,0,1,.13.45.57.57,0,0,1-.22.42A.59.59,0,0,1,56.09,14.66Z"/><path class="b731e002-f318-46dd-be3e-74fc132b0abc" d="M52.69,9.45a.42.42,0,0,1,.32.16l3.4,4.16a.41.41,0,0,1,0,.58.39.39,0,0,1-.27.1l-.12,0a.46.46,0,0,1-.2-.13l-3.4-4.16a.42.42,0,0,1,.06-.59.44.44,0,0,1,.26-.1m0-.41h0a.83.83,0,0,0-.83.75.84.84,0,0,0,.19.61l3.4,4.16a.82.82,0,0,0,.39.26.73.73,0,0,0,.25,0,.84.84,0,0,0,.83-.74.86.86,0,0,0-.18-.62l-3.4-4.16a.85.85,0,0,0-.65-.3Z"/><path class="bfa6999f-b8a3-4b0f-acfe-b5481c322690" d="M52.06,14a.58.58,0,0,1-.61-.52l-.49-3a.63.63,0,0,1,.51-.71h.1a.62.62,0,0,1,.62.53l.49,3a.64.64,0,0,1-.52.72Z"/><path class="b731e002-f318-46dd-be3e-74fc132b0abc" d="M51.58,10a.42.42,0,0,1,.41.35l.48,3a.41.41,0,0,1-.34.47h-.07l-.13,0a.43.43,0,0,1-.28-.33l-.49-3a.42.42,0,0,1,.35-.47h.07m0-.42h-.14a.85.85,0,0,0-.69,1l.49,3a.82.82,0,0,0,.57.66.69.69,0,0,0,.25,0h.14a.82.82,0,0,0,.54-.33.8.8,0,0,0,.14-.62l-.48-3a.84.84,0,0,0-.82-.7Z"/></g></g></svg>