<svg xmlns="http://www.w3.org/2000/svg" xmlns:xlink="http://www.w3.org/1999/xlink" viewBox="0 0 102.06 102.89"><defs><style>.f33aa63c-6f13-4f40-9c08-273c46b95d9c{fill:url(#a401830d-a25e-4b1d-906c-e60a01f12ef8);}.ac516155-cea5-4318-badb-7c5e5e8ba428{fill:url(#a813f26e-65e3-4d02-abc6-ac39f3932094);}.a6049cc3-7824-400a-a8e8-004382056018{fill:url(#e357cb2e-192b-4409-891d-e6c0e394a644);}.adf58cff-e76f-4a9e-84ae-cf0587736794{fill:url(#bf82a1a9-6819-4e55-ba46-8cef54d808c7);}.a47eb726-0cef-4c7e-bc01-9dd9d484ee0d{fill:url(#e2d12265-259e-4f2f-b17b-593c22234bb8);}.ec63dbc7-1288-4674-b937-60d1d3683739{fill:url(#b366ae25-3bd4-4611-8b9e-d34000dd381d);}.e19a4c2b-40d7-43ec-9c2b-9d8ac2efcb74{fill:url(#e23b1a86-31f3-4de1-95d4-652533e74b4a);}.edb6f631-e4bc-4e1a-8305-bf9d6f73edf8{fill:url(#ac7779fa-eb92-43b7-a618-938285458b1c);}.a620b829-b6ac-431d-9a73-c94742164c3c{fill:url(#aed86804-1012-4a72-8792-0b8cfce97935);}.bc2b56c6-3a81-41ac-b2c5-d91b1ea310e4{fill:url(#f1db79e7-d156-4170-8104-581eb5e54206);}.ef567ddd-4a35-45b6-a98b-7aa65f782f03{fill:url(#ab525cc8-1ce6-41be-b26a-71b8d274a95b);}.f4775737-7d11-438d-8bb7-c5cd5ffb39e8{fill:url(#b45c9060-0dbc-470c-bb9b-0ba8ec766d2b);}.af87e463-07f8-4201-bfd5-d8e2782573ec{fill:url(#f3a376f3-1833-4770-ac2c-203f0242c699);}.aa354e15-4391-4b1e-955f-721b1e3f4fdd{fill:url(#fe25f2c0-c689-4aec-9633-a5a42b9dcbfd);}.a54d6c0d-8c17-4dd9-b2d4-fb8f7373a11f{fill:url(#aa6ddd8f-1e52-4358-8b11-8b0fdc41a6d1);}.b4623745-eef8-4994-a8ac-5f4ed5198334{fill:url(#a9edbb6a-b051-48d8-a531-0c0d0b64b27d);}.af04cd99-fdee-420c-b06c-67f45b139957{fill:url(#fe66dfb6-9c08-4bd5-907a-39a7afef4d14);}.a00b8f45-269d-4112-ad9a-c9290ddafc4f{fill:url(#bdf34284-06bc-4a9a-8cf2-48f954283e96);}.acbc4422-2e22-4144-82e2-096687127d27{fill:url(#fc0935d0-7772-4f09-9ca0-877b6b62f49f);}.f1442a22-2b57-4850-9544-7806e43c0dca{fill:url(#b0b5e78a-2ef0-4536-8b2a-609eb5c6f4cc);}.aa4fd418-5cfa-4a5d-b7c2-e13ae98b21fd{fill:url(#bae0be21-d205-49ce-bdde-8b762dec8a96);}.f02abd97-67a9-4301-9716-a4d4e1438c4e{fill:url(#b8d228a3-b956-45de-aebc-0f95d645e900);}.beeca01d-df5e-4b31-a933-0cc8c424e95c{fill:none;stroke:#fff;stroke-linecap:round;stroke-miterlimit:10;stroke-width:2.37px;}.a58da135-2b82-4dd8-8bc6-1751e0bac3e5{fill:#fff;}</style><radialGradient id="a401830d-a25e-4b1d-906c-e60a01f12ef8" cx="-462.46" cy="158.2" r="22.6" gradientTransform="translate(218.71 508.5) rotate(90)" gradientUnits="userSpaceOnUse"><stop offset="0" stop-color="#fff"/><stop offset="0.06" stop-color="#fffbed"/><stop offset="0.33" stop-color="#feeb9a"/><stop offset="0.56" stop-color="#fdde58"/><stop offset="0.76" stop-color="#fcd428"/><stop offset="0.91" stop-color="#fcce0b"/><stop offset="1" stop-color="#fccc00"/></radialGradient><radialGradient id="a813f26e-65e3-4d02-abc6-ac39f3932094" cx="-466.07" cy="153.38" r="34.08" gradientTransform="translate(535.76 76.19) rotate(22.94)" gradientUnits="userSpaceOnUse"><stop offset="0" stop-color="#fff"/><stop offset="0.06" stop-color="#fffced"/><stop offset="0.33" stop-color="#fff19a"/><stop offset="0.56" stop-color="#ffe758"/><stop offset="0.76" stop-color="#ffe128"/><stop offset="0.91" stop-color="#ffdd0b"/><stop offset="1" stop-color="#ffdb00"/></radialGradient><radialGradient id="e357cb2e-192b-4409-891d-e6c0e394a644" cx="-466.07" cy="153.38" r="34.08" gradientTransform="translate(535.76 76.19) rotate(22.94)" gradientUnits="userSpaceOnUse"><stop offset="0" stop-color="#fff"/><stop offset="0.06" stop-color="#fffaed"/><stop offset="0.33" stop-color="#fde59a"/><stop offset="0.56" stop-color="#fcd458"/><stop offset="0.76" stop-color="#fbc728"/><stop offset="0.91" stop-color="#fac00b"/><stop offset="1" stop-color="#fabd00"/></radialGradient><radialGradient id="bf82a1a9-6819-4e55-ba46-8cef54d808c7" cx="-466.07" cy="153.38" r="34.08" gradientTransform="translate(535.76 76.19) rotate(22.94)" gradientUnits="userSpaceOnUse"><stop offset="0" stop-color="#fff"/><stop offset="0.06" stop-color="#fef7ed"/><stop offset="0.33" stop-color="#fad39a"/><stop offset="0.56" stop-color="#f6b658"/><stop offset="0.76" stop-color="#f4a128"/><stop offset="0.91" stop-color="#f3940b"/><stop offset="1" stop-color="#f28f00"/></radialGradient><radialGradient id="e2d12265-259e-4f2f-b17b-593c22234bb8" cx="-446.94" cy="139.48" r="21.17" xlink:href="#bf82a1a9-6819-4e55-ba46-8cef54d808c7"/><radialGradient id="b366ae25-3bd4-4611-8b9e-d34000dd381d" cx="-174.42" cy="139.91" r="21.17" gradientTransform="translate(242.29 -105.4) rotate(2.94)" xlink:href="#bf82a1a9-6819-4e55-ba46-8cef54d808c7"/><radialGradient id="e23b1a86-31f3-4de1-95d4-652533e74b4a" cx="81.52" cy="233.51" r="21.17" gradientTransform="translate(-95.6 -175.67) rotate(-17.06)" xlink:href="#bf82a1a9-6819-4e55-ba46-8cef54d808c7"/><radialGradient id="ac7779fa-eb92-43b7-a618-938285458b1c" cx="290.02" cy="409.01" r="21.17" gradientTransform="translate(-437.14 -126.13) rotate(-37.06)" xlink:href="#bf82a1a9-6819-4e55-ba46-8cef54d808c7"/><radialGradient id="aed86804-1012-4a72-8792-0b8cfce97935" cx="425.91" cy="645.23" r="21.17" gradientTransform="translate(-741.15 37.23) rotate(-57.06)" xlink:href="#bf82a1a9-6819-4e55-ba46-8cef54d808c7"/><radialGradient id="f1db79e7-d156-4170-8104-581eb5e54206" cx="472.82" cy="913.69" r="21.17" gradientTransform="translate(-970.94 294.71) rotate(-77.06)" xlink:href="#bf82a1a9-6819-4e55-ba46-8cef54d808c7"/><radialGradient id="ab525cc8-1ce6-41be-b26a-71b8d274a95b" cx="425.08" cy="1182" r="21.17" gradientTransform="translate(-1098.82 615.27) rotate(-97.06)" xlink:href="#bf82a1a9-6819-4e55-ba46-8cef54d808c7"/><radialGradient id="b45c9060-0dbc-470c-bb9b-0ba8ec766d2b" cx="288.46" cy="1417.8" r="21.17" gradientTransform="translate(-1109.34 960.22) rotate(-117.06)" xlink:href="#bf82a1a9-6819-4e55-ba46-8cef54d808c7"/><radialGradient id="f3a376f3-1833-4770-ac2c-203f0242c699" cx="79.42" cy="1592.65" r="21.17" gradientTransform="translate(-1001.25 1287.97) rotate(-137.06)" xlink:href="#bf82a1a9-6819-4e55-ba46-8cef54d808c7"/><radialGradient id="fe25f2c0-c689-4aec-9633-a5a42b9dcbfd" cx="-176.81" cy="1685.46" r="21.17" gradientTransform="translate(-787.58 1558.99) rotate(-157.06)" xlink:href="#bf82a1a9-6819-4e55-ba46-8cef54d808c7"/><radialGradient id="aa6ddd8f-1e52-4358-8b11-8b0fdc41a6d1" cx="-449.33" cy="1685.04" r="21.17" gradientTransform="translate(-494.1 1740.58) rotate(-177.06)" xlink:href="#bf82a1a9-6819-4e55-ba46-8cef54d808c7"/><radialGradient id="a9edbb6a-b051-48d8-a531-0c0d0b64b27d" cx="-705.28" cy="1591.44" r="21.17" gradientTransform="translate(-156.22 1810.85) rotate(162.94)" xlink:href="#bf82a1a9-6819-4e55-ba46-8cef54d808c7"/><radialGradient id="fe66dfb6-9c08-4bd5-907a-39a7afef4d14" cx="-913.77" cy="1415.94" r="21.17" gradientTransform="translate(185.33 1761.32) rotate(142.94)" xlink:href="#bf82a1a9-6819-4e55-ba46-8cef54d808c7"/><radialGradient id="bdf34284-06bc-4a9a-8cf2-48f954283e96" cx="-1049.67" cy="1179.72" r="21.17" gradientTransform="translate(489.33 1597.95) rotate(122.94)" xlink:href="#bf82a1a9-6819-4e55-ba46-8cef54d808c7"/><radialGradient id="fc0935d0-7772-4f09-9ca0-877b6b62f49f" cx="-1096.58" cy="911.26" r="21.17" gradientTransform="translate(719.13 1340.47) rotate(102.94)" xlink:href="#bf82a1a9-6819-4e55-ba46-8cef54d808c7"/><radialGradient id="b0b5e78a-2ef0-4536-8b2a-609eb5c6f4cc" cx="-1048.84" cy="642.95" r="21.17" gradientTransform="translate(847 1019.92) rotate(82.94)" xlink:href="#bf82a1a9-6819-4e55-ba46-8cef54d808c7"/><radialGradient id="bae0be21-d205-49ce-bdde-8b762dec8a96" cx="-912.21" cy="407.15" r="21.17" gradientTransform="translate(857.52 674.96) rotate(62.94)" xlink:href="#bf82a1a9-6819-4e55-ba46-8cef54d808c7"/><radialGradient id="b8d228a3-b956-45de-aebc-0f95d645e900" cx="-703.18" cy="232.3" r="21.17" gradientTransform="translate(749.43 347.21) rotate(42.94)" xlink:href="#bf82a1a9-6819-4e55-ba46-8cef54d808c7"/></defs><title>21</title><g id="b0e0bb0e-eba2-4e67-919b-cf0382102535" data-name="圖層 2"><g id="af0df5b5-79ab-4d60-b55f-c0f4ea409a05" data-name="圖層 1"><rect class="f33aa63c-6f13-4f40-9c08-273c46b95d9c" x="23.11" y="25.39" width="55.83" height="55.44" rx="11.2" transform="translate(-17.76 79.4) rotate(-67.06)"/><path class="ac516155-cea5-4318-badb-7c5e5e8ba428" d="M77.1,33.82a11.74,11.74,0,0,1,2.52,1.5l14.91-8.73A16.36,16.36,0,0,0,90.35,24L79.92,19.62,70.47,31Z"/><path class="ac516155-cea5-4318-badb-7c5e5e8ba428" d="M55.34,85.24l-3.26-1.38.1,15.44,5.36,2.27a16.74,16.74,0,0,0,10.78.77L62.2,85.82A11.14,11.14,0,0,1,55.34,85.24Z"/><path class="a6049cc3-7824-400a-a8e8-004382056018" d="M83.74,46.22l16.52-3A17,17,0,0,0,95.9,27.85L81,36.58A11.3,11.3,0,0,1,83.74,46.22Z"/><polygon class="a6049cc3-7824-400a-a8e8-004382056018" points="68.76 30.29 78.21 18.89 66.01 13.73 61.24 27.11 68.76 30.29"/><path class="a6049cc3-7824-400a-a8e8-004382056018" d="M70,79.29a11.19,11.19,0,0,1-6.12,6L70,101.8a16.84,16.84,0,0,0,9.66-9.2l1.24-2.92-10.21-12Z"/><polygon class="a6049cc3-7824-400a-a8e8-004382056018" points="75.61 66.08 87.93 73.1 92.99 61.14 78.73 58.71 75.61 66.08"/><polygon class="ac516155-cea5-4318-badb-7c5e5e8ba428" points="74.92 67.73 71.49 75.83 81.69 87.85 87.24 74.74 74.92 67.73"/><path class="ac516155-cea5-4318-badb-7c5e5e8ba428" d="M83.05,48.51,79.44,57l14.27,2.43,5.62-13.28c.15-.35.26-.71.39-1.07l-16.53,3Z"/><path class="a6049cc3-7824-400a-a8e8-004382056018" d="M24.92,72.37a11.74,11.74,0,0,1-2.52-1.5L7.49,79.6a16.68,16.68,0,0,0,4.18,2.56L22.1,86.57l9.45-11.4Z"/><polygon class="a6049cc3-7824-400a-a8e8-004382056018" points="30.54 30.36 20.33 18.35 14.79 31.45 27.11 38.46 30.54 30.36"/><polygon class="ac516155-cea5-4318-badb-7c5e5e8ba428" points="26.41 40.11 14.09 33.09 9.03 45.05 23.29 47.48 26.41 40.11"/><polygon class="ac516155-cea5-4318-badb-7c5e5e8ba428" points="33.26 75.9 23.81 87.3 36.01 92.46 40.78 79.08 33.26 75.9"/><path class="a6049cc3-7824-400a-a8e8-004382056018" d="M19,57.68l3.61-8.52L8.32,46.73,2.7,60c-.15.35-.27.71-.4,1.07l16.53-3Z"/><path class="ac516155-cea5-4318-badb-7c5e5e8ba428" d="M18.29,60,1.76,63A17,17,0,0,0,6.12,78.34L21,69.61A11.27,11.27,0,0,1,18.29,60Z"/><path class="ac516155-cea5-4318-badb-7c5e5e8ba428" d="M32,26.9a11.19,11.19,0,0,1,6.12-6L32,4.39a16.84,16.84,0,0,0-9.66,9.2l-1.23,2.92,10.2,12Z"/><path class="a6049cc3-7824-400a-a8e8-004382056018" d="M46.68,21l3.26,1.38L49.85,6.89,44.49,4.62A16.77,16.77,0,0,0,33.7,3.85l6.12,16.52A11.14,11.14,0,0,1,46.68,21Z"/><polygon class="ac516155-cea5-4318-badb-7c5e5e8ba428" points="59.6 26.42 64.38 13.04 51.63 7.64 51.72 23.08 59.6 26.42"/><polygon class="a6049cc3-7824-400a-a8e8-004382056018" points="42.42 79.77 37.65 93.15 50.4 98.55 50.3 83.11 42.42 79.77"/><polygon class="adf58cff-e76f-4a9e-84ae-cf0587736794" points="70.47 31.02 79.92 19.62 78.21 18.89 68.76 30.29 70.47 31.02"/><polygon class="a47eb726-0cef-4c7e-bc01-9dd9d484ee0d" points="70.47 31.02 79.92 19.62 78.21 18.89 68.76 30.29 70.47 31.02"/><polygon class="adf58cff-e76f-4a9e-84ae-cf0587736794" points="61.24 27.11 66.01 13.73 64.38 13.04 59.6 26.42 61.24 27.11"/><polygon class="ec63dbc7-1288-4674-b937-60d1d3683739" points="61.24 27.11 66.01 13.73 64.38 13.04 59.6 26.42 61.24 27.11"/><polygon class="adf58cff-e76f-4a9e-84ae-cf0587736794" points="51.72 23.08 51.63 7.64 49.85 6.89 49.94 22.33 51.72 23.08"/><polygon class="e19a4c2b-40d7-43ec-9c2b-9d8ac2efcb74" points="51.72 23.08 51.63 7.64 49.85 6.89 49.94 22.33 51.72 23.08"/><path class="adf58cff-e76f-4a9e-84ae-cf0587736794" d="M39.82,20.37,33.7,3.85a17.62,17.62,0,0,0-1.7.54l6.12,16.5A11.13,11.13,0,0,1,39.82,20.37Z"/><path class="edb6f631-e4bc-4e1a-8305-bf9d6f73edf8" d="M39.82,20.37,33.7,3.85a17.62,17.62,0,0,0-1.7.54l6.12,16.5A11.13,11.13,0,0,1,39.82,20.37Z"/><polygon class="adf58cff-e76f-4a9e-84ae-cf0587736794" points="31.31 28.53 21.11 16.52 20.33 18.35 30.54 30.36 31.31 28.53"/><polygon class="a620b829-b6ac-431d-9a73-c94742164c3c" points="31.31 28.53 21.11 16.52 20.33 18.35 30.54 30.36 31.31 28.53"/><polygon class="adf58cff-e76f-4a9e-84ae-cf0587736794" points="27.11 38.46 14.79 31.45 14.09 33.09 26.41 40.11 27.11 38.46"/><polygon class="bc2b56c6-3a81-41ac-b2c5-d91b1ea310e4" points="27.11 38.46 14.79 31.45 14.09 33.09 26.41 40.11 27.11 38.46"/><polygon class="adf58cff-e76f-4a9e-84ae-cf0587736794" points="23.29 47.48 9.03 45.05 8.32 46.73 22.58 49.16 23.29 47.48"/><polygon class="ef567ddd-4a35-45b6-a98b-7aa65f782f03" points="23.29 47.48 9.03 45.05 8.32 46.73 22.58 49.16 23.29 47.48"/><path class="adf58cff-e76f-4a9e-84ae-cf0587736794" d="M18.83,58.07l-16.53,3A18.75,18.75,0,0,0,1.76,63l16.53-3A10.78,10.78,0,0,1,18.83,58.07Z"/><path class="f4775737-7d11-438d-8bb7-c5cd5ffb39e8" d="M18.83,58.07l-16.53,3A18.75,18.75,0,0,0,1.76,63l16.53-3A10.78,10.78,0,0,1,18.83,58.07Z"/><path class="adf58cff-e76f-4a9e-84ae-cf0587736794" d="M21,69.61,6.12,78.34A16.36,16.36,0,0,0,7.49,79.6L22.4,70.87A12.53,12.53,0,0,1,21,69.61Z"/><path class="af87e463-07f8-4201-bfd5-d8e2782573ec" d="M21,69.61,6.12,78.34A16.36,16.36,0,0,0,7.49,79.6L22.4,70.87A12.53,12.53,0,0,1,21,69.61Z"/><polygon class="adf58cff-e76f-4a9e-84ae-cf0587736794" points="31.55 75.17 22.11 86.57 23.81 87.3 33.26 75.9 31.55 75.17"/><polygon class="aa354e15-4391-4b1e-955f-721b1e3f4fdd" points="31.55 75.17 22.11 86.57 23.81 87.3 33.26 75.9 31.55 75.17"/><polygon class="adf58cff-e76f-4a9e-84ae-cf0587736794" points="40.78 79.08 36.01 92.46 37.65 93.15 42.42 79.77 40.78 79.08"/><polygon class="a54d6c0d-8c17-4dd9-b2d4-fb8f7373a11f" points="40.78 79.08 36.01 92.46 37.65 93.15 42.42 79.77 40.78 79.08"/><polygon class="adf58cff-e76f-4a9e-84ae-cf0587736794" points="50.3 83.11 50.4 98.55 52.18 99.3 52.08 83.86 50.3 83.11"/><polygon class="b4623745-eef8-4994-a8ac-5f4ed5198334" points="50.3 83.11 50.4 98.55 52.18 99.3 52.08 83.86 50.3 83.11"/><path class="adf58cff-e76f-4a9e-84ae-cf0587736794" d="M62.2,85.82l6.12,16.52a16.78,16.78,0,0,0,1.7-.54L63.9,85.3A11.13,11.13,0,0,1,62.2,85.82Z"/><path class="af04cd99-fdee-420c-b06c-67f45b139957" d="M62.2,85.82l6.12,16.52a16.78,16.78,0,0,0,1.7-.54L63.9,85.3A11.13,11.13,0,0,1,62.2,85.82Z"/><polygon class="adf58cff-e76f-4a9e-84ae-cf0587736794" points="70.71 77.66 80.92 89.68 81.69 87.85 71.49 75.83 70.71 77.66"/><polygon class="a00b8f45-269d-4112-ad9a-c9290ddafc4f" points="70.71 77.66 80.92 89.68 81.69 87.85 71.49 75.83 70.71 77.66"/><polygon class="adf58cff-e76f-4a9e-84ae-cf0587736794" points="74.92 67.73 87.24 74.74 87.93 73.1 75.61 66.08 74.92 67.73"/><polygon class="acbc4422-2e22-4144-82e2-096687127d27" points="74.92 67.73 87.24 74.74 87.93 73.1 75.61 66.08 74.92 67.73"/><polygon class="adf58cff-e76f-4a9e-84ae-cf0587736794" points="78.73 58.71 92.99 61.14 93.7 59.46 79.44 57.03 78.73 58.71"/><polygon class="f1442a22-2b57-4850-9544-7806e43c0dca" points="78.73 58.71 92.99 61.14 93.7 59.46 79.44 57.03 78.73 58.71"/><path class="adf58cff-e76f-4a9e-84ae-cf0587736794" d="M83.19,48.12l16.53-3a18.75,18.75,0,0,0,.54-1.91l-16.52,3A10.82,10.82,0,0,1,83.19,48.12Z"/><path class="aa4fd418-5cfa-4a5d-b7c2-e13ae98b21fd" d="M83.19,48.12l16.53-3a18.75,18.75,0,0,0,.54-1.91l-16.52,3A10.82,10.82,0,0,1,83.19,48.12Z"/><path class="adf58cff-e76f-4a9e-84ae-cf0587736794" d="M81,36.58,95.9,27.85a16.36,16.36,0,0,0-1.37-1.26L79.62,35.32A12.53,12.53,0,0,1,81,36.58Z"/><path class="f02abd97-67a9-4301-9716-a4d4e1438c4e" d="M81,36.58,95.9,27.85a16.36,16.36,0,0,0-1.37-1.26L79.62,35.32A12.53,12.53,0,0,1,81,36.58Z"/><path class="beeca01d-df5e-4b31-a933-0cc8c424e95c" d="M85.56,63.35,75.62,86.83a13.33,13.33,0,0,1-17.47,7.08L32,82.84"/><path class="a58da135-2b82-4dd8-8bc6-1751e0bac3e5" d="M38.72,3.3a15.91,15.91,0,0,1,6.36,1.32L89,23.51a16.26,16.26,0,0,1,8.47,21.31L78.29,89.29a16.29,16.29,0,0,1-15,9.81A16.07,16.07,0,0,1,57,97.79L13.1,78.89A16.26,16.26,0,0,1,4.63,57.58L23.77,13.11a16.3,16.3,0,0,1,15-9.81m0-3.3a19.52,19.52,0,0,0-18,11.81L1.59,56.27a19.58,19.58,0,0,0,10.2,25.66l43.89,18.89a19.24,19.24,0,0,0,7.66,1.58,19.54,19.54,0,0,0,18-11.8l19.15-44.47a19.57,19.57,0,0,0-10.2-25.65L46.38,1.58A19.24,19.24,0,0,0,38.72,0Z"/></g></g></svg>