<svg xmlns="http://www.w3.org/2000/svg" xmlns:xlink="http://www.w3.org/1999/xlink" viewBox="0 0 74.28 74.27"><defs><style>.babb3646-d8e1-40e9-b92b-fdc261edecc9{fill:#00aa6a;}.f06f90e5-9010-47cd-9f9b-6346cd3f7750{fill:#7cc493;}.a285069d-f6f3-4b6d-8a20-2cf3f9effff0{fill:url(#b60f750a-ea39-4ebf-9d66-9a9c96a53322);}.f7aa2ae7-4f34-48ee-a3c1-7c5e5a4adcdd{fill:url(#e47ddc2e-b5e8-4e66-bc23-08f7e2a6700b);}.b85b18fb-3eb3-4dd1-92e0-bfca0bf2cbd6{fill:#fff;}.e1c05131-ee83-47d0-a1b3-c5edb41f0584{fill:none;stroke:#fff;stroke-linecap:round;stroke-miterlimit:10;stroke-width:1.92px;}</style><radialGradient id="b60f750a-ea39-4ebf-9d66-9a9c96a53322" cx="37.41" cy="36.89" r="33.18" gradientUnits="userSpaceOnUse"><stop offset="0" stop-color="#fff" stop-opacity="0"/><stop offset="0.27" stop-color="#fbfcfb" stop-opacity="0.02"/><stop offset="0.45" stop-color="#eef3ec" stop-opacity="0.08"/><stop offset="0.6" stop-color="#d9e4d3" stop-opacity="0.19"/><stop offset="0.74" stop-color="#bacfb0" stop-opacity="0.34"/><stop offset="0.87" stop-color="#92b383" stop-opacity="0.53"/><stop offset="0.99" stop-color="#62914c" stop-opacity="0.77"/><stop offset="1" stop-color="#5c8d45" stop-opacity="0.8"/></radialGradient><radialGradient id="e47ddc2e-b5e8-4e66-bc23-08f7e2a6700b" cx="24.86" cy="23.02" r="24.57" gradientUnits="userSpaceOnUse"><stop offset="0" stop-color="#fff" stop-opacity="0.8"/><stop offset="0.14" stop-color="#fff" stop-opacity="0.6"/><stop offset="0.29" stop-color="#fff" stop-opacity="0.42"/><stop offset="0.44" stop-color="#fff" stop-opacity="0.27"/><stop offset="0.58" stop-color="#fff" stop-opacity="0.15"/><stop offset="0.73" stop-color="#fff" stop-opacity="0.07"/><stop offset="0.87" stop-color="#fff" stop-opacity="0.02"/><stop offset="1" stop-color="#fff" stop-opacity="0"/></radialGradient></defs><title>22</title><g id="b9f2632e-76bc-4556-940c-457cc69fb4d7" data-name="圖層 2"><g id="ac60028d-8c4a-42d4-b537-6e8ba78fe5be" data-name="圖層 1"><path class="babb3646-d8e1-40e9-b92b-fdc261edecc9" d="M37.14,37.14c15.88,0,24.26-9.23,28.64-18a33.89,33.89,0,0,0-21.09-15C47.77,13.46,48.37,25.91,37.14,37.14Z"/><path class="f06f90e5-9010-47cd-9f9b-6346cd3f7750" d="M37.14,37.14c11.23-11.23,10.63-23.68,7.55-33a34.12,34.12,0,0,0-7.55-.85,33.64,33.64,0,0,0-18,5.17C27.91,12.88,37.14,21.25,37.14,37.14Z"/><path class="babb3646-d8e1-40e9-b92b-fdc261edecc9" d="M4.18,29.58c9.28-3.08,21.73-3.68,33,7.56,0-15.89-9.23-24.26-18-28.64A33.86,33.86,0,0,0,4.18,29.58Z"/><path class="f06f90e5-9010-47cd-9f9b-6346cd3f7750" d="M37.14,37.14c11.23,11.23,23.68,10.63,33,7.55a33.75,33.75,0,0,0-4.31-25.52C61.4,27.91,53,37.14,37.14,37.14Z"/><path class="babb3646-d8e1-40e9-b92b-fdc261edecc9" d="M37.14,37.14c-15.88,0-24.26,9.22-28.64,18a33.86,33.86,0,0,0,21.09,15C26.51,60.81,25.91,48.37,37.14,37.14Z"/><path class="babb3646-d8e1-40e9-b92b-fdc261edecc9" d="M37.14,37.14c0,15.88,9.23,24.26,18,28.63a33.8,33.8,0,0,0,15-21.08C60.82,47.77,48.37,48.37,37.14,37.14Z"/><path class="f06f90e5-9010-47cd-9f9b-6346cd3f7750" d="M37.14,37.14C25.91,25.9,13.46,26.5,4.18,29.58a34.21,34.21,0,0,0-.85,7.56,33.66,33.66,0,0,0,5.17,18C12.88,46.36,21.26,37.14,37.14,37.14Z"/><path class="f06f90e5-9010-47cd-9f9b-6346cd3f7750" d="M37.14,37.14c-11.23,11.23-10.63,23.67-7.55,33a34.12,34.12,0,0,0,7.55.85,33.55,33.55,0,0,0,18-5.17C46.37,61.4,37.14,53,37.14,37.14Z"/><circle class="a285069d-f6f3-4b6d-8a20-2cf3f9effff0" cx="37.14" cy="37.14" r="33.81"/><circle class="f7aa2ae7-4f34-48ee-a3c1-7c5e5a4adcdd" cx="37.14" cy="37.14" r="33.81"/><path class="b85b18fb-3eb3-4dd1-92e0-bfca0bf2cbd6" d="M37.14,3.33A33.81,33.81,0,1,1,3.33,37.14,33.81,33.81,0,0,1,37.14,3.33m0-3.33A37.14,37.14,0,1,0,74.28,37.14,37.18,37.18,0,0,0,37.14,0Z"/><path class="e1c05131-ee83-47d0-a1b3-c5edb41f0584" d="M61,23.93s9.6,30.29-20.5,41.3"/></g></g></svg>