<svg xmlns="http://www.w3.org/2000/svg" xmlns:xlink="http://www.w3.org/1999/xlink" viewBox="0 0 35.2 35.55"><defs><style>.bb4a03c5-634d-424e-a774-fe7cfcca7ab4{stroke:#98691c;stroke-width:0.68px;fill:url(#a37451e9-e81e-482f-9e37-d6087ccc106c);}.bb4a03c5-634d-424e-a774-fe7cfcca7ab4,.fc920bc3-fdef-4d6e-8d23-e175f70dafa3{stroke-miterlimit:10;}.b01e55e9-0d65-4fb0-bc2d-f13161fa7e94{fill:#fff;}.fc920bc3-fdef-4d6e-8d23-e175f70dafa3{fill:none;stroke:#fff;stroke-linecap:round;stroke-width:1.49px;}</style><radialGradient id="a37451e9-e81e-482f-9e37-d6087ccc106c" cx="1832.62" cy="1441.32" r="15.59" gradientTransform="translate(-1348.38 -1877.95) rotate(15.99)" gradientUnits="userSpaceOnUse"><stop offset="0" stop-color="#fff"/><stop offset="0.06" stop-color="#fffded"/><stop offset="0.33" stop-color="#fff69a"/><stop offset="0.56" stop-color="#fff058"/><stop offset="0.76" stop-color="#ffec28"/><stop offset="0.91" stop-color="#ffe90b"/><stop offset="1" stop-color="#ffe800"/></radialGradient></defs><title>23</title><g id="ab1b9883-86ee-45e5-ab4e-e69a6268a247" data-name="圖層 2"><g id="fddeeea3-115f-4b05-850d-5d789424b5c8" data-name="圖層 1"><path class="bb4a03c5-634d-424e-a774-fe7cfcca7ab4" d="M28.34,5.6,14.94,1.76a2.54,2.54,0,0,0-2.46.62l-10,9.73a2.55,2.55,0,0,0-.69,2.43L5.1,28.12A2.54,2.54,0,0,0,6.86,30l13.4,3.84a2.54,2.54,0,0,0,2.46-.62l10.05-9.73a2.55,2.55,0,0,0,.7-2.43L30.1,7.43A2.54,2.54,0,0,0,28.34,5.6Z"/><path class="b01e55e9-0d65-4fb0-bc2d-f13161fa7e94" d="M14.24,1.66a2.75,2.75,0,0,1,.7.1L28.34,5.6A2.54,2.54,0,0,1,30.1,7.43L33.47,21a2.55,2.55,0,0,1-.7,2.43L22.72,33.17a2.51,2.51,0,0,1-1.76.72,2.42,2.42,0,0,1-.7-.1L6.86,30A2.54,2.54,0,0,1,5.1,28.12L1.74,14.54a2.55,2.55,0,0,1,.69-2.43L12.48,2.38a2.52,2.52,0,0,1,1.76-.72m0-1.66a4.2,4.2,0,0,0-2.92,1.18l-10,9.74a4.2,4.2,0,0,0-1.16,4L3.49,28.52a4.2,4.2,0,0,0,2.91,3l13.4,3.84a4.22,4.22,0,0,0,4.08-1l10.05-9.74a4.2,4.2,0,0,0,1.15-4L31.72,7A4.23,4.23,0,0,0,28.8,4L15.4.16A4.11,4.11,0,0,0,14.24,0Z"/><path class="fc920bc3-fdef-4d6e-8d23-e175f70dafa3" d="M13.37,28l6.34,1.82a.17.17,0,0,0,.15,0l9.49-7.93a.17.17,0,0,0,.06-.16L27.3,13.06"/></g></g></svg>