<svg xmlns="http://www.w3.org/2000/svg" xmlns:xlink="http://www.w3.org/1999/xlink" viewBox="0 0 97.88 98.3"><defs><style>.b7a053d5-dc9e-4dbc-ba62-81552ecff9b3{fill:url(#a5a81e24-47bd-4421-a7bd-a1d1aee638be);}.aa90b7a6-d07a-4dc5-a93c-837dcbaa3950{fill:url(#f51bacbb-96e8-4b2e-acb4-bdb0c5f74ba0);}.b8b402d0-dd04-4068-a1d3-10e4b2fcd2a8{fill:url(#b90547c3-bcd4-4e0a-9712-34e8a18c33e4);}.bf74bae2-55bf-4e7b-8680-6cd7254d47b7{fill:url(#f146ea11-ba3b-477c-9236-789b03bac419);}.b7f11fa0-3061-4ca3-a865-18707afa69e7{fill:url(#bde07a48-22fc-422e-947a-99411209ed79);}.b5e0cac0-3a2a-4acd-8f22-2f7d0e9ec65b{fill:url(#fb65e269-b5eb-4edc-82b5-ebfb169c4ac7);}.b0176725-0c41-49ef-9bfb-320d061ea8e8{fill:url(#a5f84242-f4b4-48a2-8a9f-3fddc85fe333);}.eef885a7-bce2-4d19-9cb8-e3467c09770c{fill:url(#ac71a596-04ff-4677-b174-b245fc26d15f);}.ff5524f0-081e-4dad-b928-5a1b689d1bf1{fill:url(#f0ddcb70-8185-4304-9a1d-4fa1552ad52b);}.e07f75cf-3bf4-4463-ae38-e598d451196e{fill:url(#a3593a76-450c-4e60-b5d1-e1b3181d3fba);}.bb8e6c2c-15c7-4adb-989a-5a3c66ffcef7{fill:url(#ab63df4e-a941-4306-af2e-9b6539a44a0f);}.a8837935-1623-4839-9530-263df3bb17bc{fill:url(#f7c0a395-d8b3-462a-863e-64dab06831dd);}.bb0a9636-e7fa-4be5-98d4-20518effbf0e{fill:url(#e4c05ca4-fb21-413b-a298-a3ab9ce8b6ff);}.abe6548d-c217-42c8-9c95-3288f36db921{fill:url(#fe9da94e-ef6d-48cb-93e2-ff3e4877070c);}.f907a092-f815-4c33-857c-3ad8a9e18040{fill:url(#ae0b7f69-e6cd-47ec-ab0b-5ca401061335);}.abe5ac27-a537-4640-8665-5bdd404e4fdc{fill:url(#bcefd107-3688-4d2f-b4d3-57f1b44dfe38);}.a44fcda7-b814-4678-b0e9-8b65f7f528c5{fill:url(#af2fc2a2-fd23-413a-be30-7543fba9c452);}.ae438dad-fa26-4b5a-841e-a0b7e61257ba{fill:url(#a8838324-f65b-47ba-b81b-b1416b5c993b);}.a3e7ae01-4781-49a6-86c4-a7a2d889670a{fill:url(#b4f0a32a-aac1-4ad7-92c3-a40b4f54833e);}.bd44ff01-ee78-4def-9c19-4d60d4b11e94{fill:url(#b048a6a3-8396-41cd-99ca-d3d253cd6800);}.e3f56488-9624-4595-ab38-f19be0e8e8e2{fill:url(#be85ea3e-ecba-41f1-80fd-c313662d81df);}.bce05dfe-2bc4-4605-867a-952dc8c1a395{fill:none;stroke:#fff;stroke-linecap:round;stroke-miterlimit:10;stroke-width:2.25px;}.af2cab82-9c5d-4b72-b9dd-36f542ea616c{fill:#fff;}</style><radialGradient id="a5a81e24-47bd-4421-a7bd-a1d1aee638be" cx="-359.67" cy="242.76" r="21.43" gradientTransform="translate(300.8 402.15) rotate(90)" gradientUnits="userSpaceOnUse"><stop offset="0" stop-color="#fff"/><stop offset="0.32" stop-color="#feecc7"/><stop offset="0.63" stop-color="#fddc97"/><stop offset="0.87" stop-color="#fcd37a"/><stop offset="1" stop-color="#fccf6f"/></radialGradient><radialGradient id="f51bacbb-96e8-4b2e-acb4-bdb0c5f74ba0" cx="-363.09" cy="238.19" r="32.31" gradientTransform="translate(462.08 -82.6) rotate(17.8)" gradientUnits="userSpaceOnUse"><stop offset="0" stop-color="#fff"/><stop offset="0.06" stop-color="#fef5ed"/><stop offset="0.33" stop-color="#f8c69a"/><stop offset="0.56" stop-color="#f3a158"/><stop offset="0.76" stop-color="#f08628"/><stop offset="0.91" stop-color="#ee750b"/><stop offset="1" stop-color="#ed6f00"/></radialGradient><radialGradient id="b90547c3-bcd4-4e0a-9712-34e8a18c33e4" cx="-363.09" cy="238.19" r="32.31" gradientTransform="translate(462.08 -82.6) rotate(17.8)" gradientUnits="userSpaceOnUse"><stop offset="0" stop-color="#fff"/><stop offset="0.06" stop-color="#fef7ed"/><stop offset="0.33" stop-color="#fad39a"/><stop offset="0.56" stop-color="#f6b658"/><stop offset="0.76" stop-color="#f4a128"/><stop offset="0.91" stop-color="#f3940b"/><stop offset="1" stop-color="#f28f00"/></radialGradient><radialGradient id="f146ea11-ba3b-477c-9236-789b03bac419" cx="-344.96" cy="225.02" r="20.07" xlink:href="#b90547c3-bcd4-4e0a-9712-34e8a18c33e4"/><radialGradient id="bde07a48-22fc-422e-947a-99411209ed79" cx="-3.41" cy="-95.32" r="20.07" gradientTransform="translate(63.09 117.27) rotate(-2.2)" xlink:href="#b90547c3-bcd4-4e0a-9712-34e8a18c33e4"/><radialGradient id="fb65e269-b5eb-4edc-82b5-ebfb169c4ac7" cx="427.1" cy="-279.52" r="20.07" gradientTransform="matrix(0.93, -0.38, 0.38, 0.93, -243.49, 441.55)" xlink:href="#b90547c3-bcd4-4e0a-9712-34e8a18c33e4"/><radialGradient id="a5f84242-f4b4-48a2-8a9f-3fddc85fe333" cx="894.66" cy="-305.37" r="20.07" gradientTransform="translate(-420.67 851.13) rotate(-42.2)" xlink:href="#b90547c3-bcd4-4e0a-9712-34e8a18c33e4"/><radialGradient id="ac71a596-04ff-4677-b174-b245fc26d15f" cx="1342.85" cy="-169.75" r="20.07" gradientTransform="translate(-447.08 1296.6) rotate(-62.2)" xlink:href="#b90547c3-bcd4-4e0a-9712-34e8a18c33e4"/><radialGradient id="f0ddcb70-8185-4304-9a1d-4fa1552ad52b" cx="1717.63" cy="110.99" r="20.07" gradientTransform="translate(-319.53 1724.25) rotate(-82.2)" xlink:href="#b90547c3-bcd4-4e0a-9712-34e8a18c33e4"/><radialGradient id="a3593a76-450c-4e60-b5d1-e1b3181d3fba" cx="1973.79" cy="502.98" r="20.07" gradientTransform="translate(-53.41 2082.48) rotate(-102.2)" xlink:href="#b90547c3-bcd4-4e0a-9712-34e8a18c33e4"/><radialGradient id="ab63df4e-a941-4306-af2e-9b6539a44a0f" cx="2080.44" cy="958.94" r="20.07" gradientTransform="matrix(-0.53, -0.85, 0.85, -0.53, 319.18, 2328.08)" xlink:href="#b90547c3-bcd4-4e0a-9712-34e8a18c33e4"/><radialGradient id="f7c0a395-d8b3-462a-863e-64dab06831dd" cx="2024.71" cy="1423.88" r="20.07" gradientTransform="translate(753.3 2431.45) rotate(-142.2)" xlink:href="#b90547c3-bcd4-4e0a-9712-34e8a18c33e4"/><radialGradient id="e4c05ca4-fb21-413b-a298-a3ab9ce8b6ff" cx="1813.31" cy="1841.71" r="20.07" gradientTransform="translate(1196.6 2380.1) rotate(-162.2)" xlink:href="#b90547c3-bcd4-4e0a-9712-34e8a18c33e4"/><radialGradient id="fe9da94e-ef6d-48cb-93e2-ff3e4877070c" cx="1471.76" cy="2162.05" r="20.07" gradientTransform="translate(1595.59 2180.23) rotate(177.8)" xlink:href="#b90547c3-bcd4-4e0a-9712-34e8a18c33e4"/><radialGradient id="ae0b7f69-e6cd-47ec-ab0b-5ca401061335" cx="1041.25" cy="2346.25" r="20.07" gradientTransform="matrix(-0.93, 0.38, -0.38, -0.93, 1902.17, 1855.95)" xlink:href="#b90547c3-bcd4-4e0a-9712-34e8a18c33e4"/><radialGradient id="bcefd107-3688-4d2f-b4d3-57f1b44dfe38" cx="573.7" cy="2372.1" r="20.07" gradientTransform="translate(2079.35 1446.37) rotate(137.8)" xlink:href="#b90547c3-bcd4-4e0a-9712-34e8a18c33e4"/><radialGradient id="af2fc2a2-fd23-413a-be30-7543fba9c452" cx="125.5" cy="2236.48" r="20.07" gradientTransform="translate(2105.76 1000.89) rotate(117.8)" xlink:href="#b90547c3-bcd4-4e0a-9712-34e8a18c33e4"/><radialGradient id="a8838324-f65b-47ba-b81b-b1416b5c993b" cx="-249.28" cy="1955.74" r="20.07" gradientTransform="translate(1978.21 573.25) rotate(97.8)" xlink:href="#b90547c3-bcd4-4e0a-9712-34e8a18c33e4"/><radialGradient id="b4f0a32a-aac1-4ad7-92c3-a40b4f54833e" cx="-505.44" cy="1563.75" r="20.07" gradientTransform="translate(1712.09 215.02) rotate(77.8)" xlink:href="#b90547c3-bcd4-4e0a-9712-34e8a18c33e4"/><radialGradient id="b048a6a3-8396-41cd-99ca-d3d253cd6800" cx="-612.09" cy="1107.79" r="20.07" gradientTransform="matrix(0.53, 0.85, -0.85, 0.53, 1339.5, -30.59)" xlink:href="#b90547c3-bcd4-4e0a-9712-34e8a18c33e4"/><radialGradient id="be85ea3e-ecba-41f1-80fd-c313662d81df" cx="-556.35" cy="642.85" r="20.07" gradientTransform="translate(905.38 -133.95) rotate(37.8)" xlink:href="#b90547c3-bcd4-4e0a-9712-34e8a18c33e4"/></defs><title>3</title><g id="e1cd0d38-de17-4ec0-b5c0-0a818b93f058" data-name="圖層 2"><g id="b3a1447e-cf59-49e9-afe3-2e50790d199d" data-name="圖層 1"><rect class="b7a053d5-dc9e-4dbc-ba62-81552ecff9b3" x="22.58" y="22.9" width="52.93" height="52.55" rx="10.62" transform="translate(-12.77 80.84) rotate(-72.2)"/><path class="aa90b7a6-d07a-4dc5-a93c-837dcbaa3950" d="M72,28.76A10.37,10.37,0,0,1,74.53,30l13.34-9.52a16,16,0,0,0-4.16-2.05L73.48,15.1l-8,11.57Z"/><path class="aa90b7a6-d07a-4dc5-a93c-837dcbaa3950" d="M55.84,79.15l-3.19-1,1.4,14.57,5.25,1.68a15.82,15.82,0,0,0,10.25-.19L62.37,79.12A10.55,10.55,0,0,1,55.84,79.15Z"/><path class="b8b402d0-dd04-4068-a1d3-10e4b2fcd2a8" d="M79.34,39.9l15.35-4.25a16.14,16.14,0,0,0-5.42-14.13L75.92,31A10.67,10.67,0,0,1,79.34,39.9Z"/><polygon class="b8b402d0-dd04-4068-a1d3-10e4b2fcd2a8" points="63.85 26.13 71.8 14.57 59.85 10.73 56.48 23.77 63.85 26.13"/><path class="b8b402d0-dd04-4068-a1d3-10e4b2fcd2a8" d="M69.2,72.29a10.59,10.59,0,0,1-5.27,6.19l7.18,15.07A16,16,0,0,0,79.45,84l.92-2.86L69.71,70.69Z"/><polygon class="b8b402d0-dd04-4068-a1d3-10e4b2fcd2a8" points="73.36 59.34 85.59 64.92 89.35 53.2 75.68 52.12 73.36 59.34"/><polygon class="aa90b7a6-d07a-4dc5-a93c-837dcbaa3950" points="72.84 60.96 70.29 68.9 80.94 79.38 85.07 66.53 72.84 60.96"/><path class="aa90b7a6-d07a-4dc5-a93c-837dcbaa3950" d="M78.89,42.12l-2.68,8.35,13.67,1.08,4.18-13c.11-.35.19-.7.28-1L79,41.74C79,41.87,78.93,42,78.89,42.12Z"/><path class="b8b402d0-dd04-4068-a1d3-10e4b2fcd2a8" d="M26,69.58a10.37,10.37,0,0,1-2.51-1.2L10.18,77.89A15.75,15.75,0,0,0,14.35,80l10.23,3.28,8-11.56Z"/><polygon class="b8b402d0-dd04-4068-a1d3-10e4b2fcd2a8" points="27.76 29.44 17.11 18.96 12.98 31.8 25.21 37.38 27.76 29.44"/><polygon class="aa90b7a6-d07a-4dc5-a93c-837dcbaa3950" points="24.69 39 12.46 33.42 8.7 45.14 22.38 46.22 24.69 39"/><polygon class="aa90b7a6-d07a-4dc5-a93c-837dcbaa3950" points="34.2 72.2 26.25 83.77 38.2 87.61 41.58 74.57 34.2 72.2"/><path class="b8b402d0-dd04-4068-a1d3-10e4b2fcd2a8" d="M19.16,56.22l2.69-8.36L8.17,46.78,4,59.8c-.11.35-.19.7-.27,1.05l15.34-4.26C19.1,56.47,19.12,56.34,19.16,56.22Z"/><path class="aa90b7a6-d07a-4dc5-a93c-837dcbaa3950" d="M18.71,58.44,3.36,62.69A16.12,16.12,0,0,0,8.79,76.82L22.13,67.3A10.67,10.67,0,0,1,18.71,58.44Z"/><path class="aa90b7a6-d07a-4dc5-a93c-837dcbaa3950" d="M28.85,26.05a10.62,10.62,0,0,1,5.27-6.19L26.94,4.79a16,16,0,0,0-8.34,9.52l-.92,2.86L28.34,27.65Z"/><path class="b8b402d0-dd04-4068-a1d3-10e4b2fcd2a8" d="M42.21,19.18l3.19,1L44,5.64,38.75,4a16,16,0,0,0-10.25.19l7.19,15.08A10.52,10.52,0,0,1,42.21,19.18Z"/><polygon class="aa90b7a6-d07a-4dc5-a93c-837dcbaa3950" points="54.87 23.25 58.24 10.21 45.75 6.2 47.15 20.77 54.87 23.25"/><polygon class="b8b402d0-dd04-4068-a1d3-10e4b2fcd2a8" points="43.18 75.09 39.81 88.12 52.3 92.14 50.91 77.57 43.18 75.09"/><polygon class="b8b402d0-dd04-4068-a1d3-10e4b2fcd2a8" points="65.52 26.67 73.48 15.1 71.8 14.57 63.85 26.13 65.52 26.67"/><polygon class="bf74bae2-55bf-4e7b-8680-6cd7254d47b7" points="65.52 26.67 73.48 15.1 71.8 14.57 63.85 26.13 65.52 26.67"/><polygon class="b8b402d0-dd04-4068-a1d3-10e4b2fcd2a8" points="56.48 23.77 59.85 10.73 58.24 10.21 54.87 23.25 56.48 23.77"/><polygon class="b7f11fa0-3061-4ca3-a865-18707afa69e7" points="56.48 23.77 59.85 10.73 58.24 10.21 54.87 23.25 56.48 23.77"/><polygon class="b8b402d0-dd04-4068-a1d3-10e4b2fcd2a8" points="47.15 20.77 45.75 6.2 44 5.64 45.4 20.21 47.15 20.77"/><polygon class="b5e0cac0-3a2a-4acd-8f22-2f7d0e9ec65b" points="47.15 20.77 45.75 6.2 44 5.64 45.4 20.21 47.15 20.77"/><path class="b8b402d0-dd04-4068-a1d3-10e4b2fcd2a8" d="M35.69,19.22,28.5,4.14c-.53.19-1.05.41-1.56.65l7.18,15.07A10.14,10.14,0,0,1,35.69,19.22Z"/><path class="b0176725-0c41-49ef-9bfb-320d061ea8e8" d="M35.69,19.22,28.5,4.14c-.53.19-1.05.41-1.56.65l7.18,15.07A10.14,10.14,0,0,1,35.69,19.22Z"/><polygon class="b8b402d0-dd04-4068-a1d3-10e4b2fcd2a8" points="28.34 27.64 17.68 17.17 17.11 18.96 27.76 29.44 28.34 27.64"/><polygon class="eef885a7-bce2-4d19-9cb8-e3467c09770c" points="28.34 27.64 17.68 17.17 17.11 18.96 27.76 29.44 28.34 27.64"/><polygon class="b8b402d0-dd04-4068-a1d3-10e4b2fcd2a8" points="25.21 37.38 12.98 31.8 12.46 33.42 24.69 39 25.21 37.38"/><polygon class="ff5524f0-081e-4dad-b928-5a1b689d1bf1" points="25.21 37.38 12.98 31.8 12.46 33.42 24.69 39 25.21 37.38"/><polygon class="b8b402d0-dd04-4068-a1d3-10e4b2fcd2a8" points="22.38 46.22 8.7 45.14 8.17 46.78 21.85 47.87 22.38 46.22"/><polygon class="e07f75cf-3bf4-4463-ae38-e598d451196e" points="22.38 46.22 8.7 45.14 8.17 46.78 21.85 47.87 22.38 46.22"/><path class="b8b402d0-dd04-4068-a1d3-10e4b2fcd2a8" d="M19.06,56.59,3.72,60.85a14.58,14.58,0,0,0-.36,1.84l15.35-4.25A11,11,0,0,1,19.06,56.59Z"/><path class="bb8e6c2c-15c7-4adb-989a-5a3c66ffcef7" d="M19.06,56.59,3.72,60.85a14.58,14.58,0,0,0-.36,1.84l15.35-4.25A11,11,0,0,1,19.06,56.59Z"/><path class="b8b402d0-dd04-4068-a1d3-10e4b2fcd2a8" d="M22.13,67.3,8.79,76.82a14.64,14.64,0,0,0,1.39,1.07l13.34-9.51A10.35,10.35,0,0,1,22.13,67.3Z"/><path class="a8837935-1623-4839-9530-263df3bb17bc" d="M22.13,67.3,8.79,76.82a14.64,14.64,0,0,0,1.39,1.07l13.34-9.51A10.35,10.35,0,0,1,22.13,67.3Z"/><polygon class="b8b402d0-dd04-4068-a1d3-10e4b2fcd2a8" points="32.53 71.67 24.58 83.23 26.25 83.77 34.2 72.2 32.53 71.67"/><polygon class="bb0a9636-e7fa-4be5-98d4-20518effbf0e" points="32.53 71.67 24.58 83.23 26.25 83.77 34.2 72.2 32.53 71.67"/><polygon class="b8b402d0-dd04-4068-a1d3-10e4b2fcd2a8" points="41.58 74.57 38.2 87.61 39.81 88.12 43.18 75.09 41.58 74.57"/><polygon class="abe6548d-c217-42c8-9c95-3288f36db921" points="41.58 74.57 38.2 87.61 39.81 88.12 43.18 75.09 41.58 74.57"/><polygon class="b8b402d0-dd04-4068-a1d3-10e4b2fcd2a8" points="50.91 77.57 52.3 92.14 54.05 92.7 52.65 78.13 50.91 77.57"/><polygon class="f907a092-f815-4c33-857c-3ad8a9e18040" points="50.91 77.57 52.3 92.14 54.05 92.7 52.65 78.13 50.91 77.57"/><path class="b8b402d0-dd04-4068-a1d3-10e4b2fcd2a8" d="M62.37,79.12l7.18,15.07c.53-.19,1-.4,1.56-.64L63.93,78.48A11.11,11.11,0,0,1,62.37,79.12Z"/><path class="abe5ac27-a537-4640-8665-5bdd404e4fdc" d="M62.37,79.12l7.18,15.07c.53-.19,1-.4,1.56-.64L63.93,78.48A11.11,11.11,0,0,1,62.37,79.12Z"/><polygon class="b8b402d0-dd04-4068-a1d3-10e4b2fcd2a8" points="69.71 70.69 80.37 81.17 80.94 79.38 70.29 68.9 69.71 70.69"/><polygon class="a44fcda7-b814-4678-b0e9-8b65f7f528c5" points="69.71 70.69 80.37 81.17 80.94 79.38 70.29 68.9 69.71 70.69"/><polygon class="b8b402d0-dd04-4068-a1d3-10e4b2fcd2a8" points="72.84 60.96 85.07 66.53 85.59 64.92 73.36 59.34 72.84 60.96"/><polygon class="ae438dad-fa26-4b5a-841e-a0b7e61257ba" points="72.84 60.96 85.07 66.53 85.59 64.92 73.36 59.34 72.84 60.96"/><polygon class="b8b402d0-dd04-4068-a1d3-10e4b2fcd2a8" points="75.68 52.12 89.35 53.2 89.88 51.55 76.21 50.47 75.68 52.12"/><polygon class="a3e7ae01-4781-49a6-86c4-a7a2d889670a" points="75.68 52.12 89.35 53.2 89.88 51.55 76.21 50.47 75.68 52.12"/><path class="b8b402d0-dd04-4068-a1d3-10e4b2fcd2a8" d="M79,41.74l15.35-4.25a17,17,0,0,0,.35-1.84L79.34,39.9A10.84,10.84,0,0,1,79,41.74Z"/><path class="bd44ff01-ee78-4def-9c19-4d60d4b11e94" d="M79,41.74l15.35-4.25a17,17,0,0,0,.35-1.84L79.34,39.9A10.84,10.84,0,0,1,79,41.74Z"/><path class="b8b402d0-dd04-4068-a1d3-10e4b2fcd2a8" d="M75.92,31l13.35-9.51a16.76,16.76,0,0,0-1.4-1.08L74.53,30A11.16,11.16,0,0,1,75.92,31Z"/><path class="e3f56488-9624-4595-ab38-f19be0e8e8e2" d="M75.92,31l13.35-9.51a16.76,16.76,0,0,0-1.4-1.08L74.53,30A11.16,11.16,0,0,1,75.92,31Z"/><path class="bce05dfe-2bc4-4605-867a-952dc8c1a395" d="M82.52,55.91l-7.39,23a12.63,12.63,0,0,1-15.9,8.17L33.59,78.87"/><path class="af2cab82-9c5d-4b72-b9dd-36f542ea616c" d="M34,3.25a15.73,15.73,0,0,1,4.9.78L83.62,18.6A16,16,0,0,1,93.84,38.73L79.08,84A16,16,0,0,1,63.87,95,15.84,15.84,0,0,1,59,94.26L14.26,79.7A16,16,0,0,1,4,59.57L18.8,14.27A16,16,0,0,1,34,3.25M34,0a19.19,19.19,0,0,0-18.3,13.27L1,58.56a19.26,19.26,0,0,0,12.3,24.23L58,97.35a18.84,18.84,0,0,0,5.91,1A19.21,19.21,0,0,0,82.17,85l14.76-45.3a19.25,19.25,0,0,0-12.3-24.22L39.92.94A19.13,19.13,0,0,0,34,0Z"/></g></g></svg>