<svg xmlns="http://www.w3.org/2000/svg" xmlns:xlink="http://www.w3.org/1999/xlink" viewBox="0 0 54.62 51.45"><defs><style>.b961ee0b-5cbe-4a0c-90f3-e0037b95d235{fill:#6fbfe4;}.bdb2a22f-ad21-42ba-b81d-3a26f24b1626{fill:#b8e2f9;}.ed65ed3e-7873-48fe-84a9-361f68227cf8{fill:#bddda9;}.bb5f4ef9-bc4d-4616-b58f-a50dd8caf3e3{fill:url(#afaf9a3d-11d0-4769-b298-f853d5f8e222);}.e3f83cd0-ac1b-4a63-aeca-124f44deb5d3{fill:url(#e366bd96-25e2-4a68-b191-9199ee970232);}.a6a60df7-7851-467c-9505-0bc429f26207{fill:#fff;}.e3122966-1909-4f11-8811-29ff2a513e2e{fill:none;stroke:#fff;stroke-linecap:round;stroke-miterlimit:10;stroke-width:1.34px;}</style><radialGradient id="afaf9a3d-11d0-4769-b298-f853d5f8e222" cx="-871.82" cy="425.02" r="22.11" gradientTransform="translate(890.71 468.13) rotate(53.56)" gradientUnits="userSpaceOnUse"><stop offset="0" stop-color="#fff" stop-opacity="0"/><stop offset="0.27" stop-color="#cbe0e7" stop-opacity="0.19"/><stop offset="0.84" stop-color="#4891aa" stop-opacity="0.66"/><stop offset="1" stop-color="#237a99" stop-opacity="0.8"/></radialGradient><radialGradient id="e366bd96-25e2-4a68-b191-9199ee970232" cx="-876" cy="417.13" r="24.46" gradientTransform="translate(890.71 468.13) rotate(53.56)" gradientUnits="userSpaceOnUse"><stop offset="0" stop-color="#fff"/><stop offset="0.01" stop-color="#fdfeff" stop-opacity="0.98"/><stop offset="0.09" stop-color="#e6f5fd" stop-opacity="0.78"/><stop offset="0.17" stop-color="#d1edfb" stop-opacity="0.59"/><stop offset="0.26" stop-color="#c0e6f9" stop-opacity="0.43"/><stop offset="0.35" stop-color="#b0e0f8" stop-opacity="0.3"/><stop offset="0.45" stop-color="#a4dbf7" stop-opacity="0.19"/><stop offset="0.55" stop-color="#9bd8f6" stop-opacity="0.11"/><stop offset="0.67" stop-color="#94d5f5" stop-opacity="0.05"/><stop offset="0.8" stop-color="#90d3f5" stop-opacity="0.01"/><stop offset="1" stop-color="#8fd3f5" stop-opacity="0"/></radialGradient></defs><title>4</title><g id="ab2b2535-1816-4d6b-9b62-4fd28ead09b3" data-name="圖層 2"><g id="a8fd3d82-dde3-40e7-98f7-8645bdaa47a4" data-name="圖層 1"><path class="b961ee0b-5cbe-4a0c-90f3-e0037b95d235" d="M52.63,8.77a5.07,5.07,0,0,0-5.22-7.06L6.28,6.27a5.07,5.07,0,0,0-3.52,8.06L27.42,47.74a5.08,5.08,0,0,0,8.74-1Z"/><path class="bdb2a22f-ad21-42ba-b81d-3a26f24b1626" d="M52.62,8.77a5.07,5.07,0,0,0-5.21-7.06L41,2.42,4.64,6.74a5.09,5.09,0,0,0-1.89,7.59L4,16l48-5.7Z"/><path class="ed65ed3e-7873-48fe-84a9-361f68227cf8" d="M6.28,6.27a5.38,5.38,0,0,0-1.64.47L41,2.42Z"/><polygon class="bdb2a22f-ad21-42ba-b81d-3a26f24b1626" points="47.75 20 10.23 24.46 16.48 32.91 43.55 29.69 47.75 20"/><path class="bdb2a22f-ad21-42ba-b81d-3a26f24b1626" d="M36.16,46.74l3.19-7.35-16.63,2,4.7,6.37a5,5,0,0,0,2.9,1.92l3.49-.41A5.08,5.08,0,0,0,36.16,46.74Z"/><path class="ed65ed3e-7873-48fe-84a9-361f68227cf8" d="M33.81,49.24l-3.49.41A5.14,5.14,0,0,0,33.81,49.24Z"/><path class="bb5f4ef9-bc4d-4616-b58f-a50dd8caf3e3" d="M52.54,8.76A5.07,5.07,0,0,0,47.32,1.7L6.19,6.26a5.07,5.07,0,0,0-3.52,8.06l24.66,33.4a5.07,5.07,0,0,0,8.74-1Z"/><path class="e3f83cd0-ac1b-4a63-aeca-124f44deb5d3" d="M52.54,8.76A5.07,5.07,0,0,0,47.32,1.7L6.19,6.26a5.07,5.07,0,0,0-3.52,8.06l24.66,33.4a5.07,5.07,0,0,0,8.74-1Z"/><path class="a6a60df7-7851-467c-9505-0bc429f26207" d="M47.9,1.66a5.08,5.08,0,0,1,4.64,7.1l-16.47,38a5.08,5.08,0,0,1-8.74,1L2.67,14.32A5.07,5.07,0,0,1,6.19,6.26L47.32,1.7a3.86,3.86,0,0,1,.58,0M47.9,0a6.45,6.45,0,0,0-.76,0L6,4.61a6.73,6.73,0,0,0-4.68,10.7L26,48.71a6.68,6.68,0,0,0,5.41,2.74,6.76,6.76,0,0,0,6.2-4.06l16.46-38A6.74,6.74,0,0,0,47.9,0Z"/><path class="e3122966-1909-4f11-8811-29ff2a513e2e" d="M33.17,7.38,11,9.64a3.43,3.43,0,0,0-2.41,5.45l8.85,12"/></g></g></svg>