<svg xmlns="http://www.w3.org/2000/svg" xmlns:xlink="http://www.w3.org/1999/xlink" viewBox="0 0 96.77 88.78"><defs><style>.ac74d6f1-7d5f-446f-967c-04b5700b9957{fill:url(#ab28049a-d94c-4ef4-a969-027bf8d35912);}.b61eb482-4d24-4559-83cc-bee5689d3984{fill:none;stroke:#fff;stroke-miterlimit:10;stroke-width:2.45px;}.b2c41012-6356-4d78-9df5-bc17b7cf869c{fill:url(#ee5fc0fd-65fa-4c76-b321-d9152f740059);}.a20ffc25-11c7-45aa-911c-0a3a98051965{opacity:0.49;fill:url(#aa9e1a7a-751c-4d59-a6ab-df2525115d59);}.ad77e20d-896b-4ee3-80ec-b517447fbadb{fill:#fff;}</style><radialGradient id="ab28049a-d94c-4ef4-a969-027bf8d35912" cx="49.63" cy="44.04" r="43.14" gradientUnits="userSpaceOnUse"><stop offset="0" stop-color="#fffcd7"/><stop offset="0.11" stop-color="#eef2bf"/><stop offset="0.42" stop-color="#c1d87e"/><stop offset="0.68" stop-color="#a1c44e"/><stop offset="0.89" stop-color="#8db831"/><stop offset="1" stop-color="#85b426"/></radialGradient><radialGradient id="ee5fc0fd-65fa-4c76-b321-d9152f740059" cx="34.79" cy="28.27" r="40.99" gradientUnits="userSpaceOnUse"><stop offset="0" stop-color="#fff"/><stop offset="0.34" stop-color="#f1f4e6" stop-opacity="0.62"/><stop offset="0.67" stop-color="#e5ead1" stop-opacity="0.29"/><stop offset="0.89" stop-color="#dde4c3" stop-opacity="0.08"/><stop offset="1" stop-color="#dae2be" stop-opacity="0"/></radialGradient><radialGradient id="aa9e1a7a-751c-4d59-a6ab-df2525115d59" cx="48.58" cy="43.44" r="36.47" gradientUnits="userSpaceOnUse"><stop offset="0" stop-color="#fff" stop-opacity="0"/><stop offset="0.41" stop-color="#fdfefc" stop-opacity="0.01"/><stop offset="0.56" stop-color="#f8f9f3" stop-opacity="0.06"/><stop offset="0.67" stop-color="#eef1e2" stop-opacity="0.13"/><stop offset="0.75" stop-color="#e0e6ca" stop-opacity="0.24"/><stop offset="0.83" stop-color="#cdd7ab" stop-opacity="0.39"/><stop offset="0.89" stop-color="#b7c585" stop-opacity="0.57"/><stop offset="0.95" stop-color="#9cb058" stop-opacity="0.77"/><stop offset="1" stop-color="#7f9927"/></radialGradient></defs><title>6</title><g id="bd5d41c6-0e5b-415c-ab7e-c0a0336f266c" data-name="圖層 2"><g id="b7614dc6-1624-42ca-97b5-0280012c8544" data-name="圖層 1"><path class="ac74d6f1-7d5f-446f-967c-04b5700b9957" d="M76.1,10.45A14.17,14.17,0,0,0,63.8,3.33H33a14.17,14.17,0,0,0-12.3,7.12L5.21,37.31a14.21,14.21,0,0,0,0,14.16L20.67,78.34A14.19,14.19,0,0,0,33,85.46H63.8a14.19,14.19,0,0,0,12.3-7.12L91.56,51.47a14.21,14.21,0,0,0,0-14.16Z"/><path class="b61eb482-4d24-4559-83cc-bee5689d3984" d="M72,15.5A12.09,12.09,0,0,0,61.5,9.44H35.27A12.09,12.09,0,0,0,24.79,15.5L11.64,38.37a12.06,12.06,0,0,0,0,12.05L24.79,73.28a12.09,12.09,0,0,0,10.48,6.06H61.5A12.09,12.09,0,0,0,72,73.28L85.13,50.42a12.06,12.06,0,0,0,0-12.05Z"/><path class="b2c41012-6356-4d78-9df5-bc17b7cf869c" d="M76.1,10.45A14.17,14.17,0,0,0,63.8,3.33H33a14.17,14.17,0,0,0-12.3,7.12L5.21,37.31a14.21,14.21,0,0,0,0,14.16L20.67,78.34A14.19,14.19,0,0,0,33,85.46H63.8a14.19,14.19,0,0,0,12.3-7.12L91.56,51.47a14.21,14.21,0,0,0,0-14.16Z"/><polyline class="b61eb482-4d24-4559-83cc-bee5689d3984" points="29.35 11 48.38 44.39 67.42 11"/><polyline class="b61eb482-4d24-4559-83cc-bee5689d3984" points="9.94 44.18 48.38 44.39 28.98 11.21"/><polyline class="b61eb482-4d24-4559-83cc-bee5689d3984" points="28.98 77.58 48.38 44.39 9.94 44.6"/><polyline class="b61eb482-4d24-4559-83cc-bee5689d3984" points="67.42 77.79 48.38 44.39 29.35 77.79"/><polyline class="b61eb482-4d24-4559-83cc-bee5689d3984" points="86.83 44.6 48.38 44.39 67.79 77.58"/><path class="a20ffc25-11c7-45aa-911c-0a3a98051965" d="M76.1,10.45A14.17,14.17,0,0,0,63.8,3.33H33a14.17,14.17,0,0,0-12.3,7.12L5.21,37.31a14.21,14.21,0,0,0,0,14.16L20.67,78.34A14.19,14.19,0,0,0,33,85.46H63.8a14.19,14.19,0,0,0,12.3-7.12L91.56,51.47a14.21,14.21,0,0,0,0-14.16Z"/><path class="ad77e20d-896b-4ee3-80ec-b517447fbadb" d="M63.8,3.33a14.17,14.17,0,0,1,12.3,7.12L91.56,37.31a14.21,14.21,0,0,1,0,14.16L76.1,78.34a14.19,14.19,0,0,1-12.3,7.12H33a14.19,14.19,0,0,1-12.3-7.12L5.21,51.47a14.21,14.21,0,0,1,0-14.16L20.67,10.45A14.17,14.17,0,0,1,33,3.33H63.8M63.8,0H33A17.58,17.58,0,0,0,17.78,8.79L2.33,35.65a17.54,17.54,0,0,0,0,17.48L17.78,80A17.57,17.57,0,0,0,33,88.78H63.8A17.57,17.57,0,0,0,79,80L94.44,53.13a17.54,17.54,0,0,0,0-17.48L79,8.79A17.58,17.58,0,0,0,63.8,0Z"/></g></g></svg>