<svg xmlns="http://www.w3.org/2000/svg" xmlns:xlink="http://www.w3.org/1999/xlink" viewBox="0 0 65.6 88.98"><defs><style>.a378ad52-8415-442f-bd0b-5578b384070c{fill:url(#e45f0d2e-bac6-40dd-ad0d-4ec8254f7085);}.a6a2abac-bd75-4711-a3c2-7a58af1ceeed{fill:url(#a37804f3-be75-4ab7-b5c7-cfd05125c357);}.b3129cc1-8058-4010-93c7-befbe50b068e{fill:url(#e222d4c1-3908-4dd8-a0de-b51a072b559b);}.a50c7c6c-f0ba-4e95-9382-897eddd4bc61{fill:url(#f8b9c06f-e700-41c2-a48c-d162b2e1ade0);}.ea21d54f-1a7a-4c3f-9b74-a048e2c6d918{fill:none;stroke:#2c2321;stroke-linecap:round;stroke-miterlimit:10;stroke-width:2.24px;}.bc61b2f3-9af0-4a8f-a204-d2ebb72da525{fill:#fff;}.b5ef012c-b92d-4b5c-a4a9-ae8529fa6ccb{fill:#b91904;}.ae2acdd3-25d2-4b12-a82c-1608c66d0708{fill:#ef7a00;}</style><radialGradient id="e45f0d2e-bac6-40dd-ad0d-4ec8254f7085" cx="622.91" cy="145.08" r="28.32" gradientTransform="translate(-596.21 171.96) rotate(-23.54)" gradientUnits="userSpaceOnUse"><stop offset="0" stop-color="#949495"/><stop offset="1" stop-color="#352f2d"/></radialGradient><linearGradient id="a37804f3-be75-4ab7-b5c7-cfd05125c357" x1="616.06" y1="115.49" x2="629.76" y2="115.49" gradientTransform="translate(-601.92 -86.43)" gradientUnits="userSpaceOnUse"><stop offset="0" stop-color="#352f2d"/><stop offset="0.35" stop-color="#636262"/><stop offset="0.56" stop-color="#afafb0"/><stop offset="1" stop-color="#352f2d"/></linearGradient><radialGradient id="e222d4c1-3908-4dd8-a0de-b51a072b559b" cx="622.91" cy="111.16" r="6.85" gradientTransform="translate(-603.65 -8.26) scale(1 0.3)" gradientUnits="userSpaceOnUse"><stop offset="0" stop-color="#afafb0"/><stop offset="1" stop-color="#352f2d"/></radialGradient><radialGradient id="f8b9c06f-e700-41c2-a48c-d162b2e1ade0" cx="624.82" cy="143.09" r="12.8" gradientTransform="translate(-596.21 171.96) rotate(-23.54)" gradientUnits="userSpaceOnUse"><stop offset="0" stop-color="#feda5a"/><stop offset="0.5" stop-color="#e66d3c"/><stop offset="1" stop-color="#ca2120"/></radialGradient></defs><title>7</title><g id="a073f9e0-8fc3-473e-9e74-a17b0d5da52e" data-name="圖層 2"><g id="a5794f40-aa4d-4cfc-92df-b992527d678d" data-name="圖層 1"><circle class="a378ad52-8415-442f-bd0b-5578b384070c" cx="32.81" cy="56.18" r="28.32"/><path class="a6a2abac-bd75-4711-a3c2-7a58af1ceeed" d="M14.14,24.73h13.7a0,0,0,0,1,0,0v7.86a.8.8,0,0,1-.8.8H14.94a.8.8,0,0,1-.8-.8V24.73a0,0,0,0,1,0,0Z" transform="translate(-9.86 10.8) rotate(-23.54)"/><ellipse class="b3129cc1-8058-4010-93c7-befbe50b068e" cx="19.26" cy="25.09" rx="6.85" ry="2.17" transform="translate(-8.42 9.78) rotate(-23.54)"/><polygon class="a50c7c6c-f0ba-4e95-9382-897eddd4bc61" points="22.8 54.24 14.58 44.81 27.46 45.97 31.07 38.71 35.79 45.19 44.64 39.37 42.67 49.78 52.5 57.42 42.41 57.89 39.69 72.49 29.94 62.24 21.68 69.09 24.2 60.27 13.51 59.37 22.8 54.24"/><path class="ea21d54f-1a7a-4c3f-9b74-a048e2c6d918" d="M19.08,24.68s-1.32-7.25,9.08-8.43C39.21,15,39.6,10.78,39.6,10.78"/><path class="bc61b2f3-9af0-4a8f-a204-d2ebb72da525" d="M39.6,9.69h.15a1.08,1.08,0,0,1,1,1.18c0,.53-.81,5.16-12.42,6.48-3.39.38-5.76,1.46-7.06,3.21a5.45,5.45,0,0,0-.86,1.8,12.08,12.08,0,0,1,3.48-.66c.89,0,1.5.21,1.69.64l2.58,5.92a28.32,28.32,0,1,1-12.56,5.47L13,27.82c-.45-1,1.75-3,5-4.5a7.73,7.73,0,0,1,1.5-4.08C21.12,17,24,15.59,28,15.14c9.72-1.11,10.45-4.48,10.45-4.51a1.15,1.15,0,0,1,1.11-.94m0-4.48a5.6,5.6,0,0,0-5.21,3.58c-.5.36-2.24,1.38-6.86,1.9-5.3.6-9.23,2.58-11.69,5.89A12,12,0,0,0,14,20.35c-4.59,2.69-6.47,6-5.08,9.26l1.26,2.89a32.81,32.81,0,1,0,22.67-9.09c-.64,0-1.27,0-1.91.06l-.8-1.84C43.36,19.74,45,13.27,45.17,11.28a5.55,5.55,0,0,0-4.81-6,4.77,4.77,0,0,0-.76-.06Z"/><path class="b5ef012c-b92d-4b5c-a4a9-ae8529fa6ccb" d="M37.31,8.38a.86.86,0,0,1-.53-.19L33.65,5.62a.84.84,0,1,1,1.06-1.3L37.84,6.9A.84.84,0,0,1,38,8.08a.79.79,0,0,1-.31.23A.8.8,0,0,1,37.31,8.38Z"/><path class="bc61b2f3-9af0-4a8f-a204-d2ebb72da525" d="M34.18,4.41a.55.55,0,0,1,.36.13l3.13,2.57a.57.57,0,0,1,.07.79.56.56,0,0,1-.21.16.54.54,0,0,1-.22,0A.53.53,0,0,1,37,8L33.82,5.4a.56.56,0,0,1,.36-1m0-.56h0a1.12,1.12,0,0,0-.71,2L36.6,8.41a1.15,1.15,0,0,0,1.16.16,1.18,1.18,0,0,0,.42-.32,1.13,1.13,0,0,0,.24-.81,1.08,1.08,0,0,0-.4-.76L34.89,4.11a1.09,1.09,0,0,0-.71-.26Z"/><path class="ae2acdd3-25d2-4b12-a82c-1608c66d0708" d="M38.65,7.42a.84.84,0,0,1-.78-.54L35.81,1.41A.88.88,0,0,1,36.28.34,1,1,0,0,1,36.6.28a.85.85,0,0,1,.78.54l2.06,5.47A.84.84,0,0,1,39,7.35,1,1,0,0,1,38.65,7.42Z"/><path class="bc61b2f3-9af0-4a8f-a204-d2ebb72da525" d="M36.6.56a.56.56,0,0,1,.52.36l2.06,5.47a.56.56,0,0,1-.31.71h0a.69.69,0,0,1-.2,0,.56.56,0,0,1-.52-.36L36.07,1.32A.61.61,0,0,1,36.4.59a.64.64,0,0,1,.2,0m0-.56a1,1,0,0,0-.39.07h-.06a1.16,1.16,0,0,0-.6,1.42L37.6,7a1.14,1.14,0,0,0,1,.72A1,1,0,0,0,39,7.63h0l0,0a1.12,1.12,0,0,0,.6-1.42L37.64.72a1.12,1.12,0,0,0-1-.72Z"/><path class="b5ef012c-b92d-4b5c-a4a9-ae8529fa6ccb" d="M40.15,7.25a.81.81,0,0,1-.54-.34.85.85,0,0,1-.15-.62l.66-4a.84.84,0,0,1,.83-.7h.14a.84.84,0,0,1,.69,1l-.66,4a.83.83,0,0,1-.5.63.75.75,0,0,1-.33.07Z"/><path class="bc61b2f3-9af0-4a8f-a204-d2ebb72da525" d="M41,1.87H41a.56.56,0,0,1,.46.65l-.66,4a.57.57,0,0,1-.33.43.54.54,0,0,1-.22,0H40.2a.56.56,0,0,1-.46-.65l.66-4A.55.55,0,0,1,41,1.87m0-.56h0a1.11,1.11,0,0,0-1.1.94l-.66,4a1.12,1.12,0,0,0,.92,1.29h.18a1.2,1.2,0,0,0,.45-.09,1.1,1.1,0,0,0,.65-.85l.66-4a1.12,1.12,0,0,0-.92-1.29Z"/><path class="ae2acdd3-25d2-4b12-a82c-1608c66d0708" d="M41.79,7.94a.82.82,0,0,1-.53-.19.84.84,0,0,1-.12-1.18L45.5,1.26a.87.87,0,0,1,.65-.3.84.84,0,0,1,.65,1.37L42.44,7.64a.9.9,0,0,1-.32.23A.75.75,0,0,1,41.79,7.94Z"/><path class="bc61b2f3-9af0-4a8f-a204-d2ebb72da525" d="M46.15,1.24a.56.56,0,0,1,.43.91L42.22,7.46a.65.65,0,0,1-.21.16.57.57,0,0,1-.22,0,.56.56,0,0,1-.43-.91l4.36-5.31a.57.57,0,0,1,.43-.2m0-.56h0a1.13,1.13,0,0,0-.86.4L40.93,6.39a1.1,1.1,0,0,0-.25.82,1.08,1.08,0,0,0,.4.76,1.14,1.14,0,0,0,.71.25,1.2,1.2,0,0,0,.45-.09,1.07,1.07,0,0,0,.41-.32L47,2.51a1.1,1.1,0,0,0,.25-.82,1.12,1.12,0,0,0-.4-.76,1.14,1.14,0,0,0-.71-.25Z"/><path class="b5ef012c-b92d-4b5c-a4a9-ae8529fa6ccb" d="M42.75,9.28a.84.84,0,0,1-.32-1.61l3.82-1.44a.93.93,0,0,1,.29-.05.84.84,0,0,1,.34,1.61L43,9.23A.93.93,0,0,1,42.75,9.28Z"/><path class="bc61b2f3-9af0-4a8f-a204-d2ebb72da525" d="M46.54,6.46a.56.56,0,0,1,.22,1.07h0L42.94,9a.63.63,0,0,1-.19,0,.56.56,0,0,1-.2-1.08l3.79-1.43a.69.69,0,0,1,.2,0m0-.56a1.07,1.07,0,0,0-.39.07L42.35,7.4h0a1.11,1.11,0,0,0,.44,2.14,1.07,1.07,0,0,0,.39-.07l3.8-1.43h0l0,0a1.12,1.12,0,0,0,.6-1.42,1.14,1.14,0,0,0-1.05-.72Z"/><path class="ae2acdd3-25d2-4b12-a82c-1608c66d0708" d="M49.9,12.09l-7.13-1.18a.87.87,0,0,1-.55-.34.83.83,0,0,1-.14-.63.84.84,0,0,1,.82-.7H43l7.13,1.19a.79.79,0,0,1,.55.34.8.8,0,0,1,.14.62.84.84,0,0,1-.49.63.8.8,0,0,1-.34.07Z"/><path class="bc61b2f3-9af0-4a8f-a204-d2ebb72da525" d="M42.91,9.52H43l7.12,1.18a.55.55,0,0,1,.46.64.58.58,0,0,1-.32.43.59.59,0,0,1-.23,0h-.09l-7.12-1.18a.56.56,0,0,1,.09-1.11m0-.56h0a1.12,1.12,0,0,0-1.11.94,1.12,1.12,0,0,0,.93,1.28l7.12,1.19H50a1.11,1.11,0,0,0,.91-1.77,1.11,1.11,0,0,0-.73-.45L43.09,9l-.18,0Z"/><path class="b5ef012c-b92d-4b5c-a4a9-ae8529fa6ccb" d="M45.36,15a.87.87,0,0,1-.54-.19l-3.13-2.57a.85.85,0,0,1-.11-1.18.83.83,0,0,1,.65-.31.86.86,0,0,1,.53.19l3.13,2.58A.84.84,0,0,1,46,14.69a.9.9,0,0,1-.32.23A.75.75,0,0,1,45.36,15Z"/><path class="bc61b2f3-9af0-4a8f-a204-d2ebb72da525" d="M42.23,11a.53.53,0,0,1,.35.13l3.13,2.57a.56.56,0,0,1,.08.79.65.65,0,0,1-.21.16.57.57,0,0,1-.22,0,.55.55,0,0,1-.36-.13L41.87,12a.56.56,0,0,1,.36-1m0-.56h0a1.1,1.1,0,0,0-.86.41,1.11,1.11,0,0,0-.26.82,1.13,1.13,0,0,0,.41.75L44.65,15a1.14,1.14,0,0,0,.71.25,1.12,1.12,0,0,0,.44-.09,1,1,0,0,0,.42-.32,1.09,1.09,0,0,0,.25-.81,1.12,1.12,0,0,0-.4-.76l-3.13-2.57a1.09,1.09,0,0,0-.71-.26Z"/></g></g></svg>