<svg xmlns="http://www.w3.org/2000/svg" xmlns:xlink="http://www.w3.org/1999/xlink" viewBox="0 0 79.23 78.83"><defs><style>.a3ccdba7-6a49-4f92-927c-0af865da3327{fill:#9783b5;}.a963a3e1-60b0-405f-9b95-12aaa13cbed7{fill:#fff;}.bbbef7a8-a2be-4e53-9aed-6c9d69987cb9{fill:#b9a9d2;}.ea4887ef-c65f-49e3-9f61-d14a4e0c3390{fill:#bddda9;}.ef74d7c9-a9ab-4db1-97a3-537c8d631055{fill:url(#e229300a-7f0e-4fd1-a795-4d746f3eb92d);}.ead1561c-532b-4387-a28e-7c1d02d2c519{fill:url(#b5311460-8845-4e2e-a35a-a218d9ab2a23);}.b6409537-c06a-4712-a32e-c78c833dd5b6{fill:none;stroke:#fff;stroke-linecap:round;stroke-linejoin:round;stroke-width:2.02px;}</style><radialGradient id="e229300a-7f0e-4fd1-a795-4d746f3eb92d" cx="-923.74" cy="687.41" r="34.09" gradientTransform="translate(1184.91 207.96) rotate(45.46)" gradientUnits="userSpaceOnUse"><stop offset="0" stop-color="#fff" stop-opacity="0"/><stop offset="0.33" stop-color="#ccc8d8" stop-opacity="0.23"/><stop offset="1" stop-color="#51437b" stop-opacity="0.8"/></radialGradient><radialGradient id="b5311460-8845-4e2e-a35a-a218d9ab2a23" cx="-930.17" cy="675.24" r="37.71" gradientTransform="translate(1184.91 207.96) rotate(45.46)" gradientUnits="userSpaceOnUse"><stop offset="0" stop-color="#fff"/><stop offset="0.01" stop-color="#fcfcfd" stop-opacity="0.98"/><stop offset="0.09" stop-color="#dfdae6" stop-opacity="0.78"/><stop offset="0.17" stop-color="#c5bbd1" stop-opacity="0.59"/><stop offset="0.26" stop-color="#aea1bf" stop-opacity="0.43"/><stop offset="0.35" stop-color="#9b8bb0" stop-opacity="0.3"/><stop offset="0.45" stop-color="#8b79a3" stop-opacity="0.19"/><stop offset="0.55" stop-color="#7f6b9a" stop-opacity="0.11"/><stop offset="0.67" stop-color="#776193" stop-opacity="0.05"/><stop offset="0.8" stop-color="#725b8f" stop-opacity="0.01"/><stop offset="1" stop-color="#70598e" stop-opacity="0"/></radialGradient></defs><title>8</title><g id="bab8277a-f416-4eb4-9833-653641e4fc9c" data-name="圖層 2"><g id="ef2c08d7-0ff1-4dd1-8181-2a32ca80a59a" data-name="圖層 1"><path class="a3ccdba7-6a49-4f92-927c-0af865da3327" d="M53.35,78a8.38,8.38,0,0,1-6-2.54L3.41,30.83A8.49,8.49,0,0,1,7.35,16.66L67.79,1.11A8.74,8.74,0,0,1,69.94.84,8.5,8.5,0,0,1,76.66,4.2a8.4,8.4,0,0,1,1.43,7.38L61.56,71.76A8.41,8.41,0,0,1,53.35,78Z"/><path class="a963a3e1-60b0-405f-9b95-12aaa13cbed7" d="M69.94,1.67a7.66,7.66,0,0,1,7.34,9.69L60.76,71.54a7.63,7.63,0,0,1-7.41,5.63,7.51,7.51,0,0,1-5.42-2.29L4,30.25A7.65,7.65,0,0,1,7.56,17.47L68,1.92a7.65,7.65,0,0,1,1.94-.25m0-1.67a9.5,9.5,0,0,0-2.36.31L7.14,15.86A9.31,9.31,0,0,0,2.82,31.42L46.74,76.05A9.32,9.32,0,0,0,62.37,72L78.89,11.8a9.24,9.24,0,0,0-1.56-8.11A9.38,9.38,0,0,0,69.94,0Z"/><path class="bbbef7a8-a2be-4e53-9aed-6c9d69987cb9" d="M6.22,33.33a.86.86,0,0,1-.6-.25L3.41,30.83a8.49,8.49,0,0,1,1.34-13A1.12,1.12,0,0,1,5,17.71L58.36,3.53l9.43-2.42A8.3,8.3,0,0,1,69.94.83a8.53,8.53,0,0,1,6.72,3.36,8.41,8.41,0,0,1,1.42,7.38L77.41,14a.83.83,0,0,1-.58.58L6.43,33.3A.76.76,0,0,1,6.22,33.33Z"/><path class="a963a3e1-60b0-405f-9b95-12aaa13cbed7" d="M69.94,1.66a7.66,7.66,0,0,1,7.34,9.69l-.67,2.44L6.22,32.5,4,30.25A7.66,7.66,0,0,1,5.21,18.52L58.57,4.34,68,1.91a7.79,7.79,0,0,1,2-.25m0-1.66a9.49,9.49,0,0,0-2.36.3L58.15,2.73,4.79,16.91a1.73,1.73,0,0,0-.5.22A9.31,9.31,0,0,0,.19,24a9.2,9.2,0,0,0,2.63,7.46L5,33.66a1.69,1.69,0,0,0,1.19.5,1.52,1.52,0,0,0,.42-.06L77,15.39a1.67,1.67,0,0,0,1.18-1.16l.67-2.44a9.24,9.24,0,0,0-1.57-8.1A9.35,9.35,0,0,0,69.94,0Z"/><path class="ea4887ef-c65f-49e3-9f61-d14a4e0c3390" d="M5.21,19.35a.83.83,0,0,1-.46-1.53,8.56,8.56,0,0,1,2.59-1.16l51-13.13a.75.75,0,0,1,.21,0,.81.81,0,0,1,.8.62.82.82,0,0,1-.59,1L5.43,19.32A.83.83,0,0,1,5.21,19.35Z"/><path class="a963a3e1-60b0-405f-9b95-12aaa13cbed7" d="M58.57,4.34h0m0,0L5.21,18.52a7.54,7.54,0,0,1,2.34-1.05l51-13.13m0-1.67-.21,0a.93.93,0,0,0-.24.05l-51,13.11a9.47,9.47,0,0,0-2.85,1.28,1.67,1.67,0,0,0,.92,3.05,2.1,2.1,0,0,0,.43-.05L59,6a1.68,1.68,0,0,0,1.28-1.62A1.66,1.66,0,0,0,58.7,2.68Zm0,3.33Z"/><path class="bbbef7a8-a2be-4e53-9aed-6c9d69987cb9" d="M28.44,55.91a.82.82,0,0,1-.59-.25L16.73,44.37a.87.87,0,0,1-.21-.8.85.85,0,0,1,.59-.59L72.18,28.35a.76.76,0,0,1,.21,0,.86.86,0,0,1,.6.25.84.84,0,0,1,.21.8L69,44.74a.84.84,0,0,1-.59.58L28.65,55.88Z"/><path class="a963a3e1-60b0-405f-9b95-12aaa13cbed7" d="M72.39,29.15h0m0,0L68.18,44.52,28.44,55.08,17.33,43.79,72.39,29.15m0-1.66h-.08a2.32,2.32,0,0,0-.38.06l-55,14.63a1.68,1.68,0,0,0-1.18,1.17,1.66,1.66,0,0,0,.42,1.6L27.25,56.24a1.65,1.65,0,0,0,1.19.5,2.18,2.18,0,0,0,.43-.05L68.6,46.12A1.65,1.65,0,0,0,69.78,45L74,29.68a1.55,1.55,0,0,0,.09-.53,1.66,1.66,0,0,0-1.65-1.66Zm0,3.33h0Z"/><path class="bbbef7a8-a2be-4e53-9aed-6c9d69987cb9" d="M52.6,78a8.35,8.35,0,0,1-5.27-2.49L39,67a.81.81,0,0,1-.21-.8.79.79,0,0,1,.59-.58l24.4-6.49.22,0a.83.83,0,0,1,.59.25.81.81,0,0,1,.21.8l-3.2,11.66a8.35,8.35,0,0,1-3.3,4.69.88.88,0,0,1-.26.12l-5.12,1.36a.76.76,0,0,1-.21,0Z"/><path class="a963a3e1-60b0-405f-9b95-12aaa13cbed7" d="M64,59.88h0m0,0-3.2,11.66a7.62,7.62,0,0,1-3,4.23l-5.11,1.36a7.61,7.61,0,0,1-4.75-2.25l-8.37-8.51L64,59.88m0-1.66h-.09a2.32,2.32,0,0,0-.38.06L39.12,64.76a1.68,1.68,0,0,0-1.18,1.17,1.71,1.71,0,0,0,.42,1.61L46.74,76a9.1,9.1,0,0,0,5.78,2.74h.15a1.59,1.59,0,0,0,.43-.06l5.11-1.36a1.7,1.7,0,0,0,.53-.24A9.14,9.14,0,0,0,62.36,72l3.18-11.57a1.78,1.78,0,0,0,.08-.53A1.65,1.65,0,0,0,64,58.22Zm0,3.33Z"/><path class="ea4887ef-c65f-49e3-9f61-d14a4e0c3390" d="M53.35,78a6.28,6.28,0,0,1-.75,0,.82.82,0,0,1-.76-.75.85.85,0,0,1,.62-.88L57.57,75a.75.75,0,0,1,.21,0,.83.83,0,0,1,.48,1.51A8.66,8.66,0,0,1,53.35,78Z"/><path class="a963a3e1-60b0-405f-9b95-12aaa13cbed7" d="M57.78,75.77h0m0,0a7.8,7.8,0,0,1-4.43,1.39c-.23,0-.45,0-.68,0l5.11-1.36m0-1.67H57.6a1.4,1.4,0,0,0-.28.06l-5.08,1.35a1.66,1.66,0,0,0,.28,3.26,7.81,7.81,0,0,0,.83,0,9.35,9.35,0,0,0,5.35-1.66,1.67,1.67,0,0,0-.85-3.06Zm0,3.33h0Z"/><path class="ef74d7c9-a9ab-4db1-97a3-537c8d631055" d="M53.22,78a8.37,8.37,0,0,1-6-2.54L3.28,30.83A8.49,8.49,0,0,1,7.21,16.66L67.65,1.11A8.8,8.8,0,0,1,69.8.84,8.52,8.52,0,0,1,76.53,4.2,8.4,8.4,0,0,1,78,11.58L61.43,71.76A8.43,8.43,0,0,1,53.22,78Z"/><path class="a963a3e1-60b0-405f-9b95-12aaa13cbed7" d="M69.8,1.67a7.66,7.66,0,0,1,7.35,9.69L60.63,71.54a7.63,7.63,0,0,1-7.41,5.63,7.54,7.54,0,0,1-5.43-2.29L3.87,30.25A7.65,7.65,0,0,1,7.42,17.47L67.86,1.92a7.77,7.77,0,0,1,1.94-.25M69.8,0a9.42,9.42,0,0,0-2.35.31L7,15.86A9.32,9.32,0,0,0,2.69,31.42L46.6,76.05A9.32,9.32,0,0,0,62.23,72L78.75,11.8a9.24,9.24,0,0,0-1.56-8.11A9.36,9.36,0,0,0,69.8,0Z"/><path class="ead1561c-532b-4387-a28e-7c1d02d2c519" d="M53.22,78a8.37,8.37,0,0,1-6-2.54L3.28,30.83A8.49,8.49,0,0,1,7.21,16.66L67.65,1.11A8.8,8.8,0,0,1,69.8.84,8.52,8.52,0,0,1,76.53,4.2,8.4,8.4,0,0,1,78,11.58L61.43,71.76A8.43,8.43,0,0,1,53.22,78Z"/><path class="a963a3e1-60b0-405f-9b95-12aaa13cbed7" d="M69.8,1.67a7.66,7.66,0,0,1,7.35,9.69L60.63,71.54a7.63,7.63,0,0,1-7.41,5.63,7.54,7.54,0,0,1-5.43-2.29L3.87,30.25A7.65,7.65,0,0,1,7.42,17.47L67.86,1.92a7.77,7.77,0,0,1,1.94-.25M69.8,0a9.42,9.42,0,0,0-2.35.31L7,15.86A9.32,9.32,0,0,0,2.69,31.42L46.6,76.05A9.32,9.32,0,0,0,62.23,72L78.75,11.8a9.24,9.24,0,0,0-1.56-8.11A9.36,9.36,0,0,0,69.8,0Z"/><path class="b6409537-c06a-4712-a32e-c78c833dd5b6" d="M48,13.41,15.3,21.49a5.17,5.17,0,0,0-2.44,8.65l15.76,16"/></g></g></svg>