<svg xmlns="http://www.w3.org/2000/svg" xmlns:xlink="http://www.w3.org/1999/xlink" viewBox="0 0 44.87 44.88"><defs><style>.ab45e667-8f4d-4002-8207-d5168da3f3a8{fill:#00aa6a;}.edd5a9de-c463-4874-929d-32bca7659ec8{fill:#7cc493;}.a24f623a-5a1c-4242-a487-559c31cb31af{fill:url(#a65ccdfe-6c79-4f24-b019-82bbdb2f822c);}.bfb349e4-ff0d-416e-97bc-e5ac7ae0b805{fill:url(#a3785dc2-31d3-4387-92a9-4510d14ff3c4);}.a25895c2-3664-402e-b339-bb0870e03382{fill:#fff;}.bb9b6390-5dbf-422a-98db-40750ca5d546{fill:none;stroke:#fff;stroke-linecap:round;stroke-miterlimit:10;stroke-width:1.18px;}</style><radialGradient id="a65ccdfe-6c79-4f24-b019-82bbdb2f822c" cx="782.41" cy="38.77" r="20.39" gradientTransform="translate(-759.81 -16.48)" gradientUnits="userSpaceOnUse"><stop offset="0" stop-color="#fff" stop-opacity="0"/><stop offset="0.27" stop-color="#fbfcfb" stop-opacity="0.02"/><stop offset="0.45" stop-color="#eef3ec" stop-opacity="0.08"/><stop offset="0.6" stop-color="#d9e4d3" stop-opacity="0.19"/><stop offset="0.74" stop-color="#bacfb0" stop-opacity="0.34"/><stop offset="0.87" stop-color="#92b383" stop-opacity="0.53"/><stop offset="0.99" stop-color="#62914c" stop-opacity="0.77"/><stop offset="1" stop-color="#5c8d45" stop-opacity="0.8"/></radialGradient><radialGradient id="a3785dc2-31d3-4387-92a9-4510d14ff3c4" cx="774.7" cy="30.25" r="15.1" gradientTransform="translate(-759.81 -16.48)" gradientUnits="userSpaceOnUse"><stop offset="0" stop-color="#fff" stop-opacity="0.8"/><stop offset="0.14" stop-color="#fff" stop-opacity="0.6"/><stop offset="0.29" stop-color="#fff" stop-opacity="0.42"/><stop offset="0.44" stop-color="#fff" stop-opacity="0.27"/><stop offset="0.58" stop-color="#fff" stop-opacity="0.15"/><stop offset="0.73" stop-color="#fff" stop-opacity="0.07"/><stop offset="0.87" stop-color="#fff" stop-opacity="0.02"/><stop offset="1" stop-color="#fff" stop-opacity="0"/></radialGradient></defs><title>9</title><g id="a7d4d747-0766-49f5-baeb-df59555cff7b" data-name="圖層 2"><g id="b3c069ef-7787-4087-bfaa-15ad3b4629e9" data-name="圖層 1"><path class="ab45e667-8f4d-4002-8207-d5168da3f3a8" d="M22.43,22.44c8.23-5.25,9.52-12.8,8.9-18.77a20.72,20.72,0,0,0-15.87-.79C20.12,6.66,24.54,12.91,22.43,22.44Z"/><path class="edd5a9de-c463-4874-929d-32bca7659ec8" d="M22.43,22.44c2.11-9.53-2.31-15.78-7-19.56A20.73,20.73,0,0,0,3.66,13.54C9.64,12.92,17.19,14.21,22.43,22.44Z"/><path class="ab45e667-8f4d-4002-8207-d5168da3f3a8" d="M2.87,29.42c3.78-4.66,10-9.09,19.56-7-5.24-8.23-12.79-9.52-18.77-8.9A20.84,20.84,0,0,0,2.87,29.42Z"/><path class="edd5a9de-c463-4874-929d-32bca7659ec8" d="M22.43,22.44c9.53,2.11,15.79-2.32,19.57-7a20.31,20.31,0,0,0-2-4.19,20.69,20.69,0,0,0-8.62-7.6C32,9.64,30.66,17.19,22.43,22.44Z"/><path class="ab45e667-8f4d-4002-8207-d5168da3f3a8" d="M22.43,22.44c-8.22,5.25-9.52,12.8-8.9,18.77a20.79,20.79,0,0,0,15.88.8C24.75,38.22,20.33,32,22.43,22.44Z"/><path class="ab45e667-8f4d-4002-8207-d5168da3f3a8" d="M22.43,22.44c5.25,8.23,12.8,9.52,18.77,8.9A20.79,20.79,0,0,0,42,15.46C38.22,20.12,32,24.55,22.43,22.44Z"/><path class="edd5a9de-c463-4874-929d-32bca7659ec8" d="M22.43,22.44c-9.53-2.11-15.78,2.32-19.56,7A20.69,20.69,0,0,0,13.53,41.21C12.91,35.24,14.21,27.69,22.43,22.44Z"/><path class="edd5a9de-c463-4874-929d-32bca7659ec8" d="M22.43,22.44c-2.1,9.53,2.32,15.78,7,19.57a21.16,21.16,0,0,0,4.2-2,20.59,20.59,0,0,0,7.59-8.62C35.23,32,27.68,30.67,22.43,22.44Z"/><circle class="a24f623a-5a1c-4242-a487-559c31cb31af" cx="22.43" cy="22.44" r="20.78" transform="translate(-8.55 15.59) rotate(-32.53)"/><circle class="bfb349e4-ff0d-416e-97bc-e5ac7ae0b805" cx="22.43" cy="22.44" r="20.78" transform="translate(-8.55 15.59) rotate(-32.53)"/><path class="a25895c2-3664-402e-b339-bb0870e03382" d="M22.42,1.66A20.79,20.79,0,1,1,11.26,4.93,20.76,20.76,0,0,1,22.42,1.66m0-1.66h0A22.44,22.44,0,1,0,41.35,10.37,22.4,22.4,0,0,0,22.42,0Z"/><path class="bb9b6390-5dbf-422a-98db-40750ca5d546" d="M30.42,7.72s15,12.52,3,28.17"/></g></g></svg>