<svg xmlns="http://www.w3.org/2000/svg" xmlns:xlink="http://www.w3.org/1999/xlink" viewBox="0 0 1400 1050"><defs><style>.a0a35bfc-8160-47a5-8cf0-bbf313cfc37e{fill:#231d4d;}.ee45b5dc-9e36-41c7-a9b0-26d0ac96ecd8{fill:#4d2853;}.b48cd135-ddf8-4922-a581-dd661d93c312{opacity:0.19;fill:url(#a84a306c-9c2c-4e69-a053-08b9796a6fee);}.fb311177-479b-43af-b669-ebf510421c5a{fill:#839ba8;}.aaf6fbea-2795-42db-b130-fb45f8b8816c{fill:#5e5e86;}.b30e0acf-c36f-4650-834b-048a48a63271{fill:#f9d5e5;}.efbace89-e5b9-4b84-b411-ef632ebb4edc{fill:#e73125;}.b0ac5586-0ea4-47f5-a1f1-85b0b5bbdf44{fill:#fff;}.f5ae3ed3-5ef6-49b2-bb05-49ec865f6cce{fill:url(#bbf2c11f-134b-4221-a90f-979b245c2dc6);}.b69c2a43-27ba-4dd1-8db4-966b8d8752e3{fill:url(#a267b7eb-e4b3-43e1-aa98-bf9d3cb2ce3b);}.e79112dc-0cbe-4d3a-a15d-cc58ff58507b{fill:url(#f876bd57-c578-467c-aa2e-1768126eb4d1);}.b605f7df-38de-4618-95bd-83246cd3ca17{fill:url(#b916fe18-0f7c-409f-997a-f691a9989101);}.f7e6d990-4802-422b-8f11-6bfb2f6d095c{fill:url(#aa83f791-af61-4c00-96ff-1a65453a9921);}.ab6638ee-d3df-4bcf-b377-7f113ff049dd{fill:url(#e7eb97a1-0527-45e6-9ead-21973e946433);}.bf7a0633-ba6c-44ed-aae6-e207048b93d2{fill:url(#a7110be6-db50-4365-8ca8-04e5b818f404);}.e68194de-bb34-4543-aef7-fca906252b8d{fill:url(#aaaa9e67-ed69-4353-9c91-642ef42bc10d);}.addb0c82-ecf9-4c34-bda5-3664bc5de2ac{fill:url(#a5f293b1-b64d-475a-afda-702d82570414);}.aa4b98f2-de58-41ea-8ba8-e4a5b7e7d6bf{fill:url(#e3f27586-4dd0-47cc-b56f-288b629201a6);}.b19f44f3-d270-4255-beb8-680f431ea9f6{fill:url(#bfeb2a84-bb2c-4b63-9cae-ff791c40970b);}.b21dcb08-9124-4fa8-a04b-916fc14605f0{fill:url(#badc8525-b91c-49f3-8a79-59e3708dbefa);}.a5e3cfc6-250b-44eb-a3ac-dce4afd56989{fill:url(#ae8bcdb5-a4a6-4021-9713-1216f960c8e7);}.e3f808f1-0343-4cb8-87a3-64edb4e73bcf{fill:url(#fd2abd44-1f88-4031-a6fd-0eafe67e5ba8);}.a1142b53-c4eb-457f-8ae1-a32e9abd6e68{fill:url(#ed37f021-06c9-4f92-b7b7-e6ae283a7935);}.a346c480-a954-4183-948d-772555ee1485{fill:url(#ab7a9706-cd71-4140-90d3-a97a7b4c2afc);}.b89d8044-cada-4241-8e7f-5f345db2b895{fill:url(#be99e9d6-d1dc-48e5-a639-85d9ffc4169e);}.ac02a82d-ffb4-4c3d-aee9-13fe0d308cd4{fill:url(#feaed9ec-46c9-4d65-a47e-c6fa2a539bed);}.aedd0684-1e7d-4d0e-87d2-84d5ede83640{fill:url(#ed487fcc-6433-4dee-a424-62c87b90d5ca);}.a3ecf94b-6367-4d8f-b079-6c6e58419553{fill:url(#a1874fe9-908c-4031-873a-7686e08a7bb2);}.a9f5055e-30d5-49fb-9cf4-810170006027{fill:url(#bca1c010-d793-49c5-83a8-7a33e2580ead);}.ab3d8755-8d12-4edd-8a47-b9b6d995212a{fill:url(#b941c6ab-d69a-4d04-a10f-4f383e117e28);}.b087f649-a7f2-4a42-b8dd-da5b0102fc6c{fill:url(#f8c04c77-540a-444d-8591-1e646b43d2be);}.a660a5f9-6cb9-46d1-9e9c-1eecf516c819,.f8d8642d-3ce5-4510-b7b3-22e5437888a9,.fd6e4914-eac9-42bc-b822-b8dd687afd73{fill:none;stroke-linecap:round;}.fd6e4914-eac9-42bc-b822-b8dd687afd73{stroke:#f9cfca;stroke-linejoin:round;stroke-width:1.66px;}.f78e6bf8-d581-4903-928d-89d059a4f709{fill:#f19dab;}.a17fddf5-fbcd-4d4c-834a-91a0cd8e9dd1,.a3c8ce5c-4199-44e3-8003-8ba4170b4161,.acd82ec9-8ad2-4778-acb7-934cfb9c091a,.b96cb072-7ae5-40e9-bc5c-6c61a91d6c16,.baebf4f8-3a88-4258-b6d0-affdc1b4017e,.bcf96130-5107-4165-b7ef-e4947b621b1a,.bed8519a-6882-4f6e-a1ff-194e67d7fe7a,.e015b793-1ea2-4943-a4b7-e301c5561658,.ebf43695-195a-46e1-a408-8c8121d34eee,.ffc4c065-17f2-4439-80bc-af9e7ec039ed{stroke:#686767;stroke-width:1.87px;}.a17fddf5-fbcd-4d4c-834a-91a0cd8e9dd1,.a3c8ce5c-4199-44e3-8003-8ba4170b4161,.a660a5f9-6cb9-46d1-9e9c-1eecf516c819,.acd82ec9-8ad2-4778-acb7-934cfb9c091a,.b96cb072-7ae5-40e9-bc5c-6c61a91d6c16,.baebf4f8-3a88-4258-b6d0-affdc1b4017e,.bcf96130-5107-4165-b7ef-e4947b621b1a,.bed8519a-6882-4f6e-a1ff-194e67d7fe7a,.e015b793-1ea2-4943-a4b7-e301c5561658,.ebf43695-195a-46e1-a408-8c8121d34eee,.f8d8642d-3ce5-4510-b7b3-22e5437888a9,.ffc4c065-17f2-4439-80bc-af9e7ec039ed{stroke-miterlimit:10;}.ffc4c065-17f2-4439-80bc-af9e7ec039ed{fill:url(#e02c5b69-bf58-4831-ae89-05d1f1873c7d);}.bed8519a-6882-4f6e-a1ff-194e67d7fe7a{fill:url(#b118d705-d216-454e-bda2-8174263145f7);}.ebf43695-195a-46e1-a408-8c8121d34eee{fill:url(#a3dce353-f42e-4604-a0f5-6beae9920161);}.bcf96130-5107-4165-b7ef-e4947b621b1a{fill:url(#bc48e5eb-aa0d-4225-906d-9a33990f9503);}.a17fddf5-fbcd-4d4c-834a-91a0cd8e9dd1{fill:url(#a332f523-80ea-4129-8a8e-6f77efe26595);}.baebf4f8-3a88-4258-b6d0-affdc1b4017e{fill:url(#a00a2678-0a60-466c-a34c-591ff14f3e8a);}.acd82ec9-8ad2-4778-acb7-934cfb9c091a{fill:url(#adc570d8-0f50-4a1e-8387-bdeddef561fa);}.a3c8ce5c-4199-44e3-8003-8ba4170b4161{fill:url(#a5fa8028-22c5-4dc7-811c-cbc3e3985599);}.e015b793-1ea2-4943-a4b7-e301c5561658{fill:url(#f510e094-8133-4fc6-9471-847eff8e18d3);}.b96cb072-7ae5-40e9-bc5c-6c61a91d6c16{fill:url(#aee97f4b-f671-4b8e-ac81-c1f99e8ec951);}.b1ed83cc-f91a-4514-bf4b-07db4b81e205{fill:#c5e7fa;}.b7ff9b77-7f5a-4fa0-b871-697ba6978bcd{fill:#8d8ec5;}.f8d8642d-3ce5-4510-b7b3-22e5437888a9{stroke:#fff;}.a660a5f9-6cb9-46d1-9e9c-1eecf516c819,.f8d8642d-3ce5-4510-b7b3-22e5437888a9{stroke-width:5.1px;}.a660a5f9-6cb9-46d1-9e9c-1eecf516c819{stroke:#93bedc;}</style><linearGradient id="a84a306c-9c2c-4e69-a053-08b9796a6fee" x1="700.02" y1="83.32" x2="700.02" y2="983.67" gradientUnits="userSpaceOnUse"><stop offset="0" stop-color="#fcdcbb"/><stop offset="0.12" stop-color="#fbd6ba"/><stop offset="0.66" stop-color="#f7bfb7"/><stop offset="1" stop-color="#f5b6b6"/></linearGradient><linearGradient id="bbf2c11f-134b-4221-a90f-979b245c2dc6" x1="351.92" y1="910.9" x2="351.92" y2="1048.62" xlink:href="#a84a306c-9c2c-4e69-a053-08b9796a6fee"/><linearGradient id="a267b7eb-e4b3-43e1-aa98-bf9d3cb2ce3b" x1="-42.94" y1="248.41" x2="-42.94" y2="520.81" gradientTransform="matrix(1.33, 0, -0.38, 0.75, 834.42, 759.36)" gradientUnits="userSpaceOnUse"><stop offset="0" stop-color="#f5ae8a"/><stop offset="0.21" stop-color="#f5b096"/><stop offset="0.7" stop-color="#f5b4ad"/><stop offset="1" stop-color="#f5b6b6"/></linearGradient><linearGradient id="f876bd57-c578-467c-aa2e-1768126eb4d1" x1="682.53" y1="910.9" x2="682.53" y2="1048.62" xlink:href="#a84a306c-9c2c-4e69-a053-08b9796a6fee"/><linearGradient id="b916fe18-0f7c-409f-997a-f691a9989101" x1="40.92" y1="248.41" x2="40.92" y2="520.81" xlink:href="#a267b7eb-e4b3-43e1-aa98-bf9d3cb2ce3b"/><linearGradient id="aa83f791-af61-4c00-96ff-1a65453a9921" x1="794.09" y1="910.9" x2="794.09" y2="1048.62" xlink:href="#a84a306c-9c2c-4e69-a053-08b9796a6fee"/><linearGradient id="e7eb97a1-0527-45e6-9ead-21973e946433" x1="-126.8" y1="248.41" x2="-126.8" y2="520.81" xlink:href="#a267b7eb-e4b3-43e1-aa98-bf9d3cb2ce3b"/><linearGradient id="a7110be6-db50-4365-8ca8-04e5b818f404" x1="570.96" y1="910.9" x2="570.96" y2="1048.62" xlink:href="#a84a306c-9c2c-4e69-a053-08b9796a6fee"/><linearGradient id="aaaa9e67-ed69-4353-9c91-642ef42bc10d" x1="-210.66" y1="248.41" x2="-210.66" y2="520.81" xlink:href="#a267b7eb-e4b3-43e1-aa98-bf9d3cb2ce3b"/><linearGradient id="a5f293b1-b64d-475a-afda-702d82570414" x1="459.4" y1="910.9" x2="459.4" y2="1048.62" xlink:href="#a84a306c-9c2c-4e69-a053-08b9796a6fee"/><linearGradient id="e3f27586-4dd0-47cc-b56f-288b629201a6" x1="-379.38" y1="248.41" x2="-379.38" y2="520.81" xlink:href="#a267b7eb-e4b3-43e1-aa98-bf9d3cb2ce3b"/><linearGradient id="bfeb2a84-bb2c-4b63-9cae-ff791c40970b" x1="234.94" y1="910.9" x2="234.94" y2="1048.62" xlink:href="#a84a306c-9c2c-4e69-a053-08b9796a6fee"/><linearGradient id="badc8525-b91c-49f3-8a79-59e3708dbefa" x1="461.22" y1="248.41" x2="461.22" y2="520.81" xlink:href="#a267b7eb-e4b3-43e1-aa98-bf9d3cb2ce3b"/><linearGradient id="ae8bcdb5-a4a6-4021-9713-1216f960c8e7" x1="1353.23" y1="910.9" x2="1353.23" y2="1048.62" xlink:href="#a84a306c-9c2c-4e69-a053-08b9796a6fee"/><linearGradient id="fd2abd44-1f88-4031-a6fd-0eafe67e5ba8" x1="377.36" y1="248.41" x2="377.36" y2="520.81" xlink:href="#a267b7eb-e4b3-43e1-aa98-bf9d3cb2ce3b"/><linearGradient id="ed37f021-06c9-4f92-b7b7-e6ae283a7935" x1="1241.67" y1="910.9" x2="1241.67" y2="1048.62" xlink:href="#a84a306c-9c2c-4e69-a053-08b9796a6fee"/><linearGradient id="ab7a9706-cd71-4140-90d3-a97a7b4c2afc" x1="293.5" y1="248.41" x2="293.5" y2="520.81" xlink:href="#a267b7eb-e4b3-43e1-aa98-bf9d3cb2ce3b"/><linearGradient id="be99e9d6-d1dc-48e5-a639-85d9ffc4169e" x1="1130.11" y1="910.9" x2="1130.11" y2="1048.62" xlink:href="#a84a306c-9c2c-4e69-a053-08b9796a6fee"/><linearGradient id="feaed9ec-46c9-4d65-a47e-c6fa2a539bed" x1="209.64" y1="248.41" x2="209.64" y2="520.81" xlink:href="#a267b7eb-e4b3-43e1-aa98-bf9d3cb2ce3b"/><linearGradient id="ed487fcc-6433-4dee-a424-62c87b90d5ca" x1="1018.54" y1="910.9" x2="1018.54" y2="1048.62" xlink:href="#a84a306c-9c2c-4e69-a053-08b9796a6fee"/><linearGradient id="a1874fe9-908c-4031-873a-7686e08a7bb2" x1="-463.24" y1="248.41" x2="-463.24" y2="520.81" xlink:href="#a267b7eb-e4b3-43e1-aa98-bf9d3cb2ce3b"/><linearGradient id="bca1c010-d793-49c5-83a8-7a33e2580ead" x1="123.38" y1="910.9" x2="123.38" y2="1048.62" xlink:href="#a84a306c-9c2c-4e69-a053-08b9796a6fee"/><linearGradient id="b941c6ab-d69a-4d04-a10f-4f383e117e28" x1="-547.1" y1="248.41" x2="-547.1" y2="520.81" xlink:href="#a267b7eb-e4b3-43e1-aa98-bf9d3cb2ce3b"/><linearGradient id="f8c04c77-540a-444d-8591-1e646b43d2be" x1="11.82" y1="910.9" x2="11.82" y2="1048.62" xlink:href="#a84a306c-9c2c-4e69-a053-08b9796a6fee"/><radialGradient id="e02c5b69-bf58-4831-ae89-05d1f1873c7d" cx="162.47" cy="282.49" r="51.27" gradientTransform="translate(-130.22 -112.02) scale(1.21 1.05)" gradientUnits="userSpaceOnUse"><stop offset="0" stop-color="#fff"/><stop offset="0.21" stop-color="#e8e9e9"/><stop offset="0.43" stop-color="#d8d9d9"/><stop offset="0.68" stop-color="#cecfcf"/><stop offset="1" stop-color="#cbcccc"/></radialGradient><radialGradient id="b118d705-d216-454e-bda2-8174263145f7" cx="282.62" cy="282.49" r="51.27" xlink:href="#e02c5b69-bf58-4831-ae89-05d1f1873c7d"/><radialGradient id="a3dce353-f42e-4604-a0f5-6beae9920161" cx="398.5" cy="282.49" r="51.27" xlink:href="#e02c5b69-bf58-4831-ae89-05d1f1873c7d"/><radialGradient id="bc48e5eb-aa0d-4225-906d-9a33990f9503" cx="513.66" cy="282.49" r="51.27" xlink:href="#e02c5b69-bf58-4831-ae89-05d1f1873c7d"/><radialGradient id="a332f523-80ea-4129-8a8e-6f77efe26595" cx="626.77" cy="282.49" r="51.27" xlink:href="#e02c5b69-bf58-4831-ae89-05d1f1873c7d"/><radialGradient id="a00a2678-0a60-466c-a34c-591ff14f3e8a" cx="744.96" cy="282.49" r="51.27" xlink:href="#e02c5b69-bf58-4831-ae89-05d1f1873c7d"/><radialGradient id="adc570d8-0f50-4a1e-8387-bdeddef561fa" cx="863.56" cy="282.49" r="51.27" xlink:href="#e02c5b69-bf58-4831-ae89-05d1f1873c7d"/><radialGradient id="a5fa8028-22c5-4dc7-811c-cbc3e3985599" cx="978.37" cy="282.49" r="51.27" xlink:href="#e02c5b69-bf58-4831-ae89-05d1f1873c7d"/><radialGradient id="f510e094-8133-4fc6-9471-847eff8e18d3" cx="1093.79" cy="282.49" r="51.27" xlink:href="#e02c5b69-bf58-4831-ae89-05d1f1873c7d"/><radialGradient id="aee97f4b-f671-4b8e-ac81-c1f99e8ec951" cx="1209.67" cy="282.49" r="51.27" xlink:href="#e02c5b69-bf58-4831-ae89-05d1f1873c7d"/></defs><title>背景</title><g id="b5b9c76f-0890-4753-ae77-d92aba49d0c2" data-name="圖層 2"><g id="e9ab96f1-6c9a-446d-9e8e-6526f4015222" data-name="圖層 1"><polygon class="a0a35bfc-8160-47a5-8cf0-bbf313cfc37e" points="1400 539.81 1400 135.69 700 539.81 1400 539.81"/><polygon class="a0a35bfc-8160-47a5-8cf0-bbf313cfc37e" points="434.14 79.36 0 79.36 0 135.69 700 539.81 434.14 79.36"/><polygon class="ee45b5dc-9e36-41c7-a9b0-26d0ac96ecd8" points="700 79.36 434.14 79.36 700 539.81 700 79.36"/><polygon class="ee45b5dc-9e36-41c7-a9b0-26d0ac96ecd8" points="0 135.69 0 539.81 700 539.81 0 135.69"/><polygon class="ee45b5dc-9e36-41c7-a9b0-26d0ac96ecd8" points="1400 135.69 1400 79.36 965.86 79.36 700 539.81 1400 135.69"/><polygon class="a0a35bfc-8160-47a5-8cf0-bbf313cfc37e" points="965.86 79.36 700 79.36 700 539.81 965.86 79.36"/><polygon class="ee45b5dc-9e36-41c7-a9b0-26d0ac96ecd8" points="0 943.93 0 990.41 439.83 990.41 700 539.81 0 943.93"/><polygon class="a0a35bfc-8160-47a5-8cf0-bbf313cfc37e" points="0 539.81 0 943.93 700 539.81 0 539.81"/><polygon class="a0a35bfc-8160-47a5-8cf0-bbf313cfc37e" points="960.17 990.41 1400 990.41 1400 943.93 700 539.81 960.17 990.41"/><polygon class="ee45b5dc-9e36-41c7-a9b0-26d0ac96ecd8" points="700 539.81 1400 943.93 1400 539.81 700 539.81"/><polygon class="a0a35bfc-8160-47a5-8cf0-bbf313cfc37e" points="439.83 990.41 700 990.41 700 539.81 439.83 990.41"/><polygon class="ee45b5dc-9e36-41c7-a9b0-26d0ac96ecd8" points="700 990.41 960.17 990.41 700 539.81 700 990.41"/><rect class="b48cd135-ddf8-4922-a581-dd661d93c312" x="0.05" y="78" width="1399.95" height="911.05"/><rect class="fb311177-479b-43af-b669-ebf510421c5a" x="0.05" y="183.04" width="139.99" height="26.43"/><rect class="aaf6fbea-2795-42db-b130-fb45f8b8816c" x="140.04" y="183.04" width="139.99" height="26.43"/><rect class="fb311177-479b-43af-b669-ebf510421c5a" x="280.03" y="183.04" width="139.99" height="26.43"/><rect class="aaf6fbea-2795-42db-b130-fb45f8b8816c" x="420.02" y="183.04" width="139.99" height="26.43"/><rect class="fb311177-479b-43af-b669-ebf510421c5a" x="560.01" y="183.04" width="139.99" height="26.43"/><rect class="aaf6fbea-2795-42db-b130-fb45f8b8816c" x="700" y="183.04" width="139.99" height="26.43"/><rect class="fb311177-479b-43af-b669-ebf510421c5a" x="839.99" y="183.04" width="139.99" height="26.43"/><rect class="aaf6fbea-2795-42db-b130-fb45f8b8816c" x="979.98" y="183.04" width="139.99" height="26.43"/><rect class="fb311177-479b-43af-b669-ebf510421c5a" x="1119.97" y="183.04" width="139.99" height="26.43"/><rect class="aaf6fbea-2795-42db-b130-fb45f8b8816c" x="1259.96" y="183.04" width="139.99" height="26.43"/><polygon class="b30e0acf-c36f-4650-834b-048a48a63271" points="854.1 1049.44 853.83 1049.62 964.61 1049.74 964.45 1049.44 854.1 1049.44"/><polygon class="efbace89-e5b9-4b84-b411-ef632ebb4edc" points="964.45 1049.44 964.61 1049.74 965.39 1049.74 965.87 1049.44 964.45 1049.44"/><polygon class="b0ac5586-0ea4-47f5-a1f1-85b0b5bbdf44" points="965.87 1049.44 965.39 1049.74 1076.18 1049.87 1075.94 1049.44 965.87 1049.44"/><polygon class="efbace89-e5b9-4b84-b411-ef632ebb4edc" points="1075.94 1049.44 1076.18 1049.87 1076.95 1049.87 1077.63 1049.44 1075.94 1049.44"/><polygon class="efbace89-e5b9-4b84-b411-ef632ebb4edc" points="851.63 1049.44 851.72 1049.62 853.83 1049.62 854.1 1049.44 851.63 1049.44"/><polygon class="b30e0acf-c36f-4650-834b-048a48a63271" points="1077.63 1049.44 1076.95 1049.87 1187.74 1050 1187.43 1049.44 1077.63 1049.44"/><polygon class="efbace89-e5b9-4b84-b411-ef632ebb4edc" points="740.13 1049.44 740.16 1049.49 740.94 1049.49 741 1049.44 740.13 1049.44"/><polygon class="b0ac5586-0ea4-47f5-a1f1-85b0b5bbdf44" points="741 1049.44 740.94 1049.49 851.72 1049.62 851.63 1049.44 741 1049.44"/><polygon class="efbace89-e5b9-4b84-b411-ef632ebb4edc" points="1187.43 1049.44 1187.74 1050 1188.52 1050 1189.39 1049.44 1187.43 1049.44"/><polygon class="b30e0acf-c36f-4650-834b-048a48a63271" points="703.11 1049.44 740.16 1049.49 740.13 1049.44 703.11 1049.44"/><polyline class="f5ae3ed3-5ef6-49b2-bb05-49ec865f6cce" points="703.11 1049.44 629.37 1049.36 628.59 1049.36 517.81 1049.23 517.03 1049.23 406.25 1049.11 405.47 1049.11 294.69 1048.98 292.58 1048.98 181.79 1048.85 181.01 1048.85 70.23 1048.72 69.45 1048.72 0.73 1048.64"/><polygon class="b0ac5586-0ea4-47f5-a1f1-85b0b5bbdf44" points="793.77 944.83 682.84 944.71 682.37 945 711.37 997.43 793.94 945.13 793.77 944.83"/><polygon class="b69c2a43-27ba-4dd1-8db4-966b8d8752e3" points="682.84 944.71 682.21 944.71 682.37 945 682.84 944.71"/><polygon class="e79112dc-0cbe-4d3a-a15d-cc58ff58507b" points="682.84 944.71 682.21 944.71 682.37 945 682.84 944.71"/><polygon class="b30e0acf-c36f-4650-834b-048a48a63271" points="599.8 997.3 682.37 945 682.21 944.71 571.28 944.58 570.81 944.88 599.8 997.3"/><polygon class="b605f7df-38de-4618-95bd-83246cd3ca17" points="794.4 944.83 793.77 944.83 793.94 945.13 794.4 944.83"/><polygon class="f7e6d990-4802-422b-8f11-6bfb2f6d095c" points="794.4 944.83 793.77 944.83 793.94 945.13 794.4 944.83"/><polygon class="b30e0acf-c36f-4650-834b-048a48a63271" points="822.93 997.56 905.97 944.96 794.4 944.83 793.94 945.13 822.93 997.56"/><polygon class="b0ac5586-0ea4-47f5-a1f1-85b0b5bbdf44" points="488.24 997.17 570.81 944.88 570.65 944.58 459.72 944.45 459.25 944.75 488.24 997.17"/><polygon class="b0ac5586-0ea4-47f5-a1f1-85b0b5bbdf44" points="263.79 996.92 346.82 944.32 235.26 944.19 234.79 944.49 263.79 996.92"/><polygon class="b30e0acf-c36f-4650-834b-048a48a63271" points="459.25 944.75 459.08 944.45 347.52 944.32 376.68 997.05 459.25 944.75"/><polygon class="b0ac5586-0ea4-47f5-a1f1-85b0b5bbdf44" points="1018.39 945.39 1018.23 945.09 906.66 944.96 935.82 997.68 1018.39 945.39"/><polygon class="ab6638ee-d3df-4bcf-b377-7f113ff049dd" points="571.28 944.58 570.65 944.58 570.81 944.88 571.28 944.58"/><polygon class="bf7a0633-ba6c-44ed-aae6-e207048b93d2" points="571.28 944.58 570.65 944.58 570.81 944.88 571.28 944.58"/><polygon class="e68194de-bb34-4543-aef7-fca906252b8d" points="459.72 944.45 459.08 944.45 459.25 944.75 459.72 944.45"/><polygon class="addb0c82-ecf9-4c34-bda5-3664bc5de2ac" points="459.72 944.45 459.08 944.45 459.25 944.75 459.72 944.45"/><polygon class="aa4b98f2-de58-41ea-8ba8-e4a5b7e7d6bf" points="235.26 944.19 234.63 944.19 234.79 944.49 235.26 944.19"/><polygon class="b19f44f3-d270-4255-beb8-680f431ea9f6" points="235.26 944.19 234.63 944.19 234.79 944.49 235.26 944.19"/><polygon class="b0ac5586-0ea4-47f5-a1f1-85b0b5bbdf44" points="1353.08 945.77 1382.07 998.2 1400 986.84 1400 945.52 1353.55 945.47 1353.08 945.77"/><polygon class="b21dcb08-9124-4fa8-a04b-916fc14605f0" points="1353.55 945.47 1352.91 945.47 1353.08 945.77 1353.55 945.47"/><polygon class="a5e3cfc6-250b-44eb-a3ac-dce4afd56989" points="1353.55 945.47 1352.91 945.47 1353.08 945.77 1353.55 945.47"/><polygon class="e3f808f1-0343-4cb8-87a3-64edb4e73bcf" points="1241.99 945.34 1241.35 945.34 1241.52 945.64 1241.99 945.34"/><polygon class="a1142b53-c4eb-457f-8ae1-a32e9abd6e68" points="1241.99 945.34 1241.35 945.34 1241.52 945.64 1241.99 945.34"/><polygon class="b30e0acf-c36f-4650-834b-048a48a63271" points="1047.38 997.81 1129.95 945.51 1129.79 945.22 1018.86 945.09 1018.39 945.39 1047.38 997.81"/><polygon class="a346c480-a954-4183-948d-772555ee1485" points="1130.42 945.22 1129.79 945.22 1129.95 945.51 1130.42 945.22"/><polygon class="b89d8044-cada-4241-8e7f-5f345db2b895" points="1130.42 945.22 1129.79 945.22 1129.95 945.51 1130.42 945.22"/><polygon class="b30e0acf-c36f-4650-834b-048a48a63271" points="1270.51 998.07 1353.08 945.77 1352.91 945.47 1241.99 945.34 1241.52 945.64 1270.51 998.07"/><polygon class="b0ac5586-0ea4-47f5-a1f1-85b0b5bbdf44" points="1158.95 997.94 1241.52 945.64 1241.35 945.34 1130.42 945.22 1129.95 945.51 1158.95 997.94"/><polygon class="ac02a82d-ffb4-4c3d-aee9-13fe0d308cd4" points="1018.86 945.09 1018.23 945.09 1018.39 945.39 1018.86 945.09"/><polygon class="aedd0684-1e7d-4d0e-87d2-84d5ede83640" points="1018.86 945.09 1018.23 945.09 1018.39 945.39 1018.86 945.09"/><polygon class="b30e0acf-c36f-4650-834b-048a48a63271" points="181.79 1049.4 292.58 1049.44 263.79 996.92 181.79 1049.4"/><polygon class="b30e0acf-c36f-4650-834b-048a48a63271" points="854.1 1049.44 964.45 1049.44 935.82 997.68 854.1 1049.44"/><polygon class="efbace89-e5b9-4b84-b411-ef632ebb4edc" points="1018.39 945.39 935.82 997.68 964.45 1049.44 965.87 1049.44 1047.38 997.81 1018.39 945.39"/><polygon class="b0ac5586-0ea4-47f5-a1f1-85b0b5bbdf44" points="965.87 1049.44 1075.94 1049.44 1047.38 997.81 965.87 1049.44"/><polygon class="efbace89-e5b9-4b84-b411-ef632ebb4edc" points="1129.95 945.51 1047.38 997.81 1075.94 1049.44 1077.63 1049.44 1158.95 997.94 1129.95 945.51"/><polygon class="efbace89-e5b9-4b84-b411-ef632ebb4edc" points="906.66 944.96 905.97 944.96 822.93 997.56 851.63 1049.44 854.1 1049.44 935.82 997.68 906.66 944.96"/><polygon class="b30e0acf-c36f-4650-834b-048a48a63271" points="1077.63 1049.44 1187.43 1049.44 1158.95 997.94 1077.63 1049.44"/><polygon class="b30e0acf-c36f-4650-834b-048a48a63271" points="152.22 996.79 234.79 944.49 234.63 944.19 123.7 944.07 123.23 944.36 152.22 996.79"/><polygon class="efbace89-e5b9-4b84-b411-ef632ebb4edc" points="599.8 997.3 628.59 1049.44 629.37 1049.45 711.37 997.43 682.37 945 599.8 997.3"/><polygon class="b0ac5586-0ea4-47f5-a1f1-85b0b5bbdf44" points="517.81 1049.45 628.59 1049.44 599.8 997.3 517.81 1049.45"/><polygon class="efbace89-e5b9-4b84-b411-ef632ebb4edc" points="793.94 945.13 711.37 997.43 740.13 1049.44 741 1049.44 822.93 997.56 793.94 945.13"/><polygon class="b0ac5586-0ea4-47f5-a1f1-85b0b5bbdf44" points="741 1049.44 851.63 1049.44 822.93 997.56 741 1049.44"/><polygon class="b0ac5586-0ea4-47f5-a1f1-85b0b5bbdf44" points="1189.39 1049.44 1298.92 1049.44 1270.51 998.07 1189.39 1049.44"/><polygon class="efbace89-e5b9-4b84-b411-ef632ebb4edc" points="1353.08 945.77 1270.51 998.07 1298.92 1049.44 1301.16 1049.44 1382.07 998.2 1353.08 945.77"/><polygon class="efbace89-e5b9-4b84-b411-ef632ebb4edc" points="1241.52 945.64 1158.95 997.94 1187.43 1049.44 1189.39 1049.44 1270.51 998.07 1241.52 945.64"/><polygon class="efbace89-e5b9-4b84-b411-ef632ebb4edc" points="1400 1030.61 1400 986.84 1382.07 998.2 1400 1030.61"/><polygon class="b30e0acf-c36f-4650-834b-048a48a63271" points="1301.16 1049.44 1400 1049.44 1400 1030.61 1382.07 998.2 1301.16 1049.44"/><polygon class="b30e0acf-c36f-4650-834b-048a48a63271" points="711.37 997.43 629.37 1049.45 703.11 1049.44 740.13 1049.44 711.37 997.43"/><polygon class="efbace89-e5b9-4b84-b411-ef632ebb4edc" points="570.81 944.88 488.24 997.17 517.03 1049.44 517.81 1049.45 599.8 997.3 570.81 944.88"/><polygon class="b0ac5586-0ea4-47f5-a1f1-85b0b5bbdf44" points="123.06 944.07 12.14 943.94 11.67 944.24 40.66 996.66 123.23 944.36 123.06 944.07"/><polygon class="a3ecf94b-6367-4d8f-b079-6c6e58419553" points="123.7 944.07 123.06 944.07 123.23 944.36 123.7 944.07"/><polygon class="a9f5055e-30d5-49fb-9cf4-810170006027" points="123.7 944.07 123.06 944.07 123.23 944.36 123.7 944.07"/><polygon class="b30e0acf-c36f-4650-834b-048a48a63271" points="11.67 944.24 11.5 943.94 0.73 943.93 0.73 951.16 11.67 944.24"/><polygon class="ab3d8755-8d12-4edd-8a47-b9b6d995212a" points="11.5 943.94 11.67 944.24 12.14 943.94 11.5 943.94"/><polygon class="b087f649-a7f2-4a42-b8dd-da5b0102fc6c" points="11.5 943.94 11.67 944.24 12.14 943.94 11.5 943.94"/><polygon class="b0ac5586-0ea4-47f5-a1f1-85b0b5bbdf44" points="294.69 1049.45 405.63 1049.4 376.68 997.05 294.69 1049.45"/><polygon class="efbace89-e5b9-4b84-b411-ef632ebb4edc" points="0.73 951.16 0.73 1021.96 40.66 996.66 11.67 944.24 0.73 951.16"/><polygon class="b30e0acf-c36f-4650-834b-048a48a63271" points="406.25 1049.4 517.03 1049.44 488.24 997.17 406.25 1049.4"/><polygon class="efbace89-e5b9-4b84-b411-ef632ebb4edc" points="347.52 944.32 346.82 944.32 263.79 996.92 292.58 1049.44 294.69 1049.45 376.68 997.05 347.52 944.32"/><polygon class="efbace89-e5b9-4b84-b411-ef632ebb4edc" points="459.25 944.75 376.68 997.05 405.47 1049.4 406.25 1049.4 488.24 997.17 459.25 944.75"/><polygon class="efbace89-e5b9-4b84-b411-ef632ebb4edc" points="123.23 944.36 40.66 996.66 69.45 1049.48 70.23 1049.48 152.22 996.79 123.23 944.36"/><polygon class="b30e0acf-c36f-4650-834b-048a48a63271" points="40.66 996.66 0.73 1021.96 0.73 1049.41 69.45 1049.48 40.66 996.66"/><polygon class="b0ac5586-0ea4-47f5-a1f1-85b0b5bbdf44" points="70.23 1049.48 181.32 1049.4 152.22 996.79 70.23 1049.48"/><polygon class="efbace89-e5b9-4b84-b411-ef632ebb4edc" points="234.79 944.49 152.22 996.79 181.01 1049.4 181.79 1049.4 263.79 996.92 234.79 944.49"/><path class="fd6e4914-eac9-42bc-b822-b8dd687afd73" d="M238.09,971.34l10.68,20.19a4.43,4.43,0,0,1-1.57,5.83L196.41,1029"/><path class="fd6e4914-eac9-42bc-b822-b8dd687afd73" d="M126.94,971.34l10.68,20.19a4.43,4.43,0,0,1-1.58,5.83L85.25,1029"/><path class="fd6e4914-eac9-42bc-b822-b8dd687afd73" d="M351.92,971.34l10.67,20.19a4.43,4.43,0,0,1-1.57,5.83L310.23,1029"/><path class="fd6e4914-eac9-42bc-b822-b8dd687afd73" d="M465.74,971.34l10.67,20.19a4.43,4.43,0,0,1-1.57,5.83L424.05,1029"/><path class="fd6e4914-eac9-42bc-b822-b8dd687afd73" d="M576.22,972.81,586.9,993a4.43,4.43,0,0,1-1.58,5.83l-50.79,31.63"/><path class="fd6e4914-eac9-42bc-b822-b8dd687afd73" d="M686.71,971.34l10.67,20.19a4.43,4.43,0,0,1-1.57,5.83L645,1029"/><path class="fd6e4914-eac9-42bc-b822-b8dd687afd73" d="M799.21,971.34l10.67,20.19a4.43,4.43,0,0,1-1.57,5.83L757.52,1029"/><path class="fd6e4914-eac9-42bc-b822-b8dd687afd73" d="M912.12,971.34l10.68,20.19a4.43,4.43,0,0,1-1.58,5.83L870.43,1029"/><path class="fd6e4914-eac9-42bc-b822-b8dd687afd73" d="M1024.2,971.34l10.67,20.19a4.43,4.43,0,0,1-1.57,5.83L982.51,1029"/><path class="fd6e4914-eac9-42bc-b822-b8dd687afd73" d="M1133.82,971.34l10.67,20.19a4.43,4.43,0,0,1-1.57,5.83L1092.13,1029"/><path class="fd6e4914-eac9-42bc-b822-b8dd687afd73" d="M1247.82,971.34l10.67,20.19a4.43,4.43,0,0,1-1.57,5.83L1206.13,1029"/><path class="fd6e4914-eac9-42bc-b822-b8dd687afd73" d="M1353.7,971.34l10.67,20.19a4.43,4.43,0,0,1-1.57,5.83L1312,1029"/><rect class="f78e6bf8-d581-4903-928d-89d059a4f709" x="0.73" y="938.11" width="1399.27" height="12.93"/><path class="ffc4c065-17f2-4439-80bc-af9e7ec039ed" d="M17.36,184.66h95a0,0,0,0,1,0,0v36.5a8.41,8.41,0,0,1-8.41,8.41H25.77a8.41,8.41,0,0,1-8.41-8.41v-36.5A0,0,0,0,1,17.36,184.66Z"/><path class="bed8519a-6882-4f6e-a1ff-194e67d7fe7a" d="M162.51,184.66h95a0,0,0,0,1,0,0v36.5a8.41,8.41,0,0,1-8.41,8.41H170.92a8.41,8.41,0,0,1-8.41-8.41v-36.5A0,0,0,0,1,162.51,184.66Z"/><path class="ebf43695-195a-46e1-a408-8c8121d34eee" d="M302.5,184.66h95a0,0,0,0,1,0,0v36.5a8.41,8.41,0,0,1-8.41,8.41H310.91a8.41,8.41,0,0,1-8.41-8.41v-36.5A0,0,0,0,1,302.5,184.66Z"/><path class="bcf96130-5107-4165-b7ef-e4947b621b1a" d="M441.62,184.66h95a0,0,0,0,1,0,0v36.5a8.41,8.41,0,0,1-8.41,8.41H450a8.41,8.41,0,0,1-8.41-8.41v-36.5A0,0,0,0,1,441.62,184.66Z"/><path class="a17fddf5-fbcd-4d4c-834a-91a0cd8e9dd1" d="M578.25,184.66h95a0,0,0,0,1,0,0v36.5a8.41,8.41,0,0,1-8.41,8.41H586.66a8.41,8.41,0,0,1-8.41-8.41v-36.5A0,0,0,0,1,578.25,184.66Z"/><path class="baebf4f8-3a88-4258-b6d0-affdc1b4017e" d="M721,184.66h95a0,0,0,0,1,0,0v36.5a8.41,8.41,0,0,1-8.41,8.41H729.45a8.41,8.41,0,0,1-8.41-8.41v-36.5A0,0,0,0,1,721,184.66Z"/><path class="acd82ec9-8ad2-4778-acb7-934cfb9c091a" d="M864.31,184.66h95a0,0,0,0,1,0,0v36.5a8.41,8.41,0,0,1-8.41,8.41H872.72a8.41,8.41,0,0,1-8.41-8.41v-36.5A0,0,0,0,1,864.31,184.66Z"/><path class="a3c8ce5c-4199-44e3-8003-8ba4170b4161" d="M1003,184.66h95a0,0,0,0,1,0,0v36.5a8.41,8.41,0,0,1-8.41,8.41h-78.22a8.41,8.41,0,0,1-8.41-8.41v-36.5A0,0,0,0,1,1003,184.66Z"/><path class="e015b793-1ea2-4943-a4b7-e301c5561658" d="M1142.44,184.66h95a0,0,0,0,1,0,0v36.5a8.41,8.41,0,0,1-8.41,8.41h-78.22a8.41,8.41,0,0,1-8.41-8.41v-36.5A0,0,0,0,1,1142.44,184.66Z"/><path class="b96cb072-7ae5-40e9-bc5c-6c61a91d6c16" d="M1282.44,184.66h95a0,0,0,0,1,0,0v36.5a8.41,8.41,0,0,1-8.41,8.41h-78.22a8.41,8.41,0,0,1-8.41-8.41v-36.5A0,0,0,0,1,1282.44,184.66Z"/><rect class="b1ed83cc-f91a-4514-bf4b-07db4b81e205" x="0.05" width="139.99" height="219.02"/><rect class="b7ff9b77-7f5a-4fa0-b871-697ba6978bcd" x="140.04" width="139.99" height="219.02"/><rect class="b1ed83cc-f91a-4514-bf4b-07db4b81e205" x="280.03" width="139.99" height="219.02"/><rect class="b7ff9b77-7f5a-4fa0-b871-697ba6978bcd" x="420.02" width="139.99" height="219.02"/><rect class="b1ed83cc-f91a-4514-bf4b-07db4b81e205" x="560.01" width="139.99" height="219.02"/><rect class="b7ff9b77-7f5a-4fa0-b871-697ba6978bcd" x="700" width="139.99" height="219.02"/><rect class="b1ed83cc-f91a-4514-bf4b-07db4b81e205" x="839.99" width="139.99" height="219.02"/><rect class="b7ff9b77-7f5a-4fa0-b871-697ba6978bcd" x="979.98" width="139.99" height="219.02"/><rect class="b1ed83cc-f91a-4514-bf4b-07db4b81e205" x="1119.97" width="139.99" height="219.02"/><rect class="b7ff9b77-7f5a-4fa0-b871-697ba6978bcd" x="1259.96" width="139.99" height="219.02"/><line class="f8d8642d-3ce5-4510-b7b3-22e5437888a9" x1="1377.48" y1="22.6" x2="1377.48" y2="195.88"/><line class="a660a5f9-6cb9-46d1-9e9c-1eecf516c819" x1="1237.49" y1="22.6" x2="1237.49" y2="195.88"/><line class="a660a5f9-6cb9-46d1-9e9c-1eecf516c819" x1="958.72" y1="22.6" x2="958.72" y2="195.88"/><line class="a660a5f9-6cb9-46d1-9e9c-1eecf516c819" x1="679.95" y1="22.6" x2="679.95" y2="195.88"/><line class="a660a5f9-6cb9-46d1-9e9c-1eecf516c819" x1="401.18" y1="22.6" x2="401.18" y2="195.88"/><line class="a660a5f9-6cb9-46d1-9e9c-1eecf516c819" x1="122.41" y1="22.6" x2="122.41" y2="195.88"/><line class="f8d8642d-3ce5-4510-b7b3-22e5437888a9" x1="1099.03" y1="22.6" x2="1099.03" y2="195.88"/><line class="f8d8642d-3ce5-4510-b7b3-22e5437888a9" x1="820.57" y1="22.6" x2="820.57" y2="195.88"/><line class="f8d8642d-3ce5-4510-b7b3-22e5437888a9" x1="542.11" y1="22.6" x2="542.11" y2="195.88"/><line class="f8d8642d-3ce5-4510-b7b3-22e5437888a9" x1="263.66" y1="22.6" x2="263.66" y2="195.88"/></g></g></svg>