<svg xmlns="http://www.w3.org/2000/svg" viewBox="0 0 257.77 425.98"><defs><style>.ad622688-eaa9-4361-ad63-f0bb49305c10,.fc24a225-338c-46ee-bc5a-7340085e3181{fill:#fff;}.a0ee846f-9ded-41f7-a5d2-b74f27ca7c4c{fill:#ac7c4c;}.a0ee846f-9ded-41f7-a5d2-b74f27ca7c4c,.a43f855c-b539-4bd8-bc4b-09e6eb02a703,.b08b2683-37d8-432b-aeb0-7153584bf4f7,.be767385-b889-4bee-8bf9-6fb1de443668,.fd18d89d-32dc-489f-b8fe-566d7c89c47c{stroke:#40220f;}.a0ee846f-9ded-41f7-a5d2-b74f27ca7c4c,.a43f855c-b539-4bd8-bc4b-09e6eb02a703,.ad622688-eaa9-4361-ad63-f0bb49305c10,.b08b2683-37d8-432b-aeb0-7153584bf4f7,.be767385-b889-4bee-8bf9-6fb1de443668,.ebf5fba9-c8f6-479a-a3e5-317fcfdcda48,.fa8615f2-393e-4574-86a3-608b09c6c71c,.fd18d89d-32dc-489f-b8fe-566d7c89c47c{stroke-miterlimit:10;}.a0ee846f-9ded-41f7-a5d2-b74f27ca7c4c,.a43f855c-b539-4bd8-bc4b-09e6eb02a703,.b08b2683-37d8-432b-aeb0-7153584bf4f7,.fd18d89d-32dc-489f-b8fe-566d7c89c47c{stroke-width:5.55px;}.ad622688-eaa9-4361-ad63-f0bb49305c10{stroke:#231815;stroke-width:0.33px;}.fd18d89d-32dc-489f-b8fe-566d7c89c47c{fill:#b0804f;}.b6b7d76a-54ed-4b7c-a713-3a522b139064{fill:#f5ac5c;}.b08b2683-37d8-432b-aeb0-7153584bf4f7,.be767385-b889-4bee-8bf9-6fb1de443668{fill:#ca925b;}.b1669a68-8575-4d20-a0f3-6527324f5415{fill:#efcd89;}.ee23a11d-9387-46eb-8682-413a5944f518{fill:#f29432;}.b62e3037-244e-4f42-ad1a-54770a4b4ac0{fill:#40220f;}.e50aecae-1d10-4840-a37f-62a8d407e2db{fill:#604c3f;}.a43eef35-71ab-450e-8349-aa65743441aa,.a43f855c-b539-4bd8-bc4b-09e6eb02a703,.a6f6e892-3a71-491f-a860-e895680ef564,.ebf5fba9-c8f6-479a-a3e5-317fcfdcda48,.fa8615f2-393e-4574-86a3-608b09c6c71c{fill:none;}.b0fc61f6-7f7f-446e-be69-c218238ec0d7{fill:#d53533;}.f5f72d50-035a-4e8f-9144-decc2e983335{fill:#ef8889;}.bdd37228-7fe5-4889-8f17-4d86827acbab{opacity:0.81;}.a367bce1-2c7c-4c0d-b2d6-ce40a51a2b74,.be7b4959-8271-41ee-9fa8-c78d1bb7468e{fill:#d3edfb;}.a911eb63-0920-4160-87a8-4d378f057bae{fill:#75aeca;}.a367bce1-2c7c-4c0d-b2d6-ce40a51a2b74,.ebf5fba9-c8f6-479a-a3e5-317fcfdcda48{opacity:0.7;}.ebf5fba9-c8f6-479a-a3e5-317fcfdcda48{stroke:#8babbc;stroke-width:2.1px;}.a43eef35-71ab-450e-8349-aa65743441aa,.a6f6e892-3a71-491f-a860-e895680ef564,.ebf5fba9-c8f6-479a-a3e5-317fcfdcda48,.fa8615f2-393e-4574-86a3-608b09c6c71c{stroke-linecap:round;}.a43eef35-71ab-450e-8349-aa65743441aa,.a6f6e892-3a71-491f-a860-e895680ef564,.fa8615f2-393e-4574-86a3-608b09c6c71c{stroke:#d3edfb;}.a43eef35-71ab-450e-8349-aa65743441aa,.a6f6e892-3a71-491f-a860-e895680ef564{stroke-linejoin:round;}.a43eef35-71ab-450e-8349-aa65743441aa{stroke-width:1.4px;}.a6f6e892-3a71-491f-a860-e895680ef564{stroke-width:0.56px;}.fa8615f2-393e-4574-86a3-608b09c6c71c{stroke-width:4.2px;}.be767385-b889-4bee-8bf9-6fb1de443668{stroke-width:4.47px;}</style></defs><title>小熊</title><g id="b8ba966a-b7d7-4a93-9808-1aeccaf4e913" data-name="圖層 2"><g id="a462897c-a83c-4854-8be1-d2590bd4a2ea" data-name="圖層 1"><path class="fc24a225-338c-46ee-bc5a-7340085e3181" d="M173.59,6.78c20.28,0,36.72,16.15,36.72,36.07a35.51,35.51,0,0,1-8.09,22.56c29.47,21.79,48.57,56.37,48.76,95.35h0c0,.2,0,.39,0,.58,0,1.89-.06,3.76-.15,5.63,0,.28,0,.57,0,.86-.09,1.77-.23,3.54-.41,5.29,0,.34-.07.67-.1,1-.19,1.76-.41,3.5-.68,5.24l-.12.73q-.42,2.6-.94,5.16l-.06.34q-.56,2.61-1.22,5.18c-.08.3-.15.61-.23.91-.44,1.65-.92,3.28-1.42,4.9-.1.32-.2.64-.31.95q-.78,2.46-1.68,4.88c-.07.2-.15.39-.22.58q-.87,2.33-1.85,4.62c-.09.19-.16.39-.25.59-.67,1.55-1.39,3.09-2.12,4.62-.16.31-.31.62-.46.93-.74,1.49-1.5,3-2.29,4.4l-.5.88c-.83,1.49-1.68,3-2.57,4.4l-.27.42c-.85,1.38-1.74,2.73-2.65,4.07l-.48.72q-1.41,2-2.9,4c-.23.3-.45.6-.68.89-1,1.3-2,2.57-3.06,3.83l-.65.76c-1.07,1.26-2.15,2.5-3.27,3.71l-.31.33c-1.11,1.2-2.26,2.37-3.42,3.53l-.73.73c-1.12,1.09-2.25,2.15-3.41,3.19a88.22,88.22,0,0,1,10.77,27.13,14.28,14.28,0,0,1,7.35,12.42v12.28a14.27,14.27,0,0,1-7.35,12.41c-.15.7-.32,1.39-.49,2.08V398.5a20.89,20.89,0,0,1-21.07,20.7h-14a21,21,0,0,1-20.33-15.31c-.62.06-1.23.12-1.86.15-9.28.56-20,.9-32.46.9s-23.18-.34-32.46-.9h-.14A21,21,0,0,1,79.22,419.2h-14a20.89,20.89,0,0,1-21.07-20.7V315.94c-.09-.35-.17-.71-.25-1.06a14.33,14.33,0,0,1-9.6-13.43V289.17a14.33,14.33,0,0,1,9.6-13.44,87.63,87.63,0,0,1,7.87-21.38l-1.06-.86c-1.16-1-2.31-1.93-3.44-2.93l-1.12-1c-1.14-1-2.27-2.08-3.37-3.16-.28-.27-.55-.55-.83-.83q-1.46-1.44-2.85-2.94c-.28-.29-.57-.59-.84-.89q-1.57-1.71-3.07-3.48l-.93-1.1q-1.47-1.77-2.88-3.6l-.81-1.08c-1-1.27-1.9-2.55-2.8-3.86l-.5-.75Q26,226,24.86,224.17c-.19-.31-.39-.61-.57-.91-.84-1.36-1.65-2.75-2.43-4.15-.21-.36-.41-.73-.61-1.1q-1.16-2.1-2.23-4.26l-.49-1c-.73-1.51-1.44-3-2.1-4.57l-.21-.5q-.94-2.24-1.81-4.51c-.11-.28-.22-.56-.32-.84-.58-1.57-1.12-3.15-1.64-4.75l-.33-1q-.75-2.42-1.4-4.86c-.08-.3-.15-.6-.23-.9-.44-1.72-.86-3.45-1.22-5.19a1.7,1.7,0,0,1,0-.22c-.36-1.72-.67-3.47-1-5.22,0-.26-.09-.53-.13-.8-.27-1.72-.49-3.46-.68-5.21,0-.34-.07-.67-.1-1-.18-1.75-.31-3.52-.41-5.29,0-.28,0-.56,0-.84-.09-1.87-.14-3.75-.14-5.64,0-.34,0-.68,0-1h0c.34-39.12,19.72-73.77,49.49-95.43a35.48,35.48,0,0,1-7.69-22C48.6,22.93,65,6.78,85.32,6.78c19.84,0,36,15.46,36.65,34.79,2.29-.13,4.59-.2,6.92-.2,2.7,0,5.38.11,8.05.29.64-19.37,16.79-34.88,36.65-34.88m0-6.78a43.54,43.54,0,0,0-30.21,12.05,42.53,42.53,0,0,0-12.44,22.56l-2.05,0H128A42.44,42.44,0,0,0,115.5,12,43.56,43.56,0,0,0,85.32,0c-24,0-43.49,19.22-43.49,42.85a41.77,41.77,0,0,0,5.32,20.5,128.37,128.37,0,0,0-32.63,39.53A123.63,123.63,0,0,0,0,159.81c0,.15,0,.3,0,.46v.37c0,.23,0,.47,0,.7,0,1.81.05,3.76.15,5.95l0,.35c0,.17,0,.35,0,.53.1,1.83.25,3.71.44,5.61,0,.35.07.7.1,1.05.21,1.91.45,3.77.72,5.53l.08.51.06.33c.32,2,.64,3.8,1,5.5a2.33,2.33,0,0,0,.05.28c.34,1.64.76,3.43,1.28,5.46l.09.35c0,.2.1.4.16.6.44,1.66.94,3.39,1.48,5.14.12.37.24.74.35,1.11.59,1.81,1.15,3.45,1.74,5,.07.2.14.4.22.6l.11.29c.64,1.69,1.27,3.25,1.92,4.77l0,.14.17.39c.64,1.47,1.36,3.05,2.22,4.83l.09.19.43.88c.73,1.48,1.52,3,2.35,4.51l.65,1.17c.89,1.59,1.73,3,2.56,4.38l.4.63.21.33c.83,1.33,1.69,2.64,2.54,3.9l.17.25.37.54c.86,1.25,1.82,2.58,2.95,4.08l.22.29.64.86c1,1.24,2,2.52,3,3.79.31.38.62.74.93,1.11l.05,0c1.17,1.38,2.23,2.58,3.24,3.68l.6.64.29.3c1,1.06,2,2.1,3,3.1l.3.31.57.57c1.05,1,2.22,2.12,3.56,3.33l0,0,1.14,1,.58.51A95.61,95.61,0,0,0,38.08,271a21.12,21.12,0,0,0-10.55,18.18v12.28a21.08,21.08,0,0,0,9.84,17.74V398.5A27.7,27.7,0,0,0,65.22,426h14A28,28,0,0,0,104,411.07c8.76.43,18.2.64,28.14.64,10.59,0,20.62-.24,29.86-.73a27.93,27.93,0,0,0,24.79,15h14a27.7,27.7,0,0,0,27.85-27.48V317.75a21,21,0,0,0,7.83-16.3V289.17a21,21,0,0,0-8.11-16.53,94.53,94.53,0,0,0-8.27-21.73l.15-.15.25-.25c1.35-1.33,2.53-2.55,3.62-3.73l.24-.26.07-.07c1.1-1.2,2.23-2.48,3.46-3.93l.19-.22c.17-.19.34-.39.5-.59,1.06-1.27,2.15-2.63,3.23-4l.72-.94c1.12-1.49,2.12-2.88,3.06-4.23.11-.16.21-.32.32-.47l.18-.28c1-1.47,1.95-2.91,2.82-4.31l.07-.1c.07-.12.14-.24.22-.36.85-1.38,1.74-2.9,2.71-4.63L242,222c.12-.2.23-.41.34-.61.83-1.51,1.65-3.07,2.43-4.66l.35-.71.13-.27c.85-1.75,1.58-3.35,2.25-4.89.06-.15.13-.3.19-.44l.07-.19c.69-1.6,1.35-3.25,2-4.88l.06-.16.18-.46c.6-1.61,1.18-3.29,1.77-5.15l0-.12.29-.89c.54-1.72,1-3.47,1.5-5.18l.18-.72.06-.25c.51-2,.93-3.78,1.29-5.47,0-.13,0-.23.06-.33l0-.08c.34-1.68.68-3.51,1-5.41l.05-.27c0-.17.05-.33.08-.5.27-1.76.5-3.57.71-5.55,0-.33.08-.69.12-1,.18-1.91.33-3.8.43-5.61l0-.59v-.31c.1-2.2.15-4.14.15-5.95v-.59c0-.12,0-.24,0-.35a123.81,123.81,0,0,0-14.17-56.9A128.21,128.21,0,0,0,211.41,64a42.49,42.49,0,0,0,5.68-21.14C217.09,19.22,197.58,0,173.59,0Z"/><rect class="a0ee846f-9ded-41f7-a5d2-b74f27ca7c4c" x="46.4" y="280.54" width="54.65" height="136.64" rx="12.33"/><rect class="a0ee846f-9ded-41f7-a5d2-b74f27ca7c4c" x="164.71" y="280.54" width="54.65" height="136.64" rx="12.33"/><circle class="a0ee846f-9ded-41f7-a5d2-b74f27ca7c4c" cx="132.88" cy="294.43" r="88.87"/><circle class="fc24a225-338c-46ee-bc5a-7340085e3181" cx="132.88" cy="281.1" r="59.15"/><circle class="ad622688-eaa9-4361-ad63-f0bb49305c10" cx="172.4" cy="44.31" r="35.74"/><circle class="fd18d89d-32dc-489f-b8fe-566d7c89c47c" cx="172.4" cy="44.31" r="35.74"/><circle class="b6b7d76a-54ed-4b7c-a713-3a522b139064" cx="172.4" cy="44.31" r="19.07"/><circle class="ad622688-eaa9-4361-ad63-f0bb49305c10" cx="86.48" cy="44.31" r="35.74"/><circle class="fd18d89d-32dc-489f-b8fe-566d7c89c47c" cx="86.48" cy="44.31" r="35.74"/><circle class="b6b7d76a-54ed-4b7c-a713-3a522b139064" cx="86.48" cy="44.31" r="19.07"/><circle class="b08b2683-37d8-432b-aeb0-7153584bf4f7" cx="128.89" cy="161.7" r="118.86"/><circle class="b1669a68-8575-4d20-a0f3-6527324f5415" cx="128.89" cy="200.13" r="46.46"/><path class="ee23a11d-9387-46eb-8682-413a5944f518" d="M81.3,209.29A52.22,52.22,0,0,0,10,160.68c0,.34,0,.68,0,1a118.62,118.62,0,0,0,44.84,93A52.17,52.17,0,0,0,81.3,209.29Z"/><path class="ee23a11d-9387-46eb-8682-413a5944f518" d="M247.75,161.7c0-.19,0-.38,0-.57a52.22,52.22,0,0,0-45.29,93.94A118.65,118.65,0,0,0,247.75,161.7Z"/><circle class="b62e3037-244e-4f42-ad1a-54770a4b4ac0" cx="83.8" cy="155.23" r="14.07"/><circle class="b62e3037-244e-4f42-ad1a-54770a4b4ac0" cx="173.97" cy="155.23" r="14.07"/><circle class="fc24a225-338c-46ee-bc5a-7340085e3181" cx="78.89" cy="151.9" r="4.91"/><circle class="fc24a225-338c-46ee-bc5a-7340085e3181" cx="169.06" cy="151.9" r="4.91"/><ellipse class="e50aecae-1d10-4840-a37f-62a8d407e2db" cx="128.89" cy="174.99" rx="16.11" ry="11.53"/><circle class="a43f855c-b539-4bd8-bc4b-09e6eb02a703" cx="128.89" cy="161.7" r="118.86"/><path class="b0fc61f6-7f7f-446e-be69-c218238ec0d7" d="M105.06,205s9.1-8.25,20,1.64c7.08,6.42,10.62-.61,18.87-2.37,5.88-1.26,12.19,2.19,12.17,8.15,0,3,.2,10.66-11.92,15.26s-26.22,4.7-37.09-4.91S105.06,205,105.06,205Z"/><path class="f5f72d50-035a-4e8f-9144-decc2e983335" d="M108.73,223s1.4,4.8,14.44,7.33c9.42,1.82,19.13-1.84,19.13-1.84s6.73-2.07,7.34-5.86c.58-3.55-4.44-5.33-4.44-5.33a31.1,31.1,0,0,0-14.22.21c-7,1.94-12,3.22-18.32,1.83C105.92,217.81,108.73,223,108.73,223Z"/><g class="bdd37228-7fe5-4889-8f17-4d86827acbab"><path class="be7b4959-8271-41ee-9fa8-c78d1bb7468e" d="M132,404.4c-11.34,0-22-.3-31.68-.89a57.15,57.15,0,0,1-53.55-57V284.6a34.56,34.56,0,0,1,12.29-26.46,16.2,16.2,0,0,0,5.75-12.38v-9.71c0-9.9,34.62-15.24,67.19-15.24s67.19,5.34,67.19,15.24v9.71A16.2,16.2,0,0,0,205,258.14a34.56,34.56,0,0,1,12.29,26.46v61.89a57.14,57.14,0,0,1-53.54,57C154,404.1,143.36,404.4,132,404.4Z"/><path class="a911eb63-0920-4160-87a8-4d378f057bae" d="M132,222.15c36.37,0,65.85,6.22,65.85,13.9v9.71a17.55,17.55,0,0,0,6.22,13.41A33.28,33.28,0,0,1,215.9,284.6v61.89a55.72,55.72,0,0,1-52.28,55.67c-9,.55-19.5.89-31.6.89s-22.56-.34-31.6-.89a55.73,55.73,0,0,1-52.28-55.67V284.6A33.28,33.28,0,0,1,60,259.17a17.56,17.56,0,0,0,6.23-13.41v-9.71c0-7.68,29.48-13.9,65.84-13.9m0-2.69c-17.77,0-34.5,1.46-47.11,4.12-14.42,3-21.43,7.12-21.43,12.47v9.71a14.83,14.83,0,0,1-5.27,11.35A35.92,35.92,0,0,0,45.44,284.6v61.89a58.51,58.51,0,0,0,54.82,58.37c9.71.59,20.4.89,31.76.89s22-.3,31.77-.89a58.51,58.51,0,0,0,54.81-58.37V284.6a35.89,35.89,0,0,0-12.77-27.49,14.87,14.87,0,0,1-5.27-11.35v-9.71c0-5.35-7-9.42-21.42-12.47-12.62-2.66-29.35-4.12-47.12-4.12Z"/></g><path class="a911eb63-0920-4160-87a8-4d378f057bae" d="M132,222.15c36.37,0,65.85,6.22,65.85,13.9v9.71a17.55,17.55,0,0,0,6.22,13.41A33.28,33.28,0,0,1,215.9,284.6v61.89a55.72,55.72,0,0,1-52.28,55.67c-9,.55-19.5.89-31.6.89s-22.56-.34-31.6-.89a55.73,55.73,0,0,1-52.28-55.67V284.6A33.28,33.28,0,0,1,60,259.17a17.56,17.56,0,0,0,6.23-13.41v-9.71c0-7.68,29.48-13.9,65.84-13.9m0-2.69c-17.77,0-34.5,1.46-47.11,4.12-14.42,3-21.43,7.12-21.43,12.47v9.71a14.83,14.83,0,0,1-5.27,11.35A35.92,35.92,0,0,0,45.44,284.6v61.89a58.51,58.51,0,0,0,54.82,58.37c9.71.59,20.4.89,31.76.89s22-.3,31.77-.89a58.51,58.51,0,0,0,54.81-58.37V284.6a35.89,35.89,0,0,0-12.77-27.49,14.87,14.87,0,0,1-5.27-11.35v-9.71c0-5.35-7-9.42-21.42-12.47-12.62-2.66-29.35-4.12-47.12-4.12Z"/><ellipse class="a367bce1-2c7c-4c0d-b2d6-ce40a51a2b74" cx="131.94" cy="237.88" rx="64.09" ry="12.87"/><path class="ebf5fba9-c8f6-479a-a3e5-317fcfdcda48" d="M196,237.88c0,7.11-28.69,12.88-64.08,12.88S67.85,245,67.85,237.88"/><path class="a43eef35-71ab-450e-8349-aa65743441aa" d="M157.48,374.83c17.09,2.33,28.73,6.93,28.73,12.22,0,7.64-24.26,13.83-54.19,13.83s-54.18-6.19-54.18-13.83S102.1,373.21,132,373.21"/><path class="a6f6e892-3a71-491f-a860-e895680ef564" d="M111.56,396.86c-13.74-1.87-23.09-5.56-23.09-9.81,0-6.14,19.5-11.12,43.55-11.12s43.55,5,43.55,11.12-19.5,11.11-43.55,11.11"/><line class="fa8615f2-393e-4574-86a3-608b09c6c71c" x1="202.88" y1="281.22" x2="202.88" y2="358.5"/><path class="fa8615f2-393e-4574-86a3-608b09c6c71c" d="M72.6,266.05s-17.74,6.07-14.48,33.62"/><rect class="be767385-b889-4bee-8bf9-6fb1de443668" x="36.82" y="274.18" width="28.34" height="40.51" rx="14.17"/><rect class="be767385-b889-4bee-8bf9-6fb1de443668" x="198.64" y="274.18" width="28.34" height="40.51" rx="14.17"/></g></g></svg>