<svg xmlns="http://www.w3.org/2000/svg" xmlns:xlink="http://www.w3.org/1999/xlink" viewBox="0 0 335.64 47.85"><defs><style>.a8c2abfe-8f2f-4b90-908e-c40661a73fd2{fill:none;stroke:#40005c;stroke-width:4.99px;}.a8c2abfe-8f2f-4b90-908e-c40661a73fd2,.b48d56d6-266d-4b60-b72a-3758f06c122a{stroke-linecap:round;stroke-linejoin:round;}.a214c08e-8a6a-46f8-956d-7c2b97f57c5b,.bff451f8-15f4-4c84-a1ba-11eeb1a625a3{fill:#fff;}.bff451f8-15f4-4c84-a1ba-11eeb1a625a3{stroke-miterlimit:10;stroke-width:4.12px;stroke:url(#a32c419f-dd55-4ab2-b8e4-a11f94c1f2d6);}.b48d56d6-266d-4b60-b72a-3758f06c122a{fill:#40220f;stroke:#40220f;stroke-width:2.06px;}</style><radialGradient id="a32c419f-dd55-4ab2-b8e4-a11f94c1f2d6" cx="219.82" cy="23.92" r="83.63" gradientUnits="userSpaceOnUse"><stop offset="0" stop-color="#4e3481"/><stop offset="0.57" stop-color="#984b99"/><stop offset="0.91" stop-color="#be80b5"/></radialGradient></defs><title>分數</title><g id="a3e490d2-b325-4e58-b391-63a1c8450f3b" data-name="圖層 2"><g id="bca2a32c-25dc-485e-99fb-296e2a4bc224" data-name="圖層 1"><path class="a8c2abfe-8f2f-4b90-908e-c40661a73fd2" d="M6.4,39A109.24,109.24,0,0,0,12,22.87a53.9,53.9,0,0,0-5.5,1.27L5.9,21.86c-.24.48-.49,1-.73,1.48L2.5,22.22a79.3,79.3,0,0,0,5.6-14l2.72,1A76.86,76.86,0,0,1,6.33,21q1.49-.43,1.92-.54a65.71,65.71,0,0,1,17.19-1.57h2.13a5,5,0,0,1,2.68.68A3.43,3.43,0,0,1,32,22.08a69.37,69.37,0,0,1,.14,7.74,59.68,59.68,0,0,1-.8,7.17,4.06,4.06,0,0,1-1.05,2.42,3.35,3.35,0,0,1-2.49.84q-3.33,0-9.12-.51v-3q5.25.56,8.07.55a2.12,2.12,0,0,0,1.19-.4,1.58,1.58,0,0,0,.54-1.2q.51-3.1.73-6.51a43.79,43.79,0,0,0-.11-6,1.45,1.45,0,0,0-.51-1,3.48,3.48,0,0,0-1.52-.25H25.66a63.84,63.84,0,0,0-10.57.5A94.87,94.87,0,0,1,9.15,39.92ZM26.81,7.2C28,7.2,29,8,30,9.7a115.61,115.61,0,0,1,5.36,10.53l-2.75,1.12q-1.74-4.19-3.51-7.7c-1.18-2.3-2-3.44-2.46-3.44q-2,0-13.28,1.63L13,8.94Q24.49,7.2,26.81,7.2Z"/><path class="a8c2abfe-8f2f-4b90-908e-c40661a73fd2" d="M53.38,28H50.52V20.85h2.86v3.83h4.31V23c-1,.09-1.93.23-2.83.39l-.39-2.57a29.33,29.33,0,0,1,3.22-.47V19H53.81v.58H51V15.09H49.91V12.52H51V9h2.85v3.54h3.88V11q-1.09.15-2.1.36l-.4-2.71a19.43,19.43,0,0,1,2.5-.44V7h3v1A17.5,17.5,0,0,1,63,7.78a4.5,4.5,0,0,1,2.89.73,3.18,3.18,0,0,1,1.23,2.57v1.44h1.16v2.57H67c0,.56-.08,1.1-.11,1.63h.37V19H60.69v1c.92-.07,1.82-.1,2.72-.1a4.86,4.86,0,0,1,2.82.68,3,3,0,0,1,.79.94A55.28,55.28,0,0,0,69.2,15a45.63,45.63,0,0,0,1.19-8l2.75.21c-.07,1.23-.19,2.5-.36,3.8h10v3H81.46a72.59,72.59,0,0,1-4.23,12.45c-.1.19-.19.39-.29.61a79.84,79.84,0,0,0,6.51,11.87l-2.31,1.52A59.59,59.59,0,0,1,75.46,30.4q-2.61,5.51-5.14,9.88L67.67,39.2A108.17,108.17,0,0,0,74,27c-1.21-2.84-2.24-5.51-3.11-8-.36,1.18-.74,2.31-1.12,3.4l-2.57-.58a3.84,3.84,0,0,1,.25,1.23,15.42,15.42,0,0,1-.14,1.59H68v2.57H53.38Zm-1,10.74a2.89,2.89,0,0,1-1-2.49c.08-.77.2-1.74.37-2.9H50.05V30.47h2.1c.12-.6.23-1.23.33-1.88h3c-.12.65-.23,1.28-.33,1.88h7V28.66h3v1.81h3.26v2.86H65.18v2.32l2.39-.47v3c-.85.12-1.64.27-2.39.44v1.81h-3V39.09a62.31,62.31,0,0,1-7.23.5A4,4,0,0,1,52.37,38.72Zm1.44-23.63v1.63h3.88V15.09Zm8.36,21.07V33.33H54.72a21,21,0,0,0-.29,2.21,1.71,1.71,0,0,0,.14.83,1.1,1.1,0,0,0,.91.4A56.92,56.92,0,0,0,62.17,36.16Zm2-23.64v-.79a1.21,1.21,0,0,0-.22-.83,1.77,1.77,0,0,0-1-.3,21.13,21.13,0,0,0-2.17.11v1.81Zm-3.44,2.57v1.63h3.22c.05-.55.08-1.1.11-1.63Zm3.62,9.59c0-.31.08-.62.11-.94a1.9,1.9,0,0,0-.18-.79,1.69,1.69,0,0,0-1-.37c-.89,0-1.75,0-2.57.11v2ZM78.57,14H72.2a97.46,97.46,0,0,0,3.29,9.48A93.74,93.74,0,0,0,78.57,14Z"/><path class="a214c08e-8a6a-46f8-956d-7c2b97f57c5b" d="M6.4,39A109.24,109.24,0,0,0,12,22.87a53.9,53.9,0,0,0-5.5,1.27L5.9,21.86c-.24.48-.49,1-.73,1.48L2.5,22.22a79.3,79.3,0,0,0,5.6-14l2.72,1A76.86,76.86,0,0,1,6.33,21q1.49-.43,1.92-.54a65.71,65.71,0,0,1,17.19-1.57h2.13a5,5,0,0,1,2.68.68A3.43,3.43,0,0,1,32,22.08a69.37,69.37,0,0,1,.14,7.74,59.68,59.68,0,0,1-.8,7.17,4.06,4.06,0,0,1-1.05,2.42,3.35,3.35,0,0,1-2.49.84q-3.33,0-9.12-.51v-3q5.25.56,8.07.55a2.12,2.12,0,0,0,1.19-.4,1.58,1.58,0,0,0,.54-1.2q.51-3.1.73-6.51a43.79,43.79,0,0,0-.11-6,1.45,1.45,0,0,0-.51-1,3.48,3.48,0,0,0-1.52-.25H25.66a63.84,63.84,0,0,0-10.57.5A94.87,94.87,0,0,1,9.15,39.92ZM26.81,7.2C28,7.2,29,8,30,9.7a115.61,115.61,0,0,1,5.36,10.53l-2.75,1.12q-1.74-4.19-3.51-7.7c-1.18-2.3-2-3.44-2.46-3.44q-2,0-13.28,1.63L13,8.94Q24.49,7.2,26.81,7.2Z"/><path class="a214c08e-8a6a-46f8-956d-7c2b97f57c5b" d="M53.38,28H50.52V20.85h2.86v3.83h4.31V23c-1,.09-1.93.23-2.83.39l-.39-2.57a29.33,29.33,0,0,1,3.22-.47V19H53.81v.58H51V15.09H49.91V12.52H51V9h2.85v3.54h3.88V11q-1.09.15-2.1.36l-.4-2.71a19.43,19.43,0,0,1,2.5-.44V7h3v1A17.5,17.5,0,0,1,63,7.78a4.5,4.5,0,0,1,2.89.73,3.18,3.18,0,0,1,1.23,2.57v1.44h1.16v2.57H67c0,.56-.08,1.1-.11,1.63h.37V19H60.69v1c.92-.07,1.82-.1,2.72-.1a4.86,4.86,0,0,1,2.82.68,3,3,0,0,1,.79.94A55.28,55.28,0,0,0,69.2,15a45.63,45.63,0,0,0,1.19-8l2.75.21c-.07,1.23-.19,2.5-.36,3.8h10v3H81.46a72.59,72.59,0,0,1-4.23,12.45c-.1.19-.19.39-.29.61a79.84,79.84,0,0,0,6.51,11.87l-2.31,1.52A59.59,59.59,0,0,1,75.46,30.4q-2.61,5.51-5.14,9.88L67.67,39.2A108.17,108.17,0,0,0,74,27c-1.21-2.84-2.24-5.51-3.11-8-.36,1.18-.74,2.31-1.12,3.4l-2.57-.58a3.84,3.84,0,0,1,.25,1.23,15.42,15.42,0,0,1-.14,1.59H68v2.57H53.38Zm-1,10.74a2.89,2.89,0,0,1-1-2.49c.08-.77.2-1.74.37-2.9H50.05V30.47h2.1c.12-.6.23-1.23.33-1.88h3c-.12.65-.23,1.28-.33,1.88h7V28.66h3v1.81h3.26v2.86H65.18v2.32l2.39-.47v3c-.85.12-1.64.27-2.39.44v1.81h-3V39.09a62.31,62.31,0,0,1-7.23.5A4,4,0,0,1,52.37,38.72Zm1.44-23.63v1.63h3.88V15.09Zm8.36,21.07V33.33H54.72a21,21,0,0,0-.29,2.21,1.71,1.71,0,0,0,.14.83,1.1,1.1,0,0,0,.91.4A56.92,56.92,0,0,0,62.17,36.16Zm2-23.64v-.79a1.21,1.21,0,0,0-.22-.83,1.77,1.77,0,0,0-1-.3,21.13,21.13,0,0,0-2.17.11v1.81Zm-3.44,2.57v1.63h3.22c.05-.55.08-1.1.11-1.63Zm3.62,9.59c0-.31.08-.62.11-.94a1.9,1.9,0,0,0-.18-.79,1.69,1.69,0,0,0-1-.37c-.89,0-1.75,0-2.57.11v2ZM78.57,14H72.2a97.46,97.46,0,0,0,3.29,9.48A93.74,93.74,0,0,0,78.57,14Z"/><rect class="bff451f8-15f4-4c84-a1ba-11eeb1a625a3" x="106.06" y="2.06" width="227.52" height="43.73" rx="21.86"/><path class="b48d56d6-266d-4b60-b72a-3758f06c122a" d="M168.68,24.65a11.75,11.75,0,0,1-1.85,6.66A5.36,5.36,0,0,1,162.35,34a5.52,5.52,0,0,1-4.93-2.54,11.63,11.63,0,0,1-1.48-6.33,17.93,17.93,0,0,1,.51-4.09,10,10,0,0,1,1.37-3.15.66.66,0,0,1,.58-.36c.51,0,.76.21.76.62a1.29,1.29,0,0,1-.22.68,10.52,10.52,0,0,0-1.08,2.83,14.4,14.4,0,0,0-.47,3.51,9.61,9.61,0,0,0,1.34,5.46,4.13,4.13,0,0,0,3.62,1.88c1.2,0,2.31-.76,3.32-2.2a10.4,10.4,0,0,0,1.53-5.61,16.36,16.36,0,0,0-1-6.27A3.62,3.62,0,0,0,163,16.15a5.88,5.88,0,0,0-2.28.65,1.29,1.29,0,0,1-.62.25.64.64,0,0,1-.68-.61.79.79,0,0,1,.21-.62A6.36,6.36,0,0,1,163,14.63Q168.72,14.92,168.68,24.65Z"/><path class="b48d56d6-266d-4b60-b72a-3758f06c122a" d="M190.91,24.65a11.75,11.75,0,0,1-1.84,6.66A5.36,5.36,0,0,1,184.58,34a5.51,5.51,0,0,1-4.92-2.54,11.62,11.62,0,0,1-1.49-6.33,17.93,17.93,0,0,1,.51-4.09,10,10,0,0,1,1.38-3.15.64.64,0,0,1,.58-.36c.5,0,.75.21.75.62a1.37,1.37,0,0,1-.21.68,10.48,10.48,0,0,0-1.09,2.83,14.91,14.91,0,0,0-.47,3.51A9.69,9.69,0,0,0,181,30.66a4.15,4.15,0,0,0,3.62,1.88,4.29,4.29,0,0,0,3.33-2.2,10.48,10.48,0,0,0,1.52-5.61,16.36,16.36,0,0,0-1-6.27,3.61,3.61,0,0,0-3.25-2.31,5.88,5.88,0,0,0-2.28.65,1.33,1.33,0,0,1-.62.25.64.64,0,0,1-.69-.61.79.79,0,0,1,.22-.62,6.3,6.3,0,0,1,3.37-1.19Q190.95,14.92,190.91,24.65Z"/><path class="b48d56d6-266d-4b60-b72a-3758f06c122a" d="M213.15,24.65a11.75,11.75,0,0,1-1.85,6.66A5.35,5.35,0,0,1,206.82,34a5.52,5.52,0,0,1-4.93-2.54,11.63,11.63,0,0,1-1.48-6.33,17.93,17.93,0,0,1,.51-4.09,10,10,0,0,1,1.37-3.15.66.66,0,0,1,.58-.36c.51,0,.76.21.76.62a1.29,1.29,0,0,1-.22.68,10.87,10.87,0,0,0-1.08,2.83,14.4,14.4,0,0,0-.47,3.51,9.61,9.61,0,0,0,1.34,5.46,4.14,4.14,0,0,0,3.62,1.88c1.2,0,2.31-.76,3.33-2.2a10.48,10.48,0,0,0,1.52-5.61,16.36,16.36,0,0,0-1-6.27,3.62,3.62,0,0,0-3.26-2.31,5.88,5.88,0,0,0-2.28.65,1.3,1.3,0,0,1-.61.25.64.64,0,0,1-.69-.61.75.75,0,0,1,.22-.62,6.3,6.3,0,0,1,3.36-1.19Q213.19,14.92,213.15,24.65Z"/><path class="b48d56d6-266d-4b60-b72a-3758f06c122a" d="M234.08,28.64a5.51,5.51,0,0,1-1.34,3.9A4.93,4.93,0,0,1,228.83,34a6.46,6.46,0,0,1-3.91-1.41,1,1,0,0,1-.32-.73.67.67,0,0,1,.76-.76.92.92,0,0,1,.54.18,5.19,5.19,0,0,0,2.93,1.16q3.66,0,3.66-3.83a3.41,3.41,0,0,0-1.67-2.76,9,9,0,0,0-3.18-1.33c-.46-.1-.69-.34-.69-.73a.72.72,0,0,1,.76-.79c2.8-.29,4.2-1.6,4.2-3.91a2.93,2.93,0,0,0-.83-2.17,3,3,0,0,0-2.25-.8c-.79,0-2,.57-3.62,1.7a1,1,0,0,1-.5.18c-.51,0-.76-.26-.76-.8a.93.93,0,0,1,.4-.72,7.54,7.54,0,0,1,4.48-1.88,4.89,4.89,0,0,1,3.12,1,4.17,4.17,0,0,1,1.51,3.48,4.87,4.87,0,0,1-3.29,4.77,6,6,0,0,1,2.64,1.67A4.33,4.33,0,0,1,234.08,28.64Z"/><path class="b48d56d6-266d-4b60-b72a-3758f06c122a" d="M257.62,24.65a11.75,11.75,0,0,1-1.85,6.66A5.35,5.35,0,0,1,251.29,34a5.52,5.52,0,0,1-4.93-2.54,11.63,11.63,0,0,1-1.48-6.33,17.93,17.93,0,0,1,.51-4.09,10,10,0,0,1,1.37-3.15.66.66,0,0,1,.58-.36c.51,0,.76.21.76.62a1.29,1.29,0,0,1-.22.68,10.52,10.52,0,0,0-1.08,2.83,14.4,14.4,0,0,0-.47,3.51,9.61,9.61,0,0,0,1.34,5.46,4.14,4.14,0,0,0,3.62,1.88c1.2,0,2.31-.76,3.32-2.2a10.4,10.4,0,0,0,1.53-5.61,16.36,16.36,0,0,0-1-6.27,3.62,3.62,0,0,0-3.26-2.31,5.88,5.88,0,0,0-2.28.65,1.29,1.29,0,0,1-.62.25.64.64,0,0,1-.68-.61.75.75,0,0,1,.22-.62,6.3,6.3,0,0,1,3.36-1.19Q257.66,14.92,257.62,24.65Z"/><path class="b48d56d6-266d-4b60-b72a-3758f06c122a" d="M279.85,24.65A11.75,11.75,0,0,1,278,31.31,5.36,5.36,0,0,1,273.52,34a5.51,5.51,0,0,1-4.92-2.54,11.63,11.63,0,0,1-1.48-6.33,17.89,17.89,0,0,1,.5-4.09A10,10,0,0,1,269,17.92a.64.64,0,0,1,.58-.36c.5,0,.76.21.76.62a1.39,1.39,0,0,1-.22.68A10.48,10.48,0,0,0,269,21.69a14.91,14.91,0,0,0-.47,3.51,9.69,9.69,0,0,0,1.34,5.46,4.15,4.15,0,0,0,3.62,1.88,4.29,4.29,0,0,0,3.33-2.2,10.48,10.48,0,0,0,1.52-5.61,16.36,16.36,0,0,0-1-6.27,3.61,3.61,0,0,0-3.25-2.31,5.88,5.88,0,0,0-2.28.65,1.33,1.33,0,0,1-.62.25.64.64,0,0,1-.69-.61.79.79,0,0,1,.22-.62,6.3,6.3,0,0,1,3.37-1.19Q279.89,14.92,279.85,24.65Z"/></g></g></svg>