<svg xmlns="http://www.w3.org/2000/svg" viewBox="0 0 569.29 160.25"><defs><style>.aeb8946d-1c8c-445d-8349-a609cb5cee46{fill:none;}.b8b23d2d-c57d-4454-8d7c-b70c144e6ed8{fill:#fff;}.f90b24d5-530a-419d-a3c0-d027ae789881{fill:#ec6b3b;}.a5d6eaca-1f36-4aaf-afea-9ba851269158{fill:#a64824;}.a4df7f52-58b5-4213-8d00-4ea4ec51f94e{fill:#ef8c91;}.a697ad6c-3517-485b-be3c-0dd77980ae05{fill:#b10004;}.a310063a-1ab8-4182-a56f-9ab271f908b1{fill:#fff100;}</style></defs><title>招牌</title><g id="bfec0e4c-7885-4083-bee3-15e917d7afea" data-name="圖層 2"><g id="a35389ec-792e-41c0-8034-d7267bf3bbbe" data-name="圖層 1"><path class="aeb8946d-1c8c-445d-8349-a609cb5cee46" d="M544.07,138.38a29.35,29.35,0,0,1-4,3A29.35,29.35,0,0,0,544.07,138.38Z"/><path class="aeb8946d-1c8c-445d-8349-a609cb5cee46" d="M37.65,148.37c-.27-.05-.53-.14-.8-.2C37.12,148.23,37.38,148.32,37.65,148.37Z"/><path class="aeb8946d-1c8c-445d-8349-a609cb5cee46" d="M496.88,0V13h27.65c19.75,0,35.82,16.59,35.82,37v69.43a37.67,37.67,0,0,1-8.9,24.36l-.19.21c-.38.46-.82,1-1.34,1.52s-1.06,1-1.51,1.44l-.18.16a35.12,35.12,0,0,1-23.75,9.3H43.3c-19.75,0-35.82-16.6-35.82-37V50c0-.35,0-.69,0-1v-.12A37.44,37.44,0,0,1,23.24,19.3c.69-.48,1.35-.87,1.92-1.22l.09,0c.65-.4,1.35-.78,2.12-1.18a34.59,34.59,0,0,1,16-3.88H71V0H0V160.25H569.29V0Z"/><polygon class="aeb8946d-1c8c-445d-8349-a609cb5cee46" points="143.93 12.96 146.49 12.96 149.06 12.96 184.33 12.96 186.9 12.96 189.46 12.96 224.74 12.96 227.3 12.96 229.87 12.96 265.14 12.96 267.7 12.96 270.27 12.96 305.54 12.96 308.11 12.96 310.67 12.96 345.94 12.96 348.51 12.96 351.08 12.96 386.35 12.96 388.92 12.96 391.48 12.96 426.75 12.96 429.32 12.96 431.88 12.96 455.59 12.96 455.59 0 112.29 0 112.29 12.96 143.93 12.96"/><rect class="aeb8946d-1c8c-445d-8349-a609cb5cee46" x="462.99" width="0.84" height="18.29"/><path class="aeb8946d-1c8c-445d-8349-a609cb5cee46" d="M550.84,129.57a26.68,26.68,0,0,0,1.18-2.8h0A26.68,26.68,0,0,1,550.84,129.57Z"/><rect class="aeb8946d-1c8c-445d-8349-a609cb5cee46" x="78.4" width="0.92" height="18.29"/><path class="aeb8946d-1c8c-445d-8349-a609cb5cee46" d="M540,141.33a28.33,28.33,0,0,1-4.52,2.23A28.33,28.33,0,0,0,540,141.33Z"/><path class="b8b23d2d-c57d-4454-8d7c-b70c144e6ed8" d="M553.77,62.16V117a28.19,28.19,0,0,1-1.09,7.79,28.19,28.19,0,0,0,1.09-7.79V50.33a28.3,28.3,0,0,0-3.43-13.55,28.3,28.3,0,0,1,3.43,13.55Z"/><polygon class="b8b23d2d-c57d-4454-8d7c-b70c144e6ed8" points="107.01 18.29 109.57 18.29 144.84 18.29 147.4 18.29 149.97 18.29 185.23 18.29 187.8 18.29 190.36 18.29 225.63 18.29 228.19 18.29 230.75 18.29 266.02 18.29 268.59 18.29 271.15 18.29 306.42 18.29 308.98 18.29 311.55 18.29 346.81 18.29 349.38 18.29 351.94 18.29 387.21 18.29 389.77 18.29 392.34 18.29 427.6 18.29 430.17 18.29 432.73 18.29 462.99 18.29 462.99 0 455.59 0 455.59 12.96 431.88 12.96 429.32 12.96 426.75 12.96 391.48 12.96 388.92 12.96 386.35 12.96 351.08 12.96 348.51 12.96 345.94 12.96 310.67 12.96 308.11 12.96 305.54 12.96 270.27 12.96 267.7 12.96 265.14 12.96 229.87 12.96 227.3 12.96 224.74 12.96 189.46 12.96 186.9 12.96 184.33 12.96 149.06 12.96 146.49 12.96 143.93 12.96 112.29 12.96 112.29 0 105.8 0 105.8 18.29 107.01 18.29"/><path class="b8b23d2d-c57d-4454-8d7c-b70c144e6ed8" d="M68.25,13H43.35a34.59,34.59,0,0,0-16,3.88c-.77.4-1.47.78-2.12,1.18l-.09,0c-.57.35-1.23.74-1.92,1.22A37.44,37.44,0,0,0,7.52,48.79v.12c0,.35,0,.69,0,1v69.43c0,20.39,16.07,37,35.82,37H524.48a35.12,35.12,0,0,0,23.75-9.3l.18-.16c.45-.41,1-.88,1.51-1.44s1-1.06,1.34-1.52l.19-.21a37.67,37.67,0,0,0,8.9-24.36V50c0-20.39-16.07-37-35.82-37H496.88V0h-6.57V18.29h35a32.08,32.08,0,0,1,32,32V117a32,32,0,0,1-8,21.19l-.18.2c-.37.42-.75.86-1.2,1.31s-.91.85-1.35,1.23l-.16.14a32,32,0,0,1-21.11,8H44.28a32.14,32.14,0,0,1-6.63-.7c-.27-.05-.53-.14-.8-.2A32.08,32.08,0,0,1,12.23,117V50.33c0-.26,0-.52,0-.77a1.94,1.94,0,0,0,0-.24A32.1,32.1,0,0,1,26.44,23.71c.59-.39,1.16-.73,1.71-1.05l.09,0c.57-.34,1.18-.66,1.88-1a31.67,31.67,0,0,1,14.16-3.32H78.4V0H71V13Z"/><path class="b8b23d2d-c57d-4454-8d7c-b70c144e6ed8" d="M552,126.77c.24-.64.47-1.29.66-2-.19.66-.42,1.31-.66,2Z"/><polygon class="f90b24d5-530a-419d-a3c0-d027ae789881" points="104.44 18.29 105.8 18.29 105.8 0 82.7 0 82.7 18.29 104.44 18.29"/><rect class="a5d6eaca-1f36-4aaf-afea-9ba851269158" x="79.32" width="3.38" height="18.29"/><polygon class="f90b24d5-530a-419d-a3c0-d027ae789881" points="468 18.29 470.56 18.29 473.13 18.29 486.82 18.29 486.82 0 463.83 0 463.83 18.29 468 18.29"/><rect class="f90b24d5-530a-419d-a3c0-d027ae789881" x="490.2" width="0.11" height="18.29"/><rect class="a5d6eaca-1f36-4aaf-afea-9ba851269158" x="486.82" width="3.38" height="18.29"/><path class="b8b23d2d-c57d-4454-8d7c-b70c144e6ed8" d="M525.35,21.91h0a28.43,28.43,0,0,1,28.42,28.42V117a28.29,28.29,0,0,1-7.14,18.79c-.4.45-.8.91-1.23,1.34s-.88.82-1.34,1.22a28.31,28.31,0,0,1-18.71,7.06h0A28,28,0,0,0,540,141.33a29.35,29.35,0,0,0,4-3c.45-.4.91-.8,1.34-1.22s.82-.89,1.22-1.34a29.5,29.5,0,0,0,3-4c.44-.72.84-1.45,1.22-2.21a26.68,26.68,0,0,0,1.18-2.8c.24-.64.47-1.29.66-2a28.19,28.19,0,0,0,1.09-7.79V50.33a28.4,28.4,0,0,0-28.42-28.42Z"/><path class="f90b24d5-530a-419d-a3c0-d027ae789881" d="M486.82,18.29H44.28a31.67,31.67,0,0,0-14.16,3.32c-.7.35-1.31.67-1.88,1l-.09,0c-.55.32-1.12.66-1.71,1.05A32.1,32.1,0,0,0,12.28,49.32a1.94,1.94,0,0,1,0,.24c0,.25,0,.51,0,.77V117a32.08,32.08,0,0,0,24.62,31.14c.27.06.53.15.8.2a32.14,32.14,0,0,0,6.63.7H525.35a32,32,0,0,0,21.11-8l.16-.14c.44-.38.89-.78,1.35-1.23s.83-.89,1.2-1.31l.18-.2a32,32,0,0,0,8-21.19V50.33a32.08,32.08,0,0,0-32-32H486.82Zm66.95,32V117a28.19,28.19,0,0,1-1.09,7.79c-.19.66-.42,1.31-.66,2a26.68,26.68,0,0,1-1.18,2.8c-.38.76-.78,1.49-1.22,2.21a29.5,29.5,0,0,1-3,4c-.4.45-.79.91-1.22,1.34s-.89.82-1.34,1.22a29.35,29.35,0,0,1-4,3,28,28,0,0,1-14.69,4.11H44.23A28.42,28.42,0,0,1,15.81,117V50.33c0-.3,0-.6,0-.9A28.39,28.39,0,0,1,28.42,26.72c.51-.34,1-.65,1.59-1s1.11-.61,1.67-.89a28.27,28.27,0,0,1,12.55-2.95H525.35a28.4,28.4,0,0,1,28.42,28.42Z"/><path class="b8b23d2d-c57d-4454-8d7c-b70c144e6ed8" d="M247.09,85.31c0-4-.81-7-2.42-8.81-1.37-1.56-3.48-2.42-6.25-2.65l-1.26.08-.63.06V97l.82,0c3.24-.24,5.61-1.09,7.08-2.57Q247.08,91.85,247.09,85.31Z"/><path class="b8b23d2d-c57d-4454-8d7c-b70c144e6ed8" d="M440.74,94.63c1.77-2.09,2.65-5.15,2.65-9.2s-.88-7.08-2.65-9.16a7.18,7.18,0,0,0-11.65,0q-2.64,3.12-2.64,9.18c0,4,.89,7.11,2.65,9.2a7.17,7.17,0,0,0,11.64,0Z"/><path class="b8b23d2d-c57d-4454-8d7c-b70c144e6ed8" d="M137.2,75.2a36.77,36.77,0,0,0-2.2,3.34,27.75,27.75,0,0,0-2.54,5.95h7.72a38.46,38.46,0,0,0-1.76-6.44C138.05,77.06,137.64,76.1,137.2,75.2Z"/><path class="b8b23d2d-c57d-4454-8d7c-b70c144e6ed8" d="M533.81,123a10.32,10.32,0,0,0,1.92-6V50.33a9.82,9.82,0,0,0-.06-1.09,10.17,10.17,0,0,0-1.1-3.67,10.46,10.46,0,0,0-4.5-4.5A10.17,10.17,0,0,0,526.4,40a9.82,9.82,0,0,0-1.09-.06H44.17a10.18,10.18,0,0,0-2.29.28,10.42,10.42,0,0,0-8.07,10.14V117a10.43,10.43,0,0,0,10.42,10.42H525.31a10.33,10.33,0,0,0,5.92-1.86,10,10,0,0,0,2.58-2.55ZM109.2,106.35a25.25,25.25,0,0,1-5.51,1.65,35.23,35.23,0,0,1-6.46.56c-.39,0-.75,0-1.12,0s-.58,0-.89,0-.74,0-1.12,0-.58,0-.88,0Q82,108.56,76,102.7T69.93,86q0-10.81,6-17.19T92,62.4c.4,0,.78,0,1.18,0s.54,0,.82,0,.79,0,1.18,0,.54,0,.82,0a42.22,42.22,0,0,1,11.13,1.35c3.28.91,4.93,1.82,4.93,2.72A2.34,2.34,0,0,1,112,67a3.66,3.66,0,0,1-.19.68l-2.84,9c-.58-.36-1.14-.67-1.7-1l-.3,1c-.59-.36-1.15-.67-1.7-1l-.31,1A27.27,27.27,0,0,0,99.52,74a15.61,15.61,0,0,0-2.94-.68,10.26,10.26,0,0,0-6.4,3.09q-3,3.24-3,9.06T90,94.28a9.81,9.81,0,0,0,6.21,2.93,21.33,21.33,0,0,0,4.49-1,26.31,26.31,0,0,0,6.5-3.33v1.26c.68-.39,1.35-.8,2-1.26v1.26c.68-.39,1.35-.8,2-1.26v10.49a3.47,3.47,0,0,1-.43,2A3.71,3.71,0,0,1,109.2,106.35Zm49.48,1.43H142.2a17.34,17.34,0,0,0,.57-2.68,23.85,23.85,0,0,0,.19-3.2,35.38,35.38,0,0,0-.22-3.78,36.69,36.69,0,0,0-.67-3.93H129.74a13.26,13.26,0,0,0-.72,3.09,40.29,40.29,0,0,0-.22,4.81c0,1.11,0,2.13.07,3s.13,1.79.21,2.64H111.32c0-.34,0-.78-.06-1.33,0-.8-.06-1.33-.06-1.58a44.18,44.18,0,0,1,3.6-17.53,52,52,0,0,1,10.25-15.29l-.63.08q-2.7.41-5.93,1.2c.11-.18.19-.34.3-.52-.75.16-1.5.32-2.3.52.11-.18.19-.34.29-.52-.75.16-1.5.32-2.3.52q1.88-3.17,3.21-5.83a39.75,39.75,0,0,0,2-4.63c.51.08,1.06.15,1.65.19h.27l.09-.2c.5.08,1.05.15,1.64.19h.28c0-.06.06-.14.08-.2.5.08,1.05.15,1.64.19s1.49.06,2.69.06h17.35a57.06,57.06,0,0,1,10.82,19.41,85.47,85.47,0,0,1,4.44,25.25ZM214.6,67.12a20.76,20.76,0,0,0-.57,5.32v28c0,1.18,0,2.38.14,3.59s.23,2.47.43,3.78H198.83L180.5,84.15v14.3a22.21,22.21,0,0,0,.56,5.38,12,12,0,0,0,1.84,4H161.54a12,12,0,0,0,1.83-4,21.68,21.68,0,0,0,.57-5.38v-26a21.22,21.22,0,0,0-.57-5.32,12.75,12.75,0,0,0-1.83-4h19.81L197.54,84V72.44a21.22,21.22,0,0,0-.57-5.32,12.55,12.55,0,0,0-1.84-4h21.3A12.31,12.31,0,0,0,214.6,67.12Zm36.92,39.2a35.25,35.25,0,0,1-11.68,1.58h-4q-2.75,0-6.74-.12c-1.76-.06-3.07-.1-4-.11h-.92c-.95,0-1.87,0-2.75.1a.16.16,0,0,1,0-.07c-.69,0-1.39,0-2.05.07l.05-.07c-.7,0-1.39,0-2.05.07a12,12,0,0,0,1.83-4,21.68,21.68,0,0,0,.57-5.38v-26a21.73,21.73,0,0,0-.57-5.34,13.38,13.38,0,0,0-1.83-4.1l2.08.13-.08-.13,2.08.13c0-.05,0-.09-.07-.13,1.53.1,2.94.18,4.22.23.54,0,1.06,0,1.58.05,1.11,0,2.44-.06,4-.13q4-.15,6.1-.15h4a42.9,42.9,0,0,1,9.78.88,15,15,0,0,1,6.05,2.88,17.64,17.64,0,0,1,5.26,7.44,28.86,28.86,0,0,1,1.82,10.6,29.89,29.89,0,0,1-1.33,9.2,20.42,20.42,0,0,1-3.92,7.17A17.39,17.39,0,0,1,251.52,106.32Zm56-38.82Q305.83,70,304.12,73L295.4,88.37q-4.23,7.48-7.63,12.41c-2.27,3.27-4,5.36-5.33,6.27a3.67,3.67,0,0,1-1.2.57,8,8,0,0,1-1.77.16h-18.7a31.61,31.61,0,0,0,6-5.12,89.84,89.84,0,0,0,7-8.41l2.78-3.76-8.34-14.7a63.72,63.72,0,0,0-4.71-7.12,45.6,45.6,0,0,0-5.09-5.55h22.05a12.71,12.71,0,0,0,.6,3.38,21.84,21.84,0,0,0,1.9,4l2.38,4.15,3.76-7.56a8.5,8.5,0,0,0,.58-1.54,5.26,5.26,0,0,0,.21-1.37,4.63,4.63,0,0,0,0-.54c0-.17-.06-.36-.1-.57H311A48.91,48.91,0,0,0,307.57,67.5Zm47.24,37.35q-4.51,3.72-12.58,3.71l-1.05,0-.95,0-1.06,0-.95,0a34.68,34.68,0,0,1-9.89-1.2c-2.67-.8-4-1.75-4-2.87a3.28,3.28,0,0,1,0-.4,2.79,2.79,0,0,0,0-.33l1-9.32a19.51,19.51,0,0,0,1.89,1.11l.12-1.11a18.22,18.22,0,0,0,1.88,1.11l.12-1.11a20.65,20.65,0,0,0,5.39,2.64,21.43,21.43,0,0,0,3.43.82,5.25,5.25,0,0,0,1.93-.73,2.87,2.87,0,0,0,1.36-2.54q0-1.93-5.06-5.25c-1.32-.84-2.36-1.52-3.09-2l-.86-.57q-7.89-5.51-7.9-11.35a11.34,11.34,0,0,1,4.59-9.49q4.57-3.53,12.38-3.52l1.08,0,.93,0,1.08,0,.92,0a36.47,36.47,0,0,1,8.72.94c2.55.64,3.83,1.32,3.83,2.06a3.82,3.82,0,0,1-.07.69,4.64,4.64,0,0,1-.19.82l-2,8.19c-.6-.33-1.2-.59-1.79-.87l-.21.87c-.61-.33-1.2-.59-1.79-.87l-.22.87a26.74,26.74,0,0,0-5.08-2.16,18.64,18.64,0,0,0-2.16-.52,4.35,4.35,0,0,0-1.14.48,2.25,2.25,0,0,0-1.07,1.95c0,1.32,1.65,2.93,5,4.8,2,1.12,3.5,2,4.61,2.81A18.42,18.42,0,0,1,357.61,88a13.78,13.78,0,0,1-2.8,16.87Zm51.54-1a12,12,0,0,0,1.83,4H386.64a12,12,0,0,0,1.83-4,21.68,21.68,0,0,0,.57-5.38V89.79h-9.2v8.66a21.68,21.68,0,0,0,.57,5.38,12,12,0,0,0,1.83,4H360.69a11.82,11.82,0,0,0,1.84-4,21.72,21.72,0,0,0,.56-5.38v-26a21.26,21.26,0,0,0-.56-5.32,12.55,12.55,0,0,0-1.84-4h21.55a12.75,12.75,0,0,0-1.83,4,21.22,21.22,0,0,0-.57,5.32v6.61H389V72.44a21.22,21.22,0,0,0-.57-5.32,12.75,12.75,0,0,0-1.83-4h21.54a12.75,12.75,0,0,0-1.83,4,21.22,21.22,0,0,0-.57,5.32v26A21.68,21.68,0,0,0,406.35,103.83Zm48.24-1.14q-6,5.88-17.68,5.87c-.34,0-.66,0-1,0s-.66,0-1,0-.67,0-1,0-.66,0-1,0q-11.62,0-17.65-5.87t-6-17.26q0-11.34,6-17.19T432.9,62.4c.35,0,.67,0,1,0s.65,0,1,0,.66,0,1,0,.66,0,1,0q11.67,0,17.68,5.84t6,17.19Q460.61,96.82,454.59,102.69Zm41.08-13.92q-4.28,3.87-12.46,3.87l-1.08,0c-.31,0-.61,0-.93,0l-1,0v5.84a20.08,20.08,0,0,0,.63,5.2,12.73,12.73,0,0,0,1.89,4.13h-21.1a12,12,0,0,0,1.83-4,21.68,21.68,0,0,0,.57-5.38v-26a21.55,21.55,0,0,0-.6-5.49,11.53,11.53,0,0,0-1.86-4l2.08.13L463.6,63l2.08.13L465.6,63c1.54.1,3,.18,4.25.23l1.68.06c1.17,0,2.49-.07,4-.14,2.49-.1,4.23-.15,5.2-.15l.69,0c.52,0,1,0,1.31,0l.7,0c.51,0,1,0,1.3,0q7.68,0,11.45,3.61t3.76,11Q500,84.9,495.67,88.77Z"/><path class="b8b23d2d-c57d-4454-8d7c-b70c144e6ed8" d="M484.82,77.63a5.4,5.4,0,0,0-1.48-4.25,5.65,5.65,0,0,0-2.86-1.16l-.24,0V83l.33,0a5.48,5.48,0,0,0,2.77-1.15A5.39,5.39,0,0,0,484.82,77.63Z"/><polygon class="a4df7f52-58b5-4213-8d00-4ea4ec51f94e" points="53.48 127.45 71.48 145.44 71.52 145.44 106.74 145.44 88.75 127.45 53.48 127.45"/><path class="a697ad6c-3517-485b-be3c-0dd77980ae05" d="M46.73,39.91H82l-18-18H44.23a28.27,28.27,0,0,0-12.55,2.95Z"/><polygon class="a4df7f52-58b5-4213-8d00-4ea4ec51f94e" points="295.85 127.45 313.85 145.44 313.89 145.44 313.89 145.44 349.11 145.44 331.12 127.45 295.85 127.45"/><polygon class="a310063a-1ab8-4182-a56f-9ab271f908b1" points="33.81 107.78 33.81 72.51 15.81 54.52 15.81 89.78 33.81 107.78"/><polygon class="a310063a-1ab8-4182-a56f-9ab271f908b1" points="93.88 127.45 111.87 145.44 111.92 145.44 111.92 145.44 147.14 145.44 129.14 127.45 93.88 127.45"/><polygon class="a697ad6c-3517-485b-be3c-0dd77980ae05" points="255.46 127.45 273.45 145.44 273.5 145.44 308.72 145.44 290.72 127.45 255.46 127.45"/><polygon class="a310063a-1ab8-4182-a56f-9ab271f908b1" points="87.13 39.91 122.39 39.91 104.4 21.91 82.7 21.91 79.32 21.91 69.18 21.91 69.13 21.91 87.13 39.91"/><polygon class="a4df7f52-58b5-4213-8d00-4ea4ec51f94e" points="174.66 127.45 192.66 145.44 192.71 145.44 192.71 145.44 227.93 145.44 209.93 127.45 174.66 127.45"/><polygon class="a697ad6c-3517-485b-be3c-0dd77980ae05" points="134.27 127.45 152.27 145.44 152.31 145.44 152.31 145.44 187.53 145.44 169.54 127.45 134.27 127.45"/><polygon class="a310063a-1ab8-4182-a56f-9ab271f908b1" points="215.06 127.45 233.06 145.44 233.1 145.44 233.1 145.44 268.32 145.44 250.33 127.45 215.06 127.45"/><path class="a697ad6c-3517-485b-be3c-0dd77980ae05" d="M44.23,127.45A10.43,10.43,0,0,1,33.81,117v-4.12l-18-18V117a28.42,28.42,0,0,0,28.42,28.41H66.35l-18-18Z"/><polygon class="a310063a-1ab8-4182-a56f-9ab271f908b1" points="450.68 39.91 485.94 39.91 467.95 21.91 463.83 21.91 432.73 21.91 432.69 21.91 450.68 39.91"/><polygon class="a697ad6c-3517-485b-be3c-0dd77980ae05" points="410.29 39.91 445.55 39.91 427.56 21.91 392.34 21.91 392.29 21.91 410.29 39.91"/><path class="a697ad6c-3517-485b-be3c-0dd77980ae05" d="M553.73,62.16V50.33a28.43,28.43,0,0,0-28.42-28.42H513.48Z"/><polygon class="a4df7f52-58b5-4213-8d00-4ea4ec51f94e" points="369.89 39.91 405.16 39.91 387.16 21.91 351.94 21.91 351.89 21.91 369.89 39.91"/><path class="a4df7f52-58b5-4213-8d00-4ea4ec51f94e" d="M491.08,39.91h34.23a9.82,9.82,0,0,1,1.09.06l-18-18.06H473.08Z"/><polygon class="a310063a-1ab8-4182-a56f-9ab271f908b1" points="208.31 39.91 243.57 39.91 225.58 21.91 190.36 21.91 190.32 21.91 208.31 39.91"/><polygon class="a4df7f52-58b5-4213-8d00-4ea4ec51f94e" points="127.52 39.91 162.79 39.91 144.79 21.91 109.57 21.91 109.53 21.91 127.52 39.91"/><polygon class="a310063a-1ab8-4182-a56f-9ab271f908b1" points="329.5 39.91 364.76 39.91 346.77 21.91 311.55 21.91 311.5 21.91 329.5 39.91"/><polygon class="a697ad6c-3517-485b-be3c-0dd77980ae05" points="167.91 39.91 203.18 39.91 185.19 21.91 149.97 21.91 149.92 21.91 167.91 39.91"/><polygon class="a697ad6c-3517-485b-be3c-0dd77980ae05" points="289.1 39.91 324.37 39.91 306.37 21.91 271.15 21.91 271.11 21.91 289.1 39.91"/><polygon class="a4df7f52-58b5-4213-8d00-4ea4ec51f94e" points="248.71 39.91 283.97 39.91 265.98 21.91 230.75 21.91 230.71 21.91 248.71 39.91"/><path class="a4df7f52-58b5-4213-8d00-4ea4ec51f94e" d="M33.81,67.38v-17a10.42,10.42,0,0,1,8.07-10.14L28.42,26.72A28.39,28.39,0,0,0,15.86,49.43Z"/><polygon class="a4df7f52-58b5-4213-8d00-4ea4ec51f94e" points="417.04 127.45 435.03 145.44 435.08 145.44 435.08 145.44 470.3 145.44 452.3 127.45 417.04 127.45"/><path class="a310063a-1ab8-4182-a56f-9ab271f908b1" d="M535.67,49.24a9.82,9.82,0,0,1,.06,1.09V84.56l18,18V67.29Z"/><polygon class="a310063a-1ab8-4182-a56f-9ab271f908b1" points="336.25 127.45 354.24 145.44 354.29 145.44 354.29 145.44 389.51 145.44 371.51 127.45 336.25 127.45"/><polygon class="a310063a-1ab8-4182-a56f-9ab271f908b1" points="457.43 127.45 475.43 145.44 475.47 145.44 475.47 145.44 510.69 145.44 492.7 127.45 457.43 127.45"/><path class="a697ad6c-3517-485b-be3c-0dd77980ae05" d="M531.23,125.59a10.33,10.33,0,0,1-5.92,1.86H497.83l18,18h9.49A28.31,28.31,0,0,0,544,138.38Z"/><path class="a4df7f52-58b5-4213-8d00-4ea4ec51f94e" d="M535.73,89.69V117a10.32,10.32,0,0,1-1.92,6l12.78,12.78A28.29,28.29,0,0,0,553.73,117v-9.34Z"/><polygon class="a697ad6c-3517-485b-be3c-0dd77980ae05" points="376.64 127.45 394.64 145.44 394.68 145.44 394.68 145.44 429.9 145.44 411.91 127.45 376.64 127.45"/><polygon class="b8b23d2d-c57d-4454-8d7c-b70c144e6ed8" points="33.81 112.91 33.81 110.34 15.81 92.35 15.81 94.91 33.81 112.91"/><polygon class="b8b23d2d-c57d-4454-8d7c-b70c144e6ed8" points="50.92 127.45 68.91 145.44 68.96 145.44 68.96 145.44 71.48 145.44 53.48 127.45 50.92 127.45"/><polygon class="b8b23d2d-c57d-4454-8d7c-b70c144e6ed8" points="48.35 127.45 66.35 145.44 66.39 145.44 66.39 145.44 68.91 145.44 50.92 127.45 48.35 127.45"/><polygon class="b8b23d2d-c57d-4454-8d7c-b70c144e6ed8" points="33.81 110.34 33.81 107.78 15.81 89.78 15.81 92.35 33.81 110.34"/><polygon class="b8b23d2d-c57d-4454-8d7c-b70c144e6ed8" points="88.75 127.45 106.74 145.44 106.79 145.44 106.79 145.44 109.31 145.44 91.31 127.45 88.75 127.45"/><path class="b8b23d2d-c57d-4454-8d7c-b70c144e6ed8" d="M33.81,70V67.38l-18-17.95c0,.3,0,.6,0,.9V52Z"/><polygon class="b8b23d2d-c57d-4454-8d7c-b70c144e6ed8" points="91.31 127.45 109.31 145.44 109.35 145.44 109.35 145.44 111.87 145.44 93.88 127.45 91.31 127.45"/><polygon class="b8b23d2d-c57d-4454-8d7c-b70c144e6ed8" points="33.81 72.51 33.81 69.95 15.81 51.95 15.81 54.52 33.81 72.51"/><path class="b8b23d2d-c57d-4454-8d7c-b70c144e6ed8" d="M44.17,39.91h2.56l-15-15c-.56.28-1.12.58-1.67.89Z"/><path class="b8b23d2d-c57d-4454-8d7c-b70c144e6ed8" d="M41.88,40.19a10.18,10.18,0,0,1,2.29-.28L30,25.75c-.54.32-1.08.63-1.59,1Z"/><polygon class="b8b23d2d-c57d-4454-8d7c-b70c144e6ed8" points="131.71 127.45 149.7 145.44 149.75 145.44 149.75 145.44 152.27 145.44 134.27 127.45 131.71 127.45"/><polygon class="b8b23d2d-c57d-4454-8d7c-b70c144e6ed8" points="129.14 127.45 147.14 145.44 147.18 145.44 149.7 145.44 131.71 127.45 129.14 127.45"/><polygon class="b8b23d2d-c57d-4454-8d7c-b70c144e6ed8" points="169.54 127.45 187.53 145.44 187.58 145.44 187.58 145.44 190.1 145.44 172.1 127.45 169.54 127.45"/><polygon class="b8b23d2d-c57d-4454-8d7c-b70c144e6ed8" points="172.1 127.45 190.1 145.44 190.14 145.44 190.14 145.44 192.66 145.44 174.66 127.45 172.1 127.45"/><polygon class="b8b23d2d-c57d-4454-8d7c-b70c144e6ed8" points="84.56 39.91 87.13 39.91 69.13 21.91 66.61 21.91 66.57 21.91 84.56 39.91"/><polygon class="b8b23d2d-c57d-4454-8d7c-b70c144e6ed8" points="82 39.91 84.56 39.91 66.57 21.91 64.05 21.91 64 21.91 82 39.91"/><polygon class="b8b23d2d-c57d-4454-8d7c-b70c144e6ed8" points="124.96 39.91 127.52 39.91 109.53 21.91 107.01 21.91 106.96 21.91 124.96 39.91"/><polygon class="b8b23d2d-c57d-4454-8d7c-b70c144e6ed8" points="209.93 127.45 227.93 145.44 227.97 145.44 227.97 145.44 230.49 145.44 212.5 127.45 209.93 127.45"/><polygon class="b8b23d2d-c57d-4454-8d7c-b70c144e6ed8" points="212.5 127.45 230.49 145.44 230.54 145.44 233.06 145.44 215.06 127.45 212.5 127.45"/><polygon class="b8b23d2d-c57d-4454-8d7c-b70c144e6ed8" points="122.39 39.91 124.96 39.91 106.96 21.91 105.8 21.91 104.44 21.91 104.4 21.91 122.39 39.91"/><polygon class="b8b23d2d-c57d-4454-8d7c-b70c144e6ed8" points="250.33 127.45 268.32 145.44 268.37 145.44 268.37 145.44 270.89 145.44 252.89 127.45 250.33 127.45"/><polygon class="b8b23d2d-c57d-4454-8d7c-b70c144e6ed8" points="165.35 39.91 167.91 39.91 149.92 21.91 147.4 21.91 147.36 21.91 165.35 39.91"/><polygon class="b8b23d2d-c57d-4454-8d7c-b70c144e6ed8" points="252.89 127.45 270.89 145.44 270.93 145.44 270.93 145.44 273.45 145.44 255.46 127.45 252.89 127.45"/><polygon class="b8b23d2d-c57d-4454-8d7c-b70c144e6ed8" points="162.79 39.91 165.35 39.91 147.36 21.91 144.84 21.91 144.79 21.91 162.79 39.91"/><polygon class="b8b23d2d-c57d-4454-8d7c-b70c144e6ed8" points="203.18 39.91 205.75 39.91 187.75 21.91 185.23 21.91 185.19 21.91 203.18 39.91"/><polygon class="b8b23d2d-c57d-4454-8d7c-b70c144e6ed8" points="290.72 127.45 308.72 145.44 308.76 145.44 308.76 145.44 311.28 145.44 293.29 127.45 290.72 127.45"/><polygon class="b8b23d2d-c57d-4454-8d7c-b70c144e6ed8" points="205.75 39.91 208.31 39.91 190.32 21.91 187.8 21.91 187.75 21.91 205.75 39.91"/><polygon class="b8b23d2d-c57d-4454-8d7c-b70c144e6ed8" points="293.29 127.45 311.28 145.44 311.33 145.44 311.33 145.44 313.85 145.44 295.85 127.45 293.29 127.45"/><polygon class="b8b23d2d-c57d-4454-8d7c-b70c144e6ed8" points="331.12 127.45 349.11 145.44 349.16 145.44 351.68 145.44 333.68 127.45 331.12 127.45"/><polygon class="b8b23d2d-c57d-4454-8d7c-b70c144e6ed8" points="333.68 127.45 351.68 145.44 351.72 145.44 354.24 145.44 336.25 127.45 333.68 127.45"/><polygon class="b8b23d2d-c57d-4454-8d7c-b70c144e6ed8" points="243.57 39.91 246.14 39.91 228.15 21.91 225.63 21.91 225.58 21.91 243.57 39.91"/><polygon class="b8b23d2d-c57d-4454-8d7c-b70c144e6ed8" points="246.14 39.91 248.71 39.91 230.71 21.91 228.19 21.91 228.15 21.91 246.14 39.91"/><polygon class="b8b23d2d-c57d-4454-8d7c-b70c144e6ed8" points="371.51 127.45 389.51 145.44 389.55 145.44 389.55 145.44 392.07 145.44 374.08 127.45 371.51 127.45"/><polygon class="b8b23d2d-c57d-4454-8d7c-b70c144e6ed8" points="286.54 39.91 289.1 39.91 271.11 21.91 268.59 21.91 268.54 21.91 286.54 39.91"/><polygon class="b8b23d2d-c57d-4454-8d7c-b70c144e6ed8" points="283.97 39.91 286.54 39.91 268.54 21.91 266.02 21.91 265.98 21.91 283.97 39.91"/><polygon class="b8b23d2d-c57d-4454-8d7c-b70c144e6ed8" points="374.08 127.45 392.07 145.44 392.12 145.44 392.12 145.44 394.64 145.44 376.64 127.45 374.08 127.45"/><polygon class="b8b23d2d-c57d-4454-8d7c-b70c144e6ed8" points="324.37 39.91 326.93 39.91 308.94 21.91 306.42 21.91 306.37 21.91 324.37 39.91"/><polygon class="b8b23d2d-c57d-4454-8d7c-b70c144e6ed8" points="411.91 127.45 429.9 145.44 429.95 145.44 429.95 145.44 432.47 145.44 414.47 127.45 411.91 127.45"/><polygon class="b8b23d2d-c57d-4454-8d7c-b70c144e6ed8" points="326.93 39.91 329.5 39.91 311.5 21.91 308.98 21.91 308.94 21.91 326.93 39.91"/><polygon class="b8b23d2d-c57d-4454-8d7c-b70c144e6ed8" points="414.47 127.45 432.47 145.44 432.51 145.44 435.03 145.44 417.04 127.45 414.47 127.45"/><polygon class="b8b23d2d-c57d-4454-8d7c-b70c144e6ed8" points="367.33 39.91 369.89 39.91 351.89 21.91 349.38 21.91 349.33 21.91 367.33 39.91"/><polygon class="b8b23d2d-c57d-4454-8d7c-b70c144e6ed8" points="452.3 127.45 470.3 145.44 470.34 145.44 470.34 145.44 472.86 145.44 454.87 127.45 452.3 127.45"/><polygon class="b8b23d2d-c57d-4454-8d7c-b70c144e6ed8" points="364.76 39.91 367.33 39.91 349.33 21.91 346.81 21.91 346.77 21.91 364.76 39.91"/><polygon class="b8b23d2d-c57d-4454-8d7c-b70c144e6ed8" points="454.87 127.45 472.86 145.44 472.91 145.44 472.91 145.44 475.43 145.44 457.43 127.45 454.87 127.45"/><polygon class="b8b23d2d-c57d-4454-8d7c-b70c144e6ed8" points="405.16 39.91 407.72 39.91 389.73 21.91 387.21 21.91 387.16 21.91 405.16 39.91"/><polygon class="b8b23d2d-c57d-4454-8d7c-b70c144e6ed8" points="407.72 39.91 410.29 39.91 392.29 21.91 389.77 21.91 389.73 21.91 407.72 39.91"/><polygon class="b8b23d2d-c57d-4454-8d7c-b70c144e6ed8" points="495.26 127.45 513.26 145.44 513.3 145.44 513.3 145.44 515.82 145.44 497.83 127.45 495.26 127.45"/><polygon class="b8b23d2d-c57d-4454-8d7c-b70c144e6ed8" points="492.7 127.45 510.69 145.44 510.74 145.44 510.74 145.44 513.26 145.44 495.26 127.45 492.7 127.45"/><polygon class="b8b23d2d-c57d-4454-8d7c-b70c144e6ed8" points="445.55 39.91 448.12 39.91 430.12 21.91 427.6 21.91 427.56 21.91 445.55 39.91"/><path class="b8b23d2d-c57d-4454-8d7c-b70c144e6ed8" d="M533.81,123a11,11,0,0,1-1.17,1.39l12.72,12.73c.43-.43.83-.89,1.23-1.34Z"/><path class="b8b23d2d-c57d-4454-8d7c-b70c144e6ed8" d="M532.64,124.43a11.14,11.14,0,0,1-1.41,1.16L544,138.38c.46-.4.91-.8,1.34-1.22Z"/><polygon class="b8b23d2d-c57d-4454-8d7c-b70c144e6ed8" points="448.12 39.91 450.68 39.91 432.69 21.91 430.17 21.91 430.12 21.91 448.12 39.91"/><polygon class="b8b23d2d-c57d-4454-8d7c-b70c144e6ed8" points="488.51 39.91 491.07 39.91 473.08 21.91 470.56 21.91 470.52 21.91 488.51 39.91"/><polygon class="b8b23d2d-c57d-4454-8d7c-b70c144e6ed8" points="535.73 87.13 535.73 89.69 553.73 107.69 553.73 105.12 535.73 87.13"/><polygon class="b8b23d2d-c57d-4454-8d7c-b70c144e6ed8" points="535.73 84.56 535.73 87.13 553.73 105.12 553.73 102.56 535.73 84.56"/><polygon class="b8b23d2d-c57d-4454-8d7c-b70c144e6ed8" points="485.94 39.91 488.51 39.91 470.52 21.91 468 21.91 467.95 21.91 485.94 39.91"/><path class="b8b23d2d-c57d-4454-8d7c-b70c144e6ed8" d="M534.57,45.57a10.17,10.17,0,0,1,1.1,3.67l18.06,18.05V64.73Z"/><path class="b8b23d2d-c57d-4454-8d7c-b70c144e6ed8" d="M526.4,40a10.17,10.17,0,0,1,3.67,1.1L510.91,21.91h-2.56Z"/><path class="b8b23d2d-c57d-4454-8d7c-b70c144e6ed8" d="M530.07,41.07a10.46,10.46,0,0,1,4.5,4.5l19.16,19.16V62.16L513.48,21.91h-2.57Z"/><path class="a4df7f52-58b5-4213-8d00-4ea4ec51f94e" d="M102.73,96.16a24.94,24.94,0,0,0,4.49-2.07V92.83a26.31,26.31,0,0,1-6.5,3.33,21.33,21.33,0,0,1-4.49,1c.3,0,.59.07.9.09A20.29,20.29,0,0,0,102.73,96.16Z"/><path class="a4df7f52-58b5-4213-8d00-4ea4ec51f94e" d="M71.93,86q0-10.81,6-17.19c3.83-4.08,8.92-6.18,15.25-6.35-.4,0-.78,0-1.18,0q-10.09,0-16.07,6.38T69.93,86q0,10.88,6,16.73t17.26,5.86c.3,0,.58,0,.88,0-6.92-.19-12.31-2.12-16.13-5.83Q71.93,96.85,71.93,86Z"/><path class="a4df7f52-58b5-4213-8d00-4ea4ec51f94e" d="M97.6,73.24c-.35,0-.69.06-1,.11a15.61,15.61,0,0,1,2.94.68,27.27,27.27,0,0,1,5.42,2.62l.31-1A24.11,24.11,0,0,0,101.53,74,15.85,15.85,0,0,0,97.6,73.24Z"/><path class="a4df7f52-58b5-4213-8d00-4ea4ec51f94e" d="M121.65,63.07h-.27c-.59,0-1.14-.11-1.65-.19a39.75,39.75,0,0,1-2,4.63q-1.34,2.67-3.21,5.83c.8-.2,1.55-.36,2.3-.52,1.11-1.9,2.1-3.68,2.92-5.31A42.23,42.23,0,0,0,121.65,63.07Z"/><path class="a4df7f52-58b5-4213-8d00-4ea4ec51f94e" d="M145,101.9a33,33,0,0,0-.22-3.78,36.63,36.63,0,0,0-.66-3.93h-2a36.69,36.69,0,0,1,.67,3.93,35.38,35.38,0,0,1,.22,3.78,23.85,23.85,0,0,1-.19,3.2,17.34,17.34,0,0,1-.57,2.68h2a16.26,16.26,0,0,0,.56-2.68A23.85,23.85,0,0,0,145,101.9Z"/><path class="a4df7f52-58b5-4213-8d00-4ea4ec51f94e" d="M113.2,104.87a44.19,44.19,0,0,1,3.61-17.53A52.1,52.1,0,0,1,127.3,71.79c-.72.06-1.48.15-2.25.26A52,52,0,0,0,114.8,87.34a44.18,44.18,0,0,0-3.6,17.53c0,.25,0,.78.06,1.58,0,.55,0,1,.06,1.33h2c0-.34,0-.78-.06-1.33C113.22,105.65,113.2,105.12,113.2,104.87Z"/><path class="a4df7f52-58b5-4213-8d00-4ea4ec51f94e" d="M138.35,73.68c-.4.51-.79,1-1.15,1.52.44.9.85,1.86,1.22,2.85a38.46,38.46,0,0,1,1.76,6.44h2a38.46,38.46,0,0,0-1.75-6.44A29.38,29.38,0,0,0,138.35,73.68Z"/><path class="a4df7f52-58b5-4213-8d00-4ea4ec51f94e" d="M166,98.45v-26a21.22,21.22,0,0,0-.57-5.32,12.75,12.75,0,0,0-1.83-4h-2a12.75,12.75,0,0,1,1.83,4,21.22,21.22,0,0,1,.57,5.32v26a21.68,21.68,0,0,1-.57,5.38,12,12,0,0,1-1.83,4h2a12,12,0,0,0,1.83-4A21.68,21.68,0,0,0,166,98.45Z"/><polygon class="a4df7f52-58b5-4213-8d00-4ea4ec51f94e" points="180.5 84.15 198.83 107.78 200.84 107.78 180.5 81.57 180.5 84.15"/><path class="a4df7f52-58b5-4213-8d00-4ea4ec51f94e" d="M199.54,72.44a21.22,21.22,0,0,0-.57-5.32,12.75,12.75,0,0,0-1.83-4h-2a12.55,12.55,0,0,1,1.84,4,21.22,21.22,0,0,1,.57,5.32V84l2,2.59Z"/><path class="a4df7f52-58b5-4213-8d00-4ea4ec51f94e" d="M233.23,63.15c1.94-.07,3.53-.12,4.79-.14h-.7q-2.06,0-6.1.15c-1.59.07-2.92.11-4,.13l1.15,0Q230.2,63.27,233.23,63.15Z"/><path class="a4df7f52-58b5-4213-8d00-4ea4ec51f94e" d="M244.67,76.5c1.61,1.85,2.42,4.78,2.42,8.81q0,6.54-2.66,9.19c-1.47,1.48-3.84,2.33-7.08,2.57l.72,0,.39,0c3.7-.15,6.37-1,8-2.63,1.76-1.77,2.65-4.83,2.65-9.19,0-4-.81-7-2.42-8.81s-3.91-2.61-7.14-2.72l-1.11.07C241.19,74.08,243.3,74.94,244.67,76.5Z"/><path class="a4df7f52-58b5-4213-8d00-4ea4ec51f94e" d="M226.34,107.65l-1.28,0c1,0,2.27,0,4,.11q4,.12,6.74.12h.38c-1.49,0-3.19,0-5.12-.11C228.83,107.7,227.28,107.66,226.34,107.65Z"/><path class="a4df7f52-58b5-4213-8d00-4ea4ec51f94e" d="M221.79,98.45v-26a21.73,21.73,0,0,0-.57-5.34,13.46,13.46,0,0,0-1.76-4L217.38,63a13.38,13.38,0,0,1,1.83,4.1,21.73,21.73,0,0,1,.57,5.34v26a21.68,21.68,0,0,1-.57,5.38,12,12,0,0,1-1.83,4c.66,0,1.35-.06,2.05-.07a12.16,12.16,0,0,0,1.79-3.88A21.68,21.68,0,0,0,221.79,98.45Z"/><path class="a4df7f52-58b5-4213-8d00-4ea4ec51f94e" d="M291.12,67.14a8.55,8.55,0,0,0,.59-1.54,5.66,5.66,0,0,0,.2-1.37,4.63,4.63,0,0,0,0-.54,4.92,4.92,0,0,0-.1-.57h-2c0,.21.07.4.1.57a4.63,4.63,0,0,1,0,.54,5.26,5.26,0,0,1-.21,1.37,8.5,8.5,0,0,1-.58,1.54l-3.76,7.56,1.07,1.88Z"/><path class="a4df7f52-58b5-4213-8d00-4ea4ec51f94e" d="M275.79,94.25l2.79-3.76-8.35-14.7a63.72,63.72,0,0,0-4.71-7.12,45.52,45.52,0,0,0-5.08-5.55h-2a45.6,45.6,0,0,1,5.09,5.55,63.72,63.72,0,0,1,4.71,7.12l8.34,14.7-2.78,3.76a89.84,89.84,0,0,1-7,8.41,31.61,31.61,0,0,1-6,5.12h2a31.61,31.61,0,0,0,6-5.12A88.33,88.33,0,0,0,275.79,94.25Z"/><path class="a4df7f52-58b5-4213-8d00-4ea4ec51f94e" d="M345.41,72.29a6.73,6.73,0,0,0-.84.13,18.64,18.64,0,0,1,2.16.52,26.74,26.74,0,0,1,5.08,2.16l.22-.87a24.91,24.91,0,0,0-3.3-1.29A16.56,16.56,0,0,0,345.41,72.29Z"/><path class="a4df7f52-58b5-4213-8d00-4ea4ec51f94e" d="M342.13,97.17a2.88,2.88,0,0,0,1.35-2.54q0-1.93-5.05-5.25c-1.33-.84-2.36-1.52-3.1-2l-.85-.57q-7.91-5.51-7.9-11.35a11.36,11.36,0,0,1,4.58-9.49c2.87-2.21,6.7-3.36,11.46-3.5l-1.08,0q-7.8,0-12.38,3.52a11.34,11.34,0,0,0-4.59,9.49q0,5.85,7.9,11.35l.86.57c.73.53,1.77,1.21,3.09,2q5.06,3.32,5.06,5.25a2.87,2.87,0,0,1-1.36,2.54,5.25,5.25,0,0,1-1.93.73c.38,0,.75.1,1.12.13A6.14,6.14,0,0,0,342.13,97.17Z"/><path class="a4df7f52-58b5-4213-8d00-4ea4ec51f94e" d="M326.32,104.49a2.15,2.15,0,0,1,0-.4,2.79,2.79,0,0,0,0-.33l.86-8.21a19.51,19.51,0,0,1-1.89-1.11l-1,9.32a2.79,2.79,0,0,1,0,.33,3.28,3.28,0,0,0,0,.4c0,1.12,1.34,2.07,4,2.87a34.68,34.68,0,0,0,9.89,1.2l.95,0a33.46,33.46,0,0,1-8.83-1.18C327.66,106.56,326.32,105.61,326.32,104.49Z"/><path class="a4df7f52-58b5-4213-8d00-4ea4ec51f94e" d="M391,98.45V89.79h-2v8.66a21.68,21.68,0,0,1-.57,5.38,12,12,0,0,1-1.83,4h2a11.82,11.82,0,0,0,1.84-4A21.72,21.72,0,0,0,391,98.45Z"/><path class="a4df7f52-58b5-4213-8d00-4ea4ec51f94e" d="M391,72.44a21.26,21.26,0,0,0-.56-5.32,12.55,12.55,0,0,0-1.84-4h-2a12.75,12.75,0,0,1,1.83,4,21.22,21.22,0,0,1,.57,5.32v6.61h2Z"/><path class="a4df7f52-58b5-4213-8d00-4ea4ec51f94e" d="M365.1,98.45v-26a21.22,21.22,0,0,0-.57-5.32,12.75,12.75,0,0,0-1.83-4h-2a12.55,12.55,0,0,1,1.84,4,21.26,21.26,0,0,1,.56,5.32v26a21.72,21.72,0,0,1-.56,5.38,11.82,11.82,0,0,1-1.84,4h2a12,12,0,0,0,1.83-4A21.68,21.68,0,0,0,365.1,98.45Z"/><path class="a4df7f52-58b5-4213-8d00-4ea4ec51f94e" d="M411.24,85.43q0-11.34,6-17.19c3.83-3.72,9.4-5.65,16.65-5.81-.34,0-.66,0-1,0q-11.62,0-17.65,5.84t-6,17.19q0,11.38,6,17.26t17.65,5.87c.35,0,.67,0,1,0-7.25-.16-12.82-2.1-16.65-5.84Q411.23,96.81,411.24,85.43Z"/><path class="a4df7f52-58b5-4213-8d00-4ea4ec51f94e" d="M440.74,76.27c1.77,2.08,2.65,5.14,2.65,9.16s-.88,7.11-2.65,9.2a8.92,8.92,0,0,1-5.83,3c.33,0,.66.09,1,.11a9.27,9.27,0,0,0,6.83-3.09c1.77-2.09,2.66-5.15,2.66-9.2s-.89-7.08-2.66-9.16a9.27,9.27,0,0,0-6.83-3.09c-.35,0-.68.06-1,.1A8.93,8.93,0,0,1,440.74,76.27Z"/><path class="a4df7f52-58b5-4213-8d00-4ea4ec51f94e" d="M477.55,63.15c1.64-.06,2.91-.11,3.89-.13l-.69,0c-1,0-2.71,0-5.2.15-1.53.07-2.85.11-4,.14h1.14C474,63.28,475.65,63.24,477.55,63.15Z"/><path class="a4df7f52-58b5-4213-8d00-4ea4ec51f94e" d="M480.48,72.22a5.65,5.65,0,0,1,2.86,1.16,5.4,5.4,0,0,1,1.48,4.25,5.39,5.39,0,0,1-1.48,4.23A5.48,5.48,0,0,1,480.57,83l.94.13a6.31,6.31,0,0,0,3.83-1.28,5.39,5.39,0,0,0,1.49-4.23,5.4,5.4,0,0,0-1.49-4.25,6.33,6.33,0,0,0-3.81-1.26l-.31,0Z"/><path class="a4df7f52-58b5-4213-8d00-4ea4ec51f94e" d="M466.07,98.45v-26a21.55,21.55,0,0,0-.6-5.49,11.6,11.6,0,0,0-1.79-3.82L461.6,63a11.53,11.53,0,0,1,1.86,4,21.55,21.55,0,0,1,.6,5.49v26a21.68,21.68,0,0,1-.57,5.38,12,12,0,0,1-1.83,4h2a11.82,11.82,0,0,0,1.84-4A21.68,21.68,0,0,0,466.07,98.45Z"/><path class="a310063a-1ab8-4182-a56f-9ab271f908b1" d="M110,66.47A3,3,0,0,1,110,67a3.66,3.66,0,0,1-.19.68l-2.54,8c.56.3,1.12.61,1.7,1l2.84-9A3.66,3.66,0,0,0,112,67a2.34,2.34,0,0,0,.07-.49c0-.9-1.65-1.81-4.93-2.72A42.22,42.22,0,0,0,96,62.4c-.28,0-.54,0-.82,0a41.22,41.22,0,0,1,9.94,1.32Q110,65.11,110,66.47Z"/><path class="a310063a-1ab8-4182-a56f-9ab271f908b1" d="M111.23,92.83c-.66.46-1.33.87-2,1.26v9.23a3.48,3.48,0,0,1-.42,2,3.71,3.71,0,0,1-1.6,1,25.25,25.25,0,0,1-5.51,1.65,35.56,35.56,0,0,1-5.58.53c.37,0,.73,0,1.12,0a35.23,35.23,0,0,0,6.46-.56,25.25,25.25,0,0,0,5.51-1.65,3.71,3.71,0,0,0,1.6-1,3.47,3.47,0,0,0,.43-2Z"/><path class="a310063a-1ab8-4182-a56f-9ab271f908b1" d="M96.65,73.2q-5.45,0-8.47,3.24t-3,9.06q0,5.72,2.88,8.78c1.91,2,4.66,3.07,8.25,3.07.28,0,.57,0,.86,0-.31,0-.6,0-.9-.09A9.81,9.81,0,0,1,90,94.28q-2.88-3.06-2.88-8.78t3-9.06a10.26,10.26,0,0,1,6.4-3.09c.33,0,.67-.08,1-.11C97.28,73.22,97,73.2,96.65,73.2Z"/><path class="a310063a-1ab8-4182-a56f-9ab271f908b1" d="M145.42,63.12h-2a57.39,57.39,0,0,1,10.82,19.41,86.12,86.12,0,0,1,4.44,25.25h2a85.47,85.47,0,0,0-4.44-25.25A57.06,57.06,0,0,0,145.42,63.12Z"/><path class="a310063a-1ab8-4182-a56f-9ab271f908b1" d="M127,97.28a42.54,42.54,0,0,0-.22,4.81c0,1.11,0,2.13.08,3s.12,1.79.21,2.64h2q-.12-1.27-.21-2.64c-.05-.92-.07-1.94-.07-3a40.29,40.29,0,0,1,.22-4.81,13.26,13.26,0,0,1,.72-3.09h-2A13.24,13.24,0,0,0,127,97.28Z"/><path class="a310063a-1ab8-4182-a56f-9ab271f908b1" d="M137.2,75.2c.36-.5.75-1,1.15-1.52-.21-.36-.4-.76-.62-1.11h-.48a41.1,41.1,0,0,0-4.25,6,27.75,27.75,0,0,0-2.54,5.95h2A27.75,27.75,0,0,1,135,78.54,36.77,36.77,0,0,1,137.2,75.2Z"/><path class="a310063a-1ab8-4182-a56f-9ab271f908b1" d="M127.8,63.12h.27c-1.2,0-2.1,0-2.69-.06s-1.14-.11-1.64-.19c0,.06-.06.14-.08.2.58,0,1.37,0,2.41,0Z"/><path class="a310063a-1ab8-4182-a56f-9ab271f908b1" d="M127.42,71.66a39.31,39.31,0,0,0-5,.47c-1.14.17-2.36.41-3.63.68-.11.18-.19.34-.3.52q3.23-.8,5.93-1.2l.63-.08c.77-.11,1.53-.2,2.25-.26Z"/><path class="a310063a-1ab8-4182-a56f-9ab271f908b1" d="M212.59,67.12a21.22,21.22,0,0,0-.57,5.32v28c0,1.18,0,2.38.14,3.59s.24,2.47.43,3.78h2c-.2-1.31-.34-2.57-.43-3.78s-.14-2.41-.14-3.59v-28a20.76,20.76,0,0,1,.57-5.32,12.31,12.31,0,0,1,1.83-4h-2A12.75,12.75,0,0,0,212.59,67.12Z"/><path class="a310063a-1ab8-4182-a56f-9ab271f908b1" d="M178.49,79V98.45a21.68,21.68,0,0,0,.57,5.38,11.82,11.82,0,0,0,1.84,4h2a12,12,0,0,1-1.84-4,22.21,22.21,0,0,1-.56-5.38V81.57Z"/><polygon class="a310063a-1ab8-4182-a56f-9ab271f908b1" points="199.54 89.19 199.54 86.61 197.54 84.02 181.35 63.12 179.35 63.12 199.54 89.19"/><path class="a310063a-1ab8-4182-a56f-9ab271f908b1" d="M227.22,63.31h1.12l-1.15,0c-.52,0-1,0-1.58-.05-1.28,0-2.69-.13-4.22-.23,0,0,0,.08.07.13.75,0,1.47.08,2.14.1C224.88,63.29,226.08,63.31,227.22,63.31Z"/><path class="a310063a-1ab8-4182-a56f-9ab271f908b1" d="M264.24,84.8a28.86,28.86,0,0,0-1.82-10.6,17.64,17.64,0,0,0-5.26-7.44,15,15,0,0,0-6.05-2.88,42.9,42.9,0,0,0-9.78-.88H240a41.61,41.61,0,0,1,9.09.87,15,15,0,0,1,6,2.88,17.73,17.73,0,0,1,5.26,7.44,28.86,28.86,0,0,1,1.82,10.6,30.19,30.19,0,0,1-1.33,9.2,20.58,20.58,0,0,1-3.92,7.17,17.39,17.39,0,0,1-7.47,5.15,34.89,34.89,0,0,1-11.31,1.57h1.63a35.25,35.25,0,0,0,11.68-1.58,17.39,17.39,0,0,0,7.47-5.15A20.42,20.42,0,0,0,262.91,94,29.89,29.89,0,0,0,264.24,84.8Z"/><path class="a310063a-1ab8-4182-a56f-9ab271f908b1" d="M225.86,107.65c-1.53,0-2.78,0-3.73,0l-.7,0a.16.16,0,0,0,0,.07c.88,0,1.8-.08,2.75-.1h.92l1.28,0Z"/><path class="a310063a-1ab8-4182-a56f-9ab271f908b1" d="M238.46,97.13l-.39,0-.72,0-.82,0V74l.63-.06,1.26-.08,1.11-.07c-.21,0-.39,0-.61,0-.72,0-2,.06-3.77.19l-.63.06V97l1.55.08,1.23,0C237.7,97.16,238.08,97.14,238.46,97.13Z"/><path class="a310063a-1ab8-4182-a56f-9ab271f908b1" d="M305.56,67.5c-1.16,1.65-2.3,3.47-3.44,5.45L293.4,88.37q-4.25,7.48-7.64,12.41c-2.26,3.27-4,5.36-5.32,6.27a3.67,3.67,0,0,1-1.2.57,8,8,0,0,1-1.77.16h2a8,8,0,0,0,1.77-.16,3.67,3.67,0,0,0,1.2-.57c1.29-.91,3.06-3,5.33-6.27s4.81-7.42,7.63-12.41L304.12,73q1.71-3,3.45-5.45A48.91,48.91,0,0,1,311,63.12h-2A50.81,50.81,0,0,0,305.56,67.5Z"/><path class="a310063a-1ab8-4182-a56f-9ab271f908b1" d="M281,70.55l4.52,7.9.93-1.87-1.07-1.88L283,70.55a21.84,21.84,0,0,1-1.9-4,12.71,12.71,0,0,1-.6-3.38h-2a12.32,12.32,0,0,0,.6,3.38A21.84,21.84,0,0,0,281,70.55Z"/><path class="a310063a-1ab8-4182-a56f-9ab271f908b1" d="M338.3,98.07c.36,0,.69,0,1,0-.37,0-.74-.08-1.12-.13a21.43,21.43,0,0,1-3.43-.82,20.65,20.65,0,0,1-5.39-2.64l-.12,1.11a22,22,0,0,0,3.51,1.53A18.09,18.09,0,0,0,338.3,98.07Z"/><path class="a310063a-1ab8-4182-a56f-9ab271f908b1" d="M356.09,65.4a4.82,4.82,0,0,1-.06.69,4.64,4.64,0,0,1-.19.82L354,74.23c.59.28,1.19.54,1.79.87l2-8.19a4.64,4.64,0,0,0,.19-.82,3.82,3.82,0,0,0,.07-.69c0-.74-1.28-1.42-3.83-2.06a36.47,36.47,0,0,0-8.72-.94l-.92,0a35.69,35.69,0,0,1,7.64.92C354.82,64,356.09,64.66,356.09,65.4Z"/><path class="a310063a-1ab8-4182-a56f-9ab271f908b1" d="M351.93,82.46c-1.11-.76-2.65-1.69-4.61-2.81-3.31-1.87-5-3.48-5-4.8a2.25,2.25,0,0,1,1.07-1.95,4.35,4.35,0,0,1,1.14-.48,6.73,6.73,0,0,1,.84-.13c-.37,0-.76-.1-1.1-.1a5.18,5.18,0,0,0-2.88.71,2.22,2.22,0,0,0-1.07,1.95c0,1.32,1.65,2.93,5,4.8,2,1.12,3.49,2,4.61,2.81A18.38,18.38,0,0,1,355.6,88a13.75,13.75,0,0,1-2.79,16.87c-2.83,2.33-6.72,3.55-11.63,3.69l1.05,0q8.07,0,12.58-3.71A13.78,13.78,0,0,0,357.61,88,18.42,18.42,0,0,0,351.93,82.46Z"/><path class="a310063a-1ab8-4182-a56f-9ab271f908b1" d="M377.84,72.44v6.61h2V72.44a21.22,21.22,0,0,1,.57-5.32,12.75,12.75,0,0,1,1.83-4h-2a12.55,12.55,0,0,0-1.84,4A21.74,21.74,0,0,0,377.84,72.44Z"/><path class="a310063a-1ab8-4182-a56f-9ab271f908b1" d="M406.35,67.12a12.75,12.75,0,0,1,1.83-4h-2a12.75,12.75,0,0,0-1.83,4,21.22,21.22,0,0,0-.57,5.32v26a21.68,21.68,0,0,0,.57,5.38,12,12,0,0,0,1.83,4h2a12,12,0,0,1-1.83-4,21.68,21.68,0,0,1-.57-5.38v-26A21.22,21.22,0,0,1,406.35,67.12Z"/><path class="a310063a-1ab8-4182-a56f-9ab271f908b1" d="M377.84,98.45a22.21,22.21,0,0,0,.56,5.38,11.82,11.82,0,0,0,1.84,4h2a12,12,0,0,1-1.83-4,21.68,21.68,0,0,1-.57-5.38V89.79h-2Z"/><path class="a310063a-1ab8-4182-a56f-9ab271f908b1" d="M436.91,62.4c-.34,0-.66,0-1,0q10.9.24,16.68,5.81,6,5.85,6,17.19t-6,17.26q-5.76,5.61-16.68,5.84c.34,0,.66,0,1,0q11.67,0,17.68-5.87t6-17.26q0-11.34-6-17.19T436.91,62.4Z"/><path class="a310063a-1ab8-4182-a56f-9ab271f908b1" d="M435.91,97.72c-.34,0-.67-.06-1-.11a8.89,8.89,0,0,1-5.81-3c-1.76-2.09-2.65-5.15-2.65-9.2s.88-7.1,2.64-9.18a8.88,8.88,0,0,1,5.81-3c.33,0,.66-.08,1-.1-.33,0-.66,0-1,0q-5.19,0-7.82,3.11t-2.64,9.18c0,4,.88,7.11,2.65,9.2s4.37,3.13,7.81,3.13C435.25,97.76,435.58,97.74,435.91,97.72Z"/><path class="a310063a-1ab8-4182-a56f-9ab271f908b1" d="M471.5,63.31h0l-1.68-.06c-1.29,0-2.71-.13-4.25-.23l.08.13c.76,0,1.48.08,2.17.1C469.15,63.29,470.36,63.31,471.5,63.31Z"/><path class="a310063a-1ab8-4182-a56f-9ab271f908b1" d="M484.75,63c-.33,0-.79,0-1.3,0,4.76.1,8.35,1.3,10.74,3.59s3.76,6.07,3.76,11-1.42,8.63-4.28,11.21c-2.69,2.43-6.54,3.7-11.54,3.84l1.08,0q8.18,0,12.46-3.87T500,77.56q0-7.32-3.76-11T484.75,63Z"/><path class="a310063a-1ab8-4182-a56f-9ab271f908b1" d="M481.51,83.14l-.94-.13-.33,0V72.25l.24,0,.74-.08.31,0c-.32,0-.63-.05-1-.05s-.8,0-1.33.07l-1,.11V83c.49.08.92.14,1.31.17s.73,0,1,0S481.19,83.16,481.51,83.14Z"/><path class="a310063a-1ab8-4182-a56f-9ab271f908b1" d="M478.39,92.51h-.16v5.94a19.65,19.65,0,0,0,.64,5.2,12.73,12.73,0,0,0,1.89,4.13h2a12.73,12.73,0,0,1-1.89-4.13,20.08,20.08,0,0,1-.63-5.2V92.61C479.73,92.59,479.12,92.56,478.39,92.51Z"/><path class="a697ad6c-3517-485b-be3c-0dd77980ae05" d="M107.2,106.35a3.71,3.71,0,0,0,1.6-1,3.48,3.48,0,0,0,.42-2V92.83c-.65.46-1.32.87-2,1.26a24.94,24.94,0,0,1-4.49,2.07,20.29,20.29,0,0,1-5.6,1.14c-.29,0-.58,0-.86,0-3.59,0-6.34-1-8.25-3.07s-2.88-5-2.88-8.78,1-6.9,3-9.06S93,73.2,96.65,73.2c.31,0,.63,0,.95,0a15.85,15.85,0,0,1,3.93.79,24.11,24.11,0,0,1,3.72,1.65c.55.3,1.11.61,1.7,1l.3-1,2.54-8A3.66,3.66,0,0,0,110,67a3,3,0,0,0,.06-.49q0-1.35-4.93-2.72a41.22,41.22,0,0,0-9.94-1.32c-.39,0-.77,0-1.18,0s-.54,0-.82,0c-6.33.17-11.42,2.27-15.25,6.35q-6,6.38-6,17.19t6,16.73c3.82,3.71,9.21,5.64,16.13,5.83.38,0,.74,0,1.12,0s.59,0,.89,0a35.56,35.56,0,0,0,5.58-.53A25.25,25.25,0,0,0,107.2,106.35Zm-5.85-4.17a1.81,1.81,0,1,1,.49,3.59,38.71,38.71,0,0,1-5.13.37c-5.76,0-10.55-1.52-14.28-4.54a21.43,21.43,0,0,1-7.39-14,1.81,1.81,0,0,1,3.61-.27c0,.07.63,7,6.1,11.45C88.72,102,94.3,103.14,101.35,102.18Z"/><path class="a697ad6c-3517-485b-be3c-0dd77980ae05" d="M143.42,63.12H126.07c-1,0-1.83,0-2.41,0h-.28c-.59,0-1.14-.11-1.64-.19l-.09.2a42.23,42.23,0,0,1-2,4.43c-.82,1.63-1.81,3.41-2.92,5.31-.1.18-.18.34-.29.52.8-.2,1.55-.36,2.3-.52,1.27-.27,2.49-.51,3.63-.68a39.31,39.31,0,0,1,5-.47l-.12.13a52.1,52.1,0,0,0-10.49,15.55,44.19,44.19,0,0,0-3.61,17.53c0,.25,0,.78.07,1.58,0,.55,0,1,.06,1.33h13.75q-.14-1.27-.21-2.64c-.05-.92-.08-1.94-.08-3a42.54,42.54,0,0,1,.22-4.81,13.24,13.24,0,0,1,.73-3.09h16.34a36.63,36.63,0,0,1,.66,3.93,33,33,0,0,1,.22,3.78,23.85,23.85,0,0,1-.19,3.2,16.26,16.26,0,0,1-.56,2.68h14.47a86.12,86.12,0,0,0-4.44-25.25A57.39,57.39,0,0,0,143.42,63.12Zm-19.6,43H116a1.81,1.81,0,1,1,0-3.62h7.86a1.81,1.81,0,1,1,0,3.62Zm16.36-21.64h-9.72A27.75,27.75,0,0,1,133,78.54a41.1,41.1,0,0,1,4.25-6h.48c.22.35.41.75.62,1.11a29.38,29.38,0,0,1,2.08,4.37,38.46,38.46,0,0,1,1.75,6.44Zm14,21.64H154a1.81,1.81,0,0,1-1.8-1.63C150.36,86,143.39,76.11,143.32,76a1.81,1.81,0,1,1,2.94-2.12c.31.43,7.6,10.68,9.59,30.25A1.83,1.83,0,0,1,154.23,106.13Z"/><path class="a697ad6c-3517-485b-be3c-0dd77980ae05" d="M212,100.41v-28a21.22,21.22,0,0,1,.57-5.32,12.75,12.75,0,0,1,1.83-4H197.14a12.75,12.75,0,0,1,1.83,4,21.22,21.22,0,0,1,.57,5.32V89.19L179.35,63.12h-15.8a12.75,12.75,0,0,1,1.83,4,21.22,21.22,0,0,1,.57,5.32v26a21.68,21.68,0,0,1-.57,5.38,12,12,0,0,1-1.83,4H180.9a11.82,11.82,0,0,1-1.84-4,21.68,21.68,0,0,1-.57-5.38V79l2,2.58,20.34,26.21h11.75c-.19-1.31-.33-2.57-.43-3.78S212,101.59,212,100.41Zm-40.67,2a1.82,1.82,0,0,1-3.63,0V73.89a1.82,1.82,0,0,1,3.63,0Zm36.35,3.67h-6.56l-6.89-10.38a1.81,1.81,0,1,1,3-2l5.81,8.76h4.62a1.81,1.81,0,1,1,0,3.62Z"/><path class="a697ad6c-3517-485b-be3c-0dd77980ae05" d="M257,101.17A20.58,20.58,0,0,0,260.91,94a30.19,30.19,0,0,0,1.33-9.2,28.86,28.86,0,0,0-1.82-10.6,17.73,17.73,0,0,0-5.26-7.44,15,15,0,0,0-6-2.88A41.61,41.61,0,0,0,240,63h-2c-1.26,0-2.85.07-4.79.14s-3.65.13-4.89.15h-1.12c-1.14,0-2.34,0-3.62-.08-.67,0-1.39-.06-2.14-.1L219.38,63l.08.13a13.46,13.46,0,0,1,1.76,4,21.73,21.73,0,0,1,.57,5.34v26a21.68,21.68,0,0,1-.57,5.38,12.16,12.16,0,0,1-1.79,3.88l-.05.07c.66,0,1.36-.06,2.05-.07l.7,0c1,0,2.2,0,3.73,0h.48c.94,0,2.49,0,4.75.13,1.93.06,3.63.09,5.12.11h2a34.89,34.89,0,0,0,11.31-1.57A17.39,17.39,0,0,0,257,101.17Zm3.45-21.47c.11.8,2.44,19.61-12,25.35a1.77,1.77,0,0,1-.67.13,1.81,1.81,0,0,1-.67-3.5c11.85-4.71,9.78-21.33,9.75-21.5a1.82,1.82,0,0,1,3.6-.48ZM236.07,97.11,234.52,97V74l.63-.06c1.79-.13,3-.19,3.77-.19.22,0,.4,0,.61,0,3.23.11,5.63,1,7.14,2.72s2.42,4.78,2.42,8.81c0,4.36-.89,7.42-2.65,9.19-1.61,1.61-4.28,2.48-8,2.63-.38,0-.76,0-1.16,0Zm-10.38,3.06a1.81,1.81,0,0,1-1.81-1.81V71.93a1.81,1.81,0,0,1,3.62,0V98.36A1.81,1.81,0,0,1,225.69,100.17Z"/><path class="a697ad6c-3517-485b-be3c-0dd77980ae05" d="M280.44,107.05c1.28-.91,3.06-3,5.32-6.27s4.81-7.42,7.64-12.41L302.12,73c1.14-2,2.28-3.8,3.44-5.45A50.81,50.81,0,0,1,309,63.12h-17.2a4.92,4.92,0,0,1,.1.57,4.63,4.63,0,0,1,0,.54,5.66,5.66,0,0,1-.2,1.37,8.55,8.55,0,0,1-.59,1.54l-4.69,9.44-.93,1.87L281,70.55a21.84,21.84,0,0,1-1.9-4,12.32,12.32,0,0,1-.6-3.38h-18a45.52,45.52,0,0,1,5.08,5.55,63.72,63.72,0,0,1,4.71,7.12l8.35,14.7-2.79,3.76a88.33,88.33,0,0,1-7,8.41,31.61,31.61,0,0,1-6,5.12h14.69a8,8,0,0,0,1.77-.16A3.67,3.67,0,0,0,280.44,107.05Zm-12.2-38.47a1.82,1.82,0,1,1,3.17-1.77l6.5,11.64a1.81,1.81,0,0,1-.7,2.47,1.75,1.75,0,0,1-.88.23,1.84,1.84,0,0,1-1.59-.93Zm7.07,37.24a1.81,1.81,0,0,1-.49-2.51l22.68-33.6a1.81,1.81,0,1,1,3,2l-22.67,33.6a1.81,1.81,0,0,1-1.5.81A1.83,1.83,0,0,1,275.31,105.82Z"/><path class="a697ad6c-3517-485b-be3c-0dd77980ae05" d="M357.33,94.63A12.6,12.6,0,0,0,355.6,88a18.38,18.38,0,0,0-5.67-5.52c-1.12-.76-2.65-1.69-4.61-2.81-3.31-1.87-5-3.48-5-4.8a2.22,2.22,0,0,1,1.07-1.95,5.18,5.18,0,0,1,2.88-.71c.34,0,.73.07,1.1.1a16.56,16.56,0,0,1,3.32.65,24.91,24.91,0,0,1,3.3,1.29c.59.28,1.18.54,1.79.87l.21-.87,1.81-7.32a4.64,4.64,0,0,0,.19-.82,4.82,4.82,0,0,0,.06-.69c0-.74-1.27-1.42-3.82-2.06a35.69,35.69,0,0,0-7.64-.92l-1.08,0-.93,0c-4.76.14-8.59,1.29-11.46,3.5a11.36,11.36,0,0,0-4.58,9.49q0,5.85,7.9,11.35l.85.57c.74.53,1.77,1.21,3.1,2q5.06,3.32,5.05,5.25a2.88,2.88,0,0,1-1.35,2.54,6.14,6.14,0,0,1-2.82.86c-.32,0-.65,0-1,0a18.09,18.09,0,0,1-5.54-1,22,22,0,0,1-3.51-1.53,18.22,18.22,0,0,1-1.88-1.11l-.12,1.11-.86,8.21a2.79,2.79,0,0,1,0,.33,2.15,2.15,0,0,0,0,.4c0,1.12,1.34,2.07,4,2.87a33.46,33.46,0,0,0,8.83,1.18l1.06,0,.95,0c4.91-.14,8.8-1.36,11.63-3.69A12.51,12.51,0,0,0,357.33,94.63Zm-27.83-14c-3.48-6.92,1.27-12.82,4.26-15a1.81,1.81,0,0,1,2.12,2.94c-.28.21-6.09,4.56-3.14,10.41a1.81,1.81,0,0,1-1.62,2.63A1.79,1.79,0,0,1,329.5,80.6Zm21,17.44c2-3,.4-6.71.38-6.74a1.82,1.82,0,0,1,3.31-1.49c.1.23,2.44,5.55-.65,10.21-2.69,4.07-8.52,6.13-17.33,6.13l-1.4,0a1.81,1.81,0,0,1,.08-3.62C343,102.69,348.39,101.16,350.47,98Z"/><path class="a697ad6c-3517-485b-be3c-0dd77980ae05" d="M403.78,98.45v-26a21.22,21.22,0,0,1,.57-5.32,12.75,12.75,0,0,1,1.83-4H388.64a12.55,12.55,0,0,1,1.84,4,21.26,21.26,0,0,1,.56,5.32v6.61h-13.2V72.44a21.74,21.74,0,0,1,.56-5.32,12.55,12.55,0,0,1,1.84-4H362.7a12.75,12.75,0,0,1,1.83,4,21.22,21.22,0,0,1,.57,5.32v26a21.68,21.68,0,0,1-.57,5.38,12,12,0,0,1-1.83,4h17.54a11.82,11.82,0,0,1-1.84-4,22.21,22.21,0,0,1-.56-5.38V89.79H391v8.66a21.72,21.72,0,0,1-.56,5.38,11.82,11.82,0,0,1-1.84,4h17.54a12,12,0,0,1-1.83-4A21.68,21.68,0,0,1,403.78,98.45ZM369.17,76.73a1.82,1.82,0,0,1-3.63,0V67.09a1.82,1.82,0,0,1,3.63,0Zm20.34,12H378.35a1.81,1.81,0,0,1,0-3.62h11.16a1.81,1.81,0,1,1,0,3.62ZM398.76,99V71.63a1.82,1.82,0,1,1,3.63,0V99a1.82,1.82,0,0,1-3.63,0Z"/><path class="a697ad6c-3517-485b-be3c-0dd77980ae05" d="M458.61,85.43q0-11.34-6-17.19-5.76-5.58-16.68-5.81c-.34,0-.66,0-1,0s-.67,0-1,0c-7.25.16-12.82,2.09-16.65,5.81q-6,5.85-6,17.19t6,17.26c3.83,3.74,9.4,5.68,16.65,5.84.33,0,.65,0,1,0s.66,0,1,0q10.9-.24,16.68-5.84Q458.61,96.81,458.61,85.43Zm-31.51,9.2c-1.77-2.09-2.65-5.15-2.65-9.2s.88-7.1,2.64-9.18,4.36-3.11,7.82-3.11c.34,0,.67,0,1,0a9.27,9.27,0,0,1,6.83,3.09c1.77,2.08,2.66,5.14,2.66,9.16s-.89,7.11-2.66,9.2a9.27,9.27,0,0,1-6.83,3.09c-.33,0-.66,0-1,0C431.47,97.76,428.87,96.71,427.1,94.63Zm21.33-13.37a1.06,1.06,0,0,1-.25,0,1.82,1.82,0,0,1-1.8-1.56c-1.05-7.48-7-8-7.3-8a1.82,1.82,0,0,1,.2-3.63c3.18.16,9.51,2.68,10.7,11.09A1.82,1.82,0,0,1,448.43,81.26Zm-35.76,3.27a1.83,1.83,0,0,1,1.9-1.71,1.81,1.81,0,0,1,1.72,1.9c0,.09-.4,8.9,4.79,14.46,2.78,3,6.72,4.55,11.72,4.64a1.82,1.82,0,0,1,0,3.63h0c-6-.12-10.85-2.08-14.33-5.82C412.17,94.92,412.64,85,412.67,84.53Z"/><path class="a697ad6c-3517-485b-be3c-0dd77980ae05" d="M498,77.56q0-7.32-3.76-11c-2.39-2.29-6-3.49-10.74-3.59l-.7,0c-.33,0-.79,0-1.31,0-1,0-2.25.07-3.89.13-1.9.09-3.53.13-4.88.15H471.5c-1.14,0-2.35,0-3.65-.08-.69,0-1.41-.06-2.17-.1L463.6,63l.08.13A11.6,11.6,0,0,1,465.47,67a21.55,21.55,0,0,1,.6,5.49v26a21.68,21.68,0,0,1-.57,5.38,11.82,11.82,0,0,1-1.84,4h17.1a12.73,12.73,0,0,1-1.89-4.13,19.65,19.65,0,0,1-.64-5.2V92.51h.16c.73,0,1.34.08,1.85.1l1,0c.32,0,.62,0,.93,0,5-.14,8.85-1.41,11.54-3.84Q498,84.9,498,77.56Zm-3.57,3.72h0a1.81,1.81,0,0,1-1.81-1.79c-.05-3.74-1-6.53-2.91-8.28A8.55,8.55,0,0,0,484,69.1a1.78,1.78,0,0,1-1.92-1.7,1.81,1.81,0,0,1,1.7-1.92,12.07,12.07,0,0,1,8.29,3.07c2.64,2.46,4,6.13,4.07,10.9A1.81,1.81,0,0,1,494.38,81.28ZM472.11,104a1.82,1.82,0,1,1-3.63,0V82.36a1.82,1.82,0,0,1,3.63,0Zm6.12-21V72.25l1-.11c.53,0,1-.07,1.33-.07s.67,0,1,.05a6.33,6.33,0,0,1,3.81,1.26,5.4,5.4,0,0,1,1.49,4.25,5.39,5.39,0,0,1-1.49,4.23,6.31,6.31,0,0,1-3.83,1.28c-.32,0-.62,0-1,0s-.61,0-1,0S478.72,83.05,478.23,83Z"/><path class="b8b23d2d-c57d-4454-8d7c-b70c144e6ed8" d="M78.65,87.36a1.81,1.81,0,0,0-3.61.27,21.43,21.43,0,0,0,7.39,14c3.73,3,8.52,4.54,14.28,4.54a38.71,38.71,0,0,0,5.13-.37,1.81,1.81,0,1,0-.49-3.59c-7,1-12.63-.18-16.6-3.37C79.28,94.4,78.66,87.43,78.65,87.36Z"/><path class="b8b23d2d-c57d-4454-8d7c-b70c144e6ed8" d="M143.73,73.48a1.82,1.82,0,0,0-.41,2.53c.07.1,7,10,8.92,28.49a1.81,1.81,0,0,0,1.8,1.63h.19a1.83,1.83,0,0,0,1.62-2c-2-19.57-9.28-29.82-9.59-30.25A1.82,1.82,0,0,0,143.73,73.48Z"/><path class="b8b23d2d-c57d-4454-8d7c-b70c144e6ed8" d="M123.82,102.51H116a1.81,1.81,0,1,0,0,3.62h7.86a1.81,1.81,0,1,0,0-3.62Z"/><path class="b8b23d2d-c57d-4454-8d7c-b70c144e6ed8" d="M169.54,72.08a1.81,1.81,0,0,0-1.82,1.81v28.57a1.82,1.82,0,0,0,3.63,0V73.89A1.81,1.81,0,0,0,169.54,72.08Z"/><path class="b8b23d2d-c57d-4454-8d7c-b70c144e6ed8" d="M207.7,102.51h-4.62l-5.81-8.76a1.81,1.81,0,1,0-3,2l6.89,10.38h6.56a1.81,1.81,0,1,0,0-3.62Z"/><path class="b8b23d2d-c57d-4454-8d7c-b70c144e6ed8" d="M227.5,98.36V71.93a1.81,1.81,0,0,0-3.62,0V98.36a1.81,1.81,0,1,0,3.62,0Z"/><path class="b8b23d2d-c57d-4454-8d7c-b70c144e6ed8" d="M258.4,78.14a1.82,1.82,0,0,0-1.56,2c0,.17,2.1,16.79-9.75,21.5a1.81,1.81,0,0,0,.67,3.5,1.77,1.77,0,0,0,.67-.13c14.45-5.74,12.12-24.55,12-25.35A1.82,1.82,0,0,0,258.4,78.14Z"/><path class="b8b23d2d-c57d-4454-8d7c-b70c144e6ed8" d="M277.83,105.33l22.67-33.6a1.81,1.81,0,1,0-3-2l-22.68,33.6a1.81,1.81,0,0,0,.49,2.51,1.83,1.83,0,0,0,1,.32A1.81,1.81,0,0,0,277.83,105.33Z"/><path class="b8b23d2d-c57d-4454-8d7c-b70c144e6ed8" d="M276.33,81.15a1.75,1.75,0,0,0,.88-.23,1.81,1.81,0,0,0,.7-2.47l-6.5-11.64a1.82,1.82,0,1,0-3.17,1.77l6.5,11.64A1.84,1.84,0,0,0,276.33,81.15Z"/><path class="b8b23d2d-c57d-4454-8d7c-b70c144e6ed8" d="M333,104.28a1.8,1.8,0,0,0,1.77,1.85l1.4,0c8.81,0,14.64-2.06,17.33-6.13,3.09-4.66.75-10,.65-10.21a1.82,1.82,0,0,0-3.31,1.49s1.62,3.77-.38,6.74-7.49,4.65-15.61,4.47A1.8,1.8,0,0,0,333,104.28Z"/><path class="b8b23d2d-c57d-4454-8d7c-b70c144e6ed8" d="M331.12,81.6A1.81,1.81,0,0,0,332.74,79c-2.95-5.85,2.86-10.2,3.14-10.41a1.81,1.81,0,0,0-2.12-2.94c-3,2.16-7.74,8.06-4.26,15A1.79,1.79,0,0,0,331.12,81.6Z"/><path class="b8b23d2d-c57d-4454-8d7c-b70c144e6ed8" d="M402.39,99V71.63a1.82,1.82,0,1,0-3.63,0V99a1.82,1.82,0,0,0,3.63,0Z"/><path class="b8b23d2d-c57d-4454-8d7c-b70c144e6ed8" d="M389.51,85.12H378.35a1.81,1.81,0,0,0,0,3.62h11.16a1.81,1.81,0,1,0,0-3.62Z"/><path class="b8b23d2d-c57d-4454-8d7c-b70c144e6ed8" d="M367.36,65.28a1.81,1.81,0,0,0-1.82,1.81v9.64a1.82,1.82,0,0,0,3.63,0V67.09A1.81,1.81,0,0,0,367.36,65.28Z"/><path class="b8b23d2d-c57d-4454-8d7c-b70c144e6ed8" d="M418.4,101.63c3.48,3.74,8.3,5.7,14.33,5.82h0a1.82,1.82,0,0,0,0-3.63c-5-.09-8.94-1.66-11.72-4.64-5.19-5.56-4.8-14.37-4.79-14.46a1.81,1.81,0,0,0-1.72-1.9,1.83,1.83,0,0,0-1.9,1.71C412.64,85,412.17,94.92,418.4,101.63Z"/><path class="b8b23d2d-c57d-4454-8d7c-b70c144e6ed8" d="M439.28,68.13a1.82,1.82,0,0,0-.2,3.63c.26,0,6.25.48,7.3,8a1.82,1.82,0,0,0,1.8,1.56,1.06,1.06,0,0,0,.25,0,1.82,1.82,0,0,0,1.55-2C448.79,70.81,442.46,68.29,439.28,68.13Z"/><path class="b8b23d2d-c57d-4454-8d7c-b70c144e6ed8" d="M470.3,80.55a1.81,1.81,0,0,0-1.82,1.81V104a1.82,1.82,0,1,0,3.63,0V82.36A1.81,1.81,0,0,0,470.3,80.55Z"/><path class="b8b23d2d-c57d-4454-8d7c-b70c144e6ed8" d="M492.11,68.55a12.07,12.07,0,0,0-8.29-3.07,1.81,1.81,0,0,0-1.7,1.92A1.78,1.78,0,0,0,484,69.1a8.55,8.55,0,0,1,5.6,2.11c1.89,1.75,2.86,4.54,2.91,8.28a1.81,1.81,0,0,0,1.81,1.79h0a1.81,1.81,0,0,0,1.8-1.83C496.12,74.68,494.75,71,492.11,68.55Z"/></g></g></svg>