<svg xmlns="http://www.w3.org/2000/svg" xmlns:xlink="http://www.w3.org/1999/xlink" viewBox="0 0 433.27 47.03"><defs><style>.be5cb090-9f1d-4aa3-9ca9-87c32c36e457{fill:none;stroke:#40005c;stroke-linejoin:round;stroke-width:4.99px;}.a448d6cb-5dac-4ccc-a3d9-c01b35872f69,.b3734aab-5526-402d-a247-44766de59d15{fill:#fff;}.b3734aab-5526-402d-a247-44766de59d15{stroke-miterlimit:10;stroke-width:4.12px;stroke:url(#a0246a0e-1911-4b77-9d44-6cb668b855a1);}.fa40b29e-1d5f-48cb-bb1f-fec4c95caa82{fill:url(#ffdc1f20-f20c-4430-93c9-5d683f3eb3b2);}</style><radialGradient id="a0246a0e-1911-4b77-9d44-6cb668b855a1" cx="268.1" cy="23.51" r="117.97" gradientUnits="userSpaceOnUse"><stop offset="0" stop-color="#4e3481"/><stop offset="0.57" stop-color="#984b99"/><stop offset="0.91" stop-color="#be80b5"/></radialGradient><linearGradient id="ffdc1f20-f20c-4430-93c9-5d683f3eb3b2" x1="98.61" y1="23.51" x2="449.72" y2="23.51" gradientUnits="userSpaceOnUse"><stop offset="0" stop-color="#273390"/><stop offset="0.27" stop-color="#706fb2"/><stop offset="0.55" stop-color="#8b6bad"/><stop offset="0.81" stop-color="#9c69a9"/><stop offset="1" stop-color="#a268a8"/></linearGradient></defs><title>時間</title><g id="abd01853-6a9b-4f35-86aa-d5aba98ea66a" data-name="圖層 2"><g id="befc8ebe-0298-42d9-aa63-7704863a5320" data-name="圖層 1"><path class="be5cb090-9f1d-4aa3-9ca9-87c32c36e457" d="M5.5,8v12.3h4.89c.09-3.23.11-6,0-8.36a1.67,1.67,0,0,0-.32-.72A.76.76,0,0,0,9.55,11a6.59,6.59,0,0,0-2,.76l-.4-2.86A8,8,0,0,1,10.42,8a2.51,2.51,0,0,1,2,.87,3.4,3.4,0,0,1,.91,2.35q.24,9.92-.55,23.09h1.78v3h-9v1.08h-3V8Zm0,26.34H9.77q.33-6.15.54-11H5.5ZM29.28,21h3v3H35.1v3H32.28V37.81a1.69,1.69,0,0,1-.47,1.3,2.67,2.67,0,0,1-1.19.65,10.92,10.92,0,0,1-3,.4,19.84,19.84,0,0,1-4.42-.83V36.18a22.2,22.2,0,0,0,3.95.87,6.54,6.54,0,0,0,1.59-.11c.39-.12.58-.45.58-1v-8.9h-15v-3h15Zm-14-4.28H23.2v-4H14.55v-3H23.2V6.83h3V9.72h8.9v3H26.2v4h8.18V19.6H15.27Zm6.05,13.68a2.78,2.78,0,0,1,.9,2.07,2.59,2.59,0,0,1-.87,2,2.88,2.88,0,0,1-4.09-4.06,3,3,0,0,1,4.06,0Z"/><path class="be5cb090-9f1d-4aa3-9ca9-87c32c36e457" d="M54.36,6.83v5.72h8.58c0-.58.05-1.14.07-1.67a1,1,0,0,0-.33-.83,2.26,2.26,0,0,0-1.16-.22,34.55,34.55,0,0,0-5.46.87l-.4-3a32.12,32.12,0,0,1,6.05-1,4.88,4.88,0,0,1,3,.8A3.36,3.36,0,0,1,66,10.23a72.85,72.85,0,0,1-.58,7.82h.44v2.86H54.36V40h-3V6.83Zm8.07,11.22c.09-.89.19-1.77.29-2.64H54.36v2.64Zm-.83,5V29h9.81V27.24a1,1,0,0,0-.33-.83,2.29,2.29,0,0,0-1.16-.22,34.66,34.66,0,0,0-6.33.72l-.4-3a37.33,37.33,0,0,1,6.91-.83,4.86,4.86,0,0,1,3,.79,3.36,3.36,0,0,1,1.27,2.72,61.27,61.27,0,0,1-.26,7.74h1.27v2.72H61.6v.65h-3V23Zm9.59,11.29c0-.89.1-1.77.18-2.64H61.6v2.64Zm11,5A2.71,2.71,0,0,1,80.1,40a12.61,12.61,0,0,1-4.46-.54V36.58a9,9,0,0,0,2.79.43,1.05,1.05,0,0,0,1.19-1.19V20.62H71.29v.58h-3V6.54h3V7.73a5.54,5.54,0,0,1,1-.21,45,45,0,0,1,7.66-.91,2.56,2.56,0,0,1,2,.84,4.54,4.54,0,0,1,.8,3.07V36.65A4.62,4.62,0,0,1,82.15,39.33ZM79.62,12.55V11c0-.67-.27-1-.8-1a37.29,37.29,0,0,0-5,.43c-.94.1-1.77.22-2.5.36v1.78Zm-8.33,2.86v2.35h8.33V15.41Z"/><path class="a448d6cb-5dac-4ccc-a3d9-c01b35872f69" d="M5.5,8v12.3h4.89c.09-3.23.11-6,0-8.36a1.67,1.67,0,0,0-.32-.72A.76.76,0,0,0,9.55,11a6.59,6.59,0,0,0-2,.76l-.4-2.86A8,8,0,0,1,10.42,8a2.51,2.51,0,0,1,2,.87,3.4,3.4,0,0,1,.91,2.35q.24,9.92-.55,23.09h1.78v3h-9v1.08h-3V8Zm0,26.34H9.77q.33-6.15.54-11H5.5ZM29.28,21h3v3H35.1v3H32.28V37.81a1.69,1.69,0,0,1-.47,1.3,2.67,2.67,0,0,1-1.19.65,10.92,10.92,0,0,1-3,.4,19.84,19.84,0,0,1-4.42-.83V36.18a22.2,22.2,0,0,0,3.95.87,6.54,6.54,0,0,0,1.59-.11c.39-.12.58-.45.58-1v-8.9h-15v-3h15Zm-14-4.28H23.2v-4H14.55v-3H23.2V6.83h3V9.72h8.9v3H26.2v4h8.18V19.6H15.27Zm6.05,13.68a2.78,2.78,0,0,1,.9,2.07,2.59,2.59,0,0,1-.87,2,2.88,2.88,0,0,1-4.09-4.06,3,3,0,0,1,4.06,0Z"/><path class="a448d6cb-5dac-4ccc-a3d9-c01b35872f69" d="M54.36,6.83v5.72h8.58c0-.58.05-1.14.07-1.67a1,1,0,0,0-.33-.83,2.26,2.26,0,0,0-1.16-.22,34.55,34.55,0,0,0-5.46.87l-.4-3a32.12,32.12,0,0,1,6.05-1,4.88,4.88,0,0,1,3,.8A3.36,3.36,0,0,1,66,10.23a72.85,72.85,0,0,1-.58,7.82h.44v2.86H54.36V40h-3V6.83Zm8.07,11.22c.09-.89.19-1.77.29-2.64H54.36v2.64Zm-.83,5V29h9.81V27.24a1,1,0,0,0-.33-.83,2.29,2.29,0,0,0-1.16-.22,34.66,34.66,0,0,0-6.33.72l-.4-3a37.33,37.33,0,0,1,6.91-.83,4.86,4.86,0,0,1,3,.79,3.36,3.36,0,0,1,1.27,2.72,61.27,61.27,0,0,1-.26,7.74h1.27v2.72H61.6v.65h-3V23Zm9.59,11.29c0-.89.1-1.77.18-2.64H61.6v2.64Zm11,5A2.71,2.71,0,0,1,80.1,40a12.61,12.61,0,0,1-4.46-.54V36.58a9,9,0,0,0,2.79.43,1.05,1.05,0,0,0,1.19-1.19V20.62H71.29v.58h-3V6.54h3V7.73a5.54,5.54,0,0,1,1-.21,45,45,0,0,1,7.66-.91,2.56,2.56,0,0,1,2,.84,4.54,4.54,0,0,1,.8,3.07V36.65A4.62,4.62,0,0,1,82.15,39.33ZM79.62,12.55V11c0-.67-.27-1-.8-1a37.29,37.29,0,0,0-5,.43c-.94.1-1.77.22-2.5.36v1.78Zm-8.33,2.86v2.35h8.33V15.41Z"/><rect class="b3734aab-5526-402d-a247-44766de59d15" x="104.99" y="2.06" width="326.22" height="42.91" rx="21.45"/><path class="fa40b29e-1d5f-48cb-bb1f-fec4c95caa82" d="M125.77,7.89c-7.58,0-13.74,7-13.74,15.72,0,8.56,6.16,15.52,13.74,15.52h16.35V7.89Z"/><rect class="fa40b29e-1d5f-48cb-bb1f-fec4c95caa82" x="301.45" y="7.89" width="27.49" height="31.24"/><rect class="fa40b29e-1d5f-48cb-bb1f-fec4c95caa82" x="270.31" y="7.89" width="27.49" height="31.24"/><rect class="fa40b29e-1d5f-48cb-bb1f-fec4c95caa82" x="239.18" y="7.89" width="27.49" height="31.24"/><rect class="fa40b29e-1d5f-48cb-bb1f-fec4c95caa82" x="332.59" y="7.89" width="27.49" height="31.24"/><rect class="fa40b29e-1d5f-48cb-bb1f-fec4c95caa82" x="145.77" y="7.89" width="27.49" height="31.24"/><rect class="fa40b29e-1d5f-48cb-bb1f-fec4c95caa82" x="176.9" y="7.89" width="27.49" height="31.24"/><rect class="fa40b29e-1d5f-48cb-bb1f-fec4c95caa82" x="363.72" y="7.89" width="27.49" height="31.24"/><rect class="fa40b29e-1d5f-48cb-bb1f-fec4c95caa82" x="208.04" y="7.89" width="27.49" height="31.24"/><path class="fa40b29e-1d5f-48cb-bb1f-fec4c95caa82" d="M410.43,7.89H394.86V39.13h15.57c7.58,0,13.74-7,13.74-15.71C424.17,14.86,418,7.89,410.43,7.89Z"/></g></g></svg>