<svg xmlns="http://www.w3.org/2000/svg" viewBox="0 0 1400 1050"><defs><style>.bd6eacea-fd26-4503-a57d-4a4f9d5db828{fill:#7f4500;}.aeb8aa7a-a1d6-4939-84d9-1dec1bdc729a{fill:#592b00;}.afa6c9b1-b5f3-4d5e-bb89-e1398dedd4b9{fill:#40220f;}.e578d535-1616-4fb4-be30-5569f1d32157{fill:#b3874b;}.aad7fee6-5b96-4f18-97b6-e2dcc59fae34{opacity:0.35;}.a907d699-b540-445a-8b9a-2c157a6e20f6{fill:#6e442e;}.a14d9fb3-11c7-462c-8ee5-1679299e62be{fill:none;}.f99081d7-ad65-4bf2-a144-8a06eeb34196{fill:#9fa0a0;}.bc22f113-6d4e-48d4-aefc-da1e202defeb{fill:#c3dbe8;}.a7742daf-ee52-4e95-9e7c-11ca5d0e8e1a{fill:#efefef;}.a8c7c7a7-901d-462c-8d03-434abc26807e{fill:#dcdddd;}.b005834e-6af4-47cf-8a33-c43a6442933e{fill:#727171;}.bd9e3a59-9259-4490-a466-3bd8c34df138{fill:#b5b5b6;}.b31e1ace-d5b0-4df0-b85e-384d3f0d00c9{fill:#c9caca;}.e5347efe-648d-4569-a601-8ec9656395cd{fill:#9f1f36;}.f53e04fb-298c-4f86-9974-b5c1e22903bb{fill:#00528d;}.b45b7b38-1e36-429a-9e39-c789d5d5090a{fill:#f7f8f8;}.eadd7ea9-8618-4701-a0ea-ca4ba0e0fd5a{fill:#898989;}.a895f8ac-cb35-4fb6-9983-b765825ca493{fill:#95cbe7;}.ae98f0b5-f54d-4cc3-a24c-23d4501e6624{fill:#dadbdb;}.ecbc04c6-9b36-4713-a007-39c180172176{fill:#bdbebe;}.e64fb1fe-e5c4-4c48-92b8-06ecf00a737e{fill:#fff;}.b0b43630-468f-4f47-87be-d93eb90c306b{fill:#d1d1d2;}</style></defs><title>背景_3</title><g id="b18de1bf-0b5c-4786-846a-b232b6e401f9" data-name="圖層 2"><g id="bd4bce66-61f6-4b23-88a1-37e71572ac4a" data-name="圖層 1"><rect class="bd6eacea-fd26-4503-a57d-4a4f9d5db828" y="784.22" width="1400" height="265.78"/><polygon class="aeb8aa7a-a1d6-4939-84d9-1dec1bdc729a" points="623.78 784.22 466.84 1049.84 474.43 1049.84 631.37 784.22 623.78 784.22"/><polygon class="aeb8aa7a-a1d6-4939-84d9-1dec1bdc729a" points="769.01 784.22 925.96 1049.84 933.54 1049.84 776.6 784.22 769.01 784.22"/><polygon class="aeb8aa7a-a1d6-4939-84d9-1dec1bdc729a" points="1034.16 784.22 1015.96 784.22 1400 929.51 1400 922.63 1034.16 784.22"/><polygon class="aeb8aa7a-a1d6-4939-84d9-1dec1bdc729a" points="1185.45 1049.84 1195.89 1049.84 860.56 784.22 850.13 784.22 1185.45 1049.84"/><polygon class="aeb8aa7a-a1d6-4939-84d9-1dec1bdc729a" points="366.31 784.22 0 922.8 0 929.69 384.51 784.22 366.31 784.22"/><polygon class="aeb8aa7a-a1d6-4939-84d9-1dec1bdc729a" points="539.91 784.22 204.59 1049.84 215.02 1049.84 550.34 784.22 539.91 784.22"/><rect class="afa6c9b1-b5f3-4d5e-bb89-e1398dedd4b9" x="931.86" y="328.14" width="784.22" height="127.93" transform="translate(1716.08 -931.86) rotate(90)"/><rect class="e578d535-1616-4fb4-be30-5569f1d32157" x="943.92" y="328.14" width="784.22" height="127.93" transform="translate(1728.14 -943.92) rotate(90)"/><g class="aad7fee6-5b96-4f18-97b6-e2dcc59fae34"><path class="a907d699-b540-445a-8b9a-2c157a6e20f6" d="M1278.58,151c13.65,69.89,8.73,142.74,6.46,213.63q-1.74,54.35-3.77,108.67-.94,26.29-1.9,52.58c-.6,16.54.25,34.64-7.35,49.48-1.94,3.78,3.31,7.19,5.25,3.41,6.39-12.48,7.19-26.59,7.74-40.64.72-18.67,1.35-37.34,2-56q2.06-56.92,4-113.86c2.35-72.7,7.44-147.36-6.55-219-.83-4.25-6.7-2.45-5.87,1.79Z"/><path class="a907d699-b540-445a-8b9a-2c157a6e20f6" d="M1319.69,84.84c-3.29,67.46-8.47,135.19-9.28,202.74-.19,16.45-.12,33.24,1.83,49.57.83,7,3,17.38,9.63,20.36,9.13,4.08,13.19-9.06,15.94-15.94,5.6-14,11.29-28.08,16.35-42.36,5.78-16.35,8.39-32.07,6.68-49.58-1.74-17.89-4-35.73-6.07-53.57-.31-2.75-3.16-4.66-5.19-2.39-26,29-24.59,73.83-23.13,111.66.06,1.73,1.34,3.51,3,3.38,22.65-1.69,9.39-41.07,19.39-53.41,2.61-3.23-1.68-8-4.3-4.78-5.1,6.3-6.12,14-6.3,22.22-.16,7.59,1.66,28.44-8.79,29.22l3,3.37c-1.38-35.9-3.36-79.25,21.35-106.89l-5.19-2.38c1.91,16.78,3.94,33.56,5.73,50.36a111.47,111.47,0,0,1-6.13,51c-3.31,9.39-7,18.63-10.64,27.88q-1.89,4.83-3.81,9.66c-1.22,3.07-2.63,9.88-4.9,12.1-10.34,10.1-11-13.76-11.37-18.71-.65-8.84-1-17.7-1.08-26.56-.44-35.88,2.2-71.83,4-107.64l5.33-109.3c.21-4.34-5.87-4.32-6.08,0Z"/><path class="a907d699-b540-445a-8b9a-2c157a6e20f6" d="M1314.8,379.69c5.3,36.42-1.37,73.07.23,109.64,1.41,32.29,9,65.91-1.81,97.21-1.4,4.06,4.48,5.82,5.86,1.8,11-31.92,3.47-66.07,2-99-1.63-37.23,5-74.36-.45-111.43-.62-4.28-6.48-2.46-5.86,1.79Z"/><path class="a907d699-b540-445a-8b9a-2c157a6e20f6" d="M1295.52,49.72a435.74,435.74,0,0,0-2.48,48.2,3,3,0,1,0,6.08,0,435.74,435.74,0,0,1,2.48-48.2c.46-4.31-5.63-4.27-6.08,0Z"/><path class="a907d699-b540-445a-8b9a-2c157a6e20f6" d="M1360.28,38q-7.69,73.57-10,147.65c-.13,4.35,6,4.34,6.08,0q2.33-74,10-147.65c.45-4.31-5.63-4.28-6.08,0Z"/><path class="a907d699-b540-445a-8b9a-2c157a6e20f6" d="M1383,136.09q-3.56,111.07-15,221.57c-1.86,17.77-4.2,35.57-4.48,53.48-.27,16.95,2.12,33.5,4.71,50.14,5.38,34.43,3.16,69.47,8.9,103.77,6.52,38.87,20.65,77.84,13.28,117.85-.78,4.24,5.08,6.06,5.86,1.79,6-32.28-1.35-64-8.11-95.36-3.94-18.26-7.36-36.51-8.35-55.3-1-17.82-.68-35.68-2.72-53.41-2-17.49-5.78-34.72-7-52.33s.3-35.51,2.16-53.14c3.91-36.92,7.46-73.87,10.18-110.93q4.7-64,6.71-128.13c.14-4.34-5.94-4.34-6.08,0Z"/><path class="a907d699-b540-445a-8b9a-2c157a6e20f6" d="M1340.67,393c3.66,32.91,6.1,65.16,3.8,98.3-1.09,15.64-2.31,31.27-1.64,47s2.8,31.48,4.13,47.22,2,31.27,2.48,46.93c.44,15.11,1.69,30.74.52,45.81-.59,7.6-2.14,16.89-8.42,21.32-6.63,4.66-15.23,1.38-20.2-4.54-9.87-11.76-9.11-31.18-6.07-45.65a170.75,170.75,0,0,1,6.56-23c.47-1.3,1.32-5,2.36-5.7l5.44.61q.46,3.35.81,6.69c.44,4,.8,8.06,1.13,12.1a503.66,503.66,0,0,1,1.31,55.63l5.18-2.39c-7.81-7.5-10.73-18.8-8.9-30,.7-4.25-5.16-6.07-5.86-1.8-2.21,13.46.94,27.39,10.47,36.53,2,1.91,5.09.66,5.19-2.38a501.5,501.5,0,0,0-2.09-64.28c-.73-7.37-2.74-28.43-14.14-19.08-4.64,3.8-6.42,11.07-8.23,16.77-3,9.42-5.7,19-6.78,28.94-1.53,14.1.18,30.93,9.32,41.77,7.43,8.82,20.36,12.13,29.35,4.15,10.48-9.3,10-26.71,9.82-40.13-.35-20.91-.77-41.83-2-62.69s-4.36-41.83-5.25-62.84c-1-23.32,2.3-46.43,2.83-69.7.57-25.32-2.2-50.5-5-75.57-.48-4.26-6.56-4.31-6.08,0Z"/><path class="a907d699-b540-445a-8b9a-2c157a6e20f6" d="M1391.75,19c-1.32,17.24-2.63,34.49-2.85,51.79-.22,17.05,1.65,34.38-2.75,51-1.11,4.17,4.76,6,5.86,1.79,4.27-16.1,2.87-32.65,2.94-49.2.07-18.5,1.47-36.95,2.88-55.37.33-4.33-5.76-4.3-6.08,0Z"/><path class="a907d699-b540-445a-8b9a-2c157a6e20f6" d="M1284.49,613.86q-.06,24.18,2,48.22c.37,4.28,6.45,4.33,6.08,0q-2.1-24.06-2-48.22a3,3,0,1,0-6.08,0Z"/><path class="a907d699-b540-445a-8b9a-2c157a6e20f6" d="M1393.88,321.54c-12.57,72.07-3.41,145.37-3.15,218.06a3,3,0,1,0,6.08,0c-.26-72-9.53-144.86,2.93-216.26.74-4.25-5.11-6.06-5.86-1.8Z"/><path class="a907d699-b540-445a-8b9a-2c157a6e20f6" d="M1324.83,6.68a57.79,57.79,0,0,1-.23,21.62c-.85,4.24,5,6,5.86,1.8a67.22,67.22,0,0,0,.24-25.21c-.76-4.26-6.62-2.46-5.87,1.79Z"/><rect class="a14d9fb3-11c7-462c-8ee5-1679299e62be" x="943.92" y="328.14" width="784.22" height="127.93" transform="translate(1728.14 -943.92) rotate(90)"/><path class="a907d699-b540-445a-8b9a-2c157a6e20f6" d="M1331.4,724.48c-.47-4.26-6.55-4.31-6.08,0,2.2,19.82,2.18,39.79,1.49,59.74h6.08C1333.58,764.27,1333.6,744.3,1331.4,724.48Z"/><path class="a907d699-b540-445a-8b9a-2c157a6e20f6" d="M1288.68,710.3c-.37-4.28-6.45-4.33-6.08,0q2.54,29,5.06,58.09c.46,5.24.82,10.53,1.25,15.83h6c-.53-6.52-1-13-1.51-19.46Z"/><path class="a907d699-b540-445a-8b9a-2c157a6e20f6" d="M1376,698.08a350.28,350.28,0,0,0-1.82-44.77c-.44-4.27-6.53-4.32-6.08,0a349.75,349.75,0,0,1,1.78,46.57c-.46,14.6-2.49,29.15-2.13,43.77a353,353,0,0,0,3.76,40.57h6c-2.13-14.73-3.77-29.5-3.77-44.09C1373.74,726.09,1375.61,712.12,1376,698.08Z"/></g><rect class="afa6c9b1-b5f3-4d5e-bb89-e1398dedd4b9" x="791.86" y="328.14" width="784.22" height="127.93" transform="translate(1576.08 -791.86) rotate(90)"/><rect class="e578d535-1616-4fb4-be30-5569f1d32157" x="803.92" y="328.14" width="784.22" height="127.93" transform="translate(1588.14 -803.92) rotate(90)"/><g class="aad7fee6-5b96-4f18-97b6-e2dcc59fae34"><path class="a907d699-b540-445a-8b9a-2c157a6e20f6" d="M1138.58,151c13.65,69.89,8.73,142.74,6.46,213.63q-1.74,54.35-3.77,108.67-.94,26.29-1.9,52.58c-.6,16.54.25,34.64-7.35,49.48-1.94,3.78,3.31,7.19,5.25,3.41,6.39-12.48,7.19-26.59,7.74-40.64.72-18.67,1.35-37.34,2-56q2.06-56.92,4-113.86c2.35-72.7,7.44-147.36-6.55-219-.83-4.25-6.7-2.45-5.87,1.79Z"/><path class="a907d699-b540-445a-8b9a-2c157a6e20f6" d="M1179.69,84.84c-3.29,67.46-8.47,135.19-9.28,202.74-.19,16.45-.12,33.24,1.83,49.57.83,7,3,17.38,9.63,20.36,9.13,4.08,13.19-9.06,15.94-15.94,5.6-14,11.29-28.08,16.35-42.36,5.78-16.35,8.39-32.07,6.68-49.58-1.74-17.89-4-35.73-6.07-53.57-.31-2.75-3.16-4.66-5.19-2.39-26,29-24.59,73.83-23.13,111.66.06,1.73,1.34,3.51,3,3.38,22.65-1.69,9.39-41.07,19.39-53.41,2.61-3.23-1.68-8-4.3-4.78-5.1,6.3-6.12,14-6.3,22.22-.16,7.59,1.66,28.44-8.79,29.22l3,3.37c-1.38-35.9-3.36-79.25,21.35-106.89l-5.19-2.38c1.91,16.78,3.94,33.56,5.73,50.36a111.47,111.47,0,0,1-6.13,51c-3.31,9.39-7,18.63-10.64,27.88q-1.89,4.83-3.81,9.66c-1.22,3.07-2.63,9.88-4.9,12.1-10.34,10.1-11-13.76-11.37-18.71-.65-8.84-1-17.7-1.08-26.56-.44-35.88,2.2-71.83,4-107.64l5.33-109.3c.21-4.34-5.87-4.32-6.08,0Z"/><path class="a907d699-b540-445a-8b9a-2c157a6e20f6" d="M1174.8,379.69c5.3,36.42-1.37,73.07.23,109.64,1.41,32.29,9,65.91-1.81,97.21-1.4,4.06,4.48,5.82,5.86,1.8,11-31.92,3.47-66.07,2-99-1.63-37.23,5-74.36-.45-111.43-.62-4.28-6.48-2.46-5.86,1.79Z"/><path class="a907d699-b540-445a-8b9a-2c157a6e20f6" d="M1155.52,49.72a435.74,435.74,0,0,0-2.48,48.2,3,3,0,1,0,6.08,0,435.74,435.74,0,0,1,2.48-48.2c.46-4.31-5.63-4.27-6.08,0Z"/><path class="a907d699-b540-445a-8b9a-2c157a6e20f6" d="M1220.28,38q-7.69,73.57-10,147.65c-.13,4.35,6,4.34,6.08,0q2.33-74,10-147.65c.45-4.31-5.63-4.28-6.08,0Z"/><path class="a907d699-b540-445a-8b9a-2c157a6e20f6" d="M1243,136.09q-3.56,111.07-15,221.57c-1.86,17.77-4.2,35.57-4.48,53.48-.27,16.95,2.12,33.5,4.71,50.14,5.38,34.43,3.16,69.47,8.9,103.77,6.52,38.87,20.65,77.84,13.28,117.85-.78,4.24,5.08,6.06,5.86,1.79,6-32.28-1.35-64-8.11-95.36-3.94-18.26-7.36-36.51-8.35-55.3-1-17.82-.68-35.68-2.72-53.41-2-17.49-5.78-34.72-7-52.33s.3-35.51,2.16-53.14c3.91-36.92,7.46-73.87,10.18-110.93q4.7-64,6.71-128.13c.14-4.34-5.94-4.34-6.08,0Z"/><path class="a907d699-b540-445a-8b9a-2c157a6e20f6" d="M1200.67,393c3.66,32.91,6.1,65.16,3.8,98.3-1.09,15.64-2.31,31.27-1.64,47s2.8,31.48,4.13,47.22,2,31.27,2.48,46.93c.44,15.11,1.69,30.74.52,45.81-.59,7.6-2.14,16.89-8.42,21.32-6.63,4.66-15.23,1.38-20.2-4.54-9.87-11.76-9.11-31.18-6.07-45.65a170.75,170.75,0,0,1,6.56-23c.47-1.3,1.32-5,2.36-5.7l5.44.61q.46,3.35.81,6.69c.44,4,.8,8.06,1.13,12.1a503.66,503.66,0,0,1,1.31,55.63l5.18-2.39c-7.81-7.5-10.73-18.8-8.9-30,.7-4.25-5.16-6.07-5.86-1.8-2.21,13.46.94,27.39,10.47,36.53,2,1.91,5.09.66,5.19-2.38a501.5,501.5,0,0,0-2.09-64.28c-.73-7.37-2.74-28.43-14.14-19.08-4.64,3.8-6.42,11.07-8.23,16.77-3,9.42-5.7,19-6.78,28.94-1.53,14.1.18,30.93,9.32,41.77,7.43,8.82,20.36,12.13,29.35,4.15,10.48-9.3,10-26.71,9.82-40.13-.35-20.91-.77-41.83-2-62.69s-4.36-41.83-5.25-62.84c-1-23.32,2.3-46.43,2.83-69.7.57-25.32-2.2-50.5-5-75.57-.48-4.26-6.56-4.31-6.08,0Z"/><path class="a907d699-b540-445a-8b9a-2c157a6e20f6" d="M1251.75,19c-1.32,17.24-2.63,34.49-2.85,51.79-.22,17.05,1.65,34.38-2.75,51-1.11,4.17,4.76,6,5.86,1.79,4.27-16.1,2.87-32.65,2.94-49.2.07-18.5,1.47-36.95,2.88-55.37.33-4.33-5.76-4.3-6.08,0Z"/><path class="a907d699-b540-445a-8b9a-2c157a6e20f6" d="M1144.49,613.86q-.06,24.18,2,48.22c.37,4.28,6.45,4.33,6.08,0q-2.1-24.06-2-48.22a3,3,0,1,0-6.08,0Z"/><path class="a907d699-b540-445a-8b9a-2c157a6e20f6" d="M1253.88,321.54c-12.57,72.07-3.41,145.37-3.15,218.06a3,3,0,1,0,6.08,0c-.26-72-9.53-144.86,2.93-216.26.74-4.25-5.11-6.06-5.86-1.8Z"/><path class="a907d699-b540-445a-8b9a-2c157a6e20f6" d="M1184.83,6.68a57.79,57.79,0,0,1-.23,21.62c-.85,4.24,5,6,5.86,1.8a67.22,67.22,0,0,0,.24-25.21c-.76-4.26-6.62-2.46-5.87,1.79Z"/><rect class="a14d9fb3-11c7-462c-8ee5-1679299e62be" x="803.92" y="328.14" width="784.22" height="127.93" transform="translate(1588.14 -803.92) rotate(90)"/><path class="a907d699-b540-445a-8b9a-2c157a6e20f6" d="M1191.4,724.48c-.47-4.26-6.55-4.31-6.08,0,2.2,19.82,2.18,39.79,1.49,59.74h6.08C1193.58,764.27,1193.6,744.3,1191.4,724.48Z"/><path class="a907d699-b540-445a-8b9a-2c157a6e20f6" d="M1148.68,710.3c-.37-4.28-6.45-4.33-6.08,0q2.54,29,5.06,58.09c.46,5.24.82,10.53,1.25,15.83h6c-.53-6.52-1-13-1.51-19.46Z"/><path class="a907d699-b540-445a-8b9a-2c157a6e20f6" d="M1236,698.08a350.28,350.28,0,0,0-1.82-44.77c-.44-4.27-6.53-4.32-6.08,0a349.75,349.75,0,0,1,1.78,46.57c-.46,14.6-2.49,29.15-2.13,43.77a353,353,0,0,0,3.76,40.57h6c-2.13-14.73-3.77-29.5-3.77-44.09C1233.74,726.09,1235.61,712.12,1236,698.08Z"/></g><rect class="afa6c9b1-b5f3-4d5e-bb89-e1398dedd4b9" x="651.86" y="328.14" width="784.22" height="127.93" transform="translate(1436.08 -651.86) rotate(90)"/><rect class="e578d535-1616-4fb4-be30-5569f1d32157" x="663.92" y="328.14" width="784.22" height="127.93" transform="translate(1448.14 -663.92) rotate(90)"/><g class="aad7fee6-5b96-4f18-97b6-e2dcc59fae34"><path class="a907d699-b540-445a-8b9a-2c157a6e20f6" d="M998.58,151c13.65,69.89,8.73,142.74,6.46,213.63q-1.74,54.35-3.77,108.67-.94,26.29-1.9,52.58c-.6,16.54.25,34.64-7.35,49.48-1.94,3.78,3.31,7.19,5.25,3.41,6.39-12.48,7.19-26.59,7.74-40.64.72-18.67,1.35-37.34,2-56q2.06-56.92,4-113.86c2.35-72.7,7.44-147.36-6.55-219-.83-4.25-6.7-2.45-5.87,1.79Z"/><path class="a907d699-b540-445a-8b9a-2c157a6e20f6" d="M1039.69,84.84c-3.29,67.46-8.47,135.19-9.28,202.74-.19,16.45-.12,33.24,1.83,49.57.83,7,3,17.38,9.63,20.36,9.13,4.08,13.19-9.06,15.94-15.94,5.6-14,11.29-28.08,16.35-42.36,5.78-16.35,8.39-32.07,6.68-49.58-1.74-17.89-4-35.73-6.07-53.57-.31-2.75-3.16-4.66-5.19-2.39-26,29-24.59,73.83-23.13,111.66.06,1.73,1.34,3.51,3,3.38,22.65-1.69,9.39-41.07,19.39-53.41,2.61-3.23-1.68-8-4.3-4.78-5.1,6.3-6.12,14-6.3,22.22-.16,7.59,1.66,28.44-8.79,29.22l3,3.37c-1.38-35.9-3.36-79.25,21.35-106.89l-5.19-2.38c1.91,16.78,3.94,33.56,5.73,50.36a111.47,111.47,0,0,1-6.13,51c-3.31,9.39-7,18.63-10.64,27.88q-1.89,4.83-3.81,9.66c-1.22,3.07-2.63,9.88-4.9,12.1-10.34,10.1-11-13.76-11.37-18.71-.65-8.84-1-17.7-1.08-26.56-.44-35.88,2.2-71.83,4-107.64l5.33-109.3c.21-4.34-5.87-4.32-6.08,0Z"/><path class="a907d699-b540-445a-8b9a-2c157a6e20f6" d="M1034.8,379.69c5.3,36.42-1.37,73.07.23,109.64,1.41,32.29,9,65.91-1.81,97.21-1.4,4.06,4.48,5.82,5.86,1.8,11-31.92,3.47-66.07,2-99-1.63-37.23,5-74.36-.45-111.43-.62-4.28-6.48-2.46-5.86,1.79Z"/><path class="a907d699-b540-445a-8b9a-2c157a6e20f6" d="M1015.52,49.72a435.74,435.74,0,0,0-2.48,48.2,3,3,0,1,0,6.08,0,435.74,435.74,0,0,1,2.48-48.2c.46-4.31-5.63-4.27-6.08,0Z"/><path class="a907d699-b540-445a-8b9a-2c157a6e20f6" d="M1080.28,38q-7.69,73.57-10,147.65c-.13,4.35,6,4.34,6.08,0q2.33-74,10-147.65c.45-4.31-5.63-4.28-6.08,0Z"/><path class="a907d699-b540-445a-8b9a-2c157a6e20f6" d="M1103,136.09q-3.56,111.07-15,221.57c-1.86,17.77-4.2,35.57-4.48,53.48-.27,16.95,2.12,33.5,4.71,50.14,5.38,34.43,3.16,69.47,8.9,103.77,6.52,38.87,20.65,77.84,13.28,117.85-.78,4.24,5.08,6.06,5.86,1.79,6-32.28-1.35-64-8.11-95.36-3.94-18.26-7.36-36.51-8.35-55.3-1-17.82-.68-35.68-2.72-53.41-2-17.49-5.78-34.72-7-52.33s.3-35.51,2.16-53.14c3.91-36.92,7.46-73.87,10.18-110.93q4.7-64,6.71-128.13c.14-4.34-5.94-4.34-6.08,0Z"/><path class="a907d699-b540-445a-8b9a-2c157a6e20f6" d="M1060.67,393c3.66,32.91,6.1,65.16,3.8,98.3-1.09,15.64-2.31,31.27-1.64,47s2.8,31.48,4.13,47.22,2,31.27,2.48,46.93c.44,15.11,1.69,30.74.52,45.81-.59,7.6-2.14,16.89-8.42,21.32-6.63,4.66-15.23,1.38-20.2-4.54-9.87-11.76-9.11-31.18-6.07-45.65a170.75,170.75,0,0,1,6.56-23c.47-1.3,1.32-5,2.36-5.7l5.44.61q.46,3.35.81,6.69c.44,4,.8,8.06,1.13,12.1a503.66,503.66,0,0,1,1.31,55.63l5.18-2.39c-7.81-7.5-10.73-18.8-8.9-30,.7-4.25-5.16-6.07-5.86-1.8-2.21,13.46.94,27.39,10.47,36.53,2,1.91,5.09.66,5.19-2.38a501.5,501.5,0,0,0-2.09-64.28c-.73-7.37-2.74-28.43-14.14-19.08-4.64,3.8-6.42,11.07-8.23,16.77-3,9.42-5.7,19-6.78,28.94-1.53,14.1.18,30.93,9.32,41.77,7.43,8.82,20.36,12.13,29.35,4.15,10.48-9.3,10-26.71,9.82-40.13-.35-20.91-.77-41.83-2-62.69s-4.36-41.83-5.25-62.84c-1-23.32,2.3-46.43,2.83-69.7.57-25.32-2.2-50.5-5-75.57-.48-4.26-6.56-4.31-6.08,0Z"/><path class="a907d699-b540-445a-8b9a-2c157a6e20f6" d="M1111.75,19c-1.32,17.24-2.63,34.49-2.85,51.79-.22,17.05,1.65,34.38-2.75,51-1.11,4.17,4.76,6,5.86,1.79,4.27-16.1,2.87-32.65,2.94-49.2.07-18.5,1.47-36.95,2.88-55.37.33-4.33-5.76-4.3-6.08,0Z"/><path class="a907d699-b540-445a-8b9a-2c157a6e20f6" d="M1004.49,613.86q-.06,24.18,2,48.22c.37,4.28,6.45,4.33,6.08,0q-2.1-24.06-2-48.22a3,3,0,1,0-6.08,0Z"/><path class="a907d699-b540-445a-8b9a-2c157a6e20f6" d="M1113.88,321.54c-12.57,72.07-3.41,145.37-3.15,218.06a3,3,0,1,0,6.08,0c-.26-72-9.53-144.86,2.93-216.26.74-4.25-5.11-6.06-5.86-1.8Z"/><path class="a907d699-b540-445a-8b9a-2c157a6e20f6" d="M1044.83,6.68a57.79,57.79,0,0,1-.23,21.62c-.85,4.24,5,6,5.86,1.8a67.22,67.22,0,0,0,.24-25.21c-.76-4.26-6.62-2.46-5.87,1.79Z"/><rect class="a14d9fb3-11c7-462c-8ee5-1679299e62be" x="663.92" y="328.14" width="784.22" height="127.93" transform="translate(1448.14 -663.92) rotate(90)"/><path class="a907d699-b540-445a-8b9a-2c157a6e20f6" d="M1051.4,724.48c-.47-4.26-6.55-4.31-6.08,0,2.2,19.82,2.18,39.79,1.49,59.74h6.08C1053.58,764.27,1053.6,744.3,1051.4,724.48Z"/><path class="a907d699-b540-445a-8b9a-2c157a6e20f6" d="M1008.68,710.3c-.37-4.28-6.45-4.33-6.08,0q2.53,29,5.06,58.09c.46,5.24.82,10.53,1.25,15.83h6c-.53-6.52-.95-13-1.51-19.46Z"/><path class="a907d699-b540-445a-8b9a-2c157a6e20f6" d="M1096,698.08a350.28,350.28,0,0,0-1.82-44.77c-.44-4.27-6.53-4.32-6.08,0a349.75,349.75,0,0,1,1.78,46.57c-.46,14.6-2.49,29.15-2.13,43.77a353,353,0,0,0,3.76,40.57h6c-2.13-14.73-3.77-29.5-3.77-44.09C1093.74,726.09,1095.61,712.12,1096,698.08Z"/></g><rect class="afa6c9b1-b5f3-4d5e-bb89-e1398dedd4b9" x="511.86" y="328.14" width="784.22" height="127.93" transform="translate(1296.08 -511.86) rotate(90)"/><rect class="e578d535-1616-4fb4-be30-5569f1d32157" x="523.92" y="328.14" width="784.22" height="127.93" transform="translate(1308.14 -523.92) rotate(90)"/><g class="aad7fee6-5b96-4f18-97b6-e2dcc59fae34"><path class="a907d699-b540-445a-8b9a-2c157a6e20f6" d="M858.58,151c13.65,69.89,8.73,142.74,6.46,213.63Q863.3,419,861.27,473.3q-.94,26.29-1.9,52.58c-.6,16.54.25,34.64-7.35,49.48-1.94,3.78,3.31,7.19,5.25,3.41,6.39-12.48,7.19-26.59,7.74-40.64.72-18.67,1.35-37.34,2-56q2.06-56.92,4-113.86c2.35-72.7,7.44-147.36-6.55-219-.83-4.25-6.7-2.45-5.87,1.79Z"/><path class="a907d699-b540-445a-8b9a-2c157a6e20f6" d="M899.69,84.84c-3.29,67.46-8.47,135.19-9.28,202.74-.19,16.45-.12,33.24,1.83,49.57.83,7,3,17.38,9.63,20.36,9.13,4.08,13.19-9.06,15.94-15.94,5.6-14,11.29-28.08,16.35-42.36,5.78-16.35,8.39-32.07,6.68-49.58-1.74-17.89-4-35.73-6.07-53.57-.31-2.75-3.16-4.66-5.19-2.39-26,29-24.59,73.83-23.13,111.66.06,1.73,1.34,3.51,3,3.38,22.65-1.69,9.39-41.07,19.39-53.41,2.61-3.23-1.68-8-4.3-4.78-5.1,6.3-6.12,14-6.3,22.22-.16,7.59,1.66,28.44-8.79,29.22l3,3.37c-1.38-35.9-3.36-79.25,21.35-106.89l-5.19-2.38c1.91,16.78,3.94,33.56,5.73,50.36a111.47,111.47,0,0,1-6.13,51c-3.31,9.39-7,18.63-10.64,27.88q-1.89,4.83-3.81,9.66c-1.22,3.07-2.63,9.88-4.9,12.1-10.34,10.1-11-13.76-11.37-18.71-.65-8.84-1-17.7-1.08-26.56-.44-35.88,2.2-71.83,4-107.64l5.33-109.3c.21-4.34-5.87-4.32-6.08,0Z"/><path class="a907d699-b540-445a-8b9a-2c157a6e20f6" d="M894.8,379.69c5.3,36.42-1.37,73.07.23,109.64,1.41,32.29,9,65.91-1.81,97.21-1.4,4.06,4.48,5.82,5.86,1.8,11-31.92,3.47-66.07,2-99-1.63-37.23,4.95-74.36-.45-111.43-.62-4.28-6.48-2.46-5.86,1.79Z"/><path class="a907d699-b540-445a-8b9a-2c157a6e20f6" d="M875.52,49.72A435.74,435.74,0,0,0,873,97.92a3,3,0,1,0,6.08,0,435.74,435.74,0,0,1,2.48-48.2c.46-4.31-5.63-4.27-6.08,0Z"/><path class="a907d699-b540-445a-8b9a-2c157a6e20f6" d="M940.28,38q-7.69,73.57-10,147.65c-.13,4.35,6,4.34,6.08,0q2.32-74,10-147.65c.45-4.31-5.63-4.28-6.08,0Z"/><path class="a907d699-b540-445a-8b9a-2c157a6e20f6" d="M963,136.09q-3.56,111.07-15,221.57c-1.86,17.77-4.2,35.57-4.48,53.48-.27,16.95,2.12,33.5,4.71,50.14,5.38,34.43,3.16,69.47,8.9,103.77,6.52,38.87,20.65,77.84,13.28,117.85-.78,4.24,5.08,6.06,5.86,1.79,5.95-32.28-1.35-64-8.11-95.36-3.94-18.26-7.36-36.51-8.35-55.3-1-17.82-.68-35.68-2.72-53.41-2-17.49-5.78-34.72-7-52.33s.3-35.51,2.16-53.14c3.91-36.92,7.46-73.87,10.18-110.93q4.7-64,6.71-128.13c.14-4.34-5.94-4.34-6.08,0Z"/><path class="a907d699-b540-445a-8b9a-2c157a6e20f6" d="M920.67,393c3.66,32.91,6.1,65.16,3.8,98.3-1.09,15.64-2.31,31.27-1.64,47s2.8,31.48,4.13,47.22,2,31.27,2.48,46.93c.44,15.11,1.69,30.74.52,45.81-.59,7.6-2.14,16.89-8.42,21.32-6.63,4.66-15.23,1.38-20.2-4.54-9.87-11.76-9.11-31.18-6.07-45.65a170.75,170.75,0,0,1,6.56-23c.47-1.3,1.32-5,2.36-5.7l5.44.61q.47,3.35.81,6.69c.44,4,.8,8.06,1.13,12.1a503.66,503.66,0,0,1,1.31,55.63l5.18-2.39c-7.81-7.5-10.73-18.8-8.9-30,.7-4.25-5.16-6.07-5.86-1.8-2.21,13.46.94,27.39,10.47,36.53,2,1.91,5.09.66,5.19-2.38a501.5,501.5,0,0,0-2.09-64.28c-.73-7.37-2.74-28.43-14.14-19.08-4.64,3.8-6.42,11.07-8.23,16.77-3,9.42-5.7,19-6.78,28.94-1.53,14.1.18,30.93,9.32,41.77,7.43,8.82,20.36,12.13,29.35,4.15,10.48-9.3,10-26.71,9.82-40.13-.35-20.91-.77-41.83-2.05-62.69s-4.36-41.83-5.25-62.84c-1-23.32,2.3-46.43,2.83-69.7.57-25.32-2.2-50.5-5-75.57-.48-4.26-6.56-4.31-6.08,0Z"/><path class="a907d699-b540-445a-8b9a-2c157a6e20f6" d="M971.75,19c-1.32,17.24-2.63,34.49-2.85,51.79-.22,17.05,1.65,34.38-2.75,51-1.11,4.17,4.76,6,5.86,1.79,4.27-16.1,2.87-32.65,2.94-49.2.07-18.5,1.47-36.95,2.88-55.37.33-4.33-5.76-4.3-6.08,0Z"/><path class="a907d699-b540-445a-8b9a-2c157a6e20f6" d="M864.49,613.86q-.06,24.18,2,48.22c.37,4.28,6.45,4.33,6.08,0q-2.1-24.06-2-48.22a3,3,0,1,0-6.08,0Z"/><path class="a907d699-b540-445a-8b9a-2c157a6e20f6" d="M973.88,321.54c-12.57,72.07-3.41,145.37-3.15,218.06a3,3,0,1,0,6.08,0c-.26-72-9.53-144.86,2.93-216.26.74-4.25-5.11-6.06-5.86-1.8Z"/><path class="a907d699-b540-445a-8b9a-2c157a6e20f6" d="M904.83,6.68a57.79,57.79,0,0,1-.23,21.62c-.85,4.24,5,6,5.86,1.8a67.22,67.22,0,0,0,.24-25.21c-.76-4.26-6.62-2.46-5.87,1.79Z"/><rect class="a14d9fb3-11c7-462c-8ee5-1679299e62be" x="523.92" y="328.14" width="784.22" height="127.93" transform="translate(1308.14 -523.92) rotate(90)"/><path class="a907d699-b540-445a-8b9a-2c157a6e20f6" d="M911.4,724.48c-.47-4.26-6.55-4.31-6.08,0,2.2,19.82,2.18,39.79,1.49,59.74h6.08C913.58,764.27,913.6,744.3,911.4,724.48Z"/><path class="a907d699-b540-445a-8b9a-2c157a6e20f6" d="M868.68,710.3c-.37-4.28-6.45-4.33-6.08,0q2.53,29,5.06,58.09c.46,5.24.82,10.53,1.25,15.83h6c-.53-6.52-.95-13-1.51-19.46Z"/><path class="a907d699-b540-445a-8b9a-2c157a6e20f6" d="M956,698.08a350.28,350.28,0,0,0-1.82-44.77c-.44-4.27-6.53-4.32-6.08,0a349.75,349.75,0,0,1,1.78,46.57c-.46,14.6-2.49,29.15-2.13,43.77a353,353,0,0,0,3.76,40.57h6c-2.13-14.73-3.77-29.5-3.77-44.09C953.74,726.09,955.61,712.12,956,698.08Z"/></g><rect class="afa6c9b1-b5f3-4d5e-bb89-e1398dedd4b9" x="371.86" y="328.14" width="784.22" height="127.93" transform="translate(1156.08 -371.86) rotate(90)"/><rect class="e578d535-1616-4fb4-be30-5569f1d32157" x="383.92" y="328.14" width="784.22" height="127.93" transform="translate(1168.14 -383.92) rotate(90)"/><g class="aad7fee6-5b96-4f18-97b6-e2dcc59fae34"><path class="a907d699-b540-445a-8b9a-2c157a6e20f6" d="M718.58,151c13.65,69.89,8.73,142.74,6.46,213.63Q723.3,419,721.27,473.3q-.94,26.29-1.9,52.58c-.6,16.54.25,34.64-7.35,49.48-1.94,3.78,3.31,7.19,5.25,3.41,6.39-12.48,7.19-26.59,7.74-40.64.72-18.67,1.35-37.34,2-56q2.06-56.92,4-113.86c2.35-72.7,7.44-147.36-6.55-219-.83-4.25-6.7-2.45-5.87,1.79Z"/><path class="a907d699-b540-445a-8b9a-2c157a6e20f6" d="M759.69,84.84c-3.29,67.46-8.47,135.19-9.28,202.74-.19,16.45-.12,33.24,1.83,49.57.83,7,3,17.38,9.63,20.36,9.13,4.08,13.19-9.06,15.94-15.94,5.6-14,11.29-28.08,16.35-42.36,5.78-16.35,8.39-32.07,6.68-49.58-1.74-17.89-4-35.73-6.07-53.57-.31-2.75-3.16-4.66-5.19-2.39-26,29-24.59,73.83-23.13,111.66.06,1.73,1.34,3.51,3,3.38,22.65-1.69,9.39-41.07,19.39-53.41,2.61-3.23-1.68-8-4.3-4.78-5.1,6.3-6.12,14-6.3,22.22-.16,7.59,1.66,28.44-8.79,29.22l3,3.37c-1.38-35.9-3.36-79.25,21.35-106.89l-5.19-2.38c1.91,16.78,3.94,33.56,5.73,50.36a111.47,111.47,0,0,1-6.13,51c-3.31,9.39-7,18.63-10.64,27.88q-1.89,4.83-3.81,9.66c-1.22,3.07-2.63,9.88-4.9,12.1-10.34,10.1-11-13.76-11.37-18.71-.65-8.84-1-17.7-1.08-26.56-.44-35.88,2.2-71.83,4-107.64l5.33-109.3c.21-4.34-5.87-4.32-6.08,0Z"/><path class="a907d699-b540-445a-8b9a-2c157a6e20f6" d="M754.8,379.69c5.3,36.42-1.37,73.07.23,109.64,1.41,32.29,9,65.91-1.81,97.21-1.4,4.06,4.48,5.82,5.86,1.8,11-31.92,3.47-66.07,2-99-1.63-37.23,4.95-74.36-.45-111.43-.62-4.28-6.48-2.46-5.86,1.79Z"/><path class="a907d699-b540-445a-8b9a-2c157a6e20f6" d="M735.52,49.72A435.74,435.74,0,0,0,733,97.92a3,3,0,1,0,6.08,0,435.74,435.74,0,0,1,2.48-48.2c.46-4.31-5.63-4.27-6.08,0Z"/><path class="a907d699-b540-445a-8b9a-2c157a6e20f6" d="M800.28,38q-7.69,73.57-10,147.65c-.13,4.35,6,4.34,6.08,0q2.32-74,10-147.65c.45-4.31-5.63-4.28-6.08,0Z"/><path class="a907d699-b540-445a-8b9a-2c157a6e20f6" d="M823,136.09q-3.56,111.07-15,221.57c-1.86,17.77-4.2,35.57-4.48,53.48-.27,16.95,2.12,33.5,4.71,50.14,5.38,34.43,3.16,69.47,8.9,103.77,6.52,38.87,20.65,77.84,13.28,117.85-.78,4.24,5.08,6.06,5.86,1.79,5.95-32.28-1.35-64-8.11-95.36-3.94-18.26-7.36-36.51-8.35-55.3-1-17.82-.68-35.68-2.72-53.41-2-17.49-5.78-34.72-7-52.33s.3-35.51,2.16-53.14c3.91-36.92,7.46-73.87,10.18-110.93q4.7-64,6.71-128.13c.14-4.34-5.94-4.34-6.08,0Z"/><path class="a907d699-b540-445a-8b9a-2c157a6e20f6" d="M780.67,393c3.66,32.91,6.1,65.16,3.8,98.3-1.09,15.64-2.31,31.27-1.64,47s2.8,31.48,4.13,47.22,2,31.27,2.48,46.93c.44,15.11,1.69,30.74.52,45.81-.59,7.6-2.14,16.89-8.42,21.32-6.63,4.66-15.23,1.38-20.2-4.54-9.87-11.76-9.11-31.18-6.07-45.65a170.75,170.75,0,0,1,6.56-23c.47-1.3,1.32-5,2.36-5.7l5.44.61q.47,3.35.81,6.69c.44,4,.8,8.06,1.13,12.1a503.66,503.66,0,0,1,1.31,55.63l5.18-2.39c-7.81-7.5-10.73-18.8-8.9-30,.7-4.25-5.16-6.07-5.86-1.8-2.21,13.46.94,27.39,10.47,36.53,2,1.91,5.09.66,5.19-2.38a501.5,501.5,0,0,0-2.09-64.28c-.73-7.37-2.74-28.43-14.14-19.08-4.64,3.8-6.42,11.07-8.23,16.77-3,9.42-5.7,19-6.78,28.94-1.53,14.1.18,30.93,9.32,41.77,7.43,8.82,20.36,12.13,29.35,4.15,10.48-9.3,10-26.71,9.82-40.13-.35-20.91-.77-41.83-2.05-62.69s-4.36-41.83-5.25-62.84c-1-23.32,2.3-46.43,2.83-69.7.57-25.32-2.2-50.5-5-75.57-.48-4.26-6.56-4.31-6.08,0Z"/><path class="a907d699-b540-445a-8b9a-2c157a6e20f6" d="M831.75,19c-1.32,17.24-2.63,34.49-2.85,51.79-.22,17.05,1.65,34.38-2.75,51-1.11,4.17,4.76,6,5.86,1.79,4.27-16.1,2.87-32.65,2.94-49.2.07-18.5,1.47-36.95,2.88-55.37.33-4.33-5.76-4.3-6.08,0Z"/><path class="a907d699-b540-445a-8b9a-2c157a6e20f6" d="M724.49,613.86q-.06,24.18,2,48.22c.37,4.28,6.45,4.33,6.08,0q-2.1-24.06-2-48.22a3,3,0,1,0-6.08,0Z"/><path class="a907d699-b540-445a-8b9a-2c157a6e20f6" d="M833.88,321.54c-12.57,72.07-3.41,145.37-3.15,218.06a3,3,0,1,0,6.08,0c-.26-72-9.53-144.86,2.93-216.26.74-4.25-5.11-6.06-5.86-1.8Z"/><path class="a907d699-b540-445a-8b9a-2c157a6e20f6" d="M764.83,6.68a57.79,57.79,0,0,1-.23,21.62c-.85,4.24,5,6,5.86,1.8a67.22,67.22,0,0,0,.24-25.21c-.76-4.26-6.62-2.46-5.87,1.79Z"/><rect class="a14d9fb3-11c7-462c-8ee5-1679299e62be" x="383.92" y="328.14" width="784.22" height="127.93" transform="translate(1168.14 -383.92) rotate(90)"/><path class="a907d699-b540-445a-8b9a-2c157a6e20f6" d="M771.4,724.48c-.47-4.26-6.55-4.31-6.08,0,2.2,19.82,2.18,39.79,1.49,59.74h6.08C773.58,764.27,773.6,744.3,771.4,724.48Z"/><path class="a907d699-b540-445a-8b9a-2c157a6e20f6" d="M728.68,710.3c-.37-4.28-6.45-4.33-6.08,0q2.53,29,5.06,58.09c.46,5.24.82,10.53,1.25,15.83h6c-.53-6.52-.95-13-1.51-19.46Z"/><path class="a907d699-b540-445a-8b9a-2c157a6e20f6" d="M816,698.08a350.28,350.28,0,0,0-1.82-44.77c-.44-4.27-6.53-4.32-6.08,0a349.75,349.75,0,0,1,1.78,46.57c-.46,14.6-2.49,29.15-2.13,43.77a353,353,0,0,0,3.76,40.57h6c-2.13-14.73-3.77-29.5-3.77-44.09C813.74,726.09,815.61,712.12,816,698.08Z"/></g><rect class="afa6c9b1-b5f3-4d5e-bb89-e1398dedd4b9" x="231.86" y="328.14" width="784.22" height="127.93" transform="translate(1016.08 -231.86) rotate(90)"/><rect class="e578d535-1616-4fb4-be30-5569f1d32157" x="243.92" y="328.14" width="784.22" height="127.93" transform="translate(1028.14 -243.92) rotate(90)"/><g class="aad7fee6-5b96-4f18-97b6-e2dcc59fae34"><path class="a907d699-b540-445a-8b9a-2c157a6e20f6" d="M578.58,151c13.65,69.89,8.73,142.74,6.46,213.63Q583.3,419,581.27,473.3q-.94,26.29-1.9,52.58c-.6,16.54.25,34.64-7.35,49.48-1.94,3.78,3.31,7.19,5.25,3.41,6.39-12.48,7.19-26.59,7.74-40.64.72-18.67,1.35-37.34,2-56q2.06-56.92,4-113.86c2.35-72.7,7.44-147.36-6.55-219-.83-4.25-6.7-2.45-5.87,1.79Z"/><path class="a907d699-b540-445a-8b9a-2c157a6e20f6" d="M619.69,84.84c-3.29,67.46-8.47,135.19-9.28,202.74-.19,16.45-.12,33.24,1.83,49.57.83,7,3,17.38,9.63,20.36,9.13,4.08,13.19-9.06,15.94-15.94,5.6-14,11.29-28.08,16.35-42.36,5.78-16.35,8.39-32.07,6.68-49.58-1.74-17.89-4-35.73-6.07-53.57-.31-2.75-3.16-4.66-5.19-2.39-26,29-24.59,73.83-23.13,111.66.06,1.73,1.34,3.51,3,3.38,22.65-1.69,9.39-41.07,19.39-53.41,2.61-3.23-1.68-8-4.3-4.78-5.1,6.3-6.12,14-6.3,22.22-.16,7.59,1.66,28.44-8.79,29.22l3,3.37c-1.38-35.9-3.36-79.25,21.35-106.89l-5.19-2.38c1.91,16.78,3.94,33.56,5.73,50.36a111.47,111.47,0,0,1-6.13,51c-3.31,9.39-7,18.63-10.64,27.88q-1.89,4.83-3.81,9.66c-1.22,3.07-2.63,9.88-4.9,12.1-10.34,10.1-11-13.76-11.37-18.71-.65-8.84-1-17.7-1.08-26.56-.44-35.88,2.2-71.83,4-107.64l5.33-109.3c.21-4.34-5.87-4.32-6.08,0Z"/><path class="a907d699-b540-445a-8b9a-2c157a6e20f6" d="M614.8,379.69c5.3,36.42-1.37,73.07.23,109.64,1.41,32.29,9,65.91-1.81,97.21-1.4,4.06,4.48,5.82,5.86,1.8,11-31.92,3.47-66.07,2-99-1.63-37.23,4.95-74.36-.45-111.43-.62-4.28-6.48-2.46-5.86,1.79Z"/><path class="a907d699-b540-445a-8b9a-2c157a6e20f6" d="M595.52,49.72A435.74,435.74,0,0,0,593,97.92a3,3,0,1,0,6.08,0,435.74,435.74,0,0,1,2.48-48.2c.46-4.31-5.63-4.27-6.08,0Z"/><path class="a907d699-b540-445a-8b9a-2c157a6e20f6" d="M660.28,38q-7.69,73.57-10,147.65c-.13,4.35,6,4.34,6.08,0q2.32-74,10-147.65c.45-4.31-5.63-4.28-6.08,0Z"/><path class="a907d699-b540-445a-8b9a-2c157a6e20f6" d="M683,136.09q-3.56,111.07-15,221.57c-1.86,17.77-4.2,35.57-4.48,53.48-.27,16.95,2.12,33.5,4.71,50.14,5.38,34.43,3.16,69.47,8.9,103.77,6.52,38.87,20.65,77.84,13.28,117.85-.78,4.24,5.08,6.06,5.86,1.79,5.95-32.28-1.35-64-8.11-95.36-3.94-18.26-7.36-36.51-8.35-55.3-1-17.82-.68-35.68-2.72-53.41-2-17.49-5.78-34.72-7-52.33s.3-35.51,2.16-53.14c3.91-36.92,7.46-73.87,10.18-110.93q4.7-64,6.71-128.13c.14-4.34-5.94-4.34-6.08,0Z"/><path class="a907d699-b540-445a-8b9a-2c157a6e20f6" d="M640.67,393c3.66,32.91,6.1,65.16,3.8,98.3-1.09,15.64-2.31,31.27-1.64,47s2.8,31.48,4.13,47.22,2,31.27,2.48,46.93c.44,15.11,1.69,30.74.52,45.81-.59,7.6-2.14,16.89-8.42,21.32-6.63,4.66-15.23,1.38-20.2-4.54-9.87-11.76-9.11-31.18-6.07-45.65a170.75,170.75,0,0,1,6.56-23c.47-1.3,1.32-5,2.36-5.7l5.44.61q.47,3.35.81,6.69c.44,4,.8,8.06,1.13,12.1a503.66,503.66,0,0,1,1.31,55.63l5.18-2.39c-7.81-7.5-10.73-18.8-8.9-30,.7-4.25-5.16-6.07-5.86-1.8-2.21,13.46.94,27.39,10.47,36.53,2,1.91,5.09.66,5.19-2.38a501.5,501.5,0,0,0-2.09-64.28c-.73-7.37-2.74-28.43-14.14-19.08-4.64,3.8-6.42,11.07-8.23,16.77-3,9.42-5.7,19-6.78,28.94-1.53,14.1.18,30.93,9.32,41.77,7.43,8.82,20.36,12.13,29.35,4.15,10.48-9.3,10-26.71,9.82-40.13-.35-20.91-.77-41.83-2.05-62.69s-4.36-41.83-5.25-62.84c-1-23.32,2.3-46.43,2.83-69.7.57-25.32-2.2-50.5-5-75.57-.48-4.26-6.56-4.31-6.08,0Z"/><path class="a907d699-b540-445a-8b9a-2c157a6e20f6" d="M691.75,19c-1.32,17.24-2.63,34.49-2.85,51.79-.22,17.05,1.65,34.38-2.75,51-1.11,4.17,4.76,6,5.86,1.79,4.27-16.1,2.87-32.65,2.94-49.2.07-18.5,1.47-36.95,2.88-55.37.33-4.33-5.76-4.3-6.08,0Z"/><path class="a907d699-b540-445a-8b9a-2c157a6e20f6" d="M584.49,613.86q-.06,24.18,2,48.22c.37,4.28,6.45,4.33,6.08,0q-2.1-24.06-2-48.22a3,3,0,1,0-6.08,0Z"/><path class="a907d699-b540-445a-8b9a-2c157a6e20f6" d="M693.88,321.54c-12.57,72.07-3.41,145.37-3.15,218.06a3,3,0,1,0,6.08,0c-.26-72-9.53-144.86,2.93-216.26.74-4.25-5.11-6.06-5.86-1.8Z"/><path class="a907d699-b540-445a-8b9a-2c157a6e20f6" d="M624.83,6.68a57.79,57.79,0,0,1-.23,21.62c-.85,4.24,5,6,5.86,1.8a67.22,67.22,0,0,0,.24-25.21c-.76-4.26-6.62-2.46-5.87,1.79Z"/><rect class="a14d9fb3-11c7-462c-8ee5-1679299e62be" x="243.92" y="328.14" width="784.22" height="127.93" transform="translate(1028.14 -243.92) rotate(90)"/><path class="a907d699-b540-445a-8b9a-2c157a6e20f6" d="M631.4,724.48c-.47-4.26-6.55-4.31-6.08,0,2.2,19.82,2.18,39.79,1.49,59.74h6.08C633.58,764.27,633.6,744.3,631.4,724.48Z"/><path class="a907d699-b540-445a-8b9a-2c157a6e20f6" d="M588.68,710.3c-.37-4.28-6.45-4.33-6.08,0q2.53,29,5.06,58.09c.46,5.24.82,10.53,1.25,15.83h6c-.53-6.52-.95-13-1.51-19.46Z"/><path class="a907d699-b540-445a-8b9a-2c157a6e20f6" d="M676,698.08a350.28,350.28,0,0,0-1.82-44.77c-.44-4.27-6.53-4.32-6.08,0a349.75,349.75,0,0,1,1.78,46.57c-.46,14.6-2.49,29.15-2.13,43.77a353,353,0,0,0,3.76,40.57h6c-2.13-14.73-3.77-29.5-3.77-44.09C673.74,726.09,675.61,712.12,676,698.08Z"/></g><rect class="afa6c9b1-b5f3-4d5e-bb89-e1398dedd4b9" x="91.86" y="328.14" width="784.22" height="127.93" transform="translate(876.08 -91.86) rotate(90)"/><rect class="e578d535-1616-4fb4-be30-5569f1d32157" x="103.92" y="328.14" width="784.22" height="127.93" transform="translate(888.14 -103.92) rotate(90)"/><g class="aad7fee6-5b96-4f18-97b6-e2dcc59fae34"><path class="a907d699-b540-445a-8b9a-2c157a6e20f6" d="M438.58,151c13.65,69.89,8.73,142.74,6.46,213.63Q443.3,419,441.27,473.3q-.94,26.29-1.9,52.58c-.6,16.54.25,34.64-7.35,49.48-1.94,3.78,3.31,7.19,5.25,3.41,6.39-12.48,7.19-26.59,7.74-40.64.72-18.67,1.35-37.34,2-56q2.06-56.92,4-113.86c2.35-72.7,7.44-147.36-6.55-219-.83-4.25-6.7-2.45-5.87,1.79Z"/><path class="a907d699-b540-445a-8b9a-2c157a6e20f6" d="M479.69,84.84c-3.29,67.46-8.47,135.19-9.28,202.74-.19,16.45-.12,33.24,1.83,49.57.83,7,3,17.38,9.63,20.36,9.13,4.08,13.19-9.06,15.94-15.94,5.6-14,11.29-28.08,16.35-42.36,5.78-16.35,8.39-32.07,6.68-49.58-1.74-17.89-4-35.73-6.07-53.57-.31-2.75-3.16-4.66-5.19-2.39-26,29-24.59,73.83-23.13,111.66.06,1.73,1.34,3.51,3,3.38,22.65-1.69,9.39-41.07,19.39-53.41,2.61-3.23-1.68-8-4.3-4.78-5.1,6.3-6.12,14-6.3,22.22-.16,7.59,1.66,28.44-8.79,29.22l3,3.37c-1.38-35.9-3.36-79.25,21.35-106.89l-5.19-2.38c1.91,16.78,3.94,33.56,5.73,50.36a111.47,111.47,0,0,1-6.13,51c-3.31,9.39-7,18.63-10.64,27.88q-1.89,4.83-3.81,9.66c-1.22,3.07-2.63,9.88-4.9,12.1-10.34,10.1-11-13.76-11.37-18.71-.65-8.84-1-17.7-1.08-26.56-.44-35.88,2.2-71.83,3.95-107.64l5.33-109.3c.21-4.34-5.87-4.32-6.08,0Z"/><path class="a907d699-b540-445a-8b9a-2c157a6e20f6" d="M474.8,379.69c5.3,36.42-1.37,73.07.23,109.64,1.41,32.29,9,65.91-1.81,97.21-1.4,4.06,4.48,5.82,5.86,1.8,11-31.92,3.47-66.07,2-99-1.63-37.23,4.95-74.36-.45-111.43-.62-4.28-6.48-2.46-5.86,1.79Z"/><path class="a907d699-b540-445a-8b9a-2c157a6e20f6" d="M455.52,49.72A435.74,435.74,0,0,0,453,97.92a3,3,0,1,0,6.08,0,435.74,435.74,0,0,1,2.48-48.2c.46-4.31-5.63-4.27-6.08,0Z"/><path class="a907d699-b540-445a-8b9a-2c157a6e20f6" d="M520.28,38q-7.69,73.57-10,147.65c-.13,4.35,6,4.34,6.08,0q2.32-74,10-147.65c.45-4.31-5.63-4.28-6.08,0Z"/><path class="a907d699-b540-445a-8b9a-2c157a6e20f6" d="M543,136.09q-3.56,111.07-15,221.57c-1.86,17.77-4.2,35.57-4.48,53.48-.27,16.95,2.12,33.5,4.71,50.14,5.38,34.43,3.16,69.47,8.9,103.77,6.52,38.87,20.65,77.84,13.28,117.85-.78,4.24,5.08,6.06,5.86,1.79,5.95-32.28-1.35-64-8.11-95.36-3.94-18.26-7.36-36.51-8.35-55.3-1-17.82-.68-35.68-2.72-53.41-2-17.49-5.78-34.72-7-52.33s.3-35.51,2.16-53.14c3.91-36.92,7.46-73.87,10.18-110.93q4.7-64,6.71-128.13c.14-4.34-5.94-4.34-6.08,0Z"/><path class="a907d699-b540-445a-8b9a-2c157a6e20f6" d="M500.67,393c3.66,32.91,6.1,65.16,3.8,98.3-1.09,15.64-2.31,31.27-1.64,47s2.8,31.48,4.13,47.22,2,31.27,2.48,46.93c.44,15.11,1.69,30.74.52,45.81-.59,7.6-2.14,16.89-8.42,21.32-6.63,4.66-15.23,1.38-20.2-4.54-9.87-11.76-9.11-31.18-6.07-45.65a170.75,170.75,0,0,1,6.56-23c.47-1.3,1.32-5,2.36-5.7l5.44.61q.47,3.35.81,6.69c.44,4,.8,8.06,1.13,12.1a503.66,503.66,0,0,1,1.31,55.63l5.18-2.39c-7.81-7.5-10.73-18.8-8.9-30,.7-4.25-5.16-6.07-5.86-1.8-2.21,13.46.94,27.39,10.47,36.53,2,1.91,5.09.66,5.19-2.38a501.5,501.5,0,0,0-2.09-64.28c-.73-7.37-2.74-28.43-14.14-19.08-4.64,3.8-6.42,11.07-8.23,16.77-3,9.42-5.7,19-6.78,28.94-1.53,14.1.18,30.93,9.32,41.77,7.43,8.82,20.36,12.13,29.35,4.15,10.48-9.3,10-26.71,9.82-40.13-.35-20.91-.77-41.83-2.05-62.69s-4.36-41.83-5.25-62.84c-1-23.32,2.3-46.43,2.83-69.7.57-25.32-2.2-50.5-5-75.57-.48-4.26-6.56-4.31-6.08,0Z"/><path class="a907d699-b540-445a-8b9a-2c157a6e20f6" d="M551.75,19c-1.32,17.24-2.63,34.49-2.85,51.79-.22,17.05,1.65,34.38-2.75,51-1.11,4.17,4.76,6,5.86,1.79,4.27-16.1,2.87-32.65,2.94-49.2.07-18.5,1.47-36.95,2.88-55.37.33-4.33-5.76-4.3-6.08,0Z"/><path class="a907d699-b540-445a-8b9a-2c157a6e20f6" d="M444.49,613.86q-.06,24.18,2,48.22c.37,4.28,6.45,4.33,6.08,0q-2.1-24.06-2-48.22a3,3,0,1,0-6.08,0Z"/><path class="a907d699-b540-445a-8b9a-2c157a6e20f6" d="M553.88,321.54c-12.57,72.07-3.41,145.37-3.15,218.06a3,3,0,1,0,6.08,0c-.26-72-9.53-144.86,2.93-216.26.74-4.25-5.11-6.06-5.86-1.8Z"/><path class="a907d699-b540-445a-8b9a-2c157a6e20f6" d="M484.83,6.68a57.79,57.79,0,0,1-.23,21.62c-.85,4.24,5,6,5.86,1.8a67.22,67.22,0,0,0,.24-25.21c-.76-4.26-6.62-2.46-5.87,1.79Z"/><rect class="a14d9fb3-11c7-462c-8ee5-1679299e62be" x="103.92" y="328.14" width="784.22" height="127.93" transform="translate(888.14 -103.92) rotate(90)"/><path class="a907d699-b540-445a-8b9a-2c157a6e20f6" d="M491.4,724.48c-.47-4.26-6.55-4.31-6.08,0,2.2,19.82,2.18,39.79,1.49,59.74h6.08C493.58,764.27,493.6,744.3,491.4,724.48Z"/><path class="a907d699-b540-445a-8b9a-2c157a6e20f6" d="M448.68,710.3c-.37-4.28-6.45-4.33-6.08,0q2.53,29,5.06,58.09c.46,5.24.82,10.53,1.25,15.83h6c-.53-6.52-.95-13-1.51-19.46Z"/><path class="a907d699-b540-445a-8b9a-2c157a6e20f6" d="M536,698.08a350.28,350.28,0,0,0-1.82-44.77c-.44-4.27-6.53-4.32-6.08,0a349.75,349.75,0,0,1,1.78,46.57c-.46,14.6-2.49,29.15-2.13,43.77a353,353,0,0,0,3.76,40.57h6c-2.13-14.73-3.77-29.5-3.77-44.09C533.74,726.09,535.61,712.12,536,698.08Z"/></g><rect class="afa6c9b1-b5f3-4d5e-bb89-e1398dedd4b9" x="-48.14" y="328.14" width="784.22" height="127.93" transform="translate(736.08 48.14) rotate(90)"/><rect class="e578d535-1616-4fb4-be30-5569f1d32157" x="-36.08" y="328.14" width="784.22" height="127.93" transform="translate(748.14 36.08) rotate(90)"/><g class="aad7fee6-5b96-4f18-97b6-e2dcc59fae34"><path class="a907d699-b540-445a-8b9a-2c157a6e20f6" d="M298.58,151c13.65,69.89,8.73,142.74,6.46,213.63Q303.3,419,301.27,473.3q-.94,26.29-1.9,52.58c-.6,16.54.25,34.64-7.35,49.48-1.94,3.78,3.31,7.19,5.25,3.41,6.39-12.48,7.19-26.59,7.74-40.64.72-18.67,1.35-37.34,2-56q2.06-56.92,4-113.86c2.35-72.7,7.44-147.36-6.55-219-.83-4.25-6.7-2.45-5.87,1.79Z"/><path class="a907d699-b540-445a-8b9a-2c157a6e20f6" d="M339.69,84.84c-3.29,67.46-8.47,135.19-9.28,202.74-.19,16.45-.12,33.24,1.83,49.57.83,7,3,17.38,9.63,20.36,9.13,4.08,13.19-9.06,15.94-15.94,5.6-14,11.29-28.08,16.35-42.36,5.78-16.35,8.39-32.07,6.68-49.58-1.74-17.89-4-35.73-6.07-53.57-.31-2.75-3.16-4.66-5.19-2.39-26,29-24.59,73.83-23.13,111.66.06,1.73,1.34,3.51,3,3.38,22.65-1.69,9.39-41.07,19.39-53.41,2.61-3.23-1.68-8-4.3-4.78-5.1,6.3-6.12,14-6.3,22.22-.16,7.59,1.66,28.44-8.79,29.22l3,3.37c-1.38-35.9-3.36-79.25,21.35-106.89l-5.19-2.38c1.91,16.78,3.94,33.56,5.73,50.36a111.47,111.47,0,0,1-6.13,51c-3.31,9.39-7,18.63-10.64,27.88q-1.89,4.83-3.81,9.66c-1.22,3.07-2.63,9.88-4.9,12.1-10.34,10.1-11-13.76-11.37-18.71-.65-8.84-1-17.7-1.08-26.56-.44-35.88,2.2-71.83,3.95-107.64l5.33-109.3c.21-4.34-5.87-4.32-6.08,0Z"/><path class="a907d699-b540-445a-8b9a-2c157a6e20f6" d="M334.8,379.69c5.3,36.42-1.37,73.07.23,109.64,1.41,32.29,9,65.91-1.81,97.21-1.4,4.06,4.48,5.82,5.86,1.8,11-31.92,3.47-66.07,2-99-1.63-37.23,4.95-74.36-.45-111.43-.62-4.28-6.48-2.46-5.86,1.79Z"/><path class="a907d699-b540-445a-8b9a-2c157a6e20f6" d="M315.52,49.72A435.74,435.74,0,0,0,313,97.92a3,3,0,1,0,6.08,0,435.74,435.74,0,0,1,2.48-48.2c.46-4.31-5.63-4.27-6.08,0Z"/><path class="a907d699-b540-445a-8b9a-2c157a6e20f6" d="M380.28,38q-7.69,73.57-10,147.65c-.13,4.35,5.95,4.34,6.08,0q2.32-74,10-147.65c.45-4.31-5.63-4.28-6.08,0Z"/><path class="a907d699-b540-445a-8b9a-2c157a6e20f6" d="M403,136.09q-3.56,111.07-15,221.57c-1.86,17.77-4.2,35.57-4.48,53.48-.27,16.95,2.12,33.5,4.71,50.14,5.38,34.43,3.16,69.47,8.9,103.77,6.52,38.87,20.65,77.84,13.28,117.85-.78,4.24,5.08,6.06,5.86,1.79,6-32.28-1.35-64-8.11-95.36-3.94-18.26-7.36-36.51-8.35-55.3-.95-17.82-.68-35.68-2.72-53.41-2-17.49-5.78-34.72-7-52.33s.3-35.51,2.16-53.14c3.91-36.92,7.46-73.87,10.18-110.93q4.69-64,6.71-128.13c.14-4.34-5.94-4.34-6.08,0Z"/><path class="a907d699-b540-445a-8b9a-2c157a6e20f6" d="M360.67,393c3.66,32.91,6.1,65.16,3.8,98.3-1.09,15.64-2.31,31.27-1.64,47s2.8,31.48,4.13,47.22,2,31.27,2.48,46.93c.44,15.11,1.69,30.74.52,45.81-.59,7.6-2.14,16.89-8.42,21.32-6.63,4.66-15.23,1.38-20.2-4.54-9.87-11.76-9.11-31.18-6.07-45.65a170.75,170.75,0,0,1,6.56-23c.47-1.3,1.32-5,2.36-5.7l5.44.61q.47,3.35.81,6.69c.44,4,.8,8.06,1.13,12.1a503.66,503.66,0,0,1,1.31,55.63l5.18-2.39c-7.81-7.5-10.73-18.8-8.9-30,.7-4.25-5.16-6.07-5.86-1.8-2.21,13.46.94,27.39,10.47,36.53,2,1.91,5.09.66,5.19-2.38a501.5,501.5,0,0,0-2.09-64.28c-.73-7.37-2.74-28.43-14.14-19.08-4.64,3.8-6.42,11.07-8.23,16.77-3,9.42-5.7,19-6.78,28.94-1.53,14.1.18,30.93,9.32,41.77,7.43,8.82,20.36,12.13,29.35,4.15,10.48-9.3,10-26.71,9.82-40.13-.35-20.91-.77-41.83-2-62.69s-4.36-41.83-5.25-62.84c-1-23.32,2.3-46.43,2.83-69.7.57-25.32-2.2-50.5-5-75.57-.48-4.26-6.56-4.31-6.08,0Z"/><path class="a907d699-b540-445a-8b9a-2c157a6e20f6" d="M411.75,19c-1.32,17.24-2.63,34.49-2.85,51.79-.22,17.05,1.65,34.38-2.75,51-1.11,4.17,4.76,6,5.86,1.79,4.27-16.1,2.87-32.65,2.94-49.2.07-18.5,1.47-36.95,2.88-55.37.33-4.33-5.76-4.3-6.08,0Z"/><path class="a907d699-b540-445a-8b9a-2c157a6e20f6" d="M304.49,613.86q-.06,24.18,2,48.22c.37,4.28,6.45,4.33,6.08,0q-2.1-24.06-2-48.22a3,3,0,1,0-6.08,0Z"/><path class="a907d699-b540-445a-8b9a-2c157a6e20f6" d="M413.88,321.54c-12.57,72.07-3.41,145.37-3.15,218.06a3,3,0,1,0,6.08,0c-.26-72-9.53-144.86,2.93-216.26.74-4.25-5.11-6.06-5.86-1.8Z"/><path class="a907d699-b540-445a-8b9a-2c157a6e20f6" d="M344.83,6.68a57.79,57.79,0,0,1-.23,21.62c-.85,4.24,5,6,5.86,1.8a67.22,67.22,0,0,0,.24-25.21c-.76-4.26-6.62-2.46-5.87,1.79Z"/><rect class="a14d9fb3-11c7-462c-8ee5-1679299e62be" x="-36.08" y="328.14" width="784.22" height="127.93" transform="translate(748.14 36.08) rotate(90)"/><path class="a907d699-b540-445a-8b9a-2c157a6e20f6" d="M351.4,724.48c-.47-4.26-6.55-4.31-6.08,0,2.2,19.82,2.18,39.79,1.49,59.74h6.08C353.58,764.27,353.6,744.3,351.4,724.48Z"/><path class="a907d699-b540-445a-8b9a-2c157a6e20f6" d="M308.68,710.3c-.37-4.28-6.45-4.33-6.08,0q2.53,29,5.06,58.09c.46,5.24.82,10.53,1.25,15.83h6c-.53-6.52-.95-13-1.51-19.46Z"/><path class="a907d699-b540-445a-8b9a-2c157a6e20f6" d="M396,698.08a350.28,350.28,0,0,0-1.82-44.77c-.44-4.27-6.53-4.32-6.08,0a349.75,349.75,0,0,1,1.78,46.57c-.46,14.6-2.49,29.15-2.13,43.77a353,353,0,0,0,3.76,40.57h6c-2.13-14.73-3.77-29.5-3.77-44.09C393.74,726.09,395.61,712.12,396,698.08Z"/></g><rect class="afa6c9b1-b5f3-4d5e-bb89-e1398dedd4b9" x="-188.14" y="328.14" width="784.22" height="127.93" transform="translate(596.08 188.14) rotate(90)"/><rect class="e578d535-1616-4fb4-be30-5569f1d32157" x="-176.08" y="328.14" width="784.22" height="127.93" transform="translate(608.14 176.08) rotate(90)"/><g class="aad7fee6-5b96-4f18-97b6-e2dcc59fae34"><path class="a907d699-b540-445a-8b9a-2c157a6e20f6" d="M158.58,151c13.65,69.89,8.73,142.74,6.46,213.63Q163.3,419,161.27,473.3q-.95,26.29-1.9,52.58c-.6,16.54.25,34.64-7.35,49.48-1.94,3.78,3.31,7.19,5.25,3.41,6.39-12.48,7.19-26.59,7.74-40.64.72-18.67,1.35-37.34,2-56q2.06-56.92,4-113.86c2.35-72.7,7.44-147.36-6.55-219-.83-4.25-6.7-2.45-5.87,1.79Z"/><path class="a907d699-b540-445a-8b9a-2c157a6e20f6" d="M199.69,84.84c-3.29,67.46-8.47,135.19-9.28,202.74-.19,16.45-.12,33.24,1.83,49.57.83,7,3,17.38,9.63,20.36,9.13,4.08,13.19-9.06,15.94-15.94,5.6-14,11.29-28.08,16.35-42.36,5.78-16.35,8.39-32.07,6.68-49.58-1.74-17.89-4-35.73-6.07-53.57-.31-2.75-3.16-4.66-5.19-2.39-26,29-24.59,73.83-23.13,111.66.06,1.73,1.34,3.51,3,3.38,22.65-1.69,9.39-41.07,19.39-53.41,2.61-3.23-1.68-8-4.3-4.78-5.1,6.3-6.12,14-6.3,22.22-.16,7.59,1.66,28.44-8.79,29.22l3,3.37c-1.38-35.9-3.36-79.25,21.35-106.89l-5.19-2.38c1.91,16.78,3.94,33.56,5.73,50.36a111.47,111.47,0,0,1-6.13,51c-3.31,9.39-7,18.63-10.64,27.88q-1.89,4.83-3.81,9.66c-1.22,3.07-2.63,9.88-4.9,12.1-10.34,10.1-11-13.76-11.37-18.71-.65-8.84-1-17.7-1.08-26.56-.44-35.88,2.2-71.83,3.95-107.64l5.33-109.3c.21-4.34-5.87-4.32-6.08,0Z"/><path class="a907d699-b540-445a-8b9a-2c157a6e20f6" d="M194.8,379.69c5.3,36.42-1.37,73.07.23,109.64,1.41,32.29,9,65.91-1.81,97.21-1.4,4.06,4.48,5.82,5.86,1.8,11-31.92,3.47-66.07,2-99-1.63-37.23,4.95-74.36-.45-111.43-.62-4.28-6.48-2.46-5.86,1.79Z"/><path class="a907d699-b540-445a-8b9a-2c157a6e20f6" d="M175.52,49.72A435.74,435.74,0,0,0,173,97.92a3,3,0,1,0,6.08,0,435.74,435.74,0,0,1,2.48-48.2c.46-4.31-5.63-4.27-6.08,0Z"/><path class="a907d699-b540-445a-8b9a-2c157a6e20f6" d="M240.28,38q-7.69,73.57-10,147.65c-.13,4.35,6,4.34,6.08,0q2.32-74,10-147.65c.45-4.31-5.63-4.28-6.08,0Z"/><path class="a907d699-b540-445a-8b9a-2c157a6e20f6" d="M263,136.09q-3.56,111.07-15,221.57c-1.86,17.77-4.2,35.57-4.48,53.48-.27,16.95,2.12,33.5,4.71,50.14,5.38,34.43,3.16,69.47,8.9,103.77,6.52,38.87,20.65,77.84,13.28,117.85-.78,4.24,5.08,6.06,5.86,1.79,6-32.28-1.35-64-8.11-95.36-3.94-18.26-7.36-36.51-8.35-55.3-.95-17.82-.68-35.68-2.72-53.41-2-17.49-5.78-34.72-7-52.33s.3-35.51,2.16-53.14c3.91-36.92,7.46-73.87,10.18-110.93q4.69-64,6.71-128.13c.14-4.34-5.94-4.34-6.08,0Z"/><path class="a907d699-b540-445a-8b9a-2c157a6e20f6" d="M220.67,393c3.66,32.91,6.1,65.16,3.8,98.3-1.09,15.64-2.31,31.27-1.64,47s2.8,31.48,4.13,47.22,2,31.27,2.48,46.93c.44,15.11,1.69,30.74.52,45.81-.59,7.6-2.14,16.89-8.42,21.32-6.63,4.66-15.23,1.38-20.2-4.54-9.87-11.76-9.11-31.18-6.07-45.65a170.75,170.75,0,0,1,6.56-23c.47-1.3,1.32-5,2.36-5.7l5.44.61q.47,3.35.81,6.69c.44,4,.8,8.06,1.13,12.1a503.66,503.66,0,0,1,1.31,55.63l5.18-2.39c-7.81-7.5-10.73-18.8-8.9-30,.7-4.25-5.16-6.07-5.86-1.8-2.21,13.46.94,27.39,10.47,36.53,2,1.91,5.09.66,5.19-2.38a501.5,501.5,0,0,0-2.09-64.28c-.73-7.37-2.74-28.43-14.14-19.08-4.64,3.8-6.42,11.07-8.23,16.77-3,9.42-5.7,19-6.78,28.94-1.53,14.1.18,30.93,9.32,41.77,7.43,8.82,20.36,12.13,29.35,4.15,10.48-9.3,10-26.71,9.82-40.13-.35-20.91-.77-41.83-2.05-62.69s-4.36-41.83-5.25-62.84c-1-23.32,2.3-46.43,2.83-69.7.57-25.32-2.2-50.5-5-75.57-.48-4.26-6.56-4.31-6.08,0Z"/><path class="a907d699-b540-445a-8b9a-2c157a6e20f6" d="M271.75,19c-1.32,17.24-2.63,34.49-2.85,51.79-.22,17.05,1.65,34.38-2.75,51-1.11,4.17,4.76,6,5.86,1.79,4.27-16.1,2.87-32.65,2.94-49.2.07-18.5,1.47-36.95,2.88-55.37.33-4.33-5.76-4.3-6.08,0Z"/><path class="a907d699-b540-445a-8b9a-2c157a6e20f6" d="M164.49,613.86q-.06,24.18,2,48.22c.37,4.28,6.45,4.33,6.08,0q-2.1-24.06-2-48.22a3,3,0,1,0-6.08,0Z"/><path class="a907d699-b540-445a-8b9a-2c157a6e20f6" d="M273.88,321.54c-12.57,72.07-3.41,145.37-3.15,218.06a3,3,0,1,0,6.08,0c-.26-72-9.53-144.86,2.93-216.26.74-4.25-5.11-6.06-5.86-1.8Z"/><path class="a907d699-b540-445a-8b9a-2c157a6e20f6" d="M204.83,6.68a57.79,57.79,0,0,1-.23,21.62c-.85,4.24,5,6,5.86,1.8a67.22,67.22,0,0,0,.24-25.21c-.76-4.26-6.62-2.46-5.87,1.79Z"/><rect class="a14d9fb3-11c7-462c-8ee5-1679299e62be" x="-176.08" y="328.14" width="784.22" height="127.93" transform="translate(608.14 176.08) rotate(90)"/><path class="a907d699-b540-445a-8b9a-2c157a6e20f6" d="M211.4,724.48c-.47-4.26-6.55-4.31-6.08,0,2.2,19.82,2.18,39.79,1.49,59.74h6.08C213.58,764.27,213.6,744.3,211.4,724.48Z"/><path class="a907d699-b540-445a-8b9a-2c157a6e20f6" d="M168.68,710.3c-.37-4.28-6.45-4.33-6.08,0q2.53,29,5.06,58.09c.46,5.24.82,10.53,1.25,15.83h6c-.53-6.52-1-13-1.51-19.46Z"/><path class="a907d699-b540-445a-8b9a-2c157a6e20f6" d="M256,698.08a350.28,350.28,0,0,0-1.82-44.77c-.44-4.27-6.53-4.32-6.08,0a349.75,349.75,0,0,1,1.78,46.57c-.46,14.6-2.49,29.15-2.13,43.77a353,353,0,0,0,3.76,40.57h6c-2.13-14.73-3.77-29.5-3.77-44.09C253.74,726.09,255.61,712.12,256,698.08Z"/></g><rect class="afa6c9b1-b5f3-4d5e-bb89-e1398dedd4b9" x="-328.14" y="328.14" width="784.22" height="127.93" transform="translate(456.08 328.14) rotate(90)"/><rect class="e578d535-1616-4fb4-be30-5569f1d32157" x="-316.08" y="328.14" width="784.22" height="127.93" transform="translate(468.14 316.08) rotate(90)"/><g class="aad7fee6-5b96-4f18-97b6-e2dcc59fae34"><path class="a907d699-b540-445a-8b9a-2c157a6e20f6" d="M18.58,151C32.23,220.89,27.31,293.74,25,364.63Q23.3,419,21.27,473.3q-.94,26.29-1.9,52.58c-.6,16.54.25,34.64-7.35,49.48-1.94,3.78,3.31,7.19,5.25,3.41,6.39-12.48,7.19-26.59,7.74-40.64.72-18.67,1.35-37.34,2-56q2.05-56.92,4-113.86c2.35-72.7,7.44-147.36-6.55-219-.83-4.25-6.7-2.45-5.87,1.79Z"/><path class="a907d699-b540-445a-8b9a-2c157a6e20f6" d="M59.69,84.84C56.4,152.3,51.22,220,50.41,287.58c-.19,16.45-.12,33.24,1.83,49.57.83,7,3,17.38,9.63,20.36,9.13,4.08,13.19-9.06,15.94-15.94,5.6-14,11.29-28.08,16.35-42.36,5.78-16.35,8.39-32.07,6.68-49.58-1.74-17.89-4-35.73-6.07-53.57-.31-2.75-3.16-4.66-5.19-2.39-26,29-24.59,73.83-23.13,111.66.06,1.73,1.34,3.51,3,3.38,22.65-1.69,9.39-41.07,19.39-53.41,2.61-3.23-1.68-8-4.3-4.78-5.1,6.3-6.12,14-6.3,22.22-.16,7.59,1.66,28.44-8.79,29.22l3,3.37c-1.38-35.9-3.36-79.25,21.35-106.89l-5.19-2.38c1.91,16.78,3.94,33.56,5.73,50.36a111.47,111.47,0,0,1-6.13,51c-3.31,9.39-7,18.63-10.64,27.88q-1.89,4.83-3.81,9.66c-1.22,3.07-2.63,9.88-4.9,12.1-10.34,10.1-11-13.76-11.37-18.71-.65-8.84-1-17.7-1.08-26.56-.44-35.88,2.2-71.83,3.95-107.64l5.33-109.3c.21-4.34-5.87-4.32-6.08,0Z"/><path class="a907d699-b540-445a-8b9a-2c157a6e20f6" d="M54.8,379.69c5.3,36.42-1.37,73.07.23,109.64,1.41,32.29,9,65.91-1.81,97.21-1.4,4.06,4.48,5.82,5.86,1.8,11-31.92,3.47-66.07,2-99-1.63-37.23,5-74.36-.45-111.43-.62-4.28-6.48-2.46-5.86,1.79Z"/><path class="a907d699-b540-445a-8b9a-2c157a6e20f6" d="M35.52,49.72A435.74,435.74,0,0,0,33,97.92a3,3,0,1,0,6.08,0,435.74,435.74,0,0,1,2.48-48.2c.46-4.31-5.63-4.27-6.08,0Z"/><path class="a907d699-b540-445a-8b9a-2c157a6e20f6" d="M100.28,38q-7.69,73.57-10,147.65c-.13,4.35,5.95,4.34,6.08,0q2.32-74,10-147.65c.45-4.31-5.63-4.28-6.08,0Z"/><path class="a907d699-b540-445a-8b9a-2c157a6e20f6" d="M123,136.09q-3.55,111.07-15,221.57c-1.86,17.77-4.2,35.57-4.48,53.48-.27,16.95,2.12,33.5,4.71,50.14,5.38,34.43,3.16,69.47,8.9,103.77,6.52,38.87,20.65,77.84,13.28,117.85-.78,4.24,5.08,6.06,5.86,1.79,5.95-32.28-1.35-64-8.11-95.36-3.94-18.26-7.36-36.51-8.35-55.3-1-17.82-.68-35.68-2.72-53.41-2-17.49-5.78-34.72-7-52.33s.3-35.51,2.16-53.14c3.91-36.92,7.46-73.87,10.18-110.93q4.69-64,6.71-128.13c.14-4.34-5.94-4.34-6.08,0Z"/><path class="a907d699-b540-445a-8b9a-2c157a6e20f6" d="M80.67,393c3.66,32.91,6.1,65.16,3.8,98.3-1.09,15.64-2.31,31.27-1.64,47s2.8,31.48,4.13,47.22,2,31.27,2.48,46.93c.44,15.11,1.69,30.74.52,45.81-.59,7.6-2.14,16.89-8.42,21.32-6.63,4.66-15.23,1.38-20.2-4.54-9.87-11.76-9.11-31.18-6.07-45.65a170.75,170.75,0,0,1,6.56-23c.47-1.3,1.32-5,2.36-5.7l5.44.61q.47,3.35.81,6.69c.44,4,.8,8.06,1.13,12.1a503.66,503.66,0,0,1,1.31,55.63l5.18-2.39c-7.81-7.5-10.73-18.8-8.9-30,.7-4.25-5.16-6.07-5.86-1.8C61.09,675,64.24,688.9,73.77,698c2,1.91,5.09.66,5.19-2.38a501.5,501.5,0,0,0-2.09-64.28C76.14,624,74.13,603,62.73,612.3c-4.64,3.8-6.42,11.07-8.23,16.77-3,9.42-5.7,19-6.78,28.94-1.53,14.1.18,30.93,9.32,41.77,7.43,8.82,20.36,12.13,29.35,4.15,10.48-9.3,10-26.71,9.82-40.13-.35-20.91-.77-41.83-2-62.69s-4.36-41.83-5.25-62.84c-1-23.32,2.3-46.43,2.83-69.7.57-25.32-2.2-50.5-5-75.57-.48-4.26-6.56-4.31-6.08,0Z"/><path class="a907d699-b540-445a-8b9a-2c157a6e20f6" d="M131.75,19c-1.32,17.24-2.63,34.49-2.85,51.79-.22,17.05,1.65,34.38-2.75,51-1.11,4.17,4.76,6,5.86,1.79,4.27-16.1,2.87-32.65,2.94-49.2.07-18.5,1.47-36.95,2.88-55.37.33-4.33-5.76-4.3-6.08,0Z"/><path class="a907d699-b540-445a-8b9a-2c157a6e20f6" d="M24.49,613.86q-.06,24.18,2,48.22c.37,4.28,6.45,4.33,6.08,0q-2.1-24.06-2-48.22a3,3,0,1,0-6.08,0Z"/><path class="a907d699-b540-445a-8b9a-2c157a6e20f6" d="M133.88,321.54c-12.57,72.07-3.41,145.37-3.15,218.06a3,3,0,1,0,6.08,0c-.26-72-9.53-144.86,2.93-216.26.74-4.25-5.11-6.06-5.86-1.8Z"/><path class="a907d699-b540-445a-8b9a-2c157a6e20f6" d="M64.83,6.68A57.79,57.79,0,0,1,64.6,28.3c-.85,4.24,5,6,5.86,1.8A67.22,67.22,0,0,0,70.7,4.89c-.76-4.26-6.62-2.46-5.87,1.79Z"/><rect class="a14d9fb3-11c7-462c-8ee5-1679299e62be" x="-316.08" y="328.14" width="784.22" height="127.93" transform="translate(468.14 316.08) rotate(90)"/><path class="a907d699-b540-445a-8b9a-2c157a6e20f6" d="M71.4,724.48c-.47-4.26-6.55-4.31-6.08,0,2.2,19.82,2.18,39.79,1.49,59.74h6.08C73.58,764.27,73.6,744.3,71.4,724.48Z"/><path class="a907d699-b540-445a-8b9a-2c157a6e20f6" d="M28.68,710.3c-.37-4.28-6.45-4.33-6.08,0q2.53,29,5.06,58.09c.46,5.24.82,10.53,1.25,15.83h6c-.53-6.52-1-13-1.51-19.46Z"/><path class="a907d699-b540-445a-8b9a-2c157a6e20f6" d="M116,698.08a350.28,350.28,0,0,0-1.82-44.77c-.44-4.27-6.53-4.32-6.08,0a349.75,349.75,0,0,1,1.78,46.57c-.46,14.6-2.49,29.15-2.13,43.77a353,353,0,0,0,3.76,40.57h6c-2.13-14.73-3.77-29.5-3.77-44.09C113.74,726.09,115.61,712.12,116,698.08Z"/></g><rect class="f99081d7-ad65-4bf2-a144-8a06eeb34196" x="24.59" y="171.71" width="318.54" height="366.66" rx="17.35"/><rect class="bc22f113-6d4e-48d4-aefc-da1e202defeb" x="47.63" y="198.23" width="272.46" height="313.62" rx="17.35"/><path class="a7742daf-ee52-4e95-9e7c-11ca5d0e8e1a" d="M245.55,662.93a117.89,117.89,0,0,1-3.69-12.77,43.76,43.76,0,0,0-42.62-33.93h-35.4a43.76,43.76,0,0,0-42.61,33.93,117.89,117.89,0,0,1-3.69,12.77L87.3,748.28a43.81,43.81,0,0,0,43.44,49.06H232.35a43.8,43.8,0,0,0,43.43-49.06Z"/><path class="a7742daf-ee52-4e95-9e7c-11ca5d0e8e1a" d="M182.38,672.82c85.45,0,156.9-55.46,174.62-129.6a29.19,29.19,0,0,0-28.44-35.88H36.2A29.18,29.18,0,0,0,7.77,543.22C25.48,617.36,96.93,672.82,182.38,672.82Z"/><path class="a8c7c7a7-901d-462c-8d03-434abc26807e" d="M182.38,590.08c63.48,0,116.55-20.6,129.71-48.14,3.25-6.8-7.16-13.33-21.12-13.33H73.79c-14,0-24.37,6.53-21.12,13.33C65.83,569.48,118.9,590.08,182.38,590.08Z"/><path class="f99081d7-ad65-4bf2-a144-8a06eeb34196" d="M224.38,385.66c-27.36-.47-49.75,22.44-49.75,49.86v76.15l2.49,2.5h11.63l2.49-2.5V435.34c0-17.6,13.75-32.51,31.32-33a32.36,32.36,0,0,1,33.27,32.35v15.18a8.54,8.54,0,0,0,8,8.66,8.3,8.3,0,0,0,8.56-8.31V434.66A49,49,0,0,0,224.38,385.66Z"/><path class="b005834e-6af4-47cf-8a33-c43a6442933e" d="M275.46,459.29H252.63l-.53,1.48a2.2,2.2,0,0,0,2.07,3h19.75a2.2,2.2,0,0,0,2.07-3Z"/><path class="f99081d7-ad65-4bf2-a144-8a06eeb34196" d="M271.07,447.17a2.19,2.19,0,0,0-2.06-1.46h-9.93a2.21,2.21,0,0,0-2.07,1.46l-4.38,12.12h22.83Z"/><path class="bd9e3a59-9259-4490-a466-3bd8c34df138" d="M136,514.61H120.71a4.92,4.92,0,0,1-4.9-4.9v4.05a4.92,4.92,0,0,0,4.9,4.9H136a4.91,4.91,0,0,0,4.89-4.9v-4.05A4.91,4.91,0,0,1,136,514.61Z"/><path class="b31e1ace-d5b0-4df0-b85e-384d3f0d00c9" d="M115.81,509.71a4.92,4.92,0,0,0,4.9,4.9H136a4.91,4.91,0,0,0,4.89-4.9V497.43h-25.1Z"/><ellipse class="e5347efe-648d-4569-a601-8ec9656395cd" cx="128.39" cy="497.43" rx="12.71" ry="5.16"/><path class="e5347efe-648d-4569-a601-8ec9656395cd" d="M115.68,497.43s-.83-7.44,12.68-7.44,12.55,7.44,12.55,7.44Z"/><path class="bd9e3a59-9259-4490-a466-3bd8c34df138" d="M244,514.61H228.7a4.91,4.91,0,0,1-4.89-4.9v4.05a4.91,4.91,0,0,0,4.89,4.9H244a4.91,4.91,0,0,0,4.89-4.9v-4.05A4.91,4.91,0,0,1,244,514.61Z"/><path class="b31e1ace-d5b0-4df0-b85e-384d3f0d00c9" d="M223.81,509.71a4.91,4.91,0,0,0,4.89,4.9H244a4.91,4.91,0,0,0,4.89-4.9V497.43h-25.1Z"/><ellipse class="f53e04fb-298c-4f86-9974-b5c1e22903bb" cx="236.38" cy="497.43" rx="12.71" ry="5.16"/><path class="f53e04fb-298c-4f86-9974-b5c1e22903bb" d="M223.67,497.43s-.83-7.44,12.69-7.44,12.55,7.44,12.55,7.44Z"/><ellipse class="b005834e-6af4-47cf-8a33-c43a6442933e" cx="182.38" cy="584.06" rx="15.77" ry="2.43"/><path class="a8c7c7a7-901d-462c-8d03-434abc26807e" d="M117.54,662.93s52.21,22.29,128,0c0,0-6.71,27.64-64,27.64S117.54,662.93,117.54,662.93Z"/><path class="b45b7b38-1e36-429a-9e39-c789d5d5090a" d="M148.32,230.54a343.6,343.6,0,0,1-61.78,48.23c-4.53,2.77-.38,9.94,4.17,7.15a351.93,351.93,0,0,0,63.45-49.53c3.8-3.74-2-9.59-5.84-5.85Z"/><path class="b45b7b38-1e36-429a-9e39-c789d5d5090a" d="M230.51,235.59q-76.75,51.87-148.21,111c-4.1,3.39,1.77,9.22,5.85,5.85q70.56-58.41,146.54-109.72c4.38-3,.25-10.15-4.18-7.16Z"/><path class="b45b7b38-1e36-429a-9e39-c789d5d5090a" d="M275.73,287.41q-27,22.27-55.63,42.41c-4.32,3-.19,10.23,4.18,7.15q29.47-20.75,57.3-43.71c4.11-3.39-1.77-9.22-5.85-5.85Z"/><path class="b45b7b38-1e36-429a-9e39-c789d5d5090a" d="M147,444.52a124.2,124.2,0,0,1-17.11,12.63c-4.52,2.79-.38,10,4.17,7.15a136.54,136.54,0,0,0,18.79-13.93c4-3.52-1.87-9.36-5.85-5.85Z"/><path class="eadd7ea9-8618-4701-a0ea-ca4ba0e0fd5a" d="M311.18,188.7a14.48,14.48,0,0,1,13.1,12.86c.44,5.28,8.71,5.33,8.27,0a23,23,0,0,0-21.37-21.14c-5.31-.37-5.29,7.92,0,8.28Z"/><path class="eadd7ea9-8618-4701-a0ea-ca4ba0e0fd5a" d="M61,182.24c-14.51-6.94-31.7,3.78-29.75,20.45.62,5.23,8.89,5.29,8.27,0-1.15-9.78,7.81-17.84,17.3-13.3,4.78,2.29,9-4.85,4.18-7.15Z"/><path class="eadd7ea9-8618-4701-a0ea-ca4ba0e0fd5a" d="M327.12,362.21q-.53,10.77-.2,21.55c.16,5.32,8.42,5.34,8.27,0q-.31-10.78.19-21.55c.26-5.33-8-5.31-8.26,0Z"/><path class="eadd7ea9-8618-4701-a0ea-ca4ba0e0fd5a" d="M29.27,463.85a145.29,145.29,0,0,1,1.19,14.88c.17,5.32,8.44,5.34,8.27,0a165.78,165.78,0,0,0-1.49-17.09c-.31-2.23-3.13-3.4-5.09-2.89-2.39.63-3.18,2.89-2.88,5.1Z"/><path class="a895f8ac-cb35-4fb6-9983-b765825ca493" d="M291.87,221.86c4.71.4,8,5,7.82,9.49-.23,5.33,8,5.32,8.27,0,.41-9.3-7-17-16.09-17.77-5.3-.44-5.27,7.84,0,8.28Z"/><path class="a895f8ac-cb35-4fb6-9983-b765825ca493" d="M76.88,212.69C67.07,214.9,60.28,223.2,59.07,233c-.28,2.24,2.1,4.12,4.13,4.14,2.46,0,3.86-1.93,4.13-4.14.77-6.21,5.84-11,11.75-12.34,5.19-1.17,3-9.16-2.2-8Z"/><path class="a895f8ac-cb35-4fb6-9983-b765825ca493" d="M87.85,376.46a620.23,620.23,0,0,1,56.86-47.52c4.24-3.13.12-10.32-4.17-7.15A637.78,637.78,0,0,0,82,370.6c-3.89,3.66,2,9.5,5.84,5.86Z"/><path class="a895f8ac-cb35-4fb6-9983-b765825ca493" d="M266.27,326.11,282,312.59c4.05-3.47-1.82-9.31-5.85-5.86l-15.75,13.52c-4.05,3.47,1.82,9.31,5.84,5.86Z"/><path class="a895f8ac-cb35-4fb6-9983-b765825ca493" d="M117.24,486.52l25-21.35c4.05-3.47-1.82-9.3-5.84-5.86l-25,21.35c-4,3.46,1.82,9.3,5.85,5.86Z"/><path class="a895f8ac-cb35-4fb6-9983-b765825ca493" d="M57,478.15c-.36,7.64,0,16.14,6.58,21.27,4.14,3.24,10-2.58,5.85-5.86-4.82-3.78-4.43-9.84-4.17-15.41.25-5.33-8-5.32-8.26,0Z"/><path class="a895f8ac-cb35-4fb6-9983-b765825ca493" d="M300.82,478.18A15.57,15.57,0,0,1,295,489.87c-1.78,1.38-2.69,3.54-1.49,5.66,1,1.76,3.89,2.85,5.66,1.49a24.49,24.49,0,0,0,9.91-18.84c.21-5.33-8.06-5.32-8.27,0Z"/><path class="ae98f0b5-f54d-4cc3-a24c-23d4501e6624" d="M60.56,610.68C73.92,629.29,91,637.81,112.81,643c5.17,1.23,7.38-6.76,2.2-8-19.5-4.61-35.3-11.76-47.31-28.49-3.08-4.29-10.26-.16-7.14,4.18Z"/><path class="ae98f0b5-f54d-4cc3-a24c-23d4501e6624" d="M314.94,550.16c-6.38,12.74-18.37,20.51-30.24,27.63-12.76,7.67-26.27,13.77-41.32,14.51-5.29.27-5.32,8.55,0,8.29,16.51-.82,31.47-7.22,45.49-15.64,13-7.82,26.22-16.66,33.21-30.61,2.38-4.75-4.75-9-7.14-4.18Z"/><path class="ecbc04c6-9b36-4713-a007-39c180172176" d="M73.55,533.56c-10.89,2.41-4.77,13.88.09,19,7.63,8,17.88,12.8,27.82,17.29,4.81,2.17,9-5,4.17-7.16A139.38,139.38,0,0,1,89,554.26a52,52,0,0,1-7.35-5.43c-.6-.55-6.16-7.22-5.9-7.28,5.19-1.15,3-9.13-2.2-8Z"/><path class="ecbc04c6-9b36-4713-a007-39c180172176" d="M285.28,543.57a14,14,0,0,1,9.51,2.18c4.53,2.82,8.69-4.34,4.17-7.15a22.79,22.79,0,0,0-15.88-3c-2.21.34-3.43,3.12-2.89,5.1.65,2.36,2.87,3.23,5.09,2.89Z"/><path class="ae98f0b5-f54d-4cc3-a24c-23d4501e6624" d="M247.87,742.57c3.29,10.24,6.71,31-9.45,32.2-5.28.38-5.32,8.67,0,8.28a21.48,21.48,0,0,0,18.11-12.36c4.74-9.62,2.44-20.59-.69-30.32-1.62-5-9.61-2.89-8,2.2Z"/><path class="ae98f0b5-f54d-4cc3-a24c-23d4501e6624" d="M110.08,755.35a343.28,343.28,0,0,0,12.41-36.91c1.41-5.15-6.56-7.34-8-2.2a345.5,345.5,0,0,1-12.41,36.91c-2,4.94,6,7.09,8,2.2Z"/><path class="ae98f0b5-f54d-4cc3-a24c-23d4501e6624" d="M227.4,504.68a43.75,43.75,0,0,0,0,5.95c.1,1.32,2.17,1.33,2.07,0a42.19,42.19,0,0,1,0-5.95c.09-1.33-2-1.32-2.06,0Z"/><path class="ae98f0b5-f54d-4cc3-a24c-23d4501e6624" d="M232.85,506.48a11,11,0,0,0,.06,3.58c.24,1.31,2.23.76,2-.55a7.93,7.93,0,0,1-.06-2.48,1.06,1.06,0,0,0-.72-1.27,1,1,0,0,0-1.27.72Z"/><path class="ae98f0b5-f54d-4cc3-a24c-23d4501e6624" d="M238.82,506.2a19.3,19.3,0,0,1,.07,3c-.08,1.33,2,1.33,2.06,0a19.32,19.32,0,0,0-.06-3c-.14-1.31-2.21-1.33-2.07,0Z"/><path class="ae98f0b5-f54d-4cc3-a24c-23d4501e6624" d="M245.2,503.45l-.26,3.45c-.06.83.11,2.57-.36,3.27-.75,1.11,1,2.14,1.78,1,.61-.9.49-2.21.57-3.25l.34-4.51c.09-1.33-2-1.33-2.07,0Z"/><path class="ae98f0b5-f54d-4cc3-a24c-23d4501e6624" d="M119.51,505.65l.17,6.63a1,1,0,0,0,2.07,0l-.17-6.63a1,1,0,0,0-2.07,0Z"/><path class="ae98f0b5-f54d-4cc3-a24c-23d4501e6624" d="M124.55,506.76V511a1,1,0,0,0,2.06,0v-4.28a1,1,0,0,0-2.06,0Z"/><path class="ae98f0b5-f54d-4cc3-a24c-23d4501e6624" d="M129.69,506.75a24.05,24.05,0,0,1,.08,3.6c-.07,1.33,2,1.33,2.07,0a25.46,25.46,0,0,0-.08-3.6c-.12-1.31-2.19-1.32-2.07,0Z"/><path class="ae98f0b5-f54d-4cc3-a24c-23d4501e6624" d="M136.11,504.28l0,3.65c0,1.09.27,2.64-.42,3.56s1,2.1,1.79,1a5.47,5.47,0,0,0,.7-3.49l0-4.77a1,1,0,0,0-2.07,0Z"/><path class="e64fb1fe-e5c4-4c48-92b8-06ecf00a737e" d="M229.07,496.69c-.09-.33,2.21-1.36,2.51-1.47a7.86,7.86,0,0,1,3.12-.38c1.32.09,1.32-2,0-2.07a9.44,9.44,0,0,0-5,1c-1.26.65-3.08,1.79-2.59,3.43a1,1,0,0,0,2-.55Z"/><path class="e64fb1fe-e5c4-4c48-92b8-06ecf00a737e" d="M242.14,499.63l.83-.15c1.3-.22.75-2.22-.55-2l-.83.14c-1.31.23-.75,2.22.55,2Z"/><path class="e64fb1fe-e5c4-4c48-92b8-06ecf00a737e" d="M120.57,496.93a8.88,8.88,0,0,1,6.39-3.31c1.32-.08,1.33-2.15,0-2.07a10.86,10.86,0,0,0-7.85,3.92c-.84,1,.61,2.49,1.46,1.46Z"/><path class="e64fb1fe-e5c4-4c48-92b8-06ecf00a737e" d="M133.43,500.07a4.16,4.16,0,0,0,2.39-1c1-.86-.45-2.32-1.47-1.46a1.69,1.69,0,0,1-.92.39c-1.31.13-1.32,2.2,0,2.07Z"/><path class="b0b43630-468f-4f47-87be-d93eb90c306b" d="M177.31,500.55v6.07a1,1,0,0,0,2.07,0v-6.07a1,1,0,0,0-2.07,0Z"/><path class="b0b43630-468f-4f47-87be-d93eb90c306b" d="M234.62,394c15.69,4.82,26,18.09,26.81,34.54.07,1.33,2.13,1.34,2.06,0-.89-17.37-11.71-31.43-28.32-36.54-1.28-.39-1.82,1.61-.55,2Z"/><path class="b0b43630-468f-4f47-87be-d93eb90c306b" d="M257.14,457.84a14.33,14.33,0,0,1,3.87-.13c1.32.12,1.32-1.95,0-2.07a16.37,16.37,0,0,0-4.42.2c-1.31.23-.75,2.22.55,2Z"/></g></g></svg>