<svg xmlns="http://www.w3.org/2000/svg" viewBox="0 0 73.29 46.87"><defs><style>.ea59be50-edbc-44db-9f77-0ca60180ff35{fill:#519fbb;}.a535ac69-fc30-46d3-ab26-7ad8a59dc299{fill:#dae24a;}.b8b7ca07-1ee4-4e83-bfe0-58d1099e20be{fill:#da5e38;}.ad00bce9-b926-46a4-8582-ed949415e278{fill:#79994c;}</style></defs><title>細菌藍3</title><g id="ecbb4893-7333-4839-8555-68f84f74dec7" data-name="圖層 2"><g id="a8fa703a-b227-401a-9345-269248d091c8" data-name="圖層 1"><path class="ea59be50-edbc-44db-9f77-0ca60180ff35" d="M4.41,8A18.5,18.5,0,0,0,1.35,21.35a18.56,18.56,0,0,0,23.5,24.42A16,16,0,0,0,44.21,25.28,18.53,18.53,0,0,0,28,2,18.56,18.56,0,0,0,4.41,8Z"/><path class="a535ac69-fc30-46d3-ab26-7ad8a59dc299" d="M19.14,14.41l.27-.27a4.13,4.13,0,1,0-5.84-5.85l-.28.28a4.13,4.13,0,0,0,5.85,5.84Z"/><path class="a535ac69-fc30-46d3-ab26-7ad8a59dc299" d="M29.83,21.58l.27.27A4.13,4.13,0,1,0,36,16l-.28-.28a4.13,4.13,0,0,0-5.84,5.85Z"/><path class="a535ac69-fc30-46d3-ab26-7ad8a59dc299" d="M13.73,29.4v.28a4.14,4.14,0,0,0,8.27,0V29.4a4.14,4.14,0,0,0-8.27,0Z"/><path class="b8b7ca07-1ee4-4e83-bfe0-58d1099e20be" d="M4.06,20a17,17,0,0,0,.5,7.44c.78,2.53,4.77,1.45,4-1.1a12.09,12.09,0,0,1-.5-5.24A2.13,2.13,0,0,0,6.6,18.6,2.08,2.08,0,0,0,4.06,20Z"/><path class="b8b7ca07-1ee4-4e83-bfe0-58d1099e20be" d="M28.62,40.76a6.48,6.48,0,0,0,7.21-4.2A2.08,2.08,0,0,0,34.38,34a2.11,2.11,0,0,0-2.54,1.44,2.35,2.35,0,0,1-2.12,1.31,2.13,2.13,0,0,0-2.54,1.45,2.08,2.08,0,0,0,1.44,2.54Z"/><path class="ad00bce9-b926-46a4-8582-ed949415e278" d="M70.21,35.74a6.69,6.69,0,0,0-2.5,8.71c1.16,2.4,4.72.3,3.57-2.08a2.46,2.46,0,0,1,1-3.06c2.28-1.37.2-4.94-2.09-3.57Z"/></g></g></svg>