<svg xmlns="http://www.w3.org/2000/svg" viewBox="0 0 41.95 58.88"><defs><style>.bda84574-6fe8-47ea-b890-32790e71f3bf{fill:#519fbb;}.afa34c61-1061-4abc-ba46-80b48826aadb{fill:#d5e04b;}.a6946ba8-b7a9-44df-a41c-e7ce4eacf6e9{fill:#79994c;}</style></defs><title>細菌藍1</title><g id="adb760b0-f08e-47d0-ae62-3eaf53efc27c" data-name="圖層 2"><g id="b0ae1aa4-1ede-4b22-bf78-6e46bbfeebb9" data-name="圖層 1"><path class="bda84574-6fe8-47ea-b890-32790e71f3bf" d="M35.86,31.16a8.63,8.63,0,0,0-14.78,4.28A6.66,6.66,0,1,0,14.47,47,8.64,8.64,0,1,0,30.65,53a6.67,6.67,0,1,0,6.18-11.27A8.64,8.64,0,0,0,35.86,31.16Z"/><path class="afa34c61-1061-4abc-ba46-80b48826aadb" d="M19.93,46.69V47a4.14,4.14,0,0,0,8.27,0v-.28a4.14,4.14,0,0,0-8.27,0Z"/><path class="afa34c61-1061-4abc-ba46-80b48826aadb" d="M31.78,38.7c5.32,0,5.33-8.27,0-8.27s-5.33,8.27,0,8.27Z"/><path class="a6946ba8-b7a9-44df-a41c-e7ce4eacf6e9" d="M2.84,6l1,.43L4,8.06c.51-3.29,5.89-4.33,8.48-3.77S16.2.87,13.6.3A12.47,12.47,0,0,0,3,2.75C1.72,3.78.26,5.27,0,7a2.75,2.75,0,0,0,2.81,3.2C5.5,10.15,5.5,6,2.84,6Z"/></g></g></svg>