<svg xmlns="http://www.w3.org/2000/svg" xmlns:xlink="http://www.w3.org/1999/xlink" viewBox="0 0 178.08 160.27"><defs><style>.adcaeded-a81e-46e6-a5c9-e48c636a4390{fill:none;}.b480828a-3220-4aa1-a148-792c6edd01e3{fill:#fff;}.bef789bd-38ea-44a2-8517-deb7fc21f25f{fill:#b5b5b6;}.bca554ce-0268-4e24-835d-3ff302490c04{fill:#fdcd00;}.e9094b12-8ada-4f2b-ad40-b9c9e7342a62{clip-path:url(#b1ca4931-1a23-4b4e-a237-c003292adaa6);}.b7c81b10-6fde-475f-9372-9507ac416514{fill:#f7ae18;}</style><clipPath id="b1ca4931-1a23-4b4e-a237-c003292adaa6"><path class="adcaeded-a81e-46e6-a5c9-e48c636a4390" d="M92.39,92.15h0c-15.76,12.79-38.13,11.58-49.71-2.69l-18-22.23C13.06,53,16.48,30.82,32.24,18h0C48,5.23,62.18,13.09,73.76,27.36l18,22.23C103.38,63.86,108.15,79.36,92.39,92.15Z"/></clipPath></defs><title>牙刷黃</title><g id="a3e47dce-cd06-4ab4-aebe-2f15f9ae1811" data-name="圖層 2"><g id="e8fbfbb9-fad5-4a24-a49b-822fdaa79629" data-name="圖層 1"><path class="b480828a-3220-4aa1-a148-792c6edd01e3" d="M92.39,92.15h0c-15.76,12.79-38.13,11.58-49.71-2.69l-18-22.23C13.06,53,16.48,30.82,32.24,18h0C48,5.23,62.18,13.09,73.76,27.36l18,22.23C103.38,63.86,108.15,79.36,92.39,92.15Z"/><path class="bef789bd-38ea-44a2-8517-deb7fc21f25f" d="M67.91,102.68A33.71,33.71,0,0,1,41.39,90.5l-18-22.23c-12.18-15-8.66-38.13,7.85-51.53C45.63,5,60.38,8.25,75.05,26.32l18,22.23c6.59,8.13,10.26,15.77,10.91,22.72.77,8.39-2.79,15.84-10.57,22.16h0A40.64,40.64,0,0,1,67.91,102.68ZM48.33,13.2c-5,0-10,2-15,6.11-15.09,12.25-18.4,33.28-7.36,46.88L44,88.42c11,13.59,32.3,14.69,47.39,2.44h0c7-5.65,10-12,9.35-19.29-.58-6.28-4-13.33-10.18-20.94l-18-22.23C64.24,18.25,56.25,13.2,48.33,13.2Z"/><path class="bca554ce-0268-4e24-835d-3ff302490c04" d="M107.25,56.9a13.15,13.15,0,0,0-17.16-.49h0A13.16,13.16,0,0,0,87,73.3c20.58,34.92,56.62,107,83.06,81.69C200.3,134.33,137.19,84.23,107.25,56.9Zm60.19,87.57c-2.79,2.25-9.08-.89-14.07-7s-6.77-13-4-15.21,9.09.89,14.07,7S170.22,142.21,167.44,144.47Z"/><g class="e9094b12-8ada-4f2b-ad40-b9c9e7342a62"><path class="bef789bd-38ea-44a2-8517-deb7fc21f25f" d="M14.25,43.53a1.58,1.58,0,0,1-1-2.81l23.47-19a1.59,1.59,0,1,1,2,2.46l-23.48,19A1.55,1.55,0,0,1,14.25,43.53Z"/><path class="bef789bd-38ea-44a2-8517-deb7fc21f25f" d="M1.58,64.4a1.58,1.58,0,0,1-1-2.81L24.06,42.54a1.58,1.58,0,0,1,2,2.46l-23.47,19A1.56,1.56,0,0,1,1.58,64.4Z"/><path class="bef789bd-38ea-44a2-8517-deb7fc21f25f" d="M11.84,66.67a1.58,1.58,0,0,1-1-2.81l23.48-19a1.58,1.58,0,0,1,2,2.46l-23.47,19A1.58,1.58,0,0,1,11.84,66.67Z"/><path class="bef789bd-38ea-44a2-8517-deb7fc21f25f" d="M10.64,78.24a1.56,1.56,0,0,1-1.23-.58,1.59,1.59,0,0,1,.23-2.23l23.47-19a1.58,1.58,0,1,1,2,2.45l-23.47,19A1.54,1.54,0,0,1,10.64,78.24Z"/><path class="bef789bd-38ea-44a2-8517-deb7fc21f25f" d="M13,86.91a1.58,1.58,0,0,1-1-2.81l23.47-19a1.58,1.58,0,0,1,2,2.46L14,86.56A1.62,1.62,0,0,1,13,86.91Z"/><path class="bef789bd-38ea-44a2-8517-deb7fc21f25f" d="M26.55,86.52a1.58,1.58,0,0,1-1-2.81L49,64.66a1.59,1.59,0,0,1,2,2.46l-23.48,19A1.54,1.54,0,0,1,26.55,86.52Z"/><path class="bef789bd-38ea-44a2-8517-deb7fc21f25f" d="M23.38,99.69a1.58,1.58,0,0,1-1-2.81l23.47-19a1.58,1.58,0,1,1,2,2.45l-23.47,19A1.58,1.58,0,0,1,23.38,99.69Z"/><path class="bef789bd-38ea-44a2-8517-deb7fc21f25f" d="M26,108.14a1.58,1.58,0,0,1-1-2.81l23.47-19a1.58,1.58,0,1,1,2,2.46L27,107.78A1.55,1.55,0,0,1,26,108.14Z"/><path class="bef789bd-38ea-44a2-8517-deb7fc21f25f" d="M35,111.19a1.58,1.58,0,0,1-1-2.81l23.47-19a1.58,1.58,0,1,1,2,2.46L36,110.84A1.56,1.56,0,0,1,35,111.19Z"/><path class="bef789bd-38ea-44a2-8517-deb7fc21f25f" d="M43.15,114.85a1.57,1.57,0,0,1-1.23-.58,1.59,1.59,0,0,1,.24-2.23L65.63,93a1.58,1.58,0,1,1,2,2.45l-23.47,19A1.56,1.56,0,0,1,43.15,114.85Z"/><path class="bef789bd-38ea-44a2-8517-deb7fc21f25f" d="M51.21,118.63a1.58,1.58,0,0,1-1-2.81l23.47-19a1.58,1.58,0,1,1,2,2.46l-23.47,19A1.55,1.55,0,0,1,51.21,118.63Z"/></g><path class="bca554ce-0268-4e24-835d-3ff302490c04" d="M108,87.93h0a37,37,0,0,1-51.91-5.4L36.14,58a37,37,0,0,1,5.4-51.92h0C57.31-6.73,72.48,2.35,85.27,18.11l19.92,24.55C118,58.42,123.74,75.14,108,87.93Z"/><path class="b7c81b10-6fde-475f-9372-9507ac416514" d="M79.79,95.8a47.68,47.68,0,0,0,29.57-12.61s-4.6,10.16-8.65,13.86l-2.08-3.6S86.49,97.33,79.79,95.8Z"/><path class="b7c81b10-6fde-475f-9372-9507ac416514" d="M115.55,59.71s2.85,8.9,0,16.14A13.42,13.42,0,0,0,123.06,71l-5.85-5.21A27.15,27.15,0,0,0,115.55,59.71Z"/><path class="b7c81b10-6fde-475f-9372-9507ac416514" d="M148.45,128.32s.71-5,5.12-4.15,10,9.33,10,9.33,6.1,9.05.78,11.63c0,0,3.93.54,4.42-3.44s-2.43-9.87-7.82-15.22-11.17-6.51-12.35-3.2S148.45,128.32,148.45,128.32Z"/><path class="b7c81b10-6fde-475f-9372-9507ac416514" d="M36.05,22.08A29.42,29.42,0,0,0,40.51,53.4c2.18,2.6,5.89-1.14,3.73-3.73A23.88,23.88,0,0,1,40.6,24.74c1.34-3.08-3.2-5.77-4.55-2.66Z"/><path class="b7c81b10-6fde-475f-9372-9507ac416514" d="M128.65,131.7c3.14,5.25,8.42,9.44,13,13.32,4.29,3.61,8.9,7.92,14.43,9.37,3.28.87,4.68-4.21,1.4-5.08-5.15-1.36-9.63-5.86-13.57-9.26-3.74-3.24-8.18-6.72-10.75-11-1.74-2.91-6.3-.26-4.55,2.66Z"/><path class="b480828a-3220-4aa1-a148-792c6edd01e3" d="M58.48,12.43c2.94-.58,5.77,1.52,8.06,3.08C69.36,17.41,72,12.85,69.2,11c-3.68-2.5-7.56-4.51-12.12-3.6-3.33.67-1.92,5.75,1.4,5.08Z"/><path class="b480828a-3220-4aa1-a148-792c6edd01e3" d="M121.06,82.66l2.69,2.79a2.64,2.64,0,1,0,3.73-3.73l-2.69-2.79a2.66,2.66,0,0,0-3.73,0,2.68,2.68,0,0,0,0,3.73Z"/></g></g></svg>