<svg xmlns="http://www.w3.org/2000/svg" xmlns:xlink="http://www.w3.org/1999/xlink" viewBox="0 0 178.08 160.27"><defs><style>.f45c4396-b832-4efc-b31b-01bc8059e259{fill:none;}.aefd1b8b-263d-4cbd-83d9-ad0a96840471{fill:#fff;}.faad8081-3b03-464f-8843-e5d1dbe9db87{fill:#b5b5b6;}.e74c7c1c-f84e-4ed4-805b-689744237fd7{fill:#1b7eb8;}.af1fc93b-f399-47fb-8b9e-20fafb6dbfd9{clip-path:url(#b6eb614c-829c-4683-b46d-1b56c27fbb66);}.f6917992-dc3d-49c4-8c0a-823a4f06d059{fill:#244f83;}</style><clipPath id="b6eb614c-829c-4683-b46d-1b56c27fbb66"><path class="f45c4396-b832-4efc-b31b-01bc8059e259" d="M92.39,92.15h0c-15.76,12.79-38.13,11.58-49.71-2.69l-18-22.23C13.06,53,16.48,30.82,32.24,18h0C48,5.23,62.18,13.09,73.76,27.36l18,22.23C103.38,63.86,108.15,79.36,92.39,92.15Z"/></clipPath></defs><title>牙刷藍</title><g id="a92af732-748b-4aa5-9cd5-b9d4beea9644" data-name="圖層 2"><g id="b6ac1cb9-a26e-40e6-8a09-a40377f1e7a0" data-name="圖層 1"><path class="aefd1b8b-263d-4cbd-83d9-ad0a96840471" d="M92.39,92.15h0c-15.76,12.79-38.13,11.58-49.71-2.69l-18-22.23C13.06,53,16.48,30.82,32.24,18h0C48,5.23,62.18,13.09,73.76,27.36l18,22.23C103.38,63.86,108.15,79.36,92.39,92.15Z"/><path class="faad8081-3b03-464f-8843-e5d1dbe9db87" d="M68,102.66c-.69,0-1.38,0-2.08-.06A33.3,33.3,0,0,1,41.39,90.5l-18-22.23c-12.18-15-8.66-38.13,7.85-51.53C45.63,5,60.38,8.25,75.05,26.32l18,22.23c6.59,8.13,10.26,15.77,10.91,22.72.77,8.39-2.79,15.84-10.57,22.16h0A40.49,40.49,0,0,1,68,102.66ZM48.23,13.21c-5,0-9.93,2-14.95,6.1-15.09,12.25-18.4,33.28-7.36,46.88L44,88.42A30.07,30.07,0,0,0,66.05,99.3a37,37,0,0,0,25.3-8.44h0c7-5.65,10-12,9.35-19.29-.58-6.28-4-13.33-10.18-20.94l-18-22.23C66.3,20.79,60.11,16,54.08,14.12A19.92,19.92,0,0,0,48.23,13.21Z"/><path class="e74c7c1c-f84e-4ed4-805b-689744237fd7" d="M107.25,56.9a13.15,13.15,0,0,0-17.16-.49h0A13.16,13.16,0,0,0,87,73.3c20.58,34.92,56.62,107,83.05,81.69C200.3,134.33,137.19,84.23,107.25,56.9Zm60.19,87.57c-2.79,2.25-9.08-.89-14.07-7s-6.77-13-4-15.21,9.09.89,14.07,7S170.22,142.21,167.44,144.47Z"/><g class="af1fc93b-f399-47fb-8b9e-20fafb6dbfd9"><path class="faad8081-3b03-464f-8843-e5d1dbe9db87" d="M14.25,43.53a1.58,1.58,0,0,1-1-2.81l23.47-19a1.59,1.59,0,1,1,2,2.46l-23.48,19A1.55,1.55,0,0,1,14.25,43.53Z"/><path class="faad8081-3b03-464f-8843-e5d1dbe9db87" d="M1.58,64.4a1.58,1.58,0,0,1-1-2.81l23.47-19a1.58,1.58,0,1,1,2,2.45l-23.47,19A1.56,1.56,0,0,1,1.58,64.4Z"/><path class="faad8081-3b03-464f-8843-e5d1dbe9db87" d="M11.84,66.67a1.58,1.58,0,0,1-1-2.81l23.48-19a1.58,1.58,0,0,1,2,2.46l-23.47,19A1.58,1.58,0,0,1,11.84,66.67Z"/><path class="faad8081-3b03-464f-8843-e5d1dbe9db87" d="M10.64,78.24a1.58,1.58,0,0,1-1-2.81l23.47-19a1.58,1.58,0,1,1,2,2.45l-23.47,19A1.54,1.54,0,0,1,10.64,78.24Z"/><path class="faad8081-3b03-464f-8843-e5d1dbe9db87" d="M13,86.91a1.58,1.58,0,0,1-1-2.81l23.47-19a1.58,1.58,0,0,1,2,2.46L14,86.56A1.62,1.62,0,0,1,13,86.91Z"/><path class="faad8081-3b03-464f-8843-e5d1dbe9db87" d="M26.55,86.52a1.58,1.58,0,0,1-1-2.81L49,64.66a1.59,1.59,0,0,1,2,2.46l-23.48,19A1.54,1.54,0,0,1,26.55,86.52Z"/><path class="faad8081-3b03-464f-8843-e5d1dbe9db87" d="M23.38,99.69a1.58,1.58,0,0,1-1-2.81l23.47-19a1.58,1.58,0,1,1,2,2.45l-23.47,19A1.58,1.58,0,0,1,23.38,99.69Z"/><path class="faad8081-3b03-464f-8843-e5d1dbe9db87" d="M26,108.14a1.58,1.58,0,0,1-1-2.81l23.47-19a1.58,1.58,0,0,1,2,2.46L27,107.78A1.55,1.55,0,0,1,26,108.14Z"/><path class="faad8081-3b03-464f-8843-e5d1dbe9db87" d="M35,111.19a1.58,1.58,0,0,1-1-2.81l23.47-19a1.58,1.58,0,1,1,2,2.46L36,110.84A1.56,1.56,0,0,1,35,111.19Z"/><path class="faad8081-3b03-464f-8843-e5d1dbe9db87" d="M43.15,114.85a1.58,1.58,0,0,1-1-2.81L65.63,93a1.58,1.58,0,1,1,2,2.45l-23.47,19A1.56,1.56,0,0,1,43.15,114.85Z"/><path class="faad8081-3b03-464f-8843-e5d1dbe9db87" d="M51.21,118.63a1.58,1.58,0,0,1-1-2.81l23.47-19a1.58,1.58,0,1,1,2,2.46l-23.47,19A1.6,1.6,0,0,1,51.21,118.63Z"/></g><path class="e74c7c1c-f84e-4ed4-805b-689744237fd7" d="M108,87.93h0a37,37,0,0,1-51.91-5.4L36.14,58a37,37,0,0,1,5.4-51.92h0C57.3-6.73,72.48,2.35,85.27,18.11l19.92,24.55C118,58.42,123.74,75.14,108,87.93Z"/><path class="f6917992-dc3d-49c4-8c0a-823a4f06d059" d="M79.79,95.8a47.68,47.68,0,0,0,29.57-12.61s-4.6,10.16-8.65,13.86l-2.08-3.6S86.49,97.33,79.79,95.8Z"/><path class="f6917992-dc3d-49c4-8c0a-823a4f06d059" d="M115.55,59.71s2.85,8.9,0,16.14A13.42,13.42,0,0,0,123.06,71l-5.85-5.21A27.15,27.15,0,0,0,115.55,59.71Z"/><path class="f6917992-dc3d-49c4-8c0a-823a4f06d059" d="M148.45,128.32s.71-5,5.12-4.15,10,9.33,10,9.33,6.1,9.05.78,11.63c0,0,3.93.54,4.42-3.44s-2.43-9.87-7.82-15.22-11.17-6.51-12.35-3.2S148.45,128.32,148.45,128.32Z"/><path class="f6917992-dc3d-49c4-8c0a-823a4f06d059" d="M36.05,22.08A29.42,29.42,0,0,0,40.51,53.4c2.18,2.6,5.89-1.14,3.73-3.73A23.88,23.88,0,0,1,40.6,24.74c1.34-3.08-3.2-5.77-4.55-2.66Z"/><path class="f6917992-dc3d-49c4-8c0a-823a4f06d059" d="M128.65,131.7c3.14,5.25,8.42,9.44,13,13.32,4.29,3.61,8.9,7.92,14.43,9.37,3.28.87,4.68-4.21,1.4-5.08-5.15-1.36-9.63-5.86-13.57-9.26-3.74-3.24-8.18-6.72-10.75-11-1.74-2.91-6.3-.26-4.55,2.66Z"/><path class="aefd1b8b-263d-4cbd-83d9-ad0a96840471" d="M58.48,12.43c2.94-.58,5.77,1.52,8.06,3.08C69.36,17.41,72,12.85,69.2,11c-3.68-2.5-7.56-4.51-12.12-3.6-3.33.67-1.92,5.75,1.4,5.08Z"/><path class="aefd1b8b-263d-4cbd-83d9-ad0a96840471" d="M121.06,82.66l2.69,2.79a2.64,2.64,0,1,0,3.73-3.73l-2.69-2.79a2.66,2.66,0,0,0-3.73,0,2.68,2.68,0,0,0,0,3.73Z"/></g></g></svg>