<svg xmlns="http://www.w3.org/2000/svg" viewBox="0 0 784.07 961.05"><defs><style>.a25fb79b-e409-4489-8438-9849862367ec{fill:#f6bfbe;}.a4704123-6d0f-4d20-b135-8464a4e70d6c{fill:#40220f;}.e79fd389-eba5-480a-80ed-56a58142424b{fill:#fff;}.aaa22c72-79cc-4afe-9a7a-c60dff7b7477{fill:#f9d3d3;}.a47a9123-4f1b-4fae-8b4c-645f187b7af4{fill:#e097aa;}.bb4d7f8a-f2d1-4668-9237-31c886f81add{fill:#f2a4b7;}.ba611d27-774d-4aca-ba7a-17e3cd6c400e{fill:#4b3a2f;}.e7fa5587-b038-4b34-9dad-9166c78e5f62{fill:#604c3f;}.af14d822-d97d-42ae-81d1-988e5a071bc1{fill:#f198a4;}.bed39cad-335c-4139-97d5-69d0c5a10665{fill:#f4f3f4;}.f5445896-0a77-4f7d-b19a-eb43eb3c38f4{fill:#ebc3c0;}.b62c924a-30d4-4f73-8920-6b4c21c596c5{fill:#e28f9a;}.b438eb6d-1f48-4e20-8923-bd70d0879955{fill:#e7929e;}.ffc7305c-4c87-4fc6-b14d-d00d7d0b90a8{fill:#dcdddd;}</style></defs><title>兔子_1</title><g id="ac678aea-e096-4e5d-a4b4-f21f68a0adaf" data-name="圖層 2"><g id="eb26910b-8a7c-4ca1-96dc-0ec921fbee01" data-name="圖層 1"><path class="a25fb79b-e409-4489-8438-9849862367ec" d="M739.73,817.3c31.55-15.94,45.5-52.53,31.14-82.37-14.56-30.23-52.63-42.09-85.06-26.49-1.1.53-2.17,1.09-3.23,1.67L517.69,789.48l52.65,109.39,169.4-81.54Z"/><path class="a4704123-6d0f-4d20-b135-8464a4e70d6c" d="M566.76,909.07,507.48,785.9l171.61-82.59c1.12-.61,2.25-1.2,3.41-1.76a74.85,74.85,0,0,1,54.82-4.35c18.11,5.64,32.47,17.86,40.43,34.41,15,31.11,2.4,69.39-28,88.74l.25.5Zm-38.87-116,46,95.61,161.2-77.58,1.17-.6c27.7-14,40.13-46.41,27.69-72.23a50.77,50.77,0,0,0-31.2-26.45,59.56,59.56,0,0,0-43.64,3.53c-1,.48-2,1-2.89,1.5l-.35.17Z"/><circle class="e79fd389-eba5-480a-80ed-56a58142424b" cx="712.76" cy="763.23" r="39.25"/><path class="a25fb79b-e409-4489-8438-9849862367ec" d="M44.34,817.3c-31.55-15.94-45.5-52.53-31.14-82.37,14.56-30.23,52.63-42.09,85.06-26.49,1.1.53,2.17,1.09,3.23,1.67l164.89,79.37L213.73,898.87,44.33,817.33Z"/><path class="a4704123-6d0f-4d20-b135-8464a4e70d6c" d="M217.31,909.07,34,820.85l.25-.5C3.92,801-8.66,762.72,6.31,731.61c8-16.55,22.33-28.77,40.45-34.41a74.83,74.83,0,0,1,54.81,4.35c1.16.56,2.29,1.15,3.41,1.76L276.59,785.9ZM49.22,811.2l160.94,77.46,46-95.61L97.83,716.83c-.94-.52-1.91-1-2.89-1.5A59.61,59.61,0,0,0,51.3,711.8a50.77,50.77,0,0,0-31.2,26.45c-12.44,25.82,0,58.23,27.69,72.23Z"/><circle class="e79fd389-eba5-480a-80ed-56a58142424b" cx="71.31" cy="763.23" r="39.25"/><path class="a25fb79b-e409-4489-8438-9849862367ec" d="M483.22,664.91H303.9c-86.37,35.43-147.37,120.42-147.37,219.4a236.07,236.07,0,0,0,12.76,76.74H276.72a162.87,162.87,0,1,1,233.69,0H617.84a236.07,236.07,0,0,0,12.75-76.74C630.59,785.33,569.6,700.34,483.22,664.91Z"/><path class="a4704123-6d0f-4d20-b135-8464a4e70d6c" d="M518.06,664.91H483.22c86.38,35.43,147.37,120.42,147.37,219.4a236.07,236.07,0,0,1-12.75,76.74h16.1a251.28,251.28,0,0,0,11.95-76.74C645.89,790.43,594.34,708.36,518.06,664.91Z"/><path class="a4704123-6d0f-4d20-b135-8464a4e70d6c" d="M303.9,664.91H269.07c-76.28,43.45-127.83,125.52-127.83,219.4a251.28,251.28,0,0,0,11.95,76.74h16.1a236.07,236.07,0,0,1-12.76-76.74C156.53,785.33,217.53,700.34,303.9,664.91Z"/><path class="e79fd389-eba5-480a-80ed-56a58142424b" d="M393.56,684.75a162.85,162.85,0,0,0-116.84,276.3H510.41a162.85,162.85,0,0,0-116.85-276.3Z"/><ellipse class="aaa22c72-79cc-4afe-9a7a-c60dff7b7477" cx="467.99" cy="244.16" rx="74.42" ry="236.52"/><path class="a4704123-6d0f-4d20-b135-8464a4e70d6c" d="M468,488.33c-23.84,0-44.56-25.81-59.92-74.63-14.29-45.39-22.15-105.6-22.15-169.54S393.78,120,408.07,74.63C423.43,25.81,444.15,0,468,0s44.55,25.81,59.91,74.63c14.29,45.39,22.15,105.6,22.15,169.53S542.19,368.31,527.9,413.7C512.54,462.52,491.82,488.33,468,488.33Zm0-473c-31.59,0-66.78,94-66.78,228.87S436.4,473,468,473s66.77-94,66.77-228.88S499.57,15.29,468,15.29Z"/><ellipse class="aaa22c72-79cc-4afe-9a7a-c60dff7b7477" cx="319.14" cy="244.16" rx="74.42" ry="236.52"/><path class="a4704123-6d0f-4d20-b135-8464a4e70d6c" d="M319.14,488.33c-23.83,0-44.55-25.81-59.92-74.63-14.28-45.39-22.15-105.6-22.15-169.54S244.94,120,259.22,74.63C274.59,25.81,295.31,0,319.14,0s44.56,25.81,59.92,74.63c14.29,45.39,22.15,105.6,22.15,169.53s-7.86,124.15-22.15,169.54C363.7,462.52,343,488.33,319.14,488.33Zm0-473c-31.58,0-66.77,94-66.77,228.87S287.56,473,319.14,473s66.78-94,66.78-228.88S350.73,15.29,319.14,15.29Z"/><ellipse class="a47a9123-4f1b-4fae-8b4c-645f187b7af4" cx="467.99" cy="298.13" rx="44.35" ry="140.96"/><ellipse class="a47a9123-4f1b-4fae-8b4c-645f187b7af4" cx="319.43" cy="298.13" rx="44.35" ry="140.96"/><ellipse class="bb4d7f8a-f2d1-4668-9237-31c886f81add" cx="325.19" cy="303.16" rx="38.53" ry="135.93"/><ellipse class="bb4d7f8a-f2d1-4668-9237-31c886f81add" cx="474.01" cy="303.16" rx="38.53" ry="135.93"/><ellipse class="aaa22c72-79cc-4afe-9a7a-c60dff7b7477" cx="393.56" cy="572.13" rx="327.25" ry="274"/><path class="a4704123-6d0f-4d20-b135-8464a4e70d6c" d="M393.56,853.78c-89.2,0-173.12-29.13-236.31-82C93.68,718.51,58.67,647.62,58.67,572.13s35-146.38,98.58-199.61c63.19-52.9,147.11-82,236.31-82s173.13,29.13,236.32,82c63.57,53.23,98.58,124.12,98.58,199.61s-35,146.38-98.58,199.61C566.69,824.65,482.77,853.78,393.56,853.78Zm0-548C217.33,305.78,74,425.26,74,572.13s143.37,266.36,319.6,266.36S713.17,719,713.17,572.13,569.8,305.78,393.56,305.78Z"/><path class="ba611d27-774d-4aca-ba7a-17e3cd6c400e" d="M399.13,597.36l36.69-53.63a6.74,6.74,0,0,0-5.56-10.54H356.87a6.74,6.74,0,0,0-5.56,10.54L388,597.36A6.75,6.75,0,0,0,399.13,597.36Z"/><path class="e7fa5587-b038-4b34-9dad-9166c78e5f62" d="M389.57,590.27l34.9-51a3.9,3.9,0,0,0-3.22-6.09H351.47a3.89,3.89,0,0,0-3.21,6.09l34.89,51A3.9,3.9,0,0,0,389.57,590.27Z"/><path class="af14d822-d97d-42ae-81d1-988e5a071bc1" d="M264.1,649.92a143.75,143.75,0,0,0-190.37-136,232.45,232.45,0,0,0-7.42,58.19c0,83.32,44.43,157.94,114.51,208.19A143.72,143.72,0,0,0,264.1,649.92Z"/><path class="af14d822-d97d-42ae-81d1-988e5a071bc1" d="M720.82,572.13a232.45,232.45,0,0,0-7.42-58.19A143.74,143.74,0,0,0,606.31,780.32C676.39,730.07,720.82,655.45,720.82,572.13Z"/><circle class="a4704123-6d0f-4d20-b135-8464a4e70d6c" cx="269.44" cy="501.07" r="38.74"/><circle class="a4704123-6d0f-4d20-b135-8464a4e70d6c" cx="517.69" cy="501.07" r="38.74"/><path class="a4704123-6d0f-4d20-b135-8464a4e70d6c" d="M393.56,853.78c-89.2,0-173.12-29.13-236.31-82C93.68,718.51,58.67,647.62,58.67,572.13s35-146.38,98.58-199.61c63.19-52.9,147.11-82,236.31-82s173.13,29.13,236.32,82c63.57,53.23,98.58,124.12,98.58,199.61s-35,146.38-98.58,199.61C566.69,824.65,482.77,853.78,393.56,853.78Zm0-548C217.33,305.78,74,425.26,74,572.13s143.37,266.36,319.6,266.36S713.17,719,713.17,572.13,569.8,305.78,393.56,305.78Z"/><circle class="e79fd389-eba5-480a-80ed-56a58142424b" cx="255.93" cy="491.9" r="13.51"/><circle class="e79fd389-eba5-480a-80ed-56a58142424b" cx="504.17" cy="491.9" r="13.51"/><path class="bed39cad-335c-4139-97d5-69d0c5a10665" d="M393.56,607.64V769.11A51.55,51.55,0,0,1,342,820.67H245a51.56,51.56,0,0,1-51.56-51.56V652.53S319.28,675.16,393.56,607.64Z"/><path class="a4704123-6d0f-4d20-b135-8464a4e70d6c" d="M342,825.63H245a56.58,56.58,0,0,1-56.52-56.52V652.53a5,5,0,0,1,5.84-4.88c1.24.22,124.3,21.37,195.87-43.68a5,5,0,0,1,8.3,3.67V769.11A56.59,56.59,0,0,1,342,825.63ZM198.45,658.3V769.11A46.64,46.64,0,0,0,245,815.71h97a46.65,46.65,0,0,0,46.6-46.6V618.33c-38.39,30.23-87.24,39.61-122.59,42A342.8,342.8,0,0,1,198.45,658.3Z"/><path class="bed39cad-335c-4139-97d5-69d0c5a10665" d="M393.56,607.64V773.8a46.88,46.88,0,0,0,46.88,46.87H546.77a46.87,46.87,0,0,0,46.87-46.87V651.39S473.06,676.81,393.56,607.64Z"/><path class="a4704123-6d0f-4d20-b135-8464a4e70d6c" d="M546.77,825.63H440.44A51.9,51.9,0,0,1,388.6,773.8V607.64a5,5,0,0,1,8.22-3.75c76.66,66.71,194.62,42.89,195.8,42.64a5,5,0,0,1,6,4.86V773.8A51.9,51.9,0,0,1,546.77,825.63ZM398.53,618.1V773.8a42,42,0,0,0,41.91,41.91H546.77a42,42,0,0,0,41.91-41.91V657.32a311.85,311.85,0,0,1-65.55,3.09C488.18,658.41,439.2,649.31,398.53,618.1Z"/><path class="a4704123-6d0f-4d20-b135-8464a4e70d6c" d="M542.22,660.39c-41.87,0-98.78-8.32-148.66-44.39-53.33,38.56-114.68,45.41-157.12,44.28C189.76,659,156.23,648.42,154.83,648a5,5,0,1,1,3-9.45c.33.11,33.81,10.68,79.15,11.85,41.55,1.06,101.94-5.78,153.58-44.5a5,5,0,0,1,6,0c99.14,74.34,231.4,33.08,232.72,32.65a5,5,0,1,1,3,9.45c-1.4.45-34.93,11.06-81.62,12.31C547.94,660.35,545.11,660.39,542.22,660.39Z"/><path class="f5445896-0a77-4f7d-b19a-eb43eb3c38f4" d="M120.35,506.17s86.51-246.82,430.43-166.3c0,0-98.94-52.36-229.57-27S101.69,429.61,82.26,511.31A141.25,141.25,0,0,1,120.35,506.17Z"/><path class="b62c924a-30d4-4f73-8920-6b4c21c596c5" d="M215.14,541.85s-55.71-52.77-132.88-30.54c0,0-54.42,147.69,105.91,265.33,0,0-77.82-94.69-90.35-192.12-4-31.31,22-58.37,53.43-55C168.1,531.31,189.27,535,215.14,541.85Z"/><path class="b438eb6d-1f48-4e20-8923-bd70d0879955" d="M571.73,541.85s55.71-52.77,132.88-30.54c0,0,54.42,147.69-105.91,265.33,0,0,77.82-94.69,90.35-192.12,4-31.31-22-58.37-53.43-55C618.77,531.31,597.6,535,571.73,541.85Z"/><path class="ffc7305c-4c87-4fc6-b14d-d00d7d0b90a8" d="M198.46,658.3s15.27,2.63,25.47,2.5v97.93s3.25,53.87,43.63,56.9l-18.92.11s-21,2.26-36.12-13.13C199.05,788.9,198,779.4,198.37,765.09Z"/><path class="ffc7305c-4c87-4fc6-b14d-d00d7d0b90a8" d="M398.52,619.53a239,239,0,0,0,24,14.31V770.36a58.62,58.62,0,0,0,6,26.26c4.11,8.18,10.78,16.58,21.37,19.2H439.65s-14.33.07-24.67-8.62-12.26-14.84-13.85-18.41c0,0-3.1-6.73-2.61-18.38Z"/></g></g></svg>