<svg xmlns="http://www.w3.org/2000/svg" viewBox="0 0 78.44 87.54"><defs><style>.bb08562c-7670-426a-aa5d-12649b25a9fa{fill:#cb1e1d;}.af3bbca9-abca-4d89-8e10-9b0788ca16ad{fill:#7dc058;}.a8b54fbd-d5b9-4316-a3c2-306815e7f6fc{fill:#83a553;}.e576cf63-b8b3-4e2b-9a56-ee7fbaadde76{fill:#79994c;}</style></defs><title>細菌紅1</title><g id="ba7cd37d-bf41-44cd-9a3c-372b20dc88b5" data-name="圖層 2"><g id="b6bfabe2-e7f9-4076-9ed6-e99c522e9810" data-name="圖層 1"><path class="bb08562c-7670-426a-aa5d-12649b25a9fa" d="M78.44,55.92a28.21,28.21,0,0,0-7.72-19.39A28.25,28.25,0,0,0,20.14,26.28,24.29,24.29,0,0,0,13.6,68.71,28.24,28.24,0,0,0,54.11,83.89,28.26,28.26,0,0,0,78.44,55.92Z"/><path class="af3bbca9-abca-4d89-8e10-9b0788ca16ad" d="M55.16,39.6l0,.27a4.47,4.47,0,0,0,.41,3.19A4.2,4.2,0,0,0,58,45c2,.46,4.7-.61,5.09-2.89l0-.27a4.5,4.5,0,0,0-.42-3.18,4.2,4.2,0,0,0-2.47-1.9c-2-.46-4.69.6-5.09,2.88Z"/><path class="af3bbca9-abca-4d89-8e10-9b0788ca16ad" d="M21.12,50.76c5.32,0,5.33-8.27,0-8.27s-5.33,8.27,0,8.27Z"/><path class="af3bbca9-abca-4d89-8e10-9b0788ca16ad" d="M41.08,72.81l.83-3.18a4.15,4.15,0,0,0,0,5.84,4.21,4.21,0,0,0,5.84,0,4.81,4.81,0,0,0,1.31-4.85,4.14,4.14,0,0,0-8,2.19Z"/><path class="a8b54fbd-d5b9-4316-a3c2-306815e7f6fc" d="M39.59,30.92a4.49,4.49,0,0,1,5.65-.14c2,1.67,5-1.24,2.92-2.93a8.77,8.77,0,0,0-11.5.14c-2,1.76.93,4.67,2.93,2.93Z"/><path class="a8b54fbd-d5b9-4316-a3c2-306815e7f6fc" d="M38.49,54.58a18.08,18.08,0,0,0,5.31,4.25c2.35,1.24,4.44-2.33,2.09-3.57a14.89,14.89,0,0,1-4.48-3.61,2.09,2.09,0,0,0-2.92,0,2.13,2.13,0,0,0,0,2.93Z"/><path class="e576cf63-b8b3-4e2b-9a56-ee7fbaadde76" d="M22.55,71.7a6.64,6.64,0,0,0,4.39,6,2.08,2.08,0,0,0,2.54-1.44A2.12,2.12,0,0,0,28,73.76a2.5,2.5,0,0,1-1.34-2.06c-.09-2.65-4.22-2.66-4.14,0Z"/><path class="e576cf63-b8b3-4e2b-9a56-ee7fbaadde76" d="M4.45,7.54A2.29,2.29,0,0,1,6,4.06c2.57-.66,1.48-4.65-1.1-4a6.47,6.47,0,0,0-4,9.56c1.32,2.31,4.89.23,3.57-2.09Z"/></g></g></svg>