<svg xmlns="http://www.w3.org/2000/svg" viewBox="0 0 50.78 56.62"><defs><style>.b06c748d-37c2-4518-aef2-edbe1f6d1979{fill:#cb1e1d;}.bbf12fa3-9000-4799-895f-0c23b6858306{fill:#7dc058;}.fe1f2e50-85ea-407e-b343-4c90551514ff{fill:#79994c;}</style></defs><title>細菌紅2</title><g id="b8503805-9001-44b0-9a58-dfbc07e4aca7" data-name="圖層 2"><g id="a358684b-3a85-41fe-b319-80d4e39426d7" data-name="圖層 1"><path class="b06c748d-37c2-4518-aef2-edbe1f6d1979" d="M49,35.85a18.45,18.45,0,0,0-5.08-12.72,18.54,18.54,0,0,0-33.2-6.74A16,16,0,0,0,6.42,44.25,18.52,18.52,0,0,0,33,54.22,18.56,18.56,0,0,0,49,35.85Z"/><path class="bbf12fa3-9000-4799-895f-0c23b6858306" d="M38.79,43.41c5.32,0,5.33-8.26,0-8.26s-5.33,8.26,0,8.26Z"/><path class="bbf12fa3-9000-4799-895f-0c23b6858306" d="M13.16,41.48V42a4.14,4.14,0,0,0,8.27,0v-.56a4.14,4.14,0,0,0-8.27,0Z"/><path class="bbf12fa3-9000-4799-895f-0c23b6858306" d="M20.36,20.13v.27a4.14,4.14,0,1,0,8.27,0v-.27a4.14,4.14,0,1,0-8.27,0Z"/><path class="fe1f2e50-85ea-407e-b343-4c90551514ff" d="M15.57,31.26a3.39,3.39,0,0,1,.71-1.42q.16-.18.33-.33c.05,0,.4-.31.22-.19a3.29,3.29,0,0,1,.75-.4A2.13,2.13,0,0,0,19,26.38a2.1,2.1,0,0,0-2.55-1.45,7.55,7.55,0,0,0-4.89,5.23c-.67,2.58,3.32,3.67,4,1.1Z"/><path class="fe1f2e50-85ea-407e-b343-4c90551514ff" d="M32.18,23.64a3.19,3.19,0,0,1,1.62.64,5,5,0,0,0,.44.42,4.77,4.77,0,0,1,.57,1,2.07,2.07,0,0,0,2.82.75,2.13,2.13,0,0,0,.75-2.83,7,7,0,0,0-5.1-4,2.14,2.14,0,0,0-2.55,1.45,2.09,2.09,0,0,0,1.45,2.54Z"/><path class="fe1f2e50-85ea-407e-b343-4c90551514ff" d="M27.36,39.22a11.35,11.35,0,0,1,1.41,3.65,2.07,2.07,0,0,0,4-1.1,14.89,14.89,0,0,0-1.83-4.64c-1.36-2.28-4.93-.2-3.57,2.09Z"/><path class="fe1f2e50-85ea-407e-b343-4c90551514ff" d="M40,2.61c.67,4.36,5.15,7,9.32,6.26,2.61-.48,1.5-4.46-1.1-4A3.82,3.82,0,0,1,44,1.51,2.08,2.08,0,0,0,41.41.07,2.12,2.12,0,0,0,40,2.61Z"/></g></g></svg>