<svg xmlns="http://www.w3.org/2000/svg" viewBox="0 0 65.96 51.73"><defs><style>.e5cc8808-23bc-404e-b55d-f826e00a62c7{fill:#c52b1e;}.ec32f868-e644-4e6f-9e04-4aa46e290a30{fill:#7dc058;}.abe458c3-2981-434b-b2bd-2fe764b3427d{fill:#79994c;}</style></defs><title>細菌紅3</title><g id="be8fcf3b-4fbb-49eb-b991-a63b0bfa0740" data-name="圖層 2"><g id="b3022de9-fb36-4a28-8054-61d5605530a3" data-name="圖層 1"><path class="e5cc8808-23bc-404e-b55d-f826e00a62c7" d="M51.9,20.1v0A20,20,0,0,0,18,5.6a20.05,20.05,0,0,0,.32,39.92A11.58,11.58,0,0,0,39.77,42.9,13.21,13.21,0,0,0,51.9,20.1Z"/><path class="ec32f868-e644-4e6f-9e04-4aa46e290a30" d="M13.65,29.31C19,29.31,19,21,13.65,21s-5.33,8.27,0,8.27Z"/><path class="ec32f868-e644-4e6f-9e04-4aa46e290a30" d="M38.45,36.2c5.32,0,5.33-8.27,0-8.27s-5.32,8.27,0,8.27Z"/><path class="ec32f868-e644-4e6f-9e04-4aa46e290a30" d="M34.87,16.91c5.32,0,5.33-8.27,0-8.27s-5.33,8.27,0,8.27Z"/><path class="abe458c3-2981-434b-b2bd-2fe764b3427d" d="M19.7,16.09a6.17,6.17,0,0,1,5.52-2A2.09,2.09,0,0,0,27.29,12a2.12,2.12,0,0,0-2.07-2.07,10,10,0,0,0-8.44,3.25c-1.78,2,1.13,4.9,2.92,2.93Z"/><path class="abe458c3-2981-434b-b2bd-2fe764b3427d" d="M24.79,29.36a9,9,0,0,0,2.05,10.73c2,1.74,4.94-1.18,2.93-2.93a4.86,4.86,0,0,1-1.41-5.72c1.13-2.39-2.43-4.49-3.57-2.08Z"/><path class="abe458c3-2981-434b-b2bd-2fe764b3427d" d="M43.68,19.35c-.3,0,.49.19.26.08a1.45,1.45,0,0,1,.58.42A1.9,1.9,0,0,1,45,21a2.1,2.1,0,0,0,2.55,1.45A2.13,2.13,0,0,0,49,19.94a5.83,5.83,0,0,0-5.32-4.73,2.08,2.08,0,0,0-2.06,2.07,2.11,2.11,0,0,0,2.06,2.07Z"/><path class="abe458c3-2981-434b-b2bd-2fe764b3427d" d="M61.12,47.9a1.09,1.09,0,0,1,.7,1.26c-.64,2.58,3.35,3.68,4,1.1a5.23,5.23,0,0,0-2.6-5.93,2.13,2.13,0,0,0-2.83.74,2.1,2.1,0,0,0,.75,2.83Z"/></g></g></svg>