<svg xmlns="http://www.w3.org/2000/svg" viewBox="0 0 68.12 56.03"><defs><style>.acc1faa1-7514-48e4-9408-a7e52e6bcf68{fill:#fdce30;}.ab082e1c-6f92-4c2a-ba10-16c25c1a633c{fill:#7dc058;}.ffb851fe-515e-4f76-bc57-7d844734fc95{fill:#83a553;}.f54d1abb-0346-412c-ae80-8c12e716ff80{fill:#79994c;}</style></defs><title>細菌黃1</title><g id="b57479c4-a483-4714-942f-045f7c02f2b8" data-name="圖層 2"><g id="e02aa302-c59c-43e0-ba09-417adcdf3b05" data-name="圖層 1"><path class="acc1faa1-7514-48e4-9408-a7e52e6bcf68" d="M57.42,45.64l0,0A20,20,0,0,0,54.32,8.86a20.05,20.05,0,0,0-35.11,19A11.58,11.58,0,0,0,31.59,45.61,13.19,13.19,0,0,0,50.7,54.49,13.14,13.14,0,0,0,57.42,45.64Z"/><path class="ab082e1c-6f92-4c2a-ba10-16c25c1a633c" d="M48.78,34.49a2.84,2.84,0,0,1,3.44.4,3,3,0,0,1,.65,2.83,2.91,2.91,0,0,1-1.2,1.63c-1.41.87-4,.2-4.3-1.79v-2.2l3.33-2.53c2.35.41,3.42,1.47,3.22,3.16,0,1.26,0,.75.15.32a4.08,4.08,0,0,0-.42-3.18A4.12,4.12,0,0,0,48,31.65a4.78,4.78,0,0,0-1.9,2.47c-1.52,3.74,2,8,6,6.77a4.7,4.7,0,0,0,3.23-5.53A5,5,0,0,0,51,31.55c-3.62-.48-7.13,2.81-6.17,6.55a5.61,5.61,0,0,0,2.65,3.5,5.74,5.74,0,0,0,5.43,0A4.16,4.16,0,0,0,54.44,36a4.25,4.25,0,0,0-5.66-1.48Z"/><path class="ab082e1c-6f92-4c2a-ba10-16c25c1a633c" d="M26.18,38.27c5.32,0,5.33-8.27,0-8.27s-5.33,8.27,0,8.27Z"/><path class="ab082e1c-6f92-4c2a-ba10-16c25c1a633c" d="M37.2,6.3v.28a4.14,4.14,0,0,0,8.27,0V6.3a4.14,4.14,0,0,0-8.27,0Z"/><path class="ffb851fe-515e-4f76-bc57-7d844734fc95" d="M54.87,20.84a6.4,6.4,0,0,1,4.43,3.09c1.34,2.3,4.91.22,3.57-2.08a10.41,10.41,0,0,0-6.91-5c-2.59-.52-3.71,3.46-1.09,4Z"/><path class="ffb851fe-515e-4f76-bc57-7d844734fc95" d="M32,18.51a5.84,5.84,0,0,0,.18,7.93c1.87,1.9,4.79-1,2.92-2.93A1.59,1.59,0,0,1,35,21.44a2.14,2.14,0,0,0,0-2.93,2.1,2.1,0,0,0-2.93,0Z"/><path class="f54d1abb-0346-412c-ae80-8c12e716ff80" d="M2.51,12.83a12.48,12.48,0,0,0,8.17-9c.58-2.6-3.41-3.7-4-1.1A8.28,8.28,0,0,1,1.42,8.84c-2.5.88-1.42,4.87,1.09,4Z"/></g></g></svg>