<svg xmlns="http://www.w3.org/2000/svg" viewBox="0 0 91.03 66.77"><defs><style>.b4657715-2ea8-43c0-b45c-f9381d85f781{fill:#fdce30;}.b6908f9f-be5e-4da3-8e94-d3d1771634c3{fill:#7dc058;}.e881872c-db29-4049-b348-ec84d7346511{fill:#79994c;}</style></defs><title>細菌黃3</title><g id="bce5f8c7-9588-4e20-ad6a-de60a7755765" data-name="圖層 2"><g id="ef78f78c-84b5-4710-82a6-6c6690680b1b" data-name="圖層 1"><path class="b4657715-2ea8-43c0-b45c-f9381d85f781" d="M69.57,57.73h0A22.41,22.41,0,0,0,84.05,19.08a22.43,22.43,0,0,0-44.59,2.38,12.95,12.95,0,0,0,4,23.87,14.49,14.49,0,0,0-.38,4,14.79,14.79,0,0,0,26.47,8.38Z"/><path class="b6908f9f-be5e-4da3-8e94-d3d1771634c3" d="M62.85,16.62c5.32,0,5.33-8.27,0-8.27s-5.33,8.27,0,8.27Z"/><path class="b6908f9f-be5e-4da3-8e94-d3d1771634c3" d="M52.38,34.81c5.32,0,5.33-8.27,0-8.27s-5.33,8.27,0,8.27Z"/><path class="b6908f9f-be5e-4da3-8e94-d3d1771634c3" d="M72.33,36.85l-.28.27A4.14,4.14,0,1,0,77.9,43l.27-.28a4.13,4.13,0,1,0-5.84-5.84Z"/><path class="e881872c-db29-4049-b348-ec84d7346511" d="M50.91,48.49c1.34,1.93,2.83,3.93,5.16,4.69A5.5,5.5,0,0,0,62,51.76c1.72-2-1.19-4.95-2.93-2.92-1.58,1.84-3.75-1.29-4.55-2.44-1.51-2.17-5.09-.1-3.57,2.09Z"/><path class="e881872c-db29-4049-b348-ec84d7346511" d="M66.07,26.18a2.65,2.65,0,0,1-.58,3c-1.86,1.9,1.06,4.83,2.93,2.93a6.92,6.92,0,0,0,1.22-8,2.09,2.09,0,0,0-2.83-.75,2.12,2.12,0,0,0-.74,2.83Z"/><path class="e881872c-db29-4049-b348-ec84d7346511" d="M56.46,7.83c0,.23,0,.23-.08.42.11-.3.18,0-.14,0A2.11,2.11,0,0,0,58.3,6.16,2.08,2.08,0,0,0,56.24,4.1a4,4,0,0,0-3.77,4.83A2.08,2.08,0,0,0,55,10.37a2.12,2.12,0,0,0,1.45-2.54Z"/><path class="e881872c-db29-4049-b348-ec84d7346511" d="M.27,63.43C2,66.5,6,67.13,9.21,66.6A12.23,12.23,0,0,0,17.57,61C19,58.72,15.42,56.64,14,58.88A7.91,7.91,0,0,1,9.54,62.3c-1.61.47-4.72.83-5.7-1C2.56,59-1,61.09.27,63.43Z"/></g></g></svg>