<svg xmlns="http://www.w3.org/2000/svg" viewBox="0 0 85.16 60.15"><defs><style>.b0492a86-d82d-48ee-b7ed-8b0056bb593b{fill:#fff100;}.f9a99ee0-dd74-42cc-8520-c1e5b3e2bde4{fill:#7dc058;}.af5e306f-13e9-4277-894b-f984a95f52c0{fill:#79994c;}</style></defs><title>細菌黃2</title><g id="bf3469ca-25f1-445c-86b2-d20a3880d946" data-name="圖層 2"><g id="a0af9983-b56f-4695-9800-1f236dcf738e" data-name="圖層 1"><path class="b0492a86-d82d-48ee-b7ed-8b0056bb593b" d="M85.16,18A12.85,12.85,0,0,0,64.78,7.62a9.91,9.91,0,1,0-18.93,5.77,12.85,12.85,0,1,0,11.38,23A9.92,9.92,0,1,0,75.41,30.5,12.85,12.85,0,0,0,85.16,18Z"/><path class="f9a99ee0-dd74-42cc-8520-c1e5b3e2bde4" d="M48.83,31.54c5.32,0,5.32-8.27,0-8.27s-5.33,8.27,0,8.27Z"/><path class="f9a99ee0-dd74-42cc-8520-c1e5b3e2bde4" d="M65.64,35.12v.28a4.13,4.13,0,0,0,8.26,0v-.28a4.13,4.13,0,0,0-8.26,0Z"/><path class="f9a99ee0-dd74-42cc-8520-c1e5b3e2bde4" d="M65.09,21.76c5.32,0,5.32-8.27,0-8.27s-5.33,8.27,0,8.27Z"/><path class="af5e306f-13e9-4277-894b-f984a95f52c0" d="M56.35,9.3a1.76,1.76,0,0,1,2.18,0,2.09,2.09,0,0,0,2.83-.74,2.12,2.12,0,0,0-.74-2.83,6,6,0,0,0-7.19.6A2.06,2.06,0,0,0,56.35,9.3Z"/><path class="af5e306f-13e9-4277-894b-f984a95f52c0" d="M73.3,13.12a4.76,4.76,0,0,1,1.81,4.09c-.15,2.66,4,2.65,4.13,0a8.63,8.63,0,0,0-3-7,2.11,2.11,0,0,0-2.92,0,2.08,2.08,0,0,0,0,2.92Z"/><path class="af5e306f-13e9-4277-894b-f984a95f52c0" d="M55.13,24.1a5.18,5.18,0,0,0,6.11,4.84,2.08,2.08,0,0,0,1.45-2.54A2.13,2.13,0,0,0,60.15,25q.27,0-.12,0c.19,0,.16,0-.09,0,.35.18-.53-.34-.25-.12-.28-.22-.27-.23-.37-.44.14.3-.08-.59-.06-.22A2.11,2.11,0,0,0,57.2,22a2.09,2.09,0,0,0-2.07,2.07Z"/><path class="af5e306f-13e9-4277-894b-f984a95f52c0" d="M17.64,12.26a9.84,9.84,0,0,0,6.07,12.85c2.5.92,3.58-3.08,1.1-4-3.29-1.21-4.38-4.62-3.18-7.76.95-2.49-3-3.56-4-1.1Z"/><path class="af5e306f-13e9-4277-894b-f984a95f52c0" d="M2.52,58.61a11.16,11.16,0,0,1,10,1.2c2.24,1.45,4.31-2.13,2.08-3.57A15.13,15.13,0,0,0,1.42,54.62c-2.5.85-1.43,4.85,1.1,4Z"/></g></g></svg>