<svg xmlns="http://www.w3.org/2000/svg" viewBox="0 0 46.8 66.16"><defs><style>.b31340c2-394d-4ab3-9bf8-62bcecf6bad3{fill:#fac43e;}.aa98bc3e-a154-46ad-86ff-0a71ec9917ca{fill:#7dc058;}.acd58202-1994-49ba-b40f-2dda34896dd9{fill:#79994c;}</style></defs><title>細菌黃4</title><g id="b681861b-8837-4000-a410-dfc5db0102e0" data-name="圖層 2"><g id="b30d59cc-be5d-44a6-af31-d671af882912" data-name="圖層 1"><path class="b31340c2-394d-4ab3-9bf8-62bcecf6bad3" d="M46.8,18A12.84,12.84,0,0,0,26.43,7.62,9.91,9.91,0,1,0,7.5,13.39a12.85,12.85,0,1,0,11.38,23A9.92,9.92,0,1,0,37.05,30.5,12.84,12.84,0,0,0,46.8,18Z"/><path class="aa98bc3e-a154-46ad-86ff-0a71ec9917ca" d="M18.07,16.22c5.32,0,5.33-8.26,0-8.26s-5.33,8.26,0,8.26Z"/><path class="aa98bc3e-a154-46ad-86ff-0a71ec9917ca" d="M14.76,33.86c5.32,0,5.33-8.27,0-8.27s-5.33,8.27,0,8.27Z"/><path class="aa98bc3e-a154-46ad-86ff-0a71ec9917ca" d="M33.5,26.14c5.32,0,5.33-8.26,0-8.26s-5.33,8.26,0,8.26Z"/><path class="acd58202-1994-49ba-b40f-2dda34896dd9" d="M34.88,11.36a4.19,4.19,0,0,1,3.23,2.58,2.09,2.09,0,0,0,2.83.74,2.12,2.12,0,0,0,.74-2.83A8,8,0,0,0,36,7.37a2.13,2.13,0,0,0-2.55,1.45,2.09,2.09,0,0,0,1.45,2.54Z"/><path class="acd58202-1994-49ba-b40f-2dda34896dd9" d="M22.29,24.45a6.64,6.64,0,0,0,3.57,7.84,2.13,2.13,0,0,0,2.83-.74A2.07,2.07,0,0,0,28,28.73a2.6,2.6,0,0,1-1.67-3.18c.74-2.56-3.24-3.65-4-1.1Z"/><path class="acd58202-1994-49ba-b40f-2dda34896dd9" d="M6.74,26.71a2.88,2.88,0,0,1,1.38-2.86c2.28-1.36.21-4.94-2.09-3.57a6.92,6.92,0,0,0-3.42,6.43,2.11,2.11,0,0,0,2.07,2.07,2.08,2.08,0,0,0,2.06-2.07Z"/><path class="acd58202-1994-49ba-b40f-2dda34896dd9" d="M34.24,58.76c-.26-.06-.23,0,.07.05a1.75,1.75,0,0,1,.57.44,5.93,5.93,0,0,1,1,1.45,8.51,8.51,0,0,1,1,3.48c.19,2.63,4.33,2.65,4.13,0-.29-3.9-3.67-12-8.91-9-2.31,1.31-.23,4.88,2.09,3.57Z"/></g></g></svg>