<svg xmlns="http://www.w3.org/2000/svg" xmlns:xlink="http://www.w3.org/1999/xlink" viewBox="0 0 268.51 279.99"><defs><style>.ab881f61-d258-4e99-961f-48828f30345f,.ae93d503-2882-4d29-905e-bf7857ccb03c,.e76d4c0f-fa04-4414-8e29-43b74441c3c5{fill:none;}.f7eb55d5-2a5b-4839-9736-54128800b25b{fill:#4b311f;}.f54a5451-391d-4d16-bb04-8b724f81c62e{fill:#fcdebe;}.a82afa4c-077c-4476-9a67-6231b85a346e,.aa956fd5-f90f-4186-860e-a4300378d2e5,.ab881f61-d258-4e99-961f-48828f30345f,.ae93d503-2882-4d29-905e-bf7857ccb03c,.b797ca17-0faf-4025-be1e-78bfc3b4d7d6,.be76eda4-e6a3-41b6-aed1-ad884f561593,.f54a5451-391d-4d16-bb04-8b724f81c62e{stroke:#40220f;stroke-miterlimit:10;}.aa956fd5-f90f-4186-860e-a4300378d2e5,.ab881f61-d258-4e99-961f-48828f30345f,.b797ca17-0faf-4025-be1e-78bfc3b4d7d6,.be76eda4-e6a3-41b6-aed1-ad884f561593,.f54a5451-391d-4d16-bb04-8b724f81c62e{stroke-width:5.04px;}.a4cc811f-5af5-47bc-8945-4d242d859fbc{fill:#fff;}.bcae3fbc-f7cc-48bd-a176-9999fb226463{clip-path:url(#f450a273-41c1-4eeb-98e2-012ae75dc458);}.b797ca17-0faf-4025-be1e-78bfc3b4d7d6{fill:#a79a89;}.fd9c7d3e-f7c2-4865-9b7d-0a6d1f949a39{fill:#fff89e;}.be76eda4-e6a3-41b6-aed1-ad884f561593{fill:#efddc4;}.aa956fd5-f90f-4186-860e-a4300378d2e5{fill:#fdeacf;}.a003e9db-372a-4d55-a8e4-7e80deaef3cc{fill:#4b3a2f;}.ba3b739b-14c3-4d5f-a227-f6310a3c42a3{fill:#564438;}.a54d9e98-b3bc-4791-9b92-e117e11900fb{fill:#fddb93;}.be870340-01c7-47b0-a090-4996a88b636a{fill:#231815;}.b9afd4ee-c03b-4faa-aad8-ed0d8ac9d2dc{fill:#786d60;}.a0e42d5f-30ec-4463-9f3a-4289866f1fb5{fill:#facb8c;}.b81b2e7f-1cb7-4451-92da-d6d3c131e4b5{fill:#d53533;}.b1308c3c-5de8-45b1-84e0-13d12a087f5d{fill:#ef8889;}.a4a5631e-731e-4b41-8dc3-8bbc28a75103{fill:#dbcbb4;}.a82afa4c-077c-4476-9a67-6231b85a346e{fill:#68a3c0;}.a82afa4c-077c-4476-9a67-6231b85a346e,.ae93d503-2882-4d29-905e-bf7857ccb03c{stroke-width:9.52px;}</style><clipPath id="f450a273-41c1-4eeb-98e2-012ae75dc458"><ellipse class="e76d4c0f-fa04-4414-8e29-43b74441c3c5" cx="157.27" cy="218.82" rx="95.66" ry="44.69"/></clipPath></defs><title>小貓</title><g id="ba5ec9c9-d57e-4cec-8c62-36ed37b147dc" data-name="圖層 2"><g id="ed4becc7-e2b4-45fd-880f-4f8a5baf4556" data-name="圖層 1"><ellipse class="f7eb55d5-2a5b-4839-9736-54128800b25b" cx="157.27" cy="218.82" rx="95.66" ry="44.69"/><path class="f54a5451-391d-4d16-bb04-8b724f81c62e" d="M240.45,236.71c7.61,4.83,18.46,3.58,23.11-3.46s2.35-17-5.3-22.07c-.26-.18-.53-.34-.79-.5L218.57,185,201.5,210.76l32.24,21.33Z"/><circle class="a4cc811f-5af5-47bc-8945-4d242d859fbc" cx="249.78" cy="224.23" r="7.78"/><path class="f54a5451-391d-4d16-bb04-8b724f81c62e" d="M58.34,191.08c-6.7-6-7.69-16-2.17-22.34s15.76-6.84,22.69-.84l.69.63,35.26,30.52-20.25,23.4L58.33,191.09Z"/><circle class="a4cc811f-5af5-47bc-8945-4d242d859fbc" cx="68.58" cy="179.58" r="10"/><g class="bcae3fbc-f7cc-48bd-a176-9999fb226463"><circle class="f54a5451-391d-4d16-bb04-8b724f81c62e" cx="157.69" cy="215.11" r="62.36"/></g><circle class="a4cc811f-5af5-47bc-8945-4d242d859fbc" cx="157.69" cy="205.76" r="41.51"/><path class="b797ca17-0faf-4025-be1e-78bfc3b4d7d6" d="M178.27,6.24,157.73,41.82A7.44,7.44,0,0,0,164.17,53h41.08a7.44,7.44,0,0,0,6.45-11.16L191.16,6.24A7.44,7.44,0,0,0,178.27,6.24Z"/><path class="fd9c7d3e-f7c2-4865-9b7d-0a6d1f949a39" d="M180.75,25,169.17,45.1a4.57,4.57,0,0,0,4,6.86H196.3a4.57,4.57,0,0,0,4-6.86L188.67,25A4.58,4.58,0,0,0,180.75,25Z"/><path class="be76eda4-e6a3-41b6-aed1-ad884f561593" d="M123.41,6.24,102.87,41.82A7.44,7.44,0,0,0,109.31,53H150.4a7.44,7.44,0,0,0,6.44-11.16L136.3,6.24A7.44,7.44,0,0,0,123.41,6.24Z"/><path class="fd9c7d3e-f7c2-4865-9b7d-0a6d1f949a39" d="M125.9,25,114.31,45.1a4.57,4.57,0,0,0,4,6.86h23.17a4.57,4.57,0,0,0,4-6.86L133.82,25A4.58,4.58,0,0,0,125.9,25Z"/><path class="aa956fd5-f90f-4186-860e-a4300378d2e5" d="M228.45,70c-1.39-17.35-14.43-30.65-30-30.65H116.13c-15.62,0-28.66,13.3-30,30.65l-6.81,84.83c-1.58,19.69,12.32,36.65,30.05,36.65h95.89c17.73,0,31.64-17,30.06-36.65Z"/><path class="a003e9db-372a-4d55-a8e4-7e80deaef3cc" d="M160.48,139.36l5.23-7.65a3.89,3.89,0,0,0-3.21-6.09H152a3.89,3.89,0,0,0-3.21,6.09l5.22,7.65A3.91,3.91,0,0,0,160.48,139.36Z"/><path class="ba3b739b-14c3-4d5f-a227-f6310a3c42a3" d="M159.22,137.77l4.38-6.4a3.39,3.39,0,0,0-2.8-5.31H152a3.39,3.39,0,0,0-2.8,5.31l4.38,6.4A3.39,3.39,0,0,0,159.22,137.77Z"/><path class="a54d9e98-b3bc-4791-9b92-e117e11900fb" d="M235.27,154.84l-4-50.28a36.31,36.31,0,1,0,.39,69.56A36.73,36.73,0,0,0,235.27,154.84Z"/><path class="a54d9e98-b3bc-4791-9b92-e117e11900fb" d="M129.86,139.39a36.29,36.29,0,0,0-46.55-34.83l-4,50.28a36.63,36.63,0,0,0,3.65,19.28,36.31,36.31,0,0,0,46.94-34.73Z"/><rect class="be870340-01c7-47b0-a090-4996a88b636a" x="195.42" y="140.09" width="31.22" height="3.21" rx="0.96"/><rect class="be870340-01c7-47b0-a090-4996a88b636a" x="195.42" y="128.99" width="31.22" height="3.21" rx="0.96" transform="translate(-21.67 44.34) rotate(-11.41)"/><rect class="be870340-01c7-47b0-a090-4996a88b636a" x="195.42" y="151.2" width="31.22" height="3.21" rx="0.96" transform="translate(387.65 344.34) rotate(-168.59)"/><rect class="be870340-01c7-47b0-a090-4996a88b636a" x="86.8" y="140.09" width="31.22" height="3.21" rx="0.96" transform="translate(204.82 283.4) rotate(180)"/><rect class="be870340-01c7-47b0-a090-4996a88b636a" x="86.8" y="128.99" width="31.22" height="3.21" rx="0.96" transform="translate(176.96 278.87) rotate(-168.59)"/><rect class="be870340-01c7-47b0-a090-4996a88b636a" x="86.8" y="151.2" width="31.22" height="3.21" rx="0.96" transform="translate(-28.21 23.28) rotate(-11.41)"/><rect class="b9afd4ee-c03b-4faa-aad8-ed0d8ac9d2dc" x="133.44" y="37.8" width="11.69" height="35.28" rx="3.48"/><rect class="b9afd4ee-c03b-4faa-aad8-ed0d8ac9d2dc" x="151.42" y="37.8" width="11.69" height="35.28" rx="3.48"/><rect class="b9afd4ee-c03b-4faa-aad8-ed0d8ac9d2dc" x="169.4" y="37.8" width="11.69" height="35.28" rx="3.48"/><path class="ab881f61-d258-4e99-961f-48828f30345f" d="M228.45,70c-1.39-17.35-14.43-30.65-30-30.65H116.13c-15.62,0-28.66,13.3-30,30.65l-6.81,84.83c-1.58,19.69,12.32,36.65,30.05,36.65h95.89c17.73,0,31.64-17,30.06-36.65Z"/><path class="a0e42d5f-30ec-4463-9f3a-4289866f1fb5" d="M226.94,103.57l.48,6.19s-32-4.31-36.19,24.59,16.77,40.19,34.81,41a36.79,36.79,0,0,1-31-10.56,37.57,37.57,0,0,1-7.95-38.22C194.87,103.39,221.68,101.52,226.94,103.57Z"/><path class="a0e42d5f-30ec-4463-9f3a-4289866f1fb5" d="M87.28,103.57l-.48,6.19s32-4.31,36.2,24.59-16.77,40.19-34.81,41a36.77,36.77,0,0,0,31-10.56,37.55,37.55,0,0,0,7.95-38.22C119.36,103.39,92.54,101.52,87.28,103.57Z"/><circle class="be870340-01c7-47b0-a090-4996a88b636a" cx="125.63" cy="117.44" r="9.87"/><circle class="be870340-01c7-47b0-a090-4996a88b636a" cx="188.9" cy="117.44" r="9.87"/><circle class="a4cc811f-5af5-47bc-8945-4d242d859fbc" cx="122.19" cy="115.1" r="3.44"/><circle class="a4cc811f-5af5-47bc-8945-4d242d859fbc" cx="185.46" cy="115.1" r="3.44"/><path class="b81b2e7f-1cb7-4451-92da-d6d3c131e4b5" d="M128.37,150s11-10,24.26,2c8.58,7.79,12.87-.74,22.89-2.87,7.12-1.53,14.78,2.66,14.76,9.88,0,3.63.24,12.94-14.46,18.51s-31.81,5.7-45-5.95S128.37,150,128.37,150Z"/><path class="b1308c3c-5de8-45b1-84e0-13d12a087f5d" d="M132.82,171.82a31,31,0,0,0,17.52,8.88c11.48,1.88,23.19-2.23,23.19-2.23s8.17-2.51,8.91-7.11c.7-4.31-5.38-6.46-5.38-6.46a37.76,37.76,0,0,0-17.25.25c-8.5,2.36-14.58,3.91-22.23,2.22C129.41,165.56,132.82,171.82,132.82,171.82Z"/><path class="a4a5631e-731e-4b41-8dc3-8bbc28a75103" d="M132.6,41.88H117.22A25.41,25.41,0,0,0,105.41,44c-5.81,2.71-8.44,6.33-11.06,9.8a28.62,28.62,0,0,0-5.68,15.88l-2.59,30.47L92,98.38l2-29.49S97.1,38.73,132.6,41.88Z"/><path class="a82afa4c-077c-4476-9a67-6231b85a346e" d="M103,100.16s16.66,27.16,1.68,64.78-47.6,49.18-47.6,49.18l5.41,40.39L39.08,232.94l-27-.05,27.66-25.71s.67-36,11.86-62C70.11,102,103,100.16,103,100.16Z"/><circle class="be870340-01c7-47b0-a090-4996a88b636a" cx="90.96" cy="127.26" r="5.07"/><path class="a4cc811f-5af5-47bc-8945-4d242d859fbc" d="M105.35,150.21s-30.07,23.17-45.48-13.69L54.52,149.2s5,25.61,45.51,15Z"/><path class="a4cc811f-5af5-47bc-8945-4d242d859fbc" d="M98.84,168.42S68.74,191.56,53,154.29L47.68,167s5.23,25.86,45.91,15.45Z"/><path class="a4cc811f-5af5-47bc-8945-4d242d859fbc" d="M90.86,185.27s-30,23.27-44.17-12.22l-5.54,12.46s4.28,24.8,44.17,13.5Z"/><path class="ae93d503-2882-4d29-905e-bf7857ccb03c" d="M103,100.16s16.66,27.16,1.68,64.78-47.6,49.18-47.6,49.18l5.41,40.39L39.08,232.94l-27-.05,27.66-25.71s.67-36,11.86-62C70.11,102,103,100.16,103,100.16Z"/></g></g></svg>