<svg xmlns="http://www.w3.org/2000/svg" viewBox="0 0 158.1 138.7"><defs><style>.b947b42b-aba5-469d-a8f8-14976dc33f89{fill:#a8d9d1;}.bdee6559-beda-40d7-823c-77991d9fa93d{fill:#fff;}.b5a75697-2753-402e-8ed1-d3bd422c0e6f{fill:#fef4ed;}.bf2e7dfa-6504-40a3-9ece-5342953b7db8{fill:#40220f;}.e78fe1c6-000d-4060-86d9-c765f0ddbbf6{fill:#f7c2ba;}.b7965990-40e1-4a31-80fe-bcaca6c30ab7{fill:#5c4c44;}.aec2b278-f7cf-46ac-b533-b90345bb636f{fill:#231815;}.af141e7b-38be-4576-aa98-464218f02c4c{fill:#373433;}.e8f97260-38ba-48f2-bb83-5a215f63f491{fill:#716a69;}.e9ef1a57-2431-42d3-b0c3-8965e534a2b4{fill:#93b892;}.a7d0b319-4dc2-4f12-bf20-9914ce2399d5{fill:#cce6d3;}.a8bf46bc-47fc-4099-8a30-ab9383f62c98{fill:#85c0af;}</style></defs><title>小勳</title><g id="a8ace28a-3fb7-48bd-b87b-5760697256c0" data-name="圖層 2"><g id="a21f6f4e-452e-4c40-b4f6-a0aa397ffb3c" data-name="圖層 1"><circle class="b947b42b-aba5-469d-a8f8-14976dc33f89" cx="79.03" cy="63.83" r="61.33"/><path class="bdee6559-beda-40d7-823c-77991d9fa93d" d="M79,127.65a63.83,63.83,0,1,1,63.83-63.82A63.89,63.89,0,0,1,79,127.65ZM79,5a58.84,58.84,0,1,0,58.84,58.84A58.9,58.9,0,0,0,79,5Z"/><path class="b5a75697-2753-402e-8ed1-d3bd422c0e6f" d="M53,63.13s-9.2-.1-8.74,7.49a7.76,7.76,0,0,0,2.87,5.52,10.16,10.16,0,0,0,10.11,1.78Z"/><path class="bf2e7dfa-6504-40a3-9ece-5342953b7db8" d="M53.65,78.93a10.64,10.64,0,0,1-6.73-2.49,8.2,8.2,0,0,1-3-5.79,6.59,6.59,0,0,1,1.71-5.17c2.61-2.75,7.21-2.73,7.41-2.73h.29l4.42,15.42-.35.11A11.47,11.47,0,0,1,53.65,78.93Zm-.9-15.41c-1,0-4.55.34-6.58,2.49a5.83,5.83,0,0,0-1.49,4.59,7.33,7.33,0,0,0,2.72,5.24,9.77,9.77,0,0,0,9.4,1.83Z"/><path class="b5a75697-2753-402e-8ed1-d3bd422c0e6f" d="M55.09,70.31s-3.47-1.51-4.54.42"/><path class="bf2e7dfa-6504-40a3-9ece-5342953b7db8" d="M50.88,70.92l-.66-.38c1.22-2.2,4.87-.64,5-.58l-.3.7S51.77,69.31,50.88,70.92Z"/><path class="b5a75697-2753-402e-8ed1-d3bd422c0e6f" d="M106.74,63s11.53.19,8.5,10.47a5,5,0,0,1-.8,1.6c-1.33,1.78-5.21,5.7-12.94,4.64Z"/><path class="bf2e7dfa-6504-40a3-9ece-5342953b7db8" d="M104,80.31a19.92,19.92,0,0,1-2.59-.18l-.45-.07,5.46-17.41h.29c.22,0,5.59.13,8.11,3.57,1.39,1.88,1.63,4.36.74,7.39a5.32,5.32,0,0,1-.85,1.72A13,13,0,0,1,104,80.31Zm-2-.88c7.25.82,10.89-2.89,12.14-4.55a4.87,4.87,0,0,0,.73-1.48c.82-2.78.61-5-.62-6.72-2-2.71-6.12-3.17-7.23-3.25Z"/><path class="b5a75697-2753-402e-8ed1-d3bd422c0e6f" d="M89.26,91.63c16.76-2.3,18.63-23.88,18.63-23.88L110,41.82,101.59,26.4,56.26,30.22,51.11,54l2.36,12.82C57.41,87.3,67.58,91.82,82.63,92A44,44,0,0,0,89.26,91.63Z"/><path class="bf2e7dfa-6504-40a3-9ece-5342953b7db8" d="M83.36,92.39h-.73C67.81,92.2,57.12,87.8,53.1,66.93L50.72,54,56,29.86,101.81,26l8.62,15.73-2.16,26.05c0,.22-2.09,21.92-19,24.23h0A42.73,42.73,0,0,1,83.36,92.39ZM51.5,54l2.35,12.75c3.94,20.44,13.93,24.66,28.79,24.84a43.77,43.77,0,0,0,6.57-.37h0c16.26-2.23,18.29-23.32,18.3-23.54l2.14-25.81-8.27-15.1L56.57,30.57Z"/><path class="bf2e7dfa-6504-40a3-9ece-5342953b7db8" d="M105.35,47.26c-2.66,0-6.76-1.09-12.1-5.8l.5-.57C101.87,48,106.93,46.5,108.16,46c-2.73-5.56-9.8-9.26-10.4-9.33l-.09-.76c.89-.13,8.68,4.24,11.34,10.1l.14.3-.27.18A6.78,6.78,0,0,1,105.35,47.26Z"/><path class="bf2e7dfa-6504-40a3-9ece-5342953b7db8" d="M92,41.69c-3,0-8.66-1.38-18.29-8l.43-.63C88,42.62,93.31,41,94.31,40.49c-.87-4.3-9.91-8.53-10-8.57l.32-.69c.4.18,9.86,4.61,10.48,9.41l0,.21L95,41A4.87,4.87,0,0,1,92,41.69Z"/><circle class="e78fe1c6-000d-4060-86d9-c765f0ddbbf6" cx="95.24" cy="83.35" r="4.9"/><circle class="e78fe1c6-000d-4060-86d9-c765f0ddbbf6" cx="65.11" cy="80.7" r="4.9"/><polygon class="b7965990-40e1-4a31-80fe-bcaca6c30ab7" points="74.92 59.43 63.93 56.84 60.74 60.54 74.05 60.5 74.92 59.43"/><path class="bf2e7dfa-6504-40a3-9ece-5342953b7db8" d="M59.91,60.93l3.88-4.52L75.6,59.2l-1.37,1.68Zm4.16-3.67-2.49,2.9,12.28,0,.38-.45Z"/><polygon class="b7965990-40e1-4a31-80fe-bcaca6c30ab7" points="87.19 60.65 97.97 58.15 101.13 61.23 88.57 61.57 87.19 60.65"/><path class="bf2e7dfa-6504-40a3-9ece-5342953b7db8" d="M88.46,62l-2.21-1.47,11.83-2.75,4,3.85Zm-.32-1.12.54.35,11.53-.31-2.36-2.3Z"/><circle class="aec2b278-f7cf-46ac-b533-b90345bb636f" cx="68.13" cy="70.43" r="3.33"/><circle class="aec2b278-f7cf-46ac-b533-b90345bb636f" cx="93.13" cy="72.63" r="3.33"/><path class="bf2e7dfa-6504-40a3-9ece-5342953b7db8" d="M80.17,83.48a5,5,0,0,1-2.88-1.32l.52-.56s1.51,1.39,2.73,1.07c.61-.16,1.07-.74,1.38-1.72l.17-.51,1.34,1-.46.6-.5-.38a2.69,2.69,0,0,1-1.73,1.73A2.22,2.22,0,0,1,80.17,83.48Z"/><path class="af141e7b-38be-4576-aa98-464218f02c4c" d="M106.41,47.18c.65,0-.5,4.62,1.6,5a.45.45,0,0,1,.37.46c-.16,7.92.36,13.93.36,13.93,17.45-22.76.18-38.18.18-38.18l2.88-.49c-2-4.61-8.36-6.08-8.36-6.08s6.61-4.1,4-3.26c-1.13.37-8.55.88-8.55.88C84,7.73,74.59,16.07,74.59,16.07l.65-4.26c-10.24,1.36-13.13,6.4-13.13,6.4-8.46.26-6.91,2.37-12.53,6.5-4.87,3.58-7.25,3.81-7.25,3.81l3.92,2.1C40.34,34.2,40.73,46.2,40.73,46.2l3.81-3.63-.75,7.12,1.51-1.52c-.81,3.3.44,10.6.44,10.6l2-3.12c.93,6.57,5.76,11.67,5.76,11.67-1.08-5.15,1-11.55,1-11.55,8.86-6,8-19.05,8-19.05C69.43,43.64,73.32,41,73.32,41c-3.08-.69-5.24-5.19-5.24-5.19,10.28,6.93,14.56,3,14.56,3s6.46,3.12,10.49,2.43h0S99.44,46.86,106.41,47.18Z"/><path class="bf2e7dfa-6504-40a3-9ece-5342953b7db8" d="M54.18,68.56l-.93-1a24.77,24.77,0,0,1-5.69-10.9l-2,3.11-.17-1a44.72,44.72,0,0,1-.63-9.55l-1.44,1.44.76-7.16-3.67,3.51,0-.85c0-.49-.31-11.56,5.16-15.57L41,28.26l1.25-.12s2.37-.29,7.07-3.74a26.79,26.79,0,0,0,3.58-3.18c2-2,3.11-3.18,9-3.38.64-1,4-5.17,13.3-6.41l.51-.07-.6,3.87c2.57-1.67,11.42-6,23.9,3.8,2.16-.15,7.44-.57,8.31-.85.35-.11.89-.28,1.08.13s.29.64-4,3.35c1.85.59,6.17,2.31,7.78,6.07l.19.44-2.63.45c2.8,2.94,15,17.73-.66,38.16l-.6.78-.09-1c0-.06-.52-6.12-.36-14-1.72-.36-1.73-2.58-1.74-4a7.57,7.57,0,0,0,0-1C99.75,47.18,94,42.47,93,41.63c-3.74.54-9.17-1.84-10.33-2.38-1,.67-5.09,2.87-13.49-2.31.86,1.33,2.37,3.24,4.21,3.65l.85.19-.72.5c-.17.11-4,2.6-10.63-3.64,0,3.13-.64,13.26-8.07,18.37-.27.91-1.9,6.63-.94,11.23ZM48,54.6l.14,1A23,23,0,0,0,52.94,66a28.43,28.43,0,0,1,1.21-10.36l0-.13.11-.07c8.57-5.79,7.84-18.59,7.83-18.71l-.06-1,.71.72c4.76,4.76,8,4.86,9.45,4.53-2.67-1.29-4.41-4.88-4.49-5l-.61-1.26,1.17.78c9.91,6.69,14,3.11,14.08,3.07l.19-.17.23.11c.07,0,6.4,3,10.26,2.39l1.8-.31.13.75-1,.17c1.75,1.39,6.9,5.09,12.41,5.34h0c.59,0,.59.71.6,1.75,0,1.61.09,3.07,1,3.23a.84.84,0,0,1,.69.84c-.12,6,.15,10.85.29,12.89,16-21.78-.22-36.71-.39-36.86l-.59-.52,3.17-.55c-2.09-4-7.83-5.4-7.88-5.41l-.91-.21.79-.49c1.35-.83,2.79-1.78,3.66-2.43-2.13.35-7.72.74-8,.76h-.15l-.11-.09C84.24,8.38,75.22,16,74.84,16.36l-.79.69.74-4.79c-9.54,1.41-12.32,6.09-12.35,6.14l-.11.18h-.21c-5.72.18-6.69,1.18-8.63,3.16A27.78,27.78,0,0,1,49.81,25a24.1,24.1,0,0,1-6.43,3.64L47,30.59l-.57.35c-4.74,2.88-5.29,11.57-5.34,14.37L45,41.58l-.75,7.08L46,46.94l-.33,1.32c-.61,2.48,0,7.38.29,9.47Z"/><circle class="e8f97260-38ba-48f2-bb83-5a215f63f491" cx="60.77" cy="26.23" r="1.87"/><circle class="e8f97260-38ba-48f2-bb83-5a215f63f491" cx="64.6" cy="25.44" r="1.06"/><circle class="e8f97260-38ba-48f2-bb83-5a215f63f491" cx="67.76" cy="24.29" r="1.06"/><circle class="e8f97260-38ba-48f2-bb83-5a215f63f491" cx="99.04" cy="28.69" r="0.91"/><circle class="e8f97260-38ba-48f2-bb83-5a215f63f491" cx="101.11" cy="30.34" r="0.91"/><path class="b5a75697-2753-402e-8ed1-d3bd422c0e6f" d="M107.22,71.67s2-1.81,3.9-.21"/><path class="bf2e7dfa-6504-40a3-9ece-5342953b7db8" d="M107.48,72l-.52-.56a3.33,3.33,0,0,1,4.41-.22l-.49.59A2.61,2.61,0,0,0,107.48,72Z"/><path class="e9ef1a57-2431-42d3-b0c3-8965e534a2b4" d="M123.5,135.07c-30.49-10.6-58.29-10.46-88.68.44-3.59,1.54-7.69,1.54-9.31-.27L4.78,112c-1.62-1.81,1.32-5.51,6.78-7.85q67.38-25.65,134.9-.66c5.48,2.29,8.46,6,6.86,7.78l-20.51,23.41C131.21,136.54,127.11,136.58,123.5,135.07Z"/><path class="bdee6559-beda-40d7-823c-77991d9fa93d" d="M122.37,136.63c-29.71-10.33-56.8-10.2-86.4.42-5.06,2.18-10.93,2.31-13.39-.23L.71,114.21c-2.47-2.55,1.67-8.13,9.7-11.58C55.89,85.16,102,84.94,147.59,102c8.07,3.37,12.25,8.91,9.81,11.48l-21.64,22.82C133.32,138.83,127.45,138.75,122.37,136.63ZM12.71,105.73C9.75,107,8.08,109,8.92,110l19.59,23.78c.84,1,3.14,1.07,5.17.2,30.78-11.26,60.12-11.39,90.95-.44,2,.85,4.34.77,5.17-.26l19.35-24c.83-1-.86-3-3.83-4.21Q78.82,80.51,12.71,105.73Z"/><path class="bdee6559-beda-40d7-823c-77991d9fa93d" d="M65.11,102.16a58,58,0,0,1-2.73,12.06l-1.75-.42a62.94,62.94,0,0,0,2.73-12Zm6.5,5c-.07,3.1-.12,5.93-.17,8.49a2.6,2.6,0,0,1-.44,1.55,2.08,2.08,0,0,1-1.52.52,41.53,41.53,0,0,1-4.48-.37v-1.77a24.84,24.84,0,0,0,3.71.43.92.92,0,0,0,.69-.21,1,1,0,0,0,.23-.69q.06-3.15.15-7.58c.06-2.95,0-6-.19-9.17l1.77-.13C71.58,101.63,71.67,104.61,71.61,107.12Zm6.31,6.55a53.24,53.24,0,0,1-2.45-11.51l1.77-.35a63.3,63.3,0,0,0,2.41,11.43Z"/><path class="bdee6559-beda-40d7-823c-77991d9fa93d" d="M84.85,115.1a14.89,14.89,0,0,1-1.47,2.58l-1.32-.81a14,14,0,0,0,1.45-2.5Zm-2.73-2.8q2.37,0,4.44,0v-1.08h-4V109.7h4v-.87H84v.25H82.34V103.6H84v.09a13.5,13.5,0,0,1,2.54-.38v-.92H82.32v-1.6h4.24v-.62c-1.18,0-2.41,0-3.69,0l-.09-1.7a51.71,51.71,0,0,0,9.36-.64l.18,1.68a37.61,37.61,0,0,1-4,.56v.7h4.13v1.6H88.33v.77a17.73,17.73,0,0,1,1.94-.11,2.86,2.86,0,0,1,1.66.41,1.83,1.83,0,0,1,.7,1.47,22.34,22.34,0,0,1-.12,2.39H93v1.51H88.33v.87h4.22v1.52H88.33v1q2.55-.2,4.5-.54l.17,1.69a50.21,50.21,0,0,1-10.81.66Zm1.9-6.8v1.82h2.54v-2.44c-.36,0-.69.08-1,.13a14.92,14.92,0,0,1,.93,1.49l-1.32.82A11.42,11.42,0,0,0,84,105.5Zm2,12.3a15.13,15.13,0,0,1-.93-2.81l1.45-.43a16.63,16.63,0,0,0,.93,2.71Zm3.14,0a14.48,14.48,0,0,1-1.37-3.2l1.43-.56a19.16,19.16,0,0,0,1.32,3.12Zm.38-13.16a9.28,9.28,0,0,0-1.19,0v.75Zm-1.15,2.54,0,0v.15h2.41c.05-.57.09-1.14.1-1.71A21.77,21.77,0,0,1,88.37,107.21Zm11.13-3.95a1.25,1.25,0,0,0-.21-.78.67.67,0,0,0-.6-.24l-.47.07-.9.17a104.5,104.5,0,0,1-2.79,15l-1.68-.3-.88.43a14.93,14.93,0,0,1-1.47-3.28l1.41-.58A21.94,21.94,0,0,0,93,116.38a125.29,125.29,0,0,0,2.51-13.48c-.68.19-1.39.41-2.13.68L93,101.81a23.05,23.05,0,0,1,2.69-.76c.1-1.08.17-2.1.21-3l1.68.21c0,.78-.09,1.6-.15,2.45a3.21,3.21,0,0,1,.62-.1l.88-.11a2.16,2.16,0,0,1,1.49.6,2.71,2.71,0,0,1,.79,2.09c0,.64.15,1.74.3,3.32a42.19,42.19,0,0,1,0,5.57,16.77,16.77,0,0,1-.73,4.69,1.87,1.87,0,0,1-1.77.91,20.48,20.48,0,0,1-3.26-.36v-1.68a17.89,17.89,0,0,0,2.86.36.75.75,0,0,0,.53-.15.79.79,0,0,0,.23-.41,19.2,19.2,0,0,0,.37-3.3,46.65,46.65,0,0,0-.09-6.2C99.62,104.84,99.56,104,99.5,103.26Z"/><path class="a7d0b319-4dc2-4f12-bf20-9914ce2399d5" d="M35,128.23c-7.11,0-11.79-6.13-13.49-10.13a2.5,2.5,0,0,1,4.59-2c.43,1,4.46,9.66,12.54,6.3a2.5,2.5,0,1,1,1.92,4.61A14.34,14.34,0,0,1,35,128.23Z"/><path class="a7d0b319-4dc2-4f12-bf20-9914ce2399d5" d="M140.16,113.25a2.44,2.44,0,0,1-1.3-.37c-6.33-3.87-17.09-6-17.2-6.06a2.49,2.49,0,0,1,1-4.89c.47.09,11.74,2.35,18.83,6.69a2.5,2.5,0,0,1-1.3,4.63Z"/><path class="a8bf46bc-47fc-4099-8a30-ab9383f62c98" d="M34.93,88.53a2.5,2.5,0,0,1-2.27-1.45c-.33-.72-8-17.8-3.47-44.78a2.49,2.49,0,0,1,4.92.82c-4.24,25.37,3,41.72,3.09,41.88A2.5,2.5,0,0,1,36,88.3,2.37,2.37,0,0,1,34.93,88.53Z"/><path class="a8bf46bc-47fc-4099-8a30-ab9383f62c98" d="M130,62.53a2.5,2.5,0,0,1-2.48-2.26c-1.69-17.42-11-27.68-11.12-27.78a2.49,2.49,0,0,1,3.65-3.4c.43.46,10.57,11.51,12.44,30.7a2.51,2.51,0,0,1-2.25,2.73Z"/></g></g></svg>