<svg xmlns="http://www.w3.org/2000/svg" xmlns:xlink="http://www.w3.org/1999/xlink" viewBox="0 0 221.91 305.12"><defs><style>.b3497d0d-9a28-4829-a454-c3107a01f4e0,.b8cce7d4-195a-4092-9ef9-76db27b12dcd,.bdf1cf0d-30bf-4085-9192-44bd635a2ef0,.f59b0903-2ecc-4987-81d8-a1c0fe332546,.fef9fa80-b455-4d53-bfed-aa387e893ac6{fill:none;}.e75cddd7-f4c4-40de-af62-98eed9c3507a{fill:#feeacd;}.bc1baa41-90c8-49d9-9972-071cde1fa78d{fill:#ffe137;}.ba0f1b0d-b80d-452a-bd5c-1c3fc0ac3122{fill:#dbc260;}.ba6b9b33-07bf-4f49-be5b-d9af07f007c2{fill:#fff;}.f59b0903-2ecc-4987-81d8-a1c0fe332546,.fef9fa80-b455-4d53-bfed-aa387e893ac6{stroke:#231815;}.b8cce7d4-195a-4092-9ef9-76db27b12dcd,.b97caf90-0afa-47bc-b8b5-cbd9c6687bd1,.bdf1cf0d-30bf-4085-9192-44bd635a2ef0,.f59b0903-2ecc-4987-81d8-a1c0fe332546,.fef9fa80-b455-4d53-bfed-aa387e893ac6{stroke-miterlimit:10;}.fef9fa80-b455-4d53-bfed-aa387e893ac6{stroke-width:1.66px;}.b545b2d5-bf56-41cf-830d-98ad52a3520a{fill:#914f24;}.e07e5f5e-4ce7-438c-8229-300f99f564bf{fill:#8b4b24;}.a746994a-e845-44ab-b24f-66e78a99fc5e{fill:#9fa0a0;}.bdf1cf0d-30bf-4085-9192-44bd635a2ef0,.f59b0903-2ecc-4987-81d8-a1c0fe332546{stroke-width:0.42px;}.bdf1cf0d-30bf-4085-9192-44bd635a2ef0{stroke:#fff;}.af928b86-4c86-4ce4-83e0-e422d4058199{fill:#2b729c;}.fc01fcdf-f050-4079-b9ba-f12390177449{clip-path:url(#bcbfcb2f-ebda-4b3f-a5d4-a5f71969346a);}.b97caf90-0afa-47bc-b8b5-cbd9c6687bd1{fill:#afdde3;}.b8cce7d4-195a-4092-9ef9-76db27b12dcd,.b97caf90-0afa-47bc-b8b5-cbd9c6687bd1{stroke:#40220f;stroke-width:5.04px;}.b82a7db8-5536-46c2-99ea-850ae2d1f423{fill:#231815;}.b36129c4-2768-4160-8de7-72f629eee3d6{fill:#9cd8f6;}.aa8e31aa-7544-4b10-8025-6220857d1b37{fill:#3b4f86;}.f97d0493-1663-4229-b3db-72af4fbdf2f3{fill:#e9e6f3;}</style><clipPath id="bcbfcb2f-ebda-4b3f-a5d4-a5f71969346a" transform="translate(0 -0.19)"><ellipse class="b3497d0d-9a28-4829-a454-c3107a01f4e0" cx="102.21" cy="177.8" rx="95.37" ry="62.95" transform="translate(-99.92 143.11) rotate(-50.37)"/></clipPath></defs><title>魚1</title><g id="a9a5bf88-b54a-44c9-a80b-92b2aed58574" data-name="圖層 2"><g id="ffe9e25e-cc50-4246-b300-9353a50bce04" data-name="圖層 1"><path class="e75cddd7-f4c4-40de-af62-98eed9c3507a" d="M73.18,304.47a3.53,3.53,0,0,1-1.62-.4l-6.43-3.38a1.77,1.77,0,0,0-.84-.21,1.73,1.73,0,0,0-.83.21L57,304.07a3.56,3.56,0,0,1-1.62.4,3.52,3.52,0,0,1-2.67-1.25A3.41,3.41,0,0,1,52,300.4l1.22-7.16a1.81,1.81,0,0,0-.51-1.59l-5.2-5.07a3.48,3.48,0,0,1,1.92-5.93l7.19-1a1.77,1.77,0,0,0,1.35-1l3.22-6.52a3.48,3.48,0,0,1,6.23,0l3.22,6.52a1.77,1.77,0,0,0,1.35,1l7.18,1a3.48,3.48,0,0,1,1.93,5.93l-5.2,5.07a1.82,1.82,0,0,0-.52,1.59l1.23,7.16a3.39,3.39,0,0,1-.76,2.82A3.5,3.5,0,0,1,73.18,304.47Z" transform="translate(0 -0.19)"/><path class="bc1baa41-90c8-49d9-9972-071cde1fa78d" d="M64.29,271a2.62,2.62,0,0,1,2.37,1.47L69.87,279a2.63,2.63,0,0,0,2,1.44L79,281.49A2.63,2.63,0,0,1,80.5,286l-5.2,5.07a2.63,2.63,0,0,0-.75,2.33l1.22,7.16A2.62,2.62,0,0,1,72,303.32l-6.43-3.38a2.65,2.65,0,0,0-2.45,0l-6.43,3.38a2.62,2.62,0,0,1-3.82-2.78L54,293.38a2.61,2.61,0,0,0-.76-2.33L48.08,286a2.63,2.63,0,0,1,1.46-4.49l7.19-1.05a2.63,2.63,0,0,0,2-1.44l3.21-6.51A2.6,2.6,0,0,1,64.29,271m0-1.68a4.3,4.3,0,0,0-3.87,2.4l-3.21,6.52a1,1,0,0,1-.72.52l-7.19,1a4.32,4.32,0,0,0-2.39,7.37l5.2,5.07a.93.93,0,0,1,.28.84l-1.23,7.16a4.31,4.31,0,0,0,6.26,4.55l6.43-3.38a1,1,0,0,1,.89,0l6.43,3.38a4.31,4.31,0,0,0,6.26-4.55L76.2,293.1a1,1,0,0,1,.28-.85l5.2-5.06a4.32,4.32,0,0,0-2.39-7.37l-7.19-1a1,1,0,0,1-.72-.52l-3.21-6.52a4.31,4.31,0,0,0-3.88-2.4Z" transform="translate(0 -0.19)"/><path class="ba0f1b0d-b80d-452a-bd5c-1c3fc0ac3122" d="M57,301a6.46,6.46,0,0,0,2.9-2.62,1.05,1.05,0,0,0-1.82-1.06,4.58,4.58,0,0,1-2.14,1.87A1,1,0,1,0,57,301Z" transform="translate(0 -0.19)"/><path class="ba0f1b0d-b80d-452a-bd5c-1c3fc0ac3122" d="M77.35,284.2c-.09,0,0,.05-.06.18a2.13,2.13,0,0,1-.73.73,1.09,1.09,0,0,0-.38,1.44,1.06,1.06,0,0,0,1.44.38,3.71,3.71,0,0,0,1.79-2.53,2.12,2.12,0,0,0-1.51-2.23,1.05,1.05,0,0,0-.55,2Z" transform="translate(0 -0.19)"/><path class="ba0f1b0d-b80d-452a-bd5c-1c3fc0ac3122" d="M64.77,275c0-.26-.11.08-.13.13s0-.08,0,0l-.07,0h.08s-.09,0-.12-.07a2,2,0,0,1,.33,1,1.08,1.08,0,0,0,1,1.05,1.06,1.06,0,0,0,1-1.05c-.12-1.17-.42-2.53-1.68-3a1.92,1.92,0,0,0-2.54,1.26,1.06,1.06,0,0,0,.73,1.29,1,1,0,0,0,1.29-.73Z" transform="translate(0 -0.19)"/><path class="e75cddd7-f4c4-40de-af62-98eed9c3507a" d="M115.67,304.47a3.56,3.56,0,0,1-1.62-.4l-6.43-3.38a1.71,1.71,0,0,0-.83-.21,1.77,1.77,0,0,0-.84.21l-6.42,3.38a3.59,3.59,0,0,1-1.62.4,3.5,3.5,0,0,1-2.67-1.25,3.39,3.39,0,0,1-.76-2.82l1.23-7.16a1.79,1.79,0,0,0-.52-1.59L90,286.58a3.48,3.48,0,0,1,1.93-5.93l7.19-1a1.78,1.78,0,0,0,1.35-1l3.21-6.52a3.49,3.49,0,0,1,6.24,0l3.21,6.52a1.78,1.78,0,0,0,1.35,1l7.19,1a3.48,3.48,0,0,1,1.93,5.93l-5.2,5.07a1.79,1.79,0,0,0-.52,1.59l1.23,7.16a3.45,3.45,0,0,1-.76,2.82A3.5,3.5,0,0,1,115.67,304.47Z" transform="translate(0 -0.19)"/><path class="bc1baa41-90c8-49d9-9972-071cde1fa78d" d="M106.79,271a2.6,2.6,0,0,1,2.36,1.47l3.22,6.51a2.6,2.6,0,0,0,2,1.44l7.19,1.05A2.63,2.63,0,0,1,123,286l-5.2,5.07a2.63,2.63,0,0,0-.76,2.33l1.23,7.16a2.64,2.64,0,0,1-2.6,3.09,2.7,2.7,0,0,1-1.23-.31L108,299.94a2.67,2.67,0,0,0-2.46,0l-6.43,3.38a2.62,2.62,0,0,1-3.82-2.78l1.23-7.16a2.66,2.66,0,0,0-.76-2.33L90.58,286A2.63,2.63,0,0,1,92,281.49l7.19-1.05a2.62,2.62,0,0,0,2-1.44l3.22-6.51a2.6,2.6,0,0,1,2.36-1.47m0-1.68a4.28,4.28,0,0,0-3.87,2.4l-3.22,6.52a1,1,0,0,1-.72.52l-7.18,1a4.32,4.32,0,0,0-2.4,7.37l5.21,5.07a1,1,0,0,1,.27.84l-1.23,7.16a4.32,4.32,0,0,0,6.27,4.55l6.42-3.38a1,1,0,0,1,.45-.11,1,1,0,0,1,.44.11l6.43,3.38a4.32,4.32,0,0,0,6.27-4.55l-1.23-7.16a.93.93,0,0,1,.27-.84l5.2-5.07a4.32,4.32,0,0,0-2.39-7.37l-7.19-1a1,1,0,0,1-.72-.52l-3.21-6.52a4.29,4.29,0,0,0-3.87-2.4Z" transform="translate(0 -0.19)"/><path class="ba0f1b0d-b80d-452a-bd5c-1c3fc0ac3122" d="M99.5,301a6.49,6.49,0,0,0,2.89-2.62,1,1,0,0,0-1.81-1.06,4.61,4.61,0,0,1-2.15,1.87,1.06,1.06,0,0,0-.37,1.44,1.07,1.07,0,0,0,1.44.37Z" transform="translate(0 -0.19)"/><path class="ba0f1b0d-b80d-452a-bd5c-1c3fc0ac3122" d="M119.84,284.2c-.09,0,0,.05-.06.18a2,2,0,0,1-.73.73,1.09,1.09,0,0,0-.37,1.44,1.05,1.05,0,0,0,1.43.38,3.68,3.68,0,0,0,1.79-2.53,2.12,2.12,0,0,0-1.5-2.23,1.05,1.05,0,0,0-.56,2Z" transform="translate(0 -0.19)"/><path class="ba0f1b0d-b80d-452a-bd5c-1c3fc0ac3122" d="M107.27,275c0-.26-.11.08-.14.13s0-.08,0,0l-.06,0h.07c-.05,0-.09,0-.12-.07a1.9,1.9,0,0,1,.34,1,1.08,1.08,0,0,0,1,1.05,1.06,1.06,0,0,0,1-1.05c-.13-1.17-.42-2.53-1.69-3a1.92,1.92,0,0,0-2.54,1.26,1.07,1.07,0,0,0,.73,1.29,1.06,1.06,0,0,0,1.3-.73Z" transform="translate(0 -0.19)"/><path class="bc1baa41-90c8-49d9-9972-071cde1fa78d" d="M24.16,272.49,27.38,279a2.6,2.6,0,0,0,2,1.44l7.19,1.05A2.63,2.63,0,0,1,38,286l-5.2,5.07a2.66,2.66,0,0,0-.76,2.33l1.23,7.16a2.64,2.64,0,0,1-3.83,2.78L23,299.94a2.67,2.67,0,0,0-2.46,0l-6.42,3.38a2.64,2.64,0,0,1-3.83-2.78l1.23-7.16a2.63,2.63,0,0,0-.76-2.33L5.59,286a2.63,2.63,0,0,1,1.46-4.49l7.19-1.05a2.6,2.6,0,0,0,2-1.44l3.22-6.51A2.63,2.63,0,0,1,24.16,272.49Z" transform="translate(0 -0.19)"/><path class="ba0f1b0d-b80d-452a-bd5c-1c3fc0ac3122" d="M14.51,301a6.49,6.49,0,0,0,2.89-2.62,1,1,0,0,0-1.81-1.06,4.63,4.63,0,0,1-2.14,1.87,1.06,1.06,0,0,0-.38,1.44,1.07,1.07,0,0,0,1.44.37Z" transform="translate(0 -0.19)"/><path class="ba0f1b0d-b80d-452a-bd5c-1c3fc0ac3122" d="M34.85,284.2c-.09,0,0,.05-.06.18a2.1,2.1,0,0,1-.72.73,1.09,1.09,0,0,0-.38,1.44,1.06,1.06,0,0,0,1.44.38,3.74,3.74,0,0,0,1.79-2.53,2.12,2.12,0,0,0-1.51-2.23,1.05,1.05,0,0,0-.56,2Z" transform="translate(0 -0.19)"/><path class="ba0f1b0d-b80d-452a-bd5c-1c3fc0ac3122" d="M22.28,275c0-.26-.11.08-.14.13s-.05-.08,0,0l-.06,0h.07c-.05,0-.08,0-.11-.07a2,2,0,0,1,.33,1,1.08,1.08,0,0,0,1.05,1.05,1.06,1.06,0,0,0,1.05-1.05c-.13-1.17-.42-2.53-1.69-3a1.92,1.92,0,0,0-2.54,1.26,1.08,1.08,0,0,0,.74,1.29,1.05,1.05,0,0,0,1.29-.73Z" transform="translate(0 -0.19)"/><path class="ba6b9b33-07bf-4f49-be5b-d9af07f007c2" d="M81.29,129.46a120.53,120.53,0,0,1,4.53-21.92c.78-2.56-3.24-3.66-4-1.1a126.34,126.34,0,0,0-4.68,23c-.3,2.65,3.86,2.63,4.16,0Z" transform="translate(0 -0.19)"/><path class="ba6b9b33-07bf-4f49-be5b-d9af07f007c2" d="M91,87.83l8.58-17.11c1.19-2.39-2.39-4.5-3.59-2.1L87.36,85.73c-1.2,2.38,2.39,4.49,3.59,2.1Z" transform="translate(0 -0.19)"/><path class="ba6b9b33-07bf-4f49-be5b-d9af07f007c2" d="M109.42,57.54a117.36,117.36,0,0,1,11.24-12.95c1.9-1.89-1-4.83-2.94-2.93a123.86,123.86,0,0,0-11.89,13.78c-1.59,2.15,2,4.22,3.59,2.1Z" transform="translate(0 -0.19)"/><path class="ba6b9b33-07bf-4f49-be5b-d9af07f007c2" d="M131.15,33.92l16.32-9.09c2.34-1.31.25-4.9-2.1-3.59l-16.32,9.09c-2.33,1.31-.24,4.9,2.1,3.59Z" transform="translate(0 -0.19)"/><path class="ba6b9b33-07bf-4f49-be5b-d9af07f007c2" d="M162.27,16.81a24.13,24.13,0,0,1,13.43-4.22c2.67,0,2.68-4.19,0-4.15a28.09,28.09,0,0,0-15.53,4.78c-2.21,1.48-.13,5.08,2.1,3.59Z" transform="translate(0 -0.19)"/><path class="fef9fa80-b455-4d53-bfed-aa387e893ac6" d="M139.41,31.13s43,44.2,50.1,56.05c14.69,24.63,23.35,53.64,23.77,63.83" transform="translate(0 -0.19)"/><path class="fef9fa80-b455-4d53-bfed-aa387e893ac6" d="M167.53,65.06s-20.48-9.4-24-23" transform="translate(0 -0.19)"/><path class="fef9fa80-b455-4d53-bfed-aa387e893ac6" d="M141.87,42s-15.52-3.55-21.35-19.35" transform="translate(0 -0.19)"/><path class="fef9fa80-b455-4d53-bfed-aa387e893ac6" d="M119.43,21.54s-9.49-2.12-18.16-13.21" transform="translate(0 -0.19)"/><path class="b545b2d5-bf56-41cf-830d-98ad52a3520a" d="M219.31,144.76c7.37,19.82-4.67,12.17-4.53,5.94.11-4.66-7.07-22.7-16-40.8,1-.73,1.88-1.4,1.85-1.62a.55.55,0,0,0-.59-.5c.68-.55,1.31-1.13.92-1.62-.54-.71-1.55.09-1.55.09l-1.93,1c-1.79-3.55-3.64-7.07-5.5-10.47.41-.29.68-.59.68-.8a1,1,0,0,0-1.54-.75c-.59-1.08-1.19-2.14-1.79-3.18-5.1-8.9-12.48-18-19.91-26.27.39-.42.67-.91.33-1.32s-1-.2-1.47.08c-9.62-10.53-19.15-19.43-23.73-24.18.18-.37.31-.77.18-1a.76.76,0,0,0-.84-.21.77.77,0,0,0-.32.13l-.42-.46c-3.36-3.74-12.79-11-21.63-17.57.37-.31.6-.3.51-1-.14-1-1.18-.38-1.18-.38s-.23.21-.51.5c-7.78-5.73-14.87-10.73-16.66-12a22.15,22.15,0,0,0-1.88-1.22h0c.15-.38.22-.7,0-.91a.52.52,0,0,0-.72-.12s-.1.22-.24.49C96.22,4,89.44,1,89.44,1s-.44-.52.2-.61,1.27.28,6.79,2.4,25.63,16.35,34,21.88,38.08,35,46.86,44.73S202,106.25,202,106.25A366.27,366.27,0,0,1,219.31,144.76Z" transform="translate(0 -0.19)"/><path class="e07e5f5e-4ce7-438c-8229-300f99f564bf" d="M200.93,106.16c.39.49-.24,1.07-.92,1.62-.29.23-.58.45-.82.66-.78.69-3.92,2.86-4.13,3a7.27,7.27,0,0,0-1.28-2.17l3.67-2,1.93-1S200.39,105.45,200.93,106.16Z" transform="translate(0 -0.19)"/><path class="e07e5f5e-4ce7-438c-8229-300f99f564bf" d="M200.6,108.28c0,.22-.82.89-1.85,1.62-1.49,1.06-3.35,2.23-3.46,2.3a6.65,6.65,0,0,0-.23-.76c.21-.14,3.35-2.31,4.13-3,.24-.21.53-.43.82-.66A.55.55,0,0,1,200.6,108.28Z" transform="translate(0 -0.19)"/><path class="a746994a-e845-44ab-b24f-66e78a99fc5e" d="M195.29,112.2a7.24,7.24,0,0,1,.2,1.69,7.05,7.05,0,1,1-1.71-4.62,7.27,7.27,0,0,1,1.28,2.17A6.65,6.65,0,0,1,195.29,112.2Zm-4.17,1.69a2.83,2.83,0,1,0-2.83,2.82A2.83,2.83,0,0,0,191.12,113.89Z" transform="translate(0 -0.19)"/><path class="e07e5f5e-4ce7-438c-8229-300f99f564bf" d="M190.55,95.72h0l.44-.37.11-.08a1,1,0,0,1,1.54.75c0,.21-.27.51-.68.8-1,.74-2.82,1.48-3.06,1s1.3-1.84,1.65-2.12Z" transform="translate(0 -0.19)"/><path class="a746994a-e845-44ab-b24f-66e78a99fc5e" d="M188.29,111.06a2.83,2.83,0,1,1-2.82,2.83A2.83,2.83,0,0,1,188.29,111.06Z" transform="translate(0 -0.19)"/><path class="e07e5f5e-4ce7-438c-8229-300f99f564bf" d="M169.72,64.5c.34.41.06.9-.33,1.32s-.7.63-.9.81a1.14,1.14,0,0,1-1.62.17c-.56-.51.66-1.74.66-1.74a4.73,4.73,0,0,1,.72-.48C168.75,64.3,169.38,64.09,169.72,64.5Z" transform="translate(0 -0.19)"/><path class="e07e5f5e-4ce7-438c-8229-300f99f564bf" d="M144.7,39.44c.13.19,0,.59-.18,1a7.18,7.18,0,0,1-.48.82s-1.09,2.19-1.95,1.38,1.07-2.85,1.07-2.85a1.12,1.12,0,0,1,.38-.39.77.77,0,0,1,.32-.13A.76.76,0,0,1,144.7,39.44Z" transform="translate(0 -0.19)"/><path class="e07e5f5e-4ce7-438c-8229-300f99f564bf" d="M122,20.34c.09.69-.14.68-.51,1a2.41,2.41,0,0,0-.58.73c-.65,1.21-1.41,1.46-1.76,1.16s0-1.11.28-1.67a4.78,4.78,0,0,1,.88-1.09c.28-.29.51-.5.51-.5S121.86,19.34,122,20.34Z" transform="translate(0 -0.19)"/><path class="e07e5f5e-4ce7-438c-8229-300f99f564bf" d="M101.82,6.3c.17.21.1.53,0,.91s-.34.72-.5,1.12a.76.76,0,0,1-1.24.31c-.14-.13,0-.7.24-.93a5.73,5.73,0,0,0,.59-1c.14-.27.24-.49.24-.49A.52.52,0,0,1,101.82,6.3Z" transform="translate(0 -0.19)"/><path class="f59b0903-2ecc-4987-81d8-a1c0fe332546" d="M198.75,109.9c9,18.1,16.14,36.14,16,40.8-.14,6.23,11.9,13.88,4.53-5.94A366.27,366.27,0,0,0,202,106.25s-16-27-24.77-36.81-38.51-39.21-46.86-44.73S102,5,96.43,2.83,90.28.34,89.64.43s-.35.55-.2.61" transform="translate(0 -0.19)"/><path class="f59b0903-2ecc-4987-81d8-a1c0fe332546" d="M192,96.82c1.86,3.4,3.71,6.92,5.5,10.47" transform="translate(0 -0.19)"/><path class="f59b0903-2ecc-4987-81d8-a1c0fe332546" d="M169.39,65.82c7.43,8.23,14.81,17.37,19.91,26.27.6,1,1.2,2.1,1.79,3.18" transform="translate(0 -0.19)"/><path class="f59b0903-2ecc-4987-81d8-a1c0fe332546" d="M144.52,40.4c4.58,4.75,14.11,13.65,23.73,24.18" transform="translate(0 -0.19)"/><path class="f59b0903-2ecc-4987-81d8-a1c0fe332546" d="M121.49,21.33c8.84,6.54,18.27,13.83,21.63,17.57l.42.46" transform="translate(0 -0.19)"/><path class="f59b0903-2ecc-4987-81d8-a1c0fe332546" d="M101.77,7.21a22.15,22.15,0,0,1,1.88,1.22c1.79,1.3,8.88,6.3,16.66,12" transform="translate(0 -0.19)"/><path class="f59b0903-2ecc-4987-81d8-a1c0fe332546" d="M89.44,1s6.78,3,11.42,5.63" transform="translate(0 -0.19)"/><path class="f59b0903-2ecc-4987-81d8-a1c0fe332546" d="M193.78,109.27l3.67-2,1.93-1s1-.8,1.55-.09c.39.49-.24,1.07-.92,1.62-.29.23-.58.45-.82.66-.78.69-3.92,2.86-4.13,3h0" transform="translate(0 -0.19)"/><path class="f59b0903-2ecc-4987-81d8-a1c0fe332546" d="M200,107.78a.55.55,0,0,1,.59.5c0,.22-.82.89-1.85,1.62-1.49,1.06-3.35,2.23-3.46,2.3h0" transform="translate(0 -0.19)"/><polyline class="f59b0903-2ecc-4987-81d8-a1c0fe332546" points="190.54 95.53 190.54 95.53 190.55 95.53"/><path class="f59b0903-2ecc-4987-81d8-a1c0fe332546" d="M190.61,95.67l-.06,0h0c-.35.28-1.94,1.56-1.65,2.12s2.05-.28,3.06-1c.41-.29.68-.59.68-.8a1,1,0,0,0-1.54-.75l-.11.08-.44.37" transform="translate(0 -0.19)"/><path class="f59b0903-2ecc-4987-81d8-a1c0fe332546" d="M168.25,64.58a4.73,4.73,0,0,0-.72.48s-1.22,1.23-.66,1.74a1.14,1.14,0,0,0,1.62-.17c.2-.18.58-.47.9-.81s.67-.91.33-1.32S168.75,64.3,168.25,64.58Z" transform="translate(0 -0.19)"/><path class="f59b0903-2ecc-4987-81d8-a1c0fe332546" d="M143.54,39.36a.77.77,0,0,1,.32-.13.76.76,0,0,1,.84.21c.13.19,0,.59-.18,1a7.18,7.18,0,0,1-.48.82s-1.09,2.19-1.95,1.38,1.07-2.85,1.07-2.85A1.12,1.12,0,0,1,143.54,39.36Z" transform="translate(0 -0.19)"/><path class="f59b0903-2ecc-4987-81d8-a1c0fe332546" d="M121.49,21.33c.37-.31.6-.3.51-1-.14-1-1.18-.38-1.18-.38s-.23.21-.51.5a4.78,4.78,0,0,0-.88,1.09c-.28.56-.62,1.37-.28,1.67s1.11.05,1.76-1.16A2.41,2.41,0,0,1,121.49,21.33Z" transform="translate(0 -0.19)"/><path class="f59b0903-2ecc-4987-81d8-a1c0fe332546" d="M101.77,7.21c.15-.38.22-.7,0-.91a.52.52,0,0,0-.72-.12s-.1.22-.24.49a5.73,5.73,0,0,1-.59,1c-.23.23-.38.8-.24.93a.76.76,0,0,0,1.24-.31C101.43,7.93,101.64,7.54,101.77,7.21Z" transform="translate(0 -0.19)"/><path class="f59b0903-2ecc-4987-81d8-a1c0fe332546" d="M195.29,112.2a7.24,7.24,0,0,1,.2,1.69,7.05,7.05,0,1,1-1.71-4.62,7.27,7.27,0,0,1,1.28,2.17A6.65,6.65,0,0,1,195.29,112.2Z" transform="translate(0 -0.19)"/><path class="bdf1cf0d-30bf-4085-9192-44bd635a2ef0" d="M191.12,113.89a2.83,2.83,0,1,1-2.83-2.83A2.83,2.83,0,0,1,191.12,113.89Z" transform="translate(0 -0.19)"/><path class="fef9fa80-b455-4d53-bfed-aa387e893ac6" d="M100.27,7.71S89.1,2.43,88.74,1,63.83,75.39,70.06,98a355.23,355.23,0,0,1,9,46.88" transform="translate(0 -0.19)"/><ellipse class="af928b86-4c86-4ce4-83e0-e422d4058199" cx="67.75" cy="241.48" rx="62.95" ry="19.85"/><g class="fc01fcdf-f050-4079-b9ba-f12390177449"><path class="b97caf90-0afa-47bc-b8b5-cbd9c6687bd1" d="M80.82,144.19s-25.92,10.94-34.5,45.65,8.91,59.77,8.91,59.77L30.58,275.83l27.92-3.44,19.41,13.84-6.65-32.68s18-26.16,23.37-50.64C103.53,162.41,80.82,144.19,80.82,144.19Z" transform="translate(0 -0.19)"/><circle class="b82a7db8-5536-46c2-99ea-850ae2d1f423" cx="75.56" cy="169.66" r="4.47"/><path class="ba6b9b33-07bf-4f49-be5b-d9af07f007c2" d="M53.43,178.93s9.69,32.09,39.7,13.54l-2.68,11.86s-16.76,15.82-40.39-12.62Z" transform="translate(0 -0.19)"/><path class="ba6b9b33-07bf-4f49-be5b-d9af07f007c2" d="M48.75,195.35s9.72,32.09,40.2,13.43L86.2,220.65s-17,15.89-40.91-12.49Z" transform="translate(0 -0.19)"/><path class="ba6b9b33-07bf-4f49-be5b-d9af07f007c2" d="M45.82,211.55s9.57,32.12,38,13.93l-2.42,11.8s-15.82,15.6-38.66-13Z" transform="translate(0 -0.19)"/><path class="b8cce7d4-195a-4092-9ef9-76db27b12dcd" d="M80.82,144.19s-25.92,10.94-34.5,45.65,8.91,59.77,8.91,59.77L30.58,275.83l27.92-3.44,19.41,13.84-6.65-32.68s18-26.16,23.37-50.64C103.53,162.41,80.82,144.19,80.82,144.19Z" transform="translate(0 -0.19)"/></g><path class="b36129c4-2768-4160-8de7-72f629eee3d6" d="M27.43,189.52s-7.36-1.8-11-15.92-15.08,2.83-15.08,2.83S3.11,197,22.23,197.63C22.23,197.63,28.88,198.57,27.43,189.52Z" transform="translate(0 -0.19)"/><path class="af928b86-4c86-4ce4-83e0-e422d4058199" d="M21.39,194.89c-6.45.5-11.53-3.14-14.6-8.62-1.73-3.1-3.43-7.5-2.28-11.07,1.43-4.43,6.43-5.28,9.3-1.68,4.94,6.18,3.84,15.89,13.62,17.14,2.64.33,2.62-3.83,0-4.16-7.64-1-7-13.89-12.76-18C10,165.19,4.22,167,1.49,171.82c-3.29,5.81-.6,13.29,2.86,18.39,3.91,5.77,10,9.39,17,8.83,2.65-.2,2.67-4.36,0-4.15Z" transform="translate(0 -0.19)"/><circle class="b36129c4-2768-4160-8de7-72f629eee3d6" cx="114.71" cy="143.58" r="7.2"/><path class="af928b86-4c86-4ce4-83e0-e422d4058199" d="M109.5,148.05c-1-4.38-1.08-10.42,5-10.17,4.84.19,9.32,7.78,3.36,10.2-2.44,1-1.37,5,1.11,4,8.66-3.52,6.77-15.53-1.74-18a10.3,10.3,0,0,0-10.07,2.41c-3.31,3.4-2.62,8.42-1.64,12.61.61,2.61,4.62,1.51,4-1.1Z" transform="translate(0 -0.19)"/><path class="aa8e31aa-7544-4b10-8025-6220857d1b37" d="M23.24,232.18c-3.08.3-6.13.72-8.59,2.78a8.16,8.16,0,0,0-3,7.72,8.24,8.24,0,0,0,5.38,6c2.45,1,5.12.66,7.59,1.51,5.13,1.77,7.33-6.35,2.24-8.11A22.21,22.21,0,0,0,22,241.2a20.84,20.84,0,0,1-2.11-.42c-.08.12.6,1.31,0,.87-.07-.06.13-.36.31-.4a18.88,18.88,0,0,1,3.06-.66,4.33,4.33,0,0,0,4.21-4.21c0-2.1-1.93-4.42-4.21-4.2Z" transform="translate(0 -0.19)"/><path class="aa8e31aa-7544-4b10-8025-6220857d1b37" d="M106.6,237.81c2.15-.14,11-.16,7,4-2.79,2.9-8.69,2.41-12.36,3.16-5.3,1.09-3.06,9.19,2.23,8.11,7.44-1.53,17.27-1.76,19.35-11a9.8,9.8,0,0,0-3.65-9.81c-3.59-2.89-8.14-3.12-12.56-2.83-5.37.34-5.41,8.75,0,8.4Z" transform="translate(0 -0.19)"/><path class="aa8e31aa-7544-4b10-8025-6220857d1b37" d="M6.83,178.59a14.28,14.28,0,0,0,4.1,7.51c1,.93,2.43-.54,1.47-1.47A12.32,12.32,0,0,1,8.83,178c-.26-1.31-2.26-.76-2,.55Z" transform="translate(0 -0.19)"/><path class="aa8e31aa-7544-4b10-8025-6220857d1b37" d="M114,142.21c.08-.7,1.25-.67,1.67-.41a3.3,3.3,0,0,1,1.21,2.5c.14,1.32,2.22,1.33,2.08,0-.21-1.91-1-4.17-3.13-4.67a3.1,3.1,0,0,0-3.91,2.58c-.15,1.33,1.93,1.32,2.08,0Z" transform="translate(0 -0.19)"/><path class="f97d0493-1663-4229-b3db-72af4fbdf2f3" d="M20.85,234.1c-5.08,1.33-4.84,7.33-1.64,10.49,4.27,4.2,10.69,5.37,16.41,4.57,2.67-.38,1.53-4.43-1.12-4.06a15.89,15.89,0,0,1-8.16-.94c-1.19-.48-8.28-5-4.37-6,2.61-.69,1.5-4.74-1.12-4.06Z" transform="translate(0 -0.19)"/><path class="f97d0493-1663-4229-b3db-72af4fbdf2f3" d="M94.75,234.6c3.38,0,6.88-.27,10.22.27s10.28,2.83,9.41,7.59c-.48,2.65,3.57,3.78,4.05,1.12,2.31-12.69-15.56-13.22-23.68-13.18-2.7,0-2.71,4.22,0,4.2Z" transform="translate(0 -0.19)"/></g></g></svg>