<svg xmlns="http://www.w3.org/2000/svg" xmlns:xlink="http://www.w3.org/1999/xlink" viewBox="0 0 244.14 260.27"><defs><style>.a8f83645-befa-4a94-80ad-2f7764aec53e,.ad863b25-3f14-4b55-b4ba-221fcae6089c,.b75d43dc-5eff-455d-9b76-83c7b0fcf72e,.bf434c7d-4492-48ab-8cad-d890daacc3fe,.f09ecd7d-ee24-4ddf-b892-d2de59fea20d{fill:none;}.ac507a59-27bd-4804-a1a3-e5dcc9e2b5a6{fill:#ffe137;}.a8cf03cc-6188-4d37-9e1d-f7e3311f1343{fill:#dbc260;}.a6f94d92-9ddf-4bcd-8dd1-7dd9574f820c{fill:#7ecef4;}.b75d43dc-5eff-455d-9b76-83c7b0fcf72e,.f09ecd7d-ee24-4ddf-b892-d2de59fea20d{stroke:#231815;}.a8f83645-befa-4a94-80ad-2f7764aec53e,.b75d43dc-5eff-455d-9b76-83c7b0fcf72e,.bf434c7d-4492-48ab-8cad-d890daacc3fe,.ef4a741b-4dc0-4f4f-a0cd-43108e097b75,.f09ecd7d-ee24-4ddf-b892-d2de59fea20d{stroke-miterlimit:10;}.b75d43dc-5eff-455d-9b76-83c7b0fcf72e{stroke-width:1.68px;}.a43b42be-40f9-4ae7-8f06-ce97b649bf37{fill:#914f24;}.b70a95f9-fe2d-497f-818c-954325b5763f{fill:#8b4b24;}.ae2a1fc2-bcba-4702-a66a-77cbd4f93d9a{fill:#9fa0a0;}.a8f83645-befa-4a94-80ad-2f7764aec53e,.f09ecd7d-ee24-4ddf-b892-d2de59fea20d{stroke-width:0.42px;}.a8f83645-befa-4a94-80ad-2f7764aec53e{stroke:#fff;}.e4145683-8a84-4ee1-95c8-99f6800e397d{fill:#2b729c;}.e6ab265b-eb1e-4b0c-ae8b-187a86d235e5{clip-path:url(#f1996ac3-cdcf-4aa9-9f0e-d3cdf2b69225);}.ef4a741b-4dc0-4f4f-a0cd-43108e097b75{fill:#6cb3d2;}.bf434c7d-4492-48ab-8cad-d890daacc3fe,.ef4a741b-4dc0-4f4f-a0cd-43108e097b75{stroke:#40220f;stroke-width:5.04px;}.b6846e08-4a9f-4341-a797-0b11ef71785c{fill:#231815;}.f6beb3f4-5877-4cce-8f85-bf077cfb1861{fill:#fff;}.b1f7e996-0a1a-479b-904f-cd9bd2de89bf{fill:#9cd8f6;}.bd7c6848-5332-4999-894a-36485cfdc858{fill:#3b4f86;}.aecb03b4-cdf7-4de9-b16e-e0d2142ab7ba{fill:#e9e6f3;}</style><clipPath id="f1996ac3-cdcf-4aa9-9f0e-d3cdf2b69225"><ellipse class="ad863b25-3f14-4b55-b4ba-221fcae6089c" cx="126.49" cy="134.57" rx="95.37" ry="62.95" transform="translate(-57.83 146.16) rotate(-50.37)"/></clipPath></defs><title>魚3</title><g id="a642b7fc-5f3e-4b0f-a4d6-f8fa1edb08b7" data-name="圖層 2"><g id="b4ed3784-2015-490c-8a40-74e937b46482" data-name="圖層 1"><path class="ac507a59-27bd-4804-a1a3-e5dcc9e2b5a6" d="M92.44,229.12l3.21,6.52a2.68,2.68,0,0,0,2,1.44l7.18,1a2.64,2.64,0,0,1,1.47,4.5l-5.21,5.07a2.62,2.62,0,0,0-.75,2.33l1.22,7.16A2.64,2.64,0,0,1,97.73,260l-6.43-3.38a2.59,2.59,0,0,0-2.45,0L82.42,260a2.64,2.64,0,0,1-3.82-2.78L79.82,250a2.6,2.6,0,0,0-.76-2.33l-5.2-5.07a2.64,2.64,0,0,1,1.47-4.5l7.18-1a2.68,2.68,0,0,0,2-1.44l3.21-6.52A2.64,2.64,0,0,1,92.44,229.12Z"/><path class="a8cf03cc-6188-4d37-9e1d-f7e3311f1343" d="M82.78,257.66a6.52,6.52,0,0,0,2.9-2.62A1.05,1.05,0,0,0,83.86,254a4.64,4.64,0,0,1-2.14,1.87,1.05,1.05,0,0,0-.38,1.43,1.08,1.08,0,0,0,1.44.38Z"/><path class="a8cf03cc-6188-4d37-9e1d-f7e3311f1343" d="M103.13,240.83c-.09,0,0,0-.06.19a2.31,2.31,0,0,1-.73.73,1.09,1.09,0,0,0-.38,1.44,1.06,1.06,0,0,0,1.44.37,3.64,3.64,0,0,0,1.79-2.52,2.11,2.11,0,0,0-1.5-2.23,1,1,0,0,0-.56,2Z"/><path class="a8cf03cc-6188-4d37-9e1d-f7e3311f1343" d="M90.55,231.67c0-.26-.11.08-.13.13s0-.08,0,0h-.07c.12,0,.15,0,.08,0a.15.15,0,0,1-.12-.07,2,2,0,0,1,.33,1,1.08,1.08,0,0,0,1,1.05,1.06,1.06,0,0,0,1-1.05c-.12-1.18-.42-2.53-1.68-3a1.91,1.91,0,0,0-2.54,1.26,1.07,1.07,0,0,0,.73,1.29,1.05,1.05,0,0,0,1.29-.73Z"/><path class="ac507a59-27bd-4804-a1a3-e5dcc9e2b5a6" d="M134.93,229.12l3.22,6.52a2.65,2.65,0,0,0,2,1.44l7.19,1a2.64,2.64,0,0,1,1.46,4.5l-5.2,5.07a2.62,2.62,0,0,0-.76,2.33l1.23,7.16a2.64,2.64,0,0,1-3.83,2.78l-6.42-3.38a2.61,2.61,0,0,0-2.46,0L124.91,260a2.64,2.64,0,0,1-3.82-2.78l1.23-7.16a2.65,2.65,0,0,0-.76-2.33l-5.2-5.07a2.64,2.64,0,0,1,1.46-4.5l7.19-1a2.67,2.67,0,0,0,2-1.44l3.22-6.52A2.63,2.63,0,0,1,134.93,229.12Z"/><path class="a8cf03cc-6188-4d37-9e1d-f7e3311f1343" d="M125.28,257.66a6.54,6.54,0,0,0,2.89-2.62,1,1,0,0,0-1.81-1.06,4.66,4.66,0,0,1-2.15,1.87,1,1,0,0,0-.37,1.43,1.08,1.08,0,0,0,1.44.38Z"/><path class="a8cf03cc-6188-4d37-9e1d-f7e3311f1343" d="M145.62,240.83c-.09,0,0,0-.06.19a2.21,2.21,0,0,1-.73.73,1.08,1.08,0,0,0-.37,1.44,1,1,0,0,0,1.43.37,3.64,3.64,0,0,0,1.79-2.52,2.11,2.11,0,0,0-1.5-2.23,1,1,0,0,0-.56,2Z"/><path class="a8cf03cc-6188-4d37-9e1d-f7e3311f1343" d="M133.05,231.67c0-.26-.11.08-.14.13s0-.08,0,0h-.06c.12,0,.14,0,.07,0a.15.15,0,0,1-.12-.07,1.9,1.9,0,0,1,.34,1,1.08,1.08,0,0,0,1,1.05,1.06,1.06,0,0,0,1.05-1.05c-.13-1.18-.42-2.53-1.69-3a1.91,1.91,0,0,0-2.54,1.26,1.08,1.08,0,0,0,.73,1.29,1.07,1.07,0,0,0,1.3-.73Z"/><path class="ac507a59-27bd-4804-a1a3-e5dcc9e2b5a6" d="M49.94,229.12l3.22,6.52a2.65,2.65,0,0,0,2,1.44l7.19,1a2.64,2.64,0,0,1,1.46,4.5l-5.2,5.07a2.65,2.65,0,0,0-.76,2.33l1.23,7.16A2.64,2.64,0,0,1,55.24,260l-6.43-3.38a2.61,2.61,0,0,0-2.46,0L39.93,260a2.64,2.64,0,0,1-3.83-2.78L37.33,250a2.62,2.62,0,0,0-.76-2.33l-5.2-5.07a2.64,2.64,0,0,1,1.46-4.5l7.19-1a2.65,2.65,0,0,0,2-1.44l3.22-6.52A2.63,2.63,0,0,1,49.94,229.12Z"/><path class="a8cf03cc-6188-4d37-9e1d-f7e3311f1343" d="M40.29,257.66A6.54,6.54,0,0,0,43.18,255,1,1,0,0,0,41.37,254a4.69,4.69,0,0,1-2.14,1.87,1,1,0,0,0-.38,1.43,1.08,1.08,0,0,0,1.44.38Z"/><path class="a8cf03cc-6188-4d37-9e1d-f7e3311f1343" d="M60.63,240.83c-.09,0,0,0-.06.19a2.28,2.28,0,0,1-.72.73,1.09,1.09,0,0,0-.38,1.44,1.06,1.06,0,0,0,1.44.37A3.7,3.7,0,0,0,62.7,241a2.11,2.11,0,0,0-1.51-2.23,1,1,0,0,0-.56,2Z"/><path class="a8cf03cc-6188-4d37-9e1d-f7e3311f1343" d="M48.06,231.67c0-.26-.11.08-.14.13s0-.08,0,0h-.06c.12,0,.14,0,.07,0a.14.14,0,0,1-.11-.07,2,2,0,0,1,.33,1,1.08,1.08,0,0,0,1.05,1.05,1.06,1.06,0,0,0,1-1.05c-.13-1.18-.42-2.53-1.69-3A1.92,1.92,0,0,0,46,231.11a1.09,1.09,0,0,0,.74,1.29,1.06,1.06,0,0,0,1.29-.73Z"/><path class="a6f94d92-9ddf-4bcd-8dd1-7dd9574f820c" d="M108,99.8A121.44,121.44,0,0,1,120.61,81c1.7-2.08-1.26-5.07-3-3a126.92,126.92,0,0,0-13.29,19.65c-1.29,2.37,2.33,4.5,3.63,2.12Z"/><path class="a6f94d92-9ddf-4bcd-8dd1-7dd9574f820c" d="M133.38,64.16,148,51.47c2-1.77-.93-4.73-3-3L130.41,61.19c-2,1.78.94,4.74,3,3Z"/><path class="a6f94d92-9ddf-4bcd-8dd1-7dd9574f820c" d="M161.9,43.3a119.73,119.73,0,0,1,15.45-7.83c2.46-1,1.38-5.09-1.12-4a128.43,128.43,0,0,0-16.46,8.25c-2.31,1.39-.2,5,2.13,3.63Z"/><path class="a6f94d92-9ddf-4bcd-8dd1-7dd9574f820c" d="M191.23,29.48,210,27.26c2.65-.31,2.68-4.52,0-4.2l-18.76,2.21c-2.66.32-2.69,4.52,0,4.21Z"/><path class="a6f94d92-9ddf-4bcd-8dd1-7dd9574f820c" d="M227.47,25.39a24.61,24.61,0,0,1,14.14,1.37c2.52,1,3.61-3.06,1.12-4.05a28.56,28.56,0,0,0-16.38-1.37c-2.65.53-1.53,4.58,1.12,4.05Z"/><path class="b75d43dc-5eff-455d-9b76-83c7b0fcf72e" d="M187.14,39.23s15.11,45.66,16,56.37c1.9,22.28-1.91,45.57-5.08,52.86"/><path class="b75d43dc-5eff-455d-9b76-83c7b0fcf72e" d="M195.3,72.6s-11.16-13.57-9-24.33"/><path class="b75d43dc-5eff-455d-9b76-83c7b0fcf72e" d="M185.16,47.71s-9.67-7.78-8.38-20.85"/><path class="b75d43dc-5eff-455d-9b76-83c7b0fcf72e" d="M176.4,25.7s-5.92-4.73-8.22-15.46"/><path class="a43b42be-40f9-4ae7-8f06-ce97b649bf37" d="M204.44,146.13c-1.59,16.41-7.42,7-5.2,2.63,1.66-3.23,2.78-18.33,2.67-34.07a4.54,4.54,0,0,0,1.85-.51.43.43,0,0,0-.25-.55c.67-.15,1.3-.35,1.2-.83-.14-.68-1.12-.46-1.12-.46l-1.71.07c0-3.1-.14-6.19-.29-9.21.39-.07.68-.18.75-.33a.77.77,0,0,0-.82-1.05c-.05-1-.11-1.91-.17-2.84-.54-8-2.6-16.9-5-25.21.42-.16.78-.41.69-.81s-.62-.47-1.06-.45c-3.16-10.66-6.81-20.15-8.4-25,.25-.2.48-.43.45-.61-.07-.39-.52-.44-.52-.44a.62.62,0,0,0-.27,0c0-.17-.09-.32-.13-.47-1.08-3.77-5.21-12.09-9.18-19.69.36-.1.53,0,.69-.52.25-.75-.69-.67-.69-.67l-.53.17c-3.5-6.66-6.77-12.59-7.58-14.11a16.89,16.89,0,0,0-.9-1.49c.24-.22.39-.41.34-.62a.4.4,0,0,0-.46-.33l-.34.26c-2.35-3.43-6.09-7.84-6.09-7.84s-.12-.52.35-.36.8.63,3.95,4S179.05,24.94,183,31.66,197.81,69.15,200.63,79s4.83,34.25,4.83,34.25A284.51,284.51,0,0,1,204.44,146.13Z"/><path class="b70a95f9-fe2d-497f-818c-954325b5763f" d="M204.71,112.8c.1.48-.53.68-1.2.83l-.8.18c-.78.22-3.72.67-3.92.7a5.36,5.36,0,0,0-.16-2l3.25-.14,1.71-.07S204.57,112.12,204.71,112.8Z"/><path class="b70a95f9-fe2d-497f-818c-954325b5763f" d="M203.76,114.18a4.54,4.54,0,0,1-1.85.51c-1.41.23-3.12.42-3.21.43,0-.2.07-.41.09-.61.2,0,3.14-.48,3.92-.7l.8-.18A.43.43,0,0,1,203.76,114.18Z"/><path class="ae2a1fc2-bcba-4702-a66a-77cbd4f93d9a" d="M198.7,115.12a5.55,5.55,0,1,1-.07-2.57,5.36,5.36,0,0,1,.16,2C198.77,114.71,198.74,114.92,198.7,115.12Zm-3.51-.24a2.2,2.2,0,1,0-2.94,1A2.19,2.19,0,0,0,195.19,114.88Z"/><path class="b70a95f9-fe2d-497f-818c-954325b5763f" d="M201,101.94l.43-.11h.1a.77.77,0,0,1,.82,1.05c-.07.15-.36.26-.75.33-1,.17-2.47.07-2.49-.33S200.66,102,201,101.94Z"/><path class="ae2a1fc2-bcba-4702-a66a-77cbd4f93d9a" d="M194.18,111.94a2.2,2.2,0,1,1-3,1A2.19,2.19,0,0,1,194.18,111.94Z"/><path class="b70a95f9-fe2d-497f-818c-954325b5763f" d="M197,73c.09.4-.27.65-.69.81a7.08,7.08,0,0,1-.9.26.89.89,0,0,1-1.19-.43c-.23-.55,1.05-1,1.05-1a4.57,4.57,0,0,1,.67-.09C196.41,72.49,196.93,72.55,197,73Z"/><path class="b70a95f9-fe2d-497f-818c-954325b5763f" d="M188,46.86c0,.18-.2.41-.45.61a5,5,0,0,1-.62.41s-1.51,1.16-1.84.31,1.73-1.64,1.73-1.64a.83.83,0,0,1,.39-.14.62.62,0,0,1,.27,0S188,46.47,188,46.86Z"/><path class="b70a95f9-fe2d-497f-818c-954325b5763f" d="M178.61,25.73c-.16.51-.33.42-.69.52a1.73,1.73,0,0,0-.65.32c-.87.62-1.49.53-1.63.21s.38-.78.76-1.08a4.16,4.16,0,0,1,1-.47l.53-.17S178.86,25,178.61,25.73Z"/><path class="b70a95f9-fe2d-497f-818c-954325b5763f" d="M169.25,9c.05.21-.1.4-.34.62s-.49.39-.73.61a.59.59,0,0,1-1-.2c0-.14.24-.49.48-.57a4.9,4.9,0,0,0,.77-.53l.34-.26A.4.4,0,0,1,169.25,9Z"/><path class="f09ecd7d-ee24-4ddf-b892-d2de59fea20d" d="M201.91,114.69c.11,15.74-1,30.84-2.67,34.07-2.22,4.32,3.61,13.78,5.2-2.63a284.51,284.51,0,0,0,1-32.88s-2-24.41-4.83-34.25S187,38.37,183,31.66,169.81,8.11,166.66,4.74s-3.47-3.85-3.95-4-.43.26-.35.36"/><path class="f09ecd7d-ee24-4ddf-b892-d2de59fea20d" d="M201.59,103.2c.15,3,.25,6.11.29,9.21"/><path class="f09ecd7d-ee24-4ddf-b892-d2de59fea20d" d="M196.34,73.77c2.41,8.31,4.47,17.23,5,25.21.06.93.12,1.88.17,2.84"/><path class="f09ecd7d-ee24-4ddf-b892-d2de59fea20d" d="M187.57,47.47c1.59,4.89,5.24,14.38,8.4,25"/><path class="f09ecd7d-ee24-4ddf-b892-d2de59fea20d" d="M177.92,26.25c4,7.6,8.1,15.92,9.18,19.69,0,.15.08.3.13.47"/><path class="f09ecd7d-ee24-4ddf-b892-d2de59fea20d" d="M168.91,9.63a16.89,16.89,0,0,1,.9,1.49c.81,1.52,4.08,7.45,7.58,14.11"/><path class="f09ecd7d-ee24-4ddf-b892-d2de59fea20d" d="M162.36,1.1s3.74,4.41,6.09,7.84"/><path class="f09ecd7d-ee24-4ddf-b892-d2de59fea20d" d="M198.63,112.55l3.25-.14,1.71-.07s1-.22,1.12.46c.1.48-.53.68-1.2.83l-.8.18c-.78.22-3.72.67-3.92.7h0"/><path class="f09ecd7d-ee24-4ddf-b892-d2de59fea20d" d="M203.51,113.63a.43.43,0,0,1,.25.55,4.54,4.54,0,0,1-1.85.51c-1.41.23-3.12.42-3.21.43h0"/><path class="f09ecd7d-ee24-4ddf-b892-d2de59fea20d" d="M201.05,101.93H201c-.33.07-1.9.43-1.89.93s1.54.5,2.49.33c.39-.07.68-.18.75-.33a.77.77,0,0,0-.82-1.05h-.1l-.43.11h0"/><path class="f09ecd7d-ee24-4ddf-b892-d2de59fea20d" d="M196,72.51a4.57,4.57,0,0,0-.67.09s-1.28.45-1.05,1a.89.89,0,0,0,1.19.43,7.08,7.08,0,0,0,.9-.26c.42-.16.78-.41.69-.81S196.41,72.49,196,72.51Z"/><path class="f09ecd7d-ee24-4ddf-b892-d2de59fea20d" d="M187.23,46.41a.62.62,0,0,1,.27,0s.45,0,.52.44c0,.18-.2.41-.45.61a5,5,0,0,1-.62.41s-1.51,1.16-1.84.31,1.73-1.64,1.73-1.64A.83.83,0,0,1,187.23,46.41Z"/><path class="f09ecd7d-ee24-4ddf-b892-d2de59fea20d" d="M177.92,26.25c.36-.1.53,0,.69-.52.25-.75-.69-.67-.69-.67l-.53.17a4.16,4.16,0,0,0-1,.47c-.38.3-.9.75-.76,1.08s.76.41,1.63-.21A1.73,1.73,0,0,1,177.92,26.25Z"/><path class="f09ecd7d-ee24-4ddf-b892-d2de59fea20d" d="M168.91,9.63c.24-.22.39-.41.34-.62a.4.4,0,0,0-.46-.33l-.34.26a4.9,4.9,0,0,1-.77.53c-.24.08-.53.43-.48.57a.59.59,0,0,0,1,.2C168.42,10,168.7,9.82,168.91,9.63Z"/><path class="f09ecd7d-ee24-4ddf-b892-d2de59fea20d" d="M198.7,115.12a5.55,5.55,0,1,1-.07-2.57,5.36,5.36,0,0,1,.16,2C198.77,114.71,198.74,114.92,198.7,115.12Z"/><path class="a8f83645-befa-4a94-80ad-2f7764aec53e" d="M195.19,114.88a2.2,2.2,0,1,1-1-2.94A2.2,2.2,0,0,1,195.19,114.88Z"/><path class="b75d43dc-5eff-455d-9b76-83c7b0fcf72e" d="M167.68,9.47s-6-7.51-5.8-8.61S119.07,44.5,115.74,62.47a277.2,277.2,0,0,1-9.67,35.93"/><ellipse class="e4145683-8a84-4ee1-95c8-99f6800e397d" cx="92.03" cy="198.45" rx="62.95" ry="19.85"/><g class="e6ab265b-eb1e-4b0c-ae8b-187a86d235e5"><path class="ef4a741b-4dc0-4f4f-a0cd-43108e097b75" d="M105.1,101S79.18,111.9,70.6,146.62s8.91,59.77,8.91,59.77L54.87,232.61l27.91-3.44L102.19,243l-6.64-32.68s18-26.16,23.36-50.64C127.81,119.18,105.1,101,105.1,101Z"/><circle class="b6846e08-4a9f-4341-a797-0b11ef71785c" cx="99.84" cy="126.62" r="4.47"/><path class="f6beb3f4-5877-4cce-8f85-bf077cfb1861" d="M77.71,135.7s9.69,32.1,39.7,13.55l-2.67,11.85S98,176.92,74.34,148.49Z"/><path class="f6beb3f4-5877-4cce-8f85-bf077cfb1861" d="M73,152.13s9.72,32.09,40.2,13.43l-2.75,11.87s-17,15.88-40.91-12.5Z"/><path class="f6beb3f4-5877-4cce-8f85-bf077cfb1861" d="M70.1,168.33s9.57,32.12,38,13.93l-2.43,11.79s-15.82,15.61-38.65-13Z"/><path class="bf434c7d-4492-48ab-8cad-d890daacc3fe" d="M105.1,101S79.18,111.9,70.6,146.62s8.91,59.77,8.91,59.77L54.87,232.61l27.91-3.44L102.19,243l-6.64-32.68s18-26.16,23.36-50.64C127.81,119.18,105.1,101,105.1,101Z"/></g><path class="b1f7e996-0a1a-479b-904f-cd9bd2de89bf" d="M136.59,140.8s-7.57-13.89,6.93-20.2,16.5-2.52,19.65,2.53,1.23,9.24-9.42,10.71-12.16,7.78-12.16,7.78S139.63,144.72,136.59,140.8Z"/><path class="e4145683-8a84-4ee1-95c8-99f6800e397d" d="M137,130.24c2.34-4.72,6-9,11.3-10.4,3.36-.93,7.42-.84,10.48,1,4.47,2.72,3.76,7.91-1,9.85-7.09,2.87-17.35,1.29-18.33,11.44-.26,2.69,3.95,2.68,4.21,0,.74-7.73,15.32-5.46,20.09-10.19,4-3.92,3.19-9.49-.73-13.12-10-9.28-24.59-.92-29.65,9.27-1.2,2.42,2.42,4.55,3.63,2.12Z"/><path class="b1f7e996-0a1a-479b-904f-cd9bd2de89bf" d="M27.73,168.77S20.29,167,16.6,152.67s-15.24,2.86-15.24,2.86S3.14,176.33,22.48,177C22.48,177,29.2,177.91,27.73,168.77Z"/><path class="e4145683-8a84-4ee1-95c8-99f6800e397d" d="M21.62,174.19C15.11,174.7,10,171,6.87,165.48c-1.76-3.13-3.47-7.58-2.31-11.19,1.45-4.48,6.5-5.34,9.4-1.7,5,6.25,3.88,16.07,13.77,17.32,2.67.34,2.65-3.86,0-4.2-7.72-1-7-14-12.9-18.21-4.68-3.33-10.56-1.52-13.32,3.37-3.33,5.88-.61,13.44,2.89,18.6,3.95,5.83,10.07,9.48,17.22,8.92,2.68-.2,2.7-4.41,0-4.2Z"/><path class="bd7c6848-5332-4999-894a-36485cfdc858" d="M45.65,197.31s-.09-.15-.06-.16-1,.87.36-.15a22.15,22.15,0,0,1,5.9-3.23,4.31,4.31,0,0,0,2.93-5.17c-.56-2.06-3-3.72-5.17-2.94-4.58,1.68-11,4.5-12.24,9.79s3.12,10.16,8.28,10.27c5.41.12,5.41-8.29,0-8.41Z"/><path class="bd7c6848-5332-4999-894a-36485cfdc858" d="M134.93,196.1c3.2.9,6,2.06,3,5.33a13.68,13.68,0,0,1-9.83,3.88c-5.4.08-5.42,8.48,0,8.4,7.27-.1,15.41-3.53,18.63-10.46,3.66-7.87-2.49-13.27-9.54-15.26-5.22-1.47-7.44,6.64-2.24,8.11Z"/><path class="bd7c6848-5332-4999-894a-36485cfdc858" d="M156.17,123.76a1.92,1.92,0,0,1-.63,3.67c-1.33.22-.77,2.25.56,2a4,4,0,0,0,1.13-7.51c-1.19-.63-2.26,1.19-1.06,1.82Z"/><path class="bd7c6848-5332-4999-894a-36485cfdc858" d="M9.69,153a3.77,3.77,0,0,0-.35,7.32c1.27.47,1.82-1.56.56-2a1.69,1.69,0,0,1,.34-3.26c1.32-.3.76-2.33-.55-2Z"/><path class="aecb03b4-cdf7-4de9-b16e-e0d2142ab7ba" d="M44.87,194.64c-3,7.07,6.57,12.32,12,13.56,2.64.6,3.76-3.45,1.12-4-3.25-.74-11-3.82-9.09-8.4,1-2.49-3-3.58-4.06-1.11Z"/><path class="aecb03b4-cdf7-4de9-b16e-e0d2142ab7ba" d="M121.35,190a21.43,21.43,0,0,1,9.42,2.07c2.43,1.16,4.57-2.46,2.13-3.62a26.3,26.3,0,0,0-11.55-2.65c-2.71,0-2.71,4.21,0,4.2Z"/></g></g></svg>