<svg xmlns="http://www.w3.org/2000/svg" viewBox="0 0 112.42 112.42"><defs><style>.e2809a46-3593-431d-950b-104e7ea2c7d2{fill:#425771;}.a8a898c4-06c7-4689-9aa2-7188f3036027{fill:#fff;}.b56436c5-a25e-4441-9940-b9cbed353180{fill:#a3cbe0;}.f6968419-b924-4648-8410-b5e3c1d4c5c5{fill:#254964;}.a886f044-ec09-4abc-873d-9b2448860a70{fill:none;stroke:#366080;stroke-linecap:round;stroke-miterlimit:10;stroke-width:4px;}</style></defs><title>設定</title><g id="b882a580-d198-4873-8211-88cf1782e007" data-name="圖層 2"><g id="f896504e-4e4b-4fc8-b1e6-0143d01edf3f" data-name="圖層 1"><circle class="e2809a46-3593-431d-950b-104e7ea2c7d2" cx="56.21" cy="56.21" r="53.24" transform="translate(-11.41 98) rotate(-76.72)"/><path class="a8a898c4-06c7-4689-9aa2-7188f3036027" d="M56.21,6A50.26,50.26,0,1,1,6,56.21,50.26,50.26,0,0,1,56.21,6m0-5.95a56.21,56.21,0,1,0,56.21,56.21A56.28,56.28,0,0,0,56.21,0Z"/><circle class="b56436c5-a25e-4441-9940-b9cbed353180" cx="56.21" cy="56.21" r="44.1"/><path class="f6968419-b924-4648-8410-b5e3c1d4c5c5" d="M87.35,50.74H81.23a25.52,25.52,0,0,0-3.33-8.15l4.37-4.37a1.58,1.58,0,0,0,0-2.22l-5.68-5.68a1.59,1.59,0,0,0-2.23,0L70,34.65a25.69,25.69,0,0,0-8.11-3.41V25.07a1.57,1.57,0,0,0-1.58-1.57h-8a1.57,1.57,0,0,0-1.57,1.57v6.12a25.52,25.52,0,0,0-8.15,3.33l-4.37-4.36a1.56,1.56,0,0,0-2.22,0l-5.68,5.68a1.58,1.58,0,0,0,0,2.22l4.33,4.33a25.64,25.64,0,0,0-3.41,8.12H25.07a1.57,1.57,0,0,0-1.57,1.57v8a1.57,1.57,0,0,0,1.57,1.57h6.12a25.42,25.42,0,0,0,3.33,8.15L30.16,74.2a1.56,1.56,0,0,0,0,2.22l5.68,5.68a1.56,1.56,0,0,0,2.22,0l4.33-4.33a25.42,25.42,0,0,0,8.12,3.41v6.17a1.57,1.57,0,0,0,1.57,1.58h8a1.57,1.57,0,0,0,1.57-1.58V81.23a25.42,25.42,0,0,0,8.15-3.33l4.37,4.37a1.58,1.58,0,0,0,2.22,0l5.68-5.68a1.57,1.57,0,0,0,0-2.23L77.77,70a25.46,25.46,0,0,0,3.41-8.11h6.17a1.58,1.58,0,0,0,1.58-1.58v-8A1.57,1.57,0,0,0,87.35,50.74ZM56.21,69.37A13.16,13.16,0,1,1,69.37,56.21,13.16,13.16,0,0,1,56.21,69.37Z"/><path class="a886f044-ec09-4abc-873d-9b2448860a70" d="M59.29,35.9s13.24,1.66,16.55,14.37"/><path class="a886f044-ec09-4abc-873d-9b2448860a70" d="M36.17,62.27s1.61,5.69,8.24,11"/></g></g></svg>