<svg xmlns="http://www.w3.org/2000/svg" xmlns:xlink="http://www.w3.org/1999/xlink" viewBox="0 0 1400 1050"><defs><style>.bbc068db-1434-4eb1-9f6c-5e065a6be2ba{fill:url(#a5121cb8-d036-41d5-a6ec-295c1d71706b);}.bd01f1f4-b21f-4c9a-b3e9-539581b61b07{fill:#7bb7e4;}.e409cf73-f1f7-4dda-814a-2250e171e910{fill:#036eb8;}.a7242aa7-2532-4a24-bafa-f6543afa1e9d{fill:#fff;}.e789c8d8-276f-4f1b-88d8-65cf7224606f{fill:#727171;}.fdc22a5b-b940-47a4-8134-2c8f3f625b02{fill:#22ac38;}.ae4d3a9e-3c09-4ce4-8de1-354bb9e7db44{fill:#006934;}.ae472ef0-8592-4713-a04b-e7c0a52c64ee{fill:#f7f8f8;}.ac214762-55a5-4bbc-96ce-fa50a5152b64{fill:#dcdddd;}.a5b0fe6a-58f6-41d4-8e95-f3f73e474ada{fill:#615f5f;}.b308bec5-35ba-4365-b750-bab3e5faacfe,.b346941d-8d8b-4e29-8cf5-24ba9f2ebd1b,.bbb1c50e-ec7e-45f0-a015-fbaf3856f346,.be6f6250-9e4e-42a4-a37e-b140d9db8e8d,.e70c0023-39d8-4089-a7d4-0b90be3994a4,.f622c84a-29d9-46e1-b023-b0890e642c34{fill:none;}.b308bec5-35ba-4365-b750-bab3e5faacfe,.b346941d-8d8b-4e29-8cf5-24ba9f2ebd1b,.bbb1c50e-ec7e-45f0-a015-fbaf3856f346,.be6f6250-9e4e-42a4-a37e-b140d9db8e8d,.e70c0023-39d8-4089-a7d4-0b90be3994a4{stroke:#a7946e;}.b308bec5-35ba-4365-b750-bab3e5faacfe,.b346941d-8d8b-4e29-8cf5-24ba9f2ebd1b,.be6f6250-9e4e-42a4-a37e-b140d9db8e8d,.e70c0023-39d8-4089-a7d4-0b90be3994a4,.f622c84a-29d9-46e1-b023-b0890e642c34{stroke-linecap:round;}.b308bec5-35ba-4365-b750-bab3e5faacfe,.bbb1c50e-ec7e-45f0-a015-fbaf3856f346,.e70c0023-39d8-4089-a7d4-0b90be3994a4,.f622c84a-29d9-46e1-b023-b0890e642c34{stroke-miterlimit:10;}.bbb1c50e-ec7e-45f0-a015-fbaf3856f346,.e70c0023-39d8-4089-a7d4-0b90be3994a4{stroke-width:2.4px;}.a70243af-6ac6-4b7d-93ef-8fe7c82f78fa{fill:#a7946e;}.bcc720f8-303f-4b46-a4e2-ef5b12e7f60a{fill:#956134;}.b9e60caf-8a9c-4000-bee0-9cc3ae53719e{fill:#b28247;}.ab1519aa-735d-4ea2-9fe0-6d52f1ceacaa{fill:#7f4f21;}.b5d245e6-20ca-440f-9835-3e1126eff041{fill:#c9a063;}.f6a8ae7e-0dae-4fad-9dbe-69bcbc13e3fd{fill:#ddc58f;}.b308bec5-35ba-4365-b750-bab3e5faacfe,.be6f6250-9e4e-42a4-a37e-b140d9db8e8d{stroke-width:3.23px;}.b346941d-8d8b-4e29-8cf5-24ba9f2ebd1b,.be6f6250-9e4e-42a4-a37e-b140d9db8e8d{stroke-linejoin:round;}.b346941d-8d8b-4e29-8cf5-24ba9f2ebd1b{stroke-width:4.84px;}.ef11237b-3cc4-4b7e-a465-80500bfd4bac{fill:#8b8b8b;}.f563ca60-45a6-4c4c-8a6a-3eb8bbb4beaa{fill:#00a0e9;}.b1e8e003-a707-47fc-b192-cb813e968a50{fill:#f4f4f4;}.f622c84a-29d9-46e1-b023-b0890e642c34{stroke:#f4f4f4;stroke-width:4.09px;}.a62c08ba-b03d-4dbb-92cb-b71c2cfc1aa7{fill:#931d22;}.aa8ca50d-536f-45a0-a618-82477c422597{fill:#e60012;}.f67851e3-8fdb-4bc0-ae40-855a2865098c{fill:#eaeaea;}.e82f6142-3dd1-4b98-8ea0-52806dfeb3bf{fill:#827148;}.e29a5a28-8dbc-4c1b-88bd-7907c137de0b{fill:#fae5ef;}</style><linearGradient id="a5121cb8-d036-41d5-a6ec-295c1d71706b" x1="702.18" y1="-73.19" x2="702.18" y2="554.91" gradientUnits="userSpaceOnUse"><stop offset="0" stop-color="#5ec5f2"/><stop offset="0.32" stop-color="#c6e4f6"/><stop offset="0.5" stop-color="#fdf4f8"/><stop offset="0.59" stop-color="#e2d3c6"/><stop offset="0.68" stop-color="#cbb79b"/><stop offset="0.77" stop-color="#b9a17a"/><stop offset="0.86" stop-color="#ac9162"/><stop offset="0.93" stop-color="#a58754"/><stop offset="1" stop-color="#a2844f"/></linearGradient></defs><title>背景</title><g id="aeb4a3e2-4762-4bfe-94bb-e91600400ada" data-name="圖層 2"><g id="ef05ee6d-fcc6-442e-b6ac-97be5fe107d2" data-name="圖層 1"><rect class="bbc068db-1434-4eb1-9f6c-5e065a6be2ba" x="4.41" width="1395.55" height="494.96"/><path class="bd01f1f4-b21f-4c9a-b3e9-539581b61b07" d="M4.57,425.08a626.15,626.15,0,0,0,166.71,16.81c49.87-1.68,100.1-9.31,149.38-1.43,32.58,5.21,63.72,17.07,95.86,24.54,145.53,33.8,295.21-24.14,444.36-31.66,124.93-6.3,252.26,22.83,374.14-5.53,54.78-12.75,112.82-36.76,164.85-15.27V1050H0Z"/><path class="e409cf73-f1f7-4dda-814a-2250e171e910" d="M1171.83,442.21c32.42-1.2,63.68-10.18,95-17.91,15.6-3.85,31.36-7.49,47.36-9.32s31.26-1,47.19.65c5.06.52,9.84,0,14.87-.33s9.63,2.22,14.3,4.87c6.74,3.82,12.8-6.56,6.07-10.39-4.76-2.69-9.78-5.43-15.25-6.26-3.9-.59-7.6.13-11.5.34-7.13.39-14.15-1.17-21.24-1.73a167.4,167.4,0,0,0-24.12-.1c-33.1,2.14-64.92,12.13-97,19.67-18.32,4.3-36.8,7.79-55.64,8.49-7.71.29-7.75,12.31,0,12Z"/><path class="e409cf73-f1f7-4dda-814a-2250e171e910" d="M665,465.77c40.21-8.16,80.45-17.78,121.08-23.62C827,436.27,868.8,437,910,437.23q35.84.18,71.67,1.08c7.74.19,7.73-11.84,0-12-42.33-1-84.71-1.58-127.05-.85-20.85.37-41.71,1.29-62.42,3.87-20.47,2.55-40.68,6.69-60.89,10.78l-69.5,14.1c-7.57,1.53-4.37,13.12,3.2,11.59Z"/><path class="e409cf73-f1f7-4dda-814a-2250e171e910" d="M391.8,458.37c38.33,1.39,74.71,18.86,113.45,15.19,7.64-.72,7.71-12.75,0-12-38.61,3.66-75.15-13.8-113.45-15.2-7.74-.28-7.73,11.74,0,12Z"/><path class="a7242aa7-2532-4a24-bafa-f6543afa1e9d" d="M1374.2,422.09a33,33,0,0,1,20.59,2.49c3.48,1.64,6.54-3.54,3-5.19a39.83,39.83,0,0,0-25.23-3.09c-3.79.75-2.18,6.54,1.6,5.79Z"/><path class="e789c8d8-276f-4f1b-88d8-65cf7224606f" d="M1301.79,981.75c0,36.63-44.24,32.91-106.27,32.91s-118.36,3.72-118.36-32.91S1133.49,882,1195.52,882,1301.79,945.12,1301.79,981.75Z"/><path class="fdc22a5b-b940-47a4-8134-2c8f3f625b02" d="M1245.76,1014.49c.92-11.75,1.65-24.08-2.92-35.22s-14.17-19.53-23.32-27c-4.78-3.88-9.75-7.51-14.86-10.94-4.62-3.09-9.71-6.2-12.41-11.24-5.62-10.51.72-23.39,6.35-32.46,3.08-4.94-4.72-9.47-7.78-4.55-5.78,9.31-10.74,20.37-9.47,31.59,1.36,12,10.06,18.62,19.4,24.88,10.77,7.22,22.64,15.83,30.17,26.57,7.89,11.25,6.84,25.33,5.83,38.35-.46,5.78,8.56,5.76,9,0Z"/><path class="fdc22a5b-b940-47a4-8134-2c8f3f625b02" d="M1241,1019c14.47-13.58,25.27-34.09,14.43-53.18-5.31-9.34-14-16.17-19.38-25.46-2.93-5.08-4.42-10.66-2.54-16.39s6.06-10.26,9.85-14.62-2.56-10.77-6.38-6.38c-6.78,7.81-14,16.71-13.35,27.7.63,10.33,7.23,18.86,13.73,26.38,7,8.09,14.71,16.55,13.54,28-1.11,10.89-8.58,20.3-16.27,27.52-4.24,4,2.14,10.35,6.37,6.38Z"/><path class="fdc22a5b-b940-47a4-8134-2c8f3f625b02" d="M1250.56,1021.58c8.66-.45,13.4-7.3,16.56-14.66,4.42-10.3,8.49-20.87,10.86-31.86a80.87,80.87,0,0,0,1-31.3c-1.45-8.12-8.79-25.15,3.25-28.93,5.52-1.73,3.16-10.43-2.4-8.69-7.79,2.44-12.59,9.43-13.29,17.46-.95,10.84,4.49,21.3,4.55,32.2s-2.61,21.71-6.16,32c-1.86,5.39-3.89,10.8-6.26,16-1.56,3.41-3.8,8.52-8.15,8.75-5.77.3-5.8,9.32,0,9Z"/><path class="ae4d3a9e-3c09-4ce4-8de1-354bb9e7db44" d="M1276,911.64a15.68,15.68,0,0,0-2.74,13.16c.43,1.88,3.33,1.08,2.9-.8a12.78,12.78,0,0,1,2.44-10.84c1.16-1.55-1.45-3-2.6-1.52Z"/><path class="ae4d3a9e-3c09-4ce4-8de1-354bb9e7db44" d="M1271.1,942.31c5.72,15.23-2.12,30.32-6.31,44.86a1.51,1.51,0,0,0,2.9.8c4.35-15.1,12.24-30.66,6.31-46.46-.67-1.8-3.58-1-2.9.8Z"/><path class="ae4d3a9e-3c09-4ce4-8de1-354bb9e7db44" d="M1239.46,907.82a19.78,19.78,0,0,0-9.1,20.93c.4,1.89,3.3,1.09,2.9-.8a16.62,16.62,0,0,1,7.72-17.53c1.63-1,.12-3.64-1.52-2.6Z"/><path class="ae4d3a9e-3c09-4ce4-8de1-354bb9e7db44" d="M1230.7,942.61c4.63,7.88,10.27,14.8,15.55,22.21,6,8.42,6.09,17.4,5.36,27.32-.15,1.93,2.86,1.92,3,0,.67-9,.92-18.09-3.94-26.11-5.26-8.66-12.21-16.14-17.37-24.93a1.5,1.5,0,0,0-2.6,1.51Z"/><path class="ae4d3a9e-3c09-4ce4-8de1-354bb9e7db44" d="M1239.44,1017.37a141.67,141.67,0,0,0,.57-32c-.8-8-1.21-17.44-8.26-22.61-14.72-10.8-44-13-44.24-36.79a1.51,1.51,0,0,0-3,0c.18,18.85,19.64,27.29,34.33,33.63,4.43,1.92,10,3.77,13.3,7.43,3.91,4.35,4.19,11.94,4.77,17.4a141.35,141.35,0,0,1-.47,32.89c-.25,1.91,2.76,1.89,3,0Z"/><path class="ae472ef0-8592-4713-a04b-e7c0a52c64ee" d="M1190.38,898.84,1186,909c-.77,1.75,1.82,3.29,2.59,1.52l4.42-10.13c.77-1.76-1.82-3.29-2.6-1.52Z"/><path class="ae472ef0-8592-4713-a04b-e7c0a52c64ee" d="M1262.15,994.47c-1.77,11.1-10.86,18-19.37,24.24-1.55,1.13,0,3.74,1.51,2.6,9.14-6.7,18.86-14.14,20.76-26,.3-1.89-2.6-2.71-2.9-.8Z"/><path class="fdc22a5b-b940-47a4-8134-2c8f3f625b02" d="M1071.35,1018c.69-11.55,1.24-23.2-.93-34.63s-7.89-21.09-14.89-30.31c-6.66-8.78-14.37-17.85-16.13-29.1-1.93-12.28,6.36-20.24,16.34-25.62,5.11-2.75.56-10.54-4.55-7.79-9.33,5-18.22,12.49-20.48,23.35-2.4,11.52,2.41,23.15,8.76,32.55,7.19,10.65,16.67,20,20.58,32.54s3.06,26,2.28,39c-.34,5.8,8.67,5.78,9,0Z"/><path class="fdc22a5b-b940-47a4-8134-2c8f3f625b02" d="M1073.44,1013c-2.85-11.59-5.86-24.07-3.65-36a35.92,35.92,0,0,1,8.1-16.6c3.6-4.42,6.91-8.72,7.76-14.52,1.77-12.12-6.17-22.09-11.74-32-2.94-5.22-5.2-10.83-4.11-16.9a21.8,21.8,0,0,1,9.83-14.34c4.86-3.14.34-10.95-4.55-7.78-9.72,6.28-15.87,17.34-14.32,29.06,1.83,13.88,15.36,23.69,16.11,37.58.4,7.35-5.19,11.72-9.09,17.2a41.57,41.57,0,0,0-7.06,18.15c-1.9,12.94,1,26,4,38.57,1.39,5.63,10.08,3.25,8.7-2.4Z"/><path class="fdc22a5b-b940-47a4-8134-2c8f3f625b02" d="M1073.87,1013.85c7.34-6.68,15-13.67,19.6-22.61,5.21-10.1,5.59-21.5,5-32.62-.31-6-.91-11.87-1.76-17.77s-3.06-12.83.11-18.29c5.69-9.79,19.77-9.77,29.58-10,5.8-.14,5.82-9.15,0-9-10.88.26-22.5.83-31.42,7.84-9.68,7.61-9.14,17.82-7.4,29,2,12.53,3.86,27,.65,39.5-3,11.63-12.18,19.85-20.74,27.64-4.31,3.91,2.09,10.27,6.37,6.37Z"/><path class="ae4d3a9e-3c09-4ce4-8de1-354bb9e7db44" d="M1071.19,1017.21c11.5-13.42,25.91-27.6,29.42-45.64,3.31-17-8.8-41.71,8.32-54.07,1.56-1.12.06-3.73-1.51-2.59-15.16,10.94-9.69,30-9.07,45.77.88,22.22-15.85,38.72-29.28,54.4-1.25,1.46.86,3.6,2.12,2.13Z"/><path class="ae4d3a9e-3c09-4ce4-8de1-354bb9e7db44" d="M1042.76,905.24c-5.7,5.54-9.22,13.18-7.4,21.21,2.12,9.34,9.81,16,16.5,22.2,8.39,7.79,14.19,16.38,16.72,27.67,2.67,11.93,1.67,24.28.73,36.35-.15,1.93,2.86,1.92,3,0,1.46-18.75,2.66-39.42-8.69-55.63-5.26-7.51-12.94-12.69-18.87-19.58-8.1-9.43-9.2-21,.13-30.1,1.39-1.35-.73-3.47-2.12-2.12Z"/><path class="ae4d3a9e-3c09-4ce4-8de1-354bb9e7db44" d="M1075.67,919.22c5.2,11.74,9.27,23.75,3,35.9-4.28,8.28-6.71,15.82-4.53,25.19.44,1.88,3.34,1.08,2.9-.8a27.81,27.81,0,0,1,2.27-19.22c2.24-4.52,4.74-8.56,5.52-13.63,1.54-10-2.58-20-6.56-29-.78-1.76-3.37-.23-2.6,1.52Z"/><path class="ae472ef0-8592-4713-a04b-e7c0a52c64ee" d="M1118.3,912.33h3.79a1.5,1.5,0,0,0,0-3h-3.79a1.5,1.5,0,0,0,0,3Z"/><path class="ae472ef0-8592-4713-a04b-e7c0a52c64ee" d="M1068.42,893a28.48,28.48,0,0,0-.23,21.83c.71,1.78,3.61,1,2.9-.8a26,26,0,0,1,.23-20.23c.75-1.78-2.16-2.56-2.9-.8Z"/><path class="ae472ef0-8592-4713-a04b-e7c0a52c64ee" d="M1050.26,957.78a30.35,30.35,0,0,1,8,19.17c.09,1.93,3.1,1.94,3,0a33.7,33.7,0,0,0-8.87-21.3c-1.3-1.44-3.42.7-2.12,2.13Z"/><path class="a7242aa7-2532-4a24-bafa-f6543afa1e9d" d="M1100.1,902.71c3.86,0,3.87-6,0-6s-3.88,6,0,6Z"/><path class="a7242aa7-2532-4a24-bafa-f6543afa1e9d" d="M1113.57,888.42c3.87,0,3.88-6,0-6s-3.87,6,0,6Z"/><path class="a7242aa7-2532-4a24-bafa-f6543afa1e9d" d="M1075.25,868.17c3.87,0,3.87-6,0-6s-3.87,6,0,6Z"/><path class="a7242aa7-2532-4a24-bafa-f6543afa1e9d" d="M1051.25,849.9c3.86,0,3.87-6,0-6s-3.88,6,0,6Z"/><path class="a7242aa7-2532-4a24-bafa-f6543afa1e9d" d="M1087.88,825.68c3.87,0,3.88-6,0-6s-3.87,6,0,6Z"/><path class="a7242aa7-2532-4a24-bafa-f6543afa1e9d" d="M1098.83,806.62c3.87,0,3.88-6,0-6s-3.87,6,0,6Z"/><path class="a7242aa7-2532-4a24-bafa-f6543afa1e9d" d="M1097.57,774.06c3.87,0,3.87-6,0-6s-3.88,6,0,6Z"/><path class="a7242aa7-2532-4a24-bafa-f6543afa1e9d" d="M1224.33,883.26c3.86,0,3.87-6,0-6s-3.88,6,0,6Z"/><path class="a7242aa7-2532-4a24-bafa-f6543afa1e9d" d="M1252.12,864.2c3.87,0,3.87-6,0-6s-3.88,6,0,6Z"/><path class="a7242aa7-2532-4a24-bafa-f6543afa1e9d" d="M1226.43,845.14c3.87,0,3.88-6,0-6s-3.87,6,0,6Z"/><path class="a7242aa7-2532-4a24-bafa-f6543afa1e9d" d="M1238.64,821.31c3.87,0,3.88-6,0-6s-3.87,6,0,6Z"/><path class="a7242aa7-2532-4a24-bafa-f6543afa1e9d" d="M1254.22,804.23c3.87,0,3.88-6,0-6s-3.87,6,0,6Z"/><path class="a7242aa7-2532-4a24-bafa-f6543afa1e9d" d="M1251.28,787.56c3.86,0,3.87-6,0-6s-3.88,6,0,6Z"/><path class="fdc22a5b-b940-47a4-8134-2c8f3f625b02" d="M216.08,1025c8.69-12,17.69-24.88,18.06-40.23.36-14.71-7.81-24.16-19.2-32.13-5.45-3.81-11.17-7.68-13.21-14.37-2.13-7-.75-15.32.88-22.24a65,65,0,0,1,22.92-36.53c4.55-3.6-1.87-9.94-6.38-6.38a72.27,72.27,0,0,0-23.8,35.24c-3.94,12.59-6.59,29.34,1.85,40.66,7.85,10.53,23.33,14.08,27,27.73,4.41,16.21-7,31.38-15.94,43.69-3.42,4.71,4.4,9.21,7.78,4.56Z"/><path class="fdc22a5b-b940-47a4-8134-2c8f3f625b02" d="M224,1033.06c20.74-12.35,28.92-40.39,15.84-61.2C236.19,966,231.36,961,228,955c-3.9-7.05-4.19-14.93-1.92-22.57,4.51-15.14,17.58-25.81,29.34-35.42,4.5-3.67-1.92-10-6.38-6.37-11.58,9.47-23.48,19.7-29.56,33.75-5.44,12.58-5.17,26.21,2.36,37.85,7.09,10.94,15.94,19.43,15.39,33.4a36.48,36.48,0,0,1-17.79,29.68c-5,3-.45,10.77,4.55,7.79Z"/><path class="fdc22a5b-b940-47a4-8134-2c8f3f625b02" d="M242.15,1020.1c-7.26-9.26,4.68-20.33,11.07-25.76,7.82-6.65,15-13.36,19.68-22.67a58.37,58.37,0,0,0,6.32-26.91,75.21,75.21,0,0,0-1.91-14c-1-4.67-2.56-10.77.75-14.88,3.61-4.48-2.73-10.9-6.37-6.38-7.35,9.13-3.43,19.15-1.91,29.55A48.88,48.88,0,0,1,262,972.53c-6.74,10.29-18.17,15.92-25.34,25.78-6.21,8.53-7.59,19.6-.87,28.16,3.57,4.57,9.91-1.85,6.37-6.37Z"/><path class="ae4d3a9e-3c09-4ce4-8de1-354bb9e7db44" d="M248.32,897.34c-10.93,15.47-33.48,29.66-30.17,51.41,1.55,10.15,8.89,18.32,11.58,28.13A49.93,49.93,0,0,1,226,1012.5c-.87,1.73,1.73,3.25,2.59,1.52a53.23,53.23,0,0,0,5.73-28.45c-.89-10.5-5.51-18.65-10-27.92-12-25,14-40.91,26.59-58.79,1.12-1.59-1.49-3.09-2.6-1.52Z"/><path class="ae4d3a9e-3c09-4ce4-8de1-354bb9e7db44" d="M242.36,1020.91C239.2,1003.75,255.91,991.27,265,979c8.4-11.33,14.13-24.82,11.11-39.08-.4-1.89-3.3-1.09-2.9.8,3.75,17.7-7.11,33-18.12,45.69-8.71,10-18.27,21.07-15.64,35.3.35,1.9,3.24,1.1,2.89-.8Z"/><path class="ae4d3a9e-3c09-4ce4-8de1-354bb9e7db44" d="M193.42,912.09c.36,18.21,3.08,35.56,16.23,49.11,6.84,7,14.24,13.22,18.47,22.31a45.12,45.12,0,0,1,2.56,30.61,1.51,1.51,0,0,0,2.9.8c4.62-17.45-.92-34.81-13.37-47.55C212.72,959.7,205,953,201,942.75c-3.77-9.72-4.38-20.34-4.59-30.66,0-1.93-3-1.94-3,0Z"/><path class="ae472ef0-8592-4713-a04b-e7c0a52c64ee" d="M218.77,880.17a18.18,18.18,0,0,0-9.58,11.48,1.51,1.51,0,0,0,2.9.8,15.23,15.23,0,0,1,8.2-9.68c1.74-.86.21-3.45-1.52-2.6Z"/><path class="ae472ef0-8592-4713-a04b-e7c0a52c64ee" d="M275.43,918.85l-.72,8.33c-.17,1.93,2.84,1.92,3,0l.73-8.33c.17-1.93-2.84-1.91-3,0Z"/><path class="ae472ef0-8592-4713-a04b-e7c0a52c64ee" d="M233.69,969.9A128,128,0,0,1,237,989.72c.17,1.92,3.17,1.93,3,0a134.33,134.33,0,0,0-3.44-20.61c-.47-1.88-3.37-1.09-2.9.79Z"/><path class="a7242aa7-2532-4a24-bafa-f6543afa1e9d" d="M294.27,965.19c3.87,0,3.87-6,0-6s-3.88,6,0,6Z"/><path class="a7242aa7-2532-4a24-bafa-f6543afa1e9d" d="M258.89,958.44c3.87,0,3.88-6,0-6s-3.87,6,0,6Z"/><path class="a7242aa7-2532-4a24-bafa-f6543afa1e9d" d="M288.37,926.67c3.87,0,3.88-6,0-6s-3.87,6,0,6Z"/><path class="a7242aa7-2532-4a24-bafa-f6543afa1e9d" d="M282.05,892.52c3.87,0,3.88-6,0-6s-3.87,6,0,6Z"/><path class="a7242aa7-2532-4a24-bafa-f6543afa1e9d" d="M267.74,848c3.86,0,3.87-6,0-6s-3.88,6,0,6Z"/><path class="a7242aa7-2532-4a24-bafa-f6543afa1e9d" d="M224.78,847.65c3.87,0,3.88-6,0-6s-3.87,6,0,6Z"/><path class="a7242aa7-2532-4a24-bafa-f6543afa1e9d" d="M190.25,855.59c3.87,0,3.88-6,0-6s-3.87,6,0,6Z"/><path class="a7242aa7-2532-4a24-bafa-f6543afa1e9d" d="M178.88,840.9c3.87,0,3.88-6,0-6s-3.87,6,0,6Z"/><path class="a7242aa7-2532-4a24-bafa-f6543afa1e9d" d="M227.73,865.52c3.87,0,3.88-6,0-6s-3.87,6,0,6Z"/><path class="a7242aa7-2532-4a24-bafa-f6543afa1e9d" d="M181.41,883c3.87,0,3.87-6,0-6s-3.88,6,0,6Z"/><path class="a7242aa7-2532-4a24-bafa-f6543afa1e9d" d="M229,821c3.87,0,3.88-6,0-6s-3.87,6,0,6Z"/><path class="ac214762-55a5-4bbc-96ce-fa50a5152b64" d="M623.64,922.71c1.55-2.28,6.74-1.78,9.06-1.43a19.7,19.7,0,0,1,8.56,3.56c2.13,1.5,4.14-2,2-3.48-5.58-3.94-18.36-7.71-23.14-.69-1.46,2.15,2,4.17,3.48,2Z"/><path class="e789c8d8-276f-4f1b-88d8-65cf7224606f" d="M722.09,997.17c0,16.67-28.54,18.94-63.76,18.94s-63.76-2.27-63.76-18.94,28.54-41.42,63.76-41.42S722.09,980.5,722.09,997.17Z"/><path class="fdc22a5b-b940-47a4-8134-2c8f3f625b02" d="M699.62,1007.3c-1.89-19.84-20.94-39.13-11.86-59.31,9.63-21.43,35.31-28.13,55.91-33.75,5.59-1.53,3.22-10.23-2.4-8.7-22.65,6.18-49,13.9-60.6,36.45-5.16,10-5.49,20.84-2,31.48,3.69,11.33,10.8,21.76,12,33.83.55,5.72,9.57,5.78,9,0Z"/><path class="fdc22a5b-b940-47a4-8134-2c8f3f625b02" d="M692.73,996.51l-17.61-47.92c-2.06-5.62-3.51-13.13-9.17-16.31-5.81-3.26-14.44-3.07-20.89-4-5.68-.83-8.13,7.86-2.4,8.7l9.79,1.43c2.53.37,6.71.26,8.95,1.67,2.4,1.52,3.11,5.71,4,8.16l3.72,10.14L684,998.9c2,5.4,10.7,3.07,8.69-2.39Z"/><path class="fdc22a5b-b940-47a4-8134-2c8f3f625b02" d="M701.75,1009.26C691.51,990.74,679.82,970,683.13,948c3-19.78,23.87-34,18.91-55.28-1.31-5.64-10-3.25-8.69,2.4,2.61,11.22-5.5,21-10.94,30a57.63,57.63,0,0,0-8.77,28.63c-.63,21.79,10.1,41.57,20.33,60.07,2.81,5.08,10.6.54,7.78-4.55Z"/><path class="fdc22a5b-b940-47a4-8134-2c8f3f625b02" d="M705.58,1004.8c-.65-4.55-1.41-9.64.25-14.06,1.77-4.7,6.27-7.33,10.37-9.79,8.33-5,17.17-9.15,25.12-14.76a76.19,76.19,0,0,0,17.55-17.79c4.85-6.59,9.75-14.11,17.64-17.33,5.3-2.16,3-10.89-2.4-8.69-8.74,3.56-14.57,10-20.09,17.46-6.63,8.95-13.15,16.28-22.78,22.18-9.13,5.59-19.72,9.75-27.8,16.89-8.48,7.48-8,18-6.55,28.29.83,5.72,9.52,3.29,8.69-2.4Z"/><path class="ae4d3a9e-3c09-4ce4-8de1-354bb9e7db44" d="M761.5,942.65c-6,7.61-12.27,15.41-20.37,20.9-8.76,5.94-18.17,6.19-28,8.73-18.9,4.87-23.64,28.34-22.08,45.32.17,1.91,3.18,1.93,3,0a56.83,56.83,0,0,1,5.55-31c5.29-10.36,14.73-11.56,25.07-13.41,17.36-3.1,28.48-15.14,39-28.41,1.19-1.5-.92-3.64-2.12-2.13Z"/><path class="ae4d3a9e-3c09-4ce4-8de1-354bb9e7db44" d="M720.18,919.8c-16.13,8.15-29.87,17.61-35.79,35.5-6.07,18.34-2,37.86,5.21,55.22.73,1.77,3.64,1,2.9-.79-6.79-16.42-10.92-34.68-5.68-52.14a48.55,48.55,0,0,1,12.2-20.7c6.45-6.36,14.68-10.45,22.68-14.49,1.72-.87.2-3.47-1.52-2.6Z"/><path class="ae4d3a9e-3c09-4ce4-8de1-354bb9e7db44" d="M660.45,940.2c6.88,2.45,10.53,9.42,13.48,15.65A80.78,80.78,0,0,1,680.29,976c.34,1.9,3.24,1.09,2.89-.8-2.35-12.89-8.1-32.94-21.94-37.88-1.82-.65-2.61,2.25-.79,2.9Z"/><path class="ae472ef0-8592-4713-a04b-e7c0a52c64ee" d="M771.25,928.36,764,937.1c-1.22,1.48.89,3.62,2.12,2.13l7.22-8.74c1.22-1.48-.9-3.62-2.13-2.13Z"/><path class="ae472ef0-8592-4713-a04b-e7c0a52c64ee" d="M697.16,908.31c-6.84,12-13.52,24.33-14.64,38.38-.16,1.93,2.85,1.92,3,0,1.07-13.47,7.69-25.33,14.23-36.87a1.5,1.5,0,0,0-2.59-1.51Z"/><path class="fdc22a5b-b940-47a4-8134-2c8f3f625b02" d="M574.31,1019.76a49.27,49.27,0,0,0,19-22.85c4-9.56,6.77-21.71,1.69-31.33-5.32-10.09-16.49-17-17.91-29.1-1.39-11.85,8.78-21.64,16.4-29.27,4.11-4.11-2.27-10.49-6.37-6.38-7.41,7.42-15.33,15.67-18.16,26.06-2.9,10.65,1.18,20.69,7.52,29.2,3.19,4.3,7.17,8.13,10,12.7,3.28,5.36,2.41,11.5,1,17.33-2.58,10.5-8.43,20-17.63,25.85-4.88,3.12-.36,10.92,4.55,7.79Z"/><path class="fdc22a5b-b940-47a4-8134-2c8f3f625b02" d="M588.13,902.92a72,72,0,0,0-10.61,27.81c-.71,4.86-.89,10,.67,14.7,1.45,4.44,4.53,7.82,6.74,11.84,2.33,4.26,3.2,9.17,4.08,13.89,1,5.54,1.92,11.24,1.17,16.88-1.49,11.26-11.22,20.45-18,29-3.57,4.5,2.77,10.92,6.38,6.37,6.5-8.19,14.48-16.37,18.44-26.19s2.25-20.76.21-30.92a46.53,46.53,0,0,0-4.52-13.55c-2.55-4.57-6.17-8.19-6.66-13.68-1-10.87,4.21-22.61,9.86-31.57,3.11-4.92-4.69-9.45-7.78-4.55Z"/><path class="fdc22a5b-b940-47a4-8134-2c8f3f625b02" d="M611.47,1015c-3.29-3.56-6.28-7.76-7.09-12.64-.87-5.28,1.71-9.33,4.94-13.23,6-7.28,11.45-14.24,14.71-23.27,3.39-9.37,3.5-17.94-.84-26.92-2.23-4.62-3.48-8.76-.24-13.31s8.73-6.77,13.72-8.57c5.42-2,3.08-10.68-2.39-8.7-9.77,3.53-20.44,9.31-22.29,20.59-.93,5.65,1.48,10.29,3.77,15.26,3,6.46,2,12.75-.42,19.25a52.2,52.2,0,0,1-9.19,15.61c-3.46,4.13-7.3,8-9.39,13.06-4.39,10.61,1.12,21.44,8.34,29.24,3.95,4.27,10.31-2.12,6.37-6.37Z"/><path class="fdc22a5b-b940-47a4-8134-2c8f3f625b02" d="M563.92,1027.23c14.82-5.25,29.06-22.7,23-39.29-3.16-8.65-12.66-10.84-20.33-13.81-4.79-1.86-10.23-4.68-9.92-10.58s5.5-10.21,9.59-13.71c4.41-3.78-2-10.13-6.37-6.37-6.71,5.75-13.25,13.23-12.17,22.73,1,8.59,8.26,13.43,15.69,16.33,4,1.58,8.7,2.55,12.27,5.13,4,2.93,3.79,8.41,2.67,12.8a26.43,26.43,0,0,1-16.84,18.08c-5.43,1.92-3.09,10.64,2.4,8.69Z"/><path class="fdc22a5b-b940-47a4-8134-2c8f3f625b02" d="M622.69,1018.51c-4.29-7.5,5.08-14.36,10-18.55,5.43-4.62,10.07-9.73,13-16.29s3.41-13.21,3.84-20.42c.54-9.09,6-13.36,13.23-18,4.87-3.13.35-10.94-4.55-7.79-6.7,4.3-13.64,9.11-16.32,17-1.54,4.53-1.25,9.31-1.55,14a32.1,32.1,0,0,1-3.82,13.46c-7.09,12.91-32,23-21.67,41.14,2.88,5,10.67.5,7.79-4.55Z"/><path class="ae4d3a9e-3c09-4ce4-8de1-354bb9e7db44" d="M661.92,946.93a32.52,32.52,0,0,0-15.36,15c-3.56,7.47-3.46,15.87-5,23.84-1,4.83-2.63,9.31-5.93,13-2.79,3.17-6.37,5.54-9.53,8.31a36.53,36.53,0,0,0-11.74,19.79c-.42,1.89,2.48,2.69,2.9.8,2-9,7-15.3,14-21,5.45-4.45,9.89-8.82,12.07-15.7,2.28-7.19,2.08-14.87,4-22.15a29.38,29.38,0,0,1,16.15-19.3c1.74-.85.22-3.44-1.51-2.6Z"/><path class="ae4d3a9e-3c09-4ce4-8de1-354bb9e7db44" d="M618.88,929l1.9,15.65c.6,4.91,1.93,10.43.82,15.34-2,8.57-11,13.64-16.14,20.19a42.49,42.49,0,0,0-6.07,41.35c.69,1.79,3.6,1,2.9-.8A39.38,39.38,0,0,1,601.12,995c2.49-8.41,7.67-14.48,13.84-20.48,4.55-4.42,9.11-9.22,9.87-15.81.54-4.66-.48-9.5-1-14.12L621.89,929c-.23-1.89-3.24-1.92-3,0Z"/><path class="ae4d3a9e-3c09-4ce4-8de1-354bb9e7db44" d="M581.58,916.6c-2.79,10.31-5.64,21-4.72,31.81,1,11.41,8.16,20.7,8.18,32.31,0,5.62-.81,11.21-1,16.82-.15,3.81-.35,8.2,1.5,11.69s5.14,5.19,8.56,6.65c5.09,2.19,10.3,4.15,15.45,6.22,1.8.72,2.58-2.18.8-2.9-4.64-1.86-9.3-3.68-13.92-5.59-6-2.47-9.22-5.53-9.45-12.33-.3-8.86,1.9-17.62.74-26.49-1.25-9.59-7.22-17.46-7.9-27.27-.7-10.22,2-20.34,4.68-30.12a1.5,1.5,0,0,0-2.89-.8Z"/><path class="ae4d3a9e-3c09-4ce4-8de1-354bb9e7db44" d="M561.36,957.34c-3.22,7.13-6.79,16.16-1.42,23.25,2.32,3.07,5.79,4.44,9.2,6,5,2.25,8.11,5.24,10.05,10.39,2.46,6.53,3.52,13.72,9.26,18.35,6.37,5.15,15.28,5.65,23.11,6,1.93.09,1.93-2.92,0-3-7.45-.33-16.46-.67-22.18-6.16-4.81-4.61-5.42-11.69-7.91-17.56S575,986,569.28,983.38c-4.78-2.15-8.61-4.89-9.08-10.65-.39-4.86,1.81-9.57,3.75-13.87.79-1.75-1.8-3.28-2.59-1.52Z"/><path class="ae472ef0-8592-4713-a04b-e7c0a52c64ee" d="M586.28,948.18a54.61,54.61,0,0,0,2.24,23.65c.59,1.84,3.49,1.06,2.9-.79a52.72,52.72,0,0,1-2.13-22.86c.23-1.91-2.78-1.9-3,0Z"/><path class="ae472ef0-8592-4713-a04b-e7c0a52c64ee" d="M591.82,906.86,587.5,910A1.57,1.57,0,0,0,587,912a1.52,1.52,0,0,0,2.06.54l4.32-3.11a1.55,1.55,0,0,0,.53-2.06,1.51,1.51,0,0,0-2-.54Z"/><path class="ae472ef0-8592-4713-a04b-e7c0a52c64ee" d="M561.25,949.46a19.21,19.21,0,0,0-4,16.33c.4,1.9,3.3,1.1,2.9-.79a16,16,0,0,1,3.21-13.41c1.2-1.5-.92-3.64-2.12-2.13Z"/><path class="ae472ef0-8592-4713-a04b-e7c0a52c64ee" d="M636.17,983.53a44.21,44.21,0,0,1-17.78,22.86c-1.6,1.06-.1,3.67,1.52,2.59a47.54,47.54,0,0,0,19.16-24.65c.62-1.84-2.28-2.62-2.9-.8Z"/><path class="a7242aa7-2532-4a24-bafa-f6543afa1e9d" d="M598.53,929.24c3.87,0,3.87-6,0-6s-3.87,6,0,6Z"/><path class="a7242aa7-2532-4a24-bafa-f6543afa1e9d" d="M616.22,907.4c3.87,0,3.87-6,0-6s-3.88,6,0,6Z"/><path class="a7242aa7-2532-4a24-bafa-f6543afa1e9d" d="M609.06,889.53c3.87,0,3.87-6,0-6s-3.88,6,0,6Z"/><path class="a7242aa7-2532-4a24-bafa-f6543afa1e9d" d="M624.64,866.5c3.87,0,3.87-6,0-6s-3.87,6,0,6Z"/><path class="a7242aa7-2532-4a24-bafa-f6543afa1e9d" d="M786.77,959.82c3.87,0,3.87-6,0-6s-3.88,6,0,6Z"/><path class="a7242aa7-2532-4a24-bafa-f6543afa1e9d" d="M772.87,918.92c3.87,0,3.88-6,0-6s-3.87,6,0,6Z"/><path class="a7242aa7-2532-4a24-bafa-f6543afa1e9d" d="M749.29,892.71c3.87,0,3.87-6,0-6s-3.87,6,0,6Z"/><path class="a7242aa7-2532-4a24-bafa-f6543afa1e9d" d="M765.29,871.27c3.87,0,3.88-6,0-6s-3.87,6,0,6Z"/><path class="a7242aa7-2532-4a24-bafa-f6543afa1e9d" d="M770.77,850.62c3.87,0,3.87-6,0-6s-3.88,6,0,6Z"/><path class="a7242aa7-2532-4a24-bafa-f6543afa1e9d" d="M727,847c3.87,0,3.88-6,0-6s-3.87,6,0,6Z"/><path class="a5b0fe6a-58f6-41d4-8e95-f3f73e474ada" d="M649.72,1004c3.8-5.63,12.21-3.8,17.75-2.71,5.07,1,7.24-6.78,2.14-7.78-9.66-1.9-20.64-2.79-26.86,6.42-2.91,4.31,4.07,8.35,7,4.07Z"/><path class="a5b0fe6a-58f6-41d4-8e95-f3f73e474ada" d="M616.49,983l.27.1-1-.41a4.26,4.26,0,0,1,.87.52l-.82-.64a4.93,4.93,0,0,1,.6.61l-.63-.81a4.67,4.67,0,0,1,.42.72l-.41-1,0,.13a4.43,4.43,0,0,0,1.86,2.41,4,4,0,0,0,5.51-1.45,3.89,3.89,0,0,0,.41-3.1,7.79,7.79,0,0,0-1.89-3.06,8.17,8.17,0,0,0-3.14-1.84,4,4,0,0,0-4.55,5.92,4.47,4.47,0,0,0,2.41,1.86Z"/><path class="a5b0fe6a-58f6-41d4-8e95-f3f73e474ada" d="M658.87,972.6l3.32-1.56a4.09,4.09,0,0,0,1.86-2.41,4,4,0,0,0-5.93-4.56l-3.32,1.56A4,4,0,0,0,653,968a4,4,0,0,0,5.92,4.56Z"/><path class="ac214762-55a5-4bbc-96ce-fa50a5152b64" d="M708.57,990a10.54,10.54,0,0,1-2,7.86c-1.49,2.13,2,4.15,3.49,2a14.59,14.59,0,0,0,2.38-11c-.42-2.56-4.3-1.47-3.89,1.07Z"/><ellipse class="a7242aa7-2532-4a24-bafa-f6543afa1e9d" cx="909.05" cy="158.59" rx="95.55" ry="49.88"/><ellipse class="a7242aa7-2532-4a24-bafa-f6543afa1e9d" cx="1309.54" cy="92.01" rx="73.53" ry="38.39"/><ellipse class="a7242aa7-2532-4a24-bafa-f6543afa1e9d" cx="1033.59" cy="170.78" rx="67.04" ry="35"/><ellipse class="a7242aa7-2532-4a24-bafa-f6543afa1e9d" cx="79.24" cy="159.72" rx="51.59" ry="26.93"/><ellipse class="a7242aa7-2532-4a24-bafa-f6543afa1e9d" cx="805.17" cy="292.5" rx="73.53" ry="38.39"/><ellipse class="a7242aa7-2532-4a24-bafa-f6543afa1e9d" cx="199.1" cy="143.34" rx="96.28" ry="49.72"/><line class="e70c0023-39d8-4089-a7d4-0b90be3994a4" x1="1200.81" y1="277.23" x2="1389.44" y2="277.23"/><line class="e70c0023-39d8-4089-a7d4-0b90be3994a4" x1="1285.95" y1="289.54" x2="1398.8" y2="289.54"/><line class="e70c0023-39d8-4089-a7d4-0b90be3994a4" x1="1113.36" y1="298.79" x2="1301.99" y2="298.79"/><ellipse class="a70243af-6ac6-4b7d-93ef-8fe7c82f78fa" cx="1193.1" cy="335.14" rx="89.28" ry="18.29"/><path class="bcc720f8-303f-4b46-a4e2-ef5b12e7f60a" d="M1223,210.27c-14.34,17.15-27.77,34.24-35.24,55.59-6.8,19.47-8.37,40.38-9.87,60.81-.54,7.25,6.56,13.45,13.45,13.45,7.73,0,12.92-6.18,13.46-13.45,1.31-17.84,2.66-34.89,8.35-52,5.79-17.39,17.28-31.51,28.88-45.38,4.66-5.58,5.46-13.57,0-19-4.79-4.79-14.35-5.61-19,0Z"/><path class="fdc22a5b-b940-47a4-8134-2c8f3f625b02" d="M1314.35,160.55c-21.17-4.5-45.81-2-63.88,10.81-7,5-13.2,11.45-16.86,19.35-2.36,5.1-4,10.32-2.48,15.93,1.57,5.78,5.25,10.72,8.91,15.33,2.57,3.24,8.86,2.29,10.57-1.36,5.67-12.12,14-22,24.48-30.24a183.07,183.07,0,0,1,16.58-11.93c6.21-3.86,12.76-4.4,19.92-3.81,8.63.71,8.58-12.75,0-13.46-8.18-.67-16.36.21-23.75,4-6.93,3.52-13.33,8.81-19.47,13.53-12.37,9.53-22.72,20.9-29.38,35.15l10.57-1.36c-2.4-3-6-7.43-5.53-11.52.33-3,2.54-6.34,4.17-8.75a40,40,0,0,1,13.59-12.09c14.57-8.29,32.8-10,49-6.57,8.44,1.8,12-11.17,3.57-13Z"/><path class="fdc22a5b-b940-47a4-8134-2c8f3f625b02" d="M1281.61,164c-16.54,6.62-32.41,16.37-38.7,33.92-2.37,6.62,6.68,10.9,11.25,6.54a49,49,0,0,0,11.51-17c1.92-4.59-3.79-10-8.28-8.28a28.26,28.26,0,0,0-12.42,8.92c-3.69,4.58-7.69,9.66-10.47,14.85-5.9,11,11.89,17.8,15.89,5.91,2.78-8.22-10.22-11.75-13-3.57l.72-1.39,4.75-2,.75.22,3.09,4-.27-.87-.67,5.18c1.75-3.95,5-7.65,7.49-11.16,2.08-2.89,4.25-5.84,7.69-7.16l-8.28-8.28a33.37,33.37,0,0,1-8,11.1l11.25,6.54c4.49-12.55,17.61-19.84,29.3-24.51,3.39-1.36,5.7-4.48,4.7-8.28-.85-3.21-4.91-6-8.28-4.7Z"/><path class="fdc22a5b-b940-47a4-8134-2c8f3f625b02" d="M1365.3,219c-17.15-21.13-47-30.36-73.2-32.25a131.42,131.42,0,0,0-41.25,3.62c-6.67,1.68-13.58,3.64-19,8s-9.61,10.34-12.66,16.62c-2.52,5.19,1.64,11.4,7.6,9.88a250.82,250.82,0,0,1,65.93-7.55c11.11.17,22.24.69,33.32,1.44,10.18.68,19.73,3.06,27.65,9.81,6.56,5.58,16.13-3.9,9.52-9.52-18.52-15.75-43.53-14.54-66.53-15.11a269.78,269.78,0,0,0-73.47,7.95l7.6,9.89c2.4-4.94,5.37-10.05,9.91-13.33,4.74-3.42,11.5-4.63,17.11-5.87a119.9,119.9,0,0,1,36-2.21c22.39,1.93,47.38,10.22,62,28.17,5.46,6.73,14.93-2.85,9.51-9.51Z"/><path class="fdc22a5b-b940-47a4-8134-2c8f3f625b02" d="M1329.36,201c-25.4-5.74-52.1-7.43-77.25.41-7,2.19-6.06,13.47,1.79,13.22a130.23,130.23,0,0,0,30.89-4.74c6.26-1.75,6.55-11.36,0-13-14.07-3.46-29,.16-43,2.41-5.83.93-14.42,1.23-15,8.95-.52,7.44,7.35,10.1,13.28,8.2,8.22-2.64,4.7-15.63-3.57-13l3.74,4.78-2,4.76c-1.68,1.49,2.38,0,3.2-.11l5.79-.94q5.78-.91,11.58-1.76c7.41-1.09,15-2.15,22.34-.34v-13a114.46,114.46,0,0,1-27.32,4.25l1.78,13.21c22.88-7.13,47-5.63,70.1-.41,8.44,1.91,12-11.06,3.58-13Z"/><path class="fdc22a5b-b940-47a4-8134-2c8f3f625b02" d="M1181.12,148.05c15.73,1.59,31.67,8.48,42.68,20a38.36,38.36,0,0,1,9.72,17c.69,2.74,1.61,6.76.78,9.54-1.19,4-6.43,7-9.71,9.12l10.13,5.81c-1.55-16.82-7.73-31.71-17.2-45.61-4.22-6.21-8.46-13.21-14-18.3s-12.68-8-19.93-9.64c-8.43-1.95-12,11-3.58,13,5.61,1.3,11.1,3.19,15.24,7.37,4.57,4.61,8.18,10.57,11.76,16,7.57,11.34,13,23.55,14.3,37.25.44,4.76,5.48,8.8,10.12,5.81,9.9-6.37,17.48-13.76,16.34-26.31a49,49,0,0,0-10.56-26c-13.35-17.05-34.92-26.3-56-28.44-8.61-.87-8.55,12.59,0,13.46Z"/><path class="fdc22a5b-b940-47a4-8134-2c8f3f625b02" d="M1202.78,158.24c10,8.51,20.19,19.29,20.15,33.27l12.54-3.4a31.24,31.24,0,0,1-3.5-12.89L1220.48,180c3,2.45,4.27,5.08,5.36,8.72.62,2.06,1.19,4.14,1.75,6.21.33,1.24.66,2.47,1,3.71q.38,3.67,1.11.08l4-3.09,5.36,4.53c.2-8.66-13.25-8.65-13.46,0-.28,11.92,18.32,11.42,17-.48-.61-5.44-2.63-11.37-4.41-16.54-1.69-4.94-4.11-9.3-8.19-12.65s-11.82-1.58-11.49,4.76a47.78,47.78,0,0,0,5.34,19.69c3.11,6.09,12.52,3,12.53-3.4.06-17.61-11.24-31.9-24.09-42.78-6.57-5.57-16.13,3.91-9.51,9.51Z"/><ellipse class="b9e60caf-8a9c-4000-bee0-9cc3ae53719e" cx="1232.55" cy="241.26" rx="17.47" ry="16.48"/><ellipse class="b9e60caf-8a9c-4000-bee0-9cc3ae53719e" cx="1207.53" cy="229.69" rx="17.47" ry="16.48"/><path class="ab1519aa-735d-4ea2-9fe0-6d52f1ceacaa" d="M1210.61,268.05c-2.93-.31-6.22-.22-8.84-1.73s-4.42-4.09-5.87-6.69c-1.05-1.89-4-.2-2.9,1.7a20.1,20.1,0,0,0,7.08,7.89c3.16,1.85,7,1.82,10.53,2.19,2.15.23,2.14-3.14,0-3.36Z"/><path class="ab1519aa-735d-4ea2-9fe0-6d52f1ceacaa" d="M1205.31,287.78c-6.93-.13-12.75-1.41-16.6-7.64-1.13-1.84-4-.15-2.9,1.7,4.47,7.25,11.36,9.15,19.5,9.31,2.17,0,2.17-3.33,0-3.37Z"/><path class="ab1519aa-735d-4ea2-9fe0-6d52f1ceacaa" d="M1202.53,310c-7.42.75-13.59-2.5-18.68-7.72-1.52-1.55-3.9.83-2.38,2.38,5.63,5.77,12.84,9.54,21.06,8.7,2.13-.22,2.16-3.58,0-3.36Z"/><path class="b5d245e6-20ca-440f-9835-3e1126eff041" d="M1214.07,221.43a2.47,2.47,0,0,1,1,2.18,1.74,1.74,0,0,0,1.18,2.07,1.7,1.7,0,0,0,2.07-1.18,6,6,0,0,0-2.52-6,1.69,1.69,0,0,0-2.3.6,1.72,1.72,0,0,0,.6,2.3Z"/><path class="b5d245e6-20ca-440f-9835-3e1126eff041" d="M1214.19,229.82c-.51,5.93-8.7,5.73-12.92,5.61-2.16-.06-2.16,3.3,0,3.36,6.51.19,15.58-.79,16.28-9,.18-2.16-3.18-2.14-3.36,0Z"/><path class="b5d245e6-20ca-440f-9835-3e1126eff041" d="M1239.83,233.92c1.78,1,1.74,3.26,1.76,5.08,0,2.16,3.39,2.17,3.37,0,0-3.09-.53-6.29-3.43-8a1.68,1.68,0,0,0-1.7,2.9Z"/><path class="b5d245e6-20ca-440f-9835-3e1126eff041" d="M1240.63,244.14c.81,4.94-8.42,6.61-11.75,6.16-2.12-.29-3,3-.89,3.25,6.23.84,17.23-2.14,15.89-10.3-.36-2.13-3.6-1.23-3.25.89Z"/><path class="b9e60caf-8a9c-4000-bee0-9cc3ae53719e" d="M1228.53,225.79c-2.38.2-3.81,2-5.31,3.72a26.61,26.61,0,0,0-4.14,6c-.95,1.93,2,3.64,2.9,1.7a21.81,21.81,0,0,1,2.83-4.37c.74-.89,2.49-3.54,3.72-3.64,2.14-.18,2.16-3.54,0-3.37Z"/><path class="bcc720f8-303f-4b46-a4e2-ef5b12e7f60a" d="M1223.87,228.86c2.22,6.09-2.36,11.79-7.75,14.08-2,.84-.28,3.74,1.69,2.9,6.72-2.84,12-10.51,9.3-17.88-.74-2-4-1.14-3.24.9Z"/><path class="fdc22a5b-b940-47a4-8134-2c8f3f625b02" d="M1327.46,272.89c-4.46-23.89-22.62-44.45-43.51-56a90.66,90.66,0,0,0-32.37-10.52c-6-.76-12.17-1.22-17.93,1-6.19,2.38-11.48,6.71-16.07,11.4s-.78,10.79,4.76,11.49A163.4,163.4,0,0,1,1273.93,246c8,3.89,15.9,8,23.57,12.44,7.11,4.13,12.46,9.45,15.38,17.29,3,8,16,4.56,13-3.58-3.27-8.77-8.32-16.12-15.91-21.68-8.36-6.13-18.3-10.66-27.55-15.26a185.08,185.08,0,0,0-60.06-18.41l4.75,11.49c3.23-3.3,7-6.92,11.47-8.45s10.36-.49,15,.36a78.52,78.52,0,0,1,26.26,9.86c16.9,10.1,31,26.72,34.64,46.37,1.59,8.51,14.56,4.91,13-3.57Z"/><path class="fdc22a5b-b940-47a4-8134-2c8f3f625b02" d="M1307.47,243.57c-17.16-14.34-36.91-25.26-59.62-26.65-8.2-.5-8.26,10.58-1.79,13.22a88.33,88.33,0,0,0,25.12,6c5.73.56,9-7.79,4.75-11.48-9.57-8.38-22.7-10.44-34.71-13.28-5.63-1.33-12.61-2.92-15.15,4-2.44,6.64,3.31,11.33,9.42,11.64,8.65.43,8.63-13,0-13.46l-.79-.32,4,3.09,0-.14-.68,5.18q-5.46,2.15-2.24,2.53l2.79.65,3.72.9q5,1.22,10,2.51c5,1.32,10.15,2.71,14.13,6.19l4.76-11.48a76.4,76.4,0,0,1-21.54-5.51l-1.79,13.22c18.89,1.15,35.86,10.8,50.11,22.71,6.6,5.51,16.17-4,9.51-9.52Z"/><path class="ae4d3a9e-3c09-4ce4-8de1-354bb9e7db44" d="M1225.77,225.78c7.47-8.1,22.39-5,32.28-3.9,5.45.6,10.93,1.22,15.84,3.85s9.64,6.57,14.12,10.08c1.68,1.32,4.08-1,2.37-2.38-4.92-3.86-9.92-8.11-15.51-11-5.22-2.68-11.06-3.31-16.82-3.94-11-1.21-26.21-4.28-34.66,4.88-1.46,1.59.91,4,2.38,2.38Z"/><path class="ae4d3a9e-3c09-4ce4-8de1-354bb9e7db44" d="M1228,223.84c3.12-5.57,10.9-6.76,16.65-7.84a82.34,82.34,0,0,1,19.51-1.24c5.58.3,13.08.52,17.94,3.57,4.2,2.64,5.87,7.55,10.47,10.1,1.93,1.06,4,1.87,5.87,3,3.36,2.08,3.54,4.3,4.89,7.69,1.69,4.23,5.61,5.66,8.86,8.55a23.17,23.17,0,0,1,7.82,16.1c.08,2-.29,3.94.2,5.87.6,2.36,6.69,10.15.32,10.61l1.62,2.13.31-2.07c.31-2.12-2.93-3-3.25-.89l-.3,2.06c-.15,1,.42,2.22,1.62,2.13,4.55-.32,7.11-4.16,6-8.6a23,23,0,0,0-1.46-3.18,21.13,21.13,0,0,1-1.66-8.06,26,26,0,0,0-2.13-9.17c-2.38-5.49-6.13-8.7-10.68-12.31a10.46,10.46,0,0,1-4.34-6.41A10.17,10.17,0,0,0,1305,233c-1.41-2.29-3.86-3.88-6.16-5.15-3.8-2.11-7.23-3.37-9.94-7.05-1.54-2.09-2.81-4.19-5.12-5.56-5.39-3.18-13.51-3.49-19.63-3.83a85.09,85.09,0,0,0-24,2.11c-5.8,1.36-12,3.1-15.1,8.64-1.06,1.89,1.85,3.59,2.9,1.69Z"/><path class="ae4d3a9e-3c09-4ce4-8de1-354bb9e7db44" d="M1248.16,238.06c9.33-.47,16.29,2.85,23.93,7.72a36.25,36.25,0,0,0,7.4,3.88c3.94,1.38,8.16,1.07,12.13,2.28a15,15,0,0,1,9.53,8.58c1.1,2.46,1.82,5.1,3.66,7.15,2,2.24,4.88,3.26,7.31,4.92a16.82,16.82,0,0,1,7.05,10.79c.44,2.12,3.68,1.22,3.24-.89-1.57-7.56-6.23-10.93-12.27-14.93-4.44-2.95-4.71-7-7.29-11.18a17.9,17.9,0,0,0-7.13-6.43c-3.83-1.93-8-1.85-12.06-2.67-4.77-.94-8.55-3.59-12.55-6.16a37.75,37.75,0,0,0-22.95-6.42c-2.15.11-2.16,3.47,0,3.36Z"/><path class="ae4d3a9e-3c09-4ce4-8de1-354bb9e7db44" d="M1228.63,219.11c3.55-14.13,18.69-24.48,32.89-25.74,7.27-.65,14,3.08,21.47,2.31,7-.72,13.67-2.71,20.7-3,7.41-.27,15,.7,21.65,4.18,2.78,1.46,5.23,3.53,8.17,4.67a21.77,21.77,0,0,0,7.48,1.08c15.75.5,29.22,12.85,25.44,29.47h3.24c-1.63-6.63-9.76-10-15.51-12.22a58,58,0,0,0-24-4c-4.68.22-9.4,1.55-14.1,1.08-4.27-.42-8.19-2.37-12.25-3.57-7.34-2.17-14.89-2.58-22,.64-2,.89-.26,3.79,1.7,2.9,7.33-3.34,15.18-1.77,22.49.74a38.67,38.67,0,0,0,18.92,2.07,57.84,57.84,0,0,1,21.77,1.23c5.94,1.56,18,5.16,19.65,12a1.69,1.69,0,0,0,3.24,0A27.28,27.28,0,0,0,1352,201.07a31.6,31.6,0,0,0-9.23-1.78c-3.12-.16-6,.11-8.93-1.26-1.88-.88-3.53-2.2-5.32-3.24a43.82,43.82,0,0,0-21.41-5.48c-8.86-.16-17.11,2.68-25.85,3.16-8.21.46-15.38-3.75-23.63-1.86-14.35,3.28-28.44,12.69-32.19,27.6-.53,2.1,2.71,3,3.24.9Z"/><path class="fdc22a5b-b940-47a4-8134-2c8f3f625b02" d="M1136.27,192.37a73.33,73.33,0,0,1,53-4.18,52.28,52.28,0,0,1,19.35,10.42c2.68,2.36,6.11,5.28,7.56,8.61,1.82,4.16-.2,9.83-1.5,13.88l11.25-3c-12-12.83-26.58-22.28-42.66-29.22-7.92-3.41-16.12-7.2-24.45-9.46-8.79-2.39-17.82-1.54-26.4,1.28-8.19,2.69-4.68,15.69,3.58,13,7.69-2.53,14.69-2.92,22.4-.3,7.23,2.46,14.41,5.43,21.37,8.57,13.87,6.26,26.22,14.53,36.64,25.66,3.61,3.85,9.76,1.67,11.25-3,1.84-5.74,3.19-12,2.25-18-.84-5.45-4.18-9.77-7.84-13.72a65.22,65.22,0,0,0-25-16.3c-21.59-8.17-47-6-67.54,4.12-7.76,3.84-1,15.45,6.79,11.62Z"/><path class="fdc22a5b-b940-47a4-8134-2c8f3f625b02" d="M1161.75,189.81c16.1,2.51,32.45,7.49,43,20.69l8.15-10.56a50.18,50.18,0,0,1-14.13-11.29l-6.55,11.25c5.08.7,8.81,3,12.82,6.11s8.73,6.18,12.14,9.94l-2-4.76,8.59-2.49c-2.24-2.9-5.76-4.38-9.21-2.42-2.84,1.62-4.63,6.34-2.41,9.21,3.31,4.29,8.54,6.58,13.34,2.73,5-4,3.51-9.91-.8-13.6-8.28-7.06-17.73-16.15-28.92-17.7-6.54-.9-11.27,5.84-6.55,11.25a60.92,60.92,0,0,0,16.86,13.38c7.08,3.85,12.76-4.78,8.16-10.56-11.82-14.84-30.76-21.33-48.9-24.16-3.62-.56-7.19.93-8.27,4.7-.92,3.19,1.11,7.72,4.69,8.28Z"/><path class="ae4d3a9e-3c09-4ce4-8de1-354bb9e7db44" d="M1227.74,222.71c-2.28-11.56-12.84-21.23-22-27.75-11.42-8.1-24.62-13.21-37.72-17.86-2-.73-2.92,2.52-.9,3.24,11.85,4.21,23.68,8.79,34.25,15.7,9.48,6.21,20.85,15.89,23.16,27.57.42,2.12,3.66,1.22,3.24-.9Z"/><path class="ae4d3a9e-3c09-4ce4-8de1-354bb9e7db44" d="M1224.67,215c-.27-12.22-4.15-26.29-13-35.23-3.83-3.89-8.15-5.09-13.51-4.47-4.57.52-8.08.78-12.45-.81-3.26-1.19-6.33-2.83-9.66-3.84a38.23,38.23,0,0,0-18.28-.89c-7,1.36-12.58,5.95-19.41,7.71-7.1,1.84-14.44-.18-21.59,2.17a34.19,34.19,0,0,0-14.61,9.45l2.81,1.64c.82-3.47,11.94-2.07,14.45-1.9a75.46,75.46,0,0,1,14.24,2.35c4.18,1.09,8.27,2.55,12.59,3,3.86.44,7.64-.2,11.5-.32a39.75,39.75,0,0,1,23.52,6.83c2.87,2,5,4.68,7.86,6.67s10.6,2.38,11.07,6.59c.23,2.13,3.6,2.15,3.36,0-.37-3.32-2.26-5.25-5.32-6.57-2.87-1.25-5.64-1.44-8.14-3.55-1.89-1.6-3.55-3.4-5.53-4.89a42.8,42.8,0,0,0-25.25-8.46c-6.09,0-11.56.94-17.62-.58-5.59-1.4-11-3.13-16.71-3.91s-12.13-1.36-17.86-.34c-2.56.46-4.77,1.47-5.41,4.14-.37,1.56,1.63,2.93,2.81,1.64a30.93,30.93,0,0,1,15.36-9.22c5.89-1.46,11.83-.07,17.72-1.16s10.68-4.86,16.23-6.79a34.73,34.73,0,0,1,19.71-.86c5.18,1.29,9.77,4.33,15,5.42,5.67,1.18,11.67-1.83,17,.59,5.95,2.67,9.69,10.77,11.95,16.52a55.08,55.08,0,0,1,3.71,19c0,2.17,3.41,2.17,3.37,0Z"/><path class="ae4d3a9e-3c09-4ce4-8de1-354bb9e7db44" d="M1245.55,176.56a29.35,29.35,0,0,0-8.63-20.61c-6.51-6.51-15.1-8.08-23.48-11-5.11-1.78-8.77-4.82-13-8a29.86,29.86,0,0,0-11.82-5c-9.21-2.08-19-3.25-27.39,2.07a1.71,1.71,0,0,0,.4,3.08c6.21,1.31,9.39,4.6,12.91,9.52,2.35,3.28,6,3.65,9.61,4.9,5.73,2,9.07,4.62,11.8,10,2.36,4.69,8.93,7.58,8.4,13.21-.21,2.15,3.16,2.14,3.36,0,.6-6.25-3.26-7.7-6.9-11.72-2.11-2.34-2.77-5.62-4.74-8.08a17.3,17.3,0,0,0-5.09-4.15,38.78,38.78,0,0,0-7.39-3c-3.82-1.22-6-3.09-8.28-6.16a21.14,21.14,0,0,0-12.78-7.79l.4,3.07c8.18-5.22,18.41-3.57,27.28-1.14,7.59,2.07,12.33,8.32,19.46,11.31s14.92,3.79,21.28,8.2a26.11,26.11,0,0,1,11.27,21.26c0,2.16,3.38,2.17,3.36,0Z"/><path class="ae4d3a9e-3c09-4ce4-8de1-354bb9e7db44" d="M1227.68,224.41c7.06-14.07,25.7-20.82,40.24-23.45,8.16-1.48,16.45-1.61,24.71-1.71,8.76-.11,17.45-.09,25.93,2.42,2.08.62,3-2.62.89-3.24-8.75-2.6-17.76-2.66-26.82-2.55s-18.33.32-27.33,2.17c-14.88,3.06-33.29,10.25-40.53,24.66-1,1.93,1.93,3.64,2.91,1.7Z"/><path class="ae4d3a9e-3c09-4ce4-8de1-354bb9e7db44" d="M1226.47,224.84a97.21,97.21,0,0,0,.88-37.12c-1.81-10.47-5-22-13.5-29-1.66-1.36-4,1-2.37,2.38,8.09,6.65,10.91,17.59,12.63,27.51a92.73,92.73,0,0,1-.89,35.33c-.45,2.11,2.79,3,3.25.9Z"/><path class="ae4d3a9e-3c09-4ce4-8de1-354bb9e7db44" d="M1226.76,224.74c4.41-11.8,12.61-21.4,21.09-30.5s16.89-19.39,29.5-22.19c2.11-.47,1.22-3.72-.9-3.25-13.22,2.95-22.15,13.57-31,23.06s-17.33,19.6-22,32c-.76,2,2.49,2.91,3.24.9Z"/><path class="ae4d3a9e-3c09-4ce4-8de1-354bb9e7db44" d="M1228.51,211.86c2.2-9,7.1-18,12-25.79,5.53-8.81,13-15.29,22.89-18.71,9.33-3.21,19.23-3.84,29-3.8,5,0,10,.22,15.06.31,4.54.08,18.07-2,18.65,5l1.69-1.68c-6.71.29-12.66-.7-18.61,3.15-3.82,2.46-6,5.25-11,5.39-3.39.11-6.78-.68-10.16-.09s-6.18,2.53-9.36,3.8-6.48,1.77-9.78,2.6c-5.59,1.41-9.09,5.42-12.49,9.82-1.32,1.72,1.6,3.39,2.9,1.7,2.12-2.74,4.39-5.66,7.54-7.26,2.47-1.26,5.38-1.42,8-2.1a45,45,0,0,0,8.09-3,20.6,20.6,0,0,1,11.07-2.26c5.27.3,9.23,0,13.58-3.19,2.78-2,5.25-4,8.7-4.86,3.73-.91,7.65-.14,11.44-.31a1.7,1.7,0,0,0,1.68-1.68c-.91-11-16.5-8.25-23.91-8.41-12.85-.29-25.9-.95-38.47,2.27-10.56,2.71-19.67,8.2-26.29,16.94s-12.91,20.46-15.58,31.28c-.51,2.11,2.73,3,3.25.9Z"/><path class="ae4d3a9e-3c09-4ce4-8de1-354bb9e7db44" d="M1200,213.76c1.15,5.11,1.68,7.15,7.32,7.76,6.41.68,10.79,6.68,17.49,5.95,2.13-.23,2.15-3.6,0-3.36-4.94.54-8.11-3.28-12.36-5a25.89,25.89,0,0,0-4.46-.95c-2-.45-3.44-.81-4.31-2.88-.17-.4-.35-2.06-.44-2.44-.47-2.11-3.72-1.22-3.24.89Z"/><path class="ae4d3a9e-3c09-4ce4-8de1-354bb9e7db44" d="M1254,235c-3.31,0-6.09.35-9-1.49-1.84-1.16-3.13-2.61-5.15-3.56a16.61,16.61,0,0,0-5.11-1.5c-2.82-.35-8,1.31-9.25-2.62-.67-2-3.92-1.17-3.25.89,2.13,6.54,6.73,4.35,12.26,5.15,4.38.63,6.68,3.71,10.34,5.58,2.88,1.47,6.06.89,9.18.91a1.68,1.68,0,0,0,0-3.36Z"/><path class="a7242aa7-2532-4a24-bafa-f6543afa1e9d" d="M1367.64,225.3c.34-6.17-5.45-12.42-10-16.09a21.23,21.23,0,0,0-17-4.85c-1.28.21-.74,2.15.54,1.95,6.08-1,11.73,1.29,16.24,5.33,3.66,3.28,8.5,8.45,8.21,13.66-.07,1.3,2,1.29,2,0Z"/><path class="a7242aa7-2532-4a24-bafa-f6543afa1e9d" d="M1324.79,166.33c-4-3.46-10.49-2.89-15.45-2.65-2.16.1-2.17,3.47,0,3.36,3.77-.18,10-1,13.07,1.67,1.63,1.41,4-1,2.38-2.38Z"/><path class="a7242aa7-2532-4a24-bafa-f6543afa1e9d" d="M1303.47,169.7c-4.79,2.26-10.11,1.65-15.2,1.07-2.14-.24-2.13,3.12,0,3.37,5.81.66,11.49,1,16.9-1.53,2-.92.25-3.82-1.7-2.91Z"/><path class="a7242aa7-2532-4a24-bafa-f6543afa1e9d" d="M1240.7,171.16c-1-8.23-7.42-13.14-13.78-17.57-1.78-1.25-3.46,1.67-1.7,2.9,5.2,3.62,11.31,7.84,12.12,14.67.25,2.12,3.62,2.15,3.36,0Z"/><path class="a7242aa7-2532-4a24-bafa-f6543afa1e9d" d="M1151.68,179c-7.13,1.9-14.37,2.2-21.71,2.08-5.67-.1-12.2-1.33-17.57.86-2,.8-1.12,4.06.89,3.24,5.94-2.41,14-.69,20.28-.71a74.58,74.58,0,0,0,19-2.22,1.69,1.69,0,0,0-.89-3.25Z"/><path class="a7242aa7-2532-4a24-bafa-f6543afa1e9d" d="M1200.26,181.64c2.71-.65,4.89,2.11,6.43,4a14.62,14.62,0,0,1,3.65,7.46c.25,2.12,3.62,2.14,3.36,0-.49-4.1-2.49-7.44-5.2-10.49-2.43-2.73-5.27-5.1-9.13-4.17-2.11.5-1.22,3.75.89,3.24Z"/><path class="a7242aa7-2532-4a24-bafa-f6543afa1e9d" d="M1228.9,254a1.68,1.68,0,0,0,0-3.36,1.68,1.68,0,0,0,0,3.36Z"/><path class="a7242aa7-2532-4a24-bafa-f6543afa1e9d" d="M1199.77,238.63a1.68,1.68,0,0,0,0-3.36,1.68,1.68,0,0,0,0,3.36Z"/><path class="a7242aa7-2532-4a24-bafa-f6543afa1e9d" d="M1305.77,249.35c4.56,3.29,8.65,6.59,10.89,11.9,1.65,3.91,2.63,8.06,4.34,12,.87,2,3.77.26,2.9-1.7-2.19-5-3.06-10.58-6-15.24-2.6-4.13-6.56-7-10.46-9.82-1.75-1.27-3.44,1.65-1.69,2.9Z"/><path class="fdc22a5b-b940-47a4-8134-2c8f3f625b02" d="M1192.65,138.4a45.08,45.08,0,0,0-21-4.8,1.7,1.7,0,0,0-.85,3.14c1.54,1.15,3.11,2.23,4.75,3.24l1.7-2.91-1-.55-2,2.64,1.14,1.18,2.38-2.38-2.18-1.86a1.68,1.68,0,0,0-2.38,2.38l1.5,1.83c1.37,1.67,3.74-.72,2.38-2.38l-1.5-1.83-2.38,2.38,2.18,1.86a1.68,1.68,0,0,0,2.38-2.38,6.7,6.7,0,0,0-1.82-1.7c-1.53-1.13-3.49,1.4-2,2.64a5.76,5.76,0,0,0,1.64,1.08c1.94.85,3.59-1.74,1.7-2.91-1.64-1-3.21-2.08-4.75-3.24l-.85,3.13a41.38,41.38,0,0,1,19.3,4.35c1.93,1,3.63-1.94,1.69-2.91Z"/><line class="e70c0023-39d8-4089-a7d4-0b90be3994a4" x1="1199.7" y1="363.35" x2="1388.33" y2="363.35"/><line class="e70c0023-39d8-4089-a7d4-0b90be3994a4" x1="187.79" y1="257.56" x2="409.89" y2="257.56"/><path class="a7242aa7-2532-4a24-bafa-f6543afa1e9d" d="M1162.33,446.83a98.11,98.11,0,0,1,15.8-.53c3.87.19,3.86-5.82,0-6a97,97,0,0,0-15.8.53c-3.8.44-3.84,6.46,0,6Z"/><path class="f6a8ae7e-0dae-4fad-9dbe-69bcbc13e3fd" d="M65.12,334.19c7.73,0,7.75-12,0-12s-7.75,12,0,12Z"/><line class="e70c0023-39d8-4089-a7d4-0b90be3994a4" x1="13.74" y1="276.19" x2="123.24" y2="276.19"/><line class="e70c0023-39d8-4089-a7d4-0b90be3994a4" x1="10.39" y1="289.28" x2="139.83" y2="289.28"/><line class="bbb1c50e-ec7e-45f0-a015-fbaf3856f346" x1="215.14" y1="361.54" x2="454.95" y2="361.54"/><line class="e70c0023-39d8-4089-a7d4-0b90be3994a4" x1="263.09" y1="269.41" x2="343.41" y2="269.41"/><line class="bbb1c50e-ec7e-45f0-a015-fbaf3856f346" x1="432.22" y1="332.94" x2="596.89" y2="332.94"/><line class="bbb1c50e-ec7e-45f0-a015-fbaf3856f346" x1="914.08" y1="300.8" x2="1119.8" y2="300.8"/><line class="e70c0023-39d8-4089-a7d4-0b90be3994a4" x1="1019.02" y1="308.72" x2="1145.69" y2="308.72"/><line class="bbb1c50e-ec7e-45f0-a015-fbaf3856f346" x1="484.79" y1="321.8" x2="631.99" y2="321.8"/><line class="bbb1c50e-ec7e-45f0-a015-fbaf3856f346" x1="1196.98" y1="347.83" x2="1385.62" y2="347.83"/><line class="b308bec5-35ba-4365-b750-bab3e5faacfe" x1="178.96" y1="278.13" x2="401.06" y2="278.13"/><path class="a7242aa7-2532-4a24-bafa-f6543afa1e9d" d="M769,515.65c3.87,0,3.88-6,0-6s-3.87,6,0,6Z"/><path class="a7242aa7-2532-4a24-bafa-f6543afa1e9d" d="M1170.55,491c3.87,0,3.88-6,0-6s-3.87,6,0,6Z"/><path class="a7242aa7-2532-4a24-bafa-f6543afa1e9d" d="M1059.36,488.05c3.87,0,3.88-6,0-6s-3.87,6,0,6Z"/><line class="b346941d-8d8b-4e29-8cf5-24ba9f2ebd1b" x1="475.73" y1="404.88" x2="715.54" y2="404.88"/><line class="be6f6250-9e4e-42a4-a37e-b140d9db8e8d" x1="575.12" y1="385.81" x2="814.94" y2="385.81"/><path class="ef11237b-3cc4-4b7e-a465-80500bfd4bac" d="M1116.28,949.93c10.38-9.18,20.88-18.26,31.63-27,9.8-8,20.29-15.22,33-17.31,5.11-.83,2.94-8.61-2.14-7.77-13,2.12-23.88,9.27-34,17.29-11.73,9.29-23,19.2-34.22,29.11-3.89,3.44,1.83,9.13,5.71,5.7Z"/><path class="ef11237b-3cc4-4b7e-a465-80500bfd4bac" d="M1106.3,997.4a51.12,51.12,0,0,0,30.38,9.5c5.19,0,5.2-8.1,0-8.07a43.67,43.67,0,0,1-26.31-8.39c-4.22-3-8.25,4-4.07,7Z"/><path class="a5b0fe6a-58f6-41d4-8e95-f3f73e474ada" d="M1135.61,961.14a23.53,23.53,0,0,1,13,3.37c3.42,2.15,5.51,5.69,8.85,7.87,3.56,2.31,7.43,2,11.44,2.62,4.9.77,9.37,3.15,13.72,5.4,4.61,2.37,8.69-4.58,4.07-7-4.43-2.29-9-4.69-13.92-5.85-5.2-1.22-9.54-.34-13.48-4.49a31.44,31.44,0,0,0-23.72-10c-5.19.06-5.2,8.13,0,8.06Z"/><path class="a5b0fe6a-58f6-41d4-8e95-f3f73e474ada" d="M1208.45,911.84c2.64-3.9,7.17-5.58,11.75-5.32,5.18.3,5.16-7.77,0-8.06a21.06,21.06,0,0,0-18.71,9.31c-2.92,4.31,4.07,8.35,7,4.07Z"/><path class="a5b0fe6a-58f6-41d4-8e95-f3f73e474ada" d="M1283.09,985.3a9.8,9.8,0,0,1,1.13,9.93c-2.17,4.68,4.78,8.78,7,4.07a18.36,18.36,0,0,0-2.39-19.71c-1.36-1.73-4.28-1.39-5.71,0-1.71,1.68-1.33,4,0,5.71Z"/><ellipse class="a70243af-6ac6-4b7d-93ef-8fe7c82f78fa" cx="136.18" cy="336.04" rx="97.8" ry="43.4"/><path class="f563ca60-45a6-4c4c-8a6a-3eb8bbb4beaa" d="M134.82,311.72c-5.74-10.7-14.27-26.13-23.3-34.58,5.45-2.83,11.46-4.52,17.42-6.2l19.64-5.51a16,16,0,0,1,3.42-.69,12.43,12.43,0,0,1,6.19,1.66c11.12,5.7,17.06,17.34,22,28.34-5.76,3-12.34,4.11-18.65,5.79a107.08,107.08,0,0,0-26.71,11.19c2.47.41,5.06-.21,7.47.44a14.14,14.14,0,0,1,4,2.1c10,6.71,20.53,13.92,25.65,24.48,10.87-5,19.58-13.86,31-17.63,6.46-2.13,13.64-2.59,19.43-6-14-9.36-25.18-18.28-42.23-20.35"/><path class="b1e8e003-a707-47fc-b192-cb813e968a50" d="M135.92,311.08c-6.57-12.24-13.4-25.09-23.49-34.85l-.26,2c6.86-3.38,14.25-5.26,21.58-7.32,7-2,16.89-6.8,23.79-3.41,11,5.37,16.76,17.28,21.53,27.87l.46-1.75c-7.73,3.72-16.36,4.82-24.45,7.5a111.81,111.81,0,0,0-20.9,9.49,1.29,1.29,0,0,0,.64,2.38c2.3.22,4.9-.22,7.13.39a18.61,18.61,0,0,1,5,2.85c3,2,6,4.11,8.95,6.34,6.05,4.65,11.42,9.95,14.93,16.81a1.31,1.31,0,0,0,1.75.45c8.35-4,15.45-10,23.58-14.37,8.51-4.56,18.42-4.71,26.86-9.28a1.29,1.29,0,0,0,0-2.2c-13.39-9-26.15-18.25-42.54-20.49-1.61-.22-2.31,2.25-.68,2.47,16.15,2.2,28.74,11.38,41.93,20.22V314c-8.41,4.55-18.35,4.71-26.86,9.27-8.13,4.36-15.23,10.37-23.58,14.38l1.75.46c-3.81-7.43-9.74-13.13-16.34-18.12a106,106,0,0,0-11.05-7.65c-3.54-2-6.95-1.52-10.87-1.88l.65,2.38a108.35,108.35,0,0,1,23.77-10.32c7.26-2.14,14.71-3.36,21.58-6.67a1.3,1.3,0,0,0,.46-1.75c-5.1-11.32-11.82-24.83-24.22-29.61-6.86-2.64-14.64,1.35-21.32,3.23-8.42,2.36-17,4.43-24.86,8.32a1.29,1.29,0,0,0-.26,2c9.93,9.6,16.62,22.28,23.1,34.33.78,1.45,3,.16,2.2-1.29Z"/><path class="b1e8e003-a707-47fc-b192-cb813e968a50" d="M126.43,296.43c5.95-.34,11.91-.55,17.88-.57,3,0,6,0,8.95.12,1.76,0,7.37-.65,8.29,1.23.44.88-.56,4-.7,5-.32,2.47-.61,4.95-.84,7.43a98.09,98.09,0,0,0-.35,15.33c.1,1.64,2.66,1.65,2.55,0a101.55,101.55,0,0,1,.43-16.17c.43-4.37,2.18-9.56,1.48-13.89a1.26,1.26,0,0,0-.9-.89c-5-1.54-11.7-.72-16.92-.74-6.63,0-13.26.18-19.87.57-1.64.09-1.65,2.65,0,2.55Z"/><path class="b1e8e003-a707-47fc-b192-cb813e968a50" d="M171.55,279.92c8.86-.2,17.74-.05,26.6.38,2.25.11,4.34-.53,3.76,2.15-.4,1.89-1.62,3.63-2,5.57-1,4.52.12,9.13.38,13.67.1,1.64,2.65,1.65,2.56,0-.24-4.08-1.22-8.22-.54-12.29.57-3.43,3-6.34,3.26-9.75a1.29,1.29,0,0,0-.94-1.23c-4.38-1.69-10.77-.89-15.43-1-5.87-.15-11.74-.18-17.61-.05a1.28,1.28,0,0,0,0,2.56Z"/><line class="f622c84a-29d9-46e1-b023-b0890e642c34" x1="134.56" y1="311.24" x2="134.56" y2="331.41"/><line class="f622c84a-29d9-46e1-b023-b0890e642c34" x1="171.72" y1="338.23" x2="171.72" y2="354.04"/><line class="f622c84a-29d9-46e1-b023-b0890e642c34" x1="221.88" y1="314.74" x2="221.88" y2="333.66"/><path class="b1e8e003-a707-47fc-b192-cb813e968a50" d="M119.49,286.6c12.24-9.28,28.63-13.91,43.73-15.7,1.61-.19,1.63-2.75,0-2.56-15.51,1.84-32.42,6.5-45,16.05-1.29,1,0,3.21,1.29,2.21Z"/><path class="b1e8e003-a707-47fc-b192-cb813e968a50" d="M127.58,295.72c13.36-8.42,28.86-13.08,44.31-15.85,1.61-.29.93-2.75-.68-2.46-15.65,2.8-31.39,7.57-44.92,16.11-1.39.87-.11,3.08,1.29,2.2Z"/><path class="b1e8e003-a707-47fc-b192-cb813e968a50" d="M132.9,305.74c6.88-4.45,13.82-8.86,21.67-11.43,7-2.27,14.88-4.83,22.19-5.53,1.62-.15,1.64-2.71,0-2.55-7.59.72-15.64,3.26-22.87,5.62-8.06,2.63-15.21,7.11-22.28,11.69-1.38.89-.1,3.1,1.29,2.2Z"/><path class="b1e8e003-a707-47fc-b192-cb813e968a50" d="M150.57,316.31a176.12,176.12,0,0,1,21.13-9.84c3.27-1.2,6.62-2,9.93-3.06,3.77-1.16,7.31-3.13,11.25-3.59,1.62-.19,1.64-2.75,0-2.56-3.7.44-6.87,2-10.36,3.2-3.81,1.28-7.72,2.16-11.5,3.54a181.58,181.58,0,0,0-21.74,10.1c-1.46.76-.17,3,1.29,2.21Z"/><path class="b1e8e003-a707-47fc-b192-cb813e968a50" d="M161.9,324.16a83.27,83.27,0,0,1,21.8-11.62c7.44-2.71,15.06-4.4,22.55-6.83,1.56-.5.89-3-.68-2.46-8.08,2.62-16.28,4.45-24.28,7.46A82.3,82.3,0,0,0,160.61,322c-1.31,1,0,3.2,1.29,2.21Z"/><path class="a62c08ba-b03d-4dbb-92cb-b71c2cfc1aa7" d="M71.55,251.28c-7,3.53-12.17,11.22-15.54,18.06a2.57,2.57,0,0,0,4,3.1c4-3.35,7.91-7.35,12.5-9.82,1.81-1,3.78-1.56,5.63-2.44,2.16-1,4-2.52,6.18-3.57,3-1.43.37-5.84-2.58-4.41-2.28,1.1-4.26,2.66-6.57,3.7A48.36,48.36,0,0,0,68.56,259c-4.36,2.78-8.21,6.46-12.15,9.78l4,3.1c3-6.1,7.45-13.07,13.7-16.22,2.94-1.49.35-5.9-2.58-4.42Z"/><path class="a62c08ba-b03d-4dbb-92cb-b71c2cfc1aa7" d="M81.21,251.27a77.33,77.33,0,0,1,12.38-3.62c3.22-.66,1.86-5.59-1.36-4.93a77.33,77.33,0,0,0-12.38,3.62c-3,1.17-1.72,6.12,1.36,4.93Z"/><path class="a62c08ba-b03d-4dbb-92cb-b71c2cfc1aa7" d="M91.5,243c-3.48,2.64-7.59,5.48-9.56,9.49h4.41l-2.54-3.89a2.56,2.56,0,0,0-4.42,2.58l2.76,5.71L84.36,253c-5.26.45-10.57-.06-15.56,2-3,1.22-1.7,6.17,1.36,4.93,4.55-1.84,9.4-1.36,14.2-1.78a2.59,2.59,0,0,0,2.2-3.85l-2.75-5.7-4.42,2.58,2.55,3.89c1,1.5,3.52,1.83,4.41,0,1.54-3.13,5-5.6,7.73-7.66s0-6.41-2.58-4.41Z"/><path class="a62c08ba-b03d-4dbb-92cb-b71c2cfc1aa7" d="M100.8,241.92c4-7,15-12,22.73-8.14l1.29-4.76c-8.58-.22-16.85.1-23.83,5.61-1.95,1.54.17,5.24,2.49,4.27a50,50,0,0,1,13.59-3.62l-.68-5A84.21,84.21,0,0,0,100.13,235c-3,1.3-.41,5.7,2.58,4.41a78.34,78.34,0,0,1,15-4.23c2.78-.58,2.21-5.36-.68-5a54.78,54.78,0,0,0-14.95,3.8l2.49,4.27c5.75-4.53,13.27-4.29,20.21-4.11,2.46.06,3.58-3.62,1.29-4.76-10.2-5.11-24.29.38-29.72,10-1.63,2.86,2.79,5.44,4.41,2.58Z"/><path class="a62c08ba-b03d-4dbb-92cb-b71c2cfc1aa7" d="M116.57,229.4a84.47,84.47,0,0,1,18.75-4.83c3.25-.45,1.87-5.38-1.36-4.93a84.47,84.47,0,0,0-18.75,4.83c-3,1.16-1.72,6.11,1.36,4.93Z"/><path class="a62c08ba-b03d-4dbb-92cb-b71c2cfc1aa7" d="M141.75,216.78A40.17,40.17,0,0,0,130,222.52c-1.49,1.08-2.82,2.79-4.38,3.66l.56.61-1.34-.52c-1.36-.41-2.73-1.05-4-1.56l.61,4.67c.17-.07,2.14,3.06,3.17,3.31,1.65.41,3.1-.77,4.2-1.85l-4.28-1.13.31.84c.72,2,3.53,2.65,4.67.61l.55-1-4.77-1.29-.08.94c-.31,3.27,4.8,3.25,5.11,0l.09-.94c.24-2.59-3.58-3.39-4.77-1.29l-.54,1,4.67.61-.31-.84a2.59,2.59,0,0,0-4.27-1.13l-.58.54,2.49.66c-.22-.18-.66-1.66-.93-2a5.25,5.25,0,0,0-1.91-1.68c-1.8-.92-3.64-.51-5.4.25-2.25,1-1.18,4,.61,4.68,3.5,1.35,6.22,3.43,9.31.68,4.38-3.91,8.7-6.83,14.36-8.61,3.12-1,1.79-5.93-1.36-4.93Z"/><path class="a62c08ba-b03d-4dbb-92cb-b71c2cfc1aa7" d="M82.26,253.89a5.84,5.84,0,0,0-4.08-4.06,6.43,6.43,0,0,0-3.88.2l5.78,7.51.68-1.13a5.26,5.26,0,0,0,.51-3.94A5.12,5.12,0,0,0,75,248.89a5.42,5.42,0,0,0-3,2.35l-.68,1.14a5.14,5.14,0,0,0,.4,5.68,4.93,4.93,0,0,0,2,1.57,4.74,4.74,0,0,0,3.33.26,3.14,3.14,0,0,1,.79-.24l-1.36.19a1,1,0,0,1,.3,0l-1.36-.18.14,0-1.22-.52a1,1,0,0,1,.24.14l-1-.8.09.1-.8-1,.07.11-.52-1.22,0,.12a5.33,5.33,0,0,0,2.35,3.06,5.21,5.21,0,0,0,3.94.51,5.14,5.14,0,0,0,3-2.35,5.31,5.31,0,0,0,.52-3.94Z"/><path class="aa8ca50d-536f-45a0-a618-82477c422597" d="M15.88,294.05c8.56-11,22.38-13.86,35.59-14.76,3.26-.22,3.29-5.33,0-5.11-14.45,1-29.83,4.23-39.2,16.26-2,2.56,1.59,6.21,3.61,3.61Z"/><path class="aa8ca50d-536f-45a0-a618-82477c422597" d="M55.47,276.44c1.71-9.11,7.17-16.46,12.84-23.55a29,29,0,0,1,24.22-10.78c3.29.19,3.28-4.92,0-5.11-9.71-.57-20.68,3.51-26.89,11.1-6.57,8-13.14,16.56-15.1,27-.61,3.22,4.32,4.59,4.93,1.36Z"/><path class="aa8ca50d-536f-45a0-a618-82477c422597" d="M96.5,240.07c3.34-8.58,11.57-13.57,19.82-16.64,7.87-2.93,18.44-6.9,26.89-5.57,3.22.5,4.61-4.42,1.36-4.93-10.55-1.66-22.8,2.66-32.44,6.68-9.06,3.77-16.92,9.75-20.56,19.1-1.2,3.06,3.74,4.39,4.93,1.36Z"/><path class="aa8ca50d-536f-45a0-a618-82477c422597" d="M61.06,231.31c8.8-9.9,21.19-14.61,33.83-17.48,7-1.6,14.55-3.39,21.78-3.13,6.89.25,16,1.89,22,5.37,2.85,1.66,5.43-2.76,2.58-4.41-6.51-3.77-15.19-5.33-22.62-5.95-7.75-.65-15.74,1.18-23.27,2.8-14.06,3-28.1,8.18-37.88,19.18-2.18,2.45,1.42,6.08,3.61,3.62Z"/><path class="aa8ca50d-536f-45a0-a618-82477c422597" d="M59.21,229c-6.06.48-11.61,1.36-16.34,5.46A119.05,119.05,0,0,0,28.32,249.9C19.47,261,15,274.28,10.84,287.68c-1,3.15,4,4.5,4.93,1.36,3.6-11.58,7.31-23.29,14.45-33.25A116.76,116.76,0,0,1,42,242.43c2-2,3.89-4.26,6.28-5.74,3.28-2,7.18-2.32,10.92-2.62,3.26-.25,3.29-5.37,0-5.11Z"/><path class="aa8ca50d-536f-45a0-a618-82477c422597" d="M126.28,208.87a210.2,210.2,0,0,1-36.87,8L92,226.39c7.57-4.61,16.82-5.33,24.83-9,6-2.79.77-11.46-5.16-8.83-13.29,5.88-28.14,7-41.55,12.64-5.27,2.23-1.42,11.58,3.94,9.34L87.34,225c5.9-2.47,3.62-12.12-2.72-9.87a198.32,198.32,0,0,0-20,8.39l5.16,8.83a165.81,165.81,0,0,1,49.07-16.25l-2.72-9.86c-13.6,4.6-23.51,14.51-32.95,24.91l8,6.19-2.7,1.42c3.43,1.44,6.1-2.08,6.47-4.93a25.29,25.29,0,0,0-.49-8.8c-.6-2.76-3.73-4.18-6.29-3.57A18.47,18.47,0,0,0,75.82,231a5.17,5.17,0,0,0,4.42,7.69,20.26,20.26,0,0,0,6-.83l-5-8.54a19.23,19.23,0,0,1-3.84,2.38,7.53,7.53,0,0,1-1.66.68q-3.52.85,3.53,3l-8.83-5.16c-.41.86-4.47,8.5.07,7.31l-6.47-4.93c-.23,2.42-.88,3.19-2.62,4.55-1,.82-4.61,2.21-5.2,3.16-1-.1-1,.18.17.83.54.95,1.23,1.06,2.08.33s1.4-.82,2-.42a5.06,5.06,0,0,1-2.86,1.61l5,1.31-.6-.74,1.5,3.61c.06-1,2.55-1.13,3-1.13l-5.11-5.11c-.06,3.88-9.24,5.82-11.92,7.73-3.69,2.61-6.08,6.46-6,11,.09,3.52,4.42,6.85,7.69,4.42l8.75-6.5-7-7A17.57,17.57,0,0,1,50.08,255l8.73,3.61-.2.82-8.54-5c-1.18,3.08-2.36,9.08-5.15,10.6-1.33.72-3.88.6-5.4.95A52.62,52.62,0,0,0,34,267.62a61.22,61.22,0,0,0-19.12,10.83l8.54,5c3.91-16.88,16.57-29.34,29.66-39.83l-8.55-5a91.16,91.16,0,0,1-6.6,15.5c-2.29,4.21-4.74,9.45-9.16,11.74l7.52,3.06c-.19-1.29,6-6.85,6.88-7.69a57.42,57.42,0,0,1,8.86-7l-7.69-4.42a19,19,0,0,1-4.51,11.44c-3.52,4.21.94,11.29,6.19,8L48.15,268l-7.51-5.77L40.1,264c-1.9,6.32,8,9,9.86,2.72l.54-1.78c1.27-4.23-3.74-8.11-7.51-5.78l-2.13,1.32,6.2,8a30.68,30.68,0,0,0,7.5-18.67c.21-3.8-4.53-6.47-7.69-4.41-8.14,5.28-22,15.26-20.44,26.21.49,3.47,4.92,4.41,7.51,3.06,5.61-2.92,9-8.55,12-13.89a105.36,105.36,0,0,0,8.47-19.46c1.74-5.33-4.92-7.88-8.54-5-14.44,11.57-28,25.79-32.29,44.35-1.21,5.23,4.67,8.15,8.55,5a50.45,50.45,0,0,1,24.44-10.57c3.78-.61,6.24-1.6,8.14-5.07,2.18-4,3.63-8.6,5.24-12.83,1.83-4.82-5.23-8.59-8.55-5a10.34,10.34,0,0,0-2.8,6.41c-.54,4.4,6,6.75,8.73,3.62a25.9,25.9,0,0,0,4.54-6.89c1.76-4-2.36-10.44-7-7l-8.74,6.5,7.7,4.41c-.1-4.06,8.94-5.88,11.72-7.81a13.34,13.34,0,0,0,6.17-11,5.2,5.2,0,0,0-5.12-5.12c-7.79-.05-17.32,8-11.15,15.72,1.17,1.47,3.29,1.62,5,1.32,6.59-1.18,13.8-9.26,10.85-16.12-3-7.1-11.94-6.52-17.89-3.83-5.73,2.59-10.11,10-4.62,15.39,4.37,4.26,11.83,2.82,16.11-.77,5.06-4.24,6-11.84.35-16.09a8.57,8.57,0,0,0-13.78,6.46C51.13,243.88,57,248,63,247.11c7.49-1.06,10.72-7.73,11.38-14.59.32-3.4-3.52-5.7-6.47-4.93C61.31,229.31,57.19,237.54,64,242c6.35,4.18,12.67-1,15.36-6.71,2.78-5.93-5.14-10.7-8.83-5.16-2.73,4.09-2.26,11,3.33,12.42,5.09,1.29,11-3.11,14.7-6.06,4.12-3.29-.35-9.89-5-8.55a6.19,6.19,0,0,1-3.32.47l4.41,7.69a8.61,8.61,0,0,1,6.29-4.84l-6.29-3.57a16.16,16.16,0,0,1,.13,6.08l6.48-4.93c-3.47-1.45-7,.27-8.85,3.28-3,4.87,4.09,10.53,8,6.2,8.14-9,16.66-18.29,28.44-22.28,6.32-2.14,3.72-10.94-2.72-9.86a173.93,173.93,0,0,0-51.51,17.28c-5.87,3.05-.71,11.69,5.16,8.83A172.2,172.2,0,0,1,87.34,225l-2.72-9.87-13.29,5.55L75.27,230c13.4-5.67,28.19-6.73,41.55-12.64l-5.16-8.83c-8.06,3.75-17.12,4.36-24.83,9.05-4,2.42-2.74,10.17,2.58,9.53A225.58,225.58,0,0,0,129,218.73c6.27-1.94,3.59-11.82-2.72-9.86Z"/><path d="M54.48,228.72c-14.06,3.43-26.12,16.15-33.33,28.21a68.94,68.94,0,0,0-9.63,41.25c.14,1.62,2.7,1.64,2.55,0a66.4,66.4,0,0,1,8.55-38.69c6.84-12,18.67-24.92,32.54-28.3,1.6-.39.92-2.86-.68-2.47Z"/><path d="M55.72,230.86c10.14-13,26.81-19.55,42.61-22.12,18.4-3,36.37-2.54,51.06,10.37,1.23,1.08,3-.72,1.8-1.81-14.39-12.65-31.53-14.08-49.81-11.58-17.47,2.38-36.22,8.89-47.46,23.33-1,1.28.79,3.1,1.8,1.81Z"/><path d="M13.9,298.82c6.86-14.46,25.63-19,40.18-19a1.32,1.32,0,0,0,1.24-.94C58.5,268,62.44,258.13,72,251.4a39.52,39.52,0,0,1,14.08-6.15c3-.65,8.41.16,10.79-2.12,1.21-1.17,1.68-3,2.56-4.38a28.5,28.5,0,0,1,5.18-6,44.59,44.59,0,0,1,16.11-8.7,149.65,149.65,0,0,1,14.62-3.55c4.66-1,9.91-2.6,14.59-1,1.56.52,2.23-1.95.68-2.47-5.49-1.85-11.67.12-17.11,1.27-8.08,1.72-16.22,3.51-23.52,7.58a38.24,38.24,0,0,0-8.83,6.66c-2.2,2.27-3.32,5.35-5.34,7.6-2.47,2.76-8.39,2.15-11.88,3.06a42.74,42.74,0,0,0-9.39,3.72,39.31,39.31,0,0,0-14.5,13.26,49.85,49.85,0,0,0-4.71,10.06c-.49,1.4-1,5.45-2,6.4-1.32,1.22-3.58.72-5.27.84-13.57,1-30.12,7-36.36,20.11-.7,1.48,1.5,2.78,2.21,1.29Z"/><path d="M55.49,229.37C49.17,233.64,48,243.9,47,250.86a57.8,57.8,0,0,0,2.76,28c.57,1.53,3,.87,2.47-.68a54,54,0,0,1-3.14-22.76c.46-6.58,1.62-19.74,7.65-23.82,1.36-.91.08-3.13-1.29-2.2Z"/><path d="M95,240.54c-10.18-8.53-26.1-17-39.49-11.17-1.5.65-.2,2.86,1.29,2.2C68.9,226.3,84,234.66,93.17,242.35c1.26,1.05,3.07-.75,1.81-1.81Z"/><path d="M55.19,279.17c5.83-9,15.6-14.85,25.77-17.84,4.33-1.27,5.68-1.17,7.66-5.12a32,32,0,0,1,10.72-12A49.48,49.48,0,0,1,114,237.69c2.51-.7,5-1.26,7.62-1.71,2.17-.39,5.15-.29,7.14-1.31,2.83-1.45,3.84-5.62,6.17-7.78,3.61-3.36,11-6.55,15.72-7.45,1.61-.31.93-2.78-.68-2.47-4.59.88-9.41,3.34-13.44,5.62a18.68,18.68,0,0,0-5,4.19c-1.46,1.71-2.34,4.76-4.4,5.78s-5.58.82-7.89,1.27a73.13,73.13,0,0,0-8.39,2.14,49,49,0,0,0-14,6.94,34.94,34.94,0,0,0-8.61,8.88c-1.88,2.83-2.39,5.18-5.72,6.47-2.4.93-5,1.43-7.37,2.39-8.87,3.53-16.93,9.14-22.15,17.23-.89,1.39,1.32,2.67,2.21,1.29Z"/><path d="M74.87,248.72a21,21,0,0,1,6.92,9c.6,1.51,3.07.86,2.47-.68a24.33,24.33,0,0,0-8.09-10.57c-1.32-1-2.59,1.23-1.3,2.21Z"/><path d="M107.31,230.61c5.85-2.36,13.62-2.74,18.32,2.1,1.15,1.18,3-.63,1.81-1.81-5.32-5.48-14.09-5.47-20.81-2.76-1.51.61-.85,3.08.68,2.47Z"/><path d="M75.89,251.31c16.24,24.21,30.78,49.48,46.82,73.82,1.8,2.74,6.23.18,4.41-2.58-16-24.34-30.58-49.61-46.82-73.82-1.82-2.72-6.25-.16-4.41,2.58Z"/><path class="f67851e3-8fdb-4bc0-ae40-855a2865098c" d="M41.51,240.36a14.89,14.89,0,0,0-3.94,3.44,1.33,1.33,0,0,0,0,1.81,1.3,1.3,0,0,0,1.81,0,12.78,12.78,0,0,1,3.42-3.05c1.4-.85.12-3.06-1.29-2.2Z"/><path class="f67851e3-8fdb-4bc0-ae40-855a2865098c" d="M33.82,247.94a49,49,0,0,0-17.31,32.42c-.19,1.63,2.37,1.62,2.56,0a46.45,46.45,0,0,1,16.56-30.61c1.27-1.05-.55-2.85-1.81-1.81Z"/><path class="e82f6142-3dd1-4b98-8ea0-52806dfeb3bf" d="M82.6,357.29c6.68,5.73,15.54,8,24,9.63a109.83,109.83,0,0,0,28.78,1.72c5.31-.37,5.35-8.69,0-8.31a101.48,101.48,0,0,1-24.74-1.09c-7.31-1.29-16.37-2.86-22.17-7.83-4-3.46-10,2.39-5.88,5.88Z"/><path class="e29a5a28-8dbc-4c1b-88bd-7907c137de0b" d="M21.37,229.25a68,68,0,0,1,30.25-5.47c1.34.06,1.34-2,0-2.08a70.1,70.1,0,0,0-31.3,5.76c-1.23.53-.17,2.32,1.05,1.79Z"/><path class="e29a5a28-8dbc-4c1b-88bd-7907c137de0b" d="M7.92,246.42a21.64,21.64,0,0,1,11.1,5.7c1,.92,2.44-.54,1.47-1.47a23.57,23.57,0,0,0-12-6.23c-1.3-.25-1.86,1.75-.55,2Z"/></g></g></svg>