<svg xmlns="http://www.w3.org/2000/svg" viewBox="0 0 521 450.82"><defs><style>.be4995db-349a-42a6-a5ec-0c4156ee7bac{fill:#6a3906;}.a43d811a-c554-4e2f-af0a-3d43f726223b,.be4995db-349a-42a6-a5ec-0c4156ee7bac{stroke:#6a3906;}.a15b4718-4cfc-40c8-a955-b0c157da3e78,.a18cefed-0fd9-452b-b175-1254e8282295,.a260536e-b455-4ec3-8e13-35f77638fbf1,.a33d470d-f736-45f7-91e0-fbc392da233b,.a43d811a-c554-4e2f-af0a-3d43f726223b,.ac9dcb85-6627-4800-8ab1-5496e0f03298,.adf58013-3c17-4de8-af53-3b4d59fb96a2,.b081dd1e-09a4-452b-8bfb-806327ec92ba,.b151ddc6-434f-43c6-bb70-3734d50e53a4,.b2f55abd-c1d2-4375-a74b-4a7fb2db6abd,.baeb4e94-3a54-401a-8913-fa5ed8ee2170,.be4995db-349a-42a6-a5ec-0c4156ee7bac,.e82a304c-cc29-4f0e-8cbc-b95181ed29a1,.e8c28fd3-c0f1-45e3-baec-133e4657baad,.f9266119-51cc-43ca-b8d4-7988c65da10f,.fc63cdad-ec25-40c0-9b95-338d9fc318da{stroke-miterlimit:10;}.b2f55abd-c1d2-4375-a74b-4a7fb2db6abd,.be4995db-349a-42a6-a5ec-0c4156ee7bac{stroke-width:2.4px;}.a43d811a-c554-4e2f-af0a-3d43f726223b{fill:#b28247;stroke-width:4.81px;}.a260536e-b455-4ec3-8e13-35f77638fbf1,.a33d470d-f736-45f7-91e0-fbc392da233b,.b2f55abd-c1d2-4375-a74b-4a7fb2db6abd,.bfcda5b8-6774-43c7-8489-f22df38b4044,.eb56827e-b57f-4c85-b6e9-8f17a2a4dcc7,.fb0eb0db-60a9-42e7-a859-5a902ee397cc{fill:none;}.b2f55abd-c1d2-4375-a74b-4a7fb2db6abd{stroke:#7f4f21;}.abf5c8b1-febf-44af-bbc3-2cda129db6f4{fill:#40220f;}.e733c3b8-e6c9-4175-a460-74651e938863{fill:#12a1cd;}.e9801dd9-b8d1-4b8c-add2-add456124369{fill:#036eb8;}.a45d0f78-bdc8-4dbb-a395-4a4da2a67ade,.baeb4e94-3a54-401a-8913-fa5ed8ee2170{fill:#ac7c4c;}.a15b4718-4cfc-40c8-a955-b0c157da3e78,.a18cefed-0fd9-452b-b175-1254e8282295,.a260536e-b455-4ec3-8e13-35f77638fbf1,.a33d470d-f736-45f7-91e0-fbc392da233b,.ac9dcb85-6627-4800-8ab1-5496e0f03298,.adf58013-3c17-4de8-af53-3b4d59fb96a2,.b151ddc6-434f-43c6-bb70-3734d50e53a4,.b85c5922-af29-4145-bc24-92663c433037,.baeb4e94-3a54-401a-8913-fa5ed8ee2170,.e82a304c-cc29-4f0e-8cbc-b95181ed29a1,.e8c28fd3-c0f1-45e3-baec-133e4657baad,.e997bfdd-f32d-4f6f-a062-ab4f1dbb10a7,.eb56827e-b57f-4c85-b6e9-8f17a2a4dcc7,.f9266119-51cc-43ca-b8d4-7988c65da10f,.fc63cdad-ec25-40c0-9b95-338d9fc318da{stroke:#40220f;}.a15b4718-4cfc-40c8-a955-b0c157da3e78,.a18cefed-0fd9-452b-b175-1254e8282295,.a260536e-b455-4ec3-8e13-35f77638fbf1,.ac9dcb85-6627-4800-8ab1-5496e0f03298,.baeb4e94-3a54-401a-8913-fa5ed8ee2170,.e82a304c-cc29-4f0e-8cbc-b95181ed29a1,.e8c28fd3-c0f1-45e3-baec-133e4657baad{stroke-width:5.26px;}.b081dd1e-09a4-452b-8bfb-806327ec92ba,.fb396d15-e7e6-411f-8948-d37a2e9a7ec7{fill:#fff;}.b081dd1e-09a4-452b-8bfb-806327ec92ba{stroke:#231815;stroke-width:0.32px;}.e82a304c-cc29-4f0e-8cbc-b95181ed29a1{fill:#b0804f;}.a85ba258-f4db-46f0-b021-a6d6ffe90a83{fill:#d99852;}.a5978939-4845-4db9-94e3-39fa635eb372{fill:#f5ac5c;}.a18cefed-0fd9-452b-b175-1254e8282295,.fc63cdad-ec25-40c0-9b95-338d9fc318da{fill:#ca925b;}.f7535a49-c133-4713-92dc-049769b7b020{fill:#efcd89;}.fa2a0c49-e153-4de9-9529-421103f61580{fill:#f29432;}.e148711d-2e65-4173-bade-e7bb323fceda{fill:#604c3f;}.f49b5f29-6b1b-4c61-8dde-b95af5f49eaf{fill:#8d643b;}.b85c5922-af29-4145-bc24-92663c433037,.e997bfdd-f32d-4f6f-a062-ab4f1dbb10a7,.eb56827e-b57f-4c85-b6e9-8f17a2a4dcc7,.fb0eb0db-60a9-42e7-a859-5a902ee397cc{stroke-linecap:round;stroke-linejoin:round;}.e997bfdd-f32d-4f6f-a062-ab4f1dbb10a7,.eb56827e-b57f-4c85-b6e9-8f17a2a4dcc7{stroke-width:4.53px;}.b85c5922-af29-4145-bc24-92663c433037,.e997bfdd-f32d-4f6f-a062-ab4f1dbb10a7{fill:#f4b1c5;}.b85c5922-af29-4145-bc24-92663c433037{stroke-width:3.02px;}.fe05c728-2894-4ebd-bf12-8f22da0f5089{fill:#eb665e;}.bfcbc948-0ef6-4819-8343-503d9148dca9{fill:#f08831;}.e8c28fd3-c0f1-45e3-baec-133e4657baad{fill:#727171;}.f9266119-51cc-43ca-b8d4-7988c65da10f{fill:#6fc9f3;}.a33d470d-f736-45f7-91e0-fbc392da233b,.adf58013-3c17-4de8-af53-3b4d59fb96a2,.b151ddc6-434f-43c6-bb70-3734d50e53a4,.f9266119-51cc-43ca-b8d4-7988c65da10f{stroke-width:5.68px;}.ac9dcb85-6627-4800-8ab1-5496e0f03298,.b151ddc6-434f-43c6-bb70-3734d50e53a4{fill:#dcdddd;}.a15b4718-4cfc-40c8-a955-b0c157da3e78{fill:#898989;}.adf58013-3c17-4de8-af53-3b4d59fb96a2{fill:#5966ae;}.f318c138-74f1-4adf-aa07-a4891c5a4512{fill:#659eb9;}.b6ffb1de-ef48-4335-8fe3-d9b4ed7b421a{fill:#9794b7;}.fb0eb0db-60a9-42e7-a859-5a902ee397cc{stroke:#f4f4f4;stroke-width:1.13px;}.ae010bda-8c86-47da-88ef-efe6dd144084{fill:#a8a9a9;}.f0deaf4e-d0df-476b-852e-af0a9d7d8d63{fill:#ededed;}.adb2df2d-c8c6-448a-aa86-971967f71322{fill:#b5b5b6;}.fc63cdad-ec25-40c0-9b95-338d9fc318da{stroke-width:6.45px;}</style></defs><title>小熊</title><g id="f05b4a39-8021-4eb2-a614-2a52d155fcb9" data-name="圖層 2"><g id="aa277151-de59-4c3b-a3f9-264dfa6e84b7" data-name="圖層 1"><path class="be4995db-349a-42a6-a5ec-0c4156ee7bac" d="M165.72,337.35c-24.4,27.2-68.43,78.9-102.59,44.59C31,349.65,84.7,310.9,114.41,289c28.75-21.16,52.9-25.3,66.62-11.53S189.12,311.27,165.72,337.35Z"/><ellipse class="a43d811a-c554-4e2f-af0a-3d43f726223b" cx="87.77" cy="359.43" rx="36.77" ry="34.61"/><ellipse class="b2f55abd-c1d2-4375-a74b-4a7fb2db6abd" cx="87.77" cy="359.43" rx="7.5" ry="7.06"/><ellipse class="b2f55abd-c1d2-4375-a74b-4a7fb2db6abd" cx="87.77" cy="359.5" rx="13.29" ry="12.51"/><ellipse class="b2f55abd-c1d2-4375-a74b-4a7fb2db6abd" cx="87.77" cy="359.43" rx="19.34" ry="18.21"/><ellipse class="b2f55abd-c1d2-4375-a74b-4a7fb2db6abd" cx="87.77" cy="359.43" rx="28.58" ry="26.9"/><path class="be4995db-349a-42a6-a5ec-0c4156ee7bac" d="M221.84,345c-24.41,27.2-68.44,78.9-102.6,44.59-32.16-32.3,21.58-71,51.29-92.91,28.75-21.16,52.9-25.31,66.61-11.53S245.23,318.88,221.84,345Z"/><ellipse class="a43d811a-c554-4e2f-af0a-3d43f726223b" cx="143.88" cy="367.04" rx="36.77" ry="34.61"/><ellipse class="b2f55abd-c1d2-4375-a74b-4a7fb2db6abd" cx="143.88" cy="367.04" rx="7.5" ry="7.06"/><ellipse class="b2f55abd-c1d2-4375-a74b-4a7fb2db6abd" cx="143.88" cy="367.11" rx="13.29" ry="12.51"/><ellipse class="b2f55abd-c1d2-4375-a74b-4a7fb2db6abd" cx="143.88" cy="367.04" rx="19.34" ry="18.21"/><ellipse class="b2f55abd-c1d2-4375-a74b-4a7fb2db6abd" cx="143.88" cy="367.04" rx="28.58" ry="26.9"/><path class="be4995db-349a-42a6-a5ec-0c4156ee7bac" d="M278,354.4c-24.4,27.21-68.43,78.91-102.59,44.6-32.16-32.3,21.57-71.05,51.28-92.91,28.75-21.16,52.9-25.31,66.61-11.54S301.35,328.33,278,354.4Z"/><ellipse class="a43d811a-c554-4e2f-af0a-3d43f726223b" cx="200" cy="376.49" rx="36.77" ry="34.61"/><ellipse class="b2f55abd-c1d2-4375-a74b-4a7fb2db6abd" cx="200" cy="376.49" rx="7.5" ry="7.06"/><ellipse class="b2f55abd-c1d2-4375-a74b-4a7fb2db6abd" cx="200" cy="376.56" rx="13.29" ry="12.51"/><ellipse class="b2f55abd-c1d2-4375-a74b-4a7fb2db6abd" cx="200" cy="376.49" rx="19.34" ry="18.21"/><ellipse class="b2f55abd-c1d2-4375-a74b-4a7fb2db6abd" cx="200" cy="376.49" rx="28.58" ry="26.9"/><path class="be4995db-349a-42a6-a5ec-0c4156ee7bac" d="M327.68,357.94c-24.41,27.2-68.44,78.9-102.6,44.59-32.16-32.29,21.58-71,51.29-92.91,28.75-21.15,52.9-25.3,66.61-11.53S351.07,331.87,327.68,357.94Z"/><ellipse class="a43d811a-c554-4e2f-af0a-3d43f726223b" cx="249.72" cy="380.02" rx="36.77" ry="34.61"/><ellipse class="b2f55abd-c1d2-4375-a74b-4a7fb2db6abd" cx="249.72" cy="380.02" rx="7.5" ry="7.06"/><ellipse class="b2f55abd-c1d2-4375-a74b-4a7fb2db6abd" cx="249.72" cy="380.1" rx="13.29" ry="12.51"/><ellipse class="b2f55abd-c1d2-4375-a74b-4a7fb2db6abd" cx="249.72" cy="380.02" rx="19.34" ry="18.21"/><ellipse class="b2f55abd-c1d2-4375-a74b-4a7fb2db6abd" cx="249.72" cy="380.02" rx="28.58" ry="26.9"/><path class="be4995db-349a-42a6-a5ec-0c4156ee7bac" d="M390.33,363.37c-24.4,27.2-68.43,78.9-102.6,44.59-32.15-32.3,21.58-71,51.29-92.91,28.75-21.16,52.9-25.31,66.61-11.54S413.73,337.29,390.33,363.37Z"/><ellipse class="a43d811a-c554-4e2f-af0a-3d43f726223b" cx="308.64" cy="385.69" rx="36.77" ry="34.61"/><ellipse class="b2f55abd-c1d2-4375-a74b-4a7fb2db6abd" cx="308.64" cy="385.69" rx="7.5" ry="7.06"/><ellipse class="b2f55abd-c1d2-4375-a74b-4a7fb2db6abd" cx="308.64" cy="385.76" rx="13.29" ry="12.51"/><ellipse class="b2f55abd-c1d2-4375-a74b-4a7fb2db6abd" cx="308.64" cy="385.69" rx="19.34" ry="18.21"/><ellipse class="b2f55abd-c1d2-4375-a74b-4a7fb2db6abd" cx="308.64" cy="385.69" rx="28.58" ry="26.9"/><path class="abf5c8b1-febf-44af-bbc3-2cda129db6f4" d="M342.6,309.14a441.49,441.49,0,0,0-46,34.52c-2.94,2.52,1.33,6.76,4.25,4.25a430.2,430.2,0,0,1,44.78-33.58c3.23-2.11.22-7.32-3-5.19Z"/><path class="abf5c8b1-febf-44af-bbc3-2cda129db6f4" d="M289.58,296.85c-8.62,10-20.93,16.46-31.42,24.29s-20.42,16-30.06,24.75c-2.87,2.6,1.39,6.84,4.25,4.25a405.67,405.67,0,0,1,31.78-26c10-7.36,21.49-13.56,29.7-23.06,2.52-2.91-1.71-7.18-4.25-4.25Z"/><path class="abf5c8b1-febf-44af-bbc3-2cda129db6f4" d="M238.1,292.75C234,298,227.45,301,221.9,304.46s-11,6.84-16.41,10.47C195,322.06,185,330,176.82,339.88c-2.45,3,1.78,7.24,4.25,4.25,8.54-10.36,19.1-18.53,30.27-25.88,5.42-3.57,10.95-7,16.47-10.38,5.11-3.16,10.78-6.06,14.55-10.87,2.36-3-1.87-7.29-4.26-4.25Z"/><path class="abf5c8b1-febf-44af-bbc3-2cda129db6f4" d="M179.13,285.71a549.51,549.51,0,0,0-59.56,50.05c-2.78,2.7,1.47,6.95,4.25,4.25a539.45,539.45,0,0,1,58.34-49.11c3.1-2.25.1-7.47-3-5.19Z"/><path class="abf5c8b1-febf-44af-bbc3-2cda129db6f4" d="M380.55,306.45c5.06-1.09,11.1,1.1,15.57,3.49s6.46,6.7,8.21,11.33c1.36,3.58,7.18,2,5.8-1.6-2.3-6.06-5-11.77-11-14.93s-13.34-5.56-20.21-4.09c-3.78.81-2.18,6.61,1.6,5.8Z"/><path class="abf5c8b1-febf-44af-bbc3-2cda129db6f4" d="M308.74,301.24a18.28,18.28,0,0,1,21.37,4.69c2.59,2.89,6.83-1.37,4.25-4.25-7.44-8.3-18.63-10-28.65-5.63-3.54,1.54-.48,6.73,3,5.19Z"/><path class="abf5c8b1-febf-44af-bbc3-2cda129db6f4" d="M259.44,295.82c3.61-3.5,12.21-2.3,16.17-.06,3.38,1.91,6.41-3.28,3-5.19-6.49-3.66-17.76-4.52-23.46,1-2.79,2.69,1.47,6.94,4.25,4.25Z"/><path class="abf5c8b1-febf-44af-bbc3-2cda129db6f4" d="M199.77,288.72c8.07-2.32,16.46-2.92,23.46,2.45,3.07,2.36,6.07-2.86,3-5.19-8.18-6.27-18.66-5.77-28.1-3.06-3.71,1.06-2.13,6.87,1.6,5.8Z"/><path class="abf5c8b1-febf-44af-bbc3-2cda129db6f4" d="M147.37,278.21a27.06,27.06,0,0,1,21.76,4c3.22,2.17,6.23-3,3-5.19a33.1,33.1,0,0,0-26.39-4.58c-3.76.89-2.17,6.69,1.6,5.8Z"/><path class="abf5c8b1-febf-44af-bbc3-2cda129db6f4" d="M394.3,343.12a149.57,149.57,0,0,1-40.49,46.11c-3.06,2.29-.07,7.52,3,5.19a156.48,156.48,0,0,0,42.65-48.27c1.91-3.37-3.28-6.4-5.19-3Z"/><path class="abf5c8b1-febf-44af-bbc3-2cda129db6f4" d="M128.21,282.43,85.16,316.35c-3,2.4,1.24,6.62,4.25,4.25l43.05-33.92c3-2.39-1.24-6.62-4.25-4.25Z"/><path class="abf5c8b1-febf-44af-bbc3-2cda129db6f4" d="M284.67,378.14c3.18-11.84,19.52-14.32,29.47-11.2,3.7,1.17,5.28-4.64,1.6-5.79-13.16-4.13-32.83.36-36.87,15.4-1,3.74,4.79,5.33,5.8,1.59Z"/><path class="abf5c8b1-febf-44af-bbc3-2cda129db6f4" d="M297.22,411.51a36.53,36.53,0,0,0,32.46-2.95c3.29-2,.27-7.23-3-5.19a30.88,30.88,0,0,1-27.83,2.35c-3.6-1.41-5.17,4.4-1.6,5.79Z"/><path class="abf5c8b1-febf-44af-bbc3-2cda129db6f4" d="M236.21,361.6a27.24,27.24,0,0,1,27.89.32c3.32,2,6.34-3.19,3-5.19a33.37,33.37,0,0,0-34-.32c-3.35,1.94-.32,7.13,3,5.19Z"/><path class="abf5c8b1-febf-44af-bbc3-2cda129db6f4" d="M239,408.92a35.56,35.56,0,0,0,26.79-1c3.54-1.53.48-6.71-3-5.19a29.43,29.43,0,0,1-22.15.38c-3.64-1.33-5.21,4.48-1.6,5.8Z"/><path class="abf5c8b1-febf-44af-bbc3-2cda129db6f4" d="M182.63,357.93A42.68,42.68,0,0,1,212,355.71c3.73,1,5.33-4.78,1.59-5.8a49.29,49.29,0,0,0-34,2.82c-3.52,1.61-.47,6.79,3,5.2Z"/><path class="abf5c8b1-febf-44af-bbc3-2cda129db6f4" d="M180.6,400.38c10.46,6,20.86,5.42,32.55,4.83,3.85-.19,3.87-6.21,0-6-10.49.53-20.08,1.41-29.51-4-3.36-1.93-6.39,3.26-3,5.19Z"/><path class="abf5c8b1-febf-44af-bbc3-2cda129db6f4" d="M129.84,348a44.39,44.39,0,0,1,15.64-1.55c4.59.41,11.38,1.15,13.86,5.63,1.88,3.38,7.07.35,5.19-3-6.27-11.3-25.93-9.66-36.29-6.84-3.73,1-2.15,6.82,1.6,5.8Z"/><path class="abf5c8b1-febf-44af-bbc3-2cda129db6f4" d="M122.7,389.09c3.55,4.1,9,4.78,14.14,5.36a52.52,52.52,0,0,0,20-1.38c3.73-1,2.14-6.83-1.6-5.79a45.42,45.42,0,0,1-14.91,1.47c-4.35-.26-10.36-.37-13.43-3.91-2.54-2.93-6.77,1.33-4.25,4.25Z"/><path class="abf5c8b1-febf-44af-bbc3-2cda129db6f4" d="M75.94,339a59.11,59.11,0,0,1,14.49-.93c5.3.16,10.72.36,14.55,4.49,2.64,2.84,6.89-1.42,4.25-4.25-4-4.32-9.42-5.69-15.14-6.1a68.83,68.83,0,0,0-19.75,1c-3.78.83-2.18,6.63,1.6,5.79Z"/><path class="abf5c8b1-febf-44af-bbc3-2cda129db6f4" d="M69.23,384.13c3.28,3.6,10.51,3.57,15,3.88A30.88,30.88,0,0,0,100.67,385c3.45-1.76.41-6.94-3-5.19a23.4,23.4,0,0,1-11.54,2.32c-2.6-.07-10.63,0-12.61-2.21-2.6-2.87-6.84,1.39-4.25,4.25Z"/><path class="e733c3b8-e6c9-4175-a460-74651e938863" d="M12,407.11c27.61-3.52,55.54-6.35,83.37-4,26.5,2.23,51.56,11.31,76.94,18.63,52.77,15.23,107.66,16.5,162,10.84,31.39-3.27,62.53-8.48,93.56-14.11,6.39-1.16,10-8.93,8.4-14.79-1.85-6.72-8.38-9.56-14.79-8.39-52.76,9.57-106.16,18.05-160,16.25a331.68,331.68,0,0,1-77.43-11.46c-26.32-7.26-51.87-16.52-79.08-20-31-3.95-62.2-.95-93,3-6.44.82-12,4.94-12,12,0,5.85,5.54,12.85,12,12Z"/><path class="e9801dd9-b8d1-4b8c-add2-add456124369" d="M12.07,392.19c100.48-23,197.25,39.2,298,26.22,28.15-3.63,54.83-13.24,81.33-23,7.2-2.65,4.09-14.27-3.19-11.59-23.58,8.7-47.34,17.44-72.21,21.67-24.56,4.17-49.82,3.22-74.44,0C191.5,399,143.14,383.18,92.92,377.37c-28-3.24-56.43-3.09-84,3.23-7.54,1.72-4.35,13.32,3.19,11.59Z"/><circle class="baeb4e94-3a54-401a-8913-fa5ed8ee2170" cx="250.21" cy="273.52" r="84.21"/><circle class="fb396d15-e7e6-411f-8948-d37a2e9a7ec7" cx="250.21" cy="260.89" r="56.05"/><circle class="b081dd1e-09a4-452b-8bfb-806327ec92ba" cx="287.66" cy="36.5" r="33.87"/><circle class="e82a304c-cc29-4f0e-8cbc-b95181ed29a1" cx="287.66" cy="36.5" r="33.87"/><circle class="a85ba258-f4db-46f0-b021-a6d6ffe90a83" cx="287.66" cy="36.5" r="18.07"/><circle class="b081dd1e-09a4-452b-8bfb-806327ec92ba" cx="206.24" cy="36.5" r="33.87"/><circle class="e82a304c-cc29-4f0e-8cbc-b95181ed29a1" cx="206.24" cy="36.5" r="33.87"/><circle class="a85ba258-f4db-46f0-b021-a6d6ffe90a83" cx="206.24" cy="36.5" r="18.07"/><circle class="a5978939-4845-4db9-94e3-39fa635eb372" cx="208.46" cy="36.5" r="15.84"/><circle class="a5978939-4845-4db9-94e3-39fa635eb372" cx="289.14" cy="38.73" r="15.84"/><circle class="a18cefed-0fd9-452b-b175-1254e8282295" cx="246.42" cy="147.74" r="112.64"/><circle class="f7535a49-c133-4713-92dc-049769b7b020" cx="246.42" cy="184.16" r="44.03"/><path class="fa2a0c49-e153-4de9-9529-421103f61580" d="M201.33,192.84a49.48,49.48,0,0,0-67.53-46.06c0,.32,0,.64,0,1a112.43,112.43,0,0,0,42.48,88.13A49.46,49.46,0,0,0,201.33,192.84Z"/><path class="fa2a0c49-e153-4de9-9529-421103f61580" d="M359.06,147.74c0-.18,0-.36,0-.54a49.48,49.48,0,0,0-42.92,89A112.44,112.44,0,0,0,359.06,147.74Z"/><circle class="abf5c8b1-febf-44af-bbc3-2cda129db6f4" cx="203.7" cy="141.61" r="13.33"/><circle class="abf5c8b1-febf-44af-bbc3-2cda129db6f4" cx="289.14" cy="141.61" r="13.33"/><circle class="fb396d15-e7e6-411f-8948-d37a2e9a7ec7" cx="199.05" cy="138.46" r="4.65"/><circle class="fb396d15-e7e6-411f-8948-d37a2e9a7ec7" cx="284.49" cy="138.46" r="4.65"/><ellipse class="e148711d-2e65-4173-bade-e7bb323fceda" cx="246.42" cy="160.34" rx="15.26" ry="10.92"/><circle class="a260536e-b455-4ec3-8e13-35f77638fbf1" cx="246.42" cy="147.74" r="112.64"/><circle class="baeb4e94-3a54-401a-8913-fa5ed8ee2170" cx="188.12" cy="340.45" r="28.92"/><circle class="f49b5f29-6b1b-4c61-8dde-b95af5f49eaf" cx="188.06" cy="348.72" r="14.37"/><circle class="f49b5f29-6b1b-4c61-8dde-b95af5f49eaf" cx="170.17" cy="336.04" r="5.61"/><circle class="f49b5f29-6b1b-4c61-8dde-b95af5f49eaf" cx="181.39" cy="324.82" r="5.61"/><circle class="f49b5f29-6b1b-4c61-8dde-b95af5f49eaf" cx="195.61" cy="324.82" r="5.61"/><circle class="f49b5f29-6b1b-4c61-8dde-b95af5f49eaf" cx="206.31" cy="336.04" r="5.61"/><circle class="baeb4e94-3a54-401a-8913-fa5ed8ee2170" cx="301.33" cy="340.45" r="28.92"/><circle class="f49b5f29-6b1b-4c61-8dde-b95af5f49eaf" cx="301.27" cy="348.72" r="14.37"/><circle class="f49b5f29-6b1b-4c61-8dde-b95af5f49eaf" cx="283.37" cy="336.04" r="5.61"/><circle class="f49b5f29-6b1b-4c61-8dde-b95af5f49eaf" cx="294.6" cy="324.82" r="5.61"/><circle class="f49b5f29-6b1b-4c61-8dde-b95af5f49eaf" cx="308.81" cy="324.82" r="5.61"/><circle class="f49b5f29-6b1b-4c61-8dde-b95af5f49eaf" cx="319.51" cy="336.04" r="5.61"/><path class="eb56827e-b57f-4c85-b6e9-8f17a2a4dcc7" d="M224,196.7s25.09-4.52,45.62,9.31"/><path class="e997bfdd-f32d-4f6f-a062-ab4f1dbb10a7" d="M225.59,196.47s-11.3,14.08.54,17.43,12.68-10.24,8.72-17.43A34.53,34.53,0,0,0,225.59,196.47Z"/><line class="b85c5922-af29-4145-bc24-92663c433037" x1="230.01" y1="197.14" x2="228.87" y2="206.01"/><path class="abf5c8b1-febf-44af-bbc3-2cda129db6f4" d="M364.2,46.08c67.61,8.86,103.34,83.88,92.25,146.07-5.92,33.17-25.32,65.71-16.46,100.27,3.56,13.89,12.33,24.89,23.14,34,10.46,8.79,22.24,16.12,31.29,26.48,21.89,25.06,26.67,64,16,94.82-1.09,3.13,3.86,4.47,4.94,1.37,9.64-27.81,6.85-60.49-7.67-86.16-7-12.33-17-21.52-28.08-30.07-11.78-9.07-24.2-18-31-31.7-17.46-35.19,7.29-74.4,13.06-109.26,5.29-32-.46-66.3-16.57-94.51-17-29.8-46.55-51.9-80.91-56.41-3.26-.42-3.23,4.71,0,5.13Z"/><polygon class="bfcda5b8-6774-43c7-8489-f22df38b4044" points="261.69 311.53 205.24 307.55 202.75 339.92 278.39 339.92 261.69 311.53"/><path class="fe05c728-2894-4ebd-bf12-8f22da0f5089" d="M224,207.32a3.12,3.12,0,0,0,2.2,3.16c1.17.36,1.66-1.46.51-1.82a1.22,1.22,0,0,1-.82-1.34.95.95,0,0,0-1.89,0Z"/><path class="a45d0f78-bdc8-4dbb-a395-4a4da2a67ade" d="M136.49,145.81s6-2.09,10.5-2.2c0,0,8.57-118.68,146.08-95.53,0,0-44.58-23.72-93.91.15C150.77,71.64,136.66,116.05,136.49,145.81Z"/><path class="bfcbc948-0ef6-4819-8343-503d9148dca9" d="M136.49,145.81s18.77-7.65,39.71,3.95c0,0-10.34-.85-19.26-.68a10.63,10.63,0,0,0-10.29,12.61c3.55,18.52,12.71,56,30.69,71.6C177.34,233.29,135.46,203.8,136.49,145.81Z"/><path class="bfcbc948-0ef6-4819-8343-503d9148dca9" d="M356.41,146s-18.77-7.66-39.71,4c0,0,10.34-.85,19.26-.68a10.63,10.63,0,0,1,10.29,12.61c-3.55,18.52-12.71,56-30.69,71.6C315.56,233.52,357.44,204,356.41,146Z"/><path class="e8c28fd3-c0f1-45e3-baec-133e4657baad" d="M301.34,233.17s-2.75-130.79,57.83-189.54a4.25,4.25,0,0,1,4.22-1h0a4.27,4.27,0,0,1,2.09,6.72c-13.66,17.35-52,71-49.4,183.8Z"/><path class="f9266119-51cc-43ca-b8d4-7988c65da10f" d="M297,242.12h23.74a3,3,0,0,1,3,3v82.37a8.62,8.62,0,0,1-8.62,8.62H302.6a8.62,8.62,0,0,1-8.62-8.62V245.16a3,3,0,0,1,3-3Z"/><path class="ac9dcb85-6627-4800-8ab1-5496e0f03298" d="M283,249.13h9.77a0,0,0,0,1,0,0v48.95a0,0,0,0,1,0,0H283a13.39,13.39,0,0,1-13.39-13.39V262.52A13.39,13.39,0,0,1,283,249.13Z"/><rect class="a15b4718-4cfc-40c8-a955-b0c157da3e78" x="269.59" y="262.86" width="9.39" height="23.03" rx="2.71"/><path class="a18cefed-0fd9-452b-b175-1254e8282295" d="M279,267.56a21.2,21.2,0,0,1,15-7.46"/><line class="a18cefed-0fd9-452b-b175-1254e8282295" x1="278.98" y1="275.1" x2="292.75" y2="275.1"/><path class="a18cefed-0fd9-452b-b175-1254e8282295" d="M279,281.2s4.51,8.11,13.77,8.11"/><circle class="b151ddc6-434f-43c6-bb70-3734d50e53a4" cx="353.1" cy="72.28" r="7.54"/><circle class="b151ddc6-434f-43c6-bb70-3734d50e53a4" cx="331.35" cy="124.65" r="7.54"/><circle class="b151ddc6-434f-43c6-bb70-3734d50e53a4" cx="320.99" cy="180.45" r="7.54"/><path class="a33d470d-f736-45f7-91e0-fbc392da233b" d="M365.75,44.48s5.05,17.89-6.39,23.59"/><path class="a33d470d-f736-45f7-91e0-fbc392da233b" d="M346.79,78.19s10.35,32.78-15.44,38.92"/><path class="a33d470d-f736-45f7-91e0-fbc392da233b" d="M326.79,130.66s18.15,29.12-8,42.57"/><path class="a33d470d-f736-45f7-91e0-fbc392da233b" d="M317.3,188s24.26,26.69-1.22,45.18"/><rect class="adf58013-3c17-4de8-af53-3b4d59fb96a2" x="290.36" y="228.71" width="37.18" height="14.74" rx="4.26"/><line class="f9266119-51cc-43ca-b8d4-7988c65da10f" x1="292.75" y1="258.78" x2="323.8" y2="258.78"/><line class="f9266119-51cc-43ca-b8d4-7988c65da10f" x1="292.75" y1="273.61" x2="323.8" y2="273.61"/><line class="f9266119-51cc-43ca-b8d4-7988c65da10f" x1="292.75" y1="288.43" x2="323.8" y2="288.43"/><line class="f9266119-51cc-43ca-b8d4-7988c65da10f" x1="292.75" y1="303.26" x2="323.8" y2="303.26"/><line class="f9266119-51cc-43ca-b8d4-7988c65da10f" x1="292.75" y1="318.09" x2="323.8" y2="318.09"/><path class="f318c138-74f1-4adf-aa07-a4891c5a4512" d="M300.79,325.82a8.79,8.79,0,0,0,8,4.5c2.42-.08,2.44-3.86,0-3.77a5,5,0,0,1-4.7-2.64c-1.18-2.12-4.44-.22-3.26,1.91Z"/><path class="f318c138-74f1-4adf-aa07-a4891c5a4512" d="M299.51,308.92a8.81,8.81,0,0,0,.11,3.65,1.89,1.89,0,0,0,3.64-1c0-.18-.09-.36-.12-.55.06.34,0-.23,0-.26a5.42,5.42,0,0,1,0-.57c0-.07.08-.6,0-.25a1.93,1.93,0,0,0-1.32-2.32,1.91,1.91,0,0,0-2.32,1.31Z"/><path class="f318c138-74f1-4adf-aa07-a4891c5a4512" d="M298.79,294.59a6.23,6.23,0,0,0,.07,3.45,1.89,1.89,0,1,0,3.64-1c-.06-.17-.09-.34-.14-.51.09.33,0-.11,0-.21a3.09,3.09,0,0,1,0-.53c0,.34,0-.1.06-.2a1.91,1.91,0,0,0-1.31-2.32,1.94,1.94,0,0,0-2.33,1.32Z"/><path class="f318c138-74f1-4adf-aa07-a4891c5a4512" d="M298.76,279.82V283a1.89,1.89,0,0,0,3.77,0v-3.21a1.89,1.89,0,1,0-3.77,0Z"/><path class="f318c138-74f1-4adf-aa07-a4891c5a4512" d="M298,264.92l.19,2.45a1.89,1.89,0,1,0,3.77,0l-.19-2.45a1.89,1.89,0,0,0-3.77,0Z"/><path class="f318c138-74f1-4adf-aa07-a4891c5a4512" d="M298.21,249.64a20.26,20.26,0,0,0,.12,4,2,2,0,0,0,1.89,1.88c.91,0,2-.86,1.88-1.88a20.26,20.26,0,0,1-.12-4,1.9,1.9,0,0,0-1.88-1.89,1.93,1.93,0,0,0-1.89,1.89Z"/><path class="b6ffb1de-ef48-4335-8fe3-d9b4ed7b421a" d="M297,234a2.7,2.7,0,0,0-.23,3.51,4.74,4.74,0,0,0,3.68,1.64c1.21.1,1.2-1.78,0-1.89a3.32,3.32,0,0,1-2-.63.89.89,0,0,1-.15-1.3c.89-.82-.45-2.16-1.34-1.33Z"/><path class="fb0eb0db-60a9-42e7-a859-5a902ee397cc" d="M306.26,223.23s1.13-38.85,7.19-68.28"/><path class="ae010bda-8c86-47da-88ef-efe6dd144084" d="M318.4,179.14a3.2,3.2,0,0,0,3.76,3.74,1,1,0,0,0,.66-1.16,1,1,0,0,0-1.16-.66,1.29,1.29,0,0,1-1.44-1.42,1,1,0,0,0-.66-1.16,1,1,0,0,0-1.16.66Z"/><path class="ae010bda-8c86-47da-88ef-efe6dd144084" d="M328.58,124.33a3.22,3.22,0,0,0,4,2.81.94.94,0,0,0-.5-1.82,1.32,1.32,0,0,1-1.63-1,1,1,0,0,0-.94-1,1,1,0,0,0-.94,1Z"/><path class="ae010bda-8c86-47da-88ef-efe6dd144084" d="M350,72.64a4.81,4.81,0,0,0,1.64,2.53,2.42,2.42,0,0,0,2.68.1c1-.66.07-2.29-1-1.63-.81.53-1.36-1-1.55-1.51-.42-1.13-2.24-.64-1.82.51Z"/><path class="f0deaf4e-d0df-476b-852e-af0a9d7d8d63" d="M366.23,52.79c.39,2.43.53,5.41-1.27,7.32-.84.88.49,2.22,1.33,1.33,2.33-2.46,2.27-6,1.76-9.15-.19-1.19-2-.69-1.82.5Z"/><path class="f0deaf4e-d0df-476b-852e-af0a9d7d8d63" d="M348.14,87.6a21.25,21.25,0,0,1-.58,11.59c-.38,1.15,1.45,1.65,1.82.5A23.23,23.23,0,0,0,350,87.1c-.26-1.18-2.08-.68-1.82.5Z"/><path class="f0deaf4e-d0df-476b-852e-af0a9d7d8d63" d="M330.15,140.55a35.37,35.37,0,0,1,1.9,10.18c0,1.21,1.93,1.22,1.88,0a36.7,36.7,0,0,0-2-10.68c-.39-1.14-2.21-.65-1.82.5Z"/><path class="f0deaf4e-d0df-476b-852e-af0a9d7d8d63" d="M322.83,196.62A21.24,21.24,0,0,1,326.67,209a.94.94,0,0,0,1.88,0,22.94,22.94,0,0,0-4.1-13.29c-.68-1-2.32,0-1.62,1Z"/><path class="adb2df2d-c8c6-448a-aa86-971967f71322" d="M280.93,258.72c1-1.7,3-2.37,4.77-3,1.14-.39.65-2.21-.5-1.82-2.28.77-4.6,1.69-5.9,3.84a.94.94,0,0,0,1.63,1Z"/><path class="adb2df2d-c8c6-448a-aa86-971967f71322" d="M285.21,268.82c0-.26.91-.61,1.11-.71a7.65,7.65,0,0,1,1.62-.52c1.19-.26.69-2.08-.5-1.82-1.64.35-3.86,1.16-4.11,3.05-.07.51.48.94.94.94a1,1,0,0,0,.94-.94Z"/><path class="adb2df2d-c8c6-448a-aa86-971967f71322" d="M284.17,280.63l3.77-.13c1.21,0,1.22-1.93,0-1.89l-3.77.13c-1.21,0-1.22,1.93,0,1.89Z"/><path class="adb2df2d-c8c6-448a-aa86-971967f71322" d="M280.1,290.82a19.32,19.32,0,0,0,5.58,2.69.94.94,0,0,0,.5-1.82,17.71,17.71,0,0,1-5.13-2.5c-1-.7-1.94.94-.95,1.63Z"/><rect class="a18cefed-0fd9-452b-b175-1254e8282295" x="305.98" y="233.17" width="37.55" height="44.34" rx="10.85"/><path class="fc63cdad-ec25-40c0-9b95-338d9fc318da" d="M253.82,249.38l-64.18-14a18.67,18.67,0,0,0-21.89,13h0a18.66,18.66,0,0,0,11.39,22.75L240.7,294a23.32,23.32,0,0,0,30.53-15.28h0A23.32,23.32,0,0,0,253.82,249.38Z"/><path class="a45d0f78-bdc8-4dbb-a395-4a4da2a67ade" d="M170.83,249.24s4.81,10.23,20.41,14.59,59,16,59,16,16.29,4.84,18-13.14a20.17,20.17,0,0,1-4.43,18.94s-7.6,9-19.71,6.13l-21.65-8-41.64-15.43a17.93,17.93,0,0,1-8.55-7.13A14.85,14.85,0,0,1,170.83,249.24Z"/><path class="a45d0f78-bdc8-4dbb-a395-4a4da2a67ade" d="M324.75,235.74a16.1,16.1,0,0,1,12.18,5.66s4.15,3.52,4,11.45v5.07a19,19,0,0,1-1.2,6.89,14.41,14.41,0,0,1-2.38,4.13s-5,6.28-12.62,5.93c0,0,10.23-4.42,10.32-14l.19-10.21S335.42,240.77,324.75,235.74Z"/></g></g></svg>