<svg xmlns="http://www.w3.org/2000/svg" viewBox="0 0 116.37 80.77"><defs><style>.aebff5b8-2fde-4d5b-88ee-af0cf8dfe2b1{fill:#004555;}.e6e7903b-2723-4a9c-926a-a2d88394b1f7{fill:#81cbc7;}.f57758ed-0cb4-4fd7-b830-ae72bc4fbf1f{fill:#231815;stroke:#40220f;}.b436d090-351a-4e5e-a167-a49eb0105d9e,.f57758ed-0cb4-4fd7-b830-ae72bc4fbf1f{stroke-miterlimit:10;stroke-width:1.64px;}.bae7dd04-a49c-470a-aee1-cacd74343d56{fill:#369dd9;}.ab561919-15c0-4609-ad89-eb5c3ff65c76,.b436d090-351a-4e5e-a167-a49eb0105d9e{fill:none;}.ab561919-15c0-4609-ad89-eb5c3ff65c76{stroke:#81cbc7;stroke-linecap:round;stroke-linejoin:round;stroke-width:0.87px;}.b4397d83-d296-4b7a-95f0-b2f0bbd0890d{fill:#fff;}.aaf8b77e-b2c0-4031-9109-00fb83b121fc{fill:#d5ddf0;}.b436d090-351a-4e5e-a167-a49eb0105d9e{stroke:#d5ddf0;}.e2b21211-adee-480f-81fd-511393dbc791{fill:#b8e2f9;}.b93d9249-61c7-47f1-a532-62a70f72baf4{fill:#9cd0eb;}.a0a994da-9033-4d69-91fd-99654c0a5ac7{fill:#c9d2eb;}</style></defs><title>圓2_1</title><g id="bc7f620a-375a-41d7-80d0-7caae9c1b0f2" data-name="圖層 2"><g id="a659c92b-5b59-4d29-a90e-72609c8f1d7c" data-name="圖層 1"><path class="aebff5b8-2fde-4d5b-88ee-af0cf8dfe2b1" d="M14.64,42.28c-.07.91-.14,1.82-.14,2.75s.07,1.83.14,2.74L3.17,54.39A1.56,1.56,0,0,1,.82,53V37a1.57,1.57,0,0,1,2.35-1.36Z"/><path class="e6e7903b-2723-4a9c-926a-a2d88394b1f7" d="M81.37,45A34.92,34.92,0,0,1,46.44,80V10.1A34.93,34.93,0,0,1,81.37,45Z"/><circle class="f57758ed-0cb4-4fd7-b830-ae72bc4fbf1f" cx="62.76" cy="36.61" r="3.28"/><path class="bae7dd04-a49c-470a-aee1-cacd74343d56" d="M11.51,45A34.93,34.93,0,0,1,46.44,10.1V80A34.92,34.92,0,0,1,11.51,45Z"/><line class="ab561919-15c0-4609-ad89-eb5c3ff65c76" x1="9.84" y1="45.03" x2="2.55" y2="45.03"/><line class="ab561919-15c0-4609-ad89-eb5c3ff65c76" x1="10.02" y1="41.94" x2="3.3" y2="38.79"/><line class="ab561919-15c0-4609-ad89-eb5c3ff65c76" x1="10.02" y1="48.11" x2="3.3" y2="51.27"/><circle class="b4397d83-d296-4b7a-95f0-b2f0bbd0890d" cx="63.73" cy="35.75" r="0.72"/><path class="aaf8b77e-b2c0-4031-9109-00fb83b121fc" d="M46.44,43v2.9l-6.33,3.66a1,1,0,0,1-1.47-.85V40.19a1,1,0,0,1,1.47-.85Z"/><path class="b436d090-351a-4e5e-a167-a49eb0105d9e" d="M3.17,35.66l8.65,5a34.93,34.93,0,1,1,0,8.75l-8.65,5A1.56,1.56,0,0,1,.82,53V37A1.57,1.57,0,0,1,3.17,35.66Z"/><circle class="e2b21211-adee-480f-81fd-511393dbc791" cx="101.26" cy="28.69" r="6.92"/><path class="b93d9249-61c7-47f1-a532-62a70f72baf4" d="M103.09,26.15a4.43,4.43,0,0,1-.48,5.25c-.66.73.42,1.81,1.08,1.08a6,6,0,0,0,.72-7.11.77.77,0,0,0-1.32.78Z"/><path class="b93d9249-61c7-47f1-a532-62a70f72baf4" d="M101.26,34.38a.77.77,0,0,0,0-1.53.77.77,0,0,0,0,1.53Z"/><path class="b4397d83-d296-4b7a-95f0-b2f0bbd0890d" d="M98.22,27A3,3,0,0,1,100.07,26c1-.16.55-1.64-.41-1.47a4.2,4.2,0,0,0-2.52,1.44c-.63.75.44,1.84,1.08,1.08Z"/><circle class="e2b21211-adee-480f-81fd-511393dbc791" cx="108.18" cy="8.19" r="8.19"/><path class="b93d9249-61c7-47f1-a532-62a70f72baf4" d="M110.34,5.18a5.23,5.23,0,0,1-.57,6.22c-.77.87.5,2.15,1.28,1.28a7.09,7.09,0,0,0,.86-8.41.91.91,0,0,0-1.57.91Z"/><path class="b93d9249-61c7-47f1-a532-62a70f72baf4" d="M108.18,14.94a.91.91,0,0,0,0-1.81.91.91,0,0,0,0,1.81Z"/><path class="b4397d83-d296-4b7a-95f0-b2f0bbd0890d" d="M104.58,6.21A3.5,3.5,0,0,1,106.76,5a.9.9,0,0,0-.48-1.74,5,5,0,0,0-3,1.71.91.91,0,1,0,1.28,1.28Z"/><circle class="e2b21211-adee-480f-81fd-511393dbc791" cx="92.85" cy="46.4" r="5.33"/><path class="b93d9249-61c7-47f1-a532-62a70f72baf4" d="M94.11,44.84a2.11,2.11,0,0,1,0,2.91c-.68.71.39,1.79,1.08,1.08a3.67,3.67,0,0,0,0-5.07c-.68-.71-1.76.37-1.08,1.08Z"/><path class="b93d9249-61c7-47f1-a532-62a70f72baf4" d="M92.85,50.44a.77.77,0,0,0,0-1.53.77.77,0,0,0,0,1.53Z"/><path class="b4397d83-d296-4b7a-95f0-b2f0bbd0890d" d="M91.19,45.07a1.45,1.45,0,0,1,1-.89.77.77,0,0,0-.41-1.48,2.94,2.94,0,0,0-1.89,1.6.79.79,0,0,0,.27,1.05.78.78,0,0,0,1-.28Z"/><path class="a0a994da-9033-4d69-91fd-99654c0a5ac7" d="M19.14,53.45A25.62,25.62,0,0,0,33.43,70.69c1.56.71,2.92-1.6,1.35-2.31a23.07,23.07,0,0,1-13-15.64,1.34,1.34,0,0,0-2.59.71Z"/><path class="a0a994da-9033-4d69-91fd-99654c0a5ac7" d="M38.27,18.91A12.31,12.31,0,0,1,41.63,18a1.35,1.35,0,0,0,.93-1.65,1.39,1.39,0,0,0-1.65-.94,14.44,14.44,0,0,0-4,1.19,1.34,1.34,0,0,0-.48,1.83,1.37,1.37,0,0,0,1.83.48Z"/></g></g></svg>