<svg xmlns="http://www.w3.org/2000/svg" viewBox="0 0 127.04 81.67"><defs><style>.e45faa42-5f49-4736-96b3-e7f84312a263{fill:#004555;}.e154ece6-fbfe-4c65-ab0b-f15310f613e3{fill:#81cbc7;}.a9b7bc30-7dbb-42f3-8ff8-a69804b8e670{fill:#231815;stroke:#40220f;}.a9b7bc30-7dbb-42f3-8ff8-a69804b8e670,.aa52e8a3-838e-4f26-a9c8-7a9a2da73647{stroke-miterlimit:10;stroke-width:1.87px;}.b48f8584-90f5-4959-9ce0-499d5cfa7e2f{fill:#369dd9;}.aa52e8a3-838e-4f26-a9c8-7a9a2da73647,.b9c9282f-f48e-40da-8f2d-d24efebf957d{fill:none;}.b9c9282f-f48e-40da-8f2d-d24efebf957d{stroke:#81cbc7;stroke-linecap:round;stroke-linejoin:round;stroke-width:0.99px;}.ad0d665a-b3ba-4dae-900d-88eecdcec9c6{fill:#fff;}.b77460a5-17f7-41b9-aea8-5951f48206bf{fill:#d5ddf0;}.aa52e8a3-838e-4f26-a9c8-7a9a2da73647{stroke:#d5ddf0;}.ab885001-44a8-4e7c-a73b-50670f12d407{fill:#b8e2f9;}.a250287b-ee80-4b47-b977-4616c97a815d{fill:#9cd0eb;}.a2466b37-8655-49d6-aa54-facce9a4cf89{fill:#c9d2eb;}</style></defs><title>圓2</title><g id="ec4bd39f-8a9a-42ec-a110-809a6b5b2ae6" data-name="圖層 2"><g id="b37f919f-4e45-415b-8c85-433eec3ebf93" data-name="圖層 1"><path class="e45faa42-5f49-4736-96b3-e7f84312a263" d="M110.31,37.7c.08,1,.16,2.08.16,3.13s-.08,2.1-.16,3.14l13.11,7.56A1.79,1.79,0,0,0,126.1,50V31.68a1.79,1.79,0,0,0-2.68-1.55Z"/><path class="e154ece6-fbfe-4c65-ab0b-f15310f613e3" d="M34.09,40.83A39.9,39.9,0,0,0,74,80.73V.93A39.9,39.9,0,0,0,34.09,40.83Z"/><circle class="a9b7bc30-7dbb-42f3-8ff8-a69804b8e670" cx="55.35" cy="31.22" r="3.75"/><path class="b48f8584-90f5-4959-9ce0-499d5cfa7e2f" d="M113.89,40.83A39.91,39.91,0,0,0,74,.93v79.8A39.9,39.9,0,0,0,113.89,40.83Z"/><line class="b9c9282f-f48e-40da-8f2d-d24efebf957d" x1="115.8" y1="40.83" x2="124.13" y2="40.83"/><line class="b9c9282f-f48e-40da-8f2d-d24efebf957d" x1="115.59" y1="37.31" x2="123.27" y2="33.71"/><line class="b9c9282f-f48e-40da-8f2d-d24efebf957d" x1="115.59" y1="44.36" x2="123.27" y2="47.96"/><circle class="ad0d665a-b3ba-4dae-900d-88eecdcec9c6" cx="54.24" cy="30.24" r="0.82"/><path class="b77460a5-17f7-41b9-aea8-5951f48206bf" d="M74,38.52v3.31L81.22,46a1.12,1.12,0,0,0,1.68-1V35.31a1.12,1.12,0,0,0-1.68-1Z"/><path class="aa52e8a3-838e-4f26-a9c8-7a9a2da73647" d="M123.42,30.13l-9.88,5.71a39.9,39.9,0,1,0,0,10l9.88,5.71A1.79,1.79,0,0,0,126.1,50V31.68A1.79,1.79,0,0,0,123.42,30.13Z"/><circle class="ab885001-44a8-4e7c-a73b-50670f12d407" cx="9.38" cy="21.55" r="9.38"/><path class="a250287b-ee80-4b47-b977-4616c97a815d" d="M5.11,17.06a8.14,8.14,0,0,0,1,9.64c.89,1,2.35-.47,1.47-1.47a6,6,0,0,1-.66-7.12,1,1,0,0,0-1.79-1.05Z"/><path class="a250287b-ee80-4b47-b977-4616c97a815d" d="M9.38,29.28a1,1,0,0,0,0-2.07,1,1,0,0,0,0,2.07Z"/><path class="ad0d665a-b3ba-4dae-900d-88eecdcec9c6" d="M15,17.82a5.83,5.83,0,0,0-3.42-2,1.08,1.08,0,0,0-1.28.73A1,1,0,0,0,11,17.85a4,4,0,0,1,2.5,1.43A1,1,0,1,0,15,17.82Z"/><circle class="ab885001-44a8-4e7c-a73b-50670f12d407" cx="20.79" cy="45.58" r="7.23"/><path class="a250287b-ee80-4b47-b977-4616c97a815d" d="M17.62,42a5,5,0,0,0,0,6.87c.93,1,2.39-.5,1.47-1.47a2.86,2.86,0,0,1,0-3.94c.93-1-.54-2.43-1.46-1.46Z"/><path class="a250287b-ee80-4b47-b977-4616c97a815d" d="M20.79,51.06a1,1,0,0,0,0-2.07,1,1,0,0,0,0,2.07Z"/><path class="ad0d665a-b3ba-4dae-900d-88eecdcec9c6" d="M24.85,42.74a3.92,3.92,0,0,0-2.58-2.17,1,1,0,0,0-.55,2,2,2,0,0,1,1.33,1.22,1,1,0,0,0,1.42.37,1.07,1.07,0,0,0,.38-1.42Z"/><path class="a2466b37-8655-49d6-aa54-facce9a4cf89" d="M89.49,71.62a31.28,31.28,0,0,0,18.75-19.89c.49-1.54-1.92-2.19-2.4-.67a28.59,28.59,0,0,1-17,18.15c-1.49.58-.84,3,.66,2.41Z"/><path class="a2466b37-8655-49d6-aa54-facce9a4cf89" d="M78.66,8.7a16.82,16.82,0,0,1,6.43,4.05A1.25,1.25,0,0,0,86.85,11a19.61,19.61,0,0,0-7.53-4.7c-1.52-.53-2.17,1.88-.66,2.41Z"/></g></g></svg>