<svg xmlns="http://www.w3.org/2000/svg" viewBox="0 0 102.53 69"><defs><style>.fc0ec0e0-f27e-41e6-bc00-50c30a05e9aa{fill:#004555;}.e61046de-9444-434b-bf1d-2da87c273e93{fill:#81cbc7;}.b318d1bf-5ada-4320-a51b-85f2630395b2{fill:#231815;stroke:#40220f;}.b318d1bf-5ada-4320-a51b-85f2630395b2,.b5c5457b-f309-47a1-b7a3-5d9c13e6430c{stroke-miterlimit:10;stroke-width:1.58px;}.b3656626-1d16-4efa-b34f-409b351c0751{fill:#369dd9;}.b5c5457b-f309-47a1-b7a3-5d9c13e6430c,.b7b65e03-806e-4644-8eb2-12da9e6c2ec9{fill:none;}.b7b65e03-806e-4644-8eb2-12da9e6c2ec9{stroke:#81cbc7;stroke-linecap:round;stroke-linejoin:round;stroke-width:0.84px;}.a9f1f264-a53e-4f0b-8c2c-929a451d8f83{fill:#fff;}.ab0963c9-6b65-423e-9311-fe121b9b721e{fill:#d5ddf0;}.b5c5457b-f309-47a1-b7a3-5d9c13e6430c{stroke:#d5ddf0;}.fa0a1e07-edba-4129-b6c2-8266c85007c6{fill:#b8e2f9;}.f8f8aeb1-6434-4aae-94c7-ffcbff587b07{fill:#9cd0eb;}.a790bffe-ba91-47fd-8ff9-7fb618ac964e{fill:#c9d2eb;}</style></defs><title>圓1</title><g id="a46e1eb9-3d92-43d7-9545-b6790554fa66" data-name="圖層 2"><g id="e551c3e3-e7a9-4941-8d6a-2a590a54d9c0" data-name="圖層 1"><path class="fc0ec0e0-f27e-41e6-bc00-50c30a05e9aa" d="M14.13,31.85c-.07.88-.13,1.76-.13,2.65s.06,1.77.13,2.65L3.06,43.54A1.51,1.51,0,0,1,.79,42.23V26.77a1.52,1.52,0,0,1,2.27-1.31Z"/><path class="e61046de-9444-434b-bf1d-2da87c273e93" d="M78.54,34.5A33.71,33.71,0,0,1,44.83,68.21V.79A33.71,33.71,0,0,1,78.54,34.5Z"/><circle class="b318d1bf-5ada-4320-a51b-85f2630395b2" cx="60.57" cy="26.38" r="3.17"/><path class="b3656626-1d16-4efa-b34f-409b351c0751" d="M11.11,34.5A33.72,33.72,0,0,1,44.83.79V68.21A33.72,33.72,0,0,1,11.11,34.5Z"/><line class="b7b65e03-806e-4644-8eb2-12da9e6c2ec9" x1="9.49" y1="34.5" x2="2.46" y2="34.5"/><line class="b7b65e03-806e-4644-8eb2-12da9e6c2ec9" x1="9.67" y1="31.52" x2="3.19" y2="28.48"/><line class="b7b65e03-806e-4644-8eb2-12da9e6c2ec9" x1="9.67" y1="37.48" x2="3.19" y2="40.52"/><circle class="a9f1f264-a53e-4f0b-8c2c-929a451d8f83" cx="61.51" cy="25.55" r="0.69"/><path class="ab0963c9-6b65-423e-9311-fe121b9b721e" d="M44.83,32.54v2.81l-6.12,3.53a.94.94,0,0,1-1.41-.82V29.83A.94.94,0,0,1,38.71,29Z"/><path class="b5c5457b-f309-47a1-b7a3-5d9c13e6430c" d="M3.06,25.46l8.35,4.82a33.71,33.71,0,1,1,0,8.44L3.06,43.54A1.51,1.51,0,0,1,.79,42.23V26.77A1.52,1.52,0,0,1,3.06,25.46Z"/><circle class="fa0a1e07-edba-4129-b6c2-8266c85007c6" cx="96.22" cy="17.5" r="6.31"/><path class="f8f8aeb1-6434-4aae-94c7-ffcbff587b07" d="M97.88,15.18a4.05,4.05,0,0,1-.44,4.8c-.59.67.39,1.66,1,1a5.47,5.47,0,0,0,.66-6.48.7.7,0,0,0-1.21.7Z"/><path class="f8f8aeb1-6434-4aae-94c7-ffcbff587b07" d="M96.22,22.7a.7.7,0,0,0,0-1.39.7.7,0,0,0,0,1.39Z"/><path class="a9f1f264-a53e-4f0b-8c2c-929a451d8f83" d="M93.44,16a2.7,2.7,0,0,1,1.68-1c.89-.16.51-1.5-.37-1.35A4,4,0,0,0,92.45,15c-.57.68.41,1.67,1,1Z"/><circle class="fa0a1e07-edba-4129-b6c2-8266c85007c6" cx="88.54" cy="33.66" r="4.86"/><path class="f8f8aeb1-6434-4aae-94c7-ffcbff587b07" d="M89.69,32.25a1.92,1.92,0,0,1,0,2.65c-.63.64.36,1.63,1,1a3.33,3.33,0,0,0,0-4.62c-.62-.65-1.61.34-1,1Z"/><path class="f8f8aeb1-6434-4aae-94c7-ffcbff587b07" d="M88.54,37.35a.7.7,0,0,0,0-1.4.7.7,0,0,0,0,1.4Z"/><path class="a9f1f264-a53e-4f0b-8c2c-929a451d8f83" d="M87,32.46a1.34,1.34,0,0,1,.9-.82.7.7,0,0,0-.37-1.35,2.66,2.66,0,0,0-1.73,1.46c-.37.81.83,1.52,1.2.71Z"/><path class="a790bffe-ba91-47fd-8ff9-7fb618ac964e" d="M19.62,45.39A23.68,23.68,0,0,0,34.87,60.06c2.11.67,3-2.65.91-3.31A20,20,0,0,1,22.94,44.47c-.75-2.06-4.07-1.17-3.32.92Z"/><path class="a790bffe-ba91-47fd-8ff9-7fb618ac964e" d="M38.3,9.18a5.86,5.86,0,0,1,2.41-.79,1.76,1.76,0,0,0,1.72-1.72A1.73,1.73,0,0,0,40.71,5a9.8,9.8,0,0,0-4.15,1.27c-1.92,1.1-.19,4.07,1.74,3Z"/></g></g></svg>