<svg xmlns="http://www.w3.org/2000/svg" viewBox="0 0 138.74 83.68"><defs><style>.b2079d71-0144-4d35-8ad5-1cfd134a1efc{fill:#004a30;}.ae770666-2210-4b8e-8e3d-9110cf4bb999{fill:#99c949;}.a5aa791b-dd48-49ec-8942-32c8770cf67b{fill:#0d7822;}.e00feea4-cf39-4b7c-bc4f-d9d34ab8b1ec{fill:#231815;stroke:#40220f;}.a44a8f44-7a74-42aa-904f-a9d44edb2572,.bd2c0fd4-2891-4b18-8088-9f2c183d6ec2,.e00feea4-cf39-4b7c-bc4f-d9d34ab8b1ec{stroke-miterlimit:10;}.a44a8f44-7a74-42aa-904f-a9d44edb2572,.e00feea4-cf39-4b7c-bc4f-d9d34ab8b1ec{stroke-width:1.94px;}.a44a8f44-7a74-42aa-904f-a9d44edb2572,.bd2c0fd4-2891-4b18-8088-9f2c183d6ec2{fill:none;}.bd2c0fd4-2891-4b18-8088-9f2c183d6ec2{stroke:#99c949;stroke-linecap:round;stroke-width:1.02px;}.b7a9336d-a68e-44e5-92bb-27b253f61948{fill:#fff;}.a600b099-d8bf-4c1b-a1ad-541092b62e86{fill:#5bb975;}.a44a8f44-7a74-42aa-904f-a9d44edb2572{stroke:#c8e4cb;}.a8ff5e5a-1cf8-4509-a3b2-cd4ed5d41594{fill:#b8e2f9;}.e4fd9808-2de7-4ec5-8db2-a6139701ce8e{fill:#9cd0eb;}.bf8607fa-f227-4e5d-9745-dd4ab22976a7{fill:#b0d8b1;}</style></defs><title>六1</title><g id="ba885a4a-8209-4acd-af69-6e1d94b7f963" data-name="圖層 2"><g id="a70a1246-a74f-4071-b282-53defceca948" data-name="圖層 1"><path class="b2079d71-0144-4d35-8ad5-1cfd134a1efc" d="M122.58,38.44l2,3.4-2,3.4,12.76,7.37a1.62,1.62,0,0,0,2.43-1.41V32.48a1.62,1.62,0,0,0-2.43-1.41Z"/><path class="ae770666-2210-4b8e-8e3d-9110cf4bb999" d="M54.89,5.41l-18.46,32a8.9,8.9,0,0,0,0,8.9l18.46,32a8.9,8.9,0,0,0,7.71,4.44H88.29V1H62.6A8.9,8.9,0,0,0,54.89,5.41Z"/><path class="a5aa791b-dd48-49ec-8942-32c8770cf67b" d="M124.47,37.39,106,5.41A8.9,8.9,0,0,0,98.3,1H87.07V82.71H98.3A8.9,8.9,0,0,0,106,78.27l18.46-32A8.9,8.9,0,0,0,124.47,37.39Z"/><circle class="e00feea4-cf39-4b7c-bc4f-d9d34ab8b1ec" cx="58.63" cy="27.93" r="3.88"/><line class="bd2c0fd4-2891-4b18-8088-9f2c183d6ec2" x1="127.9" y1="41.84" x2="136.53" y2="41.84"/><line class="bd2c0fd4-2891-4b18-8088-9f2c183d6ec2" x1="127.69" y1="38.19" x2="135.63" y2="34.46"/><line class="bd2c0fd4-2891-4b18-8088-9f2c183d6ec2" x1="127.69" y1="45.49" x2="135.63" y2="49.22"/><circle class="b7a9336d-a68e-44e5-92bb-27b253f61948" cx="57.79" cy="27.08" r="0.85"/><path class="a600b099-d8bf-4c1b-a1ad-541092b62e86" d="M87.07,38.92v3.43l7.49,4.33a1.16,1.16,0,0,0,1.74-1V35.59a1.16,1.16,0,0,0-1.74-1Z"/><path class="a44a8f44-7a74-42aa-904f-a9d44edb2572" d="M135.34,31.07l-10.89,6.29L106,5.41A8.87,8.87,0,0,0,98.3,1H62.6a8.9,8.9,0,0,0-7.71,4.44l-18.46,32a8.9,8.9,0,0,0,0,8.9l18.46,32a8.9,8.9,0,0,0,7.71,4.44H98.3a8.87,8.87,0,0,0,7.7-4.44l18.45-31.95,10.89,6.29a1.62,1.62,0,0,0,2.43-1.41V32.48A1.62,1.62,0,0,0,135.34,31.07Z"/><circle class="a8ff5e5a-1cf8-4509-a3b2-cd4ed5d41594" cx="8.85" cy="24.19" r="8.85"/><path class="e4fd9808-2de7-4ec5-8db2-a6139701ce8e" d="M4.82,20A7.66,7.66,0,0,0,5.75,29c.84.94,2.22-.45,1.38-1.38a5.68,5.68,0,0,1-.62-6.73,1,1,0,0,0-1.69-1Z"/><path class="e4fd9808-2de7-4ec5-8db2-a6139701ce8e" d="M8.85,31.48a1,1,0,0,0,0-2,1,1,0,0,0,0,2Z"/><path class="b7a9336d-a68e-44e5-92bb-27b253f61948" d="M14.13,20.66a5.42,5.42,0,0,0-3.23-1.85,1,1,0,0,0-1.2.68,1,1,0,0,0,.68,1.21A3.8,3.8,0,0,1,12.75,22a1,1,0,0,0,1.38,0,1,1,0,0,0,0-1.38Z"/><circle class="a8ff5e5a-1cf8-4509-a3b2-cd4ed5d41594" cx="18.19" cy="42.69" r="6.82"/><path class="e4fd9808-2de7-4ec5-8db2-a6139701ce8e" d="M15.19,39.32a4.71,4.71,0,0,0,0,6.49c.87.91,2.26-.48,1.38-1.39a2.7,2.7,0,0,1,0-3.71c.87-.91-.51-2.3-1.39-1.39Z"/><path class="e4fd9808-2de7-4ec5-8db2-a6139701ce8e" d="M18.19,47.86a1,1,0,0,0,0-2,1,1,0,0,0,0,2Z"/><path class="b7a9336d-a68e-44e5-92bb-27b253f61948" d="M22,40a3.73,3.73,0,0,0-2.43-2,1,1,0,0,0-.52,1.88A1.9,1.9,0,0,1,20.33,41a1,1,0,0,0,1.33.35A1,1,0,0,0,22,40Z"/><path class="bf8607fa-f227-4e5d-9745-dd4ab22976a7" d="M99.56,9.06a187.25,187.25,0,0,1,9.17,17.82c.88,1.94,3.74.26,2.87-1.67a188.39,188.39,0,0,0-9.17-17.82,1.66,1.66,0,0,0-2.87,1.67Z"/><path class="bf8607fa-f227-4e5d-9745-dd4ab22976a7" d="M95.64,78.24a6.37,6.37,0,0,0,4.6-.56,21.76,21.76,0,0,0,3.44-3.21,1.66,1.66,0,0,0-2.35-2.35c-.74.74-1.46,1.5-2.21,2.21a2.66,2.66,0,0,1-2.6.71,1.72,1.72,0,0,0-2,1.16,1.68,1.68,0,0,0,1.16,2Z"/></g></g></svg>