<svg xmlns="http://www.w3.org/2000/svg" viewBox="0 0 102.95 57.88"><defs><style>.f7fe19ff-7683-4e9e-a7e6-9a63481921f5{fill:#004a30;}.e7d61687-7b76-4fb3-b827-7876e24046bf{fill:#99c949;}.b3ccd909-4fc5-427d-8761-18a1f68205af{fill:#0d7822;}.b267bfde-1ca7-4a52-bf48-32d778085b4f{fill:#231815;stroke:#40220f;}.a93280a0-0f60-42f2-b868-97a097d15033,.b267bfde-1ca7-4a52-bf48-32d778085b4f,.e3f5548a-0708-4c74-9d7a-3cb872e15469{stroke-miterlimit:10;}.b267bfde-1ca7-4a52-bf48-32d778085b4f,.e3f5548a-0708-4c74-9d7a-3cb872e15469{stroke-width:1.34px;}.a93280a0-0f60-42f2-b868-97a097d15033,.e3f5548a-0708-4c74-9d7a-3cb872e15469{fill:none;}.a93280a0-0f60-42f2-b868-97a097d15033{stroke:#99c949;stroke-linecap:round;stroke-width:0.71px;}.bacdfd14-09c3-4ce6-a77c-c42ff170222c{fill:#fff;}.ab9e7f86-fbfc-462e-9f16-0a617308147f{fill:#5bb975;}.e3f5548a-0708-4c74-9d7a-3cb872e15469{stroke:#c8e4cb;}.a509d15c-5467-474e-9b76-83652982af98{fill:#b8e2f9;}.ac8ee258-5428-4899-b669-724eab7a4e41{fill:#9cd0eb;}.ac3229a6-f9bc-401c-a9dd-1fc4f051da22{fill:#b0d8b1;}</style></defs><title>六2</title><g id="fa75d9e3-e513-4516-b946-bd5d0c0f528c" data-name="圖層 2"><g id="a4786db2-5085-4f79-b223-a70f08c46f9f" data-name="圖層 1"><path class="f7fe19ff-7683-4e9e-a7e6-9a63481921f5" d="M91.77,26.59l1.36,2.35-1.36,2.35,8.83,5.1a1.12,1.12,0,0,0,1.68-1v-13a1.12,1.12,0,0,0-1.68-1Z"/><path class="e7d61687-7b76-4fb3-b827-7876e24046bf" d="M45,3.74,32.19,25.86a6.14,6.14,0,0,0,0,6.15L45,54.13a6.14,6.14,0,0,0,5.32,3.08H68.06V.67H50.28A6.15,6.15,0,0,0,45,3.74Z"/><path class="b3ccd909-4fc5-427d-8761-18a1f68205af" d="M93.08,25.86,80.31,3.74A6.16,6.16,0,0,0,75,.67H67.21V57.21H75a6.14,6.14,0,0,0,5.33-3.08L93.08,32A6.14,6.14,0,0,0,93.08,25.86Z"/><circle class="b267bfde-1ca7-4a52-bf48-32d778085b4f" cx="47.54" cy="19.32" r="2.68"/><line class="a93280a0-0f60-42f2-b868-97a097d15033" x1="95.45" y1="28.94" x2="101.42" y2="28.94"/><line class="a93280a0-0f60-42f2-b868-97a097d15033" x1="95.3" y1="26.41" x2="100.8" y2="23.83"/><line class="a93280a0-0f60-42f2-b868-97a097d15033" x1="95.3" y1="31.47" x2="100.8" y2="34.04"/><circle class="bacdfd14-09c3-4ce6-a77c-c42ff170222c" cx="46.96" cy="18.73" r="0.59"/><path class="ab9e7f86-fbfc-462e-9f16-0a617308147f" d="M67.21,26.92v2.37l5.18,3a.8.8,0,0,0,1.2-.7v-7a.8.8,0,0,0-1.2-.69Z"/><path class="e3f5548a-0708-4c74-9d7a-3cb872e15469" d="M100.6,21.49l-7.54,4.35L80.31,3.74A6.16,6.16,0,0,0,75,.67H50.28A6.15,6.15,0,0,0,45,3.74L32.19,25.86a6.14,6.14,0,0,0,0,6.15L45,54.13a6.14,6.14,0,0,0,5.32,3.08H75a6.14,6.14,0,0,0,5.33-3.08L93.06,32l7.54,4.35a1.12,1.12,0,0,0,1.68-1v-13A1.12,1.12,0,0,0,100.6,21.49Z"/><circle class="a509d15c-5467-474e-9b76-83652982af98" cx="7.55" cy="13.2" r="7.55"/><path class="ac8ee258-5428-4899-b669-724eab7a4e41" d="M4.12,9.58a6.54,6.54,0,0,0,.78,7.76c.72.8,1.9-.38,1.18-1.18a4.85,4.85,0,0,1-.52-5.74.83.83,0,0,0-1.44-.84Z"/><path class="ac8ee258-5428-4899-b669-724eab7a4e41" d="M7.55,19.42a.84.84,0,0,0,0-1.67.84.84,0,0,0,0,1.67Z"/><path class="bacdfd14-09c3-4ce6-a77c-c42ff170222c" d="M12.06,10.19A4.65,4.65,0,0,0,9.3,8.61a.86.86,0,0,0-1,.58.84.84,0,0,0,.58,1,3.25,3.25,0,0,1,2,1.15c.69.82,1.86-.36,1.18-1.18Z"/><circle class="a509d15c-5467-474e-9b76-83652982af98" cx="16.73" cy="32.54" r="5.82"/><path class="ac8ee258-5428-4899-b669-724eab7a4e41" d="M14.18,29.66a4,4,0,0,0,0,5.53c.74.78,1.92-.4,1.18-1.18a2.29,2.29,0,0,1,0-3.17c.74-.77-.43-2-1.18-1.18Z"/><path class="ac8ee258-5428-4899-b669-724eab7a4e41" d="M16.73,37a.84.84,0,0,0,0-1.67.84.84,0,0,0,0,1.67Z"/><path class="bacdfd14-09c3-4ce6-a77c-c42ff170222c" d="M20,30.25a3.23,3.23,0,0,0-2.07-1.75.84.84,0,0,0-.45,1.61,1.63,1.63,0,0,1,1.08,1,.84.84,0,0,0,1.14.3.86.86,0,0,0,.3-1.14Z"/><path class="ac3229a6-f9bc-401c-a9dd-1fc4f051da22" d="M76,6.68Q78.73,12,82,17c.7,1.08,2.43.07,1.73-1q-3.23-5-6-10.28c-.59-1.15-2.32-.13-1.73,1Z"/><path class="ac3229a6-f9bc-401c-a9dd-1fc4f051da22" d="M74.35,54.25a4.07,4.07,0,0,0,3.1-.75A19.59,19.59,0,0,0,80.14,51c.87-1-.54-2.37-1.41-1.42a22.06,22.06,0,0,1-2,1.92,2.75,2.75,0,0,1-2.43.78c-1.29-.12-1.28,1.89,0,2Z"/></g></g></svg>