<svg xmlns="http://www.w3.org/2000/svg" viewBox="0 0 102.52 62.92"><defs><style>.a4c6eb3c-e4f2-47f9-94ed-2fe91e05b6db{fill:#004a30;}.acc9a543-4afd-4fea-8689-9cea8aedaaf2{fill:#99c949;}.bfda8c79-40ca-4e55-870b-1dfc61f624cf{fill:#0d7822;}.a5088a3a-b1f3-49cb-8848-ff7394db8988{fill:#231815;stroke:#40220f;}.a5088a3a-b1f3-49cb-8848-ff7394db8988,.b3d91b10-196b-4e4e-9b65-a90eca12e792,.bf0b4fa4-8739-4529-9afc-4628ef5733c0{stroke-miterlimit:10;}.a5088a3a-b1f3-49cb-8848-ff7394db8988,.b3d91b10-196b-4e4e-9b65-a90eca12e792{stroke-width:1.46px;}.b3d91b10-196b-4e4e-9b65-a90eca12e792,.bf0b4fa4-8739-4529-9afc-4628ef5733c0{fill:none;}.bf0b4fa4-8739-4529-9afc-4628ef5733c0{stroke:#99c949;stroke-linecap:round;stroke-width:0.77px;}.b3e7748f-b770-471e-922b-b99c091e065e{fill:#fff;}.fcc5207d-0708-4d1d-8b8e-4b1ed3ff7caf{fill:#5bb975;}.b3d91b10-196b-4e4e-9b65-a90eca12e792{stroke:#c8e4cb;}.f19b1f3b-2656-4b89-b9c1-f30b7ac62440{fill:#b8e2f9;}.b6158ddf-f028-4c31-a5ba-19fd0c834348{fill:#9cd0eb;}.f17051d6-4032-4981-a5aa-2bf941575bc9{fill:#b0d8b1;}</style></defs><title>六3</title><g id="f726585b-11ac-4573-a845-3738e872f43c" data-name="圖層 2"><g id="abb3f349-cb4c-4a2f-a81f-fcb3e7fb4cc5" data-name="圖層 1"><path class="a4c6eb3c-e4f2-47f9-94ed-2fe91e05b6db" d="M12.15,28.91l-1.47,2.55L12.15,34,2.56,39.56A1.22,1.22,0,0,1,.73,38.5V24.42a1.22,1.22,0,0,1,1.83-1.06Z"/><path class="acc9a543-4afd-4fea-8689-9cea8aedaaf2" d="M63.05,4.07,76.93,28.12a6.67,6.67,0,0,1,0,6.69l-13.88,24a6.71,6.71,0,0,1-5.79,3.35H37.93V.73H57.26A6.7,6.7,0,0,1,63.05,4.07Z"/><path class="bfda8c79-40ca-4e55-870b-1dfc61f624cf" d="M10.73,28.12l13.88-24A6.7,6.7,0,0,1,30.41.73h8.44V62.2H30.41a6.71,6.71,0,0,1-5.8-3.35l-13.88-24A6.71,6.71,0,0,1,10.73,28.12Z"/><circle class="a5088a3a-b1f3-49cb-8848-ff7394db8988" cx="60.24" cy="21" r="2.92"/><line class="bf0b4fa4-8739-4529-9afc-4628ef5733c0" x1="8.15" y1="31.46" x2="1.66" y2="31.46"/><line class="bf0b4fa4-8739-4529-9afc-4628ef5733c0" x1="8.31" y1="28.71" x2="2.34" y2="25.91"/><line class="bf0b4fa4-8739-4529-9afc-4628ef5733c0" x1="8.31" y1="34.21" x2="2.34" y2="37.01"/><circle class="b3e7748f-b770-471e-922b-b99c091e065e" cx="60.87" cy="20.36" r="0.64"/><path class="fcc5207d-0708-4d1d-8b8e-4b1ed3ff7caf" d="M38.85,29.26v2.59L33.22,35.1a.87.87,0,0,1-1.31-.75V26.77A.88.88,0,0,1,33.22,26Z"/><path class="b3d91b10-196b-4e4e-9b65-a90eca12e792" d="M2.56,23.36l8.19,4.73,13.86-24A6.7,6.7,0,0,1,30.41.73H57.26a6.7,6.7,0,0,1,5.79,3.34L76.93,28.12a6.67,6.67,0,0,1,0,6.69l-13.88,24a6.71,6.71,0,0,1-5.79,3.35H30.41a6.71,6.71,0,0,1-5.8-3.35l-13.86-24L2.56,39.56A1.22,1.22,0,0,1,.73,38.5V24.42A1.22,1.22,0,0,1,2.56,23.36Z"/><circle class="f19b1f3b-2656-4b89-b9c1-f30b7ac62440" cx="96.08" cy="16.41" r="6.44"/><path class="b6158ddf-f028-4c31-a5ba-19fd0c834348" d="M97.78,14.05a4.13,4.13,0,0,1-.45,4.89c-.61.68.39,1.69,1,1A5.59,5.59,0,0,0,99,13.33a.71.71,0,0,0-1.23.72Z"/><path class="b6158ddf-f028-4c31-a5ba-19fd0c834348" d="M96.08,21.72a.72.72,0,0,0,0-1.43.72.72,0,0,0,0,1.43Z"/><path class="b3e7748f-b770-471e-922b-b99c091e065e" d="M93.24,14.86a2.77,2.77,0,0,1,1.72-1c.9-.16.52-1.53-.37-1.38a4,4,0,0,0-2.35,1.35c-.59.69.41,1.71,1,1Z"/><circle class="f19b1f3b-2656-4b89-b9c1-f30b7ac62440" cx="88.25" cy="32.9" r="4.96"/><path class="b6158ddf-f028-4c31-a5ba-19fd0c834348" d="M89.42,31.46a2,2,0,0,1,0,2.7c-.63.66.38,1.67,1,1a3.42,3.42,0,0,0,0-4.72c-.64-.66-1.64.34-1,1Z"/><path class="b6158ddf-f028-4c31-a5ba-19fd0c834348" d="M88.25,36.66a.71.71,0,0,0,0-1.42.71.71,0,0,0,0,1.42Z"/><path class="b3e7748f-b770-471e-922b-b99c091e065e" d="M86.7,31.67a1.36,1.36,0,0,1,.91-.84.71.71,0,0,0-.38-1.37A2.73,2.73,0,0,0,85.47,31a.75.75,0,0,0,.25,1,.73.73,0,0,0,1-.26Z"/><path class="f17051d6-4032-4981-a5aa-2bf941575bc9" d="M26.4,14.35A46.49,46.49,0,0,1,30.61,7c.95-1.3-1.22-2.54-2.15-1.26a46.49,46.49,0,0,0-4.21,7.39c-.7,1.44,1.45,2.71,2.15,1.26Z"/><path class="f17051d6-4032-4981-a5aa-2bf941575bc9" d="M26.23,55.66a6.32,6.32,0,0,0,2.56,3.69,8.77,8.77,0,0,0,4.55.82,1.25,1.25,0,0,0,0-2.49,7.67,7.67,0,0,1-3-.33A3.45,3.45,0,0,1,28.64,55c-.54-1.5-2.95-.85-2.41.66Z"/></g></g></svg>