<svg xmlns="http://www.w3.org/2000/svg" xmlns:xlink="http://www.w3.org/1999/xlink" viewBox="0 0 178.73 176.1"><defs><style>.f940b6db-283a-4c08-8532-0e04181901cf{fill:none;stroke:#301200;}.a04426a0-d0c1-47e2-9f2a-9a84570d1d86,.a3c6df48-f2b3-4889-8b87-79a0d8af145f,.f940b6db-283a-4c08-8532-0e04181901cf{stroke-miterlimit:10;stroke-width:2.86px;}.e28723f3-edf4-46ac-a0a3-273c9298addf{fill:#698b9c;}.a04426a0-d0c1-47e2-9f2a-9a84570d1d86{fill:#a56e10;}.a04426a0-d0c1-47e2-9f2a-9a84570d1d86,.a3c6df48-f2b3-4889-8b87-79a0d8af145f{stroke:#40220f;}.e9365a66-b1e7-4db4-9f93-bc9f5f82ee75{fill:#885a02;}.fb31a4bc-ed7a-4f47-b6b0-ecf59e2b816f{fill:#ca7f06;}.ad7d630a-ce2c-41b7-9b6f-228496387461{clip-path:url(#be78eec4-47e4-4cf7-8d86-c3fa51692c13);}.abca50aa-eba5-4b40-9387-9406a0ec1c60{fill:#dfb88f;}.e6cad473-5168-48fa-825e-e2bbd42a4cb0{fill:#fffbc7;}.a3c6df48-f2b3-4889-8b87-79a0d8af145f,.abb8b6c1-38c0-40ad-ae9c-468697e87f21{fill:#40220f;}.a8e7f55a-40cf-48cf-890f-01c5fae109a8{fill:#2e1000;}.bedb97c0-5a4f-4f87-960d-1990c8aec646{fill:#dfd39a;}</style><clipPath id="be78eec4-47e4-4cf7-8d86-c3fa51692c13"><path class="f940b6db-283a-4c08-8532-0e04181901cf" d="M164.91,59.4H13.82s-1.28,27.59,8,54.75c8.3,24.27,27.73,39.91,49.09,39.91h36.89c21.36,0,40.79-15.64,49.09-39.91C166.19,87,164.91,59.4,164.91,59.4Z"/></clipPath></defs><title>六角</title><g id="a5b85642-a31c-44ec-a3d1-1adf78f5e25d" data-name="圖層 2"><g id="bb8a38a3-1b15-48fc-83ab-229b0731427c" data-name="圖層 1"><ellipse class="e28723f3-edf4-46ac-a0a3-273c9298addf" cx="96.49" cy="146.8" rx="65.84" ry="20.93" transform="translate(-4.97 3.39) rotate(-1.96)"/><path class="a04426a0-d0c1-47e2-9f2a-9a84570d1d86" d="M164.91,59.4H13.82s-1.28,27.59,8,54.75c8.3,24.27,27.73,39.91,49.09,39.91h36.89c21.36,0,40.79-15.64,49.09-39.91C166.19,87,164.91,59.4,164.91,59.4Z"/><path class="e9365a66-b1e7-4db4-9f93-bc9f5f82ee75" d="M94,89.24a47.31,47.31,0,0,0,11.83,0c2.25-.3,2.28-3.88,0-3.58a47.31,47.31,0,0,1-11.83,0c-2.29-.28-2.27,3.31,0,3.58Z"/><path class="e9365a66-b1e7-4db4-9f93-bc9f5f82ee75" d="M93.65,99.83c4.46.68,8.71,0,13.09-.86,2.26-.44,1.3-3.9-.95-3.45-3.69.72-7.42,1.43-11.19.85-2.25-.34-3.22,3.11-.95,3.46Z"/><path class="e9365a66-b1e7-4db4-9f93-bc9f5f82ee75" d="M93.15,111.56a50.76,50.76,0,0,0,14.06-3.74c2.11-.9.29-4-1.81-3.09A44.82,44.82,0,0,1,93.15,108c-2.26.26-2.29,3.84,0,3.58Z"/><path class="e9365a66-b1e7-4db4-9f93-bc9f5f82ee75" d="M94.49,123.15a45.12,45.12,0,0,0,13.27-4c2.08-1,.27-4.07-1.81-3.09a42.38,42.38,0,0,1-12.41,3.63c-2.28.3-1.31,3.75.95,3.45Z"/><path class="e9365a66-b1e7-4db4-9f93-bc9f5f82ee75" d="M94.51,131a16.72,16.72,0,0,0,13.25-2.26c1.93-1.23.14-4.33-1.81-3.09a13.09,13.09,0,0,1-10.49,1.9c-2.24-.55-3.19,2.9-.95,3.45Z"/><path class="e9365a66-b1e7-4db4-9f93-bc9f5f82ee75" d="M93.54,140.35a15,15,0,0,0,12.18-1c2-1.07.23-4.17-1.81-3.09a11.41,11.41,0,0,1-9.42.68c-2.18-.76-3.12,2.69-.95,3.45Z"/><path class="e9365a66-b1e7-4db4-9f93-bc9f5f82ee75" d="M92.7,150.31a40.94,40.94,0,0,0,9.73-1.38c2.23-.59,1.28-4-1-3.45a36.7,36.7,0,0,1-8.78,1.25c-2.3,0-2.3,3.62,0,3.58Z"/><path class="e9365a66-b1e7-4db4-9f93-bc9f5f82ee75" d="M124.46,87.47c4.79.82,10.62-2.22,14.85-4.24,2.08-1,.27-4.08-1.8-3.09a55.18,55.18,0,0,1-6,2.44c-1.69.58-4.33,1.75-6.14,1.44-2.26-.39-3.23,3.06-1,3.45Z"/><path class="e9365a66-b1e7-4db4-9f93-bc9f5f82ee75" d="M124.52,97.55c1.72,2,4.61.46,6.61-.33a47.36,47.36,0,0,0,8.57-4.51c1.92-1.26.13-4.36-1.81-3.09a46.84,46.84,0,0,1-5.63,3.23c-1,.45-1.94.87-2.93,1.25q-.86.32-1.71.6c-1,.16-1.16.26-.57.31-1.5-1.75-4,.79-2.53,2.54Z"/><path class="e9365a66-b1e7-4db4-9f93-bc9f5f82ee75" d="M124.45,109.48c5.42,1.14,10.37-3.25,14.7-5.93,1.95-1.21.16-4.31-1.81-3.09L132,103.78c-2,1.21-4.14,2.76-6.58,2.25-2.25-.47-3.21,3-1,3.45Z"/><path class="e9365a66-b1e7-4db4-9f93-bc9f5f82ee75" d="M123.91,121.7c3.73-2.15,8.23-1.41,11.26-5,1.49-1.74-1-4.28-2.53-2.53-2.6,3-7.21,2.48-10.54,4.39a1.79,1.79,0,0,0,1.81,3.09Z"/><path class="e9365a66-b1e7-4db4-9f93-bc9f5f82ee75" d="M122.17,131.45a41.87,41.87,0,0,0,10.85-4c2-1.08.24-4.17-1.8-3.09a38.78,38.78,0,0,1-10,3.63c-2.25.49-1.3,3.94,1,3.46Z"/><path class="e9365a66-b1e7-4db4-9f93-bc9f5f82ee75" d="M117.85,142.75a11.54,11.54,0,0,0,8.47-3.72c1.6-1.66-.93-4.19-2.53-2.53a8,8,0,0,1-5.94,2.67c-2.3,0-2.3,3.55,0,3.58Z"/><path class="e9365a66-b1e7-4db4-9f93-bc9f5f82ee75" d="M156.12,78.54A16.33,16.33,0,0,0,165,75.6c1.89-1.31.1-4.41-1.8-3.1A12.88,12.88,0,0,1,156.12,75c-2.3.08-2.31,3.66,0,3.58Z"/><path class="e9365a66-b1e7-4db4-9f93-bc9f5f82ee75" d="M155.48,88.29a15.93,15.93,0,0,0,7.35-2.41c1.95-1.22.15-4.32-1.81-3.09a12.22,12.22,0,0,1-5.54,1.92c-2.28.17-2.3,3.76,0,3.58Z"/><path class="e9365a66-b1e7-4db4-9f93-bc9f5f82ee75" d="M154.81,100.3l6.21-3c2.07-1,.25-4.1-1.81-3.09l-6.2,3c-2.07,1-.26,4.1,1.8,3.09Z"/><path class="e9365a66-b1e7-4db4-9f93-bc9f5f82ee75" d="M153.56,108.89a17.81,17.81,0,0,0,6.5-2.41c2-1.18.18-4.28-1.81-3.09a15.32,15.32,0,0,1-5.64,2,1.8,1.8,0,0,0-1.25,2.2,1.83,1.83,0,0,0,2.2,1.25Z"/><path class="e9365a66-b1e7-4db4-9f93-bc9f5f82ee75" d="M150.58,119a33.22,33.22,0,0,0,5-1.57,1.85,1.85,0,0,0,1.25-2.2,1.81,1.81,0,0,0-2.21-1.25,33.06,33.06,0,0,1-5,1.56c-2.24.52-1.29,4,1,3.46Z"/><path class="e9365a66-b1e7-4db4-9f93-bc9f5f82ee75" d="M146.23,127.74a9.88,9.88,0,0,0,5.86-1.8,1.84,1.84,0,0,0,.65-2.45,1.81,1.81,0,0,0-2.45-.64,6.68,6.68,0,0,1-4.06,1.31c-2.3,0-2.3,3.53,0,3.58Z"/><path class="e9365a66-b1e7-4db4-9f93-bc9f5f82ee75" d="M141.28,135.57a6.5,6.5,0,0,0,4.55-1.21,1.85,1.85,0,0,0,.64-2.45,1.8,1.8,0,0,0-2.45-.65,3.48,3.48,0,0,1-2.74.73,1.79,1.79,0,0,0-1.79,1.79,1.83,1.83,0,0,0,1.79,1.79Z"/><path class="e9365a66-b1e7-4db4-9f93-bc9f5f82ee75" d="M58.09,86.59a46,46,0,0,0,10.59-2.06c2.19-.7,1.26-4.16-1-3.45A42.81,42.81,0,0,1,58.09,83c-2.28.18-2.3,3.76,0,3.58Z"/><path class="e9365a66-b1e7-4db4-9f93-bc9f5f82ee75" d="M59.15,96.78c3.84.69,7.57-.75,11-2.31,2.09-1,.27-4-1.81-3.09-2.46,1.1-5.52,2.44-8.27,2-2.26-.4-3.22,3-1,3.45Z"/><path class="e9365a66-b1e7-4db4-9f93-bc9f5f82ee75" d="M59.87,107.88c3.44-.6,7.15-1.2,10.31-2.77,2.06-1,.25-4.11-1.81-3.09-2.84,1.41-6.36,1.87-9.45,2.41-2.27.39-1.31,3.84.95,3.45Z"/><path class="e9365a66-b1e7-4db4-9f93-bc9f5f82ee75" d="M60.23,118.33a17.16,17.16,0,0,0,8-1.09c2.12-.82,1.2-4.28-1-3.45a14.93,14.93,0,0,1-7,1c-2.29-.23-2.27,3.35,0,3.58Z"/><path class="e9365a66-b1e7-4db4-9f93-bc9f5f82ee75" d="M61.17,129.74a33.47,33.47,0,0,0,9-3c2.06-1,.25-4.12-1.81-3.09a30.06,30.06,0,0,1-8.15,2.66c-2.27.41-1.31,3.86,1,3.46Z"/><path class="e9365a66-b1e7-4db4-9f93-bc9f5f82ee75" d="M63.9,139.09a16.21,16.21,0,0,0,7.75-2.37c2-1.2.17-4.29-1.8-3.09a12.48,12.48,0,0,1-5.95,1.88c-2.29.1-2.31,3.68,0,3.58Z"/><path class="e9365a66-b1e7-4db4-9f93-bc9f5f82ee75" d="M65.61,146.19a9.59,9.59,0,0,0,7.68-3.12c1.59-1.66-.93-4.2-2.53-2.53a6.13,6.13,0,0,1-5.15,2.07c-2.3-.2-2.29,3.39,0,3.58Z"/><path class="e9365a66-b1e7-4db4-9f93-bc9f5f82ee75" d="M27,77.63a18.28,18.28,0,0,0,8.46,2.49c2.31.09,2.3-3.49,0-3.59a14.16,14.16,0,0,1-6.66-2c-2-1.15-3.8,1.94-1.8,3.09Z"/><path class="e9365a66-b1e7-4db4-9f93-bc9f5f82ee75" d="M25.44,90.47c.89,1.63,2.61,1.62,4.28,1.77a55.22,55.22,0,0,0,6.56.16c2.3-.07,2.31-3.65,0-3.58-1.38.05-2.76.05-4.15,0a32.75,32.75,0,0,1-3.6-.16c-1.1-2-4.19-.22-3.09,1.81Z"/><path class="e9365a66-b1e7-4db4-9f93-bc9f5f82ee75" d="M28.5,103.68a59.75,59.75,0,0,0,9.46.06c2.29-.17,2.3-3.75,0-3.58a59.75,59.75,0,0,1-9.46-.06c-2.3-.19-2.29,3.39,0,3.58Z"/><path class="e9365a66-b1e7-4db4-9f93-bc9f5f82ee75" d="M34,116a50.44,50.44,0,0,0,7.08-2.87c2.06-1,.25-4.12-1.81-3.09a43.14,43.14,0,0,1-6.23,2.51c-2.19.69-1.25,4.15,1,3.45Z"/><path class="e9365a66-b1e7-4db4-9f93-bc9f5f82ee75" d="M40.37,134.75a50.08,50.08,0,0,0,7.09-2.87c2.06-1,.25-4.12-1.81-3.1a42.47,42.47,0,0,1-6.23,2.51c-2.19.7-1.25,4.15.95,3.46Z"/><path class="e9365a66-b1e7-4db4-9f93-bc9f5f82ee75" d="M36.1,124.18A31.57,31.57,0,0,0,43.88,123c2.2-.64,1.26-4.09-1-3.45a27.67,27.67,0,0,1-6.82,1.1c-2.29.08-2.3,3.66,0,3.58Z"/><path class="e9365a66-b1e7-4db4-9f93-bc9f5f82ee75" d="M45.44,142.89a6.33,6.33,0,0,0,6.35-.39c1.91-1.27.11-4.38-1.81-3.09a2.73,2.73,0,0,1-2.73.39,1.84,1.84,0,0,0-2.45.64,1.81,1.81,0,0,0,.64,2.45Z"/><path class="fb31a4bc-ed7a-4f47-b6b0-ecf59e2b816f" d="M71.61,90.74a16.36,16.36,0,0,0,11.7,1.51c2.24-.53,1.29-4-1-3.45a12.57,12.57,0,0,1-8.94-1.15c-2-1.07-3.85,2-1.81,3.09Z"/><path class="fb31a4bc-ed7a-4f47-b6b0-ecf59e2b816f" d="M70.28,107.2c2.88,3.47,9,2.56,13,2.75,2.3.1,2.3-3.48,0-3.58l-6.07-.29c-1.66-.07-3.27,0-4.42-1.41-1.47-1.78-4,.77-2.53,2.53Z"/><path class="fb31a4bc-ed7a-4f47-b6b0-ecf59e2b816f" d="M71.2,125.41a30.09,30.09,0,0,0,13-1.87c2.13-.81,1.21-4.27-1-3.46a27.46,27.46,0,0,1-12.1,1.74c-2.3-.18-2.29,3.4,0,3.59Z"/><path class="fb31a4bc-ed7a-4f47-b6b0-ecf59e2b816f" d="M73,142.07a17.35,17.35,0,0,0,11.25-.27c2.14-.79,1.22-4.26-.95-3.46a14.09,14.09,0,0,1-9.35.28c-2.21-.69-3.15,2.76-1,3.45Z"/><path class="fb31a4bc-ed7a-4f47-b6b0-ecf59e2b816f" d="M108.93,93.48a18.43,18.43,0,0,0,9.32-.47c2.18-.7,1.25-4.16-1-3.46a14.46,14.46,0,0,1-7.41.47c-2.25-.45-3.22,3-.95,3.46Z"/><path class="fb31a4bc-ed7a-4f47-b6b0-ecf59e2b816f" d="M108.15,114a21.65,21.65,0,0,0,8.21.56c2.25-.28,2.28-3.87,0-3.58a19.09,19.09,0,0,1-7.26-.43c-2.23-.58-3.19,2.87-.95,3.45Z"/><path class="fb31a4bc-ed7a-4f47-b6b0-ecf59e2b816f" d="M107.16,133.79a20.13,20.13,0,0,0,8.36-.15c2.25-.52,1.3-4-1-3.46a15.63,15.63,0,0,1-6.46.16c-2.25-.43-3.22,3-1,3.45Z"/><path class="fb31a4bc-ed7a-4f47-b6b0-ecf59e2b816f" d="M105.39,146.87a10.45,10.45,0,0,0,9.47-1.36c1.88-1.3.09-4.41-1.81-3.09a7.09,7.09,0,0,1-6.71,1c-2.18-.76-3.12,2.7-1,3.45Z"/><path class="fb31a4bc-ed7a-4f47-b6b0-ecf59e2b816f" d="M141.18,83.47a16.28,16.28,0,0,0,7.06-1.54,1.8,1.8,0,0,0,.64-2.45,1.83,1.83,0,0,0-2.45-.64,12.18,12.18,0,0,1-5.25,1c-2.3,0-2.3,3.54,0,3.58Z"/><path class="fb31a4bc-ed7a-4f47-b6b0-ecf59e2b816f" d="M139.58,98.31A14.14,14.14,0,0,0,149,97c2.06-1,.25-4.12-1.8-3.09a10.24,10.24,0,0,1-6.7,1c-2.25-.45-3.21,3-.95,3.45Z"/><path class="fb31a4bc-ed7a-4f47-b6b0-ecf59e2b816f" d="M136.51,115.26a20.88,20.88,0,0,0,8.55-.14c2.25-.51,1.29-4-.95-3.45a16.55,16.55,0,0,1-6.65.14c-2.25-.43-3.22,3-1,3.45Z"/><path class="fb31a4bc-ed7a-4f47-b6b0-ecf59e2b816f" d="M133,129.92a18.78,18.78,0,0,0,9.31-1.7c2.1-.94.28-4-1.81-3.09a15.19,15.19,0,0,1-7.5,1.21c-2.3-.19-2.28,3.39,0,3.58Z"/><path class="fb31a4bc-ed7a-4f47-b6b0-ecf59e2b816f" d="M127.31,144.8a22.9,22.9,0,0,0,8.66-2.49c2.05-1.05.24-4.14-1.81-3.09a18.29,18.29,0,0,1-6.85,2c-2.28.19-2.3,3.78,0,3.58Z"/><path class="fb31a4bc-ed7a-4f47-b6b0-ecf59e2b816f" d="M37.91,84a10.24,10.24,0,0,0,10.62.16c2-1.14.21-4.23-1.8-3.09a6.64,6.64,0,0,1-7-.16c-2-1.21-3.77,1.89-1.81,3.09Z"/><path class="fb31a4bc-ed7a-4f47-b6b0-ecf59e2b816f" d="M38.49,97.88c1.13,1.17,2.69,1,4.19.83a25.54,25.54,0,0,0,5.6-1.27c2.16-.75,1.23-4.21-1-3.45a26.3,26.3,0,0,1-3.4.94,18.32,18.32,0,0,1-1.83.26c-.22,0-1.26,0-1.08.15-1.6-1.66-4.13.87-2.53,2.54Z"/><path class="fb31a4bc-ed7a-4f47-b6b0-ecf59e2b816f" d="M42,114.57a17.24,17.24,0,0,0,8.64-2.32c2-1.13.21-4.22-1.8-3.09A13.59,13.59,0,0,1,42,111a1.79,1.79,0,0,0,0,3.58Z"/><path class="fb31a4bc-ed7a-4f47-b6b0-ecf59e2b816f" d="M46.33,129.77a9.56,9.56,0,0,0,7.4-1.6c1.89-1.3.1-4.41-1.8-3.09a6.07,6.07,0,0,1-4.65,1.24c-2.25-.43-3.21,3-1,3.45Z"/><path class="fb31a4bc-ed7a-4f47-b6b0-ecf59e2b816f" d="M53.61,141.58a17.15,17.15,0,0,0,6.31-3.51c1.76-1.49-.79-4-2.53-2.53a12.89,12.89,0,0,1-4.73,2.59c-2.21.66-1.27,4.11,1,3.45Z"/><path class="fb31a4bc-ed7a-4f47-b6b0-ecf59e2b816f" d="M14.65,82.38c3.25.81,7.23,2.62,10.11.08,1.73-1.53-.81-4-2.54-2.53-.77.68-2.1.13-3-.09l-3.65-.91c-2.23-.56-3.19,2.89-.95,3.45Z"/><path class="fb31a4bc-ed7a-4f47-b6b0-ecf59e2b816f" d="M18.67,99A11.82,11.82,0,0,0,26.06,99c2.18-.73,1.25-4.19-.95-3.45a8.53,8.53,0,0,1-5.49.06c-2.2-.69-3.14,2.76-.95,3.45Z"/><path class="fb31a4bc-ed7a-4f47-b6b0-ecf59e2b816f" d="M23,115.78a13.69,13.69,0,0,0,7.24.07c2.23-.58,1.28-4-.95-3.45a10,10,0,0,1-5.33-.07c-2.23-.63-3.17,2.82-1,3.45Z"/><path class="fb31a4bc-ed7a-4f47-b6b0-ecf59e2b816f" d="M29.12,129.57a10.9,10.9,0,0,0,8.21,0c2.11-.86,1.19-4.33-.95-3.45a7.93,7.93,0,0,1-6.3,0c-2.15-.85-3.08,2.62-1,3.46Z"/><g class="ad7d630a-ce2c-41b7-9b6f-228496387461"><path class="f940b6db-283a-4c08-8532-0e04181901cf" d="M89.37,1.89C74.86,12.3,70,86.51,70,112.7S77.77,161.78,89.37,174c11.59-12.23,19.4-35.11,19.4-61.31S101,14.13,89.37,1.89Z"/><path class="f940b6db-283a-4c08-8532-0e04181901cf" d="M50.05,33.77C38.52,52.1,34.29,80.61,40.63,109.54s21.6,51,39.05,59.64"/><path class="f940b6db-283a-4c08-8532-0e04181901cf" d="M128,33.77c11.53,18.33,15.75,46.84,9.42,75.77s-21.61,51-39.05,59.64"/></g><path class="f940b6db-283a-4c08-8532-0e04181901cf" d="M164.91,59.4H13.82s-1.28,27.59,8,54.75c8.3,24.27,27.73,39.91,49.09,39.91h36.89c21.36,0,40.79-15.64,49.09-39.91C166.19,87,164.91,59.4,164.91,59.4Z"/><path class="abca50aa-eba5-4b40-9387-9406a0ec1c60" d="M19.84,82.45a133.39,133.39,0,0,0,15.44,48c.56,1,2.1.11,1.54-.9A131.34,131.34,0,0,1,21.63,82.45c-.14-1.12-1.94-1.14-1.79,0Z"/><path class="abca50aa-eba5-4b40-9387-9406a0ec1c60" d="M48.18,86.84c-.86,9.79.26,20.1,2,29.74,1.67,9,4.59,17.65,9.71,25.25.64.95,2.19.06,1.55-.9C51.4,126,48.4,104.56,50,86.84c.1-1.14-1.69-1.14-1.79,0Z"/><path class="abca50aa-eba5-4b40-9387-9406a0ec1c60" d="M77.54,89.58c-2.5,19.15-3.34,39,3.13,57.46.38,1.08,2.11.62,1.73-.47-6.42-18.35-5.55-38-3.07-57,.15-1.14-1.65-1.13-1.79,0Z"/><path class="abca50aa-eba5-4b40-9387-9406a0ec1c60" d="M132.33,87.85a119.94,119.94,0,0,1-12.63,51.91c-.51,1,1,1.94,1.55.91a122.17,122.17,0,0,0,12.87-52.82.9.9,0,0,0-1.79,0Z"/><path class="abca50aa-eba5-4b40-9387-9406a0ec1c60" d="M155.81,82.62C153.19,99.3,149,116,139.6,130.29c-.64,1,.91,1.86,1.54.91,9.49-14.39,13.75-31.27,16.4-48.11.18-1.13-1.55-1.61-1.73-.47Z"/><path class="e6cad473-5168-48fa-825e-e2bbd42a4cb0" d="M15.13,83S39.64,94.64,89.68,94.64s73.39-9.45,73.39-9.45-2.31,31.56-15.6,47.21c0,0-17.58,11.91-57.78,11.91s-55.32-8.57-55.32-8.57S21.75,124.6,15.13,83Z"/><path class="f940b6db-283a-4c08-8532-0e04181901cf" d="M164.91,59.4H13.82s-1.28,27.59,8,54.75c8.3,24.27,27.73,39.91,49.09,39.91h36.89c21.36,0,40.79-15.64,49.09-39.91C166.19,87,164.91,59.4,164.91,59.4Z"/><ellipse class="a04426a0-d0c1-47e2-9f2a-9a84570d1d86" cx="89.37" cy="47.59" rx="87.93" ry="31.75"/><path class="abb8b6c1-38c0-40ad-ae9c-468697e87f21" d="M39.09,74.85c6.46-1.64,11.21-6.94,14.45-12.51A1.35,1.35,0,0,0,51.22,61c-2.89,5-7,9.81-12.85,11.28-1.67.42-1,3,.72,2.59Z"/><path class="abb8b6c1-38c0-40ad-ae9c-468697e87f21" d="M72.43,79.27A37.79,37.79,0,0,0,82.42,65c.67-1.57-1.64-3-2.32-1.36a36.14,36.14,0,0,1-9.57,13.7c-1.32,1.12.59,3,1.9,1.89Z"/><path class="abb8b6c1-38c0-40ad-ae9c-468697e87f21" d="M106.27,79c4-4,5-9.71,5.9-15.1.27-1.69-2.32-2.41-2.59-.71-.79,4.87-1.54,10.27-5.21,13.91a1.34,1.34,0,0,0,1.9,1.9Z"/><path class="abb8b6c1-38c0-40ad-ae9c-468697e87f21" d="M132.86,75.6c3.86-4.15,6.87-10,6.52-15.78-.11-1.71-2.79-1.73-2.69,0,.32,5.09-2.34,10.23-5.73,13.88-1.18,1.26.72,3.17,1.9,1.9Z"/><path class="abb8b6c1-38c0-40ad-ae9c-468697e87f21" d="M159.56,67.42c3.87-4.66,2.28-11.39-.55-16.11a1.34,1.34,0,0,0-2.32,1.35c2.11,3.53,4,9.21,1,12.87-1.09,1.32.8,3.23,1.9,1.89Z"/><path class="abb8b6c1-38c0-40ad-ae9c-468697e87f21" d="M161.85,41.37c6.64-1.61,12.32,2,13.35,8.77.25,1.71,2.84,1,2.59-.71-1.26-8.33-8.7-12.57-16.66-10.65-1.68.4-1,3,.72,2.59Z"/><path class="abb8b6c1-38c0-40ad-ae9c-468697e87f21" d="M149.86,31.08c1.66-2.6,4.66-2.34,7.37-2,1.71.2,1.69-2.49,0-2.69-3.8-.45-7.47-.12-9.69,3.36-.93,1.46,1.39,2.8,2.32,1.35Z"/><path class="abb8b6c1-38c0-40ad-ae9c-468697e87f21" d="M131.85,26.24c.49-2.3,4.48-3.89,6.55-3.74,1.72.12,1.71-2.57,0-2.69a9.37,9.37,0,0,0-5.69,1.73c-1.54,1-3.05,2.11-3.45,4-.35,1.68,2.24,2.41,2.59.71Z"/><path class="abb8b6c1-38c0-40ad-ae9c-468697e87f21" d="M105.48,23.48c.47-2.77,2.57-4.18,5-5.17,1.58-.64.89-3.24-.71-2.59-3.27,1.32-6.27,3.32-6.9,7-.28,1.69,2.3,2.42,2.59.72Z"/><path class="abb8b6c1-38c0-40ad-ae9c-468697e87f21" d="M83.67,22.9a6.86,6.86,0,0,1,2-6.15c1.28-1.16-.62-3.06-1.9-1.9a9.28,9.28,0,0,0-2.74,8c.22,1.69,2.91,1.72,2.68,0Z"/><path class="abb8b6c1-38c0-40ad-ae9c-468697e87f21" d="M62.64,23.38a4.41,4.41,0,0,1-1.89-4.65c.59-1.62-2-2.32-2.59-.71-1,2.6.75,6.38,3.13,7.68,1.52.83,2.87-1.48,1.35-2.32Z"/><path class="abb8b6c1-38c0-40ad-ae9c-468697e87f21" d="M.91,48.25c2.74,1.45,5.89,2.45,8.94,1.4s5.48-3.2,7.69-5.32c1.25-1.19-.65-3.09-1.9-1.9a23.87,23.87,0,0,1-5.15,4c-2.88,1.55-5.44,1-8.23-.46C.73,45.13-.62,47.44.91,48.25Z"/><path class="abb8b6c1-38c0-40ad-ae9c-468697e87f21" d="M13.42,65.24a14.11,14.11,0,0,0,10.45-1.45c2.94-1.79,4.32-5,5.76-8,.75-1.55-1.56-2.91-2.32-1.36-1.08,2.22-2.06,4.81-4,6.42-2.51,2.09-6.09,2.45-9.17,1.77-1.69-.38-2.4,2.21-.72,2.59Z"/><path class="abb8b6c1-38c0-40ad-ae9c-468697e87f21" d="M16.2,30c-.27,2.72,1.14,5,2.85,7,1.12,1.31,3-.6,1.89-1.9C19.67,33.57,18.68,32,18.88,30c.17-1.72-2.52-1.71-2.68,0Z"/><path class="abb8b6c1-38c0-40ad-ae9c-468697e87f21" d="M35.25,22c-.14,2.12-.18,4.33,1,6.2.91,1.46,3.23.11,2.32-1.36s-.74-3.21-.63-4.84-2.57-1.72-2.68,0Z"/><path class="e9365a66-b1e7-4db4-9f93-bc9f5f82ee75" d="M83.28,79.06c5-3.42,6.46-9.53,7.71-15.12.38-1.69-2.21-2.4-2.59-.72C87.33,68,86.27,73.78,81.93,76.74c-1.42,1-.08,3.29,1.35,2.32Z"/><path class="e9365a66-b1e7-4db4-9f93-bc9f5f82ee75" d="M116.87,78c4.39-4,4.51-11.53,4.21-17-.09-1.72-2.78-1.73-2.68,0,.25,4.71.39,11.64-3.43,15.09-1.28,1.17.62,3.06,1.9,1.9Z"/><path class="e9365a66-b1e7-4db4-9f93-bc9f5f82ee75" d="M144.42,72.85c2.38-5.36,3.14-11.28.42-16.67-.78-1.54-3.09-.19-2.32,1.36,2.25,4.45,1.54,9.54-.42,13.95-.69,1.57,1.62,2.94,2.32,1.36Z"/><path class="e9365a66-b1e7-4db4-9f93-bc9f5f82ee75" d="M159.7,47.25c5,2.87,4.82,9.74,4.67,14.73-.05,1.73,2.64,1.73,2.69,0,.18-6-.12-13.64-6-17a1.35,1.35,0,0,0-1.36,2.32Z"/><path class="e9365a66-b1e7-4db4-9f93-bc9f5f82ee75" d="M159.44,37.39s.83-1.24.95-1.38a7.13,7.13,0,0,1,1.48-1.37,9.33,9.33,0,0,1,4.35-1.41c1.71-.17,1.73-2.86,0-2.68a11.83,11.83,0,0,0-6.54,2.4c-1.34,1.09-3.27,3.27-2.83,5.15.4,1.68,3,1,2.59-.71Z"/><path class="e9365a66-b1e7-4db4-9f93-bc9f5f82ee75" d="M142.1,30.91a10,10,0,0,1,5.44-6.05c1.59-.67.22-3-1.36-2.32a12.63,12.63,0,0,0-6.67,7.65c-.58,1.63,2,2.34,2.59.72Z"/><path class="e9365a66-b1e7-4db4-9f93-bc9f5f82ee75" d="M123.82,28.07c-.78-1.15.37-3.39,1-4.42a20.93,20.93,0,0,1,3.14-3.7,1.34,1.34,0,0,0-1.9-1.9,19,19,0,0,0-4.26,5.65c-.72,1.68-1.41,4.06-.28,5.72,1,1.42,3.3.08,2.32-1.35Z"/><path class="e9365a66-b1e7-4db4-9f93-bc9f5f82ee75" d="M97.29,25a9.7,9.7,0,0,1,1.19-7.47c.92-1.47-1.41-2.82-2.32-1.36a12.54,12.54,0,0,0-1.46,9.55c.39,1.68,3,1,2.59-.72Z"/><path class="e9365a66-b1e7-4db4-9f93-bc9f5f82ee75" d="M74.08,15.71a15.81,15.81,0,0,0,1.75,11.4,1.35,1.35,0,0,0,2.32-1.36,13,13,0,0,1-1.49-9.33c.35-1.68-2.24-2.41-2.58-.71Z"/><path class="e9365a66-b1e7-4db4-9f93-bc9f5f82ee75" d="M51.11,20.6c1.44,3.25,3,6.69,6.21,8.55a1.35,1.35,0,0,0,1.36-2.32c-2.75-1.6-4-4.81-5.25-7.58-.7-1.58-3-.21-2.32,1.35Z"/><path class="e9365a66-b1e7-4db4-9f93-bc9f5f82ee75" d="M28.8,25.86c1.26,2.7,2.71,5.56,5.72,6.58,1.64.55,2.34-2,.71-2.59C33,29.11,32,26.43,31.12,24.51c-.73-1.57-3.05-.21-2.32,1.35Z"/><path class="e9365a66-b1e7-4db4-9f93-bc9f5f82ee75" d="M10.68,34a31.4,31.4,0,0,0,4.68,5A11.63,11.63,0,0,0,21,42.1c1.68.4,2.4-2.19.71-2.59a10.4,10.4,0,0,1-4.93-2.83,26.46,26.46,0,0,1-3.77-4c-1-1.38-3.35,0-2.32,1.36Z"/><path class="e9365a66-b1e7-4db4-9f93-bc9f5f82ee75" d="M21.75,47.9a18.55,18.55,0,0,1-13,10.18c-1.69.35-1,2.94.71,2.59A21.06,21.06,0,0,0,24.06,49.26c.78-1.54-1.54-2.9-2.31-1.36Z"/><path class="e9365a66-b1e7-4db4-9f93-bc9f5f82ee75" d="M44.41,55.35c-.94,6.17-7,11.41-12.36,14.07-1.54.77-.19,3.09,1.36,2.32,6-3,12.54-8.8,13.59-15.68.25-1.69-2.33-2.42-2.59-.71Z"/><path class="e9365a66-b1e7-4db4-9f93-bc9f5f82ee75" d="M71.87,59.59a27.78,27.78,0,0,1-4.35,8.83c-2,2.87-5,4.55-7.81,6.49-1.41,1-.07,3.3,1.36,2.32,2.87-2,6.07-3.69,8.15-6.55a31,31,0,0,0,5.24-10.37,1.34,1.34,0,0,0-2.59-.72Z"/><path class="fb31a4bc-ed7a-4f47-b6b0-ecf59e2b816f" d="M95.31,79c1.41-2.39,2.75-4.36,3.39-7.11a44,44,0,0,0,.85-8.26c.07-1.73-2.61-1.73-2.68,0a40.7,40.7,0,0,1-.76,7.55c-.58,2.48-1.85,4.31-3.12,6.46A1.35,1.35,0,0,0,95.31,79Z"/><path class="fb31a4bc-ed7a-4f47-b6b0-ecf59e2b816f" d="M126,76.85c3.47-4.33,3.73-10.49,3.07-15.85-.21-1.69-2.9-1.72-2.69,0,.55,4.44.61,10.34-2.28,14-1.07,1.33.82,3.24,1.9,1.89Z"/><path class="fb31a4bc-ed7a-4f47-b6b0-ecf59e2b816f" d="M150.07,54.56c3.82,2,3.19,9,2.08,12.33-.56,1.63,2,2.34,2.59.71,1.51-4.46,1.62-12.81-3.32-15.36-1.53-.79-2.89,1.53-1.35,2.32Z"/><path class="fb31a4bc-ed7a-4f47-b6b0-ecf59e2b816f" d="M161.87,44.62c5.77,1,7.59,7.91,8.77,12.76.41,1.68,3,1,2.59-.71-1.4-5.76-3.87-13.5-10.65-14.64-1.69-.28-2.42,2.31-.71,2.59Z"/><path class="fb31a4bc-ed7a-4f47-b6b0-ecf59e2b816f" d="M156.51,34.63A7.13,7.13,0,0,1,160.67,31a1.34,1.34,0,0,0-.71-2.59,9.83,9.83,0,0,0-5.77,4.85c-.83,1.51,1.49,2.87,2.32,1.35Z"/><path class="fb31a4bc-ed7a-4f47-b6b0-ecf59e2b816f" d="M136.27,29.44a14.31,14.31,0,0,1,5.14-6.29c1.45-.93.1-3.26-1.35-2.31A16.6,16.6,0,0,0,134,28.09c-.71,1.56,1.6,2.93,2.32,1.35Z"/><path class="fb31a4bc-ed7a-4f47-b6b0-ecf59e2b816f" d="M113.69,25.38c-.38-2.87,1.13-5,2.94-7.07,1.14-1.3-.75-3.2-1.89-1.9-2.24,2.53-4.21,5.42-3.74,9,.23,1.69,2.91,1.71,2.69,0Z"/><path class="fb31a4bc-ed7a-4f47-b6b0-ecf59e2b816f" d="M90.63,22.71c-.51-.59-.28-1.83-.24-2.54a23.22,23.22,0,0,1,.44-3.09c.36-1.68-2.23-2.4-2.59-.71-.52,2.49-1.36,6.12.49,8.24,1.14,1.3,3-.61,1.9-1.9Z"/><path class="fb31a4bc-ed7a-4f47-b6b0-ecf59e2b816f" d="M64.82,17.4a25.6,25.6,0,0,0,2,11.53c.67,1.58,3,.22,2.32-1.36A22.52,22.52,0,0,1,67.51,17.4c.09-1.73-2.59-1.72-2.69,0Z"/><path class="fb31a4bc-ed7a-4f47-b6b0-ecf59e2b816f" d="M42.74,20.92c.95,3.57,2,7.35,5.27,9.52,1.44,1,2.78-1.36,1.35-2.32-2.55-1.71-3.29-5.14-4-7.92a1.34,1.34,0,0,0-2.59.72Z"/><path class="fb31a4bc-ed7a-4f47-b6b0-ecf59e2b816f" d="M23,26.76a17.39,17.39,0,0,0,4.66,9.4,1.34,1.34,0,0,0,1.9-1.9,14.9,14.9,0,0,1-4-8.22c-.29-1.7-2.87-1-2.59.72Z"/><path class="fb31a4bc-ed7a-4f47-b6b0-ecf59e2b816f" d="M4.34,40.63a16.84,16.84,0,0,0,11.75,1.24,1.34,1.34,0,0,0-.71-2.59,13.94,13.94,0,0,1-9.69-1c-1.55-.75-2.91,1.57-1.35,2.32Z"/><path class="fb31a4bc-ed7a-4f47-b6b0-ecf59e2b816f" d="M17,47c-1.52,4.46-7.85,7.13-12.14,7.6-1.69.19-1.71,2.88,0,2.69,5.61-.63,12.77-3.83,14.73-9.58.56-1.64-2-2.34-2.59-.71Z"/><path class="fb31a4bc-ed7a-4f47-b6b0-ecf59e2b816f" d="M33.93,56.92c-1.06,4.91-4.33,8.26-8.71,10.49-1.54.79-.18,3.11,1.36,2.32,5-2.53,8.74-6.55,9.94-12.1.36-1.68-2.23-2.4-2.59-.71Z"/><path class="fb31a4bc-ed7a-4f47-b6b0-ecf59e2b816f" d="M59.28,61.32c-1.1,4.16-3.79,10.75-8,12.64-1.58.71-.21,3,1.35,2.32,2.46-1.11,4-3.31,5.35-5.58A34.55,34.55,0,0,0,61.86,62a1.34,1.34,0,0,0-2.58-.71Z"/><ellipse class="f940b6db-283a-4c08-8532-0e04181901cf" cx="89.37" cy="47.59" rx="87.93" ry="31.75"/><ellipse class="a3c6df48-f2b3-4889-8b87-79a0d8af145f" cx="89.37" cy="43.38" rx="72.77" ry="20.48"/><path class="abca50aa-eba5-4b40-9387-9406a0ec1c60" d="M8.52,53.27a33.16,33.16,0,0,0,8.91,7.2c1,.56,1.91-1,.9-1.54A31.62,31.62,0,0,1,9.78,52c-.76-.87-2,.4-1.26,1.27Z"/><path class="abca50aa-eba5-4b40-9387-9406a0ec1c60" d="M27.1,65.12a59.51,59.51,0,0,0,12.76,3.6c1.13.19,1.61-1.54.48-1.72a59.05,59.05,0,0,1-12.77-3.61C26.5,63,26,64.69,27.1,65.12Z"/><path class="abca50aa-eba5-4b40-9387-9406a0ec1c60" d="M50.84,71.27a52.68,52.68,0,0,0,19.73,2.09c1.14-.1,1.15-1.89,0-1.79a51.79,51.79,0,0,1-19.25-2,.89.89,0,0,0-.48,1.72Z"/><path class="abca50aa-eba5-4b40-9387-9406a0ec1c60" d="M171.81,50.12a18.4,18.4,0,0,1-7.35,7.41c-1,.54-.12,2.09.9,1.55a20.19,20.19,0,0,0,8-8.06.89.89,0,0,0-1.54-.9Z"/><path class="abca50aa-eba5-4b40-9387-9406a0ec1c60" d="M155.07,61c-.81,1.71-4.58,2.78-6.11,3.32a31.4,31.4,0,0,1-6.48,1.49c-1.13.15-1.15,1.94,0,1.79a33.52,33.52,0,0,0,8.7-2.22c1.83-.75,4.53-1.56,5.44-3.47.49-1-1.05-2-1.55-.91Z"/><path class="a8e7f55a-40cf-48cf-890f-01c5fae109a8" d="M22.37,53.4s-1.63-22.56,67-23C155.35,30,157,52,157,52S146.12,64,89.69,65.12C42,66.06,22.37,53.4,22.37,53.4Z"/><path class="bedb97c0-5a4f-4f87-960d-1990c8aec646" d="M21.79,94.62a77.35,77.35,0,0,0,12,29.21c1.57,2.3,5.34.12,3.76-2.2A74.15,74.15,0,0,1,26,93.46c-.53-2.74-4.73-1.58-4.2,1.16Z"/><path class="bedb97c0-5a4f-4f87-960d-1990c8aec646" d="M154.53,93.38a19.53,19.53,0,0,1-1.63,6.13,2.25,2.25,0,0,0,.79,3,2.19,2.19,0,0,0,3-.78,26.5,26.5,0,0,0,2.22-8.33,2.18,2.18,0,0,0-2.17-2.18,2.23,2.23,0,0,0-2.18,2.18Z"/><path class="abb8b6c1-38c0-40ad-ae9c-468697e87f21" d="M97.78,102H81a2.84,2.84,0,0,0-2.45,1.42L70.09,118a2.83,2.83,0,0,0,0,2.84l8.41,14.57A2.82,2.82,0,0,0,81,136.81H97.78a2.82,2.82,0,0,0,2.45-1.42l8.42-14.57a2.88,2.88,0,0,0,0-2.84l-8.42-14.57A2.84,2.84,0,0,0,97.78,102Z"/></g></g></svg>