<svg xmlns="http://www.w3.org/2000/svg" viewBox="0 0 114.05 74.18"><defs><style>.e2ca5b7d-7dea-4e3f-9985-b5c447c8b250{fill:#e83f5c;}.ec8faeea-3158-44b8-ae1e-d92a1099a17d{fill:#f4a99c;}.b09952f7-e56b-4378-82c4-2a0aa0db6029{fill:#231815;stroke:#40220f;}.b09952f7-e56b-4378-82c4-2a0aa0db6029,.bb4000f1-9925-4c86-95fe-66d2ff2604eb{stroke-miterlimit:10;stroke-width:1.7px;}.e048fab9-960c-45ad-bb03-89380373b956{fill:#ea5944;}.ad80b3d8-1dc3-4959-8f50-7adcef3d422e,.bb4000f1-9925-4c86-95fe-66d2ff2604eb{fill:none;}.ad80b3d8-1dc3-4959-8f50-7adcef3d422e{stroke:#f4a99c;stroke-linecap:round;stroke-linejoin:round;stroke-width:0.9px;}.f788cd03-f54c-413d-9cd5-c66d98311171{fill:#fff;}.fa643421-4c11-4769-9077-70687f974916{fill:#f29b89;}.bb4000f1-9925-4c86-95fe-66d2ff2604eb{stroke:#fbe0d0;}.b8218efd-dc4a-4af7-9f9f-64035bfe5870{fill:#b8e2f9;}.f705529b-c499-405f-b25e-e268616bb460{fill:#9cd0eb;}.a920abca-6101-4b43-99c6-c1b6f509adfc{fill:#f7c0b3;}</style></defs><title>方1</title><g id="bb047e3f-a12e-4a37-8a95-b78eae503b39" data-name="圖層 2"><g id="fcc0b394-6dbb-4c02-9387-623a33f0d497" data-name="圖層 1"><path class="e2ca5b7d-7dea-4e3f-9985-b5c447c8b250" d="M98.6,34.37v5.44l11.85,6.84a1.83,1.83,0,0,0,2.75-1.58v-16a1.83,1.83,0,0,0-2.75-1.58Z"/><path class="ec8faeea-3158-44b8-ae1e-d92a1099a17d" d="M30.15,7.15V67a6.31,6.31,0,0,0,6.31,6.3H67.6V.85H36.46A6.31,6.31,0,0,0,30.15,7.15Z"/><circle class="b09952f7-e56b-4378-82c4-2a0aa0db6029" cx="47.21" cy="24.67" r="3.41"/><path class="e048fab9-960c-45ad-bb03-89380373b956" d="M96.33.85H67.6V73.33H96.33a6.31,6.31,0,0,0,6.31-6.3V7.15A6.31,6.31,0,0,0,96.33.85Z"/><line class="ad80b3d8-1dc3-4959-8f50-7adcef3d422e" x1="104.08" y1="37.09" x2="111.66" y2="37.09"/><line class="ad80b3d8-1dc3-4959-8f50-7adcef3d422e" x1="103.89" y1="33.88" x2="110.88" y2="30.6"/><line class="ad80b3d8-1dc3-4959-8f50-7adcef3d422e" x1="103.89" y1="40.3" x2="110.88" y2="43.58"/><circle class="f788cd03-f54c-413d-9cd5-c66d98311171" cx="46.33" cy="23.93" r="0.74"/><path class="fa643421-4c11-4769-9077-70687f974916" d="M67.6,35.58v3l6.58,3.8a1,1,0,0,0,1.52-.88V32.66a1,1,0,0,0-1.52-.88Z"/><path class="bb4000f1-9925-4c86-95fe-66d2ff2604eb" d="M110.45,27.53,102.64,32V7.15A6.31,6.31,0,0,0,96.33.85H36.46a6.31,6.31,0,0,0-6.31,6.3V67a6.31,6.31,0,0,0,6.31,6.3H96.33a6.31,6.31,0,0,0,6.31-6.3V42.14l7.81,4.51a1.83,1.83,0,0,0,2.75-1.58v-16A1.83,1.83,0,0,0,110.45,27.53Z"/><circle class="b8218efd-dc4a-4af7-9f9f-64035bfe5870" cx="7.97" cy="29.68" r="7.97"/><path class="f705529b-c499-405f-b25e-e268616bb460" d="M4.34,25.86a6.94,6.94,0,0,0,.83,8.19c.76.84,2-.41,1.25-1.25a5.09,5.09,0,0,1-.56-6,.88.88,0,0,0-1.52-.89Z"/><path class="f705529b-c499-405f-b25e-e268616bb460" d="M8,36.24a.88.88,0,0,0,0-1.76.88.88,0,0,0,0,1.76Z"/><path class="f788cd03-f54c-413d-9cd5-c66d98311171" d="M12.72,26.5a4.92,4.92,0,0,0-2.91-1.66.91.91,0,0,0-1.08.61.88.88,0,0,0,.62,1.09,3.38,3.38,0,0,1,2.12,1.21.9.9,0,0,0,1.25,0,.91.91,0,0,0,0-1.25Z"/><circle class="b8218efd-dc4a-4af7-9f9f-64035bfe5870" cx="16.37" cy="46.33" r="6.14"/><path class="f705529b-c499-405f-b25e-e268616bb460" d="M13.68,43.3a4.22,4.22,0,0,0,0,5.84c.79.82,2-.43,1.25-1.25a2.44,2.44,0,0,1,0-3.35c.79-.81-.46-2.06-1.24-1.24Z"/><path class="f705529b-c499-405f-b25e-e268616bb460" d="M16.37,51a.89.89,0,0,0,0-1.77.89.89,0,0,0,0,1.77Z"/><path class="f788cd03-f54c-413d-9cd5-c66d98311171" d="M19.81,43.92a3.32,3.32,0,0,0-2.18-1.84.88.88,0,0,0-.47,1.7,1.66,1.66,0,0,1,1.13,1,.88.88,0,0,0,1.52-.89Z"/><path class="a920abca-6101-4b43-99c6-c1b6f509adfc" d="M85.19,8.6a63.17,63.17,0,0,1,9.33-.16c1.92.11,1.91-2.87,0-3a61.83,61.83,0,0,0-9.33.16c-1.89.17-1.91,3.16,0,3Z"/><path class="a920abca-6101-4b43-99c6-c1b6f509adfc" d="M94.81,61.61c-.07,1.27.06,3.41-.7,4.5s-3.4.89-4.56.77c-1.91-.19-1.9,2.8,0,3,2.11.21,5.23.09,6.72-1.66s1.41-4.51,1.53-6.6c.11-1.92-2.88-1.92-3,0Z"/></g></g></svg>