<svg xmlns="http://www.w3.org/2000/svg" viewBox="0 0 138.93 76.43"><defs><style>.ae29e39c-f34a-404e-b136-f807366814be{fill:#e83f5c;}.b628a509-cbb3-4c49-a612-396ac1509ab3{fill:#f4a99c;}.e2bf9255-93ea-4ae7-b87c-0730114364ad{fill:#231815;stroke:#40220f;}.e2bf9255-93ea-4ae7-b87c-0730114364ad,.f5936edd-52e7-4b4b-8bb3-20a0b3438428{stroke-miterlimit:10;stroke-width:1.75px;}.bfba6bdc-7788-427f-bcb7-f0e1784134ac{fill:#ea5944;}.bdd30851-b329-4d31-9e90-15aab86bdb15,.f5936edd-52e7-4b4b-8bb3-20a0b3438428{fill:none;}.bdd30851-b329-4d31-9e90-15aab86bdb15{stroke:#f4a99c;stroke-linecap:round;stroke-linejoin:round;stroke-width:0.93px;}.f003f6d3-6db0-429d-a2ae-a7e5d0c7aa83{fill:#fff;}.e0ce4ac8-3120-4d9d-b588-099c08b4c0ef{fill:#f29b89;}.f5936edd-52e7-4b4b-8bb3-20a0b3438428{stroke:#fbe0d0;}.eac1bf22-2b06-4bd6-8c66-4dd3590de9a3{fill:#b8e2f9;}.e840b993-2b42-409c-a74d-d9724ee0b214{fill:#9cd0eb;}.a9db69c0-e432-446b-9926-92b2904f36ff{fill:#f7c0b3;}</style></defs><title>方2</title><g id="b128bfb2-19ee-4c2d-8f28-100ec851e4b7" data-name="圖層 2"><g id="a3f50acd-40ab-432b-b791-59f493a09081" data-name="圖層 1"><path class="ae29e39c-f34a-404e-b136-f807366814be" d="M15.92,35.41V41l-12.21,7A1.89,1.89,0,0,1,.88,46.44V30a1.89,1.89,0,0,1,2.83-1.64Z"/><path class="b628a509-cbb3-4c49-a612-396ac1509ab3" d="M86.44,7.37V69.06a6.5,6.5,0,0,1-6.5,6.5H47.86V.88H79.94A6.49,6.49,0,0,1,86.44,7.37Z"/><circle class="e2bf9255-93ea-4ae7-b87c-0730114364ad" cx="68.86" cy="25.42" r="3.51"/><path class="bfba6bdc-7788-427f-bcb7-f0e1784134ac" d="M18.25.88H47.86V75.56H18.25a6.5,6.5,0,0,1-6.49-6.5V7.37A6.49,6.49,0,0,1,18.25.88Z"/><line class="bdd30851-b329-4d31-9e90-15aab86bdb15" x1="10.27" y1="38.22" x2="2.46" y2="38.22"/><line class="bdd30851-b329-4d31-9e90-15aab86bdb15" x1="10.46" y1="34.91" x2="3.27" y2="31.53"/><line class="bdd30851-b329-4d31-9e90-15aab86bdb15" x1="10.46" y1="41.52" x2="3.27" y2="44.9"/><circle class="f003f6d3-6db0-429d-a2ae-a7e5d0c7aa83" cx="69.78" cy="24.65" r="0.77"/><path class="e0ce4ac8-3120-4d9d-b588-099c08b4c0ef" d="M47.86,36.66v3.11l-6.78,3.92a1,1,0,0,1-1.57-.91V33.65a1,1,0,0,1,1.57-.9Z"/><path class="f5936edd-52e7-4b4b-8bb3-20a0b3438428" d="M3.71,28.36,11.76,33V7.37A6.49,6.49,0,0,1,18.25.88H79.94a6.49,6.49,0,0,1,6.5,6.49V69.06a6.5,6.5,0,0,1-6.5,6.5H18.25a6.5,6.5,0,0,1-6.49-6.5V43.42l-8,4.65A1.89,1.89,0,0,1,.88,46.44V30A1.89,1.89,0,0,1,3.71,28.36Z"/><circle class="eac1bf22-2b06-4bd6-8c66-4dd3590de9a3" cx="113.17" cy="33.43" r="6.88"/><path class="e840b993-2b42-409c-a74d-d9724ee0b214" d="M115,30.9a4.41,4.41,0,0,1-.47,5.23c-.65.73.42,1.81,1.07,1.07a6,6,0,0,0,.72-7.06.76.76,0,0,0-1.32.76Z"/><path class="e840b993-2b42-409c-a74d-d9724ee0b214" d="M113.17,39.1a.76.76,0,0,0,0-1.52.76.76,0,0,0,0,1.52Z"/><path class="f003f6d3-6db0-429d-a2ae-a7e5d0c7aa83" d="M110.14,31.77A2.9,2.9,0,0,1,112,30.72c1-.16.55-1.63-.41-1.47a4.25,4.25,0,0,0-2.5,1.44c-.63.74.44,1.82,1.07,1.08Z"/><circle class="eac1bf22-2b06-4bd6-8c66-4dd3590de9a3" cx="129.5" cy="13.71" r="9.43"/><path class="e840b993-2b42-409c-a74d-d9724ee0b214" d="M132,10.24a6,6,0,0,1-.66,7.17c-.89,1,.58,2.47,1.48,1.47a8.19,8.19,0,0,0,1-9.69,1,1,0,0,0-1.8,1.05Z"/><path class="e840b993-2b42-409c-a74d-d9724ee0b214" d="M129.5,21.48a1,1,0,0,0,0-2.09,1,1,0,0,0,0,2.09Z"/><path class="f003f6d3-6db0-429d-a2ae-a7e5d0c7aa83" d="M125.35,11.42A4,4,0,0,1,127.87,10a1.06,1.06,0,0,0,.73-1.28A1.08,1.08,0,0,0,127.31,8a5.74,5.74,0,0,0-3.43,2,1.05,1.05,0,0,0,0,1.47,1,1,0,0,0,1.47,0Z"/><circle class="eac1bf22-2b06-4bd6-8c66-4dd3590de9a3" cx="101.32" cy="47.81" r="5.3"/><path class="e840b993-2b42-409c-a74d-d9724ee0b214" d="M102.57,46.27a2.1,2.1,0,0,1,0,2.89c-.68.7.39,1.78,1.07,1.07a3.64,3.64,0,0,0,0-5c-.68-.7-1.75.37-1.08,1.08Z"/><path class="e840b993-2b42-409c-a74d-d9724ee0b214" d="M101.32,51.83a.76.76,0,0,0,0-1.52.76.76,0,0,0,0,1.52Z"/><path class="f003f6d3-6db0-429d-a2ae-a7e5d0c7aa83" d="M99.66,46.5a1.45,1.45,0,0,1,1-.89.76.76,0,0,0-.41-1.47,2.9,2.9,0,0,0-1.88,1.59.78.78,0,0,0,.27,1,.77.77,0,0,0,1-.27Z"/><path class="a9db69c0-e432-446b-9926-92b2904f36ff" d="M17.48,60.46c0,2.51-.52,6.27.83,8.54,1.22,2,4.12,2.25,6.23,2.12,1.59-.11,1.61-2.6,0-2.5a8,8,0,0,1-2.72-.15c-1.34-.38-1.59-1-1.71-2.35A50.87,50.87,0,0,1,20,60.46a1.25,1.25,0,0,0-2.5,0Z"/><path class="a9db69c0-e432-446b-9926-92b2904f36ff" d="M21.36,8.28h13.3a1.25,1.25,0,0,0,0-2.49H21.36a1.25,1.25,0,0,0,0,2.49Z"/></g></g></svg>