<svg xmlns="http://www.w3.org/2000/svg" viewBox="0 0 79.31 79.31"><defs><style>.b462eb19-9f5c-42af-843c-e9dd9fbe2065{fill:#e83f5c;}.bce7954e-86ee-4404-a7c3-28f93037fe83{fill:#f4a99c;}.ab9cd4ff-1383-4e97-be15-bdb959c0218f{fill:#231815;stroke:#40220f;}.ab9cd4ff-1383-4e97-be15-bdb959c0218f,.e1df1bdb-7429-49b1-840c-d58947907e81{stroke-miterlimit:10;stroke-width:1.43px;}.f5a44875-9003-44eb-8b3e-fcaed199c754{fill:#ea5944;}.bf073c8f-c00f-4069-abc9-2f55c4bb0794,.e1df1bdb-7429-49b1-840c-d58947907e81{fill:none;}.bf073c8f-c00f-4069-abc9-2f55c4bb0794{stroke:#f4a99c;stroke-linecap:round;stroke-linejoin:round;stroke-width:0.76px;}.abe97d3d-7a9a-430e-996d-712886bc5587{fill:#fff;}.bef5b4e3-e7e3-40a3-823f-c7fd4799e1e9{fill:#f29b89;}.e1df1bdb-7429-49b1-840c-d58947907e81{stroke:#fbe0d0;}.f1ff3a43-7ea2-4db8-b029-f1137f4a9aa1{fill:#f7c0b3;}</style></defs><title>方3</title><g id="b1eda3e2-e9f4-434f-8c9a-262bdd4492f2" data-name="圖層 2"><g id="b8338084-5157-45f4-869d-d266cc137d3b" data-name="圖層 1"><path class="b462eb19-9f5c-42af-843c-e9dd9fbe2065" d="M26,63.25l4.15,2,.95,11.51a1.55,1.55,0,0,1-2.2,1.53L16.72,72.49a1.54,1.54,0,0,1-.22-2.66Z"/><path class="bce7954e-86ee-4404-a7c3-28f93037fe83" d="M29.86,1.23,75.54,22.78a5.31,5.31,0,0,1,2.54,7.08L66.87,53.62,11.57,27.53,22.78,3.77A5.31,5.31,0,0,1,29.86,1.23Z"/><circle class="ab9cd4ff-1383-4e97-be15-bdb959c0218f" cx="37.08" cy="20.55" r="2.88"/><path class="f5a44875-9003-44eb-8b3e-fcaed199c754" d="M1.23,49.45,11.57,27.53l55.3,26.09L56.53,75.54a5.31,5.31,0,0,1-7.08,2.54L3.77,56.53A5.31,5.31,0,0,1,1.23,49.45Z"/><line class="bf073c8f-c00f-4069-abc9-2f55c4bb0794" x1="26.09" y1="68.41" x2="23.36" y2="74.19"/><line class="bf073c8f-c00f-4069-abc9-2f55c4bb0794" x1="23.71" y1="67.11" x2="18.69" y2="71.26"/><line class="bf073c8f-c00f-4069-abc9-2f55c4bb0794" x1="28.61" y1="69.42" x2="28.59" y2="75.93"/><circle class="abe97d3d-7a9a-430e-996d-712886bc5587" cx="36.84" cy="19.6" r="0.63"/><path class="bef5b4e3-e7e3-40a3-823f-c7fd4799e1e9" d="M38.07,40l2.3,1.09.53,6.38a.86.86,0,0,1-1.22.85l-6.76-3.19a.86.86,0,0,1-.12-1.48Z"/><path class="e1df1bdb-7429-49b1-840c-d58947907e81" d="M16.5,69.83l6.26-4.34-19-9a5.31,5.31,0,0,1-2.54-7.08L11.57,27.53,22.78,3.77a5.31,5.31,0,0,1,7.08-2.54L75.54,22.78a5.31,5.31,0,0,1,2.54,7.08L66.87,53.62,56.53,75.54a5.31,5.31,0,0,1-7.08,2.54l-19-9,.63,7.59a1.55,1.55,0,0,1-2.2,1.53L16.72,72.49A1.54,1.54,0,0,1,16.5,69.83Z"/><path class="f1ff3a43-7ea2-4db8-b029-f1137f4a9aa1" d="M45,70.8c1.87.92,4.48,2.56,6.63,2.4s3.18-2.33,3.87-4c.49-1.22-1.48-1.75-2-.54a5.8,5.8,0,0,1-1.3,2.15,3.13,3.13,0,0,1-2.51-.09C48.47,70.2,47.24,69.63,46,69s-2.21,1.19-1,1.77Z"/><path class="f1ff3a43-7ea2-4db8-b029-f1137f4a9aa1" d="M7.75,49.82,12.4,40c.56-1.18-1.2-2.22-1.76-1L6,48.79c-.56,1.18,1.2,2.22,1.76,1Z"/></g></g></svg>