<svg xmlns="http://www.w3.org/2000/svg" viewBox="0 0 113.41 75.86"><defs><style>.a691df8f-78c4-41ba-9896-9e1596679e44{fill:#e83f5c;}.b73f23f3-50ac-4610-a64e-8fb7ca9629ab{fill:#f4a99c;}.b753595e-b678-4d8f-89a2-a8dc5372fde9{fill:#231815;stroke:#40220f;}.aeb5e4cb-7255-4192-93e4-a86a4ea5833b,.b753595e-b678-4d8f-89a2-a8dc5372fde9{stroke-miterlimit:10;stroke-width:1.42px;}.b98befdf-404d-45b8-9f07-a88dfa6caec7{fill:#ea5944;}.a73a5f79-448a-4ca3-94bc-dd615e3b5ece,.aeb5e4cb-7255-4192-93e4-a86a4ea5833b{fill:none;}.a73a5f79-448a-4ca3-94bc-dd615e3b5ece{stroke:#f4a99c;stroke-linecap:round;stroke-linejoin:round;stroke-width:0.75px;}.f8d9c6f9-f9e5-4bb6-91b4-334bb084df36{fill:#fff;}.be43e49e-6e64-4741-8b7f-ccc10cfdf43f{fill:#f29b89;}.aeb5e4cb-7255-4192-93e4-a86a4ea5833b{stroke:#fbe0d0;}.b8afb046-1bb0-48a4-a086-d456ea0ea616{fill:#b8e2f9;}.a889a3b4-d4d6-4c88-a139-07f599675bd6{fill:#9cd0eb;}.f6cd0d92-e4e4-41ff-9168-1ac8d953108f{fill:#f7c0b3;}</style></defs><title>方4</title><g id="bee50578-3085-4742-b66d-d8bc3e8a2944" data-name="圖層 2"><g id="bb609d88-966d-465f-a3ec-301d9055a9b5" data-name="圖層 1"><path class="a691df8f-78c4-41ba-9896-9e1596679e44" d="M100.5,42.6v4.54l9.9,5.72a1.53,1.53,0,0,0,2.3-1.33V38.2a1.53,1.53,0,0,0-2.3-1.32Z"/><path class="b73f23f3-50ac-4610-a64e-8fb7ca9629ab" d="M43.31,19.85v50a5.27,5.27,0,0,0,5.27,5.27h26V14.59h-26A5.27,5.27,0,0,0,43.31,19.85Z"/><circle class="b753595e-b678-4d8f-89a2-a8dc5372fde9" cx="57.57" cy="34.49" r="2.85"/><path class="b98befdf-404d-45b8-9f07-a88dfa6caec7" d="M98.61,14.59h-24V75.15h24a5.27,5.27,0,0,0,5.26-5.27v-50A5.27,5.27,0,0,0,98.61,14.59Z"/><line class="a73a5f79-448a-4ca3-94bc-dd615e3b5ece" x1="105.08" y1="44.87" x2="111.41" y2="44.87"/><line class="a73a5f79-448a-4ca3-94bc-dd615e3b5ece" x1="104.92" y1="42.19" x2="110.76" y2="39.45"/><line class="a73a5f79-448a-4ca3-94bc-dd615e3b5ece" x1="104.92" y1="47.55" x2="110.76" y2="50.29"/><circle class="f8d9c6f9-f9e5-4bb6-91b4-334bb084df36" cx="56.83" cy="33.87" r="0.62"/><path class="be43e49e-6e64-4741-8b7f-ccc10cfdf43f" d="M74.6,43.61v2.52l5.5,3.17a.85.85,0,0,0,1.27-.73v-7.4a.85.85,0,0,0-1.27-.74Z"/><path class="aeb5e4cb-7255-4192-93e4-a86a4ea5833b" d="M110.4,36.88l-6.53,3.77V19.85a5.27,5.27,0,0,0-5.26-5.26h-50a5.27,5.27,0,0,0-5.27,5.26v50a5.27,5.27,0,0,0,5.27,5.27h50a5.27,5.27,0,0,0,5.26-5.27V49.09l6.53,3.77a1.53,1.53,0,0,0,2.3-1.33V38.2A1.53,1.53,0,0,0,110.4,36.88Z"/><ellipse class="b8afb046-1bb0-48a4-a086-d456ea0ea616" cx="19.36" cy="31.07" rx="7.76" ry="7.93"/><path class="a889a3b4-d4d6-4c88-a139-07f599675bd6" d="M15.83,27.28a6.94,6.94,0,0,0,.81,8.13c.73.85,1.95-.38,1.22-1.22a5.2,5.2,0,0,1-.54-6,.86.86,0,0,0-1.49-.87Z"/><path class="a889a3b4-d4d6-4c88-a139-07f599675bd6" d="M19.36,37.59a.87.87,0,0,0,0-1.73.87.87,0,0,0,0,1.73Z"/><path class="f8d9c6f9-f9e5-4bb6-91b4-334bb084df36" d="M24,27.92a4.72,4.72,0,0,0-2.84-1.66.89.89,0,0,0-1.06.61.87.87,0,0,0,.6,1.06,3.35,3.35,0,0,1,2.07,1.21.87.87,0,0,0,1.23,0,.9.9,0,0,0,0-1.22Z"/><circle class="b8afb046-1bb0-48a4-a086-d456ea0ea616" cx="8.94" cy="8.94" r="8.94"/><path class="a889a3b4-d4d6-4c88-a139-07f599675bd6" d="M4.87,4.66a7.77,7.77,0,0,0,.93,9.18c.85.95,2.25-.45,1.4-1.4a5.72,5.72,0,0,1-.62-6.79,1,1,0,0,0-1.71-1Z"/><path class="a889a3b4-d4d6-4c88-a139-07f599675bd6" d="M8.94,16.3a1,1,0,0,0,0-2,1,1,0,0,0,0,2Z"/><path class="f8d9c6f9-f9e5-4bb6-91b4-334bb084df36" d="M14.27,5.38A5.45,5.45,0,0,0,11,3.51,1,1,0,0,0,9.8,4.2a1,1,0,0,0,.69,1.22,3.76,3.76,0,0,1,2.38,1.36,1,1,0,1,0,1.4-1.4Z"/><circle class="b8afb046-1bb0-48a4-a086-d456ea0ea616" cx="29.18" cy="51.38" r="6.11"/><path class="a889a3b4-d4d6-4c88-a139-07f599675bd6" d="M26.5,48.36a4.21,4.21,0,0,0,0,5.81c.78.82,2-.42,1.24-1.24a2.41,2.41,0,0,1,0-3.33c.78-.81-.46-2.05-1.24-1.24Z"/><path class="a889a3b4-d4d6-4c88-a139-07f599675bd6" d="M29.18,56a.88.88,0,0,0,0-1.76.88.88,0,0,0,0,1.76Z"/><path class="f8d9c6f9-f9e5-4bb6-91b4-334bb084df36" d="M32.61,49a3.31,3.31,0,0,0-2.17-1.83A.88.88,0,0,0,30,48.84a1.69,1.69,0,0,1,1.13,1,.88.88,0,0,0,1.2.31.89.89,0,0,0,.31-1.2Z"/><path class="f6cd0d92-e4e4-41ff-9168-1ac8d953108f" d="M87.05,20.69l8.73.2a1.25,1.25,0,0,0,0-2.49l-8.73-.21a1.25,1.25,0,0,0,0,2.5Z"/><path class="f6cd0d92-e4e4-41ff-9168-1ac8d953108f" d="M96.94,61.8c-.09,1.7.12,3.92-.73,5.47s-2.93,1.63-4.53,1.22A1.25,1.25,0,0,0,91,70.9c2.25.57,4.91.46,6.6-1.34,1.89-2,1.67-5.21,1.82-7.76.08-1.61-2.41-1.6-2.5,0Z"/></g></g></svg>