<svg xmlns="http://www.w3.org/2000/svg" xmlns:xlink="http://www.w3.org/1999/xlink" viewBox="0 0 430.58 47"><defs><style>.a69355b3-4e31-4c73-9754-5d7a48acc2ea{fill:#fff;}.ba47d263-3013-43b3-8fed-6d405de36b76{fill:url(#ac2e05a9-f59b-4c6a-9bf5-bed67e7b15a5);}.b3d549ae-8032-4f77-a91a-76b4d53e405a{fill:url(#e73ffc94-d096-460c-aa06-38a5b5d84d37);}</style><radialGradient id="ac2e05a9-f59b-4c6a-9bf5-bed67e7b15a5" cx="265.48" cy="23.5" r="117.92" gradientUnits="userSpaceOnUse"><stop offset="0" stop-color="#f2942c"/><stop offset="0.57" stop-color="#fdd14e"/><stop offset="0.91" stop-color="#f18a2c"/></radialGradient><linearGradient id="e73ffc94-d096-460c-aa06-38a5b5d84d37" x1="96.07" y1="23.5" x2="447.02" y2="23.5" gradientUnits="userSpaceOnUse"><stop offset="0" stop-color="#e83b28"/><stop offset="0.27" stop-color="#f18a2c"/><stop offset="0.28" stop-color="#f18d2b"/><stop offset="0.5" stop-color="#f7b318"/><stop offset="0.7" stop-color="#fccf0b"/><stop offset="0.87" stop-color="#fee003"/><stop offset="1" stop-color="#ffe600"/></linearGradient></defs><title>時間</title><g id="b925062d-124e-4254-b607-6a46e8746b6f" data-name="圖層 2"><g id="a4689f5f-091a-44a6-9f40-fc673ffa6368" data-name="圖層 1"><path class="a69355b3-4e31-4c73-9754-5d7a48acc2ea" d="M3,8v12.3H7.89c.09-3.23.1-6,0-8.35a1.65,1.65,0,0,0-.32-.73A.76.76,0,0,0,7.05,11a6.59,6.59,0,0,0-2,.76L4.67,8.92A8.08,8.08,0,0,1,7.92,8a2.51,2.51,0,0,1,2,.87,3.43,3.43,0,0,1,.91,2.35q.24,9.92-.55,23.08h1.78v3H3V38.4H0V8ZM3,34.32H7.27q.33-6.15.54-11H3ZM26.77,21h3v3h2.82v3H29.77V37.79a1.69,1.69,0,0,1-.47,1.3,2.67,2.67,0,0,1-1.19.65,10.92,10.92,0,0,1-3,.4,19.3,19.3,0,0,1-4.41-.83V36.16A22.14,22.14,0,0,0,24.6,37a6.54,6.54,0,0,0,1.59-.11c.39-.12.58-.44.58-1V27.05h-15V24h15Zm-14-4.26h7.92v-4H12.05v-3h8.64V6.83h3V9.72h8.9v3h-8.9v4h8.18v2.85H12.77Zm6,13.67a2.78,2.78,0,0,1,.9,2.06,2.57,2.57,0,0,1-.86,2,2.84,2.84,0,0,1-2,.91,2.8,2.8,0,0,1-2.06-.87,2.84,2.84,0,0,1-.8-2,2.8,2.8,0,0,1,.8-2.06,3,3,0,0,1,4,0Z"/><path class="a69355b3-4e31-4c73-9754-5d7a48acc2ea" d="M51.84,6.83v5.71h8.57c0-.58.05-1.13.07-1.66a1,1,0,0,0-.32-.84A2.42,2.42,0,0,0,59,9.83a32.39,32.39,0,0,0-5.46.87l-.4-3a32.15,32.15,0,0,1,6-1,4.86,4.86,0,0,1,3,.79,3.39,3.39,0,0,1,1.27,2.72A75.32,75.32,0,0,1,62.91,18h.43V20.9H51.84V40h-3V6.83ZM59.91,18c.09-.89.19-1.77.29-2.64H51.84V18Zm-.84,5V29h9.81V27.23a1,1,0,0,0-.33-.83,2.29,2.29,0,0,0-1.16-.22,34.66,34.66,0,0,0-6.33.72l-.39-3a37.22,37.22,0,0,1,6.9-.83,4.85,4.85,0,0,1,3,.79,3.36,3.36,0,0,1,1.27,2.72,61.38,61.38,0,0,1-.25,7.74h1.26V37H59.07v.65h-3V23Zm9.59,11.29q.07-1.35.18-2.64H59.07v2.64Zm11,5a2.68,2.68,0,0,1-2,.65,12.58,12.58,0,0,1-4.45-.54V36.56A9,9,0,0,0,75.9,37a1.05,1.05,0,0,0,1.19-1.19V20.61H68.77v.58h-3V6.54h3V7.73a6.53,6.53,0,0,1,1-.22,45.77,45.77,0,0,1,7.66-.9,2.55,2.55,0,0,1,2,.83,4.57,4.57,0,0,1,.79,3.07V36.63A4.54,4.54,0,0,1,79.61,39.31ZM77.09,12.54V11c0-.67-.27-1-.8-1a37.56,37.56,0,0,0-5,.44,23.15,23.15,0,0,0-2.49.36v1.77ZM68.77,15.4v2.35h8.32V15.4Z"/><rect class="a69355b3-4e31-4c73-9754-5d7a48acc2ea" x="102.44" y="2.06" width="326.08" height="42.89" rx="21.44"/><path class="ba47d263-3013-43b3-8fed-6d405de36b76" d="M407.07,47H123.89a23.51,23.51,0,0,1-23.51-23.5h0A23.51,23.51,0,0,1,123.89,0H407.07a23.51,23.51,0,0,1,23.51,23.5h0A23.51,23.51,0,0,1,407.07,47ZM123.89,4.12A19.38,19.38,0,0,0,104.5,23.5h0a19.39,19.39,0,0,0,19.39,19.39H407.07A19.39,19.39,0,0,0,426.46,23.5h0A19.38,19.38,0,0,0,407.07,4.12Z"/><path class="b3d549ae-8032-4f77-a91a-76b4d53e405a" d="M123.22,7.89c-7.58,0-13.74,7-13.74,15.71,0,8.55,6.16,15.51,13.74,15.51h16.34V7.89Z"/><rect class="b3d549ae-8032-4f77-a91a-76b4d53e405a" x="298.82" y="7.89" width="27.48" height="31.22"/><rect class="b3d549ae-8032-4f77-a91a-76b4d53e405a" x="267.69" y="7.89" width="27.48" height="31.22"/><rect class="b3d549ae-8032-4f77-a91a-76b4d53e405a" x="236.57" y="7.89" width="27.48" height="31.22"/><rect class="b3d549ae-8032-4f77-a91a-76b4d53e405a" x="329.94" y="7.89" width="27.48" height="31.22"/><rect class="b3d549ae-8032-4f77-a91a-76b4d53e405a" x="143.21" y="7.89" width="27.48" height="31.22"/><rect class="b3d549ae-8032-4f77-a91a-76b4d53e405a" x="174.33" y="7.89" width="27.48" height="31.22"/><rect class="b3d549ae-8032-4f77-a91a-76b4d53e405a" x="361.06" y="7.89" width="27.48" height="31.22"/><rect class="b3d549ae-8032-4f77-a91a-76b4d53e405a" x="205.45" y="7.89" width="27.48" height="31.22"/><path class="b3d549ae-8032-4f77-a91a-76b4d53e405a" d="M407.74,7.89H392.18V39.11h15.56c7.58,0,13.74-7,13.74-15.7C421.48,14.85,415.32,7.89,407.74,7.89Z"/></g></g></svg>