<svg xmlns="http://www.w3.org/2000/svg" viewBox="0 0 98.87 79.3"><defs><style>.f2742b59-7f56-4675-82ca-6ed21bc37554{fill:#ee7b45;}.a332f8f6-f018-46a9-ba41-addf496a3787,.a5f785b9-5f87-40c7-bedd-1593889997d6{fill:none;}.a5f785b9-5f87-40c7-bedd-1593889997d6{stroke:#f5e549;stroke-linecap:round;stroke-linejoin:round;stroke-width:0.88px;}.f7844860-7c98-4040-b3ba-d95340a9cd4b{fill:#f5e549;}.a5174412-7a7a-4205-9bc4-d3f1eb2500d2{fill:#eeb945;}.a6ad03e7-0c76-4446-856b-03e1b442ed38{fill:#231815;stroke:#40220f;}.a332f8f6-f018-46a9-ba41-addf496a3787,.a6ad03e7-0c76-4446-856b-03e1b442ed38{stroke-miterlimit:10;stroke-width:1.66px;}.b4886448-ed22-43f8-9e78-710f75b107fd{fill:#fff;}.b06a4eff-d744-4ade-8321-cd431565c884{fill:#f29554;}.a332f8f6-f018-46a9-ba41-addf496a3787{stroke:#fffac0;}.e05db750-629f-4746-a815-4be7bc3cdbac{fill:#b8e2f9;}.be846db8-c17d-4b85-baf0-81c5916e3280{fill:#9cd0eb;}.b57bca14-6deb-49a0-8142-984299c285a8{fill:#ffd900;}</style></defs><title>三3</title><g id="b538055b-fa10-4ee7-b36d-2ebe20df7760" data-name="圖層 2"><g id="b1017922-a1af-497d-bc12-ea8866277567" data-name="圖層 1"><path class="f2742b59-7f56-4675-82ca-6ed21bc37554" d="M83.76,40.32v5.32l11.45,6.61A1.88,1.88,0,0,0,98,50.62V35.34a1.89,1.89,0,0,0-2.83-1.63Z"/><line class="a5f785b9-5f87-40c7-bedd-1593889997d6" x1="88.71" y1="42.98" x2="96.12" y2="42.98"/><line class="a5f785b9-5f87-40c7-bedd-1593889997d6" x1="88.53" y1="39.84" x2="95.36" y2="36.64"/><line class="a5f785b9-5f87-40c7-bedd-1593889997d6" x1="88.53" y1="46.12" x2="95.36" y2="49.33"/><path class="f7844860-7c98-4040-b3ba-d95340a9cd4b" d="M28.21,43,60.27,64.21V15.09L28.21,36.27A4,4,0,0,0,28.21,43Z"/><path class="a5174412-7a7a-4205-9bc4-d3f1eb2500d2" d="M80.81,1.51,60.27,15.09V64.21L80.81,77.79a4.05,4.05,0,0,0,6.28-3.38V4.88A4,4,0,0,0,80.81,1.51Z"/><circle class="a6ad03e7-0c76-4446-856b-03e1b442ed38" cx="45.27" cy="39.65" r="3.33"/><circle class="b4886448-ed22-43f8-9e78-710f75b107fd" cx="44.42" cy="38.72" r="0.73"/><path class="b06a4eff-d744-4ade-8321-cd431565c884" d="M60.27,38v3l6.43,3.72a1,1,0,0,0,1.5-.86V35.11a1,1,0,0,0-1.5-.86Z"/><path class="a332f8f6-f018-46a9-ba41-addf496a3787" d="M95.21,33.71,87.09,38.4V4.88a4,4,0,0,0-6.28-3.37L60.27,15.09,28.21,36.27a4,4,0,0,0,0,6.75L60.27,64.21,80.81,77.79a4.05,4.05,0,0,0,6.28-3.38V47.56l8.12,4.69A1.88,1.88,0,0,0,98,50.62V35.34A1.89,1.89,0,0,0,95.21,33.71Z"/><circle class="e05db750-629f-4746-a815-4be7bc3cdbac" cx="6.66" cy="27.93" r="6.66"/><path class="be846db8-c17d-4b85-baf0-81c5916e3280" d="M3.63,24.74a5.76,5.76,0,0,0,.69,6.83c.63.71,1.67-.33,1-1a4.26,4.26,0,0,1-.46-5.05.74.74,0,0,0-1.27-.74Z"/><path class="be846db8-c17d-4b85-baf0-81c5916e3280" d="M6.66,33.41a.74.74,0,0,0,0-1.47.74.74,0,0,0,0,1.47Z"/><path class="b4886448-ed22-43f8-9e78-710f75b107fd" d="M10.63,25.27A4.12,4.12,0,0,0,8.2,23.88c-.93-.16-1.32,1.26-.39,1.42a2.85,2.85,0,0,1,1.77,1c.62.73,1.65-.32,1.05-1Z"/><circle class="e05db750-629f-4746-a815-4be7bc3cdbac" cx="13.68" cy="41.84" r="5.13"/><path class="be846db8-c17d-4b85-baf0-81c5916e3280" d="M11.43,39.31a3.52,3.52,0,0,0,0,4.87c.66.69,1.7-.35,1-1a2,2,0,0,1,0-2.79c.65-.69-.39-1.73-1-1Z"/><path class="be846db8-c17d-4b85-baf0-81c5916e3280" d="M13.68,45.73a.74.74,0,0,0,0-1.47.74.74,0,0,0,0,1.47Z"/><path class="b4886448-ed22-43f8-9e78-710f75b107fd" d="M16.55,39.82a2.79,2.79,0,0,0-1.82-1.53.73.73,0,0,0-.39,1.41,1.43,1.43,0,0,1,.94.87.75.75,0,0,0,1,.26.74.74,0,0,0,.26-1Z"/><path class="b57bca14-6deb-49a0-8142-984299c285a8" d="M72.7,15.28c3.7-1.9,7.07-4.74,10.47-7.12,1.31-.92.06-3.08-1.26-2.16-3.4,2.39-6.76,5.22-10.47,7.12-1.42.74-.16,2.89,1.26,2.16Z"/><path class="b57bca14-6deb-49a0-8142-984299c285a8" d="M79.57,72.53a32.34,32.34,0,0,1,2.19,2.76,1.29,1.29,0,0,0,1.71.45A1.26,1.26,0,0,0,83.91,74a38.45,38.45,0,0,0-2.58-3.26,1.25,1.25,0,0,0-1.76,0,1.26,1.26,0,0,0,0,1.76Z"/></g></g></svg>