<svg xmlns="http://www.w3.org/2000/svg" viewBox="0 0 69.64 56.46"><defs><style>.b0b96e8b-5553-4c31-85ab-a80a30d620d3{fill:#ee7b45;}.f5eb5ae7-4414-424b-9dcc-0a23445b5b67,.fba24d6e-3dcd-4314-960a-597389fd771c{fill:none;}.f5eb5ae7-4414-424b-9dcc-0a23445b5b67{stroke:#f5e549;stroke-linecap:round;stroke-linejoin:round;stroke-width:0.63px;}.efe23da6-3813-41b1-a389-759b3a41d10c{fill:#f5e549;}.bccfccd1-2f01-49c8-b653-1219ff101e0b{fill:#eeb945;}.eeab2ec1-a946-409b-b9ce-17972a093c01{fill:#231815;stroke:#40220f;}.eeab2ec1-a946-409b-b9ce-17972a093c01,.fba24d6e-3dcd-4314-960a-597389fd771c{stroke-miterlimit:10;stroke-width:1.18px;}.e222fa38-8c83-435e-bdb1-170c1675feea{fill:#fff;}.b118a48b-f9dd-4732-96e5-8093cbced5e8{fill:#f29554;}.fba24d6e-3dcd-4314-960a-597389fd771c{stroke:#fffac0;}.b75fe960-9243-49b5-a3d6-06689f44b73a{fill:#b8e2f9;}.e976efef-16ed-4a99-b50c-c727860b14f9{fill:#9cd0eb;}.b64d4ff0-ea14-4ff2-8a80-a5ea932a05d6{fill:#ffd900;}</style></defs><title>三1</title><g id="bba0a8c9-9f2a-4433-9a79-94df0d39d1ef" data-name="圖層 2"><g id="b63ff82b-d348-4f0e-b35c-ecde100c0116" data-name="圖層 1"><path class="b0b96e8b-5553-4c31-85ab-a80a30d620d3" d="M58.88,28.71V32.5L67,37.2A1.34,1.34,0,0,0,69,36V25.16A1.34,1.34,0,0,0,67,24Z"/><line class="f5eb5ae7-4414-424b-9dcc-0a23445b5b67" x1="62.4" y1="30.6" x2="67.68" y2="30.6"/><line class="f5eb5ae7-4414-424b-9dcc-0a23445b5b67" x1="62.27" y1="28.37" x2="67.13" y2="26.09"/><line class="f5eb5ae7-4414-424b-9dcc-0a23445b5b67" x1="62.27" y1="32.84" x2="67.13" y2="35.12"/><path class="efe23da6-3813-41b1-a389-759b3a41d10c" d="M19.33,30.63,42.15,45.71v-35L19.33,25.83A2.88,2.88,0,0,0,19.33,30.63Z"/><path class="bccfccd1-2f01-49c8-b653-1219ff101e0b" d="M56.78,1.07,42.15,10.74v35l14.63,9.67A2.88,2.88,0,0,0,61.25,53V3.48A2.88,2.88,0,0,0,56.78,1.07Z"/><circle class="eeab2ec1-a946-409b-b9ce-17972a093c01" cx="31.48" cy="28.23" r="2.37"/><circle class="e222fa38-8c83-435e-bdb1-170c1675feea" cx="30.87" cy="27.57" r="0.52"/><path class="b118a48b-f9dd-4732-96e5-8093cbced5e8" d="M42.15,27v2.11l4.59,2.64a.71.71,0,0,0,1.06-.61V25a.7.7,0,0,0-1.06-.61Z"/><path class="fba24d6e-3dcd-4314-960a-597389fd771c" d="M67,24l-5.78,3.34V3.48a2.88,2.88,0,0,0-4.47-2.41L42.15,10.74,19.33,25.83a2.88,2.88,0,0,0,0,4.8L42.15,45.71l14.63,9.67A2.88,2.88,0,0,0,61.25,53V33.86L67,37.2A1.34,1.34,0,0,0,69,36V25.16A1.34,1.34,0,0,0,67,24Z"/><circle class="b75fe960-9243-49b5-a3d6-06689f44b73a" cx="4.61" cy="16.59" r="4.61"/><path class="e976efef-16ed-4a99-b50c-c727860b14f9" d="M2.51,14.38A4,4,0,0,0,3,19.12c.44.49,1.16-.23.72-.72a3,3,0,0,1-.32-3.5.51.51,0,0,0-.88-.52Z"/><path class="e976efef-16ed-4a99-b50c-c727860b14f9" d="M4.61,20.39a.51.51,0,0,0,0-1,.51.51,0,0,0,0,1Z"/><path class="e222fa38-8c83-435e-bdb1-170c1675feea" d="M7.36,14.76a2.89,2.89,0,0,0-1.68-1c-.64-.11-.92.87-.27,1a2,2,0,0,1,1.23.7c.43.49,1.15-.23.72-.72Z"/><circle class="b75fe960-9243-49b5-a3d6-06689f44b73a" cx="9.48" cy="26.24" r="3.55"/><path class="e976efef-16ed-4a99-b50c-c727860b14f9" d="M7.92,24.48a2.44,2.44,0,0,0,0,3.38c.46.47,1.18-.25.73-.72a1.4,1.4,0,0,1,0-1.94c.45-.47-.27-1.19-.72-.72Z"/><path class="e976efef-16ed-4a99-b50c-c727860b14f9" d="M9.48,28.93a.51.51,0,0,0,0-1,.51.51,0,0,0,0,1Z"/><path class="e222fa38-8c83-435e-bdb1-170c1675feea" d="M11.47,24.84a2,2,0,0,0-1.26-1.07c-.63-.19-.9.79-.28,1a1,1,0,0,1,.66.59c.28.6,1.16.08.88-.51Z"/><path class="b64d4ff0-ea14-4ff2-8a80-a5ea932a05d6" d="M49.88,12.61l8.28-5.25c1.35-.86.1-3-1.26-2.16l-8.28,5.26c-1.35.85-.1,3,1.26,2.15Z"/><path class="b64d4ff0-ea14-4ff2-8a80-a5ea932a05d6" d="M55,51l2.56,1.8a1.26,1.26,0,0,0,1.71-.45,1.27,1.27,0,0,0-.45-1.7l-2.56-1.81a1.26,1.26,0,0,0-1.71.45A1.29,1.29,0,0,0,55,51Z"/></g></g></svg>