<svg xmlns="http://www.w3.org/2000/svg" viewBox="0 0 113.31 95.11"><defs><style>.f5e6e66c-34fe-4d00-a202-ed511bf2aa99{fill:#ee7b45;}.ee10d1f7-0b3e-4aab-ab38-d1a471a76ff1,.f8f9f71e-ed36-41e1-9610-1da32514acb9{fill:none;}.ee10d1f7-0b3e-4aab-ab38-d1a471a76ff1{stroke:#f5e549;stroke-linecap:round;stroke-linejoin:round;stroke-width:1.06px;}.ef985df0-6f40-4f9c-8b3f-206f03f79280{fill:#f5e549;}.b6c5eb85-3cc8-421a-8cb9-04f470af67ab{fill:#eeb945;}.b985236d-d75e-4b12-b564-7cb8e9e66a8f{fill:#231815;stroke:#40220f;}.b985236d-d75e-4b12-b564-7cb8e9e66a8f,.f8f9f71e-ed36-41e1-9610-1da32514acb9{stroke-miterlimit:10;stroke-width:1.99px;}.ba77fec3-4aa3-4f21-91a3-4fee1645dee6{fill:#fff;}.a28892ac-d262-42b2-bc65-6c29687d4b07{fill:#f29554;}.f8f9f71e-ed36-41e1-9610-1da32514acb9{stroke:#fffac0;}.b7fdc2d9-ed1a-49db-a16f-cf191d1a26db{fill:#b8e2f9;}.adc2379a-5fdd-4279-9061-337c9bab0cd0{fill:#9cd0eb;}.b45f0780-b0ba-4e9c-b6ad-1012e31482f6{fill:#ffd900;}</style></defs><title>三2</title><g id="f6e8e5fc-04d1-432a-9754-05012338a792" data-name="圖層 2"><g id="bf2e2d54-2180-444d-b579-614794841f0d" data-name="圖層 1"><path class="f5e6e66c-34fe-4d00-a202-ed511bf2aa99" d="M18.13,48.37v6.38L4.39,62.68a2.26,2.26,0,0,1-3.39-2V42.4a2.26,2.26,0,0,1,3.39-2Z"/><line class="ee10d1f7-0b3e-4aab-ab38-d1a471a76ff1" x1="12.18" y1="51.56" x2="3.29" y2="51.56"/><line class="ee10d1f7-0b3e-4aab-ab38-d1a471a76ff1" x1="12.41" y1="47.79" x2="4.22" y2="43.95"/><line class="ee10d1f7-0b3e-4aab-ab38-d1a471a76ff1" x1="12.41" y1="55.32" x2="4.22" y2="59.17"/><path class="ef985df0-6f40-4f9c-8b3f-206f03f79280" d="M84.76,51.61,46.3,77V18.1L84.76,43.51A4.86,4.86,0,0,1,84.76,51.61Z"/><path class="b6c5eb85-3cc8-421a-8cb9-04f470af67ab" d="M21.66,1.81,46.3,18.1V77L21.66,93.31a4.86,4.86,0,0,1-7.53-4V5.86A4.85,4.85,0,0,1,21.66,1.81Z"/><circle class="b985236d-d75e-4b12-b564-7cb8e9e66a8f" cx="64.29" cy="47.56" r="4"/><circle class="ba77fec3-4aa3-4f21-91a3-4fee1645dee6" cx="65.31" cy="46.44" r="0.87"/><path class="a28892ac-d262-42b2-bc65-6c29687d4b07" d="M46.3,45.55v3.54l-7.72,4.45a1.19,1.19,0,0,1-1.79-1V42.12a1.19,1.19,0,0,1,1.79-1Z"/><path class="f8f9f71e-ed36-41e1-9610-1da32514acb9" d="M4.39,40.44l9.74,5.62V5.86a4.85,4.85,0,0,1,7.53-4.05L46.3,18.1,84.76,43.51a4.86,4.86,0,0,1,0,8.1L46.3,77,21.66,93.31a4.86,4.86,0,0,1-7.53-4V57.05L4.39,62.68a2.26,2.26,0,0,1-3.39-2V42.4A2.26,2.26,0,0,1,4.39,40.44Z"/><circle class="b7fdc2d9-ed1a-49db-a16f-cf191d1a26db" cx="106.43" cy="26.53" r="6.88"/><path class="adc2379a-5fdd-4279-9061-337c9bab0cd0" d="M108.25,24a4.41,4.41,0,0,1-.48,5.23c-.65.73.42,1.81,1.08,1.07a6,6,0,0,0,.71-7.06.76.76,0,0,0-1.31.76Z"/><path class="adc2379a-5fdd-4279-9061-337c9bab0cd0" d="M106.43,32.2a.76.76,0,0,0,0-1.52.76.76,0,0,0,0,1.52Z"/><path class="ba77fec3-4aa3-4f21-91a3-4fee1645dee6" d="M103.41,24.87a2.91,2.91,0,0,1,1.83-1.05c1-.16.56-1.63-.4-1.47a4.28,4.28,0,0,0-2.51,1.44c-.63.74.44,1.83,1.08,1.08Z"/><circle class="b7fdc2d9-ed1a-49db-a16f-cf191d1a26db" cx="98.07" cy="44.15" r="5.3"/><path class="adc2379a-5fdd-4279-9061-337c9bab0cd0" d="M99.32,42.6a2.1,2.1,0,0,1,0,2.89c-.67.71.4,1.79,1.08,1.08a3.66,3.66,0,0,0,0-5c-.68-.71-1.76.37-1.08,1.07Z"/><path class="adc2379a-5fdd-4279-9061-337c9bab0cd0" d="M98.07,48.17a.77.77,0,0,0,0-1.53.77.77,0,0,0,0,1.53Z"/><path class="ba77fec3-4aa3-4f21-91a3-4fee1645dee6" d="M96.41,42.83a1.48,1.48,0,0,1,1-.89A.76.76,0,0,0,97,40.47a2.91,2.91,0,0,0-1.88,1.59.78.78,0,0,0,.27,1,.75.75,0,0,0,1-.27Z"/><path class="b45f0780-b0ba-4e9c-b6ad-1012e31482f6" d="M21.34,10.46A154.49,154.49,0,0,1,33.93,20.84c1.18,1.08,3-.68,1.77-1.76A160.42,160.42,0,0,0,22.6,8.31c-1.29-1-2.54,1.21-1.26,2.15Z"/><path class="b45f0780-b0ba-4e9c-b6ad-1012e31482f6" d="M20.09,88l4.19-2.71c1.35-.87.1-3-1.26-2.15l-4.19,2.71c-1.35.87-.1,3,1.26,2.15Z"/></g></g></svg>