<svg xmlns="http://www.w3.org/2000/svg" viewBox="0 0 121.72 55.69"><defs><style>.a9edbd11-a6ba-4b19-bddd-f784af2907f4{fill:#7fae42;}.a0dc0b99-5a14-4318-ba75-264e14b11b02,.a9edbd11-a6ba-4b19-bddd-f784af2907f4,.ac931c5f-2b8a-42f5-aada-feb549486a7d,.b62e854f-c91b-4ba9-b441-0eaf05a78ac0,.b9c1f519-fdc6-4dca-8656-7a2ef28b10aa,.fe206ca6-ac94-4fa0-936b-29901e463c7c{stroke:#40220f;}.a0dc0b99-5a14-4318-ba75-264e14b11b02,.a6b88648-3518-492b-884e-679e7b94993b,.a9edbd11-a6ba-4b19-bddd-f784af2907f4,.abc9380e-a8ce-4f5c-8d4f-8ef45d74ddee,.ac931c5f-2b8a-42f5-aada-feb549486a7d,.b91c4880-3d10-4b8e-bb8b-4f13086f6281,.b9c1f519-fdc6-4dca-8656-7a2ef28b10aa,.ea9f3bd7-3853-4cc8-9406-246bdfbbf928,.fc359300-b94c-4e8e-96c0-3e0ddd7c422a,.fe206ca6-ac94-4fa0-936b-29901e463c7c{stroke-miterlimit:10;}.a9edbd11-a6ba-4b19-bddd-f784af2907f4,.ac931c5f-2b8a-42f5-aada-feb549486a7d,.fc359300-b94c-4e8e-96c0-3e0ddd7c422a,.fe206ca6-ac94-4fa0-936b-29901e463c7c{stroke-width:1.48px;}.ac931c5f-2b8a-42f5-aada-feb549486a7d{fill:#398a33;}.b62e854f-c91b-4ba9-b441-0eaf05a78ac0{fill:#a9c988;stroke-linejoin:round;}.a6b88648-3518-492b-884e-679e7b94993b,.abc9380e-a8ce-4f5c-8d4f-8ef45d74ddee,.b62e854f-c91b-4ba9-b441-0eaf05a78ac0,.ea9f3bd7-3853-4cc8-9406-246bdfbbf928{stroke-linecap:round;}.a6b88648-3518-492b-884e-679e7b94993b,.b62e854f-c91b-4ba9-b441-0eaf05a78ac0{stroke-width:0.99px;}.b6100c09-f742-4087-b379-be09d241da0d{fill:#84a559;}.e0caedee-28c7-4d26-b657-a397074402ed{fill:#fff;}.ac7c326b-81c2-4593-9132-d6e15e4b6818{fill:#40220f;}.a6b88648-3518-492b-884e-679e7b94993b,.abc9380e-a8ce-4f5c-8d4f-8ef45d74ddee,.b91c4880-3d10-4b8e-bb8b-4f13086f6281,.ea9f3bd7-3853-4cc8-9406-246bdfbbf928{fill:none;}.b91c4880-3d10-4b8e-bb8b-4f13086f6281{stroke:#006537;}.a0dc0b99-5a14-4318-ba75-264e14b11b02,.b91c4880-3d10-4b8e-bb8b-4f13086f6281,.ea9f3bd7-3853-4cc8-9406-246bdfbbf928{stroke-width:0.49px;}.aa753a1f-ce20-40c9-9d4a-c8e3dbf36a6a{fill:#f5bdd5;}.a0dc0b99-5a14-4318-ba75-264e14b11b02{fill:#c7281e;}.fc359300-b94c-4e8e-96c0-3e0ddd7c422a{fill:#006535;stroke:#231815;}.fe206ca6-ac94-4fa0-936b-29901e463c7c{fill:#699429;}.b9c1f519-fdc6-4dca-8656-7a2ef28b10aa{fill:#b6c584;}.abc9380e-a8ce-4f5c-8d4f-8ef45d74ddee,.b9c1f519-fdc6-4dca-8656-7a2ef28b10aa{stroke-width:1.98px;}.abc9380e-a8ce-4f5c-8d4f-8ef45d74ddee{stroke:#fff;}.a6b88648-3518-492b-884e-679e7b94993b,.ea9f3bd7-3853-4cc8-9406-246bdfbbf928{stroke:#d8eac8;}.a4bd2d81-3c8b-4afa-9811-8388c2b3c53e{fill:#b8e2f9;}.a2ebf4d2-2e77-455e-b9ae-b6f30d0a0f2c{fill:#9cd0eb;}</style></defs><title>烏龜右</title><g id="bd35b486-8343-43c9-956f-681f257664cf" data-name="圖層 2"><g id="a0cb0a11-4e5b-4676-91b4-e293c7493f3e" data-name="圖層 1"><path class="a9edbd11-a6ba-4b19-bddd-f784af2907f4" d="M16.55,55c-2.63,0-4.8-2.23-5.21-5.15H21.76C21.35,52.72,19.18,55,16.55,55Z"/><path class="a9edbd11-a6ba-4b19-bddd-f784af2907f4" d="M57.72,55c-2.63,0-4.8-2.23-5.21-5.15H62.92C62.51,52.72,60.35,55,57.72,55Z"/><polygon class="ac931c5f-2b8a-42f5-aada-feb549486a7d" points="50.98 33.62 57.68 45.24 17.6 45.24 24.3 33.62 50.98 33.62"/><path class="b62e854f-c91b-4ba9-b441-0eaf05a78ac0" d="M70.57,33.79s4.16-2.15,5.8-4.8,5.16-4.17,7.3-3.28A7.67,7.67,0,0,1,88,31.84c-.83,0-1.5.46-1.5,1s.61.95,1.37,1a10.15,10.15,0,0,1-1.51,3.6C82.16,43.88,73,47,70.57,46.91S70.57,33.79,70.57,33.79Z"/><ellipse class="b6100c09-f742-4087-b379-be09d241da0d" cx="82.63" cy="26.23" rx="3.01" ry="3.01"/><ellipse class="e0caedee-28c7-4d26-b657-a397074402ed" cx="83.07" cy="26.05" rx="2.24" ry="2.24"/><circle class="ac7c326b-81c2-4593-9132-d6e15e4b6818" cx="83.22" cy="26.05" r="1.31"/><circle class="e0caedee-28c7-4d26-b657-a397074402ed" cx="83.56" cy="26.32" r="0.27"/><line class="b91c4880-3d10-4b8e-bb8b-4f13086f6281" x1="86.15" y1="29.67" x2="86.36" y2="30.26"/><ellipse class="aa753a1f-ce20-40c9-9d4a-c8e3dbf36a6a" cx="81.91" cy="31.27" rx="1.65" ry="0.66"/><path class="a0dc0b99-5a14-4318-ba75-264e14b11b02" d="M86.46,32.85c0-.55.67-1,1.5-1a7.36,7.36,0,0,1-.13,2C87.07,33.8,86.46,33.38,86.46,32.85Z"/><path class="fc359300-b94c-4e8e-96c0-3e0ddd7c422a" d="M51,33.62l8.76-15.19a2.18,2.18,0,0,1,.22.21l-8.63,15L58,45.24h-.35"/><path class="fe206ca6-ac94-4fa0-936b-29901e463c7c" d="M24.3,33.62,15.55,18.43a34.65,34.65,0,0,1,44.19,0L51,33.62Z"/><path class="ac931c5f-2b8a-42f5-aada-feb549486a7d" d="M60,18.64a34.68,34.68,0,0,1,12.39,26.6H58l-6.7-11.62Z"/><path class="ac931c5f-2b8a-42f5-aada-feb549486a7d" d="M15.38,18.58l8.67,15-6.7,11.62H2.94A34.72,34.72,0,0,1,15.38,18.58Z"/><rect class="b9c1f519-fdc6-4dca-8656-7a2ef28b10aa" x="0.99" y="45.65" width="73.92" height="3.74" rx="0.95" transform="translate(75.9 95.05) rotate(180)"/><path class="abc9380e-a8ce-4f5c-8d4f-8ef45d74ddee" d="M48.21,16.68S35.14,10.75,22.92,19"/><path class="abc9380e-a8ce-4f5c-8d4f-8ef45d74ddee" d="M14.72,25.83S8.84,33.66,8.14,42.19"/><path class="a6b88648-3518-492b-884e-679e7b94993b" d="M83.83,36.19s-4.33,5.26-8.92,6.56"/><path class="ea9f3bd7-3853-4cc8-9406-246bdfbbf928" d="M57.92,53s-2.64.21-2.76-1.81"/><path class="ea9f3bd7-3853-4cc8-9406-246bdfbbf928" d="M16.92,53s-2.63.21-2.75-1.81"/><ellipse class="a4bd2d81-3c8b-4afa-9811-8388c2b3c53e" cx="113.91" cy="7.83" rx="7.82" ry="7.83"/><path class="a2ebf4d2-2e77-455e-b9ae-b6f30d0a0f2c" d="M116,5a5,5,0,0,1-.54,6c-.74.83.48,2.06,1.22,1.22a6.8,6.8,0,0,0,.82-8A.87.87,0,0,0,116,5Z"/><path class="a2ebf4d2-2e77-455e-b9ae-b6f30d0a0f2c" d="M113.91,14.28a.87.87,0,0,0,0-1.73.87.87,0,0,0,0,1.73Z"/><path class="e0caedee-28c7-4d26-b657-a397074402ed" d="M110.47,5.93a3.37,3.37,0,0,1,2.09-1.19.86.86,0,0,0,.6-1.06.89.89,0,0,0-1.06-.61,4.79,4.79,0,0,0-2.85,1.64.89.89,0,0,0,0,1.22.87.87,0,0,0,1.22,0Z"/><ellipse class="a4bd2d81-3c8b-4afa-9811-8388c2b3c53e" cx="104.41" cy="27.88" rx="6.02" ry="6.03"/><path class="a2ebf4d2-2e77-455e-b9ae-b6f30d0a0f2c" d="M105.83,26.12a2.4,2.4,0,0,1,0,3.29c-.77.8.45,2,1.22,1.22a4.15,4.15,0,0,0,0-5.73c-.77-.81-2,.42-1.22,1.22Z"/><path class="a2ebf4d2-2e77-455e-b9ae-b6f30d0a0f2c" d="M104.41,32.45a.87.87,0,0,0,0-1.73.87.87,0,0,0,0,1.73Z"/><path class="e0caedee-28c7-4d26-b657-a397074402ed" d="M102.52,26.38a1.65,1.65,0,0,1,1.11-1,.87.87,0,0,0-.46-1.67A3.26,3.26,0,0,0,101,25.51a.88.88,0,0,0,.31,1.18.86.86,0,0,0,1.18-.31Z"/></g></g></svg>