<svg xmlns="http://www.w3.org/2000/svg" viewBox="0 0 143.62 59.79"><defs><style>.b732eb57-987f-425d-b496-29cdfa16d3a1{fill:#7fae42;}.a45c6b4c-7041-4d10-833c-c86823f64800,.ad519b43-7475-4fcf-bcd0-e999ea876aab,.b45e0adc-2a36-43c5-a4e4-73ffa55da8ef,.b732eb57-987f-425d-b496-29cdfa16d3a1,.b92dc0fd-1bf0-4548-b417-8041fc7d1afe,.f7110cb5-6a59-42cf-8aa0-9e7a584c51c4{stroke:#40220f;}.a45c6b4c-7041-4d10-833c-c86823f64800,.a5c174c6-afc4-49c0-9d76-50d1007a5f82,.ad519b43-7475-4fcf-bcd0-e999ea876aab,.b45e0adc-2a36-43c5-a4e4-73ffa55da8ef,.b605cd64-88c5-43f9-9246-a7e445de1c39,.b732eb57-987f-425d-b496-29cdfa16d3a1,.b92dc0fd-1bf0-4548-b417-8041fc7d1afe,.e65e39c2-4a1f-4a4a-a595-4ec25024420f,.ecb02803-ce6d-48f5-b067-c9b3638e702a,.f587e5f1-e1a5-4b22-a108-e912d44bba70{stroke-miterlimit:10;}.ad519b43-7475-4fcf-bcd0-e999ea876aab,.b45e0adc-2a36-43c5-a4e4-73ffa55da8ef,.b605cd64-88c5-43f9-9246-a7e445de1c39,.b732eb57-987f-425d-b496-29cdfa16d3a1{stroke-width:1.93px;}.ad519b43-7475-4fcf-bcd0-e999ea876aab{fill:#398a33;}.f7110cb5-6a59-42cf-8aa0-9e7a584c51c4{fill:#a9c988;stroke-linejoin:round;}.a5c174c6-afc4-49c0-9d76-50d1007a5f82,.e65e39c2-4a1f-4a4a-a595-4ec25024420f,.ecb02803-ce6d-48f5-b067-c9b3638e702a,.f7110cb5-6a59-42cf-8aa0-9e7a584c51c4{stroke-linecap:round;}.ecb02803-ce6d-48f5-b067-c9b3638e702a,.f7110cb5-6a59-42cf-8aa0-9e7a584c51c4{stroke-width:1.29px;}.fb345743-ce62-4947-9765-7054242de4e8{fill:#84a559;}.b5e7dca2-ee96-40f5-b84c-e287f0161662{fill:#fff;}.a6e800e6-b026-4a68-9b36-73b3aa71f668{fill:#40220f;}.a5c174c6-afc4-49c0-9d76-50d1007a5f82,.e65e39c2-4a1f-4a4a-a595-4ec25024420f,.ecb02803-ce6d-48f5-b067-c9b3638e702a,.f587e5f1-e1a5-4b22-a108-e912d44bba70{fill:none;}.f587e5f1-e1a5-4b22-a108-e912d44bba70{stroke:#006537;}.a45c6b4c-7041-4d10-833c-c86823f64800,.a5c174c6-afc4-49c0-9d76-50d1007a5f82,.f587e5f1-e1a5-4b22-a108-e912d44bba70{stroke-width:0.64px;}.f057569b-6d3f-434b-bd1a-2d7452083f37{fill:#f5bdd5;}.a45c6b4c-7041-4d10-833c-c86823f64800{fill:#c7281e;}.b605cd64-88c5-43f9-9246-a7e445de1c39{fill:#006535;stroke:#231815;}.b45e0adc-2a36-43c5-a4e4-73ffa55da8ef{fill:#699429;}.b92dc0fd-1bf0-4548-b417-8041fc7d1afe{fill:#b6c584;}.b92dc0fd-1bf0-4548-b417-8041fc7d1afe,.e65e39c2-4a1f-4a4a-a595-4ec25024420f{stroke-width:2.57px;}.e65e39c2-4a1f-4a4a-a595-4ec25024420f{stroke:#fff;}.a5c174c6-afc4-49c0-9d76-50d1007a5f82,.ecb02803-ce6d-48f5-b067-c9b3638e702a{stroke:#d8eac8;}.a61b4e0d-dc98-4ac9-8b3e-1d1513fa70e1{fill:#b8e2f9;}.abde481e-096e-43b8-8144-83210f692d11{fill:#9cd0eb;}</style></defs><title>烏龜左</title><g id="ac0d4a5d-96ba-4923-afd8-f9414078fa55" data-name="圖層 2"><g id="fe4decb4-9d04-455d-a15f-368223c3bd00" data-name="圖層 1"><path class="b732eb57-987f-425d-b496-29cdfa16d3a1" d="M122.09,58.83c3.43,0,6.24-2.91,6.78-6.71H115.32C115.85,55.92,118.67,58.83,122.09,58.83Z"/><path class="b732eb57-987f-425d-b496-29cdfa16d3a1" d="M68.54,58.83c3.42,0,6.24-2.91,6.77-6.71H61.77C62.3,55.92,65.12,58.83,68.54,58.83Z"/><polygon class="ad519b43-7475-4fcf-bcd0-e999ea876aab" points="77.3 31.07 68.59 46.19 120.72 46.19 112.01 31.07 77.3 31.07"/><path class="f7110cb5-6a59-42cf-8aa0-9e7a584c51c4" d="M51.82,31.29s-5.41-2.79-7.54-6.24-6.72-5.41-9.5-4.27a10,10,0,0,0-5.57,8c1.07,0,1.94.6,1.94,1.32s-.79,1.23-1.79,1.3a13.49,13.49,0,0,0,2,4.67c5.41,8.38,17.38,12.48,20.49,12.32S51.82,31.29,51.82,31.29Z"/><ellipse class="fb345743-ce62-4947-9765-7054242de4e8" cx="36.13" cy="21.46" rx="3.92" ry="3.92"/><ellipse class="b5e7dca2-ee96-40f5-b84c-e287f0161662" cx="35.56" cy="21.22" rx="2.92" ry="2.92"/><circle class="a6e800e6-b026-4a68-9b36-73b3aa71f668" cx="35.37" cy="21.22" r="1.7"/><circle class="b5e7dca2-ee96-40f5-b84c-e287f0161662" cx="34.93" cy="21.58" r="0.35"/><line class="f587e5f1-e1a5-4b22-a108-e912d44bba70" x1="31.55" y1="25.94" x2="31.28" y2="26.71"/><ellipse class="f057569b-6d3f-434b-bd1a-2d7452083f37" cx="37.08" cy="28.03" rx="2.15" ry="0.86"/><path class="a45c6b4c-7041-4d10-833c-c86823f64800" d="M31.15,30.08c0-.72-.87-1.31-1.94-1.32a9.45,9.45,0,0,0,.15,2.62C30.36,31.31,31.15,30.77,31.15,30.08Z"/><path class="b605cd64-88c5-43f9-9246-a7e445de1c39" d="M77.3,31.07,65.91,11.31c-.1.09-.19.19-.29.27L76.85,31.07,68.14,46.19h.45"/><path class="b45e0adc-2a36-43c5-a4e4-73ffa55da8ef" d="M112,31.07,123.4,11.31a45.09,45.09,0,0,0-57.49,0L77.3,31.07Z"/><path class="ad519b43-7475-4fcf-bcd0-e999ea876aab" d="M65.62,11.58A45.17,45.17,0,0,0,49.51,46.19H68.14l8.71-15.12Z"/><path class="ad519b43-7475-4fcf-bcd0-e999ea876aab" d="M123.62,11.51,112.34,31.07l8.71,15.12H139.8A45.15,45.15,0,0,0,123.62,11.51Z"/><rect class="b92dc0fd-1bf0-4548-b417-8041fc7d1afe" x="46.17" y="46.73" width="96.16" height="4.87" rx="0.95"/><path class="e65e39c2-4a1f-4a4a-a595-4ec25024420f" d="M80.9,9s17-7.72,32.9,3"/><path class="e65e39c2-4a1f-4a4a-a595-4ec25024420f" d="M124.48,21s7.65,10.18,8.56,21.27"/><path class="ecb02803-ce6d-48f5-b067-c9b3638e702a" d="M34.57,34.42S40.2,41.26,46.17,43"/><path class="a5c174c6-afc4-49c0-9d76-50d1007a5f82" d="M68.28,56.32s3.43.27,3.59-2.36"/><path class="a5c174c6-afc4-49c0-9d76-50d1007a5f82" d="M121.61,56.32s3.42.27,3.58-2.36"/><ellipse class="a61b4e0d-dc98-4ac9-8b3e-1d1513fa70e1" cx="7.82" cy="10.13" rx="7.82" ry="7.83"/><path class="abde481e-096e-43b8-8144-83210f692d11" d="M4.26,6.38a6.78,6.78,0,0,0,.81,8c.75.84,2-.39,1.23-1.22a5,5,0,0,1-.55-5.95.86.86,0,0,0-1.49-.87Z"/><path class="abde481e-096e-43b8-8144-83210f692d11" d="M7.82,16.58a.87.87,0,0,0,0-1.73.87.87,0,0,0,0,1.73Z"/><path class="b5e7dca2-ee96-40f5-b84c-e287f0161662" d="M12.48,7A4.76,4.76,0,0,0,9.63,5.38.9.9,0,0,0,8.56,6,.86.86,0,0,0,9.17,7a3.36,3.36,0,0,1,2.08,1.2.89.89,0,0,0,1.23,0,.9.9,0,0,0,0-1.23Z"/><ellipse class="a61b4e0d-dc98-4ac9-8b3e-1d1513fa70e1" cx="16.53" cy="24.06" rx="4.05" ry="4.06"/><path class="abde481e-096e-43b8-8144-83210f692d11" d="M14.69,22.11a3.51,3.51,0,0,0,.42,4.17c.38.43,1-.2.63-.63a2.61,2.61,0,0,1-.28-3.08.45.45,0,0,0-.77-.46Z"/><path class="abde481e-096e-43b8-8144-83210f692d11" d="M16.53,27.4a.45.45,0,0,0,0-.9.45.45,0,0,0,0,.9Z"/><path class="b5e7dca2-ee96-40f5-b84c-e287f0161662" d="M19,22.44a2.57,2.57,0,0,0-1.48-.85c-.56-.1-.81.76-.24.87a1.76,1.76,0,0,1,1.08.61c.38.44,1-.2.64-.63Z"/></g></g></svg>