<svg xmlns="http://www.w3.org/2000/svg" viewBox="0 0 138.35 57.41"><defs><style>.f5fdfef1-e5a2-408a-a1d3-2e10dd303cde{fill:#7fae42;}.b1e2b4db-7276-4399-b3b1-2d2aa65f91f2,.b6dba7ea-e5ea-4df0-ad46-4fd832032836,.b7c8d83c-59b5-4321-8b79-202d13bc6462,.f505491f-1bcc-4461-9fee-d9283ec90017,.f5fdfef1-e5a2-408a-a1d3-2e10dd303cde,.fc2b206f-769a-4a3c-99ca-42b9aad52ff4{stroke:#40220f;}.a002402b-66d3-418f-bd52-ae65208f9b9c,.a99f9ded-fa33-46ab-8fa1-a46d77ed8c0e,.a9b414b9-2d05-4ea3-b0e6-e85b4fd041ff,.b1e2b4db-7276-4399-b3b1-2d2aa65f91f2,.b6dba7ea-e5ea-4df0-ad46-4fd832032836,.b7c8d83c-59b5-4321-8b79-202d13bc6462,.f505491f-1bcc-4461-9fee-d9283ec90017,.f5fdfef1-e5a2-408a-a1d3-2e10dd303cde,.fad67c01-a2cd-42fe-9406-bd32be61dcb5,.fe6b4ced-aa23-4e8e-9ff0-7826bb86a0bb{stroke-miterlimit:10;}.b7c8d83c-59b5-4321-8b79-202d13bc6462,.f505491f-1bcc-4461-9fee-d9283ec90017,.f5fdfef1-e5a2-408a-a1d3-2e10dd303cde,.fe6b4ced-aa23-4e8e-9ff0-7826bb86a0bb{stroke-width:1.79px;}.b7c8d83c-59b5-4321-8b79-202d13bc6462{fill:#398a33;}.fc2b206f-769a-4a3c-99ca-42b9aad52ff4{fill:#a9c988;stroke-linejoin:round;}.a002402b-66d3-418f-bd52-ae65208f9b9c,.a99f9ded-fa33-46ab-8fa1-a46d77ed8c0e,.fad67c01-a2cd-42fe-9406-bd32be61dcb5,.fc2b206f-769a-4a3c-99ca-42b9aad52ff4{stroke-linecap:round;}.a002402b-66d3-418f-bd52-ae65208f9b9c,.fc2b206f-769a-4a3c-99ca-42b9aad52ff4{stroke-width:1.19px;}.f0a3a6d3-cc1d-4fcf-b5a0-90c5f398cb91{fill:#84a559;}.a479e8cc-58fc-40ba-8337-471bfa22afa2{fill:#fff;}.bd7072e2-31ab-4645-aa28-ab425800cd54{fill:#40220f;}.a002402b-66d3-418f-bd52-ae65208f9b9c,.a99f9ded-fa33-46ab-8fa1-a46d77ed8c0e,.a9b414b9-2d05-4ea3-b0e6-e85b4fd041ff,.fad67c01-a2cd-42fe-9406-bd32be61dcb5{fill:none;}.a9b414b9-2d05-4ea3-b0e6-e85b4fd041ff{stroke:#006537;}.a99f9ded-fa33-46ab-8fa1-a46d77ed8c0e,.a9b414b9-2d05-4ea3-b0e6-e85b4fd041ff,.b6dba7ea-e5ea-4df0-ad46-4fd832032836{stroke-width:0.6px;}.b39f0e2d-ab16-4e39-aee7-db3c8a1cc9be{fill:#f5bdd5;}.b6dba7ea-e5ea-4df0-ad46-4fd832032836{fill:#c7281e;}.fe6b4ced-aa23-4e8e-9ff0-7826bb86a0bb{fill:#006535;stroke:#231815;}.f505491f-1bcc-4461-9fee-d9283ec90017{fill:#699429;}.b1e2b4db-7276-4399-b3b1-2d2aa65f91f2{fill:#b6c584;}.b1e2b4db-7276-4399-b3b1-2d2aa65f91f2,.fad67c01-a2cd-42fe-9406-bd32be61dcb5{stroke-width:2.39px;}.fad67c01-a2cd-42fe-9406-bd32be61dcb5{stroke:#fff;}.a002402b-66d3-418f-bd52-ae65208f9b9c,.a99f9ded-fa33-46ab-8fa1-a46d77ed8c0e{stroke:#d8eac8;}.f35468ec-bc67-4aa5-aecb-f3b61e44ccf6{fill:#b8e2f9;}.ae23a81e-acc5-4938-9e14-b9c62a393ef6{fill:#9cd0eb;}</style></defs><title>烏龜左_1</title><g id="a8540ac6-d21a-4151-8808-22509d95c4bf" data-name="圖層 2"><g id="e35d6d90-646e-4453-8a7e-88671d178e68" data-name="圖層 1"><path class="f5fdfef1-e5a2-408a-a1d3-2e10dd303cde" d="M118.37,56.51c3.17,0,5.79-2.69,6.28-6.22H112.08C112.57,53.82,115.19,56.51,118.37,56.51Z"/><path class="f5fdfef1-e5a2-408a-a1d3-2e10dd303cde" d="M68.67,56.51c3.17,0,5.79-2.69,6.28-6.22H62.38C62.88,53.82,65.49,56.51,68.67,56.51Z"/><polygon class="b7c8d83c-59b5-4321-8b79-202d13bc6462" points="76.8 30.76 68.71 44.79 117.09 44.79 109.01 30.76 76.8 30.76"/><path class="fc2b206f-769a-4a3c-99ca-42b9aad52ff4" d="M53.15,31s-5-2.59-7-5.79-6.23-5-8.82-4a9.26,9.26,0,0,0-5.17,7.4c1,0,1.8.55,1.8,1.23S33.23,31,32.31,31a12.36,12.36,0,0,0,1.83,4.34c5,7.77,16.12,11.58,19,11.43S53.15,31,53.15,31Z"/><ellipse class="f0a3a6d3-cc1d-4fcf-b5a0-90c5f398cb91" cx="38.59" cy="21.83" rx="3.63" ry="3.64"/><ellipse class="a479e8cc-58fc-40ba-8337-471bfa22afa2" cx="38.05" cy="21.62" rx="2.71" ry="2.71"/><circle class="bd7072e2-31ab-4645-aa28-ab425800cd54" cx="37.88" cy="21.62" r="1.58"/><circle class="a479e8cc-58fc-40ba-8337-471bfa22afa2" cx="37.47" cy="21.95" r="0.33"/><line class="a9b414b9-2d05-4ea3-b0e6-e85b4fd041ff" x1="34.34" y1="25.99" x2="34.09" y2="26.7"/><ellipse class="b39f0e2d-ab16-4e39-aee7-db3c8a1cc9be" cx="39.46" cy="27.93" rx="2" ry="0.8"/><path class="b6dba7ea-e5ea-4df0-ad46-4fd832032836" d="M34,29.84c0-.68-.8-1.22-1.8-1.23A8.88,8.88,0,0,0,32.31,31C33.23,31,34,30.47,34,29.84Z"/><path class="fe6b4ced-aa23-4e8e-9ff0-7826bb86a0bb" d="M76.8,30.76,66.23,12.42l-.28.25L76.38,30.76l-8.09,14h.42"/><path class="f505491f-1bcc-4461-9fee-d9283ec90017" d="M109,30.76l10.57-18.34a41.83,41.83,0,0,0-53.35,0L76.8,30.76Z"/><path class="b7c8d83c-59b5-4321-8b79-202d13bc6462" d="M66,12.67A41.91,41.91,0,0,0,51,44.79H68.29l8.09-14Z"/><path class="b7c8d83c-59b5-4321-8b79-202d13bc6462" d="M119.78,12.6,109.32,30.76l8.08,14h17.4A41.9,41.9,0,0,0,119.78,12.6Z"/><rect class="b1e2b4db-7276-4399-b3b1-2d2aa65f91f2" x="47.91" y="45.29" width="89.24" height="4.52" rx="0.95"/><path class="fad67c01-a2cd-42fe-9406-bd32be61dcb5" d="M80.14,10.31s15.79-7.17,30.53,2.76"/><path class="fad67c01-a2cd-42fe-9406-bd32be61dcb5" d="M120.58,21.36s7.1,9.45,7.94,19.75"/><path class="a002402b-66d3-418f-bd52-ae65208f9b9c" d="M37.14,33.86s5.23,6.35,10.77,7.92"/><path class="a99f9ded-fa33-46ab-8fa1-a46d77ed8c0e" d="M68.43,54.19s3.17.24,3.32-2.19"/><path class="a99f9ded-fa33-46ab-8fa1-a46d77ed8c0e" d="M117.91,54.19s3.18.24,3.33-2.19"/><ellipse class="f35468ec-bc67-4aa5-aecb-f3b61e44ccf6" cx="7.82" cy="7.83" rx="7.82" ry="7.83"/><path class="ae23a81e-acc5-4938-9e14-b9c62a393ef6" d="M4.26,4.08a6.78,6.78,0,0,0,.81,8c.75.84,2-.39,1.23-1.22A5,5,0,0,1,5.75,5a.86.86,0,0,0-1.49-.87Z"/><path class="ae23a81e-acc5-4938-9e14-b9c62a393ef6" d="M7.82,14.28a.87.87,0,0,0,0-1.73.87.87,0,0,0,0,1.73Z"/><path class="a479e8cc-58fc-40ba-8337-471bfa22afa2" d="M12.48,4.71A4.82,4.82,0,0,0,9.63,3.07a.91.91,0,0,0-1.07.61.87.87,0,0,0,.61,1.06,3.35,3.35,0,0,1,2.08,1.19.87.87,0,1,0,1.23-1.22Z"/><ellipse class="f35468ec-bc67-4aa5-aecb-f3b61e44ccf6" cx="17.32" cy="27.88" rx="6.02" ry="6.03"/><path class="ae23a81e-acc5-4938-9e14-b9c62a393ef6" d="M14.67,24.9a4.15,4.15,0,0,0,0,5.73c.77.81,2-.42,1.22-1.22a2.39,2.39,0,0,1,0-3.29c.77-.8-.45-2-1.23-1.22Z"/><path class="ae23a81e-acc5-4938-9e14-b9c62a393ef6" d="M17.32,32.45a.87.87,0,0,0,0-1.73.87.87,0,0,0,0,1.73Z"/><path class="a479e8cc-58fc-40ba-8337-471bfa22afa2" d="M20.7,25.51a3.3,3.3,0,0,0-2.15-1.81.87.87,0,0,0-.46,1.67,1.63,1.63,0,0,1,1.11,1,.87.87,0,0,0,1.19.31.88.88,0,0,0,.31-1.18Z"/></g></g></svg>