<svg xmlns="http://www.w3.org/2000/svg" viewBox="0 0 1400 1050"><defs><style>.fdf2498a-b445-4ec7-b1a8-825d6b33b26e{fill:#8ebb64;}.b2277387-bad1-4289-abd8-744de45a7678{fill:#80b45e;}.af09857f-e3d7-41cd-9e44-9811784bd001{fill:#71a053;}.b6da5a1e-f64f-4623-b5c0-958768dbdbc0{fill:#79a45c;}.a27f1290-a4b9-43a4-aade-89f4fcd711fc{fill:none;}</style></defs><title>背景</title><g id="a6270b9f-43b4-4c39-a58c-40ef5beae653" data-name="圖層 2"><g id="b14dd48e-f127-4396-9505-84706a1cfb20" data-name="圖層 1"><rect class="fdf2498a-b445-4ec7-b1a8-825d6b33b26e" width="1400" height="1049.87"/><path class="b2277387-bad1-4289-abd8-744de45a7678" d="M2.29,589.56H500.54s27.24,0,27.24,16.21-26.49,13.51-26.49,13.51l-97.61.16s-30.26-2.87-30.26,17.4S412,652.6,412,652.6H699.54s18.16,1.8,18.16,15.76-18.91,11.26-18.91,11.26H490.7S465,678.27,465,690s9.08,12.61,25,12.61H645.06s19.68.9,19.68,10.36-6.81,12.61-16.65,12.61H353s-21.19,1.8-21.19,13.06,7.57,15.31,20.43,15.31H573.18s17.4.9,17.4,12.6-17,10.14-17,10.14h-322s-21-.23-21,10.13,18.42,11,18.42,11H499s16.65.64,16.65,11.1-16,9.51-16,9.51H2.29Z"/><path class="af09857f-e3d7-41cd-9e44-9811784bd001" d="M1400,583.55H825.14s-15.22,0-15.22-16.22,14.8-13.5,14.8-13.5l54.56-.17s16.92,2.87,16.92-17.4-21.57-15.76-21.57-15.76H713.91s-10.15-1.8-10.15-15.76,10.58-11.25,10.58-11.25h116.3S845,494.84,845,483.13s-5.07-12.61-14-12.61h-86.7s-11-.9-11-10.36,3.8-12.61,9.3-12.61H907.61s11.85-1.8,11.85-13.05-4.23-15.31-11.42-15.31H784.54s-9.73-.9-9.73-12.61,9.52-10.13,9.52-10.13h180s11.71.22,11.71-10.14-10.3-11-10.3-11H826s-9.31-.63-9.31-11.1,8.94-9.51,8.94-9.51H1400Z"/><path class="b2277387-bad1-4289-abd8-744de45a7678" d="M1400,887.28H982.43s-26.92,0-26.92-16.21,26.17-13.51,26.17-13.51l96.46-.17s29.91,2.87,29.91-17.39-38.13-15.76-38.13-15.76H785.76s-17.94-1.8-17.94-15.76,18.69-11.26,18.69-11.26H992.15s25.42,1.35,25.42-10.36-9-12.61-24.67-12.61H839.6s-19.44-.9-19.44-10.35,6.73-12.61,16.45-12.61h291.63s20.94-1.8,20.94-13.06-7.48-15.31-20.19-15.31H910.64s-17.2-.9-17.2-12.61,16.83-10.13,16.83-10.13h318.18s20.7.23,20.7-10.13-18.2-11-18.2-11h-247s-16.45-.64-16.45-11.11,15.8-9.51,15.8-9.51H1400Z"/><path class="b2277387-bad1-4289-abd8-744de45a7678" d="M1.75,298.45H328.48s25.16,0,25.16,21.95-24.46,18.3-24.46,18.3l-90.18.23s-28-3.89-28,23.55,35.65,21.34,35.65,21.34H512.32s16.78,2.44,16.78,21.35-17.48,15.24-17.48,15.24H319.39s-23.77-1.83-23.77,14,8.39,17.07,23.07,17.07H462s18.17,1.22,18.17,14-6.29,17.07-15.37,17.07H192.17s-19.58,2.44-19.58,17.68,7,20.74,18.88,20.74H395.58s16.08,1.22,16.08,17.07-15.73,13.72-15.73,13.72H98.5s-19.36-.3-19.36,13.72,17,14.85,17,14.85H327.08s15.38.86,15.38,15-14.77,12.88-14.77,12.88H1.75Z"/><path class="b2277387-bad1-4289-abd8-744de45a7678" d="M1084.65,267.52h185.67s13.32-2.51,13.32-18.16-4.76-21.29-12.85-21.29h-139s-11-1.25-11-17.53,10.71-14.09,10.71-14.09h202.57s13.18.31,13.18-14.09-11.59-15.24-11.59-15.24H1178.43s-10.47-.88-10.47-15.44S1178,138.46,1178,138.46h222V456.6H1177.48s-17.14,0-17.14-22.54S1177,415.28,1177,415.28l61.41-.23s19,4,19-24.19S1233.18,369,1233.18,369h-180.9s-11.43-2.51-11.43-21.92,11.9-15.65,11.9-15.65h130.92s16.19,1.88,16.19-14.4-5.72-17.53-15.71-17.53h-97.6s-12.38-1.25-12.38-14.4"/><path class="b6da5a1e-f64f-4623-b5c0-958768dbdbc0" d="M1400,181.21H695.22s-29.29,0-29.29-12.83,28.47-10.7,28.47-10.7l105-.14s32.55,2.28,32.55-13.77-41.5-12.48-41.5-12.48H481.25s-19.52-1.43-19.52-12.48,20.34-8.92,20.34-8.92H705.79s27.66,1.07,27.66-8.2-9.76-10-26.84-10H539.83s-21.15-.72-21.15-8.2,7.32-10,17.89-10H853.86s22.78-1.43,22.78-10.34-8.13-12.13-22-12.13H617.12s-18.72-.71-18.72-10,18.31-8,18.31-8H962.88s22.52.18,22.52-8-19.8-8.68-19.8-8.68H696.84S679,15.84,679,7.55,696.13,0,696.13,0H1400Z"/><path class="b6da5a1e-f64f-4623-b5c0-958768dbdbc0" d="M2.29,1.69H200.74S216,1.69,216,17.9s-14.86,13.51-14.86,13.51l-54.77.17s-17-2.87-17,17.39,21.66,15.76,21.66,15.76H312.41s10.19,1.81,10.19,15.76S312,91.75,312,91.75H195.22s-14.43-1.35-14.43,10.36,5.09,12.61,14,12.61h87s11,.9,11,10.35-3.83,12.61-9.34,12.61H118s-11.89,1.8-11.89,13.06,4.25,15.31,11.47,15.31h124s9.77.9,9.77,12.61-9.56,10.13-9.56,10.13H61.06s-11.76-.22-11.76,10.13,10.34,11,10.34,11H199.89s9.34.63,9.34,11.1-9,9.51-9,9.51H2.29Z"/><path class="b6da5a1e-f64f-4623-b5c0-958768dbdbc0" d="M2.29,861.24H399.53s30.6,0,30.6,13.36-29.75,11.14-29.75,11.14l-109.63.14s-34-2.37-34,14.33,43.35,13,43.35,13H623.05s20.4,1.48,20.4,13-21.25,9.28-21.25,9.28H388.48s-28.89-1.11-28.89,8.54,10.2,10.39,28,10.39H561.86S584,955.15,584,963s-7.64,10.39-18.69,10.39H233.81S210,974.83,210,984.11s8.5,12.62,23,12.62H481.12s19.55.74,19.55,10.39-19.13,8.35-19.13,8.35H119.92s-23.53-.18-23.53,8.36,20.69,9,20.69,9H397.83s18.7.53,18.7,9.15-17.95,7.85-17.95,7.85H2.29Z"/><path class="af09857f-e3d7-41cd-9e44-9811784bd001" d="M1400,880.39H825.62s-8.94-1-8.94,10.25,9.31,12,9.31,12H965.7s10.3.65,10.3,11.82-11.71,10.92-11.71,10.92h-180s-9.52-1.7-9.52,10.92,9.73,13.59,9.73,13.59H908c7.19,0,11.42,4.37,11.42,16.5s-11.85,14.08-11.85,14.08H742.67c-5.5,0-9.3,3.4-9.3,13.59s11,11.17,11,11.17h86.7c8.89,0,14,1,14,13.59S830.64,1030,830.64,1030H714.34s-10.58-2.91-10.58,12.14c0,9.53,8.6,7.78,8.6,7.78H1400V880.39"/><polyline class="a27f1290-a4b9-43a4-aade-89f4fcd711fc" points="705.76 1049.87 0 1049.87 0 0 1400 0 1400 1049.87"/></g></g></svg>