<svg xmlns="http://www.w3.org/2000/svg" xmlns:xlink="http://www.w3.org/1999/xlink" viewBox="0 0 1226.74 565.37"><defs><style>.a5fe5a64-9215-467d-bbbe-21b64f09e9bf,.a757fbaf-6f1d-47d5-b533-2949ad46784b,.ac27db27-1ae5-443a-812a-7db54420bc86,.b862e8b3-2d22-4360-b3aa-72791334ecd8,.baf14658-70f8-4981-8b95-d05e69f99380,.bb0c925e-3506-4676-8be9-2b713df5a29a,.bdddf1d0-35bf-448c-b3ef-c6298a247e51,.bf40035d-716e-48b1-ae7c-5eb033af5d03,.e9b2bed7-5694-4a59-9552-c5f5e0a1e60e,.ea1ac2d2-c672-4189-87ee-1f6238bf1900,.ec95aad5-fd98-4a79-b5c5-712930055d3c,.fcc6b30c-082b-4be3-8757-58c1ca9aa6f6,.fde1fcbb-30e1-4900-b644-25cdeae3ea5f{fill:none;}.a712a393-b4d2-4194-967a-666a9ac24789,.b9a78705-8433-4045-8555-14e328bbaa28{fill:#fcdebe;}.a6da3892-d9ed-435b-9c16-db7d8e05170e,.b9a78705-8433-4045-8555-14e328bbaa28,.bbd77e56-eff3-4122-8713-fed4c4370f99,.bc7a692a-5b78-4674-b3c1-8453336431b2,.bcac38d3-3442-4b1f-a359-b5d34bcc5b42,.bd799762-f721-4b77-8bd6-ef936fa0be10,.bdddf1d0-35bf-448c-b3ef-c6298a247e51,.e9b2bed7-5694-4a59-9552-c5f5e0a1e60e,.ea1ac2d2-c672-4189-87ee-1f6238bf1900,.f9cf3631-44c2-4eca-bc88-8f4aabb33f7c,.fa47e46b-b842-4160-87f6-89ca86678e12,.fb30f496-3f6a-4aaa-b212-7d282255efe8{stroke:#40220f;}.a6da3892-d9ed-435b-9c16-db7d8e05170e,.a712a393-b4d2-4194-967a-666a9ac24789,.a757fbaf-6f1d-47d5-b533-2949ad46784b,.b862e8b3-2d22-4360-b3aa-72791334ecd8,.b9a78705-8433-4045-8555-14e328bbaa28,.bbd77e56-eff3-4122-8713-fed4c4370f99,.bc7a692a-5b78-4674-b3c1-8453336431b2,.bcac38d3-3442-4b1f-a359-b5d34bcc5b42,.bd799762-f721-4b77-8bd6-ef936fa0be10,.bdddf1d0-35bf-448c-b3ef-c6298a247e51,.e5679638-c18d-4ab0-b38c-61fa3b47a740,.e9b2bed7-5694-4a59-9552-c5f5e0a1e60e,.ea1ac2d2-c672-4189-87ee-1f6238bf1900,.ec95aad5-fd98-4a79-b5c5-712930055d3c,.f9cf3631-44c2-4eca-bc88-8f4aabb33f7c,.fa47e46b-b842-4160-87f6-89ca86678e12,.fb30f496-3f6a-4aaa-b212-7d282255efe8{stroke-miterlimit:10;}.b9a78705-8433-4045-8555-14e328bbaa28,.bbd77e56-eff3-4122-8713-fed4c4370f99,.bcac38d3-3442-4b1f-a359-b5d34bcc5b42,.bdddf1d0-35bf-448c-b3ef-c6298a247e51{stroke-width:4.53px;}.e30296ff-8b4b-4c3c-8716-b9648d281af2{clip-path:url(#ab4c5949-291b-4d11-8049-0557be951375);}.f50de50a-b26e-4d9e-ad05-6afef00d80be{fill:#786d60;}.a712a393-b4d2-4194-967a-666a9ac24789,.a757fbaf-6f1d-47d5-b533-2949ad46784b{stroke:#231815;}.a712a393-b4d2-4194-967a-666a9ac24789,.a757fbaf-6f1d-47d5-b533-2949ad46784b,.e5679638-c18d-4ab0-b38c-61fa3b47a740{stroke-width:2.49px;}.e4dcf188-eb80-4b44-ada0-778eef55e14c{clip-path:url(#f0c413f2-92cc-43bb-8ce7-6f73fa10cbcf);}.b95ac37d-9876-483b-989a-4f11e8600f60,.bd799762-f721-4b77-8bd6-ef936fa0be10{fill:#fff;}.bcac38d3-3442-4b1f-a359-b5d34bcc5b42{fill:#a79a89;}.a028f97c-bb47-4772-8a53-121fae2be554{fill:#fff89e;}.bbd77e56-eff3-4122-8713-fed4c4370f99{fill:#efddc4;}.e5679638-c18d-4ab0-b38c-61fa3b47a740{fill:#fdeacf;}.a5fe5a64-9215-467d-bbbe-21b64f09e9bf,.bb0c925e-3506-4676-8be9-2b713df5a29a,.e5679638-c18d-4ab0-b38c-61fa3b47a740,.ec95aad5-fd98-4a79-b5c5-712930055d3c,.fcc6b30c-082b-4be3-8757-58c1ca9aa6f6,.fde1fcbb-30e1-4900-b644-25cdeae3ea5f{stroke:#6a3906;}.bf71cece-c753-46cc-bb6a-88c15609dc97{fill:#564438;}.b0729561-50d6-4703-960a-b4aaa11a38fe{fill:#fddb93;}.b1ec6782-07ce-4a45-9b7f-828389df9523{fill:#231815;}.b73c86b7-6f19-456a-a0a0-674db4e1f1ff{fill:#40220f;}.a994bd08-61db-4778-9700-99f6bd113826{fill:#d53533;}.be392f79-c805-4f6b-ad75-299caa8f1dff{fill:#ef8889;}.b93b2fc1-04f4-4afb-a1fa-25a9db7907bd{fill:#ec6811;}.a46efb6f-cb5e-4422-adea-2732aae10eaa{fill:#fdd22b;}.bbec1f3c-480b-4967-9b40-18dc37915b7c{fill:#6a3906;}.fb30f496-3f6a-4aaa-b212-7d282255efe8{fill:#ac7c4c;}.a6da3892-d9ed-435b-9c16-db7d8e05170e,.e9b2bed7-5694-4a59-9552-c5f5e0a1e60e,.fa47e46b-b842-4160-87f6-89ca86678e12,.fb30f496-3f6a-4aaa-b212-7d282255efe8{stroke-width:4.9px;}.b76dd953-6768-4725-93f9-0108b83f7d1b{clip-path:url(#be298ef6-2ac5-4cbc-9c1d-4ec5133f7978);}.bd799762-f721-4b77-8bd6-ef936fa0be10{stroke-width:0.49px;}.fa47e46b-b842-4160-87f6-89ca86678e12{fill:#b0804f;}.b59c8a44-be42-4dda-be21-d739680cd045{fill:#d99852;}.e117415e-6e33-4482-b7d9-43465ec6c523{fill:#f5ac5c;}.adc780f3-7c1d-4138-ac85-56a36c3c4095{fill:#604c3f;}.a6da3892-d9ed-435b-9c16-db7d8e05170e{fill:#ca925b;}.fd13423e-3aa1-470f-af4d-08a0d3981523{fill:#e9c988;}.a48646f8-bd42-4bbc-b14b-a3b002419d05{fill:#f29432;}.b99df33c-94c3-4b0d-a38e-bc75573b2d2d{fill:#4b3a2f;}.bc7a692a-5b78-4674-b3c1-8453336431b2{fill:#f6bfbe;}.bc7a692a-5b78-4674-b3c1-8453336431b2,.ea1ac2d2-c672-4189-87ee-1f6238bf1900,.f9cf3631-44c2-4eca-bc88-8f4aabb33f7c{stroke-width:3.85px;}.a65f12ca-ea0d-40af-a839-c622788f7922{clip-path:url(#b8630a9e-72f7-49b3-916a-2a02d14a8e4e);}.f9cf3631-44c2-4eca-bc88-8f4aabb33f7c{fill:#f9d3d3;}.e975fc9a-18d9-40f5-854d-d88f3ff190e9{fill:#f08f9e;}.f756aed5-2b5d-4aeb-8ff0-e3eeb40b45b9{fill:#f2a4b7;}.bda434ee-8db3-4e0d-b3b5-2e5987d50103{fill:#f198a4;}.ac27db27-1ae5-443a-812a-7db54420bc86,.b862e8b3-2d22-4360-b3aa-72791334ecd8,.bf40035d-716e-48b1-ae7c-5eb033af5d03{stroke:#fff;}.a5fe5a64-9215-467d-bbbe-21b64f09e9bf,.ac27db27-1ae5-443a-812a-7db54420bc86,.b862e8b3-2d22-4360-b3aa-72791334ecd8,.bb0c925e-3506-4676-8be9-2b713df5a29a,.bf40035d-716e-48b1-ae7c-5eb033af5d03,.ec95aad5-fd98-4a79-b5c5-712930055d3c,.fcc6b30c-082b-4be3-8757-58c1ca9aa6f6,.fde1fcbb-30e1-4900-b644-25cdeae3ea5f{stroke-linecap:round;}.b862e8b3-2d22-4360-b3aa-72791334ecd8{stroke-width:6.57px;}.b0143806-63d9-4fb9-b31f-2ec93c33797b{fill:#fffef0;}.a5fe5a64-9215-467d-bbbe-21b64f09e9bf,.ac27db27-1ae5-443a-812a-7db54420bc86,.bb0c925e-3506-4676-8be9-2b713df5a29a,.bf40035d-716e-48b1-ae7c-5eb033af5d03,.fcc6b30c-082b-4be3-8757-58c1ca9aa6f6,.fde1fcbb-30e1-4900-b644-25cdeae3ea5f{stroke-linejoin:round;}.bb0c925e-3506-4676-8be9-2b713df5a29a{stroke-width:13.69px;}.a5fe5a64-9215-467d-bbbe-21b64f09e9bf{stroke-width:11.46px;}.a257de3a-df5b-4dfa-8afb-323adc9eb229{fill:#956134;}.b28a28ac-486f-44a8-9fcf-b229fb6241fb{fill:#f9c068;}.fcc6b30c-082b-4be3-8757-58c1ca9aa6f6{stroke-width:14.49px;}.ec95aad5-fd98-4a79-b5c5-712930055d3c{stroke-width:16.16px;}.fde1fcbb-30e1-4900-b644-25cdeae3ea5f{stroke-width:12.71px;}.bf40035d-716e-48b1-ae7c-5eb033af5d03{stroke-width:2.06px;}.ac27db27-1ae5-443a-812a-7db54420bc86{stroke-width:2.12px;}</style><clipPath id="ab4c5949-291b-4d11-8049-0557be951375"><path class="baf14658-70f8-4981-8b95-d05e69f99380" d="M1158.19,431.74l-5.63-1.67a11,11,0,0,1-7.43-13.72l13.63-45.77a11,11,0,0,1,13.73-7.43l5.63,1.67a11,11,0,0,1,7.43,13.72l-13.63,45.77A11,11,0,0,1,1158.19,431.74Z"/></clipPath><clipPath id="f0c413f2-92cc-43bb-8ce7-6f73fa10cbcf"><path class="baf14658-70f8-4981-8b95-d05e69f99380" d="M1093.43,412.5l5.63,1.67a11,11,0,0,0,13.73-7.42L1126.42,361a11,11,0,0,0-7.43-13.72l-5.63-1.67a11,11,0,0,0-13.74,7.43L1086,398.78A11,11,0,0,0,1093.43,412.5Z"/></clipPath><clipPath id="be298ef6-2ac5-4cbc-9c1d-4ec5133f7978"><ellipse class="baf14658-70f8-4981-8b95-d05e69f99380" cx="691.47" cy="151.79" rx="61.31" ry="94.16" transform="translate(526.67 840.27) rotate(-88.92)"/></clipPath><clipPath id="b8630a9e-72f7-49b3-916a-2a02d14a8e4e"><ellipse class="baf14658-70f8-4981-8b95-d05e69f99380" cx="158.3" cy="428.76" rx="30.68" ry="65.72" transform="translate(-297.26 391.87) rotate(-65.11)"/></clipPath></defs><title>logo</title><g id="b143f612-c08f-4219-a952-f8c5e26cb658" data-name="圖層 2"><g id="bdecd6ef-74b8-4fa0-b969-7bbe0f01648f" data-name="圖層 1"><path class="b9a78705-8433-4045-8555-14e328bbaa28" d="M1158.19,431.74l-5.63-1.67a11,11,0,0,1-7.43-13.72l13.63-45.77a11,11,0,0,1,13.73-7.43l5.63,1.67a11,11,0,0,1,7.43,13.72l-13.63,45.77A11,11,0,0,1,1158.19,431.74Z"/><g class="e30296ff-8b4b-4c3c-8716-b9648d281af2"><path class="f50de50a-b26e-4d9e-ad05-6afef00d80be" d="M1164,392.15l.51-1.72a3.37,3.37,0,0,1,4.19-2.26l18.2,5.4a3.37,3.37,0,0,1,2.26,4.19l-.51,1.71a3.36,3.36,0,0,1-4.18,2.27l-18.2-5.41A3.36,3.36,0,0,1,1164,392.15Z"/><path class="f50de50a-b26e-4d9e-ad05-6afef00d80be" d="M1160.31,404.7l.51-1.72a3.36,3.36,0,0,1,4.18-2.26l18.2,5.4a3.36,3.36,0,0,1,2.27,4.18L1185,412a3.37,3.37,0,0,1-4.19,2.26l-18.2-5.4A3.36,3.36,0,0,1,1160.31,404.7Z"/><path class="f50de50a-b26e-4d9e-ad05-6afef00d80be" d="M1156.57,417.24l.51-1.71a3.38,3.38,0,0,1,4.19-2.27l18.19,5.41a3.36,3.36,0,0,1,2.27,4.18l-.51,1.72a3.37,3.37,0,0,1-4.19,2.26l-18.19-5.4A3.37,3.37,0,0,1,1156.57,417.24Z"/></g><path class="bdddf1d0-35bf-448c-b3ef-c6298a247e51" d="M1158.19,431.74l-5.63-1.67a11,11,0,0,1-7.43-13.72l13.63-45.77a11,11,0,0,1,13.73-7.43l5.63,1.67a11,11,0,0,1,7.43,13.72l-13.63,45.77A11,11,0,0,1,1158.19,431.74Z"/><path class="a712a393-b4d2-4194-967a-666a9ac24789" d="M1093.43,412.5l5.63,1.67a11,11,0,0,0,13.73-7.42L1126.42,361a11,11,0,0,0-7.43-13.72l-5.63-1.67a11,11,0,0,0-13.74,7.43L1086,398.78A11,11,0,0,0,1093.43,412.5Z"/><g class="e4dcf188-eb80-4b44-ada0-778eef55e14c"><path class="f50de50a-b26e-4d9e-ad05-6afef00d80be" d="M1110.19,376.15l.51-1.72a3.36,3.36,0,0,0-2.27-4.18l-18.19-5.4a3.37,3.37,0,0,0-4.19,2.26l-.51,1.72a3.36,3.36,0,0,0,2.27,4.18l18.19,5.4A3.36,3.36,0,0,0,1110.19,376.15Z"/><path class="f50de50a-b26e-4d9e-ad05-6afef00d80be" d="M1106.45,388.7,1107,387a3.36,3.36,0,0,0-2.27-4.18l-18.2-5.41a3.37,3.37,0,0,0-4.18,2.27l-.52,1.71a3.37,3.37,0,0,0,2.27,4.19l18.2,5.4A3.36,3.36,0,0,0,1106.45,388.7Z"/><path class="f50de50a-b26e-4d9e-ad05-6afef00d80be" d="M1089.76,383.87h1.79a3.36,3.36,0,0,1,3.36,3.36v19a3.37,3.37,0,0,1-3.37,3.37h-1.79a3.36,3.36,0,0,1-3.36-3.36v-19A3.37,3.37,0,0,1,1089.76,383.87Z" transform="translate(399.16 1328.79) rotate(-73.42)"/></g><path class="a757fbaf-6f1d-47d5-b533-2949ad46784b" d="M1093.43,412.5l5.63,1.67a11,11,0,0,0,13.73-7.42L1126.42,361a11,11,0,0,0-7.43-13.72l-5.63-1.67a11,11,0,0,0-13.74,7.43L1086,398.78A11,11,0,0,0,1093.43,412.5Z"/><path class="b9a78705-8433-4045-8555-14e328bbaa28" d="M1209.47,368.56c6.47-1.16,10.89-6.93,9.91-13s-7.14-10.27-13.74-9.21c-.23,0-.45.08-.67.12l-33.57,5.4,3.58,22.24,34.49-5.54Z"/><ellipse class="b95ac37d-9876-483b-989a-4f11e8600f60" cx="1207.53" cy="357.52" rx="7.29" ry="7.28"/><path class="b9a78705-8433-4045-8555-14e328bbaa28" d="M1085.63,331.77c-4.78-4.51-5.32-11.75-1.18-16.3s11.6-4.7,16.55-.21c.16.15.33.31.48.47l25.17,22.84-15.17,16.67-25.86-23.47Z"/><ellipse class="b95ac37d-9876-483b-989a-4f11e8600f60" cx="1093.3" cy="323.58" rx="7.29" ry="7.28"/><ellipse class="b9a78705-8433-4045-8555-14e328bbaa28" cx="1144.27" cy="362.17" rx="45.46" ry="45.41"/><ellipse class="b95ac37d-9876-483b-989a-4f11e8600f60" cx="1146.22" cy="355.64" rx="30.26" ry="30.23"/><path class="bcac38d3-3442-4b1f-a359-b5d34bcc5b42" d="M1203.56,219.24l-24.73,23.39a4.24,4.24,0,0,0,1.7,7.14l32.65,9.7a4.24,4.24,0,0,0,5.33-5.05l-7.92-33.09A4.23,4.23,0,0,0,1203.56,219.24Z"/><path class="a028f97c-bb47-4772-8a53-121fae2be554" d="M1201.21,233l-14.89,14.09a2.28,2.28,0,0,0,.92,3.85l19.66,5.84a2.28,2.28,0,0,0,2.87-2.72L1205,234.17A2.29,2.29,0,0,0,1201.21,233Z"/><path class="bbd77e56-eff3-4122-8713-fed4c4370f99" d="M1165.23,207.85l-24.73,23.39a4.24,4.24,0,0,0,1.7,7.14l32.65,9.7a4.23,4.23,0,0,0,5.32-5.05l-7.91-33.09A4.23,4.23,0,0,0,1165.23,207.85Z"/><path class="a028f97c-bb47-4772-8a53-121fae2be554" d="M1162.88,221.65,1148,235.74a2.29,2.29,0,0,0,.92,3.86l19.65,5.84a2.29,2.29,0,0,0,2.88-2.73l-4.76-19.92A2.29,2.29,0,0,0,1162.88,221.65Z"/><path class="e5679638-c18d-4ab0-b38c-61fa3b47a740" d="M1223.88,275.58c2.63-12.4-3.71-24.39-14.63-27.63l-27-8-3.44-1-27-8c-10.91-3.24-22.79,3.33-27.37,15.15L1102,303.82c-5.2,13.41,1,28.14,13.38,31.82l31.79,9.44,3.44,1,31.78,9.45c12.39,3.68,25.63-5.28,28.62-19.35Z"/><path class="bf71cece-c753-46cc-bb6a-88c15609dc97" d="M1160.36,311.17l8.93-7.24a1.41,1.41,0,0,0-.49-2.46l-12.45-3.7a1.42,1.42,0,0,0-1.76,1.79l3.52,10.95A1.42,1.42,0,0,0,1160.36,311.17Z"/><path class="b0729561-50d6-4703-960a-b4aaa11a38fe" d="M1140.56,303.54a26.47,26.47,0,0,0-25.29-34L1102,303.82a26.73,26.73,0,0,0-1.46,14.22,26.84,26.84,0,0,0,7.1,3.31A26.48,26.48,0,0,0,1140.56,303.54Z"/><path class="b0729561-50d6-4703-960a-b4aaa11a38fe" d="M1211,336.2l7.63-35.93a26.1,26.1,0,0,0-6.85-3.15,26.44,26.44,0,1,0-7.34,51.79A26.7,26.7,0,0,0,1211,336.2Z"/><ellipse class="b1ec6782-07ce-4a45-9b7f-828389df9523" cx="1142.17" cy="287.34" rx="7.2" ry="7.19"/><ellipse class="b1ec6782-07ce-4a45-9b7f-828389df9523" cx="1186.38" cy="300.47" rx="7.2" ry="7.19"/><circle class="b95ac37d-9876-483b-989a-4f11e8600f60" cx="1140.25" cy="284.99" r="2.51"/><circle class="b95ac37d-9876-483b-989a-4f11e8600f60" cx="1184.46" cy="298.13" r="2.51"/><path class="b73c86b7-6f19-456a-a0a0-674db4e1f1ff" d="M1196.56,310.62h.49a.92.92,0,0,1,.92.92v20.91a.93.93,0,0,1-.93.93h-.49a.92.92,0,0,1-.92-.92V311.55a.93.93,0,0,1,.93-.93Z" transform="translate(547.3 1377.54) rotate(-73.45)"/><path class="b73c86b7-6f19-456a-a0a0-674db4e1f1ff" d="M1198.87,302.87h.49a.93.93,0,0,1,.93.93v20.91a.92.92,0,0,1-.92.92h-.49a.93.93,0,0,1-.93-.93V303.79A.92.92,0,0,1,1198.87,302.87Z" transform="translate(778.56 1480.34) rotate(-84.85)"/><path class="b73c86b7-6f19-456a-a0a0-674db4e1f1ff" d="M1194.25,318.38h.49a.93.93,0,0,1,.93.93v20.91a.92.92,0,0,1-.92.92h-.49a.93.93,0,0,1-.93-.93V319.3a.92.92,0,0,1,.92-.92Z" transform="translate(343.37 1230.38) rotate(-62.05)"/><rect class="b73c86b7-6f19-456a-a0a0-674db4e1f1ff" x="1119.73" y="288.07" width="2.34" height="22.76" rx="0.92" transform="translate(514.63 1288.66) rotate(-73.45)"/><path class="b73c86b7-6f19-456a-a0a0-674db4e1f1ff" d="M1123,280.32h.49a.93.93,0,0,1,.93.93v20.91a.92.92,0,0,1-.92.92H1123a.93.93,0,0,1-.93-.93V281.25a.92.92,0,0,1,.92-.92Z" transform="translate(339.11 1147.2) rotate(-62.05)"/><rect class="b73c86b7-6f19-456a-a0a0-674db4e1f1ff" x="1117.42" y="295.82" width="2.34" height="22.76" rx="0.92" transform="translate(712.29 1393.73) rotate(-84.85)"/><path class="f50de50a-b26e-4d9e-ad05-6afef00d80be" d="M1161.79,259.47l-1.71-.51a3.37,3.37,0,0,1-2.27-4.19l5.41-18.17a3.37,3.37,0,0,1,4.19-2.27l1.72.51a3.37,3.37,0,0,1,2.26,4.19L1166,257.2A3.37,3.37,0,0,1,1161.79,259.47Z"/><path class="f50de50a-b26e-4d9e-ad05-6afef00d80be" d="M1174.36,263.2l-1.72-.51a3.36,3.36,0,0,1-2.27-4.18l5.42-18.18a3.36,3.36,0,0,1,4.18-2.26l1.72.51a3.36,3.36,0,0,1,2.27,4.18l-5.42,18.17A3.36,3.36,0,0,1,1174.36,263.2Z"/><path class="f50de50a-b26e-4d9e-ad05-6afef00d80be" d="M1186.92,266.93l-1.72-.51a3.36,3.36,0,0,1-2.26-4.18l5.41-18.18a3.36,3.36,0,0,1,4.18-2.26l1.72.51a3.36,3.36,0,0,1,2.27,4.18l-5.41,18.18A3.37,3.37,0,0,1,1186.92,266.93Z"/><path class="bdddf1d0-35bf-448c-b3ef-c6298a247e51" d="M1223.88,275.58c2.63-12.4-3.71-24.39-14.63-27.63l-27-8-3.44-1-27-8c-10.91-3.24-22.79,3.33-27.37,15.15L1102,303.82c-5.2,13.41,1,28.14,13.38,31.82l31.79,9.44,3.44,1,31.78,9.45c12.39,3.68,25.63-5.28,28.62-19.35Z"/><path class="a994bd08-61db-4778-9700-99f6bd113826" d="M1135.16,306.85s10.69-5.53,18.54,6.55c5.1,7.85,10.21,2.08,18.48,2.48,5.88.28,11,5.12,9.49,10.75-.76,2.83-2.48,10.14-15.12,11.46s-26-2.1-33.91-13.91S1135.16,306.85,1135.16,306.85Z"/><path class="be392f79-c805-4f6b-ad75-299caa8f1dff" d="M1134.14,324.79A25,25,0,0,0,1146,335.33c8.58,3.83,18.58,3,18.58,3s6.9-.28,8.43-3.71c1.43-3.22-2.88-6.15-2.88-6.15a30.51,30.51,0,0,0-13.52-3.36c-7.13.09-12.2.05-17.82-2.85C1132.76,319.21,1134.14,324.79,1134.14,324.79Z"/><path class="b93b2fc1-04f4-4afb-a1fa-25a9db7907bd" d="M1066.89,138.63c-2,16.94-19.92,20.61-38,18.45s-31.62-11.32-30.17-23.51,17.91-22.36,36.12-21.47C1058.17,113.25,1068.31,126.42,1066.89,138.63Z"/><path class="a46efb6f-cb5e-4422-adea-2732aae10eaa" d="M1056.29,140.17c-1.14,9.59-12.66,16.35-28.16,14.5s-27.13-11.12-26-20.71,14.64-15.87,30.13-14S1057.44,130.58,1056.29,140.17Z"/><path class="b95ac37d-9876-483b-989a-4f11e8600f60" d="M1012.76,135.42c7.46,10.32,22.13,15.39,33,7,3.54-2.73-1.42-7.63-4.92-4.92-7,5.42-17.46.7-22-5.6-2.6-3.6-8.64-.13-6,3.51Z"/><path class="bbec1f3c-480b-4967-9b40-18dc37915b7c" d="M1032.82,114.4c17.37,0,31.45,9.22,31.45,20.6s-14.08,20.6-31.45,20.6-31.45-9.22-31.45-20.6,14.08-20.6,31.45-20.6m0-14c-25.48,0-45.44,15.2-45.44,34.6s20,34.6,45.44,34.6,45.45-15.2,45.45-34.6-20-34.6-45.45-34.6Z"/><path class="fb30f496-3f6a-4aaa-b212-7d282255efe8" d="M768.7,147.41c6.41-4.23,8.5-12.47,4.64-18.54s-12.41-7.74-19-3.57c-.23.15-.45.29-.66.45L720.09,147l14.11,22.25,34.5-21.84Z"/><ellipse class="b95ac37d-9876-483b-989a-4f11e8600f60" cx="761.52" cy="136.43" rx="7.15" ry="7.14"/><path class="fb30f496-3f6a-4aaa-b212-7d282255efe8" d="M607.37,144.36c-6.24-4.47-8-12.78-3.94-18.7s12.7-7.27,19.14-2.85c.22.15.43.31.64.47L656,145.78l-15,21.71-33.64-23.12Z"/><ellipse class="b95ac37d-9876-483b-989a-4f11e8600f60" cx="614.96" cy="133.66" rx="7.15" ry="7.14"/><g class="b76dd953-6768-4725-93f9-0108b83f7d1b"><ellipse class="fb30f496-3f6a-4aaa-b212-7d282255efe8" cx="689.76" cy="171.17" rx="52.25" ry="52.19"/></g><ellipse class="b95ac37d-9876-483b-989a-4f11e8600f60" cx="689.04" cy="162.99" rx="34.78" ry="34.74"/><ellipse class="bd799762-f721-4b77-8bd6-ef936fa0be10" cx="714.91" cy="24.39" rx="21.02" ry="20.99"/><ellipse class="fa47e46b-b842-4160-87f6-89ca86678e12" cx="714.91" cy="24.39" rx="21.02" ry="20.99"/><ellipse class="b59c8a44-be42-4dda-be21-d739680cd045" cx="714.91" cy="24.39" rx="11.21" ry="11.2"/><ellipse class="e117415e-6e33-4482-b7d9-43465ec6c523" cx="716.34" cy="24.76" rx="9.78" ry="9.76"/><ellipse class="bd799762-f721-4b77-8bd6-ef936fa0be10" cx="664.39" cy="23.44" rx="21.02" ry="20.99"/><ellipse class="fa47e46b-b842-4160-87f6-89ca86678e12" cx="664.39" cy="23.44" rx="21.02" ry="20.99"/><ellipse class="b59c8a44-be42-4dda-be21-d739680cd045" cx="663.48" cy="23.12" rx="11.21" ry="11.2"/><ellipse class="e117415e-6e33-4482-b7d9-43465ec6c523" cx="665.16" cy="21.86" rx="9.18" ry="9.17"/><ellipse class="adc780f3-7c1d-4138-ac85-56a36c3c4095" cx="687.87" cy="100.65" rx="6.77" ry="9.47" transform="translate(574.27 786.5) rotate(-88.92)"/><ellipse class="a6da3892-d9ed-435b-9c16-db7d8e05170e" cx="688.02" cy="92.84" rx="69.89" ry="69.81"/><ellipse class="fd13423e-3aa1-470f-af4d-08a0d3981523" cx="687.59" cy="115.41" rx="27.32" ry="27.29"/><path class="a48646f8-bd42-4bbc-b14b-a3b002419d05" d="M659.52,120.26a30.71,30.71,0,0,0-41.36-29.34c0,.2,0,.4,0,.6a69.64,69.64,0,0,0,25.33,55.1A30.64,30.64,0,0,0,659.52,120.26Z"/><path class="a48646f8-bd42-4bbc-b14b-a3b002419d05" d="M757.89,94.16c0-.11,0-.22,0-.33a30.67,30.67,0,0,0-27.68,54.65A69.64,69.64,0,0,0,757.89,94.16Z"/><ellipse class="b1ec6782-07ce-4a45-9b7f-828389df9523" cx="661.59" cy="88.54" rx="8.27" ry="8.26"/><ellipse class="b1ec6782-07ce-4a45-9b7f-828389df9523" cx="714.59" cy="89.54" rx="8.27" ry="8.26"/><circle class="b95ac37d-9876-483b-989a-4f11e8600f60" cx="658.74" cy="86.53" r="2.89"/><circle class="b95ac37d-9876-483b-989a-4f11e8600f60" cx="711.74" cy="87.53" r="2.89"/><ellipse class="b99df33c-94c3-4b0d-a38e-bc75573b2d2d" cx="687.87" cy="100.65" rx="6.77" ry="9.47" transform="translate(574.27 786.5) rotate(-88.92)"/><ellipse class="adc780f3-7c1d-4138-ac85-56a36c3c4095" cx="688.83" cy="100.01" rx="5.81" ry="8.04" transform="matrix(0.02, -1, 1, 0.02, 575.85, 786.83)"/><ellipse class="e9b2bed7-5694-4a59-9552-c5f5e0a1e60e" cx="688.02" cy="92.84" rx="69.89" ry="69.81"/><path class="a994bd08-61db-4778-9700-99f6bd113826" d="M662.29,117.25s9.81-8.55,21.17,2.14c7.37,6.94,11.26-.43,20-2.13,6.25-1.21,12.87,2.57,12.73,8.87-.07,3.17,0,11.3-12.94,15.92s-27.89,4.45-39.21-5.94S662.29,117.25,662.29,117.25Z"/><path class="be392f79-c805-4f6b-ad75-299caa8f1dff" d="M665.83,136.37a27,27,0,0,0,15.15,8c10,1.83,20.31-1.56,20.31-1.56s7.18-2.06,7.9-6.06c.68-3.75-4.6-5.73-4.6-5.73a33.06,33.06,0,0,0-15.07-.06c-7.47,1.91-12.81,3.17-19.46,1.57C663,130.86,665.83,136.37,665.83,136.37Z"/><path class="bc7a692a-5b78-4674-b3c1-8453336431b2" d="M217.71,441.19c6-.19,10.83-4.85,10.76-10.5s-5.13-10.3-11.27-10.21l-.62,0-31.25.42.27,20.71,32.11-.43Z"/><ellipse class="b95ac37d-9876-483b-989a-4f11e8600f60" cx="217.43" cy="430.89" rx="6.7" ry="6.7"/><path class="bc7a692a-5b78-4674-b3c1-8453336431b2" d="M110,391.18c-3.74-4.73-3.27-11.4,1.11-15s11.18-2.73,15.08,2c.13.16.26.32.38.49l19.82,24.14-16,13.13L110,391.18Z"/><ellipse class="b95ac37d-9876-483b-989a-4f11e8600f60" cx="118.08" cy="384.76" rx="6.7" ry="6.7"/><g class="a65f12ca-ea0d-40af-a839-c622788f7922"><ellipse class="bc7a692a-5b78-4674-b3c1-8453336431b2" cx="159.27" cy="426.66" rx="41.79" ry="41.74"/></g><ellipse class="b95ac37d-9876-483b-989a-4f11e8600f60" cx="161.92" cy="420.99" rx="27.82" ry="27.78"/><ellipse class="f9cf3631-44c2-4eca-bc88-8f4aabb33f7c" cx="216.89" cy="332.98" rx="40.36" ry="12.71" transform="translate(-176.52 389.07) rotate(-65.04)"/><ellipse class="f9cf3631-44c2-4eca-bc88-8f4aabb33f7c" cx="193.84" cy="322.28" rx="40.36" ry="12.71" transform="translate(-180.14 361.99) rotate(-65.04)"/><ellipse class="e975fc9a-18d9-40f5-854d-d88f3ff190e9" cx="213.01" cy="341.33" rx="24.05" ry="7.57" transform="translate(-186.34 390.38) rotate(-65.04)"/><ellipse class="e975fc9a-18d9-40f5-854d-d88f3ff190e9" cx="190" cy="330.65" rx="24.05" ry="7.57" transform="translate(-189.95 363.34) rotate(-65.04)"/><ellipse class="f756aed5-2b5d-4aeb-8ff0-e3eeb40b45b9" cx="190.37" cy="331.56" rx="21.75" ry="6.85" transform="translate(-190.56 364.21) rotate(-65.04)"/><ellipse class="f756aed5-2b5d-4aeb-8ff0-e3eeb40b45b9" cx="213.38" cy="342.24" rx="21.75" ry="6.85" transform="translate(-186.94 391.24) rotate(-65.04)"/><ellipse class="f9cf3631-44c2-4eca-bc88-8f4aabb33f7c" cx="181.75" cy="378.37" rx="46.75" ry="55.88" transform="translate(-237.96 384.73) rotate(-65.21)"/><path class="b99df33c-94c3-4b0d-a38e-bc75573b2d2d" d="M181.73,382.12l7.39-4.38a1.89,1.89,0,0,0-.17-3.35l-8.8-4.09a1.9,1.9,0,0,0-2.67,2l1.41,8.47A1.9,1.9,0,0,0,181.73,382.12Z"/><path class="adc780f3-7c1d-4138-ac85-56a36c3c4095" d="M181.42,380.46l6.38-3.78a1.63,1.63,0,0,0-.14-2.89l-7.6-3.53a1.64,1.64,0,0,0-2.31,1.75l1.22,7.31A1.63,1.63,0,0,0,181.42,380.46Z"/><path class="bda434ee-8db3-4e0d-b3b5-2e5987d50103" d="M156.1,381.09a24.51,24.51,0,0,0-11.92-32.57,24.13,24.13,0,0,0-7.78-2.15,39.58,39.58,0,0,0-5.34,8.46c-6,12.89-4.49,27.63,2.75,40.45A24.56,24.56,0,0,0,156.1,381.09Z"/><path class="bda434ee-8db3-4e0d-b3b5-2e5987d50103" d="M232.44,401.91a40,40,0,0,0,3-9.54,24.56,24.56,0,0,0-39.28,7.34,24.51,24.51,0,0,0,3.51,26.17C214.18,423.14,226.44,414.79,232.44,401.91Z"/><ellipse class="b1ec6782-07ce-4a45-9b7f-828389df9523" cx="167.64" cy="358.45" rx="6.62" ry="6.61"/><ellipse class="b1ec6782-07ce-4a45-9b7f-828389df9523" cx="206.09" cy="376.3" rx="6.62" ry="6.61"/><ellipse class="ea1ac2d2-c672-4189-87ee-1f6238bf1900" cx="181.75" cy="378.37" rx="46.75" ry="55.88" transform="translate(-237.96 384.73) rotate(-65.21)"/><circle class="b95ac37d-9876-483b-989a-4f11e8600f60" cx="166.21" cy="356.06" r="2.31"/><circle class="b95ac37d-9876-483b-989a-4f11e8600f60" cx="204.66" cy="373.91" r="2.31"/><path class="a994bd08-61db-4778-9700-99f6bd113826" d="M159.58,378.94s9.78-3,14.55,8.26c3.09,7.33,8.23,3.27,15.09,4.83,4.88,1.12,8.44,5.93,6.33,10.43-1.05,2.25-3.59,8.12-14.37,7.33s-21.47-5.65-26.31-16.72S159.58,378.94,159.58,378.94Z"/><path class="be392f79-c805-4f6b-ad75-299caa8f1dff" d="M156,393.81a21.22,21.22,0,0,0,8.34,10.59c6.61,4.5,15.1,5.33,15.1,5.33s5.82.8,7.61-1.85c1.68-2.48-1.48-5.58-1.48-5.58a26.08,26.08,0,0,0-10.82-4.83c-6-1-10.22-1.79-14.5-5.05C155.72,388.93,156,393.81,156,393.81Z"/><path class="b93b2fc1-04f4-4afb-a1fa-25a9db7907bd" d="M1049,210.36a8.73,8.73,0,0,0-11,9.89c3.16,23.6,9.53,78.62,7.82,128.37-2.26,65.52,18.66,89.69,41.63,87.66C1139.58,431.68,1120.23,228.21,1049,210.36Z"/><path class="a46efb6f-cb5e-4422-adea-2732aae10eaa" d="M1047.47,211.29a7.42,7.42,0,0,0-9.79,8c2.65,18.86,7.92,62.85,6.1,102.67-2.39,52.44,23.8,72.36,43.64,67.17C1114.79,382,1098.21,228.18,1047.47,211.29Z"/><path class="b862e8b3-2d22-4360-b3aa-72791334ecd8" d="M1057.66,230.77S1096,288.4,1088.23,373"/><path class="a46efb6f-cb5e-4422-adea-2732aae10eaa" d="M56.49,172.79c-26.35,1.59-36.34,9.51-46.27,21.27A14.51,14.51,0,0,0,8.06,209.2L156.14,549.73A15.46,15.46,0,0,0,174,558.64C232.1,544,284.73,508.3,319.51,459.55c37.33-52.3,53.72-119.08,44.86-182.69-2.78-20-8.07-39.89-18.53-57.12-26.33-43.37-82-62.23-132.53-57.31-47.12,4.59-82.22,21-121.48,45.3A9.34,9.34,0,0,1,78.6,204L65.44,178A9.46,9.46,0,0,0,56.49,172.79ZM240,481.42a206.65,206.65,0,0,1-34.92,20.69,12.88,12.88,0,0,1-17.51-7L112.38,299.39c23.14-17.4,82.48-55.57,126.48-27.7C286,301.54,304.73,368,240,481.42Z"/><path class="b93b2fc1-04f4-4afb-a1fa-25a9db7907bd" d="M297.54,406.79h0c25.29-66.39,3.18-140.24-38.92-167.75-53.14-34.73-117.75,9.48-143.14,30.16a19.91,19.91,0,0,0-6,22.59l2.92,7.6c23.14-17.4,82.48-55.57,126.48-27.7,34.7,22,54,63.76,36,129.55-1,3.8-2.22,7.68-3.51,11.63-19.83,51.64-87.13,73.37-87.13,73.37l3.51,9.14a13.17,13.17,0,0,0,17.41,7.44A167.31,167.31,0,0,0,264,460.23a161.82,161.82,0,0,0,32.58-50.89C297.22,407.69,297.54,406.79,297.54,406.79Z"/><path class="b0143806-63d9-4fb9-b31f-2ec93c33797b" d="M52.44,183.22c-10.34.26-20.51,6.16-26.62,14.42-8,10.84.07,22.57,4.45,33.34,3.34,8.2,6.59,16.44,10.15,24.55l21,47.85,65,148.09L142.86,489c1.7,3.87,7.36.53,5.68-3.31l-41.4-94.32-57.47-131c-1.78-4.05-3.6-8.08-5.33-12.15-4.18-9.8-8.05-19.75-12.07-29.62-1.26-3.11-3.49-6.93-3.72-10.33-.26-4,3-7.65,5.63-10.2,4.9-4.68,11.41-8.1,18.26-8.27,4.22-.11,4.24-6.68,0-6.57Z"/><path class="b95ac37d-9876-483b-989a-4f11e8600f60" d="M171.87,192.29c36.1-8.33,77.47-17,111.42,3,30.29,17.87,46.64,52.33,50.57,86.26,2.68,23.14.47,46.54-3.66,69.37-.75,4.13,5.58,5.9,6.33,1.74,7.28-40.21,8.74-83.67-10.87-120.81-8-15.2-19.32-28.78-33.45-38.63-15.67-10.93-34.38-15.92-53.33-16.62-23.21-.85-46.27,4.17-68.75,9.36-4.12.95-2.38,7.28,1.74,6.33Z"/><path class="bb0c925e-3506-4676-8be9-2b713df5a29a" d="M56.49,172.79c-26.35,1.59-36.34,9.51-46.27,21.27A14.51,14.51,0,0,0,8.06,209.2L155.14,547.44a18.52,18.52,0,0,0,21.74,10.47c57-15.1,108.42-50.41,142.63-98.36,37.33-52.3,53.72-119.08,44.86-182.69-2.78-20-8.07-39.89-18.53-57.12-26.33-43.37-82-62.23-132.53-57.31-47.12,4.59-82.22,21-121.48,45.3A9.34,9.34,0,0,1,78.6,204L65.44,178A9.46,9.46,0,0,0,56.49,172.79Z"/><path class="a5fe5a64-9215-467d-bbbe-21b64f09e9bf" d="M114,313.29a17.6,17.6,0,0,1,5-19.92c24.74-20.77,94.58-64.07,144.31,7,46.22,66-13.6,157.1-61.48,184.83A16.64,16.64,0,0,1,178,476.82Z"/><path class="b93b2fc1-04f4-4afb-a1fa-25a9db7907bd" d="M565.37,286.54c-8.94-12.54-11.5-22.16-9.18-54.45,2.25-31.19-14.58-53-40.81-45.09-10.88,3.27-15.43,9.36-17.31,14.21a3.94,3.94,0,0,1-6.15,1.68c-4.09-3.21-10.83-5.84-20.51-1.47-9.94,4.5-13.37,10.07-14.15,14.82h0s0,.07,0,.11c-.05.3-.09.61-.12.91-.64,3.85-3.24,3.6-5,2.94-.51-.28-1.05-.55-1.61-.8h0c-4.63-2-11-2.73-19,1.56-10.24,5.5-13.06,13-13.6,18.4a6.54,6.54,0,0,1-6.49,6c-22.78-.2-36.56,29.46-9.1,81.93,37.12,70.92,82.79,65.26,138.17,35.67C589.79,336.62,578.61,305.12,565.37,286.54Z"/><path class="a46efb6f-cb5e-4422-adea-2732aae10eaa" d="M501.89,219.25a3.18,3.18,0,0,0,5-1.79,15.63,15.63,0,0,1,9-10.66c15.62-7.29,38.06,3,41.54,31.92s8.45,37,16.48,48.26c11.91,16.76,16.23,53.13-27.61,76.56-49.26,26.33-90,31.19-123.45-32.74-24.94-47.62-12.44-74.25,8.14-73.57a5.22,5.22,0,0,0,5.29-4.92c.34-4.89,2.68-11.89,12.08-16.94,15.86-8.52,24.79,5.19,24.79,5.19s-8.86-13.71,10.71-22.54C492.25,214.23,498.2,216.43,501.89,219.25Z"/><path class="a257de3a-df5b-4dfa-8afb-323adc9eb229" d="M498.55,286.8s34-17.19,54.79,8.36c19.64,24.13.15,43.33-23.2,45.73a32.6,32.6,0,0,0-18,7.67c-12.1,10.49-35.11,25.11-47.72-1.2C446.73,310.54,498.55,286.8,498.55,286.8Z"/><ellipse class="a257de3a-df5b-4dfa-8afb-323adc9eb229" cx="434.98" cy="286.97" rx="11.92" ry="14.78" transform="translate(-81.44 217.22) rotate(-25.72)"/><ellipse class="a257de3a-df5b-4dfa-8afb-323adc9eb229" cx="463.59" cy="264.71" rx="11.92" ry="14.78" transform="translate(-68.95 227.43) rotate(-25.72)"/><ellipse class="a257de3a-df5b-4dfa-8afb-323adc9eb229" cx="497.14" cy="248.66" rx="11.92" ry="14.78" transform="translate(-58.66 240.4) rotate(-25.72)"/><ellipse class="a257de3a-df5b-4dfa-8afb-323adc9eb229" cx="533.16" cy="242.84" rx="11.92" ry="14.78" transform="translate(-52.11 216.65) rotate(-21.93)"/><path class="a46efb6f-cb5e-4422-adea-2732aae10eaa" d="M465.77,234.29s4.43,2.69,5.4-2.1l3,.2.94,11.21-8.47-2.7Z"/><path class="b95ac37d-9876-483b-989a-4f11e8600f60" d="M454.42,359.62A48,48,0,0,0,498,374c4.16-.72,2.4-7-1.74-6.33A41.24,41.24,0,0,1,459.07,355c-2.89-3.1-7.53,1.55-4.65,4.64Z"/><path class="b95ac37d-9876-483b-989a-4f11e8600f60" d="M521.39,222c6.48-4.33,14.29-2.67,18.12,4.17,2.07,3.69,7.74.38,5.67-3.31a18.74,18.74,0,0,0-27.1-6.54c-3.5,2.34-.21,8,3.31,5.68Z"/><path class="b28a28ac-486f-44a8-9fcf-b229fb6241fb" d="M543.14,304.84c3.57,6.39,5.65,14.19-2,18.61-5.45,3.15-13,3.62-19.11,4.87-4.13.86-2.38,7.19,1.75,6.34,8.53-1.77,19.65-2.36,25.57-9.64s3.73-15.91-.51-23.5c-2.06-3.69-7.73-.38-5.67,3.32Z"/><path class="b28a28ac-486f-44a8-9fcf-b229fb6241fb" d="M531.17,239.48c1-1.2,2.53-.83,3.06.71,1.37,4,7.72,2.26,6.34-1.75a9,9,0,0,0-6-6,8,8,0,0,0-8.08,2.41,3.36,3.36,0,0,0,0,4.64,3.3,3.3,0,0,0,4.64,0Z"/><path class="b28a28ac-486f-44a8-9fcf-b229fb6241fb" d="M494.18,245.69c1.34-2.07,3.75-1.46,4.76.5,1.94,3.76,7.61.44,5.67-3.31-3.37-6.54-12.25-6.48-16.1-.5-2.29,3.56,3.39,6.86,5.67,3.31Z"/><path class="b28a28ac-486f-44a8-9fcf-b229fb6241fb" d="M460.44,262c.91-1.79,2.81-2.41,4.38-.89,3,2.95,7.68-1.69,4.64-4.64a9.2,9.2,0,0,0-14.69,2.21c-1.92,3.76,3.75,7.09,5.67,3.32Z"/><path class="b28a28ac-486f-44a8-9fcf-b229fb6241fb" d="M432.27,283.31c.68-2.17,3.52-.6,4.36.53a3.38,3.38,0,0,0,4.5,1.18c1.4-.82,2.24-3.06,1.17-4.49-2.11-2.85-5.09-5-8.8-4.85a8.34,8.34,0,0,0-7.57,5.88c-1.27,4,5.07,5.77,6.34,1.75Z"/><path class="fcc6b30c-082b-4be3-8757-58c1ca9aa6f6" d="M574.74,287.43c-9.47-13.28-5.78-23.61-9.72-57.66S549.58,173.67,521.8,182c-11.52,3.46-16.34,9.91-18.33,15a4.18,4.18,0,0,1-6.51,1.78c-4.33-3.41-11.48-6.19-21.72-1.56-10.54,4.76-14.16,10.66-15,15.7h0s0,.06,0,.1c-.05.33-.09.65-.12,1-.68,4.08-3.44,3.81-5.29,3.12-.54-.3-1.11-.59-1.71-.85h0c-4.9-2.18-11.67-2.89-20.11,1.65-10.84,5.82-13.83,13.76-14.4,19.49a6.93,6.93,0,0,1-6.87,6.36c-24.13-.21-38.73,31.2-9.64,86.77,39.31,75.11,87.68,69.11,146.32,37.77C600.6,340.47,588.76,307.1,574.74,287.43Z"/><path class="b93b2fc1-04f4-4afb-a1fa-25a9db7907bd" d="M649.36,351.18l14.77-10.8a14.55,14.55,0,0,0,6-11.22c.5-14,3-44.83,15.17-48.88,18.72-6.23,20.38,29.94,20.23,45.78a9.44,9.44,0,0,0,6.88,9.16l19.33,5.48s5.46-91-44.7-79.21C687,261.49,635.52,266.09,649.36,351.18Z"/><path class="a46efb6f-cb5e-4422-adea-2732aae10eaa" d="M755.84,335.66a6.29,6.29,0,0,0,4.89-5.67,753.76,753.76,0,0,0,.81-98.21c-1-17.16-3.74-26.18-15.36-38.86-12.66-13.81-34.37-16.89-52-10.48-12.4,4.52-22.89,13-31.25,23.34a6.31,6.31,0,0,1-11.21-3.24l-1.55-30.29a5.5,5.5,0,0,0-.75-2.65c-1.08-1.54-3.33-1.56-5.21-1.41l-31,2.38a6.29,6.29,0,0,0-5.76,7.1c3.66,27.59,17.51,134,17.83,166.14a6.31,6.31,0,0,0,5.88,6.23l17.25,1.15a6.29,6.29,0,0,0,6.68-6.95c-2.29-21-5-79.2,34.92-83.19,38.88-3.88,38.12,51.2,36.33,72.93a6.29,6.29,0,0,0,7.68,6.64Z"/><path class="b95ac37d-9876-483b-989a-4f11e8600f60" d="M686.78,207.42c12.63-6.12,30.72-9.48,40.82,3.11,4.49,5.59,5.83,13.12,6.81,20a118.81,118.81,0,0,1,.73,24.79c-.29,4.22,6.28,4.2,6.57,0a123.55,123.55,0,0,0-1.5-29.94c-1.42-8.07-4-16.37-10.31-22-13.18-11.88-31.8-8.74-46.44-1.65-3.8,1.84-.47,7.51,3.32,5.67Z"/><path class="b95ac37d-9876-483b-989a-4f11e8600f60" d="M627.06,176.14c-3.87.47-10.4-.06-12.42,4.17-1,2-.53,4.19-.22,6.31.44,3,.9,5.94,1.34,8.91.63,4.17,7,2.4,6.34-1.75-.44-2.93-1.14-5.94-1.34-8.9-.13-1.87.17-1.43,2-1.65l4.3-.52c4.14-.51,4.19-7.08,0-6.57Z"/><path class="fcc6b30c-082b-4be3-8757-58c1ca9aa6f6" d="M612.24,162.75l25.35-1.06a13.69,13.69,0,0,1,14.09,11.53l3.48,22.09a7.23,7.23,0,0,0,12.4,3.82c12.11-12.67,35.22-28.67,68-16,41.88,16.2,31.67,110.37,27,141.66a15.46,15.46,0,0,1-11.35,12.67l-10.86,2.89a27.27,27.27,0,0,1-17-1l-10.74-4.24a10.2,10.2,0,0,1-6.47-9.53c0-14.8-1.74-48.07-17.6-46s-17.82,34.31-17.87,48a13.64,13.64,0,0,1-4.64,10.23l-10,8.77a18.28,18.28,0,0,1-12.36,4.56l-8.57-.12a16.75,16.75,0,0,1-16.49-15.56c-2.07-29.65-7.5-97.39-17.54-159.21A11.66,11.66,0,0,1,612.24,162.75Z"/><path class="b93b2fc1-04f4-4afb-a1fa-25a9db7907bd" d="M958.27,182.4l8.13,4.72a8.62,8.62,0,0,1,3.8,10.27L929.47,318.75a4.43,4.43,0,0,0,5.54,5.63l45.07-14.29a9.74,9.74,0,0,1,12.49,6.28L1003,349.61a16.83,16.83,0,0,1-1.86,14.09l-14,11.94-4.25-38.86a11.49,11.49,0,0,0-14.16-7.68l-49.49,14.21A8.36,8.36,0,0,1,909,332.67Z"/><path class="b93b2fc1-04f4-4afb-a1fa-25a9db7907bd" d="M795.21,203.06l2.82,13a12.14,12.14,0,0,0,13.17,9.5l74.86-4.79-7.14-25.22Z"/><path class="a46efb6f-cb5e-4422-adea-2732aae10eaa" d="M982.13,334.34l9.26,30.38a9.47,9.47,0,0,1-6.95,12c-42.5,9.67-98.64,20-140.87,29.67A9.86,9.86,0,0,1,832,399.93L819.38,362.5A12.51,12.51,0,0,1,823,349.07l21.09-18.49a39.2,39.2,0,0,0,12.6-21.79q9.09-45.57,18.19-91.15a8,8,0,0,0-.1-3.86c-1.2-3.88-4.86-3.86-8-3.64q-29.34,2-58.69,4.21a11.91,11.91,0,0,1-12.63-9.82l-4.67-26.61a6.45,6.45,0,0,1,6.84-7.54l160.63,12L909.66,330.58a9.53,9.53,0,0,0,11.7,12.12l49.81-14.3A8.89,8.89,0,0,1,982.13,334.34Z"/><path class="b95ac37d-9876-483b-989a-4f11e8600f60" d="M915.54,195.63l9,1c1.41.15,7.84-.07,8.83,1.11s-.89,6.84-1.29,8.34a42.21,42.21,0,0,1-3.86,9.39c-2,3.71,3.64,7,5.68,3.31a48.46,48.46,0,0,0,4.92-12.61c.76-3.41,1.91-8.06.62-11.42s-4.54-3.58-7.67-3.92c-5.42-.59-10.84-1.15-16.26-1.73-4.2-.44-4.17,6.13,0,6.57Z"/><path class="b95ac37d-9876-483b-989a-4f11e8600f60" d="M835.27,373.84c1.63,4.93,3.23,9.88,4.9,14.81,1,2.84,1.75,5.88,4.79,7.13,3.22,1.33,7.81.09,11-.73a45.36,45.36,0,0,0,11.52-4.82c3.66-2.11.36-7.79-3.31-5.67-3.12,1.8-12.86,7.07-16.37,4.66-1.87-1.28-2.46-5.77-3.16-7.87l-3-9.26c-1.32-4-7.67-2.28-6.34,1.75Z"/><path class="fcc6b30c-082b-4be3-8757-58c1ca9aa6f6" d="M807.05,169.71l143.5,11.34a36,36,0,0,1,18.07,6.6h0a10.18,10.18,0,0,1,3.66,11.65L936.66,312.9a6.56,6.56,0,0,0,8.09,8.26L979.93,311a13,13,0,0,1,16.17,9.13l8.87,33.05a18.29,18.29,0,0,1-5.64,18.53L995,375.53a18,18,0,0,1-7.68,4l-139.4,33.28a19.17,19.17,0,0,1-23-13.83l-8.14-31.43a22.78,22.78,0,0,1,6.09-24l32.42-24,11.12-93-53.19,5.93a11.22,11.22,0,0,1-12.21-8.5l-7.76-38A13.14,13.14,0,0,1,807.05,169.71Z"/><path class="ec95aad5-fd98-4a79-b5c5-712930055d3c" d="M1050.87,205.81c-10.59-2.67-19.93,9-17.74,22.16,4.88,29.39,13.11,88,10.54,137-3.59,68.43,28.35,79.63,47.59,72.48s52.19-56.41,7.65-170.42C1081.8,223.24,1064.08,209.14,1050.87,205.81Z"/><path class="fde1fcbb-30e1-4900-b644-25cdeae3ea5f" d="M370.09,456,373.2,461q-6.87,3.49-14.27,7.35a31,31,0,0,0-1,6.09,91,91,0,0,1,10.24-1.94l.48,5.77q-5.15.84-10.22,2.05A4.9,4.9,0,0,0,363.2,484a28.94,28.94,0,0,0,10.91-1c5-1.42,8.67-3.17,11-5.28a5.11,5.11,0,0,0,1.74-3.73q-5.3.93-10.2,1.89l-.24-5.95q4.89-1.06,9.6-1.89a5.91,5.91,0,0,0-2.32-3.14,6.31,6.31,0,0,0-3.43.16c-1.3.36-3.22,1-5.77,1.84-.16-2.16-.33-4.31-.5-6.47,2.27-.78,4.38-1.45,6.34-2q5.29-1.49,8.75.55c2.59,1.5,4.32,4.57,5.19,9.24q1.45,7.75-2.69,12.29a25.38,25.38,0,0,1-4.27,3.2,44.42,44.42,0,0,0,0,6.45c.4,2.16,1.49,3,3.23,2.52a47.12,47.12,0,0,0,7.12-3.91l2.09,5.45a43.55,43.55,0,0,1-9.33,4.46l-1.08.3a7.65,7.65,0,0,1-5.88-.78,6.33,6.33,0,0,1-2.85-4.53,36.25,36.25,0,0,1-.44-6.7c-1.65.61-3.4,1.16-5.25,1.69a50.22,50.22,0,0,1-7.61,1.58q-1.57,7.28-2.8,15.72l-7-.32q1.13-8.48,2.71-15.33a.34.34,0,0,0-.17-.06c-4.79-.7-7.62-3.44-8.52-8.22a31.19,31.19,0,0,1,.05-11.95l-1.8-3.51Q360.47,460.67,370.09,456Z"/><path class="fde1fcbb-30e1-4900-b644-25cdeae3ea5f" d="M424.86,439.47a19.3,19.3,0,0,0,3.51,4.06q8.06-2.32,16.46-4.4c.44,1.53.89,3.05,1.34,4.58-2.58.63-5.18,1.29-7.78,2-.15,1.1-.28,2.2-.36,3.29q5.09-1.38,10.3-2.66c.41,1.39.84,2.78,1.26,4.16q-21.1,5.17-42.24,12.48c-.39-1.38-.8-2.77-1.2-4.15q4.77-1.65,9.76-3.27A18.48,18.48,0,0,1,414.3,453l-6.24,2.18-1.23-4.58q7-2.55,14.43-4.9a27,27,0,0,1-1.77-2.26ZM413,461.89l4.78-.19a99.66,99.66,0,0,1,13.73-4.59,44.4,44.4,0,0,1,9.19-1.67c3.11-.31,5.49,0,7.14.95,1.67.65,2.77,2.44,3.31,5.32.05.25.09.51.14.76a5.75,5.75,0,0,1-1.86,5.09c-1.93,2.22-6.91,4.3-15,6.33l-.88.22c.13.47.26.91.41,1.34,4.42-1.23,8.84-2.38,13.29-3.47.38,1.31.77,2.61,1.16,3.92q-6.87,1.68-13.29,3.46c.21.73.38,1.38.53,1.94l17.93-5.12c.42,1.46.84,2.93,1.25,4.39q-20.3,5.93-41.39,11.72c-.43-1.45-.86-2.9-1.3-4.35q8.17-2.25,16.48-4.64c-.16-.67-.31-1.31-.46-1.91q-6.56,1.94-12.56,3.94l-1.17-4q6.32-2.07,12.66-4c-.17-.56-.35-1.08-.51-1.57a42.75,42.75,0,0,1-10.18,1.3c-4.21-.18-6.59-1.73-7.14-4.67Q408.61,468.55,413,461.89Zm10.32,4.34c-.22-.61-.46-1.23-.72-1.84q-3.57,1.41-6.94,3a3,3,0,0,0-.12.83Zm1.81,5.35c-.2-.7-.42-1.35-.64-2l-7.27,1.88a4.71,4.71,0,0,0,2.27.58A21.3,21.3,0,0,0,425.17,471.58Zm-2.67-18.13q4.54-1.38,9.21-2.72c.05-1.08.14-2.17.26-3.27q-5.61,1.59-11.2,3.4A19.46,19.46,0,0,0,422.5,453.45Zm9.48,8c-.75.19-1.49.4-2.21.61.24.69.5,1.45.81,2.31l8.46-2.14.45,3.57-7.84,2c.19.66.4,1.39.62,2.19l.41-.11q4.29-1.08,7.27-2.14a10.34,10.34,0,0,0,3.72-2,2.57,2.57,0,0,0,.89-2.46,3.57,3.57,0,0,0-3.58-3.32Q439,459.68,432,461.47Z"/><path class="fde1fcbb-30e1-4900-b644-25cdeae3ea5f" d="M469.78,430.36a34,34,0,0,0,3.9,5.64c2.08-.62,4.12-1.17,6.12-1.62q.84,2.81,1.69,5.63a100,100,0,0,0-19.5,6.47c-.56-1.87-1.12-3.75-1.69-5.62q3.26-1.37,6.48-2.55a37.07,37.07,0,0,1-2.54-4.09Zm10.27,20.21q.65,2.4,1.27,4.82A116.34,116.34,0,0,0,465.8,460l-1.26-4.76A120.5,120.5,0,0,1,480.05,450.57Zm-1-7.29c.43,1.53.85,3.07,1.28,4.6a108.46,108.46,0,0,0-14,4.18l-1.29-4.6A116.33,116.33,0,0,1,479.08,443.28Zm-11.37,17.4,4.68,0a12.5,12.5,0,0,1,2.29-.74,27.77,27.77,0,0,1,4.18-.7,5,5,0,0,1,3.38.82.72.72,0,0,1,.24.11c.28-1.8.54-3.47.8-5l5.42.48a96.35,96.35,0,0,0-1.52,10.14l-2.18-.2c0,.08,0,.14,0,.21s.09.44.13.66a6.6,6.6,0,0,1-1.41,5.76,10.18,10.18,0,0,1-6,3.33l-.82.19c-3.34.77-5.9.63-7.68-.45a6.24,6.24,0,0,1-2.49-4.37A20.43,20.43,0,0,1,467.71,460.68Zm7.66,4.13a8.25,8.25,0,0,0-2.79,2.08,10,10,0,0,0,.14,1.35,4,4,0,0,0,1,2.32,2.46,2.46,0,0,0,2.32.32,3.32,3.32,0,0,0,2.46-1.53,5.08,5.08,0,0,0,.1-3c-.29-1.18-.76-1.79-1.41-1.81A9.29,9.29,0,0,0,475.37,464.81Zm20-39.85a10.84,10.84,0,0,1,7.74.8,12.42,12.42,0,0,1,4.11,7.42c.11.56.21,1.13.32,1.69a34.5,34.5,0,0,1-1.23,14.28l-6.63.22a25.92,25.92,0,0,0,1.55-12.27,14.64,14.64,0,0,0-2-5.75,3.87,3.87,0,0,0-1.84-.61,218,218,0,0,0-4.75,21.68l-6.32-.72c.39-1.91.81-3.75,1.23-5.55a36.56,36.56,0,0,0-6.64-3.87c1.09-1.48,2.17-2.95,3.27-4.42a22.31,22.31,0,0,1,4.68,2.29c.58-2.69,1.14-5.22,1.7-7.62a28.72,28.72,0,0,0-7.48,4.35c-1-1.77-2.09-3.53-3.14-5.3A44.72,44.72,0,0,1,495.33,425Zm-4.5,28.28h6.46a32.9,32.9,0,0,0-.73,3.31l2.69-4.38a27.92,27.92,0,0,1,4.2,1.8l1.72-2.66a26,26,0,0,1,8.54,5.46l-3.1,4.44q-1.89-1.45-4.14-2.89c-.73,1.09-1.47,2.17-2.2,3.25a66.57,66.57,0,0,0-7.79-4.58,14.93,14.93,0,0,0-.23,5.43,3.41,3.41,0,0,0,1.11,2.21,3.21,3.21,0,0,0,2.82.39c1.48-.32,3.85-1.48,7.1-3.46.68,1.84,1.37,3.68,2.05,5.53a35.6,35.6,0,0,1-9,3.8c-2.89.64-5.16.52-6.79-.36a7.49,7.49,0,0,1-3.39-4.62A24.76,24.76,0,0,1,490.83,453.24Z"/><path class="fde1fcbb-30e1-4900-b644-25cdeae3ea5f" d="M522.62,419.09l6.59.77c-.32,1.59-.64,3.21-1,4.84q6.22-.85,12.19-1.41c.21,2.38.41,4.75.62,7.13-1.47.18-2.92.35-4.36.5-.32,2.58-.62,5.19-.92,7.8,1.74-.46,3.45-.85,5.15-1.19l1.83,6.45c-2.65.53-5.21,1.13-7.66,1.81-.17,1.59-.31,3.18-.41,4.77a47.81,47.81,0,0,0,9.91-1l.63,6.85a41.78,41.78,0,0,1-11.11.89c-.14,2.12-.27,4.23-.38,6.31l-6.88,0q.42-8.13,1.09-15.57-2.67,1-5.1,2.07L521,443.67q3.78-1.59,7.63-2.86c.31-3.12.66-6.12,1-9l-2.73.35c-.31,2.16-.62,4.32-.89,6.47l-6.59-.76Q521.25,427.1,522.62,419.09Zm22.2.19,5.59.07c.56-.25,1.15-.49,1.75-.71,3.24-.63,5.43-.71,6.54-.24,1.67.28,3.19,1.41,4.59,3.39,1.54,1.8,2.93,5.77,4.13,11.91s1.27,10.58.45,13.5q-2,6.6-8.3,7.79-6.78,1.31-10.69-2.46c-2.52-2.64-4.32-6.81-5.37-12.53A43.23,43.23,0,0,1,544.82,419.28Zm8.36,5.77a18.31,18.31,0,0,0-3.25,1.86,33.15,33.15,0,0,0,.09,11.17c.82,4.49,1.76,7.44,2.81,8.83a4.48,4.48,0,0,0,4.89,1.83,4.35,4.35,0,0,0,3.78-3.6,26.27,26.27,0,0,0-.48-9q-1.85-10.05-3.28-10.51a3.17,3.17,0,0,0-2.3-.84A14.76,14.76,0,0,0,553.18,425.05Z"/><path class="fde1fcbb-30e1-4900-b644-25cdeae3ea5f" d="M590.55,405l1.76,3.16c0-.15.05-.29.08-.44,1.72.06,3.36.15,4.91.27.65-1.5,1.31-2.92,2-4.28l4,.44q-1,2.08-1.88,4.26c1.52.17,2.94.37,4.27.61-.16,1.18-.31,2.37-.47,3.55-1.83-.26-3.57-.47-5.23-.61-.53,1.41-1,2.84-1.51,4.31l-4-.65c.49-1.43,1-2.79,1.44-4.08-1.38-.15-2.71-.28-4-.38.09-.6.17-1.2.26-1.8l-8.39,3.18c0,.83,0,1.63,0,2.41q3.93-.43,7.72-.72l.51,3.95c-2.77.24-5.41.46-7.94.66.08.87.21,1.75.38,2.65,0,0,0,.07,0,.1,2.76-.31,5.43-.56,8-.72.17,1.32.34,2.64.52,4l-7.69.61c.3,1.25.66,2.51,1.06,3.75a76.35,76.35,0,0,1,12.91-5l-2.68-.34q.64-1.71,1.29-3.15l-4.75-.57c.11-1.06.22-2.13.32-3.19q3.18.13,5.95.41c.61-1.13,1.21-2.23,1.8-3.29l4,.45a32.4,32.4,0,0,0-1.72,3.38c1.38.19,2.71.43,4,.72-.11,1.08-.21,2.16-.31,3.24-1.82-.22-3.55-.46-5.2-.72-.34.87-.71,1.76-1.12,2.64q3-.76,5.85-1.25a48.91,48.91,0,0,1,7.7-.74,15.72,15.72,0,0,0,.36-2.41l-6.61.56c-.06-1.11-.12-2.21-.19-3.32,2.41-.26,4.73-.47,7-.62,0-.78-.07-1.46-.11-2.06q-3.63.27-7,.58c-.08-1.14-.17-2.29-.26-3.43,2.41-.25,4.72-.46,6.93-.61a4.75,4.75,0,0,0-1.26-2.78,2.54,2.54,0,0,0-1.74-.19,22.14,22.14,0,0,0-4.54,2.25L605,405.51a16.18,16.18,0,0,1,6.84-2.84,6.94,6.94,0,0,1,4.57.8c1.69,1,2.84,3,3.39,6l.24,1.29a30.49,30.49,0,0,1,.29,7.42,25.65,25.65,0,0,1-.38,4c2.87.71,4.43,1.8,4.7,3.25l.18,1A15.42,15.42,0,0,1,623,433l-6.86-.23q2.48-3.06,2.13-4.93c-.2-1.1-1.29-1.71-3.26-1.81a53.43,53.43,0,0,0-8.84.93,77.07,77.07,0,0,0-20.37,7.66q1,2.49,2.42,5l-5.66,2.92a68.22,68.22,0,0,1-5.22-11.79l2.93-1.49a69.13,69.13,0,0,1-1.63-6.84,44.22,44.22,0,0,1-.73-7.7c-.9.37-1.78.73-2.64,1.06l-2.09-4.09Q582.41,407.92,590.55,405Zm14.13,24.86a9.86,9.86,0,0,1,5.5.31,4.22,4.22,0,0,1,3,3.6,4,4,0,0,1-.57,3c3.14-.67,6.26-1.26,9.32-1.78q.68,2.55,1.36,5.11-6.82,1.08-13.43,2.56c.12.47.23,1,.32,1.49q.84,4.55-4.34,8l-5.17-2.54c2.72-1.5,3.91-3.11,3.59-4.87a6.76,6.76,0,0,0-.2-.77q-8.92,2.2-17.57,4.85c-.46-1.68-.91-3.35-1.36-5q8.4-2.56,16.46-4.57c.43-.73.83-1.45,1.26-2.18a5.59,5.59,0,0,1,2.64.46c.79-.95,1.48-1.89,2.1-2.8a1.37,1.37,0,0,0,.27-.85c0-.24-1.07-.19-3.07.14a46.84,46.84,0,0,0-14,5.81c-.61-1.24-1.21-2.49-1.81-3.73Q597.79,431,604.68,429.81Z"/><path class="fde1fcbb-30e1-4900-b644-25cdeae3ea5f" d="M657.41,414a22.7,22.7,0,0,0,3.66,4.39,44.87,44.87,0,0,1,8.7-.57c3.37.14,6,.93,7.78,2.36q2.75,1.66,3.72,7.08l.18.93a8.62,8.62,0,0,1-1.6,6.92c-1.83,2.73-6.82,4.63-15,5.76l-5.43.77a47.34,47.34,0,0,1-12.82.36c-4.23-.83-6.64-2.89-7.25-6.21q-1.1-6,.93-14.37l6,.43a64.47,64.47,0,0,1,6.69-2c-.47-.68-1-1.39-1.45-2.14l-3-.09c.09-1.05.18-2,.27-2.92q-5,2.18-10.16,4.61c-.65-1.27-1.31-2.54-2-3.81,4.2-2.06,8.26-3.91,12.21-5.55a25.25,25.25,0,0,0-.34-2.72,1.55,1.55,0,0,0,0-.21q-6,2.85-12.49,6l-2-3.74q7-3.57,13.28-6.42a2.55,2.55,0,0,0-.49-.63,3.12,3.12,0,0,0-2.8-.8,24.27,24.27,0,0,0-9.84,4.84c-.86-1.55-1.71-3.11-2.56-4.66a29.92,29.92,0,0,1,13-5.44,7.89,7.89,0,0,1,6.5,1.87,12.69,12.69,0,0,1,3.67,7c.12.61.22,1.21.34,1.82a58.46,58.46,0,0,1,.24,8.28C656,414.79,656.72,414.39,657.41,414Zm3.19,10.21A60.08,60.08,0,0,0,646.18,428c-.09.72-.13,1.41-.16,2a97,97,0,0,1,13.78-3l1.32,4.93a89.57,89.57,0,0,0-13.82,3,4.37,4.37,0,0,0,2.6,1.16q3.24.58,12.54-.73a50.77,50.77,0,0,0,7.25-1.49,6.89,6.89,0,0,0,3.64-2.14c.65-.7.87-1.88.67-3.56-.48-2.63-1.78-4.18-3.92-4.63C668.75,423.32,665.6,423.49,660.6,424.2Zm6.2-31.61a8.21,8.21,0,0,1,6.66,2,13.53,13.53,0,0,1,3.83,7.37c.11.62.23,1.25.35,1.87a43.59,43.59,0,0,1-.65,11.54l-6.64-.43c.32-1.5.58-2.9.76-4.21-3.35,1.56-6.8,3.21-10.38,4.95l-2-3.82q6.5-3.31,12.53-5.95a11.86,11.86,0,0,0-.18-1.89c-.07-.35-.15-.69-.24-1q-6,2.88-12.38,6.19l-2-3.82q6.72-3.57,12.87-6.44l-.14-.19a3.44,3.44,0,0,0-3-.92,24.35,24.35,0,0,0-10.19,5.11q-1.29-2.37-2.57-4.74A29.67,29.67,0,0,1,666.8,392.59Z"/><path class="fde1fcbb-30e1-4900-b644-25cdeae3ea5f" d="M707.47,387.59a33.42,33.42,0,0,0,4,6.67c1.46-.24,3-.45,4.47-.62.34,1.22.68,2.44,1,3.66a67.64,67.64,0,0,1,1.64-11l6,.67c-.25,1.16-.5,2.34-.73,3.54q5.25,0,10.26.34c.25,2,.48,4.06.73,6.1q-6.18-.26-11.72-.34c-.16,1.69-.26,3.42-.32,5.21a14.79,14.79,0,0,1,4-1,13.93,13.93,0,0,1,5.54.42,4.75,4.75,0,0,1,3.29,3.7q.43,2.4-1.66,7.37a9.67,9.67,0,0,1,1.23,2.43c1.44-.37,2.87-.79,4.29-1.25.54,2,1.09,3.9,1.63,5.85-1.55.48-3.12.94-4.68,1.39a11.62,11.62,0,0,1-3.55,9.64l-5.14-2.8a8.67,8.67,0,0,0,2.87-5.37c-2.23.49-4.49.93-6.81,1.32-.54-1.94-1.09-3.89-1.63-5.84,2.48-.41,5-.92,7.5-1.51a6.28,6.28,0,0,0-4.62-3.44l2.41-4.15a5.82,5.82,0,0,1,2.12.41,8.7,8.7,0,0,0,.33-2.8c0-.29-1.12-.31-3.21-.09a14.15,14.15,0,0,0-5.52,3l-2.12-5a25.73,25.73,0,0,1,2.26-1.48l-4.5-.4c0-.88,0-1.73,0-2.56-1.54.18-3.05.39-4.52.63-.36,2.67-.69,5.43-1,8.27a9.47,9.47,0,0,1,2.24-.69,9.32,9.32,0,0,1,5.18.69,6.37,6.37,0,0,1,3.09,4,16.48,16.48,0,0,1-.38,6.33A35.11,35.11,0,0,1,719,427l-5.42-1.72a36.13,36.13,0,0,0,2.19-8.25,6.44,6.44,0,0,0,.42-3.19c-.06-.38-1-.47-2.88-.26a10.12,10.12,0,0,0-2.79,1.5q-.51,5-.88,10.23l-6.17-1.19q.79-12.45,2.34-22.5a42.62,42.62,0,0,0-4.84,1.49c-.28-.94-.56-1.88-.83-2.83-.11,1.21-.23,2.41-.35,3.61a40.83,40.83,0,0,0-9.32-2.51q.32-3,.65-6a29.26,29.26,0,0,1,8.37,1.89c1.81-.61,3.62-1.13,5.41-1.56a39,39,0,0,1-2.89-5.14Zm-16.21,18a29.61,29.61,0,0,1,9.29,2.31c-.19,2-.4,4-.6,6a40.2,40.2,0,0,0-9.3-2.41C690.85,409.48,691.06,407.52,691.26,405.56Zm3.26,9.44,6.86.6a24.11,24.11,0,0,0-.3,8.82,5.62,5.62,0,0,0,3.18,4.42c1.67.86,4.2,1.09,7.61.7A35,35,0,0,0,724,425.39q1.14,2.83,2.29,5.66a35.84,35.84,0,0,1-12.71,4.2l-2.11.25a21.89,21.89,0,0,1-10.64-1.14,10.29,10.29,0,0,1-6.13-7.87A39.78,39.78,0,0,1,694.52,415Z"/><path class="fde1fcbb-30e1-4900-b644-25cdeae3ea5f" d="M771.72,382.91c.38,1.48.78,2.95,1.16,4.43a130.76,130.76,0,0,0-13.52,1.85c.17.56.32,1.09.45,1.61a56.54,56.54,0,0,1,6.62-1,12.75,12.75,0,0,1,6.05.8,5.1,5.1,0,0,1,3,3.75l.06.36a13.17,13.17,0,0,1,0,1.87c.88-.11,1.74-.24,2.59-.39q-1.74-6.76-3.46-15.47l5.94-.29q1.56,8.67,3.23,14.76,4.08-.75,8.27-1.82.85,2.94,1.73,5.89c-2.73.67-5.48,1.27-8.27,1.81.37,1,.71,2,1,2.9.54,1.45,1.07,2.8,1.6,4,1-1.64,2-3.21,3-4.71l4.82,3.63q-2.2,3.69-4.44,7.48c.66,1,1.33,1.87,2,2.67a20,20,0,0,0,5.41,4.39c-.59,2-1.18,4.07-1.76,6.1a23.29,23.29,0,0,1-8.93-7.42c-1.18,2-2.32,4-3.45,6l-5-3.64q2.34-4.41,4.68-8.48a88.47,88.47,0,0,1-4.47-11l-.29-1-3.51.5c-.36-1.25-.73-2.5-1.09-3.74a12,12,0,0,1-.82,2.36l-4.85-.54c.08.53.15,1.06.23,1.58l-7.35.13c0,.14,0,.25.06.31a2.65,2.65,0,0,0,1,1.78,3.08,3.08,0,0,0,2.39.53c1.62-.15,4.21-1.09,7.8-2.82.43,1.15.87,2.3,1.3,3.46a27,27,0,0,1-8.92,3,10.68,10.68,0,0,1-5.61-.66,5.26,5.26,0,0,1-2.6-3.11,20.33,20.33,0,0,1-.26-2.32c-.8,0-1.62,0-2.45.07,0-1.3,0-2.59-.07-3.88l2.65-.15a14.23,14.23,0,0,1,.68-2.88c-1.84.6-3.5,1.21-4.95,1.85q1,15.72,3.78,32.57l-5.07,0a301.49,301.49,0,0,1-3.88-34.57c-.13-.22-.27-.44-.38-.65a3,3,0,0,1,.34-.14l-.09-2.23h5a1.11,1.11,0,0,0,0,.26c.36-.13.74-.26,1.14-.37-1-3.39-1.89-6.44-2.65-9.18l5.7-1.18c.27.94.54,1.85.81,2.75A128.61,128.61,0,0,1,771.72,382.91Zm-15.53,26.4a202.4,202.4,0,0,1,21.37-.89c.08,1.27.14,2.54.21,3.81-7.12,0-14.24.29-21.31.89C756.37,411.85,756.29,410.58,756.19,409.31Zm2.79,5,3.41.64a41.22,41.22,0,0,1,4.68-.68c4.22-.38,7.12-.26,8.68.36a3.46,3.46,0,0,1,2.5,2.82c0,.18.09.35.14.53.28,1.54,0,2.61-1,3.22-.27.13-.54.26-.87.4-.29.94-.54,1.87-.75,2.78,1.64-.18,3.29-.33,5-.47.28,1.13.55,2.26.82,3.39q-11,.92-22,2.94c-.27-1.09-.53-2.19-.8-3.28,1.21-.25,2.41-.49,3.64-.71-.53-1-1-2.12-1.54-3.32a3.2,3.2,0,0,1-.77-.2,3.49,3.49,0,0,1-2-2.74A9.56,9.56,0,0,1,759,414.32Zm-.05-18.85,4.64.53c-.29.88-.53,1.7-.71,2.46,2.16-.09,4.28-.14,6.41-.15.08.65.16,1.3.25,1.95a7.22,7.22,0,0,0,1.18-4.42,2.14,2.14,0,0,0-1.28-1.59,8.08,8.08,0,0,0-2.85-.17,51.61,51.61,0,0,0-7.59,1.38Zm9.14,21.7a11.62,11.62,0,0,0-5.31,1.86,1.22,1.22,0,0,0,.66.8,8.59,8.59,0,0,0,3.33.18l1.59-.14a31.41,31.41,0,0,0,4.64-.68c.55-.22.78-.56.7-1a1.47,1.47,0,0,0-1.35-1.11A24.13,24.13,0,0,0,768.07,417.17Zm-1.21,8.42c1.29-.22,2.61-.41,4-.56.22-.87.44-1.7.65-2.46l-2.41.21-2.88.26-.72.06Q766.13,424.38,766.86,425.59Zm18.86-43.42a25.75,25.75,0,0,1,7.18,6l-2.84,3.9a72,72,0,0,0-6.93-6.06C784,384.76,784.85,383.46,785.72,382.17Z"/><path class="a46efb6f-cb5e-4422-adea-2732aae10eaa" d="M370.09,456,373.2,461q-6.87,3.49-14.27,7.35a31,31,0,0,0-1,6.09,91,91,0,0,1,10.24-1.94l.48,5.77q-5.15.84-10.22,2.05A4.9,4.9,0,0,0,363.2,484a28.94,28.94,0,0,0,10.91-1c5-1.42,8.67-3.17,11-5.28a5.11,5.11,0,0,0,1.74-3.73q-5.3.93-10.2,1.89l-.24-5.95q4.89-1.06,9.6-1.89a5.91,5.91,0,0,0-2.32-3.14,6.31,6.31,0,0,0-3.43.16c-1.3.36-3.22,1-5.77,1.84-.16-2.16-.33-4.31-.5-6.47,2.27-.78,4.38-1.45,6.34-2q5.29-1.49,8.75.55c2.59,1.5,4.32,4.57,5.19,9.24q1.45,7.75-2.69,12.29a25.38,25.38,0,0,1-4.27,3.2,44.42,44.42,0,0,0,0,6.45c.4,2.16,1.49,3,3.23,2.52a47.12,47.12,0,0,0,7.12-3.91l2.09,5.45a43.55,43.55,0,0,1-9.33,4.46l-1.08.3a7.65,7.65,0,0,1-5.88-.78,6.33,6.33,0,0,1-2.85-4.53,36.25,36.25,0,0,1-.44-6.7c-1.65.61-3.4,1.16-5.25,1.69a50.22,50.22,0,0,1-7.61,1.58q-1.57,7.28-2.8,15.72l-7-.32q1.13-8.48,2.71-15.33a.34.34,0,0,0-.17-.06c-4.79-.7-7.62-3.44-8.52-8.22a31.19,31.19,0,0,1,.05-11.95l-1.8-3.51Q360.47,460.67,370.09,456Z"/><path class="a46efb6f-cb5e-4422-adea-2732aae10eaa" d="M424.86,439.47a19.3,19.3,0,0,0,3.51,4.06q8.06-2.32,16.46-4.4c.44,1.53.89,3.05,1.34,4.58-2.58.63-5.18,1.29-7.78,2-.15,1.1-.28,2.2-.36,3.29q5.09-1.38,10.3-2.66c.41,1.39.84,2.78,1.26,4.16q-21.1,5.17-42.24,12.48c-.39-1.38-.8-2.77-1.2-4.15q4.77-1.65,9.76-3.27A18.48,18.48,0,0,1,414.3,453l-6.24,2.18-1.23-4.58q7-2.55,14.43-4.9a27,27,0,0,1-1.77-2.26ZM413,461.89l4.78-.19a99.66,99.66,0,0,1,13.73-4.59,44.4,44.4,0,0,1,9.19-1.67c3.11-.31,5.49,0,7.14.95,1.67.65,2.77,2.44,3.31,5.32.05.25.09.51.14.76a5.75,5.75,0,0,1-1.86,5.09c-1.93,2.22-6.91,4.3-15,6.33l-.88.22c.13.47.26.91.41,1.34,4.42-1.23,8.84-2.38,13.29-3.47.38,1.31.77,2.61,1.16,3.92q-6.87,1.68-13.29,3.46c.21.73.38,1.38.53,1.94l17.93-5.12c.42,1.46.84,2.93,1.25,4.39q-20.3,5.93-41.39,11.72c-.43-1.45-.86-2.9-1.3-4.35q8.17-2.25,16.48-4.64c-.16-.67-.31-1.31-.46-1.91q-6.56,1.94-12.56,3.94l-1.17-4q6.32-2.07,12.66-4c-.17-.56-.35-1.08-.51-1.57a42.75,42.75,0,0,1-10.18,1.3c-4.21-.18-6.59-1.73-7.14-4.67Q408.61,468.55,413,461.89Zm10.32,4.34c-.22-.61-.46-1.23-.72-1.84q-3.57,1.41-6.94,3a3,3,0,0,0-.12.83Zm1.81,5.35c-.2-.7-.42-1.35-.64-2l-7.27,1.88a4.71,4.71,0,0,0,2.27.58A21.3,21.3,0,0,0,425.17,471.58Zm-2.67-18.13q4.54-1.38,9.21-2.72c.05-1.08.14-2.17.26-3.27q-5.61,1.59-11.2,3.4A19.46,19.46,0,0,0,422.5,453.45Zm9.48,8c-.75.19-1.49.4-2.21.61.24.69.5,1.45.81,2.31l8.46-2.14.45,3.57-7.84,2c.19.66.4,1.39.62,2.19l.41-.11q4.29-1.08,7.27-2.14a10.34,10.34,0,0,0,3.72-2,2.57,2.57,0,0,0,.89-2.46,3.57,3.57,0,0,0-3.58-3.32Q439,459.68,432,461.47Z"/><path class="a46efb6f-cb5e-4422-adea-2732aae10eaa" d="M469.78,430.36a34,34,0,0,0,3.9,5.64c2.08-.62,4.12-1.17,6.12-1.62q.84,2.81,1.69,5.63a100,100,0,0,0-19.5,6.47c-.56-1.87-1.12-3.75-1.69-5.62q3.26-1.37,6.48-2.55a37.07,37.07,0,0,1-2.54-4.09Zm10.27,20.21q.65,2.4,1.27,4.82A116.34,116.34,0,0,0,465.8,460l-1.26-4.76A120.5,120.5,0,0,1,480.05,450.57Zm-1-7.29c.43,1.53.85,3.07,1.28,4.6a108.46,108.46,0,0,0-14,4.18l-1.29-4.6A116.33,116.33,0,0,1,479.08,443.28Zm-11.37,17.4,4.68,0a12.5,12.5,0,0,1,2.29-.74,27.77,27.77,0,0,1,4.18-.7,5,5,0,0,1,3.38.82.72.72,0,0,1,.24.11c.28-1.8.54-3.47.8-5l5.42.48a96.35,96.35,0,0,0-1.52,10.14l-2.18-.2c0,.08,0,.14,0,.21s.09.44.13.66a6.6,6.6,0,0,1-1.41,5.76,10.18,10.18,0,0,1-6,3.33l-.82.19c-3.34.77-5.9.63-7.68-.45a6.24,6.24,0,0,1-2.49-4.37A20.43,20.43,0,0,1,467.71,460.68Zm7.66,4.13a8.25,8.25,0,0,0-2.79,2.08,10,10,0,0,0,.14,1.35,4,4,0,0,0,1,2.32,2.46,2.46,0,0,0,2.32.32,3.32,3.32,0,0,0,2.46-1.53,5.08,5.08,0,0,0,.1-3c-.29-1.18-.76-1.79-1.41-1.81A9.29,9.29,0,0,0,475.37,464.81Zm20-39.85a10.84,10.84,0,0,1,7.74.8,12.42,12.42,0,0,1,4.11,7.42c.11.56.21,1.13.32,1.69a34.5,34.5,0,0,1-1.23,14.28l-6.63.22a25.92,25.92,0,0,0,1.55-12.27,14.64,14.64,0,0,0-2-5.75,3.87,3.87,0,0,0-1.84-.61,218,218,0,0,0-4.75,21.68l-6.32-.72c.39-1.91.81-3.75,1.23-5.55a36.56,36.56,0,0,0-6.64-3.87c1.09-1.48,2.17-2.95,3.27-4.42a22.31,22.31,0,0,1,4.68,2.29c.58-2.69,1.14-5.22,1.7-7.62a28.72,28.72,0,0,0-7.48,4.35c-1-1.77-2.09-3.53-3.14-5.3A44.72,44.72,0,0,1,495.33,425Zm-4.5,28.28h6.46a32.9,32.9,0,0,0-.73,3.31l2.69-4.38a27.92,27.92,0,0,1,4.2,1.8l1.72-2.66a26,26,0,0,1,8.54,5.46l-3.1,4.44q-1.89-1.45-4.14-2.89c-.73,1.09-1.47,2.17-2.2,3.25a66.57,66.57,0,0,0-7.79-4.58,14.93,14.93,0,0,0-.23,5.43,3.41,3.41,0,0,0,1.11,2.21,3.21,3.21,0,0,0,2.82.39c1.48-.32,3.85-1.48,7.1-3.46.68,1.84,1.37,3.68,2.05,5.53a35.6,35.6,0,0,1-9,3.8c-2.89.64-5.16.52-6.79-.36a7.49,7.49,0,0,1-3.39-4.62A24.76,24.76,0,0,1,490.83,453.24Z"/><path class="a46efb6f-cb5e-4422-adea-2732aae10eaa" d="M522.62,419.09l6.59.77c-.32,1.59-.64,3.21-1,4.84q6.22-.85,12.19-1.41c.21,2.38.41,4.75.62,7.13-1.47.18-2.92.35-4.36.5-.32,2.58-.62,5.19-.92,7.8,1.74-.46,3.45-.85,5.15-1.19l1.83,6.45c-2.65.53-5.21,1.13-7.66,1.81-.17,1.59-.31,3.18-.41,4.77a47.81,47.81,0,0,0,9.91-1l.63,6.85a41.78,41.78,0,0,1-11.11.89c-.14,2.12-.27,4.23-.38,6.31l-6.88,0q.42-8.13,1.09-15.57-2.67,1-5.1,2.07L521,443.67q3.78-1.59,7.63-2.86c.31-3.12.66-6.12,1-9l-2.73.35c-.31,2.16-.62,4.32-.89,6.47l-6.59-.76Q521.25,427.1,522.62,419.09Zm22.2.19,5.59.07c.56-.25,1.15-.49,1.75-.71,3.24-.63,5.43-.71,6.54-.24,1.67.28,3.19,1.41,4.59,3.39,1.54,1.8,2.93,5.77,4.13,11.91s1.27,10.58.45,13.5q-2,6.6-8.3,7.79-6.78,1.31-10.69-2.46c-2.52-2.64-4.32-6.81-5.37-12.53A43.23,43.23,0,0,1,544.82,419.28Zm8.36,5.77a18.31,18.31,0,0,0-3.25,1.86,33.15,33.15,0,0,0,.09,11.17c.82,4.49,1.76,7.44,2.81,8.83a4.48,4.48,0,0,0,4.89,1.83,4.35,4.35,0,0,0,3.78-3.6,26.27,26.27,0,0,0-.48-9q-1.85-10.05-3.28-10.51a3.17,3.17,0,0,0-2.3-.84A14.76,14.76,0,0,0,553.18,425.05Z"/><path class="a46efb6f-cb5e-4422-adea-2732aae10eaa" d="M590.55,405l1.76,3.16c0-.15.05-.29.08-.44,1.72.06,3.36.15,4.91.27.65-1.5,1.31-2.92,2-4.28l4,.44q-1,2.08-1.88,4.26c1.52.17,2.94.37,4.27.61-.16,1.18-.31,2.37-.47,3.55-1.83-.26-3.57-.47-5.23-.61-.53,1.41-1,2.84-1.51,4.31l-4-.65c.49-1.43,1-2.79,1.44-4.08-1.38-.15-2.71-.28-4-.38.09-.6.17-1.2.26-1.8l-8.39,3.18c0,.83,0,1.63,0,2.41q3.93-.43,7.72-.72l.51,3.95c-2.77.24-5.41.46-7.94.66.08.87.21,1.75.38,2.65,0,0,0,.07,0,.1,2.76-.31,5.43-.56,8-.72.17,1.32.34,2.64.52,4l-7.69.61c.3,1.25.66,2.51,1.06,3.75a76.35,76.35,0,0,1,12.91-5l-2.68-.34q.64-1.71,1.29-3.15l-4.75-.57c.11-1.06.22-2.13.32-3.19q3.18.13,5.95.41c.61-1.13,1.21-2.23,1.8-3.29l4,.45a32.4,32.4,0,0,0-1.72,3.38c1.38.19,2.71.43,4,.72-.11,1.08-.21,2.16-.31,3.24-1.82-.22-3.55-.46-5.2-.72-.34.87-.71,1.76-1.12,2.64q3-.76,5.85-1.25a48.91,48.91,0,0,1,7.7-.74,15.72,15.72,0,0,0,.36-2.41l-6.61.56c-.06-1.11-.12-2.21-.19-3.32,2.41-.26,4.73-.47,7-.62,0-.78-.07-1.46-.11-2.06q-3.63.27-7,.58c-.08-1.14-.17-2.29-.26-3.43,2.41-.25,4.72-.46,6.93-.61a4.75,4.75,0,0,0-1.26-2.78,2.54,2.54,0,0,0-1.74-.19,22.14,22.14,0,0,0-4.54,2.25L605,405.51a16.18,16.18,0,0,1,6.84-2.84,6.94,6.94,0,0,1,4.57.8c1.69,1,2.84,3,3.39,6l.24,1.29a30.49,30.49,0,0,1,.29,7.42,25.65,25.65,0,0,1-.38,4c2.87.71,4.43,1.8,4.7,3.25l.18,1A15.42,15.42,0,0,1,623,433l-6.86-.23q2.48-3.06,2.13-4.93c-.2-1.1-1.29-1.71-3.26-1.81a53.43,53.43,0,0,0-8.84.93,77.07,77.07,0,0,0-20.37,7.66q1,2.49,2.42,5l-5.66,2.92a68.22,68.22,0,0,1-5.22-11.79l2.93-1.49a69.13,69.13,0,0,1-1.63-6.84,44.22,44.22,0,0,1-.73-7.7c-.9.37-1.78.73-2.64,1.06l-2.09-4.09Q582.41,407.92,590.55,405Zm14.13,24.86a9.86,9.86,0,0,1,5.5.31,4.22,4.22,0,0,1,3,3.6,4,4,0,0,1-.57,3c3.14-.67,6.26-1.26,9.32-1.78q.68,2.55,1.36,5.11-6.82,1.08-13.43,2.56c.12.47.23,1,.32,1.49q.84,4.55-4.34,8l-5.17-2.54c2.72-1.5,3.91-3.11,3.59-4.87a6.76,6.76,0,0,0-.2-.77q-8.92,2.2-17.57,4.85c-.46-1.68-.91-3.35-1.36-5q8.4-2.56,16.46-4.57c.43-.73.83-1.45,1.26-2.18a5.59,5.59,0,0,1,2.64.46c.79-.95,1.48-1.89,2.1-2.8a1.37,1.37,0,0,0,.27-.85c0-.24-1.07-.19-3.07.14a46.84,46.84,0,0,0-14,5.81c-.61-1.24-1.21-2.49-1.81-3.73Q597.79,431,604.68,429.81Z"/><path class="a46efb6f-cb5e-4422-adea-2732aae10eaa" d="M657.41,414a22.7,22.7,0,0,0,3.66,4.39,44.87,44.87,0,0,1,8.7-.57c3.37.14,6,.93,7.78,2.36q2.75,1.66,3.72,7.08l.18.93a8.62,8.62,0,0,1-1.6,6.92c-1.83,2.73-6.82,4.63-15,5.76l-5.43.77a47.34,47.34,0,0,1-12.82.36c-4.23-.83-6.64-2.89-7.25-6.21q-1.1-6,.93-14.37l6,.43a64.47,64.47,0,0,1,6.69-2c-.47-.68-1-1.39-1.45-2.14l-3-.09c.09-1.05.18-2,.27-2.92q-5,2.18-10.16,4.61c-.65-1.27-1.31-2.54-2-3.81,4.2-2.06,8.26-3.91,12.21-5.55a25.25,25.25,0,0,0-.34-2.72,1.55,1.55,0,0,0,0-.21q-6,2.85-12.49,6l-2-3.74q7-3.57,13.28-6.42a2.55,2.55,0,0,0-.49-.63,3.12,3.12,0,0,0-2.8-.8,24.27,24.27,0,0,0-9.84,4.84c-.86-1.55-1.71-3.11-2.56-4.66a29.92,29.92,0,0,1,13-5.44,7.89,7.89,0,0,1,6.5,1.87,12.69,12.69,0,0,1,3.67,7c.12.61.22,1.21.34,1.82a58.46,58.46,0,0,1,.24,8.28C656,414.79,656.72,414.39,657.41,414Zm3.19,10.21A60.08,60.08,0,0,0,646.18,428c-.09.72-.13,1.41-.16,2a97,97,0,0,1,13.78-3l1.32,4.93a89.57,89.57,0,0,0-13.82,3,4.37,4.37,0,0,0,2.6,1.16q3.24.58,12.54-.73a50.77,50.77,0,0,0,7.25-1.49,6.89,6.89,0,0,0,3.64-2.14c.65-.7.87-1.88.67-3.56-.48-2.63-1.78-4.18-3.92-4.63C668.75,423.32,665.6,423.49,660.6,424.2Zm6.2-31.61a8.21,8.21,0,0,1,6.66,2,13.53,13.53,0,0,1,3.83,7.37c.11.62.23,1.25.35,1.87a43.59,43.59,0,0,1-.65,11.54l-6.64-.43c.32-1.5.58-2.9.76-4.21-3.35,1.56-6.8,3.21-10.38,4.95l-2-3.82q6.5-3.31,12.53-5.95a11.86,11.86,0,0,0-.18-1.89c-.07-.35-.15-.69-.24-1q-6,2.88-12.38,6.19l-2-3.82q6.72-3.57,12.87-6.44l-.14-.19a3.44,3.44,0,0,0-3-.92,24.35,24.35,0,0,0-10.19,5.11q-1.29-2.37-2.57-4.74A29.67,29.67,0,0,1,666.8,392.59Z"/><path class="a46efb6f-cb5e-4422-adea-2732aae10eaa" d="M707.47,387.59a33.42,33.42,0,0,0,4,6.67c1.46-.24,3-.45,4.47-.62.34,1.22.68,2.44,1,3.66a67.64,67.64,0,0,1,1.64-11l6,.67c-.25,1.16-.5,2.34-.73,3.54q5.25,0,10.26.34c.25,2,.48,4.06.73,6.1q-6.18-.26-11.72-.34c-.16,1.69-.26,3.42-.32,5.21a14.79,14.79,0,0,1,4-1,13.93,13.93,0,0,1,5.54.42,4.75,4.75,0,0,1,3.29,3.7q.43,2.4-1.66,7.37a9.67,9.67,0,0,1,1.23,2.43c1.44-.37,2.87-.79,4.29-1.25.54,2,1.09,3.9,1.63,5.85-1.55.48-3.12.94-4.68,1.39a11.62,11.62,0,0,1-3.55,9.64l-5.14-2.8a8.67,8.67,0,0,0,2.87-5.37c-2.23.49-4.49.93-6.81,1.32-.54-1.94-1.09-3.89-1.63-5.84,2.48-.41,5-.92,7.5-1.51a6.28,6.28,0,0,0-4.62-3.44l2.41-4.15a5.82,5.82,0,0,1,2.12.41,8.7,8.7,0,0,0,.33-2.8c0-.29-1.12-.31-3.21-.09a14.15,14.15,0,0,0-5.52,3l-2.12-5a25.73,25.73,0,0,1,2.26-1.48l-4.5-.4c0-.88,0-1.73,0-2.56-1.54.18-3.05.39-4.52.63-.36,2.67-.69,5.43-1,8.27a9.47,9.47,0,0,1,2.24-.69,9.32,9.32,0,0,1,5.18.69,6.37,6.37,0,0,1,3.09,4,16.48,16.48,0,0,1-.38,6.33A35.11,35.11,0,0,1,719,427l-5.42-1.72a36.13,36.13,0,0,0,2.19-8.25,6.44,6.44,0,0,0,.42-3.19c-.06-.38-1-.47-2.88-.26a10.12,10.12,0,0,0-2.79,1.5q-.51,5-.88,10.23l-6.17-1.19q.79-12.45,2.34-22.5a42.62,42.62,0,0,0-4.84,1.49c-.28-.94-.56-1.88-.83-2.83-.11,1.21-.23,2.41-.35,3.61a40.83,40.83,0,0,0-9.32-2.51q.32-3,.65-6a29.26,29.26,0,0,1,8.37,1.89c1.81-.61,3.62-1.13,5.41-1.56a39,39,0,0,1-2.89-5.14Zm-16.21,18a29.61,29.61,0,0,1,9.29,2.31c-.19,2-.4,4-.6,6a40.2,40.2,0,0,0-9.3-2.41C690.85,409.48,691.06,407.52,691.26,405.56Zm3.26,9.44,6.86.6a24.11,24.11,0,0,0-.3,8.82,5.62,5.62,0,0,0,3.18,4.42c1.67.86,4.2,1.09,7.61.7A35,35,0,0,0,724,425.39q1.14,2.83,2.29,5.66a35.84,35.84,0,0,1-12.71,4.2l-2.11.25a21.89,21.89,0,0,1-10.64-1.14,10.29,10.29,0,0,1-6.13-7.87A39.78,39.78,0,0,1,694.52,415Z"/><path class="a46efb6f-cb5e-4422-adea-2732aae10eaa" d="M771.72,382.91c.38,1.48.78,2.95,1.16,4.43a130.76,130.76,0,0,0-13.52,1.85c.17.56.32,1.09.45,1.61a56.54,56.54,0,0,1,6.62-1,12.75,12.75,0,0,1,6.05.8,5.1,5.1,0,0,1,3,3.75l.06.36a13.17,13.17,0,0,1,0,1.87c.88-.11,1.74-.24,2.59-.39q-1.74-6.76-3.46-15.47l5.94-.29q1.56,8.67,3.23,14.76,4.08-.75,8.27-1.82.85,2.94,1.73,5.89c-2.73.67-5.48,1.27-8.27,1.81.37,1,.71,2,1,2.9.54,1.45,1.07,2.8,1.6,4,1-1.64,2-3.21,3-4.71l4.82,3.63q-2.2,3.69-4.44,7.48c.66,1,1.33,1.87,2,2.67a20,20,0,0,0,5.41,4.39c-.59,2-1.18,4.07-1.76,6.1a23.29,23.29,0,0,1-8.93-7.42c-1.18,2-2.32,4-3.45,6l-5-3.64q2.34-4.41,4.68-8.48a88.47,88.47,0,0,1-4.47-11l-.29-1-3.51.5c-.36-1.25-.73-2.5-1.09-3.74a12,12,0,0,1-.82,2.36l-4.85-.54c.08.53.15,1.06.23,1.58l-7.35.13c0,.14,0,.25.06.31a2.65,2.65,0,0,0,1,1.78,3.08,3.08,0,0,0,2.39.53c1.62-.15,4.21-1.09,7.8-2.82.43,1.15.87,2.3,1.3,3.46a27,27,0,0,1-8.92,3,10.68,10.68,0,0,1-5.61-.66,5.26,5.26,0,0,1-2.6-3.11,20.33,20.33,0,0,1-.26-2.32c-.8,0-1.62,0-2.45.07,0-1.3,0-2.59-.07-3.88l2.65-.15a14.23,14.23,0,0,1,.68-2.88c-1.84.6-3.5,1.21-4.95,1.85q1,15.72,3.78,32.57l-5.07,0a301.49,301.49,0,0,1-3.88-34.57c-.13-.22-.27-.44-.38-.65a3,3,0,0,1,.34-.14l-.09-2.23h5a1.11,1.11,0,0,0,0,.26c.36-.13.74-.26,1.14-.37-1-3.39-1.89-6.44-2.65-9.18l5.7-1.18c.27.94.54,1.85.81,2.75A128.61,128.61,0,0,1,771.72,382.91Zm-15.53,26.4a202.4,202.4,0,0,1,21.37-.89c.08,1.27.14,2.54.21,3.81-7.12,0-14.24.29-21.31.89C756.37,411.85,756.29,410.58,756.19,409.31Zm2.79,5,3.41.64a41.22,41.22,0,0,1,4.68-.68c4.22-.38,7.12-.26,8.68.36a3.46,3.46,0,0,1,2.5,2.82c0,.18.09.35.14.53.28,1.54,0,2.61-1,3.22-.27.13-.54.26-.87.4-.29.94-.54,1.87-.75,2.78,1.64-.18,3.29-.33,5-.47.28,1.13.55,2.26.82,3.39q-11,.92-22,2.94c-.27-1.09-.53-2.19-.8-3.28,1.21-.25,2.41-.49,3.64-.71-.53-1-1-2.12-1.54-3.32a3.2,3.2,0,0,1-.77-.2,3.49,3.49,0,0,1-2-2.74A9.56,9.56,0,0,1,759,414.32Zm-.05-18.85,4.64.53c-.29.88-.53,1.7-.71,2.46,2.16-.09,4.28-.14,6.41-.15.08.65.16,1.3.25,1.95a7.22,7.22,0,0,0,1.18-4.42,2.14,2.14,0,0,0-1.28-1.59,8.08,8.08,0,0,0-2.85-.17,51.61,51.61,0,0,0-7.59,1.38Zm9.14,21.7a11.62,11.62,0,0,0-5.31,1.86,1.22,1.22,0,0,0,.66.8,8.59,8.59,0,0,0,3.33.18l1.59-.14a31.41,31.41,0,0,0,4.64-.68c.55-.22.78-.56.7-1a1.47,1.47,0,0,0-1.35-1.11A24.13,24.13,0,0,0,768.07,417.17Zm-1.21,8.42c1.29-.22,2.61-.41,4-.56.22-.87.44-1.7.65-2.46l-2.41.21-2.88.26-.72.06Q766.13,424.38,766.86,425.59Zm18.86-43.42a25.75,25.75,0,0,1,7.18,6l-2.84,3.9a72,72,0,0,0-6.93-6.06C784,384.76,784.85,383.46,785.72,382.17Z"/><path class="bf40035d-716e-48b1-ae7c-5eb033af5d03" d="M435.28,458s10.68-2.84,13,2.54"/><line class="bf40035d-716e-48b1-ae7c-5eb033af5d03" x1="424.67" y1="442.27" x2="426.5" y2="444.32"/><line class="bf40035d-716e-48b1-ae7c-5eb033af5d03" x1="409.52" y1="460.15" x2="414.97" y2="458.49"/><path class="bf40035d-716e-48b1-ae7c-5eb033af5d03" d="M490.35,428.56s11.37-4.4,13.81,2.75"/><path class="bf40035d-716e-48b1-ae7c-5eb033af5d03" d="M469,433.17a10.42,10.42,0,0,0,2.54,3.23"/><line class="bf40035d-716e-48b1-ae7c-5eb033af5d03" x1="467.71" y1="449.76" x2="470.99" y2="448.63"/><line class="bf40035d-716e-48b1-ae7c-5eb033af5d03" x1="466.78" y1="457.59" x2="472.02" y2="455.97"/><path class="bf40035d-716e-48b1-ae7c-5eb033af5d03" d="M508.16,455.11a9.56,9.56,0,0,1,3.31,2.28"/><path class="bf40035d-716e-48b1-ae7c-5eb033af5d03" d="M551.45,421.86s11.76-5.58,13.89,13.8"/><line class="bf40035d-716e-48b1-ae7c-5eb033af5d03" x1="524.03" y1="422.23" x2="521.98" y2="435.66"/><path class="bf40035d-716e-48b1-ae7c-5eb033af5d03" d="M536.23,455.11a18.57,18.57,0,0,0,7.21-.58"/><line class="bf40035d-716e-48b1-ae7c-5eb033af5d03" x1="524.49" y1="447.64" x2="527.34" y2="446.53"/><path class="bf40035d-716e-48b1-ae7c-5eb033af5d03" d="M608.41,405.49s6.9-3,9,2.5"/><line class="bf40035d-716e-48b1-ae7c-5eb033af5d03" x1="575.33" y1="412.83" x2="581.77" y2="410.26"/><path class="bf40035d-716e-48b1-ae7c-5eb033af5d03" d="M582.17,437.33s.78,4.06,2.57,2.22"/><path class="bf40035d-716e-48b1-ae7c-5eb033af5d03" d="M620.34,424.7s3.82,0,2.35,4.45"/><path class="bf40035d-716e-48b1-ae7c-5eb033af5d03" d="M603.63,431.81s8.08-2.07,7.89,3.22"/><line class="bf40035d-716e-48b1-ae7c-5eb033af5d03" x1="620.63" y1="438.25" x2="612.5" y2="439.73"/><path class="bf40035d-716e-48b1-ae7c-5eb033af5d03" d="M605.4,449.54s3.27-1.34,3-4.58"/><path class="bf40035d-716e-48b1-ae7c-5eb033af5d03" d="M677.53,424.36s6.14,13.19-14.3,14.63"/><path class="bf40035d-716e-48b1-ae7c-5eb033af5d03" d="M660.22,396.24s11.53-4.18,13.63,3.45"/><path class="bf40035d-716e-48b1-ae7c-5eb033af5d03" d="M639.71,399.25s10-3.55,13.09,5.42"/><path class="bf40035d-716e-48b1-ae7c-5eb033af5d03" d="M642.62,423.86a20.76,20.76,0,0,0-.48,11.17"/><path class="bf40035d-716e-48b1-ae7c-5eb033af5d03" d="M658.46,430.24a40,40,0,0,0-6.32,1.43"/><polyline class="bf40035d-716e-48b1-ae7c-5eb033af5d03" points="727.35 395.09 732 395.09 731.71 393.18"/><path class="bf40035d-716e-48b1-ae7c-5eb033af5d03" d="M713.43,410.19s6.62-1.18,6.47,5.36"/><path class="bf40035d-716e-48b1-ae7c-5eb033af5d03" d="M697,425.53s2.84,10,16.41,7.4"/><path class="bf40035d-716e-48b1-ae7c-5eb033af5d03" d="M692.85,397.78s4.12.74,5.51,1.91"/><path class="bf40035d-716e-48b1-ae7c-5eb033af5d03" d="M692.85,407.91a25.85,25.85,0,0,1,5.51,1.54"/><path class="bf40035d-716e-48b1-ae7c-5eb033af5d03" d="M728.94,402.73s6.25,0,3.75,5.95"/><path class="bf40035d-716e-48b1-ae7c-5eb033af5d03" d="M707,390.66a12.85,12.85,0,0,0,2.13,3.48"/><path class="bf40035d-716e-48b1-ae7c-5eb033af5d03" d="M786,384.81s3.42,2,4,3.53"/><path class="bf40035d-716e-48b1-ae7c-5eb033af5d03" d="M752.09,412.83s.67,8.88,1.86,15.34"/><path class="bf40035d-716e-48b1-ae7c-5eb033af5d03" d="M767.43,391.52s7.05.12,6.14,5.71"/><path class="bf40035d-716e-48b1-ae7c-5eb033af5d03" d="M760.06,418s-1.28,4,3.68,4"/><path class="bf40035d-716e-48b1-ae7c-5eb033af5d03" d="M759.26,404s1.68,4.18,8.17,3"/><line class="bf40035d-716e-48b1-ae7c-5eb033af5d03" x1="792.86" y1="408.01" x2="785.6" y2="420.5"/><path class="ac27db27-1ae5-443a-812a-7db54420bc86" d="M354.82,480.88s1.57,5.3,6.81,6.81"/><path class="ac27db27-1ae5-443a-812a-7db54420bc86" d="M377.94,462.85s10.66-4.29,12.94,1.48"/><line class="ac27db27-1ae5-443a-812a-7db54420bc86" x1="419.42" y1="488.52" x2="446.76" y2="480.41"/><path class="ac27db27-1ae5-443a-812a-7db54420bc86" d="M468.85,466.48s.78,8.73,8.62,6.34"/><path class="ac27db27-1ae5-443a-812a-7db54420bc86" d="M492.52,463.48s1.07,7.58,9.6,4.36"/></g></g></svg>